<svg width="2416" height="1878" xmlns="http://www.w3.org/2000/svg" xmlns:xlink="http://www.w3.org/1999/xlink" xml:space="preserve" overflow="hidden"><g transform="translate(-508 -399)"><path d="M634 1090 702.968 1342.55" stroke="#000000" stroke-width="13.75" stroke-miterlimit="8" fill="none" fill-rule="evenodd"/><path d="M0 0 46.2177 252.551" stroke="#000000" stroke-width="13.75" stroke-miterlimit="8" fill="none" fill-rule="evenodd" transform="matrix(-1 0 0 1 634.218 1090)"/><path d="M634 1089.73 634 843" stroke="#000000" stroke-width="13.75" stroke-miterlimit="8" fill="none" fill-rule="evenodd"/><path d="M0 0 214.836 85.2244" stroke="#000000" stroke-width="13.75" stroke-miterlimit="8" fill="none" fill-rule="evenodd" transform="matrix(1 0 0 -1 631 848.224)"/><path d="M0 0 46.2177 252.551" stroke="#000000" stroke-width="13.75" stroke-miterlimit="8" fill="none" fill-rule="evenodd" transform="matrix(-1 0 0 1 631.218 837)"/><path d="M0 85.4999C-1.06307e-14 38.2796 37.3842-1.08853e-14 83.5-2.17706e-14 129.616-4.35411e-14 167 38.2796 167 85.4999 167 132.72 129.616 171 83.5 171 37.3842 171-5.31533e-14 132.72 0 85.4999Z" stroke="#000000" stroke-width="13.75" stroke-miterlimit="8" fill="none" fill-rule="evenodd" transform="matrix(-1 0 0 1 715 672)"/><path d="M850.877 716.375 822.502 663.493C639.965 625.631 575.488 540.544 678.488 473.445 781.488 406.346 1012.96 382.645 1195.5 420.507 1378.04 458.368 1442.51 543.456 1339.51 610.555 1263.49 660.08 1113.29 687.686 959.895 680.328Z" stroke="#000000" stroke-width="4.58333" stroke-miterlimit="8" fill="none" fill-rule="evenodd"/><text font-family="Calibri,Calibri_MSFontService,sans-serif" font-weight="400" font-size="83" transform="matrix(1 0 0 1 838.562 519)">I</text><text font-family="Calibri,Calibri_MSFontService,sans-serif" font-weight="400" font-size="83" transform="matrix(1 0 0 1 878.093 519)">want</text><text font-family="Calibri,Calibri_MSFontService,sans-serif" font-weight="400" font-size="83" transform="matrix(1 0 0 1 1066.58 519)">the</text><text font-family="Calibri,Calibri_MSFontService,sans-serif" font-weight="400" font-size="83" transform="matrix(1 0 0 1 780.422 618)">best</text><text font-family="Calibri,Calibri_MSFontService,sans-serif" font-weight="400" font-size="83" transform="matrix(1 0 0 1 943.703 618)">portfoli</text><text font-family="Calibri,Calibri_MSFontService,sans-serif" font-weight="400" font-size="83" transform="matrix(1 0 0 1 1193.5 618)">o</text><path d="M0 0 70.7143 252.551" stroke="#000000" stroke-width="13.75" stroke-miterlimit="8" fill="none" fill-rule="evenodd" transform="matrix(-1 0 0 1 1431.71 1106)"/><path d="M1432 1106 1479.39 1358.55" stroke="#000000" stroke-width="13.75" stroke-miterlimit="8" fill="none" fill-rule="evenodd"/><path d="M0 0 0.000360892 246.735" stroke="#000000" stroke-width="13.75" stroke-miterlimit="8" fill="none" fill-rule="evenodd" transform="matrix(1 0 0 -1 1432 1105.73)"/><path d="M0 0 70.7143 252.551" stroke="#000000" stroke-width="13.75" stroke-miterlimit="8" fill="none" fill-rule="evenodd" transform="matrix(-1 0 0 1 1434.71 853)"/><path d="M1435 853 1482.39 1105.55" stroke="#000000" stroke-width="13.75" stroke-miterlimit="8" fill="none" fill-rule="evenodd"/><path d="M1349 773.5C1349 726.28 1387.28 688 1434.5 688 1481.72 688 1520 726.28 1520 773.5 1520 820.72 1481.72 859 1434.5 859 1387.28 859 1349 820.72 1349 773.5Z" stroke="#000000" stroke-width="13.75" stroke-miterlimit="8" fill="none" fill-rule="evenodd"/><path d="M1313.2 829.814 1281.91 876.041C1367.73 897.688 1382.71 937.605 1315.38 965.196 1248.06 992.788 1123.91 997.607 1038.09 975.959 952.274 954.312 937.287 914.395 1004.62 886.804 1054.31 866.438 1137.48 857.81 1214.82 864.995Z" stroke="#000000" stroke-width="4.58333" stroke-miterlimit="8" fill="none" fill-rule="evenodd"/><text font-family="Calibri,Calibri_MSFontService,sans-serif" font-weight="400" font-size="83" transform="matrix(1 0 0 1 1083.69 953)">Sure</text><path d="M0 0 70.7143 252.551" stroke="#000000" stroke-width="13.75" stroke-miterlimit="8" fill="none" fill-rule="evenodd" transform="matrix(-1 0 0 1 2378.71 1098)"/><path d="M2378 1098 2425.39 1350.55" stroke="#000000" stroke-width="13.75" stroke-miterlimit="8" fill="none" fill-rule="evenodd"/><path d="M0 0 0.000360892 246.735" stroke="#000000" stroke-width="13.75" stroke-miterlimit="8" fill="none" fill-rule="evenodd" transform="matrix(1 0 0 -1 2378 1097.73)"/><path d="M2334 773.5C2334 726.28 2372.28 688 2419.5 688 2466.72 688 2505 726.28 2505 773.5 2505 820.72 2466.72 859 2419.5 859 2372.28 859 2334 820.72 2334 773.5Z" stroke="#000000" stroke-width="13.75" stroke-miterlimit="8" fill="none" fill-rule="evenodd"/><path d="M2383 853 2468.82 956.041" stroke="#000000" stroke-width="13.75" stroke-miterlimit="8" fill="none" fill-rule="evenodd"/><path d="M2588.4 1019.03 2467 954" stroke="#000000" stroke-width="13.75" stroke-miterlimit="8" fill="none" fill-rule="evenodd"/><path d="M2469 927 2587.49 974.185" stroke="#000000" stroke-width="13.75" stroke-miterlimit="8" fill="none" fill-rule="evenodd"/><path d="M2359 834 2478.86 933.473" stroke="#000000" stroke-width="13.75" stroke-miterlimit="8" fill="none" fill-rule="evenodd"/><path d="M0 0 70.7143 252.551" stroke="#000000" stroke-width="13.75" stroke-miterlimit="8" fill="none" fill-rule="evenodd" transform="matrix(-1 0 0 1 2006.71 1106)"/><path d="M2007 1106 2054.39 1358.55" stroke="#000000" stroke-width="13.75" stroke-miterlimit="8" fill="none" fill-rule="evenodd"/><path d="M0 0 0.000360892 246.735" stroke="#000000" stroke-width="13.75" stroke-miterlimit="8" fill="none" fill-rule="evenodd" transform="matrix(1 0 0 -1 2007 1105.73)"/><path d="M0 0 70.7143 252.551" stroke="#000000" stroke-width="13.75" stroke-miterlimit="8" fill="none" fill-rule="evenodd" transform="matrix(-1 0 0 1 2009.71 853)"/><path d="M2009 853 2056.39 1105.55" stroke="#000000" stroke-width="13.75" stroke-miterlimit="8" fill="none" fill-rule="evenodd"/><path d="M1924 773.5C1924 726.28 1962.28 688 2009.5 688 2056.72 688 2095 726.28 2095 773.5 2095 820.72 2056.72 859 2009.5 859 1962.28 859 1924 820.72 1924 773.5Z" stroke="#000000" stroke-width="13.75" stroke-miterlimit="8" fill="none" fill-rule="evenodd"/><path d="M0 0 12.8337 1801.25" stroke="#4472C4" stroke-width="2.29167" stroke-miterlimit="8" fill="none" fill-rule="evenodd" transform="matrix(-1 0 0 1 1714.83 454)"/><path d="M0 0 0.000360892 278.391" stroke="#000000" stroke-width="13.75" stroke-miterlimit="8" fill="none" fill-rule="evenodd" transform="matrix(1 0 0 -1 2614 1350.39)"/><path d="M0 0 0.000360892 275.065" stroke="#000000" stroke-width="13.75" stroke-miterlimit="8" fill="none" fill-rule="evenodd" transform="matrix(1 0 0 -1 2789 1354.06)"/><path d="M2576 1072 2830.76 1072" stroke="#000000" stroke-width="13.75" stroke-miterlimit="8" fill="none" fill-rule="evenodd"/><path d="M0 0 0.000360892 127.671" stroke="#000000" stroke-width="13.75" stroke-miterlimit="8" fill="none" fill-rule="evenodd" transform="matrix(1 0 0 -1 2749 1006.67)"/><path d="M2621 838 2621 1037.23" stroke="#000000" stroke-width="13.75" stroke-miterlimit="8" fill="none" fill-rule="evenodd"/><path d="M2615 844 2674.37 844" stroke="#000000" stroke-width="13.75" stroke-miterlimit="8" fill="none" fill-rule="evenodd"/><path d="M2668 838 2668 868.57" stroke="#000000" stroke-width="13.75" stroke-miterlimit="8" fill="none" fill-rule="evenodd"/><path d="M2668 862 2755.27 884.146" stroke="#000000" stroke-width="13.75" stroke-miterlimit="8" fill="none" fill-rule="evenodd"/><path d="M2614 1034 2673.37 1034" stroke="#000000" stroke-width="13.75" stroke-miterlimit="8" fill="none" fill-rule="evenodd"/><path d="M2668 1007 2668 1037.57" stroke="#000000" stroke-width="13.75" stroke-miterlimit="8" fill="none" fill-rule="evenodd"/><path d="M0 0 94.3672 10.5106" stroke="#000000" stroke-width="13.75" stroke-miterlimit="8" fill="none" fill-rule="evenodd" transform="matrix(1 0 0 -1 2661 1014.51)"/><path d="M0 0 0.000360892 32.476" stroke="#000000" stroke-width="13.75" stroke-miterlimit="8" fill="none" fill-rule="evenodd" transform="matrix(1 0 0 -1 2644 1069.48)"/><path d="M0 0 0.000360892 55.9675" stroke="#000000" stroke-width="13.75" stroke-miterlimit="8" fill="none" fill-rule="evenodd" transform="matrix(1 0 0 -1 2712 1069.97)"/><path d="M1363.97 1713.39 1285.89 1716.77C1194 1762.82 1038.08 1766 937.627 1723.88 837.175 1681.76 830.229 1610.28 922.114 1564.23 1014 1518.18 1169.92 1515 1270.37 1557.12 1344.52 1588.21 1370.07 1636.82 1334.97 1679.98Z" stroke="#000000" stroke-width="4.58333" stroke-miterlimit="8" fill="none" fill-rule="evenodd"/><text font-family="Calibri,Calibri_MSFontService,sans-serif" font-weight="400" font-size="83" transform="matrix(1 0 0 1 1006.46 1618)">There </text><text font-family="Calibri,Calibri_MSFontService,sans-serif" font-weight="400" font-size="83" transform="matrix(1 0 0 1 990.987 1717)">you go</text><path d="M0 0 70.7143 252.551" stroke="#000000" stroke-width="13.75" stroke-miterlimit="8" fill="none" fill-rule="evenodd" transform="matrix(-1 0 0 1 671.714 2014)"/><path d="M672 2014 719.388 2266.55" stroke="#000000" stroke-width="13.75" stroke-miterlimit="8" fill="none" fill-rule="evenodd"/><path d="M0 0 0.000360892 246.735" stroke="#000000" stroke-width="13.75" stroke-miterlimit="8" fill="none" fill-rule="evenodd" transform="matrix(1 0 0 -1 672 2014.73)"/><path d="M0 0 70.7143 252.551" stroke="#000000" stroke-width="13.75" stroke-miterlimit="8" fill="none" fill-rule="evenodd" transform="matrix(-1 0 0 1 674.714 1762)"/><path d="M674 1762 721.388 2014.55" stroke="#000000" stroke-width="13.75" stroke-miterlimit="8" fill="none" fill-rule="evenodd"/><path d="M589 1682.5C589 1635.28 627.28 1597 674.5 1597 721.72 1597 760 1635.28 760 1682.5 760 1729.72 721.72 1768 674.5 1768 627.28 1768 589 1729.72 589 1682.5Z" stroke="#000000" stroke-width="13.75" stroke-miterlimit="8" fill="none" fill-rule="evenodd"/><path d="M509 1423 2922.38 1440.8" stroke="#4472C4" stroke-width="2.29167" stroke-miterlimit="8" fill="none" fill-rule="evenodd"/><g><g><g><path d="M239.643 151.823 223.919 146.284C222.464 145.741 220.844 146.481 220.301 147.936 219.759 149.392 220.498 151.012 221.954 151.554 221.986 151.567 222.019 151.578 222.052 151.589L237.704 157.101C240.599 158.23 242.031 161.491 240.902 164.386 239.774 167.281 236.512 168.713 233.617 167.584L215.403 161.137C213.939 160.618 212.332 161.384 211.813 162.848 211.294 164.313 212.06 165.92 213.525 166.439L231.673 172.864C237.48 175.072 243.978 172.154 246.186 166.346 248.394 160.538 245.476 154.04 239.669 151.832 239.66 151.829 239.652 151.826 239.643 151.823Z" transform="matrix(-1 0 0 1.22222 1420 1753)"/><path d="M250.753 97.7825 249.681 96.7099 250.652 82.4606C251.01 77.411 249.333 72.4278 245.994 68.6231 243.194 65.2337 239.508 62.6893 235.346 61.2732L235.346 50.6813C235.346 47.5746 232.828 45.0563 229.721 45.0563 228.322 45.0563 226.973 45.5777 225.938 46.5188L215.156 56.3144C215.086 56.378 215.019 56.4447 214.956 56.515 214.321 57.2226 213.545 57.7896 212.678 58.1794L206.828 60.8271C199.017 64.345 192.501 70.2152 188.191 77.6178L175.894 98.6525C174.275 101.407 171.454 103.239 168.279 103.598L151.974 105.401C140.839 106.819 130.203 110.871 120.947 117.219L110.308 124.534C102.459 129.875 95.953 136.961 91.2989 145.236 89.5428 148.261 88.274 151.545 87.5391 154.965 76.747 170.627 49.7953 177.545 20.2078 172.166 18.6803 171.885 17.2136 172.895 16.932 174.422 16.6503 175.95 17.6603 177.416 19.1879 177.698 19.1928 177.699 19.1977 177.7 19.2026 177.701 25.9065 178.932 32.7074 179.559 39.5233 179.574 59.0232 179.574 76.0796 174.154 86.6633 164.448 86.6523 165.102 86.6352 165.726 86.6352 166.429 86.6352 180.084 92.5977 185.892 97.859 191.017 102.398 195.441 106.32 199.262 106.32 208.125 106.327 214.335 111.36 219.368 117.57 219.375L154.133 219.375C160.346 219.375 165.383 214.338 165.383 208.125 165.383 201.912 160.346 196.875 154.133 196.875L145.263 196.875C147.559 195.013 149.513 192.766 151.039 190.234 156.843 189.64 178.342 187.05 188.842 180.428L209.395 200.538C213.833 204.888 220.957 204.817 225.308 200.38 225.492 200.191 225.671 199.996 225.842 199.795 229.644 195.116 229.2 188.297 224.823 184.15L209.066 168.699C208.161 167.81 207.963 166.426 208.581 165.319L219.865 145.14C222.043 141.254 223.421 136.97 223.917 132.543L225.275 120.515C225.4 119.4 226.344 118.557 227.466 118.558L233.86 118.558C237.476 118.55 240.996 117.394 243.913 115.256L249.758 110.953C253.631 108.1 254.458 102.648 251.605 98.7751 251.347 98.4238 251.062 98.0925 250.753 97.784ZM219.685 119.883 219.215 124.036 182.424 98.6271 184.709 94.7178 219.869 119C219.791 119.291 219.729 119.585 219.685 119.883ZM214.955 142.395 203.67 162.573C201.818 165.897 202.415 170.048 205.128 172.715L220.883 188.165C223.123 190.256 223.416 193.703 221.562 196.142 219.426 198.517 215.769 198.711 213.394 196.575 213.372 196.556 213.351 196.537 213.33 196.517L179.469 163.39C178.358 162.304 176.577 162.324 175.491 163.434 174.405 164.545 174.425 166.326 175.535 167.412L184.669 176.348C176.925 180.632 162.49 183.182 153.671 184.276 155.695 177.413 154.706 170.014 150.951 163.924 150.136 162.601 148.404 162.189 147.081 163.004 145.758 163.818 145.346 165.551 146.161 166.874 151.855 176.14 148.958 188.267 139.692 193.961 136.593 195.865 133.026 196.874 129.389 196.875L128.82 196.875C127.267 196.875 126.008 198.134 126.008 199.688 126.008 201.241 127.267 202.5 128.82 202.5L154.133 202.5C157.239 202.5 159.758 205.018 159.758 208.125 159.758 211.232 157.239 213.75 154.133 213.75L117.57 213.75C114.465 213.747 111.949 211.23 111.945 208.125 111.945 196.889 106.545 191.629 101.781 186.988 96.8842 182.217 92.2577 177.711 92.2577 166.429 92.2577 157.455 93.0733 153.657 96.2233 147.956 100.453 140.445 106.364 134.014 113.494 129.168L124.133 121.854C132.636 116.021 142.406 112.295 152.634 110.987L168.896 109.188C173.03 108.716 176.812 106.632 179.418 103.388L218.5 130.378 218.327 131.911C217.914 135.596 216.768 139.16 214.956 142.395ZM246.422 106.423 240.578 110.726C238.631 112.159 236.277 112.933 233.86 112.933L227.466 112.933C225.876 112.938 224.325 113.43 223.023 114.344L187.556 89.849 193.049 80.4553C196.782 74.0703 202.406 69.0028 209.145 65.9532L214.998 63.3041C216.528 62.615 217.902 61.623 219.038 60.3878L229.673 50.724C229.685 50.7136 229.703 50.7145 229.713 50.726 229.718 50.7313 229.72 50.7378 229.72 50.7449L229.72 63.3167C229.722 64.5638 230.543 65.6618 231.739 66.0151 235.656 66.9727 239.159 69.1721 241.723 72.2847 244.085 74.9788 245.279 78.5017 245.04 82.0767L244.044 96.6764C243.949 98.0765 244.464 99.4492 245.456 100.441L246.774 101.759C247.978 102.963 247.978 104.916 246.773 106.12 246.664 106.229 246.547 106.33 246.423 106.422Z" transform="matrix(-1 0 0 1.22222 1420 1753)"/><path d="M239.073 85.7813C239.073 88.1113 237.185 90.0001 234.855 90.0001 232.525 90.0001 230.636 88.1113 230.636 85.7813 230.636 83.4514 232.525 81.5626 234.855 81.5626 237.185 81.5626 239.073 83.4514 239.073 85.7813Z" transform="matrix(-1 0 0 1.22222 1420 1753)"/></g></g></g><path d="M1500 2017 1570.8 2269.55" stroke="#000000" stroke-width="13.75" stroke-miterlimit="8" fill="none" fill-rule="evenodd"/><path d="M0 0 47.4465 252.551" stroke="#000000" stroke-width="13.75" stroke-miterlimit="8" fill="none" fill-rule="evenodd" transform="matrix(-1 0 0 1 1499.45 2017)"/><path d="M1500 2016.73 1500 1770" stroke="#000000" stroke-width="13.75" stroke-miterlimit="8" fill="none" fill-rule="evenodd"/><path d="M0 85.4999C-1.08853e-14 38.2796 38.2797-1.08853e-14 85.5001-2.17706e-14 132.72-4.35411e-14 171 38.2796 171 85.4999 171 132.72 132.72 171 85.5001 171 38.2797 171-5.44265e-14 132.72 0 85.4999Z" stroke="#000000" stroke-width="13.75" stroke-miterlimit="8" fill="none" fill-rule="evenodd" transform="matrix(-1 0 0 1 1544 1607)"/><path d="M0 0 85.9231 103.041" stroke="#000000" stroke-width="13.75" stroke-miterlimit="8" fill="none" fill-rule="evenodd" transform="matrix(-1 0 0 1 1495.92 1772)"/><path d="M0 0 121.555 65.0321" stroke="#000000" stroke-width="13.75" stroke-miterlimit="8" fill="none" fill-rule="evenodd" transform="matrix(1 0 0 -1 1290 1938.03)"/><path d="M0 0 118.638 47.1849" stroke="#000000" stroke-width="13.75" stroke-miterlimit="8" fill="none" fill-rule="evenodd" transform="matrix(-1 0 0 1 1408.64 1846)"/><path d="M0 0 120.01 99.4731" stroke="#000000" stroke-width="13.75" stroke-miterlimit="8" fill="none" fill-rule="evenodd" transform="matrix(-1 0 0 1 1519.01 1753)"/><path d="M0 0 70.7143 252.551" stroke="#000000" stroke-width="13.75" stroke-miterlimit="8" fill="none" fill-rule="evenodd" transform="matrix(-1 0 0 1 2750.71 2007)"/><path d="M2751 2007 2798.39 2259.55" stroke="#000000" stroke-width="13.75" stroke-miterlimit="8" fill="none" fill-rule="evenodd"/><path d="M0 0 0.000360892 246.735" stroke="#000000" stroke-width="13.75" stroke-miterlimit="8" fill="none" fill-rule="evenodd" transform="matrix(1 0 0 -1 2751 2006.73)"/><path d="M0 0 70.7143 252.551" stroke="#000000" stroke-width="13.75" stroke-miterlimit="8" fill="none" fill-rule="evenodd" transform="matrix(-1 0 0 1 2753.71 1755)"/><path d="M2754 1755 2801.39 2007.55" stroke="#000000" stroke-width="13.75" stroke-miterlimit="8" fill="none" fill-rule="evenodd"/><path d="M2668 1674.5C2668 1627.28 2706.28 1589 2753.5 1589 2800.72 1589 2839 1627.28 2839 1674.5 2839 1721.72 2800.72 1760 2753.5 1760 2706.28 1760 2668 1721.72 2668 1674.5Z" stroke="#000000" stroke-width="13.75" stroke-miterlimit="8" fill="none" fill-rule="evenodd"/><path d="M0 0 70.7143 252.551" stroke="#000000" stroke-width="13.75" stroke-miterlimit="8" fill="none" fill-rule="evenodd" transform="matrix(-1 0 0 1 2017.71 2000)"/><path d="M2018 2000 2065.39 2252.55" stroke="#000000" stroke-width="13.75" stroke-miterlimit="8" fill="none" fill-rule="evenodd"/><path d="M0 0 0.000360892 246.735" stroke="#000000" stroke-width="13.75" stroke-miterlimit="8" fill="none" fill-rule="evenodd" transform="matrix(1 0 0 -1 2018 1999.73)"/><path d="M1973 1675.5C1973 1628.28 2011.28 1590 2058.5 1590 2105.72 1590 2144 1628.28 2144 1675.5 2144 1722.72 2105.72 1761 2058.5 1761 2011.28 1761 1973 1722.72 1973 1675.5Z" stroke="#000000" stroke-width="13.75" stroke-miterlimit="8" fill="none" fill-rule="evenodd"/><path d="M2022 1755 2107.82 1858.04" stroke="#000000" stroke-width="13.75" stroke-miterlimit="8" fill="none" fill-rule="evenodd"/><path d="M2227.4 1921.03 2106 1856" stroke="#000000" stroke-width="13.75" stroke-miterlimit="8" fill="none" fill-rule="evenodd"/><path d="M2109 1829 2227.49 1876.18" stroke="#000000" stroke-width="13.75" stroke-miterlimit="8" fill="none" fill-rule="evenodd"/><path d="M1998 1736 2117.86 1835.47" stroke="#000000" stroke-width="13.75" stroke-miterlimit="8" fill="none" fill-rule="evenodd"/><g><g><g><path d="M239.643 151.823 223.919 146.284C222.464 145.741 220.844 146.481 220.301 147.936 219.759 149.392 220.498 151.012 221.954 151.554 221.986 151.567 222.019 151.578 222.052 151.589L237.704 157.101C240.599 158.23 242.031 161.491 240.902 164.386 239.774 167.281 236.512 168.713 233.617 167.584L215.403 161.137C213.939 160.618 212.332 161.384 211.813 162.848 211.294 164.313 212.06 165.92 213.525 166.439L231.673 172.864C237.48 175.072 243.978 172.154 246.186 166.346 248.394 160.538 245.476 154.04 239.669 151.832 239.66 151.829 239.652 151.826 239.643 151.823Z" transform="matrix(1 0 0 1.38148 2107 1707)"/><path d="M250.753 97.7825 249.681 96.7099 250.652 82.4606C251.01 77.411 249.333 72.4278 245.994 68.6231 243.194 65.2337 239.508 62.6893 235.346 61.2732L235.346 50.6813C235.346 47.5746 232.828 45.0563 229.721 45.0563 228.322 45.0563 226.973 45.5777 225.938 46.5188L215.156 56.3144C215.086 56.378 215.019 56.4447 214.956 56.515 214.321 57.2226 213.545 57.7896 212.678 58.1794L206.828 60.8271C199.017 64.345 192.501 70.2152 188.191 77.6178L175.894 98.6525C174.275 101.407 171.454 103.239 168.279 103.598L151.974 105.401C140.839 106.819 130.203 110.871 120.947 117.219L110.308 124.534C102.459 129.875 95.953 136.961 91.2989 145.236 89.5428 148.261 88.274 151.545 87.5391 154.965 76.747 170.627 49.7953 177.545 20.2078 172.166 18.6803 171.885 17.2136 172.895 16.932 174.422 16.6503 175.95 17.6603 177.416 19.1879 177.698 19.1928 177.699 19.1977 177.7 19.2026 177.701 25.9065 178.932 32.7074 179.559 39.5233 179.574 59.0232 179.574 76.0796 174.154 86.6633 164.448 86.6523 165.102 86.6352 165.726 86.6352 166.429 86.6352 180.084 92.5977 185.892 97.859 191.017 102.398 195.441 106.32 199.262 106.32 208.125 106.327 214.335 111.36 219.368 117.57 219.375L154.133 219.375C160.346 219.375 165.383 214.338 165.383 208.125 165.383 201.912 160.346 196.875 154.133 196.875L145.263 196.875C147.559 195.013 149.513 192.766 151.039 190.234 156.843 189.64 178.342 187.05 188.842 180.428L209.395 200.538C213.833 204.888 220.957 204.817 225.308 200.38 225.492 200.191 225.671 199.996 225.842 199.795 229.644 195.116 229.2 188.297 224.823 184.15L209.066 168.699C208.161 167.81 207.963 166.426 208.581 165.319L219.865 145.14C222.043 141.254 223.421 136.97 223.917 132.543L225.275 120.515C225.4 119.4 226.344 118.557 227.466 118.558L233.86 118.558C237.476 118.55 240.996 117.394 243.913 115.256L249.758 110.953C253.631 108.1 254.458 102.648 251.605 98.7751 251.347 98.4238 251.062 98.0925 250.753 97.784ZM219.685 119.883 219.215 124.036 182.424 98.6271 184.709 94.7178 219.869 119C219.791 119.291 219.729 119.585 219.685 119.883ZM214.955 142.395 203.67 162.573C201.818 165.897 202.415 170.048 205.128 172.715L220.883 188.165C223.123 190.256 223.416 193.703 221.562 196.142 219.426 198.517 215.769 198.711 213.394 196.575 213.372 196.556 213.351 196.537 213.33 196.517L179.469 163.39C178.358 162.304 176.577 162.324 175.491 163.434 174.405 164.545 174.425 166.326 175.535 167.412L184.669 176.348C176.925 180.632 162.49 183.182 153.671 184.276 155.695 177.413 154.706 170.014 150.951 163.924 150.136 162.601 148.404 162.189 147.081 163.004 145.758 163.818 145.346 165.551 146.161 166.874 151.855 176.14 148.958 188.267 139.692 193.961 136.593 195.865 133.026 196.874 129.389 196.875L128.82 196.875C127.267 196.875 126.008 198.134 126.008 199.688 126.008 201.241 127.267 202.5 128.82 202.5L154.133 202.5C157.239 202.5 159.758 205.018 159.758 208.125 159.758 211.232 157.239 213.75 154.133 213.75L117.57 213.75C114.465 213.747 111.949 211.23 111.945 208.125 111.945 196.889 106.545 191.629 101.781 186.988 96.8842 182.217 92.2577 177.711 92.2577 166.429 92.2577 157.455 93.0733 153.657 96.2233 147.956 100.453 140.445 106.364 134.014 113.494 129.168L124.133 121.854C132.636 116.021 142.406 112.295 152.634 110.987L168.896 109.188C173.03 108.716 176.812 106.632 179.418 103.388L218.5 130.378 218.327 131.911C217.914 135.596 216.768 139.16 214.956 142.395ZM246.422 106.423 240.578 110.726C238.631 112.159 236.277 112.933 233.86 112.933L227.466 112.933C225.876 112.938 224.325 113.43 223.023 114.344L187.556 89.849 193.049 80.4553C196.782 74.0703 202.406 69.0028 209.145 65.9532L214.998 63.3041C216.528 62.615 217.902 61.623 219.038 60.3878L229.673 50.724C229.685 50.7136 229.703 50.7145 229.713 50.726 229.718 50.7313 229.72 50.7378 229.72 50.7449L229.72 63.3167C229.722 64.5638 230.543 65.6618 231.739 66.0151 235.656 66.9727 239.159 69.1721 241.723 72.2847 244.085 74.9788 245.279 78.5017 245.04 82.0767L244.044 96.6764C243.949 98.0765 244.464 99.4492 245.456 100.441L246.774 101.759C247.978 102.963 247.978 104.916 246.773 106.12 246.664 106.229 246.547 106.33 246.423 106.422Z" transform="matrix(1 0 0 1.38148 2107 1707)"/><path d="M239.073 85.7813C239.073 88.1113 237.185 90.0001 234.855 90.0001 232.525 90.0001 230.636 88.1113 230.636 85.7813 230.636 83.4514 232.525 81.5626 234.855 81.5626 237.185 81.5626 239.073 83.4514 239.073 85.7813Z" transform="matrix(1 0 0 1.38148 2107 1707)"/></g></g></g><path d="M2172.42 1660.95 2229.28 1632.34C2173.39 1601.24 2215.04 1562.89 2322.31 1546.69 2429.57 1530.48 2561.83 1542.56 2617.72 1573.66 2673.61 1604.76 2631.96 1643.11 2524.69 1659.31 2445.52 1671.28 2349.24 1668.1 2281.33 1651.3Z" stroke="#000000" stroke-width="4.58333" stroke-miterlimit="8" fill="none" fill-rule="evenodd"/><text font-family="Calibri,Calibri_MSFontService,sans-serif" font-weight="400" font-size="83" transform="matrix(1 0 0 1 2305.21 1630)">Thanks</text></g></svg>