<?xml version="1.0" encoding="utf-8"?>
<svg xmlns="http://www.w3.org/2000/svg" xmlns:xlink="http://www.w3.org/1999/xlink" width="600" height="400" viewBox="0 0 2400 1600">
<defs>
  <clipPath id="clip830">
    <rect x="0" y="0" width="2400" height="1600"/>
  </clipPath>
</defs>
<path clip-path="url(#clip830)" d="M0 1600 L2400 1600 L2400 0 L0 0  Z" fill="#ffffff" fill-rule="evenodd" fill-opacity="1"/>
<defs>
  <clipPath id="clip831">
    <rect x="480" y="0" width="1681" height="1600"/>
  </clipPath>
</defs>
<path clip-path="url(#clip830)" d="M251.372 1423.18 L2352.76 1423.18 L2352.76 123.472 L251.372 123.472  Z" fill="#ffffff" fill-rule="evenodd" fill-opacity="1"/>
<defs>
  <clipPath id="clip832">
    <rect x="251" y="123" width="2102" height="1301"/>
  </clipPath>
</defs>
<polyline clip-path="url(#clip832)" style="stroke:#000000; stroke-linecap:round; stroke-linejoin:round; stroke-width:2; stroke-opacity:0.1; fill:none" points="523.249,1423.18 523.249,123.472 "/>
<polyline clip-path="url(#clip832)" style="stroke:#000000; stroke-linecap:round; stroke-linejoin:round; stroke-width:2; stroke-opacity:0.1; fill:none" points="877.256,1423.18 877.256,123.472 "/>
<polyline clip-path="url(#clip832)" style="stroke:#000000; stroke-linecap:round; stroke-linejoin:round; stroke-width:2; stroke-opacity:0.1; fill:none" points="1231.26,1423.18 1231.26,123.472 "/>
<polyline clip-path="url(#clip832)" style="stroke:#000000; stroke-linecap:round; stroke-linejoin:round; stroke-width:2; stroke-opacity:0.1; fill:none" points="1585.27,1423.18 1585.27,123.472 "/>
<polyline clip-path="url(#clip832)" style="stroke:#000000; stroke-linecap:round; stroke-linejoin:round; stroke-width:2; stroke-opacity:0.1; fill:none" points="1939.28,1423.18 1939.28,123.472 "/>
<polyline clip-path="url(#clip832)" style="stroke:#000000; stroke-linecap:round; stroke-linejoin:round; stroke-width:2; stroke-opacity:0.1; fill:none" points="2293.28,1423.18 2293.28,123.472 "/>
<polyline clip-path="url(#clip832)" style="stroke:#000000; stroke-linecap:round; stroke-linejoin:round; stroke-width:2; stroke-opacity:0.05; fill:none" points="310.845,1423.18 310.845,123.472 "/>
<polyline clip-path="url(#clip832)" style="stroke:#000000; stroke-linecap:round; stroke-linejoin:round; stroke-width:2; stroke-opacity:0.05; fill:none" points="381.647,1423.18 381.647,123.472 "/>
<polyline clip-path="url(#clip832)" style="stroke:#000000; stroke-linecap:round; stroke-linejoin:round; stroke-width:2; stroke-opacity:0.05; fill:none" points="452.448,1423.18 452.448,123.472 "/>
<polyline clip-path="url(#clip832)" style="stroke:#000000; stroke-linecap:round; stroke-linejoin:round; stroke-width:2; stroke-opacity:0.05; fill:none" points="594.051,1423.18 594.051,123.472 "/>
<polyline clip-path="url(#clip832)" style="stroke:#000000; stroke-linecap:round; stroke-linejoin:round; stroke-width:2; stroke-opacity:0.05; fill:none" points="664.852,1423.18 664.852,123.472 "/>
<polyline clip-path="url(#clip832)" style="stroke:#000000; stroke-linecap:round; stroke-linejoin:round; stroke-width:2; stroke-opacity:0.05; fill:none" points="735.653,1423.18 735.653,123.472 "/>
<polyline clip-path="url(#clip832)" style="stroke:#000000; stroke-linecap:round; stroke-linejoin:round; stroke-width:2; stroke-opacity:0.05; fill:none" points="806.455,1423.18 806.455,123.472 "/>
<polyline clip-path="url(#clip832)" style="stroke:#000000; stroke-linecap:round; stroke-linejoin:round; stroke-width:2; stroke-opacity:0.05; fill:none" points="948.057,1423.18 948.057,123.472 "/>
<polyline clip-path="url(#clip832)" style="stroke:#000000; stroke-linecap:round; stroke-linejoin:round; stroke-width:2; stroke-opacity:0.05; fill:none" points="1018.86,1423.18 1018.86,123.472 "/>
<polyline clip-path="url(#clip832)" style="stroke:#000000; stroke-linecap:round; stroke-linejoin:round; stroke-width:2; stroke-opacity:0.05; fill:none" points="1089.66,1423.18 1089.66,123.472 "/>
<polyline clip-path="url(#clip832)" style="stroke:#000000; stroke-linecap:round; stroke-linejoin:round; stroke-width:2; stroke-opacity:0.05; fill:none" points="1160.46,1423.18 1160.46,123.472 "/>
<polyline clip-path="url(#clip832)" style="stroke:#000000; stroke-linecap:round; stroke-linejoin:round; stroke-width:2; stroke-opacity:0.05; fill:none" points="1302.06,1423.18 1302.06,123.472 "/>
<polyline clip-path="url(#clip832)" style="stroke:#000000; stroke-linecap:round; stroke-linejoin:round; stroke-width:2; stroke-opacity:0.05; fill:none" points="1372.87,1423.18 1372.87,123.472 "/>
<polyline clip-path="url(#clip832)" style="stroke:#000000; stroke-linecap:round; stroke-linejoin:round; stroke-width:2; stroke-opacity:0.05; fill:none" points="1443.67,1423.18 1443.67,123.472 "/>
<polyline clip-path="url(#clip832)" style="stroke:#000000; stroke-linecap:round; stroke-linejoin:round; stroke-width:2; stroke-opacity:0.05; fill:none" points="1514.47,1423.18 1514.47,123.472 "/>
<polyline clip-path="url(#clip832)" style="stroke:#000000; stroke-linecap:round; stroke-linejoin:round; stroke-width:2; stroke-opacity:0.05; fill:none" points="1656.07,1423.18 1656.07,123.472 "/>
<polyline clip-path="url(#clip832)" style="stroke:#000000; stroke-linecap:round; stroke-linejoin:round; stroke-width:2; stroke-opacity:0.05; fill:none" points="1726.87,1423.18 1726.87,123.472 "/>
<polyline clip-path="url(#clip832)" style="stroke:#000000; stroke-linecap:round; stroke-linejoin:round; stroke-width:2; stroke-opacity:0.05; fill:none" points="1797.67,1423.18 1797.67,123.472 "/>
<polyline clip-path="url(#clip832)" style="stroke:#000000; stroke-linecap:round; stroke-linejoin:round; stroke-width:2; stroke-opacity:0.05; fill:none" points="1868.47,1423.18 1868.47,123.472 "/>
<polyline clip-path="url(#clip832)" style="stroke:#000000; stroke-linecap:round; stroke-linejoin:round; stroke-width:2; stroke-opacity:0.05; fill:none" points="2010.08,1423.18 2010.08,123.472 "/>
<polyline clip-path="url(#clip832)" style="stroke:#000000; stroke-linecap:round; stroke-linejoin:round; stroke-width:2; stroke-opacity:0.05; fill:none" points="2080.88,1423.18 2080.88,123.472 "/>
<polyline clip-path="url(#clip832)" style="stroke:#000000; stroke-linecap:round; stroke-linejoin:round; stroke-width:2; stroke-opacity:0.05; fill:none" points="2151.68,1423.18 2151.68,123.472 "/>
<polyline clip-path="url(#clip832)" style="stroke:#000000; stroke-linecap:round; stroke-linejoin:round; stroke-width:2; stroke-opacity:0.05; fill:none" points="2222.48,1423.18 2222.48,123.472 "/>
<polyline clip-path="url(#clip830)" style="stroke:#000000; stroke-linecap:round; stroke-linejoin:round; stroke-width:4; stroke-opacity:1; fill:none" points="251.372,1423.18 2352.76,1423.18 "/>
<polyline clip-path="url(#clip830)" style="stroke:#000000; stroke-linecap:round; stroke-linejoin:round; stroke-width:4; stroke-opacity:1; fill:none" points="523.249,1423.18 523.249,1404.28 "/>
<polyline clip-path="url(#clip830)" style="stroke:#000000; stroke-linecap:round; stroke-linejoin:round; stroke-width:4; stroke-opacity:1; fill:none" points="877.256,1423.18 877.256,1404.28 "/>
<polyline clip-path="url(#clip830)" style="stroke:#000000; stroke-linecap:round; stroke-linejoin:round; stroke-width:4; stroke-opacity:1; fill:none" points="1231.26,1423.18 1231.26,1404.28 "/>
<polyline clip-path="url(#clip830)" style="stroke:#000000; stroke-linecap:round; stroke-linejoin:round; stroke-width:4; stroke-opacity:1; fill:none" points="1585.27,1423.18 1585.27,1404.28 "/>
<polyline clip-path="url(#clip830)" style="stroke:#000000; stroke-linecap:round; stroke-linejoin:round; stroke-width:4; stroke-opacity:1; fill:none" points="1939.28,1423.18 1939.28,1404.28 "/>
<polyline clip-path="url(#clip830)" style="stroke:#000000; stroke-linecap:round; stroke-linejoin:round; stroke-width:4; stroke-opacity:1; fill:none" points="2293.28,1423.18 2293.28,1404.28 "/>
<polyline clip-path="url(#clip830)" style="stroke:#000000; stroke-linecap:round; stroke-linejoin:round; stroke-width:4; stroke-opacity:1; fill:none" points="310.845,1423.18 310.845,1413.73 "/>
<polyline clip-path="url(#clip830)" style="stroke:#000000; stroke-linecap:round; stroke-linejoin:round; stroke-width:4; stroke-opacity:1; fill:none" points="381.647,1423.18 381.647,1413.73 "/>
<polyline clip-path="url(#clip830)" style="stroke:#000000; stroke-linecap:round; stroke-linejoin:round; stroke-width:4; stroke-opacity:1; fill:none" points="452.448,1423.18 452.448,1413.73 "/>
<polyline clip-path="url(#clip830)" style="stroke:#000000; stroke-linecap:round; stroke-linejoin:round; stroke-width:4; stroke-opacity:1; fill:none" points="594.051,1423.18 594.051,1413.73 "/>
<polyline clip-path="url(#clip830)" style="stroke:#000000; stroke-linecap:round; stroke-linejoin:round; stroke-width:4; stroke-opacity:1; fill:none" points="664.852,1423.18 664.852,1413.73 "/>
<polyline clip-path="url(#clip830)" style="stroke:#000000; stroke-linecap:round; stroke-linejoin:round; stroke-width:4; stroke-opacity:1; fill:none" points="735.653,1423.18 735.653,1413.73 "/>
<polyline clip-path="url(#clip830)" style="stroke:#000000; stroke-linecap:round; stroke-linejoin:round; stroke-width:4; stroke-opacity:1; fill:none" points="806.455,1423.18 806.455,1413.73 "/>
<polyline clip-path="url(#clip830)" style="stroke:#000000; stroke-linecap:round; stroke-linejoin:round; stroke-width:4; stroke-opacity:1; fill:none" points="948.057,1423.18 948.057,1413.73 "/>
<polyline clip-path="url(#clip830)" style="stroke:#000000; stroke-linecap:round; stroke-linejoin:round; stroke-width:4; stroke-opacity:1; fill:none" points="1018.86,1423.18 1018.86,1413.73 "/>
<polyline clip-path="url(#clip830)" style="stroke:#000000; stroke-linecap:round; stroke-linejoin:round; stroke-width:4; stroke-opacity:1; fill:none" points="1089.66,1423.18 1089.66,1413.73 "/>
<polyline clip-path="url(#clip830)" style="stroke:#000000; stroke-linecap:round; stroke-linejoin:round; stroke-width:4; stroke-opacity:1; fill:none" points="1160.46,1423.18 1160.46,1413.73 "/>
<polyline clip-path="url(#clip830)" style="stroke:#000000; stroke-linecap:round; stroke-linejoin:round; stroke-width:4; stroke-opacity:1; fill:none" points="1302.06,1423.18 1302.06,1413.73 "/>
<polyline clip-path="url(#clip830)" style="stroke:#000000; stroke-linecap:round; stroke-linejoin:round; stroke-width:4; stroke-opacity:1; fill:none" points="1372.87,1423.18 1372.87,1413.73 "/>
<polyline clip-path="url(#clip830)" style="stroke:#000000; stroke-linecap:round; stroke-linejoin:round; stroke-width:4; stroke-opacity:1; fill:none" points="1443.67,1423.18 1443.67,1413.73 "/>
<polyline clip-path="url(#clip830)" style="stroke:#000000; stroke-linecap:round; stroke-linejoin:round; stroke-width:4; stroke-opacity:1; fill:none" points="1514.47,1423.18 1514.47,1413.73 "/>
<polyline clip-path="url(#clip830)" style="stroke:#000000; stroke-linecap:round; stroke-linejoin:round; stroke-width:4; stroke-opacity:1; fill:none" points="1656.07,1423.18 1656.07,1413.73 "/>
<polyline clip-path="url(#clip830)" style="stroke:#000000; stroke-linecap:round; stroke-linejoin:round; stroke-width:4; stroke-opacity:1; fill:none" points="1726.87,1423.18 1726.87,1413.73 "/>
<polyline clip-path="url(#clip830)" style="stroke:#000000; stroke-linecap:round; stroke-linejoin:round; stroke-width:4; stroke-opacity:1; fill:none" points="1797.67,1423.18 1797.67,1413.73 "/>
<polyline clip-path="url(#clip830)" style="stroke:#000000; stroke-linecap:round; stroke-linejoin:round; stroke-width:4; stroke-opacity:1; fill:none" points="1868.47,1423.18 1868.47,1413.73 "/>
<polyline clip-path="url(#clip830)" style="stroke:#000000; stroke-linecap:round; stroke-linejoin:round; stroke-width:4; stroke-opacity:1; fill:none" points="2010.08,1423.18 2010.08,1413.73 "/>
<polyline clip-path="url(#clip830)" style="stroke:#000000; stroke-linecap:round; stroke-linejoin:round; stroke-width:4; stroke-opacity:1; fill:none" points="2080.88,1423.18 2080.88,1413.73 "/>
<polyline clip-path="url(#clip830)" style="stroke:#000000; stroke-linecap:round; stroke-linejoin:round; stroke-width:4; stroke-opacity:1; fill:none" points="2151.68,1423.18 2151.68,1413.73 "/>
<polyline clip-path="url(#clip830)" style="stroke:#000000; stroke-linecap:round; stroke-linejoin:round; stroke-width:4; stroke-opacity:1; fill:none" points="2222.48,1423.18 2222.48,1413.73 "/>
<path clip-path="url(#clip830)" d="M513.527 1451.02 L531.884 1451.02 L531.884 1454.96 L517.81 1454.96 L517.81 1463.43 Q518.828 1463.08 519.847 1462.92 Q520.865 1462.73 521.884 1462.73 Q527.671 1462.73 531.05 1465.9 Q534.43 1469.08 534.43 1474.49 Q534.43 1480.07 530.958 1483.17 Q527.485 1486.25 521.166 1486.25 Q518.99 1486.25 516.722 1485.88 Q514.476 1485.51 512.069 1484.77 L512.069 1480.07 Q514.152 1481.2 516.374 1481.76 Q518.597 1482.32 521.073 1482.32 Q525.078 1482.32 527.416 1480.21 Q529.754 1478.1 529.754 1474.49 Q529.754 1470.88 527.416 1468.77 Q525.078 1466.67 521.073 1466.67 Q519.198 1466.67 517.323 1467.08 Q515.472 1467.5 513.527 1468.38 L513.527 1451.02 Z" fill="#000000" fill-rule="nonzero" fill-opacity="1" /><path clip-path="url(#clip830)" d="M851.944 1481.64 L859.582 1481.64 L859.582 1455.28 L851.272 1456.95 L851.272 1452.69 L859.536 1451.02 L864.212 1451.02 L864.212 1481.64 L871.851 1481.64 L871.851 1485.58 L851.944 1485.58 L851.944 1481.64 Z" fill="#000000" fill-rule="nonzero" fill-opacity="1" /><path clip-path="url(#clip830)" d="M891.295 1454.1 Q887.684 1454.1 885.855 1457.66 Q884.05 1461.2 884.05 1468.33 Q884.05 1475.44 885.855 1479.01 Q887.684 1482.55 891.295 1482.55 Q894.93 1482.55 896.735 1479.01 Q898.564 1475.44 898.564 1468.33 Q898.564 1461.2 896.735 1457.66 Q894.93 1454.1 891.295 1454.1 M891.295 1450.39 Q897.105 1450.39 900.161 1455 Q903.24 1459.58 903.24 1468.33 Q903.24 1477.06 900.161 1481.67 Q897.105 1486.25 891.295 1486.25 Q885.485 1486.25 882.406 1481.67 Q879.351 1477.06 879.351 1468.33 Q879.351 1459.58 882.406 1455 Q885.485 1450.39 891.295 1450.39 Z" fill="#000000" fill-rule="nonzero" fill-opacity="1" /><path clip-path="url(#clip830)" d="M1206.45 1481.64 L1214.09 1481.64 L1214.09 1455.28 L1205.78 1456.95 L1205.78 1452.69 L1214.04 1451.02 L1218.72 1451.02 L1218.72 1481.64 L1226.36 1481.64 L1226.36 1485.58 L1206.45 1485.58 L1206.45 1481.64 Z" fill="#000000" fill-rule="nonzero" fill-opacity="1" /><path clip-path="url(#clip830)" d="M1235.85 1451.02 L1254.2 1451.02 L1254.2 1454.96 L1240.13 1454.96 L1240.13 1463.43 Q1241.15 1463.08 1242.17 1462.92 Q1243.18 1462.73 1244.2 1462.73 Q1249.99 1462.73 1253.37 1465.9 Q1256.75 1469.08 1256.75 1474.49 Q1256.75 1480.07 1253.28 1483.17 Q1249.8 1486.25 1243.48 1486.25 Q1241.31 1486.25 1239.04 1485.88 Q1236.8 1485.51 1234.39 1484.77 L1234.39 1480.07 Q1236.47 1481.2 1238.69 1481.76 Q1240.92 1482.32 1243.39 1482.32 Q1247.4 1482.32 1249.73 1480.21 Q1252.07 1478.1 1252.07 1474.49 Q1252.07 1470.88 1249.73 1468.77 Q1247.4 1466.67 1243.39 1466.67 Q1241.52 1466.67 1239.64 1467.08 Q1237.79 1467.5 1235.85 1468.38 L1235.85 1451.02 Z" fill="#000000" fill-rule="nonzero" fill-opacity="1" /><path clip-path="url(#clip830)" d="M1564.04 1481.64 L1580.36 1481.64 L1580.36 1485.58 L1558.42 1485.58 L1558.42 1481.64 Q1561.08 1478.89 1565.66 1474.26 Q1570.27 1469.61 1571.45 1468.27 Q1573.7 1465.74 1574.58 1464.01 Q1575.48 1462.25 1575.48 1460.56 Q1575.48 1457.8 1573.53 1456.07 Q1571.61 1454.33 1568.51 1454.33 Q1566.31 1454.33 1563.86 1455.09 Q1561.43 1455.86 1558.65 1457.41 L1558.65 1452.69 Q1561.47 1451.55 1563.93 1450.97 Q1566.38 1450.39 1568.42 1450.39 Q1573.79 1450.39 1576.98 1453.08 Q1580.18 1455.77 1580.18 1460.26 Q1580.18 1462.39 1579.37 1464.31 Q1578.58 1466.2 1576.47 1468.8 Q1575.89 1469.47 1572.79 1472.69 Q1569.69 1475.88 1564.04 1481.64 Z" fill="#000000" fill-rule="nonzero" fill-opacity="1" /><path clip-path="url(#clip830)" d="M1600.18 1454.1 Q1596.57 1454.1 1594.74 1457.66 Q1592.93 1461.2 1592.93 1468.33 Q1592.93 1475.44 1594.74 1479.01 Q1596.57 1482.55 1600.18 1482.55 Q1603.81 1482.55 1605.62 1479.01 Q1607.45 1475.44 1607.45 1468.33 Q1607.45 1461.2 1605.62 1457.66 Q1603.81 1454.1 1600.18 1454.1 M1600.18 1450.39 Q1605.99 1450.39 1609.04 1455 Q1612.12 1459.58 1612.12 1468.33 Q1612.12 1477.06 1609.04 1481.67 Q1605.99 1486.25 1600.18 1486.25 Q1594.37 1486.25 1591.29 1481.67 Q1588.23 1477.06 1588.23 1468.33 Q1588.23 1459.58 1591.29 1455 Q1594.37 1450.39 1600.18 1450.39 Z" fill="#000000" fill-rule="nonzero" fill-opacity="1" /><path clip-path="url(#clip830)" d="M1918.55 1481.64 L1934.87 1481.64 L1934.87 1485.58 L1912.92 1485.58 L1912.92 1481.64 Q1915.58 1478.89 1920.17 1474.26 Q1924.77 1469.61 1925.95 1468.27 Q1928.2 1465.74 1929.08 1464.01 Q1929.98 1462.25 1929.98 1460.56 Q1929.98 1457.8 1928.04 1456.07 Q1926.12 1454.33 1923.01 1454.33 Q1920.82 1454.33 1918.36 1455.09 Q1915.93 1455.86 1913.15 1457.41 L1913.15 1452.69 Q1915.98 1451.55 1918.43 1450.97 Q1920.88 1450.39 1922.92 1450.39 Q1928.29 1450.39 1931.49 1453.08 Q1934.68 1455.77 1934.68 1460.26 Q1934.68 1462.39 1933.87 1464.31 Q1933.08 1466.2 1930.98 1468.8 Q1930.4 1469.47 1927.3 1472.69 Q1924.2 1475.88 1918.55 1481.64 Z" fill="#000000" fill-rule="nonzero" fill-opacity="1" /><path clip-path="url(#clip830)" d="M1944.73 1451.02 L1963.08 1451.02 L1963.08 1454.96 L1949.01 1454.96 L1949.01 1463.43 Q1950.03 1463.08 1951.05 1462.92 Q1952.07 1462.73 1953.08 1462.73 Q1958.87 1462.73 1962.25 1465.9 Q1965.63 1469.08 1965.63 1474.49 Q1965.63 1480.07 1962.16 1483.17 Q1958.69 1486.25 1952.37 1486.25 Q1950.19 1486.25 1947.92 1485.88 Q1945.68 1485.51 1943.27 1484.77 L1943.27 1480.07 Q1945.35 1481.2 1947.57 1481.76 Q1949.8 1482.32 1952.27 1482.32 Q1956.28 1482.32 1958.62 1480.21 Q1960.95 1478.1 1960.95 1474.49 Q1960.95 1470.88 1958.62 1468.77 Q1956.28 1466.67 1952.27 1466.67 Q1950.4 1466.67 1948.52 1467.08 Q1946.67 1467.5 1944.73 1468.38 L1944.73 1451.02 Z" fill="#000000" fill-rule="nonzero" fill-opacity="1" /><path clip-path="url(#clip830)" d="M2282.13 1466.95 Q2285.48 1467.66 2287.36 1469.93 Q2289.26 1472.2 2289.26 1475.53 Q2289.26 1480.65 2285.74 1483.45 Q2282.22 1486.25 2275.74 1486.25 Q2273.56 1486.25 2271.25 1485.81 Q2268.95 1485.39 2266.5 1484.54 L2266.5 1480.02 Q2268.44 1481.16 2270.76 1481.74 Q2273.07 1482.32 2275.6 1482.32 Q2280 1482.32 2282.29 1480.58 Q2284.6 1478.84 2284.6 1475.53 Q2284.6 1472.48 2282.45 1470.77 Q2280.32 1469.03 2276.5 1469.03 L2272.47 1469.03 L2272.47 1465.19 L2276.69 1465.19 Q2280.13 1465.19 2281.96 1463.82 Q2283.79 1462.43 2283.79 1459.84 Q2283.79 1457.18 2281.89 1455.77 Q2280.02 1454.33 2276.5 1454.33 Q2274.58 1454.33 2272.38 1454.75 Q2270.18 1455.16 2267.54 1456.04 L2267.54 1451.88 Q2270.2 1451.14 2272.52 1450.77 Q2274.86 1450.39 2276.92 1450.39 Q2282.24 1450.39 2285.34 1452.83 Q2288.44 1455.23 2288.44 1459.35 Q2288.44 1462.22 2286.8 1464.21 Q2285.16 1466.18 2282.13 1466.95 Z" fill="#000000" fill-rule="nonzero" fill-opacity="1" /><path clip-path="url(#clip830)" d="M2308.12 1454.1 Q2304.51 1454.1 2302.68 1457.66 Q2300.88 1461.2 2300.88 1468.33 Q2300.88 1475.44 2302.68 1479.01 Q2304.51 1482.55 2308.12 1482.55 Q2311.75 1482.55 2313.56 1479.01 Q2315.39 1475.44 2315.39 1468.33 Q2315.39 1461.2 2313.56 1457.66 Q2311.75 1454.1 2308.12 1454.1 M2308.12 1450.39 Q2313.93 1450.39 2316.99 1455 Q2320.07 1459.58 2320.07 1468.33 Q2320.07 1477.06 2316.99 1481.67 Q2313.93 1486.25 2308.12 1486.25 Q2302.31 1486.25 2299.23 1481.67 Q2296.18 1477.06 2296.18 1468.33 Q2296.18 1459.58 2299.23 1455 Q2302.31 1450.39 2308.12 1450.39 Z" fill="#000000" fill-rule="nonzero" fill-opacity="1" /><path clip-path="url(#clip830)" d="M1216.89 1546.53 L1216.89 1568.04 L1211.03 1568.04 L1211.03 1546.72 Q1211.03 1541.66 1209.06 1539.14 Q1207.09 1536.63 1203.14 1536.63 Q1198.4 1536.63 1195.66 1539.65 Q1192.92 1542.68 1192.92 1547.9 L1192.92 1568.04 L1187.04 1568.04 L1187.04 1518.52 L1192.92 1518.52 L1192.92 1537.93 Q1195.02 1534.72 1197.86 1533.13 Q1200.72 1531.54 1204.45 1531.54 Q1210.59 1531.54 1213.74 1535.36 Q1216.89 1539.14 1216.89 1546.53 Z" fill="#000000" fill-rule="nonzero" fill-opacity="1" /><path clip-path="url(#clip830)" d="M1242.39 1536.5 Q1237.67 1536.5 1234.94 1540.19 Q1232.2 1543.85 1232.2 1550.25 Q1232.2 1556.65 1234.91 1560.34 Q1237.64 1564 1242.39 1564 Q1247.06 1564 1249.8 1560.31 Q1252.54 1556.62 1252.54 1550.25 Q1252.54 1543.92 1249.8 1540.23 Q1247.06 1536.5 1242.39 1536.5 M1242.39 1531.54 Q1250.02 1531.54 1254.38 1536.5 Q1258.75 1541.47 1258.75 1550.25 Q1258.75 1559 1254.38 1564 Q1250.02 1568.97 1242.39 1568.97 Q1234.71 1568.97 1230.35 1564 Q1226.03 1559 1226.03 1550.25 Q1226.03 1541.47 1230.35 1536.5 Q1234.71 1531.54 1242.39 1531.54 Z" fill="#000000" fill-rule="nonzero" fill-opacity="1" /><path clip-path="url(#clip830)" d="M1289.11 1537.87 Q1288.12 1537.3 1286.95 1537.04 Q1285.8 1536.76 1284.4 1536.76 Q1279.43 1536.76 1276.76 1540 Q1274.12 1543.22 1274.12 1549.27 L1274.12 1568.04 L1268.23 1568.04 L1268.23 1532.4 L1274.12 1532.4 L1274.12 1537.93 Q1275.96 1534.69 1278.92 1533.13 Q1281.88 1531.54 1286.12 1531.54 Q1286.72 1531.54 1287.45 1531.63 Q1288.19 1531.7 1289.08 1531.85 L1289.11 1537.87 Z" fill="#000000" fill-rule="nonzero" fill-opacity="1" /><path clip-path="url(#clip830)" d="M1295.25 1532.4 L1301.11 1532.4 L1301.11 1568.04 L1295.25 1568.04 L1295.25 1532.4 M1295.25 1518.52 L1301.11 1518.52 L1301.11 1525.93 L1295.25 1525.93 L1295.25 1518.52 Z" fill="#000000" fill-rule="nonzero" fill-opacity="1" /><path clip-path="url(#clip830)" d="M1310.82 1532.4 L1338.64 1532.4 L1338.64 1537.74 L1316.61 1563.37 L1338.64 1563.37 L1338.64 1568.04 L1310.02 1568.04 L1310.02 1562.7 L1332.05 1537.07 L1310.82 1537.07 L1310.82 1532.4 Z" fill="#000000" fill-rule="nonzero" fill-opacity="1" /><path clip-path="url(#clip830)" d="M1361.39 1536.5 Q1356.68 1536.5 1353.94 1540.19 Q1351.21 1543.85 1351.21 1550.25 Q1351.21 1556.65 1353.91 1560.34 Q1356.65 1564 1361.39 1564 Q1366.07 1564 1368.81 1560.31 Q1371.55 1556.62 1371.55 1550.25 Q1371.55 1543.92 1368.81 1540.23 Q1366.07 1536.5 1361.39 1536.5 M1361.39 1531.54 Q1369.03 1531.54 1373.39 1536.5 Q1377.75 1541.47 1377.75 1550.25 Q1377.75 1559 1373.39 1564 Q1369.03 1568.97 1361.39 1568.97 Q1353.72 1568.97 1349.36 1564 Q1345.03 1559 1345.03 1550.25 Q1345.03 1541.47 1349.36 1536.5 Q1353.72 1531.54 1361.39 1531.54 Z" fill="#000000" fill-rule="nonzero" fill-opacity="1" /><path clip-path="url(#clip830)" d="M1417.09 1546.53 L1417.09 1568.04 L1411.24 1568.04 L1411.24 1546.72 Q1411.24 1541.66 1409.26 1539.14 Q1407.29 1536.63 1403.34 1536.63 Q1398.6 1536.63 1395.86 1539.65 Q1393.13 1542.68 1393.13 1547.9 L1393.13 1568.04 L1387.24 1568.04 L1387.24 1532.4 L1393.13 1532.4 L1393.13 1537.93 Q1395.23 1534.72 1398.06 1533.13 Q1400.92 1531.54 1404.65 1531.54 Q1410.79 1531.54 1413.94 1535.36 Q1417.09 1539.14 1417.09 1546.53 Z" fill="#000000" fill-rule="nonzero" fill-opacity="1" /><polyline clip-path="url(#clip832)" style="stroke:#000000; stroke-linecap:round; stroke-linejoin:round; stroke-width:2; stroke-opacity:0.1; fill:none" points="251.372,1251.42 2352.76,1251.42 "/>
<polyline clip-path="url(#clip832)" style="stroke:#000000; stroke-linecap:round; stroke-linejoin:round; stroke-width:2; stroke-opacity:0.1; fill:none" points="251.372,778.413 2352.76,778.413 "/>
<polyline clip-path="url(#clip832)" style="stroke:#000000; stroke-linecap:round; stroke-linejoin:round; stroke-width:2; stroke-opacity:0.1; fill:none" points="251.372,305.411 2352.76,305.411 "/>
<polyline clip-path="url(#clip832)" style="stroke:#000000; stroke-linecap:round; stroke-linejoin:round; stroke-width:2; stroke-opacity:0.05; fill:none" points="251.372,1393.8 2352.76,1393.8 "/>
<polyline clip-path="url(#clip832)" style="stroke:#000000; stroke-linecap:round; stroke-linejoin:round; stroke-width:2; stroke-opacity:0.05; fill:none" points="251.372,1356.35 2352.76,1356.35 "/>
<polyline clip-path="url(#clip832)" style="stroke:#000000; stroke-linecap:round; stroke-linejoin:round; stroke-width:2; stroke-opacity:0.05; fill:none" points="251.372,1324.68 2352.76,1324.68 "/>
<polyline clip-path="url(#clip832)" style="stroke:#000000; stroke-linecap:round; stroke-linejoin:round; stroke-width:2; stroke-opacity:0.05; fill:none" points="251.372,1297.25 2352.76,1297.25 "/>
<polyline clip-path="url(#clip832)" style="stroke:#000000; stroke-linecap:round; stroke-linejoin:round; stroke-width:2; stroke-opacity:0.05; fill:none" points="251.372,1273.06 2352.76,1273.06 "/>
<polyline clip-path="url(#clip832)" style="stroke:#000000; stroke-linecap:round; stroke-linejoin:round; stroke-width:2; stroke-opacity:0.05; fill:none" points="251.372,1109.03 2352.76,1109.03 "/>
<polyline clip-path="url(#clip832)" style="stroke:#000000; stroke-linecap:round; stroke-linejoin:round; stroke-width:2; stroke-opacity:0.05; fill:none" points="251.372,1025.74 2352.76,1025.74 "/>
<polyline clip-path="url(#clip832)" style="stroke:#000000; stroke-linecap:round; stroke-linejoin:round; stroke-width:2; stroke-opacity:0.05; fill:none" points="251.372,966.64 2352.76,966.64 "/>
<polyline clip-path="url(#clip832)" style="stroke:#000000; stroke-linecap:round; stroke-linejoin:round; stroke-width:2; stroke-opacity:0.05; fill:none" points="251.372,920.801 2352.76,920.801 "/>
<polyline clip-path="url(#clip832)" style="stroke:#000000; stroke-linecap:round; stroke-linejoin:round; stroke-width:2; stroke-opacity:0.05; fill:none" points="251.372,883.348 2352.76,883.348 "/>
<polyline clip-path="url(#clip832)" style="stroke:#000000; stroke-linecap:round; stroke-linejoin:round; stroke-width:2; stroke-opacity:0.05; fill:none" points="251.372,851.682 2352.76,851.682 "/>
<polyline clip-path="url(#clip832)" style="stroke:#000000; stroke-linecap:round; stroke-linejoin:round; stroke-width:2; stroke-opacity:0.05; fill:none" points="251.372,824.252 2352.76,824.252 "/>
<polyline clip-path="url(#clip832)" style="stroke:#000000; stroke-linecap:round; stroke-linejoin:round; stroke-width:2; stroke-opacity:0.05; fill:none" points="251.372,800.056 2352.76,800.056 "/>
<polyline clip-path="url(#clip832)" style="stroke:#000000; stroke-linecap:round; stroke-linejoin:round; stroke-width:2; stroke-opacity:0.05; fill:none" points="251.372,636.025 2352.76,636.025 "/>
<polyline clip-path="url(#clip832)" style="stroke:#000000; stroke-linecap:round; stroke-linejoin:round; stroke-width:2; stroke-opacity:0.05; fill:none" points="251.372,552.734 2352.76,552.734 "/>
<polyline clip-path="url(#clip832)" style="stroke:#000000; stroke-linecap:round; stroke-linejoin:round; stroke-width:2; stroke-opacity:0.05; fill:none" points="251.372,493.637 2352.76,493.637 "/>
<polyline clip-path="url(#clip832)" style="stroke:#000000; stroke-linecap:round; stroke-linejoin:round; stroke-width:2; stroke-opacity:0.05; fill:none" points="251.372,447.799 2352.76,447.799 "/>
<polyline clip-path="url(#clip832)" style="stroke:#000000; stroke-linecap:round; stroke-linejoin:round; stroke-width:2; stroke-opacity:0.05; fill:none" points="251.372,410.346 2352.76,410.346 "/>
<polyline clip-path="url(#clip832)" style="stroke:#000000; stroke-linecap:round; stroke-linejoin:round; stroke-width:2; stroke-opacity:0.05; fill:none" points="251.372,378.68 2352.76,378.68 "/>
<polyline clip-path="url(#clip832)" style="stroke:#000000; stroke-linecap:round; stroke-linejoin:round; stroke-width:2; stroke-opacity:0.05; fill:none" points="251.372,351.25 2352.76,351.25 "/>
<polyline clip-path="url(#clip832)" style="stroke:#000000; stroke-linecap:round; stroke-linejoin:round; stroke-width:2; stroke-opacity:0.05; fill:none" points="251.372,327.054 2352.76,327.054 "/>
<polyline clip-path="url(#clip832)" style="stroke:#000000; stroke-linecap:round; stroke-linejoin:round; stroke-width:2; stroke-opacity:0.05; fill:none" points="251.372,163.023 2352.76,163.023 "/>
<polyline clip-path="url(#clip830)" style="stroke:#000000; stroke-linecap:round; stroke-linejoin:round; stroke-width:4; stroke-opacity:1; fill:none" points="251.372,1423.18 251.372,123.472 "/>
<polyline clip-path="url(#clip830)" style="stroke:#000000; stroke-linecap:round; stroke-linejoin:round; stroke-width:4; stroke-opacity:1; fill:none" points="251.372,1251.42 270.27,1251.42 "/>
<polyline clip-path="url(#clip830)" style="stroke:#000000; stroke-linecap:round; stroke-linejoin:round; stroke-width:4; stroke-opacity:1; fill:none" points="251.372,778.413 270.27,778.413 "/>
<polyline clip-path="url(#clip830)" style="stroke:#000000; stroke-linecap:round; stroke-linejoin:round; stroke-width:4; stroke-opacity:1; fill:none" points="251.372,305.411 270.27,305.411 "/>
<polyline clip-path="url(#clip830)" style="stroke:#000000; stroke-linecap:round; stroke-linejoin:round; stroke-width:4; stroke-opacity:1; fill:none" points="251.372,1393.8 260.821,1393.8 "/>
<polyline clip-path="url(#clip830)" style="stroke:#000000; stroke-linecap:round; stroke-linejoin:round; stroke-width:4; stroke-opacity:1; fill:none" points="251.372,1356.35 260.821,1356.35 "/>
<polyline clip-path="url(#clip830)" style="stroke:#000000; stroke-linecap:round; stroke-linejoin:round; stroke-width:4; stroke-opacity:1; fill:none" points="251.372,1324.68 260.821,1324.68 "/>
<polyline clip-path="url(#clip830)" style="stroke:#000000; stroke-linecap:round; stroke-linejoin:round; stroke-width:4; stroke-opacity:1; fill:none" points="251.372,1297.25 260.821,1297.25 "/>
<polyline clip-path="url(#clip830)" style="stroke:#000000; stroke-linecap:round; stroke-linejoin:round; stroke-width:4; stroke-opacity:1; fill:none" points="251.372,1273.06 260.821,1273.06 "/>
<polyline clip-path="url(#clip830)" style="stroke:#000000; stroke-linecap:round; stroke-linejoin:round; stroke-width:4; stroke-opacity:1; fill:none" points="251.372,1109.03 260.821,1109.03 "/>
<polyline clip-path="url(#clip830)" style="stroke:#000000; stroke-linecap:round; stroke-linejoin:round; stroke-width:4; stroke-opacity:1; fill:none" points="251.372,1025.74 260.821,1025.74 "/>
<polyline clip-path="url(#clip830)" style="stroke:#000000; stroke-linecap:round; stroke-linejoin:round; stroke-width:4; stroke-opacity:1; fill:none" points="251.372,966.64 260.821,966.64 "/>
<polyline clip-path="url(#clip830)" style="stroke:#000000; stroke-linecap:round; stroke-linejoin:round; stroke-width:4; stroke-opacity:1; fill:none" points="251.372,920.801 260.821,920.801 "/>
<polyline clip-path="url(#clip830)" style="stroke:#000000; stroke-linecap:round; stroke-linejoin:round; stroke-width:4; stroke-opacity:1; fill:none" points="251.372,883.348 260.821,883.348 "/>
<polyline clip-path="url(#clip830)" style="stroke:#000000; stroke-linecap:round; stroke-linejoin:round; stroke-width:4; stroke-opacity:1; fill:none" points="251.372,851.682 260.821,851.682 "/>
<polyline clip-path="url(#clip830)" style="stroke:#000000; stroke-linecap:round; stroke-linejoin:round; stroke-width:4; stroke-opacity:1; fill:none" points="251.372,824.252 260.821,824.252 "/>
<polyline clip-path="url(#clip830)" style="stroke:#000000; stroke-linecap:round; stroke-linejoin:round; stroke-width:4; stroke-opacity:1; fill:none" points="251.372,800.056 260.821,800.056 "/>
<polyline clip-path="url(#clip830)" style="stroke:#000000; stroke-linecap:round; stroke-linejoin:round; stroke-width:4; stroke-opacity:1; fill:none" points="251.372,636.025 260.821,636.025 "/>
<polyline clip-path="url(#clip830)" style="stroke:#000000; stroke-linecap:round; stroke-linejoin:round; stroke-width:4; stroke-opacity:1; fill:none" points="251.372,552.734 260.821,552.734 "/>
<polyline clip-path="url(#clip830)" style="stroke:#000000; stroke-linecap:round; stroke-linejoin:round; stroke-width:4; stroke-opacity:1; fill:none" points="251.372,493.637 260.821,493.637 "/>
<polyline clip-path="url(#clip830)" style="stroke:#000000; stroke-linecap:round; stroke-linejoin:round; stroke-width:4; stroke-opacity:1; fill:none" points="251.372,447.799 260.821,447.799 "/>
<polyline clip-path="url(#clip830)" style="stroke:#000000; stroke-linecap:round; stroke-linejoin:round; stroke-width:4; stroke-opacity:1; fill:none" points="251.372,410.346 260.821,410.346 "/>
<polyline clip-path="url(#clip830)" style="stroke:#000000; stroke-linecap:round; stroke-linejoin:round; stroke-width:4; stroke-opacity:1; fill:none" points="251.372,378.68 260.821,378.68 "/>
<polyline clip-path="url(#clip830)" style="stroke:#000000; stroke-linecap:round; stroke-linejoin:round; stroke-width:4; stroke-opacity:1; fill:none" points="251.372,351.25 260.821,351.25 "/>
<polyline clip-path="url(#clip830)" style="stroke:#000000; stroke-linecap:round; stroke-linejoin:round; stroke-width:4; stroke-opacity:1; fill:none" points="251.372,327.054 260.821,327.054 "/>
<polyline clip-path="url(#clip830)" style="stroke:#000000; stroke-linecap:round; stroke-linejoin:round; stroke-width:4; stroke-opacity:1; fill:none" points="251.372,163.023 260.821,163.023 "/>
<path clip-path="url(#clip830)" d="M115.232 1271.21 L122.871 1271.21 L122.871 1244.84 L114.561 1246.51 L114.561 1242.25 L122.825 1240.58 L127.501 1240.58 L127.501 1271.21 L135.14 1271.21 L135.14 1275.14 L115.232 1275.14 L115.232 1271.21 Z" fill="#000000" fill-rule="nonzero" fill-opacity="1" /><path clip-path="url(#clip830)" d="M154.584 1243.66 Q150.973 1243.66 149.144 1247.23 Q147.339 1250.77 147.339 1257.9 Q147.339 1265 149.144 1268.57 Q150.973 1272.11 154.584 1272.11 Q158.218 1272.11 160.024 1268.57 Q161.852 1265 161.852 1257.9 Q161.852 1250.77 160.024 1247.23 Q158.218 1243.66 154.584 1243.66 M154.584 1239.96 Q160.394 1239.96 163.45 1244.56 Q166.528 1249.15 166.528 1257.9 Q166.528 1266.62 163.45 1271.23 Q160.394 1275.81 154.584 1275.81 Q148.774 1275.81 145.695 1271.23 Q142.64 1266.62 142.64 1257.9 Q142.64 1249.15 145.695 1244.56 Q148.774 1239.96 154.584 1239.96 Z" fill="#000000" fill-rule="nonzero" fill-opacity="1" /><path clip-path="url(#clip830)" d="M166.528 1234.06 L190.64 1234.06 L190.64 1237.26 L166.528 1237.26 L166.528 1234.06 Z" fill="#000000" fill-rule="nonzero" fill-opacity="1" /><path clip-path="url(#clip830)" d="M202.113 1244.54 L215.372 1244.54 L215.372 1247.73 L197.542 1247.73 L197.542 1244.54 Q199.705 1242.3 203.429 1238.54 Q207.172 1234.76 208.131 1233.66 Q209.956 1231.61 210.67 1230.2 Q211.404 1228.77 211.404 1227.4 Q211.404 1225.16 209.824 1223.75 Q208.263 1222.34 205.743 1222.34 Q203.956 1222.34 201.962 1222.96 Q199.987 1223.58 197.73 1224.84 L197.73 1221.01 Q200.025 1220.08 202.019 1219.61 Q204.012 1219.14 205.667 1219.14 Q210.031 1219.14 212.626 1221.33 Q215.222 1223.51 215.222 1227.16 Q215.222 1228.89 214.563 1230.45 Q213.924 1231.99 212.212 1234.1 Q211.742 1234.64 209.222 1237.26 Q206.702 1239.85 202.113 1244.54 Z" fill="#000000" fill-rule="nonzero" fill-opacity="1" /><path clip-path="url(#clip830)" d="M114.931 798.206 L122.57 798.206 L122.57 771.84 L114.26 773.507 L114.26 769.247 L122.524 767.581 L127.2 767.581 L127.2 798.206 L134.839 798.206 L134.839 802.141 L114.931 802.141 L114.931 798.206 Z" fill="#000000" fill-rule="nonzero" fill-opacity="1" /><path clip-path="url(#clip830)" d="M154.283 770.659 Q150.672 770.659 148.843 774.224 Q147.038 777.766 147.038 784.895 Q147.038 792.002 148.843 795.567 Q150.672 799.108 154.283 799.108 Q157.917 799.108 159.723 795.567 Q161.552 792.002 161.552 784.895 Q161.552 777.766 159.723 774.224 Q157.917 770.659 154.283 770.659 M154.283 766.956 Q160.093 766.956 163.149 771.562 Q166.227 776.145 166.227 784.895 Q166.227 793.622 163.149 798.229 Q160.093 802.812 154.283 802.812 Q148.473 802.812 145.394 798.229 Q142.339 793.622 142.339 784.895 Q142.339 776.145 145.394 771.562 Q148.473 766.956 154.283 766.956 Z" fill="#000000" fill-rule="nonzero" fill-opacity="1" /><path clip-path="url(#clip830)" d="M166.227 761.057 L190.339 761.057 L190.339 764.254 L166.227 764.254 L166.227 761.057 Z" fill="#000000" fill-rule="nonzero" fill-opacity="1" /><path clip-path="url(#clip830)" d="M199.197 771.533 L205.404 771.533 L205.404 750.111 L198.652 751.465 L198.652 748.004 L205.366 746.65 L209.166 746.65 L209.166 771.533 L215.372 771.533 L215.372 774.73 L199.197 774.73 L199.197 771.533 Z" fill="#000000" fill-rule="nonzero" fill-opacity="1" /><path clip-path="url(#clip830)" d="M144.667 325.203 L152.305 325.203 L152.305 298.838 L143.995 300.504 L143.995 296.245 L152.259 294.579 L156.935 294.579 L156.935 325.203 L164.574 325.203 L164.574 329.139 L144.667 329.139 L144.667 325.203 Z" fill="#000000" fill-rule="nonzero" fill-opacity="1" /><path clip-path="url(#clip830)" d="M184.018 297.657 Q180.407 297.657 178.578 301.222 Q176.773 304.764 176.773 311.893 Q176.773 319 178.578 322.565 Q180.407 326.106 184.018 326.106 Q187.652 326.106 189.458 322.565 Q191.287 319 191.287 311.893 Q191.287 304.764 189.458 301.222 Q187.652 297.657 184.018 297.657 M184.018 293.954 Q189.828 293.954 192.884 298.56 Q195.963 303.143 195.963 311.893 Q195.963 320.62 192.884 325.227 Q189.828 329.81 184.018 329.81 Q178.208 329.81 175.129 325.227 Q172.074 320.62 172.074 311.893 Q172.074 303.143 175.129 298.56 Q178.208 293.954 184.018 293.954 Z" fill="#000000" fill-rule="nonzero" fill-opacity="1" /><path clip-path="url(#clip830)" d="M205.667 276.15 Q202.733 276.15 201.248 279.046 Q199.781 281.924 199.781 287.716 Q199.781 293.49 201.248 296.387 Q202.733 299.264 205.667 299.264 Q208.62 299.264 210.087 296.387 Q211.573 293.49 211.573 287.716 Q211.573 281.924 210.087 279.046 Q208.62 276.15 205.667 276.15 M205.667 273.14 Q210.388 273.14 212.871 276.883 Q215.372 280.607 215.372 287.716 Q215.372 294.807 212.871 298.55 Q210.388 302.274 205.667 302.274 Q200.947 302.274 198.445 298.55 Q195.963 294.807 195.963 287.716 Q195.963 280.607 198.445 276.883 Q200.947 273.14 205.667 273.14 Z" fill="#000000" fill-rule="nonzero" fill-opacity="1" /><path clip-path="url(#clip830)" d="M16.4842 839.052 L16.4842 829.472 L48.8219 817.345 L16.4842 805.155 L16.4842 795.574 L64.0042 795.574 L64.0042 801.844 L22.277 801.844 L54.8694 814.098 L54.8694 820.56 L22.277 832.814 L64.0042 832.814 L64.0042 839.052 L16.4842 839.052 Z" fill="#000000" fill-rule="nonzero" fill-opacity="1" /><path clip-path="url(#clip830)" d="M22.818 766.928 L46.4666 775.649 L46.4666 758.176 L22.818 766.928 M16.4842 770.557 L16.4842 763.268 L64.0042 745.158 L64.0042 751.842 L51.8138 756.17 L51.8138 777.591 L64.0042 781.92 L64.0042 788.699 L16.4842 770.557 Z" fill="#000000" fill-rule="nonzero" fill-opacity="1" /><path clip-path="url(#clip830)" d="M16.4842 738.219 L16.4842 708.173 L21.895 708.173 L21.895 731.79 L35.9632 731.79 L35.9632 709.16 L41.3741 709.16 L41.3741 731.79 L58.5933 731.79 L58.5933 707.6 L64.0042 707.6 L64.0042 738.219 L16.4842 738.219 Z" fill="#000000" fill-rule="nonzero" fill-opacity="1" /><path clip-path="url(#clip830)" d="M382.509 12.096 L394.702 12.096 L410.136 53.2532 L425.651 12.096 L437.844 12.096 L437.844 72.576 L429.864 72.576 L429.864 19.4686 L414.268 60.9499 L406.045 60.9499 L390.449 19.4686 L390.449 72.576 L382.509 72.576 L382.509 12.096 Z" fill="#000000" fill-rule="nonzero" fill-opacity="1" /><path clip-path="url(#clip830)" d="M492.572 48.0275 L492.572 51.6733 L458.301 51.6733 Q458.787 59.3701 462.919 63.421 Q467.092 67.4314 474.505 67.4314 Q478.799 67.4314 482.809 66.3781 Q486.86 65.3249 490.83 63.2184 L490.83 70.267 Q486.82 71.9684 482.607 72.8596 Q478.394 73.7508 474.059 73.7508 Q463.203 73.7508 456.843 67.4314 Q450.523 61.1119 450.523 50.3365 Q450.523 39.1965 456.519 32.6746 Q462.555 26.1121 472.763 26.1121 Q481.918 26.1121 487.225 32.0264 Q492.572 37.9003 492.572 48.0275 M485.118 45.84 Q485.037 39.7232 481.675 36.0774 Q478.353 32.4315 472.844 32.4315 Q466.606 32.4315 462.838 35.9558 Q459.111 39.4801 458.544 45.8805 L485.118 45.84 Z" fill="#000000" fill-rule="nonzero" fill-opacity="1" /><path clip-path="url(#clip830)" d="M525.425 49.7694 Q516.391 49.7694 512.907 51.8354 Q509.424 53.9013 509.424 58.8839 Q509.424 62.8538 512.016 65.2034 Q514.649 67.5124 519.146 67.5124 Q525.344 67.5124 529.07 63.1374 Q532.838 58.7219 532.838 51.4303 L532.838 49.7694 L525.425 49.7694 M540.292 46.6907 L540.292 72.576 L532.838 72.576 L532.838 65.6895 Q530.286 69.8214 526.478 71.8063 Q522.67 73.7508 517.161 73.7508 Q510.193 73.7508 506.061 69.8619 Q501.97 65.9325 501.97 59.3701 Q501.97 51.7138 507.074 47.825 Q512.219 43.9361 522.387 43.9361 L532.838 43.9361 L532.838 43.2069 Q532.838 38.0623 529.435 35.2672 Q526.073 32.4315 519.956 32.4315 Q516.067 32.4315 512.381 33.3632 Q508.694 34.295 505.292 36.1584 L505.292 29.2718 Q509.383 27.692 513.231 26.9223 Q517.08 26.1121 520.726 26.1121 Q530.569 26.1121 535.43 31.2163 Q540.292 36.3204 540.292 46.6907 Z" fill="#000000" fill-rule="nonzero" fill-opacity="1" /><path clip-path="url(#clip830)" d="M593.358 45.1919 L593.358 72.576 L585.905 72.576 L585.905 45.4349 Q585.905 38.994 583.393 35.7938 Q580.882 32.5936 575.858 32.5936 Q569.823 32.5936 566.339 36.4419 Q562.855 40.2903 562.855 46.9338 L562.855 72.576 L555.361 72.576 L555.361 27.2059 L562.855 27.2059 L562.855 34.2544 Q565.529 30.163 569.134 28.1376 Q572.78 26.1121 577.519 26.1121 Q585.338 26.1121 589.348 30.9732 Q593.358 35.7938 593.358 45.1919 Z" fill="#000000" fill-rule="nonzero" fill-opacity="1" /><path clip-path="url(#clip830)" d="M655.135 20.1573 L644.035 50.2555 L666.275 50.2555 L655.135 20.1573 M650.517 12.096 L659.793 12.096 L682.843 72.576 L674.336 72.576 L668.827 57.061 L641.564 57.061 L636.055 72.576 L627.426 72.576 L650.517 12.096 Z" fill="#000000" fill-rule="nonzero" fill-opacity="1" /><path clip-path="url(#clip830)" d="M723.919 49.9314 Q723.919 41.7081 720.516 37.0496 Q717.154 32.3505 711.24 32.3505 Q705.325 32.3505 701.923 37.0496 Q698.56 41.7081 698.56 49.9314 Q698.56 58.1548 701.923 62.8538 Q705.325 67.5124 711.24 67.5124 Q717.154 67.5124 720.516 62.8538 Q723.919 58.1548 723.919 49.9314 M698.56 34.0924 Q700.91 30.0415 704.475 28.0971 Q708.08 26.1121 713.063 26.1121 Q721.326 26.1121 726.471 32.6746 Q731.656 39.2371 731.656 49.9314 Q731.656 60.6258 726.471 67.1883 Q721.326 73.7508 713.063 73.7508 Q708.08 73.7508 704.475 71.8063 Q700.91 69.8214 698.56 65.7705 L698.56 72.576 L691.066 72.576 L691.066 9.54393 L698.56 9.54393 L698.56 34.0924 Z" fill="#000000" fill-rule="nonzero" fill-opacity="1" /><path clip-path="url(#clip830)" d="M772.935 28.5427 L772.935 35.5912 Q769.775 33.9709 766.372 33.1607 Q762.97 32.3505 759.324 32.3505 Q753.774 32.3505 750.979 34.0519 Q748.224 35.7533 748.224 39.156 Q748.224 41.7486 750.209 43.2475 Q752.194 44.7058 758.19 46.0426 L760.742 46.6097 Q768.681 48.3111 772.003 51.4303 Q775.365 54.509 775.365 60.0587 Q775.365 66.3781 770.342 70.0644 Q765.36 73.7508 756.61 73.7508 Q752.964 73.7508 748.994 73.0216 Q745.065 72.3329 740.69 70.9151 L740.69 63.2184 Q744.822 65.3654 748.832 66.4591 Q752.842 67.5124 756.772 67.5124 Q762.038 67.5124 764.874 65.73 Q767.709 63.9071 767.709 60.6258 Q767.709 57.5877 765.643 55.9673 Q763.618 54.3469 756.691 52.8481 L754.098 52.2405 Q747.171 50.7821 744.092 47.7845 Q741.014 44.7463 741.014 39.4801 Q741.014 33.0797 745.551 29.5959 Q750.088 26.1121 758.433 26.1121 Q762.565 26.1121 766.21 26.7198 Q769.856 27.3274 772.935 28.5427 Z" fill="#000000" fill-rule="nonzero" fill-opacity="1" /><path clip-path="url(#clip830)" d="M804.816 32.4315 Q798.82 32.4315 795.336 37.1306 Q791.853 41.7891 791.853 49.9314 Q791.853 58.0738 795.296 62.7728 Q798.78 67.4314 804.816 67.4314 Q810.77 67.4314 814.254 62.7323 Q817.738 58.0333 817.738 49.9314 Q817.738 41.8701 814.254 37.1711 Q810.77 32.4315 804.816 32.4315 M804.816 26.1121 Q814.538 26.1121 820.087 32.4315 Q825.637 38.7509 825.637 49.9314 Q825.637 61.0714 820.087 67.4314 Q814.538 73.7508 804.816 73.7508 Q795.053 73.7508 789.503 67.4314 Q783.994 61.0714 783.994 49.9314 Q783.994 38.7509 789.503 32.4315 Q795.053 26.1121 804.816 26.1121 Z" fill="#000000" fill-rule="nonzero" fill-opacity="1" /><path clip-path="url(#clip830)" d="M837.992 9.54393 L845.446 9.54393 L845.446 72.576 L837.992 72.576 L837.992 9.54393 Z" fill="#000000" fill-rule="nonzero" fill-opacity="1" /><path clip-path="url(#clip830)" d="M860.272 54.671 L860.272 27.2059 L867.726 27.2059 L867.726 54.3874 Q867.726 60.8284 870.238 64.0691 Q872.749 67.2693 877.772 67.2693 Q883.808 67.2693 887.292 63.421 Q890.816 59.5726 890.816 52.9291 L890.816 27.2059 L898.27 27.2059 L898.27 72.576 L890.816 72.576 L890.816 65.6084 Q888.102 69.7404 884.497 71.7658 Q880.932 73.7508 876.192 73.7508 Q868.374 73.7508 864.323 68.8897 Q860.272 64.0286 860.272 54.671 M879.028 26.1121 L879.028 26.1121 Z" fill="#000000" fill-rule="nonzero" fill-opacity="1" /><path clip-path="url(#clip830)" d="M920.995 14.324 L920.995 27.2059 L936.348 27.2059 L936.348 32.9987 L920.995 32.9987 L920.995 57.6282 Q920.995 63.1779 922.494 64.7578 Q924.034 66.3376 928.692 66.3376 L936.348 66.3376 L936.348 72.576 L928.692 72.576 Q920.064 72.576 916.783 69.3758 Q913.501 66.1351 913.501 57.6282 L913.501 32.9987 L908.033 32.9987 L908.033 27.2059 L913.501 27.2059 L913.501 14.324 L920.995 14.324 Z" fill="#000000" fill-rule="nonzero" fill-opacity="1" /><path clip-path="url(#clip830)" d="M984.959 48.0275 L984.959 51.6733 L950.689 51.6733 Q951.175 59.3701 955.307 63.421 Q959.479 67.4314 966.892 67.4314 Q971.186 67.4314 975.197 66.3781 Q979.247 65.3249 983.217 63.2184 L983.217 70.267 Q979.207 71.9684 974.994 72.8596 Q970.781 73.7508 966.447 73.7508 Q955.59 73.7508 949.23 67.4314 Q942.911 61.1119 942.911 50.3365 Q942.911 39.1965 948.906 32.6746 Q954.942 26.1121 965.15 26.1121 Q974.305 26.1121 979.612 32.0264 Q984.959 37.9003 984.959 48.0275 M977.506 45.84 Q977.425 39.7232 974.062 36.0774 Q970.741 32.4315 965.231 32.4315 Q958.993 32.4315 955.226 35.9558 Q951.499 39.4801 950.932 45.8805 L977.506 45.84 Z" fill="#000000" fill-rule="nonzero" fill-opacity="1" /><path clip-path="url(#clip830)" d="M1023.89 12.096 L1062.13 12.096 L1062.13 18.9825 L1032.07 18.9825 L1032.07 36.8875 L1060.87 36.8875 L1060.87 43.7741 L1032.07 43.7741 L1032.07 65.6895 L1062.86 65.6895 L1062.86 72.576 L1023.89 72.576 L1023.89 12.096 Z" fill="#000000" fill-rule="nonzero" fill-opacity="1" /><path clip-path="url(#clip830)" d="M1102.27 34.1734 Q1101.02 33.4443 1099.52 33.1202 Q1098.06 32.7556 1096.28 32.7556 Q1089.96 32.7556 1086.56 36.8875 Q1083.19 40.9789 1083.19 48.6757 L1083.19 72.576 L1075.7 72.576 L1075.7 27.2059 L1083.19 27.2059 L1083.19 34.2544 Q1085.54 30.1225 1089.31 28.1376 Q1093.08 26.1121 1098.47 26.1121 Q1099.24 26.1121 1100.17 26.2337 Q1101.1 26.3147 1102.23 26.5172 L1102.27 34.1734 Z" fill="#000000" fill-rule="nonzero" fill-opacity="1" /><path clip-path="url(#clip830)" d="M1134.92 34.1734 Q1133.67 33.4443 1132.17 33.1202 Q1130.71 32.7556 1128.93 32.7556 Q1122.61 32.7556 1119.21 36.8875 Q1115.84 40.9789 1115.84 48.6757 L1115.84 72.576 L1108.35 72.576 L1108.35 27.2059 L1115.84 27.2059 L1115.84 34.2544 Q1118.19 30.1225 1121.96 28.1376 Q1125.73 26.1121 1131.12 26.1121 Q1131.89 26.1121 1132.82 26.2337 Q1133.75 26.3147 1134.88 26.5172 L1134.92 34.1734 Z" fill="#000000" fill-rule="nonzero" fill-opacity="1" /><path clip-path="url(#clip830)" d="M1158.5 32.4315 Q1152.5 32.4315 1149.02 37.1306 Q1145.54 41.7891 1145.54 49.9314 Q1145.54 58.0738 1148.98 62.7728 Q1152.46 67.4314 1158.5 67.4314 Q1164.45 67.4314 1167.94 62.7323 Q1171.42 58.0333 1171.42 49.9314 Q1171.42 41.8701 1167.94 37.1711 Q1164.45 32.4315 1158.5 32.4315 M1158.5 26.1121 Q1168.22 26.1121 1173.77 32.4315 Q1179.32 38.7509 1179.32 49.9314 Q1179.32 61.0714 1173.77 67.4314 Q1168.22 73.7508 1158.5 73.7508 Q1148.74 73.7508 1143.19 67.4314 Q1137.68 61.0714 1137.68 49.9314 Q1137.68 38.7509 1143.19 32.4315 Q1148.74 26.1121 1158.5 26.1121 Z" fill="#000000" fill-rule="nonzero" fill-opacity="1" /><path clip-path="url(#clip830)" d="M1217.97 34.1734 Q1216.71 33.4443 1215.21 33.1202 Q1213.75 32.7556 1211.97 32.7556 Q1205.65 32.7556 1202.25 36.8875 Q1198.89 40.9789 1198.89 48.6757 L1198.89 72.576 L1191.39 72.576 L1191.39 27.2059 L1198.89 27.2059 L1198.89 34.2544 Q1201.24 30.1225 1205 28.1376 Q1208.77 26.1121 1214.16 26.1121 Q1214.93 26.1121 1215.86 26.2337 Q1216.79 26.3147 1217.93 26.5172 L1217.97 34.1734 Z" fill="#000000" fill-rule="nonzero" fill-opacity="1" /><path clip-path="url(#clip830)" d="M1246.81 27.2059 L1254.71 27.2059 L1268.89 65.2844 L1283.07 27.2059 L1290.96 27.2059 L1273.95 72.576 L1263.82 72.576 L1246.81 27.2059 Z" fill="#000000" fill-rule="nonzero" fill-opacity="1" /><path clip-path="url(#clip830)" d="M1330.18 28.5427 L1330.18 35.5912 Q1327.02 33.9709 1323.61 33.1607 Q1320.21 32.3505 1316.57 32.3505 Q1311.02 32.3505 1308.22 34.0519 Q1305.47 35.7533 1305.47 39.156 Q1305.47 41.7486 1307.45 43.2475 Q1309.44 44.7058 1315.43 46.0426 L1317.98 46.6097 Q1325.92 48.3111 1329.25 51.4303 Q1332.61 54.509 1332.61 60.0587 Q1332.61 66.3781 1327.58 70.0644 Q1322.6 73.7508 1313.85 73.7508 Q1310.21 73.7508 1306.24 73.0216 Q1302.31 72.3329 1297.93 70.9151 L1297.93 63.2184 Q1302.06 65.3654 1306.07 66.4591 Q1310.08 67.5124 1314.01 67.5124 Q1319.28 67.5124 1322.12 65.73 Q1324.95 63.9071 1324.95 60.6258 Q1324.95 57.5877 1322.89 55.9673 Q1320.86 54.3469 1313.93 52.8481 L1311.34 52.2405 Q1304.41 50.7821 1301.33 47.7845 Q1298.26 44.7463 1298.26 39.4801 Q1298.26 33.0797 1302.79 29.5959 Q1307.33 26.1121 1315.68 26.1121 Q1319.81 26.1121 1323.45 26.7198 Q1327.1 27.3274 1330.18 28.5427 Z" fill="#000000" fill-rule="nonzero" fill-opacity="1" /><path clip-path="url(#clip830)" d="M1371.17 12.096 L1379.36 12.096 L1379.36 36.8875 L1409.09 36.8875 L1409.09 12.096 L1417.27 12.096 L1417.27 72.576 L1409.09 72.576 L1409.09 43.7741 L1379.36 43.7741 L1379.36 72.576 L1371.17 72.576 L1371.17 12.096 Z" fill="#000000" fill-rule="nonzero" fill-opacity="1" /><path clip-path="url(#clip830)" d="M1450.81 32.4315 Q1444.82 32.4315 1441.33 37.1306 Q1437.85 41.7891 1437.85 49.9314 Q1437.85 58.0738 1441.29 62.7728 Q1444.78 67.4314 1450.81 67.4314 Q1456.77 67.4314 1460.25 62.7323 Q1463.74 58.0333 1463.74 49.9314 Q1463.74 41.8701 1460.25 37.1711 Q1456.77 32.4315 1450.81 32.4315 M1450.81 26.1121 Q1460.54 26.1121 1466.09 32.4315 Q1471.63 38.7509 1471.63 49.9314 Q1471.63 61.0714 1466.09 67.4314 Q1460.54 73.7508 1450.81 73.7508 Q1441.05 73.7508 1435.5 67.4314 Q1429.99 61.0714 1429.99 49.9314 Q1429.99 38.7509 1435.5 32.4315 Q1441.05 26.1121 1450.81 26.1121 Z" fill="#000000" fill-rule="nonzero" fill-opacity="1" /><path clip-path="url(#clip830)" d="M1510.28 34.1734 Q1509.02 33.4443 1507.53 33.1202 Q1506.07 32.7556 1504.29 32.7556 Q1497.97 32.7556 1494.56 36.8875 Q1491.2 40.9789 1491.2 48.6757 L1491.2 72.576 L1483.71 72.576 L1483.71 27.2059 L1491.2 27.2059 L1491.2 34.2544 Q1493.55 30.1225 1497.32 28.1376 Q1501.08 26.1121 1506.47 26.1121 Q1507.24 26.1121 1508.17 26.2337 Q1509.11 26.3147 1510.24 26.5172 L1510.28 34.1734 Z" fill="#000000" fill-rule="nonzero" fill-opacity="1" /><path clip-path="url(#clip830)" d="M1518.1 27.2059 L1525.55 27.2059 L1525.55 72.576 L1518.1 72.576 L1518.1 27.2059 M1518.1 9.54393 L1525.55 9.54393 L1525.55 18.9825 L1518.1 18.9825 L1518.1 9.54393 Z" fill="#000000" fill-rule="nonzero" fill-opacity="1" /><path clip-path="url(#clip830)" d="M1537.91 27.2059 L1573.31 27.2059 L1573.31 34.0114 L1545.28 66.6212 L1573.31 66.6212 L1573.31 72.576 L1536.89 72.576 L1536.89 65.7705 L1564.93 33.1607 L1537.91 33.1607 L1537.91 27.2059 Z" fill="#000000" fill-rule="nonzero" fill-opacity="1" /><path clip-path="url(#clip830)" d="M1602.28 32.4315 Q1596.28 32.4315 1592.8 37.1306 Q1589.31 41.7891 1589.31 49.9314 Q1589.31 58.0738 1592.76 62.7728 Q1596.24 67.4314 1602.28 67.4314 Q1608.23 67.4314 1611.72 62.7323 Q1615.2 58.0333 1615.2 49.9314 Q1615.2 41.8701 1611.72 37.1711 Q1608.23 32.4315 1602.28 32.4315 M1602.28 26.1121 Q1612 26.1121 1617.55 32.4315 Q1623.1 38.7509 1623.1 49.9314 Q1623.1 61.0714 1617.55 67.4314 Q1612 73.7508 1602.28 73.7508 Q1592.51 73.7508 1586.96 67.4314 Q1581.45 61.0714 1581.45 49.9314 Q1581.45 38.7509 1586.96 32.4315 Q1592.51 26.1121 1602.28 26.1121 Z" fill="#000000" fill-rule="nonzero" fill-opacity="1" /><path clip-path="url(#clip830)" d="M1673.17 45.1919 L1673.17 72.576 L1665.71 72.576 L1665.71 45.4349 Q1665.71 38.994 1663.2 35.7938 Q1660.69 32.5936 1655.67 32.5936 Q1649.63 32.5936 1646.15 36.4419 Q1642.66 40.2903 1642.66 46.9338 L1642.66 72.576 L1635.17 72.576 L1635.17 27.2059 L1642.66 27.2059 L1642.66 34.2544 Q1645.34 30.163 1648.94 28.1376 Q1652.59 26.1121 1657.33 26.1121 Q1665.15 26.1121 1669.16 30.9732 Q1673.17 35.7938 1673.17 45.1919 Z" fill="#000000" fill-rule="nonzero" fill-opacity="1" /><path clip-path="url(#clip830)" d="M1689.94 62.2867 L1698.49 62.2867 L1698.49 72.576 L1689.94 72.576 L1689.94 62.2867 M1689.94 29.6769 L1698.49 29.6769 L1698.49 39.9662 L1689.94 39.9662 L1689.94 29.6769 Z" fill="#000000" fill-rule="nonzero" fill-opacity="1" /><path clip-path="url(#clip830)" d="M1750.86 43.6931 L1750.86 65.8515 L1763.99 65.8515 Q1770.59 65.8515 1773.75 63.1374 Q1776.95 60.3828 1776.95 54.752 Q1776.95 49.0808 1773.75 46.4072 Q1770.59 43.6931 1763.99 43.6931 L1750.86 43.6931 M1750.86 18.8205 L1750.86 37.0496 L1762.98 37.0496 Q1768.97 37.0496 1771.89 34.8216 Q1774.85 32.5531 1774.85 27.935 Q1774.85 23.3575 1771.89 21.089 Q1768.97 18.8205 1762.98 18.8205 L1750.86 18.8205 M1742.68 12.096 L1763.58 12.096 Q1772.94 12.096 1778 15.9849 Q1783.07 19.8737 1783.07 27.0438 Q1783.07 32.5936 1780.48 35.8748 Q1777.88 39.156 1772.86 39.9662 Q1778.9 41.2625 1782.22 45.3944 Q1785.58 49.4858 1785.58 55.6432 Q1785.58 63.745 1780.07 68.1605 Q1774.56 72.576 1764.39 72.576 L1742.68 72.576 L1742.68 12.096 Z" fill="#000000" fill-rule="nonzero" fill-opacity="1" /><path clip-path="url(#clip830)" d="M1838.08 48.0275 L1838.08 51.6733 L1803.81 51.6733 Q1804.3 59.3701 1808.43 63.421 Q1812.6 67.4314 1820.01 67.4314 Q1824.31 67.4314 1828.32 66.3781 Q1832.37 65.3249 1836.34 63.2184 L1836.34 70.267 Q1832.33 71.9684 1828.11 72.8596 Q1823.9 73.7508 1819.57 73.7508 Q1808.71 73.7508 1802.35 67.4314 Q1796.03 61.1119 1796.03 50.3365 Q1796.03 39.1965 1802.03 32.6746 Q1808.06 26.1121 1818.27 26.1121 Q1827.43 26.1121 1832.73 32.0264 Q1838.08 37.9003 1838.08 48.0275 M1830.63 45.84 Q1830.55 39.7232 1827.18 36.0774 Q1823.86 32.4315 1818.35 32.4315 Q1812.11 32.4315 1808.35 35.9558 Q1804.62 39.4801 1804.05 45.8805 L1830.63 45.84 Z" fill="#000000" fill-rule="nonzero" fill-opacity="1" /><path clip-path="url(#clip830)" d="M1888.03 45.1919 L1888.03 72.576 L1880.57 72.576 L1880.57 45.4349 Q1880.57 38.994 1878.06 35.7938 Q1875.55 32.5936 1870.53 32.5936 Q1864.49 32.5936 1861.01 36.4419 Q1857.52 40.2903 1857.52 46.9338 L1857.52 72.576 L1850.03 72.576 L1850.03 9.54393 L1857.52 9.54393 L1857.52 34.2544 Q1860.2 30.163 1863.8 28.1376 Q1867.45 26.1121 1872.19 26.1121 Q1880.01 26.1121 1884.02 30.9732 Q1888.03 35.7938 1888.03 45.1919 Z" fill="#000000" fill-rule="nonzero" fill-opacity="1" /><path clip-path="url(#clip830)" d="M1923.51 49.7694 Q1914.48 49.7694 1911 51.8354 Q1907.51 53.9013 1907.51 58.8839 Q1907.51 62.8538 1910.1 65.2034 Q1912.74 67.5124 1917.23 67.5124 Q1923.43 67.5124 1927.16 63.1374 Q1930.93 58.7219 1930.93 51.4303 L1930.93 49.7694 L1923.51 49.7694 M1938.38 46.6907 L1938.38 72.576 L1930.93 72.576 L1930.93 65.6895 Q1928.37 69.8214 1924.57 71.8063 Q1920.76 73.7508 1915.25 73.7508 Q1908.28 73.7508 1904.15 69.8619 Q1900.06 65.9325 1900.06 59.3701 Q1900.06 51.7138 1905.16 47.825 Q1910.31 43.9361 1920.48 43.9361 L1930.93 43.9361 L1930.93 43.2069 Q1930.93 38.0623 1927.52 35.2672 Q1924.16 32.4315 1918.04 32.4315 Q1914.16 32.4315 1910.47 33.3632 Q1906.78 34.295 1903.38 36.1584 L1903.38 29.2718 Q1907.47 27.692 1911.32 26.9223 Q1915.17 26.1121 1918.81 26.1121 Q1928.66 26.1121 1933.52 31.2163 Q1938.38 36.3204 1938.38 46.6907 Z" fill="#000000" fill-rule="nonzero" fill-opacity="1" /><path clip-path="url(#clip830)" d="M1948.39 27.2059 L1956.29 27.2059 L1970.46 65.2844 L1984.64 27.2059 L1992.54 27.2059 L1975.53 72.576 L1965.4 72.576 L1948.39 27.2059 Z" fill="#000000" fill-rule="nonzero" fill-opacity="1" /><path clip-path="url(#clip830)" d="M2002.83 27.2059 L2010.28 27.2059 L2010.28 72.576 L2002.83 72.576 L2002.83 27.2059 M2002.83 9.54393 L2010.28 9.54393 L2010.28 18.9825 L2002.83 18.9825 L2002.83 9.54393 Z" fill="#000000" fill-rule="nonzero" fill-opacity="1" /><path clip-path="url(#clip830)" d="M2043.46 32.4315 Q2037.47 32.4315 2033.98 37.1306 Q2030.5 41.7891 2030.5 49.9314 Q2030.5 58.0738 2033.94 62.7728 Q2037.42 67.4314 2043.46 67.4314 Q2049.42 67.4314 2052.9 62.7323 Q2056.38 58.0333 2056.38 49.9314 Q2056.38 41.8701 2052.9 37.1711 Q2049.42 32.4315 2043.46 32.4315 M2043.46 26.1121 Q2053.18 26.1121 2058.73 32.4315 Q2064.28 38.7509 2064.28 49.9314 Q2064.28 61.0714 2058.73 67.4314 Q2053.18 73.7508 2043.46 73.7508 Q2033.7 73.7508 2028.15 67.4314 Q2022.64 61.0714 2022.64 49.9314 Q2022.64 38.7509 2028.15 32.4315 Q2033.7 26.1121 2043.46 26.1121 Z" fill="#000000" fill-rule="nonzero" fill-opacity="1" /><path clip-path="url(#clip830)" d="M2075.87 54.671 L2075.87 27.2059 L2083.32 27.2059 L2083.32 54.3874 Q2083.32 60.8284 2085.83 64.0691 Q2088.34 67.2693 2093.37 67.2693 Q2099.4 67.2693 2102.89 63.421 Q2106.41 59.5726 2106.41 52.9291 L2106.41 27.2059 L2113.87 27.2059 L2113.87 72.576 L2106.41 72.576 L2106.41 65.6084 Q2103.7 69.7404 2100.09 71.7658 Q2096.53 73.7508 2091.79 73.7508 Q2083.97 73.7508 2079.92 68.8897 Q2075.87 64.0286 2075.87 54.671 M2094.62 26.1121 L2094.62 26.1121 Z" fill="#000000" fill-rule="nonzero" fill-opacity="1" /><path clip-path="url(#clip830)" d="M2155.51 34.1734 Q2154.25 33.4443 2152.75 33.1202 Q2151.3 32.7556 2149.51 32.7556 Q2143.19 32.7556 2139.79 36.8875 Q2136.43 40.9789 2136.43 48.6757 L2136.43 72.576 L2128.93 72.576 L2128.93 27.2059 L2136.43 27.2059 L2136.43 34.2544 Q2138.78 30.1225 2142.55 28.1376 Q2146.31 26.1121 2151.7 26.1121 Q2152.47 26.1121 2153.4 26.2337 Q2154.33 26.3147 2155.47 26.5172 L2155.51 34.1734 Z" fill="#000000" fill-rule="nonzero" fill-opacity="1" /><path clip-path="url(#clip830)" d="M2183.95 49.7694 Q2174.91 49.7694 2171.43 51.8354 Q2167.94 53.9013 2167.94 58.8839 Q2167.94 62.8538 2170.54 65.2034 Q2173.17 67.5124 2177.67 67.5124 Q2183.86 67.5124 2187.59 63.1374 Q2191.36 58.7219 2191.36 51.4303 L2191.36 49.7694 L2183.95 49.7694 M2198.81 46.6907 L2198.81 72.576 L2191.36 72.576 L2191.36 65.6895 Q2188.81 69.8214 2185 71.8063 Q2181.19 73.7508 2175.68 73.7508 Q2168.71 73.7508 2164.58 69.8619 Q2160.49 65.9325 2160.49 59.3701 Q2160.49 51.7138 2165.6 47.825 Q2170.74 43.9361 2180.91 43.9361 L2191.36 43.9361 L2191.36 43.2069 Q2191.36 38.0623 2187.96 35.2672 Q2184.59 32.4315 2178.48 32.4315 Q2174.59 32.4315 2170.9 33.3632 Q2167.22 34.295 2163.81 36.1584 L2163.81 29.2718 Q2167.9 27.692 2171.75 26.9223 Q2175.6 26.1121 2179.25 26.1121 Q2189.09 26.1121 2193.95 31.2163 Q2198.81 36.3204 2198.81 46.6907 Z" fill="#000000" fill-rule="nonzero" fill-opacity="1" /><path clip-path="url(#clip830)" d="M2214.17 9.54393 L2221.62 9.54393 L2221.62 72.576 L2214.17 72.576 L2214.17 9.54393 Z" fill="#000000" fill-rule="nonzero" fill-opacity="1" /><circle clip-path="url(#clip832)" cx="310.845" cy="955.459" r="14.4" fill="#009af9" fill-rule="evenodd" fill-opacity="1" stroke="#000000" stroke-opacity="1" stroke-width="3.2"/>
<circle clip-path="url(#clip832)" cx="381.647" cy="896.634" r="14.4" fill="#009af9" fill-rule="evenodd" fill-opacity="1" stroke="#000000" stroke-opacity="1" stroke-width="3.2"/>
<circle clip-path="url(#clip832)" cx="452.448" cy="926.291" r="14.4" fill="#009af9" fill-rule="evenodd" fill-opacity="1" stroke="#000000" stroke-opacity="1" stroke-width="3.2"/>
<circle clip-path="url(#clip832)" cx="523.249" cy="753.279" r="14.4" fill="#009af9" fill-rule="evenodd" fill-opacity="1" stroke="#000000" stroke-opacity="1" stroke-width="3.2"/>
<circle clip-path="url(#clip832)" cx="594.051" cy="712.837" r="14.4" fill="#009af9" fill-rule="evenodd" fill-opacity="1" stroke="#000000" stroke-opacity="1" stroke-width="3.2"/>
<circle clip-path="url(#clip832)" cx="664.852" cy="760.893" r="14.4" fill="#009af9" fill-rule="evenodd" fill-opacity="1" stroke="#000000" stroke-opacity="1" stroke-width="3.2"/>
<circle clip-path="url(#clip832)" cx="735.653" cy="827.693" r="14.4" fill="#009af9" fill-rule="evenodd" fill-opacity="1" stroke="#000000" stroke-opacity="1" stroke-width="3.2"/>
<circle clip-path="url(#clip832)" cx="806.455" cy="929.506" r="14.4" fill="#009af9" fill-rule="evenodd" fill-opacity="1" stroke="#000000" stroke-opacity="1" stroke-width="3.2"/>
<circle clip-path="url(#clip832)" cx="877.256" cy="160.256" r="14.4" fill="#009af9" fill-rule="evenodd" fill-opacity="1" stroke="#000000" stroke-opacity="1" stroke-width="3.2"/>
<circle clip-path="url(#clip832)" cx="948.057" cy="807.657" r="14.4" fill="#009af9" fill-rule="evenodd" fill-opacity="1" stroke="#000000" stroke-opacity="1" stroke-width="3.2"/>
<circle clip-path="url(#clip832)" cx="1018.86" cy="768.874" r="14.4" fill="#009af9" fill-rule="evenodd" fill-opacity="1" stroke="#000000" stroke-opacity="1" stroke-width="3.2"/>
<circle clip-path="url(#clip832)" cx="1089.66" cy="625.182" r="14.4" fill="#009af9" fill-rule="evenodd" fill-opacity="1" stroke="#000000" stroke-opacity="1" stroke-width="3.2"/>
<circle clip-path="url(#clip832)" cx="1160.46" cy="932.446" r="14.4" fill="#009af9" fill-rule="evenodd" fill-opacity="1" stroke="#000000" stroke-opacity="1" stroke-width="3.2"/>
<circle clip-path="url(#clip832)" cx="1231.26" cy="901.94" r="14.4" fill="#009af9" fill-rule="evenodd" fill-opacity="1" stroke="#000000" stroke-opacity="1" stroke-width="3.2"/>
<circle clip-path="url(#clip832)" cx="1302.06" cy="865.358" r="14.4" fill="#009af9" fill-rule="evenodd" fill-opacity="1" stroke="#000000" stroke-opacity="1" stroke-width="3.2"/>
<circle clip-path="url(#clip832)" cx="1372.87" cy="883.164" r="14.4" fill="#009af9" fill-rule="evenodd" fill-opacity="1" stroke="#000000" stroke-opacity="1" stroke-width="3.2"/>
<circle clip-path="url(#clip832)" cx="1443.67" cy="1006.32" r="14.4" fill="#009af9" fill-rule="evenodd" fill-opacity="1" stroke="#000000" stroke-opacity="1" stroke-width="3.2"/>
<circle clip-path="url(#clip832)" cx="1514.47" cy="1386.4" r="14.4" fill="#009af9" fill-rule="evenodd" fill-opacity="1" stroke="#000000" stroke-opacity="1" stroke-width="3.2"/>
<circle clip-path="url(#clip832)" cx="1585.27" cy="1386.4" r="14.4" fill="#009af9" fill-rule="evenodd" fill-opacity="1" stroke="#000000" stroke-opacity="1" stroke-width="3.2"/>
<circle clip-path="url(#clip832)" cx="1656.07" cy="1386.4" r="14.4" fill="#009af9" fill-rule="evenodd" fill-opacity="1" stroke="#000000" stroke-opacity="1" stroke-width="3.2"/>
<circle clip-path="url(#clip832)" cx="1726.87" cy="1386.4" r="14.4" fill="#009af9" fill-rule="evenodd" fill-opacity="1" stroke="#000000" stroke-opacity="1" stroke-width="3.2"/>
<circle clip-path="url(#clip832)" cx="1797.67" cy="1386.4" r="14.4" fill="#009af9" fill-rule="evenodd" fill-opacity="1" stroke="#000000" stroke-opacity="1" stroke-width="3.2"/>
<circle clip-path="url(#clip832)" cx="1868.47" cy="1386.4" r="14.4" fill="#009af9" fill-rule="evenodd" fill-opacity="1" stroke="#000000" stroke-opacity="1" stroke-width="3.2"/>
<circle clip-path="url(#clip832)" cx="1939.28" cy="1386.4" r="14.4" fill="#009af9" fill-rule="evenodd" fill-opacity="1" stroke="#000000" stroke-opacity="1" stroke-width="3.2"/>
<circle clip-path="url(#clip832)" cx="2010.08" cy="1386.4" r="14.4" fill="#009af9" fill-rule="evenodd" fill-opacity="1" stroke="#000000" stroke-opacity="1" stroke-width="3.2"/>
<circle clip-path="url(#clip832)" cx="2080.88" cy="1386.4" r="14.4" fill="#009af9" fill-rule="evenodd" fill-opacity="1" stroke="#000000" stroke-opacity="1" stroke-width="3.2"/>
<circle clip-path="url(#clip832)" cx="2151.68" cy="1386.4" r="14.4" fill="#009af9" fill-rule="evenodd" fill-opacity="1" stroke="#000000" stroke-opacity="1" stroke-width="3.2"/>
<circle clip-path="url(#clip832)" cx="2222.48" cy="1386.4" r="14.4" fill="#009af9" fill-rule="evenodd" fill-opacity="1" stroke="#000000" stroke-opacity="1" stroke-width="3.2"/>
<circle clip-path="url(#clip832)" cx="2293.28" cy="1386.4" r="14.4" fill="#009af9" fill-rule="evenodd" fill-opacity="1" stroke="#000000" stroke-opacity="1" stroke-width="3.2"/>
<path clip-path="url(#clip830)" d="M1976.97 270.476 L2282.71 270.476 L2282.71 166.796 L1976.97 166.796  Z" fill="#ffffff" fill-rule="evenodd" fill-opacity="1"/>
<polyline clip-path="url(#clip830)" style="stroke:#000000; stroke-linecap:round; stroke-linejoin:round; stroke-width:4; stroke-opacity:1; fill:none" points="1976.97,270.476 2282.71,270.476 2282.71,166.796 1976.97,166.796 1976.97,270.476 "/>
<circle clip-path="url(#clip830)" cx="2070.36" cy="218.636" r="20.48" fill="#009af9" fill-rule="evenodd" fill-opacity="1" stroke="#000000" stroke-opacity="1" stroke-width="4.55111"/>
<path clip-path="url(#clip830)" d="M2163.76 201.356 L2170.73 201.356 L2179.55 224.874 L2188.41 201.356 L2195.38 201.356 L2195.38 235.916 L2190.82 235.916 L2190.82 205.569 L2181.91 229.272 L2177.21 229.272 L2168.3 205.569 L2168.3 235.916 L2163.76 235.916 L2163.76 201.356 Z" fill="#000000" fill-rule="nonzero" fill-opacity="1" /><path clip-path="url(#clip830)" d="M2216.21 205.962 L2209.87 223.161 L2222.58 223.161 L2216.21 205.962 M2213.57 201.356 L2218.88 201.356 L2232.05 235.916 L2227.19 235.916 L2224.04 227.05 L2208.46 227.05 L2205.31 235.916 L2200.38 235.916 L2213.57 201.356 Z" fill="#000000" fill-rule="nonzero" fill-opacity="1" /><path clip-path="url(#clip830)" d="M2237.09 201.356 L2258.94 201.356 L2258.94 205.291 L2241.77 205.291 L2241.77 215.522 L2258.23 215.522 L2258.23 219.457 L2241.77 219.457 L2241.77 231.981 L2259.36 231.981 L2259.36 235.916 L2237.09 235.916 L2237.09 201.356 Z" fill="#000000" fill-rule="nonzero" fill-opacity="1" /></svg>
