<?xml version="1.0" encoding="utf-8"?>
<svg xmlns="http://www.w3.org/2000/svg" xmlns:xlink="http://www.w3.org/1999/xlink" width="600" height="400" viewBox="0 0 2400 1600">
<defs>
  <clipPath id="clip750">
    <rect x="0" y="0" width="2400" height="1600"/>
  </clipPath>
</defs>
<path clip-path="url(#clip750)" d="M0 1600 L2400 1600 L2400 0 L0 0  Z" fill="#ffffff" fill-rule="evenodd" fill-opacity="1"/>
<defs>
  <clipPath id="clip751">
    <rect x="480" y="0" width="1681" height="1600"/>
  </clipPath>
</defs>
<path clip-path="url(#clip750)" d="M220.057 1423.18 L2352.76 1423.18 L2352.76 123.472 L220.057 123.472  Z" fill="#ffffff" fill-rule="evenodd" fill-opacity="1"/>
<defs>
  <clipPath id="clip752">
    <rect x="220" y="123" width="2134" height="1301"/>
  </clipPath>
</defs>
<polyline clip-path="url(#clip752)" style="stroke:#000000; stroke-linecap:round; stroke-linejoin:round; stroke-width:2; stroke-opacity:0.1; fill:none" points="615.747,1423.18 615.747,123.472 "/>
<polyline clip-path="url(#clip752)" style="stroke:#000000; stroke-linecap:round; stroke-linejoin:round; stroke-width:2; stroke-opacity:0.1; fill:none" points="1034.91,1423.18 1034.91,123.472 "/>
<polyline clip-path="url(#clip752)" style="stroke:#000000; stroke-linecap:round; stroke-linejoin:round; stroke-width:2; stroke-opacity:0.1; fill:none" points="1454.07,1423.18 1454.07,123.472 "/>
<polyline clip-path="url(#clip752)" style="stroke:#000000; stroke-linecap:round; stroke-linejoin:round; stroke-width:2; stroke-opacity:0.1; fill:none" points="1873.23,1423.18 1873.23,123.472 "/>
<polyline clip-path="url(#clip752)" style="stroke:#000000; stroke-linecap:round; stroke-linejoin:round; stroke-width:2; stroke-opacity:0.1; fill:none" points="2292.4,1423.18 2292.4,123.472 "/>
<polyline clip-path="url(#clip752)" style="stroke:#000000; stroke-linecap:round; stroke-linejoin:round; stroke-width:2; stroke-opacity:0.05; fill:none" points="280.417,1423.18 280.417,123.472 "/>
<polyline clip-path="url(#clip752)" style="stroke:#000000; stroke-linecap:round; stroke-linejoin:round; stroke-width:2; stroke-opacity:0.05; fill:none" points="364.249,1423.18 364.249,123.472 "/>
<polyline clip-path="url(#clip752)" style="stroke:#000000; stroke-linecap:round; stroke-linejoin:round; stroke-width:2; stroke-opacity:0.05; fill:none" points="448.082,1423.18 448.082,123.472 "/>
<polyline clip-path="url(#clip752)" style="stroke:#000000; stroke-linecap:round; stroke-linejoin:round; stroke-width:2; stroke-opacity:0.05; fill:none" points="531.914,1423.18 531.914,123.472 "/>
<polyline clip-path="url(#clip752)" style="stroke:#000000; stroke-linecap:round; stroke-linejoin:round; stroke-width:2; stroke-opacity:0.05; fill:none" points="699.579,1423.18 699.579,123.472 "/>
<polyline clip-path="url(#clip752)" style="stroke:#000000; stroke-linecap:round; stroke-linejoin:round; stroke-width:2; stroke-opacity:0.05; fill:none" points="783.412,1423.18 783.412,123.472 "/>
<polyline clip-path="url(#clip752)" style="stroke:#000000; stroke-linecap:round; stroke-linejoin:round; stroke-width:2; stroke-opacity:0.05; fill:none" points="867.244,1423.18 867.244,123.472 "/>
<polyline clip-path="url(#clip752)" style="stroke:#000000; stroke-linecap:round; stroke-linejoin:round; stroke-width:2; stroke-opacity:0.05; fill:none" points="951.077,1423.18 951.077,123.472 "/>
<polyline clip-path="url(#clip752)" style="stroke:#000000; stroke-linecap:round; stroke-linejoin:round; stroke-width:2; stroke-opacity:0.05; fill:none" points="1118.74,1423.18 1118.74,123.472 "/>
<polyline clip-path="url(#clip752)" style="stroke:#000000; stroke-linecap:round; stroke-linejoin:round; stroke-width:2; stroke-opacity:0.05; fill:none" points="1202.57,1423.18 1202.57,123.472 "/>
<polyline clip-path="url(#clip752)" style="stroke:#000000; stroke-linecap:round; stroke-linejoin:round; stroke-width:2; stroke-opacity:0.05; fill:none" points="1286.41,1423.18 1286.41,123.472 "/>
<polyline clip-path="url(#clip752)" style="stroke:#000000; stroke-linecap:round; stroke-linejoin:round; stroke-width:2; stroke-opacity:0.05; fill:none" points="1370.24,1423.18 1370.24,123.472 "/>
<polyline clip-path="url(#clip752)" style="stroke:#000000; stroke-linecap:round; stroke-linejoin:round; stroke-width:2; stroke-opacity:0.05; fill:none" points="1537.9,1423.18 1537.9,123.472 "/>
<polyline clip-path="url(#clip752)" style="stroke:#000000; stroke-linecap:round; stroke-linejoin:round; stroke-width:2; stroke-opacity:0.05; fill:none" points="1621.74,1423.18 1621.74,123.472 "/>
<polyline clip-path="url(#clip752)" style="stroke:#000000; stroke-linecap:round; stroke-linejoin:round; stroke-width:2; stroke-opacity:0.05; fill:none" points="1705.57,1423.18 1705.57,123.472 "/>
<polyline clip-path="url(#clip752)" style="stroke:#000000; stroke-linecap:round; stroke-linejoin:round; stroke-width:2; stroke-opacity:0.05; fill:none" points="1789.4,1423.18 1789.4,123.472 "/>
<polyline clip-path="url(#clip752)" style="stroke:#000000; stroke-linecap:round; stroke-linejoin:round; stroke-width:2; stroke-opacity:0.05; fill:none" points="1957.07,1423.18 1957.07,123.472 "/>
<polyline clip-path="url(#clip752)" style="stroke:#000000; stroke-linecap:round; stroke-linejoin:round; stroke-width:2; stroke-opacity:0.05; fill:none" points="2040.9,1423.18 2040.9,123.472 "/>
<polyline clip-path="url(#clip752)" style="stroke:#000000; stroke-linecap:round; stroke-linejoin:round; stroke-width:2; stroke-opacity:0.05; fill:none" points="2124.73,1423.18 2124.73,123.472 "/>
<polyline clip-path="url(#clip752)" style="stroke:#000000; stroke-linecap:round; stroke-linejoin:round; stroke-width:2; stroke-opacity:0.05; fill:none" points="2208.56,1423.18 2208.56,123.472 "/>
<polyline clip-path="url(#clip750)" style="stroke:#000000; stroke-linecap:round; stroke-linejoin:round; stroke-width:4; stroke-opacity:1; fill:none" points="220.057,1423.18 2352.76,1423.18 "/>
<polyline clip-path="url(#clip750)" style="stroke:#000000; stroke-linecap:round; stroke-linejoin:round; stroke-width:4; stroke-opacity:1; fill:none" points="615.747,1423.18 615.747,1404.28 "/>
<polyline clip-path="url(#clip750)" style="stroke:#000000; stroke-linecap:round; stroke-linejoin:round; stroke-width:4; stroke-opacity:1; fill:none" points="1034.91,1423.18 1034.91,1404.28 "/>
<polyline clip-path="url(#clip750)" style="stroke:#000000; stroke-linecap:round; stroke-linejoin:round; stroke-width:4; stroke-opacity:1; fill:none" points="1454.07,1423.18 1454.07,1404.28 "/>
<polyline clip-path="url(#clip750)" style="stroke:#000000; stroke-linecap:round; stroke-linejoin:round; stroke-width:4; stroke-opacity:1; fill:none" points="1873.23,1423.18 1873.23,1404.28 "/>
<polyline clip-path="url(#clip750)" style="stroke:#000000; stroke-linecap:round; stroke-linejoin:round; stroke-width:4; stroke-opacity:1; fill:none" points="2292.4,1423.18 2292.4,1404.28 "/>
<polyline clip-path="url(#clip750)" style="stroke:#000000; stroke-linecap:round; stroke-linejoin:round; stroke-width:4; stroke-opacity:1; fill:none" points="280.417,1423.18 280.417,1413.73 "/>
<polyline clip-path="url(#clip750)" style="stroke:#000000; stroke-linecap:round; stroke-linejoin:round; stroke-width:4; stroke-opacity:1; fill:none" points="364.249,1423.18 364.249,1413.73 "/>
<polyline clip-path="url(#clip750)" style="stroke:#000000; stroke-linecap:round; stroke-linejoin:round; stroke-width:4; stroke-opacity:1; fill:none" points="448.082,1423.18 448.082,1413.73 "/>
<polyline clip-path="url(#clip750)" style="stroke:#000000; stroke-linecap:round; stroke-linejoin:round; stroke-width:4; stroke-opacity:1; fill:none" points="531.914,1423.18 531.914,1413.73 "/>
<polyline clip-path="url(#clip750)" style="stroke:#000000; stroke-linecap:round; stroke-linejoin:round; stroke-width:4; stroke-opacity:1; fill:none" points="699.579,1423.18 699.579,1413.73 "/>
<polyline clip-path="url(#clip750)" style="stroke:#000000; stroke-linecap:round; stroke-linejoin:round; stroke-width:4; stroke-opacity:1; fill:none" points="783.412,1423.18 783.412,1413.73 "/>
<polyline clip-path="url(#clip750)" style="stroke:#000000; stroke-linecap:round; stroke-linejoin:round; stroke-width:4; stroke-opacity:1; fill:none" points="867.244,1423.18 867.244,1413.73 "/>
<polyline clip-path="url(#clip750)" style="stroke:#000000; stroke-linecap:round; stroke-linejoin:round; stroke-width:4; stroke-opacity:1; fill:none" points="951.077,1423.18 951.077,1413.73 "/>
<polyline clip-path="url(#clip750)" style="stroke:#000000; stroke-linecap:round; stroke-linejoin:round; stroke-width:4; stroke-opacity:1; fill:none" points="1118.74,1423.18 1118.74,1413.73 "/>
<polyline clip-path="url(#clip750)" style="stroke:#000000; stroke-linecap:round; stroke-linejoin:round; stroke-width:4; stroke-opacity:1; fill:none" points="1202.57,1423.18 1202.57,1413.73 "/>
<polyline clip-path="url(#clip750)" style="stroke:#000000; stroke-linecap:round; stroke-linejoin:round; stroke-width:4; stroke-opacity:1; fill:none" points="1286.41,1423.18 1286.41,1413.73 "/>
<polyline clip-path="url(#clip750)" style="stroke:#000000; stroke-linecap:round; stroke-linejoin:round; stroke-width:4; stroke-opacity:1; fill:none" points="1370.24,1423.18 1370.24,1413.73 "/>
<polyline clip-path="url(#clip750)" style="stroke:#000000; stroke-linecap:round; stroke-linejoin:round; stroke-width:4; stroke-opacity:1; fill:none" points="1537.9,1423.18 1537.9,1413.73 "/>
<polyline clip-path="url(#clip750)" style="stroke:#000000; stroke-linecap:round; stroke-linejoin:round; stroke-width:4; stroke-opacity:1; fill:none" points="1621.74,1423.18 1621.74,1413.73 "/>
<polyline clip-path="url(#clip750)" style="stroke:#000000; stroke-linecap:round; stroke-linejoin:round; stroke-width:4; stroke-opacity:1; fill:none" points="1705.57,1423.18 1705.57,1413.73 "/>
<polyline clip-path="url(#clip750)" style="stroke:#000000; stroke-linecap:round; stroke-linejoin:round; stroke-width:4; stroke-opacity:1; fill:none" points="1789.4,1423.18 1789.4,1413.73 "/>
<polyline clip-path="url(#clip750)" style="stroke:#000000; stroke-linecap:round; stroke-linejoin:round; stroke-width:4; stroke-opacity:1; fill:none" points="1957.07,1423.18 1957.07,1413.73 "/>
<polyline clip-path="url(#clip750)" style="stroke:#000000; stroke-linecap:round; stroke-linejoin:round; stroke-width:4; stroke-opacity:1; fill:none" points="2040.9,1423.18 2040.9,1413.73 "/>
<polyline clip-path="url(#clip750)" style="stroke:#000000; stroke-linecap:round; stroke-linejoin:round; stroke-width:4; stroke-opacity:1; fill:none" points="2124.73,1423.18 2124.73,1413.73 "/>
<polyline clip-path="url(#clip750)" style="stroke:#000000; stroke-linecap:round; stroke-linejoin:round; stroke-width:4; stroke-opacity:1; fill:none" points="2208.56,1423.18 2208.56,1413.73 "/>
<path clip-path="url(#clip750)" d="M590.434 1481.64 L598.073 1481.64 L598.073 1455.28 L589.763 1456.95 L589.763 1452.69 L598.027 1451.02 L602.703 1451.02 L602.703 1481.64 L610.342 1481.64 L610.342 1485.58 L590.434 1485.58 L590.434 1481.64 Z" fill="#000000" fill-rule="nonzero" fill-opacity="1" /><path clip-path="url(#clip750)" d="M629.786 1454.1 Q626.175 1454.1 624.346 1457.66 Q622.541 1461.2 622.541 1468.33 Q622.541 1475.44 624.346 1479.01 Q626.175 1482.55 629.786 1482.55 Q633.42 1482.55 635.226 1479.01 Q637.054 1475.44 637.054 1468.33 Q637.054 1461.2 635.226 1457.66 Q633.42 1454.1 629.786 1454.1 M629.786 1450.39 Q635.596 1450.39 638.652 1455 Q641.73 1459.58 641.73 1468.33 Q641.73 1477.06 638.652 1481.67 Q635.596 1486.25 629.786 1486.25 Q623.976 1486.25 620.897 1481.67 Q617.842 1477.06 617.842 1468.33 Q617.842 1459.58 620.897 1455 Q623.976 1450.39 629.786 1450.39 Z" fill="#000000" fill-rule="nonzero" fill-opacity="1" /><path clip-path="url(#clip750)" d="M1013.68 1481.64 L1030 1481.64 L1030 1485.58 L1008.06 1485.58 L1008.06 1481.64 Q1010.72 1478.89 1015.3 1474.26 Q1019.91 1469.61 1021.09 1468.27 Q1023.34 1465.74 1024.21 1464.01 Q1025.12 1462.25 1025.12 1460.56 Q1025.12 1457.8 1023.17 1456.07 Q1021.25 1454.33 1018.15 1454.33 Q1015.95 1454.33 1013.5 1455.09 Q1011.07 1455.86 1008.29 1457.41 L1008.29 1452.69 Q1011.11 1451.55 1013.57 1450.97 Q1016.02 1450.39 1018.06 1450.39 Q1023.43 1450.39 1026.62 1453.08 Q1029.82 1455.77 1029.82 1460.26 Q1029.82 1462.39 1029.01 1464.31 Q1028.22 1466.2 1026.11 1468.8 Q1025.53 1469.47 1022.43 1472.69 Q1019.33 1475.88 1013.68 1481.64 Z" fill="#000000" fill-rule="nonzero" fill-opacity="1" /><path clip-path="url(#clip750)" d="M1049.82 1454.1 Q1046.21 1454.1 1044.38 1457.66 Q1042.57 1461.2 1042.57 1468.33 Q1042.57 1475.44 1044.38 1479.01 Q1046.21 1482.55 1049.82 1482.55 Q1053.45 1482.55 1055.26 1479.01 Q1057.08 1475.44 1057.08 1468.33 Q1057.08 1461.2 1055.26 1457.66 Q1053.45 1454.1 1049.82 1454.1 M1049.82 1450.39 Q1055.63 1450.39 1058.68 1455 Q1061.76 1459.58 1061.76 1468.33 Q1061.76 1477.06 1058.68 1481.67 Q1055.63 1486.25 1049.82 1486.25 Q1044.01 1486.25 1040.93 1481.67 Q1037.87 1477.06 1037.87 1468.33 Q1037.87 1459.58 1040.93 1455 Q1044.01 1450.39 1049.82 1450.39 Z" fill="#000000" fill-rule="nonzero" fill-opacity="1" /><path clip-path="url(#clip750)" d="M1442.91 1466.95 Q1446.27 1467.66 1448.15 1469.93 Q1450.04 1472.2 1450.04 1475.53 Q1450.04 1480.65 1446.53 1483.45 Q1443.01 1486.25 1436.53 1486.25 Q1434.35 1486.25 1432.03 1485.81 Q1429.74 1485.39 1427.29 1484.54 L1427.29 1480.02 Q1429.23 1481.16 1431.55 1481.74 Q1433.86 1482.32 1436.39 1482.32 Q1440.78 1482.32 1443.08 1480.58 Q1445.39 1478.84 1445.39 1475.53 Q1445.39 1472.48 1443.24 1470.77 Q1441.11 1469.03 1437.29 1469.03 L1433.26 1469.03 L1433.26 1465.19 L1437.47 1465.19 Q1440.92 1465.19 1442.75 1463.82 Q1444.58 1462.43 1444.58 1459.84 Q1444.58 1457.18 1442.68 1455.77 Q1440.81 1454.33 1437.29 1454.33 Q1435.37 1454.33 1433.17 1454.75 Q1430.97 1455.16 1428.33 1456.04 L1428.33 1451.88 Q1430.99 1451.14 1433.31 1450.77 Q1435.65 1450.39 1437.71 1450.39 Q1443.03 1450.39 1446.13 1452.83 Q1449.23 1455.23 1449.23 1459.35 Q1449.23 1462.22 1447.59 1464.21 Q1445.95 1466.18 1442.91 1466.95 Z" fill="#000000" fill-rule="nonzero" fill-opacity="1" /><path clip-path="url(#clip750)" d="M1468.91 1454.1 Q1465.3 1454.1 1463.47 1457.66 Q1461.66 1461.2 1461.66 1468.33 Q1461.66 1475.44 1463.47 1479.01 Q1465.3 1482.55 1468.91 1482.55 Q1472.54 1482.55 1474.35 1479.01 Q1476.18 1475.44 1476.18 1468.33 Q1476.18 1461.2 1474.35 1457.66 Q1472.54 1454.1 1468.91 1454.1 M1468.91 1450.39 Q1474.72 1450.39 1477.78 1455 Q1480.85 1459.58 1480.85 1468.33 Q1480.85 1477.06 1477.78 1481.67 Q1474.72 1486.25 1468.91 1486.25 Q1463.1 1486.25 1460.02 1481.67 Q1456.97 1477.06 1456.97 1468.33 Q1456.97 1459.58 1460.02 1455 Q1463.1 1450.39 1468.91 1450.39 Z" fill="#000000" fill-rule="nonzero" fill-opacity="1" /><path clip-path="url(#clip750)" d="M1861.41 1455.09 L1849.6 1473.54 L1861.41 1473.54 L1861.41 1455.09 M1860.18 1451.02 L1866.06 1451.02 L1866.06 1473.54 L1870.99 1473.54 L1870.99 1477.43 L1866.06 1477.43 L1866.06 1485.58 L1861.41 1485.58 L1861.41 1477.43 L1845.8 1477.43 L1845.8 1472.92 L1860.18 1451.02 Z" fill="#000000" fill-rule="nonzero" fill-opacity="1" /><path clip-path="url(#clip750)" d="M1888.72 1454.1 Q1885.11 1454.1 1883.28 1457.66 Q1881.47 1461.2 1881.47 1468.33 Q1881.47 1475.44 1883.28 1479.01 Q1885.11 1482.55 1888.72 1482.55 Q1892.35 1482.55 1894.16 1479.01 Q1895.99 1475.44 1895.99 1468.33 Q1895.99 1461.2 1894.16 1457.66 Q1892.35 1454.1 1888.72 1454.1 M1888.72 1450.39 Q1894.53 1450.39 1897.59 1455 Q1900.66 1459.58 1900.66 1468.33 Q1900.66 1477.06 1897.59 1481.67 Q1894.53 1486.25 1888.72 1486.25 Q1882.91 1486.25 1879.83 1481.67 Q1876.78 1477.06 1876.78 1468.33 Q1876.78 1459.58 1879.83 1455 Q1882.91 1450.39 1888.72 1450.39 Z" fill="#000000" fill-rule="nonzero" fill-opacity="1" /><path clip-path="url(#clip750)" d="M2267.1 1451.02 L2285.45 1451.02 L2285.45 1454.96 L2271.38 1454.96 L2271.38 1463.43 Q2272.4 1463.08 2273.42 1462.92 Q2274.43 1462.73 2275.45 1462.73 Q2281.24 1462.73 2284.62 1465.9 Q2288 1469.08 2288 1474.49 Q2288 1480.07 2284.53 1483.17 Q2281.05 1486.25 2274.73 1486.25 Q2272.56 1486.25 2270.29 1485.88 Q2268.04 1485.51 2265.64 1484.77 L2265.64 1480.07 Q2267.72 1481.2 2269.94 1481.76 Q2272.17 1482.32 2274.64 1482.32 Q2278.65 1482.32 2280.98 1480.21 Q2283.32 1478.1 2283.32 1474.49 Q2283.32 1470.88 2280.98 1468.77 Q2278.65 1466.67 2274.64 1466.67 Q2272.77 1466.67 2270.89 1467.08 Q2269.04 1467.5 2267.1 1468.38 L2267.1 1451.02 Z" fill="#000000" fill-rule="nonzero" fill-opacity="1" /><path clip-path="url(#clip750)" d="M2307.21 1454.1 Q2303.6 1454.1 2301.77 1457.66 Q2299.97 1461.2 2299.97 1468.33 Q2299.97 1475.44 2301.77 1479.01 Q2303.6 1482.55 2307.21 1482.55 Q2310.85 1482.55 2312.65 1479.01 Q2314.48 1475.44 2314.48 1468.33 Q2314.48 1461.2 2312.65 1457.66 Q2310.85 1454.1 2307.21 1454.1 M2307.21 1450.39 Q2313.02 1450.39 2316.08 1455 Q2319.16 1459.58 2319.16 1468.33 Q2319.16 1477.06 2316.08 1481.67 Q2313.02 1486.25 2307.21 1486.25 Q2301.4 1486.25 2298.32 1481.67 Q2295.27 1477.06 2295.27 1468.33 Q2295.27 1459.58 2298.32 1455 Q2301.4 1450.39 2307.21 1450.39 Z" fill="#000000" fill-rule="nonzero" fill-opacity="1" /><path clip-path="url(#clip750)" d="M1201.23 1546.53 L1201.23 1568.04 L1195.38 1568.04 L1195.38 1546.72 Q1195.38 1541.66 1193.4 1539.14 Q1191.43 1536.63 1187.48 1536.63 Q1182.74 1536.63 1180 1539.65 Q1177.27 1542.68 1177.27 1547.9 L1177.27 1568.04 L1171.38 1568.04 L1171.38 1518.52 L1177.27 1518.52 L1177.27 1537.93 Q1179.37 1534.72 1182.2 1533.13 Q1185.06 1531.54 1188.79 1531.54 Q1194.93 1531.54 1198.08 1535.36 Q1201.23 1539.14 1201.23 1546.53 Z" fill="#000000" fill-rule="nonzero" fill-opacity="1" /><path clip-path="url(#clip750)" d="M1226.73 1536.5 Q1222.02 1536.5 1219.28 1540.19 Q1216.54 1543.85 1216.54 1550.25 Q1216.54 1556.65 1219.25 1560.34 Q1221.99 1564 1226.73 1564 Q1231.41 1564 1234.14 1560.31 Q1236.88 1556.62 1236.88 1550.25 Q1236.88 1543.92 1234.14 1540.23 Q1231.41 1536.5 1226.73 1536.5 M1226.73 1531.54 Q1234.37 1531.54 1238.73 1536.5 Q1243.09 1541.47 1243.09 1550.25 Q1243.09 1559 1238.73 1564 Q1234.37 1568.97 1226.73 1568.97 Q1219.06 1568.97 1214.7 1564 Q1210.37 1559 1210.37 1550.25 Q1210.37 1541.47 1214.7 1536.5 Q1219.06 1531.54 1226.73 1531.54 Z" fill="#000000" fill-rule="nonzero" fill-opacity="1" /><path clip-path="url(#clip750)" d="M1273.45 1537.87 Q1272.47 1537.3 1271.29 1537.04 Q1270.14 1536.76 1268.74 1536.76 Q1263.78 1536.76 1261.1 1540 Q1258.46 1543.22 1258.46 1549.27 L1258.46 1568.04 L1252.57 1568.04 L1252.57 1532.4 L1258.46 1532.4 L1258.46 1537.93 Q1260.31 1534.69 1263.27 1533.13 Q1266.23 1531.54 1270.46 1531.54 Q1271.07 1531.54 1271.8 1531.63 Q1272.53 1531.7 1273.42 1531.85 L1273.45 1537.87 Z" fill="#000000" fill-rule="nonzero" fill-opacity="1" /><path clip-path="url(#clip750)" d="M1279.6 1532.4 L1285.45 1532.4 L1285.45 1568.04 L1279.6 1568.04 L1279.6 1532.4 M1279.6 1518.52 L1285.45 1518.52 L1285.45 1525.93 L1279.6 1525.93 L1279.6 1518.52 Z" fill="#000000" fill-rule="nonzero" fill-opacity="1" /><path clip-path="url(#clip750)" d="M1295.16 1532.4 L1322.98 1532.4 L1322.98 1537.74 L1300.95 1563.37 L1322.98 1563.37 L1322.98 1568.04 L1294.36 1568.04 L1294.36 1562.7 L1316.39 1537.07 L1295.16 1537.07 L1295.16 1532.4 Z" fill="#000000" fill-rule="nonzero" fill-opacity="1" /><path clip-path="url(#clip750)" d="M1345.73 1536.5 Q1341.02 1536.5 1338.29 1540.19 Q1335.55 1543.85 1335.55 1550.25 Q1335.55 1556.65 1338.26 1560.34 Q1340.99 1564 1345.73 1564 Q1350.41 1564 1353.15 1560.31 Q1355.89 1556.62 1355.89 1550.25 Q1355.89 1543.92 1353.15 1540.23 Q1350.41 1536.5 1345.73 1536.5 M1345.73 1531.54 Q1353.37 1531.54 1357.73 1536.5 Q1362.09 1541.47 1362.09 1550.25 Q1362.09 1559 1357.73 1564 Q1353.37 1568.97 1345.73 1568.97 Q1338.06 1568.97 1333.7 1564 Q1329.38 1559 1329.38 1550.25 Q1329.38 1541.47 1333.7 1536.5 Q1338.06 1531.54 1345.73 1531.54 Z" fill="#000000" fill-rule="nonzero" fill-opacity="1" /><path clip-path="url(#clip750)" d="M1401.43 1546.53 L1401.43 1568.04 L1395.58 1568.04 L1395.58 1546.72 Q1395.58 1541.66 1393.61 1539.14 Q1391.63 1536.63 1387.68 1536.63 Q1382.94 1536.63 1380.21 1539.65 Q1377.47 1542.68 1377.47 1547.9 L1377.47 1568.04 L1371.58 1568.04 L1371.58 1532.4 L1377.47 1532.4 L1377.47 1537.93 Q1379.57 1534.72 1382.4 1533.13 Q1385.27 1531.54 1388.99 1531.54 Q1395.13 1531.54 1398.28 1535.36 Q1401.43 1539.14 1401.43 1546.53 Z" fill="#000000" fill-rule="nonzero" fill-opacity="1" /><polyline clip-path="url(#clip752)" style="stroke:#000000; stroke-linecap:round; stroke-linejoin:round; stroke-width:2; stroke-opacity:0.1; fill:none" points="220.057,1056.3 2352.76,1056.3 "/>
<polyline clip-path="url(#clip752)" style="stroke:#000000; stroke-linecap:round; stroke-linejoin:round; stroke-width:2; stroke-opacity:0.1; fill:none" points="220.057,221.743 2352.76,221.743 "/>
<polyline clip-path="url(#clip752)" style="stroke:#000000; stroke-linecap:round; stroke-linejoin:round; stroke-width:2; stroke-opacity:0.05; fill:none" points="220.057,1388.41 2352.76,1388.41 "/>
<polyline clip-path="url(#clip752)" style="stroke:#000000; stroke-linecap:round; stroke-linejoin:round; stroke-width:2; stroke-opacity:0.05; fill:none" points="220.057,1307.53 2352.76,1307.53 "/>
<polyline clip-path="url(#clip752)" style="stroke:#000000; stroke-linecap:round; stroke-linejoin:round; stroke-width:2; stroke-opacity:0.05; fill:none" points="220.057,1241.45 2352.76,1241.45 "/>
<polyline clip-path="url(#clip752)" style="stroke:#000000; stroke-linecap:round; stroke-linejoin:round; stroke-width:2; stroke-opacity:0.05; fill:none" points="220.057,1185.58 2352.76,1185.58 "/>
<polyline clip-path="url(#clip752)" style="stroke:#000000; stroke-linecap:round; stroke-linejoin:round; stroke-width:2; stroke-opacity:0.05; fill:none" points="220.057,1137.18 2352.76,1137.18 "/>
<polyline clip-path="url(#clip752)" style="stroke:#000000; stroke-linecap:round; stroke-linejoin:round; stroke-width:2; stroke-opacity:0.05; fill:none" points="220.057,1094.49 2352.76,1094.49 "/>
<polyline clip-path="url(#clip752)" style="stroke:#000000; stroke-linecap:round; stroke-linejoin:round; stroke-width:2; stroke-opacity:0.05; fill:none" points="220.057,805.074 2352.76,805.074 "/>
<polyline clip-path="url(#clip752)" style="stroke:#000000; stroke-linecap:round; stroke-linejoin:round; stroke-width:2; stroke-opacity:0.05; fill:none" points="220.057,658.116 2352.76,658.116 "/>
<polyline clip-path="url(#clip752)" style="stroke:#000000; stroke-linecap:round; stroke-linejoin:round; stroke-width:2; stroke-opacity:0.05; fill:none" points="220.057,553.847 2352.76,553.847 "/>
<polyline clip-path="url(#clip752)" style="stroke:#000000; stroke-linecap:round; stroke-linejoin:round; stroke-width:2; stroke-opacity:0.05; fill:none" points="220.057,472.97 2352.76,472.97 "/>
<polyline clip-path="url(#clip752)" style="stroke:#000000; stroke-linecap:round; stroke-linejoin:round; stroke-width:2; stroke-opacity:0.05; fill:none" points="220.057,406.888 2352.76,406.888 "/>
<polyline clip-path="url(#clip752)" style="stroke:#000000; stroke-linecap:round; stroke-linejoin:round; stroke-width:2; stroke-opacity:0.05; fill:none" points="220.057,351.017 2352.76,351.017 "/>
<polyline clip-path="url(#clip752)" style="stroke:#000000; stroke-linecap:round; stroke-linejoin:round; stroke-width:2; stroke-opacity:0.05; fill:none" points="220.057,302.62 2352.76,302.62 "/>
<polyline clip-path="url(#clip752)" style="stroke:#000000; stroke-linecap:round; stroke-linejoin:round; stroke-width:2; stroke-opacity:0.05; fill:none" points="220.057,259.93 2352.76,259.93 "/>
<polyline clip-path="url(#clip750)" style="stroke:#000000; stroke-linecap:round; stroke-linejoin:round; stroke-width:4; stroke-opacity:1; fill:none" points="220.057,1423.18 220.057,123.472 "/>
<polyline clip-path="url(#clip750)" style="stroke:#000000; stroke-linecap:round; stroke-linejoin:round; stroke-width:4; stroke-opacity:1; fill:none" points="220.057,1056.3 238.955,1056.3 "/>
<polyline clip-path="url(#clip750)" style="stroke:#000000; stroke-linecap:round; stroke-linejoin:round; stroke-width:4; stroke-opacity:1; fill:none" points="220.057,221.743 238.955,221.743 "/>
<polyline clip-path="url(#clip750)" style="stroke:#000000; stroke-linecap:round; stroke-linejoin:round; stroke-width:4; stroke-opacity:1; fill:none" points="220.057,1388.41 229.506,1388.41 "/>
<polyline clip-path="url(#clip750)" style="stroke:#000000; stroke-linecap:round; stroke-linejoin:round; stroke-width:4; stroke-opacity:1; fill:none" points="220.057,1307.53 229.506,1307.53 "/>
<polyline clip-path="url(#clip750)" style="stroke:#000000; stroke-linecap:round; stroke-linejoin:round; stroke-width:4; stroke-opacity:1; fill:none" points="220.057,1241.45 229.506,1241.45 "/>
<polyline clip-path="url(#clip750)" style="stroke:#000000; stroke-linecap:round; stroke-linejoin:round; stroke-width:4; stroke-opacity:1; fill:none" points="220.057,1185.58 229.506,1185.58 "/>
<polyline clip-path="url(#clip750)" style="stroke:#000000; stroke-linecap:round; stroke-linejoin:round; stroke-width:4; stroke-opacity:1; fill:none" points="220.057,1137.18 229.506,1137.18 "/>
<polyline clip-path="url(#clip750)" style="stroke:#000000; stroke-linecap:round; stroke-linejoin:round; stroke-width:4; stroke-opacity:1; fill:none" points="220.057,1094.49 229.506,1094.49 "/>
<polyline clip-path="url(#clip750)" style="stroke:#000000; stroke-linecap:round; stroke-linejoin:round; stroke-width:4; stroke-opacity:1; fill:none" points="220.057,805.074 229.506,805.074 "/>
<polyline clip-path="url(#clip750)" style="stroke:#000000; stroke-linecap:round; stroke-linejoin:round; stroke-width:4; stroke-opacity:1; fill:none" points="220.057,658.116 229.506,658.116 "/>
<polyline clip-path="url(#clip750)" style="stroke:#000000; stroke-linecap:round; stroke-linejoin:round; stroke-width:4; stroke-opacity:1; fill:none" points="220.057,553.847 229.506,553.847 "/>
<polyline clip-path="url(#clip750)" style="stroke:#000000; stroke-linecap:round; stroke-linejoin:round; stroke-width:4; stroke-opacity:1; fill:none" points="220.057,472.97 229.506,472.97 "/>
<polyline clip-path="url(#clip750)" style="stroke:#000000; stroke-linecap:round; stroke-linejoin:round; stroke-width:4; stroke-opacity:1; fill:none" points="220.057,406.888 229.506,406.888 "/>
<polyline clip-path="url(#clip750)" style="stroke:#000000; stroke-linecap:round; stroke-linejoin:round; stroke-width:4; stroke-opacity:1; fill:none" points="220.057,351.017 229.506,351.017 "/>
<polyline clip-path="url(#clip750)" style="stroke:#000000; stroke-linecap:round; stroke-linejoin:round; stroke-width:4; stroke-opacity:1; fill:none" points="220.057,302.62 229.506,302.62 "/>
<polyline clip-path="url(#clip750)" style="stroke:#000000; stroke-linecap:round; stroke-linejoin:round; stroke-width:4; stroke-opacity:1; fill:none" points="220.057,259.93 229.506,259.93 "/>
<path clip-path="url(#clip750)" d="M116.041 1076.09 L123.68 1076.09 L123.68 1049.73 L115.37 1051.39 L115.37 1047.14 L123.634 1045.47 L128.31 1045.47 L128.31 1076.09 L135.948 1076.09 L135.948 1080.03 L116.041 1080.03 L116.041 1076.09 Z" fill="#000000" fill-rule="nonzero" fill-opacity="1" /><path clip-path="url(#clip750)" d="M155.393 1048.55 Q151.782 1048.55 149.953 1052.11 Q148.147 1055.65 148.147 1062.78 Q148.147 1069.89 149.953 1073.45 Q151.782 1077 155.393 1077 Q159.027 1077 160.833 1073.45 Q162.661 1069.89 162.661 1062.78 Q162.661 1055.65 160.833 1052.11 Q159.027 1048.55 155.393 1048.55 M155.393 1044.84 Q161.203 1044.84 164.258 1049.45 Q167.337 1054.03 167.337 1062.78 Q167.337 1071.51 164.258 1076.12 Q161.203 1080.7 155.393 1080.7 Q149.583 1080.7 146.504 1076.12 Q143.448 1071.51 143.448 1062.78 Q143.448 1054.03 146.504 1049.45 Q149.583 1044.84 155.393 1044.84 Z" fill="#000000" fill-rule="nonzero" fill-opacity="1" /><path clip-path="url(#clip750)" d="M167.883 1049.42 L174.089 1049.42 L174.089 1028 L167.337 1029.35 L167.337 1025.89 L174.052 1024.54 L177.851 1024.54 L177.851 1049.42 L184.057 1049.42 L184.057 1052.62 L167.883 1052.62 L167.883 1049.42 Z" fill="#000000" fill-rule="nonzero" fill-opacity="1" /><path clip-path="url(#clip750)" d="M114.931 241.535 L122.57 241.535 L122.57 215.17 L114.26 216.836 L114.26 212.577 L122.524 210.91 L127.2 210.91 L127.2 241.535 L134.839 241.535 L134.839 245.47 L114.931 245.47 L114.931 241.535 Z" fill="#000000" fill-rule="nonzero" fill-opacity="1" /><path clip-path="url(#clip750)" d="M154.283 213.989 Q150.672 213.989 148.843 217.554 Q147.038 221.096 147.038 228.225 Q147.038 235.332 148.843 238.896 Q150.672 242.438 154.283 242.438 Q157.917 242.438 159.723 238.896 Q161.552 235.332 161.552 228.225 Q161.552 221.096 159.723 217.554 Q157.917 213.989 154.283 213.989 M154.283 210.285 Q160.093 210.285 163.149 214.892 Q166.227 219.475 166.227 228.225 Q166.227 236.952 163.149 241.558 Q160.093 246.142 154.283 246.142 Q148.473 246.142 145.394 241.558 Q142.339 236.952 142.339 228.225 Q142.339 219.475 145.394 214.892 Q148.473 210.285 154.283 210.285 Z" fill="#000000" fill-rule="nonzero" fill-opacity="1" /><path clip-path="url(#clip750)" d="M170.798 214.863 L184.057 214.863 L184.057 218.06 L166.227 218.06 L166.227 214.863 Q168.39 212.625 172.114 208.863 Q175.857 205.083 176.816 203.992 Q178.641 201.942 179.355 200.531 Q180.089 199.102 180.089 197.729 Q180.089 195.491 178.509 194.08 Q176.948 192.669 174.428 192.669 Q172.641 192.669 170.647 193.29 Q168.672 193.911 166.416 195.171 L166.416 191.334 Q168.71 190.413 170.704 189.942 Q172.697 189.472 174.352 189.472 Q178.716 189.472 181.311 191.654 Q183.907 193.836 183.907 197.484 Q183.907 199.215 183.249 200.776 Q182.609 202.318 180.898 204.424 Q180.427 204.97 177.907 207.584 Q175.387 210.18 170.798 214.863 Z" fill="#000000" fill-rule="nonzero" fill-opacity="1" /><path clip-path="url(#clip750)" d="M16.4842 874.557 L16.4842 864.976 L48.8219 852.85 L16.4842 840.659 L16.4842 831.079 L64.0042 831.079 L64.0042 837.349 L22.277 837.349 L54.8694 849.603 L54.8694 856.064 L22.277 868.318 L64.0042 868.318 L64.0042 874.557 L16.4842 874.557 Z" fill="#000000" fill-rule="nonzero" fill-opacity="1" /><path clip-path="url(#clip750)" d="M41.7242 795.781 Q42.4244 793.712 44.7161 791.771 Q47.0077 789.797 51.0181 787.824 L64.0042 781.299 L64.0042 788.206 L51.8138 794.285 Q47.0395 796.64 45.48 798.868 Q43.9204 801.065 43.9204 804.884 L43.9204 811.886 L64.0042 811.886 L64.0042 818.316 L16.4842 818.316 L16.4842 803.802 Q16.4842 795.654 19.8898 791.643 Q23.2955 787.633 30.1704 787.633 Q34.6582 787.633 37.6183 789.734 Q40.5784 791.802 41.7242 795.781 M21.7677 811.886 L38.6368 811.886 L38.6368 803.802 Q38.6368 799.155 36.5043 796.8 Q34.34 794.412 30.1704 794.412 Q26.0009 794.412 23.9002 796.8 Q21.7677 799.155 21.7677 803.802 L21.7677 811.886 Z" fill="#000000" fill-rule="nonzero" fill-opacity="1" /><path clip-path="url(#clip750)" d="M22.818 759.783 L46.4666 768.504 L46.4666 751.03 L22.818 759.783 M16.4842 763.411 L16.4842 756.123 L64.0042 738.012 L64.0042 744.696 L51.8138 749.025 L51.8138 770.446 L64.0042 774.774 L64.0042 781.554 L16.4842 763.411 Z" fill="#000000" fill-rule="nonzero" fill-opacity="1" /><path clip-path="url(#clip750)" d="M16.4842 731.074 L16.4842 701.027 L21.895 701.027 L21.895 724.644 L35.9632 724.644 L35.9632 702.014 L41.3741 702.014 L41.3741 724.644 L58.5933 724.644 L58.5933 700.455 L64.0042 700.455 L64.0042 731.074 L16.4842 731.074 Z" fill="#000000" fill-rule="nonzero" fill-opacity="1" /><path clip-path="url(#clip750)" d="M14.479 672.095 L19.3487 672.095 L19.3487 677.697 Q19.3487 680.848 20.6219 682.089 Q21.895 683.299 25.2052 683.299 L28.3562 683.299 L28.3562 673.655 L32.9077 673.655 L32.9077 683.299 L64.0042 683.299 L64.0042 689.187 L32.9077 689.187 L32.9077 694.789 L28.3562 694.789 L28.3562 689.187 L25.8736 689.187 Q19.9216 689.187 17.2162 686.418 Q14.479 683.649 14.479 677.633 L14.479 672.095 Z" fill="#000000" fill-rule="nonzero" fill-opacity="1" /><path clip-path="url(#clip750)" d="M664.35 43.6931 L664.35 65.8515 L677.475 65.8515 Q684.078 65.8515 687.237 63.1374 Q690.438 60.3828 690.438 54.752 Q690.438 49.0808 687.237 46.4072 Q684.078 43.6931 677.475 43.6931 L664.35 43.6931 M664.35 18.8205 L664.35 37.0496 L676.462 37.0496 Q682.457 37.0496 685.374 34.8216 Q688.331 32.5531 688.331 27.935 Q688.331 23.3575 685.374 21.089 Q682.457 18.8205 676.462 18.8205 L664.35 18.8205 M656.167 12.096 L677.07 12.096 Q686.427 12.096 691.491 15.9849 Q696.554 19.8737 696.554 27.0438 Q696.554 32.5936 693.962 35.8748 Q691.369 39.156 686.346 39.9662 Q692.382 41.2625 695.704 45.3944 Q699.066 49.4858 699.066 55.6432 Q699.066 63.745 693.557 68.1605 Q688.048 72.576 677.88 72.576 L656.167 72.576 L656.167 12.096 Z" fill="#000000" fill-rule="nonzero" fill-opacity="1" /><path clip-path="url(#clip750)" d="M751.566 48.0275 L751.566 51.6733 L717.295 51.6733 Q717.781 59.3701 721.913 63.421 Q726.085 67.4314 733.499 67.4314 Q737.793 67.4314 741.803 66.3781 Q745.854 65.3249 749.824 63.2184 L749.824 70.267 Q745.813 71.9684 741.6 72.8596 Q737.388 73.7508 733.053 73.7508 Q722.197 73.7508 715.837 67.4314 Q709.517 61.1119 709.517 50.3365 Q709.517 39.1965 715.513 32.6746 Q721.548 26.1121 731.757 26.1121 Q740.912 26.1121 746.218 32.0264 Q751.566 37.9003 751.566 48.0275 M744.112 45.84 Q744.031 39.7232 740.669 36.0774 Q737.347 32.4315 731.838 32.4315 Q725.599 32.4315 721.832 35.9558 Q718.105 39.4801 717.538 45.8805 L744.112 45.84 Z" fill="#000000" fill-rule="nonzero" fill-opacity="1" /><path clip-path="url(#clip750)" d="M801.513 45.1919 L801.513 72.576 L794.06 72.576 L794.06 45.4349 Q794.06 38.994 791.548 35.7938 Q789.037 32.5936 784.013 32.5936 Q777.978 32.5936 774.494 36.4419 Q771.01 40.2903 771.01 46.9338 L771.01 72.576 L763.516 72.576 L763.516 9.54393 L771.01 9.54393 L771.01 34.2544 Q773.684 30.163 777.289 28.1376 Q780.935 26.1121 785.674 26.1121 Q793.493 26.1121 797.503 30.9732 Q801.513 35.7938 801.513 45.1919 Z" fill="#000000" fill-rule="nonzero" fill-opacity="1" /><path clip-path="url(#clip750)" d="M836.999 49.7694 Q827.966 49.7694 824.482 51.8354 Q820.998 53.9013 820.998 58.8839 Q820.998 62.8538 823.591 65.2034 Q826.224 67.5124 830.72 67.5124 Q836.918 67.5124 840.645 63.1374 Q844.412 58.7219 844.412 51.4303 L844.412 49.7694 L836.999 49.7694 M851.866 46.6907 L851.866 72.576 L844.412 72.576 L844.412 65.6895 Q841.86 69.8214 838.052 71.8063 Q834.245 73.7508 828.735 73.7508 Q821.768 73.7508 817.636 69.8619 Q813.545 65.9325 813.545 59.3701 Q813.545 51.7138 818.649 47.825 Q823.793 43.9361 833.961 43.9361 L844.412 43.9361 L844.412 43.2069 Q844.412 38.0623 841.01 35.2672 Q837.647 32.4315 831.531 32.4315 Q827.642 32.4315 823.955 33.3632 Q820.269 34.295 816.866 36.1584 L816.866 29.2718 Q820.958 27.692 824.806 26.9223 Q828.654 26.1121 832.3 26.1121 Q842.144 26.1121 847.005 31.2163 Q851.866 36.3204 851.866 46.6907 Z" fill="#000000" fill-rule="nonzero" fill-opacity="1" /><path clip-path="url(#clip750)" d="M861.872 27.2059 L869.771 27.2059 L883.949 65.2844 L898.127 27.2059 L906.027 27.2059 L889.013 72.576 L878.886 72.576 L861.872 27.2059 Z" fill="#000000" fill-rule="nonzero" fill-opacity="1" /><path clip-path="url(#clip750)" d="M916.316 27.2059 L923.77 27.2059 L923.77 72.576 L916.316 72.576 L916.316 27.2059 M916.316 9.54393 L923.77 9.54393 L923.77 18.9825 L916.316 18.9825 L916.316 9.54393 Z" fill="#000000" fill-rule="nonzero" fill-opacity="1" /><path clip-path="url(#clip750)" d="M956.947 32.4315 Q950.951 32.4315 947.467 37.1306 Q943.984 41.7891 943.984 49.9314 Q943.984 58.0738 947.427 62.7728 Q950.911 67.4314 956.947 67.4314 Q962.901 67.4314 966.385 62.7323 Q969.869 58.0333 969.869 49.9314 Q969.869 41.8701 966.385 37.1711 Q962.901 32.4315 956.947 32.4315 M956.947 26.1121 Q966.669 26.1121 972.218 32.4315 Q977.768 38.7509 977.768 49.9314 Q977.768 61.0714 972.218 67.4314 Q966.669 73.7508 956.947 73.7508 Q947.184 73.7508 941.634 67.4314 Q936.125 61.0714 936.125 49.9314 Q936.125 38.7509 941.634 32.4315 Q947.184 26.1121 956.947 26.1121 Z" fill="#000000" fill-rule="nonzero" fill-opacity="1" /><path clip-path="url(#clip750)" d="M989.354 54.671 L989.354 27.2059 L996.807 27.2059 L996.807 54.3874 Q996.807 60.8284 999.319 64.0691 Q1001.83 67.2693 1006.85 67.2693 Q1012.89 67.2693 1016.37 63.421 Q1019.9 59.5726 1019.9 52.9291 L1019.9 27.2059 L1027.35 27.2059 L1027.35 72.576 L1019.9 72.576 L1019.9 65.6084 Q1017.18 69.7404 1013.58 71.7658 Q1010.01 73.7508 1005.27 73.7508 Q997.456 73.7508 993.405 68.8897 Q989.354 64.0286 989.354 54.671 M1008.11 26.1121 L1008.11 26.1121 Z" fill="#000000" fill-rule="nonzero" fill-opacity="1" /><path clip-path="url(#clip750)" d="M1068.99 34.1734 Q1067.74 33.4443 1066.24 33.1202 Q1064.78 32.7556 1063 32.7556 Q1056.68 32.7556 1053.28 36.8875 Q1049.91 40.9789 1049.91 48.6757 L1049.91 72.576 L1042.42 72.576 L1042.42 27.2059 L1049.91 27.2059 L1049.91 34.2544 Q1052.26 30.1225 1056.03 28.1376 Q1059.8 26.1121 1065.19 26.1121 Q1065.96 26.1121 1066.89 26.2337 Q1067.82 26.3147 1068.95 26.5172 L1068.99 34.1734 Z" fill="#000000" fill-rule="nonzero" fill-opacity="1" /><path clip-path="url(#clip750)" d="M1097.43 49.7694 Q1088.4 49.7694 1084.91 51.8354 Q1081.43 53.9013 1081.43 58.8839 Q1081.43 62.8538 1084.02 65.2034 Q1086.66 67.5124 1091.15 67.5124 Q1097.35 67.5124 1101.08 63.1374 Q1104.85 58.7219 1104.85 51.4303 L1104.85 49.7694 L1097.43 49.7694 M1112.3 46.6907 L1112.3 72.576 L1104.85 72.576 L1104.85 65.6895 Q1102.29 69.8214 1098.49 71.8063 Q1094.68 73.7508 1089.17 73.7508 Q1082.2 73.7508 1078.07 69.8619 Q1073.98 65.9325 1073.98 59.3701 Q1073.98 51.7138 1079.08 47.825 Q1084.23 43.9361 1094.39 43.9361 L1104.85 43.9361 L1104.85 43.2069 Q1104.85 38.0623 1101.44 35.2672 Q1098.08 32.4315 1091.96 32.4315 Q1088.07 32.4315 1084.39 33.3632 Q1080.7 34.295 1077.3 36.1584 L1077.3 29.2718 Q1081.39 27.692 1085.24 26.9223 Q1089.09 26.1121 1092.73 26.1121 Q1102.58 26.1121 1107.44 31.2163 Q1112.3 36.3204 1112.3 46.6907 Z" fill="#000000" fill-rule="nonzero" fill-opacity="1" /><path clip-path="url(#clip750)" d="M1127.65 9.54393 L1135.11 9.54393 L1135.11 72.576 L1127.65 72.576 L1127.65 9.54393 Z" fill="#000000" fill-rule="nonzero" fill-opacity="1" /><path clip-path="url(#clip750)" d="M1152.61 62.2867 L1161.15 62.2867 L1161.15 72.576 L1152.61 72.576 L1152.61 62.2867 M1152.61 29.6769 L1161.15 29.6769 L1161.15 39.9662 L1152.61 39.9662 L1152.61 29.6769 Z" fill="#000000" fill-rule="nonzero" fill-opacity="1" /><path clip-path="url(#clip750)" d="M1205.35 12.096 L1217.54 12.096 L1232.98 53.2532 L1248.49 12.096 L1260.68 12.096 L1260.68 72.576 L1252.7 72.576 L1252.7 19.4686 L1237.11 60.9499 L1228.88 60.9499 L1213.29 19.4686 L1213.29 72.576 L1205.35 72.576 L1205.35 12.096 Z" fill="#000000" fill-rule="nonzero" fill-opacity="1" /><path clip-path="url(#clip750)" d="M1305.61 44.2197 Q1308.24 45.1109 1310.71 48.0275 Q1313.22 50.9442 1315.74 56.0483 L1324.04 72.576 L1315.25 72.576 L1307.51 57.061 Q1304.51 50.9847 1301.68 48.9997 Q1298.88 47.0148 1294.02 47.0148 L1285.11 47.0148 L1285.11 72.576 L1276.93 72.576 L1276.93 12.096 L1295.4 12.096 Q1305.77 12.096 1310.87 16.4305 Q1315.98 20.7649 1315.98 29.5149 Q1315.98 35.2267 1313.3 38.994 Q1310.67 42.7613 1305.61 44.2197 M1285.11 18.8205 L1285.11 40.2903 L1295.4 40.2903 Q1301.31 40.2903 1304.31 37.5762 Q1307.35 34.8216 1307.35 29.5149 Q1307.35 24.2082 1304.31 21.5346 Q1301.31 18.8205 1295.4 18.8205 L1285.11 18.8205 Z" fill="#000000" fill-rule="nonzero" fill-opacity="1" /><path clip-path="url(#clip750)" d="M1351.42 20.1573 L1340.32 50.2555 L1362.56 50.2555 L1351.42 20.1573 M1346.81 12.096 L1356.08 12.096 L1379.13 72.576 L1370.62 72.576 L1365.12 57.061 L1337.85 57.061 L1332.34 72.576 L1323.72 72.576 L1346.81 12.096 Z" fill="#000000" fill-rule="nonzero" fill-opacity="1" /><path clip-path="url(#clip750)" d="M1387.96 12.096 L1426.2 12.096 L1426.2 18.9825 L1396.15 18.9825 L1396.15 36.8875 L1424.95 36.8875 L1424.95 43.7741 L1396.15 43.7741 L1396.15 65.6895 L1426.93 65.6895 L1426.93 72.576 L1387.96 72.576 L1387.96 12.096 Z" fill="#000000" fill-rule="nonzero" fill-opacity="1" /><path clip-path="url(#clip750)" d="M1463.03 9.54393 L1463.03 15.7418 L1455.9 15.7418 Q1451.89 15.7418 1450.31 17.3622 Q1448.77 18.9825 1448.77 23.1955 L1448.77 27.2059 L1461.04 27.2059 L1461.04 32.9987 L1448.77 32.9987 L1448.77 72.576 L1441.27 72.576 L1441.27 32.9987 L1434.14 32.9987 L1434.14 27.2059 L1441.27 27.2059 L1441.27 24.0462 Q1441.27 16.471 1444.8 13.0277 Q1448.32 9.54393 1455.98 9.54393 L1463.03 9.54393 Z" fill="#000000" fill-rule="nonzero" fill-opacity="1" /><path clip-path="url(#clip750)" d="M1490.29 27.2059 L1498.19 27.2059 L1512.37 65.2844 L1526.54 27.2059 L1534.44 27.2059 L1517.43 72.576 L1507.3 72.576 L1490.29 27.2059 Z" fill="#000000" fill-rule="nonzero" fill-opacity="1" /><path clip-path="url(#clip750)" d="M1573.66 28.5427 L1573.66 35.5912 Q1570.5 33.9709 1567.09 33.1607 Q1563.69 32.3505 1560.05 32.3505 Q1554.5 32.3505 1551.7 34.0519 Q1548.95 35.7533 1548.95 39.156 Q1548.95 41.7486 1550.93 43.2475 Q1552.92 44.7058 1558.91 46.0426 L1561.46 46.6097 Q1569.4 48.3111 1572.72 51.4303 Q1576.09 54.509 1576.09 60.0587 Q1576.09 66.3781 1571.06 70.0644 Q1566.08 73.7508 1557.33 73.7508 Q1553.69 73.7508 1549.72 73.0216 Q1545.79 72.3329 1541.41 70.9151 L1541.41 63.2184 Q1545.54 65.3654 1549.55 66.4591 Q1553.56 67.5124 1557.49 67.5124 Q1562.76 67.5124 1565.59 65.73 Q1568.43 63.9071 1568.43 60.6258 Q1568.43 57.5877 1566.36 55.9673 Q1564.34 54.3469 1557.41 52.8481 L1554.82 52.2405 Q1547.89 50.7821 1544.81 47.7845 Q1541.74 44.7463 1541.74 39.4801 Q1541.74 33.0797 1546.27 29.5959 Q1550.81 26.1121 1559.15 26.1121 Q1563.29 26.1121 1566.93 26.7198 Q1570.58 27.3274 1573.66 28.5427 Z" fill="#000000" fill-rule="nonzero" fill-opacity="1" /><path clip-path="url(#clip750)" d="M1614.65 12.096 L1622.83 12.096 L1622.83 36.8875 L1652.57 36.8875 L1652.57 12.096 L1660.75 12.096 L1660.75 72.576 L1652.57 72.576 L1652.57 43.7741 L1622.83 43.7741 L1622.83 72.576 L1614.65 72.576 L1614.65 12.096 Z" fill="#000000" fill-rule="nonzero" fill-opacity="1" /><path clip-path="url(#clip750)" d="M1694.29 32.4315 Q1688.3 32.4315 1684.81 37.1306 Q1681.33 41.7891 1681.33 49.9314 Q1681.33 58.0738 1684.77 62.7728 Q1688.26 67.4314 1694.29 67.4314 Q1700.25 67.4314 1703.73 62.7323 Q1707.21 58.0333 1707.21 49.9314 Q1707.21 41.8701 1703.73 37.1711 Q1700.25 32.4315 1694.29 32.4315 M1694.29 26.1121 Q1704.01 26.1121 1709.56 32.4315 Q1715.11 38.7509 1715.11 49.9314 Q1715.11 61.0714 1709.56 67.4314 Q1704.01 73.7508 1694.29 73.7508 Q1684.53 73.7508 1678.98 67.4314 Q1673.47 61.0714 1673.47 49.9314 Q1673.47 38.7509 1678.98 32.4315 Q1684.53 26.1121 1694.29 26.1121 Z" fill="#000000" fill-rule="nonzero" fill-opacity="1" /><path clip-path="url(#clip750)" d="M1753.76 34.1734 Q1752.5 33.4443 1751 33.1202 Q1749.55 32.7556 1747.76 32.7556 Q1741.44 32.7556 1738.04 36.8875 Q1734.68 40.9789 1734.68 48.6757 L1734.68 72.576 L1727.19 72.576 L1727.19 27.2059 L1734.68 27.2059 L1734.68 34.2544 Q1737.03 30.1225 1740.8 28.1376 Q1744.56 26.1121 1749.95 26.1121 Q1750.72 26.1121 1751.65 26.2337 Q1752.58 26.3147 1753.72 26.5172 L1753.76 34.1734 Z" fill="#000000" fill-rule="nonzero" fill-opacity="1" /><path clip-path="url(#clip750)" d="M1761.58 27.2059 L1769.03 27.2059 L1769.03 72.576 L1761.58 72.576 L1761.58 27.2059 M1761.58 9.54393 L1769.03 9.54393 L1769.03 18.9825 L1761.58 18.9825 L1761.58 9.54393 Z" fill="#000000" fill-rule="nonzero" fill-opacity="1" /><path clip-path="url(#clip750)" d="M1781.39 27.2059 L1816.79 27.2059 L1816.79 34.0114 L1788.76 66.6212 L1816.79 66.6212 L1816.79 72.576 L1780.37 72.576 L1780.37 65.7705 L1808.41 33.1607 L1781.39 33.1607 L1781.39 27.2059 Z" fill="#000000" fill-rule="nonzero" fill-opacity="1" /><path clip-path="url(#clip750)" d="M1845.76 32.4315 Q1839.76 32.4315 1836.28 37.1306 Q1832.79 41.7891 1832.79 49.9314 Q1832.79 58.0738 1836.24 62.7728 Q1839.72 67.4314 1845.76 67.4314 Q1851.71 67.4314 1855.19 62.7323 Q1858.68 58.0333 1858.68 49.9314 Q1858.68 41.8701 1855.19 37.1711 Q1851.71 32.4315 1845.76 32.4315 M1845.76 26.1121 Q1855.48 26.1121 1861.03 32.4315 Q1866.58 38.7509 1866.58 49.9314 Q1866.58 61.0714 1861.03 67.4314 Q1855.48 73.7508 1845.76 73.7508 Q1835.99 73.7508 1830.44 67.4314 Q1824.93 61.0714 1824.93 49.9314 Q1824.93 38.7509 1830.44 32.4315 Q1835.99 26.1121 1845.76 26.1121 Z" fill="#000000" fill-rule="nonzero" fill-opacity="1" /><path clip-path="url(#clip750)" d="M1916.65 45.1919 L1916.65 72.576 L1909.19 72.576 L1909.19 45.4349 Q1909.19 38.994 1906.68 35.7938 Q1904.17 32.5936 1899.15 32.5936 Q1893.11 32.5936 1889.63 36.4419 Q1886.14 40.2903 1886.14 46.9338 L1886.14 72.576 L1878.65 72.576 L1878.65 27.2059 L1886.14 27.2059 L1886.14 34.2544 Q1888.82 30.163 1892.42 28.1376 Q1896.07 26.1121 1900.81 26.1121 Q1908.63 26.1121 1912.64 30.9732 Q1916.65 35.7938 1916.65 45.1919 Z" fill="#000000" fill-rule="nonzero" fill-opacity="1" /><circle clip-path="url(#clip752)" cx="280.417" cy="1386.4" r="14.4" fill="#009af9" fill-rule="evenodd" fill-opacity="1" stroke="#000000" stroke-opacity="1" stroke-width="3.2"/>
<circle clip-path="url(#clip752)" cx="406.165" cy="1167.98" r="14.4" fill="#009af9" fill-rule="evenodd" fill-opacity="1" stroke="#000000" stroke-opacity="1" stroke-width="3.2"/>
<circle clip-path="url(#clip752)" cx="615.747" cy="989.956" r="14.4" fill="#009af9" fill-rule="evenodd" fill-opacity="1" stroke="#000000" stroke-opacity="1" stroke-width="3.2"/>
<circle clip-path="url(#clip752)" cx="825.328" cy="742.315" r="14.4" fill="#009af9" fill-rule="evenodd" fill-opacity="1" stroke="#000000" stroke-opacity="1" stroke-width="3.2"/>
<circle clip-path="url(#clip752)" cx="1034.91" cy="499.109" r="14.4" fill="#009af9" fill-rule="evenodd" fill-opacity="1" stroke="#000000" stroke-opacity="1" stroke-width="3.2"/>
<circle clip-path="url(#clip752)" cx="1244.49" cy="535.445" r="14.4" fill="#009af9" fill-rule="evenodd" fill-opacity="1" stroke="#000000" stroke-opacity="1" stroke-width="3.2"/>
<circle clip-path="url(#clip752)" cx="1454.07" cy="1049.2" r="14.4" fill="#009af9" fill-rule="evenodd" fill-opacity="1" stroke="#000000" stroke-opacity="1" stroke-width="3.2"/>
<circle clip-path="url(#clip752)" cx="1663.65" cy="678.445" r="14.4" fill="#009af9" fill-rule="evenodd" fill-opacity="1" stroke="#000000" stroke-opacity="1" stroke-width="3.2"/>
<circle clip-path="url(#clip752)" cx="1873.23" cy="518.139" r="14.4" fill="#009af9" fill-rule="evenodd" fill-opacity="1" stroke="#000000" stroke-opacity="1" stroke-width="3.2"/>
<circle clip-path="url(#clip752)" cx="2082.82" cy="385.136" r="14.4" fill="#009af9" fill-rule="evenodd" fill-opacity="1" stroke="#000000" stroke-opacity="1" stroke-width="3.2"/>
<circle clip-path="url(#clip752)" cx="2292.4" cy="160.256" r="14.4" fill="#009af9" fill-rule="evenodd" fill-opacity="1" stroke="#000000" stroke-opacity="1" stroke-width="3.2"/>
<circle clip-path="url(#clip752)" cx="280.417" cy="1189.26" r="14.4" fill="#e26f46" fill-rule="evenodd" fill-opacity="1" stroke="#000000" stroke-opacity="1" stroke-width="3.2"/>
<circle clip-path="url(#clip752)" cx="406.165" cy="605.505" r="14.4" fill="#e26f46" fill-rule="evenodd" fill-opacity="1" stroke="#000000" stroke-opacity="1" stroke-width="3.2"/>
<circle clip-path="url(#clip752)" cx="615.747" cy="949.161" r="14.4" fill="#e26f46" fill-rule="evenodd" fill-opacity="1" stroke="#000000" stroke-opacity="1" stroke-width="3.2"/>
<circle clip-path="url(#clip752)" cx="825.328" cy="709.295" r="14.4" fill="#e26f46" fill-rule="evenodd" fill-opacity="1" stroke="#000000" stroke-opacity="1" stroke-width="3.2"/>
<circle clip-path="url(#clip752)" cx="1034.91" cy="1159.26" r="14.4" fill="#e26f46" fill-rule="evenodd" fill-opacity="1" stroke="#000000" stroke-opacity="1" stroke-width="3.2"/>
<circle clip-path="url(#clip752)" cx="1244.49" cy="1027.98" r="14.4" fill="#e26f46" fill-rule="evenodd" fill-opacity="1" stroke="#000000" stroke-opacity="1" stroke-width="3.2"/>
<circle clip-path="url(#clip752)" cx="1454.07" cy="1024.73" r="14.4" fill="#e26f46" fill-rule="evenodd" fill-opacity="1" stroke="#000000" stroke-opacity="1" stroke-width="3.2"/>
<circle clip-path="url(#clip752)" cx="1663.65" cy="1021.71" r="14.4" fill="#e26f46" fill-rule="evenodd" fill-opacity="1" stroke="#000000" stroke-opacity="1" stroke-width="3.2"/>
<circle clip-path="url(#clip752)" cx="1873.23" cy="663.622" r="14.4" fill="#e26f46" fill-rule="evenodd" fill-opacity="1" stroke="#000000" stroke-opacity="1" stroke-width="3.2"/>
<circle clip-path="url(#clip752)" cx="2082.82" cy="324.551" r="14.4" fill="#e26f46" fill-rule="evenodd" fill-opacity="1" stroke="#000000" stroke-opacity="1" stroke-width="3.2"/>
<circle clip-path="url(#clip752)" cx="2292.4" cy="338.303" r="14.4" fill="#e26f46" fill-rule="evenodd" fill-opacity="1" stroke="#000000" stroke-opacity="1" stroke-width="3.2"/>
<path clip-path="url(#clip750)" d="M291.147 322.316 L840.827 322.316 L840.827 166.796 L291.147 166.796  Z" fill="#ffffff" fill-rule="evenodd" fill-opacity="1"/>
<polyline clip-path="url(#clip750)" style="stroke:#000000; stroke-linecap:round; stroke-linejoin:round; stroke-width:4; stroke-opacity:1; fill:none" points="291.147,322.316 840.827,322.316 840.827,166.796 291.147,166.796 291.147,322.316 "/>
<circle clip-path="url(#clip750)" cx="385.934" cy="218.636" r="20.48" fill="#009af9" fill-rule="evenodd" fill-opacity="1" stroke="#000000" stroke-opacity="1" stroke-width="4.55111"/>
<path clip-path="url(#clip750)" d="M488.128 202.629 L488.128 209.99 L496.901 209.99 L496.901 213.3 L488.128 213.3 L488.128 227.374 Q488.128 230.545 488.984 231.448 Q489.864 232.351 492.526 232.351 L496.901 232.351 L496.901 235.916 L492.526 235.916 Q487.595 235.916 485.72 234.087 Q483.845 232.235 483.845 227.374 L483.845 213.3 L480.72 213.3 L480.72 209.99 L483.845 209.99 L483.845 202.629 L488.128 202.629 Z" fill="#000000" fill-rule="nonzero" fill-opacity="1" /><path clip-path="url(#clip750)" d="M517.526 213.971 Q516.808 213.555 515.952 213.37 Q515.118 213.161 514.1 213.161 Q510.489 213.161 508.544 215.522 Q506.623 217.86 506.623 222.258 L506.623 235.916 L502.341 235.916 L502.341 209.99 L506.623 209.99 L506.623 214.018 Q507.966 211.657 510.118 210.522 Q512.271 209.365 515.35 209.365 Q515.79 209.365 516.322 209.434 Q516.854 209.481 517.503 209.596 L517.526 213.971 Z" fill="#000000" fill-rule="nonzero" fill-opacity="1" /><path clip-path="url(#clip750)" d="M533.776 222.883 Q528.614 222.883 526.623 224.064 Q524.632 225.244 524.632 228.092 Q524.632 230.36 526.114 231.703 Q527.618 233.022 530.188 233.022 Q533.729 233.022 535.859 230.522 Q538.012 227.999 538.012 223.832 L538.012 222.883 L533.776 222.883 M542.271 221.124 L542.271 235.916 L538.012 235.916 L538.012 231.981 Q536.553 234.342 534.378 235.476 Q532.202 236.587 529.053 236.587 Q525.072 236.587 522.711 234.365 Q520.373 232.119 520.373 228.369 Q520.373 223.994 523.29 221.772 Q526.229 219.55 532.04 219.55 L538.012 219.55 L538.012 219.133 Q538.012 216.194 536.067 214.596 Q534.146 212.976 530.651 212.976 Q528.428 212.976 526.322 213.508 Q524.216 214.041 522.271 215.106 L522.271 211.17 Q524.609 210.268 526.808 209.828 Q529.007 209.365 531.091 209.365 Q536.715 209.365 539.493 212.282 Q542.271 215.198 542.271 221.124 Z" fill="#000000" fill-rule="nonzero" fill-opacity="1" /><path clip-path="url(#clip750)" d="M551.044 209.99 L555.303 209.99 L555.303 235.916 L551.044 235.916 L551.044 209.99 M551.044 199.897 L555.303 199.897 L555.303 205.291 L551.044 205.291 L551.044 199.897 Z" fill="#000000" fill-rule="nonzero" fill-opacity="1" /><path clip-path="url(#clip750)" d="M585.766 220.268 L585.766 235.916 L581.507 235.916 L581.507 220.407 Q581.507 216.726 580.072 214.897 Q578.637 213.069 575.766 213.069 Q572.317 213.069 570.326 215.268 Q568.336 217.467 568.336 221.263 L568.336 235.916 L564.053 235.916 L564.053 209.99 L568.336 209.99 L568.336 214.018 Q569.863 211.68 571.924 210.522 Q574.007 209.365 576.715 209.365 Q581.183 209.365 583.474 212.143 Q585.766 214.897 585.766 220.268 Z" fill="#000000" fill-rule="nonzero" fill-opacity="1" /><path clip-path="url(#clip750)" d="M594.261 209.99 L598.521 209.99 L598.521 235.916 L594.261 235.916 L594.261 209.99 M594.261 199.897 L598.521 199.897 L598.521 205.291 L594.261 205.291 L594.261 199.897 Z" fill="#000000" fill-rule="nonzero" fill-opacity="1" /><path clip-path="url(#clip750)" d="M628.984 220.268 L628.984 235.916 L624.724 235.916 L624.724 220.407 Q624.724 216.726 623.289 214.897 Q621.854 213.069 618.984 213.069 Q615.535 213.069 613.544 215.268 Q611.553 217.467 611.553 221.263 L611.553 235.916 L607.271 235.916 L607.271 209.99 L611.553 209.99 L611.553 214.018 Q613.081 211.68 615.141 210.522 Q617.224 209.365 619.933 209.365 Q624.4 209.365 626.692 212.143 Q628.984 214.897 628.984 220.268 Z" fill="#000000" fill-rule="nonzero" fill-opacity="1" /><path clip-path="url(#clip750)" d="M654.539 222.652 Q654.539 218.022 652.618 215.476 Q650.719 212.93 647.27 212.93 Q643.845 212.93 641.923 215.476 Q640.025 218.022 640.025 222.652 Q640.025 227.258 641.923 229.805 Q643.845 232.351 647.27 232.351 Q650.719 232.351 652.618 229.805 Q654.539 227.258 654.539 222.652 M658.798 232.698 Q658.798 239.318 655.858 242.536 Q652.919 245.777 646.854 245.777 Q644.608 245.777 642.618 245.43 Q640.627 245.105 638.752 244.411 L638.752 240.268 Q640.627 241.286 642.456 241.772 Q644.284 242.258 646.182 242.258 Q650.372 242.258 652.456 240.059 Q654.539 237.883 654.539 233.462 L654.539 231.356 Q653.219 233.647 651.159 234.781 Q649.099 235.916 646.229 235.916 Q641.46 235.916 638.544 232.281 Q635.627 228.647 635.627 222.652 Q635.627 216.633 638.544 212.999 Q641.46 209.365 646.229 209.365 Q649.099 209.365 651.159 210.499 Q653.219 211.633 654.539 213.925 L654.539 209.99 L658.798 209.99 L658.798 232.698 Z" fill="#000000" fill-rule="nonzero" fill-opacity="1" /><path clip-path="url(#clip750)" d="M680.488 221.032 L692.965 221.032 L692.965 224.828 L680.488 224.828 L680.488 221.032 Z" fill="#000000" fill-rule="nonzero" fill-opacity="1" /><path clip-path="url(#clip750)" d="M729.585 217.282 Q732.941 217.999 734.816 220.268 Q736.714 222.536 736.714 225.869 Q736.714 230.985 733.196 233.786 Q729.677 236.587 723.196 236.587 Q721.02 236.587 718.705 236.147 Q716.414 235.731 713.96 234.874 L713.96 230.36 Q715.904 231.494 718.219 232.073 Q720.534 232.652 723.057 232.652 Q727.455 232.652 729.747 230.916 Q732.062 229.18 732.062 225.869 Q732.062 222.814 729.909 221.101 Q727.779 219.365 723.96 219.365 L719.932 219.365 L719.932 215.522 L724.145 215.522 Q727.594 215.522 729.423 214.157 Q731.251 212.768 731.251 210.175 Q731.251 207.513 729.353 206.101 Q727.478 204.666 723.96 204.666 Q722.039 204.666 719.839 205.083 Q717.64 205.499 715.002 206.379 L715.002 202.212 Q717.664 201.471 719.978 201.101 Q722.316 200.731 724.377 200.731 Q729.701 200.731 732.802 203.161 Q735.904 205.569 735.904 209.689 Q735.904 212.559 734.261 214.55 Q732.617 216.518 729.585 217.282 Z" fill="#000000" fill-rule="nonzero" fill-opacity="1" /><path clip-path="url(#clip750)" d="M755.58 204.434 Q751.969 204.434 750.14 207.999 Q748.335 211.541 748.335 218.67 Q748.335 225.777 750.14 229.342 Q751.969 232.883 755.58 232.883 Q759.214 232.883 761.02 229.342 Q762.849 225.777 762.849 218.67 Q762.849 211.541 761.02 207.999 Q759.214 204.434 755.58 204.434 M755.58 200.731 Q761.39 200.731 764.446 205.337 Q767.524 209.92 767.524 218.67 Q767.524 227.397 764.446 232.004 Q761.39 236.587 755.58 236.587 Q749.77 236.587 746.691 232.004 Q743.636 227.397 743.636 218.67 Q743.636 209.92 746.691 205.337 Q749.77 200.731 755.58 200.731 Z" fill="#000000" fill-rule="nonzero" fill-opacity="1" /><circle clip-path="url(#clip750)" cx="385.934" cy="270.476" r="20.48" fill="#e26f46" fill-rule="evenodd" fill-opacity="1" stroke="#000000" stroke-opacity="1" stroke-width="4.55111"/>
<path clip-path="url(#clip750)" d="M480.72 261.83 L485.234 261.83 L493.336 283.589 L501.438 261.83 L505.952 261.83 L496.23 287.756 L490.443 287.756 L480.72 261.83 Z" fill="#000000" fill-rule="nonzero" fill-opacity="1" /><path clip-path="url(#clip750)" d="M523.614 274.723 Q518.452 274.723 516.461 275.904 Q514.47 277.084 514.47 279.932 Q514.47 282.2 515.952 283.543 Q517.456 284.862 520.026 284.862 Q523.567 284.862 525.697 282.362 Q527.85 279.839 527.85 275.672 L527.85 274.723 L523.614 274.723 M532.109 272.964 L532.109 287.756 L527.85 287.756 L527.85 283.821 Q526.391 286.182 524.216 287.316 Q522.04 288.427 518.891 288.427 Q514.91 288.427 512.549 286.205 Q510.211 283.959 510.211 280.209 Q510.211 275.834 513.128 273.612 Q516.067 271.39 521.878 271.39 L527.85 271.39 L527.85 270.973 Q527.85 268.034 525.905 266.436 Q523.984 264.816 520.489 264.816 Q518.267 264.816 516.16 265.348 Q514.054 265.881 512.109 266.946 L512.109 263.01 Q514.447 262.108 516.646 261.668 Q518.845 261.205 520.929 261.205 Q526.553 261.205 529.331 264.122 Q532.109 267.038 532.109 272.964 Z" fill="#000000" fill-rule="nonzero" fill-opacity="1" /><path clip-path="url(#clip750)" d="M540.882 251.737 L545.141 251.737 L545.141 287.756 L540.882 287.756 L540.882 251.737 Z" fill="#000000" fill-rule="nonzero" fill-opacity="1" /><path clip-path="url(#clip750)" d="M554.053 261.83 L558.313 261.83 L558.313 287.756 L554.053 287.756 L554.053 261.83 M554.053 251.737 L558.313 251.737 L558.313 257.131 L554.053 257.131 L554.053 251.737 Z" fill="#000000" fill-rule="nonzero" fill-opacity="1" /><path clip-path="url(#clip750)" d="M584.285 265.765 L584.285 251.737 L588.544 251.737 L588.544 287.756 L584.285 287.756 L584.285 283.867 Q582.942 286.182 580.882 287.316 Q578.845 288.427 575.975 288.427 Q571.275 288.427 568.313 284.677 Q565.373 280.927 565.373 274.816 Q565.373 268.705 568.313 264.955 Q571.275 261.205 575.975 261.205 Q578.845 261.205 580.882 262.339 Q582.942 263.45 584.285 265.765 M569.771 274.816 Q569.771 279.515 571.692 282.2 Q573.637 284.862 577.016 284.862 Q580.396 284.862 582.34 282.2 Q584.285 279.515 584.285 274.816 Q584.285 270.117 582.34 267.455 Q580.396 264.77 577.016 264.77 Q573.637 264.77 571.692 267.455 Q569.771 270.117 569.771 274.816 Z" fill="#000000" fill-rule="nonzero" fill-opacity="1" /><path clip-path="url(#clip750)" d="M609.099 274.723 Q603.937 274.723 601.947 275.904 Q599.956 277.084 599.956 279.932 Q599.956 282.2 601.437 283.543 Q602.942 284.862 605.511 284.862 Q609.053 284.862 611.183 282.362 Q613.335 279.839 613.335 275.672 L613.335 274.723 L609.099 274.723 M617.595 272.964 L617.595 287.756 L613.335 287.756 L613.335 283.821 Q611.877 286.182 609.701 287.316 Q607.525 288.427 604.377 288.427 Q600.396 288.427 598.035 286.205 Q595.697 283.959 595.697 280.209 Q595.697 275.834 598.613 273.612 Q601.553 271.39 607.363 271.39 L613.335 271.39 L613.335 270.973 Q613.335 268.034 611.391 266.436 Q609.47 264.816 605.974 264.816 Q603.752 264.816 601.646 265.348 Q599.539 265.881 597.595 266.946 L597.595 263.01 Q599.933 262.108 602.132 261.668 Q604.331 261.205 606.414 261.205 Q612.039 261.205 614.817 264.122 Q617.595 267.038 617.595 272.964 Z" fill="#000000" fill-rule="nonzero" fill-opacity="1" /><path clip-path="url(#clip750)" d="M630.581 254.469 L630.581 261.83 L639.354 261.83 L639.354 265.14 L630.581 265.14 L630.581 279.214 Q630.581 282.385 631.437 283.288 Q632.317 284.191 634.979 284.191 L639.354 284.191 L639.354 287.756 L634.979 287.756 Q630.048 287.756 628.173 285.927 Q626.298 284.075 626.298 279.214 L626.298 265.14 L623.173 265.14 L623.173 261.83 L626.298 261.83 L626.298 254.469 L630.581 254.469 Z" fill="#000000" fill-rule="nonzero" fill-opacity="1" /><path clip-path="url(#clip750)" d="M644.956 261.83 L649.215 261.83 L649.215 287.756 L644.956 287.756 L644.956 261.83 M644.956 251.737 L649.215 251.737 L649.215 257.131 L644.956 257.131 L644.956 251.737 Z" fill="#000000" fill-rule="nonzero" fill-opacity="1" /><path clip-path="url(#clip750)" d="M668.173 264.816 Q664.747 264.816 662.756 267.501 Q660.766 270.163 660.766 274.816 Q660.766 279.469 662.733 282.154 Q664.724 284.816 668.173 284.816 Q671.576 284.816 673.567 282.131 Q675.557 279.446 675.557 274.816 Q675.557 270.21 673.567 267.524 Q671.576 264.816 668.173 264.816 M668.173 261.205 Q673.729 261.205 676.9 264.816 Q680.071 268.427 680.071 274.816 Q680.071 281.182 676.9 284.816 Q673.729 288.427 668.173 288.427 Q662.594 288.427 659.423 284.816 Q656.275 281.182 656.275 274.816 Q656.275 268.427 659.423 264.816 Q662.594 261.205 668.173 261.205 Z" fill="#000000" fill-rule="nonzero" fill-opacity="1" /><path clip-path="url(#clip750)" d="M708.682 272.108 L708.682 287.756 L704.423 287.756 L704.423 272.247 Q704.423 268.566 702.988 266.737 Q701.553 264.909 698.682 264.909 Q695.233 264.909 693.242 267.108 Q691.252 269.307 691.252 273.103 L691.252 287.756 L686.969 287.756 L686.969 261.83 L691.252 261.83 L691.252 265.858 Q692.779 263.52 694.84 262.362 Q696.923 261.205 699.631 261.205 Q704.099 261.205 706.39 263.983 Q708.682 266.737 708.682 272.108 Z" fill="#000000" fill-rule="nonzero" fill-opacity="1" /><path clip-path="url(#clip750)" d="M730.094 272.872 L742.571 272.872 L742.571 276.668 L730.094 276.668 L730.094 272.872 Z" fill="#000000" fill-rule="nonzero" fill-opacity="1" /><path clip-path="url(#clip750)" d="M779.191 269.122 Q782.547 269.839 784.422 272.108 Q786.321 274.376 786.321 277.709 Q786.321 282.825 782.802 285.626 Q779.284 288.427 772.802 288.427 Q770.626 288.427 768.311 287.987 Q766.02 287.571 763.566 286.714 L763.566 282.2 Q765.511 283.334 767.825 283.913 Q770.14 284.492 772.663 284.492 Q777.061 284.492 779.353 282.756 Q781.668 281.02 781.668 277.709 Q781.668 274.654 779.515 272.941 Q777.385 271.205 773.566 271.205 L769.538 271.205 L769.538 267.362 L773.751 267.362 Q777.2 267.362 779.029 265.997 Q780.858 264.608 780.858 262.015 Q780.858 259.353 778.96 257.941 Q777.085 256.506 773.566 256.506 Q771.645 256.506 769.446 256.923 Q767.247 257.339 764.608 258.219 L764.608 254.052 Q767.27 253.311 769.585 252.941 Q771.923 252.571 773.983 252.571 Q779.307 252.571 782.409 255.001 Q785.51 257.409 785.51 261.529 Q785.51 264.399 783.867 266.39 Q782.223 268.358 779.191 269.122 Z" fill="#000000" fill-rule="nonzero" fill-opacity="1" /><path clip-path="url(#clip750)" d="M805.186 256.274 Q801.575 256.274 799.746 259.839 Q797.941 263.381 797.941 270.51 Q797.941 277.617 799.746 281.182 Q801.575 284.723 805.186 284.723 Q808.821 284.723 810.626 281.182 Q812.455 277.617 812.455 270.51 Q812.455 263.381 810.626 259.839 Q808.821 256.274 805.186 256.274 M805.186 252.571 Q810.996 252.571 814.052 257.177 Q817.131 261.76 817.131 270.51 Q817.131 279.237 814.052 283.844 Q810.996 288.427 805.186 288.427 Q799.376 288.427 796.297 283.844 Q793.242 279.237 793.242 270.51 Q793.242 261.76 796.297 257.177 Q799.376 252.571 805.186 252.571 Z" fill="#000000" fill-rule="nonzero" fill-opacity="1" /></svg>
