<?xml version="1.0" encoding="utf-8"?>
<svg xmlns="http://www.w3.org/2000/svg" xmlns:xlink="http://www.w3.org/1999/xlink" width="600" height="400" viewBox="0 0 2400 1600">
<defs>
  <clipPath id="clip510">
    <rect x="0" y="0" width="2400" height="1600"/>
  </clipPath>
</defs>
<path clip-path="url(#clip510)" d="M0 1600 L2400 1600 L2400 0 L0 0  Z" fill="#ffffff" fill-rule="evenodd" fill-opacity="1"/>
<defs>
  <clipPath id="clip511">
    <rect x="480" y="0" width="1681" height="1600"/>
  </clipPath>
</defs>
<path clip-path="url(#clip510)" d="M247.945 1423.18 L2352.76 1423.18 L2352.76 123.472 L247.945 123.472  Z" fill="#ffffff" fill-rule="evenodd" fill-opacity="1"/>
<defs>
  <clipPath id="clip512">
    <rect x="247" y="123" width="2106" height="1301"/>
  </clipPath>
</defs>
<polyline clip-path="url(#clip512)" style="stroke:#000000; stroke-linecap:round; stroke-linejoin:round; stroke-width:2; stroke-opacity:0.1; fill:none" points="520.265,1423.18 520.265,123.472 "/>
<polyline clip-path="url(#clip512)" style="stroke:#000000; stroke-linecap:round; stroke-linejoin:round; stroke-width:2; stroke-opacity:0.1; fill:none" points="874.849,1423.18 874.849,123.472 "/>
<polyline clip-path="url(#clip512)" style="stroke:#000000; stroke-linecap:round; stroke-linejoin:round; stroke-width:2; stroke-opacity:0.1; fill:none" points="1229.43,1423.18 1229.43,123.472 "/>
<polyline clip-path="url(#clip512)" style="stroke:#000000; stroke-linecap:round; stroke-linejoin:round; stroke-width:2; stroke-opacity:0.1; fill:none" points="1584.02,1423.18 1584.02,123.472 "/>
<polyline clip-path="url(#clip512)" style="stroke:#000000; stroke-linecap:round; stroke-linejoin:round; stroke-width:2; stroke-opacity:0.1; fill:none" points="1938.6,1423.18 1938.6,123.472 "/>
<polyline clip-path="url(#clip512)" style="stroke:#000000; stroke-linecap:round; stroke-linejoin:round; stroke-width:2; stroke-opacity:0.1; fill:none" points="2293.19,1423.18 2293.19,123.472 "/>
<polyline clip-path="url(#clip510)" style="stroke:#000000; stroke-linecap:round; stroke-linejoin:round; stroke-width:4; stroke-opacity:1; fill:none" points="247.945,1423.18 2352.76,1423.18 "/>
<polyline clip-path="url(#clip510)" style="stroke:#000000; stroke-linecap:round; stroke-linejoin:round; stroke-width:4; stroke-opacity:1; fill:none" points="520.265,1423.18 520.265,1404.28 "/>
<polyline clip-path="url(#clip510)" style="stroke:#000000; stroke-linecap:round; stroke-linejoin:round; stroke-width:4; stroke-opacity:1; fill:none" points="874.849,1423.18 874.849,1404.28 "/>
<polyline clip-path="url(#clip510)" style="stroke:#000000; stroke-linecap:round; stroke-linejoin:round; stroke-width:4; stroke-opacity:1; fill:none" points="1229.43,1423.18 1229.43,1404.28 "/>
<polyline clip-path="url(#clip510)" style="stroke:#000000; stroke-linecap:round; stroke-linejoin:round; stroke-width:4; stroke-opacity:1; fill:none" points="1584.02,1423.18 1584.02,1404.28 "/>
<polyline clip-path="url(#clip510)" style="stroke:#000000; stroke-linecap:round; stroke-linejoin:round; stroke-width:4; stroke-opacity:1; fill:none" points="1938.6,1423.18 1938.6,1404.28 "/>
<polyline clip-path="url(#clip510)" style="stroke:#000000; stroke-linecap:round; stroke-linejoin:round; stroke-width:4; stroke-opacity:1; fill:none" points="2293.19,1423.18 2293.19,1404.28 "/>
<path clip-path="url(#clip510)" d="M510.543 1451.02 L528.9 1451.02 L528.9 1454.96 L514.826 1454.96 L514.826 1463.43 Q515.844 1463.08 516.863 1462.92 Q517.881 1462.73 518.9 1462.73 Q524.687 1462.73 528.066 1465.9 Q531.446 1469.08 531.446 1474.49 Q531.446 1480.07 527.974 1483.17 Q524.501 1486.25 518.182 1486.25 Q516.006 1486.25 513.738 1485.88 Q511.492 1485.51 509.085 1484.77 L509.085 1480.07 Q511.168 1481.2 513.39 1481.76 Q515.613 1482.32 518.089 1482.32 Q522.094 1482.32 524.432 1480.21 Q526.77 1478.1 526.77 1474.49 Q526.77 1470.88 524.432 1468.77 Q522.094 1466.67 518.089 1466.67 Q516.214 1466.67 514.339 1467.08 Q512.488 1467.5 510.543 1468.38 L510.543 1451.02 Z" fill="#000000" fill-rule="nonzero" fill-opacity="1" /><path clip-path="url(#clip510)" d="M849.537 1481.64 L857.176 1481.64 L857.176 1455.28 L848.866 1456.95 L848.866 1452.69 L857.13 1451.02 L861.806 1451.02 L861.806 1481.64 L869.444 1481.64 L869.444 1485.58 L849.537 1485.58 L849.537 1481.64 Z" fill="#000000" fill-rule="nonzero" fill-opacity="1" /><path clip-path="url(#clip510)" d="M888.889 1454.1 Q885.278 1454.1 883.449 1457.66 Q881.643 1461.2 881.643 1468.33 Q881.643 1475.44 883.449 1479.01 Q885.278 1482.55 888.889 1482.55 Q892.523 1482.55 894.329 1479.01 Q896.157 1475.44 896.157 1468.33 Q896.157 1461.2 894.329 1457.66 Q892.523 1454.1 888.889 1454.1 M888.889 1450.39 Q894.699 1450.39 897.754 1455 Q900.833 1459.58 900.833 1468.33 Q900.833 1477.06 897.754 1481.67 Q894.699 1486.25 888.889 1486.25 Q883.079 1486.25 880 1481.67 Q876.944 1477.06 876.944 1468.33 Q876.944 1459.58 880 1455 Q883.079 1450.39 888.889 1450.39 Z" fill="#000000" fill-rule="nonzero" fill-opacity="1" /><path clip-path="url(#clip510)" d="M1204.62 1481.64 L1212.26 1481.64 L1212.26 1455.28 L1203.95 1456.95 L1203.95 1452.69 L1212.21 1451.02 L1216.89 1451.02 L1216.89 1481.64 L1224.53 1481.64 L1224.53 1485.58 L1204.62 1485.58 L1204.62 1481.64 Z" fill="#000000" fill-rule="nonzero" fill-opacity="1" /><path clip-path="url(#clip510)" d="M1234.02 1451.02 L1252.37 1451.02 L1252.37 1454.96 L1238.3 1454.96 L1238.3 1463.43 Q1239.32 1463.08 1240.34 1462.92 Q1241.35 1462.73 1242.37 1462.73 Q1248.16 1462.73 1251.54 1465.9 Q1254.92 1469.08 1254.92 1474.49 Q1254.92 1480.07 1251.45 1483.17 Q1247.98 1486.25 1241.66 1486.25 Q1239.48 1486.25 1237.21 1485.88 Q1234.97 1485.51 1232.56 1484.77 L1232.56 1480.07 Q1234.64 1481.2 1236.86 1481.76 Q1239.09 1482.32 1241.56 1482.32 Q1245.57 1482.32 1247.91 1480.21 Q1250.24 1478.1 1250.24 1474.49 Q1250.24 1470.88 1247.91 1468.77 Q1245.57 1466.67 1241.56 1466.67 Q1239.69 1466.67 1237.81 1467.08 Q1235.96 1467.5 1234.02 1468.38 L1234.02 1451.02 Z" fill="#000000" fill-rule="nonzero" fill-opacity="1" /><path clip-path="url(#clip510)" d="M1562.79 1481.64 L1579.11 1481.64 L1579.11 1485.58 L1557.17 1485.58 L1557.17 1481.64 Q1559.83 1478.89 1564.41 1474.26 Q1569.02 1469.61 1570.2 1468.27 Q1572.44 1465.74 1573.32 1464.01 Q1574.23 1462.25 1574.23 1460.56 Q1574.23 1457.8 1572.28 1456.07 Q1570.36 1454.33 1567.26 1454.33 Q1565.06 1454.33 1562.61 1455.09 Q1560.18 1455.86 1557.4 1457.41 L1557.4 1452.69 Q1560.22 1451.55 1562.68 1450.97 Q1565.13 1450.39 1567.17 1450.39 Q1572.54 1450.39 1575.73 1453.08 Q1578.93 1455.77 1578.93 1460.26 Q1578.93 1462.39 1578.11 1464.31 Q1577.33 1466.2 1575.22 1468.8 Q1574.64 1469.47 1571.54 1472.69 Q1568.44 1475.88 1562.79 1481.64 Z" fill="#000000" fill-rule="nonzero" fill-opacity="1" /><path clip-path="url(#clip510)" d="M1598.92 1454.1 Q1595.31 1454.1 1593.49 1457.66 Q1591.68 1461.2 1591.68 1468.33 Q1591.68 1475.44 1593.49 1479.01 Q1595.31 1482.55 1598.92 1482.55 Q1602.56 1482.55 1604.36 1479.01 Q1606.19 1475.44 1606.19 1468.33 Q1606.19 1461.2 1604.36 1457.66 Q1602.56 1454.1 1598.92 1454.1 M1598.92 1450.39 Q1604.74 1450.39 1607.79 1455 Q1610.87 1459.58 1610.87 1468.33 Q1610.87 1477.06 1607.79 1481.67 Q1604.74 1486.25 1598.92 1486.25 Q1593.11 1486.25 1590.04 1481.67 Q1586.98 1477.06 1586.98 1468.33 Q1586.98 1459.58 1590.04 1455 Q1593.11 1450.39 1598.92 1450.39 Z" fill="#000000" fill-rule="nonzero" fill-opacity="1" /><path clip-path="url(#clip510)" d="M1917.87 1481.64 L1934.19 1481.64 L1934.19 1485.58 L1912.25 1485.58 L1912.25 1481.64 Q1914.91 1478.89 1919.49 1474.26 Q1924.1 1469.61 1925.28 1468.27 Q1927.53 1465.74 1928.4 1464.01 Q1929.31 1462.25 1929.31 1460.56 Q1929.31 1457.8 1927.36 1456.07 Q1925.44 1454.33 1922.34 1454.33 Q1920.14 1454.33 1917.69 1455.09 Q1915.26 1455.86 1912.48 1457.41 L1912.48 1452.69 Q1915.3 1451.55 1917.76 1450.97 Q1920.21 1450.39 1922.25 1450.39 Q1927.62 1450.39 1930.81 1453.08 Q1934.01 1455.77 1934.01 1460.26 Q1934.01 1462.39 1933.2 1464.31 Q1932.41 1466.2 1930.3 1468.8 Q1929.72 1469.47 1926.62 1472.69 Q1923.52 1475.88 1917.87 1481.64 Z" fill="#000000" fill-rule="nonzero" fill-opacity="1" /><path clip-path="url(#clip510)" d="M1944.05 1451.02 L1962.41 1451.02 L1962.41 1454.96 L1948.34 1454.96 L1948.34 1463.43 Q1949.35 1463.08 1950.37 1462.92 Q1951.39 1462.73 1952.41 1462.73 Q1958.2 1462.73 1961.58 1465.9 Q1964.96 1469.08 1964.96 1474.49 Q1964.96 1480.07 1961.48 1483.17 Q1958.01 1486.25 1951.69 1486.25 Q1949.52 1486.25 1947.25 1485.88 Q1945 1485.51 1942.59 1484.77 L1942.59 1480.07 Q1944.68 1481.2 1946.9 1481.76 Q1949.12 1482.32 1951.6 1482.32 Q1955.6 1482.32 1957.94 1480.21 Q1960.28 1478.1 1960.28 1474.49 Q1960.28 1470.88 1957.94 1468.77 Q1955.6 1466.67 1951.6 1466.67 Q1949.72 1466.67 1947.85 1467.08 Q1946 1467.5 1944.05 1468.38 L1944.05 1451.02 Z" fill="#000000" fill-rule="nonzero" fill-opacity="1" /><path clip-path="url(#clip510)" d="M2282.03 1466.95 Q2285.38 1467.66 2287.26 1469.93 Q2289.16 1472.2 2289.16 1475.53 Q2289.16 1480.65 2285.64 1483.45 Q2282.12 1486.25 2275.64 1486.25 Q2273.46 1486.25 2271.15 1485.81 Q2268.86 1485.39 2266.4 1484.54 L2266.4 1480.02 Q2268.35 1481.16 2270.66 1481.74 Q2272.98 1482.32 2275.5 1482.32 Q2279.9 1482.32 2282.19 1480.58 Q2284.51 1478.84 2284.51 1475.53 Q2284.51 1472.48 2282.35 1470.77 Q2280.22 1469.03 2276.4 1469.03 L2272.38 1469.03 L2272.38 1465.19 L2276.59 1465.19 Q2280.04 1465.19 2281.87 1463.82 Q2283.7 1462.43 2283.7 1459.84 Q2283.7 1457.18 2281.8 1455.77 Q2279.92 1454.33 2276.4 1454.33 Q2274.48 1454.33 2272.28 1454.75 Q2270.08 1455.16 2267.45 1456.04 L2267.45 1451.88 Q2270.11 1451.14 2272.42 1450.77 Q2274.76 1450.39 2276.82 1450.39 Q2282.14 1450.39 2285.25 1452.83 Q2288.35 1455.23 2288.35 1459.35 Q2288.35 1462.22 2286.7 1464.21 Q2285.06 1466.18 2282.03 1466.95 Z" fill="#000000" fill-rule="nonzero" fill-opacity="1" /><path clip-path="url(#clip510)" d="M2308.02 1454.1 Q2304.41 1454.1 2302.58 1457.66 Q2300.78 1461.2 2300.78 1468.33 Q2300.78 1475.44 2302.58 1479.01 Q2304.41 1482.55 2308.02 1482.55 Q2311.66 1482.55 2313.46 1479.01 Q2315.29 1475.44 2315.29 1468.33 Q2315.29 1461.2 2313.46 1457.66 Q2311.66 1454.1 2308.02 1454.1 M2308.02 1450.39 Q2313.83 1450.39 2316.89 1455 Q2319.97 1459.58 2319.97 1468.33 Q2319.97 1477.06 2316.89 1481.67 Q2313.83 1486.25 2308.02 1486.25 Q2302.21 1486.25 2299.13 1481.67 Q2296.08 1477.06 2296.08 1468.33 Q2296.08 1459.58 2299.13 1455 Q2302.21 1450.39 2308.02 1450.39 Z" fill="#000000" fill-rule="nonzero" fill-opacity="1" /><path clip-path="url(#clip510)" d="M1215.18 1546.53 L1215.18 1568.04 L1209.32 1568.04 L1209.32 1546.72 Q1209.32 1541.66 1207.35 1539.14 Q1205.37 1536.63 1201.43 1536.63 Q1196.68 1536.63 1193.95 1539.65 Q1191.21 1542.68 1191.21 1547.9 L1191.21 1568.04 L1185.32 1568.04 L1185.32 1518.52 L1191.21 1518.52 L1191.21 1537.93 Q1193.31 1534.72 1196.14 1533.13 Q1199.01 1531.54 1202.73 1531.54 Q1208.88 1531.54 1212.03 1535.36 Q1215.18 1539.14 1215.18 1546.53 Z" fill="#000000" fill-rule="nonzero" fill-opacity="1" /><path clip-path="url(#clip510)" d="M1240.67 1536.5 Q1235.96 1536.5 1233.22 1540.19 Q1230.49 1543.85 1230.49 1550.25 Q1230.49 1556.65 1233.19 1560.34 Q1235.93 1564 1240.67 1564 Q1245.35 1564 1248.09 1560.31 Q1250.83 1556.62 1250.83 1550.25 Q1250.83 1543.92 1248.09 1540.23 Q1245.35 1536.5 1240.67 1536.5 M1240.67 1531.54 Q1248.31 1531.54 1252.67 1536.5 Q1257.03 1541.47 1257.03 1550.25 Q1257.03 1559 1252.67 1564 Q1248.31 1568.97 1240.67 1568.97 Q1233 1568.97 1228.64 1564 Q1224.31 1559 1224.31 1550.25 Q1224.31 1541.47 1228.64 1536.5 Q1233 1531.54 1240.67 1531.54 Z" fill="#000000" fill-rule="nonzero" fill-opacity="1" /><path clip-path="url(#clip510)" d="M1287.4 1537.87 Q1286.41 1537.3 1285.23 1537.04 Q1284.09 1536.76 1282.69 1536.76 Q1277.72 1536.76 1275.05 1540 Q1272.4 1543.22 1272.4 1549.27 L1272.4 1568.04 L1266.52 1568.04 L1266.52 1532.4 L1272.4 1532.4 L1272.4 1537.93 Q1274.25 1534.69 1277.21 1533.13 Q1280.17 1531.54 1284.4 1531.54 Q1285.01 1531.54 1285.74 1531.63 Q1286.47 1531.7 1287.36 1531.85 L1287.4 1537.87 Z" fill="#000000" fill-rule="nonzero" fill-opacity="1" /><path clip-path="url(#clip510)" d="M1293.54 1532.4 L1299.4 1532.4 L1299.4 1568.04 L1293.54 1568.04 L1293.54 1532.4 M1293.54 1518.52 L1299.4 1518.52 L1299.4 1525.93 L1293.54 1525.93 L1293.54 1518.52 Z" fill="#000000" fill-rule="nonzero" fill-opacity="1" /><path clip-path="url(#clip510)" d="M1309.1 1532.4 L1336.92 1532.4 L1336.92 1537.74 L1314.9 1563.37 L1336.92 1563.37 L1336.92 1568.04 L1308.31 1568.04 L1308.31 1562.7 L1330.33 1537.07 L1309.1 1537.07 L1309.1 1532.4 Z" fill="#000000" fill-rule="nonzero" fill-opacity="1" /><path clip-path="url(#clip510)" d="M1359.68 1536.5 Q1354.97 1536.5 1352.23 1540.19 Q1349.49 1543.85 1349.49 1550.25 Q1349.49 1556.65 1352.2 1560.34 Q1354.94 1564 1359.68 1564 Q1364.36 1564 1367.09 1560.31 Q1369.83 1556.62 1369.83 1550.25 Q1369.83 1543.92 1367.09 1540.23 Q1364.36 1536.5 1359.68 1536.5 M1359.68 1531.54 Q1367.32 1531.54 1371.68 1536.5 Q1376.04 1541.47 1376.04 1550.25 Q1376.04 1559 1371.68 1564 Q1367.32 1568.97 1359.68 1568.97 Q1352.01 1568.97 1347.65 1564 Q1343.32 1559 1343.32 1550.25 Q1343.32 1541.47 1347.65 1536.5 Q1352.01 1531.54 1359.68 1531.54 Z" fill="#000000" fill-rule="nonzero" fill-opacity="1" /><path clip-path="url(#clip510)" d="M1415.38 1546.53 L1415.38 1568.04 L1409.52 1568.04 L1409.52 1546.72 Q1409.52 1541.66 1407.55 1539.14 Q1405.58 1536.63 1401.63 1536.63 Q1396.89 1536.63 1394.15 1539.65 Q1391.41 1542.68 1391.41 1547.9 L1391.41 1568.04 L1385.52 1568.04 L1385.52 1532.4 L1391.41 1532.4 L1391.41 1537.93 Q1393.51 1534.72 1396.35 1533.13 Q1399.21 1531.54 1402.93 1531.54 Q1409.08 1531.54 1412.23 1535.36 Q1415.38 1539.14 1415.38 1546.53 Z" fill="#000000" fill-rule="nonzero" fill-opacity="1" /><polyline clip-path="url(#clip512)" style="stroke:#000000; stroke-linecap:round; stroke-linejoin:round; stroke-width:2; stroke-opacity:0.1; fill:none" points="247.945,1336.63 2352.76,1336.63 "/>
<polyline clip-path="url(#clip512)" style="stroke:#000000; stroke-linecap:round; stroke-linejoin:round; stroke-width:2; stroke-opacity:0.1; fill:none" points="247.945,993.056 2352.76,993.056 "/>
<polyline clip-path="url(#clip512)" style="stroke:#000000; stroke-linecap:round; stroke-linejoin:round; stroke-width:2; stroke-opacity:0.1; fill:none" points="247.945,649.486 2352.76,649.486 "/>
<polyline clip-path="url(#clip512)" style="stroke:#000000; stroke-linecap:round; stroke-linejoin:round; stroke-width:2; stroke-opacity:0.1; fill:none" points="247.945,305.916 2352.76,305.916 "/>
<polyline clip-path="url(#clip510)" style="stroke:#000000; stroke-linecap:round; stroke-linejoin:round; stroke-width:4; stroke-opacity:1; fill:none" points="247.945,1423.18 247.945,123.472 "/>
<polyline clip-path="url(#clip510)" style="stroke:#000000; stroke-linecap:round; stroke-linejoin:round; stroke-width:4; stroke-opacity:1; fill:none" points="247.945,1336.63 266.842,1336.63 "/>
<polyline clip-path="url(#clip510)" style="stroke:#000000; stroke-linecap:round; stroke-linejoin:round; stroke-width:4; stroke-opacity:1; fill:none" points="247.945,993.056 266.842,993.056 "/>
<polyline clip-path="url(#clip510)" style="stroke:#000000; stroke-linecap:round; stroke-linejoin:round; stroke-width:4; stroke-opacity:1; fill:none" points="247.945,649.486 266.842,649.486 "/>
<polyline clip-path="url(#clip510)" style="stroke:#000000; stroke-linecap:round; stroke-linejoin:round; stroke-width:4; stroke-opacity:1; fill:none" points="247.945,305.916 266.842,305.916 "/>
<path clip-path="url(#clip510)" d="M114.931 1349.97 L122.57 1349.97 L122.57 1323.6 L114.26 1325.27 L114.26 1321.01 L122.524 1319.35 L127.2 1319.35 L127.2 1349.97 L134.839 1349.97 L134.839 1353.91 L114.931 1353.91 L114.931 1349.97 Z" fill="#000000" fill-rule="nonzero" fill-opacity="1" /><path clip-path="url(#clip510)" d="M144.283 1348.03 L149.167 1348.03 L149.167 1353.91 L144.283 1353.91 L144.283 1348.03 Z" fill="#000000" fill-rule="nonzero" fill-opacity="1" /><path clip-path="url(#clip510)" d="M169.352 1322.42 Q165.741 1322.42 163.913 1325.99 Q162.107 1329.53 162.107 1336.66 Q162.107 1343.77 163.913 1347.33 Q165.741 1350.87 169.352 1350.87 Q172.987 1350.87 174.792 1347.33 Q176.621 1343.77 176.621 1336.66 Q176.621 1329.53 174.792 1325.99 Q172.987 1322.42 169.352 1322.42 M169.352 1318.72 Q175.163 1318.72 178.218 1323.33 Q181.297 1327.91 181.297 1336.66 Q181.297 1345.39 178.218 1349.99 Q175.163 1354.58 169.352 1354.58 Q163.542 1354.58 160.464 1349.99 Q157.408 1345.39 157.408 1336.66 Q157.408 1327.91 160.464 1323.33 Q163.542 1318.72 169.352 1318.72 Z" fill="#000000" fill-rule="nonzero" fill-opacity="1" /><path clip-path="url(#clip510)" d="M202.362 1323.42 L190.556 1341.87 L202.362 1341.87 L202.362 1323.42 M201.135 1319.35 L207.014 1319.35 L207.014 1341.87 L211.945 1341.87 L211.945 1345.76 L207.014 1345.76 L207.014 1353.91 L202.362 1353.91 L202.362 1345.76 L186.76 1345.76 L186.76 1341.24 L201.135 1319.35 Z" fill="#000000" fill-rule="nonzero" fill-opacity="1" /><path clip-path="url(#clip510)" d="M115.256 1006.4 L122.894 1006.4 L122.894 980.035 L114.584 981.702 L114.584 977.443 L122.848 975.776 L127.524 975.776 L127.524 1006.4 L135.163 1006.4 L135.163 1010.34 L115.256 1010.34 L115.256 1006.4 Z" fill="#000000" fill-rule="nonzero" fill-opacity="1" /><path clip-path="url(#clip510)" d="M144.607 1004.46 L149.491 1004.46 L149.491 1010.34 L144.607 1010.34 L144.607 1004.46 Z" fill="#000000" fill-rule="nonzero" fill-opacity="1" /><path clip-path="url(#clip510)" d="M169.677 978.855 Q166.065 978.855 164.237 982.419 Q162.431 985.961 162.431 993.091 Q162.431 1000.2 164.237 1003.76 Q166.065 1007.3 169.677 1007.3 Q173.311 1007.3 175.116 1003.76 Q176.945 1000.2 176.945 993.091 Q176.945 985.961 175.116 982.419 Q173.311 978.855 169.677 978.855 M169.677 975.151 Q175.487 975.151 178.542 979.757 Q181.621 984.341 181.621 993.091 Q181.621 1001.82 178.542 1006.42 Q175.487 1011.01 169.677 1011.01 Q163.866 1011.01 160.788 1006.42 Q157.732 1001.82 157.732 993.091 Q157.732 984.341 160.788 979.757 Q163.866 975.151 169.677 975.151 Z" fill="#000000" fill-rule="nonzero" fill-opacity="1" /><path clip-path="url(#clip510)" d="M200.417 991.193 Q197.269 991.193 195.417 993.345 Q193.588 995.498 193.588 999.248 Q193.588 1002.97 195.417 1005.15 Q197.269 1007.3 200.417 1007.3 Q203.565 1007.3 205.394 1005.15 Q207.246 1002.97 207.246 999.248 Q207.246 995.498 205.394 993.345 Q203.565 991.193 200.417 991.193 M209.699 976.54 L209.699 980.799 Q207.94 979.966 206.135 979.526 Q204.352 979.086 202.593 979.086 Q197.963 979.086 195.51 982.211 Q193.079 985.336 192.732 991.656 Q194.098 989.642 196.158 988.577 Q198.218 987.489 200.695 987.489 Q205.903 987.489 208.912 990.66 Q211.945 993.808 211.945 999.248 Q211.945 1004.57 208.797 1007.79 Q205.649 1011.01 200.417 1011.01 Q194.422 1011.01 191.25 1006.42 Q188.079 1001.82 188.079 993.091 Q188.079 984.896 191.968 980.035 Q195.857 975.151 202.408 975.151 Q204.167 975.151 205.949 975.498 Q207.755 975.845 209.699 976.54 Z" fill="#000000" fill-rule="nonzero" fill-opacity="1" /><path clip-path="url(#clip510)" d="M115.51 662.831 L123.149 662.831 L123.149 636.465 L114.839 638.132 L114.839 633.873 L123.103 632.206 L127.779 632.206 L127.779 662.831 L135.417 662.831 L135.417 666.766 L115.51 666.766 L115.51 662.831 Z" fill="#000000" fill-rule="nonzero" fill-opacity="1" /><path clip-path="url(#clip510)" d="M144.862 660.887 L149.746 660.887 L149.746 666.766 L144.862 666.766 L144.862 660.887 Z" fill="#000000" fill-rule="nonzero" fill-opacity="1" /><path clip-path="url(#clip510)" d="M169.931 635.285 Q166.32 635.285 164.491 638.85 Q162.686 642.391 162.686 649.521 Q162.686 656.627 164.491 660.192 Q166.32 663.734 169.931 663.734 Q173.565 663.734 175.371 660.192 Q177.2 656.627 177.2 649.521 Q177.2 642.391 175.371 638.85 Q173.565 635.285 169.931 635.285 M169.931 631.581 Q175.741 631.581 178.797 636.188 Q181.876 640.771 181.876 649.521 Q181.876 658.248 178.797 662.854 Q175.741 667.438 169.931 667.438 Q164.121 667.438 161.042 662.854 Q157.987 658.248 157.987 649.521 Q157.987 640.771 161.042 636.188 Q164.121 631.581 169.931 631.581 Z" fill="#000000" fill-rule="nonzero" fill-opacity="1" /><path clip-path="url(#clip510)" d="M200.093 650.354 Q196.76 650.354 194.838 652.137 Q192.94 653.919 192.94 657.044 Q192.94 660.169 194.838 661.951 Q196.76 663.734 200.093 663.734 Q203.426 663.734 205.348 661.951 Q207.269 660.146 207.269 657.044 Q207.269 653.919 205.348 652.137 Q203.449 650.354 200.093 650.354 M195.417 648.364 Q192.408 647.623 190.718 645.563 Q189.051 643.502 189.051 640.54 Q189.051 636.396 191.991 633.989 Q194.954 631.581 200.093 631.581 Q205.255 631.581 208.195 633.989 Q211.135 636.396 211.135 640.54 Q211.135 643.502 209.445 645.563 Q207.778 647.623 204.792 648.364 Q208.172 649.151 210.047 651.442 Q211.945 653.734 211.945 657.044 Q211.945 662.067 208.866 664.752 Q205.811 667.438 200.093 667.438 Q194.375 667.438 191.297 664.752 Q188.241 662.067 188.241 657.044 Q188.241 653.734 190.139 651.442 Q192.038 649.151 195.417 648.364 M193.704 640.979 Q193.704 643.664 195.371 645.169 Q197.061 646.674 200.093 646.674 Q203.102 646.674 204.792 645.169 Q206.505 643.664 206.505 640.979 Q206.505 638.294 204.792 636.79 Q203.102 635.285 200.093 635.285 Q197.061 635.285 195.371 636.79 Q193.704 638.294 193.704 640.979 Z" fill="#000000" fill-rule="nonzero" fill-opacity="1" /><path clip-path="url(#clip510)" d="M115.418 319.261 L123.056 319.261 L123.056 292.896 L114.746 294.562 L114.746 290.303 L123.01 288.636 L127.686 288.636 L127.686 319.261 L135.325 319.261 L135.325 323.196 L115.418 323.196 L115.418 319.261 Z" fill="#000000" fill-rule="nonzero" fill-opacity="1" /><path clip-path="url(#clip510)" d="M144.769 317.317 L149.653 317.317 L149.653 323.196 L144.769 323.196 L144.769 317.317 Z" fill="#000000" fill-rule="nonzero" fill-opacity="1" /><path clip-path="url(#clip510)" d="M160.649 319.261 L168.288 319.261 L168.288 292.896 L159.978 294.562 L159.978 290.303 L168.241 288.636 L172.917 288.636 L172.917 319.261 L180.556 319.261 L180.556 323.196 L160.649 323.196 L160.649 319.261 Z" fill="#000000" fill-rule="nonzero" fill-opacity="1" /><path clip-path="url(#clip510)" d="M200 291.715 Q196.389 291.715 194.561 295.28 Q192.755 298.822 192.755 305.951 Q192.755 313.058 194.561 316.622 Q196.389 320.164 200 320.164 Q203.635 320.164 205.44 316.622 Q207.269 313.058 207.269 305.951 Q207.269 298.822 205.44 295.28 Q203.635 291.715 200 291.715 M200 288.011 Q205.811 288.011 208.866 292.618 Q211.945 297.201 211.945 305.951 Q211.945 314.678 208.866 319.284 Q205.811 323.868 200 323.868 Q194.19 323.868 191.112 319.284 Q188.056 314.678 188.056 305.951 Q188.056 297.201 191.112 292.618 Q194.19 288.011 200 288.011 Z" fill="#000000" fill-rule="nonzero" fill-opacity="1" /><path clip-path="url(#clip510)" d="M16.4842 874.557 L16.4842 864.976 L48.8219 852.85 L16.4842 840.659 L16.4842 831.079 L64.0042 831.079 L64.0042 837.349 L22.277 837.349 L54.8694 849.603 L54.8694 856.064 L22.277 868.318 L64.0042 868.318 L64.0042 874.557 L16.4842 874.557 Z" fill="#000000" fill-rule="nonzero" fill-opacity="1" /><path clip-path="url(#clip510)" d="M41.7242 795.781 Q42.4244 793.712 44.7161 791.771 Q47.0077 789.797 51.0181 787.824 L64.0042 781.299 L64.0042 788.206 L51.8138 794.285 Q47.0395 796.64 45.48 798.868 Q43.9204 801.065 43.9204 804.884 L43.9204 811.886 L64.0042 811.886 L64.0042 818.316 L16.4842 818.316 L16.4842 803.802 Q16.4842 795.654 19.8898 791.643 Q23.2955 787.633 30.1704 787.633 Q34.6582 787.633 37.6183 789.734 Q40.5784 791.802 41.7242 795.781 M21.7677 811.886 L38.6368 811.886 L38.6368 803.802 Q38.6368 799.155 36.5043 796.8 Q34.34 794.412 30.1704 794.412 Q26.0009 794.412 23.9002 796.8 Q21.7677 799.155 21.7677 803.802 L21.7677 811.886 Z" fill="#000000" fill-rule="nonzero" fill-opacity="1" /><path clip-path="url(#clip510)" d="M22.818 759.783 L46.4666 768.504 L46.4666 751.03 L22.818 759.783 M16.4842 763.411 L16.4842 756.123 L64.0042 738.012 L64.0042 744.696 L51.8138 749.025 L51.8138 770.446 L64.0042 774.774 L64.0042 781.554 L16.4842 763.411 Z" fill="#000000" fill-rule="nonzero" fill-opacity="1" /><path clip-path="url(#clip510)" d="M16.4842 731.074 L16.4842 701.027 L21.895 701.027 L21.895 724.644 L35.9632 724.644 L35.9632 702.014 L41.3741 702.014 L41.3741 724.644 L58.5933 724.644 L58.5933 700.455 L64.0042 700.455 L64.0042 731.074 L16.4842 731.074 Z" fill="#000000" fill-rule="nonzero" fill-opacity="1" /><path clip-path="url(#clip510)" d="M14.479 672.095 L19.3487 672.095 L19.3487 677.697 Q19.3487 680.848 20.6219 682.089 Q21.895 683.299 25.2052 683.299 L28.3562 683.299 L28.3562 673.655 L32.9077 673.655 L32.9077 683.299 L64.0042 683.299 L64.0042 689.187 L32.9077 689.187 L32.9077 694.789 L28.3562 694.789 L28.3562 689.187 L25.8736 689.187 Q19.9216 689.187 17.2162 686.418 Q14.479 683.649 14.479 677.633 L14.479 672.095 Z" fill="#000000" fill-rule="nonzero" fill-opacity="1" /><path clip-path="url(#clip510)" d="M548.543 12.096 L556.726 12.096 L556.726 65.6895 L586.176 65.6895 L586.176 72.576 L548.543 72.576 L548.543 12.096 Z" fill="#000000" fill-rule="nonzero" fill-opacity="1" /><path clip-path="url(#clip510)" d="M594.44 27.2059 L601.893 27.2059 L601.893 72.576 L594.44 72.576 L594.44 27.2059 M594.44 9.54393 L601.893 9.54393 L601.893 18.9825 L594.44 18.9825 L594.44 9.54393 Z" fill="#000000" fill-rule="nonzero" fill-opacity="1" /><path clip-path="url(#clip510)" d="M655.203 45.1919 L655.203 72.576 L647.75 72.576 L647.75 45.4349 Q647.75 38.994 645.238 35.7938 Q642.727 32.5936 637.703 32.5936 Q631.668 32.5936 628.184 36.4419 Q624.7 40.2903 624.7 46.9338 L624.7 72.576 L617.206 72.576 L617.206 27.2059 L624.7 27.2059 L624.7 34.2544 Q627.374 30.163 630.979 28.1376 Q634.625 26.1121 639.364 26.1121 Q647.183 26.1121 651.193 30.9732 Q655.203 35.7938 655.203 45.1919 Z" fill="#000000" fill-rule="nonzero" fill-opacity="1" /><path clip-path="url(#clip510)" d="M708.878 48.0275 L708.878 51.6733 L674.607 51.6733 Q675.093 59.3701 679.225 63.421 Q683.398 67.4314 690.811 67.4314 Q695.105 67.4314 699.115 66.3781 Q703.166 65.3249 707.136 63.2184 L707.136 70.267 Q703.126 71.9684 698.913 72.8596 Q694.7 73.7508 690.365 73.7508 Q679.509 73.7508 673.149 67.4314 Q666.829 61.1119 666.829 50.3365 Q666.829 39.1965 672.825 32.6746 Q678.861 26.1121 689.069 26.1121 Q698.224 26.1121 703.531 32.0264 Q708.878 37.9003 708.878 48.0275 M701.424 45.84 Q701.343 39.7232 697.981 36.0774 Q694.659 32.4315 689.15 32.4315 Q682.912 32.4315 679.144 35.9558 Q675.417 39.4801 674.85 45.8805 L701.424 45.84 Z" fill="#000000" fill-rule="nonzero" fill-opacity="1" /><path clip-path="url(#clip510)" d="M741.731 49.7694 Q732.697 49.7694 729.213 51.8354 Q725.73 53.9013 725.73 58.8839 Q725.73 62.8538 728.322 65.2034 Q730.955 67.5124 735.452 67.5124 Q741.65 67.5124 745.376 63.1374 Q749.144 58.7219 749.144 51.4303 L749.144 49.7694 L741.731 49.7694 M756.597 46.6907 L756.597 72.576 L749.144 72.576 L749.144 65.6895 Q746.592 69.8214 742.784 71.8063 Q738.976 73.7508 733.467 73.7508 Q726.499 73.7508 722.367 69.8619 Q718.276 65.9325 718.276 59.3701 Q718.276 51.7138 723.38 47.825 Q728.525 43.9361 738.692 43.9361 L749.144 43.9361 L749.144 43.2069 Q749.144 38.0623 745.741 35.2672 Q742.379 32.4315 736.262 32.4315 Q732.373 32.4315 728.687 33.3632 Q725 34.295 721.598 36.1584 L721.598 29.2718 Q725.689 27.692 729.537 26.9223 Q733.386 26.1121 737.032 26.1121 Q746.875 26.1121 751.736 31.2163 Q756.597 36.3204 756.597 46.6907 Z" fill="#000000" fill-rule="nonzero" fill-opacity="1" /><path clip-path="url(#clip510)" d="M798.241 34.1734 Q796.985 33.4443 795.486 33.1202 Q794.028 32.7556 792.245 32.7556 Q785.926 32.7556 782.523 36.8875 Q779.161 40.9789 779.161 48.6757 L779.161 72.576 L771.667 72.576 L771.667 27.2059 L779.161 27.2059 L779.161 34.2544 Q781.511 30.1225 785.278 28.1376 Q789.045 26.1121 794.433 26.1121 Q795.203 26.1121 796.134 26.2337 Q797.066 26.3147 798.2 26.5172 L798.241 34.1734 Z" fill="#000000" fill-rule="nonzero" fill-opacity="1" /><path clip-path="url(#clip510)" d="M861.435 44.2197 Q864.068 45.1109 866.539 48.0275 Q869.051 50.9442 871.562 56.0483 L879.867 72.576 L871.076 72.576 L863.339 57.061 Q860.341 50.9847 857.506 48.9997 Q854.71 47.0148 849.849 47.0148 L840.937 47.0148 L840.937 72.576 L832.754 72.576 L832.754 12.096 L851.227 12.096 Q861.597 12.096 866.701 16.4305 Q871.805 20.7649 871.805 29.5149 Q871.805 35.2267 869.132 38.994 Q866.499 42.7613 861.435 44.2197 M840.937 18.8205 L840.937 40.2903 L851.227 40.2903 Q857.141 40.2903 860.139 37.5762 Q863.177 34.8216 863.177 29.5149 Q863.177 24.2082 860.139 21.5346 Q857.141 18.8205 851.227 18.8205 L840.937 18.8205 Z" fill="#000000" fill-rule="nonzero" fill-opacity="1" /><path clip-path="url(#clip510)" d="M925.156 48.0275 L925.156 51.6733 L890.885 51.6733 Q891.371 59.3701 895.503 63.421 Q899.675 67.4314 907.089 67.4314 Q911.383 67.4314 915.393 66.3781 Q919.444 65.3249 923.414 63.2184 L923.414 70.267 Q919.403 71.9684 915.19 72.8596 Q910.977 73.7508 906.643 73.7508 Q895.787 73.7508 889.427 67.4314 Q883.107 61.1119 883.107 50.3365 Q883.107 39.1965 889.103 32.6746 Q895.138 26.1121 905.347 26.1121 Q914.502 26.1121 919.808 32.0264 Q925.156 37.9003 925.156 48.0275 M917.702 45.84 Q917.621 39.7232 914.259 36.0774 Q910.937 32.4315 905.428 32.4315 Q899.189 32.4315 895.422 35.9558 Q891.695 39.4801 891.128 45.8805 L917.702 45.84 Z" fill="#000000" fill-rule="nonzero" fill-opacity="1" /><path clip-path="url(#clip510)" d="M967.245 49.3643 Q967.245 41.2625 963.882 36.8065 Q960.561 32.3505 954.525 32.3505 Q948.529 32.3505 945.167 36.8065 Q941.845 41.2625 941.845 49.3643 Q941.845 57.4256 945.167 61.8816 Q948.529 66.3376 954.525 66.3376 Q960.561 66.3376 963.882 61.8816 Q967.245 57.4256 967.245 49.3643 M974.698 66.9452 Q974.698 78.5308 969.554 84.1616 Q964.409 89.8329 953.796 89.8329 Q949.866 89.8329 946.382 89.2252 Q942.899 88.6581 939.617 87.4428 L939.617 80.1917 Q942.899 81.9741 946.099 82.8248 Q949.299 83.6755 952.621 83.6755 Q959.953 83.6755 963.599 79.8271 Q967.245 76.0193 967.245 68.282 L967.245 64.5957 Q964.935 68.6061 961.33 70.5911 Q957.725 72.576 952.702 72.576 Q944.357 72.576 939.253 66.2161 Q934.149 59.8562 934.149 49.3643 Q934.149 38.832 939.253 32.472 Q944.357 26.1121 952.702 26.1121 Q957.725 26.1121 961.33 28.0971 Q964.935 30.082 967.245 34.0924 L967.245 27.2059 L974.698 27.2059 L974.698 66.9452 Z" fill="#000000" fill-rule="nonzero" fill-opacity="1" /><path clip-path="url(#clip510)" d="M1016.34 34.1734 Q1015.09 33.4443 1013.59 33.1202 Q1012.13 32.7556 1010.35 32.7556 Q1004.03 32.7556 1000.62 36.8875 Q997.262 40.9789 997.262 48.6757 L997.262 72.576 L989.768 72.576 L989.768 27.2059 L997.262 27.2059 L997.262 34.2544 Q999.611 30.1225 1003.38 28.1376 Q1007.15 26.1121 1012.53 26.1121 Q1013.3 26.1121 1014.23 26.2337 Q1015.17 26.3147 1016.3 26.5172 L1016.34 34.1734 Z" fill="#000000" fill-rule="nonzero" fill-opacity="1" /><path clip-path="url(#clip510)" d="M1061.14 48.0275 L1061.14 51.6733 L1026.87 51.6733 Q1027.36 59.3701 1031.49 63.421 Q1035.66 67.4314 1043.08 67.4314 Q1047.37 67.4314 1051.38 66.3781 Q1055.43 65.3249 1059.4 63.2184 L1059.4 70.267 Q1055.39 71.9684 1051.18 72.8596 Q1046.97 73.7508 1042.63 73.7508 Q1031.78 73.7508 1025.42 67.4314 Q1019.1 61.1119 1019.1 50.3365 Q1019.1 39.1965 1025.09 32.6746 Q1031.13 26.1121 1041.34 26.1121 Q1050.49 26.1121 1055.8 32.0264 Q1061.14 37.9003 1061.14 48.0275 M1053.69 45.84 Q1053.61 39.7232 1050.25 36.0774 Q1046.93 32.4315 1041.42 32.4315 Q1035.18 32.4315 1031.41 35.9558 Q1027.68 39.4801 1027.12 45.8805 L1053.69 45.84 Z" fill="#000000" fill-rule="nonzero" fill-opacity="1" /><path clip-path="url(#clip510)" d="M1102.3 28.5427 L1102.3 35.5912 Q1099.14 33.9709 1095.74 33.1607 Q1092.34 32.3505 1088.69 32.3505 Q1083.14 32.3505 1080.35 34.0519 Q1077.59 35.7533 1077.59 39.156 Q1077.59 41.7486 1079.58 43.2475 Q1081.56 44.7058 1087.56 46.0426 L1090.11 46.6097 Q1098.05 48.3111 1101.37 51.4303 Q1104.73 54.509 1104.73 60.0587 Q1104.73 66.3781 1099.71 70.0644 Q1094.73 73.7508 1085.98 73.7508 Q1082.33 73.7508 1078.36 73.0216 Q1074.43 72.3329 1070.06 70.9151 L1070.06 63.2184 Q1074.19 65.3654 1078.2 66.4591 Q1082.21 67.5124 1086.14 67.5124 Q1091.4 67.5124 1094.24 65.73 Q1097.08 63.9071 1097.08 60.6258 Q1097.08 57.5877 1095.01 55.9673 Q1092.98 54.3469 1086.06 52.8481 L1083.46 52.2405 Q1076.54 50.7821 1073.46 47.7845 Q1070.38 44.7463 1070.38 39.4801 Q1070.38 33.0797 1074.92 29.5959 Q1079.45 26.1121 1087.8 26.1121 Q1091.93 26.1121 1095.58 26.7198 Q1099.22 27.3274 1102.3 28.5427 Z" fill="#000000" fill-rule="nonzero" fill-opacity="1" /><path clip-path="url(#clip510)" d="M1145.52 28.5427 L1145.52 35.5912 Q1142.37 33.9709 1138.96 33.1607 Q1135.56 32.3505 1131.91 32.3505 Q1126.36 32.3505 1123.57 34.0519 Q1120.81 35.7533 1120.81 39.156 Q1120.81 41.7486 1122.8 43.2475 Q1124.78 44.7058 1130.78 46.0426 L1133.33 46.6097 Q1141.27 48.3111 1144.59 51.4303 Q1147.96 54.509 1147.96 60.0587 Q1147.96 66.3781 1142.93 70.0644 Q1137.95 73.7508 1129.2 73.7508 Q1125.55 73.7508 1121.58 73.0216 Q1117.65 72.3329 1113.28 70.9151 L1113.28 63.2184 Q1117.41 65.3654 1121.42 66.4591 Q1125.43 67.5124 1129.36 67.5124 Q1134.63 67.5124 1137.46 65.73 Q1140.3 63.9071 1140.3 60.6258 Q1140.3 57.5877 1138.23 55.9673 Q1136.21 54.3469 1129.28 52.8481 L1126.69 52.2405 Q1119.76 50.7821 1116.68 47.7845 Q1113.6 44.7463 1113.6 39.4801 Q1113.6 33.0797 1118.14 29.5959 Q1122.68 26.1121 1131.02 26.1121 Q1135.15 26.1121 1138.8 26.7198 Q1142.45 27.3274 1145.52 28.5427 Z" fill="#000000" fill-rule="nonzero" fill-opacity="1" /><path clip-path="url(#clip510)" d="M1159.82 27.2059 L1167.28 27.2059 L1167.28 72.576 L1159.82 72.576 L1159.82 27.2059 M1159.82 9.54393 L1167.28 9.54393 L1167.28 18.9825 L1159.82 18.9825 L1159.82 9.54393 Z" fill="#000000" fill-rule="nonzero" fill-opacity="1" /><path clip-path="url(#clip510)" d="M1200.46 32.4315 Q1194.46 32.4315 1190.98 37.1306 Q1187.49 41.7891 1187.49 49.9314 Q1187.49 58.0738 1190.94 62.7728 Q1194.42 67.4314 1200.46 67.4314 Q1206.41 67.4314 1209.89 62.7323 Q1213.38 58.0333 1213.38 49.9314 Q1213.38 41.8701 1209.89 37.1711 Q1206.41 32.4315 1200.46 32.4315 M1200.46 26.1121 Q1210.18 26.1121 1215.73 32.4315 Q1221.28 38.7509 1221.28 49.9314 Q1221.28 61.0714 1215.73 67.4314 Q1210.18 73.7508 1200.46 73.7508 Q1190.69 73.7508 1185.14 67.4314 Q1179.63 61.0714 1179.63 49.9314 Q1179.63 38.7509 1185.14 32.4315 Q1190.69 26.1121 1200.46 26.1121 Z" fill="#000000" fill-rule="nonzero" fill-opacity="1" /><path clip-path="url(#clip510)" d="M1271.35 45.1919 L1271.35 72.576 L1263.89 72.576 L1263.89 45.4349 Q1263.89 38.994 1261.38 35.7938 Q1258.87 32.5936 1253.85 32.5936 Q1247.81 32.5936 1244.33 36.4419 Q1240.84 40.2903 1240.84 46.9338 L1240.84 72.576 L1233.35 72.576 L1233.35 27.2059 L1240.84 27.2059 L1240.84 34.2544 Q1243.52 30.163 1247.12 28.1376 Q1250.77 26.1121 1255.51 26.1121 Q1263.33 26.1121 1267.34 30.9732 Q1271.35 35.7938 1271.35 45.1919 Z" fill="#000000" fill-rule="nonzero" fill-opacity="1" /><path clip-path="url(#clip510)" d="M1288.12 62.2867 L1296.66 62.2867 L1296.66 72.576 L1288.12 72.576 L1288.12 62.2867 M1288.12 29.6769 L1296.66 29.6769 L1296.66 39.9662 L1288.12 39.9662 L1288.12 29.6769 Z" fill="#000000" fill-rule="nonzero" fill-opacity="1" /><path clip-path="url(#clip510)" d="M1340.86 12.096 L1353.05 12.096 L1368.49 53.2532 L1384 12.096 L1396.19 12.096 L1396.19 72.576 L1388.21 72.576 L1388.21 19.4686 L1372.62 60.9499 L1364.4 60.9499 L1348.8 19.4686 L1348.8 72.576 L1340.86 72.576 L1340.86 12.096 Z" fill="#000000" fill-rule="nonzero" fill-opacity="1" /><path clip-path="url(#clip510)" d="M1441.12 44.2197 Q1443.75 45.1109 1446.22 48.0275 Q1448.73 50.9442 1451.25 56.0483 L1459.55 72.576 L1450.76 72.576 L1443.02 57.061 Q1440.03 50.9847 1437.19 48.9997 Q1434.39 47.0148 1429.53 47.0148 L1420.62 47.0148 L1420.62 72.576 L1412.44 72.576 L1412.44 12.096 L1430.91 12.096 Q1441.28 12.096 1446.39 16.4305 Q1451.49 20.7649 1451.49 29.5149 Q1451.49 35.2267 1448.82 38.994 Q1446.18 42.7613 1441.12 44.2197 M1420.62 18.8205 L1420.62 40.2903 L1430.91 40.2903 Q1436.83 40.2903 1439.82 37.5762 Q1442.86 34.8216 1442.86 29.5149 Q1442.86 24.2082 1439.82 21.5346 Q1436.83 18.8205 1430.91 18.8205 L1420.62 18.8205 Z" fill="#000000" fill-rule="nonzero" fill-opacity="1" /><path clip-path="url(#clip510)" d="M1486.94 20.1573 L1475.84 50.2555 L1498.07 50.2555 L1486.94 20.1573 M1482.32 12.096 L1491.59 12.096 L1514.64 72.576 L1506.14 72.576 L1500.63 57.061 L1473.36 57.061 L1467.86 72.576 L1459.23 72.576 L1482.32 12.096 Z" fill="#000000" fill-rule="nonzero" fill-opacity="1" /><path clip-path="url(#clip510)" d="M1523.47 12.096 L1561.71 12.096 L1561.71 18.9825 L1531.66 18.9825 L1531.66 36.8875 L1560.46 36.8875 L1560.46 43.7741 L1531.66 43.7741 L1531.66 65.6895 L1562.44 65.6895 L1562.44 72.576 L1523.47 72.576 L1523.47 12.096 Z" fill="#000000" fill-rule="nonzero" fill-opacity="1" /><path clip-path="url(#clip510)" d="M1598.54 9.54393 L1598.54 15.7418 L1591.41 15.7418 Q1587.4 15.7418 1585.82 17.3622 Q1584.28 18.9825 1584.28 23.1955 L1584.28 27.2059 L1596.55 27.2059 L1596.55 32.9987 L1584.28 32.9987 L1584.28 72.576 L1576.78 72.576 L1576.78 32.9987 L1569.65 32.9987 L1569.65 27.2059 L1576.78 27.2059 L1576.78 24.0462 Q1576.78 16.471 1580.31 13.0277 Q1583.83 9.54393 1591.49 9.54393 L1598.54 9.54393 Z" fill="#000000" fill-rule="nonzero" fill-opacity="1" /><path clip-path="url(#clip510)" d="M1625.8 27.2059 L1633.7 27.2059 L1647.88 65.2844 L1662.06 27.2059 L1669.95 27.2059 L1652.94 72.576 L1642.81 72.576 L1625.8 27.2059 Z" fill="#000000" fill-rule="nonzero" fill-opacity="1" /><path clip-path="url(#clip510)" d="M1709.17 28.5427 L1709.17 35.5912 Q1706.01 33.9709 1702.61 33.1607 Q1699.2 32.3505 1695.56 32.3505 Q1690.01 32.3505 1687.21 34.0519 Q1684.46 35.7533 1684.46 39.156 Q1684.46 41.7486 1686.44 43.2475 Q1688.43 44.7058 1694.42 46.0426 L1696.97 46.6097 Q1704.91 48.3111 1708.24 51.4303 Q1711.6 54.509 1711.6 60.0587 Q1711.6 66.3781 1706.58 70.0644 Q1701.59 73.7508 1692.84 73.7508 Q1689.2 73.7508 1685.23 73.0216 Q1681.3 72.3329 1676.92 70.9151 L1676.92 63.2184 Q1681.05 65.3654 1685.06 66.4591 Q1689.08 67.5124 1693 67.5124 Q1698.27 67.5124 1701.11 65.73 Q1703.94 63.9071 1703.94 60.6258 Q1703.94 57.5877 1701.88 55.9673 Q1699.85 54.3469 1692.92 52.8481 L1690.33 52.2405 Q1683.4 50.7821 1680.33 47.7845 Q1677.25 44.7463 1677.25 39.4801 Q1677.25 33.0797 1681.78 29.5959 Q1686.32 26.1121 1694.67 26.1121 Q1698.8 26.1121 1702.44 26.7198 Q1706.09 27.3274 1709.17 28.5427 Z" fill="#000000" fill-rule="nonzero" fill-opacity="1" /><path clip-path="url(#clip510)" d="M1750.16 12.096 L1758.35 12.096 L1758.35 36.8875 L1788.08 36.8875 L1788.08 12.096 L1796.26 12.096 L1796.26 72.576 L1788.08 72.576 L1788.08 43.7741 L1758.35 43.7741 L1758.35 72.576 L1750.16 72.576 L1750.16 12.096 Z" fill="#000000" fill-rule="nonzero" fill-opacity="1" /><path clip-path="url(#clip510)" d="M1829.8 32.4315 Q1823.81 32.4315 1820.32 37.1306 Q1816.84 41.7891 1816.84 49.9314 Q1816.84 58.0738 1820.28 62.7728 Q1823.77 67.4314 1829.8 67.4314 Q1835.76 67.4314 1839.24 62.7323 Q1842.73 58.0333 1842.73 49.9314 Q1842.73 41.8701 1839.24 37.1711 Q1835.76 32.4315 1829.8 32.4315 M1829.8 26.1121 Q1839.53 26.1121 1845.08 32.4315 Q1850.63 38.7509 1850.63 49.9314 Q1850.63 61.0714 1845.08 67.4314 Q1839.53 73.7508 1829.8 73.7508 Q1820.04 73.7508 1814.49 67.4314 Q1808.98 61.0714 1808.98 49.9314 Q1808.98 38.7509 1814.49 32.4315 Q1820.04 26.1121 1829.8 26.1121 Z" fill="#000000" fill-rule="nonzero" fill-opacity="1" /><path clip-path="url(#clip510)" d="M1889.27 34.1734 Q1888.02 33.4443 1886.52 33.1202 Q1885.06 32.7556 1883.28 32.7556 Q1876.96 32.7556 1873.55 36.8875 Q1870.19 40.9789 1870.19 48.6757 L1870.19 72.576 L1862.7 72.576 L1862.7 27.2059 L1870.19 27.2059 L1870.19 34.2544 Q1872.54 30.1225 1876.31 28.1376 Q1880.08 26.1121 1885.46 26.1121 Q1886.23 26.1121 1887.16 26.2337 Q1888.1 26.3147 1889.23 26.5172 L1889.27 34.1734 Z" fill="#000000" fill-rule="nonzero" fill-opacity="1" /><path clip-path="url(#clip510)" d="M1897.09 27.2059 L1904.54 27.2059 L1904.54 72.576 L1897.09 72.576 L1897.09 27.2059 M1897.09 9.54393 L1904.54 9.54393 L1904.54 18.9825 L1897.09 18.9825 L1897.09 9.54393 Z" fill="#000000" fill-rule="nonzero" fill-opacity="1" /><path clip-path="url(#clip510)" d="M1916.9 27.2059 L1952.3 27.2059 L1952.3 34.0114 L1924.27 66.6212 L1952.3 66.6212 L1952.3 72.576 L1915.89 72.576 L1915.89 65.7705 L1943.92 33.1607 L1916.9 33.1607 L1916.9 27.2059 Z" fill="#000000" fill-rule="nonzero" fill-opacity="1" /><path clip-path="url(#clip510)" d="M1981.27 32.4315 Q1975.27 32.4315 1971.79 37.1306 Q1968.3 41.7891 1968.3 49.9314 Q1968.3 58.0738 1971.75 62.7728 Q1975.23 67.4314 1981.27 67.4314 Q1987.22 67.4314 1990.71 62.7323 Q1994.19 58.0333 1994.19 49.9314 Q1994.19 41.8701 1990.71 37.1711 Q1987.22 32.4315 1981.27 32.4315 M1981.27 26.1121 Q1990.99 26.1121 1996.54 32.4315 Q2002.09 38.7509 2002.09 49.9314 Q2002.09 61.0714 1996.54 67.4314 Q1990.99 73.7508 1981.27 73.7508 Q1971.5 73.7508 1965.95 67.4314 Q1960.45 61.0714 1960.45 49.9314 Q1960.45 38.7509 1965.95 32.4315 Q1971.5 26.1121 1981.27 26.1121 Z" fill="#000000" fill-rule="nonzero" fill-opacity="1" /><path clip-path="url(#clip510)" d="M2052.16 45.1919 L2052.16 72.576 L2044.7 72.576 L2044.7 45.4349 Q2044.7 38.994 2042.19 35.7938 Q2039.68 32.5936 2034.66 32.5936 Q2028.62 32.5936 2025.14 36.4419 Q2021.65 40.2903 2021.65 46.9338 L2021.65 72.576 L2014.16 72.576 L2014.16 27.2059 L2021.65 27.2059 L2021.65 34.2544 Q2024.33 30.163 2027.93 28.1376 Q2031.58 26.1121 2036.32 26.1121 Q2044.14 26.1121 2048.15 30.9732 Q2052.16 35.7938 2052.16 45.1919 Z" fill="#000000" fill-rule="nonzero" fill-opacity="1" /><circle clip-path="url(#clip512)" cx="307.515" cy="661.735" r="14.4" fill="#009af9" fill-rule="evenodd" fill-opacity="1" stroke="#000000" stroke-opacity="1" stroke-width="3.2"/>
<circle clip-path="url(#clip512)" cx="520.265" cy="1238.84" r="14.4" fill="#009af9" fill-rule="evenodd" fill-opacity="1" stroke="#000000" stroke-opacity="1" stroke-width="3.2"/>
<circle clip-path="url(#clip512)" cx="874.849" cy="1266.82" r="14.4" fill="#009af9" fill-rule="evenodd" fill-opacity="1" stroke="#000000" stroke-opacity="1" stroke-width="3.2"/>
<circle clip-path="url(#clip512)" cx="1229.43" cy="1288.22" r="14.4" fill="#009af9" fill-rule="evenodd" fill-opacity="1" stroke="#000000" stroke-opacity="1" stroke-width="3.2"/>
<circle clip-path="url(#clip512)" cx="1584.02" cy="1140.78" r="14.4" fill="#009af9" fill-rule="evenodd" fill-opacity="1" stroke="#000000" stroke-opacity="1" stroke-width="3.2"/>
<circle clip-path="url(#clip512)" cx="2293.19" cy="1386.4" r="14.4" fill="#009af9" fill-rule="evenodd" fill-opacity="1" stroke="#000000" stroke-opacity="1" stroke-width="3.2"/>
<circle clip-path="url(#clip512)" cx="307.515" cy="160.256" r="14.4" fill="#e26f46" fill-rule="evenodd" fill-opacity="1" stroke="#000000" stroke-opacity="1" stroke-width="3.2"/>
<circle clip-path="url(#clip512)" cx="520.265" cy="962.819" r="14.4" fill="#e26f46" fill-rule="evenodd" fill-opacity="1" stroke="#000000" stroke-opacity="1" stroke-width="3.2"/>
<circle clip-path="url(#clip512)" cx="874.849" cy="1195.61" r="14.4" fill="#e26f46" fill-rule="evenodd" fill-opacity="1" stroke="#000000" stroke-opacity="1" stroke-width="3.2"/>
<circle clip-path="url(#clip512)" cx="1229.43" cy="1173.37" r="14.4" fill="#e26f46" fill-rule="evenodd" fill-opacity="1" stroke="#000000" stroke-opacity="1" stroke-width="3.2"/>
<circle clip-path="url(#clip512)" cx="1584.02" cy="914.274" r="14.4" fill="#e26f46" fill-rule="evenodd" fill-opacity="1" stroke="#000000" stroke-opacity="1" stroke-width="3.2"/>
<circle clip-path="url(#clip512)" cx="2293.19" cy="918.182" r="14.4" fill="#e26f46" fill-rule="evenodd" fill-opacity="1" stroke="#000000" stroke-opacity="1" stroke-width="3.2"/>
<path clip-path="url(#clip510)" d="M1735.7 322.316 L2282.6 322.316 L2282.6 166.796 L1735.7 166.796  Z" fill="#ffffff" fill-rule="evenodd" fill-opacity="1"/>
<polyline clip-path="url(#clip510)" style="stroke:#000000; stroke-linecap:round; stroke-linejoin:round; stroke-width:4; stroke-opacity:1; fill:none" points="1735.7,322.316 2282.6,322.316 2282.6,166.796 1735.7,166.796 1735.7,322.316 "/>
<circle clip-path="url(#clip510)" cx="1829.25" cy="218.636" r="20.48" fill="#009af9" fill-rule="evenodd" fill-opacity="1" stroke="#000000" stroke-opacity="1" stroke-width="4.55111"/>
<path clip-path="url(#clip510)" d="M1930.21 202.629 L1930.21 209.99 L1938.98 209.99 L1938.98 213.3 L1930.21 213.3 L1930.21 227.374 Q1930.21 230.545 1931.06 231.448 Q1931.94 232.351 1934.6 232.351 L1938.98 232.351 L1938.98 235.916 L1934.6 235.916 Q1929.67 235.916 1927.8 234.087 Q1925.92 232.235 1925.92 227.374 L1925.92 213.3 L1922.8 213.3 L1922.8 209.99 L1925.92 209.99 L1925.92 202.629 L1930.21 202.629 Z" fill="#000000" fill-rule="nonzero" fill-opacity="1" /><path clip-path="url(#clip510)" d="M1959.6 213.971 Q1958.89 213.555 1958.03 213.37 Q1957.2 213.161 1956.18 213.161 Q1952.57 213.161 1950.62 215.522 Q1948.7 217.86 1948.7 222.258 L1948.7 235.916 L1944.42 235.916 L1944.42 209.99 L1948.7 209.99 L1948.7 214.018 Q1950.04 211.657 1952.2 210.522 Q1954.35 209.365 1957.43 209.365 Q1957.87 209.365 1958.4 209.434 Q1958.93 209.481 1959.58 209.596 L1959.6 213.971 Z" fill="#000000" fill-rule="nonzero" fill-opacity="1" /><path clip-path="url(#clip510)" d="M1975.85 222.883 Q1970.69 222.883 1968.7 224.064 Q1966.71 225.244 1966.71 228.092 Q1966.71 230.36 1968.19 231.703 Q1969.7 233.022 1972.27 233.022 Q1975.81 233.022 1977.94 230.522 Q1980.09 227.999 1980.09 223.832 L1980.09 222.883 L1975.85 222.883 M1984.35 221.124 L1984.35 235.916 L1980.09 235.916 L1980.09 231.981 Q1978.63 234.342 1976.46 235.476 Q1974.28 236.587 1971.13 236.587 Q1967.15 236.587 1964.79 234.365 Q1962.45 232.119 1962.45 228.369 Q1962.45 223.994 1965.37 221.772 Q1968.31 219.55 1974.12 219.55 L1980.09 219.55 L1980.09 219.133 Q1980.09 216.194 1978.15 214.596 Q1976.22 212.976 1972.73 212.976 Q1970.51 212.976 1968.4 213.508 Q1966.29 214.041 1964.35 215.106 L1964.35 211.17 Q1966.69 210.268 1968.89 209.828 Q1971.09 209.365 1973.17 209.365 Q1978.79 209.365 1981.57 212.282 Q1984.35 215.198 1984.35 221.124 Z" fill="#000000" fill-rule="nonzero" fill-opacity="1" /><path clip-path="url(#clip510)" d="M1993.12 209.99 L1997.38 209.99 L1997.38 235.916 L1993.12 235.916 L1993.12 209.99 M1993.12 199.897 L1997.38 199.897 L1997.38 205.291 L1993.12 205.291 L1993.12 199.897 Z" fill="#000000" fill-rule="nonzero" fill-opacity="1" /><path clip-path="url(#clip510)" d="M2027.84 220.268 L2027.84 235.916 L2023.59 235.916 L2023.59 220.407 Q2023.59 216.726 2022.15 214.897 Q2020.71 213.069 2017.84 213.069 Q2014.4 213.069 2012.4 215.268 Q2010.41 217.467 2010.41 221.263 L2010.41 235.916 L2006.13 235.916 L2006.13 209.99 L2010.41 209.99 L2010.41 214.018 Q2011.94 211.68 2014 210.522 Q2016.09 209.365 2018.79 209.365 Q2023.26 209.365 2025.55 212.143 Q2027.84 214.897 2027.84 220.268 Z" fill="#000000" fill-rule="nonzero" fill-opacity="1" /><path clip-path="url(#clip510)" d="M2036.34 209.99 L2040.6 209.99 L2040.6 235.916 L2036.34 235.916 L2036.34 209.99 M2036.34 199.897 L2040.6 199.897 L2040.6 205.291 L2036.34 205.291 L2036.34 199.897 Z" fill="#000000" fill-rule="nonzero" fill-opacity="1" /><path clip-path="url(#clip510)" d="M2071.06 220.268 L2071.06 235.916 L2066.8 235.916 L2066.8 220.407 Q2066.8 216.726 2065.37 214.897 Q2063.93 213.069 2061.06 213.069 Q2057.61 213.069 2055.62 215.268 Q2053.63 217.467 2053.63 221.263 L2053.63 235.916 L2049.35 235.916 L2049.35 209.99 L2053.63 209.99 L2053.63 214.018 Q2055.16 211.68 2057.22 210.522 Q2059.3 209.365 2062.01 209.365 Q2066.48 209.365 2068.77 212.143 Q2071.06 214.897 2071.06 220.268 Z" fill="#000000" fill-rule="nonzero" fill-opacity="1" /><path clip-path="url(#clip510)" d="M2096.62 222.652 Q2096.62 218.022 2094.7 215.476 Q2092.8 212.93 2089.35 212.93 Q2085.92 212.93 2084 215.476 Q2082.1 218.022 2082.1 222.652 Q2082.1 227.258 2084 229.805 Q2085.92 232.351 2089.35 232.351 Q2092.8 232.351 2094.7 229.805 Q2096.62 227.258 2096.62 222.652 M2100.88 232.698 Q2100.88 239.318 2097.94 242.536 Q2095 245.777 2088.93 245.777 Q2086.69 245.777 2084.7 245.43 Q2082.71 245.105 2080.83 244.411 L2080.83 240.268 Q2082.71 241.286 2084.53 241.772 Q2086.36 242.258 2088.26 242.258 Q2092.45 242.258 2094.53 240.059 Q2096.62 237.883 2096.62 233.462 L2096.62 231.356 Q2095.3 233.647 2093.24 234.781 Q2091.18 235.916 2088.31 235.916 Q2083.54 235.916 2080.62 232.281 Q2077.71 228.647 2077.71 222.652 Q2077.71 216.633 2080.62 212.999 Q2083.54 209.365 2088.31 209.365 Q2091.18 209.365 2093.24 210.499 Q2095.3 211.633 2096.62 213.925 L2096.62 209.99 L2100.88 209.99 L2100.88 232.698 Z" fill="#000000" fill-rule="nonzero" fill-opacity="1" /><path clip-path="url(#clip510)" d="M2122.57 221.032 L2135.04 221.032 L2135.04 224.828 L2122.57 224.828 L2122.57 221.032 Z" fill="#000000" fill-rule="nonzero" fill-opacity="1" /><path clip-path="url(#clip510)" d="M2161.52 231.981 L2177.84 231.981 L2177.84 235.916 L2155.9 235.916 L2155.9 231.981 Q2158.56 229.226 2163.14 224.596 Q2167.75 219.944 2168.93 218.601 Q2171.18 216.078 2172.06 214.342 Q2172.96 212.583 2172.96 210.893 Q2172.96 208.138 2171.01 206.402 Q2169.09 204.666 2165.99 204.666 Q2163.79 204.666 2161.34 205.43 Q2158.91 206.194 2156.13 207.745 L2156.13 203.022 Q2158.95 201.888 2161.41 201.309 Q2163.86 200.731 2165.9 200.731 Q2171.27 200.731 2174.46 203.416 Q2177.66 206.101 2177.66 210.592 Q2177.66 212.721 2176.85 214.643 Q2176.06 216.541 2173.95 219.133 Q2173.38 219.805 2170.27 223.022 Q2167.17 226.217 2161.52 231.981 Z" fill="#000000" fill-rule="nonzero" fill-opacity="1" /><path clip-path="url(#clip510)" d="M2197.66 204.434 Q2194.05 204.434 2192.22 207.999 Q2190.41 211.541 2190.41 218.67 Q2190.41 225.777 2192.22 229.342 Q2194.05 232.883 2197.66 232.883 Q2201.29 232.883 2203.1 229.342 Q2204.93 225.777 2204.93 218.67 Q2204.93 211.541 2203.1 207.999 Q2201.29 204.434 2197.66 204.434 M2197.66 200.731 Q2203.47 200.731 2206.52 205.337 Q2209.6 209.92 2209.6 218.67 Q2209.6 227.397 2206.52 232.004 Q2203.47 236.587 2197.66 236.587 Q2191.85 236.587 2188.77 232.004 Q2185.71 227.397 2185.71 218.67 Q2185.71 209.92 2188.77 205.337 Q2191.85 200.731 2197.66 200.731 Z" fill="#000000" fill-rule="nonzero" fill-opacity="1" /><circle clip-path="url(#clip510)" cx="1829.25" cy="270.476" r="20.48" fill="#e26f46" fill-rule="evenodd" fill-opacity="1" stroke="#000000" stroke-opacity="1" stroke-width="4.55111"/>
<path clip-path="url(#clip510)" d="M1922.8 261.83 L1927.31 261.83 L1935.41 283.589 L1943.52 261.83 L1948.03 261.83 L1938.31 287.756 L1932.52 287.756 L1922.8 261.83 Z" fill="#000000" fill-rule="nonzero" fill-opacity="1" /><path clip-path="url(#clip510)" d="M1965.69 274.723 Q1960.53 274.723 1958.54 275.904 Q1956.55 277.084 1956.55 279.932 Q1956.55 282.2 1958.03 283.543 Q1959.53 284.862 1962.1 284.862 Q1965.65 284.862 1967.78 282.362 Q1969.93 279.839 1969.93 275.672 L1969.93 274.723 L1965.69 274.723 M1974.19 272.964 L1974.19 287.756 L1969.93 287.756 L1969.93 283.821 Q1968.47 286.182 1966.29 287.316 Q1964.12 288.427 1960.97 288.427 Q1956.99 288.427 1954.63 286.205 Q1952.29 283.959 1952.29 280.209 Q1952.29 275.834 1955.21 273.612 Q1958.15 271.39 1963.96 271.39 L1969.93 271.39 L1969.93 270.973 Q1969.93 268.034 1967.98 266.436 Q1966.06 264.816 1962.57 264.816 Q1960.34 264.816 1958.24 265.348 Q1956.13 265.881 1954.19 266.946 L1954.19 263.01 Q1956.53 262.108 1958.72 261.668 Q1960.92 261.205 1963.01 261.205 Q1968.63 261.205 1971.41 264.122 Q1974.19 267.038 1974.19 272.964 Z" fill="#000000" fill-rule="nonzero" fill-opacity="1" /><path clip-path="url(#clip510)" d="M1982.96 251.737 L1987.22 251.737 L1987.22 287.756 L1982.96 287.756 L1982.96 251.737 Z" fill="#000000" fill-rule="nonzero" fill-opacity="1" /><path clip-path="url(#clip510)" d="M1996.13 261.83 L2000.39 261.83 L2000.39 287.756 L1996.13 287.756 L1996.13 261.83 M1996.13 251.737 L2000.39 251.737 L2000.39 257.131 L1996.13 257.131 L1996.13 251.737 Z" fill="#000000" fill-rule="nonzero" fill-opacity="1" /><path clip-path="url(#clip510)" d="M2026.36 265.765 L2026.36 251.737 L2030.62 251.737 L2030.62 287.756 L2026.36 287.756 L2026.36 283.867 Q2025.02 286.182 2022.96 287.316 Q2020.92 288.427 2018.05 288.427 Q2013.35 288.427 2010.39 284.677 Q2007.45 280.927 2007.45 274.816 Q2007.45 268.705 2010.39 264.955 Q2013.35 261.205 2018.05 261.205 Q2020.92 261.205 2022.96 262.339 Q2025.02 263.45 2026.36 265.765 M2011.85 274.816 Q2011.85 279.515 2013.77 282.2 Q2015.71 284.862 2019.09 284.862 Q2022.47 284.862 2024.42 282.2 Q2026.36 279.515 2026.36 274.816 Q2026.36 270.117 2024.42 267.455 Q2022.47 264.77 2019.09 264.77 Q2015.71 264.77 2013.77 267.455 Q2011.85 270.117 2011.85 274.816 Z" fill="#000000" fill-rule="nonzero" fill-opacity="1" /><path clip-path="url(#clip510)" d="M2051.18 274.723 Q2046.02 274.723 2044.02 275.904 Q2042.03 277.084 2042.03 279.932 Q2042.03 282.2 2043.52 283.543 Q2045.02 284.862 2047.59 284.862 Q2051.13 284.862 2053.26 282.362 Q2055.41 279.839 2055.41 275.672 L2055.41 274.723 L2051.18 274.723 M2059.67 272.964 L2059.67 287.756 L2055.41 287.756 L2055.41 283.821 Q2053.96 286.182 2051.78 287.316 Q2049.6 288.427 2046.46 288.427 Q2042.47 288.427 2040.11 286.205 Q2037.77 283.959 2037.77 280.209 Q2037.77 275.834 2040.69 273.612 Q2043.63 271.39 2049.44 271.39 L2055.41 271.39 L2055.41 270.973 Q2055.41 268.034 2053.47 266.436 Q2051.55 264.816 2048.05 264.816 Q2045.83 264.816 2043.72 265.348 Q2041.62 265.881 2039.67 266.946 L2039.67 263.01 Q2042.01 262.108 2044.21 261.668 Q2046.41 261.205 2048.49 261.205 Q2054.12 261.205 2056.9 264.122 Q2059.67 267.038 2059.67 272.964 Z" fill="#000000" fill-rule="nonzero" fill-opacity="1" /><path clip-path="url(#clip510)" d="M2072.66 254.469 L2072.66 261.83 L2081.43 261.83 L2081.43 265.14 L2072.66 265.14 L2072.66 279.214 Q2072.66 282.385 2073.52 283.288 Q2074.39 284.191 2077.06 284.191 L2081.43 284.191 L2081.43 287.756 L2077.06 287.756 Q2072.13 287.756 2070.25 285.927 Q2068.38 284.075 2068.38 279.214 L2068.38 265.14 L2065.25 265.14 L2065.25 261.83 L2068.38 261.83 L2068.38 254.469 L2072.66 254.469 Z" fill="#000000" fill-rule="nonzero" fill-opacity="1" /><path clip-path="url(#clip510)" d="M2087.03 261.83 L2091.29 261.83 L2091.29 287.756 L2087.03 287.756 L2087.03 261.83 M2087.03 251.737 L2091.29 251.737 L2091.29 257.131 L2087.03 257.131 L2087.03 251.737 Z" fill="#000000" fill-rule="nonzero" fill-opacity="1" /><path clip-path="url(#clip510)" d="M2110.25 264.816 Q2106.83 264.816 2104.83 267.501 Q2102.84 270.163 2102.84 274.816 Q2102.84 279.469 2104.81 282.154 Q2106.8 284.816 2110.25 284.816 Q2113.65 284.816 2115.64 282.131 Q2117.64 279.446 2117.64 274.816 Q2117.64 270.21 2115.64 267.524 Q2113.65 264.816 2110.25 264.816 M2110.25 261.205 Q2115.81 261.205 2118.98 264.816 Q2122.15 268.427 2122.15 274.816 Q2122.15 281.182 2118.98 284.816 Q2115.81 288.427 2110.25 288.427 Q2104.67 288.427 2101.5 284.816 Q2098.35 281.182 2098.35 274.816 Q2098.35 268.427 2101.5 264.816 Q2104.67 261.205 2110.25 261.205 Z" fill="#000000" fill-rule="nonzero" fill-opacity="1" /><path clip-path="url(#clip510)" d="M2150.76 272.108 L2150.76 287.756 L2146.5 287.756 L2146.5 272.247 Q2146.5 268.566 2145.07 266.737 Q2143.63 264.909 2140.76 264.909 Q2137.31 264.909 2135.32 267.108 Q2133.33 269.307 2133.33 273.103 L2133.33 287.756 L2129.05 287.756 L2129.05 261.83 L2133.33 261.83 L2133.33 265.858 Q2134.86 263.52 2136.92 262.362 Q2139 261.205 2141.71 261.205 Q2146.18 261.205 2148.47 263.983 Q2150.76 266.737 2150.76 272.108 Z" fill="#000000" fill-rule="nonzero" fill-opacity="1" /><path clip-path="url(#clip510)" d="M2172.17 272.872 L2184.65 272.872 L2184.65 276.668 L2172.17 276.668 L2172.17 272.872 Z" fill="#000000" fill-rule="nonzero" fill-opacity="1" /><path clip-path="url(#clip510)" d="M2211.13 283.821 L2227.45 283.821 L2227.45 287.756 L2205.51 287.756 L2205.51 283.821 Q2208.17 281.066 2212.75 276.436 Q2217.36 271.784 2218.54 270.441 Q2220.78 267.918 2221.66 266.182 Q2222.57 264.423 2222.57 262.733 Q2222.57 259.978 2220.62 258.242 Q2218.7 256.506 2215.6 256.506 Q2213.4 256.506 2210.95 257.27 Q2208.51 258.034 2205.74 259.585 L2205.74 254.862 Q2208.56 253.728 2211.01 253.149 Q2213.47 252.571 2215.51 252.571 Q2220.88 252.571 2224.07 255.256 Q2227.26 257.941 2227.26 262.432 Q2227.26 264.561 2226.45 266.483 Q2225.67 268.381 2223.56 270.973 Q2222.98 271.645 2219.88 274.862 Q2216.78 278.057 2211.13 283.821 Z" fill="#000000" fill-rule="nonzero" fill-opacity="1" /><path clip-path="url(#clip510)" d="M2247.26 256.274 Q2243.65 256.274 2241.82 259.839 Q2240.02 263.381 2240.02 270.51 Q2240.02 277.617 2241.82 281.182 Q2243.65 284.723 2247.26 284.723 Q2250.9 284.723 2252.7 281.182 Q2254.53 277.617 2254.53 270.51 Q2254.53 263.381 2252.7 259.839 Q2250.9 256.274 2247.26 256.274 M2247.26 252.571 Q2253.07 252.571 2256.13 257.177 Q2259.21 261.76 2259.21 270.51 Q2259.21 279.237 2256.13 283.844 Q2253.07 288.427 2247.26 288.427 Q2241.45 288.427 2238.38 283.844 Q2235.32 279.237 2235.32 270.51 Q2235.32 261.76 2238.38 257.177 Q2241.45 252.571 2247.26 252.571 Z" fill="#000000" fill-rule="nonzero" fill-opacity="1" /></svg>
