<?xml version="1.0" encoding="utf-8"?>
<svg xmlns="http://www.w3.org/2000/svg" xmlns:xlink="http://www.w3.org/1999/xlink" width="600" height="400" viewBox="0 0 2400 1600">
<defs>
  <clipPath id="clip510">
    <rect x="0" y="0" width="2400" height="1600"/>
  </clipPath>
</defs>
<path clip-path="url(#clip510)" d="M0 1600 L2400 1600 L2400 0 L0 0  Z" fill="#ffffff" fill-rule="evenodd" fill-opacity="1"/>
<defs>
  <clipPath id="clip511">
    <rect x="480" y="0" width="1681" height="1600"/>
  </clipPath>
</defs>
<path clip-path="url(#clip510)" d="M280.19 1423.18 L2352.76 1423.18 L2352.76 123.472 L280.19 123.472  Z" fill="#ffffff" fill-rule="evenodd" fill-opacity="1"/>
<defs>
  <clipPath id="clip512">
    <rect x="280" y="123" width="2074" height="1301"/>
  </clipPath>
</defs>
<polyline clip-path="url(#clip512)" style="stroke:#000000; stroke-linecap:round; stroke-linejoin:round; stroke-width:2; stroke-opacity:0.1; fill:none" points="608.537,1423.18 608.537,123.472 "/>
<polyline clip-path="url(#clip512)" style="stroke:#000000; stroke-linecap:round; stroke-linejoin:round; stroke-width:2; stroke-opacity:0.1; fill:none" points="945.65,1423.18 945.65,123.472 "/>
<polyline clip-path="url(#clip512)" style="stroke:#000000; stroke-linecap:round; stroke-linejoin:round; stroke-width:2; stroke-opacity:0.1; fill:none" points="1282.76,1423.18 1282.76,123.472 "/>
<polyline clip-path="url(#clip512)" style="stroke:#000000; stroke-linecap:round; stroke-linejoin:round; stroke-width:2; stroke-opacity:0.1; fill:none" points="1619.87,1423.18 1619.87,123.472 "/>
<polyline clip-path="url(#clip512)" style="stroke:#000000; stroke-linecap:round; stroke-linejoin:round; stroke-width:2; stroke-opacity:0.1; fill:none" points="1956.99,1423.18 1956.99,123.472 "/>
<polyline clip-path="url(#clip512)" style="stroke:#000000; stroke-linecap:round; stroke-linejoin:round; stroke-width:2; stroke-opacity:0.1; fill:none" points="2294.1,1423.18 2294.1,123.472 "/>
<polyline clip-path="url(#clip510)" style="stroke:#000000; stroke-linecap:round; stroke-linejoin:round; stroke-width:4; stroke-opacity:1; fill:none" points="280.19,1423.18 2352.76,1423.18 "/>
<polyline clip-path="url(#clip510)" style="stroke:#000000; stroke-linecap:round; stroke-linejoin:round; stroke-width:4; stroke-opacity:1; fill:none" points="608.537,1423.18 608.537,1404.28 "/>
<polyline clip-path="url(#clip510)" style="stroke:#000000; stroke-linecap:round; stroke-linejoin:round; stroke-width:4; stroke-opacity:1; fill:none" points="945.65,1423.18 945.65,1404.28 "/>
<polyline clip-path="url(#clip510)" style="stroke:#000000; stroke-linecap:round; stroke-linejoin:round; stroke-width:4; stroke-opacity:1; fill:none" points="1282.76,1423.18 1282.76,1404.28 "/>
<polyline clip-path="url(#clip510)" style="stroke:#000000; stroke-linecap:round; stroke-linejoin:round; stroke-width:4; stroke-opacity:1; fill:none" points="1619.87,1423.18 1619.87,1404.28 "/>
<polyline clip-path="url(#clip510)" style="stroke:#000000; stroke-linecap:round; stroke-linejoin:round; stroke-width:4; stroke-opacity:1; fill:none" points="1956.99,1423.18 1956.99,1404.28 "/>
<polyline clip-path="url(#clip510)" style="stroke:#000000; stroke-linecap:round; stroke-linejoin:round; stroke-width:4; stroke-opacity:1; fill:none" points="2294.1,1423.18 2294.1,1404.28 "/>
<path clip-path="url(#clip510)" d="M598.815 1451.02 L617.172 1451.02 L617.172 1454.96 L603.098 1454.96 L603.098 1463.43 Q604.116 1463.08 605.135 1462.92 Q606.153 1462.73 607.172 1462.73 Q612.959 1462.73 616.338 1465.9 Q619.718 1469.08 619.718 1474.49 Q619.718 1480.07 616.246 1483.17 Q612.773 1486.25 606.454 1486.25 Q604.278 1486.25 602.01 1485.88 Q599.764 1485.51 597.357 1484.77 L597.357 1480.07 Q599.44 1481.2 601.662 1481.76 Q603.885 1482.32 606.361 1482.32 Q610.366 1482.32 612.704 1480.21 Q615.042 1478.1 615.042 1474.49 Q615.042 1470.88 612.704 1468.77 Q610.366 1466.67 606.361 1466.67 Q604.486 1466.67 602.611 1467.08 Q600.76 1467.5 598.815 1468.38 L598.815 1451.02 Z" fill="#000000" fill-rule="nonzero" fill-opacity="1" /><path clip-path="url(#clip510)" d="M920.337 1481.64 L927.976 1481.64 L927.976 1455.28 L919.666 1456.95 L919.666 1452.69 L927.93 1451.02 L932.606 1451.02 L932.606 1481.64 L940.244 1481.64 L940.244 1485.58 L920.337 1485.58 L920.337 1481.64 Z" fill="#000000" fill-rule="nonzero" fill-opacity="1" /><path clip-path="url(#clip510)" d="M959.689 1454.1 Q956.078 1454.1 954.249 1457.66 Q952.443 1461.2 952.443 1468.33 Q952.443 1475.44 954.249 1479.01 Q956.078 1482.55 959.689 1482.55 Q963.323 1482.55 965.129 1479.01 Q966.957 1475.44 966.957 1468.33 Q966.957 1461.2 965.129 1457.66 Q963.323 1454.1 959.689 1454.1 M959.689 1450.39 Q965.499 1450.39 968.554 1455 Q971.633 1459.58 971.633 1468.33 Q971.633 1477.06 968.554 1481.67 Q965.499 1486.25 959.689 1486.25 Q953.879 1486.25 950.8 1481.67 Q947.744 1477.06 947.744 1468.33 Q947.744 1459.58 950.8 1455 Q953.879 1450.39 959.689 1450.39 Z" fill="#000000" fill-rule="nonzero" fill-opacity="1" /><path clip-path="url(#clip510)" d="M1257.95 1481.64 L1265.59 1481.64 L1265.59 1455.28 L1257.28 1456.95 L1257.28 1452.69 L1265.54 1451.02 L1270.22 1451.02 L1270.22 1481.64 L1277.85 1481.64 L1277.85 1485.58 L1257.95 1485.58 L1257.95 1481.64 Z" fill="#000000" fill-rule="nonzero" fill-opacity="1" /><path clip-path="url(#clip510)" d="M1287.35 1451.02 L1305.7 1451.02 L1305.7 1454.96 L1291.63 1454.96 L1291.63 1463.43 Q1292.65 1463.08 1293.66 1462.92 Q1294.68 1462.73 1295.7 1462.73 Q1301.49 1462.73 1304.87 1465.9 Q1308.25 1469.08 1308.25 1474.49 Q1308.25 1480.07 1304.78 1483.17 Q1301.3 1486.25 1294.98 1486.25 Q1292.81 1486.25 1290.54 1485.88 Q1288.29 1485.51 1285.89 1484.77 L1285.89 1480.07 Q1287.97 1481.2 1290.19 1481.76 Q1292.41 1482.32 1294.89 1482.32 Q1298.9 1482.32 1301.23 1480.21 Q1303.57 1478.1 1303.57 1474.49 Q1303.57 1470.88 1301.23 1468.77 Q1298.9 1466.67 1294.89 1466.67 Q1293.02 1466.67 1291.14 1467.08 Q1289.29 1467.5 1287.35 1468.38 L1287.35 1451.02 Z" fill="#000000" fill-rule="nonzero" fill-opacity="1" /><path clip-path="url(#clip510)" d="M1598.65 1481.64 L1614.97 1481.64 L1614.97 1485.58 L1593.02 1485.58 L1593.02 1481.64 Q1595.68 1478.89 1600.27 1474.26 Q1604.87 1469.61 1606.05 1468.27 Q1608.3 1465.74 1609.18 1464.01 Q1610.08 1462.25 1610.08 1460.56 Q1610.08 1457.8 1608.14 1456.07 Q1606.22 1454.33 1603.11 1454.33 Q1600.92 1454.33 1598.46 1455.09 Q1596.03 1455.86 1593.25 1457.41 L1593.25 1452.69 Q1596.08 1451.55 1598.53 1450.97 Q1600.99 1450.39 1603.02 1450.39 Q1608.39 1450.39 1611.59 1453.08 Q1614.78 1455.77 1614.78 1460.26 Q1614.78 1462.39 1613.97 1464.31 Q1613.18 1466.2 1611.08 1468.8 Q1610.5 1469.47 1607.4 1472.69 Q1604.3 1475.88 1598.65 1481.64 Z" fill="#000000" fill-rule="nonzero" fill-opacity="1" /><path clip-path="url(#clip510)" d="M1634.78 1454.1 Q1631.17 1454.1 1629.34 1457.66 Q1627.54 1461.2 1627.54 1468.33 Q1627.54 1475.44 1629.34 1479.01 Q1631.17 1482.55 1634.78 1482.55 Q1638.42 1482.55 1640.22 1479.01 Q1642.05 1475.44 1642.05 1468.33 Q1642.05 1461.2 1640.22 1457.66 Q1638.42 1454.1 1634.78 1454.1 M1634.78 1450.39 Q1640.59 1450.39 1643.65 1455 Q1646.73 1459.58 1646.73 1468.33 Q1646.73 1477.06 1643.65 1481.67 Q1640.59 1486.25 1634.78 1486.25 Q1628.97 1486.25 1625.89 1481.67 Q1622.84 1477.06 1622.84 1468.33 Q1622.84 1459.58 1625.89 1455 Q1628.97 1450.39 1634.78 1450.39 Z" fill="#000000" fill-rule="nonzero" fill-opacity="1" /><path clip-path="url(#clip510)" d="M1936.26 1481.64 L1952.58 1481.64 L1952.58 1485.58 L1930.63 1485.58 L1930.63 1481.64 Q1933.29 1478.89 1937.88 1474.26 Q1942.48 1469.61 1943.66 1468.27 Q1945.91 1465.74 1946.79 1464.01 Q1947.69 1462.25 1947.69 1460.56 Q1947.69 1457.8 1945.75 1456.07 Q1943.83 1454.33 1940.72 1454.33 Q1938.53 1454.33 1936.07 1455.09 Q1933.64 1455.86 1930.86 1457.41 L1930.86 1452.69 Q1933.69 1451.55 1936.14 1450.97 Q1938.6 1450.39 1940.63 1450.39 Q1946 1450.39 1949.2 1453.08 Q1952.39 1455.77 1952.39 1460.26 Q1952.39 1462.39 1951.58 1464.31 Q1950.79 1466.2 1948.69 1468.8 Q1948.11 1469.47 1945.01 1472.69 Q1941.91 1475.88 1936.26 1481.64 Z" fill="#000000" fill-rule="nonzero" fill-opacity="1" /><path clip-path="url(#clip510)" d="M1962.44 1451.02 L1980.79 1451.02 L1980.79 1454.96 L1966.72 1454.96 L1966.72 1463.43 Q1967.74 1463.08 1968.76 1462.92 Q1969.78 1462.73 1970.79 1462.73 Q1976.58 1462.73 1979.96 1465.9 Q1983.34 1469.08 1983.34 1474.49 Q1983.34 1480.07 1979.87 1483.17 Q1976.4 1486.25 1970.08 1486.25 Q1967.9 1486.25 1965.63 1485.88 Q1963.39 1485.51 1960.98 1484.77 L1960.98 1480.07 Q1963.06 1481.2 1965.28 1481.76 Q1967.51 1482.32 1969.98 1482.32 Q1973.99 1482.32 1976.33 1480.21 Q1978.66 1478.1 1978.66 1474.49 Q1978.66 1470.88 1976.33 1468.77 Q1973.99 1466.67 1969.98 1466.67 Q1968.11 1466.67 1966.23 1467.08 Q1964.38 1467.5 1962.44 1468.38 L1962.44 1451.02 Z" fill="#000000" fill-rule="nonzero" fill-opacity="1" /><path clip-path="url(#clip510)" d="M2282.94 1466.95 Q2286.3 1467.66 2288.17 1469.93 Q2290.07 1472.2 2290.07 1475.53 Q2290.07 1480.65 2286.55 1483.45 Q2283.03 1486.25 2276.55 1486.25 Q2274.38 1486.25 2272.06 1485.81 Q2269.77 1485.39 2267.32 1484.54 L2267.32 1480.02 Q2269.26 1481.16 2271.58 1481.74 Q2273.89 1482.32 2276.41 1482.32 Q2280.81 1482.32 2283.1 1480.58 Q2285.42 1478.84 2285.42 1475.53 Q2285.42 1472.48 2283.27 1470.77 Q2281.14 1469.03 2277.32 1469.03 L2273.29 1469.03 L2273.29 1465.19 L2277.5 1465.19 Q2280.95 1465.19 2282.78 1463.82 Q2284.61 1462.43 2284.61 1459.84 Q2284.61 1457.18 2282.71 1455.77 Q2280.83 1454.33 2277.32 1454.33 Q2275.39 1454.33 2273.2 1454.75 Q2271 1455.16 2268.36 1456.04 L2268.36 1451.88 Q2271.02 1451.14 2273.33 1450.77 Q2275.67 1450.39 2277.73 1450.39 Q2283.06 1450.39 2286.16 1452.83 Q2289.26 1455.23 2289.26 1459.35 Q2289.26 1462.22 2287.62 1464.21 Q2285.97 1466.18 2282.94 1466.95 Z" fill="#000000" fill-rule="nonzero" fill-opacity="1" /><path clip-path="url(#clip510)" d="M2308.94 1454.1 Q2305.33 1454.1 2303.5 1457.66 Q2301.69 1461.2 2301.69 1468.33 Q2301.69 1475.44 2303.5 1479.01 Q2305.33 1482.55 2308.94 1482.55 Q2312.57 1482.55 2314.38 1479.01 Q2316.2 1475.44 2316.2 1468.33 Q2316.2 1461.2 2314.38 1457.66 Q2312.57 1454.1 2308.94 1454.1 M2308.94 1450.39 Q2314.75 1450.39 2317.8 1455 Q2320.88 1459.58 2320.88 1468.33 Q2320.88 1477.06 2317.8 1481.67 Q2314.75 1486.25 2308.94 1486.25 Q2303.13 1486.25 2300.05 1481.67 Q2296.99 1477.06 2296.99 1468.33 Q2296.99 1459.58 2300.05 1455 Q2303.13 1450.39 2308.94 1450.39 Z" fill="#000000" fill-rule="nonzero" fill-opacity="1" /><path clip-path="url(#clip510)" d="M1231.3 1546.53 L1231.3 1568.04 L1225.44 1568.04 L1225.44 1546.72 Q1225.44 1541.66 1223.47 1539.14 Q1221.5 1536.63 1217.55 1536.63 Q1212.81 1536.63 1210.07 1539.65 Q1207.33 1542.68 1207.33 1547.9 L1207.33 1568.04 L1201.44 1568.04 L1201.44 1518.52 L1207.33 1518.52 L1207.33 1537.93 Q1209.43 1534.72 1212.27 1533.13 Q1215.13 1531.54 1218.85 1531.54 Q1225 1531.54 1228.15 1535.36 Q1231.3 1539.14 1231.3 1546.53 Z" fill="#000000" fill-rule="nonzero" fill-opacity="1" /><path clip-path="url(#clip510)" d="M1256.79 1536.5 Q1252.08 1536.5 1249.35 1540.19 Q1246.61 1543.85 1246.61 1550.25 Q1246.61 1556.65 1249.31 1560.34 Q1252.05 1564 1256.79 1564 Q1261.47 1564 1264.21 1560.31 Q1266.95 1556.62 1266.95 1550.25 Q1266.95 1543.92 1264.21 1540.23 Q1261.47 1536.5 1256.79 1536.5 M1256.79 1531.54 Q1264.43 1531.54 1268.79 1536.5 Q1273.15 1541.47 1273.15 1550.25 Q1273.15 1559 1268.79 1564 Q1264.43 1568.97 1256.79 1568.97 Q1249.12 1568.97 1244.76 1564 Q1240.43 1559 1240.43 1550.25 Q1240.43 1541.47 1244.76 1536.5 Q1249.12 1531.54 1256.79 1531.54 Z" fill="#000000" fill-rule="nonzero" fill-opacity="1" /><path clip-path="url(#clip510)" d="M1303.52 1537.87 Q1302.53 1537.3 1301.35 1537.04 Q1300.21 1536.76 1298.81 1536.76 Q1293.84 1536.76 1291.17 1540 Q1288.53 1543.22 1288.53 1549.27 L1288.53 1568.04 L1282.64 1568.04 L1282.64 1532.4 L1288.53 1532.4 L1288.53 1537.93 Q1290.37 1534.69 1293.33 1533.13 Q1296.29 1531.54 1300.53 1531.54 Q1301.13 1531.54 1301.86 1531.63 Q1302.6 1531.7 1303.49 1531.85 L1303.52 1537.87 Z" fill="#000000" fill-rule="nonzero" fill-opacity="1" /><path clip-path="url(#clip510)" d="M1309.66 1532.4 L1315.52 1532.4 L1315.52 1568.04 L1309.66 1568.04 L1309.66 1532.4 M1309.66 1518.52 L1315.52 1518.52 L1315.52 1525.93 L1309.66 1525.93 L1309.66 1518.52 Z" fill="#000000" fill-rule="nonzero" fill-opacity="1" /><path clip-path="url(#clip510)" d="M1325.23 1532.4 L1353.04 1532.4 L1353.04 1537.74 L1331.02 1563.37 L1353.04 1563.37 L1353.04 1568.04 L1324.43 1568.04 L1324.43 1562.7 L1346.46 1537.07 L1325.23 1537.07 L1325.23 1532.4 Z" fill="#000000" fill-rule="nonzero" fill-opacity="1" /><path clip-path="url(#clip510)" d="M1375.8 1536.5 Q1371.09 1536.5 1368.35 1540.19 Q1365.62 1543.85 1365.62 1550.25 Q1365.62 1556.65 1368.32 1560.34 Q1371.06 1564 1375.8 1564 Q1380.48 1564 1383.22 1560.31 Q1385.95 1556.62 1385.95 1550.25 Q1385.95 1543.92 1383.22 1540.23 Q1380.48 1536.5 1375.8 1536.5 M1375.8 1531.54 Q1383.44 1531.54 1387.8 1536.5 Q1392.16 1541.47 1392.16 1550.25 Q1392.16 1559 1387.8 1564 Q1383.44 1568.97 1375.8 1568.97 Q1368.13 1568.97 1363.77 1564 Q1359.44 1559 1359.44 1550.25 Q1359.44 1541.47 1363.77 1536.5 Q1368.13 1531.54 1375.8 1531.54 Z" fill="#000000" fill-rule="nonzero" fill-opacity="1" /><path clip-path="url(#clip510)" d="M1431.5 1546.53 L1431.5 1568.04 L1425.64 1568.04 L1425.64 1546.72 Q1425.64 1541.66 1423.67 1539.14 Q1421.7 1536.63 1417.75 1536.63 Q1413.01 1536.63 1410.27 1539.65 Q1407.53 1542.68 1407.53 1547.9 L1407.53 1568.04 L1401.65 1568.04 L1401.65 1532.4 L1407.53 1532.4 L1407.53 1537.93 Q1409.64 1534.72 1412.47 1533.13 Q1415.33 1531.54 1419.06 1531.54 Q1425.2 1531.54 1428.35 1535.36 Q1431.5 1539.14 1431.5 1546.53 Z" fill="#000000" fill-rule="nonzero" fill-opacity="1" /><polyline clip-path="url(#clip512)" style="stroke:#000000; stroke-linecap:round; stroke-linejoin:round; stroke-width:2; stroke-opacity:0.1; fill:none" points="280.19,1142.8 2352.76,1142.8 "/>
<polyline clip-path="url(#clip512)" style="stroke:#000000; stroke-linecap:round; stroke-linejoin:round; stroke-width:2; stroke-opacity:0.1; fill:none" points="280.19,855.189 2352.76,855.189 "/>
<polyline clip-path="url(#clip512)" style="stroke:#000000; stroke-linecap:round; stroke-linejoin:round; stroke-width:2; stroke-opacity:0.1; fill:none" points="280.19,567.581 2352.76,567.581 "/>
<polyline clip-path="url(#clip512)" style="stroke:#000000; stroke-linecap:round; stroke-linejoin:round; stroke-width:2; stroke-opacity:0.1; fill:none" points="280.19,279.972 2352.76,279.972 "/>
<polyline clip-path="url(#clip510)" style="stroke:#000000; stroke-linecap:round; stroke-linejoin:round; stroke-width:4; stroke-opacity:1; fill:none" points="280.19,1423.18 280.19,123.472 "/>
<polyline clip-path="url(#clip510)" style="stroke:#000000; stroke-linecap:round; stroke-linejoin:round; stroke-width:4; stroke-opacity:1; fill:none" points="280.19,1142.8 299.088,1142.8 "/>
<polyline clip-path="url(#clip510)" style="stroke:#000000; stroke-linecap:round; stroke-linejoin:round; stroke-width:4; stroke-opacity:1; fill:none" points="280.19,855.189 299.088,855.189 "/>
<polyline clip-path="url(#clip510)" style="stroke:#000000; stroke-linecap:round; stroke-linejoin:round; stroke-width:4; stroke-opacity:1; fill:none" points="280.19,567.581 299.088,567.581 "/>
<polyline clip-path="url(#clip510)" style="stroke:#000000; stroke-linecap:round; stroke-linejoin:round; stroke-width:4; stroke-opacity:1; fill:none" points="280.19,279.972 299.088,279.972 "/>
<path clip-path="url(#clip510)" d="M126.783 1128.6 Q123.172 1128.6 121.343 1132.16 Q119.538 1135.7 119.538 1142.83 Q119.538 1149.94 121.343 1153.5 Q123.172 1157.05 126.783 1157.05 Q130.417 1157.05 132.223 1153.5 Q134.052 1149.94 134.052 1142.83 Q134.052 1135.7 132.223 1132.16 Q130.417 1128.6 126.783 1128.6 M126.783 1124.89 Q132.593 1124.89 135.649 1129.5 Q138.728 1134.08 138.728 1142.83 Q138.728 1151.56 135.649 1156.17 Q132.593 1160.75 126.783 1160.75 Q120.973 1160.75 117.894 1156.17 Q114.839 1151.56 114.839 1142.83 Q114.839 1134.08 117.894 1129.5 Q120.973 1124.89 126.783 1124.89 Z" fill="#000000" fill-rule="nonzero" fill-opacity="1" /><path clip-path="url(#clip510)" d="M146.945 1154.2 L151.829 1154.2 L151.829 1160.08 L146.945 1160.08 L146.945 1154.2 Z" fill="#000000" fill-rule="nonzero" fill-opacity="1" /><path clip-path="url(#clip510)" d="M172.014 1128.6 Q168.403 1128.6 166.575 1132.16 Q164.769 1135.7 164.769 1142.83 Q164.769 1149.94 166.575 1153.5 Q168.403 1157.05 172.014 1157.05 Q175.649 1157.05 177.454 1153.5 Q179.283 1149.94 179.283 1142.83 Q179.283 1135.7 177.454 1132.16 Q175.649 1128.6 172.014 1128.6 M172.014 1124.89 Q177.825 1124.89 180.88 1129.5 Q183.959 1134.08 183.959 1142.83 Q183.959 1151.56 180.88 1156.17 Q177.825 1160.75 172.014 1160.75 Q166.204 1160.75 163.126 1156.17 Q160.07 1151.56 160.07 1142.83 Q160.07 1134.08 163.126 1129.5 Q166.204 1124.89 172.014 1124.89 Z" fill="#000000" fill-rule="nonzero" fill-opacity="1" /><path clip-path="url(#clip510)" d="M192.987 1156.14 L200.625 1156.14 L200.625 1129.78 L192.315 1131.44 L192.315 1127.18 L200.579 1125.52 L205.255 1125.52 L205.255 1156.14 L212.894 1156.14 L212.894 1160.08 L192.987 1160.08 L192.987 1156.14 Z" fill="#000000" fill-rule="nonzero" fill-opacity="1" /><path clip-path="url(#clip510)" d="M232.338 1143.67 Q229.005 1143.67 227.084 1145.45 Q225.185 1147.23 225.185 1150.36 Q225.185 1153.48 227.084 1155.26 Q229.005 1157.05 232.338 1157.05 Q235.672 1157.05 237.593 1155.26 Q239.514 1153.46 239.514 1150.36 Q239.514 1147.23 237.593 1145.45 Q235.695 1143.67 232.338 1143.67 M227.662 1141.67 Q224.653 1140.93 222.963 1138.87 Q221.297 1136.81 221.297 1133.85 Q221.297 1129.71 224.236 1127.3 Q227.199 1124.89 232.338 1124.89 Q237.5 1124.89 240.44 1127.3 Q243.38 1129.71 243.38 1133.85 Q243.38 1136.81 241.69 1138.87 Q240.023 1140.93 237.037 1141.67 Q240.417 1142.46 242.292 1144.75 Q244.19 1147.05 244.19 1150.36 Q244.19 1155.38 241.111 1158.06 Q238.056 1160.75 232.338 1160.75 Q226.621 1160.75 223.542 1158.06 Q220.486 1155.38 220.486 1150.36 Q220.486 1147.05 222.385 1144.75 Q224.283 1142.46 227.662 1141.67 M225.949 1134.29 Q225.949 1136.98 227.616 1138.48 Q229.306 1139.99 232.338 1139.99 Q235.347 1139.99 237.037 1138.48 Q238.75 1136.98 238.75 1134.29 Q238.75 1131.61 237.037 1130.1 Q235.347 1128.6 232.338 1128.6 Q229.306 1128.6 227.616 1130.1 Q225.949 1131.61 225.949 1134.29 Z" fill="#000000" fill-rule="nonzero" fill-opacity="1" /><path clip-path="url(#clip510)" d="M126.691 840.988 Q123.08 840.988 121.251 844.553 Q119.445 848.094 119.445 855.224 Q119.445 862.33 121.251 865.895 Q123.08 869.437 126.691 869.437 Q130.325 869.437 132.13 865.895 Q133.959 862.33 133.959 855.224 Q133.959 848.094 132.13 844.553 Q130.325 840.988 126.691 840.988 M126.691 837.284 Q132.501 837.284 135.556 841.891 Q138.635 846.474 138.635 855.224 Q138.635 863.951 135.556 868.557 Q132.501 873.14 126.691 873.14 Q120.88 873.14 117.802 868.557 Q114.746 863.951 114.746 855.224 Q114.746 846.474 117.802 841.891 Q120.88 837.284 126.691 837.284 Z" fill="#000000" fill-rule="nonzero" fill-opacity="1" /><path clip-path="url(#clip510)" d="M146.853 866.589 L151.737 866.589 L151.737 872.469 L146.853 872.469 L146.853 866.589 Z" fill="#000000" fill-rule="nonzero" fill-opacity="1" /><path clip-path="url(#clip510)" d="M171.922 840.988 Q168.311 840.988 166.482 844.553 Q164.677 848.094 164.677 855.224 Q164.677 862.33 166.482 865.895 Q168.311 869.437 171.922 869.437 Q175.556 869.437 177.362 865.895 Q179.19 862.33 179.19 855.224 Q179.19 848.094 177.362 844.553 Q175.556 840.988 171.922 840.988 M171.922 837.284 Q177.732 837.284 180.788 841.891 Q183.866 846.474 183.866 855.224 Q183.866 863.951 180.788 868.557 Q177.732 873.14 171.922 873.14 Q166.112 873.14 163.033 868.557 Q159.978 863.951 159.978 855.224 Q159.978 846.474 163.033 841.891 Q166.112 837.284 171.922 837.284 Z" fill="#000000" fill-rule="nonzero" fill-opacity="1" /><path clip-path="url(#clip510)" d="M196.112 868.534 L212.431 868.534 L212.431 872.469 L190.487 872.469 L190.487 868.534 Q193.149 865.779 197.732 861.15 Q202.338 856.497 203.519 855.154 Q205.764 852.631 206.644 850.895 Q207.547 849.136 207.547 847.446 Q207.547 844.691 205.602 842.955 Q203.681 841.219 200.579 841.219 Q198.38 841.219 195.926 841.983 Q193.496 842.747 190.718 844.298 L190.718 839.576 Q193.542 838.441 195.996 837.863 Q198.45 837.284 200.487 837.284 Q205.857 837.284 209.051 839.969 Q212.246 842.654 212.246 847.145 Q212.246 849.275 211.436 851.196 Q210.649 853.094 208.542 855.687 Q207.963 856.358 204.862 859.576 Q201.76 862.77 196.112 868.534 Z" fill="#000000" fill-rule="nonzero" fill-opacity="1" /><path clip-path="url(#clip510)" d="M232.246 840.988 Q228.635 840.988 226.806 844.553 Q225 848.094 225 855.224 Q225 862.33 226.806 865.895 Q228.635 869.437 232.246 869.437 Q235.88 869.437 237.685 865.895 Q239.514 862.33 239.514 855.224 Q239.514 848.094 237.685 844.553 Q235.88 840.988 232.246 840.988 M232.246 837.284 Q238.056 837.284 241.111 841.891 Q244.19 846.474 244.19 855.224 Q244.19 863.951 241.111 868.557 Q238.056 873.14 232.246 873.14 Q226.435 873.14 223.357 868.557 Q220.301 863.951 220.301 855.224 Q220.301 846.474 223.357 841.891 Q226.435 837.284 232.246 837.284 Z" fill="#000000" fill-rule="nonzero" fill-opacity="1" /><path clip-path="url(#clip510)" d="M128.288 553.379 Q124.677 553.379 122.848 556.944 Q121.043 560.486 121.043 567.615 Q121.043 574.722 122.848 578.286 Q124.677 581.828 128.288 581.828 Q131.922 581.828 133.728 578.286 Q135.556 574.722 135.556 567.615 Q135.556 560.486 133.728 556.944 Q131.922 553.379 128.288 553.379 M128.288 549.676 Q134.098 549.676 137.154 554.282 Q140.232 558.865 140.232 567.615 Q140.232 576.342 137.154 580.948 Q134.098 585.532 128.288 585.532 Q122.478 585.532 119.399 580.948 Q116.343 576.342 116.343 567.615 Q116.343 558.865 119.399 554.282 Q122.478 549.676 128.288 549.676 Z" fill="#000000" fill-rule="nonzero" fill-opacity="1" /><path clip-path="url(#clip510)" d="M148.45 578.981 L153.334 578.981 L153.334 584.861 L148.45 584.861 L148.45 578.981 Z" fill="#000000" fill-rule="nonzero" fill-opacity="1" /><path clip-path="url(#clip510)" d="M173.519 553.379 Q169.908 553.379 168.079 556.944 Q166.274 560.486 166.274 567.615 Q166.274 574.722 168.079 578.286 Q169.908 581.828 173.519 581.828 Q177.153 581.828 178.959 578.286 Q180.788 574.722 180.788 567.615 Q180.788 560.486 178.959 556.944 Q177.153 553.379 173.519 553.379 M173.519 549.676 Q179.329 549.676 182.385 554.282 Q185.463 558.865 185.463 567.615 Q185.463 576.342 182.385 580.948 Q179.329 585.532 173.519 585.532 Q167.709 585.532 164.63 580.948 Q161.575 576.342 161.575 567.615 Q161.575 558.865 164.63 554.282 Q167.709 549.676 173.519 549.676 Z" fill="#000000" fill-rule="nonzero" fill-opacity="1" /><path clip-path="url(#clip510)" d="M197.709 580.925 L214.028 580.925 L214.028 584.861 L192.084 584.861 L192.084 580.925 Q194.746 578.171 199.329 573.541 Q203.936 568.888 205.116 567.546 Q207.362 565.023 208.241 563.287 Q209.144 561.527 209.144 559.837 Q209.144 557.083 207.199 555.347 Q205.278 553.611 202.176 553.611 Q199.977 553.611 197.524 554.375 Q195.093 555.138 192.315 556.689 L192.315 551.967 Q195.139 550.833 197.593 550.254 Q200.047 549.676 202.084 549.676 Q207.454 549.676 210.649 552.361 Q213.843 555.046 213.843 559.537 Q213.843 561.666 213.033 563.587 Q212.246 565.486 210.139 568.078 Q209.561 568.749 206.459 571.967 Q203.357 575.161 197.709 580.925 Z" fill="#000000" fill-rule="nonzero" fill-opacity="1" /><path clip-path="url(#clip510)" d="M227.871 580.925 L244.19 580.925 L244.19 584.861 L222.246 584.861 L222.246 580.925 Q224.908 578.171 229.491 573.541 Q234.097 568.888 235.278 567.546 Q237.523 565.023 238.403 563.287 Q239.306 561.527 239.306 559.837 Q239.306 557.083 237.361 555.347 Q235.44 553.611 232.338 553.611 Q230.139 553.611 227.685 554.375 Q225.255 555.138 222.477 556.689 L222.477 551.967 Q225.301 550.833 227.755 550.254 Q230.209 549.676 232.246 549.676 Q237.616 549.676 240.81 552.361 Q244.005 555.046 244.005 559.537 Q244.005 561.666 243.195 563.587 Q242.408 565.486 240.301 568.078 Q239.722 568.749 236.621 571.967 Q233.519 575.161 227.871 580.925 Z" fill="#000000" fill-rule="nonzero" fill-opacity="1" /><path clip-path="url(#clip510)" d="M126.205 265.771 Q122.593 265.771 120.765 269.335 Q118.959 272.877 118.959 280.007 Q118.959 287.113 120.765 290.678 Q122.593 294.22 126.205 294.22 Q129.839 294.22 131.644 290.678 Q133.473 287.113 133.473 280.007 Q133.473 272.877 131.644 269.335 Q129.839 265.771 126.205 265.771 M126.205 262.067 Q132.015 262.067 135.07 266.673 Q138.149 271.257 138.149 280.007 Q138.149 288.733 135.07 293.34 Q132.015 297.923 126.205 297.923 Q120.394 297.923 117.316 293.34 Q114.26 288.733 114.26 280.007 Q114.26 271.257 117.316 266.673 Q120.394 262.067 126.205 262.067 Z" fill="#000000" fill-rule="nonzero" fill-opacity="1" /><path clip-path="url(#clip510)" d="M146.366 291.372 L151.251 291.372 L151.251 297.252 L146.366 297.252 L146.366 291.372 Z" fill="#000000" fill-rule="nonzero" fill-opacity="1" /><path clip-path="url(#clip510)" d="M171.436 265.771 Q167.825 265.771 165.996 269.335 Q164.19 272.877 164.19 280.007 Q164.19 287.113 165.996 290.678 Q167.825 294.22 171.436 294.22 Q175.07 294.22 176.876 290.678 Q178.704 287.113 178.704 280.007 Q178.704 272.877 176.876 269.335 Q175.07 265.771 171.436 265.771 M171.436 262.067 Q177.246 262.067 180.301 266.673 Q183.38 271.257 183.38 280.007 Q183.38 288.733 180.301 293.34 Q177.246 297.923 171.436 297.923 Q165.626 297.923 162.547 293.34 Q159.491 288.733 159.491 280.007 Q159.491 271.257 162.547 266.673 Q165.626 262.067 171.436 262.067 Z" fill="#000000" fill-rule="nonzero" fill-opacity="1" /><path clip-path="url(#clip510)" d="M195.625 293.317 L211.945 293.317 L211.945 297.252 L190 297.252 L190 293.317 Q192.663 290.562 197.246 285.933 Q201.852 281.28 203.033 279.937 Q205.278 277.414 206.158 275.678 Q207.061 273.919 207.061 272.229 Q207.061 269.474 205.116 267.738 Q203.195 266.002 200.093 266.002 Q197.894 266.002 195.44 266.766 Q193.01 267.53 190.232 269.081 L190.232 264.359 Q193.056 263.224 195.51 262.646 Q197.963 262.067 200 262.067 Q205.371 262.067 208.565 264.752 Q211.76 267.437 211.76 271.928 Q211.76 274.058 210.949 275.979 Q210.162 277.877 208.056 280.47 Q207.477 281.141 204.375 284.359 Q201.274 287.553 195.625 293.317 Z" fill="#000000" fill-rule="nonzero" fill-opacity="1" /><path clip-path="url(#clip510)" d="M234.607 266.766 L222.801 285.215 L234.607 285.215 L234.607 266.766 M233.38 262.692 L239.259 262.692 L239.259 285.215 L244.19 285.215 L244.19 289.104 L239.259 289.104 L239.259 297.252 L234.607 297.252 L234.607 289.104 L219.005 289.104 L219.005 284.59 L233.38 262.692 Z" fill="#000000" fill-rule="nonzero" fill-opacity="1" /><path clip-path="url(#clip510)" d="M16.4842 839.052 L16.4842 829.472 L48.8219 817.345 L16.4842 805.155 L16.4842 795.574 L64.0042 795.574 L64.0042 801.844 L22.277 801.844 L54.8694 814.098 L54.8694 820.56 L22.277 832.814 L64.0042 832.814 L64.0042 839.052 L16.4842 839.052 Z" fill="#000000" fill-rule="nonzero" fill-opacity="1" /><path clip-path="url(#clip510)" d="M22.818 766.928 L46.4666 775.649 L46.4666 758.176 L22.818 766.928 M16.4842 770.557 L16.4842 763.268 L64.0042 745.158 L64.0042 751.842 L51.8138 756.17 L51.8138 777.591 L64.0042 781.92 L64.0042 788.699 L16.4842 770.557 Z" fill="#000000" fill-rule="nonzero" fill-opacity="1" /><path clip-path="url(#clip510)" d="M16.4842 738.219 L16.4842 708.173 L21.895 708.173 L21.895 731.79 L35.9632 731.79 L35.9632 709.16 L41.3741 709.16 L41.3741 731.79 L58.5933 731.79 L58.5933 707.6 L64.0042 707.6 L64.0042 738.219 L16.4842 738.219 Z" fill="#000000" fill-rule="nonzero" fill-opacity="1" /><path clip-path="url(#clip510)" d="M671.144 12.096 L683.337 12.096 L698.771 53.2532 L714.286 12.096 L726.479 12.096 L726.479 72.576 L718.499 72.576 L718.499 19.4686 L702.903 60.9499 L694.679 60.9499 L679.083 19.4686 L679.083 72.576 L671.144 72.576 L671.144 12.096 Z" fill="#000000" fill-rule="nonzero" fill-opacity="1" /><path clip-path="url(#clip510)" d="M781.207 48.0275 L781.207 51.6733 L746.936 51.6733 Q747.422 59.3701 751.554 63.421 Q755.727 67.4314 763.14 67.4314 Q767.434 67.4314 771.444 66.3781 Q775.495 65.3249 779.465 63.2184 L779.465 70.267 Q775.454 71.9684 771.242 72.8596 Q767.029 73.7508 762.694 73.7508 Q751.838 73.7508 745.478 67.4314 Q739.158 61.1119 739.158 50.3365 Q739.158 39.1965 745.154 32.6746 Q751.19 26.1121 761.398 26.1121 Q770.553 26.1121 775.86 32.0264 Q781.207 37.9003 781.207 48.0275 M773.753 45.84 Q773.672 39.7232 770.31 36.0774 Q766.988 32.4315 761.479 32.4315 Q755.24 32.4315 751.473 35.9558 Q747.746 39.4801 747.179 45.8805 L773.753 45.84 Z" fill="#000000" fill-rule="nonzero" fill-opacity="1" /><path clip-path="url(#clip510)" d="M814.06 49.7694 Q805.026 49.7694 801.542 51.8354 Q798.058 53.9013 798.058 58.8839 Q798.058 62.8538 800.651 65.2034 Q803.284 67.5124 807.781 67.5124 Q813.979 67.5124 817.705 63.1374 Q821.473 58.7219 821.473 51.4303 L821.473 49.7694 L814.06 49.7694 M828.926 46.6907 L828.926 72.576 L821.473 72.576 L821.473 65.6895 Q818.921 69.8214 815.113 71.8063 Q811.305 73.7508 805.796 73.7508 Q798.828 73.7508 794.696 69.8619 Q790.605 65.9325 790.605 59.3701 Q790.605 51.7138 795.709 47.825 Q800.854 43.9361 811.021 43.9361 L821.473 43.9361 L821.473 43.2069 Q821.473 38.0623 818.07 35.2672 Q814.708 32.4315 808.591 32.4315 Q804.702 32.4315 801.016 33.3632 Q797.329 34.295 793.927 36.1584 L793.927 29.2718 Q798.018 27.692 801.866 26.9223 Q805.715 26.1121 809.361 26.1121 Q819.204 26.1121 824.065 31.2163 Q828.926 36.3204 828.926 46.6907 Z" fill="#000000" fill-rule="nonzero" fill-opacity="1" /><path clip-path="url(#clip510)" d="M881.993 45.1919 L881.993 72.576 L874.54 72.576 L874.54 45.4349 Q874.54 38.994 872.028 35.7938 Q869.516 32.5936 864.493 32.5936 Q858.457 32.5936 854.974 36.4419 Q851.49 40.2903 851.49 46.9338 L851.49 72.576 L843.996 72.576 L843.996 27.2059 L851.49 27.2059 L851.49 34.2544 Q854.164 30.163 857.769 28.1376 Q861.415 26.1121 866.154 26.1121 Q873.972 26.1121 877.983 30.9732 Q881.993 35.7938 881.993 45.1919 Z" fill="#000000" fill-rule="nonzero" fill-opacity="1" /><path clip-path="url(#clip510)" d="M943.77 20.1573 L932.67 50.2555 L954.91 50.2555 L943.77 20.1573 M939.151 12.096 L948.428 12.096 L971.478 72.576 L962.971 72.576 L957.462 57.061 L930.199 57.061 L924.69 72.576 L916.061 72.576 L939.151 12.096 Z" fill="#000000" fill-rule="nonzero" fill-opacity="1" /><path clip-path="url(#clip510)" d="M1012.55 49.9314 Q1012.55 41.7081 1009.15 37.0496 Q1005.79 32.3505 999.875 32.3505 Q993.96 32.3505 990.557 37.0496 Q987.195 41.7081 987.195 49.9314 Q987.195 58.1548 990.557 62.8538 Q993.96 67.5124 999.875 67.5124 Q1005.79 67.5124 1009.15 62.8538 Q1012.55 58.1548 1012.55 49.9314 M987.195 34.0924 Q989.545 30.0415 993.11 28.0971 Q996.715 26.1121 1001.7 26.1121 Q1009.96 26.1121 1015.11 32.6746 Q1020.29 39.2371 1020.29 49.9314 Q1020.29 60.6258 1015.11 67.1883 Q1009.96 73.7508 1001.7 73.7508 Q996.715 73.7508 993.11 71.8063 Q989.545 69.8214 987.195 65.7705 L987.195 72.576 L979.701 72.576 L979.701 9.54393 L987.195 9.54393 L987.195 34.0924 Z" fill="#000000" fill-rule="nonzero" fill-opacity="1" /><path clip-path="url(#clip510)" d="M1061.57 28.5427 L1061.57 35.5912 Q1058.41 33.9709 1055.01 33.1607 Q1051.6 32.3505 1047.96 32.3505 Q1042.41 32.3505 1039.61 34.0519 Q1036.86 35.7533 1036.86 39.156 Q1036.86 41.7486 1038.84 43.2475 Q1040.83 44.7058 1046.82 46.0426 L1049.38 46.6097 Q1057.32 48.3111 1060.64 51.4303 Q1064 54.509 1064 60.0587 Q1064 66.3781 1058.98 70.0644 Q1053.99 73.7508 1045.24 73.7508 Q1041.6 73.7508 1037.63 73.0216 Q1033.7 72.3329 1029.32 70.9151 L1029.32 63.2184 Q1033.46 65.3654 1037.47 66.4591 Q1041.48 67.5124 1045.41 67.5124 Q1050.67 67.5124 1053.51 65.73 Q1056.34 63.9071 1056.34 60.6258 Q1056.34 57.5877 1054.28 55.9673 Q1052.25 54.3469 1045.33 52.8481 L1042.73 52.2405 Q1035.81 50.7821 1032.73 47.7845 Q1029.65 44.7463 1029.65 39.4801 Q1029.65 33.0797 1034.19 29.5959 Q1038.72 26.1121 1047.07 26.1121 Q1051.2 26.1121 1054.85 26.7198 Q1058.49 27.3274 1061.57 28.5427 Z" fill="#000000" fill-rule="nonzero" fill-opacity="1" /><path clip-path="url(#clip510)" d="M1093.45 32.4315 Q1087.46 32.4315 1083.97 37.1306 Q1080.49 41.7891 1080.49 49.9314 Q1080.49 58.0738 1083.93 62.7728 Q1087.41 67.4314 1093.45 67.4314 Q1099.41 67.4314 1102.89 62.7323 Q1106.37 58.0333 1106.37 49.9314 Q1106.37 41.8701 1102.89 37.1711 Q1099.41 32.4315 1093.45 32.4315 M1093.45 26.1121 Q1103.17 26.1121 1108.72 32.4315 Q1114.27 38.7509 1114.27 49.9314 Q1114.27 61.0714 1108.72 67.4314 Q1103.17 73.7508 1093.45 73.7508 Q1083.69 73.7508 1078.14 67.4314 Q1072.63 61.0714 1072.63 49.9314 Q1072.63 38.7509 1078.14 32.4315 Q1083.69 26.1121 1093.45 26.1121 Z" fill="#000000" fill-rule="nonzero" fill-opacity="1" /><path clip-path="url(#clip510)" d="M1126.63 9.54393 L1134.08 9.54393 L1134.08 72.576 L1126.63 72.576 L1126.63 9.54393 Z" fill="#000000" fill-rule="nonzero" fill-opacity="1" /><path clip-path="url(#clip510)" d="M1148.91 54.671 L1148.91 27.2059 L1156.36 27.2059 L1156.36 54.3874 Q1156.36 60.8284 1158.87 64.0691 Q1161.38 67.2693 1166.41 67.2693 Q1172.44 67.2693 1175.93 63.421 Q1179.45 59.5726 1179.45 52.9291 L1179.45 27.2059 L1186.9 27.2059 L1186.9 72.576 L1179.45 72.576 L1179.45 65.6084 Q1176.74 69.7404 1173.13 71.7658 Q1169.57 73.7508 1164.83 73.7508 Q1157.01 73.7508 1152.96 68.8897 Q1148.91 64.0286 1148.91 54.671 M1167.66 26.1121 L1167.66 26.1121 Z" fill="#000000" fill-rule="nonzero" fill-opacity="1" /><path clip-path="url(#clip510)" d="M1209.63 14.324 L1209.63 27.2059 L1224.98 27.2059 L1224.98 32.9987 L1209.63 32.9987 L1209.63 57.6282 Q1209.63 63.1779 1211.13 64.7578 Q1212.67 66.3376 1217.33 66.3376 L1224.98 66.3376 L1224.98 72.576 L1217.33 72.576 Q1208.7 72.576 1205.42 69.3758 Q1202.14 66.1351 1202.14 57.6282 L1202.14 32.9987 L1196.67 32.9987 L1196.67 27.2059 L1202.14 27.2059 L1202.14 14.324 L1209.63 14.324 Z" fill="#000000" fill-rule="nonzero" fill-opacity="1" /><path clip-path="url(#clip510)" d="M1273.59 48.0275 L1273.59 51.6733 L1239.32 51.6733 Q1239.81 59.3701 1243.94 63.421 Q1248.11 67.4314 1255.53 67.4314 Q1259.82 67.4314 1263.83 66.3781 Q1267.88 65.3249 1271.85 63.2184 L1271.85 70.267 Q1267.84 71.9684 1263.63 72.8596 Q1259.42 73.7508 1255.08 73.7508 Q1244.23 73.7508 1237.87 67.4314 Q1231.55 61.1119 1231.55 50.3365 Q1231.55 39.1965 1237.54 32.6746 Q1243.58 26.1121 1253.79 26.1121 Q1262.94 26.1121 1268.25 32.0264 Q1273.59 37.9003 1273.59 48.0275 M1266.14 45.84 Q1266.06 39.7232 1262.7 36.0774 Q1259.38 32.4315 1253.87 32.4315 Q1247.63 32.4315 1243.86 35.9558 Q1240.13 39.4801 1239.57 45.8805 L1266.14 45.84 Z" fill="#000000" fill-rule="nonzero" fill-opacity="1" /><path clip-path="url(#clip510)" d="M1312.52 12.096 L1350.76 12.096 L1350.76 18.9825 L1320.71 18.9825 L1320.71 36.8875 L1349.51 36.8875 L1349.51 43.7741 L1320.71 43.7741 L1320.71 65.6895 L1351.49 65.6895 L1351.49 72.576 L1312.52 72.576 L1312.52 12.096 Z" fill="#000000" fill-rule="nonzero" fill-opacity="1" /><path clip-path="url(#clip510)" d="M1390.91 34.1734 Q1389.65 33.4443 1388.15 33.1202 Q1386.7 32.7556 1384.91 32.7556 Q1378.59 32.7556 1375.19 36.8875 Q1371.83 40.9789 1371.83 48.6757 L1371.83 72.576 L1364.33 72.576 L1364.33 27.2059 L1371.83 27.2059 L1371.83 34.2544 Q1374.18 30.1225 1377.95 28.1376 Q1381.71 26.1121 1387.1 26.1121 Q1387.87 26.1121 1388.8 26.2337 Q1389.73 26.3147 1390.87 26.5172 L1390.91 34.1734 Z" fill="#000000" fill-rule="nonzero" fill-opacity="1" /><path clip-path="url(#clip510)" d="M1423.56 34.1734 Q1422.3 33.4443 1420.8 33.1202 Q1419.35 32.7556 1417.56 32.7556 Q1411.24 32.7556 1407.84 36.8875 Q1404.48 40.9789 1404.48 48.6757 L1404.48 72.576 L1396.98 72.576 L1396.98 27.2059 L1404.48 27.2059 L1404.48 34.2544 Q1406.83 30.1225 1410.6 28.1376 Q1414.36 26.1121 1419.75 26.1121 Q1420.52 26.1121 1421.45 26.2337 Q1422.38 26.3147 1423.52 26.5172 L1423.56 34.1734 Z" fill="#000000" fill-rule="nonzero" fill-opacity="1" /><path clip-path="url(#clip510)" d="M1447.13 32.4315 Q1441.14 32.4315 1437.66 37.1306 Q1434.17 41.7891 1434.17 49.9314 Q1434.17 58.0738 1437.62 62.7728 Q1441.1 67.4314 1447.13 67.4314 Q1453.09 67.4314 1456.57 62.7323 Q1460.06 58.0333 1460.06 49.9314 Q1460.06 41.8701 1456.57 37.1711 Q1453.09 32.4315 1447.13 32.4315 M1447.13 26.1121 Q1456.86 26.1121 1462.41 32.4315 Q1467.96 38.7509 1467.96 49.9314 Q1467.96 61.0714 1462.41 67.4314 Q1456.86 73.7508 1447.13 73.7508 Q1437.37 73.7508 1431.82 67.4314 Q1426.31 61.0714 1426.31 49.9314 Q1426.31 38.7509 1431.82 32.4315 Q1437.37 26.1121 1447.13 26.1121 Z" fill="#000000" fill-rule="nonzero" fill-opacity="1" /><path clip-path="url(#clip510)" d="M1506.6 34.1734 Q1505.35 33.4443 1503.85 33.1202 Q1502.39 32.7556 1500.61 32.7556 Q1494.29 32.7556 1490.88 36.8875 Q1487.52 40.9789 1487.52 48.6757 L1487.52 72.576 L1480.03 72.576 L1480.03 27.2059 L1487.52 27.2059 L1487.52 34.2544 Q1489.87 30.1225 1493.64 28.1376 Q1497.41 26.1121 1502.79 26.1121 Q1503.56 26.1121 1504.5 26.2337 Q1505.43 26.3147 1506.56 26.5172 L1506.6 34.1734 Z" fill="#000000" fill-rule="nonzero" fill-opacity="1" /><path clip-path="url(#clip510)" d="M1535.44 27.2059 L1543.34 27.2059 L1557.52 65.2844 L1571.7 27.2059 L1579.6 27.2059 L1562.59 72.576 L1552.46 72.576 L1535.44 27.2059 Z" fill="#000000" fill-rule="nonzero" fill-opacity="1" /><path clip-path="url(#clip510)" d="M1618.81 28.5427 L1618.81 35.5912 Q1615.65 33.9709 1612.25 33.1607 Q1608.85 32.3505 1605.2 32.3505 Q1599.65 32.3505 1596.86 34.0519 Q1594.1 35.7533 1594.1 39.156 Q1594.1 41.7486 1596.09 43.2475 Q1598.07 44.7058 1604.07 46.0426 L1606.62 46.6097 Q1614.56 48.3111 1617.88 51.4303 Q1621.24 54.509 1621.24 60.0587 Q1621.24 66.3781 1616.22 70.0644 Q1611.24 73.7508 1602.49 73.7508 Q1598.84 73.7508 1594.87 73.0216 Q1590.94 72.3329 1586.57 70.9151 L1586.57 63.2184 Q1590.7 65.3654 1594.71 66.4591 Q1598.72 67.5124 1602.65 67.5124 Q1607.92 67.5124 1610.75 65.73 Q1613.59 63.9071 1613.59 60.6258 Q1613.59 57.5877 1611.52 55.9673 Q1609.5 54.3469 1602.57 52.8481 L1599.98 52.2405 Q1593.05 50.7821 1589.97 47.7845 Q1586.89 44.7463 1586.89 39.4801 Q1586.89 33.0797 1591.43 29.5959 Q1595.97 26.1121 1604.31 26.1121 Q1608.44 26.1121 1612.09 26.7198 Q1615.73 27.3274 1618.81 28.5427 Z" fill="#000000" fill-rule="nonzero" fill-opacity="1" /><path clip-path="url(#clip510)" d="M1659.81 12.096 L1667.99 12.096 L1667.99 36.8875 L1697.72 36.8875 L1697.72 12.096 L1705.91 12.096 L1705.91 72.576 L1697.72 72.576 L1697.72 43.7741 L1667.99 43.7741 L1667.99 72.576 L1659.81 72.576 L1659.81 12.096 Z" fill="#000000" fill-rule="nonzero" fill-opacity="1" /><path clip-path="url(#clip510)" d="M1739.45 32.4315 Q1733.45 32.4315 1729.97 37.1306 Q1726.49 41.7891 1726.49 49.9314 Q1726.49 58.0738 1729.93 62.7728 Q1733.41 67.4314 1739.45 67.4314 Q1745.4 67.4314 1748.89 62.7323 Q1752.37 58.0333 1752.37 49.9314 Q1752.37 41.8701 1748.89 37.1711 Q1745.4 32.4315 1739.45 32.4315 M1739.45 26.1121 Q1749.17 26.1121 1754.72 32.4315 Q1760.27 38.7509 1760.27 49.9314 Q1760.27 61.0714 1754.72 67.4314 Q1749.17 73.7508 1739.45 73.7508 Q1729.69 73.7508 1724.14 67.4314 Q1718.63 61.0714 1718.63 49.9314 Q1718.63 38.7509 1724.14 32.4315 Q1729.69 26.1121 1739.45 26.1121 Z" fill="#000000" fill-rule="nonzero" fill-opacity="1" /><path clip-path="url(#clip510)" d="M1798.92 34.1734 Q1797.66 33.4443 1796.16 33.1202 Q1794.7 32.7556 1792.92 32.7556 Q1786.6 32.7556 1783.2 36.8875 Q1779.84 40.9789 1779.84 48.6757 L1779.84 72.576 L1772.34 72.576 L1772.34 27.2059 L1779.84 27.2059 L1779.84 34.2544 Q1782.19 30.1225 1785.95 28.1376 Q1789.72 26.1121 1795.11 26.1121 Q1795.88 26.1121 1796.81 26.2337 Q1797.74 26.3147 1798.87 26.5172 L1798.92 34.1734 Z" fill="#000000" fill-rule="nonzero" fill-opacity="1" /><path clip-path="url(#clip510)" d="M1806.73 27.2059 L1814.19 27.2059 L1814.19 72.576 L1806.73 72.576 L1806.73 27.2059 M1806.73 9.54393 L1814.19 9.54393 L1814.19 18.9825 L1806.73 18.9825 L1806.73 9.54393 Z" fill="#000000" fill-rule="nonzero" fill-opacity="1" /><path clip-path="url(#clip510)" d="M1826.54 27.2059 L1861.95 27.2059 L1861.95 34.0114 L1833.92 66.6212 L1861.95 66.6212 L1861.95 72.576 L1825.53 72.576 L1825.53 65.7705 L1853.56 33.1607 L1826.54 33.1607 L1826.54 27.2059 Z" fill="#000000" fill-rule="nonzero" fill-opacity="1" /><path clip-path="url(#clip510)" d="M1890.91 32.4315 Q1884.92 32.4315 1881.43 37.1306 Q1877.95 41.7891 1877.95 49.9314 Q1877.95 58.0738 1881.39 62.7728 Q1884.88 67.4314 1890.91 67.4314 Q1896.87 67.4314 1900.35 62.7323 Q1903.83 58.0333 1903.83 49.9314 Q1903.83 41.8701 1900.35 37.1711 Q1896.87 32.4315 1890.91 32.4315 M1890.91 26.1121 Q1900.63 26.1121 1906.18 32.4315 Q1911.73 38.7509 1911.73 49.9314 Q1911.73 61.0714 1906.18 67.4314 Q1900.63 73.7508 1890.91 73.7508 Q1881.15 73.7508 1875.6 67.4314 Q1870.09 61.0714 1870.09 49.9314 Q1870.09 38.7509 1875.6 32.4315 Q1881.15 26.1121 1890.91 26.1121 Z" fill="#000000" fill-rule="nonzero" fill-opacity="1" /><path clip-path="url(#clip510)" d="M1961.8 45.1919 L1961.8 72.576 L1954.35 72.576 L1954.35 45.4349 Q1954.35 38.994 1951.84 35.7938 Q1949.33 32.5936 1944.3 32.5936 Q1938.27 32.5936 1934.78 36.4419 Q1931.3 40.2903 1931.3 46.9338 L1931.3 72.576 L1923.8 72.576 L1923.8 27.2059 L1931.3 27.2059 L1931.3 34.2544 Q1933.97 30.163 1937.58 28.1376 Q1941.22 26.1121 1945.96 26.1121 Q1953.78 26.1121 1957.79 30.9732 Q1961.8 35.7938 1961.8 45.1919 Z" fill="#000000" fill-rule="nonzero" fill-opacity="1" /><circle clip-path="url(#clip512)" cx="338.848" cy="160.256" r="14.4" fill="#009af9" fill-rule="evenodd" fill-opacity="1" stroke="#000000" stroke-opacity="1" stroke-width="3.2"/>
<circle clip-path="url(#clip512)" cx="406.27" cy="667.233" r="14.4" fill="#009af9" fill-rule="evenodd" fill-opacity="1" stroke="#000000" stroke-opacity="1" stroke-width="3.2"/>
<circle clip-path="url(#clip512)" cx="473.692" cy="861.4" r="14.4" fill="#009af9" fill-rule="evenodd" fill-opacity="1" stroke="#000000" stroke-opacity="1" stroke-width="3.2"/>
<circle clip-path="url(#clip512)" cx="541.115" cy="969.775" r="14.4" fill="#009af9" fill-rule="evenodd" fill-opacity="1" stroke="#000000" stroke-opacity="1" stroke-width="3.2"/>
<circle clip-path="url(#clip512)" cx="608.537" cy="1048.96" r="14.4" fill="#009af9" fill-rule="evenodd" fill-opacity="1" stroke="#000000" stroke-opacity="1" stroke-width="3.2"/>
<circle clip-path="url(#clip512)" cx="675.96" cy="1100" r="14.4" fill="#009af9" fill-rule="evenodd" fill-opacity="1" stroke="#000000" stroke-opacity="1" stroke-width="3.2"/>
<circle clip-path="url(#clip512)" cx="743.382" cy="1129.97" r="14.4" fill="#009af9" fill-rule="evenodd" fill-opacity="1" stroke="#000000" stroke-opacity="1" stroke-width="3.2"/>
<circle clip-path="url(#clip512)" cx="810.805" cy="1148.11" r="14.4" fill="#009af9" fill-rule="evenodd" fill-opacity="1" stroke="#000000" stroke-opacity="1" stroke-width="3.2"/>
<circle clip-path="url(#clip512)" cx="878.227" cy="1176.47" r="14.4" fill="#009af9" fill-rule="evenodd" fill-opacity="1" stroke="#000000" stroke-opacity="1" stroke-width="3.2"/>
<circle clip-path="url(#clip512)" cx="945.65" cy="1200.37" r="14.4" fill="#009af9" fill-rule="evenodd" fill-opacity="1" stroke="#000000" stroke-opacity="1" stroke-width="3.2"/>
<circle clip-path="url(#clip512)" cx="1013.07" cy="1221.79" r="14.4" fill="#009af9" fill-rule="evenodd" fill-opacity="1" stroke="#000000" stroke-opacity="1" stroke-width="3.2"/>
<circle clip-path="url(#clip512)" cx="1080.49" cy="1241" r="14.4" fill="#009af9" fill-rule="evenodd" fill-opacity="1" stroke="#000000" stroke-opacity="1" stroke-width="3.2"/>
<circle clip-path="url(#clip512)" cx="1147.92" cy="1269.59" r="14.4" fill="#009af9" fill-rule="evenodd" fill-opacity="1" stroke="#000000" stroke-opacity="1" stroke-width="3.2"/>
<circle clip-path="url(#clip512)" cx="1215.34" cy="1293.96" r="14.4" fill="#009af9" fill-rule="evenodd" fill-opacity="1" stroke="#000000" stroke-opacity="1" stroke-width="3.2"/>
<circle clip-path="url(#clip512)" cx="1282.76" cy="1310.58" r="14.4" fill="#009af9" fill-rule="evenodd" fill-opacity="1" stroke="#000000" stroke-opacity="1" stroke-width="3.2"/>
<circle clip-path="url(#clip512)" cx="1350.18" cy="1325.57" r="14.4" fill="#009af9" fill-rule="evenodd" fill-opacity="1" stroke="#000000" stroke-opacity="1" stroke-width="3.2"/>
<circle clip-path="url(#clip512)" cx="1417.61" cy="1342.48" r="14.4" fill="#009af9" fill-rule="evenodd" fill-opacity="1" stroke="#000000" stroke-opacity="1" stroke-width="3.2"/>
<circle clip-path="url(#clip512)" cx="1485.03" cy="1366.66" r="14.4" fill="#009af9" fill-rule="evenodd" fill-opacity="1" stroke="#000000" stroke-opacity="1" stroke-width="3.2"/>
<circle clip-path="url(#clip512)" cx="1552.45" cy="1386.4" r="14.4" fill="#009af9" fill-rule="evenodd" fill-opacity="1" stroke="#000000" stroke-opacity="1" stroke-width="3.2"/>
<circle clip-path="url(#clip512)" cx="1619.87" cy="1377.34" r="14.4" fill="#009af9" fill-rule="evenodd" fill-opacity="1" stroke="#000000" stroke-opacity="1" stroke-width="3.2"/>
<circle clip-path="url(#clip512)" cx="1687.3" cy="1368.43" r="14.4" fill="#009af9" fill-rule="evenodd" fill-opacity="1" stroke="#000000" stroke-opacity="1" stroke-width="3.2"/>
<circle clip-path="url(#clip512)" cx="1754.72" cy="1360.52" r="14.4" fill="#009af9" fill-rule="evenodd" fill-opacity="1" stroke="#000000" stroke-opacity="1" stroke-width="3.2"/>
<circle clip-path="url(#clip512)" cx="1822.14" cy="1355.75" r="14.4" fill="#009af9" fill-rule="evenodd" fill-opacity="1" stroke="#000000" stroke-opacity="1" stroke-width="3.2"/>
<circle clip-path="url(#clip512)" cx="1889.56" cy="1352.52" r="14.4" fill="#009af9" fill-rule="evenodd" fill-opacity="1" stroke="#000000" stroke-opacity="1" stroke-width="3.2"/>
<circle clip-path="url(#clip512)" cx="1956.99" cy="1350.1" r="14.4" fill="#009af9" fill-rule="evenodd" fill-opacity="1" stroke="#000000" stroke-opacity="1" stroke-width="3.2"/>
<circle clip-path="url(#clip512)" cx="2024.41" cy="1345.99" r="14.4" fill="#009af9" fill-rule="evenodd" fill-opacity="1" stroke="#000000" stroke-opacity="1" stroke-width="3.2"/>
<circle clip-path="url(#clip512)" cx="2091.83" cy="1342.15" r="14.4" fill="#009af9" fill-rule="evenodd" fill-opacity="1" stroke="#000000" stroke-opacity="1" stroke-width="3.2"/>
<circle clip-path="url(#clip512)" cx="2159.25" cy="1341.89" r="14.4" fill="#009af9" fill-rule="evenodd" fill-opacity="1" stroke="#000000" stroke-opacity="1" stroke-width="3.2"/>
<circle clip-path="url(#clip512)" cx="2226.68" cy="1341.65" r="14.4" fill="#009af9" fill-rule="evenodd" fill-opacity="1" stroke="#000000" stroke-opacity="1" stroke-width="3.2"/>
<circle clip-path="url(#clip512)" cx="2294.1" cy="1342.02" r="14.4" fill="#009af9" fill-rule="evenodd" fill-opacity="1" stroke="#000000" stroke-opacity="1" stroke-width="3.2"/>
<path clip-path="url(#clip510)" d="M2023.98 270.476 L2283.67 270.476 L2283.67 166.796 L2023.98 166.796  Z" fill="#ffffff" fill-rule="evenodd" fill-opacity="1"/>
<polyline clip-path="url(#clip510)" style="stroke:#000000; stroke-linecap:round; stroke-linejoin:round; stroke-width:4; stroke-opacity:1; fill:none" points="2023.98,270.476 2283.67,270.476 2283.67,166.796 2023.98,166.796 2023.98,270.476 "/>
<circle clip-path="url(#clip510)" cx="2116.1" cy="218.636" r="20.48" fill="#009af9" fill-rule="evenodd" fill-opacity="1" stroke="#000000" stroke-opacity="1" stroke-width="4.55111"/>
<path clip-path="url(#clip510)" d="M2222.05 238.323 Q2220.25 242.953 2218.54 244.365 Q2216.82 245.777 2213.95 245.777 L2210.55 245.777 L2210.55 242.212 L2213.05 242.212 Q2214.81 242.212 2215.78 241.379 Q2216.75 240.545 2217.93 237.443 L2218.7 235.499 L2208.21 209.99 L2212.73 209.99 L2220.83 230.268 L2228.93 209.99 L2233.44 209.99 L2222.05 238.323 Z" fill="#000000" fill-rule="nonzero" fill-opacity="1" /><path clip-path="url(#clip510)" d="M2240.73 231.981 L2248.37 231.981 L2248.37 205.615 L2240.06 207.282 L2240.06 203.022 L2248.33 201.356 L2253 201.356 L2253 231.981 L2260.64 231.981 L2260.64 235.916 L2240.73 235.916 L2240.73 231.981 Z" fill="#000000" fill-rule="nonzero" fill-opacity="1" /></svg>
