<?xml version="1.0" encoding="utf-8"?>
<svg xmlns="http://www.w3.org/2000/svg" xmlns:xlink="http://www.w3.org/1999/xlink" width="600" height="400" viewBox="0 0 2400 1600">
<defs>
  <clipPath id="clip430">
    <rect x="0" y="0" width="2400" height="1600"/>
  </clipPath>
</defs>
<path clip-path="url(#clip430)" d="M0 1600 L2400 1600 L2400 0 L0 0  Z" fill="#ffffff" fill-rule="evenodd" fill-opacity="1"/>
<defs>
  <clipPath id="clip431">
    <rect x="480" y="0" width="1681" height="1600"/>
  </clipPath>
</defs>
<path clip-path="url(#clip430)" d="M277.621 1423.18 L2352.76 1423.18 L2352.76 123.472 L277.621 123.472  Z" fill="#ffffff" fill-rule="evenodd" fill-opacity="1"/>
<defs>
  <clipPath id="clip432">
    <rect x="277" y="123" width="2076" height="1301"/>
  </clipPath>
</defs>
<polyline clip-path="url(#clip432)" style="stroke:#000000; stroke-linecap:round; stroke-linejoin:round; stroke-width:2; stroke-opacity:0.1; fill:none" points="546.102,1423.18 546.102,123.472 "/>
<polyline clip-path="url(#clip432)" style="stroke:#000000; stroke-linecap:round; stroke-linejoin:round; stroke-width:2; stroke-opacity:0.1; fill:none" points="895.686,1423.18 895.686,123.472 "/>
<polyline clip-path="url(#clip432)" style="stroke:#000000; stroke-linecap:round; stroke-linejoin:round; stroke-width:2; stroke-opacity:0.1; fill:none" points="1245.27,1423.18 1245.27,123.472 "/>
<polyline clip-path="url(#clip432)" style="stroke:#000000; stroke-linecap:round; stroke-linejoin:round; stroke-width:2; stroke-opacity:0.1; fill:none" points="1594.86,1423.18 1594.86,123.472 "/>
<polyline clip-path="url(#clip432)" style="stroke:#000000; stroke-linecap:round; stroke-linejoin:round; stroke-width:2; stroke-opacity:0.1; fill:none" points="1944.44,1423.18 1944.44,123.472 "/>
<polyline clip-path="url(#clip432)" style="stroke:#000000; stroke-linecap:round; stroke-linejoin:round; stroke-width:2; stroke-opacity:0.1; fill:none" points="2294.03,1423.18 2294.03,123.472 "/>
<polyline clip-path="url(#clip430)" style="stroke:#000000; stroke-linecap:round; stroke-linejoin:round; stroke-width:4; stroke-opacity:1; fill:none" points="277.621,1423.18 2352.76,1423.18 "/>
<polyline clip-path="url(#clip430)" style="stroke:#000000; stroke-linecap:round; stroke-linejoin:round; stroke-width:4; stroke-opacity:1; fill:none" points="546.102,1423.18 546.102,1404.28 "/>
<polyline clip-path="url(#clip430)" style="stroke:#000000; stroke-linecap:round; stroke-linejoin:round; stroke-width:4; stroke-opacity:1; fill:none" points="895.686,1423.18 895.686,1404.28 "/>
<polyline clip-path="url(#clip430)" style="stroke:#000000; stroke-linecap:round; stroke-linejoin:round; stroke-width:4; stroke-opacity:1; fill:none" points="1245.27,1423.18 1245.27,1404.28 "/>
<polyline clip-path="url(#clip430)" style="stroke:#000000; stroke-linecap:round; stroke-linejoin:round; stroke-width:4; stroke-opacity:1; fill:none" points="1594.86,1423.18 1594.86,1404.28 "/>
<polyline clip-path="url(#clip430)" style="stroke:#000000; stroke-linecap:round; stroke-linejoin:round; stroke-width:4; stroke-opacity:1; fill:none" points="1944.44,1423.18 1944.44,1404.28 "/>
<polyline clip-path="url(#clip430)" style="stroke:#000000; stroke-linecap:round; stroke-linejoin:round; stroke-width:4; stroke-opacity:1; fill:none" points="2294.03,1423.18 2294.03,1404.28 "/>
<path clip-path="url(#clip430)" d="M536.38 1451.02 L554.736 1451.02 L554.736 1454.96 L540.662 1454.96 L540.662 1463.43 Q541.68 1463.08 542.699 1462.92 Q543.717 1462.73 544.736 1462.73 Q550.523 1462.73 553.903 1465.9 Q557.282 1469.08 557.282 1474.49 Q557.282 1480.07 553.81 1483.17 Q550.338 1486.25 544.018 1486.25 Q541.842 1486.25 539.574 1485.88 Q537.329 1485.51 534.921 1484.77 L534.921 1480.07 Q537.005 1481.2 539.227 1481.76 Q541.449 1482.32 543.926 1482.32 Q547.93 1482.32 550.268 1480.21 Q552.606 1478.1 552.606 1474.49 Q552.606 1470.88 550.268 1468.77 Q547.93 1466.67 543.926 1466.67 Q542.051 1466.67 540.176 1467.08 Q538.324 1467.5 536.38 1468.38 L536.38 1451.02 Z" fill="#000000" fill-rule="nonzero" fill-opacity="1" /><path clip-path="url(#clip430)" d="M870.374 1481.64 L878.013 1481.64 L878.013 1455.28 L869.703 1456.95 L869.703 1452.69 L877.967 1451.02 L882.643 1451.02 L882.643 1481.64 L890.281 1481.64 L890.281 1485.58 L870.374 1485.58 L870.374 1481.64 Z" fill="#000000" fill-rule="nonzero" fill-opacity="1" /><path clip-path="url(#clip430)" d="M909.726 1454.1 Q906.115 1454.1 904.286 1457.66 Q902.48 1461.2 902.48 1468.33 Q902.48 1475.44 904.286 1479.01 Q906.115 1482.55 909.726 1482.55 Q913.36 1482.55 915.166 1479.01 Q916.994 1475.44 916.994 1468.33 Q916.994 1461.2 915.166 1457.66 Q913.36 1454.1 909.726 1454.1 M909.726 1450.39 Q915.536 1450.39 918.591 1455 Q921.67 1459.58 921.67 1468.33 Q921.67 1477.06 918.591 1481.67 Q915.536 1486.25 909.726 1486.25 Q903.916 1486.25 900.837 1481.67 Q897.781 1477.06 897.781 1468.33 Q897.781 1459.58 900.837 1455 Q903.916 1450.39 909.726 1450.39 Z" fill="#000000" fill-rule="nonzero" fill-opacity="1" /><path clip-path="url(#clip430)" d="M1220.46 1481.64 L1228.1 1481.64 L1228.1 1455.28 L1219.79 1456.95 L1219.79 1452.69 L1228.05 1451.02 L1232.73 1451.02 L1232.73 1481.64 L1240.36 1481.64 L1240.36 1485.58 L1220.46 1485.58 L1220.46 1481.64 Z" fill="#000000" fill-rule="nonzero" fill-opacity="1" /><path clip-path="url(#clip430)" d="M1249.85 1451.02 L1268.21 1451.02 L1268.21 1454.96 L1254.14 1454.96 L1254.14 1463.43 Q1255.16 1463.08 1256.17 1462.92 Q1257.19 1462.73 1258.21 1462.73 Q1264 1462.73 1267.38 1465.9 Q1270.76 1469.08 1270.76 1474.49 Q1270.76 1480.07 1267.29 1483.17 Q1263.81 1486.25 1257.49 1486.25 Q1255.32 1486.25 1253.05 1485.88 Q1250.8 1485.51 1248.4 1484.77 L1248.4 1480.07 Q1250.48 1481.2 1252.7 1481.76 Q1254.92 1482.32 1257.4 1482.32 Q1261.41 1482.32 1263.74 1480.21 Q1266.08 1478.1 1266.08 1474.49 Q1266.08 1470.88 1263.74 1468.77 Q1261.41 1466.67 1257.4 1466.67 Q1255.53 1466.67 1253.65 1467.08 Q1251.8 1467.5 1249.85 1468.38 L1249.85 1451.02 Z" fill="#000000" fill-rule="nonzero" fill-opacity="1" /><path clip-path="url(#clip430)" d="M1573.63 1481.64 L1589.95 1481.64 L1589.95 1485.58 L1568 1485.58 L1568 1481.64 Q1570.67 1478.89 1575.25 1474.26 Q1579.86 1469.61 1581.04 1468.27 Q1583.28 1465.74 1584.16 1464.01 Q1585.06 1462.25 1585.06 1460.56 Q1585.06 1457.8 1583.12 1456.07 Q1581.2 1454.33 1578.1 1454.33 Q1575.9 1454.33 1573.44 1455.09 Q1571.01 1455.86 1568.24 1457.41 L1568.24 1452.69 Q1571.06 1451.55 1573.51 1450.97 Q1575.97 1450.39 1578 1450.39 Q1583.37 1450.39 1586.57 1453.08 Q1589.76 1455.77 1589.76 1460.26 Q1589.76 1462.39 1588.95 1464.31 Q1588.17 1466.2 1586.06 1468.8 Q1585.48 1469.47 1582.38 1472.69 Q1579.28 1475.88 1573.63 1481.64 Z" fill="#000000" fill-rule="nonzero" fill-opacity="1" /><path clip-path="url(#clip430)" d="M1609.76 1454.1 Q1606.15 1454.1 1604.32 1457.66 Q1602.52 1461.2 1602.52 1468.33 Q1602.52 1475.44 1604.32 1479.01 Q1606.15 1482.55 1609.76 1482.55 Q1613.4 1482.55 1615.2 1479.01 Q1617.03 1475.44 1617.03 1468.33 Q1617.03 1461.2 1615.2 1457.66 Q1613.4 1454.1 1609.76 1454.1 M1609.76 1450.39 Q1615.57 1450.39 1618.63 1455 Q1621.71 1459.58 1621.71 1468.33 Q1621.71 1477.06 1618.63 1481.67 Q1615.57 1486.25 1609.76 1486.25 Q1603.95 1486.25 1600.87 1481.67 Q1597.82 1477.06 1597.82 1468.33 Q1597.82 1459.58 1600.87 1455 Q1603.95 1450.39 1609.76 1450.39 Z" fill="#000000" fill-rule="nonzero" fill-opacity="1" /><path clip-path="url(#clip430)" d="M1923.71 1481.64 L1940.03 1481.64 L1940.03 1485.58 L1918.09 1485.58 L1918.09 1481.64 Q1920.75 1478.89 1925.33 1474.26 Q1929.94 1469.61 1931.12 1468.27 Q1933.36 1465.74 1934.24 1464.01 Q1935.15 1462.25 1935.15 1460.56 Q1935.15 1457.8 1933.2 1456.07 Q1931.28 1454.33 1928.18 1454.33 Q1925.98 1454.33 1923.53 1455.09 Q1921.1 1455.86 1918.32 1457.41 L1918.32 1452.69 Q1921.14 1451.55 1923.6 1450.97 Q1926.05 1450.39 1928.09 1450.39 Q1933.46 1450.39 1936.65 1453.08 Q1939.85 1455.77 1939.85 1460.26 Q1939.85 1462.39 1939.04 1464.31 Q1938.25 1466.2 1936.14 1468.8 Q1935.56 1469.47 1932.46 1472.69 Q1929.36 1475.88 1923.71 1481.64 Z" fill="#000000" fill-rule="nonzero" fill-opacity="1" /><path clip-path="url(#clip430)" d="M1949.89 1451.02 L1968.25 1451.02 L1968.25 1454.96 L1954.17 1454.96 L1954.17 1463.43 Q1955.19 1463.08 1956.21 1462.92 Q1957.23 1462.73 1958.25 1462.73 Q1964.04 1462.73 1967.42 1465.9 Q1970.79 1469.08 1970.79 1474.49 Q1970.79 1480.07 1967.32 1483.17 Q1963.85 1486.25 1957.53 1486.25 Q1955.36 1486.25 1953.09 1485.88 Q1950.84 1485.51 1948.43 1484.77 L1948.43 1480.07 Q1950.52 1481.2 1952.74 1481.76 Q1954.96 1482.32 1957.44 1482.32 Q1961.44 1482.32 1963.78 1480.21 Q1966.12 1478.1 1966.12 1474.49 Q1966.12 1470.88 1963.78 1468.77 Q1961.44 1466.67 1957.44 1466.67 Q1955.56 1466.67 1953.69 1467.08 Q1951.84 1467.5 1949.89 1468.38 L1949.89 1451.02 Z" fill="#000000" fill-rule="nonzero" fill-opacity="1" /><path clip-path="url(#clip430)" d="M2282.87 1466.95 Q2286.22 1467.66 2288.1 1469.93 Q2290 1472.2 2290 1475.53 Q2290 1480.65 2286.48 1483.45 Q2282.96 1486.25 2276.48 1486.25 Q2274.3 1486.25 2271.99 1485.81 Q2269.7 1485.39 2267.24 1484.54 L2267.24 1480.02 Q2269.19 1481.16 2271.5 1481.74 Q2273.82 1482.32 2276.34 1482.32 Q2280.74 1482.32 2283.03 1480.58 Q2285.35 1478.84 2285.35 1475.53 Q2285.35 1472.48 2283.19 1470.77 Q2281.06 1469.03 2277.24 1469.03 L2273.22 1469.03 L2273.22 1465.19 L2277.43 1465.19 Q2280.88 1465.19 2282.71 1463.82 Q2284.53 1462.43 2284.53 1459.84 Q2284.53 1457.18 2282.64 1455.77 Q2280.76 1454.33 2277.24 1454.33 Q2275.32 1454.33 2273.12 1454.75 Q2270.92 1455.16 2268.29 1456.04 L2268.29 1451.88 Q2270.95 1451.14 2273.26 1450.77 Q2275.6 1450.39 2277.66 1450.39 Q2282.98 1450.39 2286.09 1452.83 Q2289.19 1455.23 2289.19 1459.35 Q2289.19 1462.22 2287.54 1464.21 Q2285.9 1466.18 2282.87 1466.95 Z" fill="#000000" fill-rule="nonzero" fill-opacity="1" /><path clip-path="url(#clip430)" d="M2308.86 1454.1 Q2305.25 1454.1 2303.42 1457.66 Q2301.62 1461.2 2301.62 1468.33 Q2301.62 1475.44 2303.42 1479.01 Q2305.25 1482.55 2308.86 1482.55 Q2312.5 1482.55 2314.3 1479.01 Q2316.13 1475.44 2316.13 1468.33 Q2316.13 1461.2 2314.3 1457.66 Q2312.5 1454.1 2308.86 1454.1 M2308.86 1450.39 Q2314.67 1450.39 2317.73 1455 Q2320.81 1459.58 2320.81 1468.33 Q2320.81 1477.06 2317.73 1481.67 Q2314.67 1486.25 2308.86 1486.25 Q2303.05 1486.25 2299.97 1481.67 Q2296.92 1477.06 2296.92 1468.33 Q2296.92 1459.58 2299.97 1455 Q2303.05 1450.39 2308.86 1450.39 Z" fill="#000000" fill-rule="nonzero" fill-opacity="1" /><path clip-path="url(#clip430)" d="M1230.02 1546.53 L1230.02 1568.04 L1224.16 1568.04 L1224.16 1546.72 Q1224.16 1541.66 1222.19 1539.14 Q1220.21 1536.63 1216.27 1536.63 Q1211.52 1536.63 1208.79 1539.65 Q1206.05 1542.68 1206.05 1547.9 L1206.05 1568.04 L1200.16 1568.04 L1200.16 1518.52 L1206.05 1518.52 L1206.05 1537.93 Q1208.15 1534.72 1210.98 1533.13 Q1213.85 1531.54 1217.57 1531.54 Q1223.71 1531.54 1226.86 1535.36 Q1230.02 1539.14 1230.02 1546.53 Z" fill="#000000" fill-rule="nonzero" fill-opacity="1" /><path clip-path="url(#clip430)" d="M1255.51 1536.5 Q1250.8 1536.5 1248.06 1540.19 Q1245.32 1543.85 1245.32 1550.25 Q1245.32 1556.65 1248.03 1560.34 Q1250.77 1564 1255.51 1564 Q1260.19 1564 1262.93 1560.31 Q1265.66 1556.62 1265.66 1550.25 Q1265.66 1543.92 1262.93 1540.23 Q1260.19 1536.5 1255.51 1536.5 M1255.51 1531.54 Q1263.15 1531.54 1267.51 1536.5 Q1271.87 1541.47 1271.87 1550.25 Q1271.87 1559 1267.51 1564 Q1263.15 1568.97 1255.51 1568.97 Q1247.84 1568.97 1243.48 1564 Q1239.15 1559 1239.15 1550.25 Q1239.15 1541.47 1243.48 1536.5 Q1247.84 1531.54 1255.51 1531.54 Z" fill="#000000" fill-rule="nonzero" fill-opacity="1" /><path clip-path="url(#clip430)" d="M1302.23 1537.87 Q1301.25 1537.3 1300.07 1537.04 Q1298.92 1536.76 1297.52 1536.76 Q1292.56 1536.76 1289.88 1540 Q1287.24 1543.22 1287.24 1549.27 L1287.24 1568.04 L1281.35 1568.04 L1281.35 1532.4 L1287.24 1532.4 L1287.24 1537.93 Q1289.09 1534.69 1292.05 1533.13 Q1295.01 1531.54 1299.24 1531.54 Q1299.85 1531.54 1300.58 1531.63 Q1301.31 1531.7 1302.2 1531.85 L1302.23 1537.87 Z" fill="#000000" fill-rule="nonzero" fill-opacity="1" /><path clip-path="url(#clip430)" d="M1308.38 1532.4 L1314.23 1532.4 L1314.23 1568.04 L1308.38 1568.04 L1308.38 1532.4 M1308.38 1518.52 L1314.23 1518.52 L1314.23 1525.93 L1308.38 1525.93 L1308.38 1518.52 Z" fill="#000000" fill-rule="nonzero" fill-opacity="1" /><path clip-path="url(#clip430)" d="M1323.94 1532.4 L1351.76 1532.4 L1351.76 1537.74 L1329.73 1563.37 L1351.76 1563.37 L1351.76 1568.04 L1323.15 1568.04 L1323.15 1562.7 L1345.17 1537.07 L1323.94 1537.07 L1323.94 1532.4 Z" fill="#000000" fill-rule="nonzero" fill-opacity="1" /><path clip-path="url(#clip430)" d="M1374.52 1536.5 Q1369.81 1536.5 1367.07 1540.19 Q1364.33 1543.85 1364.33 1550.25 Q1364.33 1556.65 1367.04 1560.34 Q1369.77 1564 1374.52 1564 Q1379.2 1564 1381.93 1560.31 Q1384.67 1556.62 1384.67 1550.25 Q1384.67 1543.92 1381.93 1540.23 Q1379.2 1536.5 1374.52 1536.5 M1374.52 1531.54 Q1382.16 1531.54 1386.52 1536.5 Q1390.88 1541.47 1390.88 1550.25 Q1390.88 1559 1386.52 1564 Q1382.16 1568.97 1374.52 1568.97 Q1366.85 1568.97 1362.49 1564 Q1358.16 1559 1358.16 1550.25 Q1358.16 1541.47 1362.49 1536.5 Q1366.85 1531.54 1374.52 1531.54 Z" fill="#000000" fill-rule="nonzero" fill-opacity="1" /><path clip-path="url(#clip430)" d="M1430.22 1546.53 L1430.22 1568.04 L1424.36 1568.04 L1424.36 1546.72 Q1424.36 1541.66 1422.39 1539.14 Q1420.41 1536.63 1416.47 1536.63 Q1411.72 1536.63 1408.99 1539.65 Q1406.25 1542.68 1406.25 1547.9 L1406.25 1568.04 L1400.36 1568.04 L1400.36 1532.4 L1406.25 1532.4 L1406.25 1537.93 Q1408.35 1534.72 1411.18 1533.13 Q1414.05 1531.54 1417.77 1531.54 Q1423.91 1531.54 1427.07 1535.36 Q1430.22 1539.14 1430.22 1546.53 Z" fill="#000000" fill-rule="nonzero" fill-opacity="1" /><polyline clip-path="url(#clip432)" style="stroke:#000000; stroke-linecap:round; stroke-linejoin:round; stroke-width:2; stroke-opacity:0.1; fill:none" points="277.621,1192.11 2352.76,1192.11 "/>
<polyline clip-path="url(#clip432)" style="stroke:#000000; stroke-linecap:round; stroke-linejoin:round; stroke-width:2; stroke-opacity:0.1; fill:none" points="277.621,939.757 2352.76,939.757 "/>
<polyline clip-path="url(#clip432)" style="stroke:#000000; stroke-linecap:round; stroke-linejoin:round; stroke-width:2; stroke-opacity:0.1; fill:none" points="277.621,687.403 2352.76,687.403 "/>
<polyline clip-path="url(#clip432)" style="stroke:#000000; stroke-linecap:round; stroke-linejoin:round; stroke-width:2; stroke-opacity:0.1; fill:none" points="277.621,435.049 2352.76,435.049 "/>
<polyline clip-path="url(#clip432)" style="stroke:#000000; stroke-linecap:round; stroke-linejoin:round; stroke-width:2; stroke-opacity:0.1; fill:none" points="277.621,182.695 2352.76,182.695 "/>
<polyline clip-path="url(#clip430)" style="stroke:#000000; stroke-linecap:round; stroke-linejoin:round; stroke-width:4; stroke-opacity:1; fill:none" points="277.621,1423.18 277.621,123.472 "/>
<polyline clip-path="url(#clip430)" style="stroke:#000000; stroke-linecap:round; stroke-linejoin:round; stroke-width:4; stroke-opacity:1; fill:none" points="277.621,1192.11 296.518,1192.11 "/>
<polyline clip-path="url(#clip430)" style="stroke:#000000; stroke-linecap:round; stroke-linejoin:round; stroke-width:4; stroke-opacity:1; fill:none" points="277.621,939.757 296.518,939.757 "/>
<polyline clip-path="url(#clip430)" style="stroke:#000000; stroke-linecap:round; stroke-linejoin:round; stroke-width:4; stroke-opacity:1; fill:none" points="277.621,687.403 296.518,687.403 "/>
<polyline clip-path="url(#clip430)" style="stroke:#000000; stroke-linecap:round; stroke-linejoin:round; stroke-width:4; stroke-opacity:1; fill:none" points="277.621,435.049 296.518,435.049 "/>
<polyline clip-path="url(#clip430)" style="stroke:#000000; stroke-linecap:round; stroke-linejoin:round; stroke-width:4; stroke-opacity:1; fill:none" points="277.621,182.695 296.518,182.695 "/>
<path clip-path="url(#clip430)" d="M115.927 1205.46 L123.566 1205.46 L123.566 1179.09 L115.256 1180.76 L115.256 1176.5 L123.519 1174.83 L128.195 1174.83 L128.195 1205.46 L135.834 1205.46 L135.834 1209.39 L115.927 1209.39 L115.927 1205.46 Z" fill="#000000" fill-rule="nonzero" fill-opacity="1" /><path clip-path="url(#clip430)" d="M145.279 1203.51 L150.163 1203.51 L150.163 1209.39 L145.279 1209.39 L145.279 1203.51 Z" fill="#000000" fill-rule="nonzero" fill-opacity="1" /><path clip-path="url(#clip430)" d="M170.348 1177.91 Q166.737 1177.91 164.908 1181.47 Q163.102 1185.02 163.102 1192.15 Q163.102 1199.25 164.908 1202.82 Q166.737 1206.36 170.348 1206.36 Q173.982 1206.36 175.788 1202.82 Q177.616 1199.25 177.616 1192.15 Q177.616 1185.02 175.788 1181.47 Q173.982 1177.91 170.348 1177.91 M170.348 1174.21 Q176.158 1174.21 179.214 1178.81 Q182.292 1183.4 182.292 1192.15 Q182.292 1200.87 179.214 1205.48 Q176.158 1210.06 170.348 1210.06 Q164.538 1210.06 161.459 1205.48 Q158.403 1200.87 158.403 1192.15 Q158.403 1183.4 161.459 1178.81 Q164.538 1174.21 170.348 1174.21 Z" fill="#000000" fill-rule="nonzero" fill-opacity="1" /><path clip-path="url(#clip430)" d="M189.329 1174.83 L211.551 1174.83 L211.551 1176.82 L199.005 1209.39 L194.121 1209.39 L205.926 1178.77 L189.329 1178.77 L189.329 1174.83 Z" fill="#000000" fill-rule="nonzero" fill-opacity="1" /><path clip-path="url(#clip430)" d="M220.718 1174.83 L239.074 1174.83 L239.074 1178.77 L225 1178.77 L225 1187.24 Q226.019 1186.89 227.037 1186.73 Q228.056 1186.54 229.074 1186.54 Q234.861 1186.54 238.241 1189.72 Q241.621 1192.89 241.621 1198.3 Q241.621 1203.88 238.148 1206.98 Q234.676 1210.06 228.357 1210.06 Q226.181 1210.06 223.912 1209.69 Q221.667 1209.32 219.26 1208.58 L219.26 1203.88 Q221.343 1205.02 223.565 1205.57 Q225.787 1206.13 228.264 1206.13 Q232.269 1206.13 234.607 1204.02 Q236.945 1201.91 236.945 1198.3 Q236.945 1194.69 234.607 1192.59 Q232.269 1190.48 228.264 1190.48 Q226.389 1190.48 224.514 1190.9 Q222.662 1191.31 220.718 1192.19 L220.718 1174.83 Z" fill="#000000" fill-rule="nonzero" fill-opacity="1" /><path clip-path="url(#clip430)" d="M114.931 953.102 L122.57 953.102 L122.57 926.736 L114.26 928.403 L114.26 924.144 L122.524 922.477 L127.2 922.477 L127.2 953.102 L134.839 953.102 L134.839 957.037 L114.931 957.037 L114.931 953.102 Z" fill="#000000" fill-rule="nonzero" fill-opacity="1" /><path clip-path="url(#clip430)" d="M144.283 951.157 L149.167 951.157 L149.167 957.037 L144.283 957.037 L144.283 951.157 Z" fill="#000000" fill-rule="nonzero" fill-opacity="1" /><path clip-path="url(#clip430)" d="M160.163 953.102 L167.802 953.102 L167.802 926.736 L159.491 928.403 L159.491 924.144 L167.755 922.477 L172.431 922.477 L172.431 953.102 L180.07 953.102 L180.07 957.037 L160.163 957.037 L160.163 953.102 Z" fill="#000000" fill-rule="nonzero" fill-opacity="1" /><path clip-path="url(#clip430)" d="M199.514 925.556 Q195.903 925.556 194.075 929.12 Q192.269 932.662 192.269 939.792 Q192.269 946.898 194.075 950.463 Q195.903 954.005 199.514 954.005 Q203.149 954.005 204.954 950.463 Q206.783 946.898 206.783 939.792 Q206.783 932.662 204.954 929.12 Q203.149 925.556 199.514 925.556 M199.514 921.852 Q205.324 921.852 208.38 926.458 Q211.459 931.042 211.459 939.792 Q211.459 948.519 208.38 953.125 Q205.324 957.708 199.514 957.708 Q193.704 957.708 190.625 953.125 Q187.57 948.519 187.57 939.792 Q187.57 931.042 190.625 926.458 Q193.704 921.852 199.514 921.852 Z" fill="#000000" fill-rule="nonzero" fill-opacity="1" /><path clip-path="url(#clip430)" d="M229.676 925.556 Q226.065 925.556 224.236 929.12 Q222.431 932.662 222.431 939.792 Q222.431 946.898 224.236 950.463 Q226.065 954.005 229.676 954.005 Q233.31 954.005 235.116 950.463 Q236.945 946.898 236.945 939.792 Q236.945 932.662 235.116 929.12 Q233.31 925.556 229.676 925.556 M229.676 921.852 Q235.486 921.852 238.542 926.458 Q241.621 931.042 241.621 939.792 Q241.621 948.519 238.542 953.125 Q235.486 957.708 229.676 957.708 Q223.866 957.708 220.787 953.125 Q217.732 948.519 217.732 939.792 Q217.732 931.042 220.787 926.458 Q223.866 921.852 229.676 921.852 Z" fill="#000000" fill-rule="nonzero" fill-opacity="1" /><path clip-path="url(#clip430)" d="M115.927 700.748 L123.566 700.748 L123.566 674.382 L115.256 676.049 L115.256 671.79 L123.519 670.123 L128.195 670.123 L128.195 700.748 L135.834 700.748 L135.834 704.683 L115.927 704.683 L115.927 700.748 Z" fill="#000000" fill-rule="nonzero" fill-opacity="1" /><path clip-path="url(#clip430)" d="M145.279 698.803 L150.163 698.803 L150.163 704.683 L145.279 704.683 L145.279 698.803 Z" fill="#000000" fill-rule="nonzero" fill-opacity="1" /><path clip-path="url(#clip430)" d="M161.158 700.748 L168.797 700.748 L168.797 674.382 L160.487 676.049 L160.487 671.79 L168.751 670.123 L173.427 670.123 L173.427 700.748 L181.065 700.748 L181.065 704.683 L161.158 704.683 L161.158 700.748 Z" fill="#000000" fill-rule="nonzero" fill-opacity="1" /><path clip-path="url(#clip430)" d="M194.538 700.748 L210.857 700.748 L210.857 704.683 L188.913 704.683 L188.913 700.748 Q191.575 697.993 196.158 693.364 Q200.764 688.711 201.945 687.368 Q204.19 684.845 205.07 683.109 Q205.973 681.35 205.973 679.66 Q205.973 676.905 204.028 675.169 Q202.107 673.433 199.005 673.433 Q196.806 673.433 194.352 674.197 Q191.922 674.961 189.144 676.512 L189.144 671.79 Q191.968 670.655 194.422 670.077 Q196.875 669.498 198.912 669.498 Q204.283 669.498 207.477 672.183 Q210.672 674.868 210.672 679.359 Q210.672 681.489 209.861 683.41 Q209.074 685.308 206.968 687.901 Q206.389 688.572 203.287 691.789 Q200.186 694.984 194.538 700.748 Z" fill="#000000" fill-rule="nonzero" fill-opacity="1" /><path clip-path="url(#clip430)" d="M220.718 670.123 L239.074 670.123 L239.074 674.058 L225 674.058 L225 682.53 Q226.019 682.183 227.037 682.021 Q228.056 681.836 229.074 681.836 Q234.861 681.836 238.241 685.007 Q241.621 688.178 241.621 693.595 Q241.621 699.174 238.148 702.276 Q234.676 705.354 228.357 705.354 Q226.181 705.354 223.912 704.984 Q221.667 704.613 219.26 703.873 L219.26 699.174 Q221.343 700.308 223.565 700.864 Q225.787 701.419 228.264 701.419 Q232.269 701.419 234.607 699.313 Q236.945 697.206 236.945 693.595 Q236.945 689.984 234.607 687.877 Q232.269 685.771 228.264 685.771 Q226.389 685.771 224.514 686.188 Q222.662 686.604 220.718 687.484 L220.718 670.123 Z" fill="#000000" fill-rule="nonzero" fill-opacity="1" /><path clip-path="url(#clip430)" d="M114.931 448.394 L122.57 448.394 L122.57 422.028 L114.26 423.695 L114.26 419.436 L122.524 417.769 L127.2 417.769 L127.2 448.394 L134.839 448.394 L134.839 452.329 L114.931 452.329 L114.931 448.394 Z" fill="#000000" fill-rule="nonzero" fill-opacity="1" /><path clip-path="url(#clip430)" d="M144.283 446.449 L149.167 446.449 L149.167 452.329 L144.283 452.329 L144.283 446.449 Z" fill="#000000" fill-rule="nonzero" fill-opacity="1" /><path clip-path="url(#clip430)" d="M160.163 448.394 L167.802 448.394 L167.802 422.028 L159.491 423.695 L159.491 419.436 L167.755 417.769 L172.431 417.769 L172.431 448.394 L180.07 448.394 L180.07 452.329 L160.163 452.329 L160.163 448.394 Z" fill="#000000" fill-rule="nonzero" fill-opacity="1" /><path clip-path="url(#clip430)" d="M189.561 417.769 L207.917 417.769 L207.917 421.704 L193.843 421.704 L193.843 430.176 Q194.862 429.829 195.88 429.667 Q196.899 429.482 197.917 429.482 Q203.704 429.482 207.084 432.653 Q210.463 435.824 210.463 441.241 Q210.463 446.82 206.991 449.921 Q203.519 453 197.2 453 Q195.024 453 192.755 452.63 Q190.51 452.259 188.102 451.519 L188.102 446.82 Q190.186 447.954 192.408 448.509 Q194.63 449.065 197.107 449.065 Q201.112 449.065 203.449 446.959 Q205.787 444.852 205.787 441.241 Q205.787 437.63 203.449 435.523 Q201.112 433.417 197.107 433.417 Q195.232 433.417 193.357 433.834 Q191.505 434.25 189.561 435.13 L189.561 417.769 Z" fill="#000000" fill-rule="nonzero" fill-opacity="1" /><path clip-path="url(#clip430)" d="M229.676 420.848 Q226.065 420.848 224.236 424.412 Q222.431 427.954 222.431 435.084 Q222.431 442.19 224.236 445.755 Q226.065 449.296 229.676 449.296 Q233.31 449.296 235.116 445.755 Q236.945 442.19 236.945 435.084 Q236.945 427.954 235.116 424.412 Q233.31 420.848 229.676 420.848 M229.676 417.144 Q235.486 417.144 238.542 421.75 Q241.621 426.334 241.621 435.084 Q241.621 443.81 238.542 448.417 Q235.486 453 229.676 453 Q223.866 453 220.787 448.417 Q217.732 443.81 217.732 435.084 Q217.732 426.334 220.787 421.75 Q223.866 417.144 229.676 417.144 Z" fill="#000000" fill-rule="nonzero" fill-opacity="1" /><path clip-path="url(#clip430)" d="M115.927 196.04 L123.566 196.04 L123.566 169.674 L115.256 171.341 L115.256 167.081 L123.519 165.415 L128.195 165.415 L128.195 196.04 L135.834 196.04 L135.834 199.975 L115.927 199.975 L115.927 196.04 Z" fill="#000000" fill-rule="nonzero" fill-opacity="1" /><path clip-path="url(#clip430)" d="M145.279 194.095 L150.163 194.095 L150.163 199.975 L145.279 199.975 L145.279 194.095 Z" fill="#000000" fill-rule="nonzero" fill-opacity="1" /><path clip-path="url(#clip430)" d="M161.158 196.04 L168.797 196.04 L168.797 169.674 L160.487 171.341 L160.487 167.081 L168.751 165.415 L173.427 165.415 L173.427 196.04 L181.065 196.04 L181.065 199.975 L161.158 199.975 L161.158 196.04 Z" fill="#000000" fill-rule="nonzero" fill-opacity="1" /><path clip-path="url(#clip430)" d="M189.329 165.415 L211.551 165.415 L211.551 167.406 L199.005 199.975 L194.121 199.975 L205.926 169.35 L189.329 169.35 L189.329 165.415 Z" fill="#000000" fill-rule="nonzero" fill-opacity="1" /><path clip-path="url(#clip430)" d="M220.718 165.415 L239.074 165.415 L239.074 169.35 L225 169.35 L225 177.822 Q226.019 177.475 227.037 177.313 Q228.056 177.128 229.074 177.128 Q234.861 177.128 238.241 180.299 Q241.621 183.47 241.621 188.887 Q241.621 194.466 238.148 197.567 Q234.676 200.646 228.357 200.646 Q226.181 200.646 223.912 200.276 Q221.667 199.905 219.26 199.165 L219.26 194.466 Q221.343 195.6 223.565 196.155 Q225.787 196.711 228.264 196.711 Q232.269 196.711 234.607 194.604 Q236.945 192.498 236.945 188.887 Q236.945 185.276 234.607 183.169 Q232.269 181.063 228.264 181.063 Q226.389 181.063 224.514 181.48 Q222.662 181.896 220.718 182.776 L220.718 165.415 Z" fill="#000000" fill-rule="nonzero" fill-opacity="1" /><path clip-path="url(#clip430)" d="M16.4842 874.557 L16.4842 864.976 L48.8219 852.85 L16.4842 840.659 L16.4842 831.079 L64.0042 831.079 L64.0042 837.349 L22.277 837.349 L54.8694 849.603 L54.8694 856.064 L22.277 868.318 L64.0042 868.318 L64.0042 874.557 L16.4842 874.557 Z" fill="#000000" fill-rule="nonzero" fill-opacity="1" /><path clip-path="url(#clip430)" d="M41.7242 795.781 Q42.4244 793.712 44.7161 791.771 Q47.0077 789.797 51.0181 787.824 L64.0042 781.299 L64.0042 788.206 L51.8138 794.285 Q47.0395 796.64 45.48 798.868 Q43.9204 801.065 43.9204 804.884 L43.9204 811.886 L64.0042 811.886 L64.0042 818.316 L16.4842 818.316 L16.4842 803.802 Q16.4842 795.654 19.8898 791.643 Q23.2955 787.633 30.1704 787.633 Q34.6582 787.633 37.6183 789.734 Q40.5784 791.802 41.7242 795.781 M21.7677 811.886 L38.6368 811.886 L38.6368 803.802 Q38.6368 799.155 36.5043 796.8 Q34.34 794.412 30.1704 794.412 Q26.0009 794.412 23.9002 796.8 Q21.7677 799.155 21.7677 803.802 L21.7677 811.886 Z" fill="#000000" fill-rule="nonzero" fill-opacity="1" /><path clip-path="url(#clip430)" d="M22.818 759.783 L46.4666 768.504 L46.4666 751.03 L22.818 759.783 M16.4842 763.411 L16.4842 756.123 L64.0042 738.012 L64.0042 744.696 L51.8138 749.025 L51.8138 770.446 L64.0042 774.774 L64.0042 781.554 L16.4842 763.411 Z" fill="#000000" fill-rule="nonzero" fill-opacity="1" /><path clip-path="url(#clip430)" d="M16.4842 731.074 L16.4842 701.027 L21.895 701.027 L21.895 724.644 L35.9632 724.644 L35.9632 702.014 L41.3741 702.014 L41.3741 724.644 L58.5933 724.644 L58.5933 700.455 L64.0042 700.455 L64.0042 731.074 L16.4842 731.074 Z" fill="#000000" fill-rule="nonzero" fill-opacity="1" /><path clip-path="url(#clip430)" d="M14.479 672.095 L19.3487 672.095 L19.3487 677.697 Q19.3487 680.848 20.6219 682.089 Q21.895 683.299 25.2052 683.299 L28.3562 683.299 L28.3562 673.655 L32.9077 673.655 L32.9077 683.299 L64.0042 683.299 L64.0042 689.187 L32.9077 689.187 L32.9077 694.789 L28.3562 694.789 L28.3562 689.187 L25.8736 689.187 Q19.9216 689.187 17.2162 686.418 Q14.479 683.649 14.479 677.633 L14.479 672.095 Z" fill="#000000" fill-rule="nonzero" fill-opacity="1" /><path clip-path="url(#clip430)" d="M563.381 12.096 L571.564 12.096 L571.564 65.6895 L601.014 65.6895 L601.014 72.576 L563.381 72.576 L563.381 12.096 Z" fill="#000000" fill-rule="nonzero" fill-opacity="1" /><path clip-path="url(#clip430)" d="M609.278 27.2059 L616.731 27.2059 L616.731 72.576 L609.278 72.576 L609.278 27.2059 M609.278 9.54393 L616.731 9.54393 L616.731 18.9825 L609.278 18.9825 L609.278 9.54393 Z" fill="#000000" fill-rule="nonzero" fill-opacity="1" /><path clip-path="url(#clip430)" d="M670.041 45.1919 L670.041 72.576 L662.588 72.576 L662.588 45.4349 Q662.588 38.994 660.076 35.7938 Q657.564 32.5936 652.541 32.5936 Q646.505 32.5936 643.022 36.4419 Q639.538 40.2903 639.538 46.9338 L639.538 72.576 L632.044 72.576 L632.044 27.2059 L639.538 27.2059 L639.538 34.2544 Q642.212 30.163 645.817 28.1376 Q649.463 26.1121 654.202 26.1121 Q662.02 26.1121 666.031 30.9732 Q670.041 35.7938 670.041 45.1919 Z" fill="#000000" fill-rule="nonzero" fill-opacity="1" /><path clip-path="url(#clip430)" d="M723.716 48.0275 L723.716 51.6733 L689.445 51.6733 Q689.931 59.3701 694.063 63.421 Q698.236 67.4314 705.649 67.4314 Q709.943 67.4314 713.953 66.3781 Q718.004 65.3249 721.974 63.2184 L721.974 70.267 Q717.963 71.9684 713.75 72.8596 Q709.538 73.7508 705.203 73.7508 Q694.347 73.7508 687.987 67.4314 Q681.667 61.1119 681.667 50.3365 Q681.667 39.1965 687.663 32.6746 Q693.699 26.1121 703.907 26.1121 Q713.062 26.1121 718.369 32.0264 Q723.716 37.9003 723.716 48.0275 M716.262 45.84 Q716.181 39.7232 712.819 36.0774 Q709.497 32.4315 703.988 32.4315 Q697.749 32.4315 693.982 35.9558 Q690.255 39.4801 689.688 45.8805 L716.262 45.84 Z" fill="#000000" fill-rule="nonzero" fill-opacity="1" /><path clip-path="url(#clip430)" d="M756.569 49.7694 Q747.535 49.7694 744.051 51.8354 Q740.567 53.9013 740.567 58.8839 Q740.567 62.8538 743.16 65.2034 Q745.793 67.5124 750.29 67.5124 Q756.488 67.5124 760.214 63.1374 Q763.982 58.7219 763.982 51.4303 L763.982 49.7694 L756.569 49.7694 M771.435 46.6907 L771.435 72.576 L763.982 72.576 L763.982 65.6895 Q761.43 69.8214 757.622 71.8063 Q753.814 73.7508 748.305 73.7508 Q741.337 73.7508 737.205 69.8619 Q733.114 65.9325 733.114 59.3701 Q733.114 51.7138 738.218 47.825 Q743.363 43.9361 753.53 43.9361 L763.982 43.9361 L763.982 43.2069 Q763.982 38.0623 760.579 35.2672 Q757.217 32.4315 751.1 32.4315 Q747.211 32.4315 743.525 33.3632 Q739.838 34.295 736.436 36.1584 L736.436 29.2718 Q740.527 27.692 744.375 26.9223 Q748.224 26.1121 751.87 26.1121 Q761.713 26.1121 766.574 31.2163 Q771.435 36.3204 771.435 46.6907 Z" fill="#000000" fill-rule="nonzero" fill-opacity="1" /><path clip-path="url(#clip430)" d="M813.079 34.1734 Q811.823 33.4443 810.324 33.1202 Q808.866 32.7556 807.083 32.7556 Q800.764 32.7556 797.361 36.8875 Q793.999 40.9789 793.999 48.6757 L793.999 72.576 L786.505 72.576 L786.505 27.2059 L793.999 27.2059 L793.999 34.2544 Q796.348 30.1225 800.116 28.1376 Q803.883 26.1121 809.271 26.1121 Q810.04 26.1121 810.972 26.2337 Q811.904 26.3147 813.038 26.5172 L813.079 34.1734 Z" fill="#000000" fill-rule="nonzero" fill-opacity="1" /><path clip-path="url(#clip430)" d="M876.273 44.2197 Q878.906 45.1109 881.377 48.0275 Q883.888 50.9442 886.4 56.0483 L894.704 72.576 L885.914 72.576 L878.177 57.061 Q875.179 50.9847 872.343 48.9997 Q869.548 47.0148 864.687 47.0148 L855.775 47.0148 L855.775 72.576 L847.592 72.576 L847.592 12.096 L866.064 12.096 Q876.435 12.096 881.539 16.4305 Q886.643 20.7649 886.643 29.5149 Q886.643 35.2267 883.969 38.994 Q881.336 42.7613 876.273 44.2197 M855.775 18.8205 L855.775 40.2903 L866.064 40.2903 Q871.979 40.2903 874.976 37.5762 Q878.015 34.8216 878.015 29.5149 Q878.015 24.2082 874.976 21.5346 Q871.979 18.8205 866.064 18.8205 L855.775 18.8205 Z" fill="#000000" fill-rule="nonzero" fill-opacity="1" /><path clip-path="url(#clip430)" d="M939.993 48.0275 L939.993 51.6733 L905.723 51.6733 Q906.209 59.3701 910.341 63.421 Q914.513 67.4314 921.926 67.4314 Q926.22 67.4314 930.231 66.3781 Q934.282 65.3249 938.252 63.2184 L938.252 70.267 Q934.241 71.9684 930.028 72.8596 Q925.815 73.7508 921.481 73.7508 Q910.624 73.7508 904.265 67.4314 Q897.945 61.1119 897.945 50.3365 Q897.945 39.1965 903.94 32.6746 Q909.976 26.1121 920.185 26.1121 Q929.34 26.1121 934.646 32.0264 Q939.993 37.9003 939.993 48.0275 M932.54 45.84 Q932.459 39.7232 929.097 36.0774 Q925.775 32.4315 920.266 32.4315 Q914.027 32.4315 910.26 35.9558 Q906.533 39.4801 905.966 45.8805 L932.54 45.84 Z" fill="#000000" fill-rule="nonzero" fill-opacity="1" /><path clip-path="url(#clip430)" d="M982.082 49.3643 Q982.082 41.2625 978.72 36.8065 Q975.398 32.3505 969.363 32.3505 Q963.367 32.3505 960.005 36.8065 Q956.683 41.2625 956.683 49.3643 Q956.683 57.4256 960.005 61.8816 Q963.367 66.3376 969.363 66.3376 Q975.398 66.3376 978.72 61.8816 Q982.082 57.4256 982.082 49.3643 M989.536 66.9452 Q989.536 78.5308 984.391 84.1616 Q979.247 89.8329 968.633 89.8329 Q964.704 89.8329 961.22 89.2252 Q957.736 88.6581 954.455 87.4428 L954.455 80.1917 Q957.736 81.9741 960.937 82.8248 Q964.137 83.6755 967.459 83.6755 Q974.791 83.6755 978.437 79.8271 Q982.082 76.0193 982.082 68.282 L982.082 64.5957 Q979.773 68.6061 976.168 70.5911 Q972.563 72.576 967.54 72.576 Q959.195 72.576 954.091 66.2161 Q948.987 59.8562 948.987 49.3643 Q948.987 38.832 954.091 32.472 Q959.195 26.1121 967.54 26.1121 Q972.563 26.1121 976.168 28.0971 Q979.773 30.082 982.082 34.0924 L982.082 27.2059 L989.536 27.2059 L989.536 66.9452 Z" fill="#000000" fill-rule="nonzero" fill-opacity="1" /><path clip-path="url(#clip430)" d="M1031.18 34.1734 Q1029.92 33.4443 1028.42 33.1202 Q1026.97 32.7556 1025.18 32.7556 Q1018.86 32.7556 1015.46 36.8875 Q1012.1 40.9789 1012.1 48.6757 L1012.1 72.576 L1004.61 72.576 L1004.61 27.2059 L1012.1 27.2059 L1012.1 34.2544 Q1014.45 30.1225 1018.22 28.1376 Q1021.98 26.1121 1027.37 26.1121 Q1028.14 26.1121 1029.07 26.2337 Q1030 26.3147 1031.14 26.5172 L1031.18 34.1734 Z" fill="#000000" fill-rule="nonzero" fill-opacity="1" /><path clip-path="url(#clip430)" d="M1075.98 48.0275 L1075.98 51.6733 L1041.71 51.6733 Q1042.2 59.3701 1046.33 63.421 Q1050.5 67.4314 1057.92 67.4314 Q1062.21 67.4314 1066.22 66.3781 Q1070.27 65.3249 1074.24 63.2184 L1074.24 70.267 Q1070.23 71.9684 1066.02 72.8596 Q1061.8 73.7508 1057.47 73.7508 Q1046.61 73.7508 1040.25 67.4314 Q1033.93 61.1119 1033.93 50.3365 Q1033.93 39.1965 1039.93 32.6746 Q1045.97 26.1121 1056.17 26.1121 Q1065.33 26.1121 1070.64 32.0264 Q1075.98 37.9003 1075.98 48.0275 M1068.53 45.84 Q1068.45 39.7232 1065.09 36.0774 Q1061.76 32.4315 1056.25 32.4315 Q1050.02 32.4315 1046.25 35.9558 Q1042.52 39.4801 1041.95 45.8805 L1068.53 45.84 Z" fill="#000000" fill-rule="nonzero" fill-opacity="1" /><path clip-path="url(#clip430)" d="M1117.14 28.5427 L1117.14 35.5912 Q1113.98 33.9709 1110.58 33.1607 Q1107.17 32.3505 1103.53 32.3505 Q1097.98 32.3505 1095.18 34.0519 Q1092.43 35.7533 1092.43 39.156 Q1092.43 41.7486 1094.41 43.2475 Q1096.4 44.7058 1102.39 46.0426 L1104.95 46.6097 Q1112.89 48.3111 1116.21 51.4303 Q1119.57 54.509 1119.57 60.0587 Q1119.57 66.3781 1114.55 70.0644 Q1109.56 73.7508 1100.81 73.7508 Q1097.17 73.7508 1093.2 73.0216 Q1089.27 72.3329 1084.89 70.9151 L1084.89 63.2184 Q1089.03 65.3654 1093.04 66.4591 Q1097.05 67.5124 1100.98 67.5124 Q1106.24 67.5124 1109.08 65.73 Q1111.91 63.9071 1111.91 60.6258 Q1111.91 57.5877 1109.85 55.9673 Q1107.82 54.3469 1100.9 52.8481 L1098.3 52.2405 Q1091.38 50.7821 1088.3 47.7845 Q1085.22 44.7463 1085.22 39.4801 Q1085.22 33.0797 1089.76 29.5959 Q1094.29 26.1121 1102.64 26.1121 Q1106.77 26.1121 1110.42 26.7198 Q1114.06 27.3274 1117.14 28.5427 Z" fill="#000000" fill-rule="nonzero" fill-opacity="1" /><path clip-path="url(#clip430)" d="M1160.36 28.5427 L1160.36 35.5912 Q1157.2 33.9709 1153.8 33.1607 Q1150.4 32.3505 1146.75 32.3505 Q1141.2 32.3505 1138.41 34.0519 Q1135.65 35.7533 1135.65 39.156 Q1135.65 41.7486 1137.64 43.2475 Q1139.62 44.7058 1145.62 46.0426 L1148.17 46.6097 Q1156.11 48.3111 1159.43 51.4303 Q1162.79 54.509 1162.79 60.0587 Q1162.79 66.3781 1157.77 70.0644 Q1152.79 73.7508 1144.04 73.7508 Q1140.39 73.7508 1136.42 73.0216 Q1132.49 72.3329 1128.12 70.9151 L1128.12 63.2184 Q1132.25 65.3654 1136.26 66.4591 Q1140.27 67.5124 1144.2 67.5124 Q1149.47 67.5124 1152.3 65.73 Q1155.14 63.9071 1155.14 60.6258 Q1155.14 57.5877 1153.07 55.9673 Q1151.05 54.3469 1144.12 52.8481 L1141.53 52.2405 Q1134.6 50.7821 1131.52 47.7845 Q1128.44 44.7463 1128.44 39.4801 Q1128.44 33.0797 1132.98 29.5959 Q1137.52 26.1121 1145.86 26.1121 Q1149.99 26.1121 1153.64 26.7198 Q1157.28 27.3274 1160.36 28.5427 Z" fill="#000000" fill-rule="nonzero" fill-opacity="1" /><path clip-path="url(#clip430)" d="M1174.66 27.2059 L1182.12 27.2059 L1182.12 72.576 L1174.66 72.576 L1174.66 27.2059 M1174.66 9.54393 L1182.12 9.54393 L1182.12 18.9825 L1174.66 18.9825 L1174.66 9.54393 Z" fill="#000000" fill-rule="nonzero" fill-opacity="1" /><path clip-path="url(#clip430)" d="M1215.29 32.4315 Q1209.3 32.4315 1205.81 37.1306 Q1202.33 41.7891 1202.33 49.9314 Q1202.33 58.0738 1205.77 62.7728 Q1209.26 67.4314 1215.29 67.4314 Q1221.25 67.4314 1224.73 62.7323 Q1228.22 58.0333 1228.22 49.9314 Q1228.22 41.8701 1224.73 37.1711 Q1221.25 32.4315 1215.29 32.4315 M1215.29 26.1121 Q1225.02 26.1121 1230.56 32.4315 Q1236.11 38.7509 1236.11 49.9314 Q1236.11 61.0714 1230.56 67.4314 Q1225.02 73.7508 1215.29 73.7508 Q1205.53 73.7508 1199.98 67.4314 Q1194.47 61.0714 1194.47 49.9314 Q1194.47 38.7509 1199.98 32.4315 Q1205.53 26.1121 1215.29 26.1121 Z" fill="#000000" fill-rule="nonzero" fill-opacity="1" /><path clip-path="url(#clip430)" d="M1286.18 45.1919 L1286.18 72.576 L1278.73 72.576 L1278.73 45.4349 Q1278.73 38.994 1276.22 35.7938 Q1273.71 32.5936 1268.68 32.5936 Q1262.65 32.5936 1259.16 36.4419 Q1255.68 40.2903 1255.68 46.9338 L1255.68 72.576 L1248.19 72.576 L1248.19 27.2059 L1255.68 27.2059 L1255.68 34.2544 Q1258.35 30.163 1261.96 28.1376 Q1265.61 26.1121 1270.34 26.1121 Q1278.16 26.1121 1282.17 30.9732 Q1286.18 35.7938 1286.18 45.1919 Z" fill="#000000" fill-rule="nonzero" fill-opacity="1" /><path clip-path="url(#clip430)" d="M1302.95 62.2867 L1311.5 62.2867 L1311.5 72.576 L1302.95 72.576 L1302.95 62.2867 M1302.95 29.6769 L1311.5 29.6769 L1311.5 39.9662 L1302.95 39.9662 L1302.95 29.6769 Z" fill="#000000" fill-rule="nonzero" fill-opacity="1" /><path clip-path="url(#clip430)" d="M1355.7 12.096 L1367.89 12.096 L1383.32 53.2532 L1398.84 12.096 L1411.03 12.096 L1411.03 72.576 L1403.05 72.576 L1403.05 19.4686 L1387.46 60.9499 L1379.23 60.9499 L1363.64 19.4686 L1363.64 72.576 L1355.7 72.576 L1355.7 12.096 Z" fill="#000000" fill-rule="nonzero" fill-opacity="1" /><path clip-path="url(#clip430)" d="M1455.96 44.2197 Q1458.59 45.1109 1461.06 48.0275 Q1463.57 50.9442 1466.08 56.0483 L1474.39 72.576 L1465.6 72.576 L1457.86 57.061 Q1454.86 50.9847 1452.03 48.9997 Q1449.23 47.0148 1444.37 47.0148 L1435.46 47.0148 L1435.46 72.576 L1427.28 72.576 L1427.28 12.096 L1445.75 12.096 Q1456.12 12.096 1461.22 16.4305 Q1466.33 20.7649 1466.33 29.5149 Q1466.33 35.2267 1463.65 38.994 Q1461.02 42.7613 1455.96 44.2197 M1435.46 18.8205 L1435.46 40.2903 L1445.75 40.2903 Q1451.66 40.2903 1454.66 37.5762 Q1457.7 34.8216 1457.7 29.5149 Q1457.7 24.2082 1454.66 21.5346 Q1451.66 18.8205 1445.75 18.8205 L1435.46 18.8205 Z" fill="#000000" fill-rule="nonzero" fill-opacity="1" /><path clip-path="url(#clip430)" d="M1501.77 20.1573 L1490.67 50.2555 L1512.91 50.2555 L1501.77 20.1573 M1497.15 12.096 L1506.43 12.096 L1529.48 72.576 L1520.97 72.576 L1515.46 57.061 L1488.2 57.061 L1482.69 72.576 L1474.06 72.576 L1497.15 12.096 Z" fill="#000000" fill-rule="nonzero" fill-opacity="1" /><path clip-path="url(#clip430)" d="M1538.31 12.096 L1576.55 12.096 L1576.55 18.9825 L1546.49 18.9825 L1546.49 36.8875 L1575.3 36.8875 L1575.3 43.7741 L1546.49 43.7741 L1546.49 65.6895 L1577.28 65.6895 L1577.28 72.576 L1538.31 72.576 L1538.31 12.096 Z" fill="#000000" fill-rule="nonzero" fill-opacity="1" /><path clip-path="url(#clip430)" d="M1613.38 9.54393 L1613.38 15.7418 L1606.25 15.7418 Q1602.24 15.7418 1600.66 17.3622 Q1599.12 18.9825 1599.12 23.1955 L1599.12 27.2059 L1611.39 27.2059 L1611.39 32.9987 L1599.12 32.9987 L1599.12 72.576 L1591.62 72.576 L1591.62 32.9987 L1584.49 32.9987 L1584.49 27.2059 L1591.62 27.2059 L1591.62 24.0462 Q1591.62 16.471 1595.15 13.0277 Q1598.67 9.54393 1606.33 9.54393 L1613.38 9.54393 Z" fill="#000000" fill-rule="nonzero" fill-opacity="1" /><path clip-path="url(#clip430)" d="M1640.64 27.2059 L1648.54 27.2059 L1662.72 65.2844 L1676.89 27.2059 L1684.79 27.2059 L1667.78 72.576 L1657.65 72.576 L1640.64 27.2059 Z" fill="#000000" fill-rule="nonzero" fill-opacity="1" /><path clip-path="url(#clip430)" d="M1724.01 28.5427 L1724.01 35.5912 Q1720.85 33.9709 1717.44 33.1607 Q1714.04 32.3505 1710.39 32.3505 Q1704.84 32.3505 1702.05 34.0519 Q1699.29 35.7533 1699.29 39.156 Q1699.29 41.7486 1701.28 43.2475 Q1703.26 44.7058 1709.26 46.0426 L1711.81 46.6097 Q1719.75 48.3111 1723.07 51.4303 Q1726.44 54.509 1726.44 60.0587 Q1726.44 66.3781 1721.41 70.0644 Q1716.43 73.7508 1707.68 73.7508 Q1704.03 73.7508 1700.06 73.0216 Q1696.14 72.3329 1691.76 70.9151 L1691.76 63.2184 Q1695.89 65.3654 1699.9 66.4591 Q1703.91 67.5124 1707.84 67.5124 Q1713.11 67.5124 1715.94 65.73 Q1718.78 63.9071 1718.78 60.6258 Q1718.78 57.5877 1716.71 55.9673 Q1714.69 54.3469 1707.76 52.8481 L1705.17 52.2405 Q1698.24 50.7821 1695.16 47.7845 Q1692.08 44.7463 1692.08 39.4801 Q1692.08 33.0797 1696.62 29.5959 Q1701.16 26.1121 1709.5 26.1121 Q1713.64 26.1121 1717.28 26.7198 Q1720.93 27.3274 1724.01 28.5427 Z" fill="#000000" fill-rule="nonzero" fill-opacity="1" /><path clip-path="url(#clip430)" d="M1765 12.096 L1773.18 12.096 L1773.18 36.8875 L1802.92 36.8875 L1802.92 12.096 L1811.1 12.096 L1811.1 72.576 L1802.92 72.576 L1802.92 43.7741 L1773.18 43.7741 L1773.18 72.576 L1765 72.576 L1765 12.096 Z" fill="#000000" fill-rule="nonzero" fill-opacity="1" /><path clip-path="url(#clip430)" d="M1844.64 32.4315 Q1838.65 32.4315 1835.16 37.1306 Q1831.68 41.7891 1831.68 49.9314 Q1831.68 58.0738 1835.12 62.7728 Q1838.61 67.4314 1844.64 67.4314 Q1850.6 67.4314 1854.08 62.7323 Q1857.56 58.0333 1857.56 49.9314 Q1857.56 41.8701 1854.08 37.1711 Q1850.6 32.4315 1844.64 32.4315 M1844.64 26.1121 Q1854.36 26.1121 1859.91 32.4315 Q1865.46 38.7509 1865.46 49.9314 Q1865.46 61.0714 1859.91 67.4314 Q1854.36 73.7508 1844.64 73.7508 Q1834.88 73.7508 1829.33 67.4314 Q1823.82 61.0714 1823.82 49.9314 Q1823.82 38.7509 1829.33 32.4315 Q1834.88 26.1121 1844.64 26.1121 Z" fill="#000000" fill-rule="nonzero" fill-opacity="1" /><path clip-path="url(#clip430)" d="M1904.11 34.1734 Q1902.85 33.4443 1901.35 33.1202 Q1899.9 32.7556 1898.11 32.7556 Q1891.79 32.7556 1888.39 36.8875 Q1885.03 40.9789 1885.03 48.6757 L1885.03 72.576 L1877.53 72.576 L1877.53 27.2059 L1885.03 27.2059 L1885.03 34.2544 Q1887.38 30.1225 1891.15 28.1376 Q1894.91 26.1121 1900.3 26.1121 Q1901.07 26.1121 1902 26.2337 Q1902.93 26.3147 1904.07 26.5172 L1904.11 34.1734 Z" fill="#000000" fill-rule="nonzero" fill-opacity="1" /><path clip-path="url(#clip430)" d="M1911.93 27.2059 L1919.38 27.2059 L1919.38 72.576 L1911.93 72.576 L1911.93 27.2059 M1911.93 9.54393 L1919.38 9.54393 L1919.38 18.9825 L1911.93 18.9825 L1911.93 9.54393 Z" fill="#000000" fill-rule="nonzero" fill-opacity="1" /><path clip-path="url(#clip430)" d="M1931.74 27.2059 L1967.14 27.2059 L1967.14 34.0114 L1939.11 66.6212 L1967.14 66.6212 L1967.14 72.576 L1930.72 72.576 L1930.72 65.7705 L1958.76 33.1607 L1931.74 33.1607 L1931.74 27.2059 Z" fill="#000000" fill-rule="nonzero" fill-opacity="1" /><path clip-path="url(#clip430)" d="M1996.1 32.4315 Q1990.11 32.4315 1986.63 37.1306 Q1983.14 41.7891 1983.14 49.9314 Q1983.14 58.0738 1986.59 62.7728 Q1990.07 67.4314 1996.1 67.4314 Q2002.06 67.4314 2005.54 62.7323 Q2009.03 58.0333 2009.03 49.9314 Q2009.03 41.8701 2005.54 37.1711 Q2002.06 32.4315 1996.1 32.4315 M1996.1 26.1121 Q2005.83 26.1121 2011.38 32.4315 Q2016.93 38.7509 2016.93 49.9314 Q2016.93 61.0714 2011.38 67.4314 Q2005.83 73.7508 1996.1 73.7508 Q1986.34 73.7508 1980.79 67.4314 Q1975.28 61.0714 1975.28 49.9314 Q1975.28 38.7509 1980.79 32.4315 Q1986.34 26.1121 1996.1 26.1121 Z" fill="#000000" fill-rule="nonzero" fill-opacity="1" /><path clip-path="url(#clip430)" d="M2067 45.1919 L2067 72.576 L2059.54 72.576 L2059.54 45.4349 Q2059.54 38.994 2057.03 35.7938 Q2054.52 32.5936 2049.5 32.5936 Q2043.46 32.5936 2039.98 36.4419 Q2036.49 40.2903 2036.49 46.9338 L2036.49 72.576 L2029 72.576 L2029 27.2059 L2036.49 27.2059 L2036.49 34.2544 Q2039.17 30.163 2042.77 28.1376 Q2046.42 26.1121 2051.16 26.1121 Q2058.97 26.1121 2062.99 30.9732 Q2067 35.7938 2067 45.1919 Z" fill="#000000" fill-rule="nonzero" fill-opacity="1" /><circle clip-path="url(#clip432)" cx="336.351" cy="160.256" r="14.4" fill="#009af9" fill-rule="evenodd" fill-opacity="1" stroke="#000000" stroke-opacity="1" stroke-width="3.2"/>
<circle clip-path="url(#clip432)" cx="546.102" cy="1146.18" r="14.4" fill="#009af9" fill-rule="evenodd" fill-opacity="1" stroke="#000000" stroke-opacity="1" stroke-width="3.2"/>
<circle clip-path="url(#clip432)" cx="895.686" cy="1192.31" r="14.4" fill="#009af9" fill-rule="evenodd" fill-opacity="1" stroke="#000000" stroke-opacity="1" stroke-width="3.2"/>
<circle clip-path="url(#clip432)" cx="1245.27" cy="1248.49" r="14.4" fill="#009af9" fill-rule="evenodd" fill-opacity="1" stroke="#000000" stroke-opacity="1" stroke-width="3.2"/>
<circle clip-path="url(#clip432)" cx="1594.86" cy="1287.87" r="14.4" fill="#009af9" fill-rule="evenodd" fill-opacity="1" stroke="#000000" stroke-opacity="1" stroke-width="3.2"/>
<circle clip-path="url(#clip432)" cx="2294.03" cy="1296.45" r="14.4" fill="#009af9" fill-rule="evenodd" fill-opacity="1" stroke="#000000" stroke-opacity="1" stroke-width="3.2"/>
<circle clip-path="url(#clip432)" cx="336.351" cy="565.127" r="14.4" fill="#e26f46" fill-rule="evenodd" fill-opacity="1" stroke="#000000" stroke-opacity="1" stroke-width="3.2"/>
<circle clip-path="url(#clip432)" cx="546.102" cy="1150.96" r="14.4" fill="#e26f46" fill-rule="evenodd" fill-opacity="1" stroke="#000000" stroke-opacity="1" stroke-width="3.2"/>
<circle clip-path="url(#clip432)" cx="895.686" cy="1307.2" r="14.4" fill="#e26f46" fill-rule="evenodd" fill-opacity="1" stroke="#000000" stroke-opacity="1" stroke-width="3.2"/>
<circle clip-path="url(#clip432)" cx="1245.27" cy="1386.4" r="14.4" fill="#e26f46" fill-rule="evenodd" fill-opacity="1" stroke="#000000" stroke-opacity="1" stroke-width="3.2"/>
<circle clip-path="url(#clip432)" cx="1594.86" cy="1356.26" r="14.4" fill="#e26f46" fill-rule="evenodd" fill-opacity="1" stroke="#000000" stroke-opacity="1" stroke-width="3.2"/>
<circle clip-path="url(#clip432)" cx="2294.03" cy="1162.18" r="14.4" fill="#e26f46" fill-rule="evenodd" fill-opacity="1" stroke="#000000" stroke-opacity="1" stroke-width="3.2"/>
<path clip-path="url(#clip430)" d="M1740.66 322.316 L2283.58 322.316 L2283.58 166.796 L1740.66 166.796  Z" fill="#ffffff" fill-rule="evenodd" fill-opacity="1"/>
<polyline clip-path="url(#clip430)" style="stroke:#000000; stroke-linecap:round; stroke-linejoin:round; stroke-width:4; stroke-opacity:1; fill:none" points="1740.66,322.316 2283.58,322.316 2283.58,166.796 1740.66,166.796 1740.66,322.316 "/>
<circle clip-path="url(#clip430)" cx="1832.88" cy="218.636" r="20.48" fill="#009af9" fill-rule="evenodd" fill-opacity="1" stroke="#000000" stroke-opacity="1" stroke-width="4.55111"/>
<path clip-path="url(#clip430)" d="M1932.52 202.629 L1932.52 209.99 L1941.29 209.99 L1941.29 213.3 L1932.52 213.3 L1932.52 227.374 Q1932.52 230.545 1933.38 231.448 Q1934.26 232.351 1936.92 232.351 L1941.29 232.351 L1941.29 235.916 L1936.92 235.916 Q1931.99 235.916 1930.11 234.087 Q1928.24 232.235 1928.24 227.374 L1928.24 213.3 L1925.11 213.3 L1925.11 209.99 L1928.24 209.99 L1928.24 202.629 L1932.52 202.629 Z" fill="#000000" fill-rule="nonzero" fill-opacity="1" /><path clip-path="url(#clip430)" d="M1961.92 213.971 Q1961.2 213.555 1960.34 213.37 Q1959.51 213.161 1958.49 213.161 Q1954.88 213.161 1952.94 215.522 Q1951.02 217.86 1951.02 222.258 L1951.02 235.916 L1946.73 235.916 L1946.73 209.99 L1951.02 209.99 L1951.02 214.018 Q1952.36 211.657 1954.51 210.522 Q1956.66 209.365 1959.74 209.365 Q1960.18 209.365 1960.71 209.434 Q1961.25 209.481 1961.9 209.596 L1961.92 213.971 Z" fill="#000000" fill-rule="nonzero" fill-opacity="1" /><path clip-path="url(#clip430)" d="M1978.17 222.883 Q1973.01 222.883 1971.02 224.064 Q1969.02 225.244 1969.02 228.092 Q1969.02 230.36 1970.51 231.703 Q1972.01 233.022 1974.58 233.022 Q1978.12 233.022 1980.25 230.522 Q1982.4 227.999 1982.4 223.832 L1982.4 222.883 L1978.17 222.883 M1986.66 221.124 L1986.66 235.916 L1982.4 235.916 L1982.4 231.981 Q1980.95 234.342 1978.77 235.476 Q1976.59 236.587 1973.45 236.587 Q1969.46 236.587 1967.1 234.365 Q1964.77 232.119 1964.77 228.369 Q1964.77 223.994 1967.68 221.772 Q1970.62 219.55 1976.43 219.55 L1982.4 219.55 L1982.4 219.133 Q1982.4 216.194 1980.46 214.596 Q1978.54 212.976 1975.04 212.976 Q1972.82 212.976 1970.71 213.508 Q1968.61 214.041 1966.66 215.106 L1966.66 211.17 Q1969 210.268 1971.2 209.828 Q1973.4 209.365 1975.48 209.365 Q1981.11 209.365 1983.89 212.282 Q1986.66 215.198 1986.66 221.124 Z" fill="#000000" fill-rule="nonzero" fill-opacity="1" /><path clip-path="url(#clip430)" d="M1995.44 209.99 L1999.7 209.99 L1999.7 235.916 L1995.44 235.916 L1995.44 209.99 M1995.44 199.897 L1999.7 199.897 L1999.7 205.291 L1995.44 205.291 L1995.44 199.897 Z" fill="#000000" fill-rule="nonzero" fill-opacity="1" /><path clip-path="url(#clip430)" d="M2030.16 220.268 L2030.16 235.916 L2025.9 235.916 L2025.9 220.407 Q2025.9 216.726 2024.46 214.897 Q2023.03 213.069 2020.16 213.069 Q2016.71 213.069 2014.72 215.268 Q2012.73 217.467 2012.73 221.263 L2012.73 235.916 L2008.45 235.916 L2008.45 209.99 L2012.73 209.99 L2012.73 214.018 Q2014.26 211.68 2016.32 210.522 Q2018.4 209.365 2021.11 209.365 Q2025.58 209.365 2027.87 212.143 Q2030.16 214.897 2030.16 220.268 Z" fill="#000000" fill-rule="nonzero" fill-opacity="1" /><path clip-path="url(#clip430)" d="M2038.65 209.99 L2042.91 209.99 L2042.91 235.916 L2038.65 235.916 L2038.65 209.99 M2038.65 199.897 L2042.91 199.897 L2042.91 205.291 L2038.65 205.291 L2038.65 199.897 Z" fill="#000000" fill-rule="nonzero" fill-opacity="1" /><path clip-path="url(#clip430)" d="M2073.38 220.268 L2073.38 235.916 L2069.12 235.916 L2069.12 220.407 Q2069.12 216.726 2067.68 214.897 Q2066.25 213.069 2063.38 213.069 Q2059.93 213.069 2057.94 215.268 Q2055.95 217.467 2055.95 221.263 L2055.95 235.916 L2051.66 235.916 L2051.66 209.99 L2055.95 209.99 L2055.95 214.018 Q2057.47 211.68 2059.53 210.522 Q2061.62 209.365 2064.33 209.365 Q2068.79 209.365 2071.08 212.143 Q2073.38 214.897 2073.38 220.268 Z" fill="#000000" fill-rule="nonzero" fill-opacity="1" /><path clip-path="url(#clip430)" d="M2098.93 222.652 Q2098.93 218.022 2097.01 215.476 Q2095.11 212.93 2091.66 212.93 Q2088.24 212.93 2086.32 215.476 Q2084.42 218.022 2084.42 222.652 Q2084.42 227.258 2086.32 229.805 Q2088.24 232.351 2091.66 232.351 Q2095.11 232.351 2097.01 229.805 Q2098.93 227.258 2098.93 222.652 M2103.19 232.698 Q2103.19 239.318 2100.25 242.536 Q2097.31 245.777 2091.25 245.777 Q2089 245.777 2087.01 245.43 Q2085.02 245.105 2083.14 244.411 L2083.14 240.268 Q2085.02 241.286 2086.85 241.772 Q2088.68 242.258 2090.57 242.258 Q2094.76 242.258 2096.85 240.059 Q2098.93 237.883 2098.93 233.462 L2098.93 231.356 Q2097.61 233.647 2095.55 234.781 Q2093.49 235.916 2090.62 235.916 Q2085.85 235.916 2082.94 232.281 Q2080.02 228.647 2080.02 222.652 Q2080.02 216.633 2082.94 212.999 Q2085.85 209.365 2090.62 209.365 Q2093.49 209.365 2095.55 210.499 Q2097.61 211.633 2098.93 213.925 L2098.93 209.99 L2103.19 209.99 L2103.19 232.698 Z" fill="#000000" fill-rule="nonzero" fill-opacity="1" /><path clip-path="url(#clip430)" d="M2124.88 221.032 L2137.36 221.032 L2137.36 224.828 L2124.88 224.828 L2124.88 221.032 Z" fill="#000000" fill-rule="nonzero" fill-opacity="1" /><path clip-path="url(#clip430)" d="M2160.62 231.981 L2168.26 231.981 L2168.26 205.615 L2159.95 207.282 L2159.95 203.022 L2168.21 201.356 L2172.89 201.356 L2172.89 231.981 L2180.53 231.981 L2180.53 235.916 L2160.62 235.916 L2160.62 231.981 Z" fill="#000000" fill-rule="nonzero" fill-opacity="1" /><path clip-path="url(#clip430)" d="M2190.02 201.356 L2208.38 201.356 L2208.38 205.291 L2194.3 205.291 L2194.3 213.763 Q2195.32 213.416 2196.34 213.254 Q2197.36 213.069 2198.38 213.069 Q2204.16 213.069 2207.54 216.24 Q2210.92 219.411 2210.92 224.828 Q2210.92 230.406 2207.45 233.508 Q2203.98 236.587 2197.66 236.587 Q2195.48 236.587 2193.21 236.217 Q2190.97 235.846 2188.56 235.106 L2188.56 230.406 Q2190.64 231.541 2192.87 232.096 Q2195.09 232.652 2197.57 232.652 Q2201.57 232.652 2203.91 230.545 Q2206.25 228.439 2206.25 224.828 Q2206.25 221.217 2203.91 219.11 Q2201.57 217.004 2197.57 217.004 Q2195.69 217.004 2193.82 217.42 Q2191.96 217.837 2190.02 218.717 L2190.02 201.356 Z" fill="#000000" fill-rule="nonzero" fill-opacity="1" /><circle clip-path="url(#clip430)" cx="1832.88" cy="270.476" r="20.48" fill="#e26f46" fill-rule="evenodd" fill-opacity="1" stroke="#000000" stroke-opacity="1" stroke-width="4.55111"/>
<path clip-path="url(#clip430)" d="M1925.11 261.83 L1929.63 261.83 L1937.73 283.589 L1945.83 261.83 L1950.34 261.83 L1940.62 287.756 L1934.83 287.756 L1925.11 261.83 Z" fill="#000000" fill-rule="nonzero" fill-opacity="1" /><path clip-path="url(#clip430)" d="M1968.01 274.723 Q1962.84 274.723 1960.85 275.904 Q1958.86 277.084 1958.86 279.932 Q1958.86 282.2 1960.34 283.543 Q1961.85 284.862 1964.42 284.862 Q1967.96 284.862 1970.09 282.362 Q1972.24 279.839 1972.24 275.672 L1972.24 274.723 L1968.01 274.723 M1976.5 272.964 L1976.5 287.756 L1972.24 287.756 L1972.24 283.821 Q1970.78 286.182 1968.61 287.316 Q1966.43 288.427 1963.28 288.427 Q1959.3 288.427 1956.94 286.205 Q1954.6 283.959 1954.6 280.209 Q1954.6 275.834 1957.52 273.612 Q1960.46 271.39 1966.27 271.39 L1972.24 271.39 L1972.24 270.973 Q1972.24 268.034 1970.3 266.436 Q1968.38 264.816 1964.88 264.816 Q1962.66 264.816 1960.55 265.348 Q1958.45 265.881 1956.5 266.946 L1956.5 263.01 Q1958.84 262.108 1961.04 261.668 Q1963.24 261.205 1965.32 261.205 Q1970.95 261.205 1973.72 264.122 Q1976.5 267.038 1976.5 272.964 Z" fill="#000000" fill-rule="nonzero" fill-opacity="1" /><path clip-path="url(#clip430)" d="M1985.27 251.737 L1989.53 251.737 L1989.53 287.756 L1985.27 287.756 L1985.27 251.737 Z" fill="#000000" fill-rule="nonzero" fill-opacity="1" /><path clip-path="url(#clip430)" d="M1998.45 261.83 L2002.7 261.83 L2002.7 287.756 L1998.45 287.756 L1998.45 261.83 M1998.45 251.737 L2002.7 251.737 L2002.7 257.131 L1998.45 257.131 L1998.45 251.737 Z" fill="#000000" fill-rule="nonzero" fill-opacity="1" /><path clip-path="url(#clip430)" d="M2028.68 265.765 L2028.68 251.737 L2032.94 251.737 L2032.94 287.756 L2028.68 287.756 L2028.68 283.867 Q2027.33 286.182 2025.27 287.316 Q2023.24 288.427 2020.37 288.427 Q2015.67 288.427 2012.7 284.677 Q2009.77 280.927 2009.77 274.816 Q2009.77 268.705 2012.7 264.955 Q2015.67 261.205 2020.37 261.205 Q2023.24 261.205 2025.27 262.339 Q2027.33 263.45 2028.68 265.765 M2014.16 274.816 Q2014.16 279.515 2016.08 282.2 Q2018.03 284.862 2021.41 284.862 Q2024.79 284.862 2026.73 282.2 Q2028.68 279.515 2028.68 274.816 Q2028.68 270.117 2026.73 267.455 Q2024.79 264.77 2021.41 264.77 Q2018.03 264.77 2016.08 267.455 Q2014.16 270.117 2014.16 274.816 Z" fill="#000000" fill-rule="nonzero" fill-opacity="1" /><path clip-path="url(#clip430)" d="M2053.49 274.723 Q2048.33 274.723 2046.34 275.904 Q2044.35 277.084 2044.35 279.932 Q2044.35 282.2 2045.83 283.543 Q2047.33 284.862 2049.9 284.862 Q2053.45 284.862 2055.58 282.362 Q2057.73 279.839 2057.73 275.672 L2057.73 274.723 L2053.49 274.723 M2061.99 272.964 L2061.99 287.756 L2057.73 287.756 L2057.73 283.821 Q2056.27 286.182 2054.09 287.316 Q2051.92 288.427 2048.77 288.427 Q2044.79 288.427 2042.43 286.205 Q2040.09 283.959 2040.09 280.209 Q2040.09 275.834 2043.01 273.612 Q2045.95 271.39 2051.76 271.39 L2057.73 271.39 L2057.73 270.973 Q2057.73 268.034 2055.78 266.436 Q2053.86 264.816 2050.37 264.816 Q2048.14 264.816 2046.04 265.348 Q2043.93 265.881 2041.99 266.946 L2041.99 263.01 Q2044.33 262.108 2046.52 261.668 Q2048.72 261.205 2050.81 261.205 Q2056.43 261.205 2059.21 264.122 Q2061.99 267.038 2061.99 272.964 Z" fill="#000000" fill-rule="nonzero" fill-opacity="1" /><path clip-path="url(#clip430)" d="M2074.97 254.469 L2074.97 261.83 L2083.75 261.83 L2083.75 265.14 L2074.97 265.14 L2074.97 279.214 Q2074.97 282.385 2075.83 283.288 Q2076.71 284.191 2079.37 284.191 L2083.75 284.191 L2083.75 287.756 L2079.37 287.756 Q2074.44 287.756 2072.57 285.927 Q2070.69 284.075 2070.69 279.214 L2070.69 265.14 L2067.57 265.14 L2067.57 261.83 L2070.69 261.83 L2070.69 254.469 L2074.97 254.469 Z" fill="#000000" fill-rule="nonzero" fill-opacity="1" /><path clip-path="url(#clip430)" d="M2089.35 261.83 L2093.61 261.83 L2093.61 287.756 L2089.35 287.756 L2089.35 261.83 M2089.35 251.737 L2093.61 251.737 L2093.61 257.131 L2089.35 257.131 L2089.35 251.737 Z" fill="#000000" fill-rule="nonzero" fill-opacity="1" /><path clip-path="url(#clip430)" d="M2112.57 264.816 Q2109.14 264.816 2107.15 267.501 Q2105.16 270.163 2105.16 274.816 Q2105.16 279.469 2107.13 282.154 Q2109.12 284.816 2112.57 284.816 Q2115.97 284.816 2117.96 282.131 Q2119.95 279.446 2119.95 274.816 Q2119.95 270.21 2117.96 267.524 Q2115.97 264.816 2112.57 264.816 M2112.57 261.205 Q2118.12 261.205 2121.29 264.816 Q2124.46 268.427 2124.46 274.816 Q2124.46 281.182 2121.29 284.816 Q2118.12 288.427 2112.57 288.427 Q2106.99 288.427 2103.82 284.816 Q2100.67 281.182 2100.67 274.816 Q2100.67 268.427 2103.82 264.816 Q2106.99 261.205 2112.57 261.205 Z" fill="#000000" fill-rule="nonzero" fill-opacity="1" /><path clip-path="url(#clip430)" d="M2153.07 272.108 L2153.07 287.756 L2148.82 287.756 L2148.82 272.247 Q2148.82 268.566 2147.38 266.737 Q2145.94 264.909 2143.07 264.909 Q2139.63 264.909 2137.63 267.108 Q2135.64 269.307 2135.64 273.103 L2135.64 287.756 L2131.36 287.756 L2131.36 261.83 L2135.64 261.83 L2135.64 265.858 Q2137.17 263.52 2139.23 262.362 Q2141.32 261.205 2144.02 261.205 Q2148.49 261.205 2150.78 263.983 Q2153.07 266.737 2153.07 272.108 Z" fill="#000000" fill-rule="nonzero" fill-opacity="1" /><path clip-path="url(#clip430)" d="M2174.49 272.872 L2186.96 272.872 L2186.96 276.668 L2174.49 276.668 L2174.49 272.872 Z" fill="#000000" fill-rule="nonzero" fill-opacity="1" /><path clip-path="url(#clip430)" d="M2210.23 283.821 L2217.87 283.821 L2217.87 257.455 L2209.56 259.122 L2209.56 254.862 L2217.82 253.196 L2222.5 253.196 L2222.5 283.821 L2230.13 283.821 L2230.13 287.756 L2210.23 287.756 L2210.23 283.821 Z" fill="#000000" fill-rule="nonzero" fill-opacity="1" /><path clip-path="url(#clip430)" d="M2239.63 253.196 L2257.98 253.196 L2257.98 257.131 L2243.91 257.131 L2243.91 265.603 Q2244.93 265.256 2245.94 265.094 Q2246.96 264.909 2247.98 264.909 Q2253.77 264.909 2257.15 268.08 Q2260.53 271.251 2260.53 276.668 Q2260.53 282.246 2257.06 285.348 Q2253.58 288.427 2247.26 288.427 Q2245.09 288.427 2242.82 288.057 Q2240.57 287.686 2238.17 286.946 L2238.17 282.246 Q2240.25 283.381 2242.47 283.936 Q2244.69 284.492 2247.17 284.492 Q2251.18 284.492 2253.51 282.385 Q2255.85 280.279 2255.85 276.668 Q2255.85 273.057 2253.51 270.95 Q2251.18 268.844 2247.17 268.844 Q2245.3 268.844 2243.42 269.26 Q2241.57 269.677 2239.63 270.557 L2239.63 253.196 Z" fill="#000000" fill-rule="nonzero" fill-opacity="1" /></svg>
