<?xml version="1.0" encoding="utf-8"?>
<svg xmlns="http://www.w3.org/2000/svg" xmlns:xlink="http://www.w3.org/1999/xlink" width="600" height="400" viewBox="0 0 2400 1600">
<defs>
  <clipPath id="clip190">
    <rect x="0" y="0" width="2400" height="1600"/>
  </clipPath>
</defs>
<path clip-path="url(#clip190)" d="M0 1600 L2400 1600 L2400 0 L0 0  Z" fill="#ffffff" fill-rule="evenodd" fill-opacity="1"/>
<defs>
  <clipPath id="clip191">
    <rect x="480" y="0" width="1681" height="1600"/>
  </clipPath>
</defs>
<path clip-path="url(#clip190)" d="M175.445 1423.18 L2352.76 1423.18 L2352.76 123.472 L175.445 123.472  Z" fill="#ffffff" fill-rule="evenodd" fill-opacity="1"/>
<defs>
  <clipPath id="clip192">
    <rect x="175" y="123" width="2178" height="1301"/>
  </clipPath>
</defs>
<polyline clip-path="url(#clip192)" style="stroke:#000000; stroke-linecap:round; stroke-linejoin:round; stroke-width:2; stroke-opacity:0.1; fill:none" points="457.146,1423.18 457.146,123.472 "/>
<polyline clip-path="url(#clip192)" style="stroke:#000000; stroke-linecap:round; stroke-linejoin:round; stroke-width:2; stroke-opacity:0.1; fill:none" points="823.943,1423.18 823.943,123.472 "/>
<polyline clip-path="url(#clip192)" style="stroke:#000000; stroke-linecap:round; stroke-linejoin:round; stroke-width:2; stroke-opacity:0.1; fill:none" points="1190.74,1423.18 1190.74,123.472 "/>
<polyline clip-path="url(#clip192)" style="stroke:#000000; stroke-linecap:round; stroke-linejoin:round; stroke-width:2; stroke-opacity:0.1; fill:none" points="1557.54,1423.18 1557.54,123.472 "/>
<polyline clip-path="url(#clip192)" style="stroke:#000000; stroke-linecap:round; stroke-linejoin:round; stroke-width:2; stroke-opacity:0.1; fill:none" points="1924.34,1423.18 1924.34,123.472 "/>
<polyline clip-path="url(#clip192)" style="stroke:#000000; stroke-linecap:round; stroke-linejoin:round; stroke-width:2; stroke-opacity:0.1; fill:none" points="2291.13,1423.18 2291.13,123.472 "/>
<polyline clip-path="url(#clip190)" style="stroke:#000000; stroke-linecap:round; stroke-linejoin:round; stroke-width:4; stroke-opacity:1; fill:none" points="175.445,1423.18 2352.76,1423.18 "/>
<polyline clip-path="url(#clip190)" style="stroke:#000000; stroke-linecap:round; stroke-linejoin:round; stroke-width:4; stroke-opacity:1; fill:none" points="457.146,1423.18 457.146,1404.28 "/>
<polyline clip-path="url(#clip190)" style="stroke:#000000; stroke-linecap:round; stroke-linejoin:round; stroke-width:4; stroke-opacity:1; fill:none" points="823.943,1423.18 823.943,1404.28 "/>
<polyline clip-path="url(#clip190)" style="stroke:#000000; stroke-linecap:round; stroke-linejoin:round; stroke-width:4; stroke-opacity:1; fill:none" points="1190.74,1423.18 1190.74,1404.28 "/>
<polyline clip-path="url(#clip190)" style="stroke:#000000; stroke-linecap:round; stroke-linejoin:round; stroke-width:4; stroke-opacity:1; fill:none" points="1557.54,1423.18 1557.54,1404.28 "/>
<polyline clip-path="url(#clip190)" style="stroke:#000000; stroke-linecap:round; stroke-linejoin:round; stroke-width:4; stroke-opacity:1; fill:none" points="1924.34,1423.18 1924.34,1404.28 "/>
<polyline clip-path="url(#clip190)" style="stroke:#000000; stroke-linecap:round; stroke-linejoin:round; stroke-width:4; stroke-opacity:1; fill:none" points="2291.13,1423.18 2291.13,1404.28 "/>
<path clip-path="url(#clip190)" d="M447.424 1451.02 L465.78 1451.02 L465.78 1454.96 L451.706 1454.96 L451.706 1463.43 Q452.725 1463.08 453.743 1462.92 Q454.762 1462.73 455.78 1462.73 Q461.567 1462.73 464.947 1465.9 Q468.326 1469.08 468.326 1474.49 Q468.326 1480.07 464.854 1483.17 Q461.382 1486.25 455.062 1486.25 Q452.887 1486.25 450.618 1485.88 Q448.373 1485.51 445.965 1484.77 L445.965 1480.07 Q448.049 1481.2 450.271 1481.76 Q452.493 1482.32 454.97 1482.32 Q458.974 1482.32 461.312 1480.21 Q463.65 1478.1 463.65 1474.49 Q463.65 1470.88 461.312 1468.77 Q458.974 1466.67 454.97 1466.67 Q453.095 1466.67 451.22 1467.08 Q449.368 1467.5 447.424 1468.38 L447.424 1451.02 Z" fill="#000000" fill-rule="nonzero" fill-opacity="1" /><path clip-path="url(#clip190)" d="M798.631 1481.64 L806.27 1481.64 L806.27 1455.28 L797.96 1456.95 L797.96 1452.69 L806.224 1451.02 L810.899 1451.02 L810.899 1481.64 L818.538 1481.64 L818.538 1485.58 L798.631 1485.58 L798.631 1481.64 Z" fill="#000000" fill-rule="nonzero" fill-opacity="1" /><path clip-path="url(#clip190)" d="M837.983 1454.1 Q834.372 1454.1 832.543 1457.66 Q830.737 1461.2 830.737 1468.33 Q830.737 1475.44 832.543 1479.01 Q834.372 1482.55 837.983 1482.55 Q841.617 1482.55 843.422 1479.01 Q845.251 1475.44 845.251 1468.33 Q845.251 1461.2 843.422 1457.66 Q841.617 1454.1 837.983 1454.1 M837.983 1450.39 Q843.793 1450.39 846.848 1455 Q849.927 1459.58 849.927 1468.33 Q849.927 1477.06 846.848 1481.67 Q843.793 1486.25 837.983 1486.25 Q832.173 1486.25 829.094 1481.67 Q826.038 1477.06 826.038 1468.33 Q826.038 1459.58 829.094 1455 Q832.173 1450.39 837.983 1450.39 Z" fill="#000000" fill-rule="nonzero" fill-opacity="1" /><path clip-path="url(#clip190)" d="M1165.93 1481.64 L1173.57 1481.64 L1173.57 1455.28 L1165.26 1456.95 L1165.26 1452.69 L1173.52 1451.02 L1178.19 1451.02 L1178.19 1481.64 L1185.83 1481.64 L1185.83 1485.58 L1165.93 1485.58 L1165.93 1481.64 Z" fill="#000000" fill-rule="nonzero" fill-opacity="1" /><path clip-path="url(#clip190)" d="M1195.32 1451.02 L1213.68 1451.02 L1213.68 1454.96 L1199.61 1454.96 L1199.61 1463.43 Q1200.63 1463.08 1201.64 1462.92 Q1202.66 1462.73 1203.68 1462.73 Q1209.47 1462.73 1212.85 1465.9 Q1216.23 1469.08 1216.23 1474.49 Q1216.23 1480.07 1212.75 1483.17 Q1209.28 1486.25 1202.96 1486.25 Q1200.79 1486.25 1198.52 1485.88 Q1196.27 1485.51 1193.87 1484.77 L1193.87 1480.07 Q1195.95 1481.2 1198.17 1481.76 Q1200.39 1482.32 1202.87 1482.32 Q1206.88 1482.32 1209.21 1480.21 Q1211.55 1478.1 1211.55 1474.49 Q1211.55 1470.88 1209.21 1468.77 Q1206.88 1466.67 1202.87 1466.67 Q1201 1466.67 1199.12 1467.08 Q1197.27 1467.5 1195.32 1468.38 L1195.32 1451.02 Z" fill="#000000" fill-rule="nonzero" fill-opacity="1" /><path clip-path="url(#clip190)" d="M1536.31 1481.64 L1552.63 1481.64 L1552.63 1485.58 L1530.69 1485.58 L1530.69 1481.64 Q1533.35 1478.89 1537.93 1474.26 Q1542.54 1469.61 1543.72 1468.27 Q1545.96 1465.74 1546.84 1464.01 Q1547.75 1462.25 1547.75 1460.56 Q1547.75 1457.8 1545.8 1456.07 Q1543.88 1454.33 1540.78 1454.33 Q1538.58 1454.33 1536.13 1455.09 Q1533.7 1455.86 1530.92 1457.41 L1530.92 1452.69 Q1533.74 1451.55 1536.2 1450.97 Q1538.65 1450.39 1540.69 1450.39 Q1546.06 1450.39 1549.25 1453.08 Q1552.45 1455.77 1552.45 1460.26 Q1552.45 1462.39 1551.64 1464.31 Q1550.85 1466.2 1548.74 1468.8 Q1548.16 1469.47 1545.06 1472.69 Q1541.96 1475.88 1536.31 1481.64 Z" fill="#000000" fill-rule="nonzero" fill-opacity="1" /><path clip-path="url(#clip190)" d="M1572.45 1454.1 Q1568.83 1454.1 1567.01 1457.66 Q1565.2 1461.2 1565.2 1468.33 Q1565.2 1475.44 1567.01 1479.01 Q1568.83 1482.55 1572.45 1482.55 Q1576.08 1482.55 1577.89 1479.01 Q1579.71 1475.44 1579.71 1468.33 Q1579.71 1461.2 1577.89 1457.66 Q1576.08 1454.1 1572.45 1454.1 M1572.45 1450.39 Q1578.26 1450.39 1581.31 1455 Q1584.39 1459.58 1584.39 1468.33 Q1584.39 1477.06 1581.31 1481.67 Q1578.26 1486.25 1572.45 1486.25 Q1566.64 1486.25 1563.56 1481.67 Q1560.5 1477.06 1560.5 1468.33 Q1560.5 1459.58 1563.56 1455 Q1566.64 1450.39 1572.45 1450.39 Z" fill="#000000" fill-rule="nonzero" fill-opacity="1" /><path clip-path="url(#clip190)" d="M1903.61 1481.64 L1919.93 1481.64 L1919.93 1485.58 L1897.98 1485.58 L1897.98 1481.64 Q1900.64 1478.89 1905.23 1474.26 Q1909.83 1469.61 1911.01 1468.27 Q1913.26 1465.74 1914.14 1464.01 Q1915.04 1462.25 1915.04 1460.56 Q1915.04 1457.8 1913.1 1456.07 Q1911.18 1454.33 1908.07 1454.33 Q1905.88 1454.33 1903.42 1455.09 Q1900.99 1455.86 1898.21 1457.41 L1898.21 1452.69 Q1901.04 1451.55 1903.49 1450.97 Q1905.95 1450.39 1907.98 1450.39 Q1913.35 1450.39 1916.55 1453.08 Q1919.74 1455.77 1919.74 1460.26 Q1919.74 1462.39 1918.93 1464.31 Q1918.14 1466.2 1916.04 1468.8 Q1915.46 1469.47 1912.36 1472.69 Q1909.26 1475.88 1903.61 1481.64 Z" fill="#000000" fill-rule="nonzero" fill-opacity="1" /><path clip-path="url(#clip190)" d="M1929.79 1451.02 L1948.14 1451.02 L1948.14 1454.96 L1934.07 1454.96 L1934.07 1463.43 Q1935.09 1463.08 1936.11 1462.92 Q1937.13 1462.73 1938.14 1462.73 Q1943.93 1462.73 1947.31 1465.9 Q1950.69 1469.08 1950.69 1474.49 Q1950.69 1480.07 1947.22 1483.17 Q1943.75 1486.25 1937.43 1486.25 Q1935.25 1486.25 1932.98 1485.88 Q1930.74 1485.51 1928.33 1484.77 L1928.33 1480.07 Q1930.41 1481.2 1932.63 1481.76 Q1934.86 1482.32 1937.33 1482.32 Q1941.34 1482.32 1943.68 1480.21 Q1946.01 1478.1 1946.01 1474.49 Q1946.01 1470.88 1943.68 1468.77 Q1941.34 1466.67 1937.33 1466.67 Q1935.46 1466.67 1933.58 1467.08 Q1931.73 1467.5 1929.79 1468.38 L1929.79 1451.02 Z" fill="#000000" fill-rule="nonzero" fill-opacity="1" /><path clip-path="url(#clip190)" d="M2279.98 1466.95 Q2283.33 1467.66 2285.21 1469.93 Q2287.11 1472.2 2287.11 1475.53 Q2287.11 1480.65 2283.59 1483.45 Q2280.07 1486.25 2273.59 1486.25 Q2271.41 1486.25 2269.1 1485.81 Q2266.81 1485.39 2264.35 1484.54 L2264.35 1480.02 Q2266.3 1481.16 2268.61 1481.74 Q2270.93 1482.32 2273.45 1482.32 Q2277.85 1482.32 2280.14 1480.58 Q2282.45 1478.84 2282.45 1475.53 Q2282.45 1472.48 2280.3 1470.77 Q2278.17 1469.03 2274.35 1469.03 L2270.32 1469.03 L2270.32 1465.19 L2274.54 1465.19 Q2277.99 1465.19 2279.81 1463.82 Q2281.64 1462.43 2281.64 1459.84 Q2281.64 1457.18 2279.75 1455.77 Q2277.87 1454.33 2274.35 1454.33 Q2272.43 1454.33 2270.23 1454.75 Q2268.03 1455.16 2265.39 1456.04 L2265.39 1451.88 Q2268.06 1451.14 2270.37 1450.77 Q2272.71 1450.39 2274.77 1450.39 Q2280.09 1450.39 2283.19 1452.83 Q2286.3 1455.23 2286.3 1459.35 Q2286.3 1462.22 2284.65 1464.21 Q2283.01 1466.18 2279.98 1466.95 Z" fill="#000000" fill-rule="nonzero" fill-opacity="1" /><path clip-path="url(#clip190)" d="M2305.97 1454.1 Q2302.36 1454.1 2300.53 1457.66 Q2298.73 1461.2 2298.73 1468.33 Q2298.73 1475.44 2300.53 1479.01 Q2302.36 1482.55 2305.97 1482.55 Q2309.61 1482.55 2311.41 1479.01 Q2313.24 1475.44 2313.24 1468.33 Q2313.24 1461.2 2311.41 1457.66 Q2309.61 1454.1 2305.97 1454.1 M2305.97 1450.39 Q2311.78 1450.39 2314.84 1455 Q2317.92 1459.58 2317.92 1468.33 Q2317.92 1477.06 2314.84 1481.67 Q2311.78 1486.25 2305.97 1486.25 Q2300.16 1486.25 2297.08 1481.67 Q2294.03 1477.06 2294.03 1468.33 Q2294.03 1459.58 2297.08 1455 Q2300.16 1450.39 2305.97 1450.39 Z" fill="#000000" fill-rule="nonzero" fill-opacity="1" /><path clip-path="url(#clip190)" d="M1178.93 1546.53 L1178.93 1568.04 L1173.07 1568.04 L1173.07 1546.72 Q1173.07 1541.66 1171.1 1539.14 Q1169.12 1536.63 1165.18 1536.63 Q1160.44 1536.63 1157.7 1539.65 Q1154.96 1542.68 1154.96 1547.9 L1154.96 1568.04 L1149.07 1568.04 L1149.07 1518.52 L1154.96 1518.52 L1154.96 1537.93 Q1157.06 1534.72 1159.89 1533.13 Q1162.76 1531.54 1166.48 1531.54 Q1172.63 1531.54 1175.78 1535.36 Q1178.93 1539.14 1178.93 1546.53 Z" fill="#000000" fill-rule="nonzero" fill-opacity="1" /><path clip-path="url(#clip190)" d="M1204.42 1536.5 Q1199.71 1536.5 1196.97 1540.19 Q1194.24 1543.85 1194.24 1550.25 Q1194.24 1556.65 1196.94 1560.34 Q1199.68 1564 1204.42 1564 Q1209.1 1564 1211.84 1560.31 Q1214.58 1556.62 1214.58 1550.25 Q1214.58 1543.92 1211.84 1540.23 Q1209.1 1536.5 1204.42 1536.5 M1204.42 1531.54 Q1212.06 1531.54 1216.42 1536.5 Q1220.78 1541.47 1220.78 1550.25 Q1220.78 1559 1216.42 1564 Q1212.06 1568.97 1204.42 1568.97 Q1196.75 1568.97 1192.39 1564 Q1188.06 1559 1188.06 1550.25 Q1188.06 1541.47 1192.39 1536.5 Q1196.75 1531.54 1204.42 1531.54 Z" fill="#000000" fill-rule="nonzero" fill-opacity="1" /><path clip-path="url(#clip190)" d="M1251.15 1537.87 Q1250.16 1537.3 1248.98 1537.04 Q1247.84 1536.76 1246.44 1536.76 Q1241.47 1536.76 1238.8 1540 Q1236.16 1543.22 1236.16 1549.27 L1236.16 1568.04 L1230.27 1568.04 L1230.27 1532.4 L1236.16 1532.4 L1236.16 1537.93 Q1238 1534.69 1240.96 1533.13 Q1243.92 1531.54 1248.15 1531.54 Q1248.76 1531.54 1249.49 1531.63 Q1250.22 1531.7 1251.11 1531.85 L1251.15 1537.87 Z" fill="#000000" fill-rule="nonzero" fill-opacity="1" /><path clip-path="url(#clip190)" d="M1257.29 1532.4 L1263.15 1532.4 L1263.15 1568.04 L1257.29 1568.04 L1257.29 1532.4 M1257.29 1518.52 L1263.15 1518.52 L1263.15 1525.93 L1257.29 1525.93 L1257.29 1518.52 Z" fill="#000000" fill-rule="nonzero" fill-opacity="1" /><path clip-path="url(#clip190)" d="M1272.85 1532.4 L1300.67 1532.4 L1300.67 1537.74 L1278.65 1563.37 L1300.67 1563.37 L1300.67 1568.04 L1272.06 1568.04 L1272.06 1562.7 L1294.08 1537.07 L1272.85 1537.07 L1272.85 1532.4 Z" fill="#000000" fill-rule="nonzero" fill-opacity="1" /><path clip-path="url(#clip190)" d="M1323.43 1536.5 Q1318.72 1536.5 1315.98 1540.19 Q1313.24 1543.85 1313.24 1550.25 Q1313.24 1556.65 1315.95 1560.34 Q1318.69 1564 1323.43 1564 Q1328.11 1564 1330.84 1560.31 Q1333.58 1556.62 1333.58 1550.25 Q1333.58 1543.92 1330.84 1540.23 Q1328.11 1536.5 1323.43 1536.5 M1323.43 1531.54 Q1331.07 1531.54 1335.43 1536.5 Q1339.79 1541.47 1339.79 1550.25 Q1339.79 1559 1335.43 1564 Q1331.07 1568.97 1323.43 1568.97 Q1315.76 1568.97 1311.4 1564 Q1307.07 1559 1307.07 1550.25 Q1307.07 1541.47 1311.4 1536.5 Q1315.76 1531.54 1323.43 1531.54 Z" fill="#000000" fill-rule="nonzero" fill-opacity="1" /><path clip-path="url(#clip190)" d="M1379.13 1546.53 L1379.13 1568.04 L1373.27 1568.04 L1373.27 1546.72 Q1373.27 1541.66 1371.3 1539.14 Q1369.33 1536.63 1365.38 1536.63 Q1360.64 1536.63 1357.9 1539.65 Q1355.16 1542.68 1355.16 1547.9 L1355.16 1568.04 L1349.27 1568.04 L1349.27 1532.4 L1355.16 1532.4 L1355.16 1537.93 Q1357.26 1534.72 1360.1 1533.13 Q1362.96 1531.54 1366.68 1531.54 Q1372.83 1531.54 1375.98 1535.36 Q1379.13 1539.14 1379.13 1546.53 Z" fill="#000000" fill-rule="nonzero" fill-opacity="1" /><polyline clip-path="url(#clip192)" style="stroke:#000000; stroke-linecap:round; stroke-linejoin:round; stroke-width:2; stroke-opacity:0.1; fill:none" points="175.445,1402.82 2352.76,1402.82 "/>
<polyline clip-path="url(#clip192)" style="stroke:#000000; stroke-linecap:round; stroke-linejoin:round; stroke-width:2; stroke-opacity:0.1; fill:none" points="175.445,1187.54 2352.76,1187.54 "/>
<polyline clip-path="url(#clip192)" style="stroke:#000000; stroke-linecap:round; stroke-linejoin:round; stroke-width:2; stroke-opacity:0.1; fill:none" points="175.445,972.262 2352.76,972.262 "/>
<polyline clip-path="url(#clip192)" style="stroke:#000000; stroke-linecap:round; stroke-linejoin:round; stroke-width:2; stroke-opacity:0.1; fill:none" points="175.445,756.983 2352.76,756.983 "/>
<polyline clip-path="url(#clip192)" style="stroke:#000000; stroke-linecap:round; stroke-linejoin:round; stroke-width:2; stroke-opacity:0.1; fill:none" points="175.445,541.705 2352.76,541.705 "/>
<polyline clip-path="url(#clip192)" style="stroke:#000000; stroke-linecap:round; stroke-linejoin:round; stroke-width:2; stroke-opacity:0.1; fill:none" points="175.445,326.427 2352.76,326.427 "/>
<polyline clip-path="url(#clip190)" style="stroke:#000000; stroke-linecap:round; stroke-linejoin:round; stroke-width:4; stroke-opacity:1; fill:none" points="175.445,1423.18 175.445,123.472 "/>
<polyline clip-path="url(#clip190)" style="stroke:#000000; stroke-linecap:round; stroke-linejoin:round; stroke-width:4; stroke-opacity:1; fill:none" points="175.445,1402.82 194.343,1402.82 "/>
<polyline clip-path="url(#clip190)" style="stroke:#000000; stroke-linecap:round; stroke-linejoin:round; stroke-width:4; stroke-opacity:1; fill:none" points="175.445,1187.54 194.343,1187.54 "/>
<polyline clip-path="url(#clip190)" style="stroke:#000000; stroke-linecap:round; stroke-linejoin:round; stroke-width:4; stroke-opacity:1; fill:none" points="175.445,972.262 194.343,972.262 "/>
<polyline clip-path="url(#clip190)" style="stroke:#000000; stroke-linecap:round; stroke-linejoin:round; stroke-width:4; stroke-opacity:1; fill:none" points="175.445,756.983 194.343,756.983 "/>
<polyline clip-path="url(#clip190)" style="stroke:#000000; stroke-linecap:round; stroke-linejoin:round; stroke-width:4; stroke-opacity:1; fill:none" points="175.445,541.705 194.343,541.705 "/>
<polyline clip-path="url(#clip190)" style="stroke:#000000; stroke-linecap:round; stroke-linejoin:round; stroke-width:4; stroke-opacity:1; fill:none" points="175.445,326.427 194.343,326.427 "/>
<path clip-path="url(#clip190)" d="M119.538 1416.16 L127.177 1416.16 L127.177 1389.8 L118.867 1391.46 L118.867 1387.21 L127.13 1385.54 L131.806 1385.54 L131.806 1416.16 L139.445 1416.16 L139.445 1420.1 L119.538 1420.1 L119.538 1416.16 Z" fill="#000000" fill-rule="nonzero" fill-opacity="1" /><path clip-path="url(#clip190)" d="M123.126 1200.89 L139.445 1200.89 L139.445 1204.82 L117.501 1204.82 L117.501 1200.89 Q120.163 1198.13 124.746 1193.5 Q129.353 1188.85 130.533 1187.51 Q132.779 1184.98 133.658 1183.25 Q134.561 1181.49 134.561 1179.8 Q134.561 1177.04 132.617 1175.31 Q130.695 1173.57 127.593 1173.57 Q125.394 1173.57 122.941 1174.33 Q120.51 1175.1 117.732 1176.65 L117.732 1171.93 Q120.556 1170.79 123.01 1170.21 Q125.464 1169.64 127.501 1169.64 Q132.871 1169.64 136.066 1172.32 Q139.26 1175.01 139.26 1179.5 Q139.26 1181.63 138.45 1183.55 Q137.663 1185.45 135.556 1188.04 Q134.978 1188.71 131.876 1191.93 Q128.774 1195.12 123.126 1200.89 Z" fill="#000000" fill-rule="nonzero" fill-opacity="1" /><path clip-path="url(#clip190)" d="M132.316 970.908 Q135.672 971.625 137.547 973.894 Q139.445 976.162 139.445 979.496 Q139.445 984.611 135.927 987.412 Q132.408 990.213 125.927 990.213 Q123.751 990.213 121.436 989.773 Q119.144 989.357 116.691 988.5 L116.691 983.986 Q118.635 985.121 120.95 985.699 Q123.265 986.278 125.788 986.278 Q130.186 986.278 132.478 984.542 Q134.792 982.806 134.792 979.496 Q134.792 976.44 132.64 974.727 Q130.51 972.991 126.691 972.991 L122.663 972.991 L122.663 969.149 L126.876 969.149 Q130.325 969.149 132.154 967.783 Q133.982 966.394 133.982 963.801 Q133.982 961.139 132.084 959.727 Q130.209 958.292 126.691 958.292 Q124.769 958.292 122.57 958.709 Q120.371 959.125 117.732 960.005 L117.732 955.838 Q120.394 955.098 122.709 954.727 Q125.047 954.357 127.107 954.357 Q132.431 954.357 135.533 956.787 Q138.635 959.195 138.635 963.315 Q138.635 966.186 136.992 968.176 Q135.348 970.144 132.316 970.908 Z" fill="#000000" fill-rule="nonzero" fill-opacity="1" /><path clip-path="url(#clip190)" d="M129.862 743.778 L118.056 762.227 L129.862 762.227 L129.862 743.778 M128.635 739.703 L134.515 739.703 L134.515 762.227 L139.445 762.227 L139.445 766.115 L134.515 766.115 L134.515 774.263 L129.862 774.263 L129.862 766.115 L114.26 766.115 L114.26 761.602 L128.635 739.703 Z" fill="#000000" fill-rule="nonzero" fill-opacity="1" /><path clip-path="url(#clip190)" d="M118.543 524.425 L136.899 524.425 L136.899 528.36 L122.825 528.36 L122.825 536.832 Q123.843 536.485 124.862 536.323 Q125.88 536.138 126.899 536.138 Q132.686 536.138 136.066 539.309 Q139.445 542.48 139.445 547.897 Q139.445 553.476 135.973 556.578 Q132.501 559.656 126.181 559.656 Q124.005 559.656 121.737 559.286 Q119.492 558.916 117.084 558.175 L117.084 553.476 Q119.168 554.61 121.39 555.166 Q123.612 555.721 126.089 555.721 Q130.093 555.721 132.431 553.615 Q134.769 551.508 134.769 547.897 Q134.769 544.286 132.431 542.18 Q130.093 540.073 126.089 540.073 Q124.214 540.073 122.339 540.49 Q120.487 540.906 118.543 541.786 L118.543 524.425 Z" fill="#000000" fill-rule="nonzero" fill-opacity="1" /><path clip-path="url(#clip190)" d="M127.917 324.563 Q124.769 324.563 122.918 326.716 Q121.089 328.869 121.089 332.619 Q121.089 336.346 122.918 338.521 Q124.769 340.674 127.917 340.674 Q131.066 340.674 132.894 338.521 Q134.746 336.346 134.746 332.619 Q134.746 328.869 132.894 326.716 Q131.066 324.563 127.917 324.563 M137.2 309.91 L137.2 314.17 Q135.441 313.336 133.635 312.897 Q131.853 312.457 130.093 312.457 Q125.464 312.457 123.01 315.582 Q120.58 318.707 120.232 325.026 Q121.598 323.012 123.658 321.947 Q125.718 320.859 128.195 320.859 Q133.404 320.859 136.413 324.031 Q139.445 327.179 139.445 332.619 Q139.445 337.943 136.297 341.16 Q133.149 344.378 127.917 344.378 Q121.922 344.378 118.751 339.795 Q115.58 335.188 115.58 326.461 Q115.58 318.267 119.468 313.406 Q123.357 308.522 129.908 308.522 Q131.667 308.522 133.45 308.869 Q135.255 309.216 137.2 309.91 Z" fill="#000000" fill-rule="nonzero" fill-opacity="1" /><path clip-path="url(#clip190)" d="M16.4842 874.557 L16.4842 864.976 L48.8219 852.85 L16.4842 840.659 L16.4842 831.079 L64.0042 831.079 L64.0042 837.349 L22.277 837.349 L54.8694 849.603 L54.8694 856.064 L22.277 868.318 L64.0042 868.318 L64.0042 874.557 L16.4842 874.557 Z" fill="#000000" fill-rule="nonzero" fill-opacity="1" /><path clip-path="url(#clip190)" d="M41.7242 795.781 Q42.4244 793.712 44.7161 791.771 Q47.0077 789.797 51.0181 787.824 L64.0042 781.299 L64.0042 788.206 L51.8138 794.285 Q47.0395 796.64 45.48 798.868 Q43.9204 801.065 43.9204 804.884 L43.9204 811.886 L64.0042 811.886 L64.0042 818.316 L16.4842 818.316 L16.4842 803.802 Q16.4842 795.654 19.8898 791.643 Q23.2955 787.633 30.1704 787.633 Q34.6582 787.633 37.6183 789.734 Q40.5784 791.802 41.7242 795.781 M21.7677 811.886 L38.6368 811.886 L38.6368 803.802 Q38.6368 799.155 36.5043 796.8 Q34.34 794.412 30.1704 794.412 Q26.0009 794.412 23.9002 796.8 Q21.7677 799.155 21.7677 803.802 L21.7677 811.886 Z" fill="#000000" fill-rule="nonzero" fill-opacity="1" /><path clip-path="url(#clip190)" d="M22.818 759.783 L46.4666 768.504 L46.4666 751.03 L22.818 759.783 M16.4842 763.411 L16.4842 756.123 L64.0042 738.012 L64.0042 744.696 L51.8138 749.025 L51.8138 770.446 L64.0042 774.774 L64.0042 781.554 L16.4842 763.411 Z" fill="#000000" fill-rule="nonzero" fill-opacity="1" /><path clip-path="url(#clip190)" d="M16.4842 731.074 L16.4842 701.027 L21.895 701.027 L21.895 724.644 L35.9632 724.644 L35.9632 702.014 L41.3741 702.014 L41.3741 724.644 L58.5933 724.644 L58.5933 700.455 L64.0042 700.455 L64.0042 731.074 L16.4842 731.074 Z" fill="#000000" fill-rule="nonzero" fill-opacity="1" /><path clip-path="url(#clip190)" d="M14.479 672.095 L19.3487 672.095 L19.3487 677.697 Q19.3487 680.848 20.6219 682.089 Q21.895 683.299 25.2052 683.299 L28.3562 683.299 L28.3562 673.655 L32.9077 673.655 L32.9077 683.299 L64.0042 683.299 L64.0042 689.187 L32.9077 689.187 L32.9077 694.789 L28.3562 694.789 L28.3562 689.187 L25.8736 689.187 Q19.9216 689.187 17.2162 686.418 Q14.479 683.649 14.479 677.633 L14.479 672.095 Z" fill="#000000" fill-rule="nonzero" fill-opacity="1" /><path clip-path="url(#clip190)" d="M512.293 12.096 L520.476 12.096 L520.476 65.6895 L549.926 65.6895 L549.926 72.576 L512.293 72.576 L512.293 12.096 Z" fill="#000000" fill-rule="nonzero" fill-opacity="1" /><path clip-path="url(#clip190)" d="M558.19 27.2059 L565.644 27.2059 L565.644 72.576 L558.19 72.576 L558.19 27.2059 M558.19 9.54393 L565.644 9.54393 L565.644 18.9825 L558.19 18.9825 L558.19 9.54393 Z" fill="#000000" fill-rule="nonzero" fill-opacity="1" /><path clip-path="url(#clip190)" d="M618.954 45.1919 L618.954 72.576 L611.5 72.576 L611.5 45.4349 Q611.5 38.994 608.988 35.7938 Q606.477 32.5936 601.454 32.5936 Q595.418 32.5936 591.934 36.4419 Q588.45 40.2903 588.45 46.9338 L588.45 72.576 L580.956 72.576 L580.956 27.2059 L588.45 27.2059 L588.45 34.2544 Q591.124 30.163 594.729 28.1376 Q598.375 26.1121 603.115 26.1121 Q610.933 26.1121 614.943 30.9732 Q618.954 35.7938 618.954 45.1919 Z" fill="#000000" fill-rule="nonzero" fill-opacity="1" /><path clip-path="url(#clip190)" d="M672.628 48.0275 L672.628 51.6733 L638.357 51.6733 Q638.843 59.3701 642.975 63.421 Q647.148 67.4314 654.561 67.4314 Q658.855 67.4314 662.865 66.3781 Q666.916 65.3249 670.886 63.2184 L670.886 70.267 Q666.876 71.9684 662.663 72.8596 Q658.45 73.7508 654.115 73.7508 Q643.259 73.7508 636.899 67.4314 Q630.58 61.1119 630.58 50.3365 Q630.58 39.1965 636.575 32.6746 Q642.611 26.1121 652.819 26.1121 Q661.974 26.1121 667.281 32.0264 Q672.628 37.9003 672.628 48.0275 M665.174 45.84 Q665.093 39.7232 661.731 36.0774 Q658.409 32.4315 652.9 32.4315 Q646.662 32.4315 642.894 35.9558 Q639.168 39.4801 638.6 45.8805 L665.174 45.84 Z" fill="#000000" fill-rule="nonzero" fill-opacity="1" /><path clip-path="url(#clip190)" d="M705.481 49.7694 Q696.447 49.7694 692.964 51.8354 Q689.48 53.9013 689.48 58.8839 Q689.48 62.8538 692.072 65.2034 Q694.705 67.5124 699.202 67.5124 Q705.4 67.5124 709.127 63.1374 Q712.894 58.7219 712.894 51.4303 L712.894 49.7694 L705.481 49.7694 M720.348 46.6907 L720.348 72.576 L712.894 72.576 L712.894 65.6895 Q710.342 69.8214 706.534 71.8063 Q702.726 73.7508 697.217 73.7508 Q690.249 73.7508 686.118 69.8619 Q682.026 65.9325 682.026 59.3701 Q682.026 51.7138 687.13 47.825 Q692.275 43.9361 702.443 43.9361 L712.894 43.9361 L712.894 43.2069 Q712.894 38.0623 709.491 35.2672 Q706.129 32.4315 700.012 32.4315 Q696.123 32.4315 692.437 33.3632 Q688.751 34.295 685.348 36.1584 L685.348 29.2718 Q689.439 27.692 693.288 26.9223 Q697.136 26.1121 700.782 26.1121 Q710.626 26.1121 715.487 31.2163 Q720.348 36.3204 720.348 46.6907 Z" fill="#000000" fill-rule="nonzero" fill-opacity="1" /><path clip-path="url(#clip190)" d="M761.991 34.1734 Q760.735 33.4443 759.236 33.1202 Q757.778 32.7556 755.996 32.7556 Q749.676 32.7556 746.273 36.8875 Q742.911 40.9789 742.911 48.6757 L742.911 72.576 L735.417 72.576 L735.417 27.2059 L742.911 27.2059 L742.911 34.2544 Q745.261 30.1225 749.028 28.1376 Q752.795 26.1121 758.183 26.1121 Q758.953 26.1121 759.885 26.2337 Q760.816 26.3147 761.95 26.5172 L761.991 34.1734 Z" fill="#000000" fill-rule="nonzero" fill-opacity="1" /><path clip-path="url(#clip190)" d="M825.185 44.2197 Q827.818 45.1109 830.289 48.0275 Q832.801 50.9442 835.312 56.0483 L843.617 72.576 L834.826 72.576 L827.089 57.061 Q824.091 50.9847 821.256 48.9997 Q818.461 47.0148 813.599 47.0148 L804.688 47.0148 L804.688 72.576 L796.505 72.576 L796.505 12.096 L814.977 12.096 Q825.347 12.096 830.451 16.4305 Q835.555 20.7649 835.555 29.5149 Q835.555 35.2267 832.882 38.994 Q830.249 42.7613 825.185 44.2197 M804.688 18.8205 L804.688 40.2903 L814.977 40.2903 Q820.891 40.2903 823.889 37.5762 Q826.927 34.8216 826.927 29.5149 Q826.927 24.2082 823.889 21.5346 Q820.891 18.8205 814.977 18.8205 L804.688 18.8205 Z" fill="#000000" fill-rule="nonzero" fill-opacity="1" /><path clip-path="url(#clip190)" d="M888.906 48.0275 L888.906 51.6733 L854.635 51.6733 Q855.121 59.3701 859.253 63.421 Q863.426 67.4314 870.839 67.4314 Q875.133 67.4314 879.143 66.3781 Q883.194 65.3249 887.164 63.2184 L887.164 70.267 Q883.154 71.9684 878.941 72.8596 Q874.728 73.7508 870.393 73.7508 Q859.537 73.7508 853.177 67.4314 Q846.857 61.1119 846.857 50.3365 Q846.857 39.1965 852.853 32.6746 Q858.889 26.1121 869.097 26.1121 Q878.252 26.1121 883.559 32.0264 Q888.906 37.9003 888.906 48.0275 M881.452 45.84 Q881.371 39.7232 878.009 36.0774 Q874.687 32.4315 869.178 32.4315 Q862.94 32.4315 859.172 35.9558 Q855.445 39.4801 854.878 45.8805 L881.452 45.84 Z" fill="#000000" fill-rule="nonzero" fill-opacity="1" /><path clip-path="url(#clip190)" d="M930.995 49.3643 Q930.995 41.2625 927.632 36.8065 Q924.311 32.3505 918.275 32.3505 Q912.28 32.3505 908.917 36.8065 Q905.596 41.2625 905.596 49.3643 Q905.596 57.4256 908.917 61.8816 Q912.28 66.3376 918.275 66.3376 Q924.311 66.3376 927.632 61.8816 Q930.995 57.4256 930.995 49.3643 M938.448 66.9452 Q938.448 78.5308 933.304 84.1616 Q928.159 89.8329 917.546 89.8329 Q913.616 89.8329 910.133 89.2252 Q906.649 88.6581 903.368 87.4428 L903.368 80.1917 Q906.649 81.9741 909.849 82.8248 Q913.049 83.6755 916.371 83.6755 Q923.703 83.6755 927.349 79.8271 Q930.995 76.0193 930.995 68.282 L930.995 64.5957 Q928.686 68.6061 925.08 70.5911 Q921.475 72.576 916.452 72.576 Q908.107 72.576 903.003 66.2161 Q897.899 59.8562 897.899 49.3643 Q897.899 38.832 903.003 32.472 Q908.107 26.1121 916.452 26.1121 Q921.475 26.1121 925.08 28.0971 Q928.686 30.082 930.995 34.0924 L930.995 27.2059 L938.448 27.2059 L938.448 66.9452 Z" fill="#000000" fill-rule="nonzero" fill-opacity="1" /><path clip-path="url(#clip190)" d="M980.092 34.1734 Q978.836 33.4443 977.337 33.1202 Q975.879 32.7556 974.096 32.7556 Q967.777 32.7556 964.374 36.8875 Q961.012 40.9789 961.012 48.6757 L961.012 72.576 L953.518 72.576 L953.518 27.2059 L961.012 27.2059 L961.012 34.2544 Q963.361 30.1225 967.129 28.1376 Q970.896 26.1121 976.284 26.1121 Q977.053 26.1121 977.985 26.2337 Q978.917 26.3147 980.051 26.5172 L980.092 34.1734 Z" fill="#000000" fill-rule="nonzero" fill-opacity="1" /><path clip-path="url(#clip190)" d="M1024.89 48.0275 L1024.89 51.6733 L990.624 51.6733 Q991.11 59.3701 995.242 63.421 Q999.414 67.4314 1006.83 67.4314 Q1011.12 67.4314 1015.13 66.3781 Q1019.18 65.3249 1023.15 63.2184 L1023.15 70.267 Q1019.14 71.9684 1014.93 72.8596 Q1010.72 73.7508 1006.38 73.7508 Q995.526 73.7508 989.166 67.4314 Q982.846 61.1119 982.846 50.3365 Q982.846 39.1965 988.842 32.6746 Q994.877 26.1121 1005.09 26.1121 Q1014.24 26.1121 1019.55 32.0264 Q1024.89 37.9003 1024.89 48.0275 M1017.44 45.84 Q1017.36 39.7232 1014 36.0774 Q1010.68 32.4315 1005.17 32.4315 Q998.928 32.4315 995.161 35.9558 Q991.434 39.4801 990.867 45.8805 L1017.44 45.84 Z" fill="#000000" fill-rule="nonzero" fill-opacity="1" /><path clip-path="url(#clip190)" d="M1066.05 28.5427 L1066.05 35.5912 Q1062.89 33.9709 1059.49 33.1607 Q1056.09 32.3505 1052.44 32.3505 Q1046.89 32.3505 1044.1 34.0519 Q1041.34 35.7533 1041.34 39.156 Q1041.34 41.7486 1043.33 43.2475 Q1045.31 44.7058 1051.31 46.0426 L1053.86 46.6097 Q1061.8 48.3111 1065.12 51.4303 Q1068.48 54.509 1068.48 60.0587 Q1068.48 66.3781 1063.46 70.0644 Q1058.48 73.7508 1049.73 73.7508 Q1046.08 73.7508 1042.11 73.0216 Q1038.18 72.3329 1033.81 70.9151 L1033.81 63.2184 Q1037.94 65.3654 1041.95 66.4591 Q1045.96 67.5124 1049.89 67.5124 Q1055.15 67.5124 1057.99 65.73 Q1060.83 63.9071 1060.83 60.6258 Q1060.83 57.5877 1058.76 55.9673 Q1056.73 54.3469 1049.81 52.8481 L1047.22 52.2405 Q1040.29 50.7821 1037.21 47.7845 Q1034.13 44.7463 1034.13 39.4801 Q1034.13 33.0797 1038.67 29.5959 Q1043.2 26.1121 1051.55 26.1121 Q1055.68 26.1121 1059.33 26.7198 Q1062.97 27.3274 1066.05 28.5427 Z" fill="#000000" fill-rule="nonzero" fill-opacity="1" /><path clip-path="url(#clip190)" d="M1109.27 28.5427 L1109.27 35.5912 Q1106.12 33.9709 1102.71 33.1607 Q1099.31 32.3505 1095.66 32.3505 Q1090.11 32.3505 1087.32 34.0519 Q1084.56 35.7533 1084.56 39.156 Q1084.56 41.7486 1086.55 43.2475 Q1088.53 44.7058 1094.53 46.0426 L1097.08 46.6097 Q1105.02 48.3111 1108.34 51.4303 Q1111.71 54.509 1111.71 60.0587 Q1111.71 66.3781 1106.68 70.0644 Q1101.7 73.7508 1092.95 73.7508 Q1089.3 73.7508 1085.33 73.0216 Q1081.4 72.3329 1077.03 70.9151 L1077.03 63.2184 Q1081.16 65.3654 1085.17 66.4591 Q1089.18 67.5124 1093.11 67.5124 Q1098.38 67.5124 1101.21 65.73 Q1104.05 63.9071 1104.05 60.6258 Q1104.05 57.5877 1101.98 55.9673 Q1099.96 54.3469 1093.03 52.8481 L1090.44 52.2405 Q1083.51 50.7821 1080.43 47.7845 Q1077.35 44.7463 1077.35 39.4801 Q1077.35 33.0797 1081.89 29.5959 Q1086.43 26.1121 1094.77 26.1121 Q1098.9 26.1121 1102.55 26.7198 Q1106.2 27.3274 1109.27 28.5427 Z" fill="#000000" fill-rule="nonzero" fill-opacity="1" /><path clip-path="url(#clip190)" d="M1123.57 27.2059 L1131.03 27.2059 L1131.03 72.576 L1123.57 72.576 L1123.57 27.2059 M1123.57 9.54393 L1131.03 9.54393 L1131.03 18.9825 L1123.57 18.9825 L1123.57 9.54393 Z" fill="#000000" fill-rule="nonzero" fill-opacity="1" /><path clip-path="url(#clip190)" d="M1164.21 32.4315 Q1158.21 32.4315 1154.73 37.1306 Q1151.24 41.7891 1151.24 49.9314 Q1151.24 58.0738 1154.69 62.7728 Q1158.17 67.4314 1164.21 67.4314 Q1170.16 67.4314 1173.64 62.7323 Q1177.13 58.0333 1177.13 49.9314 Q1177.13 41.8701 1173.64 37.1711 Q1170.16 32.4315 1164.21 32.4315 M1164.21 26.1121 Q1173.93 26.1121 1179.48 32.4315 Q1185.03 38.7509 1185.03 49.9314 Q1185.03 61.0714 1179.48 67.4314 Q1173.93 73.7508 1164.21 73.7508 Q1154.44 73.7508 1148.89 67.4314 Q1143.38 61.0714 1143.38 49.9314 Q1143.38 38.7509 1148.89 32.4315 Q1154.44 26.1121 1164.21 26.1121 Z" fill="#000000" fill-rule="nonzero" fill-opacity="1" /><path clip-path="url(#clip190)" d="M1235.1 45.1919 L1235.1 72.576 L1227.64 72.576 L1227.64 45.4349 Q1227.64 38.994 1225.13 35.7938 Q1222.62 32.5936 1217.6 32.5936 Q1211.56 32.5936 1208.08 36.4419 Q1204.59 40.2903 1204.59 46.9338 L1204.59 72.576 L1197.1 72.576 L1197.1 27.2059 L1204.59 27.2059 L1204.59 34.2544 Q1207.27 30.163 1210.87 28.1376 Q1214.52 26.1121 1219.26 26.1121 Q1227.08 26.1121 1231.09 30.9732 Q1235.1 35.7938 1235.1 45.1919 Z" fill="#000000" fill-rule="nonzero" fill-opacity="1" /><path clip-path="url(#clip190)" d="M1251.87 62.2867 L1260.41 62.2867 L1260.41 72.576 L1251.87 72.576 L1251.87 62.2867 M1251.87 29.6769 L1260.41 29.6769 L1260.41 39.9662 L1251.87 39.9662 L1251.87 29.6769 Z" fill="#000000" fill-rule="nonzero" fill-opacity="1" /><path clip-path="url(#clip190)" d="M1304.61 12.096 L1316.8 12.096 L1332.24 53.2532 L1347.75 12.096 L1359.94 12.096 L1359.94 72.576 L1351.96 72.576 L1351.96 19.4686 L1336.37 60.9499 L1328.15 60.9499 L1312.55 19.4686 L1312.55 72.576 L1304.61 72.576 L1304.61 12.096 Z" fill="#000000" fill-rule="nonzero" fill-opacity="1" /><path clip-path="url(#clip190)" d="M1404.87 44.2197 Q1407.5 45.1109 1409.97 48.0275 Q1412.49 50.9442 1415 56.0483 L1423.3 72.576 L1414.51 72.576 L1406.77 57.061 Q1403.78 50.9847 1400.94 48.9997 Q1398.14 47.0148 1393.28 47.0148 L1384.37 47.0148 L1384.37 72.576 L1376.19 72.576 L1376.19 12.096 L1394.66 12.096 Q1405.03 12.096 1410.14 16.4305 Q1415.24 20.7649 1415.24 29.5149 Q1415.24 35.2267 1412.57 38.994 Q1409.93 42.7613 1404.87 44.2197 M1384.37 18.8205 L1384.37 40.2903 L1394.66 40.2903 Q1400.58 40.2903 1403.57 37.5762 Q1406.61 34.8216 1406.61 29.5149 Q1406.61 24.2082 1403.57 21.5346 Q1400.58 18.8205 1394.66 18.8205 L1384.37 18.8205 Z" fill="#000000" fill-rule="nonzero" fill-opacity="1" /><path clip-path="url(#clip190)" d="M1450.69 20.1573 L1439.59 50.2555 L1461.83 50.2555 L1450.69 20.1573 M1446.07 12.096 L1455.34 12.096 L1478.39 72.576 L1469.89 72.576 L1464.38 57.061 L1437.11 57.061 L1431.61 72.576 L1422.98 72.576 L1446.07 12.096 Z" fill="#000000" fill-rule="nonzero" fill-opacity="1" /><path clip-path="url(#clip190)" d="M1487.22 12.096 L1525.46 12.096 L1525.46 18.9825 L1495.41 18.9825 L1495.41 36.8875 L1524.21 36.8875 L1524.21 43.7741 L1495.41 43.7741 L1495.41 65.6895 L1526.19 65.6895 L1526.19 72.576 L1487.22 72.576 L1487.22 12.096 Z" fill="#000000" fill-rule="nonzero" fill-opacity="1" /><path clip-path="url(#clip190)" d="M1562.29 9.54393 L1562.29 15.7418 L1555.16 15.7418 Q1551.15 15.7418 1549.57 17.3622 Q1548.03 18.9825 1548.03 23.1955 L1548.03 27.2059 L1560.3 27.2059 L1560.3 32.9987 L1548.03 32.9987 L1548.03 72.576 L1540.53 72.576 L1540.53 32.9987 L1533.4 32.9987 L1533.4 27.2059 L1540.53 27.2059 L1540.53 24.0462 Q1540.53 16.471 1544.06 13.0277 Q1547.58 9.54393 1555.24 9.54393 L1562.29 9.54393 Z" fill="#000000" fill-rule="nonzero" fill-opacity="1" /><path clip-path="url(#clip190)" d="M1589.55 27.2059 L1597.45 27.2059 L1611.63 65.2844 L1625.81 27.2059 L1633.71 27.2059 L1616.69 72.576 L1606.56 72.576 L1589.55 27.2059 Z" fill="#000000" fill-rule="nonzero" fill-opacity="1" /><path clip-path="url(#clip190)" d="M1672.92 28.5427 L1672.92 35.5912 Q1669.76 33.9709 1666.36 33.1607 Q1662.95 32.3505 1659.31 32.3505 Q1653.76 32.3505 1650.96 34.0519 Q1648.21 35.7533 1648.21 39.156 Q1648.21 41.7486 1650.19 43.2475 Q1652.18 44.7058 1658.17 46.0426 L1660.72 46.6097 Q1668.66 48.3111 1671.99 51.4303 Q1675.35 54.509 1675.35 60.0587 Q1675.35 66.3781 1670.33 70.0644 Q1665.34 73.7508 1656.59 73.7508 Q1652.95 73.7508 1648.98 73.0216 Q1645.05 72.3329 1640.67 70.9151 L1640.67 63.2184 Q1644.8 65.3654 1648.81 66.4591 Q1652.83 67.5124 1656.75 67.5124 Q1662.02 67.5124 1664.86 65.73 Q1667.69 63.9071 1667.69 60.6258 Q1667.69 57.5877 1665.63 55.9673 Q1663.6 54.3469 1656.67 52.8481 L1654.08 52.2405 Q1647.15 50.7821 1644.08 47.7845 Q1641 44.7463 1641 39.4801 Q1641 33.0797 1645.53 29.5959 Q1650.07 26.1121 1658.42 26.1121 Q1662.55 26.1121 1666.19 26.7198 Q1669.84 27.3274 1672.92 28.5427 Z" fill="#000000" fill-rule="nonzero" fill-opacity="1" /><path clip-path="url(#clip190)" d="M1713.91 12.096 L1722.1 12.096 L1722.1 36.8875 L1751.83 36.8875 L1751.83 12.096 L1760.01 12.096 L1760.01 72.576 L1751.83 72.576 L1751.83 43.7741 L1722.1 43.7741 L1722.1 72.576 L1713.91 72.576 L1713.91 12.096 Z" fill="#000000" fill-rule="nonzero" fill-opacity="1" /><path clip-path="url(#clip190)" d="M1793.55 32.4315 Q1787.56 32.4315 1784.07 37.1306 Q1780.59 41.7891 1780.59 49.9314 Q1780.59 58.0738 1784.03 62.7728 Q1787.52 67.4314 1793.55 67.4314 Q1799.51 67.4314 1802.99 62.7323 Q1806.48 58.0333 1806.48 49.9314 Q1806.48 41.8701 1802.99 37.1711 Q1799.51 32.4315 1793.55 32.4315 M1793.55 26.1121 Q1803.28 26.1121 1808.83 32.4315 Q1814.38 38.7509 1814.38 49.9314 Q1814.38 61.0714 1808.83 67.4314 Q1803.28 73.7508 1793.55 73.7508 Q1783.79 73.7508 1778.24 67.4314 Q1772.73 61.0714 1772.73 49.9314 Q1772.73 38.7509 1778.24 32.4315 Q1783.79 26.1121 1793.55 26.1121 Z" fill="#000000" fill-rule="nonzero" fill-opacity="1" /><path clip-path="url(#clip190)" d="M1853.02 34.1734 Q1851.77 33.4443 1850.27 33.1202 Q1848.81 32.7556 1847.03 32.7556 Q1840.71 32.7556 1837.3 36.8875 Q1833.94 40.9789 1833.94 48.6757 L1833.94 72.576 L1826.45 72.576 L1826.45 27.2059 L1833.94 27.2059 L1833.94 34.2544 Q1836.29 30.1225 1840.06 28.1376 Q1843.83 26.1121 1849.21 26.1121 Q1849.98 26.1121 1850.91 26.2337 Q1851.85 26.3147 1852.98 26.5172 L1853.02 34.1734 Z" fill="#000000" fill-rule="nonzero" fill-opacity="1" /><path clip-path="url(#clip190)" d="M1860.84 27.2059 L1868.29 27.2059 L1868.29 72.576 L1860.84 72.576 L1860.84 27.2059 M1860.84 9.54393 L1868.29 9.54393 L1868.29 18.9825 L1860.84 18.9825 L1860.84 9.54393 Z" fill="#000000" fill-rule="nonzero" fill-opacity="1" /><path clip-path="url(#clip190)" d="M1880.65 27.2059 L1916.05 27.2059 L1916.05 34.0114 L1888.02 66.6212 L1916.05 66.6212 L1916.05 72.576 L1879.64 72.576 L1879.64 65.7705 L1907.67 33.1607 L1880.65 33.1607 L1880.65 27.2059 Z" fill="#000000" fill-rule="nonzero" fill-opacity="1" /><path clip-path="url(#clip190)" d="M1945.02 32.4315 Q1939.02 32.4315 1935.54 37.1306 Q1932.05 41.7891 1932.05 49.9314 Q1932.05 58.0738 1935.5 62.7728 Q1938.98 67.4314 1945.02 67.4314 Q1950.97 67.4314 1954.46 62.7323 Q1957.94 58.0333 1957.94 49.9314 Q1957.94 41.8701 1954.46 37.1711 Q1950.97 32.4315 1945.02 32.4315 M1945.02 26.1121 Q1954.74 26.1121 1960.29 32.4315 Q1965.84 38.7509 1965.84 49.9314 Q1965.84 61.0714 1960.29 67.4314 Q1954.74 73.7508 1945.02 73.7508 Q1935.25 73.7508 1929.7 67.4314 Q1924.2 61.0714 1924.2 49.9314 Q1924.2 38.7509 1929.7 32.4315 Q1935.25 26.1121 1945.02 26.1121 Z" fill="#000000" fill-rule="nonzero" fill-opacity="1" /><path clip-path="url(#clip190)" d="M2015.91 45.1919 L2015.91 72.576 L2008.45 72.576 L2008.45 45.4349 Q2008.45 38.994 2005.94 35.7938 Q2003.43 32.5936 1998.41 32.5936 Q1992.37 32.5936 1988.89 36.4419 Q1985.4 40.2903 1985.4 46.9338 L1985.4 72.576 L1977.91 72.576 L1977.91 27.2059 L1985.4 27.2059 L1985.4 34.2544 Q1988.08 30.163 1991.68 28.1376 Q1995.33 26.1121 2000.07 26.1121 Q2007.89 26.1121 2011.9 30.9732 Q2015.91 35.7938 2015.91 45.1919 Z" fill="#000000" fill-rule="nonzero" fill-opacity="1" /><circle clip-path="url(#clip192)" cx="237.067" cy="160.256" r="14.4" fill="#009af9" fill-rule="evenodd" fill-opacity="1" stroke="#000000" stroke-opacity="1" stroke-width="3.2"/>
<circle clip-path="url(#clip192)" cx="457.146" cy="1080.57" r="14.4" fill="#009af9" fill-rule="evenodd" fill-opacity="1" stroke="#000000" stroke-opacity="1" stroke-width="3.2"/>
<circle clip-path="url(#clip192)" cx="823.943" cy="1265.6" r="14.4" fill="#009af9" fill-rule="evenodd" fill-opacity="1" stroke="#000000" stroke-opacity="1" stroke-width="3.2"/>
<circle clip-path="url(#clip192)" cx="1190.74" cy="1324.18" r="14.4" fill="#009af9" fill-rule="evenodd" fill-opacity="1" stroke="#000000" stroke-opacity="1" stroke-width="3.2"/>
<circle clip-path="url(#clip192)" cx="1557.54" cy="1359.33" r="14.4" fill="#009af9" fill-rule="evenodd" fill-opacity="1" stroke="#000000" stroke-opacity="1" stroke-width="3.2"/>
<circle clip-path="url(#clip192)" cx="2291.13" cy="1381.17" r="14.4" fill="#009af9" fill-rule="evenodd" fill-opacity="1" stroke="#000000" stroke-opacity="1" stroke-width="3.2"/>
<circle clip-path="url(#clip192)" cx="237.067" cy="276.693" r="14.4" fill="#e26f46" fill-rule="evenodd" fill-opacity="1" stroke="#000000" stroke-opacity="1" stroke-width="3.2"/>
<circle clip-path="url(#clip192)" cx="457.146" cy="1150.92" r="14.4" fill="#e26f46" fill-rule="evenodd" fill-opacity="1" stroke="#000000" stroke-opacity="1" stroke-width="3.2"/>
<circle clip-path="url(#clip192)" cx="823.943" cy="1305.87" r="14.4" fill="#e26f46" fill-rule="evenodd" fill-opacity="1" stroke="#000000" stroke-opacity="1" stroke-width="3.2"/>
<circle clip-path="url(#clip192)" cx="1190.74" cy="1347.99" r="14.4" fill="#e26f46" fill-rule="evenodd" fill-opacity="1" stroke="#000000" stroke-opacity="1" stroke-width="3.2"/>
<circle clip-path="url(#clip192)" cx="1557.54" cy="1367" r="14.4" fill="#e26f46" fill-rule="evenodd" fill-opacity="1" stroke="#000000" stroke-opacity="1" stroke-width="3.2"/>
<circle clip-path="url(#clip192)" cx="2291.13" cy="1386.4" r="14.4" fill="#e26f46" fill-rule="evenodd" fill-opacity="1" stroke="#000000" stroke-opacity="1" stroke-width="3.2"/>
<path clip-path="url(#clip190)" d="M1757.43 322.316 L2280.18 322.316 L2280.18 166.796 L1757.43 166.796  Z" fill="#ffffff" fill-rule="evenodd" fill-opacity="1"/>
<polyline clip-path="url(#clip190)" style="stroke:#000000; stroke-linecap:round; stroke-linejoin:round; stroke-width:4; stroke-opacity:1; fill:none" points="1757.43,322.316 2280.18,322.316 2280.18,166.796 1757.43,166.796 1757.43,322.316 "/>
<circle clip-path="url(#clip190)" cx="1854.2" cy="218.636" r="20.48" fill="#009af9" fill-rule="evenodd" fill-opacity="1" stroke="#000000" stroke-opacity="1" stroke-width="4.55111"/>
<path clip-path="url(#clip190)" d="M1958.37 202.629 L1958.37 209.99 L1967.15 209.99 L1967.15 213.3 L1958.37 213.3 L1958.37 227.374 Q1958.37 230.545 1959.23 231.448 Q1960.11 232.351 1962.77 232.351 L1967.15 232.351 L1967.15 235.916 L1962.77 235.916 Q1957.84 235.916 1955.97 234.087 Q1954.09 232.235 1954.09 227.374 L1954.09 213.3 L1950.97 213.3 L1950.97 209.99 L1954.09 209.99 L1954.09 202.629 L1958.37 202.629 Z" fill="#000000" fill-rule="nonzero" fill-opacity="1" /><path clip-path="url(#clip190)" d="M1987.77 213.971 Q1987.05 213.555 1986.2 213.37 Q1985.36 213.161 1984.34 213.161 Q1980.73 213.161 1978.79 215.522 Q1976.87 217.86 1976.87 222.258 L1976.87 235.916 L1972.59 235.916 L1972.59 209.99 L1976.87 209.99 L1976.87 214.018 Q1978.21 211.657 1980.36 210.522 Q1982.52 209.365 1985.59 209.365 Q1986.03 209.365 1986.57 209.434 Q1987.1 209.481 1987.75 209.596 L1987.77 213.971 Z" fill="#000000" fill-rule="nonzero" fill-opacity="1" /><path clip-path="url(#clip190)" d="M2004.02 222.883 Q1998.86 222.883 1996.87 224.064 Q1994.88 225.244 1994.88 228.092 Q1994.88 230.36 1996.36 231.703 Q1997.86 233.022 2000.43 233.022 Q2003.97 233.022 2006.1 230.522 Q2008.26 227.999 2008.26 223.832 L2008.26 222.883 L2004.02 222.883 M2012.52 221.124 L2012.52 235.916 L2008.26 235.916 L2008.26 231.981 Q2006.8 234.342 2004.62 235.476 Q2002.45 236.587 1999.3 236.587 Q1995.32 236.587 1992.96 234.365 Q1990.62 232.119 1990.62 228.369 Q1990.62 223.994 1993.53 221.772 Q1996.47 219.55 2002.28 219.55 L2008.26 219.55 L2008.26 219.133 Q2008.26 216.194 2006.31 214.596 Q2004.39 212.976 2000.9 212.976 Q1998.67 212.976 1996.57 213.508 Q1994.46 214.041 1992.52 215.106 L1992.52 211.17 Q1994.85 210.268 1997.05 209.828 Q1999.25 209.365 2001.34 209.365 Q2006.96 209.365 2009.74 212.282 Q2012.52 215.198 2012.52 221.124 Z" fill="#000000" fill-rule="nonzero" fill-opacity="1" /><path clip-path="url(#clip190)" d="M2021.29 209.99 L2025.55 209.99 L2025.55 235.916 L2021.29 235.916 L2021.29 209.99 M2021.29 199.897 L2025.55 199.897 L2025.55 205.291 L2021.29 205.291 L2021.29 199.897 Z" fill="#000000" fill-rule="nonzero" fill-opacity="1" /><path clip-path="url(#clip190)" d="M2056.01 220.268 L2056.01 235.916 L2051.75 235.916 L2051.75 220.407 Q2051.75 216.726 2050.32 214.897 Q2048.88 213.069 2046.01 213.069 Q2042.56 213.069 2040.57 215.268 Q2038.58 217.467 2038.58 221.263 L2038.58 235.916 L2034.3 235.916 L2034.3 209.99 L2038.58 209.99 L2038.58 214.018 Q2040.11 211.68 2042.17 210.522 Q2044.25 209.365 2046.96 209.365 Q2051.43 209.365 2053.72 212.143 Q2056.01 214.897 2056.01 220.268 Z" fill="#000000" fill-rule="nonzero" fill-opacity="1" /><path clip-path="url(#clip190)" d="M2064.51 209.99 L2068.77 209.99 L2068.77 235.916 L2064.51 235.916 L2064.51 209.99 M2064.51 199.897 L2068.77 199.897 L2068.77 205.291 L2064.51 205.291 L2064.51 199.897 Z" fill="#000000" fill-rule="nonzero" fill-opacity="1" /><path clip-path="url(#clip190)" d="M2099.23 220.268 L2099.23 235.916 L2094.97 235.916 L2094.97 220.407 Q2094.97 216.726 2093.53 214.897 Q2092.1 213.069 2089.23 213.069 Q2085.78 213.069 2083.79 215.268 Q2081.8 217.467 2081.8 221.263 L2081.8 235.916 L2077.52 235.916 L2077.52 209.99 L2081.8 209.99 L2081.8 214.018 Q2083.33 211.68 2085.39 210.522 Q2087.47 209.365 2090.18 209.365 Q2094.64 209.365 2096.94 212.143 Q2099.23 214.897 2099.23 220.268 Z" fill="#000000" fill-rule="nonzero" fill-opacity="1" /><path clip-path="url(#clip190)" d="M2124.78 222.652 Q2124.78 218.022 2122.86 215.476 Q2120.96 212.93 2117.52 212.93 Q2114.09 212.93 2112.17 215.476 Q2110.27 218.022 2110.27 222.652 Q2110.27 227.258 2112.17 229.805 Q2114.09 232.351 2117.52 232.351 Q2120.96 232.351 2122.86 229.805 Q2124.78 227.258 2124.78 222.652 M2129.04 232.698 Q2129.04 239.318 2126.1 242.536 Q2123.16 245.777 2117.1 245.777 Q2114.85 245.777 2112.86 245.43 Q2110.87 245.105 2109 244.411 L2109 240.268 Q2110.87 241.286 2112.7 241.772 Q2114.53 242.258 2116.43 242.258 Q2120.62 242.258 2122.7 240.059 Q2124.78 237.883 2124.78 233.462 L2124.78 231.356 Q2123.46 233.647 2121.4 234.781 Q2119.34 235.916 2116.47 235.916 Q2111.7 235.916 2108.79 232.281 Q2105.87 228.647 2105.87 222.652 Q2105.87 216.633 2108.79 212.999 Q2111.7 209.365 2116.47 209.365 Q2119.34 209.365 2121.4 210.499 Q2123.46 211.633 2124.78 213.925 L2124.78 209.99 L2129.04 209.99 L2129.04 232.698 Z" fill="#000000" fill-rule="nonzero" fill-opacity="1" /><path clip-path="url(#clip190)" d="M2150.73 221.032 L2163.21 221.032 L2163.21 224.828 L2150.73 224.828 L2150.73 221.032 Z" fill="#000000" fill-rule="nonzero" fill-opacity="1" /><path clip-path="url(#clip190)" d="M2186.47 231.981 L2194.11 231.981 L2194.11 205.615 L2185.8 207.282 L2185.8 203.022 L2194.07 201.356 L2198.74 201.356 L2198.74 231.981 L2206.38 231.981 L2206.38 235.916 L2186.47 235.916 L2186.47 231.981 Z" fill="#000000" fill-rule="nonzero" fill-opacity="1" /><circle clip-path="url(#clip190)" cx="1854.2" cy="270.476" r="20.48" fill="#e26f46" fill-rule="evenodd" fill-opacity="1" stroke="#000000" stroke-opacity="1" stroke-width="4.55111"/>
<path clip-path="url(#clip190)" d="M1950.97 261.83 L1955.48 261.83 L1963.58 283.589 L1971.68 261.83 L1976.2 261.83 L1966.47 287.756 L1960.69 287.756 L1950.97 261.83 Z" fill="#000000" fill-rule="nonzero" fill-opacity="1" /><path clip-path="url(#clip190)" d="M1993.86 274.723 Q1988.7 274.723 1986.71 275.904 Q1984.71 277.084 1984.71 279.932 Q1984.71 282.2 1986.2 283.543 Q1987.7 284.862 1990.27 284.862 Q1993.81 284.862 1995.94 282.362 Q1998.09 279.839 1998.09 275.672 L1998.09 274.723 L1993.86 274.723 M2002.35 272.964 L2002.35 287.756 L1998.09 287.756 L1998.09 283.821 Q1996.64 286.182 1994.46 287.316 Q1992.28 288.427 1989.14 288.427 Q1985.15 288.427 1982.79 286.205 Q1980.46 283.959 1980.46 280.209 Q1980.46 275.834 1983.37 273.612 Q1986.31 271.39 1992.12 271.39 L1998.09 271.39 L1998.09 270.973 Q1998.09 268.034 1996.15 266.436 Q1994.23 264.816 1990.73 264.816 Q1988.51 264.816 1986.4 265.348 Q1984.3 265.881 1982.35 266.946 L1982.35 263.01 Q1984.69 262.108 1986.89 261.668 Q1989.09 261.205 1991.17 261.205 Q1996.8 261.205 1999.58 264.122 Q2002.35 267.038 2002.35 272.964 Z" fill="#000000" fill-rule="nonzero" fill-opacity="1" /><path clip-path="url(#clip190)" d="M2011.13 251.737 L2015.39 251.737 L2015.39 287.756 L2011.13 287.756 L2011.13 251.737 Z" fill="#000000" fill-rule="nonzero" fill-opacity="1" /><path clip-path="url(#clip190)" d="M2024.3 261.83 L2028.56 261.83 L2028.56 287.756 L2024.3 287.756 L2024.3 261.83 M2024.3 251.737 L2028.56 251.737 L2028.56 257.131 L2024.3 257.131 L2024.3 251.737 Z" fill="#000000" fill-rule="nonzero" fill-opacity="1" /><path clip-path="url(#clip190)" d="M2054.53 265.765 L2054.53 251.737 L2058.79 251.737 L2058.79 287.756 L2054.53 287.756 L2054.53 283.867 Q2053.19 286.182 2051.13 287.316 Q2049.09 288.427 2046.22 288.427 Q2041.52 288.427 2038.56 284.677 Q2035.62 280.927 2035.62 274.816 Q2035.62 268.705 2038.56 264.955 Q2041.52 261.205 2046.22 261.205 Q2049.09 261.205 2051.13 262.339 Q2053.19 263.45 2054.53 265.765 M2040.02 274.816 Q2040.02 279.515 2041.94 282.2 Q2043.88 284.862 2047.26 284.862 Q2050.64 284.862 2052.58 282.2 Q2054.53 279.515 2054.53 274.816 Q2054.53 270.117 2052.58 267.455 Q2050.64 264.77 2047.26 264.77 Q2043.88 264.77 2041.94 267.455 Q2040.02 270.117 2040.02 274.816 Z" fill="#000000" fill-rule="nonzero" fill-opacity="1" /><path clip-path="url(#clip190)" d="M2079.34 274.723 Q2074.18 274.723 2072.19 275.904 Q2070.2 277.084 2070.2 279.932 Q2070.2 282.2 2071.68 283.543 Q2073.19 284.862 2075.76 284.862 Q2079.3 284.862 2081.43 282.362 Q2083.58 279.839 2083.58 275.672 L2083.58 274.723 L2079.34 274.723 M2087.84 272.964 L2087.84 287.756 L2083.58 287.756 L2083.58 283.821 Q2082.12 286.182 2079.95 287.316 Q2077.77 288.427 2074.62 288.427 Q2070.64 288.427 2068.28 286.205 Q2065.94 283.959 2065.94 280.209 Q2065.94 275.834 2068.86 273.612 Q2071.8 271.39 2077.61 271.39 L2083.58 271.39 L2083.58 270.973 Q2083.58 268.034 2081.64 266.436 Q2079.71 264.816 2076.22 264.816 Q2074 264.816 2071.89 265.348 Q2069.78 265.881 2067.84 266.946 L2067.84 263.01 Q2070.18 262.108 2072.38 261.668 Q2074.58 261.205 2076.66 261.205 Q2082.28 261.205 2085.06 264.122 Q2087.84 267.038 2087.84 272.964 Z" fill="#000000" fill-rule="nonzero" fill-opacity="1" /><path clip-path="url(#clip190)" d="M2100.83 254.469 L2100.83 261.83 L2109.6 261.83 L2109.6 265.14 L2100.83 265.14 L2100.83 279.214 Q2100.83 282.385 2101.68 283.288 Q2102.56 284.191 2105.22 284.191 L2109.6 284.191 L2109.6 287.756 L2105.22 287.756 Q2100.29 287.756 2098.42 285.927 Q2096.54 284.075 2096.54 279.214 L2096.54 265.14 L2093.42 265.14 L2093.42 261.83 L2096.54 261.83 L2096.54 254.469 L2100.83 254.469 Z" fill="#000000" fill-rule="nonzero" fill-opacity="1" /><path clip-path="url(#clip190)" d="M2115.2 261.83 L2119.46 261.83 L2119.46 287.756 L2115.2 287.756 L2115.2 261.83 M2115.2 251.737 L2119.46 251.737 L2119.46 257.131 L2115.2 257.131 L2115.2 251.737 Z" fill="#000000" fill-rule="nonzero" fill-opacity="1" /><path clip-path="url(#clip190)" d="M2138.42 264.816 Q2134.99 264.816 2133 267.501 Q2131.01 270.163 2131.01 274.816 Q2131.01 279.469 2132.98 282.154 Q2134.97 284.816 2138.42 284.816 Q2141.82 284.816 2143.81 282.131 Q2145.8 279.446 2145.8 274.816 Q2145.8 270.21 2143.81 267.524 Q2141.82 264.816 2138.42 264.816 M2138.42 261.205 Q2143.97 261.205 2147.14 264.816 Q2150.32 268.427 2150.32 274.816 Q2150.32 281.182 2147.14 284.816 Q2143.97 288.427 2138.42 288.427 Q2132.84 288.427 2129.67 284.816 Q2126.52 281.182 2126.52 274.816 Q2126.52 268.427 2129.67 264.816 Q2132.84 261.205 2138.42 261.205 Z" fill="#000000" fill-rule="nonzero" fill-opacity="1" /><path clip-path="url(#clip190)" d="M2178.93 272.108 L2178.93 287.756 L2174.67 287.756 L2174.67 272.247 Q2174.67 268.566 2173.23 266.737 Q2171.8 264.909 2168.93 264.909 Q2165.48 264.909 2163.49 267.108 Q2161.5 269.307 2161.5 273.103 L2161.5 287.756 L2157.21 287.756 L2157.21 261.83 L2161.5 261.83 L2161.5 265.858 Q2163.02 263.52 2165.08 262.362 Q2167.17 261.205 2169.88 261.205 Q2174.34 261.205 2176.64 263.983 Q2178.93 266.737 2178.93 272.108 Z" fill="#000000" fill-rule="nonzero" fill-opacity="1" /><path clip-path="url(#clip190)" d="M2200.34 272.872 L2212.82 272.872 L2212.82 276.668 L2200.34 276.668 L2200.34 272.872 Z" fill="#000000" fill-rule="nonzero" fill-opacity="1" /><path clip-path="url(#clip190)" d="M2236.08 283.821 L2243.72 283.821 L2243.72 257.455 L2235.41 259.122 L2235.41 254.862 L2243.67 253.196 L2248.35 253.196 L2248.35 283.821 L2255.99 283.821 L2255.99 287.756 L2236.08 287.756 L2236.08 283.821 Z" fill="#000000" fill-rule="nonzero" fill-opacity="1" /></svg>
