<?xml version="1.0" encoding="utf-8"?>
<svg xmlns="http://www.w3.org/2000/svg" xmlns:xlink="http://www.w3.org/1999/xlink" width="600" height="400" viewBox="0 0 2400 1600">
<defs>
  <clipPath id="clip670">
    <rect x="0" y="0" width="2400" height="1600"/>
  </clipPath>
</defs>
<path clip-path="url(#clip670)" d="M0 1600 L2400 1600 L2400 0 L0 0  Z" fill="#ffffff" fill-rule="evenodd" fill-opacity="1"/>
<defs>
  <clipPath id="clip671">
    <rect x="480" y="0" width="1681" height="1600"/>
  </clipPath>
</defs>
<path clip-path="url(#clip670)" d="M221.637 1423.18 L2352.76 1423.18 L2352.76 123.472 L221.637 123.472  Z" fill="#ffffff" fill-rule="evenodd" fill-opacity="1"/>
<defs>
  <clipPath id="clip672">
    <rect x="221" y="123" width="2132" height="1301"/>
  </clipPath>
</defs>
<polyline clip-path="url(#clip672)" style="stroke:#000000; stroke-linecap:round; stroke-linejoin:round; stroke-width:2; stroke-opacity:0.1; fill:none" points="617.033,1423.18 617.033,123.472 "/>
<polyline clip-path="url(#clip672)" style="stroke:#000000; stroke-linecap:round; stroke-linejoin:round; stroke-width:2; stroke-opacity:0.1; fill:none" points="1035.89,1423.18 1035.89,123.472 "/>
<polyline clip-path="url(#clip672)" style="stroke:#000000; stroke-linecap:round; stroke-linejoin:round; stroke-width:2; stroke-opacity:0.1; fill:none" points="1454.74,1423.18 1454.74,123.472 "/>
<polyline clip-path="url(#clip672)" style="stroke:#000000; stroke-linecap:round; stroke-linejoin:round; stroke-width:2; stroke-opacity:0.1; fill:none" points="1873.59,1423.18 1873.59,123.472 "/>
<polyline clip-path="url(#clip672)" style="stroke:#000000; stroke-linecap:round; stroke-linejoin:round; stroke-width:2; stroke-opacity:0.1; fill:none" points="2292.44,1423.18 2292.44,123.472 "/>
<polyline clip-path="url(#clip672)" style="stroke:#000000; stroke-linecap:round; stroke-linejoin:round; stroke-width:2; stroke-opacity:0.05; fill:none" points="281.952,1423.18 281.952,123.472 "/>
<polyline clip-path="url(#clip672)" style="stroke:#000000; stroke-linecap:round; stroke-linejoin:round; stroke-width:2; stroke-opacity:0.05; fill:none" points="365.722,1423.18 365.722,123.472 "/>
<polyline clip-path="url(#clip672)" style="stroke:#000000; stroke-linecap:round; stroke-linejoin:round; stroke-width:2; stroke-opacity:0.05; fill:none" points="449.493,1423.18 449.493,123.472 "/>
<polyline clip-path="url(#clip672)" style="stroke:#000000; stroke-linecap:round; stroke-linejoin:round; stroke-width:2; stroke-opacity:0.05; fill:none" points="533.263,1423.18 533.263,123.472 "/>
<polyline clip-path="url(#clip672)" style="stroke:#000000; stroke-linecap:round; stroke-linejoin:round; stroke-width:2; stroke-opacity:0.05; fill:none" points="700.804,1423.18 700.804,123.472 "/>
<polyline clip-path="url(#clip672)" style="stroke:#000000; stroke-linecap:round; stroke-linejoin:round; stroke-width:2; stroke-opacity:0.05; fill:none" points="784.574,1423.18 784.574,123.472 "/>
<polyline clip-path="url(#clip672)" style="stroke:#000000; stroke-linecap:round; stroke-linejoin:round; stroke-width:2; stroke-opacity:0.05; fill:none" points="868.345,1423.18 868.345,123.472 "/>
<polyline clip-path="url(#clip672)" style="stroke:#000000; stroke-linecap:round; stroke-linejoin:round; stroke-width:2; stroke-opacity:0.05; fill:none" points="952.115,1423.18 952.115,123.472 "/>
<polyline clip-path="url(#clip672)" style="stroke:#000000; stroke-linecap:round; stroke-linejoin:round; stroke-width:2; stroke-opacity:0.05; fill:none" points="1119.66,1423.18 1119.66,123.472 "/>
<polyline clip-path="url(#clip672)" style="stroke:#000000; stroke-linecap:round; stroke-linejoin:round; stroke-width:2; stroke-opacity:0.05; fill:none" points="1203.43,1423.18 1203.43,123.472 "/>
<polyline clip-path="url(#clip672)" style="stroke:#000000; stroke-linecap:round; stroke-linejoin:round; stroke-width:2; stroke-opacity:0.05; fill:none" points="1287.2,1423.18 1287.2,123.472 "/>
<polyline clip-path="url(#clip672)" style="stroke:#000000; stroke-linecap:round; stroke-linejoin:round; stroke-width:2; stroke-opacity:0.05; fill:none" points="1370.97,1423.18 1370.97,123.472 "/>
<polyline clip-path="url(#clip672)" style="stroke:#000000; stroke-linecap:round; stroke-linejoin:round; stroke-width:2; stroke-opacity:0.05; fill:none" points="1538.51,1423.18 1538.51,123.472 "/>
<polyline clip-path="url(#clip672)" style="stroke:#000000; stroke-linecap:round; stroke-linejoin:round; stroke-width:2; stroke-opacity:0.05; fill:none" points="1622.28,1423.18 1622.28,123.472 "/>
<polyline clip-path="url(#clip672)" style="stroke:#000000; stroke-linecap:round; stroke-linejoin:round; stroke-width:2; stroke-opacity:0.05; fill:none" points="1706.05,1423.18 1706.05,123.472 "/>
<polyline clip-path="url(#clip672)" style="stroke:#000000; stroke-linecap:round; stroke-linejoin:round; stroke-width:2; stroke-opacity:0.05; fill:none" points="1789.82,1423.18 1789.82,123.472 "/>
<polyline clip-path="url(#clip672)" style="stroke:#000000; stroke-linecap:round; stroke-linejoin:round; stroke-width:2; stroke-opacity:0.05; fill:none" points="1957.36,1423.18 1957.36,123.472 "/>
<polyline clip-path="url(#clip672)" style="stroke:#000000; stroke-linecap:round; stroke-linejoin:round; stroke-width:2; stroke-opacity:0.05; fill:none" points="2041.13,1423.18 2041.13,123.472 "/>
<polyline clip-path="url(#clip672)" style="stroke:#000000; stroke-linecap:round; stroke-linejoin:round; stroke-width:2; stroke-opacity:0.05; fill:none" points="2124.9,1423.18 2124.9,123.472 "/>
<polyline clip-path="url(#clip672)" style="stroke:#000000; stroke-linecap:round; stroke-linejoin:round; stroke-width:2; stroke-opacity:0.05; fill:none" points="2208.67,1423.18 2208.67,123.472 "/>
<polyline clip-path="url(#clip670)" style="stroke:#000000; stroke-linecap:round; stroke-linejoin:round; stroke-width:4; stroke-opacity:1; fill:none" points="221.637,1423.18 2352.76,1423.18 "/>
<polyline clip-path="url(#clip670)" style="stroke:#000000; stroke-linecap:round; stroke-linejoin:round; stroke-width:4; stroke-opacity:1; fill:none" points="617.033,1423.18 617.033,1404.28 "/>
<polyline clip-path="url(#clip670)" style="stroke:#000000; stroke-linecap:round; stroke-linejoin:round; stroke-width:4; stroke-opacity:1; fill:none" points="1035.89,1423.18 1035.89,1404.28 "/>
<polyline clip-path="url(#clip670)" style="stroke:#000000; stroke-linecap:round; stroke-linejoin:round; stroke-width:4; stroke-opacity:1; fill:none" points="1454.74,1423.18 1454.74,1404.28 "/>
<polyline clip-path="url(#clip670)" style="stroke:#000000; stroke-linecap:round; stroke-linejoin:round; stroke-width:4; stroke-opacity:1; fill:none" points="1873.59,1423.18 1873.59,1404.28 "/>
<polyline clip-path="url(#clip670)" style="stroke:#000000; stroke-linecap:round; stroke-linejoin:round; stroke-width:4; stroke-opacity:1; fill:none" points="2292.44,1423.18 2292.44,1404.28 "/>
<polyline clip-path="url(#clip670)" style="stroke:#000000; stroke-linecap:round; stroke-linejoin:round; stroke-width:4; stroke-opacity:1; fill:none" points="281.952,1423.18 281.952,1413.73 "/>
<polyline clip-path="url(#clip670)" style="stroke:#000000; stroke-linecap:round; stroke-linejoin:round; stroke-width:4; stroke-opacity:1; fill:none" points="365.722,1423.18 365.722,1413.73 "/>
<polyline clip-path="url(#clip670)" style="stroke:#000000; stroke-linecap:round; stroke-linejoin:round; stroke-width:4; stroke-opacity:1; fill:none" points="449.493,1423.18 449.493,1413.73 "/>
<polyline clip-path="url(#clip670)" style="stroke:#000000; stroke-linecap:round; stroke-linejoin:round; stroke-width:4; stroke-opacity:1; fill:none" points="533.263,1423.18 533.263,1413.73 "/>
<polyline clip-path="url(#clip670)" style="stroke:#000000; stroke-linecap:round; stroke-linejoin:round; stroke-width:4; stroke-opacity:1; fill:none" points="700.804,1423.18 700.804,1413.73 "/>
<polyline clip-path="url(#clip670)" style="stroke:#000000; stroke-linecap:round; stroke-linejoin:round; stroke-width:4; stroke-opacity:1; fill:none" points="784.574,1423.18 784.574,1413.73 "/>
<polyline clip-path="url(#clip670)" style="stroke:#000000; stroke-linecap:round; stroke-linejoin:round; stroke-width:4; stroke-opacity:1; fill:none" points="868.345,1423.18 868.345,1413.73 "/>
<polyline clip-path="url(#clip670)" style="stroke:#000000; stroke-linecap:round; stroke-linejoin:round; stroke-width:4; stroke-opacity:1; fill:none" points="952.115,1423.18 952.115,1413.73 "/>
<polyline clip-path="url(#clip670)" style="stroke:#000000; stroke-linecap:round; stroke-linejoin:round; stroke-width:4; stroke-opacity:1; fill:none" points="1119.66,1423.18 1119.66,1413.73 "/>
<polyline clip-path="url(#clip670)" style="stroke:#000000; stroke-linecap:round; stroke-linejoin:round; stroke-width:4; stroke-opacity:1; fill:none" points="1203.43,1423.18 1203.43,1413.73 "/>
<polyline clip-path="url(#clip670)" style="stroke:#000000; stroke-linecap:round; stroke-linejoin:round; stroke-width:4; stroke-opacity:1; fill:none" points="1287.2,1423.18 1287.2,1413.73 "/>
<polyline clip-path="url(#clip670)" style="stroke:#000000; stroke-linecap:round; stroke-linejoin:round; stroke-width:4; stroke-opacity:1; fill:none" points="1370.97,1423.18 1370.97,1413.73 "/>
<polyline clip-path="url(#clip670)" style="stroke:#000000; stroke-linecap:round; stroke-linejoin:round; stroke-width:4; stroke-opacity:1; fill:none" points="1538.51,1423.18 1538.51,1413.73 "/>
<polyline clip-path="url(#clip670)" style="stroke:#000000; stroke-linecap:round; stroke-linejoin:round; stroke-width:4; stroke-opacity:1; fill:none" points="1622.28,1423.18 1622.28,1413.73 "/>
<polyline clip-path="url(#clip670)" style="stroke:#000000; stroke-linecap:round; stroke-linejoin:round; stroke-width:4; stroke-opacity:1; fill:none" points="1706.05,1423.18 1706.05,1413.73 "/>
<polyline clip-path="url(#clip670)" style="stroke:#000000; stroke-linecap:round; stroke-linejoin:round; stroke-width:4; stroke-opacity:1; fill:none" points="1789.82,1423.18 1789.82,1413.73 "/>
<polyline clip-path="url(#clip670)" style="stroke:#000000; stroke-linecap:round; stroke-linejoin:round; stroke-width:4; stroke-opacity:1; fill:none" points="1957.36,1423.18 1957.36,1413.73 "/>
<polyline clip-path="url(#clip670)" style="stroke:#000000; stroke-linecap:round; stroke-linejoin:round; stroke-width:4; stroke-opacity:1; fill:none" points="2041.13,1423.18 2041.13,1413.73 "/>
<polyline clip-path="url(#clip670)" style="stroke:#000000; stroke-linecap:round; stroke-linejoin:round; stroke-width:4; stroke-opacity:1; fill:none" points="2124.9,1423.18 2124.9,1413.73 "/>
<polyline clip-path="url(#clip670)" style="stroke:#000000; stroke-linecap:round; stroke-linejoin:round; stroke-width:4; stroke-opacity:1; fill:none" points="2208.67,1423.18 2208.67,1413.73 "/>
<path clip-path="url(#clip670)" d="M591.721 1481.64 L599.36 1481.64 L599.36 1455.28 L591.05 1456.95 L591.05 1452.69 L599.314 1451.02 L603.989 1451.02 L603.989 1481.64 L611.628 1481.64 L611.628 1485.58 L591.721 1485.58 L591.721 1481.64 Z" fill="#000000" fill-rule="nonzero" fill-opacity="1" /><path clip-path="url(#clip670)" d="M631.073 1454.1 Q627.462 1454.1 625.633 1457.66 Q623.827 1461.2 623.827 1468.33 Q623.827 1475.44 625.633 1479.01 Q627.462 1482.55 631.073 1482.55 Q634.707 1482.55 636.512 1479.01 Q638.341 1475.44 638.341 1468.33 Q638.341 1461.2 636.512 1457.66 Q634.707 1454.1 631.073 1454.1 M631.073 1450.39 Q636.883 1450.39 639.938 1455 Q643.017 1459.58 643.017 1468.33 Q643.017 1477.06 639.938 1481.67 Q636.883 1486.25 631.073 1486.25 Q625.262 1486.25 622.184 1481.67 Q619.128 1477.06 619.128 1468.33 Q619.128 1459.58 622.184 1455 Q625.262 1450.39 631.073 1450.39 Z" fill="#000000" fill-rule="nonzero" fill-opacity="1" /><path clip-path="url(#clip670)" d="M1014.66 1481.64 L1030.98 1481.64 L1030.98 1485.58 L1009.03 1485.58 L1009.03 1481.64 Q1011.7 1478.89 1016.28 1474.26 Q1020.89 1469.61 1022.07 1468.27 Q1024.31 1465.74 1025.19 1464.01 Q1026.09 1462.25 1026.09 1460.56 Q1026.09 1457.8 1024.15 1456.07 Q1022.23 1454.33 1019.13 1454.33 Q1016.93 1454.33 1014.47 1455.09 Q1012.04 1455.86 1009.27 1457.41 L1009.27 1452.69 Q1012.09 1451.55 1014.54 1450.97 Q1017 1450.39 1019.03 1450.39 Q1024.4 1450.39 1027.6 1453.08 Q1030.79 1455.77 1030.79 1460.26 Q1030.79 1462.39 1029.98 1464.31 Q1029.2 1466.2 1027.09 1468.8 Q1026.51 1469.47 1023.41 1472.69 Q1020.31 1475.88 1014.66 1481.64 Z" fill="#000000" fill-rule="nonzero" fill-opacity="1" /><path clip-path="url(#clip670)" d="M1050.79 1454.1 Q1047.18 1454.1 1045.35 1457.66 Q1043.55 1461.2 1043.55 1468.33 Q1043.55 1475.44 1045.35 1479.01 Q1047.18 1482.55 1050.79 1482.55 Q1054.43 1482.55 1056.23 1479.01 Q1058.06 1475.44 1058.06 1468.33 Q1058.06 1461.2 1056.23 1457.66 Q1054.43 1454.1 1050.79 1454.1 M1050.79 1450.39 Q1056.6 1450.39 1059.66 1455 Q1062.74 1459.58 1062.74 1468.33 Q1062.74 1477.06 1059.66 1481.67 Q1056.6 1486.25 1050.79 1486.25 Q1044.98 1486.25 1041.9 1481.67 Q1038.85 1477.06 1038.85 1468.33 Q1038.85 1459.58 1041.9 1455 Q1044.98 1450.39 1050.79 1450.39 Z" fill="#000000" fill-rule="nonzero" fill-opacity="1" /><path clip-path="url(#clip670)" d="M1443.58 1466.95 Q1446.94 1467.66 1448.81 1469.93 Q1450.71 1472.2 1450.71 1475.53 Q1450.71 1480.65 1447.19 1483.45 Q1443.67 1486.25 1437.19 1486.25 Q1435.02 1486.25 1432.7 1485.81 Q1430.41 1485.39 1427.96 1484.54 L1427.96 1480.02 Q1429.9 1481.16 1432.21 1481.74 Q1434.53 1482.32 1437.05 1482.32 Q1441.45 1482.32 1443.74 1480.58 Q1446.06 1478.84 1446.06 1475.53 Q1446.06 1472.48 1443.9 1470.77 Q1441.77 1469.03 1437.95 1469.03 L1433.93 1469.03 L1433.93 1465.19 L1438.14 1465.19 Q1441.59 1465.19 1443.42 1463.82 Q1445.25 1462.43 1445.25 1459.84 Q1445.25 1457.18 1443.35 1455.77 Q1441.47 1454.33 1437.95 1454.33 Q1436.03 1454.33 1433.83 1454.75 Q1431.64 1455.16 1429 1456.04 L1429 1451.88 Q1431.66 1451.14 1433.97 1450.77 Q1436.31 1450.39 1438.37 1450.39 Q1443.7 1450.39 1446.8 1452.83 Q1449.9 1455.23 1449.9 1459.35 Q1449.9 1462.22 1448.26 1464.21 Q1446.61 1466.18 1443.58 1466.95 Z" fill="#000000" fill-rule="nonzero" fill-opacity="1" /><path clip-path="url(#clip670)" d="M1469.58 1454.1 Q1465.96 1454.1 1464.14 1457.66 Q1462.33 1461.2 1462.33 1468.33 Q1462.33 1475.44 1464.14 1479.01 Q1465.96 1482.55 1469.58 1482.55 Q1473.21 1482.55 1475.01 1479.01 Q1476.84 1475.44 1476.84 1468.33 Q1476.84 1461.2 1475.01 1457.66 Q1473.21 1454.1 1469.58 1454.1 M1469.58 1450.39 Q1475.39 1450.39 1478.44 1455 Q1481.52 1459.58 1481.52 1468.33 Q1481.52 1477.06 1478.44 1481.67 Q1475.39 1486.25 1469.58 1486.25 Q1463.77 1486.25 1460.69 1481.67 Q1457.63 1477.06 1457.63 1468.33 Q1457.63 1459.58 1460.69 1455 Q1463.77 1450.39 1469.58 1450.39 Z" fill="#000000" fill-rule="nonzero" fill-opacity="1" /><path clip-path="url(#clip670)" d="M1861.76 1455.09 L1849.96 1473.54 L1861.76 1473.54 L1861.76 1455.09 M1860.53 1451.02 L1866.41 1451.02 L1866.41 1473.54 L1871.34 1473.54 L1871.34 1477.43 L1866.41 1477.43 L1866.41 1485.58 L1861.76 1485.58 L1861.76 1477.43 L1846.16 1477.43 L1846.16 1472.92 L1860.53 1451.02 Z" fill="#000000" fill-rule="nonzero" fill-opacity="1" /><path clip-path="url(#clip670)" d="M1889.08 1454.1 Q1885.46 1454.1 1883.64 1457.66 Q1881.83 1461.2 1881.83 1468.33 Q1881.83 1475.44 1883.64 1479.01 Q1885.46 1482.55 1889.08 1482.55 Q1892.71 1482.55 1894.52 1479.01 Q1896.34 1475.44 1896.34 1468.33 Q1896.34 1461.2 1894.52 1457.66 Q1892.71 1454.1 1889.08 1454.1 M1889.08 1450.39 Q1894.89 1450.39 1897.94 1455 Q1901.02 1459.58 1901.02 1468.33 Q1901.02 1477.06 1897.94 1481.67 Q1894.89 1486.25 1889.08 1486.25 Q1883.27 1486.25 1880.19 1481.67 Q1877.13 1477.06 1877.13 1468.33 Q1877.13 1459.58 1880.19 1455 Q1883.27 1450.39 1889.08 1450.39 Z" fill="#000000" fill-rule="nonzero" fill-opacity="1" /><path clip-path="url(#clip670)" d="M2267.14 1451.02 L2285.5 1451.02 L2285.5 1454.96 L2271.42 1454.96 L2271.42 1463.43 Q2272.44 1463.08 2273.46 1462.92 Q2274.48 1462.73 2275.5 1462.73 Q2281.28 1462.73 2284.66 1465.9 Q2288.04 1469.08 2288.04 1474.49 Q2288.04 1480.07 2284.57 1483.17 Q2281.1 1486.25 2274.78 1486.25 Q2272.6 1486.25 2270.33 1485.88 Q2268.09 1485.51 2265.68 1484.77 L2265.68 1480.07 Q2267.77 1481.2 2269.99 1481.76 Q2272.21 1482.32 2274.69 1482.32 Q2278.69 1482.32 2281.03 1480.21 Q2283.37 1478.1 2283.37 1474.49 Q2283.37 1470.88 2281.03 1468.77 Q2278.69 1466.67 2274.69 1466.67 Q2272.81 1466.67 2270.94 1467.08 Q2269.08 1467.5 2267.14 1468.38 L2267.14 1451.02 Z" fill="#000000" fill-rule="nonzero" fill-opacity="1" /><path clip-path="url(#clip670)" d="M2307.26 1454.1 Q2303.64 1454.1 2301.82 1457.66 Q2300.01 1461.2 2300.01 1468.33 Q2300.01 1475.44 2301.82 1479.01 Q2303.64 1482.55 2307.26 1482.55 Q2310.89 1482.55 2312.7 1479.01 Q2314.52 1475.44 2314.52 1468.33 Q2314.52 1461.2 2312.7 1457.66 Q2310.89 1454.1 2307.26 1454.1 M2307.26 1450.39 Q2313.07 1450.39 2316.12 1455 Q2319.2 1459.58 2319.2 1468.33 Q2319.2 1477.06 2316.12 1481.67 Q2313.07 1486.25 2307.26 1486.25 Q2301.45 1486.25 2298.37 1481.67 Q2295.31 1477.06 2295.31 1468.33 Q2295.31 1459.58 2298.37 1455 Q2301.45 1450.39 2307.26 1450.39 Z" fill="#000000" fill-rule="nonzero" fill-opacity="1" /><path clip-path="url(#clip670)" d="M1202.02 1546.53 L1202.02 1568.04 L1196.17 1568.04 L1196.17 1546.72 Q1196.17 1541.66 1194.19 1539.14 Q1192.22 1536.63 1188.27 1536.63 Q1183.53 1536.63 1180.79 1539.65 Q1178.06 1542.68 1178.06 1547.9 L1178.06 1568.04 L1172.17 1568.04 L1172.17 1518.52 L1178.06 1518.52 L1178.06 1537.93 Q1180.16 1534.72 1182.99 1533.13 Q1185.85 1531.54 1189.58 1531.54 Q1195.72 1531.54 1198.87 1535.36 Q1202.02 1539.14 1202.02 1546.53 Z" fill="#000000" fill-rule="nonzero" fill-opacity="1" /><path clip-path="url(#clip670)" d="M1227.52 1536.5 Q1222.81 1536.5 1220.07 1540.19 Q1217.33 1543.85 1217.33 1550.25 Q1217.33 1556.65 1220.04 1560.34 Q1222.78 1564 1227.52 1564 Q1232.2 1564 1234.93 1560.31 Q1237.67 1556.62 1237.67 1550.25 Q1237.67 1543.92 1234.93 1540.23 Q1232.2 1536.5 1227.52 1536.5 M1227.52 1531.54 Q1235.16 1531.54 1239.52 1536.5 Q1243.88 1541.47 1243.88 1550.25 Q1243.88 1559 1239.52 1564 Q1235.16 1568.97 1227.52 1568.97 Q1219.85 1568.97 1215.49 1564 Q1211.16 1559 1211.16 1550.25 Q1211.16 1541.47 1215.49 1536.5 Q1219.85 1531.54 1227.52 1531.54 Z" fill="#000000" fill-rule="nonzero" fill-opacity="1" /><path clip-path="url(#clip670)" d="M1274.24 1537.87 Q1273.26 1537.3 1272.08 1537.04 Q1270.93 1536.76 1269.53 1536.76 Q1264.57 1536.76 1261.89 1540 Q1259.25 1543.22 1259.25 1549.27 L1259.25 1568.04 L1253.36 1568.04 L1253.36 1532.4 L1259.25 1532.4 L1259.25 1537.93 Q1261.1 1534.69 1264.06 1533.13 Q1267.02 1531.54 1271.25 1531.54 Q1271.86 1531.54 1272.59 1531.63 Q1273.32 1531.7 1274.21 1531.85 L1274.24 1537.87 Z" fill="#000000" fill-rule="nonzero" fill-opacity="1" /><path clip-path="url(#clip670)" d="M1280.39 1532.4 L1286.24 1532.4 L1286.24 1568.04 L1280.39 1568.04 L1280.39 1532.4 M1280.39 1518.52 L1286.24 1518.52 L1286.24 1525.93 L1280.39 1525.93 L1280.39 1518.52 Z" fill="#000000" fill-rule="nonzero" fill-opacity="1" /><path clip-path="url(#clip670)" d="M1295.95 1532.4 L1323.77 1532.4 L1323.77 1537.74 L1301.74 1563.37 L1323.77 1563.37 L1323.77 1568.04 L1295.15 1568.04 L1295.15 1562.7 L1317.18 1537.07 L1295.95 1537.07 L1295.95 1532.4 Z" fill="#000000" fill-rule="nonzero" fill-opacity="1" /><path clip-path="url(#clip670)" d="M1346.52 1536.5 Q1341.81 1536.5 1339.08 1540.19 Q1336.34 1543.85 1336.34 1550.25 Q1336.34 1556.65 1339.05 1560.34 Q1341.78 1564 1346.52 1564 Q1351.2 1564 1353.94 1560.31 Q1356.68 1556.62 1356.68 1550.25 Q1356.68 1543.92 1353.94 1540.23 Q1351.2 1536.5 1346.52 1536.5 M1346.52 1531.54 Q1354.16 1531.54 1358.52 1536.5 Q1362.88 1541.47 1362.88 1550.25 Q1362.88 1559 1358.52 1564 Q1354.16 1568.97 1346.52 1568.97 Q1338.85 1568.97 1334.49 1564 Q1330.17 1559 1330.17 1550.25 Q1330.17 1541.47 1334.49 1536.5 Q1338.85 1531.54 1346.52 1531.54 Z" fill="#000000" fill-rule="nonzero" fill-opacity="1" /><path clip-path="url(#clip670)" d="M1402.22 1546.53 L1402.22 1568.04 L1396.37 1568.04 L1396.37 1546.72 Q1396.37 1541.66 1394.39 1539.14 Q1392.42 1536.63 1388.47 1536.63 Q1383.73 1536.63 1381 1539.65 Q1378.26 1542.68 1378.26 1547.9 L1378.26 1568.04 L1372.37 1568.04 L1372.37 1532.4 L1378.26 1532.4 L1378.26 1537.93 Q1380.36 1534.72 1383.19 1533.13 Q1386.06 1531.54 1389.78 1531.54 Q1395.92 1531.54 1399.07 1535.36 Q1402.22 1539.14 1402.22 1546.53 Z" fill="#000000" fill-rule="nonzero" fill-opacity="1" /><polyline clip-path="url(#clip672)" style="stroke:#000000; stroke-linecap:round; stroke-linejoin:round; stroke-width:2; stroke-opacity:0.1; fill:none" points="221.637,1090.57 2352.76,1090.57 "/>
<polyline clip-path="url(#clip672)" style="stroke:#000000; stroke-linecap:round; stroke-linejoin:round; stroke-width:2; stroke-opacity:0.1; fill:none" points="221.637,649.925 2352.76,649.925 "/>
<polyline clip-path="url(#clip672)" style="stroke:#000000; stroke-linecap:round; stroke-linejoin:round; stroke-width:2; stroke-opacity:0.1; fill:none" points="221.637,209.282 2352.76,209.282 "/>
<polyline clip-path="url(#clip672)" style="stroke:#000000; stroke-linecap:round; stroke-linejoin:round; stroke-width:2; stroke-opacity:0.05; fill:none" points="221.637,1398.57 2352.76,1398.57 "/>
<polyline clip-path="url(#clip672)" style="stroke:#000000; stroke-linecap:round; stroke-linejoin:round; stroke-width:2; stroke-opacity:0.05; fill:none" points="221.637,1320.97 2352.76,1320.97 "/>
<polyline clip-path="url(#clip672)" style="stroke:#000000; stroke-linecap:round; stroke-linejoin:round; stroke-width:2; stroke-opacity:0.05; fill:none" points="221.637,1265.92 2352.76,1265.92 "/>
<polyline clip-path="url(#clip672)" style="stroke:#000000; stroke-linecap:round; stroke-linejoin:round; stroke-width:2; stroke-opacity:0.05; fill:none" points="221.637,1223.22 2352.76,1223.22 "/>
<polyline clip-path="url(#clip672)" style="stroke:#000000; stroke-linecap:round; stroke-linejoin:round; stroke-width:2; stroke-opacity:0.05; fill:none" points="221.637,1188.33 2352.76,1188.33 "/>
<polyline clip-path="url(#clip672)" style="stroke:#000000; stroke-linecap:round; stroke-linejoin:round; stroke-width:2; stroke-opacity:0.05; fill:none" points="221.637,1158.83 2352.76,1158.83 "/>
<polyline clip-path="url(#clip672)" style="stroke:#000000; stroke-linecap:round; stroke-linejoin:round; stroke-width:2; stroke-opacity:0.05; fill:none" points="221.637,1133.27 2352.76,1133.27 "/>
<polyline clip-path="url(#clip672)" style="stroke:#000000; stroke-linecap:round; stroke-linejoin:round; stroke-width:2; stroke-opacity:0.05; fill:none" points="221.637,1110.73 2352.76,1110.73 "/>
<polyline clip-path="url(#clip672)" style="stroke:#000000; stroke-linecap:round; stroke-linejoin:round; stroke-width:2; stroke-opacity:0.05; fill:none" points="221.637,957.922 2352.76,957.922 "/>
<polyline clip-path="url(#clip672)" style="stroke:#000000; stroke-linecap:round; stroke-linejoin:round; stroke-width:2; stroke-opacity:0.05; fill:none" points="221.637,880.329 2352.76,880.329 "/>
<polyline clip-path="url(#clip672)" style="stroke:#000000; stroke-linecap:round; stroke-linejoin:round; stroke-width:2; stroke-opacity:0.05; fill:none" points="221.637,825.275 2352.76,825.275 "/>
<polyline clip-path="url(#clip672)" style="stroke:#000000; stroke-linecap:round; stroke-linejoin:round; stroke-width:2; stroke-opacity:0.05; fill:none" points="221.637,782.572 2352.76,782.572 "/>
<polyline clip-path="url(#clip672)" style="stroke:#000000; stroke-linecap:round; stroke-linejoin:round; stroke-width:2; stroke-opacity:0.05; fill:none" points="221.637,747.682 2352.76,747.682 "/>
<polyline clip-path="url(#clip672)" style="stroke:#000000; stroke-linecap:round; stroke-linejoin:round; stroke-width:2; stroke-opacity:0.05; fill:none" points="221.637,718.182 2352.76,718.182 "/>
<polyline clip-path="url(#clip672)" style="stroke:#000000; stroke-linecap:round; stroke-linejoin:round; stroke-width:2; stroke-opacity:0.05; fill:none" points="221.637,692.628 2352.76,692.628 "/>
<polyline clip-path="url(#clip672)" style="stroke:#000000; stroke-linecap:round; stroke-linejoin:round; stroke-width:2; stroke-opacity:0.05; fill:none" points="221.637,670.088 2352.76,670.088 "/>
<polyline clip-path="url(#clip672)" style="stroke:#000000; stroke-linecap:round; stroke-linejoin:round; stroke-width:2; stroke-opacity:0.05; fill:none" points="221.637,517.278 2352.76,517.278 "/>
<polyline clip-path="url(#clip672)" style="stroke:#000000; stroke-linecap:round; stroke-linejoin:round; stroke-width:2; stroke-opacity:0.05; fill:none" points="221.637,439.685 2352.76,439.685 "/>
<polyline clip-path="url(#clip672)" style="stroke:#000000; stroke-linecap:round; stroke-linejoin:round; stroke-width:2; stroke-opacity:0.05; fill:none" points="221.637,384.632 2352.76,384.632 "/>
<polyline clip-path="url(#clip672)" style="stroke:#000000; stroke-linecap:round; stroke-linejoin:round; stroke-width:2; stroke-opacity:0.05; fill:none" points="221.637,341.929 2352.76,341.929 "/>
<polyline clip-path="url(#clip672)" style="stroke:#000000; stroke-linecap:round; stroke-linejoin:round; stroke-width:2; stroke-opacity:0.05; fill:none" points="221.637,307.038 2352.76,307.038 "/>
<polyline clip-path="url(#clip672)" style="stroke:#000000; stroke-linecap:round; stroke-linejoin:round; stroke-width:2; stroke-opacity:0.05; fill:none" points="221.637,277.538 2352.76,277.538 "/>
<polyline clip-path="url(#clip672)" style="stroke:#000000; stroke-linecap:round; stroke-linejoin:round; stroke-width:2; stroke-opacity:0.05; fill:none" points="221.637,251.985 2352.76,251.985 "/>
<polyline clip-path="url(#clip672)" style="stroke:#000000; stroke-linecap:round; stroke-linejoin:round; stroke-width:2; stroke-opacity:0.05; fill:none" points="221.637,229.445 2352.76,229.445 "/>
<polyline clip-path="url(#clip670)" style="stroke:#000000; stroke-linecap:round; stroke-linejoin:round; stroke-width:4; stroke-opacity:1; fill:none" points="221.637,1423.18 221.637,123.472 "/>
<polyline clip-path="url(#clip670)" style="stroke:#000000; stroke-linecap:round; stroke-linejoin:round; stroke-width:4; stroke-opacity:1; fill:none" points="221.637,1090.57 240.535,1090.57 "/>
<polyline clip-path="url(#clip670)" style="stroke:#000000; stroke-linecap:round; stroke-linejoin:round; stroke-width:4; stroke-opacity:1; fill:none" points="221.637,649.925 240.535,649.925 "/>
<polyline clip-path="url(#clip670)" style="stroke:#000000; stroke-linecap:round; stroke-linejoin:round; stroke-width:4; stroke-opacity:1; fill:none" points="221.637,209.282 240.535,209.282 "/>
<polyline clip-path="url(#clip670)" style="stroke:#000000; stroke-linecap:round; stroke-linejoin:round; stroke-width:4; stroke-opacity:1; fill:none" points="221.637,1398.57 231.086,1398.57 "/>
<polyline clip-path="url(#clip670)" style="stroke:#000000; stroke-linecap:round; stroke-linejoin:round; stroke-width:4; stroke-opacity:1; fill:none" points="221.637,1320.97 231.086,1320.97 "/>
<polyline clip-path="url(#clip670)" style="stroke:#000000; stroke-linecap:round; stroke-linejoin:round; stroke-width:4; stroke-opacity:1; fill:none" points="221.637,1265.92 231.086,1265.92 "/>
<polyline clip-path="url(#clip670)" style="stroke:#000000; stroke-linecap:round; stroke-linejoin:round; stroke-width:4; stroke-opacity:1; fill:none" points="221.637,1223.22 231.086,1223.22 "/>
<polyline clip-path="url(#clip670)" style="stroke:#000000; stroke-linecap:round; stroke-linejoin:round; stroke-width:4; stroke-opacity:1; fill:none" points="221.637,1188.33 231.086,1188.33 "/>
<polyline clip-path="url(#clip670)" style="stroke:#000000; stroke-linecap:round; stroke-linejoin:round; stroke-width:4; stroke-opacity:1; fill:none" points="221.637,1158.83 231.086,1158.83 "/>
<polyline clip-path="url(#clip670)" style="stroke:#000000; stroke-linecap:round; stroke-linejoin:round; stroke-width:4; stroke-opacity:1; fill:none" points="221.637,1133.27 231.086,1133.27 "/>
<polyline clip-path="url(#clip670)" style="stroke:#000000; stroke-linecap:round; stroke-linejoin:round; stroke-width:4; stroke-opacity:1; fill:none" points="221.637,1110.73 231.086,1110.73 "/>
<polyline clip-path="url(#clip670)" style="stroke:#000000; stroke-linecap:round; stroke-linejoin:round; stroke-width:4; stroke-opacity:1; fill:none" points="221.637,957.922 231.086,957.922 "/>
<polyline clip-path="url(#clip670)" style="stroke:#000000; stroke-linecap:round; stroke-linejoin:round; stroke-width:4; stroke-opacity:1; fill:none" points="221.637,880.329 231.086,880.329 "/>
<polyline clip-path="url(#clip670)" style="stroke:#000000; stroke-linecap:round; stroke-linejoin:round; stroke-width:4; stroke-opacity:1; fill:none" points="221.637,825.275 231.086,825.275 "/>
<polyline clip-path="url(#clip670)" style="stroke:#000000; stroke-linecap:round; stroke-linejoin:round; stroke-width:4; stroke-opacity:1; fill:none" points="221.637,782.572 231.086,782.572 "/>
<polyline clip-path="url(#clip670)" style="stroke:#000000; stroke-linecap:round; stroke-linejoin:round; stroke-width:4; stroke-opacity:1; fill:none" points="221.637,747.682 231.086,747.682 "/>
<polyline clip-path="url(#clip670)" style="stroke:#000000; stroke-linecap:round; stroke-linejoin:round; stroke-width:4; stroke-opacity:1; fill:none" points="221.637,718.182 231.086,718.182 "/>
<polyline clip-path="url(#clip670)" style="stroke:#000000; stroke-linecap:round; stroke-linejoin:round; stroke-width:4; stroke-opacity:1; fill:none" points="221.637,692.628 231.086,692.628 "/>
<polyline clip-path="url(#clip670)" style="stroke:#000000; stroke-linecap:round; stroke-linejoin:round; stroke-width:4; stroke-opacity:1; fill:none" points="221.637,670.088 231.086,670.088 "/>
<polyline clip-path="url(#clip670)" style="stroke:#000000; stroke-linecap:round; stroke-linejoin:round; stroke-width:4; stroke-opacity:1; fill:none" points="221.637,517.278 231.086,517.278 "/>
<polyline clip-path="url(#clip670)" style="stroke:#000000; stroke-linecap:round; stroke-linejoin:round; stroke-width:4; stroke-opacity:1; fill:none" points="221.637,439.685 231.086,439.685 "/>
<polyline clip-path="url(#clip670)" style="stroke:#000000; stroke-linecap:round; stroke-linejoin:round; stroke-width:4; stroke-opacity:1; fill:none" points="221.637,384.632 231.086,384.632 "/>
<polyline clip-path="url(#clip670)" style="stroke:#000000; stroke-linecap:round; stroke-linejoin:round; stroke-width:4; stroke-opacity:1; fill:none" points="221.637,341.929 231.086,341.929 "/>
<polyline clip-path="url(#clip670)" style="stroke:#000000; stroke-linecap:round; stroke-linejoin:round; stroke-width:4; stroke-opacity:1; fill:none" points="221.637,307.038 231.086,307.038 "/>
<polyline clip-path="url(#clip670)" style="stroke:#000000; stroke-linecap:round; stroke-linejoin:round; stroke-width:4; stroke-opacity:1; fill:none" points="221.637,277.538 231.086,277.538 "/>
<polyline clip-path="url(#clip670)" style="stroke:#000000; stroke-linecap:round; stroke-linejoin:round; stroke-width:4; stroke-opacity:1; fill:none" points="221.637,251.985 231.086,251.985 "/>
<polyline clip-path="url(#clip670)" style="stroke:#000000; stroke-linecap:round; stroke-linejoin:round; stroke-width:4; stroke-opacity:1; fill:none" points="221.637,229.445 231.086,229.445 "/>
<path clip-path="url(#clip670)" d="M114.931 1110.36 L122.57 1110.36 L122.57 1084 L114.26 1085.66 L114.26 1081.4 L122.524 1079.74 L127.2 1079.74 L127.2 1110.36 L134.839 1110.36 L134.839 1114.3 L114.931 1114.3 L114.931 1110.36 Z" fill="#000000" fill-rule="nonzero" fill-opacity="1" /><path clip-path="url(#clip670)" d="M154.283 1082.82 Q150.672 1082.82 148.843 1086.38 Q147.038 1089.92 147.038 1097.05 Q147.038 1104.16 148.843 1107.72 Q150.672 1111.26 154.283 1111.26 Q157.917 1111.26 159.723 1107.72 Q161.552 1104.16 161.552 1097.05 Q161.552 1089.92 159.723 1086.38 Q157.917 1082.82 154.283 1082.82 M154.283 1079.11 Q160.093 1079.11 163.149 1083.72 Q166.227 1088.3 166.227 1097.05 Q166.227 1105.78 163.149 1110.38 Q160.093 1114.97 154.283 1114.97 Q148.473 1114.97 145.394 1110.38 Q142.339 1105.78 142.339 1097.05 Q142.339 1088.3 145.394 1083.72 Q148.473 1079.11 154.283 1079.11 Z" fill="#000000" fill-rule="nonzero" fill-opacity="1" /><path clip-path="url(#clip670)" d="M175.932 1061.31 Q172.998 1061.31 171.512 1064.2 Q170.045 1067.08 170.045 1072.87 Q170.045 1078.65 171.512 1081.54 Q172.998 1084.42 175.932 1084.42 Q178.885 1084.42 180.352 1081.54 Q181.838 1078.65 181.838 1072.87 Q181.838 1067.08 180.352 1064.2 Q178.885 1061.31 175.932 1061.31 M175.932 1058.3 Q180.653 1058.3 183.136 1062.04 Q185.637 1065.77 185.637 1072.87 Q185.637 1079.96 183.136 1083.71 Q180.653 1087.43 175.932 1087.43 Q171.212 1087.43 168.71 1083.71 Q166.227 1079.96 166.227 1072.87 Q166.227 1065.77 168.71 1062.04 Q171.212 1058.3 175.932 1058.3 Z" fill="#000000" fill-rule="nonzero" fill-opacity="1" /><path clip-path="url(#clip670)" d="M117.621 669.718 L125.26 669.718 L125.26 643.352 L116.95 645.019 L116.95 640.76 L125.214 639.093 L129.889 639.093 L129.889 669.718 L137.528 669.718 L137.528 673.653 L117.621 673.653 L117.621 669.718 Z" fill="#000000" fill-rule="nonzero" fill-opacity="1" /><path clip-path="url(#clip670)" d="M156.973 642.172 Q153.362 642.172 151.533 645.736 Q149.727 649.278 149.727 656.408 Q149.727 663.514 151.533 667.079 Q153.362 670.621 156.973 670.621 Q160.607 670.621 162.412 667.079 Q164.241 663.514 164.241 656.408 Q164.241 649.278 162.412 645.736 Q160.607 642.172 156.973 642.172 M156.973 638.468 Q162.783 638.468 165.838 643.074 Q168.917 647.658 168.917 656.408 Q168.917 665.135 165.838 669.741 Q162.783 674.324 156.973 674.324 Q151.162 674.324 148.084 669.741 Q145.028 665.135 145.028 656.408 Q145.028 647.658 148.084 643.074 Q151.162 638.468 156.973 638.468 Z" fill="#000000" fill-rule="nonzero" fill-opacity="1" /><path clip-path="url(#clip670)" d="M169.462 643.045 L175.669 643.045 L175.669 621.623 L168.917 622.977 L168.917 619.517 L175.631 618.163 L179.431 618.163 L179.431 643.045 L185.637 643.045 L185.637 646.243 L169.462 646.243 L169.462 643.045 Z" fill="#000000" fill-rule="nonzero" fill-opacity="1" /><path clip-path="url(#clip670)" d="M116.511 229.074 L124.15 229.074 L124.15 202.709 L115.84 204.375 L115.84 200.116 L124.104 198.449 L128.78 198.449 L128.78 229.074 L136.419 229.074 L136.419 233.009 L116.511 233.009 L116.511 229.074 Z" fill="#000000" fill-rule="nonzero" fill-opacity="1" /><path clip-path="url(#clip670)" d="M155.863 201.528 Q152.252 201.528 150.423 205.093 Q148.618 208.635 148.618 215.764 Q148.618 222.871 150.423 226.435 Q152.252 229.977 155.863 229.977 Q159.497 229.977 161.303 226.435 Q163.131 222.871 163.131 215.764 Q163.131 208.635 161.303 205.093 Q159.497 201.528 155.863 201.528 M155.863 197.824 Q161.673 197.824 164.729 202.431 Q167.807 207.014 167.807 215.764 Q167.807 224.491 164.729 229.097 Q161.673 233.681 155.863 233.681 Q150.053 233.681 146.974 229.097 Q143.919 224.491 143.919 215.764 Q143.919 207.014 146.974 202.431 Q150.053 197.824 155.863 197.824 Z" fill="#000000" fill-rule="nonzero" fill-opacity="1" /><path clip-path="url(#clip670)" d="M172.378 202.402 L185.637 202.402 L185.637 205.599 L167.807 205.599 L167.807 202.402 Q169.97 200.164 173.694 196.402 Q177.437 192.622 178.396 191.531 Q180.22 189.481 180.935 188.07 Q181.669 186.641 181.669 185.268 Q181.669 183.03 180.089 181.619 Q178.528 180.208 176.008 180.208 Q174.221 180.208 172.227 180.829 Q170.252 181.45 167.995 182.71 L167.995 178.873 Q170.29 177.952 172.284 177.481 Q174.277 177.011 175.932 177.011 Q180.296 177.011 182.891 179.193 Q185.487 181.375 185.487 185.023 Q185.487 186.754 184.828 188.315 Q184.189 189.857 182.477 191.963 Q182.007 192.509 179.487 195.123 Q176.967 197.719 172.378 202.402 Z" fill="#000000" fill-rule="nonzero" fill-opacity="1" /><path clip-path="url(#clip670)" d="M16.4842 874.557 L16.4842 864.976 L48.8219 852.85 L16.4842 840.659 L16.4842 831.079 L64.0042 831.079 L64.0042 837.349 L22.277 837.349 L54.8694 849.603 L54.8694 856.064 L22.277 868.318 L64.0042 868.318 L64.0042 874.557 L16.4842 874.557 Z" fill="#000000" fill-rule="nonzero" fill-opacity="1" /><path clip-path="url(#clip670)" d="M41.7242 795.781 Q42.4244 793.712 44.7161 791.771 Q47.0077 789.797 51.0181 787.824 L64.0042 781.299 L64.0042 788.206 L51.8138 794.285 Q47.0395 796.64 45.48 798.868 Q43.9204 801.065 43.9204 804.884 L43.9204 811.886 L64.0042 811.886 L64.0042 818.316 L16.4842 818.316 L16.4842 803.802 Q16.4842 795.654 19.8898 791.643 Q23.2955 787.633 30.1704 787.633 Q34.6582 787.633 37.6183 789.734 Q40.5784 791.802 41.7242 795.781 M21.7677 811.886 L38.6368 811.886 L38.6368 803.802 Q38.6368 799.155 36.5043 796.8 Q34.34 794.412 30.1704 794.412 Q26.0009 794.412 23.9002 796.8 Q21.7677 799.155 21.7677 803.802 L21.7677 811.886 Z" fill="#000000" fill-rule="nonzero" fill-opacity="1" /><path clip-path="url(#clip670)" d="M22.818 759.783 L46.4666 768.504 L46.4666 751.03 L22.818 759.783 M16.4842 763.411 L16.4842 756.123 L64.0042 738.012 L64.0042 744.696 L51.8138 749.025 L51.8138 770.446 L64.0042 774.774 L64.0042 781.554 L16.4842 763.411 Z" fill="#000000" fill-rule="nonzero" fill-opacity="1" /><path clip-path="url(#clip670)" d="M16.4842 731.074 L16.4842 701.027 L21.895 701.027 L21.895 724.644 L35.9632 724.644 L35.9632 702.014 L41.3741 702.014 L41.3741 724.644 L58.5933 724.644 L58.5933 700.455 L64.0042 700.455 L64.0042 731.074 L16.4842 731.074 Z" fill="#000000" fill-rule="nonzero" fill-opacity="1" /><path clip-path="url(#clip670)" d="M14.479 672.095 L19.3487 672.095 L19.3487 677.697 Q19.3487 680.848 20.6219 682.089 Q21.895 683.299 25.2052 683.299 L28.3562 683.299 L28.3562 673.655 L32.9077 673.655 L32.9077 683.299 L64.0042 683.299 L64.0042 689.187 L32.9077 689.187 L32.9077 694.789 L28.3562 694.789 L28.3562 689.187 L25.8736 689.187 Q19.9216 689.187 17.2162 686.418 Q14.479 683.649 14.479 677.633 L14.479 672.095 Z" fill="#000000" fill-rule="nonzero" fill-opacity="1" /><path clip-path="url(#clip670)" d="M665.14 43.6931 L665.14 65.8515 L678.265 65.8515 Q684.868 65.8515 688.027 63.1374 Q691.227 60.3828 691.227 54.752 Q691.227 49.0808 688.027 46.4072 Q684.868 43.6931 678.265 43.6931 L665.14 43.6931 M665.14 18.8205 L665.14 37.0496 L677.252 37.0496 Q683.247 37.0496 686.164 34.8216 Q689.121 32.5531 689.121 27.935 Q689.121 23.3575 686.164 21.089 Q683.247 18.8205 677.252 18.8205 L665.14 18.8205 M656.957 12.096 L677.859 12.096 Q687.217 12.096 692.281 15.9849 Q697.344 19.8737 697.344 27.0438 Q697.344 32.5936 694.752 35.8748 Q692.159 39.156 687.136 39.9662 Q693.172 41.2625 696.494 45.3944 Q699.856 49.4858 699.856 55.6432 Q699.856 63.745 694.347 68.1605 Q688.837 72.576 678.67 72.576 L656.957 72.576 L656.957 12.096 Z" fill="#000000" fill-rule="nonzero" fill-opacity="1" /><path clip-path="url(#clip670)" d="M752.356 48.0275 L752.356 51.6733 L718.085 51.6733 Q718.571 59.3701 722.703 63.421 Q726.875 67.4314 734.289 67.4314 Q738.583 67.4314 742.593 66.3781 Q746.644 65.3249 750.614 63.2184 L750.614 70.267 Q746.603 71.9684 742.39 72.8596 Q738.177 73.7508 733.843 73.7508 Q722.987 73.7508 716.627 67.4314 Q710.307 61.1119 710.307 50.3365 Q710.307 39.1965 716.303 32.6746 Q722.338 26.1121 732.547 26.1121 Q741.702 26.1121 747.008 32.0264 Q752.356 37.9003 752.356 48.0275 M744.902 45.84 Q744.821 39.7232 741.459 36.0774 Q738.137 32.4315 732.628 32.4315 Q726.389 32.4315 722.622 35.9558 Q718.895 39.4801 718.328 45.8805 L744.902 45.84 Z" fill="#000000" fill-rule="nonzero" fill-opacity="1" /><path clip-path="url(#clip670)" d="M802.303 45.1919 L802.303 72.576 L794.85 72.576 L794.85 45.4349 Q794.85 38.994 792.338 35.7938 Q789.826 32.5936 784.803 32.5936 Q778.768 32.5936 775.284 36.4419 Q771.8 40.2903 771.8 46.9338 L771.8 72.576 L764.306 72.576 L764.306 9.54393 L771.8 9.54393 L771.8 34.2544 Q774.474 30.163 778.079 28.1376 Q781.725 26.1121 786.464 26.1121 Q794.282 26.1121 798.293 30.9732 Q802.303 35.7938 802.303 45.1919 Z" fill="#000000" fill-rule="nonzero" fill-opacity="1" /><path clip-path="url(#clip670)" d="M837.789 49.7694 Q828.756 49.7694 825.272 51.8354 Q821.788 53.9013 821.788 58.8839 Q821.788 62.8538 824.381 65.2034 Q827.014 67.5124 831.51 67.5124 Q837.708 67.5124 841.435 63.1374 Q845.202 58.7219 845.202 51.4303 L845.202 49.7694 L837.789 49.7694 M852.656 46.6907 L852.656 72.576 L845.202 72.576 L845.202 65.6895 Q842.65 69.8214 838.842 71.8063 Q835.035 73.7508 829.525 73.7508 Q822.558 73.7508 818.426 69.8619 Q814.334 65.9325 814.334 59.3701 Q814.334 51.7138 819.439 47.825 Q824.583 43.9361 834.751 43.9361 L845.202 43.9361 L845.202 43.2069 Q845.202 38.0623 841.8 35.2672 Q838.437 32.4315 832.32 32.4315 Q828.432 32.4315 824.745 33.3632 Q821.059 34.295 817.656 36.1584 L817.656 29.2718 Q821.748 27.692 825.596 26.9223 Q829.444 26.1121 833.09 26.1121 Q842.934 26.1121 847.795 31.2163 Q852.656 36.3204 852.656 46.6907 Z" fill="#000000" fill-rule="nonzero" fill-opacity="1" /><path clip-path="url(#clip670)" d="M862.662 27.2059 L870.561 27.2059 L884.739 65.2844 L898.917 27.2059 L906.817 27.2059 L889.803 72.576 L879.676 72.576 L862.662 27.2059 Z" fill="#000000" fill-rule="nonzero" fill-opacity="1" /><path clip-path="url(#clip670)" d="M917.106 27.2059 L924.56 27.2059 L924.56 72.576 L917.106 72.576 L917.106 27.2059 M917.106 9.54393 L924.56 9.54393 L924.56 18.9825 L917.106 18.9825 L917.106 9.54393 Z" fill="#000000" fill-rule="nonzero" fill-opacity="1" /><path clip-path="url(#clip670)" d="M957.736 32.4315 Q951.741 32.4315 948.257 37.1306 Q944.774 41.7891 944.774 49.9314 Q944.774 58.0738 948.217 62.7728 Q951.701 67.4314 957.736 67.4314 Q963.691 67.4314 967.175 62.7323 Q970.659 58.0333 970.659 49.9314 Q970.659 41.8701 967.175 37.1711 Q963.691 32.4315 957.736 32.4315 M957.736 26.1121 Q967.459 26.1121 973.008 32.4315 Q978.558 38.7509 978.558 49.9314 Q978.558 61.0714 973.008 67.4314 Q967.459 73.7508 957.736 73.7508 Q947.974 73.7508 942.424 67.4314 Q936.915 61.0714 936.915 49.9314 Q936.915 38.7509 942.424 32.4315 Q947.974 26.1121 957.736 26.1121 Z" fill="#000000" fill-rule="nonzero" fill-opacity="1" /><path clip-path="url(#clip670)" d="M990.144 54.671 L990.144 27.2059 L997.597 27.2059 L997.597 54.3874 Q997.597 60.8284 1000.11 64.0691 Q1002.62 67.2693 1007.64 67.2693 Q1013.68 67.2693 1017.16 63.421 Q1020.69 59.5726 1020.69 52.9291 L1020.69 27.2059 L1028.14 27.2059 L1028.14 72.576 L1020.69 72.576 L1020.69 65.6084 Q1017.97 69.7404 1014.37 71.7658 Q1010.8 73.7508 1006.06 73.7508 Q998.245 73.7508 994.195 68.8897 Q990.144 64.0286 990.144 54.671 M1008.9 26.1121 L1008.9 26.1121 Z" fill="#000000" fill-rule="nonzero" fill-opacity="1" /><path clip-path="url(#clip670)" d="M1069.78 34.1734 Q1068.53 33.4443 1067.03 33.1202 Q1065.57 32.7556 1063.79 32.7556 Q1057.47 32.7556 1054.07 36.8875 Q1050.7 40.9789 1050.7 48.6757 L1050.7 72.576 L1043.21 72.576 L1043.21 27.2059 L1050.7 27.2059 L1050.7 34.2544 Q1053.05 30.1225 1056.82 28.1376 Q1060.59 26.1121 1065.98 26.1121 Q1066.75 26.1121 1067.68 26.2337 Q1068.61 26.3147 1069.74 26.5172 L1069.78 34.1734 Z" fill="#000000" fill-rule="nonzero" fill-opacity="1" /><path clip-path="url(#clip670)" d="M1098.22 49.7694 Q1089.19 49.7694 1085.7 51.8354 Q1082.22 53.9013 1082.22 58.8839 Q1082.22 62.8538 1084.81 65.2034 Q1087.45 67.5124 1091.94 67.5124 Q1098.14 67.5124 1101.87 63.1374 Q1105.63 58.7219 1105.63 51.4303 L1105.63 49.7694 L1098.22 49.7694 M1113.09 46.6907 L1113.09 72.576 L1105.63 72.576 L1105.63 65.6895 Q1103.08 69.8214 1099.28 71.8063 Q1095.47 73.7508 1089.96 73.7508 Q1082.99 73.7508 1078.86 69.8619 Q1074.77 65.9325 1074.77 59.3701 Q1074.77 51.7138 1079.87 47.825 Q1085.02 43.9361 1095.18 43.9361 L1105.63 43.9361 L1105.63 43.2069 Q1105.63 38.0623 1102.23 35.2672 Q1098.87 32.4315 1092.75 32.4315 Q1088.86 32.4315 1085.18 33.3632 Q1081.49 34.295 1078.09 36.1584 L1078.09 29.2718 Q1082.18 27.692 1086.03 26.9223 Q1089.88 26.1121 1093.52 26.1121 Q1103.37 26.1121 1108.23 31.2163 Q1113.09 36.3204 1113.09 46.6907 Z" fill="#000000" fill-rule="nonzero" fill-opacity="1" /><path clip-path="url(#clip670)" d="M1128.44 9.54393 L1135.9 9.54393 L1135.9 72.576 L1128.44 72.576 L1128.44 9.54393 Z" fill="#000000" fill-rule="nonzero" fill-opacity="1" /><path clip-path="url(#clip670)" d="M1153.4 62.2867 L1161.94 62.2867 L1161.94 72.576 L1153.4 72.576 L1153.4 62.2867 M1153.4 29.6769 L1161.94 29.6769 L1161.94 39.9662 L1153.4 39.9662 L1153.4 29.6769 Z" fill="#000000" fill-rule="nonzero" fill-opacity="1" /><path clip-path="url(#clip670)" d="M1206.14 12.096 L1218.33 12.096 L1233.77 53.2532 L1249.28 12.096 L1261.47 12.096 L1261.47 72.576 L1253.49 72.576 L1253.49 19.4686 L1237.9 60.9499 L1229.67 60.9499 L1214.08 19.4686 L1214.08 72.576 L1206.14 72.576 L1206.14 12.096 Z" fill="#000000" fill-rule="nonzero" fill-opacity="1" /><path clip-path="url(#clip670)" d="M1306.4 44.2197 Q1309.03 45.1109 1311.5 48.0275 Q1314.01 50.9442 1316.53 56.0483 L1324.83 72.576 L1316.04 72.576 L1308.3 57.061 Q1305.3 50.9847 1302.47 48.9997 Q1299.67 47.0148 1294.81 47.0148 L1285.9 47.0148 L1285.9 72.576 L1277.72 72.576 L1277.72 12.096 L1296.19 12.096 Q1306.56 12.096 1311.66 16.4305 Q1316.77 20.7649 1316.77 29.5149 Q1316.77 35.2267 1314.09 38.994 Q1311.46 42.7613 1306.4 44.2197 M1285.9 18.8205 L1285.9 40.2903 L1296.19 40.2903 Q1302.1 40.2903 1305.1 37.5762 Q1308.14 34.8216 1308.14 29.5149 Q1308.14 24.2082 1305.1 21.5346 Q1302.1 18.8205 1296.19 18.8205 L1285.9 18.8205 Z" fill="#000000" fill-rule="nonzero" fill-opacity="1" /><path clip-path="url(#clip670)" d="M1352.21 20.1573 L1341.11 50.2555 L1363.35 50.2555 L1352.21 20.1573 M1347.6 12.096 L1356.87 12.096 L1379.92 72.576 L1371.41 72.576 L1365.91 57.061 L1338.64 57.061 L1333.13 72.576 L1324.51 72.576 L1347.6 12.096 Z" fill="#000000" fill-rule="nonzero" fill-opacity="1" /><path clip-path="url(#clip670)" d="M1388.75 12.096 L1426.99 12.096 L1426.99 18.9825 L1396.94 18.9825 L1396.94 36.8875 L1425.74 36.8875 L1425.74 43.7741 L1396.94 43.7741 L1396.94 65.6895 L1427.72 65.6895 L1427.72 72.576 L1388.75 72.576 L1388.75 12.096 Z" fill="#000000" fill-rule="nonzero" fill-opacity="1" /><path clip-path="url(#clip670)" d="M1463.82 9.54393 L1463.82 15.7418 L1456.69 15.7418 Q1452.68 15.7418 1451.1 17.3622 Q1449.56 18.9825 1449.56 23.1955 L1449.56 27.2059 L1461.83 27.2059 L1461.83 32.9987 L1449.56 32.9987 L1449.56 72.576 L1442.06 72.576 L1442.06 32.9987 L1434.93 32.9987 L1434.93 27.2059 L1442.06 27.2059 L1442.06 24.0462 Q1442.06 16.471 1445.59 13.0277 Q1449.11 9.54393 1456.77 9.54393 L1463.82 9.54393 Z" fill="#000000" fill-rule="nonzero" fill-opacity="1" /><path clip-path="url(#clip670)" d="M1491.08 27.2059 L1498.98 27.2059 L1513.16 65.2844 L1527.33 27.2059 L1535.23 27.2059 L1518.22 72.576 L1508.09 72.576 L1491.08 27.2059 Z" fill="#000000" fill-rule="nonzero" fill-opacity="1" /><path clip-path="url(#clip670)" d="M1574.45 28.5427 L1574.45 35.5912 Q1571.29 33.9709 1567.88 33.1607 Q1564.48 32.3505 1560.84 32.3505 Q1555.29 32.3505 1552.49 34.0519 Q1549.74 35.7533 1549.74 39.156 Q1549.74 41.7486 1551.72 43.2475 Q1553.71 44.7058 1559.7 46.0426 L1562.25 46.6097 Q1570.19 48.3111 1573.51 51.4303 Q1576.88 54.509 1576.88 60.0587 Q1576.88 66.3781 1571.85 70.0644 Q1566.87 73.7508 1558.12 73.7508 Q1554.48 73.7508 1550.51 73.0216 Q1546.58 72.3329 1542.2 70.9151 L1542.2 63.2184 Q1546.33 65.3654 1550.34 66.4591 Q1554.35 67.5124 1558.28 67.5124 Q1563.55 67.5124 1566.38 65.73 Q1569.22 63.9071 1569.22 60.6258 Q1569.22 57.5877 1567.15 55.9673 Q1565.13 54.3469 1558.2 52.8481 L1555.61 52.2405 Q1548.68 50.7821 1545.6 47.7845 Q1542.52 44.7463 1542.52 39.4801 Q1542.52 33.0797 1547.06 29.5959 Q1551.6 26.1121 1559.94 26.1121 Q1564.08 26.1121 1567.72 26.7198 Q1571.37 27.3274 1574.45 28.5427 Z" fill="#000000" fill-rule="nonzero" fill-opacity="1" /><path clip-path="url(#clip670)" d="M1615.44 12.096 L1623.62 12.096 L1623.62 36.8875 L1653.36 36.8875 L1653.36 12.096 L1661.54 12.096 L1661.54 72.576 L1653.36 72.576 L1653.36 43.7741 L1623.62 43.7741 L1623.62 72.576 L1615.44 72.576 L1615.44 12.096 Z" fill="#000000" fill-rule="nonzero" fill-opacity="1" /><path clip-path="url(#clip670)" d="M1695.08 32.4315 Q1689.09 32.4315 1685.6 37.1306 Q1682.12 41.7891 1682.12 49.9314 Q1682.12 58.0738 1685.56 62.7728 Q1689.05 67.4314 1695.08 67.4314 Q1701.04 67.4314 1704.52 62.7323 Q1708 58.0333 1708 49.9314 Q1708 41.8701 1704.52 37.1711 Q1701.04 32.4315 1695.08 32.4315 M1695.08 26.1121 Q1704.8 26.1121 1710.35 32.4315 Q1715.9 38.7509 1715.9 49.9314 Q1715.9 61.0714 1710.35 67.4314 Q1704.8 73.7508 1695.08 73.7508 Q1685.32 73.7508 1679.77 67.4314 Q1674.26 61.0714 1674.26 49.9314 Q1674.26 38.7509 1679.77 32.4315 Q1685.32 26.1121 1695.08 26.1121 Z" fill="#000000" fill-rule="nonzero" fill-opacity="1" /><path clip-path="url(#clip670)" d="M1754.55 34.1734 Q1753.29 33.4443 1751.79 33.1202 Q1750.34 32.7556 1748.55 32.7556 Q1742.23 32.7556 1738.83 36.8875 Q1735.47 40.9789 1735.47 48.6757 L1735.47 72.576 L1727.98 72.576 L1727.98 27.2059 L1735.47 27.2059 L1735.47 34.2544 Q1737.82 30.1225 1741.59 28.1376 Q1745.35 26.1121 1750.74 26.1121 Q1751.51 26.1121 1752.44 26.2337 Q1753.37 26.3147 1754.51 26.5172 L1754.55 34.1734 Z" fill="#000000" fill-rule="nonzero" fill-opacity="1" /><path clip-path="url(#clip670)" d="M1762.37 27.2059 L1769.82 27.2059 L1769.82 72.576 L1762.37 72.576 L1762.37 27.2059 M1762.37 9.54393 L1769.82 9.54393 L1769.82 18.9825 L1762.37 18.9825 L1762.37 9.54393 Z" fill="#000000" fill-rule="nonzero" fill-opacity="1" /><path clip-path="url(#clip670)" d="M1782.18 27.2059 L1817.58 27.2059 L1817.58 34.0114 L1789.55 66.6212 L1817.58 66.6212 L1817.58 72.576 L1781.16 72.576 L1781.16 65.7705 L1809.2 33.1607 L1782.18 33.1607 L1782.18 27.2059 Z" fill="#000000" fill-rule="nonzero" fill-opacity="1" /><path clip-path="url(#clip670)" d="M1846.55 32.4315 Q1840.55 32.4315 1837.07 37.1306 Q1833.58 41.7891 1833.58 49.9314 Q1833.58 58.0738 1837.03 62.7728 Q1840.51 67.4314 1846.55 67.4314 Q1852.5 67.4314 1855.98 62.7323 Q1859.47 58.0333 1859.47 49.9314 Q1859.47 41.8701 1855.98 37.1711 Q1852.5 32.4315 1846.55 32.4315 M1846.55 26.1121 Q1856.27 26.1121 1861.82 32.4315 Q1867.37 38.7509 1867.37 49.9314 Q1867.37 61.0714 1861.82 67.4314 Q1856.27 73.7508 1846.55 73.7508 Q1836.78 73.7508 1831.23 67.4314 Q1825.72 61.0714 1825.72 49.9314 Q1825.72 38.7509 1831.23 32.4315 Q1836.78 26.1121 1846.55 26.1121 Z" fill="#000000" fill-rule="nonzero" fill-opacity="1" /><path clip-path="url(#clip670)" d="M1917.44 45.1919 L1917.44 72.576 L1909.98 72.576 L1909.98 45.4349 Q1909.98 38.994 1907.47 35.7938 Q1904.96 32.5936 1899.94 32.5936 Q1893.9 32.5936 1890.42 36.4419 Q1886.93 40.2903 1886.93 46.9338 L1886.93 72.576 L1879.44 72.576 L1879.44 27.2059 L1886.93 27.2059 L1886.93 34.2544 Q1889.61 30.163 1893.21 28.1376 Q1896.86 26.1121 1901.6 26.1121 Q1909.42 26.1121 1913.43 30.9732 Q1917.44 35.7938 1917.44 45.1919 Z" fill="#000000" fill-rule="nonzero" fill-opacity="1" /><circle clip-path="url(#clip672)" cx="281.952" cy="892.695" r="14.4" fill="#009af9" fill-rule="evenodd" fill-opacity="1" stroke="#000000" stroke-opacity="1" stroke-width="3.2"/>
<circle clip-path="url(#clip672)" cx="407.607" cy="380.631" r="14.4" fill="#009af9" fill-rule="evenodd" fill-opacity="1" stroke="#000000" stroke-opacity="1" stroke-width="3.2"/>
<circle clip-path="url(#clip672)" cx="617.033" cy="706.116" r="14.4" fill="#009af9" fill-rule="evenodd" fill-opacity="1" stroke="#000000" stroke-opacity="1" stroke-width="3.2"/>
<circle clip-path="url(#clip672)" cx="826.459" cy="160.256" r="14.4" fill="#009af9" fill-rule="evenodd" fill-opacity="1" stroke="#000000" stroke-opacity="1" stroke-width="3.2"/>
<circle clip-path="url(#clip672)" cx="1035.89" cy="497.879" r="14.4" fill="#009af9" fill-rule="evenodd" fill-opacity="1" stroke="#000000" stroke-opacity="1" stroke-width="3.2"/>
<circle clip-path="url(#clip672)" cx="1245.31" cy="624.683" r="14.4" fill="#009af9" fill-rule="evenodd" fill-opacity="1" stroke="#000000" stroke-opacity="1" stroke-width="3.2"/>
<circle clip-path="url(#clip672)" cx="1454.74" cy="695.492" r="14.4" fill="#009af9" fill-rule="evenodd" fill-opacity="1" stroke="#000000" stroke-opacity="1" stroke-width="3.2"/>
<circle clip-path="url(#clip672)" cx="1664.16" cy="583.758" r="14.4" fill="#009af9" fill-rule="evenodd" fill-opacity="1" stroke="#000000" stroke-opacity="1" stroke-width="3.2"/>
<circle clip-path="url(#clip672)" cx="1873.59" cy="1386.4" r="14.4" fill="#009af9" fill-rule="evenodd" fill-opacity="1" stroke="#000000" stroke-opacity="1" stroke-width="3.2"/>
<circle clip-path="url(#clip672)" cx="2083.02" cy="1386.4" r="14.4" fill="#009af9" fill-rule="evenodd" fill-opacity="1" stroke="#000000" stroke-opacity="1" stroke-width="3.2"/>
<circle clip-path="url(#clip672)" cx="2292.44" cy="1386.4" r="14.4" fill="#009af9" fill-rule="evenodd" fill-opacity="1" stroke="#000000" stroke-opacity="1" stroke-width="3.2"/>
<circle clip-path="url(#clip672)" cx="281.952" cy="955.56" r="14.4" fill="#e26f46" fill-rule="evenodd" fill-opacity="1" stroke="#000000" stroke-opacity="1" stroke-width="3.2"/>
<circle clip-path="url(#clip672)" cx="407.607" cy="658.976" r="14.4" fill="#e26f46" fill-rule="evenodd" fill-opacity="1" stroke="#000000" stroke-opacity="1" stroke-width="3.2"/>
<circle clip-path="url(#clip672)" cx="617.033" cy="881.609" r="14.4" fill="#e26f46" fill-rule="evenodd" fill-opacity="1" stroke="#000000" stroke-opacity="1" stroke-width="3.2"/>
<circle clip-path="url(#clip672)" cx="826.459" cy="873.988" r="14.4" fill="#e26f46" fill-rule="evenodd" fill-opacity="1" stroke="#000000" stroke-opacity="1" stroke-width="3.2"/>
<circle clip-path="url(#clip672)" cx="1035.89" cy="777.556" r="14.4" fill="#e26f46" fill-rule="evenodd" fill-opacity="1" stroke="#000000" stroke-opacity="1" stroke-width="3.2"/>
<circle clip-path="url(#clip672)" cx="1245.31" cy="523.271" r="14.4" fill="#e26f46" fill-rule="evenodd" fill-opacity="1" stroke="#000000" stroke-opacity="1" stroke-width="3.2"/>
<circle clip-path="url(#clip672)" cx="1454.74" cy="702.236" r="14.4" fill="#e26f46" fill-rule="evenodd" fill-opacity="1" stroke="#000000" stroke-opacity="1" stroke-width="3.2"/>
<circle clip-path="url(#clip672)" cx="1664.16" cy="715.095" r="14.4" fill="#e26f46" fill-rule="evenodd" fill-opacity="1" stroke="#000000" stroke-opacity="1" stroke-width="3.2"/>
<circle clip-path="url(#clip672)" cx="1873.59" cy="1363.94" r="14.4" fill="#e26f46" fill-rule="evenodd" fill-opacity="1" stroke="#000000" stroke-opacity="1" stroke-width="3.2"/>
<circle clip-path="url(#clip672)" cx="2083.02" cy="1363.94" r="14.4" fill="#e26f46" fill-rule="evenodd" fill-opacity="1" stroke="#000000" stroke-opacity="1" stroke-width="3.2"/>
<circle clip-path="url(#clip672)" cx="2292.44" cy="1363.94" r="14.4" fill="#e26f46" fill-rule="evenodd" fill-opacity="1" stroke="#000000" stroke-opacity="1" stroke-width="3.2"/>
<path clip-path="url(#clip670)" d="M1732.2 322.316 L2281.72 322.316 L2281.72 166.796 L1732.2 166.796  Z" fill="#ffffff" fill-rule="evenodd" fill-opacity="1"/>
<polyline clip-path="url(#clip670)" style="stroke:#000000; stroke-linecap:round; stroke-linejoin:round; stroke-width:4; stroke-opacity:1; fill:none" points="1732.2,322.316 2281.72,322.316 2281.72,166.796 1732.2,166.796 1732.2,322.316 "/>
<circle clip-path="url(#clip670)" cx="1826.91" cy="218.636" r="20.48" fill="#009af9" fill-rule="evenodd" fill-opacity="1" stroke="#000000" stroke-opacity="1" stroke-width="4.55111"/>
<path clip-path="url(#clip670)" d="M1929.04 202.629 L1929.04 209.99 L1937.81 209.99 L1937.81 213.3 L1929.04 213.3 L1929.04 227.374 Q1929.04 230.545 1929.89 231.448 Q1930.77 232.351 1933.43 232.351 L1937.81 232.351 L1937.81 235.916 L1933.43 235.916 Q1928.5 235.916 1926.63 234.087 Q1924.75 232.235 1924.75 227.374 L1924.75 213.3 L1921.63 213.3 L1921.63 209.99 L1924.75 209.99 L1924.75 202.629 L1929.04 202.629 Z" fill="#000000" fill-rule="nonzero" fill-opacity="1" /><path clip-path="url(#clip670)" d="M1958.43 213.971 Q1957.72 213.555 1956.86 213.37 Q1956.03 213.161 1955.01 213.161 Q1951.4 213.161 1949.45 215.522 Q1947.53 217.86 1947.53 222.258 L1947.53 235.916 L1943.25 235.916 L1943.25 209.99 L1947.53 209.99 L1947.53 214.018 Q1948.87 211.657 1951.03 210.522 Q1953.18 209.365 1956.26 209.365 Q1956.7 209.365 1957.23 209.434 Q1957.76 209.481 1958.41 209.596 L1958.43 213.971 Z" fill="#000000" fill-rule="nonzero" fill-opacity="1" /><path clip-path="url(#clip670)" d="M1974.68 222.883 Q1969.52 222.883 1967.53 224.064 Q1965.54 225.244 1965.54 228.092 Q1965.54 230.36 1967.02 231.703 Q1968.53 233.022 1971.1 233.022 Q1974.64 233.022 1976.77 230.522 Q1978.92 227.999 1978.92 223.832 L1978.92 222.883 L1974.68 222.883 M1983.18 221.124 L1983.18 235.916 L1978.92 235.916 L1978.92 231.981 Q1977.46 234.342 1975.29 235.476 Q1973.11 236.587 1969.96 236.587 Q1965.98 236.587 1963.62 234.365 Q1961.28 232.119 1961.28 228.369 Q1961.28 223.994 1964.2 221.772 Q1967.14 219.55 1972.95 219.55 L1978.92 219.55 L1978.92 219.133 Q1978.92 216.194 1976.98 214.596 Q1975.05 212.976 1971.56 212.976 Q1969.34 212.976 1967.23 213.508 Q1965.12 214.041 1963.18 215.106 L1963.18 211.17 Q1965.52 210.268 1967.72 209.828 Q1969.92 209.365 1972 209.365 Q1977.62 209.365 1980.4 212.282 Q1983.18 215.198 1983.18 221.124 Z" fill="#000000" fill-rule="nonzero" fill-opacity="1" /><path clip-path="url(#clip670)" d="M1991.95 209.99 L1996.21 209.99 L1996.21 235.916 L1991.95 235.916 L1991.95 209.99 M1991.95 199.897 L1996.21 199.897 L1996.21 205.291 L1991.95 205.291 L1991.95 199.897 Z" fill="#000000" fill-rule="nonzero" fill-opacity="1" /><path clip-path="url(#clip670)" d="M2026.68 220.268 L2026.68 235.916 L2022.42 235.916 L2022.42 220.407 Q2022.42 216.726 2020.98 214.897 Q2019.55 213.069 2016.68 213.069 Q2013.23 213.069 2011.24 215.268 Q2009.24 217.467 2009.24 221.263 L2009.24 235.916 L2004.96 235.916 L2004.96 209.99 L2009.24 209.99 L2009.24 214.018 Q2010.77 211.68 2012.83 210.522 Q2014.92 209.365 2017.62 209.365 Q2022.09 209.365 2024.38 212.143 Q2026.68 214.897 2026.68 220.268 Z" fill="#000000" fill-rule="nonzero" fill-opacity="1" /><path clip-path="url(#clip670)" d="M2035.17 209.99 L2039.43 209.99 L2039.43 235.916 L2035.17 235.916 L2035.17 209.99 M2035.17 199.897 L2039.43 199.897 L2039.43 205.291 L2035.17 205.291 L2035.17 199.897 Z" fill="#000000" fill-rule="nonzero" fill-opacity="1" /><path clip-path="url(#clip670)" d="M2069.89 220.268 L2069.89 235.916 L2065.63 235.916 L2065.63 220.407 Q2065.63 216.726 2064.2 214.897 Q2062.76 213.069 2059.89 213.069 Q2056.44 213.069 2054.45 215.268 Q2052.46 217.467 2052.46 221.263 L2052.46 235.916 L2048.18 235.916 L2048.18 209.99 L2052.46 209.99 L2052.46 214.018 Q2053.99 211.68 2056.05 210.522 Q2058.13 209.365 2060.84 209.365 Q2065.31 209.365 2067.6 212.143 Q2069.89 214.897 2069.89 220.268 Z" fill="#000000" fill-rule="nonzero" fill-opacity="1" /><path clip-path="url(#clip670)" d="M2095.45 222.652 Q2095.45 218.022 2093.53 215.476 Q2091.63 212.93 2088.18 212.93 Q2084.75 212.93 2082.83 215.476 Q2080.93 218.022 2080.93 222.652 Q2080.93 227.258 2082.83 229.805 Q2084.75 232.351 2088.18 232.351 Q2091.63 232.351 2093.53 229.805 Q2095.45 227.258 2095.45 222.652 M2099.71 232.698 Q2099.71 239.318 2096.77 242.536 Q2093.83 245.777 2087.76 245.777 Q2085.52 245.777 2083.53 245.43 Q2081.54 245.105 2079.66 244.411 L2079.66 240.268 Q2081.54 241.286 2083.36 241.772 Q2085.19 242.258 2087.09 242.258 Q2091.28 242.258 2093.36 240.059 Q2095.45 237.883 2095.45 233.462 L2095.45 231.356 Q2094.13 233.647 2092.07 234.781 Q2090.01 235.916 2087.14 235.916 Q2082.37 235.916 2079.45 232.281 Q2076.54 228.647 2076.54 222.652 Q2076.54 216.633 2079.45 212.999 Q2082.37 209.365 2087.14 209.365 Q2090.01 209.365 2092.07 210.499 Q2094.13 211.633 2095.45 213.925 L2095.45 209.99 L2099.71 209.99 L2099.71 232.698 Z" fill="#000000" fill-rule="nonzero" fill-opacity="1" /><path clip-path="url(#clip670)" d="M2121.4 221.032 L2133.87 221.032 L2133.87 224.828 L2121.4 224.828 L2121.4 221.032 Z" fill="#000000" fill-rule="nonzero" fill-opacity="1" /><path clip-path="url(#clip670)" d="M2160.35 231.981 L2176.67 231.981 L2176.67 235.916 L2154.73 235.916 L2154.73 231.981 Q2157.39 229.226 2161.98 224.596 Q2166.58 219.944 2167.76 218.601 Q2170.01 216.078 2170.89 214.342 Q2171.79 212.583 2171.79 210.893 Q2171.79 208.138 2169.85 206.402 Q2167.92 204.666 2164.82 204.666 Q2162.62 204.666 2160.17 205.43 Q2157.74 206.194 2154.96 207.745 L2154.96 203.022 Q2157.79 201.888 2160.24 201.309 Q2162.69 200.731 2164.73 200.731 Q2170.1 200.731 2173.29 203.416 Q2176.49 206.101 2176.49 210.592 Q2176.49 212.721 2175.68 214.643 Q2174.89 216.541 2172.79 219.133 Q2172.21 219.805 2169.1 223.022 Q2166 226.217 2160.35 231.981 Z" fill="#000000" fill-rule="nonzero" fill-opacity="1" /><path clip-path="url(#clip670)" d="M2196.49 204.434 Q2192.88 204.434 2191.05 207.999 Q2189.24 211.541 2189.24 218.67 Q2189.24 225.777 2191.05 229.342 Q2192.88 232.883 2196.49 232.883 Q2200.12 232.883 2201.93 229.342 Q2203.76 225.777 2203.76 218.67 Q2203.76 211.541 2201.93 207.999 Q2200.12 204.434 2196.49 204.434 M2196.49 200.731 Q2202.3 200.731 2205.35 205.337 Q2208.43 209.92 2208.43 218.67 Q2208.43 227.397 2205.35 232.004 Q2202.3 236.587 2196.49 236.587 Q2190.68 236.587 2187.6 232.004 Q2184.54 227.397 2184.54 218.67 Q2184.54 209.92 2187.6 205.337 Q2190.68 200.731 2196.49 200.731 Z" fill="#000000" fill-rule="nonzero" fill-opacity="1" /><circle clip-path="url(#clip670)" cx="1826.91" cy="270.476" r="20.48" fill="#e26f46" fill-rule="evenodd" fill-opacity="1" stroke="#000000" stroke-opacity="1" stroke-width="4.55111"/>
<path clip-path="url(#clip670)" d="M1921.63 261.83 L1926.14 261.83 L1934.24 283.589 L1942.35 261.83 L1946.86 261.83 L1937.14 287.756 L1931.35 287.756 L1921.63 261.83 Z" fill="#000000" fill-rule="nonzero" fill-opacity="1" /><path clip-path="url(#clip670)" d="M1964.52 274.723 Q1959.36 274.723 1957.37 275.904 Q1955.38 277.084 1955.38 279.932 Q1955.38 282.2 1956.86 283.543 Q1958.37 284.862 1960.93 284.862 Q1964.48 284.862 1966.61 282.362 Q1968.76 279.839 1968.76 275.672 L1968.76 274.723 L1964.52 274.723 M1973.02 272.964 L1973.02 287.756 L1968.76 287.756 L1968.76 283.821 Q1967.3 286.182 1965.12 287.316 Q1962.95 288.427 1959.8 288.427 Q1955.82 288.427 1953.46 286.205 Q1951.12 283.959 1951.12 280.209 Q1951.12 275.834 1954.04 273.612 Q1956.98 271.39 1962.79 271.39 L1968.76 271.39 L1968.76 270.973 Q1968.76 268.034 1966.81 266.436 Q1964.89 264.816 1961.4 264.816 Q1959.18 264.816 1957.07 265.348 Q1954.96 265.881 1953.02 266.946 L1953.02 263.01 Q1955.36 262.108 1957.56 261.668 Q1959.75 261.205 1961.84 261.205 Q1967.46 261.205 1970.24 264.122 Q1973.02 267.038 1973.02 272.964 Z" fill="#000000" fill-rule="nonzero" fill-opacity="1" /><path clip-path="url(#clip670)" d="M1981.79 251.737 L1986.05 251.737 L1986.05 287.756 L1981.79 287.756 L1981.79 251.737 Z" fill="#000000" fill-rule="nonzero" fill-opacity="1" /><path clip-path="url(#clip670)" d="M1994.96 261.83 L1999.22 261.83 L1999.22 287.756 L1994.96 287.756 L1994.96 261.83 M1994.96 251.737 L1999.22 251.737 L1999.22 257.131 L1994.96 257.131 L1994.96 251.737 Z" fill="#000000" fill-rule="nonzero" fill-opacity="1" /><path clip-path="url(#clip670)" d="M2025.19 265.765 L2025.19 251.737 L2029.45 251.737 L2029.45 287.756 L2025.19 287.756 L2025.19 283.867 Q2023.85 286.182 2021.79 287.316 Q2019.75 288.427 2016.88 288.427 Q2012.18 288.427 2009.22 284.677 Q2006.28 280.927 2006.28 274.816 Q2006.28 268.705 2009.22 264.955 Q2012.18 261.205 2016.88 261.205 Q2019.75 261.205 2021.79 262.339 Q2023.85 263.45 2025.19 265.765 M2010.68 274.816 Q2010.68 279.515 2012.6 282.2 Q2014.55 284.862 2017.93 284.862 Q2021.3 284.862 2023.25 282.2 Q2025.19 279.515 2025.19 274.816 Q2025.19 270.117 2023.25 267.455 Q2021.3 264.77 2017.93 264.77 Q2014.55 264.77 2012.6 267.455 Q2010.68 270.117 2010.68 274.816 Z" fill="#000000" fill-rule="nonzero" fill-opacity="1" /><path clip-path="url(#clip670)" d="M2050.01 274.723 Q2044.85 274.723 2042.86 275.904 Q2040.86 277.084 2040.86 279.932 Q2040.86 282.2 2042.35 283.543 Q2043.85 284.862 2046.42 284.862 Q2049.96 284.862 2052.09 282.362 Q2054.24 279.839 2054.24 275.672 L2054.24 274.723 L2050.01 274.723 M2058.5 272.964 L2058.5 287.756 L2054.24 287.756 L2054.24 283.821 Q2052.79 286.182 2050.61 287.316 Q2048.43 288.427 2045.29 288.427 Q2041.3 288.427 2038.94 286.205 Q2036.61 283.959 2036.61 280.209 Q2036.61 275.834 2039.52 273.612 Q2042.46 271.39 2048.27 271.39 L2054.24 271.39 L2054.24 270.973 Q2054.24 268.034 2052.3 266.436 Q2050.38 264.816 2046.88 264.816 Q2044.66 264.816 2042.55 265.348 Q2040.45 265.881 2038.5 266.946 L2038.5 263.01 Q2040.84 262.108 2043.04 261.668 Q2045.24 261.205 2047.32 261.205 Q2052.95 261.205 2055.73 264.122 Q2058.5 267.038 2058.5 272.964 Z" fill="#000000" fill-rule="nonzero" fill-opacity="1" /><path clip-path="url(#clip670)" d="M2071.49 254.469 L2071.49 261.83 L2080.26 261.83 L2080.26 265.14 L2071.49 265.14 L2071.49 279.214 Q2071.49 282.385 2072.35 283.288 Q2073.23 284.191 2075.89 284.191 L2080.26 284.191 L2080.26 287.756 L2075.89 287.756 Q2070.96 287.756 2069.08 285.927 Q2067.21 284.075 2067.21 279.214 L2067.21 265.14 L2064.08 265.14 L2064.08 261.83 L2067.21 261.83 L2067.21 254.469 L2071.49 254.469 Z" fill="#000000" fill-rule="nonzero" fill-opacity="1" /><path clip-path="url(#clip670)" d="M2085.86 261.83 L2090.12 261.83 L2090.12 287.756 L2085.86 287.756 L2085.86 261.83 M2085.86 251.737 L2090.12 251.737 L2090.12 257.131 L2085.86 257.131 L2085.86 251.737 Z" fill="#000000" fill-rule="nonzero" fill-opacity="1" /><path clip-path="url(#clip670)" d="M2109.08 264.816 Q2105.66 264.816 2103.67 267.501 Q2101.67 270.163 2101.67 274.816 Q2101.67 279.469 2103.64 282.154 Q2105.63 284.816 2109.08 284.816 Q2112.48 284.816 2114.48 282.131 Q2116.47 279.446 2116.47 274.816 Q2116.47 270.21 2114.48 267.524 Q2112.48 264.816 2109.08 264.816 M2109.08 261.205 Q2114.64 261.205 2117.81 264.816 Q2120.98 268.427 2120.98 274.816 Q2120.98 281.182 2117.81 284.816 Q2114.64 288.427 2109.08 288.427 Q2103.5 288.427 2100.33 284.816 Q2097.18 281.182 2097.18 274.816 Q2097.18 268.427 2100.33 264.816 Q2103.5 261.205 2109.08 261.205 Z" fill="#000000" fill-rule="nonzero" fill-opacity="1" /><path clip-path="url(#clip670)" d="M2149.59 272.108 L2149.59 287.756 L2145.33 287.756 L2145.33 272.247 Q2145.33 268.566 2143.9 266.737 Q2142.46 264.909 2139.59 264.909 Q2136.14 264.909 2134.15 267.108 Q2132.16 269.307 2132.16 273.103 L2132.16 287.756 L2127.88 287.756 L2127.88 261.83 L2132.16 261.83 L2132.16 265.858 Q2133.69 263.52 2135.75 262.362 Q2137.83 261.205 2140.54 261.205 Q2145.01 261.205 2147.3 263.983 Q2149.59 266.737 2149.59 272.108 Z" fill="#000000" fill-rule="nonzero" fill-opacity="1" /><path clip-path="url(#clip670)" d="M2171 272.872 L2183.48 272.872 L2183.48 276.668 L2171 276.668 L2171 272.872 Z" fill="#000000" fill-rule="nonzero" fill-opacity="1" /><path clip-path="url(#clip670)" d="M2209.96 283.821 L2226.28 283.821 L2226.28 287.756 L2204.34 287.756 L2204.34 283.821 Q2207 281.066 2211.58 276.436 Q2216.19 271.784 2217.37 270.441 Q2219.61 267.918 2220.49 266.182 Q2221.4 264.423 2221.4 262.733 Q2221.4 259.978 2219.45 258.242 Q2217.53 256.506 2214.43 256.506 Q2212.23 256.506 2209.78 257.27 Q2207.35 258.034 2204.57 259.585 L2204.57 254.862 Q2207.39 253.728 2209.85 253.149 Q2212.3 252.571 2214.34 252.571 Q2219.71 252.571 2222.9 255.256 Q2226.1 257.941 2226.1 262.432 Q2226.1 264.561 2225.29 266.483 Q2224.5 268.381 2222.39 270.973 Q2221.81 271.645 2218.71 274.862 Q2215.61 278.057 2209.96 283.821 Z" fill="#000000" fill-rule="nonzero" fill-opacity="1" /><path clip-path="url(#clip670)" d="M2246.1 256.274 Q2242.48 256.274 2240.66 259.839 Q2238.85 263.381 2238.85 270.51 Q2238.85 277.617 2240.66 281.182 Q2242.48 284.723 2246.1 284.723 Q2249.73 284.723 2251.53 281.182 Q2253.36 277.617 2253.36 270.51 Q2253.36 263.381 2251.53 259.839 Q2249.73 256.274 2246.1 256.274 M2246.1 252.571 Q2251.91 252.571 2254.96 257.177 Q2258.04 261.76 2258.04 270.51 Q2258.04 279.237 2254.96 283.844 Q2251.91 288.427 2246.1 288.427 Q2240.28 288.427 2237.21 283.844 Q2234.15 279.237 2234.15 270.51 Q2234.15 261.76 2237.21 257.177 Q2240.28 252.571 2246.1 252.571 Z" fill="#000000" fill-rule="nonzero" fill-opacity="1" /></svg>
