<?xml version="1.0" encoding="utf-8"?>
<svg xmlns="http://www.w3.org/2000/svg" xmlns:xlink="http://www.w3.org/1999/xlink" width="600" height="400" viewBox="0 0 2400 1600">
<defs>
  <clipPath id="clip270">
    <rect x="0" y="0" width="2400" height="1600"/>
  </clipPath>
</defs>
<path clip-path="url(#clip270)" d="M0 1600 L2400 1600 L2400 0 L0 0  Z" fill="#ffffff" fill-rule="evenodd" fill-opacity="1"/>
<defs>
  <clipPath id="clip271">
    <rect x="480" y="0" width="1681" height="1600"/>
  </clipPath>
</defs>
<path clip-path="url(#clip270)" d="M217.783 1423.18 L2352.76 1423.18 L2352.76 123.472 L217.783 123.472  Z" fill="#ffffff" fill-rule="evenodd" fill-opacity="1"/>
<defs>
  <clipPath id="clip272">
    <rect x="217" y="123" width="2136" height="1301"/>
  </clipPath>
</defs>
<polyline clip-path="url(#clip272)" style="stroke:#000000; stroke-linecap:round; stroke-linejoin:round; stroke-width:2; stroke-opacity:0.1; fill:none" points="494.006,1423.18 494.006,123.472 "/>
<polyline clip-path="url(#clip272)" style="stroke:#000000; stroke-linecap:round; stroke-linejoin:round; stroke-width:2; stroke-opacity:0.1; fill:none" points="853.671,1423.18 853.671,123.472 "/>
<polyline clip-path="url(#clip272)" style="stroke:#000000; stroke-linecap:round; stroke-linejoin:round; stroke-width:2; stroke-opacity:0.1; fill:none" points="1213.34,1423.18 1213.34,123.472 "/>
<polyline clip-path="url(#clip272)" style="stroke:#000000; stroke-linecap:round; stroke-linejoin:round; stroke-width:2; stroke-opacity:0.1; fill:none" points="1573,1423.18 1573,123.472 "/>
<polyline clip-path="url(#clip272)" style="stroke:#000000; stroke-linecap:round; stroke-linejoin:round; stroke-width:2; stroke-opacity:0.1; fill:none" points="1932.67,1423.18 1932.67,123.472 "/>
<polyline clip-path="url(#clip272)" style="stroke:#000000; stroke-linecap:round; stroke-linejoin:round; stroke-width:2; stroke-opacity:0.1; fill:none" points="2292.33,1423.18 2292.33,123.472 "/>
<polyline clip-path="url(#clip270)" style="stroke:#000000; stroke-linecap:round; stroke-linejoin:round; stroke-width:4; stroke-opacity:1; fill:none" points="217.783,1423.18 2352.76,1423.18 "/>
<polyline clip-path="url(#clip270)" style="stroke:#000000; stroke-linecap:round; stroke-linejoin:round; stroke-width:4; stroke-opacity:1; fill:none" points="494.006,1423.18 494.006,1404.28 "/>
<polyline clip-path="url(#clip270)" style="stroke:#000000; stroke-linecap:round; stroke-linejoin:round; stroke-width:4; stroke-opacity:1; fill:none" points="853.671,1423.18 853.671,1404.28 "/>
<polyline clip-path="url(#clip270)" style="stroke:#000000; stroke-linecap:round; stroke-linejoin:round; stroke-width:4; stroke-opacity:1; fill:none" points="1213.34,1423.18 1213.34,1404.28 "/>
<polyline clip-path="url(#clip270)" style="stroke:#000000; stroke-linecap:round; stroke-linejoin:round; stroke-width:4; stroke-opacity:1; fill:none" points="1573,1423.18 1573,1404.28 "/>
<polyline clip-path="url(#clip270)" style="stroke:#000000; stroke-linecap:round; stroke-linejoin:round; stroke-width:4; stroke-opacity:1; fill:none" points="1932.67,1423.18 1932.67,1404.28 "/>
<polyline clip-path="url(#clip270)" style="stroke:#000000; stroke-linecap:round; stroke-linejoin:round; stroke-width:4; stroke-opacity:1; fill:none" points="2292.33,1423.18 2292.33,1404.28 "/>
<path clip-path="url(#clip270)" d="M484.284 1451.02 L502.64 1451.02 L502.64 1454.96 L488.566 1454.96 L488.566 1463.43 Q489.585 1463.08 490.603 1462.92 Q491.622 1462.73 492.64 1462.73 Q498.427 1462.73 501.807 1465.9 Q505.186 1469.08 505.186 1474.49 Q505.186 1480.07 501.714 1483.17 Q498.242 1486.25 491.923 1486.25 Q489.747 1486.25 487.478 1485.88 Q485.233 1485.51 482.825 1484.77 L482.825 1480.07 Q484.909 1481.2 487.131 1481.76 Q489.353 1482.32 491.83 1482.32 Q495.835 1482.32 498.173 1480.21 Q500.51 1478.1 500.51 1474.49 Q500.51 1470.88 498.173 1468.77 Q495.835 1466.67 491.83 1466.67 Q489.955 1466.67 488.08 1467.08 Q486.228 1467.5 484.284 1468.38 L484.284 1451.02 Z" fill="#000000" fill-rule="nonzero" fill-opacity="1" /><path clip-path="url(#clip270)" d="M828.359 1481.64 L835.998 1481.64 L835.998 1455.28 L827.687 1456.95 L827.687 1452.69 L835.951 1451.02 L840.627 1451.02 L840.627 1481.64 L848.266 1481.64 L848.266 1485.58 L828.359 1485.58 L828.359 1481.64 Z" fill="#000000" fill-rule="nonzero" fill-opacity="1" /><path clip-path="url(#clip270)" d="M867.71 1454.1 Q864.099 1454.1 862.271 1457.66 Q860.465 1461.2 860.465 1468.33 Q860.465 1475.44 862.271 1479.01 Q864.099 1482.55 867.71 1482.55 Q871.345 1482.55 873.15 1479.01 Q874.979 1475.44 874.979 1468.33 Q874.979 1461.2 873.15 1457.66 Q871.345 1454.1 867.71 1454.1 M867.71 1450.39 Q873.521 1450.39 876.576 1455 Q879.655 1459.58 879.655 1468.33 Q879.655 1477.06 876.576 1481.67 Q873.521 1486.25 867.71 1486.25 Q861.9 1486.25 858.822 1481.67 Q855.766 1477.06 855.766 1468.33 Q855.766 1459.58 858.822 1455 Q861.9 1450.39 867.71 1450.39 Z" fill="#000000" fill-rule="nonzero" fill-opacity="1" /><path clip-path="url(#clip270)" d="M1188.52 1481.64 L1196.16 1481.64 L1196.16 1455.28 L1187.85 1456.95 L1187.85 1452.69 L1196.11 1451.02 L1200.79 1451.02 L1200.79 1481.64 L1208.43 1481.64 L1208.43 1485.58 L1188.52 1485.58 L1188.52 1481.64 Z" fill="#000000" fill-rule="nonzero" fill-opacity="1" /><path clip-path="url(#clip270)" d="M1217.92 1451.02 L1236.28 1451.02 L1236.28 1454.96 L1222.2 1454.96 L1222.2 1463.43 Q1223.22 1463.08 1224.24 1462.92 Q1225.26 1462.73 1226.28 1462.73 Q1232.06 1462.73 1235.44 1465.9 Q1238.82 1469.08 1238.82 1474.49 Q1238.82 1480.07 1235.35 1483.17 Q1231.88 1486.25 1225.56 1486.25 Q1223.38 1486.25 1221.11 1485.88 Q1218.87 1485.51 1216.46 1484.77 L1216.46 1480.07 Q1218.54 1481.2 1220.77 1481.76 Q1222.99 1482.32 1225.47 1482.32 Q1229.47 1482.32 1231.81 1480.21 Q1234.15 1478.1 1234.15 1474.49 Q1234.15 1470.88 1231.81 1468.77 Q1229.47 1466.67 1225.47 1466.67 Q1223.59 1466.67 1221.72 1467.08 Q1219.86 1467.5 1217.92 1468.38 L1217.92 1451.02 Z" fill="#000000" fill-rule="nonzero" fill-opacity="1" /><path clip-path="url(#clip270)" d="M1551.77 1481.64 L1568.09 1481.64 L1568.09 1485.58 L1546.15 1485.58 L1546.15 1481.64 Q1548.81 1478.89 1553.4 1474.26 Q1558 1469.61 1559.18 1468.27 Q1561.43 1465.74 1562.31 1464.01 Q1563.21 1462.25 1563.21 1460.56 Q1563.21 1457.8 1561.27 1456.07 Q1559.34 1454.33 1556.24 1454.33 Q1554.04 1454.33 1551.59 1455.09 Q1549.16 1455.86 1546.38 1457.41 L1546.38 1452.69 Q1549.21 1451.55 1551.66 1450.97 Q1554.11 1450.39 1556.15 1450.39 Q1561.52 1450.39 1564.71 1453.08 Q1567.91 1455.77 1567.91 1460.26 Q1567.91 1462.39 1567.1 1464.31 Q1566.31 1466.2 1564.21 1468.8 Q1563.63 1469.47 1560.52 1472.69 Q1557.42 1475.88 1551.77 1481.64 Z" fill="#000000" fill-rule="nonzero" fill-opacity="1" /><path clip-path="url(#clip270)" d="M1587.91 1454.1 Q1584.3 1454.1 1582.47 1457.66 Q1580.66 1461.2 1580.66 1468.33 Q1580.66 1475.44 1582.47 1479.01 Q1584.3 1482.55 1587.91 1482.55 Q1591.54 1482.55 1593.35 1479.01 Q1595.18 1475.44 1595.18 1468.33 Q1595.18 1461.2 1593.35 1457.66 Q1591.54 1454.1 1587.91 1454.1 M1587.91 1450.39 Q1593.72 1450.39 1596.77 1455 Q1599.85 1459.58 1599.85 1468.33 Q1599.85 1477.06 1596.77 1481.67 Q1593.72 1486.25 1587.91 1486.25 Q1582.1 1486.25 1579.02 1481.67 Q1575.96 1477.06 1575.96 1468.33 Q1575.96 1459.58 1579.02 1455 Q1582.1 1450.39 1587.91 1450.39 Z" fill="#000000" fill-rule="nonzero" fill-opacity="1" /><path clip-path="url(#clip270)" d="M1911.94 1481.64 L1928.26 1481.64 L1928.26 1485.58 L1906.31 1485.58 L1906.31 1481.64 Q1908.97 1478.89 1913.56 1474.26 Q1918.16 1469.61 1919.35 1468.27 Q1921.59 1465.74 1922.47 1464.01 Q1923.37 1462.25 1923.37 1460.56 Q1923.37 1457.8 1921.43 1456.07 Q1919.51 1454.33 1916.41 1454.33 Q1914.21 1454.33 1911.75 1455.09 Q1909.32 1455.86 1906.54 1457.41 L1906.54 1452.69 Q1909.37 1451.55 1911.82 1450.97 Q1914.28 1450.39 1916.31 1450.39 Q1921.68 1450.39 1924.88 1453.08 Q1928.07 1455.77 1928.07 1460.26 Q1928.07 1462.39 1927.26 1464.31 Q1926.47 1466.2 1924.37 1468.8 Q1923.79 1469.47 1920.69 1472.69 Q1917.59 1475.88 1911.94 1481.64 Z" fill="#000000" fill-rule="nonzero" fill-opacity="1" /><path clip-path="url(#clip270)" d="M1938.12 1451.02 L1956.47 1451.02 L1956.47 1454.96 L1942.4 1454.96 L1942.4 1463.43 Q1943.42 1463.08 1944.44 1462.92 Q1945.46 1462.73 1946.47 1462.73 Q1952.26 1462.73 1955.64 1465.9 Q1959.02 1469.08 1959.02 1474.49 Q1959.02 1480.07 1955.55 1483.17 Q1952.08 1486.25 1945.76 1486.25 Q1943.58 1486.25 1941.31 1485.88 Q1939.07 1485.51 1936.66 1484.77 L1936.66 1480.07 Q1938.74 1481.2 1940.97 1481.76 Q1943.19 1482.32 1945.66 1482.32 Q1949.67 1482.32 1952.01 1480.21 Q1954.35 1478.1 1954.35 1474.49 Q1954.35 1470.88 1952.01 1468.77 Q1949.67 1466.67 1945.66 1466.67 Q1943.79 1466.67 1941.91 1467.08 Q1940.06 1467.5 1938.12 1468.38 L1938.12 1451.02 Z" fill="#000000" fill-rule="nonzero" fill-opacity="1" /><path clip-path="url(#clip270)" d="M2281.17 1466.95 Q2284.53 1467.66 2286.41 1469.93 Q2288.3 1472.2 2288.3 1475.53 Q2288.3 1480.65 2284.79 1483.45 Q2281.27 1486.25 2274.79 1486.25 Q2272.61 1486.25 2270.3 1485.81 Q2268 1485.39 2265.55 1484.54 L2265.55 1480.02 Q2267.49 1481.16 2269.81 1481.74 Q2272.12 1482.32 2274.65 1482.32 Q2279.05 1482.32 2281.34 1480.58 Q2283.65 1478.84 2283.65 1475.53 Q2283.65 1472.48 2281.5 1470.77 Q2279.37 1469.03 2275.55 1469.03 L2271.52 1469.03 L2271.52 1465.19 L2275.74 1465.19 Q2279.18 1465.19 2281.01 1463.82 Q2282.84 1462.43 2282.84 1459.84 Q2282.84 1457.18 2280.94 1455.77 Q2279.07 1454.33 2275.55 1454.33 Q2273.63 1454.33 2271.43 1454.75 Q2269.23 1455.16 2266.59 1456.04 L2266.59 1451.88 Q2269.25 1451.14 2271.57 1450.77 Q2273.91 1450.39 2275.97 1450.39 Q2281.29 1450.39 2284.39 1452.83 Q2287.49 1455.23 2287.49 1459.35 Q2287.49 1462.22 2285.85 1464.21 Q2284.21 1466.18 2281.17 1466.95 Z" fill="#000000" fill-rule="nonzero" fill-opacity="1" /><path clip-path="url(#clip270)" d="M2307.17 1454.1 Q2303.56 1454.1 2301.73 1457.66 Q2299.92 1461.2 2299.92 1468.33 Q2299.92 1475.44 2301.73 1479.01 Q2303.56 1482.55 2307.17 1482.55 Q2310.8 1482.55 2312.61 1479.01 Q2314.44 1475.44 2314.44 1468.33 Q2314.44 1461.2 2312.61 1457.66 Q2310.8 1454.1 2307.17 1454.1 M2307.17 1450.39 Q2312.98 1450.39 2316.04 1455 Q2319.11 1459.58 2319.11 1468.33 Q2319.11 1477.06 2316.04 1481.67 Q2312.98 1486.25 2307.17 1486.25 Q2301.36 1486.25 2298.28 1481.67 Q2295.23 1477.06 2295.23 1468.33 Q2295.23 1459.58 2298.28 1455 Q2301.36 1450.39 2307.17 1450.39 Z" fill="#000000" fill-rule="nonzero" fill-opacity="1" /><path clip-path="url(#clip270)" d="M1200.1 1546.53 L1200.1 1568.04 L1194.24 1568.04 L1194.24 1546.72 Q1194.24 1541.66 1192.27 1539.14 Q1190.29 1536.63 1186.35 1536.63 Q1181.6 1536.63 1178.87 1539.65 Q1176.13 1542.68 1176.13 1547.9 L1176.13 1568.04 L1170.24 1568.04 L1170.24 1518.52 L1176.13 1518.52 L1176.13 1537.93 Q1178.23 1534.72 1181.06 1533.13 Q1183.93 1531.54 1187.65 1531.54 Q1193.79 1531.54 1196.95 1535.36 Q1200.1 1539.14 1200.1 1546.53 Z" fill="#000000" fill-rule="nonzero" fill-opacity="1" /><path clip-path="url(#clip270)" d="M1225.59 1536.5 Q1220.88 1536.5 1218.14 1540.19 Q1215.41 1543.85 1215.41 1550.25 Q1215.41 1556.65 1218.11 1560.34 Q1220.85 1564 1225.59 1564 Q1230.27 1564 1233.01 1560.31 Q1235.74 1556.62 1235.74 1550.25 Q1235.74 1543.92 1233.01 1540.23 Q1230.27 1536.5 1225.59 1536.5 M1225.59 1531.54 Q1233.23 1531.54 1237.59 1536.5 Q1241.95 1541.47 1241.95 1550.25 Q1241.95 1559 1237.59 1564 Q1233.23 1568.97 1225.59 1568.97 Q1217.92 1568.97 1213.56 1564 Q1209.23 1559 1209.23 1550.25 Q1209.23 1541.47 1213.56 1536.5 Q1217.92 1531.54 1225.59 1531.54 Z" fill="#000000" fill-rule="nonzero" fill-opacity="1" /><path clip-path="url(#clip270)" d="M1272.32 1537.87 Q1271.33 1537.3 1270.15 1537.04 Q1269.01 1536.76 1267.6 1536.76 Q1262.64 1536.76 1259.97 1540 Q1257.32 1543.22 1257.32 1549.27 L1257.32 1568.04 L1251.44 1568.04 L1251.44 1532.4 L1257.32 1532.4 L1257.32 1537.93 Q1259.17 1534.69 1262.13 1533.13 Q1265.09 1531.54 1269.32 1531.54 Q1269.93 1531.54 1270.66 1531.63 Q1271.39 1531.7 1272.28 1531.85 L1272.32 1537.87 Z" fill="#000000" fill-rule="nonzero" fill-opacity="1" /><path clip-path="url(#clip270)" d="M1278.46 1532.4 L1284.31 1532.4 L1284.31 1568.04 L1278.46 1568.04 L1278.46 1532.4 M1278.46 1518.52 L1284.31 1518.52 L1284.31 1525.93 L1278.46 1525.93 L1278.46 1518.52 Z" fill="#000000" fill-rule="nonzero" fill-opacity="1" /><path clip-path="url(#clip270)" d="M1294.02 1532.4 L1321.84 1532.4 L1321.84 1537.74 L1299.82 1563.37 L1321.84 1563.37 L1321.84 1568.04 L1293.23 1568.04 L1293.23 1562.7 L1315.25 1537.07 L1294.02 1537.07 L1294.02 1532.4 Z" fill="#000000" fill-rule="nonzero" fill-opacity="1" /><path clip-path="url(#clip270)" d="M1344.6 1536.5 Q1339.89 1536.5 1337.15 1540.19 Q1334.41 1543.85 1334.41 1550.25 Q1334.41 1556.65 1337.12 1560.34 Q1339.86 1564 1344.6 1564 Q1349.28 1564 1352.01 1560.31 Q1354.75 1556.62 1354.75 1550.25 Q1354.75 1543.92 1352.01 1540.23 Q1349.28 1536.5 1344.6 1536.5 M1344.6 1531.54 Q1352.24 1531.54 1356.6 1536.5 Q1360.96 1541.47 1360.96 1550.25 Q1360.96 1559 1356.6 1564 Q1352.24 1568.97 1344.6 1568.97 Q1336.93 1568.97 1332.57 1564 Q1328.24 1559 1328.24 1550.25 Q1328.24 1541.47 1332.57 1536.5 Q1336.93 1531.54 1344.6 1531.54 Z" fill="#000000" fill-rule="nonzero" fill-opacity="1" /><path clip-path="url(#clip270)" d="M1400.3 1546.53 L1400.3 1568.04 L1394.44 1568.04 L1394.44 1546.72 Q1394.44 1541.66 1392.47 1539.14 Q1390.49 1536.63 1386.55 1536.63 Q1381.81 1536.63 1379.07 1539.65 Q1376.33 1542.68 1376.33 1547.9 L1376.33 1568.04 L1370.44 1568.04 L1370.44 1532.4 L1376.33 1532.4 L1376.33 1537.93 Q1378.43 1534.72 1381.26 1533.13 Q1384.13 1531.54 1387.85 1531.54 Q1394 1531.54 1397.15 1535.36 Q1400.3 1539.14 1400.3 1546.53 Z" fill="#000000" fill-rule="nonzero" fill-opacity="1" /><polyline clip-path="url(#clip272)" style="stroke:#000000; stroke-linecap:round; stroke-linejoin:round; stroke-width:2; stroke-opacity:0.1; fill:none" points="217.783,1209.83 2352.76,1209.83 "/>
<polyline clip-path="url(#clip272)" style="stroke:#000000; stroke-linecap:round; stroke-linejoin:round; stroke-width:2; stroke-opacity:0.1; fill:none" points="217.783,916.807 2352.76,916.807 "/>
<polyline clip-path="url(#clip272)" style="stroke:#000000; stroke-linecap:round; stroke-linejoin:round; stroke-width:2; stroke-opacity:0.1; fill:none" points="217.783,623.785 2352.76,623.785 "/>
<polyline clip-path="url(#clip272)" style="stroke:#000000; stroke-linecap:round; stroke-linejoin:round; stroke-width:2; stroke-opacity:0.1; fill:none" points="217.783,330.763 2352.76,330.763 "/>
<polyline clip-path="url(#clip270)" style="stroke:#000000; stroke-linecap:round; stroke-linejoin:round; stroke-width:4; stroke-opacity:1; fill:none" points="217.783,1423.18 217.783,123.472 "/>
<polyline clip-path="url(#clip270)" style="stroke:#000000; stroke-linecap:round; stroke-linejoin:round; stroke-width:4; stroke-opacity:1; fill:none" points="217.783,1209.83 236.681,1209.83 "/>
<polyline clip-path="url(#clip270)" style="stroke:#000000; stroke-linecap:round; stroke-linejoin:round; stroke-width:4; stroke-opacity:1; fill:none" points="217.783,916.807 236.681,916.807 "/>
<polyline clip-path="url(#clip270)" style="stroke:#000000; stroke-linecap:round; stroke-linejoin:round; stroke-width:4; stroke-opacity:1; fill:none" points="217.783,623.785 236.681,623.785 "/>
<polyline clip-path="url(#clip270)" style="stroke:#000000; stroke-linecap:round; stroke-linejoin:round; stroke-width:4; stroke-opacity:1; fill:none" points="217.783,330.763 236.681,330.763 "/>
<path clip-path="url(#clip270)" d="M117.015 1223.17 L124.654 1223.17 L124.654 1196.81 L116.343 1198.47 L116.343 1194.22 L124.607 1192.55 L129.283 1192.55 L129.283 1223.17 L136.922 1223.17 L136.922 1227.11 L117.015 1227.11 L117.015 1223.17 Z" fill="#000000" fill-rule="nonzero" fill-opacity="1" /><path clip-path="url(#clip270)" d="M146.366 1221.23 L151.251 1221.23 L151.251 1227.11 L146.366 1227.11 L146.366 1221.23 Z" fill="#000000" fill-rule="nonzero" fill-opacity="1" /><path clip-path="url(#clip270)" d="M165.464 1223.17 L181.783 1223.17 L181.783 1227.11 L159.839 1227.11 L159.839 1223.17 Q162.501 1220.42 167.084 1215.79 Q171.69 1211.14 172.871 1209.79 Q175.116 1207.27 175.996 1205.54 Q176.899 1203.78 176.899 1202.09 Q176.899 1199.33 174.954 1197.6 Q173.033 1195.86 169.931 1195.86 Q167.732 1195.86 165.278 1196.62 Q162.848 1197.39 160.07 1198.94 L160.07 1194.22 Q162.894 1193.08 165.348 1192.5 Q167.802 1191.92 169.839 1191.92 Q175.209 1191.92 178.403 1194.61 Q181.598 1197.29 181.598 1201.79 Q181.598 1203.91 180.788 1205.84 Q180.001 1207.73 177.894 1210.33 Q177.315 1211 174.214 1214.22 Q171.112 1217.41 165.464 1223.17 Z" fill="#000000" fill-rule="nonzero" fill-opacity="1" /><path clip-path="url(#clip270)" d="M114.931 930.152 L122.57 930.152 L122.57 903.786 L114.26 905.453 L114.26 901.194 L122.524 899.527 L127.2 899.527 L127.2 930.152 L134.839 930.152 L134.839 934.087 L114.931 934.087 L114.931 930.152 Z" fill="#000000" fill-rule="nonzero" fill-opacity="1" /><path clip-path="url(#clip270)" d="M144.283 928.207 L149.167 928.207 L149.167 934.087 L144.283 934.087 L144.283 928.207 Z" fill="#000000" fill-rule="nonzero" fill-opacity="1" /><path clip-path="url(#clip270)" d="M172.2 903.601 L160.394 922.05 L172.2 922.05 L172.2 903.601 M170.973 899.527 L176.852 899.527 L176.852 922.05 L181.783 922.05 L181.783 925.939 L176.852 925.939 L176.852 934.087 L172.2 934.087 L172.2 925.939 L156.598 925.939 L156.598 921.425 L170.973 899.527 Z" fill="#000000" fill-rule="nonzero" fill-opacity="1" /><path clip-path="url(#clip270)" d="M115.256 637.13 L122.894 637.13 L122.894 610.764 L114.584 612.431 L114.584 608.172 L122.848 606.505 L127.524 606.505 L127.524 637.13 L135.163 637.13 L135.163 641.065 L115.256 641.065 L115.256 637.13 Z" fill="#000000" fill-rule="nonzero" fill-opacity="1" /><path clip-path="url(#clip270)" d="M144.607 635.186 L149.491 635.186 L149.491 641.065 L144.607 641.065 L144.607 635.186 Z" fill="#000000" fill-rule="nonzero" fill-opacity="1" /><path clip-path="url(#clip270)" d="M170.255 621.922 Q167.107 621.922 165.255 624.074 Q163.427 626.227 163.427 629.977 Q163.427 633.704 165.255 635.88 Q167.107 638.033 170.255 638.033 Q173.403 638.033 175.232 635.88 Q177.084 633.704 177.084 629.977 Q177.084 626.227 175.232 624.074 Q173.403 621.922 170.255 621.922 M179.538 607.269 L179.538 611.528 Q177.778 610.695 175.973 610.255 Q174.19 609.815 172.431 609.815 Q167.802 609.815 165.348 612.94 Q162.917 616.065 162.57 622.385 Q163.936 620.371 165.996 619.306 Q168.056 618.218 170.533 618.218 Q175.741 618.218 178.751 621.389 Q181.783 624.537 181.783 629.977 Q181.783 635.301 178.635 638.519 Q175.487 641.736 170.255 641.736 Q164.26 641.736 161.089 637.153 Q157.917 632.547 157.917 623.82 Q157.917 615.625 161.806 610.764 Q165.695 605.88 172.246 605.88 Q174.005 605.88 175.788 606.227 Q177.593 606.575 179.538 607.269 Z" fill="#000000" fill-rule="nonzero" fill-opacity="1" /><path clip-path="url(#clip270)" d="M115.51 344.108 L123.149 344.108 L123.149 317.742 L114.839 319.409 L114.839 315.15 L123.103 313.483 L127.779 313.483 L127.779 344.108 L135.417 344.108 L135.417 348.043 L115.51 348.043 L115.51 344.108 Z" fill="#000000" fill-rule="nonzero" fill-opacity="1" /><path clip-path="url(#clip270)" d="M144.862 342.164 L149.746 342.164 L149.746 348.043 L144.862 348.043 L144.862 342.164 Z" fill="#000000" fill-rule="nonzero" fill-opacity="1" /><path clip-path="url(#clip270)" d="M169.931 331.631 Q166.598 331.631 164.677 333.414 Q162.778 335.196 162.778 338.321 Q162.778 341.446 164.677 343.228 Q166.598 345.011 169.931 345.011 Q173.264 345.011 175.186 343.228 Q177.107 341.423 177.107 338.321 Q177.107 335.196 175.186 333.414 Q173.288 331.631 169.931 331.631 M165.255 329.641 Q162.246 328.9 160.556 326.84 Q158.89 324.779 158.89 321.816 Q158.89 317.673 161.829 315.266 Q164.792 312.858 169.931 312.858 Q175.093 312.858 178.033 315.266 Q180.973 317.673 180.973 321.816 Q180.973 324.779 179.283 326.84 Q177.616 328.9 174.63 329.641 Q178.01 330.428 179.885 332.719 Q181.783 335.011 181.783 338.321 Q181.783 343.344 178.704 346.029 Q175.649 348.714 169.931 348.714 Q164.214 348.714 161.135 346.029 Q158.079 343.344 158.079 338.321 Q158.079 335.011 159.978 332.719 Q161.876 330.428 165.255 329.641 M163.542 322.256 Q163.542 324.941 165.209 326.446 Q166.899 327.951 169.931 327.951 Q172.94 327.951 174.63 326.446 Q176.343 324.941 176.343 322.256 Q176.343 319.571 174.63 318.067 Q172.94 316.562 169.931 316.562 Q166.899 316.562 165.209 318.067 Q163.542 319.571 163.542 322.256 Z" fill="#000000" fill-rule="nonzero" fill-opacity="1" /><path clip-path="url(#clip270)" d="M16.4842 874.557 L16.4842 864.976 L48.8219 852.85 L16.4842 840.659 L16.4842 831.079 L64.0042 831.079 L64.0042 837.349 L22.277 837.349 L54.8694 849.603 L54.8694 856.064 L22.277 868.318 L64.0042 868.318 L64.0042 874.557 L16.4842 874.557 Z" fill="#000000" fill-rule="nonzero" fill-opacity="1" /><path clip-path="url(#clip270)" d="M41.7242 795.781 Q42.4244 793.712 44.7161 791.771 Q47.0077 789.797 51.0181 787.824 L64.0042 781.299 L64.0042 788.206 L51.8138 794.285 Q47.0395 796.64 45.48 798.868 Q43.9204 801.065 43.9204 804.884 L43.9204 811.886 L64.0042 811.886 L64.0042 818.316 L16.4842 818.316 L16.4842 803.802 Q16.4842 795.654 19.8898 791.643 Q23.2955 787.633 30.1704 787.633 Q34.6582 787.633 37.6183 789.734 Q40.5784 791.802 41.7242 795.781 M21.7677 811.886 L38.6368 811.886 L38.6368 803.802 Q38.6368 799.155 36.5043 796.8 Q34.34 794.412 30.1704 794.412 Q26.0009 794.412 23.9002 796.8 Q21.7677 799.155 21.7677 803.802 L21.7677 811.886 Z" fill="#000000" fill-rule="nonzero" fill-opacity="1" /><path clip-path="url(#clip270)" d="M22.818 759.783 L46.4666 768.504 L46.4666 751.03 L22.818 759.783 M16.4842 763.411 L16.4842 756.123 L64.0042 738.012 L64.0042 744.696 L51.8138 749.025 L51.8138 770.446 L64.0042 774.774 L64.0042 781.554 L16.4842 763.411 Z" fill="#000000" fill-rule="nonzero" fill-opacity="1" /><path clip-path="url(#clip270)" d="M16.4842 731.074 L16.4842 701.027 L21.895 701.027 L21.895 724.644 L35.9632 724.644 L35.9632 702.014 L41.3741 702.014 L41.3741 724.644 L58.5933 724.644 L58.5933 700.455 L64.0042 700.455 L64.0042 731.074 L16.4842 731.074 Z" fill="#000000" fill-rule="nonzero" fill-opacity="1" /><path clip-path="url(#clip270)" d="M14.479 672.095 L19.3487 672.095 L19.3487 677.697 Q19.3487 680.848 20.6219 682.089 Q21.895 683.299 25.2052 683.299 L28.3562 683.299 L28.3562 673.655 L32.9077 673.655 L32.9077 683.299 L64.0042 683.299 L64.0042 689.187 L32.9077 689.187 L32.9077 694.789 L28.3562 694.789 L28.3562 689.187 L25.8736 689.187 Q19.9216 689.187 17.2162 686.418 Q14.479 683.649 14.479 677.633 L14.479 672.095 Z" fill="#000000" fill-rule="nonzero" fill-opacity="1" /><path clip-path="url(#clip270)" d="M533.462 12.096 L541.645 12.096 L541.645 65.6895 L571.095 65.6895 L571.095 72.576 L533.462 72.576 L533.462 12.096 Z" fill="#000000" fill-rule="nonzero" fill-opacity="1" /><path clip-path="url(#clip270)" d="M579.359 27.2059 L586.813 27.2059 L586.813 72.576 L579.359 72.576 L579.359 27.2059 M579.359 9.54393 L586.813 9.54393 L586.813 18.9825 L579.359 18.9825 L579.359 9.54393 Z" fill="#000000" fill-rule="nonzero" fill-opacity="1" /><path clip-path="url(#clip270)" d="M640.122 45.1919 L640.122 72.576 L632.669 72.576 L632.669 45.4349 Q632.669 38.994 630.157 35.7938 Q627.646 32.5936 622.623 32.5936 Q616.587 32.5936 613.103 36.4419 Q609.619 40.2903 609.619 46.9338 L609.619 72.576 L602.125 72.576 L602.125 27.2059 L609.619 27.2059 L609.619 34.2544 Q612.293 30.163 615.898 28.1376 Q619.544 26.1121 624.283 26.1121 Q632.102 26.1121 636.112 30.9732 Q640.122 35.7938 640.122 45.1919 Z" fill="#000000" fill-rule="nonzero" fill-opacity="1" /><path clip-path="url(#clip270)" d="M693.797 48.0275 L693.797 51.6733 L659.526 51.6733 Q660.012 59.3701 664.144 63.421 Q668.317 67.4314 675.73 67.4314 Q680.024 67.4314 684.034 66.3781 Q688.085 65.3249 692.055 63.2184 L692.055 70.267 Q688.045 71.9684 683.832 72.8596 Q679.619 73.7508 675.284 73.7508 Q664.428 73.7508 658.068 67.4314 Q651.749 61.1119 651.749 50.3365 Q651.749 39.1965 657.744 32.6746 Q663.78 26.1121 673.988 26.1121 Q683.143 26.1121 688.45 32.0264 Q693.797 37.9003 693.797 48.0275 M686.343 45.84 Q686.262 39.7232 682.9 36.0774 Q679.578 32.4315 674.069 32.4315 Q667.831 32.4315 664.063 35.9558 Q660.336 39.4801 659.769 45.8805 L686.343 45.84 Z" fill="#000000" fill-rule="nonzero" fill-opacity="1" /><path clip-path="url(#clip270)" d="M726.65 49.7694 Q717.616 49.7694 714.132 51.8354 Q710.649 53.9013 710.649 58.8839 Q710.649 62.8538 713.241 65.2034 Q715.874 67.5124 720.371 67.5124 Q726.569 67.5124 730.296 63.1374 Q734.063 58.7219 734.063 51.4303 L734.063 49.7694 L726.65 49.7694 M741.517 46.6907 L741.517 72.576 L734.063 72.576 L734.063 65.6895 Q731.511 69.8214 727.703 71.8063 Q723.895 73.7508 718.386 73.7508 Q711.418 73.7508 707.286 69.8619 Q703.195 65.9325 703.195 59.3701 Q703.195 51.7138 708.299 47.825 Q713.444 43.9361 723.612 43.9361 L734.063 43.9361 L734.063 43.2069 Q734.063 38.0623 730.66 35.2672 Q727.298 32.4315 721.181 32.4315 Q717.292 32.4315 713.606 33.3632 Q709.919 34.295 706.517 36.1584 L706.517 29.2718 Q710.608 27.692 714.457 26.9223 Q718.305 26.1121 721.951 26.1121 Q731.794 26.1121 736.655 31.2163 Q741.517 36.3204 741.517 46.6907 Z" fill="#000000" fill-rule="nonzero" fill-opacity="1" /><path clip-path="url(#clip270)" d="M783.16 34.1734 Q781.904 33.4443 780.405 33.1202 Q778.947 32.7556 777.165 32.7556 Q770.845 32.7556 767.442 36.8875 Q764.08 40.9789 764.08 48.6757 L764.08 72.576 L756.586 72.576 L756.586 27.2059 L764.08 27.2059 L764.08 34.2544 Q766.43 30.1225 770.197 28.1376 Q773.964 26.1121 779.352 26.1121 Q780.122 26.1121 781.053 26.2337 Q781.985 26.3147 783.119 26.5172 L783.16 34.1734 Z" fill="#000000" fill-rule="nonzero" fill-opacity="1" /><path clip-path="url(#clip270)" d="M846.354 44.2197 Q848.987 45.1109 851.458 48.0275 Q853.97 50.9442 856.481 56.0483 L864.786 72.576 L855.995 72.576 L848.258 57.061 Q845.26 50.9847 842.425 48.9997 Q839.629 47.0148 834.768 47.0148 L825.856 47.0148 L825.856 72.576 L817.674 72.576 L817.674 12.096 L836.146 12.096 Q846.516 12.096 851.62 16.4305 Q856.724 20.7649 856.724 29.5149 Q856.724 35.2267 854.051 38.994 Q851.418 42.7613 846.354 44.2197 M825.856 18.8205 L825.856 40.2903 L836.146 40.2903 Q842.06 40.2903 845.058 37.5762 Q848.096 34.8216 848.096 29.5149 Q848.096 24.2082 845.058 21.5346 Q842.06 18.8205 836.146 18.8205 L825.856 18.8205 Z" fill="#000000" fill-rule="nonzero" fill-opacity="1" /><path clip-path="url(#clip270)" d="M910.075 48.0275 L910.075 51.6733 L875.804 51.6733 Q876.29 59.3701 880.422 63.421 Q884.594 67.4314 892.008 67.4314 Q896.302 67.4314 900.312 66.3781 Q904.363 65.3249 908.333 63.2184 L908.333 70.267 Q904.322 71.9684 900.109 72.8596 Q895.897 73.7508 891.562 73.7508 Q880.706 73.7508 874.346 67.4314 Q868.026 61.1119 868.026 50.3365 Q868.026 39.1965 874.022 32.6746 Q880.057 26.1121 890.266 26.1121 Q899.421 26.1121 904.727 32.0264 Q910.075 37.9003 910.075 48.0275 M902.621 45.84 Q902.54 39.7232 899.178 36.0774 Q895.856 32.4315 890.347 32.4315 Q884.108 32.4315 880.341 35.9558 Q876.614 39.4801 876.047 45.8805 L902.621 45.84 Z" fill="#000000" fill-rule="nonzero" fill-opacity="1" /><path clip-path="url(#clip270)" d="M952.164 49.3643 Q952.164 41.2625 948.801 36.8065 Q945.48 32.3505 939.444 32.3505 Q933.448 32.3505 930.086 36.8065 Q926.764 41.2625 926.764 49.3643 Q926.764 57.4256 930.086 61.8816 Q933.448 66.3376 939.444 66.3376 Q945.48 66.3376 948.801 61.8816 Q952.164 57.4256 952.164 49.3643 M959.617 66.9452 Q959.617 78.5308 954.473 84.1616 Q949.328 89.8329 938.715 89.8329 Q934.785 89.8329 931.301 89.2252 Q927.818 88.6581 924.536 87.4428 L924.536 80.1917 Q927.818 81.9741 931.018 82.8248 Q934.218 83.6755 937.54 83.6755 Q944.872 83.6755 948.518 79.8271 Q952.164 76.0193 952.164 68.282 L952.164 64.5957 Q949.855 68.6061 946.249 70.5911 Q942.644 72.576 937.621 72.576 Q929.276 72.576 924.172 66.2161 Q919.068 59.8562 919.068 49.3643 Q919.068 38.832 924.172 32.472 Q929.276 26.1121 937.621 26.1121 Q942.644 26.1121 946.249 28.0971 Q949.855 30.082 952.164 34.0924 L952.164 27.2059 L959.617 27.2059 L959.617 66.9452 Z" fill="#000000" fill-rule="nonzero" fill-opacity="1" /><path clip-path="url(#clip270)" d="M1001.26 34.1734 Q1000 33.4443 998.506 33.1202 Q997.048 32.7556 995.265 32.7556 Q988.946 32.7556 985.543 36.8875 Q982.181 40.9789 982.181 48.6757 L982.181 72.576 L974.687 72.576 L974.687 27.2059 L982.181 27.2059 L982.181 34.2544 Q984.53 30.1225 988.298 28.1376 Q992.065 26.1121 997.453 26.1121 Q998.222 26.1121 999.154 26.2337 Q1000.09 26.3147 1001.22 26.5172 L1001.26 34.1734 Z" fill="#000000" fill-rule="nonzero" fill-opacity="1" /><path clip-path="url(#clip270)" d="M1046.06 48.0275 L1046.06 51.6733 L1011.79 51.6733 Q1012.28 59.3701 1016.41 63.421 Q1020.58 67.4314 1028 67.4314 Q1032.29 67.4314 1036.3 66.3781 Q1040.35 65.3249 1044.32 63.2184 L1044.32 70.267 Q1040.31 71.9684 1036.1 72.8596 Q1031.89 73.7508 1027.55 73.7508 Q1016.69 73.7508 1010.33 67.4314 Q1004.02 61.1119 1004.02 50.3365 Q1004.02 39.1965 1010.01 32.6746 Q1016.05 26.1121 1026.25 26.1121 Q1035.41 26.1121 1040.72 32.0264 Q1046.06 37.9003 1046.06 48.0275 M1038.61 45.84 Q1038.53 39.7232 1035.17 36.0774 Q1031.84 32.4315 1026.34 32.4315 Q1020.1 32.4315 1016.33 35.9558 Q1012.6 39.4801 1012.04 45.8805 L1038.61 45.84 Z" fill="#000000" fill-rule="nonzero" fill-opacity="1" /><path clip-path="url(#clip270)" d="M1087.22 28.5427 L1087.22 35.5912 Q1084.06 33.9709 1080.66 33.1607 Q1077.26 32.3505 1073.61 32.3505 Q1068.06 32.3505 1065.26 34.0519 Q1062.51 35.7533 1062.51 39.156 Q1062.51 41.7486 1064.5 43.2475 Q1066.48 44.7058 1072.48 46.0426 L1075.03 46.6097 Q1082.97 48.3111 1086.29 51.4303 Q1089.65 54.509 1089.65 60.0587 Q1089.65 66.3781 1084.63 70.0644 Q1079.65 73.7508 1070.9 73.7508 Q1067.25 73.7508 1063.28 73.0216 Q1059.35 72.3329 1054.98 70.9151 L1054.98 63.2184 Q1059.11 65.3654 1063.12 66.4591 Q1067.13 67.5124 1071.06 67.5124 Q1076.32 67.5124 1079.16 65.73 Q1082 63.9071 1082 60.6258 Q1082 57.5877 1079.93 55.9673 Q1077.9 54.3469 1070.98 52.8481 L1068.38 52.2405 Q1061.46 50.7821 1058.38 47.7845 Q1055.3 44.7463 1055.3 39.4801 Q1055.3 33.0797 1059.84 29.5959 Q1064.37 26.1121 1072.72 26.1121 Q1076.85 26.1121 1080.5 26.7198 Q1084.14 27.3274 1087.22 28.5427 Z" fill="#000000" fill-rule="nonzero" fill-opacity="1" /><path clip-path="url(#clip270)" d="M1130.44 28.5427 L1130.44 35.5912 Q1127.28 33.9709 1123.88 33.1607 Q1120.48 32.3505 1116.83 32.3505 Q1111.28 32.3505 1108.49 34.0519 Q1105.73 35.7533 1105.73 39.156 Q1105.73 41.7486 1107.72 43.2475 Q1109.7 44.7058 1115.7 46.0426 L1118.25 46.6097 Q1126.19 48.3111 1129.51 51.4303 Q1132.87 54.509 1132.87 60.0587 Q1132.87 66.3781 1127.85 70.0644 Q1122.87 73.7508 1114.12 73.7508 Q1110.47 73.7508 1106.5 73.0216 Q1102.57 72.3329 1098.2 70.9151 L1098.2 63.2184 Q1102.33 65.3654 1106.34 66.4591 Q1110.35 67.5124 1114.28 67.5124 Q1119.55 67.5124 1122.38 65.73 Q1125.22 63.9071 1125.22 60.6258 Q1125.22 57.5877 1123.15 55.9673 Q1121.13 54.3469 1114.2 52.8481 L1111.61 52.2405 Q1104.68 50.7821 1101.6 47.7845 Q1098.52 44.7463 1098.52 39.4801 Q1098.52 33.0797 1103.06 29.5959 Q1107.6 26.1121 1115.94 26.1121 Q1120.07 26.1121 1123.72 26.7198 Q1127.37 27.3274 1130.44 28.5427 Z" fill="#000000" fill-rule="nonzero" fill-opacity="1" /><path clip-path="url(#clip270)" d="M1144.74 27.2059 L1152.2 27.2059 L1152.2 72.576 L1144.74 72.576 L1144.74 27.2059 M1144.74 9.54393 L1152.2 9.54393 L1152.2 18.9825 L1144.74 18.9825 L1144.74 9.54393 Z" fill="#000000" fill-rule="nonzero" fill-opacity="1" /><path clip-path="url(#clip270)" d="M1185.37 32.4315 Q1179.38 32.4315 1175.9 37.1306 Q1172.41 41.7891 1172.41 49.9314 Q1172.41 58.0738 1175.85 62.7728 Q1179.34 67.4314 1185.37 67.4314 Q1191.33 67.4314 1194.81 62.7323 Q1198.3 58.0333 1198.3 49.9314 Q1198.3 41.8701 1194.81 37.1711 Q1191.33 32.4315 1185.37 32.4315 M1185.37 26.1121 Q1195.1 26.1121 1200.65 32.4315 Q1206.2 38.7509 1206.2 49.9314 Q1206.2 61.0714 1200.65 67.4314 Q1195.1 73.7508 1185.37 73.7508 Q1175.61 73.7508 1170.06 67.4314 Q1164.55 61.0714 1164.55 49.9314 Q1164.55 38.7509 1170.06 32.4315 Q1175.61 26.1121 1185.37 26.1121 Z" fill="#000000" fill-rule="nonzero" fill-opacity="1" /><path clip-path="url(#clip270)" d="M1256.26 45.1919 L1256.26 72.576 L1248.81 72.576 L1248.81 45.4349 Q1248.81 38.994 1246.3 35.7938 Q1243.79 32.5936 1238.77 32.5936 Q1232.73 32.5936 1229.25 36.4419 Q1225.76 40.2903 1225.76 46.9338 L1225.76 72.576 L1218.27 72.576 L1218.27 27.2059 L1225.76 27.2059 L1225.76 34.2544 Q1228.44 30.163 1232.04 28.1376 Q1235.69 26.1121 1240.43 26.1121 Q1248.24 26.1121 1252.25 30.9732 Q1256.26 35.7938 1256.26 45.1919 Z" fill="#000000" fill-rule="nonzero" fill-opacity="1" /><path clip-path="url(#clip270)" d="M1273.04 62.2867 L1281.58 62.2867 L1281.58 72.576 L1273.04 72.576 L1273.04 62.2867 M1273.04 29.6769 L1281.58 29.6769 L1281.58 39.9662 L1273.04 39.9662 L1273.04 29.6769 Z" fill="#000000" fill-rule="nonzero" fill-opacity="1" /><path clip-path="url(#clip270)" d="M1325.78 12.096 L1337.97 12.096 L1353.41 53.2532 L1368.92 12.096 L1381.11 12.096 L1381.11 72.576 L1373.13 72.576 L1373.13 19.4686 L1357.54 60.9499 L1349.31 60.9499 L1333.72 19.4686 L1333.72 72.576 L1325.78 72.576 L1325.78 12.096 Z" fill="#000000" fill-rule="nonzero" fill-opacity="1" /><path clip-path="url(#clip270)" d="M1426.04 44.2197 Q1428.67 45.1109 1431.14 48.0275 Q1433.65 50.9442 1436.17 56.0483 L1444.47 72.576 L1435.68 72.576 L1427.94 57.061 Q1424.94 50.9847 1422.11 48.9997 Q1419.31 47.0148 1414.45 47.0148 L1405.54 47.0148 L1405.54 72.576 L1397.36 72.576 L1397.36 12.096 L1415.83 12.096 Q1426.2 12.096 1431.3 16.4305 Q1436.41 20.7649 1436.41 29.5149 Q1436.41 35.2267 1433.74 38.994 Q1431.1 42.7613 1426.04 44.2197 M1405.54 18.8205 L1405.54 40.2903 L1415.83 40.2903 Q1421.74 40.2903 1424.74 37.5762 Q1427.78 34.8216 1427.78 29.5149 Q1427.78 24.2082 1424.74 21.5346 Q1421.74 18.8205 1415.83 18.8205 L1405.54 18.8205 Z" fill="#000000" fill-rule="nonzero" fill-opacity="1" /><path clip-path="url(#clip270)" d="M1471.85 20.1573 L1460.75 50.2555 L1482.99 50.2555 L1471.85 20.1573 M1467.24 12.096 L1476.51 12.096 L1499.56 72.576 L1491.06 72.576 L1485.55 57.061 L1458.28 57.061 L1452.77 72.576 L1444.15 72.576 L1467.24 12.096 Z" fill="#000000" fill-rule="nonzero" fill-opacity="1" /><path clip-path="url(#clip270)" d="M1508.39 12.096 L1546.63 12.096 L1546.63 18.9825 L1516.58 18.9825 L1516.58 36.8875 L1545.38 36.8875 L1545.38 43.7741 L1516.58 43.7741 L1516.58 65.6895 L1547.36 65.6895 L1547.36 72.576 L1508.39 72.576 L1508.39 12.096 Z" fill="#000000" fill-rule="nonzero" fill-opacity="1" /><path clip-path="url(#clip270)" d="M1583.46 9.54393 L1583.46 15.7418 L1576.33 15.7418 Q1572.32 15.7418 1570.74 17.3622 Q1569.2 18.9825 1569.2 23.1955 L1569.2 27.2059 L1581.47 27.2059 L1581.47 32.9987 L1569.2 32.9987 L1569.2 72.576 L1561.7 72.576 L1561.7 32.9987 L1554.57 32.9987 L1554.57 27.2059 L1561.7 27.2059 L1561.7 24.0462 Q1561.7 16.471 1565.23 13.0277 Q1568.75 9.54393 1576.41 9.54393 L1583.46 9.54393 Z" fill="#000000" fill-rule="nonzero" fill-opacity="1" /><path clip-path="url(#clip270)" d="M1610.72 27.2059 L1618.62 27.2059 L1632.8 65.2844 L1646.97 27.2059 L1654.87 27.2059 L1637.86 72.576 L1627.73 72.576 L1610.72 27.2059 Z" fill="#000000" fill-rule="nonzero" fill-opacity="1" /><path clip-path="url(#clip270)" d="M1694.09 28.5427 L1694.09 35.5912 Q1690.93 33.9709 1687.52 33.1607 Q1684.12 32.3505 1680.48 32.3505 Q1674.93 32.3505 1672.13 34.0519 Q1669.38 35.7533 1669.38 39.156 Q1669.38 41.7486 1671.36 43.2475 Q1673.35 44.7058 1679.34 46.0426 L1681.89 46.6097 Q1689.83 48.3111 1693.15 51.4303 Q1696.52 54.509 1696.52 60.0587 Q1696.52 66.3781 1691.49 70.0644 Q1686.51 73.7508 1677.76 73.7508 Q1674.12 73.7508 1670.15 73.0216 Q1666.22 72.3329 1661.84 70.9151 L1661.84 63.2184 Q1665.97 65.3654 1669.98 66.4591 Q1673.99 67.5124 1677.92 67.5124 Q1683.19 67.5124 1686.03 65.73 Q1688.86 63.9071 1688.86 60.6258 Q1688.86 57.5877 1686.8 55.9673 Q1684.77 54.3469 1677.84 52.8481 L1675.25 52.2405 Q1668.32 50.7821 1665.24 47.7845 Q1662.17 44.7463 1662.17 39.4801 Q1662.17 33.0797 1666.7 29.5959 Q1671.24 26.1121 1679.58 26.1121 Q1683.72 26.1121 1687.36 26.7198 Q1691.01 27.3274 1694.09 28.5427 Z" fill="#000000" fill-rule="nonzero" fill-opacity="1" /><path clip-path="url(#clip270)" d="M1735.08 12.096 L1743.26 12.096 L1743.26 36.8875 L1773 36.8875 L1773 12.096 L1781.18 12.096 L1781.18 72.576 L1773 72.576 L1773 43.7741 L1743.26 43.7741 L1743.26 72.576 L1735.08 72.576 L1735.08 12.096 Z" fill="#000000" fill-rule="nonzero" fill-opacity="1" /><path clip-path="url(#clip270)" d="M1814.72 32.4315 Q1808.73 32.4315 1805.24 37.1306 Q1801.76 41.7891 1801.76 49.9314 Q1801.76 58.0738 1805.2 62.7728 Q1808.69 67.4314 1814.72 67.4314 Q1820.68 67.4314 1824.16 62.7323 Q1827.64 58.0333 1827.64 49.9314 Q1827.64 41.8701 1824.16 37.1711 Q1820.68 32.4315 1814.72 32.4315 M1814.72 26.1121 Q1824.44 26.1121 1829.99 32.4315 Q1835.54 38.7509 1835.54 49.9314 Q1835.54 61.0714 1829.99 67.4314 Q1824.44 73.7508 1814.72 73.7508 Q1804.96 73.7508 1799.41 67.4314 Q1793.9 61.0714 1793.9 49.9314 Q1793.9 38.7509 1799.41 32.4315 Q1804.96 26.1121 1814.72 26.1121 Z" fill="#000000" fill-rule="nonzero" fill-opacity="1" /><path clip-path="url(#clip270)" d="M1874.19 34.1734 Q1872.93 33.4443 1871.44 33.1202 Q1869.98 32.7556 1868.19 32.7556 Q1861.88 32.7556 1858.47 36.8875 Q1855.11 40.9789 1855.11 48.6757 L1855.11 72.576 L1847.62 72.576 L1847.62 27.2059 L1855.11 27.2059 L1855.11 34.2544 Q1857.46 30.1225 1861.23 28.1376 Q1864.99 26.1121 1870.38 26.1121 Q1871.15 26.1121 1872.08 26.2337 Q1873.02 26.3147 1874.15 26.5172 L1874.19 34.1734 Z" fill="#000000" fill-rule="nonzero" fill-opacity="1" /><path clip-path="url(#clip270)" d="M1882.01 27.2059 L1889.46 27.2059 L1889.46 72.576 L1882.01 72.576 L1882.01 27.2059 M1882.01 9.54393 L1889.46 9.54393 L1889.46 18.9825 L1882.01 18.9825 L1882.01 9.54393 Z" fill="#000000" fill-rule="nonzero" fill-opacity="1" /><path clip-path="url(#clip270)" d="M1901.82 27.2059 L1937.22 27.2059 L1937.22 34.0114 L1909.19 66.6212 L1937.22 66.6212 L1937.22 72.576 L1900.8 72.576 L1900.8 65.7705 L1928.84 33.1607 L1901.82 33.1607 L1901.82 27.2059 Z" fill="#000000" fill-rule="nonzero" fill-opacity="1" /><path clip-path="url(#clip270)" d="M1966.19 32.4315 Q1960.19 32.4315 1956.71 37.1306 Q1953.22 41.7891 1953.22 49.9314 Q1953.22 58.0738 1956.67 62.7728 Q1960.15 67.4314 1966.19 67.4314 Q1972.14 67.4314 1975.62 62.7323 Q1979.11 58.0333 1979.11 49.9314 Q1979.11 41.8701 1975.62 37.1711 Q1972.14 32.4315 1966.19 32.4315 M1966.19 26.1121 Q1975.91 26.1121 1981.46 32.4315 Q1987.01 38.7509 1987.01 49.9314 Q1987.01 61.0714 1981.46 67.4314 Q1975.91 73.7508 1966.19 73.7508 Q1956.42 73.7508 1950.87 67.4314 Q1945.36 61.0714 1945.36 49.9314 Q1945.36 38.7509 1950.87 32.4315 Q1956.42 26.1121 1966.19 26.1121 Z" fill="#000000" fill-rule="nonzero" fill-opacity="1" /><path clip-path="url(#clip270)" d="M2037.08 45.1919 L2037.08 72.576 L2029.62 72.576 L2029.62 45.4349 Q2029.62 38.994 2027.11 35.7938 Q2024.6 32.5936 2019.58 32.5936 Q2013.54 32.5936 2010.06 36.4419 Q2006.57 40.2903 2006.57 46.9338 L2006.57 72.576 L1999.08 72.576 L1999.08 27.2059 L2006.57 27.2059 L2006.57 34.2544 Q2009.25 30.163 2012.85 28.1376 Q2016.5 26.1121 2021.24 26.1121 Q2029.06 26.1121 2033.07 30.9732 Q2037.08 35.7938 2037.08 45.1919 Z" fill="#000000" fill-rule="nonzero" fill-opacity="1" /><circle clip-path="url(#clip272)" cx="278.207" cy="160.256" r="14.4" fill="#009af9" fill-rule="evenodd" fill-opacity="1" stroke="#000000" stroke-opacity="1" stroke-width="3.2"/>
<circle clip-path="url(#clip272)" cx="494.006" cy="649.409" r="14.4" fill="#009af9" fill-rule="evenodd" fill-opacity="1" stroke="#000000" stroke-opacity="1" stroke-width="3.2"/>
<circle clip-path="url(#clip272)" cx="853.671" cy="824.891" r="14.4" fill="#009af9" fill-rule="evenodd" fill-opacity="1" stroke="#000000" stroke-opacity="1" stroke-width="3.2"/>
<circle clip-path="url(#clip272)" cx="1213.34" cy="1083.39" r="14.4" fill="#009af9" fill-rule="evenodd" fill-opacity="1" stroke="#000000" stroke-opacity="1" stroke-width="3.2"/>
<circle clip-path="url(#clip272)" cx="1573" cy="1261.58" r="14.4" fill="#009af9" fill-rule="evenodd" fill-opacity="1" stroke="#000000" stroke-opacity="1" stroke-width="3.2"/>
<circle clip-path="url(#clip272)" cx="2292.33" cy="1360.96" r="14.4" fill="#009af9" fill-rule="evenodd" fill-opacity="1" stroke="#000000" stroke-opacity="1" stroke-width="3.2"/>
<circle clip-path="url(#clip272)" cx="278.207" cy="445.29" r="14.4" fill="#e26f46" fill-rule="evenodd" fill-opacity="1" stroke="#000000" stroke-opacity="1" stroke-width="3.2"/>
<circle clip-path="url(#clip272)" cx="494.006" cy="854.488" r="14.4" fill="#e26f46" fill-rule="evenodd" fill-opacity="1" stroke="#000000" stroke-opacity="1" stroke-width="3.2"/>
<circle clip-path="url(#clip272)" cx="853.671" cy="1073.38" r="14.4" fill="#e26f46" fill-rule="evenodd" fill-opacity="1" stroke="#000000" stroke-opacity="1" stroke-width="3.2"/>
<circle clip-path="url(#clip272)" cx="1213.34" cy="1221.67" r="14.4" fill="#e26f46" fill-rule="evenodd" fill-opacity="1" stroke="#000000" stroke-opacity="1" stroke-width="3.2"/>
<circle clip-path="url(#clip272)" cx="1573" cy="1318.27" r="14.4" fill="#e26f46" fill-rule="evenodd" fill-opacity="1" stroke="#000000" stroke-opacity="1" stroke-width="3.2"/>
<circle clip-path="url(#clip272)" cx="2292.33" cy="1386.4" r="14.4" fill="#e26f46" fill-rule="evenodd" fill-opacity="1" stroke="#000000" stroke-opacity="1" stroke-width="3.2"/>
<path clip-path="url(#clip270)" d="M1762.84 322.316 L2281.59 322.316 L2281.59 166.796 L1762.84 166.796  Z" fill="#ffffff" fill-rule="evenodd" fill-opacity="1"/>
<polyline clip-path="url(#clip270)" style="stroke:#000000; stroke-linecap:round; stroke-linejoin:round; stroke-width:4; stroke-opacity:1; fill:none" points="1762.84,322.316 2281.59,322.316 2281.59,166.796 1762.84,166.796 1762.84,322.316 "/>
<circle clip-path="url(#clip270)" cx="1857.73" cy="218.636" r="20.48" fill="#009af9" fill-rule="evenodd" fill-opacity="1" stroke="#000000" stroke-opacity="1" stroke-width="4.55111"/>
<path clip-path="url(#clip270)" d="M1960.02 202.629 L1960.02 209.99 L1968.8 209.99 L1968.8 213.3 L1960.02 213.3 L1960.02 227.374 Q1960.02 230.545 1960.88 231.448 Q1961.76 232.351 1964.42 232.351 L1968.8 232.351 L1968.8 235.916 L1964.42 235.916 Q1959.49 235.916 1957.62 234.087 Q1955.74 232.235 1955.74 227.374 L1955.74 213.3 L1952.62 213.3 L1952.62 209.99 L1955.74 209.99 L1955.74 202.629 L1960.02 202.629 Z" fill="#000000" fill-rule="nonzero" fill-opacity="1" /><path clip-path="url(#clip270)" d="M1989.42 213.971 Q1988.7 213.555 1987.85 213.37 Q1987.01 213.161 1985.99 213.161 Q1982.38 213.161 1980.44 215.522 Q1978.52 217.86 1978.52 222.258 L1978.52 235.916 L1974.24 235.916 L1974.24 209.99 L1978.52 209.99 L1978.52 214.018 Q1979.86 211.657 1982.01 210.522 Q1984.17 209.365 1987.24 209.365 Q1987.68 209.365 1988.22 209.434 Q1988.75 209.481 1989.4 209.596 L1989.42 213.971 Z" fill="#000000" fill-rule="nonzero" fill-opacity="1" /><path clip-path="url(#clip270)" d="M2005.67 222.883 Q2000.51 222.883 1998.52 224.064 Q1996.53 225.244 1996.53 228.092 Q1996.53 230.36 1998.01 231.703 Q1999.51 233.022 2002.08 233.022 Q2005.62 233.022 2007.75 230.522 Q2009.91 227.999 2009.91 223.832 L2009.91 222.883 L2005.67 222.883 M2014.17 221.124 L2014.17 235.916 L2009.91 235.916 L2009.91 231.981 Q2008.45 234.342 2006.27 235.476 Q2004.1 236.587 2000.95 236.587 Q1996.97 236.587 1994.61 234.365 Q1992.27 232.119 1992.27 228.369 Q1992.27 223.994 1995.18 221.772 Q1998.12 219.55 2003.93 219.55 L2009.91 219.55 L2009.91 219.133 Q2009.91 216.194 2007.96 214.596 Q2006.04 212.976 2002.55 212.976 Q2000.32 212.976 1998.22 213.508 Q1996.11 214.041 1994.17 215.106 L1994.17 211.17 Q1996.5 210.268 1998.7 209.828 Q2000.9 209.365 2002.99 209.365 Q2008.61 209.365 2011.39 212.282 Q2014.17 215.198 2014.17 221.124 Z" fill="#000000" fill-rule="nonzero" fill-opacity="1" /><path clip-path="url(#clip270)" d="M2022.94 209.99 L2027.2 209.99 L2027.2 235.916 L2022.94 235.916 L2022.94 209.99 M2022.94 199.897 L2027.2 199.897 L2027.2 205.291 L2022.94 205.291 L2022.94 199.897 Z" fill="#000000" fill-rule="nonzero" fill-opacity="1" /><path clip-path="url(#clip270)" d="M2057.66 220.268 L2057.66 235.916 L2053.4 235.916 L2053.4 220.407 Q2053.4 216.726 2051.97 214.897 Q2050.53 213.069 2047.66 213.069 Q2044.21 213.069 2042.22 215.268 Q2040.23 217.467 2040.23 221.263 L2040.23 235.916 L2035.95 235.916 L2035.95 209.99 L2040.23 209.99 L2040.23 214.018 Q2041.76 211.68 2043.82 210.522 Q2045.9 209.365 2048.61 209.365 Q2053.08 209.365 2055.37 212.143 Q2057.66 214.897 2057.66 220.268 Z" fill="#000000" fill-rule="nonzero" fill-opacity="1" /><path clip-path="url(#clip270)" d="M2066.16 209.99 L2070.42 209.99 L2070.42 235.916 L2066.16 235.916 L2066.16 209.99 M2066.16 199.897 L2070.42 199.897 L2070.42 205.291 L2066.16 205.291 L2066.16 199.897 Z" fill="#000000" fill-rule="nonzero" fill-opacity="1" /><path clip-path="url(#clip270)" d="M2100.88 220.268 L2100.88 235.916 L2096.62 235.916 L2096.62 220.407 Q2096.62 216.726 2095.18 214.897 Q2093.75 213.069 2090.88 213.069 Q2087.43 213.069 2085.44 215.268 Q2083.45 217.467 2083.45 221.263 L2083.45 235.916 L2079.17 235.916 L2079.17 209.99 L2083.45 209.99 L2083.45 214.018 Q2084.98 211.68 2087.04 210.522 Q2089.12 209.365 2091.83 209.365 Q2096.3 209.365 2098.59 212.143 Q2100.88 214.897 2100.88 220.268 Z" fill="#000000" fill-rule="nonzero" fill-opacity="1" /><path clip-path="url(#clip270)" d="M2126.43 222.652 Q2126.43 218.022 2124.51 215.476 Q2122.61 212.93 2119.17 212.93 Q2115.74 212.93 2113.82 215.476 Q2111.92 218.022 2111.92 222.652 Q2111.92 227.258 2113.82 229.805 Q2115.74 232.351 2119.17 232.351 Q2122.61 232.351 2124.51 229.805 Q2126.43 227.258 2126.43 222.652 M2130.69 232.698 Q2130.69 239.318 2127.75 242.536 Q2124.81 245.777 2118.75 245.777 Q2116.5 245.777 2114.51 245.43 Q2112.52 245.105 2110.65 244.411 L2110.65 240.268 Q2112.52 241.286 2114.35 241.772 Q2116.18 242.258 2118.08 242.258 Q2122.27 242.258 2124.35 240.059 Q2126.43 237.883 2126.43 233.462 L2126.43 231.356 Q2125.11 233.647 2123.05 234.781 Q2120.99 235.916 2118.12 235.916 Q2113.36 235.916 2110.44 232.281 Q2107.52 228.647 2107.52 222.652 Q2107.52 216.633 2110.44 212.999 Q2113.36 209.365 2118.12 209.365 Q2120.99 209.365 2123.05 210.499 Q2125.11 211.633 2126.43 213.925 L2126.43 209.99 L2130.69 209.99 L2130.69 232.698 Z" fill="#000000" fill-rule="nonzero" fill-opacity="1" /><path clip-path="url(#clip270)" d="M2152.38 221.032 L2164.86 221.032 L2164.86 224.828 L2152.38 224.828 L2152.38 221.032 Z" fill="#000000" fill-rule="nonzero" fill-opacity="1" /><path clip-path="url(#clip270)" d="M2187.36 201.356 L2205.72 201.356 L2205.72 205.291 L2191.64 205.291 L2191.64 213.763 Q2192.66 213.416 2193.68 213.254 Q2194.7 213.069 2195.72 213.069 Q2201.5 213.069 2204.88 216.24 Q2208.26 219.411 2208.26 224.828 Q2208.26 230.406 2204.79 233.508 Q2201.32 236.587 2195 236.587 Q2192.82 236.587 2190.55 236.217 Q2188.31 235.846 2185.9 235.106 L2185.9 230.406 Q2187.98 231.541 2190.21 232.096 Q2192.43 232.652 2194.91 232.652 Q2198.91 232.652 2201.25 230.545 Q2203.59 228.439 2203.59 224.828 Q2203.59 221.217 2201.25 219.11 Q2198.91 217.004 2194.91 217.004 Q2193.03 217.004 2191.16 217.42 Q2189.3 217.837 2187.36 218.717 L2187.36 201.356 Z" fill="#000000" fill-rule="nonzero" fill-opacity="1" /><circle clip-path="url(#clip270)" cx="1857.73" cy="270.476" r="20.48" fill="#e26f46" fill-rule="evenodd" fill-opacity="1" stroke="#000000" stroke-opacity="1" stroke-width="4.55111"/>
<path clip-path="url(#clip270)" d="M1952.62 261.83 L1957.13 261.83 L1965.23 283.589 L1973.33 261.83 L1977.85 261.83 L1968.12 287.756 L1962.34 287.756 L1952.62 261.83 Z" fill="#000000" fill-rule="nonzero" fill-opacity="1" /><path clip-path="url(#clip270)" d="M1995.51 274.723 Q1990.35 274.723 1988.36 275.904 Q1986.37 277.084 1986.37 279.932 Q1986.37 282.2 1987.85 283.543 Q1989.35 284.862 1991.92 284.862 Q1995.46 284.862 1997.59 282.362 Q1999.74 279.839 1999.74 275.672 L1999.74 274.723 L1995.51 274.723 M2004 272.964 L2004 287.756 L1999.74 287.756 L1999.74 283.821 Q1998.29 286.182 1996.11 287.316 Q1993.93 288.427 1990.79 288.427 Q1986.8 288.427 1984.44 286.205 Q1982.11 283.959 1982.11 280.209 Q1982.11 275.834 1985.02 273.612 Q1987.96 271.39 1993.77 271.39 L1999.74 271.39 L1999.74 270.973 Q1999.74 268.034 1997.8 266.436 Q1995.88 264.816 1992.38 264.816 Q1990.16 264.816 1988.05 265.348 Q1985.95 265.881 1984 266.946 L1984 263.01 Q1986.34 262.108 1988.54 261.668 Q1990.74 261.205 1992.82 261.205 Q1998.45 261.205 2001.23 264.122 Q2004 267.038 2004 272.964 Z" fill="#000000" fill-rule="nonzero" fill-opacity="1" /><path clip-path="url(#clip270)" d="M2012.78 251.737 L2017.04 251.737 L2017.04 287.756 L2012.78 287.756 L2012.78 251.737 Z" fill="#000000" fill-rule="nonzero" fill-opacity="1" /><path clip-path="url(#clip270)" d="M2025.95 261.83 L2030.21 261.83 L2030.21 287.756 L2025.95 287.756 L2025.95 261.83 M2025.95 251.737 L2030.21 251.737 L2030.21 257.131 L2025.95 257.131 L2025.95 251.737 Z" fill="#000000" fill-rule="nonzero" fill-opacity="1" /><path clip-path="url(#clip270)" d="M2056.18 265.765 L2056.18 251.737 L2060.44 251.737 L2060.44 287.756 L2056.18 287.756 L2056.18 283.867 Q2054.84 286.182 2052.78 287.316 Q2050.74 288.427 2047.87 288.427 Q2043.17 288.427 2040.21 284.677 Q2037.27 280.927 2037.27 274.816 Q2037.27 268.705 2040.21 264.955 Q2043.17 261.205 2047.87 261.205 Q2050.74 261.205 2052.78 262.339 Q2054.84 263.45 2056.18 265.765 M2041.67 274.816 Q2041.67 279.515 2043.59 282.2 Q2045.53 284.862 2048.91 284.862 Q2052.29 284.862 2054.24 282.2 Q2056.18 279.515 2056.18 274.816 Q2056.18 270.117 2054.24 267.455 Q2052.29 264.77 2048.91 264.77 Q2045.53 264.77 2043.59 267.455 Q2041.67 270.117 2041.67 274.816 Z" fill="#000000" fill-rule="nonzero" fill-opacity="1" /><path clip-path="url(#clip270)" d="M2080.99 274.723 Q2075.83 274.723 2073.84 275.904 Q2071.85 277.084 2071.85 279.932 Q2071.85 282.2 2073.33 283.543 Q2074.84 284.862 2077.41 284.862 Q2080.95 284.862 2083.08 282.362 Q2085.23 279.839 2085.23 275.672 L2085.23 274.723 L2080.99 274.723 M2089.49 272.964 L2089.49 287.756 L2085.23 287.756 L2085.23 283.821 Q2083.77 286.182 2081.6 287.316 Q2079.42 288.427 2076.27 288.427 Q2072.29 288.427 2069.93 286.205 Q2067.59 283.959 2067.59 280.209 Q2067.59 275.834 2070.51 273.612 Q2073.45 271.39 2079.26 271.39 L2085.23 271.39 L2085.23 270.973 Q2085.23 268.034 2083.29 266.436 Q2081.36 264.816 2077.87 264.816 Q2075.65 264.816 2073.54 265.348 Q2071.43 265.881 2069.49 266.946 L2069.49 263.01 Q2071.83 262.108 2074.03 261.668 Q2076.23 261.205 2078.31 261.205 Q2083.93 261.205 2086.71 264.122 Q2089.49 267.038 2089.49 272.964 Z" fill="#000000" fill-rule="nonzero" fill-opacity="1" /><path clip-path="url(#clip270)" d="M2102.48 254.469 L2102.48 261.83 L2111.25 261.83 L2111.25 265.14 L2102.48 265.14 L2102.48 279.214 Q2102.48 282.385 2103.33 283.288 Q2104.21 284.191 2106.87 284.191 L2111.25 284.191 L2111.25 287.756 L2106.87 287.756 Q2101.94 287.756 2100.07 285.927 Q2098.19 284.075 2098.19 279.214 L2098.19 265.14 L2095.07 265.14 L2095.07 261.83 L2098.19 261.83 L2098.19 254.469 L2102.48 254.469 Z" fill="#000000" fill-rule="nonzero" fill-opacity="1" /><path clip-path="url(#clip270)" d="M2116.85 261.83 L2121.11 261.83 L2121.11 287.756 L2116.85 287.756 L2116.85 261.83 M2116.85 251.737 L2121.11 251.737 L2121.11 257.131 L2116.85 257.131 L2116.85 251.737 Z" fill="#000000" fill-rule="nonzero" fill-opacity="1" /><path clip-path="url(#clip270)" d="M2140.07 264.816 Q2136.64 264.816 2134.65 267.501 Q2132.66 270.163 2132.66 274.816 Q2132.66 279.469 2134.63 282.154 Q2136.62 284.816 2140.07 284.816 Q2143.47 284.816 2145.46 282.131 Q2147.45 279.446 2147.45 274.816 Q2147.45 270.21 2145.46 267.524 Q2143.47 264.816 2140.07 264.816 M2140.07 261.205 Q2145.62 261.205 2148.79 264.816 Q2151.97 268.427 2151.97 274.816 Q2151.97 281.182 2148.79 284.816 Q2145.62 288.427 2140.07 288.427 Q2134.49 288.427 2131.32 284.816 Q2128.17 281.182 2128.17 274.816 Q2128.17 268.427 2131.32 264.816 Q2134.49 261.205 2140.07 261.205 Z" fill="#000000" fill-rule="nonzero" fill-opacity="1" /><path clip-path="url(#clip270)" d="M2180.58 272.108 L2180.58 287.756 L2176.32 287.756 L2176.32 272.247 Q2176.32 268.566 2174.88 266.737 Q2173.45 264.909 2170.58 264.909 Q2167.13 264.909 2165.14 267.108 Q2163.15 269.307 2163.15 273.103 L2163.15 287.756 L2158.86 287.756 L2158.86 261.83 L2163.15 261.83 L2163.15 265.858 Q2164.67 263.52 2166.73 262.362 Q2168.82 261.205 2171.53 261.205 Q2175.99 261.205 2178.29 263.983 Q2180.58 266.737 2180.58 272.108 Z" fill="#000000" fill-rule="nonzero" fill-opacity="1" /><path clip-path="url(#clip270)" d="M2201.99 272.872 L2214.47 272.872 L2214.47 276.668 L2201.99 276.668 L2201.99 272.872 Z" fill="#000000" fill-rule="nonzero" fill-opacity="1" /><path clip-path="url(#clip270)" d="M2236.97 253.196 L2255.32 253.196 L2255.32 257.131 L2241.25 257.131 L2241.25 265.603 Q2242.27 265.256 2243.28 265.094 Q2244.3 264.909 2245.32 264.909 Q2251.11 264.909 2254.49 268.08 Q2257.87 271.251 2257.87 276.668 Q2257.87 282.246 2254.4 285.348 Q2250.92 288.427 2244.6 288.427 Q2242.43 288.427 2240.16 288.057 Q2237.91 287.686 2235.51 286.946 L2235.51 282.246 Q2237.59 283.381 2239.81 283.936 Q2242.03 284.492 2244.51 284.492 Q2248.52 284.492 2250.85 282.385 Q2253.19 280.279 2253.19 276.668 Q2253.19 273.057 2250.85 270.95 Q2248.52 268.844 2244.51 268.844 Q2242.64 268.844 2240.76 269.26 Q2238.91 269.677 2236.97 270.557 L2236.97 253.196 Z" fill="#000000" fill-rule="nonzero" fill-opacity="1" /></svg>
