<?xml version="1.0" encoding="utf-8"?>
<svg xmlns="http://www.w3.org/2000/svg" xmlns:xlink="http://www.w3.org/1999/xlink" width="600" height="400" viewBox="0 0 2400 1600">
<defs>
  <clipPath id="clip510">
    <rect x="0" y="0" width="2400" height="1600"/>
  </clipPath>
</defs>
<path clip-path="url(#clip510)" d="M0 1600 L2400 1600 L2400 0 L0 0  Z" fill="#ffffff" fill-rule="evenodd" fill-opacity="1"/>
<defs>
  <clipPath id="clip511">
    <rect x="480" y="0" width="1681" height="1600"/>
  </clipPath>
</defs>
<path clip-path="url(#clip510)" d="M277.621 1423.18 L2352.76 1423.18 L2352.76 123.472 L277.621 123.472  Z" fill="#ffffff" fill-rule="evenodd" fill-opacity="1"/>
<defs>
  <clipPath id="clip512">
    <rect x="277" y="123" width="2076" height="1301"/>
  </clipPath>
</defs>
<polyline clip-path="url(#clip512)" style="stroke:#000000; stroke-linecap:round; stroke-linejoin:round; stroke-width:2; stroke-opacity:0.1; fill:none" points="336.351,1423.18 336.351,123.472 "/>
<polyline clip-path="url(#clip512)" style="stroke:#000000; stroke-linecap:round; stroke-linejoin:round; stroke-width:2; stroke-opacity:0.1; fill:none" points="662.63,1423.18 662.63,123.472 "/>
<polyline clip-path="url(#clip512)" style="stroke:#000000; stroke-linecap:round; stroke-linejoin:round; stroke-width:2; stroke-opacity:0.1; fill:none" points="988.909,1423.18 988.909,123.472 "/>
<polyline clip-path="url(#clip512)" style="stroke:#000000; stroke-linecap:round; stroke-linejoin:round; stroke-width:2; stroke-opacity:0.1; fill:none" points="1315.19,1423.18 1315.19,123.472 "/>
<polyline clip-path="url(#clip512)" style="stroke:#000000; stroke-linecap:round; stroke-linejoin:round; stroke-width:2; stroke-opacity:0.1; fill:none" points="1641.47,1423.18 1641.47,123.472 "/>
<polyline clip-path="url(#clip512)" style="stroke:#000000; stroke-linecap:round; stroke-linejoin:round; stroke-width:2; stroke-opacity:0.1; fill:none" points="1967.75,1423.18 1967.75,123.472 "/>
<polyline clip-path="url(#clip512)" style="stroke:#000000; stroke-linecap:round; stroke-linejoin:round; stroke-width:2; stroke-opacity:0.1; fill:none" points="2294.03,1423.18 2294.03,123.472 "/>
<polyline clip-path="url(#clip512)" style="stroke:#000000; stroke-linecap:round; stroke-linejoin:round; stroke-width:2; stroke-opacity:0.05; fill:none" points="401.607,1423.18 401.607,123.472 "/>
<polyline clip-path="url(#clip512)" style="stroke:#000000; stroke-linecap:round; stroke-linejoin:round; stroke-width:2; stroke-opacity:0.05; fill:none" points="466.862,1423.18 466.862,123.472 "/>
<polyline clip-path="url(#clip512)" style="stroke:#000000; stroke-linecap:round; stroke-linejoin:round; stroke-width:2; stroke-opacity:0.05; fill:none" points="532.118,1423.18 532.118,123.472 "/>
<polyline clip-path="url(#clip512)" style="stroke:#000000; stroke-linecap:round; stroke-linejoin:round; stroke-width:2; stroke-opacity:0.05; fill:none" points="597.374,1423.18 597.374,123.472 "/>
<polyline clip-path="url(#clip512)" style="stroke:#000000; stroke-linecap:round; stroke-linejoin:round; stroke-width:2; stroke-opacity:0.05; fill:none" points="727.886,1423.18 727.886,123.472 "/>
<polyline clip-path="url(#clip512)" style="stroke:#000000; stroke-linecap:round; stroke-linejoin:round; stroke-width:2; stroke-opacity:0.05; fill:none" points="793.142,1423.18 793.142,123.472 "/>
<polyline clip-path="url(#clip512)" style="stroke:#000000; stroke-linecap:round; stroke-linejoin:round; stroke-width:2; stroke-opacity:0.05; fill:none" points="858.397,1423.18 858.397,123.472 "/>
<polyline clip-path="url(#clip512)" style="stroke:#000000; stroke-linecap:round; stroke-linejoin:round; stroke-width:2; stroke-opacity:0.05; fill:none" points="923.653,1423.18 923.653,123.472 "/>
<polyline clip-path="url(#clip512)" style="stroke:#000000; stroke-linecap:round; stroke-linejoin:round; stroke-width:2; stroke-opacity:0.05; fill:none" points="1054.16,1423.18 1054.16,123.472 "/>
<polyline clip-path="url(#clip512)" style="stroke:#000000; stroke-linecap:round; stroke-linejoin:round; stroke-width:2; stroke-opacity:0.05; fill:none" points="1119.42,1423.18 1119.42,123.472 "/>
<polyline clip-path="url(#clip512)" style="stroke:#000000; stroke-linecap:round; stroke-linejoin:round; stroke-width:2; stroke-opacity:0.05; fill:none" points="1184.68,1423.18 1184.68,123.472 "/>
<polyline clip-path="url(#clip512)" style="stroke:#000000; stroke-linecap:round; stroke-linejoin:round; stroke-width:2; stroke-opacity:0.05; fill:none" points="1249.93,1423.18 1249.93,123.472 "/>
<polyline clip-path="url(#clip512)" style="stroke:#000000; stroke-linecap:round; stroke-linejoin:round; stroke-width:2; stroke-opacity:0.05; fill:none" points="1380.44,1423.18 1380.44,123.472 "/>
<polyline clip-path="url(#clip512)" style="stroke:#000000; stroke-linecap:round; stroke-linejoin:round; stroke-width:2; stroke-opacity:0.05; fill:none" points="1445.7,1423.18 1445.7,123.472 "/>
<polyline clip-path="url(#clip512)" style="stroke:#000000; stroke-linecap:round; stroke-linejoin:round; stroke-width:2; stroke-opacity:0.05; fill:none" points="1510.96,1423.18 1510.96,123.472 "/>
<polyline clip-path="url(#clip512)" style="stroke:#000000; stroke-linecap:round; stroke-linejoin:round; stroke-width:2; stroke-opacity:0.05; fill:none" points="1576.21,1423.18 1576.21,123.472 "/>
<polyline clip-path="url(#clip512)" style="stroke:#000000; stroke-linecap:round; stroke-linejoin:round; stroke-width:2; stroke-opacity:0.05; fill:none" points="1706.72,1423.18 1706.72,123.472 "/>
<polyline clip-path="url(#clip512)" style="stroke:#000000; stroke-linecap:round; stroke-linejoin:round; stroke-width:2; stroke-opacity:0.05; fill:none" points="1771.98,1423.18 1771.98,123.472 "/>
<polyline clip-path="url(#clip512)" style="stroke:#000000; stroke-linecap:round; stroke-linejoin:round; stroke-width:2; stroke-opacity:0.05; fill:none" points="1837.23,1423.18 1837.23,123.472 "/>
<polyline clip-path="url(#clip512)" style="stroke:#000000; stroke-linecap:round; stroke-linejoin:round; stroke-width:2; stroke-opacity:0.05; fill:none" points="1902.49,1423.18 1902.49,123.472 "/>
<polyline clip-path="url(#clip512)" style="stroke:#000000; stroke-linecap:round; stroke-linejoin:round; stroke-width:2; stroke-opacity:0.05; fill:none" points="2033,1423.18 2033,123.472 "/>
<polyline clip-path="url(#clip512)" style="stroke:#000000; stroke-linecap:round; stroke-linejoin:round; stroke-width:2; stroke-opacity:0.05; fill:none" points="2098.26,1423.18 2098.26,123.472 "/>
<polyline clip-path="url(#clip512)" style="stroke:#000000; stroke-linecap:round; stroke-linejoin:round; stroke-width:2; stroke-opacity:0.05; fill:none" points="2163.51,1423.18 2163.51,123.472 "/>
<polyline clip-path="url(#clip512)" style="stroke:#000000; stroke-linecap:round; stroke-linejoin:round; stroke-width:2; stroke-opacity:0.05; fill:none" points="2228.77,1423.18 2228.77,123.472 "/>
<polyline clip-path="url(#clip510)" style="stroke:#000000; stroke-linecap:round; stroke-linejoin:round; stroke-width:4; stroke-opacity:1; fill:none" points="277.621,1423.18 2352.76,1423.18 "/>
<polyline clip-path="url(#clip510)" style="stroke:#000000; stroke-linecap:round; stroke-linejoin:round; stroke-width:4; stroke-opacity:1; fill:none" points="336.351,1423.18 336.351,1404.28 "/>
<polyline clip-path="url(#clip510)" style="stroke:#000000; stroke-linecap:round; stroke-linejoin:round; stroke-width:4; stroke-opacity:1; fill:none" points="662.63,1423.18 662.63,1404.28 "/>
<polyline clip-path="url(#clip510)" style="stroke:#000000; stroke-linecap:round; stroke-linejoin:round; stroke-width:4; stroke-opacity:1; fill:none" points="988.909,1423.18 988.909,1404.28 "/>
<polyline clip-path="url(#clip510)" style="stroke:#000000; stroke-linecap:round; stroke-linejoin:round; stroke-width:4; stroke-opacity:1; fill:none" points="1315.19,1423.18 1315.19,1404.28 "/>
<polyline clip-path="url(#clip510)" style="stroke:#000000; stroke-linecap:round; stroke-linejoin:round; stroke-width:4; stroke-opacity:1; fill:none" points="1641.47,1423.18 1641.47,1404.28 "/>
<polyline clip-path="url(#clip510)" style="stroke:#000000; stroke-linecap:round; stroke-linejoin:round; stroke-width:4; stroke-opacity:1; fill:none" points="1967.75,1423.18 1967.75,1404.28 "/>
<polyline clip-path="url(#clip510)" style="stroke:#000000; stroke-linecap:round; stroke-linejoin:round; stroke-width:4; stroke-opacity:1; fill:none" points="2294.03,1423.18 2294.03,1404.28 "/>
<polyline clip-path="url(#clip510)" style="stroke:#000000; stroke-linecap:round; stroke-linejoin:round; stroke-width:4; stroke-opacity:1; fill:none" points="401.607,1423.18 401.607,1413.73 "/>
<polyline clip-path="url(#clip510)" style="stroke:#000000; stroke-linecap:round; stroke-linejoin:round; stroke-width:4; stroke-opacity:1; fill:none" points="466.862,1423.18 466.862,1413.73 "/>
<polyline clip-path="url(#clip510)" style="stroke:#000000; stroke-linecap:round; stroke-linejoin:round; stroke-width:4; stroke-opacity:1; fill:none" points="532.118,1423.18 532.118,1413.73 "/>
<polyline clip-path="url(#clip510)" style="stroke:#000000; stroke-linecap:round; stroke-linejoin:round; stroke-width:4; stroke-opacity:1; fill:none" points="597.374,1423.18 597.374,1413.73 "/>
<polyline clip-path="url(#clip510)" style="stroke:#000000; stroke-linecap:round; stroke-linejoin:round; stroke-width:4; stroke-opacity:1; fill:none" points="727.886,1423.18 727.886,1413.73 "/>
<polyline clip-path="url(#clip510)" style="stroke:#000000; stroke-linecap:round; stroke-linejoin:round; stroke-width:4; stroke-opacity:1; fill:none" points="793.142,1423.18 793.142,1413.73 "/>
<polyline clip-path="url(#clip510)" style="stroke:#000000; stroke-linecap:round; stroke-linejoin:round; stroke-width:4; stroke-opacity:1; fill:none" points="858.397,1423.18 858.397,1413.73 "/>
<polyline clip-path="url(#clip510)" style="stroke:#000000; stroke-linecap:round; stroke-linejoin:round; stroke-width:4; stroke-opacity:1; fill:none" points="923.653,1423.18 923.653,1413.73 "/>
<polyline clip-path="url(#clip510)" style="stroke:#000000; stroke-linecap:round; stroke-linejoin:round; stroke-width:4; stroke-opacity:1; fill:none" points="1054.16,1423.18 1054.16,1413.73 "/>
<polyline clip-path="url(#clip510)" style="stroke:#000000; stroke-linecap:round; stroke-linejoin:round; stroke-width:4; stroke-opacity:1; fill:none" points="1119.42,1423.18 1119.42,1413.73 "/>
<polyline clip-path="url(#clip510)" style="stroke:#000000; stroke-linecap:round; stroke-linejoin:round; stroke-width:4; stroke-opacity:1; fill:none" points="1184.68,1423.18 1184.68,1413.73 "/>
<polyline clip-path="url(#clip510)" style="stroke:#000000; stroke-linecap:round; stroke-linejoin:round; stroke-width:4; stroke-opacity:1; fill:none" points="1249.93,1423.18 1249.93,1413.73 "/>
<polyline clip-path="url(#clip510)" style="stroke:#000000; stroke-linecap:round; stroke-linejoin:round; stroke-width:4; stroke-opacity:1; fill:none" points="1380.44,1423.18 1380.44,1413.73 "/>
<polyline clip-path="url(#clip510)" style="stroke:#000000; stroke-linecap:round; stroke-linejoin:round; stroke-width:4; stroke-opacity:1; fill:none" points="1445.7,1423.18 1445.7,1413.73 "/>
<polyline clip-path="url(#clip510)" style="stroke:#000000; stroke-linecap:round; stroke-linejoin:round; stroke-width:4; stroke-opacity:1; fill:none" points="1510.96,1423.18 1510.96,1413.73 "/>
<polyline clip-path="url(#clip510)" style="stroke:#000000; stroke-linecap:round; stroke-linejoin:round; stroke-width:4; stroke-opacity:1; fill:none" points="1576.21,1423.18 1576.21,1413.73 "/>
<polyline clip-path="url(#clip510)" style="stroke:#000000; stroke-linecap:round; stroke-linejoin:round; stroke-width:4; stroke-opacity:1; fill:none" points="1706.72,1423.18 1706.72,1413.73 "/>
<polyline clip-path="url(#clip510)" style="stroke:#000000; stroke-linecap:round; stroke-linejoin:round; stroke-width:4; stroke-opacity:1; fill:none" points="1771.98,1423.18 1771.98,1413.73 "/>
<polyline clip-path="url(#clip510)" style="stroke:#000000; stroke-linecap:round; stroke-linejoin:round; stroke-width:4; stroke-opacity:1; fill:none" points="1837.23,1423.18 1837.23,1413.73 "/>
<polyline clip-path="url(#clip510)" style="stroke:#000000; stroke-linecap:round; stroke-linejoin:round; stroke-width:4; stroke-opacity:1; fill:none" points="1902.49,1423.18 1902.49,1413.73 "/>
<polyline clip-path="url(#clip510)" style="stroke:#000000; stroke-linecap:round; stroke-linejoin:round; stroke-width:4; stroke-opacity:1; fill:none" points="2033,1423.18 2033,1413.73 "/>
<polyline clip-path="url(#clip510)" style="stroke:#000000; stroke-linecap:round; stroke-linejoin:round; stroke-width:4; stroke-opacity:1; fill:none" points="2098.26,1423.18 2098.26,1413.73 "/>
<polyline clip-path="url(#clip510)" style="stroke:#000000; stroke-linecap:round; stroke-linejoin:round; stroke-width:4; stroke-opacity:1; fill:none" points="2163.51,1423.18 2163.51,1413.73 "/>
<polyline clip-path="url(#clip510)" style="stroke:#000000; stroke-linecap:round; stroke-linejoin:round; stroke-width:4; stroke-opacity:1; fill:none" points="2228.77,1423.18 2228.77,1413.73 "/>
<path clip-path="url(#clip510)" d="M326.733 1481.64 L334.372 1481.64 L334.372 1455.28 L326.062 1456.95 L326.062 1452.69 L334.325 1451.02 L339.001 1451.02 L339.001 1481.64 L346.64 1481.64 L346.64 1485.58 L326.733 1485.58 L326.733 1481.64 Z" fill="#000000" fill-rule="nonzero" fill-opacity="1" /><path clip-path="url(#clip510)" d="M657.283 1481.64 L673.602 1481.64 L673.602 1485.58 L651.658 1485.58 L651.658 1481.64 Q654.32 1478.89 658.903 1474.26 Q663.51 1469.61 664.69 1468.27 Q666.936 1465.74 667.815 1464.01 Q668.718 1462.25 668.718 1460.56 Q668.718 1457.8 666.773 1456.07 Q664.852 1454.33 661.75 1454.33 Q659.551 1454.33 657.098 1455.09 Q654.667 1455.86 651.889 1457.41 L651.889 1452.69 Q654.713 1451.55 657.167 1450.97 Q659.621 1450.39 661.658 1450.39 Q667.028 1450.39 670.223 1453.08 Q673.417 1455.77 673.417 1460.26 Q673.417 1462.39 672.607 1464.31 Q671.82 1466.2 669.713 1468.8 Q669.135 1469.47 666.033 1472.69 Q662.931 1475.88 657.283 1481.64 Z" fill="#000000" fill-rule="nonzero" fill-opacity="1" /><path clip-path="url(#clip510)" d="M993.157 1466.95 Q996.513 1467.66 998.388 1469.93 Q1000.29 1472.2 1000.29 1475.53 Q1000.29 1480.65 996.768 1483.45 Q993.249 1486.25 986.768 1486.25 Q984.592 1486.25 982.277 1485.81 Q979.986 1485.39 977.532 1484.54 L977.532 1480.02 Q979.476 1481.16 981.791 1481.74 Q984.106 1482.32 986.629 1482.32 Q991.027 1482.32 993.319 1480.58 Q995.634 1478.84 995.634 1475.53 Q995.634 1472.48 993.481 1470.77 Q991.351 1469.03 987.532 1469.03 L983.504 1469.03 L983.504 1465.19 L987.717 1465.19 Q991.166 1465.19 992.995 1463.82 Q994.823 1462.43 994.823 1459.84 Q994.823 1457.18 992.925 1455.77 Q991.05 1454.33 987.532 1454.33 Q985.611 1454.33 983.411 1454.75 Q981.212 1455.16 978.574 1456.04 L978.574 1451.88 Q981.236 1451.14 983.55 1450.77 Q985.888 1450.39 987.948 1450.39 Q993.273 1450.39 996.374 1452.83 Q999.476 1455.23 999.476 1459.35 Q999.476 1462.22 997.833 1464.21 Q996.189 1466.18 993.157 1466.95 Z" fill="#000000" fill-rule="nonzero" fill-opacity="1" /><path clip-path="url(#clip510)" d="M1318.2 1455.09 L1306.39 1473.54 L1318.2 1473.54 L1318.2 1455.09 M1316.97 1451.02 L1322.85 1451.02 L1322.85 1473.54 L1327.78 1473.54 L1327.78 1477.43 L1322.85 1477.43 L1322.85 1485.58 L1318.2 1485.58 L1318.2 1477.43 L1302.6 1477.43 L1302.6 1472.92 L1316.97 1451.02 Z" fill="#000000" fill-rule="nonzero" fill-opacity="1" /><path clip-path="url(#clip510)" d="M1631.75 1451.02 L1650.1 1451.02 L1650.1 1454.96 L1636.03 1454.96 L1636.03 1463.43 Q1637.05 1463.08 1638.06 1462.92 Q1639.08 1462.73 1640.1 1462.73 Q1645.89 1462.73 1649.27 1465.9 Q1652.65 1469.08 1652.65 1474.49 Q1652.65 1480.07 1649.18 1483.17 Q1645.7 1486.25 1639.38 1486.25 Q1637.21 1486.25 1634.94 1485.88 Q1632.69 1485.51 1630.29 1484.77 L1630.29 1480.07 Q1632.37 1481.2 1634.59 1481.76 Q1636.81 1482.32 1639.29 1482.32 Q1643.3 1482.32 1645.63 1480.21 Q1647.97 1478.1 1647.97 1474.49 Q1647.97 1470.88 1645.63 1468.77 Q1643.3 1466.67 1639.29 1466.67 Q1637.42 1466.67 1635.54 1467.08 Q1633.69 1467.5 1631.75 1468.38 L1631.75 1451.02 Z" fill="#000000" fill-rule="nonzero" fill-opacity="1" /><path clip-path="url(#clip510)" d="M1968.15 1466.44 Q1965 1466.44 1963.15 1468.59 Q1961.32 1470.74 1961.32 1474.49 Q1961.32 1478.22 1963.15 1480.39 Q1965 1482.55 1968.15 1482.55 Q1971.3 1482.55 1973.13 1480.39 Q1974.98 1478.22 1974.98 1474.49 Q1974.98 1470.74 1973.13 1468.59 Q1971.3 1466.44 1968.15 1466.44 M1977.43 1451.78 L1977.43 1456.04 Q1975.67 1455.21 1973.87 1454.77 Q1972.09 1454.33 1970.33 1454.33 Q1965.7 1454.33 1963.24 1457.45 Q1960.81 1460.58 1960.47 1466.9 Q1961.83 1464.89 1963.89 1463.82 Q1965.95 1462.73 1968.43 1462.73 Q1973.64 1462.73 1976.65 1465.9 Q1979.68 1469.05 1979.68 1474.49 Q1979.68 1479.82 1976.53 1483.03 Q1973.38 1486.25 1968.15 1486.25 Q1962.16 1486.25 1958.98 1481.67 Q1955.81 1477.06 1955.81 1468.33 Q1955.81 1460.14 1959.7 1455.28 Q1963.59 1450.39 1970.14 1450.39 Q1971.9 1450.39 1973.68 1450.74 Q1975.49 1451.09 1977.43 1451.78 Z" fill="#000000" fill-rule="nonzero" fill-opacity="1" /><path clip-path="url(#clip510)" d="M2282.91 1451.02 L2305.14 1451.02 L2305.14 1453.01 L2292.59 1485.58 L2287.71 1485.58 L2299.51 1454.96 L2282.91 1454.96 L2282.91 1451.02 Z" fill="#000000" fill-rule="nonzero" fill-opacity="1" /><path clip-path="url(#clip510)" d="M1134.74 1525.81 L1134.74 1562.76 L1142.5 1562.76 Q1152.34 1562.76 1156.89 1558.3 Q1161.47 1553.85 1161.47 1544.24 Q1161.47 1534.69 1156.89 1530.26 Q1152.34 1525.81 1142.5 1525.81 L1134.74 1525.81 M1128.31 1520.52 L1141.52 1520.52 Q1155.33 1520.52 1161.79 1526.28 Q1168.25 1532.01 1168.25 1544.24 Q1168.25 1556.52 1161.76 1562.28 Q1155.27 1568.04 1141.52 1568.04 L1128.31 1568.04 L1128.31 1520.52 Z" fill="#000000" fill-rule="nonzero" fill-opacity="1" /><path clip-path="url(#clip510)" d="M1194.45 1550.12 Q1187.35 1550.12 1184.61 1551.75 Q1181.87 1553.37 1181.87 1557.29 Q1181.87 1560.4 1183.91 1562.25 Q1185.98 1564.07 1189.51 1564.07 Q1194.38 1564.07 1197.31 1560.63 Q1200.27 1557.16 1200.27 1551.43 L1200.27 1550.12 L1194.45 1550.12 M1206.13 1547.71 L1206.13 1568.04 L1200.27 1568.04 L1200.27 1562.63 Q1198.27 1565.88 1195.27 1567.44 Q1192.28 1568.97 1187.95 1568.97 Q1182.48 1568.97 1179.23 1565.91 Q1176.02 1562.82 1176.02 1557.67 Q1176.02 1551.65 1180.03 1548.6 Q1184.07 1545.54 1192.06 1545.54 L1200.27 1545.54 L1200.27 1544.97 Q1200.27 1540.93 1197.6 1538.73 Q1194.96 1536.5 1190.15 1536.5 Q1187.09 1536.5 1184.2 1537.23 Q1181.3 1537.97 1178.63 1539.43 L1178.63 1534.02 Q1181.84 1532.78 1184.87 1532.17 Q1187.89 1531.54 1190.75 1531.54 Q1198.49 1531.54 1202.31 1535.55 Q1206.13 1539.56 1206.13 1547.71 Z" fill="#000000" fill-rule="nonzero" fill-opacity="1" /><path clip-path="url(#clip510)" d="M1233.02 1571.35 Q1230.54 1577.72 1228.18 1579.66 Q1225.83 1581.6 1221.88 1581.6 L1217.2 1581.6 L1217.2 1576.7 L1220.64 1576.7 Q1223.06 1576.7 1224.4 1575.56 Q1225.73 1574.41 1227.36 1570.14 L1228.41 1567.47 L1213.99 1532.4 L1220.2 1532.4 L1231.34 1560.28 L1242.48 1532.4 L1248.68 1532.4 L1233.02 1571.35 Z" fill="#000000" fill-rule="nonzero" fill-opacity="1" /><path clip-path="url(#clip510)" d="M1279.49 1533.45 L1279.49 1538.98 Q1277.01 1537.71 1274.34 1537.07 Q1271.66 1536.44 1268.8 1536.44 Q1264.44 1536.44 1262.24 1537.77 Q1260.08 1539.11 1260.08 1541.79 Q1260.08 1543.82 1261.64 1545 Q1263.2 1546.15 1267.91 1547.2 L1269.91 1547.64 Q1276.15 1548.98 1278.76 1551.43 Q1281.4 1553.85 1281.4 1558.21 Q1281.4 1563.17 1277.46 1566.07 Q1273.54 1568.97 1266.67 1568.97 Q1263.8 1568.97 1260.68 1568.39 Q1257.59 1567.85 1254.16 1566.74 L1254.16 1560.69 Q1257.4 1562.38 1260.55 1563.24 Q1263.71 1564.07 1266.79 1564.07 Q1270.93 1564.07 1273.16 1562.66 Q1275.39 1561.23 1275.39 1558.65 Q1275.39 1556.27 1273.76 1554.99 Q1272.17 1553.72 1266.73 1552.54 L1264.69 1552.07 Q1259.25 1550.92 1256.83 1548.56 Q1254.41 1546.18 1254.41 1542.04 Q1254.41 1537.01 1257.98 1534.27 Q1261.54 1531.54 1268.1 1531.54 Q1271.34 1531.54 1274.21 1532.01 Q1277.07 1532.49 1279.49 1533.45 Z" fill="#000000" fill-rule="nonzero" fill-opacity="1" /><path clip-path="url(#clip510)" d="M1327.65 1550.12 Q1320.55 1550.12 1317.81 1551.75 Q1315.08 1553.37 1315.08 1557.29 Q1315.08 1560.4 1317.11 1562.25 Q1319.18 1564.07 1322.72 1564.07 Q1327.59 1564.07 1330.51 1560.63 Q1333.47 1557.16 1333.47 1551.43 L1333.47 1550.12 L1327.65 1550.12 M1339.33 1547.71 L1339.33 1568.04 L1333.47 1568.04 L1333.47 1562.63 Q1331.47 1565.88 1328.48 1567.44 Q1325.48 1568.97 1321.16 1568.97 Q1315.68 1568.97 1312.44 1565.91 Q1309.22 1562.82 1309.22 1557.67 Q1309.22 1551.65 1313.23 1548.6 Q1317.27 1545.54 1325.26 1545.54 L1333.47 1545.54 L1333.47 1544.97 Q1333.47 1540.93 1330.8 1538.73 Q1328.16 1536.5 1323.35 1536.5 Q1320.3 1536.5 1317.4 1537.23 Q1314.5 1537.97 1311.83 1539.43 L1311.83 1534.02 Q1315.05 1532.78 1318.07 1532.17 Q1321.09 1531.54 1323.96 1531.54 Q1331.69 1531.54 1335.51 1535.55 Q1339.33 1539.56 1339.33 1547.71 Z" fill="#000000" fill-rule="nonzero" fill-opacity="1" /><path clip-path="url(#clip510)" d="M1381.03 1546.53 L1381.03 1568.04 L1375.17 1568.04 L1375.17 1546.72 Q1375.17 1541.66 1373.2 1539.14 Q1371.22 1536.63 1367.28 1536.63 Q1362.53 1536.63 1359.8 1539.65 Q1357.06 1542.68 1357.06 1547.9 L1357.06 1568.04 L1351.17 1568.04 L1351.17 1518.52 L1357.06 1518.52 L1357.06 1537.93 Q1359.16 1534.72 1361.99 1533.13 Q1364.86 1531.54 1368.58 1531.54 Q1374.72 1531.54 1377.87 1535.36 Q1381.03 1539.14 1381.03 1546.53 Z" fill="#000000" fill-rule="nonzero" fill-opacity="1" /><path clip-path="url(#clip510)" d="M1423.2 1548.76 L1423.2 1551.62 L1396.27 1551.62 Q1396.65 1557.67 1399.9 1560.85 Q1403.18 1564 1409 1564 Q1412.38 1564 1415.53 1563.17 Q1418.71 1562.35 1421.83 1560.69 L1421.83 1566.23 Q1418.68 1567.57 1415.37 1568.27 Q1412.06 1568.97 1408.65 1568.97 Q1400.12 1568.97 1395.13 1564 Q1390.16 1559.04 1390.16 1550.57 Q1390.16 1541.82 1394.87 1536.69 Q1399.61 1531.54 1407.63 1531.54 Q1414.83 1531.54 1419 1536.18 Q1423.2 1540.8 1423.2 1548.76 M1417.34 1547.04 Q1417.28 1542.23 1414.64 1539.37 Q1412.03 1536.5 1407.7 1536.5 Q1402.8 1536.5 1399.84 1539.27 Q1396.91 1542.04 1396.46 1547.07 L1417.34 1547.04 Z" fill="#000000" fill-rule="nonzero" fill-opacity="1" /><path clip-path="url(#clip510)" d="M1449.01 1550.12 Q1441.91 1550.12 1439.18 1551.75 Q1436.44 1553.37 1436.44 1557.29 Q1436.44 1560.4 1438.48 1562.25 Q1440.54 1564.07 1444.08 1564.07 Q1448.95 1564.07 1451.88 1560.63 Q1454.84 1557.16 1454.84 1551.43 L1454.84 1550.12 L1449.01 1550.12 M1460.69 1547.71 L1460.69 1568.04 L1454.84 1568.04 L1454.84 1562.63 Q1452.83 1565.88 1449.84 1567.44 Q1446.85 1568.97 1442.52 1568.97 Q1437.04 1568.97 1433.8 1565.91 Q1430.58 1562.82 1430.58 1557.67 Q1430.58 1551.65 1434.59 1548.6 Q1438.64 1545.54 1446.62 1545.54 L1454.84 1545.54 L1454.84 1544.97 Q1454.84 1540.93 1452.16 1538.73 Q1449.52 1536.5 1444.71 1536.5 Q1441.66 1536.5 1438.76 1537.23 Q1435.87 1537.97 1433.19 1539.43 L1433.19 1534.02 Q1436.41 1532.78 1439.43 1532.17 Q1442.45 1531.54 1445.32 1531.54 Q1453.05 1531.54 1456.87 1535.55 Q1460.69 1539.56 1460.69 1547.71 Z" fill="#000000" fill-rule="nonzero" fill-opacity="1" /><path clip-path="url(#clip510)" d="M1496.21 1537.81 L1496.21 1518.52 L1502.07 1518.52 L1502.07 1568.04 L1496.21 1568.04 L1496.21 1562.7 Q1494.37 1565.88 1491.53 1567.44 Q1488.73 1568.97 1484.79 1568.97 Q1478.33 1568.97 1474.25 1563.81 Q1470.21 1558.65 1470.21 1550.25 Q1470.21 1541.85 1474.25 1536.69 Q1478.33 1531.54 1484.79 1531.54 Q1488.73 1531.54 1491.53 1533.1 Q1494.37 1534.62 1496.21 1537.81 M1476.26 1550.25 Q1476.26 1556.71 1478.9 1560.4 Q1481.57 1564.07 1486.22 1564.07 Q1490.87 1564.07 1493.54 1560.4 Q1496.21 1556.71 1496.21 1550.25 Q1496.21 1543.79 1493.54 1540.13 Q1490.87 1536.44 1486.22 1536.44 Q1481.57 1536.44 1478.9 1540.13 Q1476.26 1543.79 1476.26 1550.25 Z" fill="#000000" fill-rule="nonzero" fill-opacity="1" /><polyline clip-path="url(#clip512)" style="stroke:#000000; stroke-linecap:round; stroke-linejoin:round; stroke-width:2; stroke-opacity:0.1; fill:none" points="277.621,1297.65 2352.76,1297.65 "/>
<polyline clip-path="url(#clip512)" style="stroke:#000000; stroke-linecap:round; stroke-linejoin:round; stroke-width:2; stroke-opacity:0.1; fill:none" points="277.621,1004.63 2352.76,1004.63 "/>
<polyline clip-path="url(#clip512)" style="stroke:#000000; stroke-linecap:round; stroke-linejoin:round; stroke-width:2; stroke-opacity:0.1; fill:none" points="277.621,711.606 2352.76,711.606 "/>
<polyline clip-path="url(#clip512)" style="stroke:#000000; stroke-linecap:round; stroke-linejoin:round; stroke-width:2; stroke-opacity:0.1; fill:none" points="277.621,418.584 2352.76,418.584 "/>
<polyline clip-path="url(#clip512)" style="stroke:#000000; stroke-linecap:round; stroke-linejoin:round; stroke-width:2; stroke-opacity:0.1; fill:none" points="277.621,125.561 2352.76,125.561 "/>
<polyline clip-path="url(#clip512)" style="stroke:#000000; stroke-linecap:round; stroke-linejoin:round; stroke-width:2; stroke-opacity:0.05; fill:none" points="277.621,1414.86 2352.76,1414.86 "/>
<polyline clip-path="url(#clip512)" style="stroke:#000000; stroke-linecap:round; stroke-linejoin:round; stroke-width:2; stroke-opacity:0.05; fill:none" points="277.621,1356.26 2352.76,1356.26 "/>
<polyline clip-path="url(#clip512)" style="stroke:#000000; stroke-linecap:round; stroke-linejoin:round; stroke-width:2; stroke-opacity:0.05; fill:none" points="277.621,1239.05 2352.76,1239.05 "/>
<polyline clip-path="url(#clip512)" style="stroke:#000000; stroke-linecap:round; stroke-linejoin:round; stroke-width:2; stroke-opacity:0.05; fill:none" points="277.621,1180.44 2352.76,1180.44 "/>
<polyline clip-path="url(#clip512)" style="stroke:#000000; stroke-linecap:round; stroke-linejoin:round; stroke-width:2; stroke-opacity:0.05; fill:none" points="277.621,1121.84 2352.76,1121.84 "/>
<polyline clip-path="url(#clip512)" style="stroke:#000000; stroke-linecap:round; stroke-linejoin:round; stroke-width:2; stroke-opacity:0.05; fill:none" points="277.621,1063.23 2352.76,1063.23 "/>
<polyline clip-path="url(#clip512)" style="stroke:#000000; stroke-linecap:round; stroke-linejoin:round; stroke-width:2; stroke-opacity:0.05; fill:none" points="277.621,946.024 2352.76,946.024 "/>
<polyline clip-path="url(#clip512)" style="stroke:#000000; stroke-linecap:round; stroke-linejoin:round; stroke-width:2; stroke-opacity:0.05; fill:none" points="277.621,887.42 2352.76,887.42 "/>
<polyline clip-path="url(#clip512)" style="stroke:#000000; stroke-linecap:round; stroke-linejoin:round; stroke-width:2; stroke-opacity:0.05; fill:none" points="277.621,828.815 2352.76,828.815 "/>
<polyline clip-path="url(#clip512)" style="stroke:#000000; stroke-linecap:round; stroke-linejoin:round; stroke-width:2; stroke-opacity:0.05; fill:none" points="277.621,770.211 2352.76,770.211 "/>
<polyline clip-path="url(#clip512)" style="stroke:#000000; stroke-linecap:round; stroke-linejoin:round; stroke-width:2; stroke-opacity:0.05; fill:none" points="277.621,653.002 2352.76,653.002 "/>
<polyline clip-path="url(#clip512)" style="stroke:#000000; stroke-linecap:round; stroke-linejoin:round; stroke-width:2; stroke-opacity:0.05; fill:none" points="277.621,594.397 2352.76,594.397 "/>
<polyline clip-path="url(#clip512)" style="stroke:#000000; stroke-linecap:round; stroke-linejoin:round; stroke-width:2; stroke-opacity:0.05; fill:none" points="277.621,535.793 2352.76,535.793 "/>
<polyline clip-path="url(#clip512)" style="stroke:#000000; stroke-linecap:round; stroke-linejoin:round; stroke-width:2; stroke-opacity:0.05; fill:none" points="277.621,477.188 2352.76,477.188 "/>
<polyline clip-path="url(#clip512)" style="stroke:#000000; stroke-linecap:round; stroke-linejoin:round; stroke-width:2; stroke-opacity:0.05; fill:none" points="277.621,359.979 2352.76,359.979 "/>
<polyline clip-path="url(#clip512)" style="stroke:#000000; stroke-linecap:round; stroke-linejoin:round; stroke-width:2; stroke-opacity:0.05; fill:none" points="277.621,301.375 2352.76,301.375 "/>
<polyline clip-path="url(#clip512)" style="stroke:#000000; stroke-linecap:round; stroke-linejoin:round; stroke-width:2; stroke-opacity:0.05; fill:none" points="277.621,242.77 2352.76,242.77 "/>
<polyline clip-path="url(#clip512)" style="stroke:#000000; stroke-linecap:round; stroke-linejoin:round; stroke-width:2; stroke-opacity:0.05; fill:none" points="277.621,184.166 2352.76,184.166 "/>
<polyline clip-path="url(#clip510)" style="stroke:#000000; stroke-linecap:round; stroke-linejoin:round; stroke-width:4; stroke-opacity:1; fill:none" points="277.621,1423.18 277.621,123.472 "/>
<polyline clip-path="url(#clip510)" style="stroke:#000000; stroke-linecap:round; stroke-linejoin:round; stroke-width:4; stroke-opacity:1; fill:none" points="277.621,1297.65 296.518,1297.65 "/>
<polyline clip-path="url(#clip510)" style="stroke:#000000; stroke-linecap:round; stroke-linejoin:round; stroke-width:4; stroke-opacity:1; fill:none" points="277.621,1004.63 296.518,1004.63 "/>
<polyline clip-path="url(#clip510)" style="stroke:#000000; stroke-linecap:round; stroke-linejoin:round; stroke-width:4; stroke-opacity:1; fill:none" points="277.621,711.606 296.518,711.606 "/>
<polyline clip-path="url(#clip510)" style="stroke:#000000; stroke-linecap:round; stroke-linejoin:round; stroke-width:4; stroke-opacity:1; fill:none" points="277.621,418.584 296.518,418.584 "/>
<polyline clip-path="url(#clip510)" style="stroke:#000000; stroke-linecap:round; stroke-linejoin:round; stroke-width:4; stroke-opacity:1; fill:none" points="277.621,125.561 296.518,125.561 "/>
<polyline clip-path="url(#clip510)" style="stroke:#000000; stroke-linecap:round; stroke-linejoin:round; stroke-width:4; stroke-opacity:1; fill:none" points="277.621,1414.86 287.069,1414.86 "/>
<polyline clip-path="url(#clip510)" style="stroke:#000000; stroke-linecap:round; stroke-linejoin:round; stroke-width:4; stroke-opacity:1; fill:none" points="277.621,1356.26 287.069,1356.26 "/>
<polyline clip-path="url(#clip510)" style="stroke:#000000; stroke-linecap:round; stroke-linejoin:round; stroke-width:4; stroke-opacity:1; fill:none" points="277.621,1239.05 287.069,1239.05 "/>
<polyline clip-path="url(#clip510)" style="stroke:#000000; stroke-linecap:round; stroke-linejoin:round; stroke-width:4; stroke-opacity:1; fill:none" points="277.621,1180.44 287.069,1180.44 "/>
<polyline clip-path="url(#clip510)" style="stroke:#000000; stroke-linecap:round; stroke-linejoin:round; stroke-width:4; stroke-opacity:1; fill:none" points="277.621,1121.84 287.069,1121.84 "/>
<polyline clip-path="url(#clip510)" style="stroke:#000000; stroke-linecap:round; stroke-linejoin:round; stroke-width:4; stroke-opacity:1; fill:none" points="277.621,1063.23 287.069,1063.23 "/>
<polyline clip-path="url(#clip510)" style="stroke:#000000; stroke-linecap:round; stroke-linejoin:round; stroke-width:4; stroke-opacity:1; fill:none" points="277.621,946.024 287.069,946.024 "/>
<polyline clip-path="url(#clip510)" style="stroke:#000000; stroke-linecap:round; stroke-linejoin:round; stroke-width:4; stroke-opacity:1; fill:none" points="277.621,887.42 287.069,887.42 "/>
<polyline clip-path="url(#clip510)" style="stroke:#000000; stroke-linecap:round; stroke-linejoin:round; stroke-width:4; stroke-opacity:1; fill:none" points="277.621,828.815 287.069,828.815 "/>
<polyline clip-path="url(#clip510)" style="stroke:#000000; stroke-linecap:round; stroke-linejoin:round; stroke-width:4; stroke-opacity:1; fill:none" points="277.621,770.211 287.069,770.211 "/>
<polyline clip-path="url(#clip510)" style="stroke:#000000; stroke-linecap:round; stroke-linejoin:round; stroke-width:4; stroke-opacity:1; fill:none" points="277.621,653.002 287.069,653.002 "/>
<polyline clip-path="url(#clip510)" style="stroke:#000000; stroke-linecap:round; stroke-linejoin:round; stroke-width:4; stroke-opacity:1; fill:none" points="277.621,594.397 287.069,594.397 "/>
<polyline clip-path="url(#clip510)" style="stroke:#000000; stroke-linecap:round; stroke-linejoin:round; stroke-width:4; stroke-opacity:1; fill:none" points="277.621,535.793 287.069,535.793 "/>
<polyline clip-path="url(#clip510)" style="stroke:#000000; stroke-linecap:round; stroke-linejoin:round; stroke-width:4; stroke-opacity:1; fill:none" points="277.621,477.188 287.069,477.188 "/>
<polyline clip-path="url(#clip510)" style="stroke:#000000; stroke-linecap:round; stroke-linejoin:round; stroke-width:4; stroke-opacity:1; fill:none" points="277.621,359.979 287.069,359.979 "/>
<polyline clip-path="url(#clip510)" style="stroke:#000000; stroke-linecap:round; stroke-linejoin:round; stroke-width:4; stroke-opacity:1; fill:none" points="277.621,301.375 287.069,301.375 "/>
<polyline clip-path="url(#clip510)" style="stroke:#000000; stroke-linecap:round; stroke-linejoin:round; stroke-width:4; stroke-opacity:1; fill:none" points="277.621,242.77 287.069,242.77 "/>
<polyline clip-path="url(#clip510)" style="stroke:#000000; stroke-linecap:round; stroke-linejoin:round; stroke-width:4; stroke-opacity:1; fill:none" points="277.621,184.166 287.069,184.166 "/>
<path clip-path="url(#clip510)" d="M114.931 1311 L122.57 1311 L122.57 1284.63 L114.26 1286.3 L114.26 1282.04 L122.524 1280.37 L127.2 1280.37 L127.2 1311 L134.839 1311 L134.839 1314.93 L114.931 1314.93 L114.931 1311 Z" fill="#000000" fill-rule="nonzero" fill-opacity="1" /><path clip-path="url(#clip510)" d="M144.283 1309.05 L149.167 1309.05 L149.167 1314.93 L144.283 1314.93 L144.283 1309.05 Z" fill="#000000" fill-rule="nonzero" fill-opacity="1" /><path clip-path="url(#clip510)" d="M169.352 1283.45 Q165.741 1283.45 163.913 1287.01 Q162.107 1290.56 162.107 1297.69 Q162.107 1304.79 163.913 1308.36 Q165.741 1311.9 169.352 1311.9 Q172.987 1311.9 174.792 1308.36 Q176.621 1304.79 176.621 1297.69 Q176.621 1290.56 174.792 1287.01 Q172.987 1283.45 169.352 1283.45 M169.352 1279.75 Q175.163 1279.75 178.218 1284.35 Q181.297 1288.94 181.297 1297.69 Q181.297 1306.41 178.218 1311.02 Q175.163 1315.6 169.352 1315.6 Q163.542 1315.6 160.464 1311.02 Q157.408 1306.41 157.408 1297.69 Q157.408 1288.94 160.464 1284.35 Q163.542 1279.75 169.352 1279.75 Z" fill="#000000" fill-rule="nonzero" fill-opacity="1" /><path clip-path="url(#clip510)" d="M199.514 1283.45 Q195.903 1283.45 194.075 1287.01 Q192.269 1290.56 192.269 1297.69 Q192.269 1304.79 194.075 1308.36 Q195.903 1311.9 199.514 1311.9 Q203.149 1311.9 204.954 1308.36 Q206.783 1304.79 206.783 1297.69 Q206.783 1290.56 204.954 1287.01 Q203.149 1283.45 199.514 1283.45 M199.514 1279.75 Q205.324 1279.75 208.38 1284.35 Q211.459 1288.94 211.459 1297.69 Q211.459 1306.41 208.38 1311.02 Q205.324 1315.6 199.514 1315.6 Q193.704 1315.6 190.625 1311.02 Q187.57 1306.41 187.57 1297.69 Q187.57 1288.94 190.625 1284.35 Q193.704 1279.75 199.514 1279.75 Z" fill="#000000" fill-rule="nonzero" fill-opacity="1" /><path clip-path="url(#clip510)" d="M229.676 1283.45 Q226.065 1283.45 224.236 1287.01 Q222.431 1290.56 222.431 1297.69 Q222.431 1304.79 224.236 1308.36 Q226.065 1311.9 229.676 1311.9 Q233.31 1311.9 235.116 1308.36 Q236.945 1304.79 236.945 1297.69 Q236.945 1290.56 235.116 1287.01 Q233.31 1283.45 229.676 1283.45 M229.676 1279.75 Q235.486 1279.75 238.542 1284.35 Q241.621 1288.94 241.621 1297.69 Q241.621 1306.41 238.542 1311.02 Q235.486 1315.6 229.676 1315.6 Q223.866 1315.6 220.787 1311.02 Q217.732 1306.41 217.732 1297.69 Q217.732 1288.94 220.787 1284.35 Q223.866 1279.75 229.676 1279.75 Z" fill="#000000" fill-rule="nonzero" fill-opacity="1" /><path clip-path="url(#clip510)" d="M115.927 1017.97 L123.566 1017.97 L123.566 991.608 L115.256 993.275 L115.256 989.016 L123.519 987.349 L128.195 987.349 L128.195 1017.97 L135.834 1017.97 L135.834 1021.91 L115.927 1021.91 L115.927 1017.97 Z" fill="#000000" fill-rule="nonzero" fill-opacity="1" /><path clip-path="url(#clip510)" d="M145.279 1016.03 L150.163 1016.03 L150.163 1021.91 L145.279 1021.91 L145.279 1016.03 Z" fill="#000000" fill-rule="nonzero" fill-opacity="1" /><path clip-path="url(#clip510)" d="M170.348 990.428 Q166.737 990.428 164.908 993.992 Q163.102 997.534 163.102 1004.66 Q163.102 1011.77 164.908 1015.33 Q166.737 1018.88 170.348 1018.88 Q173.982 1018.88 175.788 1015.33 Q177.616 1011.77 177.616 1004.66 Q177.616 997.534 175.788 993.992 Q173.982 990.428 170.348 990.428 M170.348 986.724 Q176.158 986.724 179.214 991.33 Q182.292 995.914 182.292 1004.66 Q182.292 1013.39 179.214 1018 Q176.158 1022.58 170.348 1022.58 Q164.538 1022.58 161.459 1018 Q158.403 1013.39 158.403 1004.66 Q158.403 995.914 161.459 991.33 Q164.538 986.724 170.348 986.724 Z" fill="#000000" fill-rule="nonzero" fill-opacity="1" /><path clip-path="url(#clip510)" d="M194.538 1017.97 L210.857 1017.97 L210.857 1021.91 L188.913 1021.91 L188.913 1017.97 Q191.575 1015.22 196.158 1010.59 Q200.764 1005.94 201.945 1004.59 Q204.19 1002.07 205.07 1000.33 Q205.973 998.576 205.973 996.886 Q205.973 994.131 204.028 992.395 Q202.107 990.659 199.005 990.659 Q196.806 990.659 194.352 991.423 Q191.922 992.187 189.144 993.738 L189.144 989.016 Q191.968 987.881 194.422 987.303 Q196.875 986.724 198.912 986.724 Q204.283 986.724 207.477 989.409 Q210.672 992.094 210.672 996.585 Q210.672 998.715 209.861 1000.64 Q209.074 1002.53 206.968 1005.13 Q206.389 1005.8 203.287 1009.02 Q200.186 1012.21 194.538 1017.97 Z" fill="#000000" fill-rule="nonzero" fill-opacity="1" /><path clip-path="url(#clip510)" d="M220.718 987.349 L239.074 987.349 L239.074 991.284 L225 991.284 L225 999.756 Q226.019 999.409 227.037 999.247 Q228.056 999.062 229.074 999.062 Q234.861 999.062 238.241 1002.23 Q241.621 1005.4 241.621 1010.82 Q241.621 1016.4 238.148 1019.5 Q234.676 1022.58 228.357 1022.58 Q226.181 1022.58 223.912 1022.21 Q221.667 1021.84 219.26 1021.1 L219.26 1016.4 Q221.343 1017.53 223.565 1018.09 Q225.787 1018.65 228.264 1018.65 Q232.269 1018.65 234.607 1016.54 Q236.945 1014.43 236.945 1010.82 Q236.945 1007.21 234.607 1005.1 Q232.269 1003 228.264 1003 Q226.389 1003 224.514 1003.41 Q222.662 1003.83 220.718 1004.71 L220.718 987.349 Z" fill="#000000" fill-rule="nonzero" fill-opacity="1" /><path clip-path="url(#clip510)" d="M114.931 724.951 L122.57 724.951 L122.57 698.586 L114.26 700.252 L114.26 695.993 L122.524 694.326 L127.2 694.326 L127.2 724.951 L134.839 724.951 L134.839 728.886 L114.931 728.886 L114.931 724.951 Z" fill="#000000" fill-rule="nonzero" fill-opacity="1" /><path clip-path="url(#clip510)" d="M144.283 723.007 L149.167 723.007 L149.167 728.886 L144.283 728.886 L144.283 723.007 Z" fill="#000000" fill-rule="nonzero" fill-opacity="1" /><path clip-path="url(#clip510)" d="M169.352 697.405 Q165.741 697.405 163.913 700.97 Q162.107 704.511 162.107 711.641 Q162.107 718.747 163.913 722.312 Q165.741 725.854 169.352 725.854 Q172.987 725.854 174.792 722.312 Q176.621 718.747 176.621 711.641 Q176.621 704.511 174.792 700.97 Q172.987 697.405 169.352 697.405 M169.352 693.701 Q175.163 693.701 178.218 698.308 Q181.297 702.891 181.297 711.641 Q181.297 720.368 178.218 724.974 Q175.163 729.558 169.352 729.558 Q163.542 729.558 160.464 724.974 Q157.408 720.368 157.408 711.641 Q157.408 702.891 160.464 698.308 Q163.542 693.701 169.352 693.701 Z" fill="#000000" fill-rule="nonzero" fill-opacity="1" /><path clip-path="url(#clip510)" d="M189.561 694.326 L207.917 694.326 L207.917 698.261 L193.843 698.261 L193.843 706.734 Q194.862 706.386 195.88 706.224 Q196.899 706.039 197.917 706.039 Q203.704 706.039 207.084 709.21 Q210.463 712.382 210.463 717.798 Q210.463 723.377 206.991 726.479 Q203.519 729.558 197.2 729.558 Q195.024 729.558 192.755 729.187 Q190.51 728.817 188.102 728.076 L188.102 723.377 Q190.186 724.511 192.408 725.067 Q194.63 725.622 197.107 725.622 Q201.112 725.622 203.449 723.516 Q205.787 721.409 205.787 717.798 Q205.787 714.187 203.449 712.081 Q201.112 709.974 197.107 709.974 Q195.232 709.974 193.357 710.391 Q191.505 710.808 189.561 711.687 L189.561 694.326 Z" fill="#000000" fill-rule="nonzero" fill-opacity="1" /><path clip-path="url(#clip510)" d="M229.676 697.405 Q226.065 697.405 224.236 700.97 Q222.431 704.511 222.431 711.641 Q222.431 718.747 224.236 722.312 Q226.065 725.854 229.676 725.854 Q233.31 725.854 235.116 722.312 Q236.945 718.747 236.945 711.641 Q236.945 704.511 235.116 700.97 Q233.31 697.405 229.676 697.405 M229.676 693.701 Q235.486 693.701 238.542 698.308 Q241.621 702.891 241.621 711.641 Q241.621 720.368 238.542 724.974 Q235.486 729.558 229.676 729.558 Q223.866 729.558 220.787 724.974 Q217.732 720.368 217.732 711.641 Q217.732 702.891 220.787 698.308 Q223.866 693.701 229.676 693.701 Z" fill="#000000" fill-rule="nonzero" fill-opacity="1" /><path clip-path="url(#clip510)" d="M115.927 431.929 L123.566 431.929 L123.566 405.563 L115.256 407.23 L115.256 402.97 L123.519 401.304 L128.195 401.304 L128.195 431.929 L135.834 431.929 L135.834 435.864 L115.927 435.864 L115.927 431.929 Z" fill="#000000" fill-rule="nonzero" fill-opacity="1" /><path clip-path="url(#clip510)" d="M145.279 429.984 L150.163 429.984 L150.163 435.864 L145.279 435.864 L145.279 429.984 Z" fill="#000000" fill-rule="nonzero" fill-opacity="1" /><path clip-path="url(#clip510)" d="M170.348 404.382 Q166.737 404.382 164.908 407.947 Q163.102 411.489 163.102 418.618 Q163.102 425.725 164.908 429.29 Q166.737 432.831 170.348 432.831 Q173.982 432.831 175.788 429.29 Q177.616 425.725 177.616 418.618 Q177.616 411.489 175.788 407.947 Q173.982 404.382 170.348 404.382 M170.348 400.679 Q176.158 400.679 179.214 405.285 Q182.292 409.869 182.292 418.618 Q182.292 427.345 179.214 431.952 Q176.158 436.535 170.348 436.535 Q164.538 436.535 161.459 431.952 Q158.403 427.345 158.403 418.618 Q158.403 409.869 161.459 405.285 Q164.538 400.679 170.348 400.679 Z" fill="#000000" fill-rule="nonzero" fill-opacity="1" /><path clip-path="url(#clip510)" d="M189.329 401.304 L211.551 401.304 L211.551 403.294 L199.005 435.864 L194.121 435.864 L205.926 405.239 L189.329 405.239 L189.329 401.304 Z" fill="#000000" fill-rule="nonzero" fill-opacity="1" /><path clip-path="url(#clip510)" d="M220.718 401.304 L239.074 401.304 L239.074 405.239 L225 405.239 L225 413.711 Q226.019 413.364 227.037 413.202 Q228.056 413.017 229.074 413.017 Q234.861 413.017 238.241 416.188 Q241.621 419.359 241.621 424.776 Q241.621 430.355 238.148 433.456 Q234.676 436.535 228.357 436.535 Q226.181 436.535 223.912 436.165 Q221.667 435.794 219.26 435.054 L219.26 430.355 Q221.343 431.489 223.565 432.044 Q225.787 432.6 228.264 432.6 Q232.269 432.6 234.607 430.493 Q236.945 428.387 236.945 424.776 Q236.945 421.165 234.607 419.058 Q232.269 416.952 228.264 416.952 Q226.389 416.952 224.514 417.368 Q222.662 417.785 220.718 418.665 L220.718 401.304 Z" fill="#000000" fill-rule="nonzero" fill-opacity="1" /><path clip-path="url(#clip510)" d="M114.931 138.906 L122.57 138.906 L122.57 112.54 L114.26 114.207 L114.26 109.948 L122.524 108.281 L127.2 108.281 L127.2 138.906 L134.839 138.906 L134.839 142.841 L114.931 142.841 L114.931 138.906 Z" fill="#000000" fill-rule="nonzero" fill-opacity="1" /><path clip-path="url(#clip510)" d="M144.283 136.962 L149.167 136.962 L149.167 142.841 L144.283 142.841 L144.283 136.962 Z" fill="#000000" fill-rule="nonzero" fill-opacity="1" /><path clip-path="url(#clip510)" d="M160.163 138.906 L167.802 138.906 L167.802 112.54 L159.491 114.207 L159.491 109.948 L167.755 108.281 L172.431 108.281 L172.431 138.906 L180.07 138.906 L180.07 142.841 L160.163 142.841 L160.163 138.906 Z" fill="#000000" fill-rule="nonzero" fill-opacity="1" /><path clip-path="url(#clip510)" d="M199.514 111.36 Q195.903 111.36 194.075 114.925 Q192.269 118.466 192.269 125.596 Q192.269 132.702 194.075 136.267 Q195.903 139.809 199.514 139.809 Q203.149 139.809 204.954 136.267 Q206.783 132.702 206.783 125.596 Q206.783 118.466 204.954 114.925 Q203.149 111.36 199.514 111.36 M199.514 107.656 Q205.324 107.656 208.38 112.263 Q211.459 116.846 211.459 125.596 Q211.459 134.323 208.38 138.929 Q205.324 143.512 199.514 143.512 Q193.704 143.512 190.625 138.929 Q187.57 134.323 187.57 125.596 Q187.57 116.846 190.625 112.263 Q193.704 107.656 199.514 107.656 Z" fill="#000000" fill-rule="nonzero" fill-opacity="1" /><path clip-path="url(#clip510)" d="M229.676 111.36 Q226.065 111.36 224.236 114.925 Q222.431 118.466 222.431 125.596 Q222.431 132.702 224.236 136.267 Q226.065 139.809 229.676 139.809 Q233.31 139.809 235.116 136.267 Q236.945 132.702 236.945 125.596 Q236.945 118.466 235.116 114.925 Q233.31 111.36 229.676 111.36 M229.676 107.656 Q235.486 107.656 238.542 112.263 Q241.621 116.846 241.621 125.596 Q241.621 134.323 238.542 138.929 Q235.486 143.512 229.676 143.512 Q223.866 143.512 220.787 138.929 Q217.732 134.323 217.732 125.596 Q217.732 116.846 220.787 112.263 Q223.866 107.656 229.676 107.656 Z" fill="#000000" fill-rule="nonzero" fill-opacity="1" /><path clip-path="url(#clip510)" d="M16.4842 874.557 L16.4842 864.976 L48.8219 852.85 L16.4842 840.659 L16.4842 831.079 L64.0042 831.079 L64.0042 837.349 L22.277 837.349 L54.8694 849.603 L54.8694 856.064 L22.277 868.318 L64.0042 868.318 L64.0042 874.557 L16.4842 874.557 Z" fill="#000000" fill-rule="nonzero" fill-opacity="1" /><path clip-path="url(#clip510)" d="M41.7242 795.781 Q42.4244 793.712 44.7161 791.771 Q47.0077 789.797 51.0181 787.824 L64.0042 781.299 L64.0042 788.206 L51.8138 794.285 Q47.0395 796.64 45.48 798.868 Q43.9204 801.065 43.9204 804.884 L43.9204 811.886 L64.0042 811.886 L64.0042 818.316 L16.4842 818.316 L16.4842 803.802 Q16.4842 795.654 19.8898 791.643 Q23.2955 787.633 30.1704 787.633 Q34.6582 787.633 37.6183 789.734 Q40.5784 791.802 41.7242 795.781 M21.7677 811.886 L38.6368 811.886 L38.6368 803.802 Q38.6368 799.155 36.5043 796.8 Q34.34 794.412 30.1704 794.412 Q26.0009 794.412 23.9002 796.8 Q21.7677 799.155 21.7677 803.802 L21.7677 811.886 Z" fill="#000000" fill-rule="nonzero" fill-opacity="1" /><path clip-path="url(#clip510)" d="M22.818 759.783 L46.4666 768.504 L46.4666 751.03 L22.818 759.783 M16.4842 763.411 L16.4842 756.123 L64.0042 738.012 L64.0042 744.696 L51.8138 749.025 L51.8138 770.446 L64.0042 774.774 L64.0042 781.554 L16.4842 763.411 Z" fill="#000000" fill-rule="nonzero" fill-opacity="1" /><path clip-path="url(#clip510)" d="M16.4842 731.074 L16.4842 701.027 L21.895 701.027 L21.895 724.644 L35.9632 724.644 L35.9632 702.014 L41.3741 702.014 L41.3741 724.644 L58.5933 724.644 L58.5933 700.455 L64.0042 700.455 L64.0042 731.074 L16.4842 731.074 Z" fill="#000000" fill-rule="nonzero" fill-opacity="1" /><path clip-path="url(#clip510)" d="M14.479 672.095 L19.3487 672.095 L19.3487 677.697 Q19.3487 680.848 20.6219 682.089 Q21.895 683.299 25.2052 683.299 L28.3562 683.299 L28.3562 673.655 L32.9077 673.655 L32.9077 683.299 L64.0042 683.299 L64.0042 689.187 L32.9077 689.187 L32.9077 694.789 L28.3562 694.789 L28.3562 689.187 L25.8736 689.187 Q19.9216 689.187 17.2162 686.418 Q14.479 683.649 14.479 677.633 L14.479 672.095 Z" fill="#000000" fill-rule="nonzero" fill-opacity="1" /><path clip-path="url(#clip510)" d="M872.688 12.096 L884.881 12.096 L900.315 53.2532 L915.83 12.096 L928.023 12.096 L928.023 72.576 L920.043 72.576 L920.043 19.4686 L904.447 60.9499 L896.223 60.9499 L880.627 19.4686 L880.627 72.576 L872.688 72.576 L872.688 12.096 Z" fill="#000000" fill-rule="nonzero" fill-opacity="1" /><path clip-path="url(#clip510)" d="M972.948 44.2197 Q975.581 45.1109 978.052 48.0275 Q980.563 50.9442 983.075 56.0483 L991.379 72.576 L982.589 72.576 L974.852 57.061 Q971.854 50.9847 969.018 48.9997 Q966.223 47.0148 961.362 47.0148 L952.45 47.0148 L952.45 72.576 L944.267 72.576 L944.267 12.096 L962.739 12.096 Q973.11 12.096 978.214 16.4305 Q983.318 20.7649 983.318 29.5149 Q983.318 35.2267 980.644 38.994 Q978.011 42.7613 972.948 44.2197 M952.45 18.8205 L952.45 40.2903 L962.739 40.2903 Q968.654 40.2903 971.651 37.5762 Q974.689 34.8216 974.689 29.5149 Q974.689 24.2082 971.651 21.5346 Q968.654 18.8205 962.739 18.8205 L952.45 18.8205 Z" fill="#000000" fill-rule="nonzero" fill-opacity="1" /><path clip-path="url(#clip510)" d="M1018.76 20.1573 L1007.66 50.2555 L1029.9 50.2555 L1018.76 20.1573 M1014.15 12.096 L1023.42 12.096 L1046.47 72.576 L1037.96 72.576 L1032.46 57.061 L1005.19 57.061 L999.684 72.576 L991.055 72.576 L1014.15 12.096 Z" fill="#000000" fill-rule="nonzero" fill-opacity="1" /><path clip-path="url(#clip510)" d="M1055.3 12.096 L1093.54 12.096 L1093.54 18.9825 L1063.49 18.9825 L1063.49 36.8875 L1092.29 36.8875 L1092.29 43.7741 L1063.49 43.7741 L1063.49 65.6895 L1094.27 65.6895 L1094.27 72.576 L1055.3 72.576 L1055.3 12.096 Z" fill="#000000" fill-rule="nonzero" fill-opacity="1" /><path clip-path="url(#clip510)" d="M1130.37 9.54393 L1130.37 15.7418 L1123.24 15.7418 Q1119.23 15.7418 1117.65 17.3622 Q1116.11 18.9825 1116.11 23.1955 L1116.11 27.2059 L1128.38 27.2059 L1128.38 32.9987 L1116.11 32.9987 L1116.11 72.576 L1108.61 72.576 L1108.61 32.9987 L1101.48 32.9987 L1101.48 27.2059 L1108.61 27.2059 L1108.61 24.0462 Q1108.61 16.471 1112.14 13.0277 Q1115.66 9.54393 1123.32 9.54393 L1130.37 9.54393 Z" fill="#000000" fill-rule="nonzero" fill-opacity="1" /><path clip-path="url(#clip510)" d="M1157.63 27.2059 L1165.53 27.2059 L1179.71 65.2844 L1193.88 27.2059 L1201.78 27.2059 L1184.77 72.576 L1174.64 72.576 L1157.63 27.2059 Z" fill="#000000" fill-rule="nonzero" fill-opacity="1" /><path clip-path="url(#clip510)" d="M1241 28.5427 L1241 35.5912 Q1237.84 33.9709 1234.43 33.1607 Q1231.03 32.3505 1227.38 32.3505 Q1221.84 32.3505 1219.04 34.0519 Q1216.29 35.7533 1216.29 39.156 Q1216.29 41.7486 1218.27 43.2475 Q1220.26 44.7058 1226.25 46.0426 L1228.8 46.6097 Q1236.74 48.3111 1240.06 51.4303 Q1243.43 54.509 1243.43 60.0587 Q1243.43 66.3781 1238.4 70.0644 Q1233.42 73.7508 1224.67 73.7508 Q1221.02 73.7508 1217.06 73.0216 Q1213.13 72.3329 1208.75 70.9151 L1208.75 63.2184 Q1212.88 65.3654 1216.89 66.4591 Q1220.9 67.5124 1224.83 67.5124 Q1230.1 67.5124 1232.93 65.73 Q1235.77 63.9071 1235.77 60.6258 Q1235.77 57.5877 1233.7 55.9673 Q1231.68 54.3469 1224.75 52.8481 L1222.16 52.2405 Q1215.23 50.7821 1212.15 47.7845 Q1209.07 44.7463 1209.07 39.4801 Q1209.07 33.0797 1213.61 29.5959 Q1218.15 26.1121 1226.49 26.1121 Q1230.63 26.1121 1234.27 26.7198 Q1237.92 27.3274 1241 28.5427 Z" fill="#000000" fill-rule="nonzero" fill-opacity="1" /><path clip-path="url(#clip510)" d="M1290.17 18.8205 L1290.17 65.8515 L1300.06 65.8515 Q1312.58 65.8515 1318.37 60.1802 Q1324.2 54.509 1324.2 42.2752 Q1324.2 30.1225 1318.37 24.4918 Q1312.58 18.8205 1300.06 18.8205 L1290.17 18.8205 M1281.99 12.096 L1298.8 12.096 Q1316.38 12.096 1324.61 19.4281 Q1332.83 26.7198 1332.83 42.2752 Q1332.83 57.9117 1324.57 65.2439 Q1316.3 72.576 1298.8 72.576 L1281.99 72.576 L1281.99 12.096 Z" fill="#000000" fill-rule="nonzero" fill-opacity="1" /><path clip-path="url(#clip510)" d="M1366.17 49.7694 Q1357.14 49.7694 1353.65 51.8354 Q1350.17 53.9013 1350.17 58.8839 Q1350.17 62.8538 1352.76 65.2034 Q1355.39 67.5124 1359.89 67.5124 Q1366.09 67.5124 1369.81 63.1374 Q1373.58 58.7219 1373.58 51.4303 L1373.58 49.7694 L1366.17 49.7694 M1381.04 46.6907 L1381.04 72.576 L1373.58 72.576 L1373.58 65.6895 Q1371.03 69.8214 1367.22 71.8063 Q1363.41 73.7508 1357.91 73.7508 Q1350.94 73.7508 1346.81 69.8619 Q1342.71 65.9325 1342.71 59.3701 Q1342.71 51.7138 1347.82 47.825 Q1352.96 43.9361 1363.13 43.9361 L1373.58 43.9361 L1373.58 43.2069 Q1373.58 38.0623 1370.18 35.2672 Q1366.82 32.4315 1360.7 32.4315 Q1356.81 32.4315 1353.12 33.3632 Q1349.44 34.295 1346.04 36.1584 L1346.04 29.2718 Q1350.13 27.692 1353.98 26.9223 Q1357.82 26.1121 1361.47 26.1121 Q1371.31 26.1121 1376.17 31.2163 Q1381.04 36.3204 1381.04 46.6907 Z" fill="#000000" fill-rule="nonzero" fill-opacity="1" /><path clip-path="url(#clip510)" d="M1415.27 76.7889 Q1412.11 84.8907 1409.11 87.3618 Q1406.11 89.8329 1401.09 89.8329 L1395.13 89.8329 L1395.13 83.5945 L1399.51 83.5945 Q1402.59 83.5945 1404.29 82.1361 Q1405.99 80.6778 1408.06 75.2496 L1409.39 71.8468 L1391.04 27.2059 L1398.94 27.2059 L1413.12 62.6918 L1427.3 27.2059 L1435.2 27.2059 L1415.27 76.7889 Z" fill="#000000" fill-rule="nonzero" fill-opacity="1" /><path clip-path="url(#clip510)" d="M1474.41 28.5427 L1474.41 35.5912 Q1471.25 33.9709 1467.85 33.1607 Q1464.44 32.3505 1460.8 32.3505 Q1455.25 32.3505 1452.45 34.0519 Q1449.7 35.7533 1449.7 39.156 Q1449.7 41.7486 1451.68 43.2475 Q1453.67 44.7058 1459.66 46.0426 L1462.22 46.6097 Q1470.16 48.3111 1473.48 51.4303 Q1476.84 54.509 1476.84 60.0587 Q1476.84 66.3781 1471.82 70.0644 Q1466.83 73.7508 1458.08 73.7508 Q1454.44 73.7508 1450.47 73.0216 Q1446.54 72.3329 1442.16 70.9151 L1442.16 63.2184 Q1446.3 65.3654 1450.31 66.4591 Q1454.32 67.5124 1458.25 67.5124 Q1463.51 67.5124 1466.35 65.73 Q1469.18 63.9071 1469.18 60.6258 Q1469.18 57.5877 1467.12 55.9673 Q1465.09 54.3469 1458.16 52.8481 L1455.57 52.2405 Q1448.65 50.7821 1445.57 47.7845 Q1442.49 44.7463 1442.49 39.4801 Q1442.49 33.0797 1447.02 29.5959 Q1451.56 26.1121 1459.91 26.1121 Q1464.04 26.1121 1467.68 26.7198 Q1471.33 27.3274 1474.41 28.5427 Z" fill="#000000" fill-rule="nonzero" fill-opacity="1" /><path clip-path="url(#clip510)" d="M1535.7 49.7694 Q1526.67 49.7694 1523.18 51.8354 Q1519.7 53.9013 1519.7 58.8839 Q1519.7 62.8538 1522.29 65.2034 Q1524.92 67.5124 1529.42 67.5124 Q1535.62 67.5124 1539.35 63.1374 Q1543.11 58.7219 1543.11 51.4303 L1543.11 49.7694 L1535.7 49.7694 M1550.57 46.6907 L1550.57 72.576 L1543.11 72.576 L1543.11 65.6895 Q1540.56 69.8214 1536.75 71.8063 Q1532.94 73.7508 1527.44 73.7508 Q1520.47 73.7508 1516.34 69.8619 Q1512.24 65.9325 1512.24 59.3701 Q1512.24 51.7138 1517.35 47.825 Q1522.49 43.9361 1532.66 43.9361 L1543.11 43.9361 L1543.11 43.2069 Q1543.11 38.0623 1539.71 35.2672 Q1536.35 32.4315 1530.23 32.4315 Q1526.34 32.4315 1522.66 33.3632 Q1518.97 34.295 1515.57 36.1584 L1515.57 29.2718 Q1519.66 27.692 1523.51 26.9223 Q1527.35 26.1121 1531 26.1121 Q1540.84 26.1121 1545.7 31.2163 Q1550.57 36.3204 1550.57 46.6907 Z" fill="#000000" fill-rule="nonzero" fill-opacity="1" /><path clip-path="url(#clip510)" d="M1603.63 45.1919 L1603.63 72.576 L1596.18 72.576 L1596.18 45.4349 Q1596.18 38.994 1593.67 35.7938 Q1591.16 32.5936 1586.13 32.5936 Q1580.1 32.5936 1576.61 36.4419 Q1573.13 40.2903 1573.13 46.9338 L1573.13 72.576 L1565.64 72.576 L1565.64 9.54393 L1573.13 9.54393 L1573.13 34.2544 Q1575.8 30.163 1579.41 28.1376 Q1583.05 26.1121 1587.79 26.1121 Q1595.61 26.1121 1599.62 30.9732 Q1603.63 35.7938 1603.63 45.1919 Z" fill="#000000" fill-rule="nonzero" fill-opacity="1" /><path clip-path="url(#clip510)" d="M1657.31 48.0275 L1657.31 51.6733 L1623.04 51.6733 Q1623.52 59.3701 1627.65 63.421 Q1631.83 67.4314 1639.24 67.4314 Q1643.53 67.4314 1647.54 66.3781 Q1651.6 65.3249 1655.57 63.2184 L1655.57 70.267 Q1651.56 71.9684 1647.34 72.8596 Q1643.13 73.7508 1638.79 73.7508 Q1627.94 73.7508 1621.58 67.4314 Q1615.26 61.1119 1615.26 50.3365 Q1615.26 39.1965 1621.25 32.6746 Q1627.29 26.1121 1637.5 26.1121 Q1646.65 26.1121 1651.96 32.0264 Q1657.31 37.9003 1657.31 48.0275 M1649.85 45.84 Q1649.77 39.7232 1646.41 36.0774 Q1643.09 32.4315 1637.58 32.4315 Q1631.34 32.4315 1627.57 35.9558 Q1623.85 39.4801 1623.28 45.8805 L1649.85 45.84 Z" fill="#000000" fill-rule="nonzero" fill-opacity="1" /><path clip-path="url(#clip510)" d="M1690.16 49.7694 Q1681.13 49.7694 1677.64 51.8354 Q1674.16 53.9013 1674.16 58.8839 Q1674.16 62.8538 1676.75 65.2034 Q1679.38 67.5124 1683.88 67.5124 Q1690.08 67.5124 1693.81 63.1374 Q1697.57 58.7219 1697.57 51.4303 L1697.57 49.7694 L1690.16 49.7694 M1705.03 46.6907 L1705.03 72.576 L1697.57 72.576 L1697.57 65.6895 Q1695.02 69.8214 1691.21 71.8063 Q1687.41 73.7508 1681.9 73.7508 Q1674.93 73.7508 1670.8 69.8619 Q1666.71 65.9325 1666.71 59.3701 Q1666.71 51.7138 1671.81 47.825 Q1676.95 43.9361 1687.12 43.9361 L1697.57 43.9361 L1697.57 43.2069 Q1697.57 38.0623 1694.17 35.2672 Q1690.81 32.4315 1684.69 32.4315 Q1680.8 32.4315 1677.12 33.3632 Q1673.43 34.295 1670.03 36.1584 L1670.03 29.2718 Q1674.12 27.692 1677.97 26.9223 Q1681.82 26.1121 1685.46 26.1121 Q1695.3 26.1121 1700.17 31.2163 Q1705.03 36.3204 1705.03 46.6907 Z" fill="#000000" fill-rule="nonzero" fill-opacity="1" /><path clip-path="url(#clip510)" d="M1750.24 34.0924 L1750.24 9.54393 L1757.69 9.54393 L1757.69 72.576 L1750.24 72.576 L1750.24 65.7705 Q1747.89 69.8214 1744.28 71.8063 Q1740.72 73.7508 1735.69 73.7508 Q1727.47 73.7508 1722.28 67.1883 Q1717.14 60.6258 1717.14 49.9314 Q1717.14 39.2371 1722.28 32.6746 Q1727.47 26.1121 1735.69 26.1121 Q1740.72 26.1121 1744.28 28.0971 Q1747.89 30.0415 1750.24 34.0924 M1724.84 49.9314 Q1724.84 58.1548 1728.2 62.8538 Q1731.6 67.5124 1737.52 67.5124 Q1743.43 67.5124 1746.83 62.8538 Q1750.24 58.1548 1750.24 49.9314 Q1750.24 41.7081 1746.83 37.0496 Q1743.43 32.3505 1737.52 32.3505 Q1731.6 32.3505 1728.2 37.0496 Q1724.84 41.7081 1724.84 49.9314 Z" fill="#000000" fill-rule="nonzero" fill-opacity="1" /><polyline clip-path="url(#clip512)" style="stroke:#009af9; stroke-linecap:round; stroke-linejoin:round; stroke-width:4; stroke-opacity:1; fill:none" points="336.351,1094.4 662.63,1102.37 988.909,1105.82 1315.19,1131.38 1641.47,1121.43 1967.75,1114.34 2294.03,1109.9 "/>
<polyline clip-path="url(#clip512)" style="stroke:#e26f46; stroke-linecap:round; stroke-linejoin:round; stroke-width:4; stroke-opacity:1; fill:none" points="336.351,792.013 662.63,759.221 988.909,677.965 1315.19,637.149 1641.47,533.046 1967.75,359.424 2294.03,160.256 "/>
<polyline clip-path="url(#clip512)" style="stroke:#3da44d; stroke-linecap:round; stroke-linejoin:round; stroke-width:4; stroke-opacity:1; fill:none" points="336.351,1386.4 662.63,1385.74 988.909,1374.94 1315.19,1346.57 1641.47,1340.01 1967.75,1351.86 2294.03,1376.41 "/>
<path clip-path="url(#clip510)" d="M346.792 374.156 L967.335 374.156 L967.335 166.796 L346.792 166.796  Z" fill="#ffffff" fill-rule="evenodd" fill-opacity="1"/>
<polyline clip-path="url(#clip510)" style="stroke:#000000; stroke-linecap:round; stroke-linejoin:round; stroke-width:4; stroke-opacity:1; fill:none" points="346.792,374.156 967.335,374.156 967.335,166.796 346.792,166.796 346.792,374.156 "/>
<polyline clip-path="url(#clip510)" style="stroke:#009af9; stroke-linecap:round; stroke-linejoin:round; stroke-width:4; stroke-opacity:1; fill:none" points="369.849,218.636 508.191,218.636 "/>
<path clip-path="url(#clip510)" d="M531.248 201.356 L535.924 201.356 L535.924 231.981 L552.753 231.981 L552.753 235.916 L531.248 235.916 L531.248 201.356 Z" fill="#000000" fill-rule="nonzero" fill-opacity="1" /><path clip-path="url(#clip510)" d="M569.257 222.883 Q564.095 222.883 562.105 224.064 Q560.114 225.244 560.114 228.092 Q560.114 230.36 561.595 231.703 Q563.1 233.022 565.669 233.022 Q569.211 233.022 571.341 230.522 Q573.493 227.999 573.493 223.832 L573.493 222.883 L569.257 222.883 M577.753 221.124 L577.753 235.916 L573.493 235.916 L573.493 231.981 Q572.035 234.342 569.859 235.476 Q567.683 236.587 564.535 236.587 Q560.554 236.587 558.193 234.365 Q555.855 232.119 555.855 228.369 Q555.855 223.994 558.771 221.772 Q561.711 219.55 567.521 219.55 L573.493 219.55 L573.493 219.133 Q573.493 216.194 571.549 214.596 Q569.628 212.976 566.132 212.976 Q563.91 212.976 561.804 213.508 Q559.697 214.041 557.753 215.106 L557.753 211.17 Q560.091 210.268 562.29 209.828 Q564.489 209.365 566.572 209.365 Q572.197 209.365 574.975 212.282 Q577.753 215.198 577.753 221.124 Z" fill="#000000" fill-rule="nonzero" fill-opacity="1" /><path clip-path="url(#clip510)" d="M603.053 210.754 L603.053 214.782 Q601.248 213.856 599.303 213.393 Q597.359 212.93 595.276 212.93 Q592.104 212.93 590.507 213.902 Q588.933 214.874 588.933 216.819 Q588.933 218.3 590.067 219.157 Q591.202 219.99 594.628 220.754 L596.086 221.078 Q600.623 222.05 602.521 223.832 Q604.442 225.592 604.442 228.763 Q604.442 232.374 601.572 234.481 Q598.725 236.587 593.725 236.587 Q591.641 236.587 589.373 236.17 Q587.128 235.777 584.628 234.967 L584.628 230.569 Q586.989 231.795 589.28 232.42 Q591.572 233.022 593.817 233.022 Q596.827 233.022 598.447 232.004 Q600.067 230.962 600.067 229.087 Q600.067 227.351 598.887 226.425 Q597.729 225.499 593.771 224.643 L592.29 224.295 Q588.331 223.462 586.572 221.749 Q584.813 220.013 584.813 217.004 Q584.813 213.346 587.405 211.356 Q589.998 209.365 594.766 209.365 Q597.128 209.365 599.211 209.712 Q601.294 210.059 603.053 210.754 Z" fill="#000000" fill-rule="nonzero" fill-opacity="1" /><path clip-path="url(#clip510)" d="M615.438 202.629 L615.438 209.99 L624.211 209.99 L624.211 213.3 L615.438 213.3 L615.438 227.374 Q615.438 230.545 616.294 231.448 Q617.174 232.351 619.836 232.351 L624.211 232.351 L624.211 235.916 L619.836 235.916 Q614.905 235.916 613.03 234.087 Q611.155 232.235 611.155 227.374 L611.155 213.3 L608.03 213.3 L608.03 209.99 L611.155 209.99 L611.155 202.629 L615.438 202.629 Z" fill="#000000" fill-rule="nonzero" fill-opacity="1" /><path clip-path="url(#clip510)" d="M641.826 209.99 L646.34 209.99 L654.442 231.749 L662.544 209.99 L667.058 209.99 L657.336 235.916 L651.549 235.916 L641.826 209.99 Z" fill="#000000" fill-rule="nonzero" fill-opacity="1" /><path clip-path="url(#clip510)" d="M684.72 222.883 Q679.558 222.883 677.567 224.064 Q675.576 225.244 675.576 228.092 Q675.576 230.36 677.058 231.703 Q678.562 233.022 681.132 233.022 Q684.673 233.022 686.803 230.522 Q688.956 227.999 688.956 223.832 L688.956 222.883 L684.72 222.883 M693.215 221.124 L693.215 235.916 L688.956 235.916 L688.956 231.981 Q687.497 234.342 685.321 235.476 Q683.146 236.587 679.997 236.587 Q676.016 236.587 673.655 234.365 Q671.317 232.119 671.317 228.369 Q671.317 223.994 674.234 221.772 Q677.173 219.55 682.984 219.55 L688.956 219.55 L688.956 219.133 Q688.956 216.194 687.011 214.596 Q685.09 212.976 681.595 212.976 Q679.372 212.976 677.266 213.508 Q675.16 214.041 673.215 215.106 L673.215 211.17 Q675.553 210.268 677.752 209.828 Q679.951 209.365 682.034 209.365 Q687.659 209.365 690.437 212.282 Q693.215 215.198 693.215 221.124 Z" fill="#000000" fill-rule="nonzero" fill-opacity="1" /><path clip-path="url(#clip510)" d="M701.988 199.897 L706.247 199.897 L706.247 235.916 L701.988 235.916 L701.988 199.897 Z" fill="#000000" fill-rule="nonzero" fill-opacity="1" /><path clip-path="url(#clip510)" d="M714.719 225.684 L714.719 209.99 L718.979 209.99 L718.979 225.522 Q718.979 229.203 720.414 231.055 Q721.849 232.883 724.719 232.883 Q728.168 232.883 730.159 230.684 Q732.173 228.485 732.173 224.689 L732.173 209.99 L736.432 209.99 L736.432 235.916 L732.173 235.916 L732.173 231.934 Q730.622 234.295 728.562 235.453 Q726.525 236.587 723.817 236.587 Q719.349 236.587 717.034 233.809 Q714.719 231.031 714.719 225.684 M725.437 209.365 L725.437 209.365 Z" fill="#000000" fill-rule="nonzero" fill-opacity="1" /><path clip-path="url(#clip510)" d="M767.381 221.888 L767.381 223.971 L747.798 223.971 Q748.076 228.369 750.437 230.684 Q752.821 232.976 757.057 232.976 Q759.511 232.976 761.803 232.374 Q764.117 231.772 766.386 230.569 L766.386 234.596 Q764.094 235.568 761.687 236.078 Q759.279 236.587 756.803 236.587 Q750.599 236.587 746.965 232.976 Q743.354 229.365 743.354 223.207 Q743.354 216.842 746.779 213.115 Q750.229 209.365 756.062 209.365 Q761.293 209.365 764.326 212.745 Q767.381 216.101 767.381 221.888 M763.122 220.638 Q763.076 217.143 761.154 215.059 Q759.256 212.976 756.108 212.976 Q752.543 212.976 750.391 214.99 Q748.261 217.004 747.937 220.661 L763.122 220.638 Z" fill="#000000" fill-rule="nonzero" fill-opacity="1" /><polyline clip-path="url(#clip510)" style="stroke:#e26f46; stroke-linecap:round; stroke-linejoin:round; stroke-width:4; stroke-opacity:1; fill:none" points="369.849,270.476 508.191,270.476 "/>
<path clip-path="url(#clip510)" d="M531.248 253.196 L535.924 253.196 L535.924 283.821 L552.753 283.821 L552.753 287.756 L531.248 287.756 L531.248 253.196 Z" fill="#000000" fill-rule="nonzero" fill-opacity="1" /><path clip-path="url(#clip510)" d="M557.475 261.83 L561.734 261.83 L561.734 287.756 L557.475 287.756 L557.475 261.83 M557.475 251.737 L561.734 251.737 L561.734 257.131 L557.475 257.131 L557.475 251.737 Z" fill="#000000" fill-rule="nonzero" fill-opacity="1" /><path clip-path="url(#clip510)" d="M592.197 272.108 L592.197 287.756 L587.938 287.756 L587.938 272.247 Q587.938 268.566 586.503 266.737 Q585.067 264.909 582.197 264.909 Q578.748 264.909 576.757 267.108 Q574.767 269.307 574.767 273.103 L574.767 287.756 L570.484 287.756 L570.484 261.83 L574.767 261.83 L574.767 265.858 Q576.294 263.52 578.354 262.362 Q580.438 261.205 583.146 261.205 Q587.614 261.205 589.905 263.983 Q592.197 266.737 592.197 272.108 Z" fill="#000000" fill-rule="nonzero" fill-opacity="1" /><path clip-path="url(#clip510)" d="M622.868 273.728 L622.868 275.811 L603.285 275.811 Q603.563 280.209 605.924 282.524 Q608.308 284.816 612.544 284.816 Q614.998 284.816 617.289 284.214 Q619.604 283.612 621.873 282.409 L621.873 286.436 Q619.581 287.408 617.174 287.918 Q614.766 288.427 612.289 288.427 Q606.086 288.427 602.452 284.816 Q598.84 281.205 598.84 275.047 Q598.84 268.682 602.266 264.955 Q605.715 261.205 611.549 261.205 Q616.78 261.205 619.813 264.585 Q622.868 267.941 622.868 273.728 M618.609 272.478 Q618.563 268.983 616.641 266.899 Q614.743 264.816 611.595 264.816 Q608.03 264.816 605.877 266.83 Q603.748 268.844 603.424 272.501 L618.609 272.478 Z" fill="#000000" fill-rule="nonzero" fill-opacity="1" /><path clip-path="url(#clip510)" d="M641.641 274.723 Q636.479 274.723 634.488 275.904 Q632.498 277.084 632.498 279.932 Q632.498 282.2 633.979 283.543 Q635.484 284.862 638.053 284.862 Q641.595 284.862 643.724 282.362 Q645.877 279.839 645.877 275.672 L645.877 274.723 L641.641 274.723 M650.136 272.964 L650.136 287.756 L645.877 287.756 L645.877 283.821 Q644.419 286.182 642.243 287.316 Q640.067 288.427 636.919 288.427 Q632.938 288.427 630.576 286.205 Q628.238 283.959 628.238 280.209 Q628.238 275.834 631.155 273.612 Q634.095 271.39 639.905 271.39 L645.877 271.39 L645.877 270.973 Q645.877 268.034 643.933 266.436 Q642.012 264.816 638.516 264.816 Q636.294 264.816 634.187 265.348 Q632.081 265.881 630.137 266.946 L630.137 263.01 Q632.475 262.108 634.674 261.668 Q636.873 261.205 638.956 261.205 Q644.581 261.205 647.359 264.122 Q650.136 267.038 650.136 272.964 Z" fill="#000000" fill-rule="nonzero" fill-opacity="1" /><path clip-path="url(#clip510)" d="M673.933 265.811 Q673.215 265.395 672.359 265.21 Q671.525 265.001 670.507 265.001 Q666.896 265.001 664.951 267.362 Q663.03 269.7 663.03 274.098 L663.03 287.756 L658.748 287.756 L658.748 261.83 L663.03 261.83 L663.03 265.858 Q664.373 263.497 666.525 262.362 Q668.678 261.205 671.757 261.205 Q672.197 261.205 672.729 261.274 Q673.261 261.321 673.91 261.436 L673.933 265.811 Z" fill="#000000" fill-rule="nonzero" fill-opacity="1" /><path clip-path="url(#clip510)" d="M710.044 271.552 Q711.548 272.061 712.96 273.728 Q714.395 275.395 715.831 278.311 L720.576 287.756 L715.553 287.756 L711.132 278.89 Q709.419 275.418 707.798 274.284 Q706.201 273.149 703.423 273.149 L698.331 273.149 L698.331 287.756 L693.655 287.756 L693.655 253.196 L704.21 253.196 Q710.136 253.196 713.053 255.673 Q715.969 258.149 715.969 263.149 Q715.969 266.413 714.442 268.566 Q712.937 270.719 710.044 271.552 M698.331 257.038 L698.331 269.307 L704.21 269.307 Q707.59 269.307 709.303 267.756 Q711.039 266.182 711.039 263.149 Q711.039 260.117 709.303 258.589 Q707.59 257.038 704.21 257.038 L698.331 257.038 Z" fill="#000000" fill-rule="nonzero" fill-opacity="1" /><path clip-path="url(#clip510)" d="M746.455 273.728 L746.455 275.811 L726.872 275.811 Q727.15 280.209 729.511 282.524 Q731.895 284.816 736.131 284.816 Q738.585 284.816 740.877 284.214 Q743.192 283.612 745.46 282.409 L745.46 286.436 Q743.168 287.408 740.761 287.918 Q738.354 288.427 735.877 288.427 Q729.673 288.427 726.039 284.816 Q722.428 281.205 722.428 275.047 Q722.428 268.682 725.854 264.955 Q729.303 261.205 735.136 261.205 Q740.367 261.205 743.4 264.585 Q746.455 267.941 746.455 273.728 M742.196 272.478 Q742.15 268.983 740.229 266.899 Q738.33 264.816 735.182 264.816 Q731.618 264.816 729.465 266.83 Q727.335 268.844 727.011 272.501 L742.196 272.478 Z" fill="#000000" fill-rule="nonzero" fill-opacity="1" /><path clip-path="url(#clip510)" d="M770.506 274.492 Q770.506 269.862 768.585 267.316 Q766.687 264.77 763.238 264.77 Q759.812 264.77 757.891 267.316 Q755.992 269.862 755.992 274.492 Q755.992 279.098 757.891 281.645 Q759.812 284.191 763.238 284.191 Q766.687 284.191 768.585 281.645 Q770.506 279.098 770.506 274.492 M774.765 284.538 Q774.765 291.158 771.826 294.376 Q768.886 297.617 762.821 297.617 Q760.576 297.617 758.585 297.27 Q756.594 296.945 754.719 296.251 L754.719 292.108 Q756.594 293.126 758.423 293.612 Q760.252 294.098 762.15 294.098 Q766.34 294.098 768.423 291.899 Q770.506 289.723 770.506 285.302 L770.506 283.196 Q769.187 285.487 767.127 286.621 Q765.066 287.756 762.196 287.756 Q757.428 287.756 754.511 284.121 Q751.594 280.487 751.594 274.492 Q751.594 268.473 754.511 264.839 Q757.428 261.205 762.196 261.205 Q765.066 261.205 767.127 262.339 Q769.187 263.473 770.506 265.765 L770.506 261.83 L774.765 261.83 L774.765 284.538 Z" fill="#000000" fill-rule="nonzero" fill-opacity="1" /><path clip-path="url(#clip510)" d="M798.562 265.811 Q797.844 265.395 796.988 265.21 Q796.154 265.001 795.136 265.001 Q791.525 265.001 789.58 267.362 Q787.659 269.7 787.659 274.098 L787.659 287.756 L783.377 287.756 L783.377 261.83 L787.659 261.83 L787.659 265.858 Q789.001 263.497 791.154 262.362 Q793.307 261.205 796.386 261.205 Q796.826 261.205 797.358 261.274 Q797.89 261.321 798.538 261.436 L798.562 265.811 Z" fill="#000000" fill-rule="nonzero" fill-opacity="1" /><path clip-path="url(#clip510)" d="M824.163 273.728 L824.163 275.811 L804.58 275.811 Q804.858 280.209 807.219 282.524 Q809.603 284.816 813.839 284.816 Q816.293 284.816 818.585 284.214 Q820.899 283.612 823.168 282.409 L823.168 286.436 Q820.876 287.408 818.469 287.918 Q816.062 288.427 813.585 288.427 Q807.381 288.427 803.747 284.816 Q800.136 281.205 800.136 275.047 Q800.136 268.682 803.562 264.955 Q807.011 261.205 812.844 261.205 Q818.075 261.205 821.108 264.585 Q824.163 267.941 824.163 273.728 M819.904 272.478 Q819.858 268.983 817.937 266.899 Q816.038 264.816 812.89 264.816 Q809.325 264.816 807.173 266.83 Q805.043 268.844 804.719 272.501 L819.904 272.478 Z" fill="#000000" fill-rule="nonzero" fill-opacity="1" /><path clip-path="url(#clip510)" d="M847.682 262.594 L847.682 266.622 Q845.876 265.696 843.932 265.233 Q841.987 264.77 839.904 264.77 Q836.733 264.77 835.135 265.742 Q833.561 266.714 833.561 268.659 Q833.561 270.14 834.696 270.997 Q835.83 271.83 839.256 272.594 L840.714 272.918 Q845.251 273.89 847.149 275.672 Q849.071 277.432 849.071 280.603 Q849.071 284.214 846.2 286.321 Q843.353 288.427 838.353 288.427 Q836.27 288.427 834.001 288.01 Q831.756 287.617 829.256 286.807 L829.256 282.409 Q831.617 283.635 833.909 284.26 Q836.2 284.862 838.446 284.862 Q841.455 284.862 843.075 283.844 Q844.696 282.802 844.696 280.927 Q844.696 279.191 843.515 278.265 Q842.358 277.339 838.399 276.483 L836.918 276.135 Q832.96 275.302 831.2 273.589 Q829.441 271.853 829.441 268.844 Q829.441 265.186 832.034 263.196 Q834.626 261.205 839.395 261.205 Q841.756 261.205 843.839 261.552 Q845.922 261.899 847.682 262.594 Z" fill="#000000" fill-rule="nonzero" fill-opacity="1" /><path clip-path="url(#clip510)" d="M872.381 262.594 L872.381 266.622 Q870.575 265.696 868.631 265.233 Q866.686 264.77 864.603 264.77 Q861.432 264.77 859.834 265.742 Q858.26 266.714 858.26 268.659 Q858.26 270.14 859.395 270.997 Q860.529 271.83 863.955 272.594 L865.413 272.918 Q869.95 273.89 871.848 275.672 Q873.77 277.432 873.77 280.603 Q873.77 284.214 870.899 286.321 Q868.052 288.427 863.052 288.427 Q860.969 288.427 858.7 288.01 Q856.455 287.617 853.955 286.807 L853.955 282.409 Q856.316 283.635 858.608 284.26 Q860.899 284.862 863.145 284.862 Q866.154 284.862 867.774 283.844 Q869.395 282.802 869.395 280.927 Q869.395 279.191 868.214 278.265 Q867.057 277.339 863.098 276.483 L861.617 276.135 Q857.659 275.302 855.899 273.589 Q854.14 271.853 854.14 268.844 Q854.14 265.186 856.733 263.196 Q859.325 261.205 864.094 261.205 Q866.455 261.205 868.538 261.552 Q870.621 261.899 872.381 262.594 Z" fill="#000000" fill-rule="nonzero" fill-opacity="1" /><path clip-path="url(#clip510)" d="M880.552 261.83 L884.811 261.83 L884.811 287.756 L880.552 287.756 L880.552 261.83 M880.552 251.737 L884.811 251.737 L884.811 257.131 L880.552 257.131 L880.552 251.737 Z" fill="#000000" fill-rule="nonzero" fill-opacity="1" /><path clip-path="url(#clip510)" d="M903.769 264.816 Q900.343 264.816 898.353 267.501 Q896.362 270.163 896.362 274.816 Q896.362 279.469 898.33 282.154 Q900.32 284.816 903.769 284.816 Q907.172 284.816 909.163 282.131 Q911.154 279.446 911.154 274.816 Q911.154 270.21 909.163 267.524 Q907.172 264.816 903.769 264.816 M903.769 261.205 Q909.325 261.205 912.496 264.816 Q915.667 268.427 915.667 274.816 Q915.667 281.182 912.496 284.816 Q909.325 288.427 903.769 288.427 Q898.191 288.427 895.019 284.816 Q891.871 281.182 891.871 274.816 Q891.871 268.427 895.019 264.816 Q898.191 261.205 903.769 261.205 Z" fill="#000000" fill-rule="nonzero" fill-opacity="1" /><path clip-path="url(#clip510)" d="M944.278 272.108 L944.278 287.756 L940.019 287.756 L940.019 272.247 Q940.019 268.566 938.584 266.737 Q937.149 264.909 934.278 264.909 Q930.829 264.909 928.839 267.108 Q926.848 269.307 926.848 273.103 L926.848 287.756 L922.566 287.756 L922.566 261.83 L926.848 261.83 L926.848 265.858 Q928.376 263.52 930.436 262.362 Q932.519 261.205 935.228 261.205 Q939.695 261.205 941.987 263.983 Q944.278 266.737 944.278 272.108 Z" fill="#000000" fill-rule="nonzero" fill-opacity="1" /><polyline clip-path="url(#clip510)" style="stroke:#3da44d; stroke-linecap:round; stroke-linejoin:round; stroke-width:4; stroke-opacity:1; fill:none" points="369.849,322.316 508.191,322.316 "/>
<path clip-path="url(#clip510)" d="M531.248 305.036 L535.924 305.036 L535.924 319.202 L552.915 319.202 L552.915 305.036 L557.591 305.036 L557.591 339.596 L552.915 339.596 L552.915 323.137 L535.924 323.137 L535.924 339.596 L531.248 339.596 L531.248 305.036 Z" fill="#000000" fill-rule="nonzero" fill-opacity="1" /><path clip-path="url(#clip510)" d="M566.896 305.036 L573.864 305.036 L582.683 328.554 L591.549 305.036 L598.516 305.036 L598.516 339.596 L593.956 339.596 L593.956 309.249 L585.044 332.952 L580.345 332.952 L571.433 309.249 L571.433 339.596 L566.896 339.596 L566.896 305.036 Z" fill="#000000" fill-rule="nonzero" fill-opacity="1" /><path clip-path="url(#clip510)" d="M607.799 305.036 L614.766 305.036 L623.586 328.554 L632.451 305.036 L639.419 305.036 L639.419 339.596 L634.859 339.596 L634.859 309.249 L625.947 332.952 L621.248 332.952 L612.336 309.249 L612.336 339.596 L607.799 339.596 L607.799 305.036 Z" fill="#000000" fill-rule="nonzero" fill-opacity="1" /></svg>
