<?xml version="1.0" encoding="utf-8"?>
<svg xmlns="http://www.w3.org/2000/svg" xmlns:xlink="http://www.w3.org/1999/xlink" width="600" height="400" viewBox="0 0 2400 1600">
<defs>
  <clipPath id="clip710">
    <rect x="0" y="0" width="2400" height="1600"/>
  </clipPath>
</defs>
<path clip-path="url(#clip710)" d="M0 1600 L2400 1600 L2400 0 L0 0  Z" fill="#ffffff" fill-rule="evenodd" fill-opacity="1"/>
<defs>
  <clipPath id="clip711">
    <rect x="480" y="0" width="1681" height="1600"/>
  </clipPath>
</defs>
<path clip-path="url(#clip710)" d="M289.119 1423.18 L2352.76 1423.18 L2352.76 123.472 L289.119 123.472  Z" fill="#ffffff" fill-rule="evenodd" fill-opacity="1"/>
<defs>
  <clipPath id="clip712">
    <rect x="289" y="123" width="2065" height="1301"/>
  </clipPath>
</defs>
<polyline clip-path="url(#clip712)" style="stroke:#000000; stroke-linecap:round; stroke-linejoin:round; stroke-width:2; stroke-opacity:0.1; fill:none" points="542.207,1423.18 542.207,123.472 "/>
<polyline clip-path="url(#clip712)" style="stroke:#000000; stroke-linecap:round; stroke-linejoin:round; stroke-width:2; stroke-opacity:0.1; fill:none" points="931.572,1423.18 931.572,123.472 "/>
<polyline clip-path="url(#clip712)" style="stroke:#000000; stroke-linecap:round; stroke-linejoin:round; stroke-width:2; stroke-opacity:0.1; fill:none" points="1320.94,1423.18 1320.94,123.472 "/>
<polyline clip-path="url(#clip712)" style="stroke:#000000; stroke-linecap:round; stroke-linejoin:round; stroke-width:2; stroke-opacity:0.1; fill:none" points="1710.3,1423.18 1710.3,123.472 "/>
<polyline clip-path="url(#clip712)" style="stroke:#000000; stroke-linecap:round; stroke-linejoin:round; stroke-width:2; stroke-opacity:0.1; fill:none" points="2099.67,1423.18 2099.67,123.472 "/>
<polyline clip-path="url(#clip712)" style="stroke:#000000; stroke-linecap:round; stroke-linejoin:round; stroke-width:2; stroke-opacity:0.05; fill:none" points="308.588,1423.18 308.588,123.472 "/>
<polyline clip-path="url(#clip712)" style="stroke:#000000; stroke-linecap:round; stroke-linejoin:round; stroke-width:2; stroke-opacity:0.05; fill:none" points="386.461,1423.18 386.461,123.472 "/>
<polyline clip-path="url(#clip712)" style="stroke:#000000; stroke-linecap:round; stroke-linejoin:round; stroke-width:2; stroke-opacity:0.05; fill:none" points="464.334,1423.18 464.334,123.472 "/>
<polyline clip-path="url(#clip712)" style="stroke:#000000; stroke-linecap:round; stroke-linejoin:round; stroke-width:2; stroke-opacity:0.05; fill:none" points="620.08,1423.18 620.08,123.472 "/>
<polyline clip-path="url(#clip712)" style="stroke:#000000; stroke-linecap:round; stroke-linejoin:round; stroke-width:2; stroke-opacity:0.05; fill:none" points="697.953,1423.18 697.953,123.472 "/>
<polyline clip-path="url(#clip712)" style="stroke:#000000; stroke-linecap:round; stroke-linejoin:round; stroke-width:2; stroke-opacity:0.05; fill:none" points="775.826,1423.18 775.826,123.472 "/>
<polyline clip-path="url(#clip712)" style="stroke:#000000; stroke-linecap:round; stroke-linejoin:round; stroke-width:2; stroke-opacity:0.05; fill:none" points="853.699,1423.18 853.699,123.472 "/>
<polyline clip-path="url(#clip712)" style="stroke:#000000; stroke-linecap:round; stroke-linejoin:round; stroke-width:2; stroke-opacity:0.05; fill:none" points="1009.45,1423.18 1009.45,123.472 "/>
<polyline clip-path="url(#clip712)" style="stroke:#000000; stroke-linecap:round; stroke-linejoin:round; stroke-width:2; stroke-opacity:0.05; fill:none" points="1087.32,1423.18 1087.32,123.472 "/>
<polyline clip-path="url(#clip712)" style="stroke:#000000; stroke-linecap:round; stroke-linejoin:round; stroke-width:2; stroke-opacity:0.05; fill:none" points="1165.19,1423.18 1165.19,123.472 "/>
<polyline clip-path="url(#clip712)" style="stroke:#000000; stroke-linecap:round; stroke-linejoin:round; stroke-width:2; stroke-opacity:0.05; fill:none" points="1243.06,1423.18 1243.06,123.472 "/>
<polyline clip-path="url(#clip712)" style="stroke:#000000; stroke-linecap:round; stroke-linejoin:round; stroke-width:2; stroke-opacity:0.05; fill:none" points="1398.81,1423.18 1398.81,123.472 "/>
<polyline clip-path="url(#clip712)" style="stroke:#000000; stroke-linecap:round; stroke-linejoin:round; stroke-width:2; stroke-opacity:0.05; fill:none" points="1476.68,1423.18 1476.68,123.472 "/>
<polyline clip-path="url(#clip712)" style="stroke:#000000; stroke-linecap:round; stroke-linejoin:round; stroke-width:2; stroke-opacity:0.05; fill:none" points="1554.56,1423.18 1554.56,123.472 "/>
<polyline clip-path="url(#clip712)" style="stroke:#000000; stroke-linecap:round; stroke-linejoin:round; stroke-width:2; stroke-opacity:0.05; fill:none" points="1632.43,1423.18 1632.43,123.472 "/>
<polyline clip-path="url(#clip712)" style="stroke:#000000; stroke-linecap:round; stroke-linejoin:round; stroke-width:2; stroke-opacity:0.05; fill:none" points="1788.18,1423.18 1788.18,123.472 "/>
<polyline clip-path="url(#clip712)" style="stroke:#000000; stroke-linecap:round; stroke-linejoin:round; stroke-width:2; stroke-opacity:0.05; fill:none" points="1866.05,1423.18 1866.05,123.472 "/>
<polyline clip-path="url(#clip712)" style="stroke:#000000; stroke-linecap:round; stroke-linejoin:round; stroke-width:2; stroke-opacity:0.05; fill:none" points="1943.92,1423.18 1943.92,123.472 "/>
<polyline clip-path="url(#clip712)" style="stroke:#000000; stroke-linecap:round; stroke-linejoin:round; stroke-width:2; stroke-opacity:0.05; fill:none" points="2021.8,1423.18 2021.8,123.472 "/>
<polyline clip-path="url(#clip712)" style="stroke:#000000; stroke-linecap:round; stroke-linejoin:round; stroke-width:2; stroke-opacity:0.05; fill:none" points="2177.54,1423.18 2177.54,123.472 "/>
<polyline clip-path="url(#clip712)" style="stroke:#000000; stroke-linecap:round; stroke-linejoin:round; stroke-width:2; stroke-opacity:0.05; fill:none" points="2255.41,1423.18 2255.41,123.472 "/>
<polyline clip-path="url(#clip712)" style="stroke:#000000; stroke-linecap:round; stroke-linejoin:round; stroke-width:2; stroke-opacity:0.05; fill:none" points="2333.29,1423.18 2333.29,123.472 "/>
<polyline clip-path="url(#clip710)" style="stroke:#000000; stroke-linecap:round; stroke-linejoin:round; stroke-width:4; stroke-opacity:1; fill:none" points="289.119,1423.18 2352.76,1423.18 "/>
<polyline clip-path="url(#clip710)" style="stroke:#000000; stroke-linecap:round; stroke-linejoin:round; stroke-width:4; stroke-opacity:1; fill:none" points="542.207,1423.18 542.207,1404.28 "/>
<polyline clip-path="url(#clip710)" style="stroke:#000000; stroke-linecap:round; stroke-linejoin:round; stroke-width:4; stroke-opacity:1; fill:none" points="931.572,1423.18 931.572,1404.28 "/>
<polyline clip-path="url(#clip710)" style="stroke:#000000; stroke-linecap:round; stroke-linejoin:round; stroke-width:4; stroke-opacity:1; fill:none" points="1320.94,1423.18 1320.94,1404.28 "/>
<polyline clip-path="url(#clip710)" style="stroke:#000000; stroke-linecap:round; stroke-linejoin:round; stroke-width:4; stroke-opacity:1; fill:none" points="1710.3,1423.18 1710.3,1404.28 "/>
<polyline clip-path="url(#clip710)" style="stroke:#000000; stroke-linecap:round; stroke-linejoin:round; stroke-width:4; stroke-opacity:1; fill:none" points="2099.67,1423.18 2099.67,1404.28 "/>
<polyline clip-path="url(#clip710)" style="stroke:#000000; stroke-linecap:round; stroke-linejoin:round; stroke-width:4; stroke-opacity:1; fill:none" points="308.588,1423.18 308.588,1413.73 "/>
<polyline clip-path="url(#clip710)" style="stroke:#000000; stroke-linecap:round; stroke-linejoin:round; stroke-width:4; stroke-opacity:1; fill:none" points="386.461,1423.18 386.461,1413.73 "/>
<polyline clip-path="url(#clip710)" style="stroke:#000000; stroke-linecap:round; stroke-linejoin:round; stroke-width:4; stroke-opacity:1; fill:none" points="464.334,1423.18 464.334,1413.73 "/>
<polyline clip-path="url(#clip710)" style="stroke:#000000; stroke-linecap:round; stroke-linejoin:round; stroke-width:4; stroke-opacity:1; fill:none" points="620.08,1423.18 620.08,1413.73 "/>
<polyline clip-path="url(#clip710)" style="stroke:#000000; stroke-linecap:round; stroke-linejoin:round; stroke-width:4; stroke-opacity:1; fill:none" points="697.953,1423.18 697.953,1413.73 "/>
<polyline clip-path="url(#clip710)" style="stroke:#000000; stroke-linecap:round; stroke-linejoin:round; stroke-width:4; stroke-opacity:1; fill:none" points="775.826,1423.18 775.826,1413.73 "/>
<polyline clip-path="url(#clip710)" style="stroke:#000000; stroke-linecap:round; stroke-linejoin:round; stroke-width:4; stroke-opacity:1; fill:none" points="853.699,1423.18 853.699,1413.73 "/>
<polyline clip-path="url(#clip710)" style="stroke:#000000; stroke-linecap:round; stroke-linejoin:round; stroke-width:4; stroke-opacity:1; fill:none" points="1009.45,1423.18 1009.45,1413.73 "/>
<polyline clip-path="url(#clip710)" style="stroke:#000000; stroke-linecap:round; stroke-linejoin:round; stroke-width:4; stroke-opacity:1; fill:none" points="1087.32,1423.18 1087.32,1413.73 "/>
<polyline clip-path="url(#clip710)" style="stroke:#000000; stroke-linecap:round; stroke-linejoin:round; stroke-width:4; stroke-opacity:1; fill:none" points="1165.19,1423.18 1165.19,1413.73 "/>
<polyline clip-path="url(#clip710)" style="stroke:#000000; stroke-linecap:round; stroke-linejoin:round; stroke-width:4; stroke-opacity:1; fill:none" points="1243.06,1423.18 1243.06,1413.73 "/>
<polyline clip-path="url(#clip710)" style="stroke:#000000; stroke-linecap:round; stroke-linejoin:round; stroke-width:4; stroke-opacity:1; fill:none" points="1398.81,1423.18 1398.81,1413.73 "/>
<polyline clip-path="url(#clip710)" style="stroke:#000000; stroke-linecap:round; stroke-linejoin:round; stroke-width:4; stroke-opacity:1; fill:none" points="1476.68,1423.18 1476.68,1413.73 "/>
<polyline clip-path="url(#clip710)" style="stroke:#000000; stroke-linecap:round; stroke-linejoin:round; stroke-width:4; stroke-opacity:1; fill:none" points="1554.56,1423.18 1554.56,1413.73 "/>
<polyline clip-path="url(#clip710)" style="stroke:#000000; stroke-linecap:round; stroke-linejoin:round; stroke-width:4; stroke-opacity:1; fill:none" points="1632.43,1423.18 1632.43,1413.73 "/>
<polyline clip-path="url(#clip710)" style="stroke:#000000; stroke-linecap:round; stroke-linejoin:round; stroke-width:4; stroke-opacity:1; fill:none" points="1788.18,1423.18 1788.18,1413.73 "/>
<polyline clip-path="url(#clip710)" style="stroke:#000000; stroke-linecap:round; stroke-linejoin:round; stroke-width:4; stroke-opacity:1; fill:none" points="1866.05,1423.18 1866.05,1413.73 "/>
<polyline clip-path="url(#clip710)" style="stroke:#000000; stroke-linecap:round; stroke-linejoin:round; stroke-width:4; stroke-opacity:1; fill:none" points="1943.92,1423.18 1943.92,1413.73 "/>
<polyline clip-path="url(#clip710)" style="stroke:#000000; stroke-linecap:round; stroke-linejoin:round; stroke-width:4; stroke-opacity:1; fill:none" points="2021.8,1423.18 2021.8,1413.73 "/>
<polyline clip-path="url(#clip710)" style="stroke:#000000; stroke-linecap:round; stroke-linejoin:round; stroke-width:4; stroke-opacity:1; fill:none" points="2177.54,1423.18 2177.54,1413.73 "/>
<polyline clip-path="url(#clip710)" style="stroke:#000000; stroke-linecap:round; stroke-linejoin:round; stroke-width:4; stroke-opacity:1; fill:none" points="2255.41,1423.18 2255.41,1413.73 "/>
<polyline clip-path="url(#clip710)" style="stroke:#000000; stroke-linecap:round; stroke-linejoin:round; stroke-width:4; stroke-opacity:1; fill:none" points="2333.29,1423.18 2333.29,1413.73 "/>
<path clip-path="url(#clip710)" d="M516.813 1481.64 L524.452 1481.64 L524.452 1455.28 L516.142 1456.95 L516.142 1452.69 L524.406 1451.02 L529.082 1451.02 L529.082 1481.64 L536.721 1481.64 L536.721 1485.58 L516.813 1485.58 L516.813 1481.64 Z" fill="#000000" fill-rule="nonzero" fill-opacity="1" /><path clip-path="url(#clip710)" d="M556.744 1466.44 Q553.596 1466.44 551.744 1468.59 Q549.915 1470.74 549.915 1474.49 Q549.915 1478.22 551.744 1480.39 Q553.596 1482.55 556.744 1482.55 Q559.892 1482.55 561.721 1480.39 Q563.572 1478.22 563.572 1474.49 Q563.572 1470.74 561.721 1468.59 Q559.892 1466.44 556.744 1466.44 M566.026 1451.78 L566.026 1456.04 Q564.267 1455.21 562.461 1454.77 Q560.679 1454.33 558.92 1454.33 Q554.29 1454.33 551.836 1457.45 Q549.406 1460.58 549.059 1466.9 Q550.424 1464.89 552.485 1463.82 Q554.545 1462.73 557.022 1462.73 Q562.23 1462.73 565.239 1465.9 Q568.272 1469.05 568.272 1474.49 Q568.272 1479.82 565.123 1483.03 Q561.975 1486.25 556.744 1486.25 Q550.748 1486.25 547.577 1481.67 Q544.406 1477.06 544.406 1468.33 Q544.406 1460.14 548.295 1455.28 Q552.184 1450.39 558.735 1450.39 Q560.494 1450.39 562.276 1450.74 Q564.082 1451.09 566.026 1451.78 Z" fill="#000000" fill-rule="nonzero" fill-opacity="1" /><path clip-path="url(#clip710)" d="M906.306 1481.64 L913.945 1481.64 L913.945 1455.28 L905.635 1456.95 L905.635 1452.69 L913.899 1451.02 L918.575 1451.02 L918.575 1481.64 L926.213 1481.64 L926.213 1485.58 L906.306 1485.58 L906.306 1481.64 Z" fill="#000000" fill-rule="nonzero" fill-opacity="1" /><path clip-path="url(#clip710)" d="M945.658 1469.17 Q942.325 1469.17 940.403 1470.95 Q938.505 1472.73 938.505 1475.86 Q938.505 1478.98 940.403 1480.77 Q942.325 1482.55 945.658 1482.55 Q948.991 1482.55 950.912 1480.77 Q952.834 1478.96 952.834 1475.86 Q952.834 1472.73 950.912 1470.95 Q949.014 1469.17 945.658 1469.17 M940.982 1467.18 Q937.973 1466.44 936.283 1464.38 Q934.616 1462.32 934.616 1459.35 Q934.616 1455.21 937.556 1452.8 Q940.519 1450.39 945.658 1450.39 Q950.82 1450.39 953.76 1452.8 Q956.699 1455.21 956.699 1459.35 Q956.699 1462.32 955.01 1464.38 Q953.343 1466.44 950.357 1467.18 Q953.736 1467.96 955.611 1470.26 Q957.51 1472.55 957.51 1475.86 Q957.51 1480.88 954.431 1483.57 Q951.375 1486.25 945.658 1486.25 Q939.94 1486.25 936.862 1483.57 Q933.806 1480.88 933.806 1475.86 Q933.806 1472.55 935.704 1470.26 Q937.602 1467.96 940.982 1467.18 M939.269 1459.79 Q939.269 1462.48 940.936 1463.98 Q942.625 1465.49 945.658 1465.49 Q948.667 1465.49 950.357 1463.98 Q952.07 1462.48 952.07 1459.79 Q952.07 1457.11 950.357 1455.6 Q948.667 1454.1 945.658 1454.1 Q942.625 1454.1 940.936 1455.6 Q939.269 1457.11 939.269 1459.79 Z" fill="#000000" fill-rule="nonzero" fill-opacity="1" /><path clip-path="url(#clip710)" d="M1299.71 1481.64 L1316.03 1481.64 L1316.03 1485.58 L1294.09 1485.58 L1294.09 1481.64 Q1296.75 1478.89 1301.33 1474.26 Q1305.94 1469.61 1307.12 1468.27 Q1309.36 1465.74 1310.24 1464.01 Q1311.15 1462.25 1311.15 1460.56 Q1311.15 1457.8 1309.2 1456.07 Q1307.28 1454.33 1304.18 1454.33 Q1301.98 1454.33 1299.53 1455.09 Q1297.1 1455.86 1294.32 1457.41 L1294.32 1452.69 Q1297.14 1451.55 1299.6 1450.97 Q1302.05 1450.39 1304.09 1450.39 Q1309.46 1450.39 1312.65 1453.08 Q1315.85 1455.77 1315.85 1460.26 Q1315.85 1462.39 1315.03 1464.31 Q1314.25 1466.2 1312.14 1468.8 Q1311.56 1469.47 1308.46 1472.69 Q1305.36 1475.88 1299.71 1481.64 Z" fill="#000000" fill-rule="nonzero" fill-opacity="1" /><path clip-path="url(#clip710)" d="M1335.84 1454.1 Q1332.23 1454.1 1330.41 1457.66 Q1328.6 1461.2 1328.6 1468.33 Q1328.6 1475.44 1330.41 1479.01 Q1332.23 1482.55 1335.84 1482.55 Q1339.48 1482.55 1341.28 1479.01 Q1343.11 1475.44 1343.11 1468.33 Q1343.11 1461.2 1341.28 1457.66 Q1339.48 1454.1 1335.84 1454.1 M1335.84 1450.39 Q1341.66 1450.39 1344.71 1455 Q1347.79 1459.58 1347.79 1468.33 Q1347.79 1477.06 1344.71 1481.67 Q1341.66 1486.25 1335.84 1486.25 Q1330.03 1486.25 1326.96 1481.67 Q1323.9 1477.06 1323.9 1468.33 Q1323.9 1459.58 1326.96 1455 Q1330.03 1450.39 1335.84 1450.39 Z" fill="#000000" fill-rule="nonzero" fill-opacity="1" /><path clip-path="url(#clip710)" d="M1689.87 1481.64 L1706.19 1481.64 L1706.19 1485.58 L1684.25 1485.58 L1684.25 1481.64 Q1686.91 1478.89 1691.5 1474.26 Q1696.1 1469.61 1697.28 1468.27 Q1699.53 1465.74 1700.41 1464.01 Q1701.31 1462.25 1701.31 1460.56 Q1701.31 1457.8 1699.37 1456.07 Q1697.44 1454.33 1694.34 1454.33 Q1692.14 1454.33 1689.69 1455.09 Q1687.26 1455.86 1684.48 1457.41 L1684.48 1452.69 Q1687.31 1451.55 1689.76 1450.97 Q1692.21 1450.39 1694.25 1450.39 Q1699.62 1450.39 1702.81 1453.08 Q1706.01 1455.77 1706.01 1460.26 Q1706.01 1462.39 1705.2 1464.31 Q1704.41 1466.2 1702.31 1468.8 Q1701.73 1469.47 1698.62 1472.69 Q1695.52 1475.88 1689.87 1481.64 Z" fill="#000000" fill-rule="nonzero" fill-opacity="1" /><path clip-path="url(#clip710)" d="M1720.04 1481.64 L1736.36 1481.64 L1736.36 1485.58 L1714.41 1485.58 L1714.41 1481.64 Q1717.07 1478.89 1721.66 1474.26 Q1726.26 1469.61 1727.44 1468.27 Q1729.69 1465.74 1730.57 1464.01 Q1731.47 1462.25 1731.47 1460.56 Q1731.47 1457.8 1729.53 1456.07 Q1727.61 1454.33 1724.5 1454.33 Q1722.31 1454.33 1719.85 1455.09 Q1717.42 1455.86 1714.64 1457.41 L1714.64 1452.69 Q1717.47 1451.55 1719.92 1450.97 Q1722.37 1450.39 1724.41 1450.39 Q1729.78 1450.39 1732.98 1453.08 Q1736.17 1455.77 1736.17 1460.26 Q1736.17 1462.39 1735.36 1464.31 Q1734.57 1466.2 1732.47 1468.8 Q1731.89 1469.47 1728.79 1472.69 Q1725.68 1475.88 1720.04 1481.64 Z" fill="#000000" fill-rule="nonzero" fill-opacity="1" /><path clip-path="url(#clip710)" d="M2078.2 1481.64 L2094.52 1481.64 L2094.52 1485.58 L2072.57 1485.58 L2072.57 1481.64 Q2075.24 1478.89 2079.82 1474.26 Q2084.43 1469.61 2085.61 1468.27 Q2087.85 1465.74 2088.73 1464.01 Q2089.63 1462.25 2089.63 1460.56 Q2089.63 1457.8 2087.69 1456.07 Q2085.77 1454.33 2082.67 1454.33 Q2080.47 1454.33 2078.01 1455.09 Q2075.58 1455.86 2072.81 1457.41 L2072.81 1452.69 Q2075.63 1451.55 2078.08 1450.97 Q2080.54 1450.39 2082.57 1450.39 Q2087.94 1450.39 2091.14 1453.08 Q2094.33 1455.77 2094.33 1460.26 Q2094.33 1462.39 2093.52 1464.31 Q2092.74 1466.2 2090.63 1468.8 Q2090.05 1469.47 2086.95 1472.69 Q2083.85 1475.88 2078.2 1481.64 Z" fill="#000000" fill-rule="nonzero" fill-opacity="1" /><path clip-path="url(#clip710)" d="M2117.18 1455.09 L2105.37 1473.54 L2117.18 1473.54 L2117.18 1455.09 M2115.95 1451.02 L2121.83 1451.02 L2121.83 1473.54 L2126.76 1473.54 L2126.76 1477.43 L2121.83 1477.43 L2121.83 1485.58 L2117.18 1485.58 L2117.18 1477.43 L2101.58 1477.43 L2101.58 1472.92 L2115.95 1451.02 Z" fill="#000000" fill-rule="nonzero" fill-opacity="1" /><path clip-path="url(#clip710)" d="M1235.76 1546.53 L1235.76 1568.04 L1229.91 1568.04 L1229.91 1546.72 Q1229.91 1541.66 1227.93 1539.14 Q1225.96 1536.63 1222.01 1536.63 Q1217.27 1536.63 1214.53 1539.65 Q1211.8 1542.68 1211.8 1547.9 L1211.8 1568.04 L1205.91 1568.04 L1205.91 1518.52 L1211.8 1518.52 L1211.8 1537.93 Q1213.9 1534.72 1216.73 1533.13 Q1219.6 1531.54 1223.32 1531.54 Q1229.46 1531.54 1232.61 1535.36 Q1235.76 1539.14 1235.76 1546.53 Z" fill="#000000" fill-rule="nonzero" fill-opacity="1" /><path clip-path="url(#clip710)" d="M1261.26 1536.5 Q1256.55 1536.5 1253.81 1540.19 Q1251.07 1543.85 1251.07 1550.25 Q1251.07 1556.65 1253.78 1560.34 Q1256.52 1564 1261.26 1564 Q1265.94 1564 1268.68 1560.31 Q1271.41 1556.62 1271.41 1550.25 Q1271.41 1543.92 1268.68 1540.23 Q1265.94 1536.5 1261.26 1536.5 M1261.26 1531.54 Q1268.9 1531.54 1273.26 1536.5 Q1277.62 1541.47 1277.62 1550.25 Q1277.62 1559 1273.26 1564 Q1268.9 1568.97 1261.26 1568.97 Q1253.59 1568.97 1249.23 1564 Q1244.9 1559 1244.9 1550.25 Q1244.9 1541.47 1249.23 1536.5 Q1253.59 1531.54 1261.26 1531.54 Z" fill="#000000" fill-rule="nonzero" fill-opacity="1" /><path clip-path="url(#clip710)" d="M1307.98 1537.87 Q1307 1537.3 1305.82 1537.04 Q1304.67 1536.76 1303.27 1536.76 Q1298.31 1536.76 1295.63 1540 Q1292.99 1543.22 1292.99 1549.27 L1292.99 1568.04 L1287.1 1568.04 L1287.1 1532.4 L1292.99 1532.4 L1292.99 1537.93 Q1294.84 1534.69 1297.8 1533.13 Q1300.76 1531.54 1304.99 1531.54 Q1305.6 1531.54 1306.33 1531.63 Q1307.06 1531.7 1307.95 1531.85 L1307.98 1537.87 Z" fill="#000000" fill-rule="nonzero" fill-opacity="1" /><path clip-path="url(#clip710)" d="M1314.13 1532.4 L1319.98 1532.4 L1319.98 1568.04 L1314.13 1568.04 L1314.13 1532.4 M1314.13 1518.52 L1319.98 1518.52 L1319.98 1525.93 L1314.13 1525.93 L1314.13 1518.52 Z" fill="#000000" fill-rule="nonzero" fill-opacity="1" /><path clip-path="url(#clip710)" d="M1329.69 1532.4 L1357.51 1532.4 L1357.51 1537.74 L1335.48 1563.37 L1357.51 1563.37 L1357.51 1568.04 L1328.89 1568.04 L1328.89 1562.7 L1350.92 1537.07 L1329.69 1537.07 L1329.69 1532.4 Z" fill="#000000" fill-rule="nonzero" fill-opacity="1" /><path clip-path="url(#clip710)" d="M1380.27 1536.5 Q1375.56 1536.5 1372.82 1540.19 Q1370.08 1543.85 1370.08 1550.25 Q1370.08 1556.65 1372.79 1560.34 Q1375.52 1564 1380.27 1564 Q1384.94 1564 1387.68 1560.31 Q1390.42 1556.62 1390.42 1550.25 Q1390.42 1543.92 1387.68 1540.23 Q1384.94 1536.5 1380.27 1536.5 M1380.27 1531.54 Q1387.9 1531.54 1392.27 1536.5 Q1396.63 1541.47 1396.63 1550.25 Q1396.63 1559 1392.27 1564 Q1387.9 1568.97 1380.27 1568.97 Q1372.6 1568.97 1368.23 1564 Q1363.91 1559 1363.91 1550.25 Q1363.91 1541.47 1368.23 1536.5 Q1372.6 1531.54 1380.27 1531.54 Z" fill="#000000" fill-rule="nonzero" fill-opacity="1" /><path clip-path="url(#clip710)" d="M1435.97 1546.53 L1435.97 1568.04 L1430.11 1568.04 L1430.11 1546.72 Q1430.11 1541.66 1428.14 1539.14 Q1426.16 1536.63 1422.22 1536.63 Q1417.47 1536.63 1414.74 1539.65 Q1412 1542.68 1412 1547.9 L1412 1568.04 L1406.11 1568.04 L1406.11 1532.4 L1412 1532.4 L1412 1537.93 Q1414.1 1534.72 1416.93 1533.13 Q1419.8 1531.54 1423.52 1531.54 Q1429.66 1531.54 1432.81 1535.36 Q1435.97 1539.14 1435.97 1546.53 Z" fill="#000000" fill-rule="nonzero" fill-opacity="1" /><polyline clip-path="url(#clip712)" style="stroke:#000000; stroke-linecap:round; stroke-linejoin:round; stroke-width:2; stroke-opacity:0.1; fill:none" points="289.119,1171.19 2352.76,1171.19 "/>
<polyline clip-path="url(#clip712)" style="stroke:#000000; stroke-linecap:round; stroke-linejoin:round; stroke-width:2; stroke-opacity:0.1; fill:none" points="289.119,628.847 2352.76,628.847 "/>
<polyline clip-path="url(#clip710)" style="stroke:#000000; stroke-linecap:round; stroke-linejoin:round; stroke-width:4; stroke-opacity:1; fill:none" points="289.119,1423.18 289.119,123.472 "/>
<polyline clip-path="url(#clip710)" style="stroke:#000000; stroke-linecap:round; stroke-linejoin:round; stroke-width:4; stroke-opacity:1; fill:none" points="289.119,1171.19 308.017,1171.19 "/>
<polyline clip-path="url(#clip710)" style="stroke:#000000; stroke-linecap:round; stroke-linejoin:round; stroke-width:4; stroke-opacity:1; fill:none" points="289.119,628.847 308.017,628.847 "/>
<path clip-path="url(#clip710)" d="M114.931 1190.98 L122.57 1190.98 L122.57 1164.61 L114.26 1166.28 L114.26 1162.02 L122.524 1160.35 L127.2 1160.35 L127.2 1190.98 L134.839 1190.98 L134.839 1194.91 L114.931 1194.91 L114.931 1190.98 Z" fill="#000000" fill-rule="nonzero" fill-opacity="1" /><path clip-path="url(#clip710)" d="M154.283 1163.43 Q150.672 1163.43 148.843 1167 Q147.038 1170.54 147.038 1177.67 Q147.038 1184.77 148.843 1188.34 Q150.672 1191.88 154.283 1191.88 Q157.917 1191.88 159.723 1188.34 Q161.552 1184.77 161.552 1177.67 Q161.552 1170.54 159.723 1167 Q157.917 1163.43 154.283 1163.43 M154.283 1159.73 Q160.093 1159.73 163.149 1164.33 Q166.227 1168.92 166.227 1177.67 Q166.227 1186.39 163.149 1191 Q160.093 1195.58 154.283 1195.58 Q148.473 1195.58 145.394 1191 Q142.339 1186.39 142.339 1177.67 Q142.339 1168.92 145.394 1164.33 Q148.473 1159.73 154.283 1159.73 Z" fill="#000000" fill-rule="nonzero" fill-opacity="1" /><path clip-path="url(#clip710)" d="M166.227 1153.83 L190.339 1153.83 L190.339 1157.03 L166.227 1157.03 L166.227 1153.83 Z" fill="#000000" fill-rule="nonzero" fill-opacity="1" /><path clip-path="url(#clip710)" d="M210.05 1152.36 Q212.777 1152.95 214.3 1154.79 Q215.842 1156.63 215.842 1159.34 Q215.842 1163.5 212.984 1165.77 Q210.125 1168.05 204.859 1168.05 Q203.091 1168.05 201.21 1167.69 Q199.348 1167.35 197.354 1166.66 L197.354 1162.99 Q198.934 1163.91 200.815 1164.38 Q202.696 1164.85 204.746 1164.85 Q208.319 1164.85 210.181 1163.44 Q212.062 1162.03 212.062 1159.34 Q212.062 1156.86 210.313 1155.47 Q208.583 1154.06 205.479 1154.06 L202.207 1154.06 L202.207 1150.93 L205.63 1150.93 Q208.432 1150.93 209.918 1149.82 Q211.404 1148.69 211.404 1146.59 Q211.404 1144.43 209.861 1143.28 Q208.338 1142.11 205.479 1142.11 Q203.918 1142.11 202.132 1142.45 Q200.345 1142.79 198.201 1143.5 L198.201 1140.12 Q200.364 1139.52 202.244 1139.22 Q204.144 1138.91 205.818 1138.91 Q210.144 1138.91 212.664 1140.89 Q215.184 1142.85 215.184 1146.19 Q215.184 1148.53 213.849 1150.14 Q212.513 1151.74 210.05 1152.36 Z" fill="#000000" fill-rule="nonzero" fill-opacity="1" /><path clip-path="url(#clip710)" d="M223.046 1162.73 L227.014 1162.73 L227.014 1167.5 L223.046 1167.5 L223.046 1162.73 Z" fill="#000000" fill-rule="nonzero" fill-opacity="1" /><path clip-path="url(#clip710)" d="M243.415 1141.92 Q240.481 1141.92 238.995 1144.82 Q237.528 1147.7 237.528 1153.49 Q237.528 1159.26 238.995 1162.16 Q240.481 1165.04 243.415 1165.04 Q246.367 1165.04 247.834 1162.16 Q249.32 1159.26 249.32 1153.49 Q249.32 1147.7 247.834 1144.82 Q246.367 1141.92 243.415 1141.92 M243.415 1138.91 Q248.135 1138.91 250.618 1142.66 Q253.119 1146.38 253.119 1153.49 Q253.119 1160.58 250.618 1164.32 Q248.135 1168.05 243.415 1168.05 Q238.694 1168.05 236.192 1164.32 Q233.71 1160.58 233.71 1153.49 Q233.71 1146.38 236.192 1142.66 Q238.694 1138.91 243.415 1138.91 Z" fill="#000000" fill-rule="nonzero" fill-opacity="1" /><path clip-path="url(#clip710)" d="M115.74 648.64 L123.379 648.64 L123.379 622.274 L115.069 623.941 L115.069 619.682 L123.333 618.015 L128.009 618.015 L128.009 648.64 L135.647 648.64 L135.647 652.575 L115.74 652.575 L115.74 648.64 Z" fill="#000000" fill-rule="nonzero" fill-opacity="1" /><path clip-path="url(#clip710)" d="M155.092 621.094 Q151.481 621.094 149.652 624.658 Q147.846 628.2 147.846 635.33 Q147.846 642.436 149.652 646.001 Q151.481 649.543 155.092 649.543 Q158.726 649.543 160.532 646.001 Q162.36 642.436 162.36 635.33 Q162.36 628.2 160.532 624.658 Q158.726 621.094 155.092 621.094 M155.092 617.39 Q160.902 617.39 163.958 621.996 Q167.036 626.58 167.036 635.33 Q167.036 644.057 163.958 648.663 Q160.902 653.246 155.092 653.246 Q149.282 653.246 146.203 648.663 Q143.147 644.057 143.147 635.33 Q143.147 626.58 146.203 621.996 Q149.282 617.39 155.092 617.39 Z" fill="#000000" fill-rule="nonzero" fill-opacity="1" /><path clip-path="url(#clip710)" d="M167.036 611.491 L191.148 611.491 L191.148 614.689 L167.036 614.689 L167.036 611.491 Z" fill="#000000" fill-rule="nonzero" fill-opacity="1" /><path clip-path="url(#clip710)" d="M202.621 621.967 L215.88 621.967 L215.88 625.165 L198.05 625.165 L198.05 621.967 Q200.213 619.729 203.937 615.968 Q207.68 612.187 208.639 611.096 Q210.463 609.046 211.178 607.636 Q211.912 606.206 211.912 604.833 Q211.912 602.595 210.332 601.185 Q208.771 599.774 206.25 599.774 Q204.464 599.774 202.47 600.395 Q200.495 601.015 198.238 602.276 L198.238 598.439 Q200.533 597.517 202.526 597.047 Q204.52 596.577 206.175 596.577 Q210.539 596.577 213.134 598.758 Q215.73 600.94 215.73 604.589 Q215.73 606.319 215.071 607.88 Q214.432 609.422 212.72 611.529 Q212.25 612.074 209.73 614.689 Q207.21 617.284 202.621 621.967 Z" fill="#000000" fill-rule="nonzero" fill-opacity="1" /><path clip-path="url(#clip710)" d="M223.854 620.387 L227.823 620.387 L227.823 625.165 L223.854 625.165 L223.854 620.387 Z" fill="#000000" fill-rule="nonzero" fill-opacity="1" /><path clip-path="url(#clip710)" d="M236.136 597.085 L251.051 597.085 L251.051 600.282 L239.615 600.282 L239.615 607.166 Q240.443 606.883 241.27 606.752 Q242.098 606.601 242.926 606.601 Q247.627 606.601 250.373 609.178 Q253.119 611.755 253.119 616.156 Q253.119 620.688 250.298 623.209 Q247.477 625.71 242.343 625.71 Q240.575 625.71 238.731 625.409 Q236.907 625.108 234.951 624.506 L234.951 620.688 Q236.644 621.61 238.449 622.061 Q240.255 622.513 242.267 622.513 Q245.521 622.513 247.421 620.801 Q249.32 619.09 249.32 616.156 Q249.32 613.222 247.421 611.51 Q245.521 609.799 242.267 609.799 Q240.744 609.799 239.22 610.137 Q237.716 610.476 236.136 611.19 L236.136 597.085 Z" fill="#000000" fill-rule="nonzero" fill-opacity="1" /><path clip-path="url(#clip710)" d="M16.4842 839.052 L16.4842 829.472 L48.8219 817.345 L16.4842 805.155 L16.4842 795.574 L64.0042 795.574 L64.0042 801.844 L22.277 801.844 L54.8694 814.098 L54.8694 820.56 L22.277 832.814 L64.0042 832.814 L64.0042 839.052 L16.4842 839.052 Z" fill="#000000" fill-rule="nonzero" fill-opacity="1" /><path clip-path="url(#clip710)" d="M22.818 766.928 L46.4666 775.649 L46.4666 758.176 L22.818 766.928 M16.4842 770.557 L16.4842 763.268 L64.0042 745.158 L64.0042 751.842 L51.8138 756.17 L51.8138 777.591 L64.0042 781.92 L64.0042 788.699 L16.4842 770.557 Z" fill="#000000" fill-rule="nonzero" fill-opacity="1" /><path clip-path="url(#clip710)" d="M16.4842 738.219 L16.4842 708.173 L21.895 708.173 L21.895 731.79 L35.9632 731.79 L35.9632 709.16 L41.3741 709.16 L41.3741 731.79 L58.5933 731.79 L58.5933 707.6 L64.0042 707.6 L64.0042 738.219 L16.4842 738.219 Z" fill="#000000" fill-rule="nonzero" fill-opacity="1" /><path clip-path="url(#clip710)" d="M220.915 12.096 L233.108 12.096 L248.542 53.2532 L264.057 12.096 L276.25 12.096 L276.25 72.576 L268.27 72.576 L268.27 19.4686 L252.674 60.9499 L244.45 60.9499 L228.854 19.4686 L228.854 72.576 L220.915 72.576 L220.915 12.096 Z" fill="#000000" fill-rule="nonzero" fill-opacity="1" /><path clip-path="url(#clip710)" d="M330.978 48.0275 L330.978 51.6733 L296.707 51.6733 Q297.193 59.3701 301.325 63.421 Q305.497 67.4314 312.911 67.4314 Q317.205 67.4314 321.215 66.3781 Q325.266 65.3249 329.236 63.2184 L329.236 70.267 Q325.225 71.9684 321.012 72.8596 Q316.799 73.7508 312.465 73.7508 Q301.609 73.7508 295.249 67.4314 Q288.929 61.1119 288.929 50.3365 Q288.929 39.1965 294.925 32.6746 Q300.96 26.1121 311.169 26.1121 Q320.324 26.1121 325.63 32.0264 Q330.978 37.9003 330.978 48.0275 M323.524 45.84 Q323.443 39.7232 320.081 36.0774 Q316.759 32.4315 311.25 32.4315 Q305.011 32.4315 301.244 35.9558 Q297.517 39.4801 296.95 45.8805 L323.524 45.84 Z" fill="#000000" fill-rule="nonzero" fill-opacity="1" /><path clip-path="url(#clip710)" d="M363.83 49.7694 Q354.797 49.7694 351.313 51.8354 Q347.829 53.9013 347.829 58.8839 Q347.829 62.8538 350.422 65.2034 Q353.055 67.5124 357.552 67.5124 Q363.749 67.5124 367.476 63.1374 Q371.244 58.7219 371.244 51.4303 L371.244 49.7694 L363.83 49.7694 M378.697 46.6907 L378.697 72.576 L371.244 72.576 L371.244 65.6895 Q368.692 69.8214 364.884 71.8063 Q361.076 73.7508 355.567 73.7508 Q348.599 73.7508 344.467 69.8619 Q340.376 65.9325 340.376 59.3701 Q340.376 51.7138 345.48 47.825 Q350.625 43.9361 360.792 43.9361 L371.244 43.9361 L371.244 43.2069 Q371.244 38.0623 367.841 35.2672 Q364.479 32.4315 358.362 32.4315 Q354.473 32.4315 350.787 33.3632 Q347.1 34.295 343.698 36.1584 L343.698 29.2718 Q347.789 27.692 351.637 26.9223 Q355.486 26.1121 359.131 26.1121 Q368.975 26.1121 373.836 31.2163 Q378.697 36.3204 378.697 46.6907 Z" fill="#000000" fill-rule="nonzero" fill-opacity="1" /><path clip-path="url(#clip710)" d="M431.764 45.1919 L431.764 72.576 L424.31 72.576 L424.31 45.4349 Q424.31 38.994 421.799 35.7938 Q419.287 32.5936 414.264 32.5936 Q408.228 32.5936 404.745 36.4419 Q401.261 40.2903 401.261 46.9338 L401.261 72.576 L393.767 72.576 L393.767 27.2059 L401.261 27.2059 L401.261 34.2544 Q403.934 30.163 407.54 28.1376 Q411.186 26.1121 415.925 26.1121 Q423.743 26.1121 427.754 30.9732 Q431.764 35.7938 431.764 45.1919 Z" fill="#000000" fill-rule="nonzero" fill-opacity="1" /><path clip-path="url(#clip710)" d="M502.007 44.2197 Q504.64 45.1109 507.111 48.0275 Q509.623 50.9442 512.134 56.0483 L520.438 72.576 L511.648 72.576 L503.911 57.061 Q500.913 50.9847 498.077 48.9997 Q495.282 47.0148 490.421 47.0148 L481.509 47.0148 L481.509 72.576 L473.326 72.576 L473.326 12.096 L491.799 12.096 Q502.169 12.096 507.273 16.4305 Q512.377 20.7649 512.377 29.5149 Q512.377 35.2267 509.704 38.994 Q507.07 42.7613 502.007 44.2197 M481.509 18.8205 L481.509 40.2903 L491.799 40.2903 Q497.713 40.2903 500.711 37.5762 Q503.749 34.8216 503.749 29.5149 Q503.749 24.2082 500.711 21.5346 Q497.713 18.8205 491.799 18.8205 L481.509 18.8205 Z" fill="#000000" fill-rule="nonzero" fill-opacity="1" /><path clip-path="url(#clip710)" d="M565.728 48.0275 L565.728 51.6733 L531.457 51.6733 Q531.943 59.3701 536.075 63.421 Q540.247 67.4314 547.661 67.4314 Q551.954 67.4314 555.965 66.3781 Q560.016 65.3249 563.986 63.2184 L563.986 70.267 Q559.975 71.9684 555.762 72.8596 Q551.549 73.7508 547.215 73.7508 Q536.359 73.7508 529.999 67.4314 Q523.679 61.1119 523.679 50.3365 Q523.679 39.1965 529.675 32.6746 Q535.71 26.1121 545.919 26.1121 Q555.074 26.1121 560.38 32.0264 Q565.728 37.9003 565.728 48.0275 M558.274 45.84 Q558.193 39.7232 554.831 36.0774 Q551.509 32.4315 546 32.4315 Q539.761 32.4315 535.994 35.9558 Q532.267 39.4801 531.7 45.8805 L558.274 45.84 Z" fill="#000000" fill-rule="nonzero" fill-opacity="1" /><path clip-path="url(#clip710)" d="M577.961 9.54393 L585.415 9.54393 L585.415 72.576 L577.961 72.576 L577.961 9.54393 Z" fill="#000000" fill-rule="nonzero" fill-opacity="1" /><path clip-path="url(#clip710)" d="M621.63 49.7694 Q612.597 49.7694 609.113 51.8354 Q605.629 53.9013 605.629 58.8839 Q605.629 62.8538 608.222 65.2034 Q610.855 67.5124 615.351 67.5124 Q621.549 67.5124 625.276 63.1374 Q629.043 58.7219 629.043 51.4303 L629.043 49.7694 L621.63 49.7694 M636.497 46.6907 L636.497 72.576 L629.043 72.576 L629.043 65.6895 Q626.491 69.8214 622.683 71.8063 Q618.875 73.7508 613.366 73.7508 Q606.399 73.7508 602.267 69.8619 Q598.175 65.9325 598.175 59.3701 Q598.175 51.7138 603.279 47.825 Q608.424 43.9361 618.592 43.9361 L629.043 43.9361 L629.043 43.2069 Q629.043 38.0623 625.64 35.2672 Q622.278 32.4315 616.161 32.4315 Q612.272 32.4315 608.586 33.3632 Q604.9 34.295 601.497 36.1584 L601.497 29.2718 Q605.588 27.692 609.437 26.9223 Q613.285 26.1121 616.931 26.1121 Q626.775 26.1121 631.636 31.2163 Q636.497 36.3204 636.497 46.6907 Z" fill="#000000" fill-rule="nonzero" fill-opacity="1" /><path clip-path="url(#clip710)" d="M659.222 14.324 L659.222 27.2059 L674.575 27.2059 L674.575 32.9987 L659.222 32.9987 L659.222 57.6282 Q659.222 63.1779 660.721 64.7578 Q662.261 66.3376 666.919 66.3376 L674.575 66.3376 L674.575 72.576 L666.919 72.576 Q658.291 72.576 655.009 69.3758 Q651.728 66.1351 651.728 57.6282 L651.728 32.9987 L646.26 32.9987 L646.26 27.2059 L651.728 27.2059 L651.728 14.324 L659.222 14.324 Z" fill="#000000" fill-rule="nonzero" fill-opacity="1" /><path clip-path="url(#clip710)" d="M684.379 27.2059 L691.832 27.2059 L691.832 72.576 L684.379 72.576 L684.379 27.2059 M684.379 9.54393 L691.832 9.54393 L691.832 18.9825 L684.379 18.9825 L684.379 9.54393 Z" fill="#000000" fill-rule="nonzero" fill-opacity="1" /><path clip-path="url(#clip710)" d="M702.081 27.2059 L709.98 27.2059 L724.158 65.2844 L738.337 27.2059 L746.236 27.2059 L729.222 72.576 L719.095 72.576 L702.081 27.2059 Z" fill="#000000" fill-rule="nonzero" fill-opacity="1" /><path clip-path="url(#clip710)" d="M795.333 48.0275 L795.333 51.6733 L761.062 51.6733 Q761.548 59.3701 765.68 63.421 Q769.853 67.4314 777.266 67.4314 Q781.56 67.4314 785.57 66.3781 Q789.621 65.3249 793.591 63.2184 L793.591 70.267 Q789.581 71.9684 785.368 72.8596 Q781.155 73.7508 776.82 73.7508 Q765.964 73.7508 759.604 67.4314 Q753.284 61.1119 753.284 50.3365 Q753.284 39.1965 759.28 32.6746 Q765.316 26.1121 775.524 26.1121 Q784.679 26.1121 789.986 32.0264 Q795.333 37.9003 795.333 48.0275 M787.879 45.84 Q787.798 39.7232 784.436 36.0774 Q781.114 32.4315 775.605 32.4315 Q769.367 32.4315 765.599 35.9558 Q761.872 39.4801 761.305 45.8805 L787.879 45.84 Z" fill="#000000" fill-rule="nonzero" fill-opacity="1" /><path clip-path="url(#clip710)" d="M854.476 20.1573 L843.377 50.2555 L865.616 50.2555 L854.476 20.1573 M849.858 12.096 L859.135 12.096 L882.184 72.576 L873.677 72.576 L868.168 57.061 L840.905 57.061 L835.396 72.576 L826.768 72.576 L849.858 12.096 Z" fill="#000000" fill-rule="nonzero" fill-opacity="1" /><path clip-path="url(#clip710)" d="M923.26 49.9314 Q923.26 41.7081 919.858 37.0496 Q916.495 32.3505 910.581 32.3505 Q904.667 32.3505 901.264 37.0496 Q897.902 41.7081 897.902 49.9314 Q897.902 58.1548 901.264 62.8538 Q904.667 67.5124 910.581 67.5124 Q916.495 67.5124 919.858 62.8538 Q923.26 58.1548 923.26 49.9314 M897.902 34.0924 Q900.251 30.0415 903.816 28.0971 Q907.421 26.1121 912.404 26.1121 Q920.668 26.1121 925.812 32.6746 Q930.998 39.2371 930.998 49.9314 Q930.998 60.6258 925.812 67.1883 Q920.668 73.7508 912.404 73.7508 Q907.421 73.7508 903.816 71.8063 Q900.251 69.8214 897.902 65.7705 L897.902 72.576 L890.408 72.576 L890.408 9.54393 L897.902 9.54393 L897.902 34.0924 Z" fill="#000000" fill-rule="nonzero" fill-opacity="1" /><path clip-path="url(#clip710)" d="M972.276 28.5427 L972.276 35.5912 Q969.117 33.9709 965.714 33.1607 Q962.311 32.3505 958.665 32.3505 Q953.116 32.3505 950.32 34.0519 Q947.566 35.7533 947.566 39.156 Q947.566 41.7486 949.551 43.2475 Q951.536 44.7058 957.531 46.0426 L960.083 46.6097 Q968.023 48.3111 971.345 51.4303 Q974.707 54.509 974.707 60.0587 Q974.707 66.3781 969.684 70.0644 Q964.701 73.7508 955.951 73.7508 Q952.305 73.7508 948.335 73.0216 Q944.406 72.3329 940.031 70.9151 L940.031 63.2184 Q944.163 65.3654 948.173 66.4591 Q952.184 67.5124 956.113 67.5124 Q961.379 67.5124 964.215 65.73 Q967.051 63.9071 967.051 60.6258 Q967.051 57.5877 964.985 55.9673 Q962.959 54.3469 956.032 52.8481 L953.44 52.2405 Q946.513 50.7821 943.434 47.7845 Q940.355 44.7463 940.355 39.4801 Q940.355 33.0797 944.892 29.5959 Q949.429 26.1121 957.774 26.1121 Q961.906 26.1121 965.552 26.7198 Q969.198 27.3274 972.276 28.5427 Z" fill="#000000" fill-rule="nonzero" fill-opacity="1" /><path clip-path="url(#clip710)" d="M1004.16 32.4315 Q998.162 32.4315 994.678 37.1306 Q991.194 41.7891 991.194 49.9314 Q991.194 58.0738 994.637 62.7728 Q998.121 67.4314 1004.16 67.4314 Q1010.11 67.4314 1013.6 62.7323 Q1017.08 58.0333 1017.08 49.9314 Q1017.08 41.8701 1013.6 37.1711 Q1010.11 32.4315 1004.16 32.4315 M1004.16 26.1121 Q1013.88 26.1121 1019.43 32.4315 Q1024.98 38.7509 1024.98 49.9314 Q1024.98 61.0714 1019.43 67.4314 Q1013.88 73.7508 1004.16 73.7508 Q994.394 73.7508 988.845 67.4314 Q983.335 61.0714 983.335 49.9314 Q983.335 38.7509 988.845 32.4315 Q994.394 26.1121 1004.16 26.1121 Z" fill="#000000" fill-rule="nonzero" fill-opacity="1" /><path clip-path="url(#clip710)" d="M1037.33 9.54393 L1044.79 9.54393 L1044.79 72.576 L1037.33 72.576 L1037.33 9.54393 Z" fill="#000000" fill-rule="nonzero" fill-opacity="1" /><path clip-path="url(#clip710)" d="M1059.61 54.671 L1059.61 27.2059 L1067.07 27.2059 L1067.07 54.3874 Q1067.07 60.8284 1069.58 64.0691 Q1072.09 67.2693 1077.11 67.2693 Q1083.15 67.2693 1086.63 63.421 Q1090.16 59.5726 1090.16 52.9291 L1090.16 27.2059 L1097.61 27.2059 L1097.61 72.576 L1090.16 72.576 L1090.16 65.6084 Q1087.44 69.7404 1083.84 71.7658 Q1080.27 73.7508 1075.53 73.7508 Q1067.72 73.7508 1063.66 68.8897 Q1059.61 64.0286 1059.61 54.671 M1078.37 26.1121 L1078.37 26.1121 Z" fill="#000000" fill-rule="nonzero" fill-opacity="1" /><path clip-path="url(#clip710)" d="M1120.34 14.324 L1120.34 27.2059 L1135.69 27.2059 L1135.69 32.9987 L1120.34 32.9987 L1120.34 57.6282 Q1120.34 63.1779 1121.84 64.7578 Q1123.38 66.3376 1128.03 66.3376 L1135.69 66.3376 L1135.69 72.576 L1128.03 72.576 Q1119.41 72.576 1116.12 69.3758 Q1112.84 66.1351 1112.84 57.6282 L1112.84 32.9987 L1107.37 32.9987 L1107.37 27.2059 L1112.84 27.2059 L1112.84 14.324 L1120.34 14.324 Z" fill="#000000" fill-rule="nonzero" fill-opacity="1" /><path clip-path="url(#clip710)" d="M1184.3 48.0275 L1184.3 51.6733 L1150.03 51.6733 Q1150.52 59.3701 1154.65 63.421 Q1158.82 67.4314 1166.23 67.4314 Q1170.53 67.4314 1174.54 66.3781 Q1178.59 65.3249 1182.56 63.2184 L1182.56 70.267 Q1178.55 71.9684 1174.34 72.8596 Q1170.12 73.7508 1165.79 73.7508 Q1154.93 73.7508 1148.57 67.4314 Q1142.25 61.1119 1142.25 50.3365 Q1142.25 39.1965 1148.25 32.6746 Q1154.28 26.1121 1164.49 26.1121 Q1173.65 26.1121 1178.95 32.0264 Q1184.3 37.9003 1184.3 48.0275 M1176.85 45.84 Q1176.77 39.7232 1173.4 36.0774 Q1170.08 32.4315 1164.57 32.4315 Q1158.33 32.4315 1154.57 35.9558 Q1150.84 39.4801 1150.27 45.8805 L1176.85 45.84 Z" fill="#000000" fill-rule="nonzero" fill-opacity="1" /><path clip-path="url(#clip710)" d="M1223.23 12.096 L1261.47 12.096 L1261.47 18.9825 L1231.41 18.9825 L1231.41 36.8875 L1260.21 36.8875 L1260.21 43.7741 L1231.41 43.7741 L1231.41 65.6895 L1262.2 65.6895 L1262.2 72.576 L1223.23 72.576 L1223.23 12.096 Z" fill="#000000" fill-rule="nonzero" fill-opacity="1" /><path clip-path="url(#clip710)" d="M1301.61 34.1734 Q1300.36 33.4443 1298.86 33.1202 Q1297.4 32.7556 1295.62 32.7556 Q1289.3 32.7556 1285.9 36.8875 Q1282.54 40.9789 1282.54 48.6757 L1282.54 72.576 L1275.04 72.576 L1275.04 27.2059 L1282.54 27.2059 L1282.54 34.2544 Q1284.88 30.1225 1288.65 28.1376 Q1292.42 26.1121 1297.81 26.1121 Q1298.58 26.1121 1299.51 26.2337 Q1300.44 26.3147 1301.57 26.5172 L1301.61 34.1734 Z" fill="#000000" fill-rule="nonzero" fill-opacity="1" /><path clip-path="url(#clip710)" d="M1334.27 34.1734 Q1333.01 33.4443 1331.51 33.1202 Q1330.05 32.7556 1328.27 32.7556 Q1321.95 32.7556 1318.55 36.8875 Q1315.19 40.9789 1315.19 48.6757 L1315.19 72.576 L1307.69 72.576 L1307.69 27.2059 L1315.19 27.2059 L1315.19 34.2544 Q1317.53 30.1225 1321.3 28.1376 Q1325.07 26.1121 1330.46 26.1121 Q1331.23 26.1121 1332.16 26.2337 Q1333.09 26.3147 1334.22 26.5172 L1334.27 34.1734 Z" fill="#000000" fill-rule="nonzero" fill-opacity="1" /><path clip-path="url(#clip710)" d="M1357.84 32.4315 Q1351.85 32.4315 1348.36 37.1306 Q1344.88 41.7891 1344.88 49.9314 Q1344.88 58.0738 1348.32 62.7728 Q1351.81 67.4314 1357.84 67.4314 Q1363.8 67.4314 1367.28 62.7323 Q1370.76 58.0333 1370.76 49.9314 Q1370.76 41.8701 1367.28 37.1711 Q1363.8 32.4315 1357.84 32.4315 M1357.84 26.1121 Q1367.56 26.1121 1373.11 32.4315 Q1378.66 38.7509 1378.66 49.9314 Q1378.66 61.0714 1373.11 67.4314 Q1367.56 73.7508 1357.84 73.7508 Q1348.08 73.7508 1342.53 67.4314 Q1337.02 61.0714 1337.02 49.9314 Q1337.02 38.7509 1342.53 32.4315 Q1348.08 26.1121 1357.84 26.1121 Z" fill="#000000" fill-rule="nonzero" fill-opacity="1" /><path clip-path="url(#clip710)" d="M1417.31 34.1734 Q1416.05 33.4443 1414.55 33.1202 Q1413.1 32.7556 1411.31 32.7556 Q1404.99 32.7556 1401.59 36.8875 Q1398.23 40.9789 1398.23 48.6757 L1398.23 72.576 L1390.73 72.576 L1390.73 27.2059 L1398.23 27.2059 L1398.23 34.2544 Q1400.58 30.1225 1404.35 28.1376 Q1408.11 26.1121 1413.5 26.1121 Q1414.27 26.1121 1415.2 26.2337 Q1416.13 26.3147 1417.27 26.5172 L1417.31 34.1734 Z" fill="#000000" fill-rule="nonzero" fill-opacity="1" /><path clip-path="url(#clip710)" d="M1446.15 27.2059 L1454.05 27.2059 L1468.23 65.2844 L1482.41 27.2059 L1490.31 27.2059 L1473.29 72.576 L1463.16 72.576 L1446.15 27.2059 Z" fill="#000000" fill-rule="nonzero" fill-opacity="1" /><path clip-path="url(#clip710)" d="M1529.52 28.5427 L1529.52 35.5912 Q1526.36 33.9709 1522.96 33.1607 Q1519.55 32.3505 1515.91 32.3505 Q1510.36 32.3505 1507.56 34.0519 Q1504.81 35.7533 1504.81 39.156 Q1504.81 41.7486 1506.79 43.2475 Q1508.78 44.7058 1514.77 46.0426 L1517.33 46.6097 Q1525.27 48.3111 1528.59 51.4303 Q1531.95 54.509 1531.95 60.0587 Q1531.95 66.3781 1526.93 70.0644 Q1521.94 73.7508 1513.19 73.7508 Q1509.55 73.7508 1505.58 73.0216 Q1501.65 72.3329 1497.27 70.9151 L1497.27 63.2184 Q1501.41 65.3654 1505.42 66.4591 Q1509.43 67.5124 1513.36 67.5124 Q1518.62 67.5124 1521.46 65.73 Q1524.29 63.9071 1524.29 60.6258 Q1524.29 57.5877 1522.23 55.9673 Q1520.2 54.3469 1513.27 52.8481 L1510.68 52.2405 Q1503.75 50.7821 1500.68 47.7845 Q1497.6 44.7463 1497.6 39.4801 Q1497.6 33.0797 1502.13 29.5959 Q1506.67 26.1121 1515.02 26.1121 Q1519.15 26.1121 1522.79 26.7198 Q1526.44 27.3274 1529.52 28.5427 Z" fill="#000000" fill-rule="nonzero" fill-opacity="1" /><path clip-path="url(#clip710)" d="M1570.51 12.096 L1578.7 12.096 L1578.7 36.8875 L1608.43 36.8875 L1608.43 12.096 L1616.61 12.096 L1616.61 72.576 L1608.43 72.576 L1608.43 43.7741 L1578.7 43.7741 L1578.7 72.576 L1570.51 72.576 L1570.51 12.096 Z" fill="#000000" fill-rule="nonzero" fill-opacity="1" /><path clip-path="url(#clip710)" d="M1650.15 32.4315 Q1644.16 32.4315 1640.68 37.1306 Q1637.19 41.7891 1637.19 49.9314 Q1637.19 58.0738 1640.63 62.7728 Q1644.12 67.4314 1650.15 67.4314 Q1656.11 67.4314 1659.59 62.7323 Q1663.08 58.0333 1663.08 49.9314 Q1663.08 41.8701 1659.59 37.1711 Q1656.11 32.4315 1650.15 32.4315 M1650.15 26.1121 Q1659.88 26.1121 1665.43 32.4315 Q1670.98 38.7509 1670.98 49.9314 Q1670.98 61.0714 1665.43 67.4314 Q1659.88 73.7508 1650.15 73.7508 Q1640.39 73.7508 1634.84 67.4314 Q1629.33 61.0714 1629.33 49.9314 Q1629.33 38.7509 1634.84 32.4315 Q1640.39 26.1121 1650.15 26.1121 Z" fill="#000000" fill-rule="nonzero" fill-opacity="1" /><path clip-path="url(#clip710)" d="M1709.62 34.1734 Q1708.37 33.4443 1706.87 33.1202 Q1705.41 32.7556 1703.63 32.7556 Q1697.31 32.7556 1693.9 36.8875 Q1690.54 40.9789 1690.54 48.6757 L1690.54 72.576 L1683.05 72.576 L1683.05 27.2059 L1690.54 27.2059 L1690.54 34.2544 Q1692.89 30.1225 1696.66 28.1376 Q1700.43 26.1121 1705.81 26.1121 Q1706.58 26.1121 1707.52 26.2337 Q1708.45 26.3147 1709.58 26.5172 L1709.62 34.1734 Z" fill="#000000" fill-rule="nonzero" fill-opacity="1" /><path clip-path="url(#clip710)" d="M1717.44 27.2059 L1724.89 27.2059 L1724.89 72.576 L1717.44 72.576 L1717.44 27.2059 M1717.44 9.54393 L1724.89 9.54393 L1724.89 18.9825 L1717.44 18.9825 L1717.44 9.54393 Z" fill="#000000" fill-rule="nonzero" fill-opacity="1" /><path clip-path="url(#clip710)" d="M1737.25 27.2059 L1772.65 27.2059 L1772.65 34.0114 L1744.62 66.6212 L1772.65 66.6212 L1772.65 72.576 L1736.24 72.576 L1736.24 65.7705 L1764.27 33.1607 L1737.25 33.1607 L1737.25 27.2059 Z" fill="#000000" fill-rule="nonzero" fill-opacity="1" /><path clip-path="url(#clip710)" d="M1801.62 32.4315 Q1795.62 32.4315 1792.14 37.1306 Q1788.66 41.7891 1788.66 49.9314 Q1788.66 58.0738 1792.1 62.7728 Q1795.58 67.4314 1801.62 67.4314 Q1807.57 67.4314 1811.06 62.7323 Q1814.54 58.0333 1814.54 49.9314 Q1814.54 41.8701 1811.06 37.1711 Q1807.57 32.4315 1801.62 32.4315 M1801.62 26.1121 Q1811.34 26.1121 1816.89 32.4315 Q1822.44 38.7509 1822.44 49.9314 Q1822.44 61.0714 1816.89 67.4314 Q1811.34 73.7508 1801.62 73.7508 Q1791.86 73.7508 1786.31 67.4314 Q1780.8 61.0714 1780.8 49.9314 Q1780.8 38.7509 1786.31 32.4315 Q1791.86 26.1121 1801.62 26.1121 Z" fill="#000000" fill-rule="nonzero" fill-opacity="1" /><path clip-path="url(#clip710)" d="M1872.51 45.1919 L1872.51 72.576 L1865.06 72.576 L1865.06 45.4349 Q1865.06 38.994 1862.54 35.7938 Q1860.03 32.5936 1855.01 32.5936 Q1848.97 32.5936 1845.49 36.4419 Q1842.01 40.2903 1842.01 46.9338 L1842.01 72.576 L1834.51 72.576 L1834.51 27.2059 L1842.01 27.2059 L1842.01 34.2544 Q1844.68 30.163 1848.28 28.1376 Q1851.93 26.1121 1856.67 26.1121 Q1864.49 26.1121 1868.5 30.9732 Q1872.51 35.7938 1872.51 45.1919 Z" fill="#000000" fill-rule="nonzero" fill-opacity="1" /><path clip-path="url(#clip710)" d="M1889.28 62.2867 L1897.83 62.2867 L1897.83 72.576 L1889.28 72.576 L1889.28 62.2867 M1889.28 29.6769 L1897.83 29.6769 L1897.83 39.9662 L1889.28 39.9662 L1889.28 29.6769 Z" fill="#000000" fill-rule="nonzero" fill-opacity="1" /><path clip-path="url(#clip710)" d="M1950.21 43.6931 L1950.21 65.8515 L1963.33 65.8515 Q1969.93 65.8515 1973.09 63.1374 Q1976.29 60.3828 1976.29 54.752 Q1976.29 49.0808 1973.09 46.4072 Q1969.93 43.6931 1963.33 43.6931 L1950.21 43.6931 M1950.21 18.8205 L1950.21 37.0496 L1962.32 37.0496 Q1968.31 37.0496 1971.23 34.8216 Q1974.19 32.5531 1974.19 27.935 Q1974.19 23.3575 1971.23 21.089 Q1968.31 18.8205 1962.32 18.8205 L1950.21 18.8205 M1942.02 12.096 L1962.92 12.096 Q1972.28 12.096 1977.35 15.9849 Q1982.41 19.8737 1982.41 27.0438 Q1982.41 32.5936 1979.82 35.8748 Q1977.22 39.156 1972.2 39.9662 Q1978.24 41.2625 1981.56 45.3944 Q1984.92 49.4858 1984.92 55.6432 Q1984.92 63.745 1979.41 68.1605 Q1973.9 72.576 1963.74 72.576 L1942.02 72.576 L1942.02 12.096 Z" fill="#000000" fill-rule="nonzero" fill-opacity="1" /><path clip-path="url(#clip710)" d="M2037.42 48.0275 L2037.42 51.6733 L2003.15 51.6733 Q2003.64 59.3701 2007.77 63.421 Q2011.94 67.4314 2019.35 67.4314 Q2023.65 67.4314 2027.66 66.3781 Q2031.71 65.3249 2035.68 63.2184 L2035.68 70.267 Q2031.67 71.9684 2027.46 72.8596 Q2023.24 73.7508 2018.91 73.7508 Q2008.05 73.7508 2001.69 67.4314 Q1995.37 61.1119 1995.37 50.3365 Q1995.37 39.1965 2001.37 32.6746 Q2007.4 26.1121 2017.61 26.1121 Q2026.77 26.1121 2032.07 32.0264 Q2037.42 37.9003 2037.42 48.0275 M2029.97 45.84 Q2029.89 39.7232 2026.52 36.0774 Q2023.2 32.4315 2017.69 32.4315 Q2011.45 32.4315 2007.69 35.9558 Q2003.96 39.4801 2003.39 45.8805 L2029.97 45.84 Z" fill="#000000" fill-rule="nonzero" fill-opacity="1" /><path clip-path="url(#clip710)" d="M2087.37 45.1919 L2087.37 72.576 L2079.92 72.576 L2079.92 45.4349 Q2079.92 38.994 2077.4 35.7938 Q2074.89 32.5936 2069.87 32.5936 Q2063.83 32.5936 2060.35 36.4419 Q2056.87 40.2903 2056.87 46.9338 L2056.87 72.576 L2049.37 72.576 L2049.37 9.54393 L2056.87 9.54393 L2056.87 34.2544 Q2059.54 30.163 2063.14 28.1376 Q2066.79 26.1121 2071.53 26.1121 Q2079.35 26.1121 2083.36 30.9732 Q2087.37 35.7938 2087.37 45.1919 Z" fill="#000000" fill-rule="nonzero" fill-opacity="1" /><path clip-path="url(#clip710)" d="M2122.85 49.7694 Q2113.82 49.7694 2110.34 51.8354 Q2106.85 53.9013 2106.85 58.8839 Q2106.85 62.8538 2109.45 65.2034 Q2112.08 67.5124 2116.58 67.5124 Q2122.77 67.5124 2126.5 63.1374 Q2130.27 58.7219 2130.27 51.4303 L2130.27 49.7694 L2122.85 49.7694 M2137.72 46.6907 L2137.72 72.576 L2130.27 72.576 L2130.27 65.6895 Q2127.72 69.8214 2123.91 71.8063 Q2120.1 73.7508 2114.59 73.7508 Q2107.62 73.7508 2103.49 69.8619 Q2099.4 65.9325 2099.4 59.3701 Q2099.4 51.7138 2104.5 47.825 Q2109.65 43.9361 2119.82 43.9361 L2130.27 43.9361 L2130.27 43.2069 Q2130.27 38.0623 2126.87 35.2672 Q2123.5 32.4315 2117.39 32.4315 Q2113.5 32.4315 2109.81 33.3632 Q2106.12 34.295 2102.72 36.1584 L2102.72 29.2718 Q2106.81 27.692 2110.66 26.9223 Q2114.51 26.1121 2118.16 26.1121 Q2128 26.1121 2132.86 31.2163 Q2137.72 36.3204 2137.72 46.6907 Z" fill="#000000" fill-rule="nonzero" fill-opacity="1" /><path clip-path="url(#clip710)" d="M2147.73 27.2059 L2155.63 27.2059 L2169.8 65.2844 L2183.98 27.2059 L2191.88 27.2059 L2174.87 72.576 L2164.74 72.576 L2147.73 27.2059 Z" fill="#000000" fill-rule="nonzero" fill-opacity="1" /><path clip-path="url(#clip710)" d="M2202.17 27.2059 L2209.63 27.2059 L2209.63 72.576 L2202.17 72.576 L2202.17 27.2059 M2202.17 9.54393 L2209.63 9.54393 L2209.63 18.9825 L2202.17 18.9825 L2202.17 9.54393 Z" fill="#000000" fill-rule="nonzero" fill-opacity="1" /><path clip-path="url(#clip710)" d="M2242.8 32.4315 Q2236.81 32.4315 2233.32 37.1306 Q2229.84 41.7891 2229.84 49.9314 Q2229.84 58.0738 2233.28 62.7728 Q2236.77 67.4314 2242.8 67.4314 Q2248.76 67.4314 2252.24 62.7323 Q2255.72 58.0333 2255.72 49.9314 Q2255.72 41.8701 2252.24 37.1711 Q2248.76 32.4315 2242.8 32.4315 M2242.8 26.1121 Q2252.52 26.1121 2258.07 32.4315 Q2263.62 38.7509 2263.62 49.9314 Q2263.62 61.0714 2258.07 67.4314 Q2252.52 73.7508 2242.8 73.7508 Q2233.04 73.7508 2227.49 67.4314 Q2221.98 61.0714 2221.98 49.9314 Q2221.98 38.7509 2227.49 32.4315 Q2233.04 26.1121 2242.8 26.1121 Z" fill="#000000" fill-rule="nonzero" fill-opacity="1" /><path clip-path="url(#clip710)" d="M2275.21 54.671 L2275.21 27.2059 L2282.66 27.2059 L2282.66 54.3874 Q2282.66 60.8284 2285.17 64.0691 Q2287.69 67.2693 2292.71 67.2693 Q2298.74 67.2693 2302.23 63.421 Q2305.75 59.5726 2305.75 52.9291 L2305.75 27.2059 L2313.21 27.2059 L2313.21 72.576 L2305.75 72.576 L2305.75 65.6084 Q2303.04 69.7404 2299.43 71.7658 Q2295.87 73.7508 2291.13 73.7508 Q2283.31 73.7508 2279.26 68.8897 Q2275.21 64.0286 2275.21 54.671 M2293.96 26.1121 L2293.96 26.1121 Z" fill="#000000" fill-rule="nonzero" fill-opacity="1" /><path clip-path="url(#clip710)" d="M2354.85 34.1734 Q2353.59 33.4443 2352.1 33.1202 Q2350.64 32.7556 2348.85 32.7556 Q2342.54 32.7556 2339.13 36.8875 Q2335.77 40.9789 2335.77 48.6757 L2335.77 72.576 L2328.28 72.576 L2328.28 27.2059 L2335.77 27.2059 L2335.77 34.2544 Q2338.12 30.1225 2341.89 28.1376 Q2345.65 26.1121 2351.04 26.1121 Q2351.81 26.1121 2352.74 26.2337 Q2353.68 26.3147 2354.81 26.5172 L2354.85 34.1734 Z" fill="#000000" fill-rule="nonzero" fill-opacity="1" /><path clip-path="url(#clip710)" d="M2383.29 49.7694 Q2374.25 49.7694 2370.77 51.8354 Q2367.29 53.9013 2367.29 58.8839 Q2367.29 62.8538 2369.88 65.2034 Q2372.51 67.5124 2377.01 67.5124 Q2383.21 67.5124 2386.93 63.1374 Q2390.7 58.7219 2390.7 51.4303 L2390.7 49.7694 L2383.29 49.7694 M2398.15 46.6907 L2398.15 72.576 L2390.7 72.576 L2390.7 65.6895 Q2388.15 69.8214 2384.34 71.8063 Q2380.53 73.7508 2375.02 73.7508 Q2368.06 73.7508 2363.92 69.8619 Q2359.83 65.9325 2359.83 59.3701 Q2359.83 51.7138 2364.94 47.825 Q2370.08 43.9361 2380.25 43.9361 L2390.7 43.9361 L2390.7 43.2069 Q2390.7 38.0623 2387.3 35.2672 Q2383.94 32.4315 2377.82 32.4315 Q2373.93 32.4315 2370.24 33.3632 Q2366.56 34.295 2363.15 36.1584 L2363.15 29.2718 Q2367.25 27.692 2371.09 26.9223 Q2374.94 26.1121 2378.59 26.1121 Q2388.43 26.1121 2393.29 31.2163 Q2398.15 36.3204 2398.15 46.6907 Z" fill="#000000" fill-rule="nonzero" fill-opacity="1" /><path clip-path="url(#clip710)" d="M2413.51 9.54393 L2420.96 9.54393 L2420.96 72.576 L2413.51 72.576 L2413.51 9.54393 Z" fill="#000000" fill-rule="nonzero" fill-opacity="1" /><circle clip-path="url(#clip712)" cx="347.524" cy="235.352" r="14.4" fill="#009af9" fill-rule="evenodd" fill-opacity="1" stroke="#000000" stroke-opacity="1" stroke-width="3.2"/>
<circle clip-path="url(#clip712)" cx="542.207" cy="160.256" r="14.4" fill="#009af9" fill-rule="evenodd" fill-opacity="1" stroke="#000000" stroke-opacity="1" stroke-width="3.2"/>
<circle clip-path="url(#clip712)" cx="736.89" cy="202.545" r="14.4" fill="#009af9" fill-rule="evenodd" fill-opacity="1" stroke="#000000" stroke-opacity="1" stroke-width="3.2"/>
<circle clip-path="url(#clip712)" cx="931.572" cy="467.263" r="14.4" fill="#009af9" fill-rule="evenodd" fill-opacity="1" stroke="#000000" stroke-opacity="1" stroke-width="3.2"/>
<circle clip-path="url(#clip712)" cx="1126.25" cy="1386.4" r="14.4" fill="#009af9" fill-rule="evenodd" fill-opacity="1" stroke="#000000" stroke-opacity="1" stroke-width="3.2"/>
<circle clip-path="url(#clip712)" cx="1320.94" cy="1386.4" r="14.4" fill="#009af9" fill-rule="evenodd" fill-opacity="1" stroke="#000000" stroke-opacity="1" stroke-width="3.2"/>
<circle clip-path="url(#clip712)" cx="1515.62" cy="1386.4" r="14.4" fill="#009af9" fill-rule="evenodd" fill-opacity="1" stroke="#000000" stroke-opacity="1" stroke-width="3.2"/>
<circle clip-path="url(#clip712)" cx="1710.3" cy="1386.4" r="14.4" fill="#009af9" fill-rule="evenodd" fill-opacity="1" stroke="#000000" stroke-opacity="1" stroke-width="3.2"/>
<circle clip-path="url(#clip712)" cx="1904.99" cy="1386.4" r="14.4" fill="#009af9" fill-rule="evenodd" fill-opacity="1" stroke="#000000" stroke-opacity="1" stroke-width="3.2"/>
<circle clip-path="url(#clip712)" cx="2099.67" cy="1386.4" r="14.4" fill="#009af9" fill-rule="evenodd" fill-opacity="1" stroke="#000000" stroke-opacity="1" stroke-width="3.2"/>
<circle clip-path="url(#clip712)" cx="2294.35" cy="1386.4" r="14.4" fill="#009af9" fill-rule="evenodd" fill-opacity="1" stroke="#000000" stroke-opacity="1" stroke-width="3.2"/>
<path clip-path="url(#clip710)" d="M1950.98 270.476 L2283.97 270.476 L2283.97 166.796 L1950.98 166.796  Z" fill="#ffffff" fill-rule="evenodd" fill-opacity="1"/>
<polyline clip-path="url(#clip710)" style="stroke:#000000; stroke-linecap:round; stroke-linejoin:round; stroke-width:4; stroke-opacity:1; fill:none" points="1950.98,270.476 2283.97,270.476 2283.97,166.796 1950.98,166.796 1950.98,270.476 "/>
<circle clip-path="url(#clip710)" cx="2042.7" cy="218.636" r="20.48" fill="#009af9" fill-rule="evenodd" fill-opacity="1" stroke="#000000" stroke-opacity="1" stroke-width="4.55111"/>
<path clip-path="url(#clip710)" d="M2134.42 201.356 L2141.39 201.356 L2150.21 224.874 L2159.07 201.356 L2166.04 201.356 L2166.04 235.916 L2161.48 235.916 L2161.48 205.569 L2152.57 229.272 L2147.87 229.272 L2138.96 205.569 L2138.96 235.916 L2134.42 235.916 L2134.42 201.356 Z" fill="#000000" fill-rule="nonzero" fill-opacity="1" /><path clip-path="url(#clip710)" d="M2191.71 219.712 Q2193.22 220.221 2194.63 221.888 Q2196.06 223.555 2197.5 226.471 L2202.24 235.916 L2197.22 235.916 L2192.8 227.05 Q2191.09 223.578 2189.47 222.444 Q2187.87 221.309 2185.09 221.309 L2180 221.309 L2180 235.916 L2175.32 235.916 L2175.32 201.356 L2185.88 201.356 Q2191.8 201.356 2194.72 203.833 Q2197.64 206.309 2197.64 211.309 Q2197.64 214.573 2196.11 216.726 Q2194.6 218.879 2191.71 219.712 M2180 205.198 L2180 217.467 L2185.88 217.467 Q2189.26 217.467 2190.97 215.916 Q2192.71 214.342 2192.71 211.309 Q2192.71 208.277 2190.97 206.749 Q2189.26 205.198 2185.88 205.198 L2180 205.198 Z" fill="#000000" fill-rule="nonzero" fill-opacity="1" /><path clip-path="url(#clip710)" d="M2217.89 205.962 L2211.55 223.161 L2224.26 223.161 L2217.89 205.962 M2215.25 201.356 L2220.55 201.356 L2233.72 235.916 L2228.86 235.916 L2225.71 227.05 L2210.14 227.05 L2206.99 235.916 L2202.06 235.916 L2215.25 201.356 Z" fill="#000000" fill-rule="nonzero" fill-opacity="1" /><path clip-path="url(#clip710)" d="M2238.77 201.356 L2260.62 201.356 L2260.62 205.291 L2243.45 205.291 L2243.45 215.522 L2259.9 215.522 L2259.9 219.457 L2243.45 219.457 L2243.45 231.981 L2261.04 231.981 L2261.04 235.916 L2238.77 235.916 L2238.77 201.356 Z" fill="#000000" fill-rule="nonzero" fill-opacity="1" /></svg>
