<?xml version="1.0" encoding="utf-8"?>
<svg xmlns="http://www.w3.org/2000/svg" xmlns:xlink="http://www.w3.org/1999/xlink" width="600" height="400" viewBox="0 0 2400 1600">
<defs>
  <clipPath id="clip110">
    <rect x="0" y="0" width="2400" height="1600"/>
  </clipPath>
</defs>
<path clip-path="url(#clip110)" d="M0 1600 L2400 1600 L2400 0 L0 0  Z" fill="#ffffff" fill-rule="evenodd" fill-opacity="1"/>
<defs>
  <clipPath id="clip111">
    <rect x="480" y="0" width="1681" height="1600"/>
  </clipPath>
</defs>
<path clip-path="url(#clip110)" d="M217.783 1423.18 L2352.76 1423.18 L2352.76 123.472 L217.783 123.472  Z" fill="#ffffff" fill-rule="evenodd" fill-opacity="1"/>
<defs>
  <clipPath id="clip112">
    <rect x="217" y="123" width="2136" height="1301"/>
  </clipPath>
</defs>
<polyline clip-path="url(#clip112)" style="stroke:#000000; stroke-linecap:round; stroke-linejoin:round; stroke-width:2; stroke-opacity:0.1; fill:none" points="241.586,1423.18 241.586,123.472 "/>
<polyline clip-path="url(#clip112)" style="stroke:#000000; stroke-linecap:round; stroke-linejoin:round; stroke-width:2; stroke-opacity:0.1; fill:none" points="607.791,1423.18 607.791,123.472 "/>
<polyline clip-path="url(#clip112)" style="stroke:#000000; stroke-linecap:round; stroke-linejoin:round; stroke-width:2; stroke-opacity:0.1; fill:none" points="973.995,1423.18 973.995,123.472 "/>
<polyline clip-path="url(#clip112)" style="stroke:#000000; stroke-linecap:round; stroke-linejoin:round; stroke-width:2; stroke-opacity:0.1; fill:none" points="1340.2,1423.18 1340.2,123.472 "/>
<polyline clip-path="url(#clip112)" style="stroke:#000000; stroke-linecap:round; stroke-linejoin:round; stroke-width:2; stroke-opacity:0.1; fill:none" points="1706.4,1423.18 1706.4,123.472 "/>
<polyline clip-path="url(#clip112)" style="stroke:#000000; stroke-linecap:round; stroke-linejoin:round; stroke-width:2; stroke-opacity:0.1; fill:none" points="2072.61,1423.18 2072.61,123.472 "/>
<polyline clip-path="url(#clip110)" style="stroke:#000000; stroke-linecap:round; stroke-linejoin:round; stroke-width:4; stroke-opacity:1; fill:none" points="217.783,1423.18 2352.76,1423.18 "/>
<polyline clip-path="url(#clip110)" style="stroke:#000000; stroke-linecap:round; stroke-linejoin:round; stroke-width:4; stroke-opacity:1; fill:none" points="241.586,1423.18 241.586,1404.28 "/>
<polyline clip-path="url(#clip110)" style="stroke:#000000; stroke-linecap:round; stroke-linejoin:round; stroke-width:4; stroke-opacity:1; fill:none" points="607.791,1423.18 607.791,1404.28 "/>
<polyline clip-path="url(#clip110)" style="stroke:#000000; stroke-linecap:round; stroke-linejoin:round; stroke-width:4; stroke-opacity:1; fill:none" points="973.995,1423.18 973.995,1404.28 "/>
<polyline clip-path="url(#clip110)" style="stroke:#000000; stroke-linecap:round; stroke-linejoin:round; stroke-width:4; stroke-opacity:1; fill:none" points="1340.2,1423.18 1340.2,1404.28 "/>
<polyline clip-path="url(#clip110)" style="stroke:#000000; stroke-linecap:round; stroke-linejoin:round; stroke-width:4; stroke-opacity:1; fill:none" points="1706.4,1423.18 1706.4,1404.28 "/>
<polyline clip-path="url(#clip110)" style="stroke:#000000; stroke-linecap:round; stroke-linejoin:round; stroke-width:4; stroke-opacity:1; fill:none" points="2072.61,1423.18 2072.61,1404.28 "/>
<path clip-path="url(#clip110)" d="M241.586 1454.1 Q237.975 1454.1 236.146 1457.66 Q234.341 1461.2 234.341 1468.33 Q234.341 1475.44 236.146 1479.01 Q237.975 1482.55 241.586 1482.55 Q245.22 1482.55 247.026 1479.01 Q248.855 1475.44 248.855 1468.33 Q248.855 1461.2 247.026 1457.66 Q245.22 1454.1 241.586 1454.1 M241.586 1450.39 Q247.396 1450.39 250.452 1455 Q253.531 1459.58 253.531 1468.33 Q253.531 1477.06 250.452 1481.67 Q247.396 1486.25 241.586 1486.25 Q235.776 1486.25 232.697 1481.67 Q229.642 1477.06 229.642 1468.33 Q229.642 1459.58 232.697 1455 Q235.776 1450.39 241.586 1450.39 Z" fill="#000000" fill-rule="nonzero" fill-opacity="1" /><path clip-path="url(#clip110)" d="M582.479 1481.64 L590.117 1481.64 L590.117 1455.28 L581.807 1456.95 L581.807 1452.69 L590.071 1451.02 L594.747 1451.02 L594.747 1481.64 L602.386 1481.64 L602.386 1485.58 L582.479 1485.58 L582.479 1481.64 Z" fill="#000000" fill-rule="nonzero" fill-opacity="1" /><path clip-path="url(#clip110)" d="M621.83 1454.1 Q618.219 1454.1 616.39 1457.66 Q614.585 1461.2 614.585 1468.33 Q614.585 1475.44 616.39 1479.01 Q618.219 1482.55 621.83 1482.55 Q625.464 1482.55 627.27 1479.01 Q629.099 1475.44 629.099 1468.33 Q629.099 1461.2 627.27 1457.66 Q625.464 1454.1 621.83 1454.1 M621.83 1450.39 Q627.64 1450.39 630.696 1455 Q633.775 1459.58 633.775 1468.33 Q633.775 1477.06 630.696 1481.67 Q627.64 1486.25 621.83 1486.25 Q616.02 1486.25 612.941 1481.67 Q609.886 1477.06 609.886 1468.33 Q609.886 1459.58 612.941 1455 Q616.02 1450.39 621.83 1450.39 Z" fill="#000000" fill-rule="nonzero" fill-opacity="1" /><path clip-path="url(#clip110)" d="M952.769 1481.64 L969.088 1481.64 L969.088 1485.58 L947.144 1485.58 L947.144 1481.64 Q949.806 1478.89 954.389 1474.26 Q958.996 1469.61 960.176 1468.27 Q962.421 1465.74 963.301 1464.01 Q964.204 1462.25 964.204 1460.56 Q964.204 1457.8 962.259 1456.07 Q960.338 1454.33 957.236 1454.33 Q955.037 1454.33 952.584 1455.09 Q950.153 1455.86 947.375 1457.41 L947.375 1452.69 Q950.199 1451.55 952.653 1450.97 Q955.107 1450.39 957.144 1450.39 Q962.514 1450.39 965.709 1453.08 Q968.903 1455.77 968.903 1460.26 Q968.903 1462.39 968.093 1464.31 Q967.306 1466.2 965.199 1468.8 Q964.621 1469.47 961.519 1472.69 Q958.417 1475.88 952.769 1481.64 Z" fill="#000000" fill-rule="nonzero" fill-opacity="1" /><path clip-path="url(#clip110)" d="M988.903 1454.1 Q985.292 1454.1 983.463 1457.66 Q981.657 1461.2 981.657 1468.33 Q981.657 1475.44 983.463 1479.01 Q985.292 1482.55 988.903 1482.55 Q992.537 1482.55 994.343 1479.01 Q996.171 1475.44 996.171 1468.33 Q996.171 1461.2 994.343 1457.66 Q992.537 1454.1 988.903 1454.1 M988.903 1450.39 Q994.713 1450.39 997.769 1455 Q1000.85 1459.58 1000.85 1468.33 Q1000.85 1477.06 997.769 1481.67 Q994.713 1486.25 988.903 1486.25 Q983.093 1486.25 980.014 1481.67 Q976.958 1477.06 976.958 1468.33 Q976.958 1459.58 980.014 1455 Q983.093 1450.39 988.903 1450.39 Z" fill="#000000" fill-rule="nonzero" fill-opacity="1" /><path clip-path="url(#clip110)" d="M1329.04 1466.95 Q1332.4 1467.66 1334.27 1469.93 Q1336.17 1472.2 1336.17 1475.53 Q1336.17 1480.65 1332.65 1483.45 Q1329.14 1486.25 1322.65 1486.25 Q1320.48 1486.25 1318.16 1485.81 Q1315.87 1485.39 1313.42 1484.54 L1313.42 1480.02 Q1315.36 1481.16 1317.68 1481.74 Q1319.99 1482.32 1322.52 1482.32 Q1326.91 1482.32 1329.2 1480.58 Q1331.52 1478.84 1331.52 1475.53 Q1331.52 1472.48 1329.37 1470.77 Q1327.24 1469.03 1323.42 1469.03 L1319.39 1469.03 L1319.39 1465.19 L1323.6 1465.19 Q1327.05 1465.19 1328.88 1463.82 Q1330.71 1462.43 1330.71 1459.84 Q1330.71 1457.18 1328.81 1455.77 Q1326.94 1454.33 1323.42 1454.33 Q1321.5 1454.33 1319.3 1454.75 Q1317.1 1455.16 1314.46 1456.04 L1314.46 1451.88 Q1317.12 1451.14 1319.44 1450.77 Q1321.77 1450.39 1323.83 1450.39 Q1329.16 1450.39 1332.26 1452.83 Q1335.36 1455.23 1335.36 1459.35 Q1335.36 1462.22 1333.72 1464.21 Q1332.08 1466.18 1329.04 1466.95 Z" fill="#000000" fill-rule="nonzero" fill-opacity="1" /><path clip-path="url(#clip110)" d="M1355.04 1454.1 Q1351.43 1454.1 1349.6 1457.66 Q1347.79 1461.2 1347.79 1468.33 Q1347.79 1475.44 1349.6 1479.01 Q1351.43 1482.55 1355.04 1482.55 Q1358.67 1482.55 1360.48 1479.01 Q1362.31 1475.44 1362.31 1468.33 Q1362.31 1461.2 1360.48 1457.66 Q1358.67 1454.1 1355.04 1454.1 M1355.04 1450.39 Q1360.85 1450.39 1363.9 1455 Q1366.98 1459.58 1366.98 1468.33 Q1366.98 1477.06 1363.9 1481.67 Q1360.85 1486.25 1355.04 1486.25 Q1349.23 1486.25 1346.15 1481.67 Q1343.09 1477.06 1343.09 1468.33 Q1343.09 1459.58 1346.15 1455 Q1349.23 1450.39 1355.04 1450.39 Z" fill="#000000" fill-rule="nonzero" fill-opacity="1" /><path clip-path="url(#clip110)" d="M1694.58 1455.09 L1682.77 1473.54 L1694.58 1473.54 L1694.58 1455.09 M1693.35 1451.02 L1699.23 1451.02 L1699.23 1473.54 L1704.16 1473.54 L1704.16 1477.43 L1699.23 1477.43 L1699.23 1485.58 L1694.58 1485.58 L1694.58 1477.43 L1678.97 1477.43 L1678.97 1472.92 L1693.35 1451.02 Z" fill="#000000" fill-rule="nonzero" fill-opacity="1" /><path clip-path="url(#clip110)" d="M1721.89 1454.1 Q1718.28 1454.1 1716.45 1457.66 Q1714.65 1461.2 1714.65 1468.33 Q1714.65 1475.44 1716.45 1479.01 Q1718.28 1482.55 1721.89 1482.55 Q1725.53 1482.55 1727.33 1479.01 Q1729.16 1475.44 1729.16 1468.33 Q1729.16 1461.2 1727.33 1457.66 Q1725.53 1454.1 1721.89 1454.1 M1721.89 1450.39 Q1727.7 1450.39 1730.76 1455 Q1733.84 1459.58 1733.84 1468.33 Q1733.84 1477.06 1730.76 1481.67 Q1727.7 1486.25 1721.89 1486.25 Q1716.08 1486.25 1713 1481.67 Q1709.95 1477.06 1709.95 1468.33 Q1709.95 1459.58 1713 1455 Q1716.08 1450.39 1721.89 1450.39 Z" fill="#000000" fill-rule="nonzero" fill-opacity="1" /><path clip-path="url(#clip110)" d="M2047.31 1451.02 L2065.66 1451.02 L2065.66 1454.96 L2051.59 1454.96 L2051.59 1463.43 Q2052.61 1463.08 2053.63 1462.92 Q2054.65 1462.73 2055.67 1462.73 Q2061.45 1462.73 2064.83 1465.9 Q2068.21 1469.08 2068.21 1474.49 Q2068.21 1480.07 2064.74 1483.17 Q2061.27 1486.25 2054.95 1486.25 Q2052.77 1486.25 2050.5 1485.88 Q2048.26 1485.51 2045.85 1484.77 L2045.85 1480.07 Q2047.93 1481.2 2050.16 1481.76 Q2052.38 1482.32 2054.85 1482.32 Q2058.86 1482.32 2061.2 1480.21 Q2063.54 1478.1 2063.54 1474.49 Q2063.54 1470.88 2061.2 1468.77 Q2058.86 1466.67 2054.85 1466.67 Q2052.98 1466.67 2051.1 1467.08 Q2049.25 1467.5 2047.31 1468.38 L2047.31 1451.02 Z" fill="#000000" fill-rule="nonzero" fill-opacity="1" /><path clip-path="url(#clip110)" d="M2087.42 1454.1 Q2083.81 1454.1 2081.98 1457.66 Q2080.18 1461.2 2080.18 1468.33 Q2080.18 1475.44 2081.98 1479.01 Q2083.81 1482.55 2087.42 1482.55 Q2091.06 1482.55 2092.86 1479.01 Q2094.69 1475.44 2094.69 1468.33 Q2094.69 1461.2 2092.86 1457.66 Q2091.06 1454.1 2087.42 1454.1 M2087.42 1450.39 Q2093.23 1450.39 2096.29 1455 Q2099.37 1459.58 2099.37 1468.33 Q2099.37 1477.06 2096.29 1481.67 Q2093.23 1486.25 2087.42 1486.25 Q2081.61 1486.25 2078.54 1481.67 Q2075.48 1477.06 2075.48 1468.33 Q2075.48 1459.58 2078.54 1455 Q2081.61 1450.39 2087.42 1450.39 Z" fill="#000000" fill-rule="nonzero" fill-opacity="1" /><path clip-path="url(#clip110)" d="M1200.1 1546.53 L1200.1 1568.04 L1194.24 1568.04 L1194.24 1546.72 Q1194.24 1541.66 1192.27 1539.14 Q1190.29 1536.63 1186.35 1536.63 Q1181.6 1536.63 1178.87 1539.65 Q1176.13 1542.68 1176.13 1547.9 L1176.13 1568.04 L1170.24 1568.04 L1170.24 1518.52 L1176.13 1518.52 L1176.13 1537.93 Q1178.23 1534.72 1181.06 1533.13 Q1183.93 1531.54 1187.65 1531.54 Q1193.79 1531.54 1196.95 1535.36 Q1200.1 1539.14 1200.1 1546.53 Z" fill="#000000" fill-rule="nonzero" fill-opacity="1" /><path clip-path="url(#clip110)" d="M1225.59 1536.5 Q1220.88 1536.5 1218.14 1540.19 Q1215.41 1543.85 1215.41 1550.25 Q1215.41 1556.65 1218.11 1560.34 Q1220.85 1564 1225.59 1564 Q1230.27 1564 1233.01 1560.31 Q1235.74 1556.62 1235.74 1550.25 Q1235.74 1543.92 1233.01 1540.23 Q1230.27 1536.5 1225.59 1536.5 M1225.59 1531.54 Q1233.23 1531.54 1237.59 1536.5 Q1241.95 1541.47 1241.95 1550.25 Q1241.95 1559 1237.59 1564 Q1233.23 1568.97 1225.59 1568.97 Q1217.92 1568.97 1213.56 1564 Q1209.23 1559 1209.23 1550.25 Q1209.23 1541.47 1213.56 1536.5 Q1217.92 1531.54 1225.59 1531.54 Z" fill="#000000" fill-rule="nonzero" fill-opacity="1" /><path clip-path="url(#clip110)" d="M1272.32 1537.87 Q1271.33 1537.3 1270.15 1537.04 Q1269.01 1536.76 1267.6 1536.76 Q1262.64 1536.76 1259.97 1540 Q1257.32 1543.22 1257.32 1549.27 L1257.32 1568.04 L1251.44 1568.04 L1251.44 1532.4 L1257.32 1532.4 L1257.32 1537.93 Q1259.17 1534.69 1262.13 1533.13 Q1265.09 1531.54 1269.32 1531.54 Q1269.93 1531.54 1270.66 1531.63 Q1271.39 1531.7 1272.28 1531.85 L1272.32 1537.87 Z" fill="#000000" fill-rule="nonzero" fill-opacity="1" /><path clip-path="url(#clip110)" d="M1278.46 1532.4 L1284.31 1532.4 L1284.31 1568.04 L1278.46 1568.04 L1278.46 1532.4 M1278.46 1518.52 L1284.31 1518.52 L1284.31 1525.93 L1278.46 1525.93 L1278.46 1518.52 Z" fill="#000000" fill-rule="nonzero" fill-opacity="1" /><path clip-path="url(#clip110)" d="M1294.02 1532.4 L1321.84 1532.4 L1321.84 1537.74 L1299.82 1563.37 L1321.84 1563.37 L1321.84 1568.04 L1293.23 1568.04 L1293.23 1562.7 L1315.25 1537.07 L1294.02 1537.07 L1294.02 1532.4 Z" fill="#000000" fill-rule="nonzero" fill-opacity="1" /><path clip-path="url(#clip110)" d="M1344.6 1536.5 Q1339.89 1536.5 1337.15 1540.19 Q1334.41 1543.85 1334.41 1550.25 Q1334.41 1556.65 1337.12 1560.34 Q1339.86 1564 1344.6 1564 Q1349.28 1564 1352.01 1560.31 Q1354.75 1556.62 1354.75 1550.25 Q1354.75 1543.92 1352.01 1540.23 Q1349.28 1536.5 1344.6 1536.5 M1344.6 1531.54 Q1352.24 1531.54 1356.6 1536.5 Q1360.96 1541.47 1360.96 1550.25 Q1360.96 1559 1356.6 1564 Q1352.24 1568.97 1344.6 1568.97 Q1336.93 1568.97 1332.57 1564 Q1328.24 1559 1328.24 1550.25 Q1328.24 1541.47 1332.57 1536.5 Q1336.93 1531.54 1344.6 1531.54 Z" fill="#000000" fill-rule="nonzero" fill-opacity="1" /><path clip-path="url(#clip110)" d="M1400.3 1546.53 L1400.3 1568.04 L1394.44 1568.04 L1394.44 1546.72 Q1394.44 1541.66 1392.47 1539.14 Q1390.49 1536.63 1386.55 1536.63 Q1381.81 1536.63 1379.07 1539.65 Q1376.33 1542.68 1376.33 1547.9 L1376.33 1568.04 L1370.44 1568.04 L1370.44 1532.4 L1376.33 1532.4 L1376.33 1537.93 Q1378.43 1534.72 1381.26 1533.13 Q1384.13 1531.54 1387.85 1531.54 Q1394 1531.54 1397.15 1535.36 Q1400.3 1539.14 1400.3 1546.53 Z" fill="#000000" fill-rule="nonzero" fill-opacity="1" /><polyline clip-path="url(#clip112)" style="stroke:#000000; stroke-linecap:round; stroke-linejoin:round; stroke-width:2; stroke-opacity:0.1; fill:none" points="217.783,1387.47 2352.76,1387.47 "/>
<polyline clip-path="url(#clip112)" style="stroke:#000000; stroke-linecap:round; stroke-linejoin:round; stroke-width:2; stroke-opacity:0.1; fill:none" points="217.783,1149.62 2352.76,1149.62 "/>
<polyline clip-path="url(#clip112)" style="stroke:#000000; stroke-linecap:round; stroke-linejoin:round; stroke-width:2; stroke-opacity:0.1; fill:none" points="217.783,911.779 2352.76,911.779 "/>
<polyline clip-path="url(#clip112)" style="stroke:#000000; stroke-linecap:round; stroke-linejoin:round; stroke-width:2; stroke-opacity:0.1; fill:none" points="217.783,673.933 2352.76,673.933 "/>
<polyline clip-path="url(#clip112)" style="stroke:#000000; stroke-linecap:round; stroke-linejoin:round; stroke-width:2; stroke-opacity:0.1; fill:none" points="217.783,436.088 2352.76,436.088 "/>
<polyline clip-path="url(#clip112)" style="stroke:#000000; stroke-linecap:round; stroke-linejoin:round; stroke-width:2; stroke-opacity:0.1; fill:none" points="217.783,198.243 2352.76,198.243 "/>
<polyline clip-path="url(#clip110)" style="stroke:#000000; stroke-linecap:round; stroke-linejoin:round; stroke-width:4; stroke-opacity:1; fill:none" points="217.783,1423.18 217.783,123.472 "/>
<polyline clip-path="url(#clip110)" style="stroke:#000000; stroke-linecap:round; stroke-linejoin:round; stroke-width:4; stroke-opacity:1; fill:none" points="217.783,1387.47 236.681,1387.47 "/>
<polyline clip-path="url(#clip110)" style="stroke:#000000; stroke-linecap:round; stroke-linejoin:round; stroke-width:4; stroke-opacity:1; fill:none" points="217.783,1149.62 236.681,1149.62 "/>
<polyline clip-path="url(#clip110)" style="stroke:#000000; stroke-linecap:round; stroke-linejoin:round; stroke-width:4; stroke-opacity:1; fill:none" points="217.783,911.779 236.681,911.779 "/>
<polyline clip-path="url(#clip110)" style="stroke:#000000; stroke-linecap:round; stroke-linejoin:round; stroke-width:4; stroke-opacity:1; fill:none" points="217.783,673.933 236.681,673.933 "/>
<polyline clip-path="url(#clip110)" style="stroke:#000000; stroke-linecap:round; stroke-linejoin:round; stroke-width:4; stroke-opacity:1; fill:none" points="217.783,436.088 236.681,436.088 "/>
<polyline clip-path="url(#clip110)" style="stroke:#000000; stroke-linecap:round; stroke-linejoin:round; stroke-width:4; stroke-opacity:1; fill:none" points="217.783,198.243 236.681,198.243 "/>
<path clip-path="url(#clip110)" d="M115.418 1400.81 L123.056 1400.81 L123.056 1374.45 L114.746 1376.12 L114.746 1371.86 L123.01 1370.19 L127.686 1370.19 L127.686 1400.81 L135.325 1400.81 L135.325 1404.75 L115.418 1404.75 L115.418 1400.81 Z" fill="#000000" fill-rule="nonzero" fill-opacity="1" /><path clip-path="url(#clip110)" d="M144.769 1398.87 L149.653 1398.87 L149.653 1404.75 L144.769 1404.75 L144.769 1398.87 Z" fill="#000000" fill-rule="nonzero" fill-opacity="1" /><path clip-path="url(#clip110)" d="M169.839 1373.27 Q166.227 1373.27 164.399 1376.83 Q162.593 1380.37 162.593 1387.5 Q162.593 1394.61 164.399 1398.18 Q166.227 1401.72 169.839 1401.72 Q173.473 1401.72 175.278 1398.18 Q177.107 1394.61 177.107 1387.5 Q177.107 1380.37 175.278 1376.83 Q173.473 1373.27 169.839 1373.27 M169.839 1369.56 Q175.649 1369.56 178.704 1374.17 Q181.783 1378.75 181.783 1387.5 Q181.783 1396.23 178.704 1400.84 Q175.649 1405.42 169.839 1405.42 Q164.028 1405.42 160.95 1400.84 Q157.894 1396.23 157.894 1387.5 Q157.894 1378.75 160.95 1374.17 Q164.028 1369.56 169.839 1369.56 Z" fill="#000000" fill-rule="nonzero" fill-opacity="1" /><path clip-path="url(#clip110)" d="M116.644 1162.97 L124.283 1162.97 L124.283 1136.6 L115.973 1138.27 L115.973 1134.01 L124.237 1132.34 L128.913 1132.34 L128.913 1162.97 L136.552 1162.97 L136.552 1166.9 L116.644 1166.9 L116.644 1162.97 Z" fill="#000000" fill-rule="nonzero" fill-opacity="1" /><path clip-path="url(#clip110)" d="M145.996 1161.02 L150.88 1161.02 L150.88 1166.9 L145.996 1166.9 L145.996 1161.02 Z" fill="#000000" fill-rule="nonzero" fill-opacity="1" /><path clip-path="url(#clip110)" d="M161.876 1162.97 L169.514 1162.97 L169.514 1136.6 L161.204 1138.27 L161.204 1134.01 L169.468 1132.34 L174.144 1132.34 L174.144 1162.97 L181.783 1162.97 L181.783 1166.9 L161.876 1166.9 L161.876 1162.97 Z" fill="#000000" fill-rule="nonzero" fill-opacity="1" /><path clip-path="url(#clip110)" d="M117.015 925.124 L124.654 925.124 L124.654 898.758 L116.343 900.425 L116.343 896.165 L124.607 894.499 L129.283 894.499 L129.283 925.124 L136.922 925.124 L136.922 929.059 L117.015 929.059 L117.015 925.124 Z" fill="#000000" fill-rule="nonzero" fill-opacity="1" /><path clip-path="url(#clip110)" d="M146.366 923.179 L151.251 923.179 L151.251 929.059 L146.366 929.059 L146.366 923.179 Z" fill="#000000" fill-rule="nonzero" fill-opacity="1" /><path clip-path="url(#clip110)" d="M165.464 925.124 L181.783 925.124 L181.783 929.059 L159.839 929.059 L159.839 925.124 Q162.501 922.369 167.084 917.739 Q171.69 913.087 172.871 911.744 Q175.116 909.221 175.996 907.485 Q176.899 905.726 176.899 904.036 Q176.899 901.281 174.954 899.545 Q173.033 897.809 169.931 897.809 Q167.732 897.809 165.278 898.573 Q162.848 899.337 160.07 900.888 L160.07 896.165 Q162.894 895.031 165.348 894.453 Q167.802 893.874 169.839 893.874 Q175.209 893.874 178.403 896.559 Q181.598 899.244 181.598 903.735 Q181.598 905.864 180.788 907.786 Q180.001 909.684 177.894 912.276 Q177.315 912.948 174.214 916.165 Q171.112 919.36 165.464 925.124 Z" fill="#000000" fill-rule="nonzero" fill-opacity="1" /><path clip-path="url(#clip110)" d="M116.066 687.278 L123.705 687.278 L123.705 660.913 L115.394 662.579 L115.394 658.32 L123.658 656.653 L128.334 656.653 L128.334 687.278 L135.973 687.278 L135.973 691.213 L116.066 691.213 L116.066 687.278 Z" fill="#000000" fill-rule="nonzero" fill-opacity="1" /><path clip-path="url(#clip110)" d="M145.417 685.334 L150.302 685.334 L150.302 691.213 L145.417 691.213 L145.417 685.334 Z" fill="#000000" fill-rule="nonzero" fill-opacity="1" /><path clip-path="url(#clip110)" d="M174.653 672.579 Q178.01 673.297 179.885 675.565 Q181.783 677.834 181.783 681.167 Q181.783 686.283 178.264 689.084 Q174.746 691.885 168.264 691.885 Q166.089 691.885 163.774 691.445 Q161.482 691.028 159.028 690.172 L159.028 685.658 Q160.973 686.792 163.288 687.371 Q165.602 687.95 168.126 687.95 Q172.524 687.95 174.815 686.213 Q177.13 684.477 177.13 681.167 Q177.13 678.112 174.977 676.399 Q172.848 674.663 169.028 674.663 L165.001 674.663 L165.001 670.82 L169.214 670.82 Q172.663 670.82 174.491 669.454 Q176.32 668.065 176.32 665.473 Q176.32 662.811 174.422 661.399 Q172.547 659.964 169.028 659.964 Q167.107 659.964 164.908 660.38 Q162.709 660.797 160.07 661.677 L160.07 657.51 Q162.732 656.769 165.047 656.399 Q167.385 656.028 169.445 656.028 Q174.769 656.028 177.871 658.459 Q180.973 660.866 180.973 664.987 Q180.973 667.857 179.329 669.848 Q177.686 671.815 174.653 672.579 Z" fill="#000000" fill-rule="nonzero" fill-opacity="1" /><path clip-path="url(#clip110)" d="M114.931 449.433 L122.57 449.433 L122.57 423.067 L114.26 424.734 L114.26 420.475 L122.524 418.808 L127.2 418.808 L127.2 449.433 L134.839 449.433 L134.839 453.368 L114.931 453.368 L114.931 449.433 Z" fill="#000000" fill-rule="nonzero" fill-opacity="1" /><path clip-path="url(#clip110)" d="M144.283 447.489 L149.167 447.489 L149.167 453.368 L144.283 453.368 L144.283 447.489 Z" fill="#000000" fill-rule="nonzero" fill-opacity="1" /><path clip-path="url(#clip110)" d="M172.2 422.882 L160.394 441.331 L172.2 441.331 L172.2 422.882 M170.973 418.808 L176.852 418.808 L176.852 441.331 L181.783 441.331 L181.783 445.22 L176.852 445.22 L176.852 453.368 L172.2 453.368 L172.2 445.22 L156.598 445.22 L156.598 440.706 L170.973 418.808 Z" fill="#000000" fill-rule="nonzero" fill-opacity="1" /><path clip-path="url(#clip110)" d="M116.413 211.588 L124.052 211.588 L124.052 185.222 L115.742 186.889 L115.742 182.629 L124.005 180.963 L128.681 180.963 L128.681 211.588 L136.32 211.588 L136.32 215.523 L116.413 215.523 L116.413 211.588 Z" fill="#000000" fill-rule="nonzero" fill-opacity="1" /><path clip-path="url(#clip110)" d="M145.765 209.643 L150.649 209.643 L150.649 215.523 L145.765 215.523 L145.765 209.643 Z" fill="#000000" fill-rule="nonzero" fill-opacity="1" /><path clip-path="url(#clip110)" d="M160.88 180.963 L179.237 180.963 L179.237 184.898 L165.163 184.898 L165.163 193.37 Q166.181 193.023 167.2 192.861 Q168.218 192.676 169.237 192.676 Q175.024 192.676 178.403 195.847 Q181.783 199.018 181.783 204.435 Q181.783 210.014 178.311 213.115 Q174.839 216.194 168.519 216.194 Q166.343 216.194 164.075 215.824 Q161.829 215.453 159.422 214.713 L159.422 210.014 Q161.505 211.148 163.727 211.703 Q165.95 212.259 168.427 212.259 Q172.431 212.259 174.769 210.152 Q177.107 208.046 177.107 204.435 Q177.107 200.824 174.769 198.717 Q172.431 196.611 168.427 196.611 Q166.552 196.611 164.677 197.027 Q162.825 197.444 160.88 198.324 L160.88 180.963 Z" fill="#000000" fill-rule="nonzero" fill-opacity="1" /><path clip-path="url(#clip110)" d="M16.4842 874.557 L16.4842 864.976 L48.8219 852.85 L16.4842 840.659 L16.4842 831.079 L64.0042 831.079 L64.0042 837.349 L22.277 837.349 L54.8694 849.603 L54.8694 856.064 L22.277 868.318 L64.0042 868.318 L64.0042 874.557 L16.4842 874.557 Z" fill="#000000" fill-rule="nonzero" fill-opacity="1" /><path clip-path="url(#clip110)" d="M41.7242 795.781 Q42.4244 793.712 44.7161 791.771 Q47.0077 789.797 51.0181 787.824 L64.0042 781.299 L64.0042 788.206 L51.8138 794.285 Q47.0395 796.64 45.48 798.868 Q43.9204 801.065 43.9204 804.884 L43.9204 811.886 L64.0042 811.886 L64.0042 818.316 L16.4842 818.316 L16.4842 803.802 Q16.4842 795.654 19.8898 791.643 Q23.2955 787.633 30.1704 787.633 Q34.6582 787.633 37.6183 789.734 Q40.5784 791.802 41.7242 795.781 M21.7677 811.886 L38.6368 811.886 L38.6368 803.802 Q38.6368 799.155 36.5043 796.8 Q34.34 794.412 30.1704 794.412 Q26.0009 794.412 23.9002 796.8 Q21.7677 799.155 21.7677 803.802 L21.7677 811.886 Z" fill="#000000" fill-rule="nonzero" fill-opacity="1" /><path clip-path="url(#clip110)" d="M22.818 759.783 L46.4666 768.504 L46.4666 751.03 L22.818 759.783 M16.4842 763.411 L16.4842 756.123 L64.0042 738.012 L64.0042 744.696 L51.8138 749.025 L51.8138 770.446 L64.0042 774.774 L64.0042 781.554 L16.4842 763.411 Z" fill="#000000" fill-rule="nonzero" fill-opacity="1" /><path clip-path="url(#clip110)" d="M16.4842 731.074 L16.4842 701.027 L21.895 701.027 L21.895 724.644 L35.9632 724.644 L35.9632 702.014 L41.3741 702.014 L41.3741 724.644 L58.5933 724.644 L58.5933 700.455 L64.0042 700.455 L64.0042 731.074 L16.4842 731.074 Z" fill="#000000" fill-rule="nonzero" fill-opacity="1" /><path clip-path="url(#clip110)" d="M14.479 672.095 L19.3487 672.095 L19.3487 677.697 Q19.3487 680.848 20.6219 682.089 Q21.895 683.299 25.2052 683.299 L28.3562 683.299 L28.3562 673.655 L32.9077 673.655 L32.9077 683.299 L64.0042 683.299 L64.0042 689.187 L32.9077 689.187 L32.9077 694.789 L28.3562 694.789 L28.3562 689.187 L25.8736 689.187 Q19.9216 689.187 17.2162 686.418 Q14.479 683.649 14.479 677.633 L14.479 672.095 Z" fill="#000000" fill-rule="nonzero" fill-opacity="1" /><path clip-path="url(#clip110)" d="M688.956 12.096 L697.139 12.096 L697.139 65.6895 L726.589 65.6895 L726.589 72.576 L688.956 72.576 L688.956 12.096 Z" fill="#000000" fill-rule="nonzero" fill-opacity="1" /><path clip-path="url(#clip110)" d="M755.472 49.7694 Q746.438 49.7694 742.955 51.8354 Q739.471 53.9013 739.471 58.8839 Q739.471 62.8538 742.063 65.2034 Q744.697 67.5124 749.193 67.5124 Q755.391 67.5124 759.118 63.1374 Q762.885 58.7219 762.885 51.4303 L762.885 49.7694 L755.472 49.7694 M770.339 46.6907 L770.339 72.576 L762.885 72.576 L762.885 65.6895 Q760.333 69.8214 756.525 71.8063 Q752.717 73.7508 747.208 73.7508 Q740.241 73.7508 736.109 69.8619 Q732.017 65.9325 732.017 59.3701 Q732.017 51.7138 737.121 47.825 Q742.266 43.9361 752.434 43.9361 L762.885 43.9361 L762.885 43.2069 Q762.885 38.0623 759.482 35.2672 Q756.12 32.4315 750.003 32.4315 Q746.114 32.4315 742.428 33.3632 Q738.742 34.295 735.339 36.1584 L735.339 29.2718 Q739.43 27.692 743.279 26.9223 Q747.127 26.1121 750.773 26.1121 Q760.617 26.1121 765.478 31.2163 Q770.339 36.3204 770.339 46.6907 Z" fill="#000000" fill-rule="nonzero" fill-opacity="1" /><path clip-path="url(#clip110)" d="M814.615 28.5427 L814.615 35.5912 Q811.455 33.9709 808.053 33.1607 Q804.65 32.3505 801.004 32.3505 Q795.454 32.3505 792.659 34.0519 Q789.905 35.7533 789.905 39.156 Q789.905 41.7486 791.89 43.2475 Q793.874 44.7058 799.87 46.0426 L802.422 46.6097 Q810.362 48.3111 813.683 51.4303 Q817.046 54.509 817.046 60.0587 Q817.046 66.3781 812.023 70.0644 Q807.04 73.7508 798.29 73.7508 Q794.644 73.7508 790.674 73.0216 Q786.745 72.3329 782.37 70.9151 L782.37 63.2184 Q786.502 65.3654 790.512 66.4591 Q794.523 67.5124 798.452 67.5124 Q803.718 67.5124 806.554 65.73 Q809.389 63.9071 809.389 60.6258 Q809.389 57.5877 807.323 55.9673 Q805.298 54.3469 798.371 52.8481 L795.778 52.2405 Q788.851 50.7821 785.773 47.7845 Q782.694 44.7463 782.694 39.4801 Q782.694 33.0797 787.231 29.5959 Q791.768 26.1121 800.113 26.1121 Q804.245 26.1121 807.891 26.7198 Q811.536 27.3274 814.615 28.5427 Z" fill="#000000" fill-rule="nonzero" fill-opacity="1" /><path clip-path="url(#clip110)" d="M836.287 14.324 L836.287 27.2059 L851.64 27.2059 L851.64 32.9987 L836.287 32.9987 L836.287 57.6282 Q836.287 63.1779 837.786 64.7578 Q839.326 66.3376 843.984 66.3376 L851.64 66.3376 L851.64 72.576 L843.984 72.576 Q835.356 72.576 832.075 69.3758 Q828.793 66.1351 828.793 57.6282 L828.793 32.9987 L823.325 32.9987 L823.325 27.2059 L828.793 27.2059 L828.793 14.324 L836.287 14.324 Z" fill="#000000" fill-rule="nonzero" fill-opacity="1" /><path clip-path="url(#clip110)" d="M903.735 72.576 L880.645 12.096 L889.192 12.096 L908.353 63.0159 L927.554 12.096 L936.061 12.096 L913.012 72.576 L903.735 72.576 Z" fill="#000000" fill-rule="nonzero" fill-opacity="1" /><path clip-path="url(#clip110)" d="M958.746 49.7694 Q949.713 49.7694 946.229 51.8354 Q942.745 53.9013 942.745 58.8839 Q942.745 62.8538 945.338 65.2034 Q947.971 67.5124 952.467 67.5124 Q958.665 67.5124 962.392 63.1374 Q966.159 58.7219 966.159 51.4303 L966.159 49.7694 L958.746 49.7694 M973.613 46.6907 L973.613 72.576 L966.159 72.576 L966.159 65.6895 Q963.607 69.8214 959.8 71.8063 Q955.992 73.7508 950.482 73.7508 Q943.515 73.7508 939.383 69.8619 Q935.292 65.9325 935.292 59.3701 Q935.292 51.7138 940.396 47.825 Q945.54 43.9361 955.708 43.9361 L966.159 43.9361 L966.159 43.2069 Q966.159 38.0623 962.757 35.2672 Q959.394 32.4315 953.278 32.4315 Q949.389 32.4315 945.702 33.3632 Q942.016 34.295 938.613 36.1584 L938.613 29.2718 Q942.705 27.692 946.553 26.9223 Q950.401 26.1121 954.047 26.1121 Q963.891 26.1121 968.752 31.2163 Q973.613 36.3204 973.613 46.6907 Z" fill="#000000" fill-rule="nonzero" fill-opacity="1" /><path clip-path="url(#clip110)" d="M988.966 9.54393 L996.42 9.54393 L996.42 72.576 L988.966 72.576 L988.966 9.54393 Z" fill="#000000" fill-rule="nonzero" fill-opacity="1" /><path clip-path="url(#clip110)" d="M1011.25 54.671 L1011.25 27.2059 L1018.7 27.2059 L1018.7 54.3874 Q1018.7 60.8284 1021.21 64.0691 Q1023.72 67.2693 1028.75 67.2693 Q1034.78 67.2693 1038.27 63.421 Q1041.79 59.5726 1041.79 52.9291 L1041.79 27.2059 L1049.24 27.2059 L1049.24 72.576 L1041.79 72.576 L1041.79 65.6084 Q1039.08 69.7404 1035.47 71.7658 Q1031.91 73.7508 1027.17 73.7508 Q1019.35 73.7508 1015.3 68.8897 Q1011.25 64.0286 1011.25 54.671 M1030 26.1121 L1030 26.1121 Z" fill="#000000" fill-rule="nonzero" fill-opacity="1" /><path clip-path="url(#clip110)" d="M1103.4 48.0275 L1103.4 51.6733 L1069.13 51.6733 Q1069.62 59.3701 1073.75 63.421 Q1077.92 67.4314 1085.34 67.4314 Q1089.63 67.4314 1093.64 66.3781 Q1097.69 65.3249 1101.66 63.2184 L1101.66 70.267 Q1097.65 71.9684 1093.44 72.8596 Q1089.23 73.7508 1084.89 73.7508 Q1074.04 73.7508 1067.68 67.4314 Q1061.36 61.1119 1061.36 50.3365 Q1061.36 39.1965 1067.35 32.6746 Q1073.39 26.1121 1083.6 26.1121 Q1092.75 26.1121 1098.06 32.0264 Q1103.4 37.9003 1103.4 48.0275 M1095.95 45.84 Q1095.87 39.7232 1092.51 36.0774 Q1089.19 32.4315 1083.68 32.4315 Q1077.44 32.4315 1073.67 35.9558 Q1069.94 39.4801 1069.38 45.8805 L1095.95 45.84 Z" fill="#000000" fill-rule="nonzero" fill-opacity="1" /><path clip-path="url(#clip110)" d="M1117.54 62.2867 L1126.09 62.2867 L1126.09 72.576 L1117.54 72.576 L1117.54 62.2867 M1117.54 29.6769 L1126.09 29.6769 L1126.09 39.9662 L1117.54 39.9662 L1117.54 29.6769 Z" fill="#000000" fill-rule="nonzero" fill-opacity="1" /><path clip-path="url(#clip110)" d="M1170.28 12.096 L1182.48 12.096 L1197.91 53.2532 L1213.43 12.096 L1225.62 12.096 L1225.62 72.576 L1217.64 72.576 L1217.64 19.4686 L1202.04 60.9499 L1193.82 60.9499 L1178.22 19.4686 L1178.22 72.576 L1170.28 72.576 L1170.28 12.096 Z" fill="#000000" fill-rule="nonzero" fill-opacity="1" /><path clip-path="url(#clip110)" d="M1270.54 44.2197 Q1273.18 45.1109 1275.65 48.0275 Q1278.16 50.9442 1280.67 56.0483 L1288.98 72.576 L1280.19 72.576 L1272.45 57.061 Q1269.45 50.9847 1266.62 48.9997 Q1263.82 47.0148 1258.96 47.0148 L1250.05 47.0148 L1250.05 72.576 L1241.86 72.576 L1241.86 12.096 L1260.34 12.096 Q1270.71 12.096 1275.81 16.4305 Q1280.91 20.7649 1280.91 29.5149 Q1280.91 35.2267 1278.24 38.994 Q1275.61 42.7613 1270.54 44.2197 M1250.05 18.8205 L1250.05 40.2903 L1260.34 40.2903 Q1266.25 40.2903 1269.25 37.5762 Q1272.29 34.8216 1272.29 29.5149 Q1272.29 24.2082 1269.25 21.5346 Q1266.25 18.8205 1260.34 18.8205 L1250.05 18.8205 Z" fill="#000000" fill-rule="nonzero" fill-opacity="1" /><path clip-path="url(#clip110)" d="M1316.36 20.1573 L1305.26 50.2555 L1327.5 50.2555 L1316.36 20.1573 M1311.74 12.096 L1321.02 12.096 L1344.07 72.576 L1335.56 72.576 L1330.05 57.061 L1302.79 57.061 L1297.28 72.576 L1288.65 72.576 L1311.74 12.096 Z" fill="#000000" fill-rule="nonzero" fill-opacity="1" /><path clip-path="url(#clip110)" d="M1352.9 12.096 L1391.14 12.096 L1391.14 18.9825 L1361.08 18.9825 L1361.08 36.8875 L1389.88 36.8875 L1389.88 43.7741 L1361.08 43.7741 L1361.08 65.6895 L1391.87 65.6895 L1391.87 72.576 L1352.9 72.576 L1352.9 12.096 Z" fill="#000000" fill-rule="nonzero" fill-opacity="1" /><path clip-path="url(#clip110)" d="M1427.96 9.54393 L1427.96 15.7418 L1420.83 15.7418 Q1416.82 15.7418 1415.24 17.3622 Q1413.7 18.9825 1413.7 23.1955 L1413.7 27.2059 L1425.98 27.2059 L1425.98 32.9987 L1413.7 32.9987 L1413.7 72.576 L1406.21 72.576 L1406.21 32.9987 L1399.08 32.9987 L1399.08 27.2059 L1406.21 27.2059 L1406.21 24.0462 Q1406.21 16.471 1409.73 13.0277 Q1413.26 9.54393 1420.91 9.54393 L1427.96 9.54393 Z" fill="#000000" fill-rule="nonzero" fill-opacity="1" /><path clip-path="url(#clip110)" d="M1455.23 27.2059 L1463.12 27.2059 L1477.3 65.2844 L1491.48 27.2059 L1499.38 27.2059 L1482.37 72.576 L1472.24 72.576 L1455.23 27.2059 Z" fill="#000000" fill-rule="nonzero" fill-opacity="1" /><path clip-path="url(#clip110)" d="M1538.59 28.5427 L1538.59 35.5912 Q1535.43 33.9709 1532.03 33.1607 Q1528.63 32.3505 1524.98 32.3505 Q1519.43 32.3505 1516.64 34.0519 Q1513.88 35.7533 1513.88 39.156 Q1513.88 41.7486 1515.87 43.2475 Q1517.85 44.7058 1523.85 46.0426 L1526.4 46.6097 Q1534.34 48.3111 1537.66 51.4303 Q1541.02 54.509 1541.02 60.0587 Q1541.02 66.3781 1536 70.0644 Q1531.02 73.7508 1522.27 73.7508 Q1518.62 73.7508 1514.65 73.0216 Q1510.72 72.3329 1506.35 70.9151 L1506.35 63.2184 Q1510.48 65.3654 1514.49 66.4591 Q1518.5 67.5124 1522.43 67.5124 Q1527.7 67.5124 1530.53 65.73 Q1533.37 63.9071 1533.37 60.6258 Q1533.37 57.5877 1531.3 55.9673 Q1529.28 54.3469 1522.35 52.8481 L1519.76 52.2405 Q1512.83 50.7821 1509.75 47.7845 Q1506.67 44.7463 1506.67 39.4801 Q1506.67 33.0797 1511.21 29.5959 Q1515.75 26.1121 1524.09 26.1121 Q1528.22 26.1121 1531.87 26.7198 Q1535.51 27.3274 1538.59 28.5427 Z" fill="#000000" fill-rule="nonzero" fill-opacity="1" /><path clip-path="url(#clip110)" d="M1579.59 12.096 L1587.77 12.096 L1587.77 36.8875 L1617.5 36.8875 L1617.5 12.096 L1625.69 12.096 L1625.69 72.576 L1617.5 72.576 L1617.5 43.7741 L1587.77 43.7741 L1587.77 72.576 L1579.59 72.576 L1579.59 12.096 Z" fill="#000000" fill-rule="nonzero" fill-opacity="1" /><path clip-path="url(#clip110)" d="M1659.23 32.4315 Q1653.23 32.4315 1649.75 37.1306 Q1646.27 41.7891 1646.27 49.9314 Q1646.27 58.0738 1649.71 62.7728 Q1653.19 67.4314 1659.23 67.4314 Q1665.18 67.4314 1668.67 62.7323 Q1672.15 58.0333 1672.15 49.9314 Q1672.15 41.8701 1668.67 37.1711 Q1665.18 32.4315 1659.23 32.4315 M1659.23 26.1121 Q1668.95 26.1121 1674.5 32.4315 Q1680.05 38.7509 1680.05 49.9314 Q1680.05 61.0714 1674.5 67.4314 Q1668.95 73.7508 1659.23 73.7508 Q1649.47 73.7508 1643.92 67.4314 Q1638.41 61.0714 1638.41 49.9314 Q1638.41 38.7509 1643.92 32.4315 Q1649.47 26.1121 1659.23 26.1121 Z" fill="#000000" fill-rule="nonzero" fill-opacity="1" /><path clip-path="url(#clip110)" d="M1718.7 34.1734 Q1717.44 33.4443 1715.94 33.1202 Q1714.48 32.7556 1712.7 32.7556 Q1706.38 32.7556 1702.98 36.8875 Q1699.62 40.9789 1699.62 48.6757 L1699.62 72.576 L1692.12 72.576 L1692.12 27.2059 L1699.62 27.2059 L1699.62 34.2544 Q1701.97 30.1225 1705.73 28.1376 Q1709.5 26.1121 1714.89 26.1121 Q1715.66 26.1121 1716.59 26.2337 Q1717.52 26.3147 1718.66 26.5172 L1718.7 34.1734 Z" fill="#000000" fill-rule="nonzero" fill-opacity="1" /><path clip-path="url(#clip110)" d="M1726.51 27.2059 L1733.97 27.2059 L1733.97 72.576 L1726.51 72.576 L1726.51 27.2059 M1726.51 9.54393 L1733.97 9.54393 L1733.97 18.9825 L1726.51 18.9825 L1726.51 9.54393 Z" fill="#000000" fill-rule="nonzero" fill-opacity="1" /><path clip-path="url(#clip110)" d="M1746.32 27.2059 L1781.73 27.2059 L1781.73 34.0114 L1753.7 66.6212 L1781.73 66.6212 L1781.73 72.576 L1745.31 72.576 L1745.31 65.7705 L1773.34 33.1607 L1746.32 33.1607 L1746.32 27.2059 Z" fill="#000000" fill-rule="nonzero" fill-opacity="1" /><path clip-path="url(#clip110)" d="M1810.69 32.4315 Q1804.7 32.4315 1801.21 37.1306 Q1797.73 41.7891 1797.73 49.9314 Q1797.73 58.0738 1801.17 62.7728 Q1804.66 67.4314 1810.69 67.4314 Q1816.65 67.4314 1820.13 62.7323 Q1823.61 58.0333 1823.61 49.9314 Q1823.61 41.8701 1820.13 37.1711 Q1816.65 32.4315 1810.69 32.4315 M1810.69 26.1121 Q1820.41 26.1121 1825.96 32.4315 Q1831.51 38.7509 1831.51 49.9314 Q1831.51 61.0714 1825.96 67.4314 Q1820.41 73.7508 1810.69 73.7508 Q1800.93 73.7508 1795.38 67.4314 Q1789.87 61.0714 1789.87 49.9314 Q1789.87 38.7509 1795.38 32.4315 Q1800.93 26.1121 1810.69 26.1121 Z" fill="#000000" fill-rule="nonzero" fill-opacity="1" /><path clip-path="url(#clip110)" d="M1881.58 45.1919 L1881.58 72.576 L1874.13 72.576 L1874.13 45.4349 Q1874.13 38.994 1871.62 35.7938 Q1869.11 32.5936 1864.08 32.5936 Q1858.05 32.5936 1854.56 36.4419 Q1851.08 40.2903 1851.08 46.9338 L1851.08 72.576 L1843.59 72.576 L1843.59 27.2059 L1851.08 27.2059 L1851.08 34.2544 Q1853.75 30.163 1857.36 28.1376 Q1861 26.1121 1865.74 26.1121 Q1873.56 26.1121 1877.57 30.9732 Q1881.58 35.7938 1881.58 45.1919 Z" fill="#000000" fill-rule="nonzero" fill-opacity="1" /><circle clip-path="url(#clip112)" cx="278.207" cy="160.256" r="14.4" fill="#009af9" fill-rule="evenodd" fill-opacity="1" stroke="#000000" stroke-opacity="1" stroke-width="3.2"/>
<circle clip-path="url(#clip112)" cx="461.309" cy="1055.58" r="14.4" fill="#009af9" fill-rule="evenodd" fill-opacity="1" stroke="#000000" stroke-opacity="1" stroke-width="3.2"/>
<circle clip-path="url(#clip112)" cx="644.411" cy="1219.19" r="14.4" fill="#009af9" fill-rule="evenodd" fill-opacity="1" stroke="#000000" stroke-opacity="1" stroke-width="3.2"/>
<circle clip-path="url(#clip112)" cx="827.514" cy="1286.63" r="14.4" fill="#009af9" fill-rule="evenodd" fill-opacity="1" stroke="#000000" stroke-opacity="1" stroke-width="3.2"/>
<circle clip-path="url(#clip112)" cx="1010.62" cy="1301.47" r="14.4" fill="#009af9" fill-rule="evenodd" fill-opacity="1" stroke="#000000" stroke-opacity="1" stroke-width="3.2"/>
<circle clip-path="url(#clip112)" cx="1193.72" cy="1327.28" r="14.4" fill="#009af9" fill-rule="evenodd" fill-opacity="1" stroke="#000000" stroke-opacity="1" stroke-width="3.2"/>
<circle clip-path="url(#clip112)" cx="1376.82" cy="1340.71" r="14.4" fill="#009af9" fill-rule="evenodd" fill-opacity="1" stroke="#000000" stroke-opacity="1" stroke-width="3.2"/>
<circle clip-path="url(#clip112)" cx="1559.92" cy="1345.89" r="14.4" fill="#009af9" fill-rule="evenodd" fill-opacity="1" stroke="#000000" stroke-opacity="1" stroke-width="3.2"/>
<circle clip-path="url(#clip112)" cx="1743.03" cy="1356.29" r="14.4" fill="#009af9" fill-rule="evenodd" fill-opacity="1" stroke="#000000" stroke-opacity="1" stroke-width="3.2"/>
<circle clip-path="url(#clip112)" cx="1926.13" cy="1361.74" r="14.4" fill="#009af9" fill-rule="evenodd" fill-opacity="1" stroke="#000000" stroke-opacity="1" stroke-width="3.2"/>
<circle clip-path="url(#clip112)" cx="2109.23" cy="1360.59" r="14.4" fill="#009af9" fill-rule="evenodd" fill-opacity="1" stroke="#000000" stroke-opacity="1" stroke-width="3.2"/>
<circle clip-path="url(#clip112)" cx="2292.33" cy="1386.4" r="14.4" fill="#009af9" fill-rule="evenodd" fill-opacity="1" stroke="#000000" stroke-opacity="1" stroke-width="3.2"/>
<circle clip-path="url(#clip112)" cx="278.207" cy="452.263" r="14.4" fill="#e26f46" fill-rule="evenodd" fill-opacity="1" stroke="#000000" stroke-opacity="1" stroke-width="3.2"/>
<circle clip-path="url(#clip112)" cx="461.309" cy="1029.79" r="14.4" fill="#e26f46" fill-rule="evenodd" fill-opacity="1" stroke="#000000" stroke-opacity="1" stroke-width="3.2"/>
<circle clip-path="url(#clip112)" cx="644.411" cy="1165.36" r="14.4" fill="#e26f46" fill-rule="evenodd" fill-opacity="1" stroke="#000000" stroke-opacity="1" stroke-width="3.2"/>
<circle clip-path="url(#clip112)" cx="827.514" cy="1192.28" r="14.4" fill="#e26f46" fill-rule="evenodd" fill-opacity="1" stroke="#000000" stroke-opacity="1" stroke-width="3.2"/>
<circle clip-path="url(#clip112)" cx="1010.62" cy="1201.91" r="14.4" fill="#e26f46" fill-rule="evenodd" fill-opacity="1" stroke="#000000" stroke-opacity="1" stroke-width="3.2"/>
<circle clip-path="url(#clip112)" cx="1193.72" cy="1230.3" r="14.4" fill="#e26f46" fill-rule="evenodd" fill-opacity="1" stroke="#000000" stroke-opacity="1" stroke-width="3.2"/>
<circle clip-path="url(#clip112)" cx="1376.82" cy="1232.47" r="14.4" fill="#e26f46" fill-rule="evenodd" fill-opacity="1" stroke="#000000" stroke-opacity="1" stroke-width="3.2"/>
<circle clip-path="url(#clip112)" cx="1559.92" cy="1232.5" r="14.4" fill="#e26f46" fill-rule="evenodd" fill-opacity="1" stroke="#000000" stroke-opacity="1" stroke-width="3.2"/>
<circle clip-path="url(#clip112)" cx="1743.03" cy="1250.42" r="14.4" fill="#e26f46" fill-rule="evenodd" fill-opacity="1" stroke="#000000" stroke-opacity="1" stroke-width="3.2"/>
<circle clip-path="url(#clip112)" cx="1926.13" cy="1270.95" r="14.4" fill="#e26f46" fill-rule="evenodd" fill-opacity="1" stroke="#000000" stroke-opacity="1" stroke-width="3.2"/>
<circle clip-path="url(#clip112)" cx="2109.23" cy="1286.88" r="14.4" fill="#e26f46" fill-rule="evenodd" fill-opacity="1" stroke="#000000" stroke-opacity="1" stroke-width="3.2"/>
<circle clip-path="url(#clip112)" cx="2292.33" cy="1326.69" r="14.4" fill="#e26f46" fill-rule="evenodd" fill-opacity="1" stroke="#000000" stroke-opacity="1" stroke-width="3.2"/>
<path clip-path="url(#clip110)" d="M1840.13 322.316 L2281.59 322.316 L2281.59 166.796 L1840.13 166.796  Z" fill="#ffffff" fill-rule="evenodd" fill-opacity="1"/>
<polyline clip-path="url(#clip110)" style="stroke:#000000; stroke-linecap:round; stroke-linejoin:round; stroke-width:4; stroke-opacity:1; fill:none" points="1840.13,322.316 2281.59,322.316 2281.59,166.796 1840.13,166.796 1840.13,322.316 "/>
<circle clip-path="url(#clip110)" cx="1935.02" cy="218.636" r="20.48" fill="#009af9" fill-rule="evenodd" fill-opacity="1" stroke="#000000" stroke-opacity="1" stroke-width="4.55111"/>
<path clip-path="url(#clip110)" d="M2037.31 202.629 L2037.31 209.99 L2046.09 209.99 L2046.09 213.3 L2037.31 213.3 L2037.31 227.374 Q2037.31 230.545 2038.17 231.448 Q2039.05 232.351 2041.71 232.351 L2046.09 232.351 L2046.09 235.916 L2041.71 235.916 Q2036.78 235.916 2034.91 234.087 Q2033.03 232.235 2033.03 227.374 L2033.03 213.3 L2029.91 213.3 L2029.91 209.99 L2033.03 209.99 L2033.03 202.629 L2037.31 202.629 Z" fill="#000000" fill-rule="nonzero" fill-opacity="1" /><path clip-path="url(#clip110)" d="M2066.71 213.971 Q2065.99 213.555 2065.14 213.37 Q2064.3 213.161 2063.29 213.161 Q2059.67 213.161 2057.73 215.522 Q2055.81 217.86 2055.81 222.258 L2055.81 235.916 L2051.53 235.916 L2051.53 209.99 L2055.81 209.99 L2055.81 214.018 Q2057.15 211.657 2059.3 210.522 Q2061.46 209.365 2064.54 209.365 Q2064.98 209.365 2065.51 209.434 Q2066.04 209.481 2066.69 209.596 L2066.71 213.971 Z" fill="#000000" fill-rule="nonzero" fill-opacity="1" /><path clip-path="url(#clip110)" d="M2082.96 222.883 Q2077.8 222.883 2075.81 224.064 Q2073.82 225.244 2073.82 228.092 Q2073.82 230.36 2075.3 231.703 Q2076.8 233.022 2079.37 233.022 Q2082.92 233.022 2085.05 230.522 Q2087.2 227.999 2087.2 223.832 L2087.2 222.883 L2082.96 222.883 M2091.46 221.124 L2091.46 235.916 L2087.2 235.916 L2087.2 231.981 Q2085.74 234.342 2083.56 235.476 Q2081.39 236.587 2078.24 236.587 Q2074.26 236.587 2071.9 234.365 Q2069.56 232.119 2069.56 228.369 Q2069.56 223.994 2072.48 221.772 Q2075.42 219.55 2081.23 219.55 L2087.2 219.55 L2087.2 219.133 Q2087.2 216.194 2085.25 214.596 Q2083.33 212.976 2079.84 212.976 Q2077.61 212.976 2075.51 213.508 Q2073.4 214.041 2071.46 215.106 L2071.46 211.17 Q2073.8 210.268 2075.99 209.828 Q2078.19 209.365 2080.28 209.365 Q2085.9 209.365 2088.68 212.282 Q2091.46 215.198 2091.46 221.124 Z" fill="#000000" fill-rule="nonzero" fill-opacity="1" /><path clip-path="url(#clip110)" d="M2100.23 209.99 L2104.49 209.99 L2104.49 235.916 L2100.23 235.916 L2100.23 209.99 M2100.23 199.897 L2104.49 199.897 L2104.49 205.291 L2100.23 205.291 L2100.23 199.897 Z" fill="#000000" fill-rule="nonzero" fill-opacity="1" /><path clip-path="url(#clip110)" d="M2134.95 220.268 L2134.95 235.916 L2130.69 235.916 L2130.69 220.407 Q2130.69 216.726 2129.26 214.897 Q2127.82 213.069 2124.95 213.069 Q2121.5 213.069 2119.51 215.268 Q2117.52 217.467 2117.52 221.263 L2117.52 235.916 L2113.24 235.916 L2113.24 209.99 L2117.52 209.99 L2117.52 214.018 Q2119.05 211.68 2121.11 210.522 Q2123.19 209.365 2125.9 209.365 Q2130.37 209.365 2132.66 212.143 Q2134.95 214.897 2134.95 220.268 Z" fill="#000000" fill-rule="nonzero" fill-opacity="1" /><path clip-path="url(#clip110)" d="M2143.45 209.99 L2147.71 209.99 L2147.71 235.916 L2143.45 235.916 L2143.45 209.99 M2143.45 199.897 L2147.71 199.897 L2147.71 205.291 L2143.45 205.291 L2143.45 199.897 Z" fill="#000000" fill-rule="nonzero" fill-opacity="1" /><path clip-path="url(#clip110)" d="M2178.17 220.268 L2178.17 235.916 L2173.91 235.916 L2173.91 220.407 Q2173.91 216.726 2172.48 214.897 Q2171.04 213.069 2168.17 213.069 Q2164.72 213.069 2162.73 215.268 Q2160.74 217.467 2160.74 221.263 L2160.74 235.916 L2156.46 235.916 L2156.46 209.99 L2160.74 209.99 L2160.74 214.018 Q2162.27 211.68 2164.33 210.522 Q2166.41 209.365 2169.12 209.365 Q2173.59 209.365 2175.88 212.143 Q2178.17 214.897 2178.17 220.268 Z" fill="#000000" fill-rule="nonzero" fill-opacity="1" /><path clip-path="url(#clip110)" d="M2203.72 222.652 Q2203.72 218.022 2201.8 215.476 Q2199.91 212.93 2196.46 212.93 Q2193.03 212.93 2191.11 215.476 Q2189.21 218.022 2189.21 222.652 Q2189.21 227.258 2191.11 229.805 Q2193.03 232.351 2196.46 232.351 Q2199.91 232.351 2201.8 229.805 Q2203.72 227.258 2203.72 222.652 M2207.98 232.698 Q2207.98 239.318 2205.04 242.536 Q2202.1 245.777 2196.04 245.777 Q2193.79 245.777 2191.8 245.43 Q2189.81 245.105 2187.94 244.411 L2187.94 240.268 Q2189.81 241.286 2191.64 241.772 Q2193.47 242.258 2195.37 242.258 Q2199.56 242.258 2201.64 240.059 Q2203.72 237.883 2203.72 233.462 L2203.72 231.356 Q2202.41 233.647 2200.35 234.781 Q2198.29 235.916 2195.41 235.916 Q2190.65 235.916 2187.73 232.281 Q2184.81 228.647 2184.81 222.652 Q2184.81 216.633 2187.73 212.999 Q2190.65 209.365 2195.41 209.365 Q2198.29 209.365 2200.35 210.499 Q2202.41 211.633 2203.72 213.925 L2203.72 209.99 L2207.98 209.99 L2207.98 232.698 Z" fill="#000000" fill-rule="nonzero" fill-opacity="1" /><circle clip-path="url(#clip110)" cx="1935.02" cy="270.476" r="20.48" fill="#e26f46" fill-rule="evenodd" fill-opacity="1" stroke="#000000" stroke-opacity="1" stroke-width="4.55111"/>
<path clip-path="url(#clip110)" d="M2029.91 261.83 L2034.42 261.83 L2042.52 283.589 L2050.62 261.83 L2055.14 261.83 L2045.42 287.756 L2039.63 287.756 L2029.91 261.83 Z" fill="#000000" fill-rule="nonzero" fill-opacity="1" /><path clip-path="url(#clip110)" d="M2072.8 274.723 Q2067.64 274.723 2065.65 275.904 Q2063.66 277.084 2063.66 279.932 Q2063.66 282.2 2065.14 283.543 Q2066.64 284.862 2069.21 284.862 Q2072.75 284.862 2074.88 282.362 Q2077.04 279.839 2077.04 275.672 L2077.04 274.723 L2072.8 274.723 M2081.3 272.964 L2081.3 287.756 L2077.04 287.756 L2077.04 283.821 Q2075.58 286.182 2073.4 287.316 Q2071.23 288.427 2068.08 288.427 Q2064.1 288.427 2061.74 286.205 Q2059.4 283.959 2059.4 280.209 Q2059.4 275.834 2062.31 273.612 Q2065.25 271.39 2071.06 271.39 L2077.04 271.39 L2077.04 270.973 Q2077.04 268.034 2075.09 266.436 Q2073.17 264.816 2069.67 264.816 Q2067.45 264.816 2065.35 265.348 Q2063.24 265.881 2061.3 266.946 L2061.3 263.01 Q2063.63 262.108 2065.83 261.668 Q2068.03 261.205 2070.11 261.205 Q2075.74 261.205 2078.52 264.122 Q2081.3 267.038 2081.3 272.964 Z" fill="#000000" fill-rule="nonzero" fill-opacity="1" /><path clip-path="url(#clip110)" d="M2090.07 251.737 L2094.33 251.737 L2094.33 287.756 L2090.07 287.756 L2090.07 251.737 Z" fill="#000000" fill-rule="nonzero" fill-opacity="1" /><path clip-path="url(#clip110)" d="M2103.24 261.83 L2107.5 261.83 L2107.5 287.756 L2103.24 287.756 L2103.24 261.83 M2103.24 251.737 L2107.5 251.737 L2107.5 257.131 L2103.24 257.131 L2103.24 251.737 Z" fill="#000000" fill-rule="nonzero" fill-opacity="1" /><path clip-path="url(#clip110)" d="M2133.47 265.765 L2133.47 251.737 L2137.73 251.737 L2137.73 287.756 L2133.47 287.756 L2133.47 283.867 Q2132.13 286.182 2130.07 287.316 Q2128.03 288.427 2125.16 288.427 Q2120.46 288.427 2117.5 284.677 Q2114.56 280.927 2114.56 274.816 Q2114.56 268.705 2117.5 264.955 Q2120.46 261.205 2125.16 261.205 Q2128.03 261.205 2130.07 262.339 Q2132.13 263.45 2133.47 265.765 M2118.96 274.816 Q2118.96 279.515 2120.88 282.2 Q2122.82 284.862 2126.2 284.862 Q2129.58 284.862 2131.53 282.2 Q2133.47 279.515 2133.47 274.816 Q2133.47 270.117 2131.53 267.455 Q2129.58 264.77 2126.2 264.77 Q2122.82 264.77 2120.88 267.455 Q2118.96 270.117 2118.96 274.816 Z" fill="#000000" fill-rule="nonzero" fill-opacity="1" /><path clip-path="url(#clip110)" d="M2158.29 274.723 Q2153.12 274.723 2151.13 275.904 Q2149.14 277.084 2149.14 279.932 Q2149.14 282.2 2150.62 283.543 Q2152.13 284.862 2154.7 284.862 Q2158.24 284.862 2160.37 282.362 Q2162.52 279.839 2162.52 275.672 L2162.52 274.723 L2158.29 274.723 M2166.78 272.964 L2166.78 287.756 L2162.52 287.756 L2162.52 283.821 Q2161.06 286.182 2158.89 287.316 Q2156.71 288.427 2153.56 288.427 Q2149.58 288.427 2147.22 286.205 Q2144.88 283.959 2144.88 280.209 Q2144.88 275.834 2147.8 273.612 Q2150.74 271.39 2156.55 271.39 L2162.52 271.39 L2162.52 270.973 Q2162.52 268.034 2160.58 266.436 Q2158.66 264.816 2155.16 264.816 Q2152.94 264.816 2150.83 265.348 Q2148.73 265.881 2146.78 266.946 L2146.78 263.01 Q2149.12 262.108 2151.32 261.668 Q2153.52 261.205 2155.6 261.205 Q2161.23 261.205 2164 264.122 Q2166.78 267.038 2166.78 272.964 Z" fill="#000000" fill-rule="nonzero" fill-opacity="1" /><path clip-path="url(#clip110)" d="M2179.77 254.469 L2179.77 261.83 L2188.54 261.83 L2188.54 265.14 L2179.77 265.14 L2179.77 279.214 Q2179.77 282.385 2180.62 283.288 Q2181.5 284.191 2184.16 284.191 L2188.54 284.191 L2188.54 287.756 L2184.16 287.756 Q2179.23 287.756 2177.36 285.927 Q2175.48 284.075 2175.48 279.214 L2175.48 265.14 L2172.36 265.14 L2172.36 261.83 L2175.48 261.83 L2175.48 254.469 L2179.77 254.469 Z" fill="#000000" fill-rule="nonzero" fill-opacity="1" /><path clip-path="url(#clip110)" d="M2194.14 261.83 L2198.4 261.83 L2198.4 287.756 L2194.14 287.756 L2194.14 261.83 M2194.14 251.737 L2198.4 251.737 L2198.4 257.131 L2194.14 257.131 L2194.14 251.737 Z" fill="#000000" fill-rule="nonzero" fill-opacity="1" /><path clip-path="url(#clip110)" d="M2217.36 264.816 Q2213.93 264.816 2211.94 267.501 Q2209.95 270.163 2209.95 274.816 Q2209.95 279.469 2211.92 282.154 Q2213.91 284.816 2217.36 284.816 Q2220.76 284.816 2222.75 282.131 Q2224.74 279.446 2224.74 274.816 Q2224.74 270.21 2222.75 267.524 Q2220.76 264.816 2217.36 264.816 M2217.36 261.205 Q2222.91 261.205 2226.09 264.816 Q2229.26 268.427 2229.26 274.816 Q2229.26 281.182 2226.09 284.816 Q2222.91 288.427 2217.36 288.427 Q2211.78 288.427 2208.61 284.816 Q2205.46 281.182 2205.46 274.816 Q2205.46 268.427 2208.61 264.816 Q2211.78 261.205 2217.36 261.205 Z" fill="#000000" fill-rule="nonzero" fill-opacity="1" /><path clip-path="url(#clip110)" d="M2257.87 272.108 L2257.87 287.756 L2253.61 287.756 L2253.61 272.247 Q2253.61 268.566 2252.17 266.737 Q2250.74 264.909 2247.87 264.909 Q2244.42 264.909 2242.43 267.108 Q2240.44 269.307 2240.44 273.103 L2240.44 287.756 L2236.16 287.756 L2236.16 261.83 L2240.44 261.83 L2240.44 265.858 Q2241.97 263.52 2244.03 262.362 Q2246.11 261.205 2248.82 261.205 Q2253.28 261.205 2255.58 263.983 Q2257.87 266.737 2257.87 272.108 Z" fill="#000000" fill-rule="nonzero" fill-opacity="1" /></svg>
