<?xml version="1.0" encoding="utf-8"?>
<svg xmlns="http://www.w3.org/2000/svg" xmlns:xlink="http://www.w3.org/1999/xlink" width="600" height="400" viewBox="0 0 2400 1600">
<defs>
  <clipPath id="clip230">
    <rect x="0" y="0" width="2400" height="1600"/>
  </clipPath>
</defs>
<path clip-path="url(#clip230)" d="M0 1600 L2400 1600 L2400 0 L0 0  Z" fill="#ffffff" fill-rule="evenodd" fill-opacity="1"/>
<defs>
  <clipPath id="clip231">
    <rect x="480" y="0" width="1681" height="1600"/>
  </clipPath>
</defs>
<path clip-path="url(#clip230)" d="M251.842 1423.18 L2352.76 1423.18 L2352.76 123.472 L251.842 123.472  Z" fill="#ffffff" fill-rule="evenodd" fill-opacity="1"/>
<defs>
  <clipPath id="clip232">
    <rect x="251" y="123" width="2102" height="1301"/>
  </clipPath>
</defs>
<polyline clip-path="url(#clip232)" style="stroke:#000000; stroke-linecap:round; stroke-linejoin:round; stroke-width:2; stroke-opacity:0.1; fill:none" points="641.635,1423.18 641.635,123.472 "/>
<polyline clip-path="url(#clip232)" style="stroke:#000000; stroke-linecap:round; stroke-linejoin:round; stroke-width:2; stroke-opacity:0.1; fill:none" points="1054.55,1423.18 1054.55,123.472 "/>
<polyline clip-path="url(#clip232)" style="stroke:#000000; stroke-linecap:round; stroke-linejoin:round; stroke-width:2; stroke-opacity:0.1; fill:none" points="1467.47,1423.18 1467.47,123.472 "/>
<polyline clip-path="url(#clip232)" style="stroke:#000000; stroke-linecap:round; stroke-linejoin:round; stroke-width:2; stroke-opacity:0.1; fill:none" points="1880.38,1423.18 1880.38,123.472 "/>
<polyline clip-path="url(#clip232)" style="stroke:#000000; stroke-linecap:round; stroke-linejoin:round; stroke-width:2; stroke-opacity:0.1; fill:none" points="2293.3,1423.18 2293.3,123.472 "/>
<polyline clip-path="url(#clip232)" style="stroke:#000000; stroke-linecap:round; stroke-linejoin:round; stroke-width:2; stroke-opacity:0.05; fill:none" points="311.302,1423.18 311.302,123.472 "/>
<polyline clip-path="url(#clip232)" style="stroke:#000000; stroke-linecap:round; stroke-linejoin:round; stroke-width:2; stroke-opacity:0.05; fill:none" points="393.885,1423.18 393.885,123.472 "/>
<polyline clip-path="url(#clip232)" style="stroke:#000000; stroke-linecap:round; stroke-linejoin:round; stroke-width:2; stroke-opacity:0.05; fill:none" points="476.468,1423.18 476.468,123.472 "/>
<polyline clip-path="url(#clip232)" style="stroke:#000000; stroke-linecap:round; stroke-linejoin:round; stroke-width:2; stroke-opacity:0.05; fill:none" points="559.051,1423.18 559.051,123.472 "/>
<polyline clip-path="url(#clip232)" style="stroke:#000000; stroke-linecap:round; stroke-linejoin:round; stroke-width:2; stroke-opacity:0.05; fill:none" points="724.218,1423.18 724.218,123.472 "/>
<polyline clip-path="url(#clip232)" style="stroke:#000000; stroke-linecap:round; stroke-linejoin:round; stroke-width:2; stroke-opacity:0.05; fill:none" points="806.801,1423.18 806.801,123.472 "/>
<polyline clip-path="url(#clip232)" style="stroke:#000000; stroke-linecap:round; stroke-linejoin:round; stroke-width:2; stroke-opacity:0.05; fill:none" points="889.384,1423.18 889.384,123.472 "/>
<polyline clip-path="url(#clip232)" style="stroke:#000000; stroke-linecap:round; stroke-linejoin:round; stroke-width:2; stroke-opacity:0.05; fill:none" points="971.967,1423.18 971.967,123.472 "/>
<polyline clip-path="url(#clip232)" style="stroke:#000000; stroke-linecap:round; stroke-linejoin:round; stroke-width:2; stroke-opacity:0.05; fill:none" points="1137.13,1423.18 1137.13,123.472 "/>
<polyline clip-path="url(#clip232)" style="stroke:#000000; stroke-linecap:round; stroke-linejoin:round; stroke-width:2; stroke-opacity:0.05; fill:none" points="1219.72,1423.18 1219.72,123.472 "/>
<polyline clip-path="url(#clip232)" style="stroke:#000000; stroke-linecap:round; stroke-linejoin:round; stroke-width:2; stroke-opacity:0.05; fill:none" points="1302.3,1423.18 1302.3,123.472 "/>
<polyline clip-path="url(#clip232)" style="stroke:#000000; stroke-linecap:round; stroke-linejoin:round; stroke-width:2; stroke-opacity:0.05; fill:none" points="1384.88,1423.18 1384.88,123.472 "/>
<polyline clip-path="url(#clip232)" style="stroke:#000000; stroke-linecap:round; stroke-linejoin:round; stroke-width:2; stroke-opacity:0.05; fill:none" points="1550.05,1423.18 1550.05,123.472 "/>
<polyline clip-path="url(#clip232)" style="stroke:#000000; stroke-linecap:round; stroke-linejoin:round; stroke-width:2; stroke-opacity:0.05; fill:none" points="1632.63,1423.18 1632.63,123.472 "/>
<polyline clip-path="url(#clip232)" style="stroke:#000000; stroke-linecap:round; stroke-linejoin:round; stroke-width:2; stroke-opacity:0.05; fill:none" points="1715.21,1423.18 1715.21,123.472 "/>
<polyline clip-path="url(#clip232)" style="stroke:#000000; stroke-linecap:round; stroke-linejoin:round; stroke-width:2; stroke-opacity:0.05; fill:none" points="1797.8,1423.18 1797.8,123.472 "/>
<polyline clip-path="url(#clip232)" style="stroke:#000000; stroke-linecap:round; stroke-linejoin:round; stroke-width:2; stroke-opacity:0.05; fill:none" points="1962.96,1423.18 1962.96,123.472 "/>
<polyline clip-path="url(#clip232)" style="stroke:#000000; stroke-linecap:round; stroke-linejoin:round; stroke-width:2; stroke-opacity:0.05; fill:none" points="2045.55,1423.18 2045.55,123.472 "/>
<polyline clip-path="url(#clip232)" style="stroke:#000000; stroke-linecap:round; stroke-linejoin:round; stroke-width:2; stroke-opacity:0.05; fill:none" points="2128.13,1423.18 2128.13,123.472 "/>
<polyline clip-path="url(#clip232)" style="stroke:#000000; stroke-linecap:round; stroke-linejoin:round; stroke-width:2; stroke-opacity:0.05; fill:none" points="2210.71,1423.18 2210.71,123.472 "/>
<polyline clip-path="url(#clip230)" style="stroke:#000000; stroke-linecap:round; stroke-linejoin:round; stroke-width:4; stroke-opacity:1; fill:none" points="251.842,1423.18 2352.76,1423.18 "/>
<polyline clip-path="url(#clip230)" style="stroke:#000000; stroke-linecap:round; stroke-linejoin:round; stroke-width:4; stroke-opacity:1; fill:none" points="641.635,1423.18 641.635,1404.28 "/>
<polyline clip-path="url(#clip230)" style="stroke:#000000; stroke-linecap:round; stroke-linejoin:round; stroke-width:4; stroke-opacity:1; fill:none" points="1054.55,1423.18 1054.55,1404.28 "/>
<polyline clip-path="url(#clip230)" style="stroke:#000000; stroke-linecap:round; stroke-linejoin:round; stroke-width:4; stroke-opacity:1; fill:none" points="1467.47,1423.18 1467.47,1404.28 "/>
<polyline clip-path="url(#clip230)" style="stroke:#000000; stroke-linecap:round; stroke-linejoin:round; stroke-width:4; stroke-opacity:1; fill:none" points="1880.38,1423.18 1880.38,1404.28 "/>
<polyline clip-path="url(#clip230)" style="stroke:#000000; stroke-linecap:round; stroke-linejoin:round; stroke-width:4; stroke-opacity:1; fill:none" points="2293.3,1423.18 2293.3,1404.28 "/>
<polyline clip-path="url(#clip230)" style="stroke:#000000; stroke-linecap:round; stroke-linejoin:round; stroke-width:4; stroke-opacity:1; fill:none" points="311.302,1423.18 311.302,1413.73 "/>
<polyline clip-path="url(#clip230)" style="stroke:#000000; stroke-linecap:round; stroke-linejoin:round; stroke-width:4; stroke-opacity:1; fill:none" points="393.885,1423.18 393.885,1413.73 "/>
<polyline clip-path="url(#clip230)" style="stroke:#000000; stroke-linecap:round; stroke-linejoin:round; stroke-width:4; stroke-opacity:1; fill:none" points="476.468,1423.18 476.468,1413.73 "/>
<polyline clip-path="url(#clip230)" style="stroke:#000000; stroke-linecap:round; stroke-linejoin:round; stroke-width:4; stroke-opacity:1; fill:none" points="559.051,1423.18 559.051,1413.73 "/>
<polyline clip-path="url(#clip230)" style="stroke:#000000; stroke-linecap:round; stroke-linejoin:round; stroke-width:4; stroke-opacity:1; fill:none" points="724.218,1423.18 724.218,1413.73 "/>
<polyline clip-path="url(#clip230)" style="stroke:#000000; stroke-linecap:round; stroke-linejoin:round; stroke-width:4; stroke-opacity:1; fill:none" points="806.801,1423.18 806.801,1413.73 "/>
<polyline clip-path="url(#clip230)" style="stroke:#000000; stroke-linecap:round; stroke-linejoin:round; stroke-width:4; stroke-opacity:1; fill:none" points="889.384,1423.18 889.384,1413.73 "/>
<polyline clip-path="url(#clip230)" style="stroke:#000000; stroke-linecap:round; stroke-linejoin:round; stroke-width:4; stroke-opacity:1; fill:none" points="971.967,1423.18 971.967,1413.73 "/>
<polyline clip-path="url(#clip230)" style="stroke:#000000; stroke-linecap:round; stroke-linejoin:round; stroke-width:4; stroke-opacity:1; fill:none" points="1137.13,1423.18 1137.13,1413.73 "/>
<polyline clip-path="url(#clip230)" style="stroke:#000000; stroke-linecap:round; stroke-linejoin:round; stroke-width:4; stroke-opacity:1; fill:none" points="1219.72,1423.18 1219.72,1413.73 "/>
<polyline clip-path="url(#clip230)" style="stroke:#000000; stroke-linecap:round; stroke-linejoin:round; stroke-width:4; stroke-opacity:1; fill:none" points="1302.3,1423.18 1302.3,1413.73 "/>
<polyline clip-path="url(#clip230)" style="stroke:#000000; stroke-linecap:round; stroke-linejoin:round; stroke-width:4; stroke-opacity:1; fill:none" points="1384.88,1423.18 1384.88,1413.73 "/>
<polyline clip-path="url(#clip230)" style="stroke:#000000; stroke-linecap:round; stroke-linejoin:round; stroke-width:4; stroke-opacity:1; fill:none" points="1550.05,1423.18 1550.05,1413.73 "/>
<polyline clip-path="url(#clip230)" style="stroke:#000000; stroke-linecap:round; stroke-linejoin:round; stroke-width:4; stroke-opacity:1; fill:none" points="1632.63,1423.18 1632.63,1413.73 "/>
<polyline clip-path="url(#clip230)" style="stroke:#000000; stroke-linecap:round; stroke-linejoin:round; stroke-width:4; stroke-opacity:1; fill:none" points="1715.21,1423.18 1715.21,1413.73 "/>
<polyline clip-path="url(#clip230)" style="stroke:#000000; stroke-linecap:round; stroke-linejoin:round; stroke-width:4; stroke-opacity:1; fill:none" points="1797.8,1423.18 1797.8,1413.73 "/>
<polyline clip-path="url(#clip230)" style="stroke:#000000; stroke-linecap:round; stroke-linejoin:round; stroke-width:4; stroke-opacity:1; fill:none" points="1962.96,1423.18 1962.96,1413.73 "/>
<polyline clip-path="url(#clip230)" style="stroke:#000000; stroke-linecap:round; stroke-linejoin:round; stroke-width:4; stroke-opacity:1; fill:none" points="2045.55,1423.18 2045.55,1413.73 "/>
<polyline clip-path="url(#clip230)" style="stroke:#000000; stroke-linecap:round; stroke-linejoin:round; stroke-width:4; stroke-opacity:1; fill:none" points="2128.13,1423.18 2128.13,1413.73 "/>
<polyline clip-path="url(#clip230)" style="stroke:#000000; stroke-linecap:round; stroke-linejoin:round; stroke-width:4; stroke-opacity:1; fill:none" points="2210.71,1423.18 2210.71,1413.73 "/>
<path clip-path="url(#clip230)" d="M616.322 1481.64 L623.961 1481.64 L623.961 1455.28 L615.651 1456.95 L615.651 1452.69 L623.915 1451.02 L628.591 1451.02 L628.591 1481.64 L636.229 1481.64 L636.229 1485.58 L616.322 1485.58 L616.322 1481.64 Z" fill="#000000" fill-rule="nonzero" fill-opacity="1" /><path clip-path="url(#clip230)" d="M655.674 1454.1 Q652.063 1454.1 650.234 1457.66 Q648.428 1461.2 648.428 1468.33 Q648.428 1475.44 650.234 1479.01 Q652.063 1482.55 655.674 1482.55 Q659.308 1482.55 661.114 1479.01 Q662.942 1475.44 662.942 1468.33 Q662.942 1461.2 661.114 1457.66 Q659.308 1454.1 655.674 1454.1 M655.674 1450.39 Q661.484 1450.39 664.539 1455 Q667.618 1459.58 667.618 1468.33 Q667.618 1477.06 664.539 1481.67 Q661.484 1486.25 655.674 1486.25 Q649.864 1486.25 646.785 1481.67 Q643.729 1477.06 643.729 1468.33 Q643.729 1459.58 646.785 1455 Q649.864 1450.39 655.674 1450.39 Z" fill="#000000" fill-rule="nonzero" fill-opacity="1" /><path clip-path="url(#clip230)" d="M1033.32 1481.64 L1049.64 1481.64 L1049.64 1485.58 L1027.7 1485.58 L1027.7 1481.64 Q1030.36 1478.89 1034.94 1474.26 Q1039.55 1469.61 1040.73 1468.27 Q1042.98 1465.74 1043.86 1464.01 Q1044.76 1462.25 1044.76 1460.56 Q1044.76 1457.8 1042.81 1456.07 Q1040.89 1454.33 1037.79 1454.33 Q1035.59 1454.33 1033.14 1455.09 Q1030.71 1455.86 1027.93 1457.41 L1027.93 1452.69 Q1030.75 1451.55 1033.21 1450.97 Q1035.66 1450.39 1037.7 1450.39 Q1043.07 1450.39 1046.26 1453.08 Q1049.46 1455.77 1049.46 1460.26 Q1049.46 1462.39 1048.65 1464.31 Q1047.86 1466.2 1045.75 1468.8 Q1045.17 1469.47 1042.07 1472.69 Q1038.97 1475.88 1033.32 1481.64 Z" fill="#000000" fill-rule="nonzero" fill-opacity="1" /><path clip-path="url(#clip230)" d="M1069.46 1454.1 Q1065.85 1454.1 1064.02 1457.66 Q1062.21 1461.2 1062.21 1468.33 Q1062.21 1475.44 1064.02 1479.01 Q1065.85 1482.55 1069.46 1482.55 Q1073.09 1482.55 1074.9 1479.01 Q1076.73 1475.44 1076.73 1468.33 Q1076.73 1461.2 1074.9 1457.66 Q1073.09 1454.1 1069.46 1454.1 M1069.46 1450.39 Q1075.27 1450.39 1078.32 1455 Q1081.4 1459.58 1081.4 1468.33 Q1081.4 1477.06 1078.32 1481.67 Q1075.27 1486.25 1069.46 1486.25 Q1063.65 1486.25 1060.57 1481.67 Q1057.51 1477.06 1057.51 1468.33 Q1057.51 1459.58 1060.57 1455 Q1063.65 1450.39 1069.46 1450.39 Z" fill="#000000" fill-rule="nonzero" fill-opacity="1" /><path clip-path="url(#clip230)" d="M1456.31 1466.95 Q1459.66 1467.66 1461.54 1469.93 Q1463.44 1472.2 1463.44 1475.53 Q1463.44 1480.65 1459.92 1483.45 Q1456.4 1486.25 1449.92 1486.25 Q1447.74 1486.25 1445.43 1485.81 Q1443.14 1485.39 1440.68 1484.54 L1440.68 1480.02 Q1442.63 1481.16 1444.94 1481.74 Q1447.26 1482.32 1449.78 1482.32 Q1454.18 1482.32 1456.47 1480.58 Q1458.78 1478.84 1458.78 1475.53 Q1458.78 1472.48 1456.63 1470.77 Q1454.5 1469.03 1450.68 1469.03 L1446.66 1469.03 L1446.66 1465.19 L1450.87 1465.19 Q1454.32 1465.19 1456.15 1463.82 Q1457.97 1462.43 1457.97 1459.84 Q1457.97 1457.18 1456.08 1455.77 Q1454.2 1454.33 1450.68 1454.33 Q1448.76 1454.33 1446.56 1454.75 Q1444.36 1455.16 1441.72 1456.04 L1441.72 1451.88 Q1444.39 1451.14 1446.7 1450.77 Q1449.04 1450.39 1451.1 1450.39 Q1456.42 1450.39 1459.53 1452.83 Q1462.63 1455.23 1462.63 1459.35 Q1462.63 1462.22 1460.98 1464.21 Q1459.34 1466.18 1456.31 1466.95 Z" fill="#000000" fill-rule="nonzero" fill-opacity="1" /><path clip-path="url(#clip230)" d="M1482.3 1454.1 Q1478.69 1454.1 1476.86 1457.66 Q1475.06 1461.2 1475.06 1468.33 Q1475.06 1475.44 1476.86 1479.01 Q1478.69 1482.55 1482.3 1482.55 Q1485.94 1482.55 1487.74 1479.01 Q1489.57 1475.44 1489.57 1468.33 Q1489.57 1461.2 1487.74 1457.66 Q1485.94 1454.1 1482.3 1454.1 M1482.3 1450.39 Q1488.11 1450.39 1491.17 1455 Q1494.25 1459.58 1494.25 1468.33 Q1494.25 1477.06 1491.17 1481.67 Q1488.11 1486.25 1482.3 1486.25 Q1476.49 1486.25 1473.41 1481.67 Q1470.36 1477.06 1470.36 1468.33 Q1470.36 1459.58 1473.41 1455 Q1476.49 1450.39 1482.3 1450.39 Z" fill="#000000" fill-rule="nonzero" fill-opacity="1" /><path clip-path="url(#clip230)" d="M1868.55 1455.09 L1856.75 1473.54 L1868.55 1473.54 L1868.55 1455.09 M1867.33 1451.02 L1873.2 1451.02 L1873.2 1473.54 L1878.14 1473.54 L1878.14 1477.43 L1873.2 1477.43 L1873.2 1485.58 L1868.55 1485.58 L1868.55 1477.43 L1852.95 1477.43 L1852.95 1472.92 L1867.33 1451.02 Z" fill="#000000" fill-rule="nonzero" fill-opacity="1" /><path clip-path="url(#clip230)" d="M1895.87 1454.1 Q1892.26 1454.1 1890.43 1457.66 Q1888.62 1461.2 1888.62 1468.33 Q1888.62 1475.44 1890.43 1479.01 Q1892.26 1482.55 1895.87 1482.55 Q1899.5 1482.55 1901.31 1479.01 Q1903.14 1475.44 1903.14 1468.33 Q1903.14 1461.2 1901.31 1457.66 Q1899.5 1454.1 1895.87 1454.1 M1895.87 1450.39 Q1901.68 1450.39 1904.73 1455 Q1907.81 1459.58 1907.81 1468.33 Q1907.81 1477.06 1904.73 1481.67 Q1901.68 1486.25 1895.87 1486.25 Q1890.06 1486.25 1886.98 1481.67 Q1883.92 1477.06 1883.92 1468.33 Q1883.92 1459.58 1886.98 1455 Q1890.06 1450.39 1895.87 1450.39 Z" fill="#000000" fill-rule="nonzero" fill-opacity="1" /><path clip-path="url(#clip230)" d="M2268 1451.02 L2286.35 1451.02 L2286.35 1454.96 L2272.28 1454.96 L2272.28 1463.43 Q2273.3 1463.08 2274.31 1462.92 Q2275.33 1462.73 2276.35 1462.73 Q2282.14 1462.73 2285.52 1465.9 Q2288.9 1469.08 2288.9 1474.49 Q2288.9 1480.07 2285.43 1483.17 Q2281.95 1486.25 2275.63 1486.25 Q2273.46 1486.25 2271.19 1485.88 Q2268.94 1485.51 2266.54 1484.77 L2266.54 1480.07 Q2268.62 1481.2 2270.84 1481.76 Q2273.06 1482.32 2275.54 1482.32 Q2279.55 1482.32 2281.88 1480.21 Q2284.22 1478.1 2284.22 1474.49 Q2284.22 1470.88 2281.88 1468.77 Q2279.55 1466.67 2275.54 1466.67 Q2273.67 1466.67 2271.79 1467.08 Q2269.94 1467.5 2268 1468.38 L2268 1451.02 Z" fill="#000000" fill-rule="nonzero" fill-opacity="1" /><path clip-path="url(#clip230)" d="M2308.11 1454.1 Q2304.5 1454.1 2302.67 1457.66 Q2300.87 1461.2 2300.87 1468.33 Q2300.87 1475.44 2302.67 1479.01 Q2304.5 1482.55 2308.11 1482.55 Q2311.75 1482.55 2313.55 1479.01 Q2315.38 1475.44 2315.38 1468.33 Q2315.38 1461.2 2313.55 1457.66 Q2311.75 1454.1 2308.11 1454.1 M2308.11 1450.39 Q2313.92 1450.39 2316.98 1455 Q2320.06 1459.58 2320.06 1468.33 Q2320.06 1477.06 2316.98 1481.67 Q2313.92 1486.25 2308.11 1486.25 Q2302.3 1486.25 2299.22 1481.67 Q2296.17 1477.06 2296.17 1468.33 Q2296.17 1459.58 2299.22 1455 Q2302.3 1450.39 2308.11 1450.39 Z" fill="#000000" fill-rule="nonzero" fill-opacity="1" /><path clip-path="url(#clip230)" d="M1217.13 1546.53 L1217.13 1568.04 L1211.27 1568.04 L1211.27 1546.72 Q1211.27 1541.66 1209.3 1539.14 Q1207.32 1536.63 1203.38 1536.63 Q1198.63 1536.63 1195.9 1539.65 Q1193.16 1542.68 1193.16 1547.9 L1193.16 1568.04 L1187.27 1568.04 L1187.27 1518.52 L1193.16 1518.52 L1193.16 1537.93 Q1195.26 1534.72 1198.09 1533.13 Q1200.96 1531.54 1204.68 1531.54 Q1210.82 1531.54 1213.97 1535.36 Q1217.13 1539.14 1217.13 1546.53 Z" fill="#000000" fill-rule="nonzero" fill-opacity="1" /><path clip-path="url(#clip230)" d="M1242.62 1536.5 Q1237.91 1536.5 1235.17 1540.19 Q1232.44 1543.85 1232.44 1550.25 Q1232.44 1556.65 1235.14 1560.34 Q1237.88 1564 1242.62 1564 Q1247.3 1564 1250.04 1560.31 Q1252.77 1556.62 1252.77 1550.25 Q1252.77 1543.92 1250.04 1540.23 Q1247.3 1536.5 1242.62 1536.5 M1242.62 1531.54 Q1250.26 1531.54 1254.62 1536.5 Q1258.98 1541.47 1258.98 1550.25 Q1258.98 1559 1254.62 1564 Q1250.26 1568.97 1242.62 1568.97 Q1234.95 1568.97 1230.59 1564 Q1226.26 1559 1226.26 1550.25 Q1226.26 1541.47 1230.59 1536.5 Q1234.95 1531.54 1242.62 1531.54 Z" fill="#000000" fill-rule="nonzero" fill-opacity="1" /><path clip-path="url(#clip230)" d="M1289.34 1537.87 Q1288.36 1537.3 1287.18 1537.04 Q1286.03 1536.76 1284.63 1536.76 Q1279.67 1536.76 1277 1540 Q1274.35 1543.22 1274.35 1549.27 L1274.35 1568.04 L1268.47 1568.04 L1268.47 1532.4 L1274.35 1532.4 L1274.35 1537.93 Q1276.2 1534.69 1279.16 1533.13 Q1282.12 1531.54 1286.35 1531.54 Q1286.96 1531.54 1287.69 1531.63 Q1288.42 1531.7 1289.31 1531.85 L1289.34 1537.87 Z" fill="#000000" fill-rule="nonzero" fill-opacity="1" /><path clip-path="url(#clip230)" d="M1295.49 1532.4 L1301.34 1532.4 L1301.34 1568.04 L1295.49 1568.04 L1295.49 1532.4 M1295.49 1518.52 L1301.34 1518.52 L1301.34 1525.93 L1295.49 1525.93 L1295.49 1518.52 Z" fill="#000000" fill-rule="nonzero" fill-opacity="1" /><path clip-path="url(#clip230)" d="M1311.05 1532.4 L1338.87 1532.4 L1338.87 1537.74 L1316.84 1563.37 L1338.87 1563.37 L1338.87 1568.04 L1310.26 1568.04 L1310.26 1562.7 L1332.28 1537.07 L1311.05 1537.07 L1311.05 1532.4 Z" fill="#000000" fill-rule="nonzero" fill-opacity="1" /><path clip-path="url(#clip230)" d="M1361.63 1536.5 Q1356.92 1536.5 1354.18 1540.19 Q1351.44 1543.85 1351.44 1550.25 Q1351.44 1556.65 1354.15 1560.34 Q1356.89 1564 1361.63 1564 Q1366.31 1564 1369.04 1560.31 Q1371.78 1556.62 1371.78 1550.25 Q1371.78 1543.92 1369.04 1540.23 Q1366.31 1536.5 1361.63 1536.5 M1361.63 1531.54 Q1369.27 1531.54 1373.63 1536.5 Q1377.99 1541.47 1377.99 1550.25 Q1377.99 1559 1373.63 1564 Q1369.27 1568.97 1361.63 1568.97 Q1353.96 1568.97 1349.6 1564 Q1345.27 1559 1345.27 1550.25 Q1345.27 1541.47 1349.6 1536.5 Q1353.96 1531.54 1361.63 1531.54 Z" fill="#000000" fill-rule="nonzero" fill-opacity="1" /><path clip-path="url(#clip230)" d="M1417.33 1546.53 L1417.33 1568.04 L1411.47 1568.04 L1411.47 1546.72 Q1411.47 1541.66 1409.5 1539.14 Q1407.52 1536.63 1403.58 1536.63 Q1398.84 1536.63 1396.1 1539.65 Q1393.36 1542.68 1393.36 1547.9 L1393.36 1568.04 L1387.47 1568.04 L1387.47 1532.4 L1393.36 1532.4 L1393.36 1537.93 Q1395.46 1534.72 1398.29 1533.13 Q1401.16 1531.54 1404.88 1531.54 Q1411.03 1531.54 1414.18 1535.36 Q1417.33 1539.14 1417.33 1546.53 Z" fill="#000000" fill-rule="nonzero" fill-opacity="1" /><polyline clip-path="url(#clip232)" style="stroke:#000000; stroke-linecap:round; stroke-linejoin:round; stroke-width:2; stroke-opacity:0.1; fill:none" points="251.842,1234.75 2352.76,1234.75 "/>
<polyline clip-path="url(#clip232)" style="stroke:#000000; stroke-linecap:round; stroke-linejoin:round; stroke-width:2; stroke-opacity:0.1; fill:none" points="251.842,788.525 2352.76,788.525 "/>
<polyline clip-path="url(#clip232)" style="stroke:#000000; stroke-linecap:round; stroke-linejoin:round; stroke-width:2; stroke-opacity:0.1; fill:none" points="251.842,342.301 2352.76,342.301 "/>
<polyline clip-path="url(#clip232)" style="stroke:#000000; stroke-linecap:round; stroke-linejoin:round; stroke-width:2; stroke-opacity:0.05; fill:none" points="251.842,1412.32 2352.76,1412.32 "/>
<polyline clip-path="url(#clip232)" style="stroke:#000000; stroke-linecap:round; stroke-linejoin:round; stroke-width:2; stroke-opacity:0.05; fill:none" points="251.842,1369.08 2352.76,1369.08 "/>
<polyline clip-path="url(#clip232)" style="stroke:#000000; stroke-linecap:round; stroke-linejoin:round; stroke-width:2; stroke-opacity:0.05; fill:none" points="251.842,1333.74 2352.76,1333.74 "/>
<polyline clip-path="url(#clip232)" style="stroke:#000000; stroke-linecap:round; stroke-linejoin:round; stroke-width:2; stroke-opacity:0.05; fill:none" points="251.842,1303.87 2352.76,1303.87 "/>
<polyline clip-path="url(#clip232)" style="stroke:#000000; stroke-linecap:round; stroke-linejoin:round; stroke-width:2; stroke-opacity:0.05; fill:none" points="251.842,1277.99 2352.76,1277.99 "/>
<polyline clip-path="url(#clip232)" style="stroke:#000000; stroke-linecap:round; stroke-linejoin:round; stroke-width:2; stroke-opacity:0.05; fill:none" points="251.842,1255.17 2352.76,1255.17 "/>
<polyline clip-path="url(#clip232)" style="stroke:#000000; stroke-linecap:round; stroke-linejoin:round; stroke-width:2; stroke-opacity:0.05; fill:none" points="251.842,1100.42 2352.76,1100.42 "/>
<polyline clip-path="url(#clip232)" style="stroke:#000000; stroke-linecap:round; stroke-linejoin:round; stroke-width:2; stroke-opacity:0.05; fill:none" points="251.842,1021.85 2352.76,1021.85 "/>
<polyline clip-path="url(#clip232)" style="stroke:#000000; stroke-linecap:round; stroke-linejoin:round; stroke-width:2; stroke-opacity:0.05; fill:none" points="251.842,966.095 2352.76,966.095 "/>
<polyline clip-path="url(#clip232)" style="stroke:#000000; stroke-linecap:round; stroke-linejoin:round; stroke-width:2; stroke-opacity:0.05; fill:none" points="251.842,922.852 2352.76,922.852 "/>
<polyline clip-path="url(#clip232)" style="stroke:#000000; stroke-linecap:round; stroke-linejoin:round; stroke-width:2; stroke-opacity:0.05; fill:none" points="251.842,887.519 2352.76,887.519 "/>
<polyline clip-path="url(#clip232)" style="stroke:#000000; stroke-linecap:round; stroke-linejoin:round; stroke-width:2; stroke-opacity:0.05; fill:none" points="251.842,857.646 2352.76,857.646 "/>
<polyline clip-path="url(#clip232)" style="stroke:#000000; stroke-linecap:round; stroke-linejoin:round; stroke-width:2; stroke-opacity:0.05; fill:none" points="251.842,831.768 2352.76,831.768 "/>
<polyline clip-path="url(#clip232)" style="stroke:#000000; stroke-linecap:round; stroke-linejoin:round; stroke-width:2; stroke-opacity:0.05; fill:none" points="251.842,808.943 2352.76,808.943 "/>
<polyline clip-path="url(#clip232)" style="stroke:#000000; stroke-linecap:round; stroke-linejoin:round; stroke-width:2; stroke-opacity:0.05; fill:none" points="251.842,654.198 2352.76,654.198 "/>
<polyline clip-path="url(#clip232)" style="stroke:#000000; stroke-linecap:round; stroke-linejoin:round; stroke-width:2; stroke-opacity:0.05; fill:none" points="251.842,575.622 2352.76,575.622 "/>
<polyline clip-path="url(#clip232)" style="stroke:#000000; stroke-linecap:round; stroke-linejoin:round; stroke-width:2; stroke-opacity:0.05; fill:none" points="251.842,519.871 2352.76,519.871 "/>
<polyline clip-path="url(#clip232)" style="stroke:#000000; stroke-linecap:round; stroke-linejoin:round; stroke-width:2; stroke-opacity:0.05; fill:none" points="251.842,476.627 2352.76,476.627 "/>
<polyline clip-path="url(#clip232)" style="stroke:#000000; stroke-linecap:round; stroke-linejoin:round; stroke-width:2; stroke-opacity:0.05; fill:none" points="251.842,441.295 2352.76,441.295 "/>
<polyline clip-path="url(#clip232)" style="stroke:#000000; stroke-linecap:round; stroke-linejoin:round; stroke-width:2; stroke-opacity:0.05; fill:none" points="251.842,411.422 2352.76,411.422 "/>
<polyline clip-path="url(#clip232)" style="stroke:#000000; stroke-linecap:round; stroke-linejoin:round; stroke-width:2; stroke-opacity:0.05; fill:none" points="251.842,385.544 2352.76,385.544 "/>
<polyline clip-path="url(#clip232)" style="stroke:#000000; stroke-linecap:round; stroke-linejoin:round; stroke-width:2; stroke-opacity:0.05; fill:none" points="251.842,362.719 2352.76,362.719 "/>
<polyline clip-path="url(#clip232)" style="stroke:#000000; stroke-linecap:round; stroke-linejoin:round; stroke-width:2; stroke-opacity:0.05; fill:none" points="251.842,207.974 2352.76,207.974 "/>
<polyline clip-path="url(#clip232)" style="stroke:#000000; stroke-linecap:round; stroke-linejoin:round; stroke-width:2; stroke-opacity:0.05; fill:none" points="251.842,129.398 2352.76,129.398 "/>
<polyline clip-path="url(#clip230)" style="stroke:#000000; stroke-linecap:round; stroke-linejoin:round; stroke-width:4; stroke-opacity:1; fill:none" points="251.842,1423.18 251.842,123.472 "/>
<polyline clip-path="url(#clip230)" style="stroke:#000000; stroke-linecap:round; stroke-linejoin:round; stroke-width:4; stroke-opacity:1; fill:none" points="251.842,1234.75 270.74,1234.75 "/>
<polyline clip-path="url(#clip230)" style="stroke:#000000; stroke-linecap:round; stroke-linejoin:round; stroke-width:4; stroke-opacity:1; fill:none" points="251.842,788.525 270.74,788.525 "/>
<polyline clip-path="url(#clip230)" style="stroke:#000000; stroke-linecap:round; stroke-linejoin:round; stroke-width:4; stroke-opacity:1; fill:none" points="251.842,342.301 270.74,342.301 "/>
<polyline clip-path="url(#clip230)" style="stroke:#000000; stroke-linecap:round; stroke-linejoin:round; stroke-width:4; stroke-opacity:1; fill:none" points="251.842,1412.32 261.291,1412.32 "/>
<polyline clip-path="url(#clip230)" style="stroke:#000000; stroke-linecap:round; stroke-linejoin:round; stroke-width:4; stroke-opacity:1; fill:none" points="251.842,1369.08 261.291,1369.08 "/>
<polyline clip-path="url(#clip230)" style="stroke:#000000; stroke-linecap:round; stroke-linejoin:round; stroke-width:4; stroke-opacity:1; fill:none" points="251.842,1333.74 261.291,1333.74 "/>
<polyline clip-path="url(#clip230)" style="stroke:#000000; stroke-linecap:round; stroke-linejoin:round; stroke-width:4; stroke-opacity:1; fill:none" points="251.842,1303.87 261.291,1303.87 "/>
<polyline clip-path="url(#clip230)" style="stroke:#000000; stroke-linecap:round; stroke-linejoin:round; stroke-width:4; stroke-opacity:1; fill:none" points="251.842,1277.99 261.291,1277.99 "/>
<polyline clip-path="url(#clip230)" style="stroke:#000000; stroke-linecap:round; stroke-linejoin:round; stroke-width:4; stroke-opacity:1; fill:none" points="251.842,1255.17 261.291,1255.17 "/>
<polyline clip-path="url(#clip230)" style="stroke:#000000; stroke-linecap:round; stroke-linejoin:round; stroke-width:4; stroke-opacity:1; fill:none" points="251.842,1100.42 261.291,1100.42 "/>
<polyline clip-path="url(#clip230)" style="stroke:#000000; stroke-linecap:round; stroke-linejoin:round; stroke-width:4; stroke-opacity:1; fill:none" points="251.842,1021.85 261.291,1021.85 "/>
<polyline clip-path="url(#clip230)" style="stroke:#000000; stroke-linecap:round; stroke-linejoin:round; stroke-width:4; stroke-opacity:1; fill:none" points="251.842,966.095 261.291,966.095 "/>
<polyline clip-path="url(#clip230)" style="stroke:#000000; stroke-linecap:round; stroke-linejoin:round; stroke-width:4; stroke-opacity:1; fill:none" points="251.842,922.852 261.291,922.852 "/>
<polyline clip-path="url(#clip230)" style="stroke:#000000; stroke-linecap:round; stroke-linejoin:round; stroke-width:4; stroke-opacity:1; fill:none" points="251.842,887.519 261.291,887.519 "/>
<polyline clip-path="url(#clip230)" style="stroke:#000000; stroke-linecap:round; stroke-linejoin:round; stroke-width:4; stroke-opacity:1; fill:none" points="251.842,857.646 261.291,857.646 "/>
<polyline clip-path="url(#clip230)" style="stroke:#000000; stroke-linecap:round; stroke-linejoin:round; stroke-width:4; stroke-opacity:1; fill:none" points="251.842,831.768 261.291,831.768 "/>
<polyline clip-path="url(#clip230)" style="stroke:#000000; stroke-linecap:round; stroke-linejoin:round; stroke-width:4; stroke-opacity:1; fill:none" points="251.842,808.943 261.291,808.943 "/>
<polyline clip-path="url(#clip230)" style="stroke:#000000; stroke-linecap:round; stroke-linejoin:round; stroke-width:4; stroke-opacity:1; fill:none" points="251.842,654.198 261.291,654.198 "/>
<polyline clip-path="url(#clip230)" style="stroke:#000000; stroke-linecap:round; stroke-linejoin:round; stroke-width:4; stroke-opacity:1; fill:none" points="251.842,575.622 261.291,575.622 "/>
<polyline clip-path="url(#clip230)" style="stroke:#000000; stroke-linecap:round; stroke-linejoin:round; stroke-width:4; stroke-opacity:1; fill:none" points="251.842,519.871 261.291,519.871 "/>
<polyline clip-path="url(#clip230)" style="stroke:#000000; stroke-linecap:round; stroke-linejoin:round; stroke-width:4; stroke-opacity:1; fill:none" points="251.842,476.627 261.291,476.627 "/>
<polyline clip-path="url(#clip230)" style="stroke:#000000; stroke-linecap:round; stroke-linejoin:round; stroke-width:4; stroke-opacity:1; fill:none" points="251.842,441.295 261.291,441.295 "/>
<polyline clip-path="url(#clip230)" style="stroke:#000000; stroke-linecap:round; stroke-linejoin:round; stroke-width:4; stroke-opacity:1; fill:none" points="251.842,411.422 261.291,411.422 "/>
<polyline clip-path="url(#clip230)" style="stroke:#000000; stroke-linecap:round; stroke-linejoin:round; stroke-width:4; stroke-opacity:1; fill:none" points="251.842,385.544 261.291,385.544 "/>
<polyline clip-path="url(#clip230)" style="stroke:#000000; stroke-linecap:round; stroke-linejoin:round; stroke-width:4; stroke-opacity:1; fill:none" points="251.842,362.719 261.291,362.719 "/>
<polyline clip-path="url(#clip230)" style="stroke:#000000; stroke-linecap:round; stroke-linejoin:round; stroke-width:4; stroke-opacity:1; fill:none" points="251.842,207.974 261.291,207.974 "/>
<polyline clip-path="url(#clip230)" style="stroke:#000000; stroke-linecap:round; stroke-linejoin:round; stroke-width:4; stroke-opacity:1; fill:none" points="251.842,129.398 261.291,129.398 "/>
<path clip-path="url(#clip230)" d="M114.931 1254.54 L122.57 1254.54 L122.57 1228.18 L114.26 1229.84 L114.26 1225.58 L122.524 1223.92 L127.2 1223.92 L127.2 1254.54 L134.839 1254.54 L134.839 1258.48 L114.931 1258.48 L114.931 1254.54 Z" fill="#000000" fill-rule="nonzero" fill-opacity="1" /><path clip-path="url(#clip230)" d="M154.283 1227 Q150.672 1227 148.843 1230.56 Q147.038 1234.1 147.038 1241.23 Q147.038 1248.34 148.843 1251.9 Q150.672 1255.44 154.283 1255.44 Q157.917 1255.44 159.723 1251.9 Q161.552 1248.34 161.552 1241.23 Q161.552 1234.1 159.723 1230.56 Q157.917 1227 154.283 1227 M154.283 1223.29 Q160.093 1223.29 163.149 1227.9 Q166.227 1232.48 166.227 1241.23 Q166.227 1249.96 163.149 1254.56 Q160.093 1259.15 154.283 1259.15 Q148.473 1259.15 145.394 1254.56 Q142.339 1249.96 142.339 1241.23 Q142.339 1232.48 145.394 1227.9 Q148.473 1223.29 154.283 1223.29 Z" fill="#000000" fill-rule="nonzero" fill-opacity="1" /><path clip-path="url(#clip230)" d="M166.227 1217.39 L190.339 1217.39 L190.339 1220.59 L166.227 1220.59 L166.227 1217.39 Z" fill="#000000" fill-rule="nonzero" fill-opacity="1" /><path clip-path="url(#clip230)" d="M210.05 1215.93 Q212.777 1216.51 214.3 1218.35 Q215.842 1220.2 215.842 1222.9 Q215.842 1227.06 212.984 1229.34 Q210.125 1231.61 204.859 1231.61 Q203.091 1231.61 201.21 1231.25 Q199.348 1230.92 197.354 1230.22 L197.354 1226.55 Q198.934 1227.47 200.815 1227.94 Q202.696 1228.41 204.746 1228.41 Q208.319 1228.41 210.181 1227 Q212.062 1225.59 212.062 1222.9 Q212.062 1220.42 210.313 1219.03 Q208.583 1217.62 205.479 1217.62 L202.207 1217.62 L202.207 1214.5 L205.63 1214.5 Q208.432 1214.5 209.918 1213.39 Q211.404 1212.26 211.404 1210.15 Q211.404 1207.99 209.861 1206.84 Q208.338 1205.68 205.479 1205.68 Q203.918 1205.68 202.132 1206.01 Q200.345 1206.35 198.201 1207.07 L198.201 1203.68 Q200.364 1203.08 202.244 1202.78 Q204.144 1202.48 205.818 1202.48 Q210.144 1202.48 212.664 1204.45 Q215.184 1206.41 215.184 1209.76 Q215.184 1212.09 213.849 1213.71 Q212.513 1215.31 210.05 1215.93 Z" fill="#000000" fill-rule="nonzero" fill-opacity="1" /><path clip-path="url(#clip230)" d="M115.703 808.317 L123.341 808.317 L123.341 781.952 L115.031 783.618 L115.031 779.359 L123.295 777.692 L127.971 777.692 L127.971 808.317 L135.61 808.317 L135.61 812.252 L115.703 812.252 L115.703 808.317 Z" fill="#000000" fill-rule="nonzero" fill-opacity="1" /><path clip-path="url(#clip230)" d="M155.054 780.771 Q151.443 780.771 149.614 784.336 Q147.809 787.877 147.809 795.007 Q147.809 802.113 149.614 805.678 Q151.443 809.22 155.054 809.22 Q158.688 809.22 160.494 805.678 Q162.323 802.113 162.323 795.007 Q162.323 787.877 160.494 784.336 Q158.688 780.771 155.054 780.771 M155.054 777.067 Q160.864 777.067 163.92 781.674 Q166.999 786.257 166.999 795.007 Q166.999 803.734 163.92 808.34 Q160.864 812.924 155.054 812.924 Q149.244 812.924 146.165 808.34 Q143.11 803.734 143.11 795.007 Q143.11 786.257 146.165 781.674 Q149.244 777.067 155.054 777.067 Z" fill="#000000" fill-rule="nonzero" fill-opacity="1" /><path clip-path="url(#clip230)" d="M166.999 771.169 L191.11 771.169 L191.11 774.366 L166.999 774.366 L166.999 771.169 Z" fill="#000000" fill-rule="nonzero" fill-opacity="1" /><path clip-path="url(#clip230)" d="M202.583 781.645 L215.842 781.645 L215.842 784.842 L198.013 784.842 L198.013 781.645 Q200.175 779.406 203.899 775.645 Q207.642 771.865 208.601 770.774 Q210.426 768.724 211.14 767.313 Q211.874 765.884 211.874 764.511 Q211.874 762.273 210.294 760.862 Q208.733 759.451 206.213 759.451 Q204.426 759.451 202.432 760.072 Q200.458 760.693 198.201 761.953 L198.201 758.116 Q200.495 757.194 202.489 756.724 Q204.482 756.254 206.138 756.254 Q210.501 756.254 213.096 758.436 Q215.692 760.617 215.692 764.266 Q215.692 765.996 215.034 767.558 Q214.394 769.1 212.683 771.206 Q212.212 771.752 209.692 774.366 Q207.172 776.961 202.583 781.645 Z" fill="#000000" fill-rule="nonzero" fill-opacity="1" /><path clip-path="url(#clip230)" d="M115.402 362.093 L123.04 362.093 L123.04 335.727 L114.73 337.394 L114.73 333.135 L122.994 331.468 L127.67 331.468 L127.67 362.093 L135.309 362.093 L135.309 366.028 L115.402 366.028 L115.402 362.093 Z" fill="#000000" fill-rule="nonzero" fill-opacity="1" /><path clip-path="url(#clip230)" d="M154.753 334.547 Q151.142 334.547 149.313 338.112 Q147.508 341.653 147.508 348.783 Q147.508 355.889 149.313 359.454 Q151.142 362.996 154.753 362.996 Q158.388 362.996 160.193 359.454 Q162.022 355.889 162.022 348.783 Q162.022 341.653 160.193 338.112 Q158.388 334.547 154.753 334.547 M154.753 330.843 Q160.563 330.843 163.619 335.45 Q166.698 340.033 166.698 348.783 Q166.698 357.51 163.619 362.116 Q160.563 366.699 154.753 366.699 Q148.943 366.699 145.864 362.116 Q142.809 357.51 142.809 348.783 Q142.809 340.033 145.864 335.45 Q148.943 330.843 154.753 330.843 Z" fill="#000000" fill-rule="nonzero" fill-opacity="1" /><path clip-path="url(#clip230)" d="M166.698 324.945 L190.809 324.945 L190.809 328.142 L166.698 328.142 L166.698 324.945 Z" fill="#000000" fill-rule="nonzero" fill-opacity="1" /><path clip-path="url(#clip230)" d="M199.668 335.42 L205.874 335.42 L205.874 313.998 L199.122 315.353 L199.122 311.892 L205.837 310.538 L209.636 310.538 L209.636 335.42 L215.842 335.42 L215.842 338.618 L199.668 338.618 L199.668 335.42 Z" fill="#000000" fill-rule="nonzero" fill-opacity="1" /><path clip-path="url(#clip230)" d="M16.4842 874.557 L16.4842 864.976 L48.8219 852.85 L16.4842 840.659 L16.4842 831.079 L64.0042 831.079 L64.0042 837.349 L22.277 837.349 L54.8694 849.603 L54.8694 856.064 L22.277 868.318 L64.0042 868.318 L64.0042 874.557 L16.4842 874.557 Z" fill="#000000" fill-rule="nonzero" fill-opacity="1" /><path clip-path="url(#clip230)" d="M41.7242 795.781 Q42.4244 793.712 44.7161 791.771 Q47.0077 789.797 51.0181 787.824 L64.0042 781.299 L64.0042 788.206 L51.8138 794.285 Q47.0395 796.64 45.48 798.868 Q43.9204 801.065 43.9204 804.884 L43.9204 811.886 L64.0042 811.886 L64.0042 818.316 L16.4842 818.316 L16.4842 803.802 Q16.4842 795.654 19.8898 791.643 Q23.2955 787.633 30.1704 787.633 Q34.6582 787.633 37.6183 789.734 Q40.5784 791.802 41.7242 795.781 M21.7677 811.886 L38.6368 811.886 L38.6368 803.802 Q38.6368 799.155 36.5043 796.8 Q34.34 794.412 30.1704 794.412 Q26.0009 794.412 23.9002 796.8 Q21.7677 799.155 21.7677 803.802 L21.7677 811.886 Z" fill="#000000" fill-rule="nonzero" fill-opacity="1" /><path clip-path="url(#clip230)" d="M22.818 759.783 L46.4666 768.504 L46.4666 751.03 L22.818 759.783 M16.4842 763.411 L16.4842 756.123 L64.0042 738.012 L64.0042 744.696 L51.8138 749.025 L51.8138 770.446 L64.0042 774.774 L64.0042 781.554 L16.4842 763.411 Z" fill="#000000" fill-rule="nonzero" fill-opacity="1" /><path clip-path="url(#clip230)" d="M16.4842 731.074 L16.4842 701.027 L21.895 701.027 L21.895 724.644 L35.9632 724.644 L35.9632 702.014 L41.3741 702.014 L41.3741 724.644 L58.5933 724.644 L58.5933 700.455 L64.0042 700.455 L64.0042 731.074 L16.4842 731.074 Z" fill="#000000" fill-rule="nonzero" fill-opacity="1" /><path clip-path="url(#clip230)" d="M14.479 672.095 L19.3487 672.095 L19.3487 677.697 Q19.3487 680.848 20.6219 682.089 Q21.895 683.299 25.2052 683.299 L28.3562 683.299 L28.3562 673.655 L32.9077 673.655 L32.9077 683.299 L64.0042 683.299 L64.0042 689.187 L32.9077 689.187 L32.9077 694.789 L28.3562 694.789 L28.3562 689.187 L25.8736 689.187 Q19.9216 689.187 17.2162 686.418 Q14.479 683.649 14.479 677.633 L14.479 672.095 Z" fill="#000000" fill-rule="nonzero" fill-opacity="1" /><path clip-path="url(#clip230)" d="M680.242 43.6931 L680.242 65.8515 L693.367 65.8515 Q699.97 65.8515 703.13 63.1374 Q706.33 60.3828 706.33 54.752 Q706.33 49.0808 703.13 46.4072 Q699.97 43.6931 693.367 43.6931 L680.242 43.6931 M680.242 18.8205 L680.242 37.0496 L692.354 37.0496 Q698.35 37.0496 701.266 34.8216 Q704.224 32.5531 704.224 27.935 Q704.224 23.3575 701.266 21.089 Q698.35 18.8205 692.354 18.8205 L680.242 18.8205 M672.059 12.096 L692.962 12.096 Q702.32 12.096 707.383 15.9849 Q712.447 19.8737 712.447 27.0438 Q712.447 32.5936 709.854 35.8748 Q707.262 39.156 702.239 39.9662 Q708.275 41.2625 711.596 45.3944 Q714.959 49.4858 714.959 55.6432 Q714.959 63.745 709.449 68.1605 Q703.94 72.576 693.772 72.576 L672.059 72.576 L672.059 12.096 Z" fill="#000000" fill-rule="nonzero" fill-opacity="1" /><path clip-path="url(#clip230)" d="M767.458 48.0275 L767.458 51.6733 L733.188 51.6733 Q733.674 59.3701 737.806 63.421 Q741.978 67.4314 749.391 67.4314 Q753.685 67.4314 757.696 66.3781 Q761.746 65.3249 765.716 63.2184 L765.716 70.267 Q761.706 71.9684 757.493 72.8596 Q753.28 73.7508 748.946 73.7508 Q738.089 73.7508 731.729 67.4314 Q725.41 61.1119 725.41 50.3365 Q725.41 39.1965 731.405 32.6746 Q737.441 26.1121 747.649 26.1121 Q756.804 26.1121 762.111 32.0264 Q767.458 37.9003 767.458 48.0275 M760.005 45.84 Q759.924 39.7232 756.561 36.0774 Q753.24 32.4315 747.73 32.4315 Q741.492 32.4315 737.725 35.9558 Q733.998 39.4801 733.431 45.8805 L760.005 45.84 Z" fill="#000000" fill-rule="nonzero" fill-opacity="1" /><path clip-path="url(#clip230)" d="M817.406 45.1919 L817.406 72.576 L809.952 72.576 L809.952 45.4349 Q809.952 38.994 807.441 35.7938 Q804.929 32.5936 799.906 32.5936 Q793.87 32.5936 790.386 36.4419 Q786.903 40.2903 786.903 46.9338 L786.903 72.576 L779.408 72.576 L779.408 9.54393 L786.903 9.54393 L786.903 34.2544 Q789.576 30.163 793.181 28.1376 Q796.827 26.1121 801.567 26.1121 Q809.385 26.1121 813.396 30.9732 Q817.406 35.7938 817.406 45.1919 Z" fill="#000000" fill-rule="nonzero" fill-opacity="1" /><path clip-path="url(#clip230)" d="M852.892 49.7694 Q843.858 49.7694 840.375 51.8354 Q836.891 53.9013 836.891 58.8839 Q836.891 62.8538 839.483 65.2034 Q842.116 67.5124 846.613 67.5124 Q852.811 67.5124 856.538 63.1374 Q860.305 58.7219 860.305 51.4303 L860.305 49.7694 L852.892 49.7694 M867.759 46.6907 L867.759 72.576 L860.305 72.576 L860.305 65.6895 Q857.753 69.8214 853.945 71.8063 Q850.137 73.7508 844.628 73.7508 Q837.66 73.7508 833.529 69.8619 Q829.437 65.9325 829.437 59.3701 Q829.437 51.7138 834.541 47.825 Q839.686 43.9361 849.854 43.9361 L860.305 43.9361 L860.305 43.2069 Q860.305 38.0623 856.902 35.2672 Q853.54 32.4315 847.423 32.4315 Q843.534 32.4315 839.848 33.3632 Q836.162 34.295 832.759 36.1584 L832.759 29.2718 Q836.85 27.692 840.699 26.9223 Q844.547 26.1121 848.193 26.1121 Q858.036 26.1121 862.898 31.2163 Q867.759 36.3204 867.759 46.6907 Z" fill="#000000" fill-rule="nonzero" fill-opacity="1" /><path clip-path="url(#clip230)" d="M877.764 27.2059 L885.664 27.2059 L899.842 65.2844 L914.02 27.2059 L921.919 27.2059 L904.905 72.576 L894.778 72.576 L877.764 27.2059 Z" fill="#000000" fill-rule="nonzero" fill-opacity="1" /><path clip-path="url(#clip230)" d="M932.209 27.2059 L939.662 27.2059 L939.662 72.576 L932.209 72.576 L932.209 27.2059 M932.209 9.54393 L939.662 9.54393 L939.662 18.9825 L932.209 18.9825 L932.209 9.54393 Z" fill="#000000" fill-rule="nonzero" fill-opacity="1" /><path clip-path="url(#clip230)" d="M972.839 32.4315 Q966.844 32.4315 963.36 37.1306 Q959.876 41.7891 959.876 49.9314 Q959.876 58.0738 963.319 62.7728 Q966.803 67.4314 972.839 67.4314 Q978.794 67.4314 982.278 62.7323 Q985.761 58.0333 985.761 49.9314 Q985.761 41.8701 982.278 37.1711 Q978.794 32.4315 972.839 32.4315 M972.839 26.1121 Q982.561 26.1121 988.111 32.4315 Q993.661 38.7509 993.661 49.9314 Q993.661 61.0714 988.111 67.4314 Q982.561 73.7508 972.839 73.7508 Q963.076 73.7508 957.527 67.4314 Q952.017 61.0714 952.017 49.9314 Q952.017 38.7509 957.527 32.4315 Q963.076 26.1121 972.839 26.1121 Z" fill="#000000" fill-rule="nonzero" fill-opacity="1" /><path clip-path="url(#clip230)" d="M1005.25 54.671 L1005.25 27.2059 L1012.7 27.2059 L1012.7 54.3874 Q1012.7 60.8284 1015.21 64.0691 Q1017.72 67.2693 1022.75 67.2693 Q1028.78 67.2693 1032.27 63.421 Q1035.79 59.5726 1035.79 52.9291 L1035.79 27.2059 L1043.24 27.2059 L1043.24 72.576 L1035.79 72.576 L1035.79 65.6084 Q1033.08 69.7404 1029.47 71.7658 Q1025.91 73.7508 1021.17 73.7508 Q1013.35 73.7508 1009.3 68.8897 Q1005.25 64.0286 1005.25 54.671 M1024 26.1121 L1024 26.1121 Z" fill="#000000" fill-rule="nonzero" fill-opacity="1" /><path clip-path="url(#clip230)" d="M1084.89 34.1734 Q1083.63 33.4443 1082.13 33.1202 Q1080.67 32.7556 1078.89 32.7556 Q1072.57 32.7556 1069.17 36.8875 Q1065.81 40.9789 1065.81 48.6757 L1065.81 72.576 L1058.31 72.576 L1058.31 27.2059 L1065.81 27.2059 L1065.81 34.2544 Q1068.16 30.1225 1071.92 28.1376 Q1075.69 26.1121 1081.08 26.1121 Q1081.85 26.1121 1082.78 26.2337 Q1083.71 26.3147 1084.85 26.5172 L1084.89 34.1734 Z" fill="#000000" fill-rule="nonzero" fill-opacity="1" /><path clip-path="url(#clip230)" d="M1113.32 49.7694 Q1104.29 49.7694 1100.81 51.8354 Q1097.32 53.9013 1097.32 58.8839 Q1097.32 62.8538 1099.92 65.2034 Q1102.55 67.5124 1107.05 67.5124 Q1113.24 67.5124 1116.97 63.1374 Q1120.74 58.7219 1120.74 51.4303 L1120.74 49.7694 L1113.32 49.7694 M1128.19 46.6907 L1128.19 72.576 L1120.74 72.576 L1120.74 65.6895 Q1118.19 69.8214 1114.38 71.8063 Q1110.57 73.7508 1105.06 73.7508 Q1098.09 73.7508 1093.96 69.8619 Q1089.87 65.9325 1089.87 59.3701 Q1089.87 51.7138 1094.97 47.825 Q1100.12 43.9361 1110.29 43.9361 L1120.74 43.9361 L1120.74 43.2069 Q1120.74 38.0623 1117.33 35.2672 Q1113.97 32.4315 1107.86 32.4315 Q1103.97 32.4315 1100.28 33.3632 Q1096.59 34.295 1093.19 36.1584 L1093.19 29.2718 Q1097.28 27.692 1101.13 26.9223 Q1104.98 26.1121 1108.63 26.1121 Q1118.47 26.1121 1123.33 31.2163 Q1128.19 36.3204 1128.19 46.6907 Z" fill="#000000" fill-rule="nonzero" fill-opacity="1" /><path clip-path="url(#clip230)" d="M1143.54 9.54393 L1151 9.54393 L1151 72.576 L1143.54 72.576 L1143.54 9.54393 Z" fill="#000000" fill-rule="nonzero" fill-opacity="1" /><path clip-path="url(#clip230)" d="M1168.5 62.2867 L1177.05 62.2867 L1177.05 72.576 L1168.5 72.576 L1168.5 62.2867 M1168.5 29.6769 L1177.05 29.6769 L1177.05 39.9662 L1168.5 39.9662 L1168.5 29.6769 Z" fill="#000000" fill-rule="nonzero" fill-opacity="1" /><path clip-path="url(#clip230)" d="M1221.24 12.096 L1233.43 12.096 L1248.87 53.2532 L1264.38 12.096 L1276.58 12.096 L1276.58 72.576 L1268.6 72.576 L1268.6 19.4686 L1253 60.9499 L1244.78 60.9499 L1229.18 19.4686 L1229.18 72.576 L1221.24 72.576 L1221.24 12.096 Z" fill="#000000" fill-rule="nonzero" fill-opacity="1" /><path clip-path="url(#clip230)" d="M1321.5 44.2197 Q1324.13 45.1109 1326.6 48.0275 Q1329.12 50.9442 1331.63 56.0483 L1339.93 72.576 L1331.14 72.576 L1323.4 57.061 Q1320.41 50.9847 1317.57 48.9997 Q1314.78 47.0148 1309.91 47.0148 L1301 47.0148 L1301 72.576 L1292.82 72.576 L1292.82 12.096 L1311.29 12.096 Q1321.66 12.096 1326.77 16.4305 Q1331.87 20.7649 1331.87 29.5149 Q1331.87 35.2267 1329.2 38.994 Q1326.56 42.7613 1321.5 44.2197 M1301 18.8205 L1301 40.2903 L1311.29 40.2903 Q1317.21 40.2903 1320.2 37.5762 Q1323.24 34.8216 1323.24 29.5149 Q1323.24 24.2082 1320.2 21.5346 Q1317.21 18.8205 1311.29 18.8205 L1301 18.8205 Z" fill="#000000" fill-rule="nonzero" fill-opacity="1" /><path clip-path="url(#clip230)" d="M1367.32 20.1573 L1356.22 50.2555 L1378.46 50.2555 L1367.32 20.1573 M1362.7 12.096 L1371.97 12.096 L1395.02 72.576 L1386.52 72.576 L1381.01 57.061 L1353.75 57.061 L1348.24 72.576 L1339.61 72.576 L1362.7 12.096 Z" fill="#000000" fill-rule="nonzero" fill-opacity="1" /><path clip-path="url(#clip230)" d="M1403.86 12.096 L1442.1 12.096 L1442.1 18.9825 L1412.04 18.9825 L1412.04 36.8875 L1440.84 36.8875 L1440.84 43.7741 L1412.04 43.7741 L1412.04 65.6895 L1442.83 65.6895 L1442.83 72.576 L1403.86 72.576 L1403.86 12.096 Z" fill="#000000" fill-rule="nonzero" fill-opacity="1" /><path clip-path="url(#clip230)" d="M1478.92 9.54393 L1478.92 15.7418 L1471.79 15.7418 Q1467.78 15.7418 1466.2 17.3622 Q1464.66 18.9825 1464.66 23.1955 L1464.66 27.2059 L1476.93 27.2059 L1476.93 32.9987 L1464.66 32.9987 L1464.66 72.576 L1457.17 72.576 L1457.17 32.9987 L1450.04 32.9987 L1450.04 27.2059 L1457.17 27.2059 L1457.17 24.0462 Q1457.17 16.471 1460.69 13.0277 Q1464.21 9.54393 1471.87 9.54393 L1478.92 9.54393 Z" fill="#000000" fill-rule="nonzero" fill-opacity="1" /><path clip-path="url(#clip230)" d="M1506.18 27.2059 L1514.08 27.2059 L1528.26 65.2844 L1542.44 27.2059 L1550.34 27.2059 L1533.32 72.576 L1523.19 72.576 L1506.18 27.2059 Z" fill="#000000" fill-rule="nonzero" fill-opacity="1" /><path clip-path="url(#clip230)" d="M1589.55 28.5427 L1589.55 35.5912 Q1586.39 33.9709 1582.99 33.1607 Q1579.58 32.3505 1575.94 32.3505 Q1570.39 32.3505 1567.59 34.0519 Q1564.84 35.7533 1564.84 39.156 Q1564.84 41.7486 1566.82 43.2475 Q1568.81 44.7058 1574.8 46.0426 L1577.36 46.6097 Q1585.3 48.3111 1588.62 51.4303 Q1591.98 54.509 1591.98 60.0587 Q1591.98 66.3781 1586.96 70.0644 Q1581.97 73.7508 1573.22 73.7508 Q1569.58 73.7508 1565.61 73.0216 Q1561.68 72.3329 1557.3 70.9151 L1557.3 63.2184 Q1561.44 65.3654 1565.45 66.4591 Q1569.46 67.5124 1573.39 67.5124 Q1578.65 67.5124 1581.49 65.73 Q1584.32 63.9071 1584.32 60.6258 Q1584.32 57.5877 1582.26 55.9673 Q1580.23 54.3469 1573.3 52.8481 L1570.71 52.2405 Q1563.79 50.7821 1560.71 47.7845 Q1557.63 44.7463 1557.63 39.4801 Q1557.63 33.0797 1562.16 29.5959 Q1566.7 26.1121 1575.05 26.1121 Q1579.18 26.1121 1582.82 26.7198 Q1586.47 27.3274 1589.55 28.5427 Z" fill="#000000" fill-rule="nonzero" fill-opacity="1" /><path clip-path="url(#clip230)" d="M1630.54 12.096 L1638.73 12.096 L1638.73 36.8875 L1668.46 36.8875 L1668.46 12.096 L1676.64 12.096 L1676.64 72.576 L1668.46 72.576 L1668.46 43.7741 L1638.73 43.7741 L1638.73 72.576 L1630.54 72.576 L1630.54 12.096 Z" fill="#000000" fill-rule="nonzero" fill-opacity="1" /><path clip-path="url(#clip230)" d="M1710.18 32.4315 Q1704.19 32.4315 1700.71 37.1306 Q1697.22 41.7891 1697.22 49.9314 Q1697.22 58.0738 1700.67 62.7728 Q1704.15 67.4314 1710.18 67.4314 Q1716.14 67.4314 1719.62 62.7323 Q1723.11 58.0333 1723.11 49.9314 Q1723.11 41.8701 1719.62 37.1711 Q1716.14 32.4315 1710.18 32.4315 M1710.18 26.1121 Q1719.91 26.1121 1725.46 32.4315 Q1731.01 38.7509 1731.01 49.9314 Q1731.01 61.0714 1725.46 67.4314 Q1719.91 73.7508 1710.18 73.7508 Q1700.42 73.7508 1694.87 67.4314 Q1689.36 61.0714 1689.36 49.9314 Q1689.36 38.7509 1694.87 32.4315 Q1700.42 26.1121 1710.18 26.1121 Z" fill="#000000" fill-rule="nonzero" fill-opacity="1" /><path clip-path="url(#clip230)" d="M1769.65 34.1734 Q1768.4 33.4443 1766.9 33.1202 Q1765.44 32.7556 1763.66 32.7556 Q1757.34 32.7556 1753.93 36.8875 Q1750.57 40.9789 1750.57 48.6757 L1750.57 72.576 L1743.08 72.576 L1743.08 27.2059 L1750.57 27.2059 L1750.57 34.2544 Q1752.92 30.1225 1756.69 28.1376 Q1760.46 26.1121 1765.84 26.1121 Q1766.61 26.1121 1767.55 26.2337 Q1768.48 26.3147 1769.61 26.5172 L1769.65 34.1734 Z" fill="#000000" fill-rule="nonzero" fill-opacity="1" /><path clip-path="url(#clip230)" d="M1777.47 27.2059 L1784.92 27.2059 L1784.92 72.576 L1777.47 72.576 L1777.47 27.2059 M1777.47 9.54393 L1784.92 9.54393 L1784.92 18.9825 L1777.47 18.9825 L1777.47 9.54393 Z" fill="#000000" fill-rule="nonzero" fill-opacity="1" /><path clip-path="url(#clip230)" d="M1797.28 27.2059 L1832.68 27.2059 L1832.68 34.0114 L1804.65 66.6212 L1832.68 66.6212 L1832.68 72.576 L1796.27 72.576 L1796.27 65.7705 L1824.3 33.1607 L1797.28 33.1607 L1797.28 27.2059 Z" fill="#000000" fill-rule="nonzero" fill-opacity="1" /><path clip-path="url(#clip230)" d="M1861.65 32.4315 Q1855.65 32.4315 1852.17 37.1306 Q1848.69 41.7891 1848.69 49.9314 Q1848.69 58.0738 1852.13 62.7728 Q1855.61 67.4314 1861.65 67.4314 Q1867.6 67.4314 1871.09 62.7323 Q1874.57 58.0333 1874.57 49.9314 Q1874.57 41.8701 1871.09 37.1711 Q1867.6 32.4315 1861.65 32.4315 M1861.65 26.1121 Q1871.37 26.1121 1876.92 32.4315 Q1882.47 38.7509 1882.47 49.9314 Q1882.47 61.0714 1876.92 67.4314 Q1871.37 73.7508 1861.65 73.7508 Q1851.89 73.7508 1846.34 67.4314 Q1840.83 61.0714 1840.83 49.9314 Q1840.83 38.7509 1846.34 32.4315 Q1851.89 26.1121 1861.65 26.1121 Z" fill="#000000" fill-rule="nonzero" fill-opacity="1" /><path clip-path="url(#clip230)" d="M1932.54 45.1919 L1932.54 72.576 L1925.09 72.576 L1925.09 45.4349 Q1925.09 38.994 1922.57 35.7938 Q1920.06 32.5936 1915.04 32.5936 Q1909 32.5936 1905.52 36.4419 Q1902.04 40.2903 1902.04 46.9338 L1902.04 72.576 L1894.54 72.576 L1894.54 27.2059 L1902.04 27.2059 L1902.04 34.2544 Q1904.71 30.163 1908.31 28.1376 Q1911.96 26.1121 1916.7 26.1121 Q1924.52 26.1121 1928.53 30.9732 Q1932.54 35.7938 1932.54 45.1919 Z" fill="#000000" fill-rule="nonzero" fill-opacity="1" /><circle clip-path="url(#clip232)" cx="311.302" cy="900.97" r="14.4" fill="#009af9" fill-rule="evenodd" fill-opacity="1" stroke="#000000" stroke-opacity="1" stroke-width="3.2"/>
<circle clip-path="url(#clip232)" cx="435.177" cy="702.741" r="14.4" fill="#009af9" fill-rule="evenodd" fill-opacity="1" stroke="#000000" stroke-opacity="1" stroke-width="3.2"/>
<circle clip-path="url(#clip232)" cx="641.635" cy="160.256" r="14.4" fill="#009af9" fill-rule="evenodd" fill-opacity="1" stroke="#000000" stroke-opacity="1" stroke-width="3.2"/>
<circle clip-path="url(#clip232)" cx="848.092" cy="849.757" r="14.4" fill="#009af9" fill-rule="evenodd" fill-opacity="1" stroke="#000000" stroke-opacity="1" stroke-width="3.2"/>
<circle clip-path="url(#clip232)" cx="1054.55" cy="1323.28" r="14.4" fill="#009af9" fill-rule="evenodd" fill-opacity="1" stroke="#000000" stroke-opacity="1" stroke-width="3.2"/>
<circle clip-path="url(#clip232)" cx="1261.01" cy="1323.28" r="14.4" fill="#009af9" fill-rule="evenodd" fill-opacity="1" stroke="#000000" stroke-opacity="1" stroke-width="3.2"/>
<circle clip-path="url(#clip232)" cx="1467.47" cy="1323.28" r="14.4" fill="#009af9" fill-rule="evenodd" fill-opacity="1" stroke="#000000" stroke-opacity="1" stroke-width="3.2"/>
<circle clip-path="url(#clip232)" cx="1673.92" cy="1323.28" r="14.4" fill="#009af9" fill-rule="evenodd" fill-opacity="1" stroke="#000000" stroke-opacity="1" stroke-width="3.2"/>
<circle clip-path="url(#clip232)" cx="1880.38" cy="1323.28" r="14.4" fill="#009af9" fill-rule="evenodd" fill-opacity="1" stroke="#000000" stroke-opacity="1" stroke-width="3.2"/>
<circle clip-path="url(#clip232)" cx="2086.84" cy="1323.28" r="14.4" fill="#009af9" fill-rule="evenodd" fill-opacity="1" stroke="#000000" stroke-opacity="1" stroke-width="3.2"/>
<circle clip-path="url(#clip232)" cx="2293.3" cy="1323.28" r="14.4" fill="#009af9" fill-rule="evenodd" fill-opacity="1" stroke="#000000" stroke-opacity="1" stroke-width="3.2"/>
<circle clip-path="url(#clip232)" cx="311.302" cy="889.119" r="14.4" fill="#e26f46" fill-rule="evenodd" fill-opacity="1" stroke="#000000" stroke-opacity="1" stroke-width="3.2"/>
<circle clip-path="url(#clip232)" cx="435.177" cy="510.22" r="14.4" fill="#e26f46" fill-rule="evenodd" fill-opacity="1" stroke="#000000" stroke-opacity="1" stroke-width="3.2"/>
<circle clip-path="url(#clip232)" cx="641.635" cy="547.802" r="14.4" fill="#e26f46" fill-rule="evenodd" fill-opacity="1" stroke="#000000" stroke-opacity="1" stroke-width="3.2"/>
<circle clip-path="url(#clip232)" cx="848.092" cy="669.341" r="14.4" fill="#e26f46" fill-rule="evenodd" fill-opacity="1" stroke="#000000" stroke-opacity="1" stroke-width="3.2"/>
<circle clip-path="url(#clip232)" cx="1054.55" cy="1386.4" r="14.4" fill="#e26f46" fill-rule="evenodd" fill-opacity="1" stroke="#000000" stroke-opacity="1" stroke-width="3.2"/>
<circle clip-path="url(#clip232)" cx="1261.01" cy="1386.4" r="14.4" fill="#e26f46" fill-rule="evenodd" fill-opacity="1" stroke="#000000" stroke-opacity="1" stroke-width="3.2"/>
<circle clip-path="url(#clip232)" cx="1467.47" cy="1386.4" r="14.4" fill="#e26f46" fill-rule="evenodd" fill-opacity="1" stroke="#000000" stroke-opacity="1" stroke-width="3.2"/>
<circle clip-path="url(#clip232)" cx="1673.92" cy="1386.4" r="14.4" fill="#e26f46" fill-rule="evenodd" fill-opacity="1" stroke="#000000" stroke-opacity="1" stroke-width="3.2"/>
<circle clip-path="url(#clip232)" cx="1880.38" cy="1386.4" r="14.4" fill="#e26f46" fill-rule="evenodd" fill-opacity="1" stroke="#000000" stroke-opacity="1" stroke-width="3.2"/>
<circle clip-path="url(#clip232)" cx="2086.84" cy="1386.4" r="14.4" fill="#e26f46" fill-rule="evenodd" fill-opacity="1" stroke="#000000" stroke-opacity="1" stroke-width="3.2"/>
<circle clip-path="url(#clip232)" cx="2293.3" cy="1386.4" r="14.4" fill="#e26f46" fill-rule="evenodd" fill-opacity="1" stroke="#000000" stroke-opacity="1" stroke-width="3.2"/>
<path clip-path="url(#clip230)" d="M1736.22 322.316 L2282.73 322.316 L2282.73 166.796 L1736.22 166.796  Z" fill="#ffffff" fill-rule="evenodd" fill-opacity="1"/>
<polyline clip-path="url(#clip230)" style="stroke:#000000; stroke-linecap:round; stroke-linejoin:round; stroke-width:4; stroke-opacity:1; fill:none" points="1736.22,322.316 2282.73,322.316 2282.73,166.796 1736.22,166.796 1736.22,322.316 "/>
<circle clip-path="url(#clip230)" cx="1829.6" cy="218.636" r="20.48" fill="#009af9" fill-rule="evenodd" fill-opacity="1" stroke="#000000" stroke-opacity="1" stroke-width="4.55111"/>
<path clip-path="url(#clip230)" d="M1930.38 202.629 L1930.38 209.99 L1939.15 209.99 L1939.15 213.3 L1930.38 213.3 L1930.38 227.374 Q1930.38 230.545 1931.24 231.448 Q1932.12 232.351 1934.78 232.351 L1939.15 232.351 L1939.15 235.916 L1934.78 235.916 Q1929.85 235.916 1927.97 234.087 Q1926.1 232.235 1926.1 227.374 L1926.1 213.3 L1922.97 213.3 L1922.97 209.99 L1926.1 209.99 L1926.1 202.629 L1930.38 202.629 Z" fill="#000000" fill-rule="nonzero" fill-opacity="1" /><path clip-path="url(#clip230)" d="M1959.78 213.971 Q1959.06 213.555 1958.2 213.37 Q1957.37 213.161 1956.35 213.161 Q1952.74 213.161 1950.8 215.522 Q1948.87 217.86 1948.87 222.258 L1948.87 235.916 L1944.59 235.916 L1944.59 209.99 L1948.87 209.99 L1948.87 214.018 Q1950.22 211.657 1952.37 210.522 Q1954.52 209.365 1957.6 209.365 Q1958.04 209.365 1958.57 209.434 Q1959.11 209.481 1959.75 209.596 L1959.78 213.971 Z" fill="#000000" fill-rule="nonzero" fill-opacity="1" /><path clip-path="url(#clip230)" d="M1976.03 222.883 Q1970.86 222.883 1968.87 224.064 Q1966.88 225.244 1966.88 228.092 Q1966.88 230.36 1968.37 231.703 Q1969.87 233.022 1972.44 233.022 Q1975.98 233.022 1978.11 230.522 Q1980.26 227.999 1980.26 223.832 L1980.26 222.883 L1976.03 222.883 M1984.52 221.124 L1984.52 235.916 L1980.26 235.916 L1980.26 231.981 Q1978.8 234.342 1976.63 235.476 Q1974.45 236.587 1971.3 236.587 Q1967.32 236.587 1964.96 234.365 Q1962.62 232.119 1962.62 228.369 Q1962.62 223.994 1965.54 221.772 Q1968.48 219.55 1974.29 219.55 L1980.26 219.55 L1980.26 219.133 Q1980.26 216.194 1978.32 214.596 Q1976.4 212.976 1972.9 212.976 Q1970.68 212.976 1968.57 213.508 Q1966.47 214.041 1964.52 215.106 L1964.52 211.17 Q1966.86 210.268 1969.06 209.828 Q1971.26 209.365 1973.34 209.365 Q1978.97 209.365 1981.74 212.282 Q1984.52 215.198 1984.52 221.124 Z" fill="#000000" fill-rule="nonzero" fill-opacity="1" /><path clip-path="url(#clip230)" d="M1993.3 209.99 L1997.55 209.99 L1997.55 235.916 L1993.3 235.916 L1993.3 209.99 M1993.3 199.897 L1997.55 199.897 L1997.55 205.291 L1993.3 205.291 L1993.3 199.897 Z" fill="#000000" fill-rule="nonzero" fill-opacity="1" /><path clip-path="url(#clip230)" d="M2028.02 220.268 L2028.02 235.916 L2023.76 235.916 L2023.76 220.407 Q2023.76 216.726 2022.32 214.897 Q2020.89 213.069 2018.02 213.069 Q2014.57 213.069 2012.58 215.268 Q2010.59 217.467 2010.59 221.263 L2010.59 235.916 L2006.3 235.916 L2006.3 209.99 L2010.59 209.99 L2010.59 214.018 Q2012.11 211.68 2014.17 210.522 Q2016.26 209.365 2018.97 209.365 Q2023.43 209.365 2025.73 212.143 Q2028.02 214.897 2028.02 220.268 Z" fill="#000000" fill-rule="nonzero" fill-opacity="1" /><path clip-path="url(#clip230)" d="M2036.51 209.99 L2040.77 209.99 L2040.77 235.916 L2036.51 235.916 L2036.51 209.99 M2036.51 199.897 L2040.77 199.897 L2040.77 205.291 L2036.51 205.291 L2036.51 199.897 Z" fill="#000000" fill-rule="nonzero" fill-opacity="1" /><path clip-path="url(#clip230)" d="M2071.23 220.268 L2071.23 235.916 L2066.98 235.916 L2066.98 220.407 Q2066.98 216.726 2065.54 214.897 Q2064.11 213.069 2061.23 213.069 Q2057.79 213.069 2055.8 215.268 Q2053.8 217.467 2053.8 221.263 L2053.8 235.916 L2049.52 235.916 L2049.52 209.99 L2053.8 209.99 L2053.8 214.018 Q2055.33 211.68 2057.39 210.522 Q2059.48 209.365 2062.18 209.365 Q2066.65 209.365 2068.94 212.143 Q2071.23 214.897 2071.23 220.268 Z" fill="#000000" fill-rule="nonzero" fill-opacity="1" /><path clip-path="url(#clip230)" d="M2096.79 222.652 Q2096.79 218.022 2094.87 215.476 Q2092.97 212.93 2089.52 212.93 Q2086.1 212.93 2084.17 215.476 Q2082.28 218.022 2082.28 222.652 Q2082.28 227.258 2084.17 229.805 Q2086.1 232.351 2089.52 232.351 Q2092.97 232.351 2094.87 229.805 Q2096.79 227.258 2096.79 222.652 M2101.05 232.698 Q2101.05 239.318 2098.11 242.536 Q2095.17 245.777 2089.11 245.777 Q2086.86 245.777 2084.87 245.43 Q2082.88 245.105 2081 244.411 L2081 240.268 Q2082.88 241.286 2084.71 241.772 Q2086.54 242.258 2088.43 242.258 Q2092.62 242.258 2094.71 240.059 Q2096.79 237.883 2096.79 233.462 L2096.79 231.356 Q2095.47 233.647 2093.41 234.781 Q2091.35 235.916 2088.48 235.916 Q2083.71 235.916 2080.79 232.281 Q2077.88 228.647 2077.88 222.652 Q2077.88 216.633 2080.79 212.999 Q2083.71 209.365 2088.48 209.365 Q2091.35 209.365 2093.41 210.499 Q2095.47 211.633 2096.79 213.925 L2096.79 209.99 L2101.05 209.99 L2101.05 232.698 Z" fill="#000000" fill-rule="nonzero" fill-opacity="1" /><path clip-path="url(#clip230)" d="M2122.74 221.032 L2135.22 221.032 L2135.22 224.828 L2122.74 224.828 L2122.74 221.032 Z" fill="#000000" fill-rule="nonzero" fill-opacity="1" /><path clip-path="url(#clip230)" d="M2161.7 231.981 L2178.02 231.981 L2178.02 235.916 L2156.07 235.916 L2156.07 231.981 Q2158.73 229.226 2163.32 224.596 Q2167.92 219.944 2169.1 218.601 Q2171.35 216.078 2172.23 214.342 Q2173.13 212.583 2173.13 210.893 Q2173.13 208.138 2171.19 206.402 Q2169.27 204.666 2166.16 204.666 Q2163.97 204.666 2161.51 205.43 Q2159.08 206.194 2156.3 207.745 L2156.3 203.022 Q2159.13 201.888 2161.58 201.309 Q2164.04 200.731 2166.07 200.731 Q2171.44 200.731 2174.64 203.416 Q2177.83 206.101 2177.83 210.592 Q2177.83 212.721 2177.02 214.643 Q2176.23 216.541 2174.13 219.133 Q2173.55 219.805 2170.45 223.022 Q2167.35 226.217 2161.7 231.981 Z" fill="#000000" fill-rule="nonzero" fill-opacity="1" /><path clip-path="url(#clip230)" d="M2197.83 204.434 Q2194.22 204.434 2192.39 207.999 Q2190.59 211.541 2190.59 218.67 Q2190.59 225.777 2192.39 229.342 Q2194.22 232.883 2197.83 232.883 Q2201.47 232.883 2203.27 229.342 Q2205.1 225.777 2205.1 218.67 Q2205.1 211.541 2203.27 207.999 Q2201.47 204.434 2197.83 204.434 M2197.83 200.731 Q2203.64 200.731 2206.7 205.337 Q2209.78 209.92 2209.78 218.67 Q2209.78 227.397 2206.7 232.004 Q2203.64 236.587 2197.83 236.587 Q2192.02 236.587 2188.94 232.004 Q2185.89 227.397 2185.89 218.67 Q2185.89 209.92 2188.94 205.337 Q2192.02 200.731 2197.83 200.731 Z" fill="#000000" fill-rule="nonzero" fill-opacity="1" /><circle clip-path="url(#clip230)" cx="1829.6" cy="270.476" r="20.48" fill="#e26f46" fill-rule="evenodd" fill-opacity="1" stroke="#000000" stroke-opacity="1" stroke-width="4.55111"/>
<path clip-path="url(#clip230)" d="M1922.97 261.83 L1927.49 261.83 L1935.59 283.589 L1943.69 261.83 L1948.2 261.83 L1938.48 287.756 L1932.69 287.756 L1922.97 261.83 Z" fill="#000000" fill-rule="nonzero" fill-opacity="1" /><path clip-path="url(#clip230)" d="M1965.87 274.723 Q1960.7 274.723 1958.71 275.904 Q1956.72 277.084 1956.72 279.932 Q1956.72 282.2 1958.2 283.543 Q1959.71 284.862 1962.28 284.862 Q1965.82 284.862 1967.95 282.362 Q1970.1 279.839 1970.1 275.672 L1970.1 274.723 L1965.87 274.723 M1974.36 272.964 L1974.36 287.756 L1970.1 287.756 L1970.1 283.821 Q1968.64 286.182 1966.47 287.316 Q1964.29 288.427 1961.14 288.427 Q1957.16 288.427 1954.8 286.205 Q1952.46 283.959 1952.46 280.209 Q1952.46 275.834 1955.38 273.612 Q1958.32 271.39 1964.13 271.39 L1970.1 271.39 L1970.1 270.973 Q1970.1 268.034 1968.16 266.436 Q1966.24 264.816 1962.74 264.816 Q1960.52 264.816 1958.41 265.348 Q1956.3 265.881 1954.36 266.946 L1954.36 263.01 Q1956.7 262.108 1958.9 261.668 Q1961.1 261.205 1963.18 261.205 Q1968.8 261.205 1971.58 264.122 Q1974.36 267.038 1974.36 272.964 Z" fill="#000000" fill-rule="nonzero" fill-opacity="1" /><path clip-path="url(#clip230)" d="M1983.13 251.737 L1987.39 251.737 L1987.39 287.756 L1983.13 287.756 L1983.13 251.737 Z" fill="#000000" fill-rule="nonzero" fill-opacity="1" /><path clip-path="url(#clip230)" d="M1996.3 261.83 L2000.56 261.83 L2000.56 287.756 L1996.3 287.756 L1996.3 261.83 M1996.3 251.737 L2000.56 251.737 L2000.56 257.131 L1996.3 257.131 L1996.3 251.737 Z" fill="#000000" fill-rule="nonzero" fill-opacity="1" /><path clip-path="url(#clip230)" d="M2026.54 265.765 L2026.54 251.737 L2030.8 251.737 L2030.8 287.756 L2026.54 287.756 L2026.54 283.867 Q2025.19 286.182 2023.13 287.316 Q2021.1 288.427 2018.23 288.427 Q2013.53 288.427 2010.56 284.677 Q2007.62 280.927 2007.62 274.816 Q2007.62 268.705 2010.56 264.955 Q2013.53 261.205 2018.23 261.205 Q2021.1 261.205 2023.13 262.339 Q2025.19 263.45 2026.54 265.765 M2012.02 274.816 Q2012.02 279.515 2013.94 282.2 Q2015.89 284.862 2019.27 284.862 Q2022.65 284.862 2024.59 282.2 Q2026.54 279.515 2026.54 274.816 Q2026.54 270.117 2024.59 267.455 Q2022.65 264.77 2019.27 264.77 Q2015.89 264.77 2013.94 267.455 Q2012.02 270.117 2012.02 274.816 Z" fill="#000000" fill-rule="nonzero" fill-opacity="1" /><path clip-path="url(#clip230)" d="M2051.35 274.723 Q2046.19 274.723 2044.2 275.904 Q2042.21 277.084 2042.21 279.932 Q2042.21 282.2 2043.69 283.543 Q2045.19 284.862 2047.76 284.862 Q2051.3 284.862 2053.43 282.362 Q2055.59 279.839 2055.59 275.672 L2055.59 274.723 L2051.35 274.723 M2059.85 272.964 L2059.85 287.756 L2055.59 287.756 L2055.59 283.821 Q2054.13 286.182 2051.95 287.316 Q2049.78 288.427 2046.63 288.427 Q2042.65 288.427 2040.29 286.205 Q2037.95 283.959 2037.95 280.209 Q2037.95 275.834 2040.86 273.612 Q2043.8 271.39 2049.61 271.39 L2055.59 271.39 L2055.59 270.973 Q2055.59 268.034 2053.64 266.436 Q2051.72 264.816 2048.23 264.816 Q2046 264.816 2043.9 265.348 Q2041.79 265.881 2039.85 266.946 L2039.85 263.01 Q2042.18 262.108 2044.38 261.668 Q2046.58 261.205 2048.67 261.205 Q2054.29 261.205 2057.07 264.122 Q2059.85 267.038 2059.85 272.964 Z" fill="#000000" fill-rule="nonzero" fill-opacity="1" /><path clip-path="url(#clip230)" d="M2072.83 254.469 L2072.83 261.83 L2081.61 261.83 L2081.61 265.14 L2072.83 265.14 L2072.83 279.214 Q2072.83 282.385 2073.69 283.288 Q2074.57 284.191 2077.23 284.191 L2081.61 284.191 L2081.61 287.756 L2077.23 287.756 Q2072.3 287.756 2070.42 285.927 Q2068.55 284.075 2068.55 279.214 L2068.55 265.14 L2065.42 265.14 L2065.42 261.83 L2068.55 261.83 L2068.55 254.469 L2072.83 254.469 Z" fill="#000000" fill-rule="nonzero" fill-opacity="1" /><path clip-path="url(#clip230)" d="M2087.21 261.83 L2091.47 261.83 L2091.47 287.756 L2087.21 287.756 L2087.21 261.83 M2087.21 251.737 L2091.47 251.737 L2091.47 257.131 L2087.21 257.131 L2087.21 251.737 Z" fill="#000000" fill-rule="nonzero" fill-opacity="1" /><path clip-path="url(#clip230)" d="M2110.42 264.816 Q2107 264.816 2105.01 267.501 Q2103.02 270.163 2103.02 274.816 Q2103.02 279.469 2104.98 282.154 Q2106.98 284.816 2110.42 284.816 Q2113.83 284.816 2115.82 282.131 Q2117.81 279.446 2117.81 274.816 Q2117.81 270.21 2115.82 267.524 Q2113.83 264.816 2110.42 264.816 M2110.42 261.205 Q2115.98 261.205 2119.15 264.816 Q2122.32 268.427 2122.32 274.816 Q2122.32 281.182 2119.15 284.816 Q2115.98 288.427 2110.42 288.427 Q2104.85 288.427 2101.67 284.816 Q2098.53 281.182 2098.53 274.816 Q2098.53 268.427 2101.67 264.816 Q2104.85 261.205 2110.42 261.205 Z" fill="#000000" fill-rule="nonzero" fill-opacity="1" /><path clip-path="url(#clip230)" d="M2150.93 272.108 L2150.93 287.756 L2146.67 287.756 L2146.67 272.247 Q2146.67 268.566 2145.24 266.737 Q2143.8 264.909 2140.93 264.909 Q2137.48 264.909 2135.49 267.108 Q2133.5 269.307 2133.5 273.103 L2133.5 287.756 L2129.22 287.756 L2129.22 261.83 L2133.5 261.83 L2133.5 265.858 Q2135.03 263.52 2137.09 262.362 Q2139.17 261.205 2141.88 261.205 Q2146.35 261.205 2148.64 263.983 Q2150.93 266.737 2150.93 272.108 Z" fill="#000000" fill-rule="nonzero" fill-opacity="1" /><path clip-path="url(#clip230)" d="M2172.35 272.872 L2184.82 272.872 L2184.82 276.668 L2172.35 276.668 L2172.35 272.872 Z" fill="#000000" fill-rule="nonzero" fill-opacity="1" /><path clip-path="url(#clip230)" d="M2211.3 283.821 L2227.62 283.821 L2227.62 287.756 L2205.68 287.756 L2205.68 283.821 Q2208.34 281.066 2212.92 276.436 Q2217.53 271.784 2218.71 270.441 Q2220.96 267.918 2221.84 266.182 Q2222.74 264.423 2222.74 262.733 Q2222.74 259.978 2220.79 258.242 Q2218.87 256.506 2215.77 256.506 Q2213.57 256.506 2211.12 257.27 Q2208.69 258.034 2205.91 259.585 L2205.91 254.862 Q2208.73 253.728 2211.19 253.149 Q2213.64 252.571 2215.68 252.571 Q2221.05 252.571 2224.24 255.256 Q2227.44 257.941 2227.44 262.432 Q2227.44 264.561 2226.63 266.483 Q2225.84 268.381 2223.73 270.973 Q2223.16 271.645 2220.05 274.862 Q2216.95 278.057 2211.3 283.821 Z" fill="#000000" fill-rule="nonzero" fill-opacity="1" /><path clip-path="url(#clip230)" d="M2247.44 256.274 Q2243.83 256.274 2242 259.839 Q2240.19 263.381 2240.19 270.51 Q2240.19 277.617 2242 281.182 Q2243.83 284.723 2247.44 284.723 Q2251.07 284.723 2252.88 281.182 Q2254.71 277.617 2254.71 270.51 Q2254.71 263.381 2252.88 259.839 Q2251.07 256.274 2247.44 256.274 M2247.44 252.571 Q2253.25 252.571 2256.3 257.177 Q2259.38 261.76 2259.38 270.51 Q2259.38 279.237 2256.3 283.844 Q2253.25 288.427 2247.44 288.427 Q2241.63 288.427 2238.55 283.844 Q2235.49 279.237 2235.49 270.51 Q2235.49 261.76 2238.55 257.177 Q2241.63 252.571 2247.44 252.571 Z" fill="#000000" fill-rule="nonzero" fill-opacity="1" /></svg>
