<?xml version="1.0" encoding="utf-8"?>
<svg xmlns="http://www.w3.org/2000/svg" xmlns:xlink="http://www.w3.org/1999/xlink" width="600" height="400" viewBox="0 0 2400 1600">
<defs>
  <clipPath id="clip590">
    <rect x="0" y="0" width="2400" height="1600"/>
  </clipPath>
</defs>
<path clip-path="url(#clip590)" d="M0 1600 L2400 1600 L2400 0 L0 0  Z" fill="#ffffff" fill-rule="evenodd" fill-opacity="1"/>
<defs>
  <clipPath id="clip591">
    <rect x="480" y="0" width="1681" height="1600"/>
  </clipPath>
</defs>
<path clip-path="url(#clip590)" d="M203.964 1423.18 L1653.22 1423.18 L1653.22 123.472 L203.964 123.472  Z" fill="#ffffff" fill-rule="evenodd" fill-opacity="1"/>
<defs>
  <clipPath id="clip592">
    <rect x="203" y="123" width="1450" height="1301"/>
  </clipPath>
</defs>
<polyline clip-path="url(#clip592)" style="stroke:#000000; stroke-linecap:round; stroke-linejoin:round; stroke-width:2; stroke-opacity:0.1; fill:none" points="244.98,1423.18 244.98,123.472 "/>
<polyline clip-path="url(#clip592)" style="stroke:#000000; stroke-linecap:round; stroke-linejoin:round; stroke-width:2; stroke-opacity:0.1; fill:none" points="472.851,1423.18 472.851,123.472 "/>
<polyline clip-path="url(#clip592)" style="stroke:#000000; stroke-linecap:round; stroke-linejoin:round; stroke-width:2; stroke-opacity:0.1; fill:none" points="700.721,1423.18 700.721,123.472 "/>
<polyline clip-path="url(#clip592)" style="stroke:#000000; stroke-linecap:round; stroke-linejoin:round; stroke-width:2; stroke-opacity:0.1; fill:none" points="928.592,1423.18 928.592,123.472 "/>
<polyline clip-path="url(#clip592)" style="stroke:#000000; stroke-linecap:round; stroke-linejoin:round; stroke-width:2; stroke-opacity:0.1; fill:none" points="1156.46,1423.18 1156.46,123.472 "/>
<polyline clip-path="url(#clip592)" style="stroke:#000000; stroke-linecap:round; stroke-linejoin:round; stroke-width:2; stroke-opacity:0.1; fill:none" points="1384.33,1423.18 1384.33,123.472 "/>
<polyline clip-path="url(#clip592)" style="stroke:#000000; stroke-linecap:round; stroke-linejoin:round; stroke-width:2; stroke-opacity:0.1; fill:none" points="1612.2,1423.18 1612.2,123.472 "/>
<polyline clip-path="url(#clip592)" style="stroke:#000000; stroke-linecap:round; stroke-linejoin:round; stroke-width:2; stroke-opacity:0.05; fill:none" points="290.554,1423.18 290.554,123.472 "/>
<polyline clip-path="url(#clip592)" style="stroke:#000000; stroke-linecap:round; stroke-linejoin:round; stroke-width:2; stroke-opacity:0.05; fill:none" points="336.128,1423.18 336.128,123.472 "/>
<polyline clip-path="url(#clip592)" style="stroke:#000000; stroke-linecap:round; stroke-linejoin:round; stroke-width:2; stroke-opacity:0.05; fill:none" points="381.703,1423.18 381.703,123.472 "/>
<polyline clip-path="url(#clip592)" style="stroke:#000000; stroke-linecap:round; stroke-linejoin:round; stroke-width:2; stroke-opacity:0.05; fill:none" points="427.277,1423.18 427.277,123.472 "/>
<polyline clip-path="url(#clip592)" style="stroke:#000000; stroke-linecap:round; stroke-linejoin:round; stroke-width:2; stroke-opacity:0.05; fill:none" points="518.425,1423.18 518.425,123.472 "/>
<polyline clip-path="url(#clip592)" style="stroke:#000000; stroke-linecap:round; stroke-linejoin:round; stroke-width:2; stroke-opacity:0.05; fill:none" points="563.999,1423.18 563.999,123.472 "/>
<polyline clip-path="url(#clip592)" style="stroke:#000000; stroke-linecap:round; stroke-linejoin:round; stroke-width:2; stroke-opacity:0.05; fill:none" points="609.573,1423.18 609.573,123.472 "/>
<polyline clip-path="url(#clip592)" style="stroke:#000000; stroke-linecap:round; stroke-linejoin:round; stroke-width:2; stroke-opacity:0.05; fill:none" points="655.147,1423.18 655.147,123.472 "/>
<polyline clip-path="url(#clip592)" style="stroke:#000000; stroke-linecap:round; stroke-linejoin:round; stroke-width:2; stroke-opacity:0.05; fill:none" points="746.295,1423.18 746.295,123.472 "/>
<polyline clip-path="url(#clip592)" style="stroke:#000000; stroke-linecap:round; stroke-linejoin:round; stroke-width:2; stroke-opacity:0.05; fill:none" points="791.87,1423.18 791.87,123.472 "/>
<polyline clip-path="url(#clip592)" style="stroke:#000000; stroke-linecap:round; stroke-linejoin:round; stroke-width:2; stroke-opacity:0.05; fill:none" points="837.444,1423.18 837.444,123.472 "/>
<polyline clip-path="url(#clip592)" style="stroke:#000000; stroke-linecap:round; stroke-linejoin:round; stroke-width:2; stroke-opacity:0.05; fill:none" points="883.018,1423.18 883.018,123.472 "/>
<polyline clip-path="url(#clip592)" style="stroke:#000000; stroke-linecap:round; stroke-linejoin:round; stroke-width:2; stroke-opacity:0.05; fill:none" points="974.166,1423.18 974.166,123.472 "/>
<polyline clip-path="url(#clip592)" style="stroke:#000000; stroke-linecap:round; stroke-linejoin:round; stroke-width:2; stroke-opacity:0.05; fill:none" points="1019.74,1423.18 1019.74,123.472 "/>
<polyline clip-path="url(#clip592)" style="stroke:#000000; stroke-linecap:round; stroke-linejoin:round; stroke-width:2; stroke-opacity:0.05; fill:none" points="1065.31,1423.18 1065.31,123.472 "/>
<polyline clip-path="url(#clip592)" style="stroke:#000000; stroke-linecap:round; stroke-linejoin:round; stroke-width:2; stroke-opacity:0.05; fill:none" points="1110.89,1423.18 1110.89,123.472 "/>
<polyline clip-path="url(#clip592)" style="stroke:#000000; stroke-linecap:round; stroke-linejoin:round; stroke-width:2; stroke-opacity:0.05; fill:none" points="1202.04,1423.18 1202.04,123.472 "/>
<polyline clip-path="url(#clip592)" style="stroke:#000000; stroke-linecap:round; stroke-linejoin:round; stroke-width:2; stroke-opacity:0.05; fill:none" points="1247.61,1423.18 1247.61,123.472 "/>
<polyline clip-path="url(#clip592)" style="stroke:#000000; stroke-linecap:round; stroke-linejoin:round; stroke-width:2; stroke-opacity:0.05; fill:none" points="1293.18,1423.18 1293.18,123.472 "/>
<polyline clip-path="url(#clip592)" style="stroke:#000000; stroke-linecap:round; stroke-linejoin:round; stroke-width:2; stroke-opacity:0.05; fill:none" points="1338.76,1423.18 1338.76,123.472 "/>
<polyline clip-path="url(#clip592)" style="stroke:#000000; stroke-linecap:round; stroke-linejoin:round; stroke-width:2; stroke-opacity:0.05; fill:none" points="1429.91,1423.18 1429.91,123.472 "/>
<polyline clip-path="url(#clip592)" style="stroke:#000000; stroke-linecap:round; stroke-linejoin:round; stroke-width:2; stroke-opacity:0.05; fill:none" points="1475.48,1423.18 1475.48,123.472 "/>
<polyline clip-path="url(#clip592)" style="stroke:#000000; stroke-linecap:round; stroke-linejoin:round; stroke-width:2; stroke-opacity:0.05; fill:none" points="1521.06,1423.18 1521.06,123.472 "/>
<polyline clip-path="url(#clip592)" style="stroke:#000000; stroke-linecap:round; stroke-linejoin:round; stroke-width:2; stroke-opacity:0.05; fill:none" points="1566.63,1423.18 1566.63,123.472 "/>
<polyline clip-path="url(#clip590)" style="stroke:#000000; stroke-linecap:round; stroke-linejoin:round; stroke-width:4; stroke-opacity:1; fill:none" points="203.964,1423.18 1653.22,1423.18 "/>
<polyline clip-path="url(#clip590)" style="stroke:#000000; stroke-linecap:round; stroke-linejoin:round; stroke-width:4; stroke-opacity:1; fill:none" points="244.98,1423.18 244.98,1404.28 "/>
<polyline clip-path="url(#clip590)" style="stroke:#000000; stroke-linecap:round; stroke-linejoin:round; stroke-width:4; stroke-opacity:1; fill:none" points="472.851,1423.18 472.851,1404.28 "/>
<polyline clip-path="url(#clip590)" style="stroke:#000000; stroke-linecap:round; stroke-linejoin:round; stroke-width:4; stroke-opacity:1; fill:none" points="700.721,1423.18 700.721,1404.28 "/>
<polyline clip-path="url(#clip590)" style="stroke:#000000; stroke-linecap:round; stroke-linejoin:round; stroke-width:4; stroke-opacity:1; fill:none" points="928.592,1423.18 928.592,1404.28 "/>
<polyline clip-path="url(#clip590)" style="stroke:#000000; stroke-linecap:round; stroke-linejoin:round; stroke-width:4; stroke-opacity:1; fill:none" points="1156.46,1423.18 1156.46,1404.28 "/>
<polyline clip-path="url(#clip590)" style="stroke:#000000; stroke-linecap:round; stroke-linejoin:round; stroke-width:4; stroke-opacity:1; fill:none" points="1384.33,1423.18 1384.33,1404.28 "/>
<polyline clip-path="url(#clip590)" style="stroke:#000000; stroke-linecap:round; stroke-linejoin:round; stroke-width:4; stroke-opacity:1; fill:none" points="1612.2,1423.18 1612.2,1404.28 "/>
<polyline clip-path="url(#clip590)" style="stroke:#000000; stroke-linecap:round; stroke-linejoin:round; stroke-width:4; stroke-opacity:1; fill:none" points="290.554,1423.18 290.554,1413.73 "/>
<polyline clip-path="url(#clip590)" style="stroke:#000000; stroke-linecap:round; stroke-linejoin:round; stroke-width:4; stroke-opacity:1; fill:none" points="336.128,1423.18 336.128,1413.73 "/>
<polyline clip-path="url(#clip590)" style="stroke:#000000; stroke-linecap:round; stroke-linejoin:round; stroke-width:4; stroke-opacity:1; fill:none" points="381.703,1423.18 381.703,1413.73 "/>
<polyline clip-path="url(#clip590)" style="stroke:#000000; stroke-linecap:round; stroke-linejoin:round; stroke-width:4; stroke-opacity:1; fill:none" points="427.277,1423.18 427.277,1413.73 "/>
<polyline clip-path="url(#clip590)" style="stroke:#000000; stroke-linecap:round; stroke-linejoin:round; stroke-width:4; stroke-opacity:1; fill:none" points="518.425,1423.18 518.425,1413.73 "/>
<polyline clip-path="url(#clip590)" style="stroke:#000000; stroke-linecap:round; stroke-linejoin:round; stroke-width:4; stroke-opacity:1; fill:none" points="563.999,1423.18 563.999,1413.73 "/>
<polyline clip-path="url(#clip590)" style="stroke:#000000; stroke-linecap:round; stroke-linejoin:round; stroke-width:4; stroke-opacity:1; fill:none" points="609.573,1423.18 609.573,1413.73 "/>
<polyline clip-path="url(#clip590)" style="stroke:#000000; stroke-linecap:round; stroke-linejoin:round; stroke-width:4; stroke-opacity:1; fill:none" points="655.147,1423.18 655.147,1413.73 "/>
<polyline clip-path="url(#clip590)" style="stroke:#000000; stroke-linecap:round; stroke-linejoin:round; stroke-width:4; stroke-opacity:1; fill:none" points="746.295,1423.18 746.295,1413.73 "/>
<polyline clip-path="url(#clip590)" style="stroke:#000000; stroke-linecap:round; stroke-linejoin:round; stroke-width:4; stroke-opacity:1; fill:none" points="791.87,1423.18 791.87,1413.73 "/>
<polyline clip-path="url(#clip590)" style="stroke:#000000; stroke-linecap:round; stroke-linejoin:round; stroke-width:4; stroke-opacity:1; fill:none" points="837.444,1423.18 837.444,1413.73 "/>
<polyline clip-path="url(#clip590)" style="stroke:#000000; stroke-linecap:round; stroke-linejoin:round; stroke-width:4; stroke-opacity:1; fill:none" points="883.018,1423.18 883.018,1413.73 "/>
<polyline clip-path="url(#clip590)" style="stroke:#000000; stroke-linecap:round; stroke-linejoin:round; stroke-width:4; stroke-opacity:1; fill:none" points="974.166,1423.18 974.166,1413.73 "/>
<polyline clip-path="url(#clip590)" style="stroke:#000000; stroke-linecap:round; stroke-linejoin:round; stroke-width:4; stroke-opacity:1; fill:none" points="1019.74,1423.18 1019.74,1413.73 "/>
<polyline clip-path="url(#clip590)" style="stroke:#000000; stroke-linecap:round; stroke-linejoin:round; stroke-width:4; stroke-opacity:1; fill:none" points="1065.31,1423.18 1065.31,1413.73 "/>
<polyline clip-path="url(#clip590)" style="stroke:#000000; stroke-linecap:round; stroke-linejoin:round; stroke-width:4; stroke-opacity:1; fill:none" points="1110.89,1423.18 1110.89,1413.73 "/>
<polyline clip-path="url(#clip590)" style="stroke:#000000; stroke-linecap:round; stroke-linejoin:round; stroke-width:4; stroke-opacity:1; fill:none" points="1202.04,1423.18 1202.04,1413.73 "/>
<polyline clip-path="url(#clip590)" style="stroke:#000000; stroke-linecap:round; stroke-linejoin:round; stroke-width:4; stroke-opacity:1; fill:none" points="1247.61,1423.18 1247.61,1413.73 "/>
<polyline clip-path="url(#clip590)" style="stroke:#000000; stroke-linecap:round; stroke-linejoin:round; stroke-width:4; stroke-opacity:1; fill:none" points="1293.18,1423.18 1293.18,1413.73 "/>
<polyline clip-path="url(#clip590)" style="stroke:#000000; stroke-linecap:round; stroke-linejoin:round; stroke-width:4; stroke-opacity:1; fill:none" points="1338.76,1423.18 1338.76,1413.73 "/>
<polyline clip-path="url(#clip590)" style="stroke:#000000; stroke-linecap:round; stroke-linejoin:round; stroke-width:4; stroke-opacity:1; fill:none" points="1429.91,1423.18 1429.91,1413.73 "/>
<polyline clip-path="url(#clip590)" style="stroke:#000000; stroke-linecap:round; stroke-linejoin:round; stroke-width:4; stroke-opacity:1; fill:none" points="1475.48,1423.18 1475.48,1413.73 "/>
<polyline clip-path="url(#clip590)" style="stroke:#000000; stroke-linecap:round; stroke-linejoin:round; stroke-width:4; stroke-opacity:1; fill:none" points="1521.06,1423.18 1521.06,1413.73 "/>
<polyline clip-path="url(#clip590)" style="stroke:#000000; stroke-linecap:round; stroke-linejoin:round; stroke-width:4; stroke-opacity:1; fill:none" points="1566.63,1423.18 1566.63,1413.73 "/>
<path clip-path="url(#clip590)" d="M235.362 1481.64 L243.001 1481.64 L243.001 1455.28 L234.691 1456.95 L234.691 1452.69 L242.955 1451.02 L247.631 1451.02 L247.631 1481.64 L255.27 1481.64 L255.27 1485.58 L235.362 1485.58 L235.362 1481.64 Z" fill="#000000" fill-rule="nonzero" fill-opacity="1" /><path clip-path="url(#clip590)" d="M467.504 1481.64 L483.823 1481.64 L483.823 1485.58 L461.879 1485.58 L461.879 1481.64 Q464.541 1478.89 469.124 1474.26 Q473.73 1469.61 474.911 1468.27 Q477.156 1465.74 478.036 1464.01 Q478.939 1462.25 478.939 1460.56 Q478.939 1457.8 476.994 1456.07 Q475.073 1454.33 471.971 1454.33 Q469.772 1454.33 467.318 1455.09 Q464.888 1455.86 462.11 1457.41 L462.11 1452.69 Q464.934 1451.55 467.388 1450.97 Q469.842 1450.39 471.879 1450.39 Q477.249 1450.39 480.443 1453.08 Q483.638 1455.77 483.638 1460.26 Q483.638 1462.39 482.828 1464.31 Q482.041 1466.2 479.934 1468.8 Q479.355 1469.47 476.254 1472.69 Q473.152 1475.88 467.504 1481.64 Z" fill="#000000" fill-rule="nonzero" fill-opacity="1" /><path clip-path="url(#clip590)" d="M704.969 1466.95 Q708.325 1467.66 710.2 1469.93 Q712.099 1472.2 712.099 1475.53 Q712.099 1480.65 708.58 1483.45 Q705.062 1486.25 698.58 1486.25 Q696.404 1486.25 694.089 1485.81 Q691.798 1485.39 689.344 1484.54 L689.344 1480.02 Q691.288 1481.16 693.603 1481.74 Q695.918 1482.32 698.441 1482.32 Q702.839 1482.32 705.131 1480.58 Q707.446 1478.84 707.446 1475.53 Q707.446 1472.48 705.293 1470.77 Q703.163 1469.03 699.344 1469.03 L695.316 1469.03 L695.316 1465.19 L699.529 1465.19 Q702.978 1465.19 704.807 1463.82 Q706.636 1462.43 706.636 1459.84 Q706.636 1457.18 704.737 1455.77 Q702.862 1454.33 699.344 1454.33 Q697.423 1454.33 695.224 1454.75 Q693.025 1455.16 690.386 1456.04 L690.386 1451.88 Q693.048 1451.14 695.363 1450.77 Q697.7 1450.39 699.761 1450.39 Q705.085 1450.39 708.187 1452.83 Q711.288 1455.23 711.288 1459.35 Q711.288 1462.22 709.645 1464.21 Q708.001 1466.18 704.969 1466.95 Z" fill="#000000" fill-rule="nonzero" fill-opacity="1" /><path clip-path="url(#clip590)" d="M931.601 1455.09 L919.796 1473.54 L931.601 1473.54 L931.601 1455.09 M930.374 1451.02 L936.254 1451.02 L936.254 1473.54 L941.184 1473.54 L941.184 1477.43 L936.254 1477.43 L936.254 1485.58 L931.601 1485.58 L931.601 1477.43 L915.999 1477.43 L915.999 1472.92 L930.374 1451.02 Z" fill="#000000" fill-rule="nonzero" fill-opacity="1" /><path clip-path="url(#clip590)" d="M1146.74 1451.02 L1165.1 1451.02 L1165.1 1454.96 L1151.02 1454.96 L1151.02 1463.43 Q1152.04 1463.08 1153.06 1462.92 Q1154.08 1462.73 1155.1 1462.73 Q1160.88 1462.73 1164.26 1465.9 Q1167.64 1469.08 1167.64 1474.49 Q1167.64 1480.07 1164.17 1483.17 Q1160.7 1486.25 1154.38 1486.25 Q1152.2 1486.25 1149.93 1485.88 Q1147.69 1485.51 1145.28 1484.77 L1145.28 1480.07 Q1147.37 1481.2 1149.59 1481.76 Q1151.81 1482.32 1154.29 1482.32 Q1158.29 1482.32 1160.63 1480.21 Q1162.97 1478.1 1162.97 1474.49 Q1162.97 1470.88 1160.63 1468.77 Q1158.29 1466.67 1154.29 1466.67 Q1152.41 1466.67 1150.54 1467.08 Q1148.68 1467.5 1146.74 1468.38 L1146.74 1451.02 Z" fill="#000000" fill-rule="nonzero" fill-opacity="1" /><path clip-path="url(#clip590)" d="M1384.74 1466.44 Q1381.59 1466.44 1379.74 1468.59 Q1377.91 1470.74 1377.91 1474.49 Q1377.91 1478.22 1379.74 1480.39 Q1381.59 1482.55 1384.74 1482.55 Q1387.89 1482.55 1389.71 1480.39 Q1391.57 1478.22 1391.57 1474.49 Q1391.57 1470.74 1389.71 1468.59 Q1387.89 1466.44 1384.74 1466.44 M1394.02 1451.78 L1394.02 1456.04 Q1392.26 1455.21 1390.46 1454.77 Q1388.67 1454.33 1386.91 1454.33 Q1382.28 1454.33 1379.83 1457.45 Q1377.4 1460.58 1377.05 1466.9 Q1378.42 1464.89 1380.48 1463.82 Q1382.54 1462.73 1385.02 1462.73 Q1390.22 1462.73 1393.23 1465.9 Q1396.27 1469.05 1396.27 1474.49 Q1396.27 1479.82 1393.12 1483.03 Q1389.97 1486.25 1384.74 1486.25 Q1378.74 1486.25 1375.57 1481.67 Q1372.4 1477.06 1372.4 1468.33 Q1372.4 1460.14 1376.29 1455.28 Q1380.18 1450.39 1386.73 1450.39 Q1388.49 1450.39 1390.27 1450.74 Q1392.08 1451.09 1394.02 1451.78 Z" fill="#000000" fill-rule="nonzero" fill-opacity="1" /><path clip-path="url(#clip590)" d="M1601.09 1451.02 L1623.31 1451.02 L1623.31 1453.01 L1610.77 1485.58 L1605.88 1485.58 L1617.69 1454.96 L1601.09 1454.96 L1601.09 1451.02 Z" fill="#000000" fill-rule="nonzero" fill-opacity="1" /><path clip-path="url(#clip590)" d="M748.14 1525.81 L748.14 1562.76 L755.906 1562.76 Q765.741 1562.76 770.293 1558.3 Q774.876 1553.85 774.876 1544.24 Q774.876 1534.69 770.293 1530.26 Q765.741 1525.81 755.906 1525.81 L748.14 1525.81 M741.711 1520.52 L754.919 1520.52 Q768.733 1520.52 775.194 1526.28 Q781.655 1532.01 781.655 1544.24 Q781.655 1556.52 775.162 1562.28 Q768.669 1568.04 754.919 1568.04 L741.711 1568.04 L741.711 1520.52 Z" fill="#000000" fill-rule="nonzero" fill-opacity="1" /><path clip-path="url(#clip590)" d="M807.85 1550.12 Q800.753 1550.12 798.015 1551.75 Q795.278 1553.37 795.278 1557.29 Q795.278 1560.4 797.315 1562.25 Q799.384 1564.07 802.917 1564.07 Q807.787 1564.07 810.715 1560.63 Q813.675 1557.16 813.675 1551.43 L813.675 1550.12 L807.85 1550.12 M819.531 1547.71 L819.531 1568.04 L813.675 1568.04 L813.675 1562.63 Q811.67 1565.88 808.678 1567.44 Q805.686 1568.97 801.357 1568.97 Q795.883 1568.97 792.636 1565.91 Q789.422 1562.82 789.422 1557.67 Q789.422 1551.65 793.432 1548.6 Q797.474 1545.54 805.463 1545.54 L813.675 1545.54 L813.675 1544.97 Q813.675 1540.93 811.001 1538.73 Q808.36 1536.5 803.553 1536.5 Q800.498 1536.5 797.601 1537.23 Q794.705 1537.97 792.031 1539.43 L792.031 1534.02 Q795.246 1532.78 798.27 1532.17 Q801.294 1531.54 804.158 1531.54 Q811.893 1531.54 815.712 1535.55 Q819.531 1539.56 819.531 1547.71 Z" fill="#000000" fill-rule="nonzero" fill-opacity="1" /><path clip-path="url(#clip590)" d="M846.426 1571.35 Q843.944 1577.72 841.589 1579.66 Q839.233 1581.6 835.286 1581.6 L830.608 1581.6 L830.608 1576.7 L834.045 1576.7 Q836.464 1576.7 837.801 1575.56 Q839.138 1574.41 840.761 1570.14 L841.811 1567.47 L827.393 1532.4 L833.6 1532.4 L844.74 1560.28 L855.88 1532.4 L862.086 1532.4 L846.426 1571.35 Z" fill="#000000" fill-rule="nonzero" fill-opacity="1" /><path clip-path="url(#clip590)" d="M892.896 1533.45 L892.896 1538.98 Q890.413 1537.71 887.74 1537.07 Q885.066 1536.44 882.202 1536.44 Q877.841 1536.44 875.645 1537.77 Q873.481 1539.11 873.481 1541.79 Q873.481 1543.82 875.04 1545 Q876.6 1546.15 881.311 1547.2 L883.316 1547.64 Q889.554 1548.98 892.164 1551.43 Q894.806 1553.85 894.806 1558.21 Q894.806 1563.17 890.859 1566.07 Q886.944 1568.97 880.069 1568.97 Q877.205 1568.97 874.085 1568.39 Q870.998 1567.85 867.561 1566.74 L867.561 1560.69 Q870.807 1562.38 873.958 1563.24 Q877.109 1564.07 880.197 1564.07 Q884.334 1564.07 886.562 1562.66 Q888.79 1561.23 888.79 1558.65 Q888.79 1556.27 887.167 1554.99 Q885.576 1553.72 880.133 1552.54 L878.096 1552.07 Q872.653 1550.92 870.234 1548.56 Q867.815 1546.18 867.815 1542.04 Q867.815 1537.01 871.38 1534.27 Q874.945 1531.54 881.502 1531.54 Q884.748 1531.54 887.613 1532.01 Q890.477 1532.49 892.896 1533.45 Z" fill="#000000" fill-rule="nonzero" fill-opacity="1" /><path clip-path="url(#clip590)" d="M941.053 1550.12 Q933.955 1550.12 931.218 1551.75 Q928.48 1553.37 928.48 1557.29 Q928.48 1560.4 930.517 1562.25 Q932.586 1564.07 936.119 1564.07 Q940.989 1564.07 943.917 1560.63 Q946.877 1557.16 946.877 1551.43 L946.877 1550.12 L941.053 1550.12 M952.734 1547.71 L952.734 1568.04 L946.877 1568.04 L946.877 1562.63 Q944.872 1565.88 941.88 1567.44 Q938.888 1568.97 934.56 1568.97 Q929.085 1568.97 925.839 1565.91 Q922.624 1562.82 922.624 1557.67 Q922.624 1551.65 926.634 1548.6 Q930.677 1545.54 938.666 1545.54 L946.877 1545.54 L946.877 1544.97 Q946.877 1540.93 944.204 1538.73 Q941.562 1536.5 936.756 1536.5 Q933.7 1536.5 930.804 1537.23 Q927.908 1537.97 925.234 1539.43 L925.234 1534.02 Q928.449 1532.78 931.472 1532.17 Q934.496 1531.54 937.361 1531.54 Q945.095 1531.54 948.914 1535.55 Q952.734 1539.56 952.734 1547.71 Z" fill="#000000" fill-rule="nonzero" fill-opacity="1" /><path clip-path="url(#clip590)" d="M994.429 1546.53 L994.429 1568.04 L988.573 1568.04 L988.573 1546.72 Q988.573 1541.66 986.599 1539.14 Q984.626 1536.63 980.679 1536.63 Q975.937 1536.63 973.2 1539.65 Q970.462 1542.68 970.462 1547.9 L970.462 1568.04 L964.574 1568.04 L964.574 1518.52 L970.462 1518.52 L970.462 1537.93 Q972.563 1534.72 975.396 1533.13 Q978.26 1531.54 981.984 1531.54 Q988.127 1531.54 991.278 1535.36 Q994.429 1539.14 994.429 1546.53 Z" fill="#000000" fill-rule="nonzero" fill-opacity="1" /><path clip-path="url(#clip590)" d="M1036.6 1548.76 L1036.6 1551.62 L1009.68 1551.62 Q1010.06 1557.67 1013.3 1560.85 Q1016.58 1564 1022.41 1564 Q1025.78 1564 1028.93 1563.17 Q1032.11 1562.35 1035.23 1560.69 L1035.23 1566.23 Q1032.08 1567.57 1028.77 1568.27 Q1025.46 1568.97 1022.06 1568.97 Q1013.53 1568.97 1008.53 1564 Q1003.56 1559.04 1003.56 1550.57 Q1003.56 1541.82 1008.27 1536.69 Q1013.02 1531.54 1021.04 1531.54 Q1028.23 1531.54 1032.4 1536.18 Q1036.6 1540.8 1036.6 1548.76 M1030.75 1547.04 Q1030.68 1542.23 1028.04 1539.37 Q1025.43 1536.5 1021.1 1536.5 Q1016.2 1536.5 1013.24 1539.27 Q1010.31 1542.04 1009.87 1547.07 L1030.75 1547.04 Z" fill="#000000" fill-rule="nonzero" fill-opacity="1" /><path clip-path="url(#clip590)" d="M1062.41 1550.12 Q1055.32 1550.12 1052.58 1551.75 Q1049.84 1553.37 1049.84 1557.29 Q1049.84 1560.4 1051.88 1562.25 Q1053.95 1564.07 1057.48 1564.07 Q1062.35 1564.07 1065.28 1560.63 Q1068.24 1557.16 1068.24 1551.43 L1068.24 1550.12 L1062.41 1550.12 M1074.1 1547.71 L1074.1 1568.04 L1068.24 1568.04 L1068.24 1562.63 Q1066.23 1565.88 1063.24 1567.44 Q1060.25 1568.97 1055.92 1568.97 Q1050.45 1568.97 1047.2 1565.91 Q1043.99 1562.82 1043.99 1557.67 Q1043.99 1551.65 1048 1548.6 Q1052.04 1545.54 1060.03 1545.54 L1068.24 1545.54 L1068.24 1544.97 Q1068.24 1540.93 1065.57 1538.73 Q1062.92 1536.5 1058.12 1536.5 Q1055.06 1536.5 1052.17 1537.23 Q1049.27 1537.97 1046.6 1539.43 L1046.6 1534.02 Q1049.81 1532.78 1052.83 1532.17 Q1055.86 1531.54 1058.72 1531.54 Q1066.46 1531.54 1070.28 1535.55 Q1074.1 1539.56 1074.1 1547.71 Z" fill="#000000" fill-rule="nonzero" fill-opacity="1" /><path clip-path="url(#clip590)" d="M1109.62 1537.81 L1109.62 1518.52 L1115.47 1518.52 L1115.47 1568.04 L1109.62 1568.04 L1109.62 1562.7 Q1107.77 1565.88 1104.94 1567.44 Q1102.14 1568.97 1098.19 1568.97 Q1091.73 1568.97 1087.65 1563.81 Q1083.61 1558.65 1083.61 1550.25 Q1083.61 1541.85 1087.65 1536.69 Q1091.73 1531.54 1098.19 1531.54 Q1102.14 1531.54 1104.94 1533.1 Q1107.77 1534.62 1109.62 1537.81 M1089.66 1550.25 Q1089.66 1556.71 1092.3 1560.4 Q1094.98 1564.07 1099.62 1564.07 Q1104.27 1564.07 1106.94 1560.4 Q1109.62 1556.71 1109.62 1550.25 Q1109.62 1543.79 1106.94 1540.13 Q1104.27 1536.44 1099.62 1536.44 Q1094.98 1536.44 1092.3 1540.13 Q1089.66 1543.79 1089.66 1550.25 Z" fill="#000000" fill-rule="nonzero" fill-opacity="1" /><polyline clip-path="url(#clip592)" style="stroke:#000000; stroke-linecap:round; stroke-linejoin:round; stroke-width:2; stroke-opacity:0.1; fill:none" points="203.964,1152.59 1653.22,1152.59 "/>
<polyline clip-path="url(#clip592)" style="stroke:#000000; stroke-linecap:round; stroke-linejoin:round; stroke-width:2; stroke-opacity:0.1; fill:none" points="203.964,860.889 1653.22,860.889 "/>
<polyline clip-path="url(#clip592)" style="stroke:#000000; stroke-linecap:round; stroke-linejoin:round; stroke-width:2; stroke-opacity:0.1; fill:none" points="203.964,569.186 1653.22,569.186 "/>
<polyline clip-path="url(#clip592)" style="stroke:#000000; stroke-linecap:round; stroke-linejoin:round; stroke-width:2; stroke-opacity:0.1; fill:none" points="203.964,277.483 1653.22,277.483 "/>
<polyline clip-path="url(#clip592)" style="stroke:#000000; stroke-linecap:round; stroke-linejoin:round; stroke-width:2; stroke-opacity:0.05; fill:none" points="203.964,1385.95 1653.22,1385.95 "/>
<polyline clip-path="url(#clip592)" style="stroke:#000000; stroke-linecap:round; stroke-linejoin:round; stroke-width:2; stroke-opacity:0.05; fill:none" points="203.964,1327.61 1653.22,1327.61 "/>
<polyline clip-path="url(#clip592)" style="stroke:#000000; stroke-linecap:round; stroke-linejoin:round; stroke-width:2; stroke-opacity:0.05; fill:none" points="203.964,1269.27 1653.22,1269.27 "/>
<polyline clip-path="url(#clip592)" style="stroke:#000000; stroke-linecap:round; stroke-linejoin:round; stroke-width:2; stroke-opacity:0.05; fill:none" points="203.964,1210.93 1653.22,1210.93 "/>
<polyline clip-path="url(#clip592)" style="stroke:#000000; stroke-linecap:round; stroke-linejoin:round; stroke-width:2; stroke-opacity:0.05; fill:none" points="203.964,1094.25 1653.22,1094.25 "/>
<polyline clip-path="url(#clip592)" style="stroke:#000000; stroke-linecap:round; stroke-linejoin:round; stroke-width:2; stroke-opacity:0.05; fill:none" points="203.964,1035.91 1653.22,1035.91 "/>
<polyline clip-path="url(#clip592)" style="stroke:#000000; stroke-linecap:round; stroke-linejoin:round; stroke-width:2; stroke-opacity:0.05; fill:none" points="203.964,977.57 1653.22,977.57 "/>
<polyline clip-path="url(#clip592)" style="stroke:#000000; stroke-linecap:round; stroke-linejoin:round; stroke-width:2; stroke-opacity:0.05; fill:none" points="203.964,919.229 1653.22,919.229 "/>
<polyline clip-path="url(#clip592)" style="stroke:#000000; stroke-linecap:round; stroke-linejoin:round; stroke-width:2; stroke-opacity:0.05; fill:none" points="203.964,802.548 1653.22,802.548 "/>
<polyline clip-path="url(#clip592)" style="stroke:#000000; stroke-linecap:round; stroke-linejoin:round; stroke-width:2; stroke-opacity:0.05; fill:none" points="203.964,744.208 1653.22,744.208 "/>
<polyline clip-path="url(#clip592)" style="stroke:#000000; stroke-linecap:round; stroke-linejoin:round; stroke-width:2; stroke-opacity:0.05; fill:none" points="203.964,685.867 1653.22,685.867 "/>
<polyline clip-path="url(#clip592)" style="stroke:#000000; stroke-linecap:round; stroke-linejoin:round; stroke-width:2; stroke-opacity:0.05; fill:none" points="203.964,627.527 1653.22,627.527 "/>
<polyline clip-path="url(#clip592)" style="stroke:#000000; stroke-linecap:round; stroke-linejoin:round; stroke-width:2; stroke-opacity:0.05; fill:none" points="203.964,510.845 1653.22,510.845 "/>
<polyline clip-path="url(#clip592)" style="stroke:#000000; stroke-linecap:round; stroke-linejoin:round; stroke-width:2; stroke-opacity:0.05; fill:none" points="203.964,452.505 1653.22,452.505 "/>
<polyline clip-path="url(#clip592)" style="stroke:#000000; stroke-linecap:round; stroke-linejoin:round; stroke-width:2; stroke-opacity:0.05; fill:none" points="203.964,394.164 1653.22,394.164 "/>
<polyline clip-path="url(#clip592)" style="stroke:#000000; stroke-linecap:round; stroke-linejoin:round; stroke-width:2; stroke-opacity:0.05; fill:none" points="203.964,335.824 1653.22,335.824 "/>
<polyline clip-path="url(#clip592)" style="stroke:#000000; stroke-linecap:round; stroke-linejoin:round; stroke-width:2; stroke-opacity:0.05; fill:none" points="203.964,219.143 1653.22,219.143 "/>
<polyline clip-path="url(#clip592)" style="stroke:#000000; stroke-linecap:round; stroke-linejoin:round; stroke-width:2; stroke-opacity:0.05; fill:none" points="203.964,160.802 1653.22,160.802 "/>
<polyline clip-path="url(#clip590)" style="stroke:#000000; stroke-linecap:round; stroke-linejoin:round; stroke-width:4; stroke-opacity:1; fill:none" points="203.964,1423.18 203.964,123.472 "/>
<polyline clip-path="url(#clip590)" style="stroke:#000000; stroke-linecap:round; stroke-linejoin:round; stroke-width:4; stroke-opacity:1; fill:none" points="203.964,1152.59 216.709,1152.59 "/>
<polyline clip-path="url(#clip590)" style="stroke:#000000; stroke-linecap:round; stroke-linejoin:round; stroke-width:4; stroke-opacity:1; fill:none" points="203.964,860.889 216.709,860.889 "/>
<polyline clip-path="url(#clip590)" style="stroke:#000000; stroke-linecap:round; stroke-linejoin:round; stroke-width:4; stroke-opacity:1; fill:none" points="203.964,569.186 216.709,569.186 "/>
<polyline clip-path="url(#clip590)" style="stroke:#000000; stroke-linecap:round; stroke-linejoin:round; stroke-width:4; stroke-opacity:1; fill:none" points="203.964,277.483 216.709,277.483 "/>
<polyline clip-path="url(#clip590)" style="stroke:#000000; stroke-linecap:round; stroke-linejoin:round; stroke-width:4; stroke-opacity:1; fill:none" points="203.964,1385.95 210.336,1385.95 "/>
<polyline clip-path="url(#clip590)" style="stroke:#000000; stroke-linecap:round; stroke-linejoin:round; stroke-width:4; stroke-opacity:1; fill:none" points="203.964,1327.61 210.336,1327.61 "/>
<polyline clip-path="url(#clip590)" style="stroke:#000000; stroke-linecap:round; stroke-linejoin:round; stroke-width:4; stroke-opacity:1; fill:none" points="203.964,1269.27 210.336,1269.27 "/>
<polyline clip-path="url(#clip590)" style="stroke:#000000; stroke-linecap:round; stroke-linejoin:round; stroke-width:4; stroke-opacity:1; fill:none" points="203.964,1210.93 210.336,1210.93 "/>
<polyline clip-path="url(#clip590)" style="stroke:#000000; stroke-linecap:round; stroke-linejoin:round; stroke-width:4; stroke-opacity:1; fill:none" points="203.964,1094.25 210.336,1094.25 "/>
<polyline clip-path="url(#clip590)" style="stroke:#000000; stroke-linecap:round; stroke-linejoin:round; stroke-width:4; stroke-opacity:1; fill:none" points="203.964,1035.91 210.336,1035.91 "/>
<polyline clip-path="url(#clip590)" style="stroke:#000000; stroke-linecap:round; stroke-linejoin:round; stroke-width:4; stroke-opacity:1; fill:none" points="203.964,977.57 210.336,977.57 "/>
<polyline clip-path="url(#clip590)" style="stroke:#000000; stroke-linecap:round; stroke-linejoin:round; stroke-width:4; stroke-opacity:1; fill:none" points="203.964,919.229 210.336,919.229 "/>
<polyline clip-path="url(#clip590)" style="stroke:#000000; stroke-linecap:round; stroke-linejoin:round; stroke-width:4; stroke-opacity:1; fill:none" points="203.964,802.548 210.336,802.548 "/>
<polyline clip-path="url(#clip590)" style="stroke:#000000; stroke-linecap:round; stroke-linejoin:round; stroke-width:4; stroke-opacity:1; fill:none" points="203.964,744.208 210.336,744.208 "/>
<polyline clip-path="url(#clip590)" style="stroke:#000000; stroke-linecap:round; stroke-linejoin:round; stroke-width:4; stroke-opacity:1; fill:none" points="203.964,685.867 210.336,685.867 "/>
<polyline clip-path="url(#clip590)" style="stroke:#000000; stroke-linecap:round; stroke-linejoin:round; stroke-width:4; stroke-opacity:1; fill:none" points="203.964,627.527 210.336,627.527 "/>
<polyline clip-path="url(#clip590)" style="stroke:#000000; stroke-linecap:round; stroke-linejoin:round; stroke-width:4; stroke-opacity:1; fill:none" points="203.964,510.845 210.336,510.845 "/>
<polyline clip-path="url(#clip590)" style="stroke:#000000; stroke-linecap:round; stroke-linejoin:round; stroke-width:4; stroke-opacity:1; fill:none" points="203.964,452.505 210.336,452.505 "/>
<polyline clip-path="url(#clip590)" style="stroke:#000000; stroke-linecap:round; stroke-linejoin:round; stroke-width:4; stroke-opacity:1; fill:none" points="203.964,394.164 210.336,394.164 "/>
<polyline clip-path="url(#clip590)" style="stroke:#000000; stroke-linecap:round; stroke-linejoin:round; stroke-width:4; stroke-opacity:1; fill:none" points="203.964,335.824 210.336,335.824 "/>
<polyline clip-path="url(#clip590)" style="stroke:#000000; stroke-linecap:round; stroke-linejoin:round; stroke-width:4; stroke-opacity:1; fill:none" points="203.964,219.143 210.336,219.143 "/>
<polyline clip-path="url(#clip590)" style="stroke:#000000; stroke-linecap:round; stroke-linejoin:round; stroke-width:4; stroke-opacity:1; fill:none" points="203.964,160.802 210.336,160.802 "/>
<path clip-path="url(#clip590)" d="M147.061 1135.31 L165.417 1135.31 L165.417 1139.25 L151.343 1139.25 L151.343 1147.72 Q152.362 1147.37 153.38 1147.21 Q154.399 1147.02 155.417 1147.02 Q161.204 1147.02 164.584 1150.2 Q167.964 1153.37 167.964 1158.78 Q167.964 1164.36 164.491 1167.46 Q161.019 1170.54 154.7 1170.54 Q152.524 1170.54 150.255 1170.17 Q148.01 1169.8 145.603 1169.06 L145.603 1164.36 Q147.686 1165.5 149.908 1166.05 Q152.13 1166.61 154.607 1166.61 Q158.612 1166.61 160.95 1164.5 Q163.288 1162.39 163.288 1158.78 Q163.288 1155.17 160.95 1153.07 Q158.612 1150.96 154.607 1150.96 Q152.732 1150.96 150.857 1151.38 Q149.005 1151.79 147.061 1152.67 L147.061 1135.31 Z" fill="#000000" fill-rule="nonzero" fill-opacity="1" /><path clip-path="url(#clip590)" d="M116.668 874.234 L124.306 874.234 L124.306 847.868 L115.996 849.535 L115.996 845.275 L124.26 843.609 L128.936 843.609 L128.936 874.234 L136.575 874.234 L136.575 878.169 L116.668 878.169 L116.668 874.234 Z" fill="#000000" fill-rule="nonzero" fill-opacity="1" /><path clip-path="url(#clip590)" d="M156.019 846.688 Q152.408 846.688 150.579 850.252 Q148.774 853.794 148.774 860.924 Q148.774 868.03 150.579 871.595 Q152.408 875.136 156.019 875.136 Q159.653 875.136 161.459 871.595 Q163.288 868.03 163.288 860.924 Q163.288 853.794 161.459 850.252 Q159.653 846.688 156.019 846.688 M156.019 842.984 Q161.829 842.984 164.885 847.59 Q167.964 852.174 167.964 860.924 Q167.964 869.65 164.885 874.257 Q161.829 878.84 156.019 878.84 Q150.209 878.84 147.13 874.257 Q144.075 869.65 144.075 860.924 Q144.075 852.174 147.13 847.59 Q150.209 842.984 156.019 842.984 Z" fill="#000000" fill-rule="nonzero" fill-opacity="1" /><path clip-path="url(#clip590)" d="M117.663 582.531 L125.302 582.531 L125.302 556.165 L116.992 557.832 L116.992 553.573 L125.255 551.906 L129.931 551.906 L129.931 582.531 L137.57 582.531 L137.57 586.466 L117.663 586.466 L117.663 582.531 Z" fill="#000000" fill-rule="nonzero" fill-opacity="1" /><path clip-path="url(#clip590)" d="M147.061 551.906 L165.417 551.906 L165.417 555.841 L151.343 555.841 L151.343 564.313 Q152.362 563.966 153.38 563.804 Q154.399 563.619 155.417 563.619 Q161.204 563.619 164.584 566.79 Q167.964 569.961 167.964 575.378 Q167.964 580.957 164.491 584.059 Q161.019 587.137 154.7 587.137 Q152.524 587.137 150.255 586.767 Q148.01 586.397 145.603 585.656 L145.603 580.957 Q147.686 582.091 149.908 582.647 Q152.13 583.202 154.607 583.202 Q158.612 583.202 160.95 581.096 Q163.288 578.989 163.288 575.378 Q163.288 571.767 160.95 569.661 Q158.612 567.554 154.607 567.554 Q152.732 567.554 150.857 567.971 Q149.005 568.387 147.061 569.267 L147.061 551.906 Z" fill="#000000" fill-rule="nonzero" fill-opacity="1" /><path clip-path="url(#clip590)" d="M119.885 290.828 L136.204 290.828 L136.204 294.763 L114.26 294.763 L114.26 290.828 Q116.922 288.073 121.505 283.444 Q126.112 278.791 127.292 277.448 Q129.538 274.925 130.417 273.189 Q131.32 271.43 131.32 269.74 Q131.32 266.986 129.376 265.249 Q127.455 263.513 124.353 263.513 Q122.154 263.513 119.7 264.277 Q117.269 265.041 114.492 266.592 L114.492 261.87 Q117.316 260.736 119.769 260.157 Q122.223 259.578 124.26 259.578 Q129.63 259.578 132.825 262.263 Q136.019 264.949 136.019 269.439 Q136.019 271.569 135.209 273.49 Q134.422 275.388 132.316 277.981 Q131.737 278.652 128.635 281.87 Q125.533 285.064 119.885 290.828 Z" fill="#000000" fill-rule="nonzero" fill-opacity="1" /><path clip-path="url(#clip590)" d="M156.019 263.282 Q152.408 263.282 150.579 266.847 Q148.774 270.388 148.774 277.518 Q148.774 284.624 150.579 288.189 Q152.408 291.731 156.019 291.731 Q159.653 291.731 161.459 288.189 Q163.288 284.624 163.288 277.518 Q163.288 270.388 161.459 266.847 Q159.653 263.282 156.019 263.282 M156.019 259.578 Q161.829 259.578 164.885 264.185 Q167.964 268.768 167.964 277.518 Q167.964 286.245 164.885 290.851 Q161.829 295.434 156.019 295.434 Q150.209 295.434 147.13 290.851 Q144.075 286.245 144.075 277.518 Q144.075 268.768 147.13 264.185 Q150.209 259.578 156.019 259.578 Z" fill="#000000" fill-rule="nonzero" fill-opacity="1" /><path clip-path="url(#clip590)" d="M16.4842 874.557 L16.4842 864.976 L48.8219 852.85 L16.4842 840.659 L16.4842 831.079 L64.0042 831.079 L64.0042 837.349 L22.277 837.349 L54.8694 849.603 L54.8694 856.064 L22.277 868.318 L64.0042 868.318 L64.0042 874.557 L16.4842 874.557 Z" fill="#000000" fill-rule="nonzero" fill-opacity="1" /><path clip-path="url(#clip590)" d="M41.7242 795.781 Q42.4244 793.712 44.7161 791.771 Q47.0077 789.797 51.0181 787.824 L64.0042 781.299 L64.0042 788.206 L51.8138 794.285 Q47.0395 796.64 45.48 798.868 Q43.9204 801.065 43.9204 804.884 L43.9204 811.886 L64.0042 811.886 L64.0042 818.316 L16.4842 818.316 L16.4842 803.802 Q16.4842 795.654 19.8898 791.643 Q23.2955 787.633 30.1704 787.633 Q34.6582 787.633 37.6183 789.734 Q40.5784 791.802 41.7242 795.781 M21.7677 811.886 L38.6368 811.886 L38.6368 803.802 Q38.6368 799.155 36.5043 796.8 Q34.34 794.412 30.1704 794.412 Q26.0009 794.412 23.9002 796.8 Q21.7677 799.155 21.7677 803.802 L21.7677 811.886 Z" fill="#000000" fill-rule="nonzero" fill-opacity="1" /><path clip-path="url(#clip590)" d="M22.818 759.783 L46.4666 768.504 L46.4666 751.03 L22.818 759.783 M16.4842 763.411 L16.4842 756.123 L64.0042 738.012 L64.0042 744.696 L51.8138 749.025 L51.8138 770.446 L64.0042 774.774 L64.0042 781.554 L16.4842 763.411 Z" fill="#000000" fill-rule="nonzero" fill-opacity="1" /><path clip-path="url(#clip590)" d="M16.4842 731.074 L16.4842 701.027 L21.895 701.027 L21.895 724.644 L35.9632 724.644 L35.9632 702.014 L41.3741 702.014 L41.3741 724.644 L58.5933 724.644 L58.5933 700.455 L64.0042 700.455 L64.0042 731.074 L16.4842 731.074 Z" fill="#000000" fill-rule="nonzero" fill-opacity="1" /><path clip-path="url(#clip590)" d="M14.479 672.095 L19.3487 672.095 L19.3487 677.697 Q19.3487 680.848 20.6219 682.089 Q21.895 683.299 25.2052 683.299 L28.3562 683.299 L28.3562 673.655 L32.9077 673.655 L32.9077 683.299 L64.0042 683.299 L64.0042 689.187 L32.9077 689.187 L32.9077 694.789 L28.3562 694.789 L28.3562 689.187 L25.8736 689.187 Q19.9216 689.187 17.2162 686.418 Q14.479 683.649 14.479 677.633 L14.479 672.095 Z" fill="#000000" fill-rule="nonzero" fill-opacity="1" /><path clip-path="url(#clip590)" d="M486.091 12.096 L498.285 12.096 L513.718 53.2532 L529.233 12.096 L541.427 12.096 L541.427 72.576 L533.446 72.576 L533.446 19.4686 L517.85 60.9499 L509.627 60.9499 L494.031 19.4686 L494.031 72.576 L486.091 72.576 L486.091 12.096 Z" fill="#000000" fill-rule="nonzero" fill-opacity="1" /><path clip-path="url(#clip590)" d="M586.351 44.2197 Q588.984 45.1109 591.455 48.0275 Q593.967 50.9442 596.478 56.0483 L604.783 72.576 L595.992 72.576 L588.255 57.061 Q585.257 50.9847 582.422 48.9997 Q579.627 47.0148 574.766 47.0148 L565.854 47.0148 L565.854 72.576 L557.671 72.576 L557.671 12.096 L576.143 12.096 Q586.513 12.096 591.617 16.4305 Q596.721 20.7649 596.721 29.5149 Q596.721 35.2267 594.048 38.994 Q591.415 42.7613 586.351 44.2197 M565.854 18.8205 L565.854 40.2903 L576.143 40.2903 Q582.057 40.2903 585.055 37.5762 Q588.093 34.8216 588.093 29.5149 Q588.093 24.2082 585.055 21.5346 Q582.057 18.8205 576.143 18.8205 L565.854 18.8205 Z" fill="#000000" fill-rule="nonzero" fill-opacity="1" /><path clip-path="url(#clip590)" d="M632.167 20.1573 L621.067 50.2555 L643.307 50.2555 L632.167 20.1573 M627.549 12.096 L636.825 12.096 L659.875 72.576 L651.368 72.576 L645.859 57.061 L618.596 57.061 L613.087 72.576 L604.459 72.576 L627.549 12.096 Z" fill="#000000" fill-rule="nonzero" fill-opacity="1" /><path clip-path="url(#clip590)" d="M668.706 12.096 L706.947 12.096 L706.947 18.9825 L676.889 18.9825 L676.889 36.8875 L705.691 36.8875 L705.691 43.7741 L676.889 43.7741 L676.889 65.6895 L707.676 65.6895 L707.676 72.576 L668.706 72.576 L668.706 12.096 Z" fill="#000000" fill-rule="nonzero" fill-opacity="1" /><path clip-path="url(#clip590)" d="M743.769 9.54393 L743.769 15.7418 L736.64 15.7418 Q732.629 15.7418 731.049 17.3622 Q729.51 18.9825 729.51 23.1955 L729.51 27.2059 L741.784 27.2059 L741.784 32.9987 L729.51 32.9987 L729.51 72.576 L722.016 72.576 L722.016 32.9987 L714.886 32.9987 L714.886 27.2059 L722.016 27.2059 L722.016 24.0462 Q722.016 16.471 725.54 13.0277 Q729.065 9.54393 736.721 9.54393 L743.769 9.54393 Z" fill="#000000" fill-rule="nonzero" fill-opacity="1" /><path clip-path="url(#clip590)" d="M771.032 27.2059 L778.931 27.2059 L793.109 65.2844 L807.287 27.2059 L815.187 27.2059 L798.173 72.576 L788.046 72.576 L771.032 27.2059 Z" fill="#000000" fill-rule="nonzero" fill-opacity="1" /><path clip-path="url(#clip590)" d="M854.4 28.5427 L854.4 35.5912 Q851.24 33.9709 847.837 33.1607 Q844.434 32.3505 840.788 32.3505 Q835.239 32.3505 832.444 34.0519 Q829.689 35.7533 829.689 39.156 Q829.689 41.7486 831.674 43.2475 Q833.659 44.7058 839.654 46.0426 L842.206 46.6097 Q850.146 48.3111 853.468 51.4303 Q856.83 54.509 856.83 60.0587 Q856.83 66.3781 851.807 70.0644 Q846.824 73.7508 838.074 73.7508 Q834.429 73.7508 830.459 73.0216 Q826.529 72.3329 822.154 70.9151 L822.154 63.2184 Q826.286 65.3654 830.297 66.4591 Q834.307 67.5124 838.236 67.5124 Q843.503 67.5124 846.338 65.73 Q849.174 63.9071 849.174 60.6258 Q849.174 57.5877 847.108 55.9673 Q845.082 54.3469 838.155 52.8481 L835.563 52.2405 Q828.636 50.7821 825.557 47.7845 Q822.478 44.7463 822.478 39.4801 Q822.478 33.0797 827.015 29.5959 Q831.552 26.1121 839.897 26.1121 Q844.029 26.1121 847.675 26.7198 Q851.321 27.3274 854.4 28.5427 Z" fill="#000000" fill-rule="nonzero" fill-opacity="1" /><path clip-path="url(#clip590)" d="M903.577 18.8205 L903.577 65.8515 L913.462 65.8515 Q925.979 65.8515 931.772 60.1802 Q937.605 54.509 937.605 42.2752 Q937.605 30.1225 931.772 24.4918 Q925.979 18.8205 913.462 18.8205 L903.577 18.8205 M895.395 12.096 L912.206 12.096 Q929.787 12.096 938.01 19.4281 Q946.234 26.7198 946.234 42.2752 Q946.234 57.9117 937.97 65.2439 Q929.706 72.576 912.206 72.576 L895.395 72.576 L895.395 12.096 Z" fill="#000000" fill-rule="nonzero" fill-opacity="1" /><path clip-path="url(#clip590)" d="M979.572 49.7694 Q970.539 49.7694 967.055 51.8354 Q963.571 53.9013 963.571 58.8839 Q963.571 62.8538 966.164 65.2034 Q968.797 67.5124 973.294 67.5124 Q979.491 67.5124 983.218 63.1374 Q986.986 58.7219 986.986 51.4303 L986.986 49.7694 L979.572 49.7694 M994.439 46.6907 L994.439 72.576 L986.986 72.576 L986.986 65.6895 Q984.434 69.8214 980.626 71.8063 Q976.818 73.7508 971.309 73.7508 Q964.341 73.7508 960.209 69.8619 Q956.118 65.9325 956.118 59.3701 Q956.118 51.7138 961.222 47.825 Q966.367 43.9361 976.534 43.9361 L986.986 43.9361 L986.986 43.2069 Q986.986 38.0623 983.583 35.2672 Q980.221 32.4315 974.104 32.4315 Q970.215 32.4315 966.529 33.3632 Q962.842 34.295 959.439 36.1584 L959.439 29.2718 Q963.531 27.692 967.379 26.9223 Q971.228 26.1121 974.873 26.1121 Q984.717 26.1121 989.578 31.2163 Q994.439 36.3204 994.439 46.6907 Z" fill="#000000" fill-rule="nonzero" fill-opacity="1" /><path clip-path="url(#clip590)" d="M1028.67 76.7889 Q1025.51 84.8907 1022.51 87.3618 Q1019.51 89.8329 1014.49 89.8329 L1008.54 89.8329 L1008.54 83.5945 L1012.91 83.5945 Q1015.99 83.5945 1017.69 82.1361 Q1019.39 80.6778 1021.46 75.2496 L1022.8 71.8468 L1004.45 27.2059 L1012.34 27.2059 L1026.52 62.6918 L1040.7 27.2059 L1048.6 27.2059 L1028.67 76.7889 Z" fill="#000000" fill-rule="nonzero" fill-opacity="1" /><path clip-path="url(#clip590)" d="M1087.81 28.5427 L1087.81 35.5912 Q1084.65 33.9709 1081.25 33.1607 Q1077.85 32.3505 1074.2 32.3505 Q1068.65 32.3505 1065.86 34.0519 Q1063.1 35.7533 1063.1 39.156 Q1063.1 41.7486 1065.09 43.2475 Q1067.07 44.7058 1073.07 46.0426 L1075.62 46.6097 Q1083.56 48.3111 1086.88 51.4303 Q1090.24 54.509 1090.24 60.0587 Q1090.24 66.3781 1085.22 70.0644 Q1080.24 73.7508 1071.49 73.7508 Q1067.84 73.7508 1063.87 73.0216 Q1059.94 72.3329 1055.57 70.9151 L1055.57 63.2184 Q1059.7 65.3654 1063.71 66.4591 Q1067.72 67.5124 1071.65 67.5124 Q1076.92 67.5124 1079.75 65.73 Q1082.59 63.9071 1082.59 60.6258 Q1082.59 57.5877 1080.52 55.9673 Q1078.5 54.3469 1071.57 52.8481 L1068.98 52.2405 Q1062.05 50.7821 1058.97 47.7845 Q1055.89 44.7463 1055.89 39.4801 Q1055.89 33.0797 1060.43 29.5959 Q1064.97 26.1121 1073.31 26.1121 Q1077.44 26.1121 1081.09 26.7198 Q1084.73 27.3274 1087.81 28.5427 Z" fill="#000000" fill-rule="nonzero" fill-opacity="1" /><path clip-path="url(#clip590)" d="M1149.1 49.7694 Q1140.07 49.7694 1136.59 51.8354 Q1133.1 53.9013 1133.1 58.8839 Q1133.1 62.8538 1135.69 65.2034 Q1138.33 67.5124 1142.82 67.5124 Q1149.02 67.5124 1152.75 63.1374 Q1156.52 58.7219 1156.52 51.4303 L1156.52 49.7694 L1149.1 49.7694 M1163.97 46.6907 L1163.97 72.576 L1156.52 72.576 L1156.52 65.6895 Q1153.96 69.8214 1150.16 71.8063 Q1146.35 73.7508 1140.84 73.7508 Q1133.87 73.7508 1129.74 69.8619 Q1125.65 65.9325 1125.65 59.3701 Q1125.65 51.7138 1130.75 47.825 Q1135.9 43.9361 1146.06 43.9361 L1156.52 43.9361 L1156.52 43.2069 Q1156.52 38.0623 1153.11 35.2672 Q1149.75 32.4315 1143.63 32.4315 Q1139.75 32.4315 1136.06 33.3632 Q1132.37 34.295 1128.97 36.1584 L1128.97 29.2718 Q1133.06 27.692 1136.91 26.9223 Q1140.76 26.1121 1144.4 26.1121 Q1154.25 26.1121 1159.11 31.2163 Q1163.97 36.3204 1163.97 46.6907 Z" fill="#000000" fill-rule="nonzero" fill-opacity="1" /><path clip-path="url(#clip590)" d="M1217.04 45.1919 L1217.04 72.576 L1209.58 72.576 L1209.58 45.4349 Q1209.58 38.994 1207.07 35.7938 Q1204.56 32.5936 1199.54 32.5936 Q1193.5 32.5936 1190.02 36.4419 Q1186.53 40.2903 1186.53 46.9338 L1186.53 72.576 L1179.04 72.576 L1179.04 9.54393 L1186.53 9.54393 L1186.53 34.2544 Q1189.21 30.163 1192.81 28.1376 Q1196.46 26.1121 1201.2 26.1121 Q1209.02 26.1121 1213.03 30.9732 Q1217.04 35.7938 1217.04 45.1919 Z" fill="#000000" fill-rule="nonzero" fill-opacity="1" /><path clip-path="url(#clip590)" d="M1270.71 48.0275 L1270.71 51.6733 L1236.44 51.6733 Q1236.93 59.3701 1241.06 63.421 Q1245.23 67.4314 1252.64 67.4314 Q1256.94 67.4314 1260.95 66.3781 Q1265 65.3249 1268.97 63.2184 L1268.97 70.267 Q1264.96 71.9684 1260.75 72.8596 Q1256.53 73.7508 1252.2 73.7508 Q1241.34 73.7508 1234.98 67.4314 Q1228.66 61.1119 1228.66 50.3365 Q1228.66 39.1965 1234.66 32.6746 Q1240.69 26.1121 1250.9 26.1121 Q1260.06 26.1121 1265.36 32.0264 Q1270.71 37.9003 1270.71 48.0275 M1263.26 45.84 Q1263.18 39.7232 1259.81 36.0774 Q1256.49 32.4315 1250.98 32.4315 Q1244.74 32.4315 1240.98 35.9558 Q1237.25 39.4801 1236.68 45.8805 L1263.26 45.84 Z" fill="#000000" fill-rule="nonzero" fill-opacity="1" /><path clip-path="url(#clip590)" d="M1303.56 49.7694 Q1294.53 49.7694 1291.05 51.8354 Q1287.56 53.9013 1287.56 58.8839 Q1287.56 62.8538 1290.16 65.2034 Q1292.79 67.5124 1297.28 67.5124 Q1303.48 67.5124 1307.21 63.1374 Q1310.98 58.7219 1310.98 51.4303 L1310.98 49.7694 L1303.56 49.7694 M1318.43 46.6907 L1318.43 72.576 L1310.98 72.576 L1310.98 65.6895 Q1308.42 69.8214 1304.62 71.8063 Q1300.81 73.7508 1295.3 73.7508 Q1288.33 73.7508 1284.2 69.8619 Q1280.11 65.9325 1280.11 59.3701 Q1280.11 51.7138 1285.21 47.825 Q1290.36 43.9361 1300.53 43.9361 L1310.98 43.9361 L1310.98 43.2069 Q1310.98 38.0623 1307.57 35.2672 Q1304.21 32.4315 1298.1 32.4315 Q1294.21 32.4315 1290.52 33.3632 Q1286.83 34.295 1283.43 36.1584 L1283.43 29.2718 Q1287.52 27.692 1291.37 26.9223 Q1295.22 26.1121 1298.86 26.1121 Q1308.71 26.1121 1313.57 31.2163 Q1318.43 36.3204 1318.43 46.6907 Z" fill="#000000" fill-rule="nonzero" fill-opacity="1" /><path clip-path="url(#clip590)" d="M1363.64 34.0924 L1363.64 9.54393 L1371.09 9.54393 L1371.09 72.576 L1363.64 72.576 L1363.64 65.7705 Q1361.29 69.8214 1357.68 71.8063 Q1354.12 73.7508 1349.1 73.7508 Q1340.87 73.7508 1335.69 67.1883 Q1330.54 60.6258 1330.54 49.9314 Q1330.54 39.2371 1335.69 32.6746 Q1340.87 26.1121 1349.1 26.1121 Q1354.12 26.1121 1357.68 28.0971 Q1361.29 30.0415 1363.64 34.0924 M1338.24 49.9314 Q1338.24 58.1548 1341.6 62.8538 Q1345 67.5124 1350.92 67.5124 Q1356.83 67.5124 1360.24 62.8538 Q1363.64 58.1548 1363.64 49.9314 Q1363.64 41.7081 1360.24 37.0496 Q1356.83 32.3505 1350.92 32.3505 Q1345 32.3505 1341.6 37.0496 Q1338.24 41.7081 1338.24 49.9314 Z" fill="#000000" fill-rule="nonzero" fill-opacity="1" /><polyline clip-path="url(#clip592)" style="stroke:#009af9; stroke-linecap:round; stroke-linejoin:round; stroke-width:4; stroke-opacity:1; fill:none" points="244.98,1384.94 472.851,1384.98 700.721,1385 928.592,1385.13 1156.46,1385.08 1384.33,1385.04 1612.2,1385.02 "/>
<polyline clip-path="url(#clip592)" style="stroke:#e26f46; stroke-linecap:round; stroke-linejoin:round; stroke-width:4; stroke-opacity:1; fill:none" points="244.98,1383.44 472.851,1383.27 700.721,1382.87 928.592,1382.67 1156.46,1382.15 1384.33,1381.28 1612.2,1380.29 "/>
<polyline clip-path="url(#clip592)" style="stroke:#3da44d; stroke-linecap:round; stroke-linejoin:round; stroke-width:4; stroke-opacity:1; fill:none" points="244.98,1386.4 472.851,1386.39 700.721,1386.34 928.592,1386.2 1156.46,1386.16 1384.33,1386.22 1612.2,1386.35 "/>
<polyline clip-path="url(#clip592)" style="stroke:#c271d2; stroke-linecap:round; stroke-linejoin:round; stroke-width:4; stroke-opacity:1; fill:none" points="244.98,616.399 472.851,237.787 700.721,706.681 928.592,494.716 1156.46,513.745 1384.33,160.256 1612.2,664.186 "/>
<path clip-path="url(#clip590)" d="M1724.85 425.996 L2352.76 425.996 L2352.76 166.796 L1724.85 166.796  Z" fill="#ffffff" fill-rule="evenodd" fill-opacity="1"/>
<polyline clip-path="url(#clip590)" style="stroke:#000000; stroke-linecap:round; stroke-linejoin:round; stroke-width:4; stroke-opacity:1; fill:none" points="1724.85,425.996 2352.76,425.996 2352.76,166.796 1724.85,166.796 1724.85,425.996 "/>
<polyline clip-path="url(#clip590)" style="stroke:#009af9; stroke-linecap:round; stroke-linejoin:round; stroke-width:4; stroke-opacity:1; fill:none" points="1748.72,218.636 1891.97,218.636 "/>
<path clip-path="url(#clip590)" d="M1915.85 201.356 L1920.53 201.356 L1920.53 231.981 L1937.35 231.981 L1937.35 235.916 L1915.85 235.916 L1915.85 201.356 Z" fill="#000000" fill-rule="nonzero" fill-opacity="1" /><path clip-path="url(#clip590)" d="M1953.86 222.883 Q1948.7 222.883 1946.71 224.064 Q1944.72 225.244 1944.72 228.092 Q1944.72 230.36 1946.2 231.703 Q1947.7 233.022 1950.27 233.022 Q1953.81 233.022 1955.94 230.522 Q1958.1 227.999 1958.1 223.832 L1958.1 222.883 L1953.86 222.883 M1962.35 221.124 L1962.35 235.916 L1958.1 235.916 L1958.1 231.981 Q1956.64 234.342 1954.46 235.476 Q1952.29 236.587 1949.14 236.587 Q1945.16 236.587 1942.79 234.365 Q1940.46 232.119 1940.46 228.369 Q1940.46 223.994 1943.37 221.772 Q1946.31 219.55 1952.12 219.55 L1958.1 219.55 L1958.1 219.133 Q1958.1 216.194 1956.15 214.596 Q1954.23 212.976 1950.73 212.976 Q1948.51 212.976 1946.41 213.508 Q1944.3 214.041 1942.35 215.106 L1942.35 211.17 Q1944.69 210.268 1946.89 209.828 Q1949.09 209.365 1951.17 209.365 Q1956.8 209.365 1959.58 212.282 Q1962.35 215.198 1962.35 221.124 Z" fill="#000000" fill-rule="nonzero" fill-opacity="1" /><path clip-path="url(#clip590)" d="M1987.66 210.754 L1987.66 214.782 Q1985.85 213.856 1983.91 213.393 Q1981.96 212.93 1979.88 212.93 Q1976.71 212.93 1975.11 213.902 Q1973.54 214.874 1973.54 216.819 Q1973.54 218.3 1974.67 219.157 Q1975.8 219.99 1979.23 220.754 L1980.69 221.078 Q1985.22 222.05 1987.12 223.832 Q1989.04 225.592 1989.04 228.763 Q1989.04 232.374 1986.17 234.481 Q1983.33 236.587 1978.33 236.587 Q1976.24 236.587 1973.97 236.17 Q1971.73 235.777 1969.23 234.967 L1969.23 230.569 Q1971.59 231.795 1973.88 232.42 Q1976.17 233.022 1978.42 233.022 Q1981.43 233.022 1983.05 232.004 Q1984.67 230.962 1984.67 229.087 Q1984.67 227.351 1983.49 226.425 Q1982.33 225.499 1978.37 224.643 L1976.89 224.295 Q1972.93 223.462 1971.17 221.749 Q1969.41 220.013 1969.41 217.004 Q1969.41 213.346 1972.01 211.356 Q1974.6 209.365 1979.37 209.365 Q1981.73 209.365 1983.81 209.712 Q1985.9 210.059 1987.66 210.754 Z" fill="#000000" fill-rule="nonzero" fill-opacity="1" /><path clip-path="url(#clip590)" d="M2000.04 202.629 L2000.04 209.99 L2008.81 209.99 L2008.81 213.3 L2000.04 213.3 L2000.04 227.374 Q2000.04 230.545 2000.9 231.448 Q2001.78 232.351 2004.44 232.351 L2008.81 232.351 L2008.81 235.916 L2004.44 235.916 Q1999.51 235.916 1997.63 234.087 Q1995.76 232.235 1995.76 227.374 L1995.76 213.3 L1992.63 213.3 L1992.63 209.99 L1995.76 209.99 L1995.76 202.629 L2000.04 202.629 Z" fill="#000000" fill-rule="nonzero" fill-opacity="1" /><path clip-path="url(#clip590)" d="M2026.43 209.99 L2030.94 209.99 L2039.04 231.749 L2047.15 209.99 L2051.66 209.99 L2041.94 235.916 L2036.15 235.916 L2026.43 209.99 Z" fill="#000000" fill-rule="nonzero" fill-opacity="1" /><path clip-path="url(#clip590)" d="M2069.32 222.883 Q2064.16 222.883 2062.17 224.064 Q2060.18 225.244 2060.18 228.092 Q2060.18 230.36 2061.66 231.703 Q2063.16 233.022 2065.73 233.022 Q2069.28 233.022 2071.4 230.522 Q2073.56 227.999 2073.56 223.832 L2073.56 222.883 L2069.32 222.883 M2077.82 221.124 L2077.82 235.916 L2073.56 235.916 L2073.56 231.981 Q2072.1 234.342 2069.92 235.476 Q2067.75 236.587 2064.6 236.587 Q2060.62 236.587 2058.26 234.365 Q2055.92 232.119 2055.92 228.369 Q2055.92 223.994 2058.84 221.772 Q2061.78 219.55 2067.59 219.55 L2073.56 219.55 L2073.56 219.133 Q2073.56 216.194 2071.61 214.596 Q2069.69 212.976 2066.2 212.976 Q2063.97 212.976 2061.87 213.508 Q2059.76 214.041 2057.82 215.106 L2057.82 211.17 Q2060.16 210.268 2062.35 209.828 Q2064.55 209.365 2066.64 209.365 Q2072.26 209.365 2075.04 212.282 Q2077.82 215.198 2077.82 221.124 Z" fill="#000000" fill-rule="nonzero" fill-opacity="1" /><path clip-path="url(#clip590)" d="M2086.59 199.897 L2090.85 199.897 L2090.85 235.916 L2086.59 235.916 L2086.59 199.897 Z" fill="#000000" fill-rule="nonzero" fill-opacity="1" /><path clip-path="url(#clip590)" d="M2099.32 225.684 L2099.32 209.99 L2103.58 209.99 L2103.58 225.522 Q2103.58 229.203 2105.02 231.055 Q2106.45 232.883 2109.32 232.883 Q2112.77 232.883 2114.76 230.684 Q2116.78 228.485 2116.78 224.689 L2116.78 209.99 L2121.03 209.99 L2121.03 235.916 L2116.78 235.916 L2116.78 231.934 Q2115.22 234.295 2113.16 235.453 Q2111.13 236.587 2108.42 236.587 Q2103.95 236.587 2101.64 233.809 Q2099.32 231.031 2099.32 225.684 M2110.04 209.365 L2110.04 209.365 Z" fill="#000000" fill-rule="nonzero" fill-opacity="1" /><path clip-path="url(#clip590)" d="M2151.98 221.888 L2151.98 223.971 L2132.4 223.971 Q2132.68 228.369 2135.04 230.684 Q2137.42 232.976 2141.66 232.976 Q2144.11 232.976 2146.4 232.374 Q2148.72 231.772 2150.99 230.569 L2150.99 234.596 Q2148.7 235.568 2146.29 236.078 Q2143.88 236.587 2141.4 236.587 Q2135.2 236.587 2131.57 232.976 Q2127.96 229.365 2127.96 223.207 Q2127.96 216.842 2131.38 213.115 Q2134.83 209.365 2140.66 209.365 Q2145.9 209.365 2148.93 212.745 Q2151.98 216.101 2151.98 221.888 M2147.72 220.638 Q2147.68 217.143 2145.76 215.059 Q2143.86 212.976 2140.71 212.976 Q2137.15 212.976 2134.99 214.99 Q2132.86 217.004 2132.54 220.661 L2147.72 220.638 Z" fill="#000000" fill-rule="nonzero" fill-opacity="1" /><polyline clip-path="url(#clip590)" style="stroke:#e26f46; stroke-linecap:round; stroke-linejoin:round; stroke-width:4; stroke-opacity:1; fill:none" points="1748.72,270.476 1891.97,270.476 "/>
<path clip-path="url(#clip590)" d="M1915.85 253.196 L1920.53 253.196 L1920.53 283.821 L1937.35 283.821 L1937.35 287.756 L1915.85 287.756 L1915.85 253.196 Z" fill="#000000" fill-rule="nonzero" fill-opacity="1" /><path clip-path="url(#clip590)" d="M1942.08 261.83 L1946.34 261.83 L1946.34 287.756 L1942.08 287.756 L1942.08 261.83 M1942.08 251.737 L1946.34 251.737 L1946.34 257.131 L1942.08 257.131 L1942.08 251.737 Z" fill="#000000" fill-rule="nonzero" fill-opacity="1" /><path clip-path="url(#clip590)" d="M1976.8 272.108 L1976.8 287.756 L1972.54 287.756 L1972.54 272.247 Q1972.54 268.566 1971.1 266.737 Q1969.67 264.909 1966.8 264.909 Q1963.35 264.909 1961.36 267.108 Q1959.37 269.307 1959.37 273.103 L1959.37 287.756 L1955.09 287.756 L1955.09 261.83 L1959.37 261.83 L1959.37 265.858 Q1960.9 263.52 1962.96 262.362 Q1965.04 261.205 1967.75 261.205 Q1972.22 261.205 1974.51 263.983 Q1976.8 266.737 1976.8 272.108 Z" fill="#000000" fill-rule="nonzero" fill-opacity="1" /><path clip-path="url(#clip590)" d="M2007.47 273.728 L2007.47 275.811 L1987.89 275.811 Q1988.16 280.209 1990.53 282.524 Q1992.91 284.816 1997.15 284.816 Q1999.6 284.816 2001.89 284.214 Q2004.21 283.612 2006.47 282.409 L2006.47 286.436 Q2004.18 287.408 2001.78 287.918 Q1999.37 288.427 1996.89 288.427 Q1990.69 288.427 1987.05 284.816 Q1983.44 281.205 1983.44 275.047 Q1983.44 268.682 1986.87 264.955 Q1990.32 261.205 1996.15 261.205 Q2001.38 261.205 2004.41 264.585 Q2007.47 267.941 2007.47 273.728 M2003.21 272.478 Q2003.16 268.983 2001.24 266.899 Q1999.35 264.816 1996.2 264.816 Q1992.63 264.816 1990.48 266.83 Q1988.35 268.844 1988.03 272.501 L2003.21 272.478 Z" fill="#000000" fill-rule="nonzero" fill-opacity="1" /><path clip-path="url(#clip590)" d="M2026.24 274.723 Q2021.08 274.723 2019.09 275.904 Q2017.1 277.084 2017.1 279.932 Q2017.1 282.2 2018.58 283.543 Q2020.09 284.862 2022.66 284.862 Q2026.2 284.862 2028.33 282.362 Q2030.48 279.839 2030.48 275.672 L2030.48 274.723 L2026.24 274.723 M2034.74 272.964 L2034.74 287.756 L2030.48 287.756 L2030.48 283.821 Q2029.02 286.182 2026.85 287.316 Q2024.67 288.427 2021.52 288.427 Q2017.54 288.427 2015.18 286.205 Q2012.84 283.959 2012.84 280.209 Q2012.84 275.834 2015.76 273.612 Q2018.7 271.39 2024.51 271.39 L2030.48 271.39 L2030.48 270.973 Q2030.48 268.034 2028.53 266.436 Q2026.61 264.816 2023.12 264.816 Q2020.9 264.816 2018.79 265.348 Q2016.68 265.881 2014.74 266.946 L2014.74 263.01 Q2017.08 262.108 2019.28 261.668 Q2021.47 261.205 2023.56 261.205 Q2029.18 261.205 2031.96 264.122 Q2034.74 267.038 2034.74 272.964 Z" fill="#000000" fill-rule="nonzero" fill-opacity="1" /><path clip-path="url(#clip590)" d="M2058.53 265.811 Q2057.82 265.395 2056.96 265.21 Q2056.13 265.001 2055.11 265.001 Q2051.5 265.001 2049.55 267.362 Q2047.63 269.7 2047.63 274.098 L2047.63 287.756 L2043.35 287.756 L2043.35 261.83 L2047.63 261.83 L2047.63 265.858 Q2048.97 263.497 2051.13 262.362 Q2053.28 261.205 2056.36 261.205 Q2056.8 261.205 2057.33 261.274 Q2057.86 261.321 2058.51 261.436 L2058.53 265.811 Z" fill="#000000" fill-rule="nonzero" fill-opacity="1" /><path clip-path="url(#clip590)" d="M2094.65 271.552 Q2096.15 272.061 2097.56 273.728 Q2099 275.395 2100.43 278.311 L2105.18 287.756 L2100.15 287.756 L2095.73 278.89 Q2094.02 275.418 2092.4 274.284 Q2090.8 273.149 2088.03 273.149 L2082.93 273.149 L2082.93 287.756 L2078.26 287.756 L2078.26 253.196 L2088.81 253.196 Q2094.74 253.196 2097.65 255.673 Q2100.57 258.149 2100.57 263.149 Q2100.57 266.413 2099.04 268.566 Q2097.54 270.719 2094.65 271.552 M2082.93 257.038 L2082.93 269.307 L2088.81 269.307 Q2092.19 269.307 2093.9 267.756 Q2095.64 266.182 2095.64 263.149 Q2095.64 260.117 2093.9 258.589 Q2092.19 257.038 2088.81 257.038 L2082.93 257.038 Z" fill="#000000" fill-rule="nonzero" fill-opacity="1" /><path clip-path="url(#clip590)" d="M2131.06 273.728 L2131.06 275.811 L2111.47 275.811 Q2111.75 280.209 2114.11 282.524 Q2116.5 284.816 2120.73 284.816 Q2123.19 284.816 2125.48 284.214 Q2127.79 283.612 2130.06 282.409 L2130.06 286.436 Q2127.77 287.408 2125.36 287.918 Q2122.96 288.427 2120.48 288.427 Q2114.28 288.427 2110.64 284.816 Q2107.03 281.205 2107.03 275.047 Q2107.03 268.682 2110.46 264.955 Q2113.9 261.205 2119.74 261.205 Q2124.97 261.205 2128 264.585 Q2131.06 267.941 2131.06 273.728 M2126.8 272.478 Q2126.75 268.983 2124.83 266.899 Q2122.93 264.816 2119.78 264.816 Q2116.22 264.816 2114.07 266.83 Q2111.94 268.844 2111.61 272.501 L2126.8 272.478 Z" fill="#000000" fill-rule="nonzero" fill-opacity="1" /><path clip-path="url(#clip590)" d="M2155.11 274.492 Q2155.11 269.862 2153.19 267.316 Q2151.29 264.77 2147.84 264.77 Q2144.41 264.77 2142.49 267.316 Q2140.59 269.862 2140.59 274.492 Q2140.59 279.098 2142.49 281.645 Q2144.41 284.191 2147.84 284.191 Q2151.29 284.191 2153.19 281.645 Q2155.11 279.098 2155.11 274.492 M2159.37 284.538 Q2159.37 291.158 2156.43 294.376 Q2153.49 297.617 2147.42 297.617 Q2145.18 297.617 2143.19 297.27 Q2141.2 296.945 2139.32 296.251 L2139.32 292.108 Q2141.2 293.126 2143.02 293.612 Q2144.85 294.098 2146.75 294.098 Q2150.94 294.098 2153.02 291.899 Q2155.11 289.723 2155.11 285.302 L2155.11 283.196 Q2153.79 285.487 2151.73 286.621 Q2149.67 287.756 2146.8 287.756 Q2142.03 287.756 2139.11 284.121 Q2136.2 280.487 2136.2 274.492 Q2136.2 268.473 2139.11 264.839 Q2142.03 261.205 2146.8 261.205 Q2149.67 261.205 2151.73 262.339 Q2153.79 263.473 2155.11 265.765 L2155.11 261.83 L2159.37 261.83 L2159.37 284.538 Z" fill="#000000" fill-rule="nonzero" fill-opacity="1" /><path clip-path="url(#clip590)" d="M2183.16 265.811 Q2182.45 265.395 2181.59 265.21 Q2180.76 265.001 2179.74 265.001 Q2176.13 265.001 2174.18 267.362 Q2172.26 269.7 2172.26 274.098 L2172.26 287.756 L2167.98 287.756 L2167.98 261.83 L2172.26 261.83 L2172.26 265.858 Q2173.6 263.497 2175.76 262.362 Q2177.91 261.205 2180.99 261.205 Q2181.43 261.205 2181.96 261.274 Q2182.49 261.321 2183.14 261.436 L2183.16 265.811 Z" fill="#000000" fill-rule="nonzero" fill-opacity="1" /><path clip-path="url(#clip590)" d="M2208.77 273.728 L2208.77 275.811 L2189.18 275.811 Q2189.46 280.209 2191.82 282.524 Q2194.21 284.816 2198.44 284.816 Q2200.9 284.816 2203.19 284.214 Q2205.5 283.612 2207.77 282.409 L2207.77 286.436 Q2205.48 287.408 2203.07 287.918 Q2200.66 288.427 2198.19 288.427 Q2191.98 288.427 2188.35 284.816 Q2184.74 281.205 2184.74 275.047 Q2184.74 268.682 2188.16 264.955 Q2191.61 261.205 2197.45 261.205 Q2202.68 261.205 2205.71 264.585 Q2208.77 267.941 2208.77 273.728 M2204.51 272.478 Q2204.46 268.983 2202.54 266.899 Q2200.64 264.816 2197.49 264.816 Q2193.93 264.816 2191.77 266.83 Q2189.65 268.844 2189.32 272.501 L2204.51 272.478 Z" fill="#000000" fill-rule="nonzero" fill-opacity="1" /><path clip-path="url(#clip590)" d="M2232.28 262.594 L2232.28 266.622 Q2230.48 265.696 2228.53 265.233 Q2226.59 264.77 2224.51 264.77 Q2221.33 264.77 2219.74 265.742 Q2218.16 266.714 2218.16 268.659 Q2218.16 270.14 2219.3 270.997 Q2220.43 271.83 2223.86 272.594 L2225.32 272.918 Q2229.85 273.89 2231.75 275.672 Q2233.67 277.432 2233.67 280.603 Q2233.67 284.214 2230.8 286.321 Q2227.96 288.427 2222.96 288.427 Q2220.87 288.427 2218.6 288.01 Q2216.36 287.617 2213.86 286.807 L2213.86 282.409 Q2216.22 283.635 2218.51 284.26 Q2220.8 284.862 2223.05 284.862 Q2226.06 284.862 2227.68 283.844 Q2229.3 282.802 2229.3 280.927 Q2229.3 279.191 2228.12 278.265 Q2226.96 277.339 2223 276.483 L2221.52 276.135 Q2217.56 275.302 2215.8 273.589 Q2214.04 271.853 2214.04 268.844 Q2214.04 265.186 2216.64 263.196 Q2219.23 261.205 2224 261.205 Q2226.36 261.205 2228.44 261.552 Q2230.52 261.899 2232.28 262.594 Z" fill="#000000" fill-rule="nonzero" fill-opacity="1" /><path clip-path="url(#clip590)" d="M2256.98 262.594 L2256.98 266.622 Q2255.18 265.696 2253.23 265.233 Q2251.29 264.77 2249.2 264.77 Q2246.03 264.77 2244.44 265.742 Q2242.86 266.714 2242.86 268.659 Q2242.86 270.14 2244 270.997 Q2245.13 271.83 2248.56 272.594 L2250.02 272.918 Q2254.55 273.89 2256.45 275.672 Q2258.37 277.432 2258.37 280.603 Q2258.37 284.214 2255.5 286.321 Q2252.65 288.427 2247.65 288.427 Q2245.57 288.427 2243.3 288.01 Q2241.06 287.617 2238.56 286.807 L2238.56 282.409 Q2240.92 283.635 2243.21 284.26 Q2245.5 284.862 2247.75 284.862 Q2250.76 284.862 2252.38 283.844 Q2254 282.802 2254 280.927 Q2254 279.191 2252.82 278.265 Q2251.66 277.339 2247.7 276.483 L2246.22 276.135 Q2242.26 275.302 2240.5 273.589 Q2238.74 271.853 2238.74 268.844 Q2238.74 265.186 2241.33 263.196 Q2243.93 261.205 2248.7 261.205 Q2251.06 261.205 2253.14 261.552 Q2255.22 261.899 2256.98 262.594 Z" fill="#000000" fill-rule="nonzero" fill-opacity="1" /><path clip-path="url(#clip590)" d="M2265.15 261.83 L2269.41 261.83 L2269.41 287.756 L2265.15 287.756 L2265.15 261.83 M2265.15 251.737 L2269.41 251.737 L2269.41 257.131 L2265.15 257.131 L2265.15 251.737 Z" fill="#000000" fill-rule="nonzero" fill-opacity="1" /><path clip-path="url(#clip590)" d="M2288.37 264.816 Q2284.95 264.816 2282.95 267.501 Q2280.96 270.163 2280.96 274.816 Q2280.96 279.469 2282.93 282.154 Q2284.92 284.816 2288.37 284.816 Q2291.77 284.816 2293.76 282.131 Q2295.76 279.446 2295.76 274.816 Q2295.76 270.21 2293.76 267.524 Q2291.77 264.816 2288.37 264.816 M2288.37 261.205 Q2293.93 261.205 2297.1 264.816 Q2300.27 268.427 2300.27 274.816 Q2300.27 281.182 2297.1 284.816 Q2293.93 288.427 2288.37 288.427 Q2282.79 288.427 2279.62 284.816 Q2276.47 281.182 2276.47 274.816 Q2276.47 268.427 2279.62 264.816 Q2282.79 261.205 2288.37 261.205 Z" fill="#000000" fill-rule="nonzero" fill-opacity="1" /><path clip-path="url(#clip590)" d="M2328.88 272.108 L2328.88 287.756 L2324.62 287.756 L2324.62 272.247 Q2324.62 268.566 2323.19 266.737 Q2321.75 264.909 2318.88 264.909 Q2315.43 264.909 2313.44 267.108 Q2311.45 269.307 2311.45 273.103 L2311.45 287.756 L2307.17 287.756 L2307.17 261.83 L2311.45 261.83 L2311.45 265.858 Q2312.98 263.52 2315.04 262.362 Q2317.12 261.205 2319.83 261.205 Q2324.3 261.205 2326.59 263.983 Q2328.88 266.737 2328.88 272.108 Z" fill="#000000" fill-rule="nonzero" fill-opacity="1" /><polyline clip-path="url(#clip590)" style="stroke:#3da44d; stroke-linecap:round; stroke-linejoin:round; stroke-width:4; stroke-opacity:1; fill:none" points="1748.72,322.316 1891.97,322.316 "/>
<path clip-path="url(#clip590)" d="M1915.85 305.036 L1920.53 305.036 L1920.53 319.202 L1937.52 319.202 L1937.52 305.036 L1942.19 305.036 L1942.19 339.596 L1937.52 339.596 L1937.52 323.137 L1920.53 323.137 L1920.53 339.596 L1915.85 339.596 L1915.85 305.036 Z" fill="#000000" fill-rule="nonzero" fill-opacity="1" /><path clip-path="url(#clip590)" d="M1951.5 305.036 L1958.47 305.036 L1967.29 328.554 L1976.15 305.036 L1983.12 305.036 L1983.12 339.596 L1978.56 339.596 L1978.56 309.249 L1969.65 332.952 L1964.95 332.952 L1956.04 309.249 L1956.04 339.596 L1951.5 339.596 L1951.5 305.036 Z" fill="#000000" fill-rule="nonzero" fill-opacity="1" /><path clip-path="url(#clip590)" d="M1992.4 305.036 L1999.37 305.036 L2008.19 328.554 L2017.05 305.036 L2024.02 305.036 L2024.02 339.596 L2019.46 339.596 L2019.46 309.249 L2010.55 332.952 L2005.85 332.952 L1996.94 309.249 L1996.94 339.596 L1992.4 339.596 L1992.4 305.036 Z" fill="#000000" fill-rule="nonzero" fill-opacity="1" /><polyline clip-path="url(#clip590)" style="stroke:#c271d2; stroke-linecap:round; stroke-linejoin:round; stroke-width:4; stroke-opacity:1; fill:none" points="1748.72,374.156 1891.97,374.156 "/>
<path clip-path="url(#clip590)" d="M1920.53 374.931 L1920.53 387.593 L1928.03 387.593 Q1931.8 387.593 1933.6 386.042 Q1935.43 384.468 1935.43 381.251 Q1935.43 378.01 1933.6 376.482 Q1931.8 374.931 1928.03 374.931 L1920.53 374.931 M1920.53 360.718 L1920.53 371.135 L1927.45 371.135 Q1930.87 371.135 1932.54 369.862 Q1934.23 368.565 1934.23 365.927 Q1934.23 363.311 1932.54 362.015 Q1930.87 360.718 1927.45 360.718 L1920.53 360.718 M1915.85 356.876 L1927.79 356.876 Q1933.14 356.876 1936.04 359.098 Q1938.93 361.32 1938.93 365.417 Q1938.93 368.589 1937.45 370.464 Q1935.97 372.339 1933.1 372.802 Q1936.54 373.542 1938.44 375.903 Q1940.36 378.241 1940.36 381.76 Q1940.36 386.389 1937.22 388.913 Q1934.07 391.436 1928.26 391.436 L1915.85 391.436 L1915.85 356.876 Z" fill="#000000" fill-rule="nonzero" fill-opacity="1" /><path clip-path="url(#clip590)" d="M1970.36 377.408 L1970.36 379.491 L1950.78 379.491 Q1951.06 383.889 1953.42 386.204 Q1955.8 388.496 1960.04 388.496 Q1962.49 388.496 1964.79 387.894 Q1967.1 387.292 1969.37 386.089 L1969.37 390.116 Q1967.08 391.088 1964.67 391.598 Q1962.26 392.107 1959.79 392.107 Q1953.58 392.107 1949.95 388.496 Q1946.34 384.885 1946.34 378.727 Q1946.34 372.362 1949.76 368.635 Q1953.21 364.885 1959.04 364.885 Q1964.28 364.885 1967.31 368.265 Q1970.36 371.621 1970.36 377.408 M1966.1 376.158 Q1966.06 372.663 1964.14 370.579 Q1962.24 368.496 1959.09 368.496 Q1955.53 368.496 1953.37 370.51 Q1951.24 372.524 1950.92 376.181 L1966.1 376.158 Z" fill="#000000" fill-rule="nonzero" fill-opacity="1" /><path clip-path="url(#clip590)" d="M1998.91 375.788 L1998.91 391.436 L1994.65 391.436 L1994.65 375.927 Q1994.65 372.246 1993.21 370.417 Q1991.78 368.589 1988.91 368.589 Q1985.46 368.589 1983.47 370.788 Q1981.47 372.987 1981.47 376.783 L1981.47 391.436 L1977.19 391.436 L1977.19 355.417 L1981.47 355.417 L1981.47 369.538 Q1983 367.2 1985.06 366.042 Q1987.15 364.885 1989.85 364.885 Q1994.32 364.885 1996.61 367.663 Q1998.91 370.417 1998.91 375.788 Z" fill="#000000" fill-rule="nonzero" fill-opacity="1" /><path clip-path="url(#clip590)" d="M2019.18 378.403 Q2014.02 378.403 2012.03 379.584 Q2010.04 380.764 2010.04 383.612 Q2010.04 385.88 2011.52 387.223 Q2013.03 388.542 2015.6 388.542 Q2019.14 388.542 2021.27 386.042 Q2023.42 383.519 2023.42 379.352 L2023.42 378.403 L2019.18 378.403 M2027.68 376.644 L2027.68 391.436 L2023.42 391.436 L2023.42 387.501 Q2021.96 389.862 2019.78 390.996 Q2017.61 392.107 2014.46 392.107 Q2010.48 392.107 2008.12 389.885 Q2005.78 387.639 2005.78 383.889 Q2005.78 379.514 2008.7 377.292 Q2011.64 375.07 2017.45 375.07 L2023.42 375.07 L2023.42 374.653 Q2023.42 371.714 2021.47 370.116 Q2019.55 368.496 2016.06 368.496 Q2013.84 368.496 2011.73 369.028 Q2009.62 369.561 2007.68 370.626 L2007.68 366.69 Q2010.02 365.788 2012.22 365.348 Q2014.41 364.885 2016.5 364.885 Q2022.12 364.885 2024.9 367.802 Q2027.68 370.718 2027.68 376.644 Z" fill="#000000" fill-rule="nonzero" fill-opacity="1" /><path clip-path="url(#clip590)" d="M2033.4 365.51 L2037.91 365.51 L2046.01 387.269 L2054.11 365.51 L2058.63 365.51 L2048.91 391.436 L2043.12 391.436 L2033.4 365.51 Z" fill="#000000" fill-rule="nonzero" fill-opacity="1" /><path clip-path="url(#clip590)" d="M2064.51 365.51 L2068.77 365.51 L2068.77 391.436 L2064.51 391.436 L2064.51 365.51 M2064.51 355.417 L2068.77 355.417 L2068.77 360.811 L2064.51 360.811 L2064.51 355.417 Z" fill="#000000" fill-rule="nonzero" fill-opacity="1" /><path clip-path="url(#clip590)" d="M2087.72 368.496 Q2084.3 368.496 2082.31 371.181 Q2080.32 373.843 2080.32 378.496 Q2080.32 383.149 2082.28 385.834 Q2084.28 388.496 2087.72 388.496 Q2091.13 388.496 2093.12 385.811 Q2095.11 383.126 2095.11 378.496 Q2095.11 373.89 2093.12 371.204 Q2091.13 368.496 2087.72 368.496 M2087.72 364.885 Q2093.28 364.885 2096.45 368.496 Q2099.62 372.107 2099.62 378.496 Q2099.62 384.862 2096.45 388.496 Q2093.28 392.107 2087.72 392.107 Q2082.15 392.107 2078.97 388.496 Q2075.83 384.862 2075.83 378.496 Q2075.83 372.107 2078.97 368.496 Q2082.15 364.885 2087.72 364.885 Z" fill="#000000" fill-rule="nonzero" fill-opacity="1" /><path clip-path="url(#clip590)" d="M2106.24 381.204 L2106.24 365.51 L2110.5 365.51 L2110.5 381.042 Q2110.5 384.723 2111.94 386.575 Q2113.37 388.403 2116.24 388.403 Q2119.69 388.403 2121.68 386.204 Q2123.7 384.005 2123.7 380.209 L2123.7 365.51 L2127.96 365.51 L2127.96 391.436 L2123.7 391.436 L2123.7 387.454 Q2122.15 389.815 2120.09 390.973 Q2118.05 392.107 2115.34 392.107 Q2110.87 392.107 2108.56 389.329 Q2106.24 386.551 2106.24 381.204 M2116.96 364.885 L2116.96 364.885 Z" fill="#000000" fill-rule="nonzero" fill-opacity="1" /><path clip-path="url(#clip590)" d="M2151.75 369.491 Q2151.03 369.075 2150.18 368.89 Q2149.34 368.681 2148.33 368.681 Q2144.71 368.681 2142.77 371.042 Q2140.85 373.38 2140.85 377.778 L2140.85 391.436 L2136.57 391.436 L2136.57 365.51 L2140.85 365.51 L2140.85 369.538 Q2142.19 367.177 2144.34 366.042 Q2146.5 364.885 2149.58 364.885 Q2150.02 364.885 2150.55 364.954 Q2151.08 365.001 2151.73 365.116 L2151.75 369.491 Z" fill="#000000" fill-rule="nonzero" fill-opacity="1" /><path clip-path="url(#clip590)" d="M2168 378.403 Q2162.84 378.403 2160.85 379.584 Q2158.86 380.764 2158.86 383.612 Q2158.86 385.88 2160.34 387.223 Q2161.84 388.542 2164.41 388.542 Q2167.96 388.542 2170.08 386.042 Q2172.24 383.519 2172.24 379.352 L2172.24 378.403 L2168 378.403 M2176.5 376.644 L2176.5 391.436 L2172.24 391.436 L2172.24 387.501 Q2170.78 389.862 2168.6 390.996 Q2166.43 392.107 2163.28 392.107 Q2159.3 392.107 2156.94 389.885 Q2154.6 387.639 2154.6 383.889 Q2154.6 379.514 2157.52 377.292 Q2160.46 375.07 2166.27 375.07 L2172.24 375.07 L2172.24 374.653 Q2172.24 371.714 2170.29 370.116 Q2168.37 368.496 2164.88 368.496 Q2162.65 368.496 2160.55 369.028 Q2158.44 369.561 2156.5 370.626 L2156.5 366.69 Q2158.84 365.788 2161.03 365.348 Q2163.23 364.885 2165.32 364.885 Q2170.94 364.885 2173.72 367.802 Q2176.5 370.718 2176.5 376.644 Z" fill="#000000" fill-rule="nonzero" fill-opacity="1" /><path clip-path="url(#clip590)" d="M2185.27 355.417 L2189.53 355.417 L2189.53 391.436 L2185.27 391.436 L2185.27 355.417 Z" fill="#000000" fill-rule="nonzero" fill-opacity="1" /></svg>
