<?xml version="1.0" encoding="utf-8"?>
<svg xmlns="http://www.w3.org/2000/svg" xmlns:xlink="http://www.w3.org/1999/xlink" width="600" height="400" viewBox="0 0 2400 1600">
<defs>
  <clipPath id="clip350">
    <rect x="0" y="0" width="2400" height="1600"/>
  </clipPath>
</defs>
<path clip-path="url(#clip350)" d="M0 1600 L2400 1600 L2400 0 L0 0  Z" fill="#ffffff" fill-rule="evenodd" fill-opacity="1"/>
<defs>
  <clipPath id="clip351">
    <rect x="480" y="0" width="1681" height="1600"/>
  </clipPath>
</defs>
<path clip-path="url(#clip350)" d="M247.459 1423.18 L2352.76 1423.18 L2352.76 123.472 L247.459 123.472  Z" fill="#ffffff" fill-rule="evenodd" fill-opacity="1"/>
<defs>
  <clipPath id="clip352">
    <rect x="247" y="123" width="2106" height="1301"/>
  </clipPath>
</defs>
<polyline clip-path="url(#clip352)" style="stroke:#000000; stroke-linecap:round; stroke-linejoin:round; stroke-width:2; stroke-opacity:0.1; fill:none" points="519.842,1423.18 519.842,123.472 "/>
<polyline clip-path="url(#clip352)" style="stroke:#000000; stroke-linecap:round; stroke-linejoin:round; stroke-width:2; stroke-opacity:0.1; fill:none" points="874.508,1423.18 874.508,123.472 "/>
<polyline clip-path="url(#clip352)" style="stroke:#000000; stroke-linecap:round; stroke-linejoin:round; stroke-width:2; stroke-opacity:0.1; fill:none" points="1229.17,1423.18 1229.17,123.472 "/>
<polyline clip-path="url(#clip352)" style="stroke:#000000; stroke-linecap:round; stroke-linejoin:round; stroke-width:2; stroke-opacity:0.1; fill:none" points="1583.84,1423.18 1583.84,123.472 "/>
<polyline clip-path="url(#clip352)" style="stroke:#000000; stroke-linecap:round; stroke-linejoin:round; stroke-width:2; stroke-opacity:0.1; fill:none" points="1938.51,1423.18 1938.51,123.472 "/>
<polyline clip-path="url(#clip352)" style="stroke:#000000; stroke-linecap:round; stroke-linejoin:round; stroke-width:2; stroke-opacity:0.1; fill:none" points="2293.17,1423.18 2293.17,123.472 "/>
<polyline clip-path="url(#clip350)" style="stroke:#000000; stroke-linecap:round; stroke-linejoin:round; stroke-width:4; stroke-opacity:1; fill:none" points="247.459,1423.18 2352.76,1423.18 "/>
<polyline clip-path="url(#clip350)" style="stroke:#000000; stroke-linecap:round; stroke-linejoin:round; stroke-width:4; stroke-opacity:1; fill:none" points="519.842,1423.18 519.842,1404.28 "/>
<polyline clip-path="url(#clip350)" style="stroke:#000000; stroke-linecap:round; stroke-linejoin:round; stroke-width:4; stroke-opacity:1; fill:none" points="874.508,1423.18 874.508,1404.28 "/>
<polyline clip-path="url(#clip350)" style="stroke:#000000; stroke-linecap:round; stroke-linejoin:round; stroke-width:4; stroke-opacity:1; fill:none" points="1229.17,1423.18 1229.17,1404.28 "/>
<polyline clip-path="url(#clip350)" style="stroke:#000000; stroke-linecap:round; stroke-linejoin:round; stroke-width:4; stroke-opacity:1; fill:none" points="1583.84,1423.18 1583.84,1404.28 "/>
<polyline clip-path="url(#clip350)" style="stroke:#000000; stroke-linecap:round; stroke-linejoin:round; stroke-width:4; stroke-opacity:1; fill:none" points="1938.51,1423.18 1938.51,1404.28 "/>
<polyline clip-path="url(#clip350)" style="stroke:#000000; stroke-linecap:round; stroke-linejoin:round; stroke-width:4; stroke-opacity:1; fill:none" points="2293.17,1423.18 2293.17,1404.28 "/>
<path clip-path="url(#clip350)" d="M510.12 1451.02 L528.476 1451.02 L528.476 1454.96 L514.402 1454.96 L514.402 1463.43 Q515.421 1463.08 516.439 1462.92 Q517.458 1462.73 518.476 1462.73 Q524.263 1462.73 527.643 1465.9 Q531.023 1469.08 531.023 1474.49 Q531.023 1480.07 527.55 1483.17 Q524.078 1486.25 517.759 1486.25 Q515.583 1486.25 513.314 1485.88 Q511.069 1485.51 508.662 1484.77 L508.662 1480.07 Q510.745 1481.2 512.967 1481.76 Q515.189 1482.32 517.666 1482.32 Q521.671 1482.32 524.009 1480.21 Q526.347 1478.1 526.347 1474.49 Q526.347 1470.88 524.009 1468.77 Q521.671 1466.67 517.666 1466.67 Q515.791 1466.67 513.916 1467.08 Q512.064 1467.5 510.12 1468.38 L510.12 1451.02 Z" fill="#000000" fill-rule="nonzero" fill-opacity="1" /><path clip-path="url(#clip350)" d="M849.196 1481.64 L856.835 1481.64 L856.835 1455.28 L848.524 1456.95 L848.524 1452.69 L856.788 1451.02 L861.464 1451.02 L861.464 1481.64 L869.103 1481.64 L869.103 1485.58 L849.196 1485.58 L849.196 1481.64 Z" fill="#000000" fill-rule="nonzero" fill-opacity="1" /><path clip-path="url(#clip350)" d="M888.547 1454.1 Q884.936 1454.1 883.108 1457.66 Q881.302 1461.2 881.302 1468.33 Q881.302 1475.44 883.108 1479.01 Q884.936 1482.55 888.547 1482.55 Q892.182 1482.55 893.987 1479.01 Q895.816 1475.44 895.816 1468.33 Q895.816 1461.2 893.987 1457.66 Q892.182 1454.1 888.547 1454.1 M888.547 1450.39 Q894.358 1450.39 897.413 1455 Q900.492 1459.58 900.492 1468.33 Q900.492 1477.06 897.413 1481.67 Q894.358 1486.25 888.547 1486.25 Q882.737 1486.25 879.659 1481.67 Q876.603 1477.06 876.603 1468.33 Q876.603 1459.58 879.659 1455 Q882.737 1450.39 888.547 1450.39 Z" fill="#000000" fill-rule="nonzero" fill-opacity="1" /><path clip-path="url(#clip350)" d="M1204.36 1481.64 L1212 1481.64 L1212 1455.28 L1203.69 1456.95 L1203.69 1452.69 L1211.95 1451.02 L1216.63 1451.02 L1216.63 1481.64 L1224.27 1481.64 L1224.27 1485.58 L1204.36 1485.58 L1204.36 1481.64 Z" fill="#000000" fill-rule="nonzero" fill-opacity="1" /><path clip-path="url(#clip350)" d="M1233.76 1451.02 L1252.11 1451.02 L1252.11 1454.96 L1238.04 1454.96 L1238.04 1463.43 Q1239.06 1463.08 1240.08 1462.92 Q1241.1 1462.73 1242.11 1462.73 Q1247.9 1462.73 1251.28 1465.9 Q1254.66 1469.08 1254.66 1474.49 Q1254.66 1480.07 1251.19 1483.17 Q1247.72 1486.25 1241.4 1486.25 Q1239.22 1486.25 1236.95 1485.88 Q1234.71 1485.51 1232.3 1484.77 L1232.3 1480.07 Q1234.38 1481.2 1236.6 1481.76 Q1238.83 1482.32 1241.3 1482.32 Q1245.31 1482.32 1247.65 1480.21 Q1249.98 1478.1 1249.98 1474.49 Q1249.98 1470.88 1247.65 1468.77 Q1245.31 1466.67 1241.3 1466.67 Q1239.43 1466.67 1237.55 1467.08 Q1235.7 1467.5 1233.76 1468.38 L1233.76 1451.02 Z" fill="#000000" fill-rule="nonzero" fill-opacity="1" /><path clip-path="url(#clip350)" d="M1562.61 1481.64 L1578.93 1481.64 L1578.93 1485.58 L1556.99 1485.58 L1556.99 1481.64 Q1559.65 1478.89 1564.23 1474.26 Q1568.84 1469.61 1570.02 1468.27 Q1572.27 1465.74 1573.15 1464.01 Q1574.05 1462.25 1574.05 1460.56 Q1574.05 1457.8 1572.1 1456.07 Q1570.18 1454.33 1567.08 1454.33 Q1564.88 1454.33 1562.43 1455.09 Q1560 1455.86 1557.22 1457.41 L1557.22 1452.69 Q1560.04 1451.55 1562.5 1450.97 Q1564.95 1450.39 1566.99 1450.39 Q1572.36 1450.39 1575.55 1453.08 Q1578.75 1455.77 1578.75 1460.26 Q1578.75 1462.39 1577.94 1464.31 Q1577.15 1466.2 1575.04 1468.8 Q1574.47 1469.47 1571.36 1472.69 Q1568.26 1475.88 1562.61 1481.64 Z" fill="#000000" fill-rule="nonzero" fill-opacity="1" /><path clip-path="url(#clip350)" d="M1598.75 1454.1 Q1595.14 1454.1 1593.31 1457.66 Q1591.5 1461.2 1591.5 1468.33 Q1591.5 1475.44 1593.31 1479.01 Q1595.14 1482.55 1598.75 1482.55 Q1602.38 1482.55 1604.19 1479.01 Q1606.02 1475.44 1606.02 1468.33 Q1606.02 1461.2 1604.19 1457.66 Q1602.38 1454.1 1598.75 1454.1 M1598.75 1450.39 Q1604.56 1450.39 1607.61 1455 Q1610.69 1459.58 1610.69 1468.33 Q1610.69 1477.06 1607.61 1481.67 Q1604.56 1486.25 1598.75 1486.25 Q1592.94 1486.25 1589.86 1481.67 Q1586.8 1477.06 1586.8 1468.33 Q1586.8 1459.58 1589.86 1455 Q1592.94 1450.39 1598.75 1450.39 Z" fill="#000000" fill-rule="nonzero" fill-opacity="1" /><path clip-path="url(#clip350)" d="M1917.78 1481.64 L1934.1 1481.64 L1934.1 1485.58 L1912.15 1485.58 L1912.15 1481.64 Q1914.81 1478.89 1919.4 1474.26 Q1924 1469.61 1925.18 1468.27 Q1927.43 1465.74 1928.31 1464.01 Q1929.21 1462.25 1929.21 1460.56 Q1929.21 1457.8 1927.27 1456.07 Q1925.35 1454.33 1922.24 1454.33 Q1920.05 1454.33 1917.59 1455.09 Q1915.16 1455.86 1912.38 1457.41 L1912.38 1452.69 Q1915.21 1451.55 1917.66 1450.97 Q1920.11 1450.39 1922.15 1450.39 Q1927.52 1450.39 1930.72 1453.08 Q1933.91 1455.77 1933.91 1460.26 Q1933.91 1462.39 1933.1 1464.31 Q1932.31 1466.2 1930.21 1468.8 Q1929.63 1469.47 1926.53 1472.69 Q1923.43 1475.88 1917.78 1481.64 Z" fill="#000000" fill-rule="nonzero" fill-opacity="1" /><path clip-path="url(#clip350)" d="M1943.96 1451.02 L1962.31 1451.02 L1962.31 1454.96 L1948.24 1454.96 L1948.24 1463.43 Q1949.26 1463.08 1950.28 1462.92 Q1951.3 1462.73 1952.31 1462.73 Q1958.1 1462.73 1961.48 1465.9 Q1964.86 1469.08 1964.86 1474.49 Q1964.86 1480.07 1961.39 1483.17 Q1957.92 1486.25 1951.6 1486.25 Q1949.42 1486.25 1947.15 1485.88 Q1944.91 1485.51 1942.5 1484.77 L1942.5 1480.07 Q1944.58 1481.2 1946.8 1481.76 Q1949.03 1482.32 1951.5 1482.32 Q1955.51 1482.32 1957.85 1480.21 Q1960.18 1478.1 1960.18 1474.49 Q1960.18 1470.88 1957.85 1468.77 Q1955.51 1466.67 1951.5 1466.67 Q1949.63 1466.67 1947.75 1467.08 Q1945.9 1467.5 1943.96 1468.38 L1943.96 1451.02 Z" fill="#000000" fill-rule="nonzero" fill-opacity="1" /><path clip-path="url(#clip350)" d="M2282.01 1466.95 Q2285.37 1467.66 2287.25 1469.93 Q2289.14 1472.2 2289.14 1475.53 Q2289.14 1480.65 2285.63 1483.45 Q2282.11 1486.25 2275.63 1486.25 Q2273.45 1486.25 2271.14 1485.81 Q2268.84 1485.39 2266.39 1484.54 L2266.39 1480.02 Q2268.33 1481.16 2270.65 1481.74 Q2272.96 1482.32 2275.49 1482.32 Q2279.89 1482.32 2282.18 1480.58 Q2284.49 1478.84 2284.49 1475.53 Q2284.49 1472.48 2282.34 1470.77 Q2280.21 1469.03 2276.39 1469.03 L2272.36 1469.03 L2272.36 1465.19 L2276.57 1465.19 Q2280.02 1465.19 2281.85 1463.82 Q2283.68 1462.43 2283.68 1459.84 Q2283.68 1457.18 2281.78 1455.77 Q2279.91 1454.33 2276.39 1454.33 Q2274.47 1454.33 2272.27 1454.75 Q2270.07 1455.16 2267.43 1456.04 L2267.43 1451.88 Q2270.09 1451.14 2272.41 1450.77 Q2274.75 1450.39 2276.81 1450.39 Q2282.13 1450.39 2285.23 1452.83 Q2288.33 1455.23 2288.33 1459.35 Q2288.33 1462.22 2286.69 1464.21 Q2285.05 1466.18 2282.01 1466.95 Z" fill="#000000" fill-rule="nonzero" fill-opacity="1" /><path clip-path="url(#clip350)" d="M2308.01 1454.1 Q2304.4 1454.1 2302.57 1457.66 Q2300.76 1461.2 2300.76 1468.33 Q2300.76 1475.44 2302.57 1479.01 Q2304.4 1482.55 2308.01 1482.55 Q2311.64 1482.55 2313.45 1479.01 Q2315.28 1475.44 2315.28 1468.33 Q2315.28 1461.2 2313.45 1457.66 Q2311.64 1454.1 2308.01 1454.1 M2308.01 1450.39 Q2313.82 1450.39 2316.88 1455 Q2319.95 1459.58 2319.95 1468.33 Q2319.95 1477.06 2316.88 1481.67 Q2313.82 1486.25 2308.01 1486.25 Q2302.2 1486.25 2299.12 1481.67 Q2296.07 1477.06 2296.07 1468.33 Q2296.07 1459.58 2299.12 1455 Q2302.2 1450.39 2308.01 1450.39 Z" fill="#000000" fill-rule="nonzero" fill-opacity="1" /><path clip-path="url(#clip350)" d="M1214.93 1546.53 L1214.93 1568.04 L1209.08 1568.04 L1209.08 1546.72 Q1209.08 1541.66 1207.1 1539.14 Q1205.13 1536.63 1201.18 1536.63 Q1196.44 1536.63 1193.7 1539.65 Q1190.97 1542.68 1190.97 1547.9 L1190.97 1568.04 L1185.08 1568.04 L1185.08 1518.52 L1190.97 1518.52 L1190.97 1537.93 Q1193.07 1534.72 1195.9 1533.13 Q1198.77 1531.54 1202.49 1531.54 Q1208.63 1531.54 1211.78 1535.36 Q1214.93 1539.14 1214.93 1546.53 Z" fill="#000000" fill-rule="nonzero" fill-opacity="1" /><path clip-path="url(#clip350)" d="M1240.43 1536.5 Q1235.72 1536.5 1232.98 1540.19 Q1230.24 1543.85 1230.24 1550.25 Q1230.24 1556.65 1232.95 1560.34 Q1235.69 1564 1240.43 1564 Q1245.11 1564 1247.84 1560.31 Q1250.58 1556.62 1250.58 1550.25 Q1250.58 1543.92 1247.84 1540.23 Q1245.11 1536.5 1240.43 1536.5 M1240.43 1531.54 Q1248.07 1531.54 1252.43 1536.5 Q1256.79 1541.47 1256.79 1550.25 Q1256.79 1559 1252.43 1564 Q1248.07 1568.97 1240.43 1568.97 Q1232.76 1568.97 1228.4 1564 Q1224.07 1559 1224.07 1550.25 Q1224.07 1541.47 1228.4 1536.5 Q1232.76 1531.54 1240.43 1531.54 Z" fill="#000000" fill-rule="nonzero" fill-opacity="1" /><path clip-path="url(#clip350)" d="M1287.15 1537.87 Q1286.17 1537.3 1284.99 1537.04 Q1283.84 1536.76 1282.44 1536.76 Q1277.48 1536.76 1274.8 1540 Q1272.16 1543.22 1272.16 1549.27 L1272.16 1568.04 L1266.27 1568.04 L1266.27 1532.4 L1272.16 1532.4 L1272.16 1537.93 Q1274.01 1534.69 1276.97 1533.13 Q1279.93 1531.54 1284.16 1531.54 Q1284.77 1531.54 1285.5 1531.63 Q1286.23 1531.7 1287.12 1531.85 L1287.15 1537.87 Z" fill="#000000" fill-rule="nonzero" fill-opacity="1" /><path clip-path="url(#clip350)" d="M1293.3 1532.4 L1299.15 1532.4 L1299.15 1568.04 L1293.3 1568.04 L1293.3 1532.4 M1293.3 1518.52 L1299.15 1518.52 L1299.15 1525.93 L1293.3 1525.93 L1293.3 1518.52 Z" fill="#000000" fill-rule="nonzero" fill-opacity="1" /><path clip-path="url(#clip350)" d="M1308.86 1532.4 L1336.68 1532.4 L1336.68 1537.74 L1314.65 1563.37 L1336.68 1563.37 L1336.68 1568.04 L1308.06 1568.04 L1308.06 1562.7 L1330.09 1537.07 L1308.86 1537.07 L1308.86 1532.4 Z" fill="#000000" fill-rule="nonzero" fill-opacity="1" /><path clip-path="url(#clip350)" d="M1359.44 1536.5 Q1354.73 1536.5 1351.99 1540.19 Q1349.25 1543.85 1349.25 1550.25 Q1349.25 1556.65 1351.96 1560.34 Q1354.69 1564 1359.44 1564 Q1364.11 1564 1366.85 1560.31 Q1369.59 1556.62 1369.59 1550.25 Q1369.59 1543.92 1366.85 1540.23 Q1364.11 1536.5 1359.44 1536.5 M1359.44 1531.54 Q1367.07 1531.54 1371.44 1536.5 Q1375.8 1541.47 1375.8 1550.25 Q1375.8 1559 1371.44 1564 Q1367.07 1568.97 1359.44 1568.97 Q1351.77 1568.97 1347.4 1564 Q1343.08 1559 1343.08 1550.25 Q1343.08 1541.47 1347.4 1536.5 Q1351.77 1531.54 1359.44 1531.54 Z" fill="#000000" fill-rule="nonzero" fill-opacity="1" /><path clip-path="url(#clip350)" d="M1415.14 1546.53 L1415.14 1568.04 L1409.28 1568.04 L1409.28 1546.72 Q1409.28 1541.66 1407.31 1539.14 Q1405.33 1536.63 1401.39 1536.63 Q1396.64 1536.63 1393.91 1539.65 Q1391.17 1542.68 1391.17 1547.9 L1391.17 1568.04 L1385.28 1568.04 L1385.28 1532.4 L1391.17 1532.4 L1391.17 1537.93 Q1393.27 1534.72 1396.1 1533.13 Q1398.97 1531.54 1402.69 1531.54 Q1408.83 1531.54 1411.98 1535.36 Q1415.14 1539.14 1415.14 1546.53 Z" fill="#000000" fill-rule="nonzero" fill-opacity="1" /><polyline clip-path="url(#clip352)" style="stroke:#000000; stroke-linecap:round; stroke-linejoin:round; stroke-width:2; stroke-opacity:0.1; fill:none" points="247.459,1296.45 2352.76,1296.45 "/>
<polyline clip-path="url(#clip352)" style="stroke:#000000; stroke-linecap:round; stroke-linejoin:round; stroke-width:2; stroke-opacity:0.1; fill:none" points="247.459,1073.06 2352.76,1073.06 "/>
<polyline clip-path="url(#clip352)" style="stroke:#000000; stroke-linecap:round; stroke-linejoin:round; stroke-width:2; stroke-opacity:0.1; fill:none" points="247.459,849.665 2352.76,849.665 "/>
<polyline clip-path="url(#clip352)" style="stroke:#000000; stroke-linecap:round; stroke-linejoin:round; stroke-width:2; stroke-opacity:0.1; fill:none" points="247.459,626.272 2352.76,626.272 "/>
<polyline clip-path="url(#clip352)" style="stroke:#000000; stroke-linecap:round; stroke-linejoin:round; stroke-width:2; stroke-opacity:0.1; fill:none" points="247.459,402.879 2352.76,402.879 "/>
<polyline clip-path="url(#clip352)" style="stroke:#000000; stroke-linecap:round; stroke-linejoin:round; stroke-width:2; stroke-opacity:0.1; fill:none" points="247.459,179.486 2352.76,179.486 "/>
<polyline clip-path="url(#clip350)" style="stroke:#000000; stroke-linecap:round; stroke-linejoin:round; stroke-width:4; stroke-opacity:1; fill:none" points="247.459,1423.18 247.459,123.472 "/>
<polyline clip-path="url(#clip350)" style="stroke:#000000; stroke-linecap:round; stroke-linejoin:round; stroke-width:4; stroke-opacity:1; fill:none" points="247.459,1296.45 266.356,1296.45 "/>
<polyline clip-path="url(#clip350)" style="stroke:#000000; stroke-linecap:round; stroke-linejoin:round; stroke-width:4; stroke-opacity:1; fill:none" points="247.459,1073.06 266.356,1073.06 "/>
<polyline clip-path="url(#clip350)" style="stroke:#000000; stroke-linecap:round; stroke-linejoin:round; stroke-width:4; stroke-opacity:1; fill:none" points="247.459,849.665 266.356,849.665 "/>
<polyline clip-path="url(#clip350)" style="stroke:#000000; stroke-linecap:round; stroke-linejoin:round; stroke-width:4; stroke-opacity:1; fill:none" points="247.459,626.272 266.356,626.272 "/>
<polyline clip-path="url(#clip350)" style="stroke:#000000; stroke-linecap:round; stroke-linejoin:round; stroke-width:4; stroke-opacity:1; fill:none" points="247.459,402.879 266.356,402.879 "/>
<polyline clip-path="url(#clip350)" style="stroke:#000000; stroke-linecap:round; stroke-linejoin:round; stroke-width:4; stroke-opacity:1; fill:none" points="247.459,179.486 266.356,179.486 "/>
<path clip-path="url(#clip350)" d="M114.931 1309.8 L122.57 1309.8 L122.57 1283.43 L114.26 1285.1 L114.26 1280.84 L122.524 1279.17 L127.2 1279.17 L127.2 1309.8 L134.839 1309.8 L134.839 1313.73 L114.931 1313.73 L114.931 1309.8 Z" fill="#000000" fill-rule="nonzero" fill-opacity="1" /><path clip-path="url(#clip350)" d="M144.283 1307.85 L149.167 1307.85 L149.167 1313.73 L144.283 1313.73 L144.283 1307.85 Z" fill="#000000" fill-rule="nonzero" fill-opacity="1" /><path clip-path="url(#clip350)" d="M160.163 1309.8 L167.802 1309.8 L167.802 1283.43 L159.491 1285.1 L159.491 1280.84 L167.755 1279.17 L172.431 1279.17 L172.431 1309.8 L180.07 1309.8 L180.07 1313.73 L160.163 1313.73 L160.163 1309.8 Z" fill="#000000" fill-rule="nonzero" fill-opacity="1" /><path clip-path="url(#clip350)" d="M199.514 1282.25 Q195.903 1282.25 194.075 1285.81 Q192.269 1289.36 192.269 1296.49 Q192.269 1303.59 194.075 1307.16 Q195.903 1310.7 199.514 1310.7 Q203.149 1310.7 204.954 1307.16 Q206.783 1303.59 206.783 1296.49 Q206.783 1289.36 204.954 1285.81 Q203.149 1282.25 199.514 1282.25 M199.514 1278.55 Q205.324 1278.55 208.38 1283.15 Q211.459 1287.74 211.459 1296.49 Q211.459 1305.21 208.38 1309.82 Q205.324 1314.4 199.514 1314.4 Q193.704 1314.4 190.625 1309.82 Q187.57 1305.21 187.57 1296.49 Q187.57 1287.74 190.625 1283.15 Q193.704 1278.55 199.514 1278.55 Z" fill="#000000" fill-rule="nonzero" fill-opacity="1" /><path clip-path="url(#clip350)" d="M115.927 1086.4 L123.566 1086.4 L123.566 1060.04 L115.256 1061.7 L115.256 1057.44 L123.519 1055.78 L128.195 1055.78 L128.195 1086.4 L135.834 1086.4 L135.834 1090.34 L115.927 1090.34 L115.927 1086.4 Z" fill="#000000" fill-rule="nonzero" fill-opacity="1" /><path clip-path="url(#clip350)" d="M145.279 1084.46 L150.163 1084.46 L150.163 1090.34 L145.279 1090.34 L145.279 1084.46 Z" fill="#000000" fill-rule="nonzero" fill-opacity="1" /><path clip-path="url(#clip350)" d="M161.158 1086.4 L168.797 1086.4 L168.797 1060.04 L160.487 1061.7 L160.487 1057.44 L168.751 1055.78 L173.427 1055.78 L173.427 1086.4 L181.065 1086.4 L181.065 1090.34 L161.158 1090.34 L161.158 1086.4 Z" fill="#000000" fill-rule="nonzero" fill-opacity="1" /><path clip-path="url(#clip350)" d="M190.556 1055.78 L208.912 1055.78 L208.912 1059.71 L194.838 1059.71 L194.838 1068.19 Q195.857 1067.84 196.875 1067.68 Q197.894 1067.49 198.912 1067.49 Q204.699 1067.49 208.079 1070.66 Q211.459 1073.83 211.459 1079.25 Q211.459 1084.83 207.987 1087.93 Q204.514 1091.01 198.195 1091.01 Q196.019 1091.01 193.75 1090.64 Q191.505 1090.27 189.098 1089.53 L189.098 1084.83 Q191.181 1085.96 193.403 1086.52 Q195.625 1087.07 198.102 1087.07 Q202.107 1087.07 204.445 1084.97 Q206.783 1082.86 206.783 1079.25 Q206.783 1075.64 204.445 1073.53 Q202.107 1071.43 198.102 1071.43 Q196.227 1071.43 194.352 1071.84 Q192.5 1072.26 190.556 1073.14 L190.556 1055.78 Z" fill="#000000" fill-rule="nonzero" fill-opacity="1" /><path clip-path="url(#clip350)" d="M114.931 863.01 L122.57 863.01 L122.57 836.644 L114.26 838.311 L114.26 834.051 L122.524 832.385 L127.2 832.385 L127.2 863.01 L134.839 863.01 L134.839 866.945 L114.931 866.945 L114.931 863.01 Z" fill="#000000" fill-rule="nonzero" fill-opacity="1" /><path clip-path="url(#clip350)" d="M144.283 861.065 L149.167 861.065 L149.167 866.945 L144.283 866.945 L144.283 861.065 Z" fill="#000000" fill-rule="nonzero" fill-opacity="1" /><path clip-path="url(#clip350)" d="M163.38 863.01 L179.7 863.01 L179.7 866.945 L157.755 866.945 L157.755 863.01 Q160.417 860.255 165.001 855.625 Q169.607 850.973 170.788 849.63 Q173.033 847.107 173.913 845.371 Q174.815 843.612 174.815 841.922 Q174.815 839.167 172.871 837.431 Q170.95 835.695 167.848 835.695 Q165.649 835.695 163.195 836.459 Q160.765 837.223 157.987 838.774 L157.987 834.051 Q160.811 832.917 163.265 832.339 Q165.718 831.76 167.755 831.76 Q173.126 831.76 176.32 834.445 Q179.514 837.13 179.514 841.621 Q179.514 843.75 178.704 845.672 Q177.917 847.57 175.811 850.162 Q175.232 850.834 172.13 854.051 Q169.028 857.246 163.38 863.01 Z" fill="#000000" fill-rule="nonzero" fill-opacity="1" /><path clip-path="url(#clip350)" d="M199.514 835.463 Q195.903 835.463 194.075 839.028 Q192.269 842.57 192.269 849.7 Q192.269 856.806 194.075 860.371 Q195.903 863.912 199.514 863.912 Q203.149 863.912 204.954 860.371 Q206.783 856.806 206.783 849.7 Q206.783 842.57 204.954 839.028 Q203.149 835.463 199.514 835.463 M199.514 831.76 Q205.324 831.76 208.38 836.366 Q211.459 840.95 211.459 849.7 Q211.459 858.426 208.38 863.033 Q205.324 867.616 199.514 867.616 Q193.704 867.616 190.625 863.033 Q187.57 858.426 187.57 849.7 Q187.57 840.95 190.625 836.366 Q193.704 831.76 199.514 831.76 Z" fill="#000000" fill-rule="nonzero" fill-opacity="1" /><path clip-path="url(#clip350)" d="M115.927 639.617 L123.566 639.617 L123.566 613.251 L115.256 614.918 L115.256 610.659 L123.519 608.992 L128.195 608.992 L128.195 639.617 L135.834 639.617 L135.834 643.552 L115.927 643.552 L115.927 639.617 Z" fill="#000000" fill-rule="nonzero" fill-opacity="1" /><path clip-path="url(#clip350)" d="M145.279 637.672 L150.163 637.672 L150.163 643.552 L145.279 643.552 L145.279 637.672 Z" fill="#000000" fill-rule="nonzero" fill-opacity="1" /><path clip-path="url(#clip350)" d="M164.376 639.617 L180.695 639.617 L180.695 643.552 L158.751 643.552 L158.751 639.617 Q161.413 636.862 165.996 632.233 Q170.602 627.58 171.783 626.237 Q174.028 623.714 174.908 621.978 Q175.811 620.219 175.811 618.529 Q175.811 615.774 173.866 614.038 Q171.945 612.302 168.843 612.302 Q166.644 612.302 164.19 613.066 Q161.76 613.83 158.982 615.381 L158.982 610.659 Q161.806 609.524 164.26 608.946 Q166.714 608.367 168.751 608.367 Q174.121 608.367 177.315 611.052 Q180.51 613.737 180.51 618.228 Q180.51 620.358 179.7 622.279 Q178.913 624.177 176.806 626.77 Q176.227 627.441 173.126 630.658 Q170.024 633.853 164.376 639.617 Z" fill="#000000" fill-rule="nonzero" fill-opacity="1" /><path clip-path="url(#clip350)" d="M190.556 608.992 L208.912 608.992 L208.912 612.927 L194.838 612.927 L194.838 621.399 Q195.857 621.052 196.875 620.89 Q197.894 620.705 198.912 620.705 Q204.699 620.705 208.079 623.876 Q211.459 627.047 211.459 632.464 Q211.459 638.043 207.987 641.145 Q204.514 644.223 198.195 644.223 Q196.019 644.223 193.75 643.853 Q191.505 643.482 189.098 642.742 L189.098 638.043 Q191.181 639.177 193.403 639.732 Q195.625 640.288 198.102 640.288 Q202.107 640.288 204.445 638.182 Q206.783 636.075 206.783 632.464 Q206.783 628.853 204.445 626.746 Q202.107 624.64 198.102 624.64 Q196.227 624.64 194.352 625.057 Q192.5 625.473 190.556 626.353 L190.556 608.992 Z" fill="#000000" fill-rule="nonzero" fill-opacity="1" /><path clip-path="url(#clip350)" d="M114.931 416.224 L122.57 416.224 L122.57 389.858 L114.26 391.525 L114.26 387.266 L122.524 385.599 L127.2 385.599 L127.2 416.224 L134.839 416.224 L134.839 420.159 L114.931 420.159 L114.931 416.224 Z" fill="#000000" fill-rule="nonzero" fill-opacity="1" /><path clip-path="url(#clip350)" d="M144.283 414.279 L149.167 414.279 L149.167 420.159 L144.283 420.159 L144.283 414.279 Z" fill="#000000" fill-rule="nonzero" fill-opacity="1" /><path clip-path="url(#clip350)" d="M173.519 401.525 Q176.876 402.242 178.751 404.511 Q180.649 406.779 180.649 410.113 Q180.649 415.228 177.13 418.029 Q173.612 420.83 167.13 420.83 Q164.954 420.83 162.64 420.391 Q160.348 419.974 157.894 419.117 L157.894 414.603 Q159.839 415.738 162.153 416.316 Q164.468 416.895 166.991 416.895 Q171.389 416.895 173.681 415.159 Q175.996 413.423 175.996 410.113 Q175.996 407.057 173.843 405.344 Q171.714 403.608 167.894 403.608 L163.866 403.608 L163.866 399.766 L168.079 399.766 Q171.528 399.766 173.357 398.4 Q175.186 397.011 175.186 394.418 Q175.186 391.756 173.288 390.344 Q171.413 388.909 167.894 388.909 Q165.973 388.909 163.774 389.326 Q161.575 389.743 158.936 390.622 L158.936 386.455 Q161.598 385.715 163.913 385.344 Q166.251 384.974 168.311 384.974 Q173.635 384.974 176.737 387.405 Q179.839 389.812 179.839 393.932 Q179.839 396.803 178.195 398.793 Q176.551 400.761 173.519 401.525 Z" fill="#000000" fill-rule="nonzero" fill-opacity="1" /><path clip-path="url(#clip350)" d="M199.514 388.678 Q195.903 388.678 194.075 392.243 Q192.269 395.784 192.269 402.914 Q192.269 410.02 194.075 413.585 Q195.903 417.127 199.514 417.127 Q203.149 417.127 204.954 413.585 Q206.783 410.02 206.783 402.914 Q206.783 395.784 204.954 392.243 Q203.149 388.678 199.514 388.678 M199.514 384.974 Q205.324 384.974 208.38 389.58 Q211.459 394.164 211.459 402.914 Q211.459 411.641 208.38 416.247 Q205.324 420.83 199.514 420.83 Q193.704 420.83 190.625 416.247 Q187.57 411.641 187.57 402.914 Q187.57 394.164 190.625 389.58 Q193.704 384.974 199.514 384.974 Z" fill="#000000" fill-rule="nonzero" fill-opacity="1" /><path clip-path="url(#clip350)" d="M115.927 192.831 L123.566 192.831 L123.566 166.465 L115.256 168.132 L115.256 163.873 L123.519 162.206 L128.195 162.206 L128.195 192.831 L135.834 192.831 L135.834 196.766 L115.927 196.766 L115.927 192.831 Z" fill="#000000" fill-rule="nonzero" fill-opacity="1" /><path clip-path="url(#clip350)" d="M145.279 190.887 L150.163 190.887 L150.163 196.766 L145.279 196.766 L145.279 190.887 Z" fill="#000000" fill-rule="nonzero" fill-opacity="1" /><path clip-path="url(#clip350)" d="M174.514 178.132 Q177.871 178.85 179.746 181.118 Q181.644 183.387 181.644 186.72 Q181.644 191.836 178.126 194.637 Q174.607 197.437 168.126 197.437 Q165.95 197.437 163.635 196.998 Q161.343 196.581 158.89 195.724 L158.89 191.211 Q160.834 192.345 163.149 192.924 Q165.464 193.502 167.987 193.502 Q172.385 193.502 174.677 191.766 Q176.991 190.03 176.991 186.72 Q176.991 183.664 174.839 181.951 Q172.709 180.215 168.889 180.215 L164.862 180.215 L164.862 176.373 L169.075 176.373 Q172.524 176.373 174.352 175.007 Q176.181 173.618 176.181 171.026 Q176.181 168.364 174.283 166.951 Q172.408 165.516 168.889 165.516 Q166.968 165.516 164.769 165.933 Q162.57 166.35 159.931 167.229 L159.931 163.063 Q162.593 162.322 164.908 161.951 Q167.246 161.581 169.306 161.581 Q174.63 161.581 177.732 164.012 Q180.834 166.419 180.834 170.539 Q180.834 173.41 179.19 175.401 Q177.547 177.368 174.514 178.132 Z" fill="#000000" fill-rule="nonzero" fill-opacity="1" /><path clip-path="url(#clip350)" d="M190.556 162.206 L208.912 162.206 L208.912 166.141 L194.838 166.141 L194.838 174.613 Q195.857 174.266 196.875 174.104 Q197.894 173.919 198.912 173.919 Q204.699 173.919 208.079 177.09 Q211.459 180.262 211.459 185.678 Q211.459 191.257 207.987 194.359 Q204.514 197.437 198.195 197.437 Q196.019 197.437 193.75 197.067 Q191.505 196.697 189.098 195.956 L189.098 191.257 Q191.181 192.391 193.403 192.947 Q195.625 193.502 198.102 193.502 Q202.107 193.502 204.445 191.396 Q206.783 189.289 206.783 185.678 Q206.783 182.067 204.445 179.961 Q202.107 177.854 198.102 177.854 Q196.227 177.854 194.352 178.271 Q192.5 178.688 190.556 179.567 L190.556 162.206 Z" fill="#000000" fill-rule="nonzero" fill-opacity="1" /><path clip-path="url(#clip350)" d="M16.4842 874.557 L16.4842 864.976 L48.8219 852.85 L16.4842 840.659 L16.4842 831.079 L64.0042 831.079 L64.0042 837.349 L22.277 837.349 L54.8694 849.603 L54.8694 856.064 L22.277 868.318 L64.0042 868.318 L64.0042 874.557 L16.4842 874.557 Z" fill="#000000" fill-rule="nonzero" fill-opacity="1" /><path clip-path="url(#clip350)" d="M41.7242 795.781 Q42.4244 793.712 44.7161 791.771 Q47.0077 789.797 51.0181 787.824 L64.0042 781.299 L64.0042 788.206 L51.8138 794.285 Q47.0395 796.64 45.48 798.868 Q43.9204 801.065 43.9204 804.884 L43.9204 811.886 L64.0042 811.886 L64.0042 818.316 L16.4842 818.316 L16.4842 803.802 Q16.4842 795.654 19.8898 791.643 Q23.2955 787.633 30.1704 787.633 Q34.6582 787.633 37.6183 789.734 Q40.5784 791.802 41.7242 795.781 M21.7677 811.886 L38.6368 811.886 L38.6368 803.802 Q38.6368 799.155 36.5043 796.8 Q34.34 794.412 30.1704 794.412 Q26.0009 794.412 23.9002 796.8 Q21.7677 799.155 21.7677 803.802 L21.7677 811.886 Z" fill="#000000" fill-rule="nonzero" fill-opacity="1" /><path clip-path="url(#clip350)" d="M22.818 759.783 L46.4666 768.504 L46.4666 751.03 L22.818 759.783 M16.4842 763.411 L16.4842 756.123 L64.0042 738.012 L64.0042 744.696 L51.8138 749.025 L51.8138 770.446 L64.0042 774.774 L64.0042 781.554 L16.4842 763.411 Z" fill="#000000" fill-rule="nonzero" fill-opacity="1" /><path clip-path="url(#clip350)" d="M16.4842 731.074 L16.4842 701.027 L21.895 701.027 L21.895 724.644 L35.9632 724.644 L35.9632 702.014 L41.3741 702.014 L41.3741 724.644 L58.5933 724.644 L58.5933 700.455 L64.0042 700.455 L64.0042 731.074 L16.4842 731.074 Z" fill="#000000" fill-rule="nonzero" fill-opacity="1" /><path clip-path="url(#clip350)" d="M14.479 672.095 L19.3487 672.095 L19.3487 677.697 Q19.3487 680.848 20.6219 682.089 Q21.895 683.299 25.2052 683.299 L28.3562 683.299 L28.3562 673.655 L32.9077 673.655 L32.9077 683.299 L64.0042 683.299 L64.0042 689.187 L32.9077 689.187 L32.9077 694.789 L28.3562 694.789 L28.3562 689.187 L25.8736 689.187 Q19.9216 689.187 17.2162 686.418 Q14.479 683.649 14.479 677.633 L14.479 672.095 Z" fill="#000000" fill-rule="nonzero" fill-opacity="1" /><path clip-path="url(#clip350)" d="M548.3 12.096 L556.483 12.096 L556.483 65.6895 L585.933 65.6895 L585.933 72.576 L548.3 72.576 L548.3 12.096 Z" fill="#000000" fill-rule="nonzero" fill-opacity="1" /><path clip-path="url(#clip350)" d="M594.197 27.2059 L601.65 27.2059 L601.65 72.576 L594.197 72.576 L594.197 27.2059 M594.197 9.54393 L601.65 9.54393 L601.65 18.9825 L594.197 18.9825 L594.197 9.54393 Z" fill="#000000" fill-rule="nonzero" fill-opacity="1" /><path clip-path="url(#clip350)" d="M654.96 45.1919 L654.96 72.576 L647.507 72.576 L647.507 45.4349 Q647.507 38.994 644.995 35.7938 Q642.484 32.5936 637.46 32.5936 Q631.425 32.5936 627.941 36.4419 Q624.457 40.2903 624.457 46.9338 L624.457 72.576 L616.963 72.576 L616.963 27.2059 L624.457 27.2059 L624.457 34.2544 Q627.131 30.163 630.736 28.1376 Q634.382 26.1121 639.121 26.1121 Q646.94 26.1121 650.95 30.9732 Q654.96 35.7938 654.96 45.1919 Z" fill="#000000" fill-rule="nonzero" fill-opacity="1" /><path clip-path="url(#clip350)" d="M708.635 48.0275 L708.635 51.6733 L674.364 51.6733 Q674.85 59.3701 678.982 63.421 Q683.155 67.4314 690.568 67.4314 Q694.862 67.4314 698.872 66.3781 Q702.923 65.3249 706.893 63.2184 L706.893 70.267 Q702.882 71.9684 698.67 72.8596 Q694.457 73.7508 690.122 73.7508 Q679.266 73.7508 672.906 67.4314 Q666.586 61.1119 666.586 50.3365 Q666.586 39.1965 672.582 32.6746 Q678.618 26.1121 688.826 26.1121 Q697.981 26.1121 703.288 32.0264 Q708.635 37.9003 708.635 48.0275 M701.181 45.84 Q701.1 39.7232 697.738 36.0774 Q694.416 32.4315 688.907 32.4315 Q682.668 32.4315 678.901 35.9558 Q675.174 39.4801 674.607 45.8805 L701.181 45.84 Z" fill="#000000" fill-rule="nonzero" fill-opacity="1" /><path clip-path="url(#clip350)" d="M741.488 49.7694 Q732.454 49.7694 728.97 51.8354 Q725.487 53.9013 725.487 58.8839 Q725.487 62.8538 728.079 65.2034 Q730.712 67.5124 735.209 67.5124 Q741.407 67.5124 745.133 63.1374 Q748.901 58.7219 748.901 51.4303 L748.901 49.7694 L741.488 49.7694 M756.354 46.6907 L756.354 72.576 L748.901 72.576 L748.901 65.6895 Q746.349 69.8214 742.541 71.8063 Q738.733 73.7508 733.224 73.7508 Q726.256 73.7508 722.124 69.8619 Q718.033 65.9325 718.033 59.3701 Q718.033 51.7138 723.137 47.825 Q728.282 43.9361 738.449 43.9361 L748.901 43.9361 L748.901 43.2069 Q748.901 38.0623 745.498 35.2672 Q742.136 32.4315 736.019 32.4315 Q732.13 32.4315 728.444 33.3632 Q724.757 34.295 721.355 36.1584 L721.355 29.2718 Q725.446 27.692 729.294 26.9223 Q733.143 26.1121 736.789 26.1121 Q746.632 26.1121 751.493 31.2163 Q756.354 36.3204 756.354 46.6907 Z" fill="#000000" fill-rule="nonzero" fill-opacity="1" /><path clip-path="url(#clip350)" d="M797.998 34.1734 Q796.742 33.4443 795.243 33.1202 Q793.785 32.7556 792.002 32.7556 Q785.683 32.7556 782.28 36.8875 Q778.918 40.9789 778.918 48.6757 L778.918 72.576 L771.424 72.576 L771.424 27.2059 L778.918 27.2059 L778.918 34.2544 Q781.267 30.1225 785.035 28.1376 Q788.802 26.1121 794.19 26.1121 Q794.96 26.1121 795.891 26.2337 Q796.823 26.3147 797.957 26.5172 L797.998 34.1734 Z" fill="#000000" fill-rule="nonzero" fill-opacity="1" /><path clip-path="url(#clip350)" d="M861.192 44.2197 Q863.825 45.1109 866.296 48.0275 Q868.808 50.9442 871.319 56.0483 L879.623 72.576 L870.833 72.576 L863.096 57.061 Q860.098 50.9847 857.262 48.9997 Q854.467 47.0148 849.606 47.0148 L840.694 47.0148 L840.694 72.576 L832.511 72.576 L832.511 12.096 L850.984 12.096 Q861.354 12.096 866.458 16.4305 Q871.562 20.7649 871.562 29.5149 Q871.562 35.2267 868.889 38.994 Q866.255 42.7613 861.192 44.2197 M840.694 18.8205 L840.694 40.2903 L850.984 40.2903 Q856.898 40.2903 859.896 37.5762 Q862.934 34.8216 862.934 29.5149 Q862.934 24.2082 859.896 21.5346 Q856.898 18.8205 850.984 18.8205 L840.694 18.8205 Z" fill="#000000" fill-rule="nonzero" fill-opacity="1" /><path clip-path="url(#clip350)" d="M924.913 48.0275 L924.913 51.6733 L890.642 51.6733 Q891.128 59.3701 895.26 63.421 Q899.432 67.4314 906.846 67.4314 Q911.139 67.4314 915.15 66.3781 Q919.201 65.3249 923.171 63.2184 L923.171 70.267 Q919.16 71.9684 914.947 72.8596 Q910.734 73.7508 906.4 73.7508 Q895.544 73.7508 889.184 67.4314 Q882.864 61.1119 882.864 50.3365 Q882.864 39.1965 888.86 32.6746 Q894.895 26.1121 905.104 26.1121 Q914.259 26.1121 919.565 32.0264 Q924.913 37.9003 924.913 48.0275 M917.459 45.84 Q917.378 39.7232 914.016 36.0774 Q910.694 32.4315 905.185 32.4315 Q898.946 32.4315 895.179 35.9558 Q891.452 39.4801 890.885 45.8805 L917.459 45.84 Z" fill="#000000" fill-rule="nonzero" fill-opacity="1" /><path clip-path="url(#clip350)" d="M967.001 49.3643 Q967.001 41.2625 963.639 36.8065 Q960.317 32.3505 954.282 32.3505 Q948.286 32.3505 944.924 36.8065 Q941.602 41.2625 941.602 49.3643 Q941.602 57.4256 944.924 61.8816 Q948.286 66.3376 954.282 66.3376 Q960.317 66.3376 963.639 61.8816 Q967.001 57.4256 967.001 49.3643 M974.455 66.9452 Q974.455 78.5308 969.31 84.1616 Q964.166 89.8329 953.552 89.8329 Q949.623 89.8329 946.139 89.2252 Q942.656 88.6581 939.374 87.4428 L939.374 80.1917 Q942.656 81.9741 945.856 82.8248 Q949.056 83.6755 952.378 83.6755 Q959.71 83.6755 963.356 79.8271 Q967.001 76.0193 967.001 68.282 L967.001 64.5957 Q964.692 68.6061 961.087 70.5911 Q957.482 72.576 952.459 72.576 Q944.114 72.576 939.01 66.2161 Q933.906 59.8562 933.906 49.3643 Q933.906 38.832 939.01 32.472 Q944.114 26.1121 952.459 26.1121 Q957.482 26.1121 961.087 28.0971 Q964.692 30.082 967.001 34.0924 L967.001 27.2059 L974.455 27.2059 L974.455 66.9452 Z" fill="#000000" fill-rule="nonzero" fill-opacity="1" /><path clip-path="url(#clip350)" d="M1016.1 34.1734 Q1014.84 33.4443 1013.34 33.1202 Q1011.89 32.7556 1010.1 32.7556 Q1003.78 32.7556 1000.38 36.8875 Q997.019 40.9789 997.019 48.6757 L997.019 72.576 L989.524 72.576 L989.524 27.2059 L997.019 27.2059 L997.019 34.2544 Q999.368 30.1225 1003.14 28.1376 Q1006.9 26.1121 1012.29 26.1121 Q1013.06 26.1121 1013.99 26.2337 Q1014.92 26.3147 1016.06 26.5172 L1016.1 34.1734 Z" fill="#000000" fill-rule="nonzero" fill-opacity="1" /><path clip-path="url(#clip350)" d="M1060.9 48.0275 L1060.9 51.6733 L1026.63 51.6733 Q1027.12 59.3701 1031.25 63.421 Q1035.42 67.4314 1042.83 67.4314 Q1047.13 67.4314 1051.14 66.3781 Q1055.19 65.3249 1059.16 63.2184 L1059.16 70.267 Q1055.15 71.9684 1050.94 72.8596 Q1046.72 73.7508 1042.39 73.7508 Q1031.53 73.7508 1025.17 67.4314 Q1018.85 61.1119 1018.85 50.3365 Q1018.85 39.1965 1024.85 32.6746 Q1030.88 26.1121 1041.09 26.1121 Q1050.25 26.1121 1055.55 32.0264 Q1060.9 37.9003 1060.9 48.0275 M1053.45 45.84 Q1053.37 39.7232 1050 36.0774 Q1046.68 32.4315 1041.17 32.4315 Q1034.94 32.4315 1031.17 35.9558 Q1027.44 39.4801 1026.87 45.8805 L1053.45 45.84 Z" fill="#000000" fill-rule="nonzero" fill-opacity="1" /><path clip-path="url(#clip350)" d="M1102.06 28.5427 L1102.06 35.5912 Q1098.9 33.9709 1095.5 33.1607 Q1092.09 32.3505 1088.45 32.3505 Q1082.9 32.3505 1080.1 34.0519 Q1077.35 35.7533 1077.35 39.156 Q1077.35 41.7486 1079.33 43.2475 Q1081.32 44.7058 1087.31 46.0426 L1089.87 46.6097 Q1097.81 48.3111 1101.13 51.4303 Q1104.49 54.509 1104.49 60.0587 Q1104.49 66.3781 1099.47 70.0644 Q1094.48 73.7508 1085.73 73.7508 Q1082.09 73.7508 1078.12 73.0216 Q1074.19 72.3329 1069.81 70.9151 L1069.81 63.2184 Q1073.95 65.3654 1077.96 66.4591 Q1081.97 67.5124 1085.9 67.5124 Q1091.16 67.5124 1094 65.73 Q1096.83 63.9071 1096.83 60.6258 Q1096.83 57.5877 1094.77 55.9673 Q1092.74 54.3469 1085.81 52.8481 L1083.22 52.2405 Q1076.29 50.7821 1073.22 47.7845 Q1070.14 44.7463 1070.14 39.4801 Q1070.14 33.0797 1074.67 29.5959 Q1079.21 26.1121 1087.56 26.1121 Q1091.69 26.1121 1095.33 26.7198 Q1098.98 27.3274 1102.06 28.5427 Z" fill="#000000" fill-rule="nonzero" fill-opacity="1" /><path clip-path="url(#clip350)" d="M1145.28 28.5427 L1145.28 35.5912 Q1142.12 33.9709 1138.72 33.1607 Q1135.32 32.3505 1131.67 32.3505 Q1126.12 32.3505 1123.33 34.0519 Q1120.57 35.7533 1120.57 39.156 Q1120.57 41.7486 1122.56 43.2475 Q1124.54 44.7058 1130.54 46.0426 L1133.09 46.6097 Q1141.03 48.3111 1144.35 51.4303 Q1147.71 54.509 1147.71 60.0587 Q1147.71 66.3781 1142.69 70.0644 Q1137.71 73.7508 1128.96 73.7508 Q1125.31 73.7508 1121.34 73.0216 Q1117.41 72.3329 1113.04 70.9151 L1113.04 63.2184 Q1117.17 65.3654 1121.18 66.4591 Q1125.19 67.5124 1129.12 67.5124 Q1134.38 67.5124 1137.22 65.73 Q1140.06 63.9071 1140.06 60.6258 Q1140.06 57.5877 1137.99 55.9673 Q1135.96 54.3469 1129.04 52.8481 L1126.45 52.2405 Q1119.52 50.7821 1116.44 47.7845 Q1113.36 44.7463 1113.36 39.4801 Q1113.36 33.0797 1117.9 29.5959 Q1122.43 26.1121 1130.78 26.1121 Q1134.91 26.1121 1138.56 26.7198 Q1142.2 27.3274 1145.28 28.5427 Z" fill="#000000" fill-rule="nonzero" fill-opacity="1" /><path clip-path="url(#clip350)" d="M1159.58 27.2059 L1167.04 27.2059 L1167.04 72.576 L1159.58 72.576 L1159.58 27.2059 M1159.58 9.54393 L1167.04 9.54393 L1167.04 18.9825 L1159.58 18.9825 L1159.58 9.54393 Z" fill="#000000" fill-rule="nonzero" fill-opacity="1" /><path clip-path="url(#clip350)" d="M1200.21 32.4315 Q1194.22 32.4315 1190.73 37.1306 Q1187.25 41.7891 1187.25 49.9314 Q1187.25 58.0738 1190.69 62.7728 Q1194.18 67.4314 1200.21 67.4314 Q1206.17 67.4314 1209.65 62.7323 Q1213.13 58.0333 1213.13 49.9314 Q1213.13 41.8701 1209.65 37.1711 Q1206.17 32.4315 1200.21 32.4315 M1200.21 26.1121 Q1209.93 26.1121 1215.48 32.4315 Q1221.03 38.7509 1221.03 49.9314 Q1221.03 61.0714 1215.48 67.4314 Q1209.93 73.7508 1200.21 73.7508 Q1190.45 73.7508 1184.9 67.4314 Q1179.39 61.0714 1179.39 49.9314 Q1179.39 38.7509 1184.9 32.4315 Q1190.45 26.1121 1200.21 26.1121 Z" fill="#000000" fill-rule="nonzero" fill-opacity="1" /><path clip-path="url(#clip350)" d="M1271.1 45.1919 L1271.1 72.576 L1263.65 72.576 L1263.65 45.4349 Q1263.65 38.994 1261.14 35.7938 Q1258.63 32.5936 1253.6 32.5936 Q1247.57 32.5936 1244.08 36.4419 Q1240.6 40.2903 1240.6 46.9338 L1240.6 72.576 L1233.11 72.576 L1233.11 27.2059 L1240.6 27.2059 L1240.6 34.2544 Q1243.27 30.163 1246.88 28.1376 Q1250.52 26.1121 1255.26 26.1121 Q1263.08 26.1121 1267.09 30.9732 Q1271.1 35.7938 1271.1 45.1919 Z" fill="#000000" fill-rule="nonzero" fill-opacity="1" /><path clip-path="url(#clip350)" d="M1287.87 62.2867 L1296.42 62.2867 L1296.42 72.576 L1287.87 72.576 L1287.87 62.2867 M1287.87 29.6769 L1296.42 29.6769 L1296.42 39.9662 L1287.87 39.9662 L1287.87 29.6769 Z" fill="#000000" fill-rule="nonzero" fill-opacity="1" /><path clip-path="url(#clip350)" d="M1340.62 12.096 L1352.81 12.096 L1368.24 53.2532 L1383.76 12.096 L1395.95 12.096 L1395.95 72.576 L1387.97 72.576 L1387.97 19.4686 L1372.38 60.9499 L1364.15 60.9499 L1348.56 19.4686 L1348.56 72.576 L1340.62 72.576 L1340.62 12.096 Z" fill="#000000" fill-rule="nonzero" fill-opacity="1" /><path clip-path="url(#clip350)" d="M1440.88 44.2197 Q1443.51 45.1109 1445.98 48.0275 Q1448.49 50.9442 1451 56.0483 L1459.31 72.576 L1450.52 72.576 L1442.78 57.061 Q1439.78 50.9847 1436.95 48.9997 Q1434.15 47.0148 1429.29 47.0148 L1420.38 47.0148 L1420.38 72.576 L1412.2 72.576 L1412.2 12.096 L1430.67 12.096 Q1441.04 12.096 1446.14 16.4305 Q1451.25 20.7649 1451.25 29.5149 Q1451.25 35.2267 1448.57 38.994 Q1445.94 42.7613 1440.88 44.2197 M1420.38 18.8205 L1420.38 40.2903 L1430.67 40.2903 Q1436.58 40.2903 1439.58 37.5762 Q1442.62 34.8216 1442.62 29.5149 Q1442.62 24.2082 1439.58 21.5346 Q1436.58 18.8205 1430.67 18.8205 L1420.38 18.8205 Z" fill="#000000" fill-rule="nonzero" fill-opacity="1" /><path clip-path="url(#clip350)" d="M1486.69 20.1573 L1475.59 50.2555 L1497.83 50.2555 L1486.69 20.1573 M1482.07 12.096 L1491.35 12.096 L1514.4 72.576 L1505.89 72.576 L1500.38 57.061 L1473.12 57.061 L1467.61 72.576 L1458.98 72.576 L1482.07 12.096 Z" fill="#000000" fill-rule="nonzero" fill-opacity="1" /><path clip-path="url(#clip350)" d="M1523.23 12.096 L1561.47 12.096 L1561.47 18.9825 L1531.41 18.9825 L1531.41 36.8875 L1560.22 36.8875 L1560.22 43.7741 L1531.41 43.7741 L1531.41 65.6895 L1562.2 65.6895 L1562.2 72.576 L1523.23 72.576 L1523.23 12.096 Z" fill="#000000" fill-rule="nonzero" fill-opacity="1" /><path clip-path="url(#clip350)" d="M1598.29 9.54393 L1598.29 15.7418 L1591.16 15.7418 Q1587.15 15.7418 1585.57 17.3622 Q1584.04 18.9825 1584.04 23.1955 L1584.04 27.2059 L1596.31 27.2059 L1596.31 32.9987 L1584.04 32.9987 L1584.04 72.576 L1576.54 72.576 L1576.54 32.9987 L1569.41 32.9987 L1569.41 27.2059 L1576.54 27.2059 L1576.54 24.0462 Q1576.54 16.471 1580.07 13.0277 Q1583.59 9.54393 1591.25 9.54393 L1598.29 9.54393 Z" fill="#000000" fill-rule="nonzero" fill-opacity="1" /><path clip-path="url(#clip350)" d="M1625.56 27.2059 L1633.46 27.2059 L1647.63 65.2844 L1661.81 27.2059 L1669.71 27.2059 L1652.7 72.576 L1642.57 72.576 L1625.56 27.2059 Z" fill="#000000" fill-rule="nonzero" fill-opacity="1" /><path clip-path="url(#clip350)" d="M1708.92 28.5427 L1708.92 35.5912 Q1705.76 33.9709 1702.36 33.1607 Q1698.96 32.3505 1695.31 32.3505 Q1689.76 32.3505 1686.97 34.0519 Q1684.21 35.7533 1684.21 39.156 Q1684.21 41.7486 1686.2 43.2475 Q1688.18 44.7058 1694.18 46.0426 L1696.73 46.6097 Q1704.67 48.3111 1707.99 51.4303 Q1711.36 54.509 1711.36 60.0587 Q1711.36 66.3781 1706.33 70.0644 Q1701.35 73.7508 1692.6 73.7508 Q1688.95 73.7508 1684.98 73.0216 Q1681.05 72.3329 1676.68 70.9151 L1676.68 63.2184 Q1680.81 65.3654 1684.82 66.4591 Q1688.83 67.5124 1692.76 67.5124 Q1698.03 67.5124 1700.86 65.73 Q1703.7 63.9071 1703.7 60.6258 Q1703.7 57.5877 1701.63 55.9673 Q1699.61 54.3469 1692.68 52.8481 L1690.09 52.2405 Q1683.16 50.7821 1680.08 47.7845 Q1677 44.7463 1677 39.4801 Q1677 33.0797 1681.54 29.5959 Q1686.08 26.1121 1694.42 26.1121 Q1698.55 26.1121 1702.2 26.7198 Q1705.85 27.3274 1708.92 28.5427 Z" fill="#000000" fill-rule="nonzero" fill-opacity="1" /><path clip-path="url(#clip350)" d="M1749.92 12.096 L1758.1 12.096 L1758.1 36.8875 L1787.84 36.8875 L1787.84 12.096 L1796.02 12.096 L1796.02 72.576 L1787.84 72.576 L1787.84 43.7741 L1758.1 43.7741 L1758.1 72.576 L1749.92 72.576 L1749.92 12.096 Z" fill="#000000" fill-rule="nonzero" fill-opacity="1" /><path clip-path="url(#clip350)" d="M1829.56 32.4315 Q1823.57 32.4315 1820.08 37.1306 Q1816.6 41.7891 1816.6 49.9314 Q1816.6 58.0738 1820.04 62.7728 Q1823.52 67.4314 1829.56 67.4314 Q1835.52 67.4314 1839 62.7323 Q1842.48 58.0333 1842.48 49.9314 Q1842.48 41.8701 1839 37.1711 Q1835.52 32.4315 1829.56 32.4315 M1829.56 26.1121 Q1839.28 26.1121 1844.83 32.4315 Q1850.38 38.7509 1850.38 49.9314 Q1850.38 61.0714 1844.83 67.4314 Q1839.28 73.7508 1829.56 73.7508 Q1819.8 73.7508 1814.25 67.4314 Q1808.74 61.0714 1808.74 49.9314 Q1808.74 38.7509 1814.25 32.4315 Q1819.8 26.1121 1829.56 26.1121 Z" fill="#000000" fill-rule="nonzero" fill-opacity="1" /><path clip-path="url(#clip350)" d="M1889.03 34.1734 Q1887.77 33.4443 1886.27 33.1202 Q1884.81 32.7556 1883.03 32.7556 Q1876.71 32.7556 1873.31 36.8875 Q1869.95 40.9789 1869.95 48.6757 L1869.95 72.576 L1862.45 72.576 L1862.45 27.2059 L1869.95 27.2059 L1869.95 34.2544 Q1872.3 30.1225 1876.06 28.1376 Q1879.83 26.1121 1885.22 26.1121 Q1885.99 26.1121 1886.92 26.2337 Q1887.85 26.3147 1888.99 26.5172 L1889.03 34.1734 Z" fill="#000000" fill-rule="nonzero" fill-opacity="1" /><path clip-path="url(#clip350)" d="M1896.85 27.2059 L1904.3 27.2059 L1904.3 72.576 L1896.85 72.576 L1896.85 27.2059 M1896.85 9.54393 L1904.3 9.54393 L1904.3 18.9825 L1896.85 18.9825 L1896.85 9.54393 Z" fill="#000000" fill-rule="nonzero" fill-opacity="1" /><path clip-path="url(#clip350)" d="M1916.65 27.2059 L1952.06 27.2059 L1952.06 34.0114 L1924.03 66.6212 L1952.06 66.6212 L1952.06 72.576 L1915.64 72.576 L1915.64 65.7705 L1943.67 33.1607 L1916.65 33.1607 L1916.65 27.2059 Z" fill="#000000" fill-rule="nonzero" fill-opacity="1" /><path clip-path="url(#clip350)" d="M1981.02 32.4315 Q1975.03 32.4315 1971.54 37.1306 Q1968.06 41.7891 1968.06 49.9314 Q1968.06 58.0738 1971.5 62.7728 Q1974.99 67.4314 1981.02 67.4314 Q1986.98 67.4314 1990.46 62.7323 Q1993.95 58.0333 1993.95 49.9314 Q1993.95 41.8701 1990.46 37.1711 Q1986.98 32.4315 1981.02 32.4315 M1981.02 26.1121 Q1990.75 26.1121 1996.3 32.4315 Q2001.85 38.7509 2001.85 49.9314 Q2001.85 61.0714 1996.3 67.4314 Q1990.75 73.7508 1981.02 73.7508 Q1971.26 73.7508 1965.71 67.4314 Q1960.2 61.0714 1960.2 49.9314 Q1960.2 38.7509 1965.71 32.4315 Q1971.26 26.1121 1981.02 26.1121 Z" fill="#000000" fill-rule="nonzero" fill-opacity="1" /><path clip-path="url(#clip350)" d="M2051.91 45.1919 L2051.91 72.576 L2044.46 72.576 L2044.46 45.4349 Q2044.46 38.994 2041.95 35.7938 Q2039.44 32.5936 2034.41 32.5936 Q2028.38 32.5936 2024.9 36.4419 Q2021.41 40.2903 2021.41 46.9338 L2021.41 72.576 L2013.92 72.576 L2013.92 27.2059 L2021.41 27.2059 L2021.41 34.2544 Q2024.08 30.163 2027.69 28.1376 Q2031.34 26.1121 2036.08 26.1121 Q2043.89 26.1121 2047.9 30.9732 Q2051.91 35.7938 2051.91 45.1919 Z" fill="#000000" fill-rule="nonzero" fill-opacity="1" /><circle clip-path="url(#clip352)" cx="307.043" cy="160.256" r="14.4" fill="#009af9" fill-rule="evenodd" fill-opacity="1" stroke="#000000" stroke-opacity="1" stroke-width="3.2"/>
<circle clip-path="url(#clip352)" cx="519.842" cy="698.474" r="14.4" fill="#009af9" fill-rule="evenodd" fill-opacity="1" stroke="#000000" stroke-opacity="1" stroke-width="3.2"/>
<circle clip-path="url(#clip352)" cx="874.508" cy="831.998" r="14.4" fill="#009af9" fill-rule="evenodd" fill-opacity="1" stroke="#000000" stroke-opacity="1" stroke-width="3.2"/>
<circle clip-path="url(#clip352)" cx="1229.17" cy="1043.57" r="14.4" fill="#009af9" fill-rule="evenodd" fill-opacity="1" stroke="#000000" stroke-opacity="1" stroke-width="3.2"/>
<circle clip-path="url(#clip352)" cx="1583.84" cy="1250.24" r="14.4" fill="#009af9" fill-rule="evenodd" fill-opacity="1" stroke="#000000" stroke-opacity="1" stroke-width="3.2"/>
<circle clip-path="url(#clip352)" cx="2293.17" cy="1354.61" r="14.4" fill="#009af9" fill-rule="evenodd" fill-opacity="1" stroke="#000000" stroke-opacity="1" stroke-width="3.2"/>
<circle clip-path="url(#clip352)" cx="307.043" cy="602.197" r="14.4" fill="#e26f46" fill-rule="evenodd" fill-opacity="1" stroke="#000000" stroke-opacity="1" stroke-width="3.2"/>
<circle clip-path="url(#clip352)" cx="519.842" cy="1045.82" r="14.4" fill="#e26f46" fill-rule="evenodd" fill-opacity="1" stroke="#000000" stroke-opacity="1" stroke-width="3.2"/>
<circle clip-path="url(#clip352)" cx="874.508" cy="1124.12" r="14.4" fill="#e26f46" fill-rule="evenodd" fill-opacity="1" stroke="#000000" stroke-opacity="1" stroke-width="3.2"/>
<circle clip-path="url(#clip352)" cx="1229.17" cy="1241.3" r="14.4" fill="#e26f46" fill-rule="evenodd" fill-opacity="1" stroke="#000000" stroke-opacity="1" stroke-width="3.2"/>
<circle clip-path="url(#clip352)" cx="1583.84" cy="1386.4" r="14.4" fill="#e26f46" fill-rule="evenodd" fill-opacity="1" stroke="#000000" stroke-opacity="1" stroke-width="3.2"/>
<circle clip-path="url(#clip352)" cx="2293.17" cy="1357.28" r="14.4" fill="#e26f46" fill-rule="evenodd" fill-opacity="1" stroke="#000000" stroke-opacity="1" stroke-width="3.2"/>
<path clip-path="url(#clip350)" d="M1735.64 322.316 L2282.58 322.316 L2282.58 166.796 L1735.64 166.796  Z" fill="#ffffff" fill-rule="evenodd" fill-opacity="1"/>
<polyline clip-path="url(#clip350)" style="stroke:#000000; stroke-linecap:round; stroke-linejoin:round; stroke-width:4; stroke-opacity:1; fill:none" points="1735.64,322.316 2282.58,322.316 2282.58,166.796 1735.64,166.796 1735.64,322.316 "/>
<circle clip-path="url(#clip350)" cx="1829.21" cy="218.636" r="20.48" fill="#009af9" fill-rule="evenodd" fill-opacity="1" stroke="#000000" stroke-opacity="1" stroke-width="4.55111"/>
<path clip-path="url(#clip350)" d="M1930.18 202.629 L1930.18 209.99 L1938.96 209.99 L1938.96 213.3 L1930.18 213.3 L1930.18 227.374 Q1930.18 230.545 1931.04 231.448 Q1931.92 232.351 1934.58 232.351 L1938.96 232.351 L1938.96 235.916 L1934.58 235.916 Q1929.65 235.916 1927.78 234.087 Q1925.9 232.235 1925.9 227.374 L1925.9 213.3 L1922.78 213.3 L1922.78 209.99 L1925.9 209.99 L1925.9 202.629 L1930.18 202.629 Z" fill="#000000" fill-rule="nonzero" fill-opacity="1" /><path clip-path="url(#clip350)" d="M1959.58 213.971 Q1958.86 213.555 1958.01 213.37 Q1957.17 213.161 1956.16 213.161 Q1952.55 213.161 1950.6 215.522 Q1948.68 217.86 1948.68 222.258 L1948.68 235.916 L1944.4 235.916 L1944.4 209.99 L1948.68 209.99 L1948.68 214.018 Q1950.02 211.657 1952.17 210.522 Q1954.33 209.365 1957.41 209.365 Q1957.85 209.365 1958.38 209.434 Q1958.91 209.481 1959.56 209.596 L1959.58 213.971 Z" fill="#000000" fill-rule="nonzero" fill-opacity="1" /><path clip-path="url(#clip350)" d="M1975.83 222.883 Q1970.67 222.883 1968.68 224.064 Q1966.69 225.244 1966.69 228.092 Q1966.69 230.36 1968.17 231.703 Q1969.67 233.022 1972.24 233.022 Q1975.79 233.022 1977.92 230.522 Q1980.07 227.999 1980.07 223.832 L1980.07 222.883 L1975.83 222.883 M1984.33 221.124 L1984.33 235.916 L1980.07 235.916 L1980.07 231.981 Q1978.61 234.342 1976.43 235.476 Q1974.26 236.587 1971.11 236.587 Q1967.13 236.587 1964.77 234.365 Q1962.43 232.119 1962.43 228.369 Q1962.43 223.994 1965.35 221.772 Q1968.29 219.55 1974.1 219.55 L1980.07 219.55 L1980.07 219.133 Q1980.07 216.194 1978.12 214.596 Q1976.2 212.976 1972.71 212.976 Q1970.48 212.976 1968.38 213.508 Q1966.27 214.041 1964.33 215.106 L1964.33 211.17 Q1966.67 210.268 1968.86 209.828 Q1971.06 209.365 1973.15 209.365 Q1978.77 209.365 1981.55 212.282 Q1984.33 215.198 1984.33 221.124 Z" fill="#000000" fill-rule="nonzero" fill-opacity="1" /><path clip-path="url(#clip350)" d="M1993.1 209.99 L1997.36 209.99 L1997.36 235.916 L1993.1 235.916 L1993.1 209.99 M1993.1 199.897 L1997.36 199.897 L1997.36 205.291 L1993.1 205.291 L1993.1 199.897 Z" fill="#000000" fill-rule="nonzero" fill-opacity="1" /><path clip-path="url(#clip350)" d="M2027.82 220.268 L2027.82 235.916 L2023.56 235.916 L2023.56 220.407 Q2023.56 216.726 2022.13 214.897 Q2020.69 213.069 2017.82 213.069 Q2014.37 213.069 2012.38 215.268 Q2010.39 217.467 2010.39 221.263 L2010.39 235.916 L2006.11 235.916 L2006.11 209.99 L2010.39 209.99 L2010.39 214.018 Q2011.92 211.68 2013.98 210.522 Q2016.06 209.365 2018.77 209.365 Q2023.24 209.365 2025.53 212.143 Q2027.82 214.897 2027.82 220.268 Z" fill="#000000" fill-rule="nonzero" fill-opacity="1" /><path clip-path="url(#clip350)" d="M2036.32 209.99 L2040.58 209.99 L2040.58 235.916 L2036.32 235.916 L2036.32 209.99 M2036.32 199.897 L2040.58 199.897 L2040.58 205.291 L2036.32 205.291 L2036.32 199.897 Z" fill="#000000" fill-rule="nonzero" fill-opacity="1" /><path clip-path="url(#clip350)" d="M2071.04 220.268 L2071.04 235.916 L2066.78 235.916 L2066.78 220.407 Q2066.78 216.726 2065.35 214.897 Q2063.91 213.069 2061.04 213.069 Q2057.59 213.069 2055.6 215.268 Q2053.61 217.467 2053.61 221.263 L2053.61 235.916 L2049.33 235.916 L2049.33 209.99 L2053.61 209.99 L2053.61 214.018 Q2055.14 211.68 2057.2 210.522 Q2059.28 209.365 2061.99 209.365 Q2066.46 209.365 2068.75 212.143 Q2071.04 214.897 2071.04 220.268 Z" fill="#000000" fill-rule="nonzero" fill-opacity="1" /><path clip-path="url(#clip350)" d="M2096.6 222.652 Q2096.6 218.022 2094.67 215.476 Q2092.78 212.93 2089.33 212.93 Q2085.9 212.93 2083.98 215.476 Q2082.08 218.022 2082.08 222.652 Q2082.08 227.258 2083.98 229.805 Q2085.9 232.351 2089.33 232.351 Q2092.78 232.351 2094.67 229.805 Q2096.6 227.258 2096.6 222.652 M2100.85 232.698 Q2100.85 239.318 2097.91 242.536 Q2094.98 245.777 2088.91 245.777 Q2086.66 245.777 2084.67 245.43 Q2082.68 245.105 2080.81 244.411 L2080.81 240.268 Q2082.68 241.286 2084.51 241.772 Q2086.34 242.258 2088.24 242.258 Q2092.43 242.258 2094.51 240.059 Q2096.6 237.883 2096.6 233.462 L2096.6 231.356 Q2095.28 233.647 2093.22 234.781 Q2091.16 235.916 2088.29 235.916 Q2083.52 235.916 2080.6 232.281 Q2077.68 228.647 2077.68 222.652 Q2077.68 216.633 2080.6 212.999 Q2083.52 209.365 2088.29 209.365 Q2091.16 209.365 2093.22 210.499 Q2095.28 211.633 2096.6 213.925 L2096.6 209.99 L2100.85 209.99 L2100.85 232.698 Z" fill="#000000" fill-rule="nonzero" fill-opacity="1" /><path clip-path="url(#clip350)" d="M2122.54 221.032 L2135.02 221.032 L2135.02 224.828 L2122.54 224.828 L2122.54 221.032 Z" fill="#000000" fill-rule="nonzero" fill-opacity="1" /><path clip-path="url(#clip350)" d="M2158.28 231.981 L2165.92 231.981 L2165.92 205.615 L2157.61 207.282 L2157.61 203.022 L2165.88 201.356 L2170.55 201.356 L2170.55 231.981 L2178.19 231.981 L2178.19 235.916 L2158.28 235.916 L2158.28 231.981 Z" fill="#000000" fill-rule="nonzero" fill-opacity="1" /><path clip-path="url(#clip350)" d="M2197.64 204.434 Q2194.03 204.434 2192.2 207.999 Q2190.39 211.541 2190.39 218.67 Q2190.39 225.777 2192.2 229.342 Q2194.03 232.883 2197.64 232.883 Q2201.27 232.883 2203.08 229.342 Q2204.91 225.777 2204.91 218.67 Q2204.91 211.541 2203.08 207.999 Q2201.27 204.434 2197.64 204.434 M2197.64 200.731 Q2203.45 200.731 2206.5 205.337 Q2209.58 209.92 2209.58 218.67 Q2209.58 227.397 2206.5 232.004 Q2203.45 236.587 2197.64 236.587 Q2191.83 236.587 2188.75 232.004 Q2185.69 227.397 2185.69 218.67 Q2185.69 209.92 2188.75 205.337 Q2191.83 200.731 2197.64 200.731 Z" fill="#000000" fill-rule="nonzero" fill-opacity="1" /><circle clip-path="url(#clip350)" cx="1829.21" cy="270.476" r="20.48" fill="#e26f46" fill-rule="evenodd" fill-opacity="1" stroke="#000000" stroke-opacity="1" stroke-width="4.55111"/>
<path clip-path="url(#clip350)" d="M1922.78 261.83 L1927.29 261.83 L1935.39 283.589 L1943.49 261.83 L1948.01 261.83 L1938.29 287.756 L1932.5 287.756 L1922.78 261.83 Z" fill="#000000" fill-rule="nonzero" fill-opacity="1" /><path clip-path="url(#clip350)" d="M1965.67 274.723 Q1960.51 274.723 1958.52 275.904 Q1956.53 277.084 1956.53 279.932 Q1956.53 282.2 1958.01 283.543 Q1959.51 284.862 1962.08 284.862 Q1965.62 284.862 1967.75 282.362 Q1969.91 279.839 1969.91 275.672 L1969.91 274.723 L1965.67 274.723 M1974.17 272.964 L1974.17 287.756 L1969.91 287.756 L1969.91 283.821 Q1968.45 286.182 1966.27 287.316 Q1964.1 288.427 1960.95 288.427 Q1956.97 288.427 1954.61 286.205 Q1952.27 283.959 1952.27 280.209 Q1952.27 275.834 1955.18 273.612 Q1958.12 271.39 1963.93 271.39 L1969.91 271.39 L1969.91 270.973 Q1969.91 268.034 1967.96 266.436 Q1966.04 264.816 1962.55 264.816 Q1960.32 264.816 1958.22 265.348 Q1956.11 265.881 1954.17 266.946 L1954.17 263.01 Q1956.5 262.108 1958.7 261.668 Q1960.9 261.205 1962.99 261.205 Q1968.61 261.205 1971.39 264.122 Q1974.17 267.038 1974.17 272.964 Z" fill="#000000" fill-rule="nonzero" fill-opacity="1" /><path clip-path="url(#clip350)" d="M1982.94 251.737 L1987.2 251.737 L1987.2 287.756 L1982.94 287.756 L1982.94 251.737 Z" fill="#000000" fill-rule="nonzero" fill-opacity="1" /><path clip-path="url(#clip350)" d="M1996.11 261.83 L2000.37 261.83 L2000.37 287.756 L1996.11 287.756 L1996.11 261.83 M1996.11 251.737 L2000.37 251.737 L2000.37 257.131 L1996.11 257.131 L1996.11 251.737 Z" fill="#000000" fill-rule="nonzero" fill-opacity="1" /><path clip-path="url(#clip350)" d="M2026.34 265.765 L2026.34 251.737 L2030.6 251.737 L2030.6 287.756 L2026.34 287.756 L2026.34 283.867 Q2025 286.182 2022.94 287.316 Q2020.9 288.427 2018.03 288.427 Q2013.33 288.427 2010.37 284.677 Q2007.43 280.927 2007.43 274.816 Q2007.43 268.705 2010.37 264.955 Q2013.33 261.205 2018.03 261.205 Q2020.9 261.205 2022.94 262.339 Q2025 263.45 2026.34 265.765 M2011.83 274.816 Q2011.83 279.515 2013.75 282.2 Q2015.69 284.862 2019.07 284.862 Q2022.45 284.862 2024.4 282.2 Q2026.34 279.515 2026.34 274.816 Q2026.34 270.117 2024.4 267.455 Q2022.45 264.77 2019.07 264.77 Q2015.69 264.77 2013.75 267.455 Q2011.83 270.117 2011.83 274.816 Z" fill="#000000" fill-rule="nonzero" fill-opacity="1" /><path clip-path="url(#clip350)" d="M2051.16 274.723 Q2045.99 274.723 2044 275.904 Q2042.01 277.084 2042.01 279.932 Q2042.01 282.2 2043.49 283.543 Q2045 284.862 2047.57 284.862 Q2051.11 284.862 2053.24 282.362 Q2055.39 279.839 2055.39 275.672 L2055.39 274.723 L2051.16 274.723 M2059.65 272.964 L2059.65 287.756 L2055.39 287.756 L2055.39 283.821 Q2053.93 286.182 2051.76 287.316 Q2049.58 288.427 2046.43 288.427 Q2042.45 288.427 2040.09 286.205 Q2037.75 283.959 2037.75 280.209 Q2037.75 275.834 2040.67 273.612 Q2043.61 271.39 2049.42 271.39 L2055.39 271.39 L2055.39 270.973 Q2055.39 268.034 2053.45 266.436 Q2051.53 264.816 2048.03 264.816 Q2045.81 264.816 2043.7 265.348 Q2041.6 265.881 2039.65 266.946 L2039.65 263.01 Q2041.99 262.108 2044.19 261.668 Q2046.39 261.205 2048.47 261.205 Q2054.1 261.205 2056.87 264.122 Q2059.65 267.038 2059.65 272.964 Z" fill="#000000" fill-rule="nonzero" fill-opacity="1" /><path clip-path="url(#clip350)" d="M2072.64 254.469 L2072.64 261.83 L2081.41 261.83 L2081.41 265.14 L2072.64 265.14 L2072.64 279.214 Q2072.64 282.385 2073.49 283.288 Q2074.37 284.191 2077.04 284.191 L2081.41 284.191 L2081.41 287.756 L2077.04 287.756 Q2072.1 287.756 2070.23 285.927 Q2068.35 284.075 2068.35 279.214 L2068.35 265.14 L2065.23 265.14 L2065.23 261.83 L2068.35 261.83 L2068.35 254.469 L2072.64 254.469 Z" fill="#000000" fill-rule="nonzero" fill-opacity="1" /><path clip-path="url(#clip350)" d="M2087.01 261.83 L2091.27 261.83 L2091.27 287.756 L2087.01 287.756 L2087.01 261.83 M2087.01 251.737 L2091.27 251.737 L2091.27 257.131 L2087.01 257.131 L2087.01 251.737 Z" fill="#000000" fill-rule="nonzero" fill-opacity="1" /><path clip-path="url(#clip350)" d="M2110.23 264.816 Q2106.8 264.816 2104.81 267.501 Q2102.82 270.163 2102.82 274.816 Q2102.82 279.469 2104.79 282.154 Q2106.78 284.816 2110.23 284.816 Q2113.63 284.816 2115.62 282.131 Q2117.61 279.446 2117.61 274.816 Q2117.61 270.21 2115.62 267.524 Q2113.63 264.816 2110.23 264.816 M2110.23 261.205 Q2115.79 261.205 2118.96 264.816 Q2122.13 268.427 2122.13 274.816 Q2122.13 281.182 2118.96 284.816 Q2115.79 288.427 2110.23 288.427 Q2104.65 288.427 2101.48 284.816 Q2098.33 281.182 2098.33 274.816 Q2098.33 268.427 2101.48 264.816 Q2104.65 261.205 2110.23 261.205 Z" fill="#000000" fill-rule="nonzero" fill-opacity="1" /><path clip-path="url(#clip350)" d="M2150.74 272.108 L2150.74 287.756 L2146.48 287.756 L2146.48 272.247 Q2146.48 268.566 2145.04 266.737 Q2143.61 264.909 2140.74 264.909 Q2137.29 264.909 2135.3 267.108 Q2133.31 269.307 2133.31 273.103 L2133.31 287.756 L2129.03 287.756 L2129.03 261.83 L2133.31 261.83 L2133.31 265.858 Q2134.84 263.52 2136.9 262.362 Q2138.98 261.205 2141.69 261.205 Q2146.16 261.205 2148.45 263.983 Q2150.74 266.737 2150.74 272.108 Z" fill="#000000" fill-rule="nonzero" fill-opacity="1" /><path clip-path="url(#clip350)" d="M2172.15 272.872 L2184.63 272.872 L2184.63 276.668 L2172.15 276.668 L2172.15 272.872 Z" fill="#000000" fill-rule="nonzero" fill-opacity="1" /><path clip-path="url(#clip350)" d="M2207.89 283.821 L2215.53 283.821 L2215.53 257.455 L2207.22 259.122 L2207.22 254.862 L2215.48 253.196 L2220.16 253.196 L2220.16 283.821 L2227.8 283.821 L2227.8 287.756 L2207.89 287.756 L2207.89 283.821 Z" fill="#000000" fill-rule="nonzero" fill-opacity="1" /><path clip-path="url(#clip350)" d="M2247.24 256.274 Q2243.63 256.274 2241.8 259.839 Q2240 263.381 2240 270.51 Q2240 277.617 2241.8 281.182 Q2243.63 284.723 2247.24 284.723 Q2250.88 284.723 2252.68 281.182 Q2254.51 277.617 2254.51 270.51 Q2254.51 263.381 2252.68 259.839 Q2250.88 256.274 2247.24 256.274 M2247.24 252.571 Q2253.05 252.571 2256.11 257.177 Q2259.19 261.76 2259.19 270.51 Q2259.19 279.237 2256.11 283.844 Q2253.05 288.427 2247.24 288.427 Q2241.43 288.427 2238.35 283.844 Q2235.3 279.237 2235.3 270.51 Q2235.3 261.76 2238.35 257.177 Q2241.43 252.571 2247.24 252.571 Z" fill="#000000" fill-rule="nonzero" fill-opacity="1" /></svg>
