<?xml version="1.0" encoding="utf-8"?>
<svg xmlns="http://www.w3.org/2000/svg" xmlns:xlink="http://www.w3.org/1999/xlink" width="600" height="400" viewBox="0 0 2400 1600">
<defs>
  <clipPath id="clip150">
    <rect x="0" y="0" width="2400" height="1600"/>
  </clipPath>
</defs>
<path clip-path="url(#clip150)" d="M0 1600 L2400 1600 L2400 0 L0 0  Z" fill="#ffffff" fill-rule="evenodd" fill-opacity="1"/>
<defs>
  <clipPath id="clip151">
    <rect x="480" y="0" width="1681" height="1600"/>
  </clipPath>
</defs>
<path clip-path="url(#clip150)" d="M367.409 1423.18 L2352.76 1423.18 L2352.76 123.472 L367.409 123.472  Z" fill="#ffffff" fill-rule="evenodd" fill-opacity="1"/>
<defs>
  <clipPath id="clip152">
    <rect x="367" y="123" width="1986" height="1301"/>
  </clipPath>
</defs>
<polyline clip-path="url(#clip152)" style="stroke:#000000; stroke-linecap:round; stroke-linejoin:round; stroke-width:2; stroke-opacity:0.1; fill:none" points="394.333,1423.18 394.333,123.472 "/>
<polyline clip-path="url(#clip152)" style="stroke:#000000; stroke-linecap:round; stroke-linejoin:round; stroke-width:2; stroke-opacity:0.1; fill:none" points="862.575,1423.18 862.575,123.472 "/>
<polyline clip-path="url(#clip152)" style="stroke:#000000; stroke-linecap:round; stroke-linejoin:round; stroke-width:2; stroke-opacity:0.1; fill:none" points="1330.82,1423.18 1330.82,123.472 "/>
<polyline clip-path="url(#clip152)" style="stroke:#000000; stroke-linecap:round; stroke-linejoin:round; stroke-width:2; stroke-opacity:0.1; fill:none" points="1799.06,1423.18 1799.06,123.472 "/>
<polyline clip-path="url(#clip152)" style="stroke:#000000; stroke-linecap:round; stroke-linejoin:round; stroke-width:2; stroke-opacity:0.1; fill:none" points="2267.3,1423.18 2267.3,123.472 "/>
<polyline clip-path="url(#clip150)" style="stroke:#000000; stroke-linecap:round; stroke-linejoin:round; stroke-width:4; stroke-opacity:1; fill:none" points="367.409,1423.18 2352.76,1423.18 "/>
<polyline clip-path="url(#clip150)" style="stroke:#000000; stroke-linecap:round; stroke-linejoin:round; stroke-width:4; stroke-opacity:1; fill:none" points="394.333,1423.18 394.333,1404.28 "/>
<polyline clip-path="url(#clip150)" style="stroke:#000000; stroke-linecap:round; stroke-linejoin:round; stroke-width:4; stroke-opacity:1; fill:none" points="862.575,1423.18 862.575,1404.28 "/>
<polyline clip-path="url(#clip150)" style="stroke:#000000; stroke-linecap:round; stroke-linejoin:round; stroke-width:4; stroke-opacity:1; fill:none" points="1330.82,1423.18 1330.82,1404.28 "/>
<polyline clip-path="url(#clip150)" style="stroke:#000000; stroke-linecap:round; stroke-linejoin:round; stroke-width:4; stroke-opacity:1; fill:none" points="1799.06,1423.18 1799.06,1404.28 "/>
<polyline clip-path="url(#clip150)" style="stroke:#000000; stroke-linecap:round; stroke-linejoin:round; stroke-width:4; stroke-opacity:1; fill:none" points="2267.3,1423.18 2267.3,1404.28 "/>
<path clip-path="url(#clip150)" d="M265.271 1481.64 L281.59 1481.64 L281.59 1485.58 L259.646 1485.58 L259.646 1481.64 Q262.308 1478.89 266.891 1474.26 Q271.498 1469.61 272.678 1468.27 Q274.924 1465.74 275.803 1464.01 Q276.706 1462.25 276.706 1460.56 Q276.706 1457.8 274.762 1456.07 Q272.84 1454.33 269.739 1454.33 Q267.54 1454.33 265.086 1455.09 Q262.655 1455.86 259.878 1457.41 L259.878 1452.69 Q262.702 1451.55 265.155 1450.97 Q267.609 1450.39 269.646 1450.39 Q275.016 1450.39 278.211 1453.08 Q281.405 1455.77 281.405 1460.26 Q281.405 1462.39 280.595 1464.31 Q279.808 1466.2 277.701 1468.8 Q277.123 1469.47 274.021 1472.69 Q270.919 1475.88 265.271 1481.64 Z" fill="#000000" fill-rule="nonzero" fill-opacity="1" /><path clip-path="url(#clip150)" d="M301.405 1454.1 Q297.794 1454.1 295.965 1457.66 Q294.16 1461.2 294.16 1468.33 Q294.16 1475.44 295.965 1479.01 Q297.794 1482.55 301.405 1482.55 Q305.039 1482.55 306.845 1479.01 Q308.674 1475.44 308.674 1468.33 Q308.674 1461.2 306.845 1457.66 Q305.039 1454.1 301.405 1454.1 M301.405 1450.39 Q307.215 1450.39 310.271 1455 Q313.349 1459.58 313.349 1468.33 Q313.349 1477.06 310.271 1481.67 Q307.215 1486.25 301.405 1486.25 Q295.595 1486.25 292.516 1481.67 Q289.461 1477.06 289.461 1468.33 Q289.461 1459.58 292.516 1455 Q295.595 1450.39 301.405 1450.39 Z" fill="#000000" fill-rule="nonzero" fill-opacity="1" /><path clip-path="url(#clip150)" d="M325.595 1481.64 L341.914 1481.64 L341.914 1485.58 L319.97 1485.58 L319.97 1481.64 Q322.632 1478.89 327.215 1474.26 Q331.822 1469.61 333.002 1468.27 Q335.247 1465.74 336.127 1464.01 Q337.03 1462.25 337.03 1460.56 Q337.03 1457.8 335.085 1456.07 Q333.164 1454.33 330.062 1454.33 Q327.863 1454.33 325.41 1455.09 Q322.979 1455.86 320.201 1457.41 L320.201 1452.69 Q323.025 1451.55 325.479 1450.97 Q327.933 1450.39 329.97 1450.39 Q335.34 1450.39 338.534 1453.08 Q341.729 1455.77 341.729 1460.26 Q341.729 1462.39 340.919 1464.31 Q340.132 1466.2 338.025 1468.8 Q337.447 1469.47 334.345 1472.69 Q331.243 1475.88 325.595 1481.64 Z" fill="#000000" fill-rule="nonzero" fill-opacity="1" /><path clip-path="url(#clip150)" d="M352.539 1481.64 L360.178 1481.64 L360.178 1455.28 L351.868 1456.95 L351.868 1452.69 L360.132 1451.02 L364.808 1451.02 L364.808 1481.64 L372.446 1481.64 L372.446 1485.58 L352.539 1485.58 L352.539 1481.64 Z" fill="#000000" fill-rule="nonzero" fill-opacity="1" /><path clip-path="url(#clip150)" d="M379.136 1470.7 L391.613 1470.7 L391.613 1474.49 L379.136 1474.49 L379.136 1470.7 Z" fill="#000000" fill-rule="nonzero" fill-opacity="1" /><path clip-path="url(#clip150)" d="M408.997 1454.1 Q405.386 1454.1 403.557 1457.66 Q401.752 1461.2 401.752 1468.33 Q401.752 1475.44 403.557 1479.01 Q405.386 1482.55 408.997 1482.55 Q412.631 1482.55 414.437 1479.01 Q416.266 1475.44 416.266 1468.33 Q416.266 1461.2 414.437 1457.66 Q412.631 1454.1 408.997 1454.1 M408.997 1450.39 Q414.807 1450.39 417.863 1455 Q420.941 1459.58 420.941 1468.33 Q420.941 1477.06 417.863 1481.67 Q414.807 1486.25 408.997 1486.25 Q403.187 1486.25 400.108 1481.67 Q397.053 1477.06 397.053 1468.33 Q397.053 1459.58 400.108 1455 Q403.187 1450.39 408.997 1450.39 Z" fill="#000000" fill-rule="nonzero" fill-opacity="1" /><path clip-path="url(#clip150)" d="M429.969 1481.64 L437.608 1481.64 L437.608 1455.28 L429.298 1456.95 L429.298 1452.69 L437.562 1451.02 L442.238 1451.02 L442.238 1481.64 L449.876 1481.64 L449.876 1485.58 L429.969 1485.58 L429.969 1481.64 Z" fill="#000000" fill-rule="nonzero" fill-opacity="1" /><path clip-path="url(#clip150)" d="M456.566 1470.7 L469.043 1470.7 L469.043 1474.49 L456.566 1474.49 L456.566 1470.7 Z" fill="#000000" fill-rule="nonzero" fill-opacity="1" /><path clip-path="url(#clip150)" d="M486.427 1454.1 Q482.816 1454.1 480.987 1457.66 Q479.182 1461.2 479.182 1468.33 Q479.182 1475.44 480.987 1479.01 Q482.816 1482.55 486.427 1482.55 Q490.061 1482.55 491.867 1479.01 Q493.696 1475.44 493.696 1468.33 Q493.696 1461.2 491.867 1457.66 Q490.061 1454.1 486.427 1454.1 M486.427 1450.39 Q492.237 1450.39 495.293 1455 Q498.372 1459.58 498.372 1468.33 Q498.372 1477.06 495.293 1481.67 Q492.237 1486.25 486.427 1486.25 Q480.617 1486.25 477.538 1481.67 Q474.483 1477.06 474.483 1468.33 Q474.483 1459.58 477.538 1455 Q480.617 1450.39 486.427 1450.39 Z" fill="#000000" fill-rule="nonzero" fill-opacity="1" /><path clip-path="url(#clip150)" d="M519.436 1455.09 L507.631 1473.54 L519.436 1473.54 L519.436 1455.09 M518.209 1451.02 L524.089 1451.02 L524.089 1473.54 L529.02 1473.54 L529.02 1477.43 L524.089 1477.43 L524.089 1485.58 L519.436 1485.58 L519.436 1477.43 L503.835 1477.43 L503.835 1472.92 L518.209 1451.02 Z" fill="#000000" fill-rule="nonzero" fill-opacity="1" /><path clip-path="url(#clip150)" d="M734.37 1481.64 L750.689 1481.64 L750.689 1485.58 L728.745 1485.58 L728.745 1481.64 Q731.407 1478.89 735.99 1474.26 Q740.597 1469.61 741.777 1468.27 Q744.022 1465.74 744.902 1464.01 Q745.805 1462.25 745.805 1460.56 Q745.805 1457.8 743.86 1456.07 Q741.939 1454.33 738.837 1454.33 Q736.638 1454.33 734.185 1455.09 Q731.754 1455.86 728.976 1457.41 L728.976 1452.69 Q731.8 1451.55 734.254 1450.97 Q736.708 1450.39 738.745 1450.39 Q744.115 1450.39 747.309 1453.08 Q750.504 1455.77 750.504 1460.26 Q750.504 1462.39 749.694 1464.31 Q748.907 1466.2 746.8 1468.8 Q746.221 1469.47 743.12 1472.69 Q740.018 1475.88 734.37 1481.64 Z" fill="#000000" fill-rule="nonzero" fill-opacity="1" /><path clip-path="url(#clip150)" d="M770.504 1454.1 Q766.893 1454.1 765.064 1457.66 Q763.258 1461.2 763.258 1468.33 Q763.258 1475.44 765.064 1479.01 Q766.893 1482.55 770.504 1482.55 Q774.138 1482.55 775.944 1479.01 Q777.772 1475.44 777.772 1468.33 Q777.772 1461.2 775.944 1457.66 Q774.138 1454.1 770.504 1454.1 M770.504 1450.39 Q776.314 1450.39 779.369 1455 Q782.448 1459.58 782.448 1468.33 Q782.448 1477.06 779.369 1481.67 Q776.314 1486.25 770.504 1486.25 Q764.694 1486.25 761.615 1481.67 Q758.559 1477.06 758.559 1468.33 Q758.559 1459.58 761.615 1455 Q764.694 1450.39 770.504 1450.39 Z" fill="#000000" fill-rule="nonzero" fill-opacity="1" /><path clip-path="url(#clip150)" d="M794.693 1481.64 L811.013 1481.64 L811.013 1485.58 L789.068 1485.58 L789.068 1481.64 Q791.731 1478.89 796.314 1474.26 Q800.92 1469.61 802.101 1468.27 Q804.346 1465.74 805.226 1464.01 Q806.129 1462.25 806.129 1460.56 Q806.129 1457.8 804.184 1456.07 Q802.263 1454.33 799.161 1454.33 Q796.962 1454.33 794.508 1455.09 Q792.078 1455.86 789.3 1457.41 L789.3 1452.69 Q792.124 1451.55 794.578 1450.97 Q797.031 1450.39 799.068 1450.39 Q804.439 1450.39 807.633 1453.08 Q810.828 1455.77 810.828 1460.26 Q810.828 1462.39 810.017 1464.31 Q809.23 1466.2 807.124 1468.8 Q806.545 1469.47 803.443 1472.69 Q800.342 1475.88 794.693 1481.64 Z" fill="#000000" fill-rule="nonzero" fill-opacity="1" /><path clip-path="url(#clip150)" d="M821.638 1481.64 L829.277 1481.64 L829.277 1455.28 L820.966 1456.95 L820.966 1452.69 L829.23 1451.02 L833.906 1451.02 L833.906 1481.64 L841.545 1481.64 L841.545 1485.58 L821.638 1485.58 L821.638 1481.64 Z" fill="#000000" fill-rule="nonzero" fill-opacity="1" /><path clip-path="url(#clip150)" d="M848.235 1470.7 L860.712 1470.7 L860.712 1474.49 L848.235 1474.49 L848.235 1470.7 Z" fill="#000000" fill-rule="nonzero" fill-opacity="1" /><path clip-path="url(#clip150)" d="M878.096 1454.1 Q874.485 1454.1 872.656 1457.66 Q870.85 1461.2 870.85 1468.33 Q870.85 1475.44 872.656 1479.01 Q874.485 1482.55 878.096 1482.55 Q881.73 1482.55 883.536 1479.01 Q885.364 1475.44 885.364 1468.33 Q885.364 1461.2 883.536 1457.66 Q881.73 1454.1 878.096 1454.1 M878.096 1450.39 Q883.906 1450.39 886.961 1455 Q890.04 1459.58 890.04 1468.33 Q890.04 1477.06 886.961 1481.67 Q883.906 1486.25 878.096 1486.25 Q872.286 1486.25 869.207 1481.67 Q866.151 1477.06 866.151 1468.33 Q866.151 1459.58 869.207 1455 Q872.286 1450.39 878.096 1450.39 Z" fill="#000000" fill-rule="nonzero" fill-opacity="1" /><path clip-path="url(#clip150)" d="M899.068 1481.64 L906.707 1481.64 L906.707 1455.28 L898.397 1456.95 L898.397 1452.69 L906.66 1451.02 L911.336 1451.02 L911.336 1481.64 L918.975 1481.64 L918.975 1485.58 L899.068 1485.58 L899.068 1481.64 Z" fill="#000000" fill-rule="nonzero" fill-opacity="1" /><path clip-path="url(#clip150)" d="M925.665 1470.7 L938.142 1470.7 L938.142 1474.49 L925.665 1474.49 L925.665 1470.7 Z" fill="#000000" fill-rule="nonzero" fill-opacity="1" /><path clip-path="url(#clip150)" d="M946.336 1481.64 L953.975 1481.64 L953.975 1455.28 L945.665 1456.95 L945.665 1452.69 L953.929 1451.02 L958.605 1451.02 L958.605 1481.64 L966.243 1481.64 L966.243 1485.58 L946.336 1485.58 L946.336 1481.64 Z" fill="#000000" fill-rule="nonzero" fill-opacity="1" /><path clip-path="url(#clip150)" d="M976.498 1481.64 L984.137 1481.64 L984.137 1455.28 L975.827 1456.95 L975.827 1452.69 L984.091 1451.02 L988.766 1451.02 L988.766 1481.64 L996.405 1481.64 L996.405 1485.58 L976.498 1485.58 L976.498 1481.64 Z" fill="#000000" fill-rule="nonzero" fill-opacity="1" /><path clip-path="url(#clip150)" d="M1202.04 1481.64 L1218.36 1481.64 L1218.36 1485.58 L1196.42 1485.58 L1196.42 1481.64 Q1199.08 1478.89 1203.67 1474.26 Q1208.27 1469.61 1209.45 1468.27 Q1211.7 1465.74 1212.58 1464.01 Q1213.48 1462.25 1213.48 1460.56 Q1213.48 1457.8 1211.54 1456.07 Q1209.61 1454.33 1206.51 1454.33 Q1204.31 1454.33 1201.86 1455.09 Q1199.43 1455.86 1196.65 1457.41 L1196.65 1452.69 Q1199.48 1451.55 1201.93 1450.97 Q1204.38 1450.39 1206.42 1450.39 Q1211.79 1450.39 1214.98 1453.08 Q1218.18 1455.77 1218.18 1460.26 Q1218.18 1462.39 1217.37 1464.31 Q1216.58 1466.2 1214.48 1468.8 Q1213.9 1469.47 1210.79 1472.69 Q1207.69 1475.88 1202.04 1481.64 Z" fill="#000000" fill-rule="nonzero" fill-opacity="1" /><path clip-path="url(#clip150)" d="M1238.18 1454.1 Q1234.57 1454.1 1232.74 1457.66 Q1230.93 1461.2 1230.93 1468.33 Q1230.93 1475.44 1232.74 1479.01 Q1234.57 1482.55 1238.18 1482.55 Q1241.81 1482.55 1243.62 1479.01 Q1245.45 1475.44 1245.45 1468.33 Q1245.45 1461.2 1243.62 1457.66 Q1241.81 1454.1 1238.18 1454.1 M1238.18 1450.39 Q1243.99 1450.39 1247.04 1455 Q1250.12 1459.58 1250.12 1468.33 Q1250.12 1477.06 1247.04 1481.67 Q1243.99 1486.25 1238.18 1486.25 Q1232.37 1486.25 1229.29 1481.67 Q1226.23 1477.06 1226.23 1468.33 Q1226.23 1459.58 1229.29 1455 Q1232.37 1450.39 1238.18 1450.39 Z" fill="#000000" fill-rule="nonzero" fill-opacity="1" /><path clip-path="url(#clip150)" d="M1262.37 1481.64 L1278.69 1481.64 L1278.69 1485.58 L1256.74 1485.58 L1256.74 1481.64 Q1259.41 1478.89 1263.99 1474.26 Q1268.6 1469.61 1269.78 1468.27 Q1272.02 1465.74 1272.9 1464.01 Q1273.8 1462.25 1273.8 1460.56 Q1273.8 1457.8 1271.86 1456.07 Q1269.94 1454.33 1266.84 1454.33 Q1264.64 1454.33 1262.18 1455.09 Q1259.75 1455.86 1256.98 1457.41 L1256.98 1452.69 Q1259.8 1451.55 1262.25 1450.97 Q1264.71 1450.39 1266.74 1450.39 Q1272.11 1450.39 1275.31 1453.08 Q1278.5 1455.77 1278.5 1460.26 Q1278.5 1462.39 1277.69 1464.31 Q1276.91 1466.2 1274.8 1468.8 Q1274.22 1469.47 1271.12 1472.69 Q1268.02 1475.88 1262.37 1481.64 Z" fill="#000000" fill-rule="nonzero" fill-opacity="1" /><path clip-path="url(#clip150)" d="M1289.31 1481.64 L1296.95 1481.64 L1296.95 1455.28 L1288.64 1456.95 L1288.64 1452.69 L1296.91 1451.02 L1301.58 1451.02 L1301.58 1481.64 L1309.22 1481.64 L1309.22 1485.58 L1289.31 1485.58 L1289.31 1481.64 Z" fill="#000000" fill-rule="nonzero" fill-opacity="1" /><path clip-path="url(#clip150)" d="M1315.91 1470.7 L1328.39 1470.7 L1328.39 1474.49 L1315.91 1474.49 L1315.91 1470.7 Z" fill="#000000" fill-rule="nonzero" fill-opacity="1" /><path clip-path="url(#clip150)" d="M1345.77 1454.1 Q1342.16 1454.1 1340.33 1457.66 Q1338.53 1461.2 1338.53 1468.33 Q1338.53 1475.44 1340.33 1479.01 Q1342.16 1482.55 1345.77 1482.55 Q1349.41 1482.55 1351.21 1479.01 Q1353.04 1475.44 1353.04 1468.33 Q1353.04 1461.2 1351.21 1457.66 Q1349.41 1454.1 1345.77 1454.1 M1345.77 1450.39 Q1351.58 1450.39 1354.64 1455 Q1357.72 1459.58 1357.72 1468.33 Q1357.72 1477.06 1354.64 1481.67 Q1351.58 1486.25 1345.77 1486.25 Q1339.96 1486.25 1336.88 1481.67 Q1333.83 1477.06 1333.83 1468.33 Q1333.83 1459.58 1336.88 1455 Q1339.96 1450.39 1345.77 1450.39 Z" fill="#000000" fill-rule="nonzero" fill-opacity="1" /><path clip-path="url(#clip150)" d="M1366.74 1481.64 L1374.38 1481.64 L1374.38 1455.28 L1366.07 1456.95 L1366.07 1452.69 L1374.34 1451.02 L1379.01 1451.02 L1379.01 1481.64 L1386.65 1481.64 L1386.65 1485.58 L1366.74 1485.58 L1366.74 1481.64 Z" fill="#000000" fill-rule="nonzero" fill-opacity="1" /><path clip-path="url(#clip150)" d="M1393.34 1470.7 L1405.82 1470.7 L1405.82 1474.49 L1393.34 1474.49 L1393.34 1470.7 Z" fill="#000000" fill-rule="nonzero" fill-opacity="1" /><path clip-path="url(#clip150)" d="M1414.01 1481.64 L1421.65 1481.64 L1421.65 1455.28 L1413.34 1456.95 L1413.34 1452.69 L1421.6 1451.02 L1426.28 1451.02 L1426.28 1481.64 L1433.92 1481.64 L1433.92 1485.58 L1414.01 1485.58 L1414.01 1481.64 Z" fill="#000000" fill-rule="nonzero" fill-opacity="1" /><path clip-path="url(#clip150)" d="M1453.36 1469.17 Q1450.03 1469.17 1448.11 1470.95 Q1446.21 1472.73 1446.21 1475.86 Q1446.21 1478.98 1448.11 1480.77 Q1450.03 1482.55 1453.36 1482.55 Q1456.7 1482.55 1458.62 1480.77 Q1460.54 1478.96 1460.54 1475.86 Q1460.54 1472.73 1458.62 1470.95 Q1456.72 1469.17 1453.36 1469.17 M1448.69 1467.18 Q1445.68 1466.44 1443.99 1464.38 Q1442.32 1462.32 1442.32 1459.35 Q1442.32 1455.21 1445.26 1452.8 Q1448.22 1450.39 1453.36 1450.39 Q1458.52 1450.39 1461.46 1452.8 Q1464.4 1455.21 1464.4 1459.35 Q1464.4 1462.32 1462.71 1464.38 Q1461.05 1466.44 1458.06 1467.18 Q1461.44 1467.96 1463.32 1470.26 Q1465.21 1472.55 1465.21 1475.86 Q1465.21 1480.88 1462.14 1483.57 Q1459.08 1486.25 1453.36 1486.25 Q1447.65 1486.25 1444.57 1483.57 Q1441.51 1480.88 1441.51 1475.86 Q1441.51 1472.55 1443.41 1470.26 Q1445.31 1467.96 1448.69 1467.18 M1446.97 1459.79 Q1446.97 1462.48 1448.64 1463.98 Q1450.33 1465.49 1453.36 1465.49 Q1456.37 1465.49 1458.06 1463.98 Q1459.77 1462.48 1459.77 1459.79 Q1459.77 1457.11 1458.06 1455.6 Q1456.37 1454.1 1453.36 1454.1 Q1450.33 1454.1 1448.64 1455.6 Q1446.97 1457.11 1446.97 1459.79 Z" fill="#000000" fill-rule="nonzero" fill-opacity="1" /><path clip-path="url(#clip150)" d="M1670.74 1481.64 L1687.06 1481.64 L1687.06 1485.58 L1665.11 1485.58 L1665.11 1481.64 Q1667.78 1478.89 1672.36 1474.26 Q1676.97 1469.61 1678.15 1468.27 Q1680.39 1465.74 1681.27 1464.01 Q1682.17 1462.25 1682.17 1460.56 Q1682.17 1457.8 1680.23 1456.07 Q1678.31 1454.33 1675.21 1454.33 Q1673.01 1454.33 1670.55 1455.09 Q1668.12 1455.86 1665.34 1457.41 L1665.34 1452.69 Q1668.17 1451.55 1670.62 1450.97 Q1673.08 1450.39 1675.11 1450.39 Q1680.48 1450.39 1683.68 1453.08 Q1686.87 1455.77 1686.87 1460.26 Q1686.87 1462.39 1686.06 1464.31 Q1685.28 1466.2 1683.17 1468.8 Q1682.59 1469.47 1679.49 1472.69 Q1676.39 1475.88 1670.74 1481.64 Z" fill="#000000" fill-rule="nonzero" fill-opacity="1" /><path clip-path="url(#clip150)" d="M1706.87 1454.1 Q1703.26 1454.1 1701.43 1457.66 Q1699.63 1461.2 1699.63 1468.33 Q1699.63 1475.44 1701.43 1479.01 Q1703.26 1482.55 1706.87 1482.55 Q1710.51 1482.55 1712.31 1479.01 Q1714.14 1475.44 1714.14 1468.33 Q1714.14 1461.2 1712.31 1457.66 Q1710.51 1454.1 1706.87 1454.1 M1706.87 1450.39 Q1712.68 1450.39 1715.74 1455 Q1718.82 1459.58 1718.82 1468.33 Q1718.82 1477.06 1715.74 1481.67 Q1712.68 1486.25 1706.87 1486.25 Q1701.06 1486.25 1697.98 1481.67 Q1694.93 1477.06 1694.93 1468.33 Q1694.93 1459.58 1697.98 1455 Q1701.06 1450.39 1706.87 1450.39 Z" fill="#000000" fill-rule="nonzero" fill-opacity="1" /><path clip-path="url(#clip150)" d="M1731.06 1481.64 L1747.38 1481.64 L1747.38 1485.58 L1725.44 1485.58 L1725.44 1481.64 Q1728.1 1478.89 1732.68 1474.26 Q1737.29 1469.61 1738.47 1468.27 Q1740.71 1465.74 1741.59 1464.01 Q1742.5 1462.25 1742.5 1460.56 Q1742.5 1457.8 1740.55 1456.07 Q1738.63 1454.33 1735.53 1454.33 Q1733.33 1454.33 1730.88 1455.09 Q1728.45 1455.86 1725.67 1457.41 L1725.67 1452.69 Q1728.49 1451.55 1730.95 1450.97 Q1733.4 1450.39 1735.44 1450.39 Q1740.81 1450.39 1744 1453.08 Q1747.2 1455.77 1747.2 1460.26 Q1747.2 1462.39 1746.39 1464.31 Q1745.6 1466.2 1743.49 1468.8 Q1742.91 1469.47 1739.81 1472.69 Q1736.71 1475.88 1731.06 1481.64 Z" fill="#000000" fill-rule="nonzero" fill-opacity="1" /><path clip-path="url(#clip150)" d="M1758.01 1481.64 L1765.65 1481.64 L1765.65 1455.28 L1757.34 1456.95 L1757.34 1452.69 L1765.6 1451.02 L1770.27 1451.02 L1770.27 1481.64 L1777.91 1481.64 L1777.91 1485.58 L1758.01 1485.58 L1758.01 1481.64 Z" fill="#000000" fill-rule="nonzero" fill-opacity="1" /><path clip-path="url(#clip150)" d="M1784.6 1470.7 L1797.08 1470.7 L1797.08 1474.49 L1784.6 1474.49 L1784.6 1470.7 Z" fill="#000000" fill-rule="nonzero" fill-opacity="1" /><path clip-path="url(#clip150)" d="M1814.46 1454.1 Q1810.85 1454.1 1809.02 1457.66 Q1807.22 1461.2 1807.22 1468.33 Q1807.22 1475.44 1809.02 1479.01 Q1810.85 1482.55 1814.46 1482.55 Q1818.1 1482.55 1819.9 1479.01 Q1821.73 1475.44 1821.73 1468.33 Q1821.73 1461.2 1819.9 1457.66 Q1818.1 1454.1 1814.46 1454.1 M1814.46 1450.39 Q1820.27 1450.39 1823.33 1455 Q1826.41 1459.58 1826.41 1468.33 Q1826.41 1477.06 1823.33 1481.67 Q1820.27 1486.25 1814.46 1486.25 Q1808.65 1486.25 1805.58 1481.67 Q1802.52 1477.06 1802.52 1468.33 Q1802.52 1459.58 1805.58 1455 Q1808.65 1450.39 1814.46 1450.39 Z" fill="#000000" fill-rule="nonzero" fill-opacity="1" /><path clip-path="url(#clip150)" d="M1835.44 1481.64 L1843.08 1481.64 L1843.08 1455.28 L1834.77 1456.95 L1834.77 1452.69 L1843.03 1451.02 L1847.71 1451.02 L1847.71 1481.64 L1855.34 1481.64 L1855.34 1485.58 L1835.44 1485.58 L1835.44 1481.64 Z" fill="#000000" fill-rule="nonzero" fill-opacity="1" /><path clip-path="url(#clip150)" d="M1862.03 1470.7 L1874.51 1470.7 L1874.51 1474.49 L1862.03 1474.49 L1862.03 1470.7 Z" fill="#000000" fill-rule="nonzero" fill-opacity="1" /><path clip-path="url(#clip150)" d="M1885.92 1481.64 L1902.24 1481.64 L1902.24 1485.58 L1880.3 1485.58 L1880.3 1481.64 Q1882.96 1478.89 1887.54 1474.26 Q1892.15 1469.61 1893.33 1468.27 Q1895.58 1465.74 1896.45 1464.01 Q1897.36 1462.25 1897.36 1460.56 Q1897.36 1457.8 1895.41 1456.07 Q1893.49 1454.33 1890.39 1454.33 Q1888.19 1454.33 1885.74 1455.09 Q1883.31 1455.86 1880.53 1457.41 L1880.53 1452.69 Q1883.35 1451.55 1885.81 1450.97 Q1888.26 1450.39 1890.3 1450.39 Q1895.67 1450.39 1898.86 1453.08 Q1902.06 1455.77 1902.06 1460.26 Q1902.06 1462.39 1901.25 1464.31 Q1900.46 1466.2 1898.35 1468.8 Q1897.77 1469.47 1894.67 1472.69 Q1891.57 1475.88 1885.92 1481.64 Z" fill="#000000" fill-rule="nonzero" fill-opacity="1" /><path clip-path="url(#clip150)" d="M1912.1 1451.02 L1930.46 1451.02 L1930.46 1454.96 L1916.39 1454.96 L1916.39 1463.43 Q1917.4 1463.08 1918.42 1462.92 Q1919.44 1462.73 1920.46 1462.73 Q1926.25 1462.73 1929.63 1465.9 Q1933.01 1469.08 1933.01 1474.49 Q1933.01 1480.07 1929.53 1483.17 Q1926.06 1486.25 1919.74 1486.25 Q1917.57 1486.25 1915.3 1485.88 Q1913.05 1485.51 1910.64 1484.77 L1910.64 1480.07 Q1912.73 1481.2 1914.95 1481.76 Q1917.17 1482.32 1919.65 1482.32 Q1923.65 1482.32 1925.99 1480.21 Q1928.33 1478.1 1928.33 1474.49 Q1928.33 1470.88 1925.99 1468.77 Q1923.65 1466.67 1919.65 1466.67 Q1917.77 1466.67 1915.9 1467.08 Q1914.05 1467.5 1912.1 1468.38 L1912.1 1451.02 Z" fill="#000000" fill-rule="nonzero" fill-opacity="1" /><path clip-path="url(#clip150)" d="M2139.1 1481.64 L2155.42 1481.64 L2155.42 1485.58 L2133.47 1485.58 L2133.47 1481.64 Q2136.13 1478.89 2140.72 1474.26 Q2145.32 1469.61 2146.5 1468.27 Q2148.75 1465.74 2149.63 1464.01 Q2150.53 1462.25 2150.53 1460.56 Q2150.53 1457.8 2148.59 1456.07 Q2146.67 1454.33 2143.56 1454.33 Q2141.36 1454.33 2138.91 1455.09 Q2136.48 1455.86 2133.7 1457.41 L2133.7 1452.69 Q2136.53 1451.55 2138.98 1450.97 Q2141.43 1450.39 2143.47 1450.39 Q2148.84 1450.39 2152.04 1453.08 Q2155.23 1455.77 2155.23 1460.26 Q2155.23 1462.39 2154.42 1464.31 Q2153.63 1466.2 2151.53 1468.8 Q2150.95 1469.47 2147.85 1472.69 Q2144.74 1475.88 2139.1 1481.64 Z" fill="#000000" fill-rule="nonzero" fill-opacity="1" /><path clip-path="url(#clip150)" d="M2175.23 1454.1 Q2171.62 1454.1 2169.79 1457.66 Q2167.99 1461.2 2167.99 1468.33 Q2167.99 1475.44 2169.79 1479.01 Q2171.62 1482.55 2175.23 1482.55 Q2178.86 1482.55 2180.67 1479.01 Q2182.5 1475.44 2182.5 1468.33 Q2182.5 1461.2 2180.67 1457.66 Q2178.86 1454.1 2175.23 1454.1 M2175.23 1450.39 Q2181.04 1450.39 2184.1 1455 Q2187.17 1459.58 2187.17 1468.33 Q2187.17 1477.06 2184.1 1481.67 Q2181.04 1486.25 2175.23 1486.25 Q2169.42 1486.25 2166.34 1481.67 Q2163.29 1477.06 2163.29 1468.33 Q2163.29 1459.58 2166.34 1455 Q2169.42 1450.39 2175.23 1450.39 Z" fill="#000000" fill-rule="nonzero" fill-opacity="1" /><path clip-path="url(#clip150)" d="M2199.42 1481.64 L2215.74 1481.64 L2215.74 1485.58 L2193.8 1485.58 L2193.8 1481.64 Q2196.46 1478.89 2201.04 1474.26 Q2205.65 1469.61 2206.83 1468.27 Q2209.07 1465.74 2209.95 1464.01 Q2210.86 1462.25 2210.86 1460.56 Q2210.86 1457.8 2208.91 1456.07 Q2206.99 1454.33 2203.89 1454.33 Q2201.69 1454.33 2199.23 1455.09 Q2196.8 1455.86 2194.03 1457.41 L2194.03 1452.69 Q2196.85 1451.55 2199.3 1450.97 Q2201.76 1450.39 2203.8 1450.39 Q2209.17 1450.39 2212.36 1453.08 Q2215.55 1455.77 2215.55 1460.26 Q2215.55 1462.39 2214.74 1464.31 Q2213.96 1466.2 2211.85 1468.8 Q2211.27 1469.47 2208.17 1472.69 Q2205.07 1475.88 2199.42 1481.64 Z" fill="#000000" fill-rule="nonzero" fill-opacity="1" /><path clip-path="url(#clip150)" d="M2226.36 1481.64 L2234 1481.64 L2234 1455.28 L2225.69 1456.95 L2225.69 1452.69 L2233.96 1451.02 L2238.63 1451.02 L2238.63 1481.64 L2246.27 1481.64 L2246.27 1485.58 L2226.36 1485.58 L2226.36 1481.64 Z" fill="#000000" fill-rule="nonzero" fill-opacity="1" /><path clip-path="url(#clip150)" d="M2252.96 1470.7 L2265.44 1470.7 L2265.44 1474.49 L2252.96 1474.49 L2252.96 1470.7 Z" fill="#000000" fill-rule="nonzero" fill-opacity="1" /><path clip-path="url(#clip150)" d="M2282.82 1454.1 Q2279.21 1454.1 2277.38 1457.66 Q2275.58 1461.2 2275.58 1468.33 Q2275.58 1475.44 2277.38 1479.01 Q2279.21 1482.55 2282.82 1482.55 Q2286.46 1482.55 2288.26 1479.01 Q2290.09 1475.44 2290.09 1468.33 Q2290.09 1461.2 2288.26 1457.66 Q2286.46 1454.1 2282.82 1454.1 M2282.82 1450.39 Q2288.63 1450.39 2291.69 1455 Q2294.77 1459.58 2294.77 1468.33 Q2294.77 1477.06 2291.69 1481.67 Q2288.63 1486.25 2282.82 1486.25 Q2277.01 1486.25 2273.93 1481.67 Q2270.88 1477.06 2270.88 1468.33 Q2270.88 1459.58 2273.93 1455 Q2277.01 1450.39 2282.82 1450.39 Z" fill="#000000" fill-rule="nonzero" fill-opacity="1" /><path clip-path="url(#clip150)" d="M2307.01 1481.64 L2323.33 1481.64 L2323.33 1485.58 L2301.39 1485.58 L2301.39 1481.64 Q2304.05 1478.89 2308.63 1474.26 Q2313.24 1469.61 2314.42 1468.27 Q2316.66 1465.74 2317.54 1464.01 Q2318.45 1462.25 2318.45 1460.56 Q2318.45 1457.8 2316.5 1456.07 Q2314.58 1454.33 2311.48 1454.33 Q2309.28 1454.33 2306.83 1455.09 Q2304.4 1455.86 2301.62 1457.41 L2301.62 1452.69 Q2304.44 1451.55 2306.9 1450.97 Q2309.35 1450.39 2311.39 1450.39 Q2316.76 1450.39 2319.95 1453.08 Q2323.15 1455.77 2323.15 1460.26 Q2323.15 1462.39 2322.34 1464.31 Q2321.55 1466.2 2319.44 1468.8 Q2318.86 1469.47 2315.76 1472.69 Q2312.66 1475.88 2307.01 1481.64 Z" fill="#000000" fill-rule="nonzero" fill-opacity="1" /><path clip-path="url(#clip150)" d="M2330.39 1470.7 L2342.87 1470.7 L2342.87 1474.49 L2330.39 1474.49 L2330.39 1470.7 Z" fill="#000000" fill-rule="nonzero" fill-opacity="1" /><path clip-path="url(#clip150)" d="M2360.25 1454.1 Q2356.64 1454.1 2354.81 1457.66 Q2353.01 1461.2 2353.01 1468.33 Q2353.01 1475.44 2354.81 1479.01 Q2356.64 1482.55 2360.25 1482.55 Q2363.89 1482.55 2365.69 1479.01 Q2367.52 1475.44 2367.52 1468.33 Q2367.52 1461.2 2365.69 1457.66 Q2363.89 1454.1 2360.25 1454.1 M2360.25 1450.39 Q2366.06 1450.39 2369.12 1455 Q2372.2 1459.58 2372.2 1468.33 Q2372.2 1477.06 2369.12 1481.67 Q2366.06 1486.25 2360.25 1486.25 Q2354.44 1486.25 2351.36 1481.67 Q2348.31 1477.06 2348.31 1468.33 Q2348.31 1459.58 2351.36 1455 Q2354.44 1450.39 2360.25 1450.39 Z" fill="#000000" fill-rule="nonzero" fill-opacity="1" /><path clip-path="url(#clip150)" d="M2381.22 1481.64 L2388.86 1481.64 L2388.86 1455.28 L2380.55 1456.95 L2380.55 1452.69 L2388.82 1451.02 L2393.49 1451.02 L2393.49 1481.64 L2401.13 1481.64 L2401.13 1485.58 L2381.22 1485.58 L2381.22 1481.64 Z" fill="#000000" fill-rule="nonzero" fill-opacity="1" /><path clip-path="url(#clip150)" d="M1316.13 1537.81 L1316.13 1518.52 L1321.98 1518.52 L1321.98 1568.04 L1316.13 1568.04 L1316.13 1562.7 Q1314.28 1565.88 1311.45 1567.44 Q1308.65 1568.97 1304.7 1568.97 Q1298.24 1568.97 1294.17 1563.81 Q1290.12 1558.65 1290.12 1550.25 Q1290.12 1541.85 1294.17 1536.69 Q1298.24 1531.54 1304.7 1531.54 Q1308.65 1531.54 1311.45 1533.1 Q1314.28 1534.62 1316.13 1537.81 M1296.17 1550.25 Q1296.17 1556.71 1298.81 1560.4 Q1301.49 1564.07 1306.13 1564.07 Q1310.78 1564.07 1313.45 1560.4 Q1316.13 1556.71 1316.13 1550.25 Q1316.13 1543.79 1313.45 1540.13 Q1310.78 1536.44 1306.13 1536.44 Q1301.49 1536.44 1298.81 1540.13 Q1296.17 1543.79 1296.17 1550.25 Z" fill="#000000" fill-rule="nonzero" fill-opacity="1" /><path clip-path="url(#clip150)" d="M1350.25 1550.12 Q1343.15 1550.12 1340.41 1551.75 Q1337.68 1553.37 1337.68 1557.29 Q1337.68 1560.4 1339.71 1562.25 Q1341.78 1564.07 1345.31 1564.07 Q1350.18 1564.07 1353.11 1560.63 Q1356.07 1557.16 1356.07 1551.43 L1356.07 1550.12 L1350.25 1550.12 M1361.93 1547.71 L1361.93 1568.04 L1356.07 1568.04 L1356.07 1562.63 Q1354.07 1565.88 1351.07 1567.44 Q1348.08 1568.97 1343.75 1568.97 Q1338.28 1568.97 1335.03 1565.91 Q1331.82 1562.82 1331.82 1557.67 Q1331.82 1551.65 1335.83 1548.6 Q1339.87 1545.54 1347.86 1545.54 L1356.07 1545.54 L1356.07 1544.97 Q1356.07 1540.93 1353.4 1538.73 Q1350.76 1536.5 1345.95 1536.5 Q1342.89 1536.5 1340 1537.23 Q1337.1 1537.97 1334.43 1539.43 L1334.43 1534.02 Q1337.64 1532.78 1340.67 1532.17 Q1343.69 1531.54 1346.56 1531.54 Q1354.29 1531.54 1358.11 1535.55 Q1361.93 1539.56 1361.93 1547.71 Z" fill="#000000" fill-rule="nonzero" fill-opacity="1" /><path clip-path="url(#clip150)" d="M1379.78 1522.27 L1379.78 1532.4 L1391.85 1532.4 L1391.85 1536.95 L1379.78 1536.95 L1379.78 1556.3 Q1379.78 1560.66 1380.96 1561.9 Q1382.17 1563.14 1385.83 1563.14 L1391.85 1563.14 L1391.85 1568.04 L1385.83 1568.04 Q1379.05 1568.04 1376.47 1565.53 Q1373.9 1562.98 1373.9 1556.3 L1373.9 1536.95 L1369.6 1536.95 L1369.6 1532.4 L1373.9 1532.4 L1373.9 1522.27 L1379.78 1522.27 Z" fill="#000000" fill-rule="nonzero" fill-opacity="1" /><path clip-path="url(#clip150)" d="M1430.04 1548.76 L1430.04 1551.62 L1403.11 1551.62 Q1403.5 1557.67 1406.74 1560.85 Q1410.02 1564 1415.85 1564 Q1419.22 1564 1422.37 1563.17 Q1425.55 1562.35 1428.67 1560.69 L1428.67 1566.23 Q1425.52 1567.57 1422.21 1568.27 Q1418.9 1568.97 1415.5 1568.97 Q1406.97 1568.97 1401.97 1564 Q1397 1559.04 1397 1550.57 Q1397 1541.82 1401.71 1536.69 Q1406.46 1531.54 1414.48 1531.54 Q1421.67 1531.54 1425.84 1536.18 Q1430.04 1540.8 1430.04 1548.76 M1424.19 1547.04 Q1424.12 1542.23 1421.48 1539.37 Q1418.87 1536.5 1414.54 1536.5 Q1409.64 1536.5 1406.68 1539.27 Q1403.75 1542.04 1403.31 1547.07 L1424.19 1547.04 Z" fill="#000000" fill-rule="nonzero" fill-opacity="1" /><polyline clip-path="url(#clip152)" style="stroke:#000000; stroke-linecap:round; stroke-linejoin:round; stroke-width:2; stroke-opacity:0.1; fill:none" points="367.409,1386.4 2352.76,1386.4 "/>
<polyline clip-path="url(#clip152)" style="stroke:#000000; stroke-linecap:round; stroke-linejoin:round; stroke-width:2; stroke-opacity:0.1; fill:none" points="367.409,1059.85 2352.76,1059.85 "/>
<polyline clip-path="url(#clip152)" style="stroke:#000000; stroke-linecap:round; stroke-linejoin:round; stroke-width:2; stroke-opacity:0.1; fill:none" points="367.409,733.308 2352.76,733.308 "/>
<polyline clip-path="url(#clip152)" style="stroke:#000000; stroke-linecap:round; stroke-linejoin:round; stroke-width:2; stroke-opacity:0.1; fill:none" points="367.409,406.764 2352.76,406.764 "/>
<polyline clip-path="url(#clip150)" style="stroke:#000000; stroke-linecap:round; stroke-linejoin:round; stroke-width:4; stroke-opacity:1; fill:none" points="367.409,1423.18 367.409,123.472 "/>
<polyline clip-path="url(#clip150)" style="stroke:#000000; stroke-linecap:round; stroke-linejoin:round; stroke-width:4; stroke-opacity:1; fill:none" points="367.409,1386.4 386.307,1386.4 "/>
<polyline clip-path="url(#clip150)" style="stroke:#000000; stroke-linecap:round; stroke-linejoin:round; stroke-width:4; stroke-opacity:1; fill:none" points="367.409,1059.85 386.307,1059.85 "/>
<polyline clip-path="url(#clip150)" style="stroke:#000000; stroke-linecap:round; stroke-linejoin:round; stroke-width:4; stroke-opacity:1; fill:none" points="367.409,733.308 386.307,733.308 "/>
<polyline clip-path="url(#clip150)" style="stroke:#000000; stroke-linecap:round; stroke-linejoin:round; stroke-width:4; stroke-opacity:1; fill:none" points="367.409,406.764 386.307,406.764 "/>
<path clip-path="url(#clip150)" d="M116.668 1406.19 L124.306 1406.19 L124.306 1379.82 L115.996 1381.49 L115.996 1377.23 L124.26 1375.56 L128.936 1375.56 L128.936 1406.19 L136.575 1406.19 L136.575 1410.12 L116.668 1410.12 L116.668 1406.19 Z" fill="#000000" fill-rule="nonzero" fill-opacity="1" /><path clip-path="url(#clip150)" d="M146.019 1404.24 L150.903 1404.24 L150.903 1410.12 L146.019 1410.12 L146.019 1404.24 Z" fill="#000000" fill-rule="nonzero" fill-opacity="1" /><path clip-path="url(#clip150)" d="M171.089 1378.64 Q167.477 1378.64 165.649 1382.21 Q163.843 1385.75 163.843 1392.88 Q163.843 1399.98 165.649 1403.55 Q167.477 1407.09 171.089 1407.09 Q174.723 1407.09 176.528 1403.55 Q178.357 1399.98 178.357 1392.88 Q178.357 1385.75 176.528 1382.21 Q174.723 1378.64 171.089 1378.64 M171.089 1374.94 Q176.899 1374.94 179.954 1379.54 Q183.033 1384.13 183.033 1392.88 Q183.033 1401.6 179.954 1406.21 Q176.899 1410.79 171.089 1410.79 Q165.278 1410.79 162.2 1406.21 Q159.144 1401.6 159.144 1392.88 Q159.144 1384.13 162.2 1379.54 Q165.278 1374.94 171.089 1374.94 Z" fill="#000000" fill-rule="nonzero" fill-opacity="1" /><path clip-path="url(#clip150)" d="M201.25 1378.64 Q197.639 1378.64 195.811 1382.21 Q194.005 1385.75 194.005 1392.88 Q194.005 1399.98 195.811 1403.55 Q197.639 1407.09 201.25 1407.09 Q204.885 1407.09 206.69 1403.55 Q208.519 1399.98 208.519 1392.88 Q208.519 1385.75 206.69 1382.21 Q204.885 1378.64 201.25 1378.64 M201.25 1374.94 Q207.061 1374.94 210.116 1379.54 Q213.195 1384.13 213.195 1392.88 Q213.195 1401.6 210.116 1406.21 Q207.061 1410.79 201.25 1410.79 Q195.44 1410.79 192.362 1406.21 Q189.306 1401.6 189.306 1392.88 Q189.306 1384.13 192.362 1379.54 Q195.44 1374.94 201.25 1374.94 Z" fill="#000000" fill-rule="nonzero" fill-opacity="1" /><path clip-path="url(#clip150)" d="M249.584 1384.66 L239.005 1395.29 L249.584 1405.86 L246.829 1408.66 L236.204 1398.04 L225.579 1408.66 L222.848 1405.86 L233.403 1395.29 L222.848 1384.66 L225.579 1381.86 L236.204 1392.48 L246.829 1381.86 L249.584 1384.66 Z" fill="#000000" fill-rule="nonzero" fill-opacity="1" /><path clip-path="url(#clip150)" d="M261.945 1406.19 L269.583 1406.19 L269.583 1379.82 L261.273 1381.49 L261.273 1377.23 L269.537 1375.56 L274.213 1375.56 L274.213 1406.19 L281.852 1406.19 L281.852 1410.12 L261.945 1410.12 L261.945 1406.19 Z" fill="#000000" fill-rule="nonzero" fill-opacity="1" /><path clip-path="url(#clip150)" d="M301.296 1378.64 Q297.685 1378.64 295.856 1382.21 Q294.051 1385.75 294.051 1392.88 Q294.051 1399.98 295.856 1403.55 Q297.685 1407.09 301.296 1407.09 Q304.93 1407.09 306.736 1403.55 Q308.565 1399.98 308.565 1392.88 Q308.565 1385.75 306.736 1382.21 Q304.93 1378.64 301.296 1378.64 M301.296 1374.94 Q307.106 1374.94 310.162 1379.54 Q313.241 1384.13 313.241 1392.88 Q313.241 1401.6 310.162 1406.21 Q307.106 1410.79 301.296 1410.79 Q295.486 1410.79 292.407 1406.21 Q289.352 1401.6 289.352 1392.88 Q289.352 1384.13 292.407 1379.54 Q295.486 1374.94 301.296 1374.94 Z" fill="#000000" fill-rule="nonzero" fill-opacity="1" /><path clip-path="url(#clip150)" d="M314.425 1354.63 L329.34 1354.63 L329.34 1357.83 L317.905 1357.83 L317.905 1364.71 Q318.732 1364.43 319.56 1364.3 Q320.388 1364.15 321.215 1364.15 Q325.917 1364.15 328.663 1366.73 Q331.409 1369.3 331.409 1373.7 Q331.409 1378.24 328.588 1380.76 Q325.767 1383.26 320.632 1383.26 Q318.864 1383.26 317.021 1382.96 Q315.197 1382.66 313.241 1382.05 L313.241 1378.24 Q314.933 1379.16 316.739 1379.61 Q318.544 1380.06 320.557 1380.06 Q323.811 1380.06 325.71 1378.35 Q327.61 1376.64 327.61 1373.7 Q327.61 1370.77 325.71 1369.06 Q323.811 1367.35 320.557 1367.35 Q319.033 1367.35 317.51 1367.69 Q316.005 1368.02 314.425 1368.74 L314.425 1354.63 Z" fill="#000000" fill-rule="nonzero" fill-opacity="1" /><path clip-path="url(#clip150)" d="M116.668 1079.64 L124.306 1079.64 L124.306 1053.28 L115.996 1054.95 L115.996 1050.69 L124.26 1049.02 L128.936 1049.02 L128.936 1079.64 L136.575 1079.64 L136.575 1083.58 L116.668 1083.58 L116.668 1079.64 Z" fill="#000000" fill-rule="nonzero" fill-opacity="1" /><path clip-path="url(#clip150)" d="M146.019 1077.7 L150.903 1077.7 L150.903 1083.58 L146.019 1083.58 L146.019 1077.7 Z" fill="#000000" fill-rule="nonzero" fill-opacity="1" /><path clip-path="url(#clip150)" d="M161.135 1049.02 L179.491 1049.02 L179.491 1052.95 L165.417 1052.95 L165.417 1061.43 Q166.436 1061.08 167.454 1060.92 Q168.473 1060.73 169.491 1060.73 Q175.278 1060.73 178.658 1063.9 Q182.038 1067.07 182.038 1072.49 Q182.038 1078.07 178.565 1081.17 Q175.093 1084.25 168.774 1084.25 Q166.598 1084.25 164.329 1083.88 Q162.084 1083.51 159.677 1082.77 L159.677 1078.07 Q161.76 1079.2 163.982 1079.76 Q166.204 1080.32 168.681 1080.32 Q172.686 1080.32 175.024 1078.21 Q177.362 1076.1 177.362 1072.49 Q177.362 1068.88 175.024 1066.77 Q172.686 1064.67 168.681 1064.67 Q166.806 1064.67 164.931 1065.08 Q163.079 1065.5 161.135 1066.38 L161.135 1049.02 Z" fill="#000000" fill-rule="nonzero" fill-opacity="1" /><path clip-path="url(#clip150)" d="M201.25 1052.1 Q197.639 1052.1 195.811 1055.66 Q194.005 1059.2 194.005 1066.33 Q194.005 1073.44 195.811 1077.01 Q197.639 1080.55 201.25 1080.55 Q204.885 1080.55 206.69 1077.01 Q208.519 1073.44 208.519 1066.33 Q208.519 1059.2 206.69 1055.66 Q204.885 1052.1 201.25 1052.1 M201.25 1048.39 Q207.061 1048.39 210.116 1053 Q213.195 1057.58 213.195 1066.33 Q213.195 1075.06 210.116 1079.67 Q207.061 1084.25 201.25 1084.25 Q195.44 1084.25 192.362 1079.67 Q189.306 1075.06 189.306 1066.33 Q189.306 1057.58 192.362 1053 Q195.44 1048.39 201.25 1048.39 Z" fill="#000000" fill-rule="nonzero" fill-opacity="1" /><path clip-path="url(#clip150)" d="M249.584 1058.12 L239.005 1068.74 L249.584 1079.32 L246.829 1082.12 L236.204 1071.5 L225.579 1082.12 L222.848 1079.32 L233.403 1068.74 L222.848 1058.12 L225.579 1055.32 L236.204 1065.94 L246.829 1055.32 L249.584 1058.12 Z" fill="#000000" fill-rule="nonzero" fill-opacity="1" /><path clip-path="url(#clip150)" d="M261.945 1079.64 L269.583 1079.64 L269.583 1053.28 L261.273 1054.95 L261.273 1050.69 L269.537 1049.02 L274.213 1049.02 L274.213 1079.64 L281.852 1079.64 L281.852 1083.58 L261.945 1083.58 L261.945 1079.64 Z" fill="#000000" fill-rule="nonzero" fill-opacity="1" /><path clip-path="url(#clip150)" d="M301.296 1052.1 Q297.685 1052.1 295.856 1055.66 Q294.051 1059.2 294.051 1066.33 Q294.051 1073.44 295.856 1077.01 Q297.685 1080.55 301.296 1080.55 Q304.93 1080.55 306.736 1077.01 Q308.565 1073.44 308.565 1066.33 Q308.565 1059.2 306.736 1055.66 Q304.93 1052.1 301.296 1052.1 M301.296 1048.39 Q307.106 1048.39 310.162 1053 Q313.241 1057.58 313.241 1066.33 Q313.241 1075.06 310.162 1079.67 Q307.106 1084.25 301.296 1084.25 Q295.486 1084.25 292.407 1079.67 Q289.352 1075.06 289.352 1066.33 Q289.352 1057.58 292.407 1053 Q295.486 1048.39 301.296 1048.39 Z" fill="#000000" fill-rule="nonzero" fill-opacity="1" /><path clip-path="url(#clip150)" d="M314.425 1028.09 L329.34 1028.09 L329.34 1031.29 L317.905 1031.29 L317.905 1038.17 Q318.732 1037.89 319.56 1037.76 Q320.388 1037.61 321.215 1037.61 Q325.917 1037.61 328.663 1040.18 Q331.409 1042.76 331.409 1047.16 Q331.409 1051.69 328.588 1054.21 Q325.767 1056.71 320.632 1056.71 Q318.864 1056.71 317.021 1056.41 Q315.197 1056.11 313.241 1055.51 L313.241 1051.69 Q314.933 1052.61 316.739 1053.07 Q318.544 1053.52 320.557 1053.52 Q323.811 1053.52 325.71 1051.81 Q327.61 1050.09 327.61 1047.16 Q327.61 1044.23 325.71 1042.51 Q323.811 1040.8 320.557 1040.8 Q319.033 1040.8 317.51 1041.14 Q316.005 1041.48 314.425 1042.19 L314.425 1028.09 Z" fill="#000000" fill-rule="nonzero" fill-opacity="1" /><path clip-path="url(#clip150)" d="M119.885 753.1 L136.204 753.1 L136.204 757.036 L114.26 757.036 L114.26 753.1 Q116.922 750.346 121.505 745.716 Q126.112 741.063 127.292 739.721 Q129.538 737.198 130.417 735.462 Q131.32 733.702 131.32 732.012 Q131.32 729.258 129.376 727.522 Q127.455 725.786 124.353 725.786 Q122.154 725.786 119.7 726.55 Q117.269 727.313 114.492 728.864 L114.492 724.142 Q117.316 723.008 119.769 722.429 Q122.223 721.851 124.26 721.851 Q129.63 721.851 132.825 724.536 Q136.019 727.221 136.019 731.712 Q136.019 733.841 135.209 735.762 Q134.422 737.661 132.316 740.253 Q131.737 740.924 128.635 744.142 Q125.533 747.336 119.885 753.1 Z" fill="#000000" fill-rule="nonzero" fill-opacity="1" /><path clip-path="url(#clip150)" d="M146.019 751.156 L150.903 751.156 L150.903 757.036 L146.019 757.036 L146.019 751.156 Z" fill="#000000" fill-rule="nonzero" fill-opacity="1" /><path clip-path="url(#clip150)" d="M171.089 725.554 Q167.477 725.554 165.649 729.119 Q163.843 732.661 163.843 739.79 Q163.843 746.897 165.649 750.461 Q167.477 754.003 171.089 754.003 Q174.723 754.003 176.528 750.461 Q178.357 746.897 178.357 739.79 Q178.357 732.661 176.528 729.119 Q174.723 725.554 171.089 725.554 M171.089 721.851 Q176.899 721.851 179.954 726.457 Q183.033 731.04 183.033 739.79 Q183.033 748.517 179.954 753.123 Q176.899 757.707 171.089 757.707 Q165.278 757.707 162.2 753.123 Q159.144 748.517 159.144 739.79 Q159.144 731.04 162.2 726.457 Q165.278 721.851 171.089 721.851 Z" fill="#000000" fill-rule="nonzero" fill-opacity="1" /><path clip-path="url(#clip150)" d="M201.25 725.554 Q197.639 725.554 195.811 729.119 Q194.005 732.661 194.005 739.79 Q194.005 746.897 195.811 750.461 Q197.639 754.003 201.25 754.003 Q204.885 754.003 206.69 750.461 Q208.519 746.897 208.519 739.79 Q208.519 732.661 206.69 729.119 Q204.885 725.554 201.25 725.554 M201.25 721.851 Q207.061 721.851 210.116 726.457 Q213.195 731.04 213.195 739.79 Q213.195 748.517 210.116 753.123 Q207.061 757.707 201.25 757.707 Q195.44 757.707 192.362 753.123 Q189.306 748.517 189.306 739.79 Q189.306 731.04 192.362 726.457 Q195.44 721.851 201.25 721.851 Z" fill="#000000" fill-rule="nonzero" fill-opacity="1" /><path clip-path="url(#clip150)" d="M249.584 731.573 L239.005 742.198 L249.584 752.776 L246.829 755.577 L236.204 744.952 L225.579 755.577 L222.848 752.776 L233.403 742.198 L222.848 731.573 L225.579 728.772 L236.204 739.397 L246.829 728.772 L249.584 731.573 Z" fill="#000000" fill-rule="nonzero" fill-opacity="1" /><path clip-path="url(#clip150)" d="M261.945 753.1 L269.583 753.1 L269.583 726.735 L261.273 728.401 L261.273 724.142 L269.537 722.476 L274.213 722.476 L274.213 753.1 L281.852 753.1 L281.852 757.036 L261.945 757.036 L261.945 753.1 Z" fill="#000000" fill-rule="nonzero" fill-opacity="1" /><path clip-path="url(#clip150)" d="M301.296 725.554 Q297.685 725.554 295.856 729.119 Q294.051 732.661 294.051 739.79 Q294.051 746.897 295.856 750.461 Q297.685 754.003 301.296 754.003 Q304.93 754.003 306.736 750.461 Q308.565 746.897 308.565 739.79 Q308.565 732.661 306.736 729.119 Q304.93 725.554 301.296 725.554 M301.296 721.851 Q307.106 721.851 310.162 726.457 Q313.241 731.04 313.241 739.79 Q313.241 748.517 310.162 753.123 Q307.106 757.707 301.296 757.707 Q295.486 757.707 292.407 753.123 Q289.352 748.517 289.352 739.79 Q289.352 731.04 292.407 726.457 Q295.486 721.851 301.296 721.851 Z" fill="#000000" fill-rule="nonzero" fill-opacity="1" /><path clip-path="url(#clip150)" d="M314.425 701.545 L329.34 701.545 L329.34 704.742 L317.905 704.742 L317.905 711.626 Q318.732 711.344 319.56 711.212 Q320.388 711.062 321.215 711.062 Q325.917 711.062 328.663 713.639 Q331.409 716.215 331.409 720.616 Q331.409 725.149 328.588 727.669 Q325.767 730.171 320.632 730.171 Q318.864 730.171 317.021 729.87 Q315.197 729.569 313.241 728.967 L313.241 725.149 Q314.933 726.07 316.739 726.522 Q318.544 726.973 320.557 726.973 Q323.811 726.973 325.71 725.262 Q327.61 723.55 327.61 720.616 Q327.61 717.682 325.71 715.971 Q323.811 714.259 320.557 714.259 Q319.033 714.259 317.51 714.598 Q316.005 714.936 314.425 715.651 L314.425 701.545 Z" fill="#000000" fill-rule="nonzero" fill-opacity="1" /><path clip-path="url(#clip150)" d="M119.885 426.556 L136.204 426.556 L136.204 430.492 L114.26 430.492 L114.26 426.556 Q116.922 423.802 121.505 419.172 Q126.112 414.52 127.292 413.177 Q129.538 410.654 130.417 408.918 Q131.32 407.158 131.32 405.469 Q131.32 402.714 129.376 400.978 Q127.455 399.242 124.353 399.242 Q122.154 399.242 119.7 400.006 Q117.269 400.77 114.492 402.32 L114.492 397.598 Q117.316 396.464 119.769 395.885 Q122.223 395.307 124.26 395.307 Q129.63 395.307 132.825 397.992 Q136.019 400.677 136.019 405.168 Q136.019 407.297 135.209 409.219 Q134.422 411.117 132.316 413.709 Q131.737 414.381 128.635 417.598 Q125.533 420.793 119.885 426.556 Z" fill="#000000" fill-rule="nonzero" fill-opacity="1" /><path clip-path="url(#clip150)" d="M146.019 424.612 L150.903 424.612 L150.903 430.492 L146.019 430.492 L146.019 424.612 Z" fill="#000000" fill-rule="nonzero" fill-opacity="1" /><path clip-path="url(#clip150)" d="M161.135 395.932 L179.491 395.932 L179.491 399.867 L165.417 399.867 L165.417 408.339 Q166.436 407.992 167.454 407.83 Q168.473 407.645 169.491 407.645 Q175.278 407.645 178.658 410.816 Q182.038 413.987 182.038 419.404 Q182.038 424.982 178.565 428.084 Q175.093 431.163 168.774 431.163 Q166.598 431.163 164.329 430.793 Q162.084 430.422 159.677 429.681 L159.677 424.982 Q161.76 426.117 163.982 426.672 Q166.204 427.228 168.681 427.228 Q172.686 427.228 175.024 425.121 Q177.362 423.015 177.362 419.404 Q177.362 415.793 175.024 413.686 Q172.686 411.58 168.681 411.58 Q166.806 411.58 164.931 411.996 Q163.079 412.413 161.135 413.293 L161.135 395.932 Z" fill="#000000" fill-rule="nonzero" fill-opacity="1" /><path clip-path="url(#clip150)" d="M201.25 399.01 Q197.639 399.01 195.811 402.575 Q194.005 406.117 194.005 413.246 Q194.005 420.353 195.811 423.918 Q197.639 427.459 201.25 427.459 Q204.885 427.459 206.69 423.918 Q208.519 420.353 208.519 413.246 Q208.519 406.117 206.69 402.575 Q204.885 399.01 201.25 399.01 M201.25 395.307 Q207.061 395.307 210.116 399.913 Q213.195 404.496 213.195 413.246 Q213.195 421.973 210.116 426.58 Q207.061 431.163 201.25 431.163 Q195.44 431.163 192.362 426.58 Q189.306 421.973 189.306 413.246 Q189.306 404.496 192.362 399.913 Q195.44 395.307 201.25 395.307 Z" fill="#000000" fill-rule="nonzero" fill-opacity="1" /><path clip-path="url(#clip150)" d="M249.584 405.029 L239.005 415.654 L249.584 426.232 L246.829 429.033 L236.204 418.408 L225.579 429.033 L222.848 426.232 L233.403 415.654 L222.848 405.029 L225.579 402.228 L236.204 412.853 L246.829 402.228 L249.584 405.029 Z" fill="#000000" fill-rule="nonzero" fill-opacity="1" /><path clip-path="url(#clip150)" d="M261.945 426.556 L269.583 426.556 L269.583 400.191 L261.273 401.858 L261.273 397.598 L269.537 395.932 L274.213 395.932 L274.213 426.556 L281.852 426.556 L281.852 430.492 L261.945 430.492 L261.945 426.556 Z" fill="#000000" fill-rule="nonzero" fill-opacity="1" /><path clip-path="url(#clip150)" d="M301.296 399.01 Q297.685 399.01 295.856 402.575 Q294.051 406.117 294.051 413.246 Q294.051 420.353 295.856 423.918 Q297.685 427.459 301.296 427.459 Q304.93 427.459 306.736 423.918 Q308.565 420.353 308.565 413.246 Q308.565 406.117 306.736 402.575 Q304.93 399.01 301.296 399.01 M301.296 395.307 Q307.106 395.307 310.162 399.913 Q313.241 404.496 313.241 413.246 Q313.241 421.973 310.162 426.58 Q307.106 431.163 301.296 431.163 Q295.486 431.163 292.407 426.58 Q289.352 421.973 289.352 413.246 Q289.352 404.496 292.407 399.913 Q295.486 395.307 301.296 395.307 Z" fill="#000000" fill-rule="nonzero" fill-opacity="1" /><path clip-path="url(#clip150)" d="M314.425 375.001 L329.34 375.001 L329.34 378.199 L317.905 378.199 L317.905 385.082 Q318.732 384.8 319.56 384.668 Q320.388 384.518 321.215 384.518 Q325.917 384.518 328.663 387.095 Q331.409 389.671 331.409 394.072 Q331.409 398.605 328.588 401.125 Q325.767 403.627 320.632 403.627 Q318.864 403.627 317.021 403.326 Q315.197 403.025 313.241 402.423 L313.241 398.605 Q314.933 399.527 316.739 399.978 Q318.544 400.429 320.557 400.429 Q323.811 400.429 325.71 398.718 Q327.61 397.006 327.61 394.072 Q327.61 391.138 325.71 389.427 Q323.811 387.715 320.557 387.715 Q319.033 387.715 317.51 388.054 Q316.005 388.392 314.425 389.107 L314.425 375.001 Z" fill="#000000" fill-rule="nonzero" fill-opacity="1" /><path clip-path="url(#clip150)" d="M21.7677 1084.27 L39.6235 1084.27 L39.6235 1076.19 Q39.6235 1071.7 37.3 1069.25 Q34.9765 1066.8 30.6797 1066.8 Q26.4147 1066.8 24.0912 1069.25 Q21.7677 1071.7 21.7677 1076.19 L21.7677 1084.27 M16.4842 1090.7 L16.4842 1076.19 Q16.4842 1068.2 20.1126 1064.13 Q23.7092 1060.02 30.6797 1060.02 Q37.7138 1060.02 41.3104 1064.13 Q44.907 1068.2 44.907 1076.19 L44.907 1084.27 L64.0042 1084.27 L64.0042 1090.7 L16.4842 1090.7 Z" fill="#000000" fill-rule="nonzero" fill-opacity="1" /><path clip-path="url(#clip150)" d="M32.4621 1040.16 Q32.4621 1044.87 36.1542 1047.61 Q39.8145 1050.35 46.212 1050.35 Q52.6095 1050.35 56.3017 1047.64 Q59.9619 1044.9 59.9619 1040.16 Q59.9619 1035.48 56.2698 1032.74 Q52.5777 1030.01 46.212 1030.01 Q39.8781 1030.01 36.186 1032.74 Q32.4621 1035.48 32.4621 1040.16 M27.4968 1040.16 Q27.4968 1032.52 32.4621 1028.16 Q37.4273 1023.8 46.212 1023.8 Q54.9649 1023.8 59.9619 1028.16 Q64.9272 1032.52 64.9272 1040.16 Q64.9272 1047.83 59.9619 1052.19 Q54.9649 1056.52 46.212 1056.52 Q37.4273 1056.52 32.4621 1052.19 Q27.4968 1047.83 27.4968 1040.16 Z" fill="#000000" fill-rule="nonzero" fill-opacity="1" /><path clip-path="url(#clip150)" d="M33.8307 993.436 Q33.2578 994.423 33.0032 995.601 Q32.7167 996.746 32.7167 998.147 Q32.7167 1003.11 35.9632 1005.79 Q39.1779 1008.43 45.2253 1008.43 L64.0042 1008.43 L64.0042 1014.32 L28.3562 1014.32 L28.3562 1008.43 L33.8944 1008.43 Q30.6479 1006.58 29.0883 1003.62 Q27.4968 1000.66 27.4968 996.428 Q27.4968 995.823 27.5923 995.091 Q27.656 994.359 27.8151 993.468 L33.8307 993.436 Z" fill="#000000" fill-rule="nonzero" fill-opacity="1" /><path clip-path="url(#clip150)" d="M18.2347 981.501 L28.3562 981.501 L28.3562 969.437 L32.9077 969.437 L32.9077 981.501 L52.2594 981.501 Q56.6199 981.501 57.8613 980.323 Q59.1026 979.113 59.1026 975.453 L59.1026 969.437 L64.0042 969.437 L64.0042 975.453 Q64.0042 982.233 61.4897 984.811 Q58.9434 987.389 52.2594 987.389 L32.9077 987.389 L32.9077 991.686 L28.3562 991.686 L28.3562 987.389 L18.2347 987.389 L18.2347 981.501 Z" fill="#000000" fill-rule="nonzero" fill-opacity="1" /><path clip-path="url(#clip150)" d="M14.479 943.688 L19.3487 943.688 L19.3487 949.29 Q19.3487 952.441 20.6219 953.682 Q21.895 954.892 25.2052 954.892 L28.3562 954.892 L28.3562 945.248 L32.9077 945.248 L32.9077 954.892 L64.0042 954.892 L64.0042 960.78 L32.9077 960.78 L32.9077 966.382 L28.3562 966.382 L28.3562 960.78 L25.8736 960.78 Q19.9216 960.78 17.2162 958.011 Q14.479 955.242 14.479 949.226 L14.479 943.688 Z" fill="#000000" fill-rule="nonzero" fill-opacity="1" /><path clip-path="url(#clip150)" d="M32.4621 924.973 Q32.4621 929.684 36.1542 932.421 Q39.8145 935.158 46.212 935.158 Q52.6095 935.158 56.3017 932.453 Q59.9619 929.715 59.9619 924.973 Q59.9619 920.294 56.2698 917.557 Q52.5777 914.82 46.212 914.82 Q39.8781 914.82 36.186 917.557 Q32.4621 920.294 32.4621 924.973 M27.4968 924.973 Q27.4968 917.334 32.4621 912.974 Q37.4273 908.613 46.212 908.613 Q54.9649 908.613 59.9619 912.974 Q64.9272 917.334 64.9272 924.973 Q64.9272 932.644 59.9619 937.004 Q54.9649 941.333 46.212 941.333 Q37.4273 941.333 32.4621 937.004 Q27.4968 932.644 27.4968 924.973 Z" fill="#000000" fill-rule="nonzero" fill-opacity="1" /><path clip-path="url(#clip150)" d="M14.479 898.905 L14.479 893.049 L64.0042 893.049 L64.0042 898.905 L14.479 898.905 Z" fill="#000000" fill-rule="nonzero" fill-opacity="1" /><path clip-path="url(#clip150)" d="M28.3562 880.795 L28.3562 874.939 L64.0042 874.939 L64.0042 880.795 L28.3562 880.795 M14.479 880.795 L14.479 874.939 L21.895 874.939 L21.895 880.795 L14.479 880.795 Z" fill="#000000" fill-rule="nonzero" fill-opacity="1" /><path clip-path="url(#clip150)" d="M32.4621 848.871 Q32.4621 853.582 36.1542 856.319 Q39.8145 859.056 46.212 859.056 Q52.6095 859.056 56.3017 856.351 Q59.9619 853.613 59.9619 848.871 Q59.9619 844.192 56.2698 841.455 Q52.5777 838.718 46.212 838.718 Q39.8781 838.718 36.186 841.455 Q32.4621 844.192 32.4621 848.871 M27.4968 848.871 Q27.4968 841.232 32.4621 836.872 Q37.4273 832.511 46.212 832.511 Q54.9649 832.511 59.9619 836.872 Q64.9272 841.232 64.9272 848.871 Q64.9272 856.542 59.9619 860.902 Q54.9649 865.231 46.212 865.231 Q37.4273 865.231 32.4621 860.902 Q27.4968 856.542 27.4968 848.871 Z" fill="#000000" fill-rule="nonzero" fill-opacity="1" /><path clip-path="url(#clip150)" d="M64.0042 789.574 L16.4842 807.717 L16.4842 801.001 L56.4926 785.946 L16.4842 770.859 L16.4842 764.175 L64.0042 782.286 L64.0042 789.574 Z" fill="#000000" fill-rule="nonzero" fill-opacity="1" /><path clip-path="url(#clip150)" d="M46.0847 746.351 Q46.0847 753.449 47.7079 756.186 Q49.3312 758.924 53.2461 758.924 Q56.3653 758.924 58.2114 756.887 Q60.0256 754.818 60.0256 751.285 Q60.0256 746.415 56.5881 743.487 Q53.1188 740.527 47.3897 740.527 L46.0847 740.527 L46.0847 746.351 M43.6657 734.67 L64.0042 734.67 L64.0042 740.527 L58.5933 740.527 Q61.8398 742.532 63.3994 745.524 Q64.9272 748.516 64.9272 752.844 Q64.9272 758.319 61.8716 761.565 Q58.7843 764.78 53.6281 764.78 Q47.6125 764.78 44.5569 760.77 Q41.5014 756.727 41.5014 748.738 L41.5014 740.527 L40.9285 740.527 Q36.8862 740.527 34.6901 743.2 Q32.4621 745.842 32.4621 750.648 Q32.4621 753.704 33.1941 756.6 Q33.9262 759.496 35.3903 762.17 L29.9795 762.17 Q28.7381 758.955 28.1334 755.932 Q27.4968 752.908 27.4968 750.043 Q27.4968 742.309 31.5072 738.49 Q35.5176 734.67 43.6657 734.67 Z" fill="#000000" fill-rule="nonzero" fill-opacity="1" /><path clip-path="url(#clip150)" d="M14.479 722.607 L14.479 716.751 L64.0042 716.751 L64.0042 722.607 L14.479 722.607 Z" fill="#000000" fill-rule="nonzero" fill-opacity="1" /><path clip-path="url(#clip150)" d="M49.9359 705.102 L28.3562 705.102 L28.3562 699.245 L49.7131 699.245 Q54.7739 699.245 57.3202 697.272 Q59.8346 695.298 59.8346 691.352 Q59.8346 686.609 56.8109 683.872 Q53.7872 681.103 48.5673 681.103 L28.3562 681.103 L28.3562 675.246 L64.0042 675.246 L64.0042 681.103 L58.5296 681.103 Q61.7762 683.235 63.3676 686.068 Q64.9272 688.869 64.9272 692.593 Q64.9272 698.736 61.1078 701.919 Q57.2883 705.102 49.9359 705.102 M27.4968 690.365 L27.4968 690.365 Z" fill="#000000" fill-rule="nonzero" fill-opacity="1" /><path clip-path="url(#clip150)" d="M44.7161 632.692 L47.5806 632.692 L47.5806 659.619 Q53.6281 659.237 56.8109 655.99 Q59.9619 652.712 59.9619 646.887 Q59.9619 643.513 59.1344 640.362 Q58.3069 637.179 56.6518 634.06 L62.1899 634.06 Q63.5267 637.211 64.227 640.521 Q64.9272 643.832 64.9272 647.237 Q64.9272 655.767 59.9619 660.764 Q54.9967 665.73 46.5303 665.73 Q37.7774 665.73 32.6531 661.019 Q27.4968 656.277 27.4968 648.256 Q27.4968 641.063 32.1438 636.893 Q36.7589 632.692 44.7161 632.692 M42.9973 638.548 Q38.1912 638.612 35.3266 641.253 Q32.4621 643.863 32.4621 648.192 Q32.4621 653.094 35.2312 656.054 Q38.0002 658.982 43.0292 659.428 L42.9973 638.548 Z" fill="#000000" fill-rule="nonzero" fill-opacity="1" /><path clip-path="url(#clip150)" d="M43.5384 605.319 L43.5384 588.163 L48.7583 588.163 L48.7583 605.319 L43.5384 605.319 Z" fill="#000000" fill-rule="nonzero" fill-opacity="1" /><path clip-path="url(#clip150)" d="M16.4842 558.595 L16.4842 552.134 L45.3526 552.134 Q52.9915 552.134 56.3653 549.365 Q59.7073 546.595 59.7073 540.389 Q59.7073 534.214 56.3653 531.445 Q52.9915 528.676 45.3526 528.676 L16.4842 528.676 L16.4842 522.215 L46.1484 522.215 Q55.4423 522.215 60.1847 526.83 Q64.9272 531.413 64.9272 540.389 Q64.9272 549.396 60.1847 554.011 Q55.4423 558.595 46.1484 558.595 L16.4842 558.595 Z" fill="#000000" fill-rule="nonzero" fill-opacity="1" /><path clip-path="url(#clip150)" d="M18.0438 481.665 L24.314 481.665 Q22.5634 485.326 21.704 488.572 Q20.8447 491.819 20.8447 494.842 Q20.8447 500.094 22.8817 502.959 Q24.9187 505.791 28.6745 505.791 Q31.8255 505.791 33.4488 503.913 Q35.0402 502.004 36.0269 496.72 L36.8226 492.837 Q38.1912 485.644 41.6605 482.238 Q45.098 478.801 50.8908 478.801 Q57.7976 478.801 61.3624 483.448 Q64.9272 488.063 64.9272 497.007 Q64.9272 500.38 64.1633 504.2 Q63.3994 507.987 61.9035 512.061 L55.2831 512.061 Q57.4793 508.147 58.5933 504.391 Q59.7073 500.635 59.7073 497.007 Q59.7073 491.5 57.543 488.508 Q55.3786 485.516 51.3682 485.516 Q47.8671 485.516 45.8937 487.681 Q43.9204 489.813 42.9337 494.715 L42.1698 498.63 Q40.7375 505.823 37.682 509.038 Q34.6264 512.252 29.1837 512.252 Q22.8817 512.252 19.2532 507.828 Q15.6248 503.372 15.6248 495.574 Q15.6248 492.232 16.2295 488.763 Q16.8343 485.294 18.0438 481.665 Z" fill="#000000" fill-rule="nonzero" fill-opacity="1" /><path clip-path="url(#clip150)" d="M21.7677 462.345 L58.7206 462.345 L58.7206 454.579 Q58.7206 444.744 54.2646 440.193 Q49.8086 435.609 40.1964 435.609 Q30.6479 435.609 26.2237 440.193 Q21.7677 444.744 21.7677 454.579 L21.7677 462.345 M16.4842 468.775 L16.4842 455.566 Q16.4842 441.752 22.2451 435.291 Q27.9743 428.83 40.1964 428.83 Q52.4822 428.83 58.2432 435.323 Q64.0042 441.816 64.0042 455.566 L64.0042 468.775 L16.4842 468.775 Z" fill="#000000" fill-rule="nonzero" fill-opacity="1" /><path clip-path="url(#clip150)" d="M52.1669 12.096 L103.33 12.096 L103.33 18.9825 L81.8601 18.9825 L81.8601 72.576 L73.6367 72.576 L73.6367 18.9825 L52.1669 18.9825 L52.1669 12.096 Z" fill="#000000" fill-rule="nonzero" fill-opacity="1" /><path clip-path="url(#clip150)" d="M135.616 48.0275 L135.616 51.6733 L101.345 51.6733 Q101.831 59.3701 105.963 63.421 Q110.135 67.4314 117.549 67.4314 Q121.842 67.4314 125.853 66.3781 Q129.904 65.3249 133.874 63.2184 L133.874 70.267 Q129.863 71.9684 125.65 72.8596 Q121.437 73.7508 117.103 73.7508 Q106.247 73.7508 99.8866 67.4314 Q93.5672 61.1119 93.5672 50.3365 Q93.5672 39.1965 99.5625 32.6746 Q105.598 26.1121 115.807 26.1121 Q124.962 26.1121 130.268 32.0264 Q135.616 37.9003 135.616 48.0275 M128.162 45.84 Q128.081 39.7232 124.719 36.0774 Q121.397 32.4315 115.888 32.4315 Q109.649 32.4315 105.882 35.9558 Q102.155 39.4801 101.588 45.8805 L128.162 45.84 Z" fill="#000000" fill-rule="nonzero" fill-opacity="1" /><path clip-path="url(#clip150)" d="M183.173 35.9153 Q185.968 30.8922 189.857 28.5022 Q193.746 26.1121 199.012 26.1121 Q206.101 26.1121 209.95 31.0947 Q213.798 36.0368 213.798 45.1919 L213.798 72.576 L206.304 72.576 L206.304 45.4349 Q206.304 38.913 203.995 35.7533 Q201.686 32.5936 196.946 32.5936 Q191.153 32.5936 187.791 36.4419 Q184.429 40.2903 184.429 46.9338 L184.429 72.576 L176.935 72.576 L176.935 45.4349 Q176.935 38.8725 174.626 35.7533 Q172.317 32.5936 167.496 32.5936 Q161.784 32.5936 158.422 36.4824 Q155.06 40.3308 155.06 46.9338 L155.06 72.576 L147.566 72.576 L147.566 27.2059 L155.06 27.2059 L155.06 34.2544 Q157.612 30.082 161.177 28.0971 Q164.742 26.1121 169.643 26.1121 Q174.585 26.1121 178.029 28.6237 Q181.512 31.1352 183.173 35.9153 Z" fill="#000000" fill-rule="nonzero" fill-opacity="1" /><path clip-path="url(#clip150)" d="M235.875 65.7705 L235.875 89.8329 L228.381 89.8329 L228.381 27.2059 L235.875 27.2059 L235.875 34.0924 Q238.225 30.0415 241.79 28.0971 Q245.395 26.1121 250.378 26.1121 Q258.642 26.1121 263.786 32.6746 Q268.971 39.2371 268.971 49.9314 Q268.971 60.6258 263.786 67.1883 Q258.642 73.7508 250.378 73.7508 Q245.395 73.7508 241.79 71.8063 Q238.225 69.8214 235.875 65.7705 M261.234 49.9314 Q261.234 41.7081 257.831 37.0496 Q254.469 32.3505 248.555 32.3505 Q242.64 32.3505 239.238 37.0496 Q235.875 41.7081 235.875 49.9314 Q235.875 58.1548 239.238 62.8538 Q242.64 67.5124 248.555 67.5124 Q254.469 67.5124 257.831 62.8538 Q261.234 58.1548 261.234 49.9314 Z" fill="#000000" fill-rule="nonzero" fill-opacity="1" /><path clip-path="url(#clip150)" d="M281.327 9.54393 L288.78 9.54393 L288.78 72.576 L281.327 72.576 L281.327 9.54393 Z" fill="#000000" fill-rule="nonzero" fill-opacity="1" /><path clip-path="url(#clip150)" d="M324.995 49.7694 Q315.962 49.7694 312.478 51.8354 Q308.994 53.9013 308.994 58.8839 Q308.994 62.8538 311.587 65.2034 Q314.22 67.5124 318.716 67.5124 Q324.914 67.5124 328.641 63.1374 Q332.409 58.7219 332.409 51.4303 L332.409 49.7694 L324.995 49.7694 M339.862 46.6907 L339.862 72.576 L332.409 72.576 L332.409 65.6895 Q329.856 69.8214 326.049 71.8063 Q322.241 73.7508 316.732 73.7508 Q309.764 73.7508 305.632 69.8619 Q301.541 65.9325 301.541 59.3701 Q301.541 51.7138 306.645 47.825 Q311.789 43.9361 321.957 43.9361 L332.409 43.9361 L332.409 43.2069 Q332.409 38.0623 329.006 35.2672 Q325.643 32.4315 319.527 32.4315 Q315.638 32.4315 311.951 33.3632 Q308.265 34.295 304.862 36.1584 L304.862 29.2718 Q308.954 27.692 312.802 26.9223 Q316.65 26.1121 320.296 26.1121 Q330.14 26.1121 335.001 31.2163 Q339.862 36.3204 339.862 46.6907 Z" fill="#000000" fill-rule="nonzero" fill-opacity="1" /><path clip-path="url(#clip150)" d="M362.588 14.324 L362.588 27.2059 L377.941 27.2059 L377.941 32.9987 L362.588 32.9987 L362.588 57.6282 Q362.588 63.1779 364.087 64.7578 Q365.626 66.3376 370.284 66.3376 L377.941 66.3376 L377.941 72.576 L370.284 72.576 Q361.656 72.576 358.375 69.3758 Q355.094 66.1351 355.094 57.6282 L355.094 32.9987 L349.625 32.9987 L349.625 27.2059 L355.094 27.2059 L355.094 14.324 L362.588 14.324 Z" fill="#000000" fill-rule="nonzero" fill-opacity="1" /><path clip-path="url(#clip150)" d="M426.552 48.0275 L426.552 51.6733 L392.281 51.6733 Q392.767 59.3701 396.899 63.421 Q401.071 67.4314 408.484 67.4314 Q412.778 67.4314 416.789 66.3781 Q420.84 65.3249 424.81 63.2184 L424.81 70.267 Q420.799 71.9684 416.586 72.8596 Q412.373 73.7508 408.039 73.7508 Q397.182 73.7508 390.823 67.4314 Q384.503 61.1119 384.503 50.3365 Q384.503 39.1965 390.498 32.6746 Q396.534 26.1121 406.743 26.1121 Q415.898 26.1121 421.204 32.0264 Q426.552 37.9003 426.552 48.0275 M419.098 45.84 Q419.017 39.7232 415.655 36.0774 Q412.333 32.4315 406.824 32.4315 Q400.585 32.4315 396.818 35.9558 Q393.091 39.4801 392.524 45.8805 L419.098 45.84 Z" fill="#000000" fill-rule="nonzero" fill-opacity="1" /><path clip-path="url(#clip150)" d="M501.736 14.0809 L501.736 22.0612 Q497.078 19.8332 492.946 18.7395 Q488.814 17.6457 484.966 17.6457 Q478.282 17.6457 474.636 20.2383 Q471.03 22.8309 471.03 27.611 Q471.03 31.6214 473.42 33.6873 Q475.851 35.7128 482.576 36.9686 L487.518 37.9813 Q496.673 39.7232 501.007 44.1387 Q505.382 48.5136 505.382 55.8863 Q505.382 64.6767 499.468 69.2137 Q493.594 73.7508 482.211 73.7508 Q477.917 73.7508 473.056 72.7785 Q468.235 71.8063 463.05 69.9024 L463.05 61.4765 Q468.033 64.2716 472.813 65.6895 Q477.593 67.1073 482.211 67.1073 Q489.219 67.1073 493.027 64.3527 Q496.835 61.598 496.835 56.4939 Q496.835 52.0379 494.08 49.5264 Q491.366 47.0148 485.128 45.759 L480.145 44.7868 Q470.99 42.9639 466.899 39.075 Q462.807 35.1862 462.807 28.2591 Q462.807 20.2383 468.438 15.6203 Q474.109 11.0023 484.034 11.0023 Q488.287 11.0023 492.703 11.7719 Q497.118 12.5416 501.736 14.0809 Z" fill="#000000" fill-rule="nonzero" fill-opacity="1" /><path clip-path="url(#clip150)" d="M525.191 14.324 L525.191 27.2059 L540.544 27.2059 L540.544 32.9987 L525.191 32.9987 L525.191 57.6282 Q525.191 63.1779 526.69 64.7578 Q528.229 66.3376 532.888 66.3376 L540.544 66.3376 L540.544 72.576 L532.888 72.576 Q524.259 72.576 520.978 69.3758 Q517.697 66.1351 517.697 57.6282 L517.697 32.9987 L512.228 32.9987 L512.228 27.2059 L517.697 27.2059 L517.697 14.324 L525.191 14.324 Z" fill="#000000" fill-rule="nonzero" fill-opacity="1" /><path clip-path="url(#clip150)" d="M576.638 34.1734 Q575.382 33.4443 573.883 33.1202 Q572.425 32.7556 570.642 32.7556 Q564.323 32.7556 560.92 36.8875 Q557.558 40.9789 557.558 48.6757 L557.558 72.576 L550.064 72.576 L550.064 27.2059 L557.558 27.2059 L557.558 34.2544 Q559.907 30.1225 563.675 28.1376 Q567.442 26.1121 572.83 26.1121 Q573.599 26.1121 574.531 26.2337 Q575.463 26.3147 576.597 26.5172 L576.638 34.1734 Z" fill="#000000" fill-rule="nonzero" fill-opacity="1" /><path clip-path="url(#clip150)" d="M605.075 49.7694 Q596.041 49.7694 592.558 51.8354 Q589.074 53.9013 589.074 58.8839 Q589.074 62.8538 591.666 65.2034 Q594.299 67.5124 598.796 67.5124 Q604.994 67.5124 608.721 63.1374 Q612.488 58.7219 612.488 51.4303 L612.488 49.7694 L605.075 49.7694 M619.942 46.6907 L619.942 72.576 L612.488 72.576 L612.488 65.6895 Q609.936 69.8214 606.128 71.8063 Q602.32 73.7508 596.811 73.7508 Q589.843 73.7508 585.712 69.8619 Q581.62 65.9325 581.62 59.3701 Q581.62 51.7138 586.724 47.825 Q591.869 43.9361 602.037 43.9361 L612.488 43.9361 L612.488 43.2069 Q612.488 38.0623 609.085 35.2672 Q605.723 32.4315 599.606 32.4315 Q595.717 32.4315 592.031 33.3632 Q588.345 34.295 584.942 36.1584 L584.942 29.2718 Q589.033 27.692 592.882 26.9223 Q596.73 26.1121 600.376 26.1121 Q610.22 26.1121 615.081 31.2163 Q619.942 36.3204 619.942 46.6907 Z" fill="#000000" fill-rule="nonzero" fill-opacity="1" /><path clip-path="url(#clip150)" d="M642.667 14.324 L642.667 27.2059 L658.02 27.2059 L658.02 32.9987 L642.667 32.9987 L642.667 57.6282 Q642.667 63.1779 644.166 64.7578 Q645.705 66.3376 650.364 66.3376 L658.02 66.3376 L658.02 72.576 L650.364 72.576 Q641.736 72.576 638.454 69.3758 Q635.173 66.1351 635.173 57.6282 L635.173 32.9987 L629.704 32.9987 L629.704 27.2059 L635.173 27.2059 L635.173 14.324 L642.667 14.324 Z" fill="#000000" fill-rule="nonzero" fill-opacity="1" /><path clip-path="url(#clip150)" d="M706.631 48.0275 L706.631 51.6733 L672.36 51.6733 Q672.846 59.3701 676.978 63.421 Q681.151 67.4314 688.564 67.4314 Q692.858 67.4314 696.868 66.3781 Q700.919 65.3249 704.889 63.2184 L704.889 70.267 Q700.879 71.9684 696.666 72.8596 Q692.453 73.7508 688.118 73.7508 Q677.262 73.7508 670.902 67.4314 Q664.583 61.1119 664.583 50.3365 Q664.583 39.1965 670.578 32.6746 Q676.614 26.1121 686.822 26.1121 Q695.977 26.1121 701.284 32.0264 Q706.631 37.9003 706.631 48.0275 M699.177 45.84 Q699.096 39.7232 695.734 36.0774 Q692.412 32.4315 686.903 32.4315 Q680.665 32.4315 676.897 35.9558 Q673.171 39.4801 672.603 45.8805 L699.177 45.84 Z" fill="#000000" fill-rule="nonzero" fill-opacity="1" /><path clip-path="url(#clip150)" d="M748.72 49.3643 Q748.72 41.2625 745.358 36.8065 Q742.036 32.3505 736 32.3505 Q730.005 32.3505 726.642 36.8065 Q723.321 41.2625 723.321 49.3643 Q723.321 57.4256 726.642 61.8816 Q730.005 66.3376 736 66.3376 Q742.036 66.3376 745.358 61.8816 Q748.72 57.4256 748.72 49.3643 M756.174 66.9452 Q756.174 78.5308 751.029 84.1616 Q745.884 89.8329 735.271 89.8329 Q731.342 89.8329 727.858 89.2252 Q724.374 88.6581 721.093 87.4428 L721.093 80.1917 Q724.374 81.9741 727.574 82.8248 Q730.774 83.6755 734.096 83.6755 Q741.428 83.6755 745.074 79.8271 Q748.72 76.0193 748.72 68.282 L748.72 64.5957 Q746.411 68.6061 742.806 70.5911 Q739.2 72.576 734.177 72.576 Q725.832 72.576 720.728 66.2161 Q715.624 59.8562 715.624 49.3643 Q715.624 38.832 720.728 32.472 Q725.832 26.1121 734.177 26.1121 Q739.2 26.1121 742.806 28.0971 Q746.411 30.082 748.72 34.0924 L748.72 27.2059 L756.174 27.2059 L756.174 66.9452 Z" fill="#000000" fill-rule="nonzero" fill-opacity="1" /><path clip-path="url(#clip150)" d="M790.404 76.7889 Q787.244 84.8907 784.246 87.3618 Q781.249 89.8329 776.226 89.8329 L770.271 89.8329 L770.271 83.5945 L774.646 83.5945 Q777.724 83.5945 779.426 82.1361 Q781.127 80.6778 783.193 75.2496 L784.53 71.8468 L766.179 27.2059 L774.079 27.2059 L788.257 62.6918 L802.435 27.2059 L810.334 27.2059 L790.404 76.7889 Z" fill="#000000" fill-rule="nonzero" fill-opacity="1" /><path clip-path="url(#clip150)" d="M816.492 62.2867 L825.039 62.2867 L825.039 72.576 L816.492 72.576 L816.492 62.2867 M816.492 29.6769 L825.039 29.6769 L825.039 39.9662 L816.492 39.9662 L816.492 29.6769 Z" fill="#000000" fill-rule="nonzero" fill-opacity="1" /><path clip-path="url(#clip150)" d="M869.234 12.096 L881.428 12.096 L896.861 53.2532 L912.376 12.096 L924.57 12.096 L924.57 72.576 L916.589 72.576 L916.589 19.4686 L900.993 60.9499 L892.77 60.9499 L877.174 19.4686 L877.174 72.576 L869.234 72.576 L869.234 12.096 Z" fill="#000000" fill-rule="nonzero" fill-opacity="1" /><path clip-path="url(#clip150)" d="M948.997 18.8205 L948.997 41.5461 L959.286 41.5461 Q964.998 41.5461 968.117 38.5889 Q971.236 35.6318 971.236 30.163 Q971.236 24.7348 968.117 21.7777 Q964.998 18.8205 959.286 18.8205 L948.997 18.8205 M940.814 12.096 L959.286 12.096 Q969.454 12.096 974.639 16.714 Q979.865 21.2916 979.865 30.163 Q979.865 39.1155 974.639 43.6931 Q969.454 48.2706 959.286 48.2706 L948.997 48.2706 L948.997 72.576 L940.814 72.576 L940.814 12.096 Z" fill="#000000" fill-rule="nonzero" fill-opacity="1" /><path clip-path="url(#clip150)" d="M1036.13 16.7545 L1036.13 25.383 Q1032 21.5346 1027.3 19.6307 Q1022.64 17.7268 1017.38 17.7268 Q1007.01 17.7268 1001.5 24.0867 Q995.987 30.4061 995.987 42.3968 Q995.987 54.3469 1001.5 60.7069 Q1007.01 67.0263 1017.38 67.0263 Q1022.64 67.0263 1027.3 65.1223 Q1032 63.2184 1036.13 59.3701 L1036.13 67.9175 Q1031.84 70.8341 1027.02 72.2924 Q1022.24 73.7508 1016.89 73.7508 Q1003.16 73.7508 995.258 65.3654 Q987.359 56.9395 987.359 42.3968 Q987.359 27.8135 995.258 19.4281 Q1003.16 11.0023 1016.89 11.0023 Q1022.32 11.0023 1027.1 12.4606 Q1031.92 13.8784 1036.13 16.7545 Z" fill="#000000" fill-rule="nonzero" fill-opacity="1" /><path clip-path="url(#clip150)" d="M1070.48 27.2059 L1077.94 27.2059 L1087.25 62.6108 L1096.53 27.2059 L1105.32 27.2059 L1114.64 62.6108 L1123.91 27.2059 L1131.37 27.2059 L1119.5 72.576 L1110.71 72.576 L1100.95 35.3887 L1091.14 72.576 L1082.35 72.576 L1070.48 27.2059 Z" fill="#000000" fill-rule="nonzero" fill-opacity="1" /><path clip-path="url(#clip150)" d="M1142.67 27.2059 L1150.12 27.2059 L1150.12 72.576 L1142.67 72.576 L1142.67 27.2059 M1142.67 9.54393 L1150.12 9.54393 L1150.12 18.9825 L1142.67 18.9825 L1142.67 9.54393 Z" fill="#000000" fill-rule="nonzero" fill-opacity="1" /><path clip-path="url(#clip150)" d="M1173.09 14.324 L1173.09 27.2059 L1188.45 27.2059 L1188.45 32.9987 L1173.09 32.9987 L1173.09 57.6282 Q1173.09 63.1779 1174.59 64.7578 Q1176.13 66.3376 1180.79 66.3376 L1188.45 66.3376 L1188.45 72.576 L1180.79 72.576 Q1172.16 72.576 1168.88 69.3758 Q1165.6 66.1351 1165.6 57.6282 L1165.6 32.9987 L1160.13 32.9987 L1160.13 27.2059 L1165.6 27.2059 L1165.6 14.324 L1173.09 14.324 Z" fill="#000000" fill-rule="nonzero" fill-opacity="1" /><path clip-path="url(#clip150)" d="M1235.96 45.1919 L1235.96 72.576 L1228.51 72.576 L1228.51 45.4349 Q1228.51 38.994 1226 35.7938 Q1223.49 32.5936 1218.46 32.5936 Q1212.43 32.5936 1208.94 36.4419 Q1205.46 40.2903 1205.46 46.9338 L1205.46 72.576 L1197.97 72.576 L1197.97 9.54393 L1205.46 9.54393 L1205.46 34.2544 Q1208.13 30.163 1211.74 28.1376 Q1215.38 26.1121 1220.12 26.1121 Q1227.94 26.1121 1231.95 30.9732 Q1235.96 35.7938 1235.96 45.1919 Z" fill="#000000" fill-rule="nonzero" fill-opacity="1" /><path clip-path="url(#clip150)" d="M1276.19 12.096 L1315.08 12.096 L1315.08 15.5798 L1293.12 72.576 L1284.57 72.576 L1305.23 18.9825 L1276.19 18.9825 L1276.19 12.096 Z" fill="#000000" fill-rule="nonzero" fill-opacity="1" /><path clip-path="url(#clip150)" d="M1386.21 34.0924 L1386.21 9.54393 L1393.66 9.54393 L1393.66 72.576 L1386.21 72.576 L1386.21 65.7705 Q1383.86 69.8214 1380.26 71.8063 Q1376.69 73.7508 1371.67 73.7508 Q1363.44 73.7508 1358.26 67.1883 Q1353.11 60.6258 1353.11 49.9314 Q1353.11 39.2371 1358.26 32.6746 Q1363.44 26.1121 1371.67 26.1121 Q1376.69 26.1121 1380.26 28.0971 Q1383.86 30.0415 1386.21 34.0924 M1360.81 49.9314 Q1360.81 58.1548 1364.17 62.8538 Q1367.58 67.5124 1373.49 67.5124 Q1379.41 67.5124 1382.81 62.8538 Q1386.21 58.1548 1386.21 49.9314 Q1386.21 41.7081 1382.81 37.0496 Q1379.41 32.3505 1373.49 32.3505 Q1367.58 32.3505 1364.17 37.0496 Q1360.81 41.7081 1360.81 49.9314 Z" fill="#000000" fill-rule="nonzero" fill-opacity="1" /><path clip-path="url(#clip150)" d="M1429.64 49.7694 Q1420.6 49.7694 1417.12 51.8354 Q1413.64 53.9013 1413.64 58.8839 Q1413.64 62.8538 1416.23 65.2034 Q1418.86 67.5124 1423.36 67.5124 Q1429.56 67.5124 1433.28 63.1374 Q1437.05 58.7219 1437.05 51.4303 L1437.05 49.7694 L1429.64 49.7694 M1444.5 46.6907 L1444.5 72.576 L1437.05 72.576 L1437.05 65.6895 Q1434.5 69.8214 1430.69 71.8063 Q1426.88 73.7508 1421.37 73.7508 Q1414.41 73.7508 1410.27 69.8619 Q1406.18 65.9325 1406.18 59.3701 Q1406.18 51.7138 1411.29 47.825 Q1416.43 43.9361 1426.6 43.9361 L1437.05 43.9361 L1437.05 43.2069 Q1437.05 38.0623 1433.65 35.2672 Q1430.28 32.4315 1424.17 32.4315 Q1420.28 32.4315 1416.59 33.3632 Q1412.91 34.295 1409.5 36.1584 L1409.5 29.2718 Q1413.59 27.692 1417.44 26.9223 Q1421.29 26.1121 1424.94 26.1121 Q1434.78 26.1121 1439.64 31.2163 Q1444.5 36.3204 1444.5 46.6907 Z" fill="#000000" fill-rule="nonzero" fill-opacity="1" /><path clip-path="url(#clip150)" d="M1478.73 76.7889 Q1475.57 84.8907 1472.58 87.3618 Q1469.58 89.8329 1464.56 89.8329 L1458.6 89.8329 L1458.6 83.5945 L1462.98 83.5945 Q1466.05 83.5945 1467.76 82.1361 Q1469.46 80.6778 1471.52 75.2496 L1472.86 71.8468 L1454.51 27.2059 L1462.41 27.2059 L1476.59 62.6918 L1490.76 27.2059 L1498.66 27.2059 L1478.73 76.7889 Z" fill="#000000" fill-rule="nonzero" fill-opacity="1" /><path clip-path="url(#clip150)" d="M1580.94 16.7545 L1580.94 25.383 Q1576.81 21.5346 1572.11 19.6307 Q1567.45 17.7268 1562.18 17.7268 Q1551.81 17.7268 1546.3 24.0867 Q1540.79 30.4061 1540.79 42.3968 Q1540.79 54.3469 1546.3 60.7069 Q1551.81 67.0263 1562.18 67.0263 Q1567.45 67.0263 1572.11 65.1223 Q1576.81 63.2184 1580.94 59.3701 L1580.94 67.9175 Q1576.64 70.8341 1571.82 72.2924 Q1567.04 73.7508 1561.7 73.7508 Q1547.96 73.7508 1540.06 65.3654 Q1532.16 56.9395 1532.16 42.3968 Q1532.16 27.8135 1540.06 19.4281 Q1547.96 11.0023 1561.7 11.0023 Q1567.12 11.0023 1571.9 12.4606 Q1576.72 13.8784 1580.94 16.7545 Z" fill="#000000" fill-rule="nonzero" fill-opacity="1" /><path clip-path="url(#clip150)" d="M1619.54 34.1734 Q1618.29 33.4443 1616.79 33.1202 Q1615.33 32.7556 1613.55 32.7556 Q1607.23 32.7556 1603.83 36.8875 Q1600.46 40.9789 1600.46 48.6757 L1600.46 72.576 L1592.97 72.576 L1592.97 27.2059 L1600.46 27.2059 L1600.46 34.2544 Q1602.81 30.1225 1606.58 28.1376 Q1610.35 26.1121 1615.73 26.1121 Q1616.5 26.1121 1617.44 26.2337 Q1618.37 26.3147 1619.5 26.5172 L1619.54 34.1734 Z" fill="#000000" fill-rule="nonzero" fill-opacity="1" /><path clip-path="url(#clip150)" d="M1646.24 76.7889 Q1643.08 84.8907 1640.08 87.3618 Q1637.08 89.8329 1632.06 89.8329 L1626.11 89.8329 L1626.11 83.5945 L1630.48 83.5945 Q1633.56 83.5945 1635.26 82.1361 Q1636.96 80.6778 1639.03 75.2496 L1640.36 71.8468 L1622.01 27.2059 L1629.91 27.2059 L1644.09 62.6918 L1658.27 27.2059 L1666.17 27.2059 L1646.24 76.7889 Z" fill="#000000" fill-rule="nonzero" fill-opacity="1" /><path clip-path="url(#clip150)" d="M1705.38 28.5427 L1705.38 35.5912 Q1702.22 33.9709 1698.82 33.1607 Q1695.42 32.3505 1691.77 32.3505 Q1686.22 32.3505 1683.43 34.0519 Q1680.67 35.7533 1680.67 39.156 Q1680.67 41.7486 1682.66 43.2475 Q1684.64 44.7058 1690.64 46.0426 L1693.19 46.6097 Q1701.13 48.3111 1704.45 51.4303 Q1707.81 54.509 1707.81 60.0587 Q1707.81 66.3781 1702.79 70.0644 Q1697.81 73.7508 1689.06 73.7508 Q1685.41 73.7508 1681.44 73.0216 Q1677.51 72.3329 1673.14 70.9151 L1673.14 63.2184 Q1677.27 65.3654 1681.28 66.4591 Q1685.29 67.5124 1689.22 67.5124 Q1694.48 67.5124 1697.32 65.73 Q1700.16 63.9071 1700.16 60.6258 Q1700.16 57.5877 1698.09 55.9673 Q1696.06 54.3469 1689.14 52.8481 L1686.54 52.2405 Q1679.62 50.7821 1676.54 47.7845 Q1673.46 44.7463 1673.46 39.4801 Q1673.46 33.0797 1678 29.5959 Q1682.53 26.1121 1690.88 26.1121 Q1695.01 26.1121 1698.66 26.7198 Q1702.3 27.3274 1705.38 28.5427 Z" fill="#000000" fill-rule="nonzero" fill-opacity="1" /><path clip-path="url(#clip150)" d="M1727.05 14.324 L1727.05 27.2059 L1742.41 27.2059 L1742.41 32.9987 L1727.05 32.9987 L1727.05 57.6282 Q1727.05 63.1779 1728.55 64.7578 Q1730.09 66.3376 1734.75 66.3376 L1742.41 66.3376 L1742.41 72.576 L1734.75 72.576 Q1726.12 72.576 1722.84 69.3758 Q1719.56 66.1351 1719.56 57.6282 L1719.56 32.9987 L1714.09 32.9987 L1714.09 27.2059 L1719.56 27.2059 L1719.56 14.324 L1727.05 14.324 Z" fill="#000000" fill-rule="nonzero" fill-opacity="1" /><path clip-path="url(#clip150)" d="M1772.83 49.7694 Q1763.8 49.7694 1760.31 51.8354 Q1756.83 53.9013 1756.83 58.8839 Q1756.83 62.8538 1759.42 65.2034 Q1762.05 67.5124 1766.55 67.5124 Q1772.75 67.5124 1776.47 63.1374 Q1780.24 58.7219 1780.24 51.4303 L1780.24 49.7694 L1772.83 49.7694 M1787.7 46.6907 L1787.7 72.576 L1780.24 72.576 L1780.24 65.6895 Q1777.69 69.8214 1773.88 71.8063 Q1770.07 73.7508 1764.57 73.7508 Q1757.6 73.7508 1753.47 69.8619 Q1749.37 65.9325 1749.37 59.3701 Q1749.37 51.7138 1754.48 47.825 Q1759.62 43.9361 1769.79 43.9361 L1780.24 43.9361 L1780.24 43.2069 Q1780.24 38.0623 1776.84 35.2672 Q1773.48 32.4315 1767.36 32.4315 Q1763.47 32.4315 1759.79 33.3632 Q1756.1 34.295 1752.7 36.1584 L1752.7 29.2718 Q1756.79 27.692 1760.64 26.9223 Q1764.48 26.1121 1768.13 26.1121 Q1777.97 26.1121 1782.83 31.2163 Q1787.7 36.3204 1787.7 46.6907 Z" fill="#000000" fill-rule="nonzero" fill-opacity="1" /><path clip-path="url(#clip150)" d="M1803.05 9.54393 L1810.5 9.54393 L1810.5 72.576 L1803.05 72.576 L1803.05 9.54393 Z" fill="#000000" fill-rule="nonzero" fill-opacity="1" /><path clip-path="url(#clip150)" d="M1885.04 49.9314 Q1885.04 41.7081 1881.64 37.0496 Q1878.27 32.3505 1872.36 32.3505 Q1866.45 32.3505 1863.04 37.0496 Q1859.68 41.7081 1859.68 49.9314 Q1859.68 58.1548 1863.04 62.8538 Q1866.45 67.5124 1872.36 67.5124 Q1878.27 67.5124 1881.64 62.8538 Q1885.04 58.1548 1885.04 49.9314 M1859.68 34.0924 Q1862.03 30.0415 1865.59 28.0971 Q1869.2 26.1121 1874.18 26.1121 Q1882.45 26.1121 1887.59 32.6746 Q1892.78 39.2371 1892.78 49.9314 Q1892.78 60.6258 1887.59 67.1883 Q1882.45 73.7508 1874.18 73.7508 Q1869.2 73.7508 1865.59 71.8063 Q1862.03 69.8214 1859.68 65.7705 L1859.68 72.576 L1852.19 72.576 L1852.19 9.54393 L1859.68 9.54393 L1859.68 34.0924 Z" fill="#000000" fill-rule="nonzero" fill-opacity="1" /><path clip-path="url(#clip150)" d="M1925.75 49.7694 Q1916.72 49.7694 1913.23 51.8354 Q1909.75 53.9013 1909.75 58.8839 Q1909.75 62.8538 1912.34 65.2034 Q1914.98 67.5124 1919.47 67.5124 Q1925.67 67.5124 1929.4 63.1374 Q1933.16 58.7219 1933.16 51.4303 L1933.16 49.7694 L1925.75 49.7694 M1940.62 46.6907 L1940.62 72.576 L1933.16 72.576 L1933.16 65.6895 Q1930.61 69.8214 1926.8 71.8063 Q1923 73.7508 1917.49 73.7508 Q1910.52 73.7508 1906.39 69.8619 Q1902.3 65.9325 1902.3 59.3701 Q1902.3 51.7138 1907.4 47.825 Q1912.54 43.9361 1922.71 43.9361 L1933.16 43.9361 L1933.16 43.2069 Q1933.16 38.0623 1929.76 35.2672 Q1926.4 32.4315 1920.28 32.4315 Q1916.39 32.4315 1912.71 33.3632 Q1909.02 34.295 1905.62 36.1584 L1905.62 29.2718 Q1909.71 27.692 1913.56 26.9223 Q1917.41 26.1121 1921.05 26.1121 Q1930.9 26.1121 1935.76 31.2163 Q1940.62 36.3204 1940.62 46.6907 Z" fill="#000000" fill-rule="nonzero" fill-opacity="1" /><path clip-path="url(#clip150)" d="M1955.97 9.54393 L1963.42 9.54393 L1963.42 72.576 L1955.97 72.576 L1955.97 9.54393 Z" fill="#000000" fill-rule="nonzero" fill-opacity="1" /><path clip-path="url(#clip150)" d="M1979.02 9.54393 L1986.47 9.54393 L1986.47 72.576 L1979.02 72.576 L1979.02 9.54393 Z" fill="#000000" fill-rule="nonzero" fill-opacity="1" /><path clip-path="url(#clip150)" d="M2024.67 46.5287 L2046.51 46.5287 L2046.51 53.1722 L2024.67 53.1722 L2024.67 46.5287 Z" fill="#000000" fill-rule="nonzero" fill-opacity="1" /><path clip-path="url(#clip150)" d="M2093.26 18.8205 L2093.26 41.5461 L2103.54 41.5461 Q2109.26 41.5461 2112.38 38.5889 Q2115.5 35.6318 2115.5 30.163 Q2115.5 24.7348 2112.38 21.7777 Q2109.26 18.8205 2103.54 18.8205 L2093.26 18.8205 M2085.07 12.096 L2103.54 12.096 Q2113.71 12.096 2118.9 16.714 Q2124.12 21.2916 2124.12 30.163 Q2124.12 39.1155 2118.9 43.6931 Q2113.71 48.2706 2103.54 48.2706 L2093.26 48.2706 L2093.26 72.576 L2085.07 72.576 L2085.07 12.096 Z" fill="#000000" fill-rule="nonzero" fill-opacity="1" /><path clip-path="url(#clip150)" d="M2149.4 32.4315 Q2143.41 32.4315 2139.92 37.1306 Q2136.44 41.7891 2136.44 49.9314 Q2136.44 58.0738 2139.88 62.7728 Q2143.37 67.4314 2149.4 67.4314 Q2155.36 67.4314 2158.84 62.7323 Q2162.32 58.0333 2162.32 49.9314 Q2162.32 41.8701 2158.84 37.1711 Q2155.36 32.4315 2149.4 32.4315 M2149.4 26.1121 Q2159.12 26.1121 2164.67 32.4315 Q2170.22 38.7509 2170.22 49.9314 Q2170.22 61.0714 2164.67 67.4314 Q2159.12 73.7508 2149.4 73.7508 Q2139.64 73.7508 2134.09 67.4314 Q2128.58 61.0714 2128.58 49.9314 Q2128.58 38.7509 2134.09 32.4315 Q2139.64 26.1121 2149.4 26.1121 Z" fill="#000000" fill-rule="nonzero" fill-opacity="1" /><path clip-path="url(#clip150)" d="M2208.87 34.1734 Q2207.61 33.4443 2206.11 33.1202 Q2204.66 32.7556 2202.87 32.7556 Q2196.55 32.7556 2193.15 36.8875 Q2189.79 40.9789 2189.79 48.6757 L2189.79 72.576 L2182.29 72.576 L2182.29 27.2059 L2189.79 27.2059 L2189.79 34.2544 Q2192.14 30.1225 2195.91 28.1376 Q2199.67 26.1121 2205.06 26.1121 Q2205.83 26.1121 2206.76 26.2337 Q2207.69 26.3147 2208.83 26.5172 L2208.87 34.1734 Z" fill="#000000" fill-rule="nonzero" fill-opacity="1" /><path clip-path="url(#clip150)" d="M2224.06 14.324 L2224.06 27.2059 L2239.41 27.2059 L2239.41 32.9987 L2224.06 32.9987 L2224.06 57.6282 Q2224.06 63.1779 2225.56 64.7578 Q2227.1 66.3376 2231.76 66.3376 L2239.41 66.3376 L2239.41 72.576 L2231.76 72.576 Q2223.13 72.576 2219.85 69.3758 Q2216.57 66.1351 2216.57 57.6282 L2216.57 32.9987 L2211.1 32.9987 L2211.1 27.2059 L2216.57 27.2059 L2216.57 14.324 L2224.06 14.324 Z" fill="#000000" fill-rule="nonzero" fill-opacity="1" /><path clip-path="url(#clip150)" d="M2272.18 9.54393 L2272.18 15.7418 L2265.05 15.7418 Q2261.04 15.7418 2259.46 17.3622 Q2257.92 18.9825 2257.92 23.1955 L2257.92 27.2059 L2270.2 27.2059 L2270.2 32.9987 L2257.92 32.9987 L2257.92 72.576 L2250.43 72.576 L2250.43 32.9987 L2243.3 32.9987 L2243.3 27.2059 L2250.43 27.2059 L2250.43 24.0462 Q2250.43 16.471 2253.95 13.0277 Q2257.48 9.54393 2265.14 9.54393 L2272.18 9.54393 Z" fill="#000000" fill-rule="nonzero" fill-opacity="1" /><path clip-path="url(#clip150)" d="M2296 32.4315 Q2290.01 32.4315 2286.52 37.1306 Q2283.04 41.7891 2283.04 49.9314 Q2283.04 58.0738 2286.48 62.7728 Q2289.97 67.4314 2296 67.4314 Q2301.96 67.4314 2305.44 62.7323 Q2308.93 58.0333 2308.93 49.9314 Q2308.93 41.8701 2305.44 37.1711 Q2301.96 32.4315 2296 32.4315 M2296 26.1121 Q2305.73 26.1121 2311.28 32.4315 Q2316.82 38.7509 2316.82 49.9314 Q2316.82 61.0714 2311.28 67.4314 Q2305.73 73.7508 2296 73.7508 Q2286.24 73.7508 2280.69 67.4314 Q2275.18 61.0714 2275.18 49.9314 Q2275.18 38.7509 2280.69 32.4315 Q2286.24 26.1121 2296 26.1121 Z" fill="#000000" fill-rule="nonzero" fill-opacity="1" /><path clip-path="url(#clip150)" d="M2329.18 9.54393 L2336.63 9.54393 L2336.63 72.576 L2329.18 72.576 L2329.18 9.54393 Z" fill="#000000" fill-rule="nonzero" fill-opacity="1" /><path clip-path="url(#clip150)" d="M2352.23 27.2059 L2359.68 27.2059 L2359.68 72.576 L2352.23 72.576 L2352.23 27.2059 M2352.23 9.54393 L2359.68 9.54393 L2359.68 18.9825 L2352.23 18.9825 L2352.23 9.54393 Z" fill="#000000" fill-rule="nonzero" fill-opacity="1" /><path clip-path="url(#clip150)" d="M2392.86 32.4315 Q2386.87 32.4315 2383.38 37.1306 Q2379.9 41.7891 2379.9 49.9314 Q2379.9 58.0738 2383.34 62.7728 Q2386.82 67.4314 2392.86 67.4314 Q2398.82 67.4314 2402.3 62.7323 Q2405.78 58.0333 2405.78 49.9314 Q2405.78 41.8701 2402.3 37.1711 Q2398.82 32.4315 2392.86 32.4315 M2392.86 26.1121 Q2402.58 26.1121 2408.13 32.4315 Q2413.68 38.7509 2413.68 49.9314 Q2413.68 61.0714 2408.13 67.4314 Q2402.58 73.7508 2392.86 73.7508 Q2383.1 73.7508 2377.55 67.4314 Q2372.04 61.0714 2372.04 49.9314 Q2372.04 38.7509 2377.55 32.4315 Q2383.1 26.1121 2392.86 26.1121 Z" fill="#000000" fill-rule="nonzero" fill-opacity="1" /><path clip-path="url(#clip150)" d="M2468.33 72.576 L2445.24 12.096 L2453.79 12.096 L2472.95 63.0159 L2492.15 12.096 L2500.65 12.096 L2477.61 72.576 L2468.33 72.576 Z" fill="#000000" fill-rule="nonzero" fill-opacity="1" /><path clip-path="url(#clip150)" d="M2523.34 49.7694 Q2514.31 49.7694 2510.82 51.8354 Q2507.34 53.9013 2507.34 58.8839 Q2507.34 62.8538 2509.93 65.2034 Q2512.56 67.5124 2517.06 67.5124 Q2523.26 67.5124 2526.99 63.1374 Q2530.75 58.7219 2530.75 51.4303 L2530.75 49.7694 L2523.34 49.7694 M2538.21 46.6907 L2538.21 72.576 L2530.75 72.576 L2530.75 65.6895 Q2528.2 69.8214 2524.39 71.8063 Q2520.59 73.7508 2515.08 73.7508 Q2508.11 73.7508 2503.98 69.8619 Q2499.89 65.9325 2499.89 59.3701 Q2499.89 51.7138 2504.99 47.825 Q2510.13 43.9361 2520.3 43.9361 L2530.75 43.9361 L2530.75 43.2069 Q2530.75 38.0623 2527.35 35.2672 Q2523.99 32.4315 2517.87 32.4315 Q2513.98 32.4315 2510.3 33.3632 Q2506.61 34.295 2503.21 36.1584 L2503.21 29.2718 Q2507.3 27.692 2511.15 26.9223 Q2515 26.1121 2518.64 26.1121 Q2528.48 26.1121 2533.35 31.2163 Q2538.21 36.3204 2538.21 46.6907 Z" fill="#000000" fill-rule="nonzero" fill-opacity="1" /><path clip-path="url(#clip150)" d="M2553.56 9.54393 L2561.01 9.54393 L2561.01 72.576 L2553.56 72.576 L2553.56 9.54393 Z" fill="#000000" fill-rule="nonzero" fill-opacity="1" /><path clip-path="url(#clip150)" d="M2575.84 54.671 L2575.84 27.2059 L2583.29 27.2059 L2583.29 54.3874 Q2583.29 60.8284 2585.8 64.0691 Q2588.32 67.2693 2593.34 67.2693 Q2599.38 67.2693 2602.86 63.421 Q2606.38 59.5726 2606.38 52.9291 L2606.38 27.2059 L2613.84 27.2059 L2613.84 72.576 L2606.38 72.576 L2606.38 65.6084 Q2603.67 69.7404 2600.06 71.7658 Q2596.5 73.7508 2591.76 73.7508 Q2583.94 73.7508 2579.89 68.8897 Q2575.84 64.0286 2575.84 54.671 M2594.6 26.1121 L2594.6 26.1121 Z" fill="#000000" fill-rule="nonzero" fill-opacity="1" /><path clip-path="url(#clip150)" d="M2668 48.0275 L2668 51.6733 L2633.73 51.6733 Q2634.21 59.3701 2638.35 63.421 Q2642.52 67.4314 2649.93 67.4314 Q2654.22 67.4314 2658.24 66.3781 Q2662.29 65.3249 2666.26 63.2184 L2666.26 70.267 Q2662.25 71.9684 2658.03 72.8596 Q2653.82 73.7508 2649.49 73.7508 Q2638.63 73.7508 2632.27 67.4314 Q2625.95 61.1119 2625.95 50.3365 Q2625.95 39.1965 2631.94 32.6746 Q2637.98 26.1121 2648.19 26.1121 Q2657.34 26.1121 2662.65 32.0264 Q2668 37.9003 2668 48.0275 M2660.54 45.84 Q2660.46 39.7232 2657.1 36.0774 Q2653.78 32.4315 2648.27 32.4315 Q2642.03 32.4315 2638.26 35.9558 Q2634.54 39.4801 2633.97 45.8805 L2660.54 45.84 Z" fill="#000000" fill-rule="nonzero" fill-opacity="1" /><polyline clip-path="url(#clip152)" style="stroke:#009af9; stroke-linecap:round; stroke-linejoin:round; stroke-width:12; stroke-opacity:1; fill:none" points="423.598,1386.4 490.49,1386.4 557.381,1386.4 624.273,1386.4 691.165,1386.4 891.84,1286.8 958.732,1139.83 1025.62,1004.5 1092.52,947.046 1159.41,947.046 1426.97,947.046 1493.87,891.857 1560.76,867.915 1627.65,659.087 1828.32,160.256 1895.22,160.256 1962.11,160.256 2029,160.256 2095.89,160.256 2296.57,160.256 "/>
<path clip-path="url(#clip150)" d="M433.587 270.476 L757.677 270.476 L757.677 166.796 L433.587 166.796  Z" fill="#ffffff" fill-rule="evenodd" fill-opacity="1"/>
<polyline clip-path="url(#clip150)" style="stroke:#000000; stroke-linecap:round; stroke-linejoin:round; stroke-width:4; stroke-opacity:1; fill:none" points="433.587,270.476 757.677,270.476 757.677,166.796 433.587,166.796 433.587,270.476 "/>
<polyline clip-path="url(#clip150)" style="stroke:#009af9; stroke-linecap:round; stroke-linejoin:round; stroke-width:12; stroke-opacity:1; fill:none" points="455.647,218.636 588.003,218.636 "/>
<path clip-path="url(#clip150)" d="M610.062 209.99 L614.576 209.99 L622.678 231.749 L630.78 209.99 L635.294 209.99 L625.572 235.916 L619.785 235.916 L610.062 209.99 Z" fill="#000000" fill-rule="nonzero" fill-opacity="1" /><path clip-path="url(#clip150)" d="M652.956 222.883 Q647.794 222.883 645.803 224.064 Q643.812 225.244 643.812 228.092 Q643.812 230.36 645.294 231.703 Q646.798 233.022 649.368 233.022 Q652.909 233.022 655.039 230.522 Q657.192 227.999 657.192 223.832 L657.192 222.883 L652.956 222.883 M661.451 221.124 L661.451 235.916 L657.192 235.916 L657.192 231.981 Q655.733 234.342 653.558 235.476 Q651.382 236.587 648.233 236.587 Q644.252 236.587 641.891 234.365 Q639.553 232.119 639.553 228.369 Q639.553 223.994 642.47 221.772 Q645.409 219.55 651.22 219.55 L657.192 219.55 L657.192 219.133 Q657.192 216.194 655.247 214.596 Q653.326 212.976 649.831 212.976 Q647.608 212.976 645.502 213.508 Q643.396 214.041 641.451 215.106 L641.451 211.17 Q643.789 210.268 645.988 209.828 Q648.187 209.365 650.271 209.365 Q655.895 209.365 658.673 212.282 Q661.451 215.198 661.451 221.124 Z" fill="#000000" fill-rule="nonzero" fill-opacity="1" /><path clip-path="url(#clip150)" d="M670.224 199.897 L674.483 199.897 L674.483 235.916 L670.224 235.916 L670.224 199.897 Z" fill="#000000" fill-rule="nonzero" fill-opacity="1" /><path clip-path="url(#clip150)" d="M682.956 225.684 L682.956 209.99 L687.215 209.99 L687.215 225.522 Q687.215 229.203 688.65 231.055 Q690.085 232.883 692.955 232.883 Q696.405 232.883 698.395 230.684 Q700.409 228.485 700.409 224.689 L700.409 209.99 L704.668 209.99 L704.668 235.916 L700.409 235.916 L700.409 231.934 Q698.858 234.295 696.798 235.453 Q694.761 236.587 692.053 236.587 Q687.585 236.587 685.27 233.809 Q682.956 231.031 682.956 225.684 M693.673 209.365 L693.673 209.365 Z" fill="#000000" fill-rule="nonzero" fill-opacity="1" /><path clip-path="url(#clip150)" d="M735.617 221.888 L735.617 223.971 L716.034 223.971 Q716.312 228.369 718.673 230.684 Q721.057 232.976 725.293 232.976 Q727.747 232.976 730.039 232.374 Q732.353 231.772 734.622 230.569 L734.622 234.596 Q732.33 235.568 729.923 236.078 Q727.515 236.587 725.039 236.587 Q718.835 236.587 715.201 232.976 Q711.59 229.365 711.59 223.207 Q711.59 216.842 715.016 213.115 Q718.465 209.365 724.298 209.365 Q729.529 209.365 732.562 212.745 Q735.617 216.101 735.617 221.888 M731.358 220.638 Q731.312 217.143 729.39 215.059 Q727.492 212.976 724.344 212.976 Q720.779 212.976 718.627 214.99 Q716.497 217.004 716.173 220.661 L731.358 220.638 Z" fill="#000000" fill-rule="nonzero" fill-opacity="1" /></svg>
