<?xml version="1.0" encoding="utf-8"?>
<svg xmlns="http://www.w3.org/2000/svg" xmlns:xlink="http://www.w3.org/1999/xlink" width="600" height="400" viewBox="0 0 2400 1600">
<defs>
  <clipPath id="clip870">
    <rect x="0" y="0" width="2400" height="1600"/>
  </clipPath>
</defs>
<path clip-path="url(#clip870)" d="M0 1600 L2400 1600 L2400 0 L0 0  Z" fill="#ffffff" fill-rule="evenodd" fill-opacity="1"/>
<defs>
  <clipPath id="clip871">
    <rect x="480" y="0" width="1681" height="1600"/>
  </clipPath>
</defs>
<path clip-path="url(#clip870)" d="M289.044 1423.18 L2352.76 1423.18 L2352.76 123.472 L289.044 123.472  Z" fill="#ffffff" fill-rule="evenodd" fill-opacity="1"/>
<defs>
  <clipPath id="clip872">
    <rect x="289" y="123" width="2065" height="1301"/>
  </clipPath>
</defs>
<polyline clip-path="url(#clip872)" style="stroke:#000000; stroke-linecap:round; stroke-linejoin:round; stroke-width:2; stroke-opacity:0.1; fill:none" points="671.934,1423.18 671.934,123.472 "/>
<polyline clip-path="url(#clip872)" style="stroke:#000000; stroke-linecap:round; stroke-linejoin:round; stroke-width:2; stroke-opacity:0.1; fill:none" points="1077.54,1423.18 1077.54,123.472 "/>
<polyline clip-path="url(#clip872)" style="stroke:#000000; stroke-linecap:round; stroke-linejoin:round; stroke-width:2; stroke-opacity:0.1; fill:none" points="1483.14,1423.18 1483.14,123.472 "/>
<polyline clip-path="url(#clip872)" style="stroke:#000000; stroke-linecap:round; stroke-linejoin:round; stroke-width:2; stroke-opacity:0.1; fill:none" points="1888.75,1423.18 1888.75,123.472 "/>
<polyline clip-path="url(#clip872)" style="stroke:#000000; stroke-linecap:round; stroke-linejoin:round; stroke-width:2; stroke-opacity:0.1; fill:none" points="2294.35,1423.18 2294.35,123.472 "/>
<polyline clip-path="url(#clip872)" style="stroke:#000000; stroke-linecap:round; stroke-linejoin:round; stroke-width:2; stroke-opacity:0.05; fill:none" points="347.451,1423.18 347.451,123.472 "/>
<polyline clip-path="url(#clip872)" style="stroke:#000000; stroke-linecap:round; stroke-linejoin:round; stroke-width:2; stroke-opacity:0.05; fill:none" points="428.572,1423.18 428.572,123.472 "/>
<polyline clip-path="url(#clip872)" style="stroke:#000000; stroke-linecap:round; stroke-linejoin:round; stroke-width:2; stroke-opacity:0.05; fill:none" points="509.693,1423.18 509.693,123.472 "/>
<polyline clip-path="url(#clip872)" style="stroke:#000000; stroke-linecap:round; stroke-linejoin:round; stroke-width:2; stroke-opacity:0.05; fill:none" points="590.813,1423.18 590.813,123.472 "/>
<polyline clip-path="url(#clip872)" style="stroke:#000000; stroke-linecap:round; stroke-linejoin:round; stroke-width:2; stroke-opacity:0.05; fill:none" points="753.055,1423.18 753.055,123.472 "/>
<polyline clip-path="url(#clip872)" style="stroke:#000000; stroke-linecap:round; stroke-linejoin:round; stroke-width:2; stroke-opacity:0.05; fill:none" points="834.176,1423.18 834.176,123.472 "/>
<polyline clip-path="url(#clip872)" style="stroke:#000000; stroke-linecap:round; stroke-linejoin:round; stroke-width:2; stroke-opacity:0.05; fill:none" points="915.296,1423.18 915.296,123.472 "/>
<polyline clip-path="url(#clip872)" style="stroke:#000000; stroke-linecap:round; stroke-linejoin:round; stroke-width:2; stroke-opacity:0.05; fill:none" points="996.417,1423.18 996.417,123.472 "/>
<polyline clip-path="url(#clip872)" style="stroke:#000000; stroke-linecap:round; stroke-linejoin:round; stroke-width:2; stroke-opacity:0.05; fill:none" points="1158.66,1423.18 1158.66,123.472 "/>
<polyline clip-path="url(#clip872)" style="stroke:#000000; stroke-linecap:round; stroke-linejoin:round; stroke-width:2; stroke-opacity:0.05; fill:none" points="1239.78,1423.18 1239.78,123.472 "/>
<polyline clip-path="url(#clip872)" style="stroke:#000000; stroke-linecap:round; stroke-linejoin:round; stroke-width:2; stroke-opacity:0.05; fill:none" points="1320.9,1423.18 1320.9,123.472 "/>
<polyline clip-path="url(#clip872)" style="stroke:#000000; stroke-linecap:round; stroke-linejoin:round; stroke-width:2; stroke-opacity:0.05; fill:none" points="1402.02,1423.18 1402.02,123.472 "/>
<polyline clip-path="url(#clip872)" style="stroke:#000000; stroke-linecap:round; stroke-linejoin:round; stroke-width:2; stroke-opacity:0.05; fill:none" points="1564.26,1423.18 1564.26,123.472 "/>
<polyline clip-path="url(#clip872)" style="stroke:#000000; stroke-linecap:round; stroke-linejoin:round; stroke-width:2; stroke-opacity:0.05; fill:none" points="1645.38,1423.18 1645.38,123.472 "/>
<polyline clip-path="url(#clip872)" style="stroke:#000000; stroke-linecap:round; stroke-linejoin:round; stroke-width:2; stroke-opacity:0.05; fill:none" points="1726.5,1423.18 1726.5,123.472 "/>
<polyline clip-path="url(#clip872)" style="stroke:#000000; stroke-linecap:round; stroke-linejoin:round; stroke-width:2; stroke-opacity:0.05; fill:none" points="1807.62,1423.18 1807.62,123.472 "/>
<polyline clip-path="url(#clip872)" style="stroke:#000000; stroke-linecap:round; stroke-linejoin:round; stroke-width:2; stroke-opacity:0.05; fill:none" points="1969.87,1423.18 1969.87,123.472 "/>
<polyline clip-path="url(#clip872)" style="stroke:#000000; stroke-linecap:round; stroke-linejoin:round; stroke-width:2; stroke-opacity:0.05; fill:none" points="2050.99,1423.18 2050.99,123.472 "/>
<polyline clip-path="url(#clip872)" style="stroke:#000000; stroke-linecap:round; stroke-linejoin:round; stroke-width:2; stroke-opacity:0.05; fill:none" points="2132.11,1423.18 2132.11,123.472 "/>
<polyline clip-path="url(#clip872)" style="stroke:#000000; stroke-linecap:round; stroke-linejoin:round; stroke-width:2; stroke-opacity:0.05; fill:none" points="2213.23,1423.18 2213.23,123.472 "/>
<polyline clip-path="url(#clip870)" style="stroke:#000000; stroke-linecap:round; stroke-linejoin:round; stroke-width:4; stroke-opacity:1; fill:none" points="289.044,1423.18 2352.76,1423.18 "/>
<polyline clip-path="url(#clip870)" style="stroke:#000000; stroke-linecap:round; stroke-linejoin:round; stroke-width:4; stroke-opacity:1; fill:none" points="671.934,1423.18 671.934,1404.28 "/>
<polyline clip-path="url(#clip870)" style="stroke:#000000; stroke-linecap:round; stroke-linejoin:round; stroke-width:4; stroke-opacity:1; fill:none" points="1077.54,1423.18 1077.54,1404.28 "/>
<polyline clip-path="url(#clip870)" style="stroke:#000000; stroke-linecap:round; stroke-linejoin:round; stroke-width:4; stroke-opacity:1; fill:none" points="1483.14,1423.18 1483.14,1404.28 "/>
<polyline clip-path="url(#clip870)" style="stroke:#000000; stroke-linecap:round; stroke-linejoin:round; stroke-width:4; stroke-opacity:1; fill:none" points="1888.75,1423.18 1888.75,1404.28 "/>
<polyline clip-path="url(#clip870)" style="stroke:#000000; stroke-linecap:round; stroke-linejoin:round; stroke-width:4; stroke-opacity:1; fill:none" points="2294.35,1423.18 2294.35,1404.28 "/>
<polyline clip-path="url(#clip870)" style="stroke:#000000; stroke-linecap:round; stroke-linejoin:round; stroke-width:4; stroke-opacity:1; fill:none" points="347.451,1423.18 347.451,1413.73 "/>
<polyline clip-path="url(#clip870)" style="stroke:#000000; stroke-linecap:round; stroke-linejoin:round; stroke-width:4; stroke-opacity:1; fill:none" points="428.572,1423.18 428.572,1413.73 "/>
<polyline clip-path="url(#clip870)" style="stroke:#000000; stroke-linecap:round; stroke-linejoin:round; stroke-width:4; stroke-opacity:1; fill:none" points="509.693,1423.18 509.693,1413.73 "/>
<polyline clip-path="url(#clip870)" style="stroke:#000000; stroke-linecap:round; stroke-linejoin:round; stroke-width:4; stroke-opacity:1; fill:none" points="590.813,1423.18 590.813,1413.73 "/>
<polyline clip-path="url(#clip870)" style="stroke:#000000; stroke-linecap:round; stroke-linejoin:round; stroke-width:4; stroke-opacity:1; fill:none" points="753.055,1423.18 753.055,1413.73 "/>
<polyline clip-path="url(#clip870)" style="stroke:#000000; stroke-linecap:round; stroke-linejoin:round; stroke-width:4; stroke-opacity:1; fill:none" points="834.176,1423.18 834.176,1413.73 "/>
<polyline clip-path="url(#clip870)" style="stroke:#000000; stroke-linecap:round; stroke-linejoin:round; stroke-width:4; stroke-opacity:1; fill:none" points="915.296,1423.18 915.296,1413.73 "/>
<polyline clip-path="url(#clip870)" style="stroke:#000000; stroke-linecap:round; stroke-linejoin:round; stroke-width:4; stroke-opacity:1; fill:none" points="996.417,1423.18 996.417,1413.73 "/>
<polyline clip-path="url(#clip870)" style="stroke:#000000; stroke-linecap:round; stroke-linejoin:round; stroke-width:4; stroke-opacity:1; fill:none" points="1158.66,1423.18 1158.66,1413.73 "/>
<polyline clip-path="url(#clip870)" style="stroke:#000000; stroke-linecap:round; stroke-linejoin:round; stroke-width:4; stroke-opacity:1; fill:none" points="1239.78,1423.18 1239.78,1413.73 "/>
<polyline clip-path="url(#clip870)" style="stroke:#000000; stroke-linecap:round; stroke-linejoin:round; stroke-width:4; stroke-opacity:1; fill:none" points="1320.9,1423.18 1320.9,1413.73 "/>
<polyline clip-path="url(#clip870)" style="stroke:#000000; stroke-linecap:round; stroke-linejoin:round; stroke-width:4; stroke-opacity:1; fill:none" points="1402.02,1423.18 1402.02,1413.73 "/>
<polyline clip-path="url(#clip870)" style="stroke:#000000; stroke-linecap:round; stroke-linejoin:round; stroke-width:4; stroke-opacity:1; fill:none" points="1564.26,1423.18 1564.26,1413.73 "/>
<polyline clip-path="url(#clip870)" style="stroke:#000000; stroke-linecap:round; stroke-linejoin:round; stroke-width:4; stroke-opacity:1; fill:none" points="1645.38,1423.18 1645.38,1413.73 "/>
<polyline clip-path="url(#clip870)" style="stroke:#000000; stroke-linecap:round; stroke-linejoin:round; stroke-width:4; stroke-opacity:1; fill:none" points="1726.5,1423.18 1726.5,1413.73 "/>
<polyline clip-path="url(#clip870)" style="stroke:#000000; stroke-linecap:round; stroke-linejoin:round; stroke-width:4; stroke-opacity:1; fill:none" points="1807.62,1423.18 1807.62,1413.73 "/>
<polyline clip-path="url(#clip870)" style="stroke:#000000; stroke-linecap:round; stroke-linejoin:round; stroke-width:4; stroke-opacity:1; fill:none" points="1969.87,1423.18 1969.87,1413.73 "/>
<polyline clip-path="url(#clip870)" style="stroke:#000000; stroke-linecap:round; stroke-linejoin:round; stroke-width:4; stroke-opacity:1; fill:none" points="2050.99,1423.18 2050.99,1413.73 "/>
<polyline clip-path="url(#clip870)" style="stroke:#000000; stroke-linecap:round; stroke-linejoin:round; stroke-width:4; stroke-opacity:1; fill:none" points="2132.11,1423.18 2132.11,1413.73 "/>
<polyline clip-path="url(#clip870)" style="stroke:#000000; stroke-linecap:round; stroke-linejoin:round; stroke-width:4; stroke-opacity:1; fill:none" points="2213.23,1423.18 2213.23,1413.73 "/>
<path clip-path="url(#clip870)" d="M646.622 1481.64 L654.261 1481.64 L654.261 1455.28 L645.95 1456.95 L645.95 1452.69 L654.214 1451.02 L658.89 1451.02 L658.89 1481.64 L666.529 1481.64 L666.529 1485.58 L646.622 1485.58 L646.622 1481.64 Z" fill="#000000" fill-rule="nonzero" fill-opacity="1" /><path clip-path="url(#clip870)" d="M685.973 1454.1 Q682.362 1454.1 680.534 1457.66 Q678.728 1461.2 678.728 1468.33 Q678.728 1475.44 680.534 1479.01 Q682.362 1482.55 685.973 1482.55 Q689.608 1482.55 691.413 1479.01 Q693.242 1475.44 693.242 1468.33 Q693.242 1461.2 691.413 1457.66 Q689.608 1454.1 685.973 1454.1 M685.973 1450.39 Q691.783 1450.39 694.839 1455 Q697.918 1459.58 697.918 1468.33 Q697.918 1477.06 694.839 1481.67 Q691.783 1486.25 685.973 1486.25 Q680.163 1486.25 677.084 1481.67 Q674.029 1477.06 674.029 1468.33 Q674.029 1459.58 677.084 1455 Q680.163 1450.39 685.973 1450.39 Z" fill="#000000" fill-rule="nonzero" fill-opacity="1" /><path clip-path="url(#clip870)" d="M1056.31 1481.64 L1072.63 1481.64 L1072.63 1485.58 L1050.69 1485.58 L1050.69 1481.64 Q1053.35 1478.89 1057.93 1474.26 Q1062.54 1469.61 1063.72 1468.27 Q1065.96 1465.74 1066.84 1464.01 Q1067.75 1462.25 1067.75 1460.56 Q1067.75 1457.8 1065.8 1456.07 Q1063.88 1454.33 1060.78 1454.33 Q1058.58 1454.33 1056.13 1455.09 Q1053.7 1455.86 1050.92 1457.41 L1050.92 1452.69 Q1053.74 1451.55 1056.2 1450.97 Q1058.65 1450.39 1060.69 1450.39 Q1066.06 1450.39 1069.25 1453.08 Q1072.45 1455.77 1072.45 1460.26 Q1072.45 1462.39 1071.64 1464.31 Q1070.85 1466.2 1068.74 1468.8 Q1068.16 1469.47 1065.06 1472.69 Q1061.96 1475.88 1056.31 1481.64 Z" fill="#000000" fill-rule="nonzero" fill-opacity="1" /><path clip-path="url(#clip870)" d="M1092.45 1454.1 Q1088.83 1454.1 1087.01 1457.66 Q1085.2 1461.2 1085.2 1468.33 Q1085.2 1475.44 1087.01 1479.01 Q1088.83 1482.55 1092.45 1482.55 Q1096.08 1482.55 1097.88 1479.01 Q1099.71 1475.44 1099.71 1468.33 Q1099.71 1461.2 1097.88 1457.66 Q1096.08 1454.1 1092.45 1454.1 M1092.45 1450.39 Q1098.26 1450.39 1101.31 1455 Q1104.39 1459.58 1104.39 1468.33 Q1104.39 1477.06 1101.31 1481.67 Q1098.26 1486.25 1092.45 1486.25 Q1086.63 1486.25 1083.56 1481.67 Q1080.5 1477.06 1080.5 1468.33 Q1080.5 1459.58 1083.56 1455 Q1086.63 1450.39 1092.45 1450.39 Z" fill="#000000" fill-rule="nonzero" fill-opacity="1" /><path clip-path="url(#clip870)" d="M1471.98 1466.95 Q1475.34 1467.66 1477.22 1469.93 Q1479.11 1472.2 1479.11 1475.53 Q1479.11 1480.65 1475.6 1483.45 Q1472.08 1486.25 1465.6 1486.25 Q1463.42 1486.25 1461.1 1485.81 Q1458.81 1485.39 1456.36 1484.54 L1456.36 1480.02 Q1458.3 1481.16 1460.62 1481.74 Q1462.93 1482.32 1465.46 1482.32 Q1469.85 1482.32 1472.15 1480.58 Q1474.46 1478.84 1474.46 1475.53 Q1474.46 1472.48 1472.31 1470.77 Q1470.18 1469.03 1466.36 1469.03 L1462.33 1469.03 L1462.33 1465.19 L1466.54 1465.19 Q1469.99 1465.19 1471.82 1463.82 Q1473.65 1462.43 1473.65 1459.84 Q1473.65 1457.18 1471.75 1455.77 Q1469.88 1454.33 1466.36 1454.33 Q1464.44 1454.33 1462.24 1454.75 Q1460.04 1455.16 1457.4 1456.04 L1457.4 1451.88 Q1460.06 1451.14 1462.38 1450.77 Q1464.72 1450.39 1466.78 1450.39 Q1472.1 1450.39 1475.2 1452.83 Q1478.3 1455.23 1478.3 1459.35 Q1478.3 1462.22 1476.66 1464.21 Q1475.02 1466.18 1471.98 1466.95 Z" fill="#000000" fill-rule="nonzero" fill-opacity="1" /><path clip-path="url(#clip870)" d="M1497.98 1454.1 Q1494.37 1454.1 1492.54 1457.66 Q1490.73 1461.2 1490.73 1468.33 Q1490.73 1475.44 1492.54 1479.01 Q1494.37 1482.55 1497.98 1482.55 Q1501.61 1482.55 1503.42 1479.01 Q1505.25 1475.44 1505.25 1468.33 Q1505.25 1461.2 1503.42 1457.66 Q1501.61 1454.1 1497.98 1454.1 M1497.98 1450.39 Q1503.79 1450.39 1506.85 1455 Q1509.92 1459.58 1509.92 1468.33 Q1509.92 1477.06 1506.85 1481.67 Q1503.79 1486.25 1497.98 1486.25 Q1492.17 1486.25 1489.09 1481.67 Q1486.04 1477.06 1486.04 1468.33 Q1486.04 1459.58 1489.09 1455 Q1492.17 1450.39 1497.98 1450.39 Z" fill="#000000" fill-rule="nonzero" fill-opacity="1" /><path clip-path="url(#clip870)" d="M1876.92 1455.09 L1865.11 1473.54 L1876.92 1473.54 L1876.92 1455.09 M1875.69 1451.02 L1881.57 1451.02 L1881.57 1473.54 L1886.5 1473.54 L1886.5 1477.43 L1881.57 1477.43 L1881.57 1485.58 L1876.92 1485.58 L1876.92 1477.43 L1861.31 1477.43 L1861.31 1472.92 L1875.69 1451.02 Z" fill="#000000" fill-rule="nonzero" fill-opacity="1" /><path clip-path="url(#clip870)" d="M1904.23 1454.1 Q1900.62 1454.1 1898.79 1457.66 Q1896.99 1461.2 1896.99 1468.33 Q1896.99 1475.44 1898.79 1479.01 Q1900.62 1482.55 1904.23 1482.55 Q1907.87 1482.55 1909.67 1479.01 Q1911.5 1475.44 1911.5 1468.33 Q1911.5 1461.2 1909.67 1457.66 Q1907.87 1454.1 1904.23 1454.1 M1904.23 1450.39 Q1910.04 1450.39 1913.1 1455 Q1916.18 1459.58 1916.18 1468.33 Q1916.18 1477.06 1913.1 1481.67 Q1910.04 1486.25 1904.23 1486.25 Q1898.42 1486.25 1895.34 1481.67 Q1892.29 1477.06 1892.29 1468.33 Q1892.29 1459.58 1895.34 1455 Q1898.42 1450.39 1904.23 1450.39 Z" fill="#000000" fill-rule="nonzero" fill-opacity="1" /><path clip-path="url(#clip870)" d="M2269.05 1451.02 L2287.4 1451.02 L2287.4 1454.96 L2273.33 1454.96 L2273.33 1463.43 Q2274.35 1463.08 2275.37 1462.92 Q2276.39 1462.73 2277.4 1462.73 Q2283.19 1462.73 2286.57 1465.9 Q2289.95 1469.08 2289.95 1474.49 Q2289.95 1480.07 2286.48 1483.17 Q2283.01 1486.25 2276.69 1486.25 Q2274.51 1486.25 2272.24 1485.88 Q2270 1485.51 2267.59 1484.77 L2267.59 1480.07 Q2269.67 1481.2 2271.9 1481.76 Q2274.12 1482.32 2276.59 1482.32 Q2280.6 1482.32 2282.94 1480.21 Q2285.27 1478.1 2285.27 1474.49 Q2285.27 1470.88 2282.94 1468.77 Q2280.6 1466.67 2276.59 1466.67 Q2274.72 1466.67 2272.84 1467.08 Q2270.99 1467.5 2269.05 1468.38 L2269.05 1451.02 Z" fill="#000000" fill-rule="nonzero" fill-opacity="1" /><path clip-path="url(#clip870)" d="M2309.16 1454.1 Q2305.55 1454.1 2303.72 1457.66 Q2301.92 1461.2 2301.92 1468.33 Q2301.92 1475.44 2303.72 1479.01 Q2305.55 1482.55 2309.16 1482.55 Q2312.8 1482.55 2314.6 1479.01 Q2316.43 1475.44 2316.43 1468.33 Q2316.43 1461.2 2314.6 1457.66 Q2312.8 1454.1 2309.16 1454.1 M2309.16 1450.39 Q2314.97 1450.39 2318.03 1455 Q2321.11 1459.58 2321.11 1468.33 Q2321.11 1477.06 2318.03 1481.67 Q2314.97 1486.25 2309.16 1486.25 Q2303.35 1486.25 2300.27 1481.67 Q2297.22 1477.06 2297.22 1468.33 Q2297.22 1459.58 2300.27 1455 Q2303.35 1450.39 2309.16 1450.39 Z" fill="#000000" fill-rule="nonzero" fill-opacity="1" /><path clip-path="url(#clip870)" d="M1235.73 1546.53 L1235.73 1568.04 L1229.87 1568.04 L1229.87 1546.72 Q1229.87 1541.66 1227.9 1539.14 Q1225.92 1536.63 1221.98 1536.63 Q1217.23 1536.63 1214.5 1539.65 Q1211.76 1542.68 1211.76 1547.9 L1211.76 1568.04 L1205.87 1568.04 L1205.87 1518.52 L1211.76 1518.52 L1211.76 1537.93 Q1213.86 1534.72 1216.69 1533.13 Q1219.56 1531.54 1223.28 1531.54 Q1229.42 1531.54 1232.58 1535.36 Q1235.73 1539.14 1235.73 1546.53 Z" fill="#000000" fill-rule="nonzero" fill-opacity="1" /><path clip-path="url(#clip870)" d="M1261.22 1536.5 Q1256.51 1536.5 1253.77 1540.19 Q1251.04 1543.85 1251.04 1550.25 Q1251.04 1556.65 1253.74 1560.34 Q1256.48 1564 1261.22 1564 Q1265.9 1564 1268.64 1560.31 Q1271.37 1556.62 1271.37 1550.25 Q1271.37 1543.92 1268.64 1540.23 Q1265.9 1536.5 1261.22 1536.5 M1261.22 1531.54 Q1268.86 1531.54 1273.22 1536.5 Q1277.58 1541.47 1277.58 1550.25 Q1277.58 1559 1273.22 1564 Q1268.86 1568.97 1261.22 1568.97 Q1253.55 1568.97 1249.19 1564 Q1244.86 1559 1244.86 1550.25 Q1244.86 1541.47 1249.19 1536.5 Q1253.55 1531.54 1261.22 1531.54 Z" fill="#000000" fill-rule="nonzero" fill-opacity="1" /><path clip-path="url(#clip870)" d="M1307.95 1537.87 Q1306.96 1537.3 1305.78 1537.04 Q1304.64 1536.76 1303.24 1536.76 Q1298.27 1536.76 1295.6 1540 Q1292.95 1543.22 1292.95 1549.27 L1292.95 1568.04 L1287.07 1568.04 L1287.07 1532.4 L1292.95 1532.4 L1292.95 1537.93 Q1294.8 1534.69 1297.76 1533.13 Q1300.72 1531.54 1304.95 1531.54 Q1305.56 1531.54 1306.29 1531.63 Q1307.02 1531.7 1307.91 1531.85 L1307.95 1537.87 Z" fill="#000000" fill-rule="nonzero" fill-opacity="1" /><path clip-path="url(#clip870)" d="M1314.09 1532.4 L1319.95 1532.4 L1319.95 1568.04 L1314.09 1568.04 L1314.09 1532.4 M1314.09 1518.52 L1319.95 1518.52 L1319.95 1525.93 L1314.09 1525.93 L1314.09 1518.52 Z" fill="#000000" fill-rule="nonzero" fill-opacity="1" /><path clip-path="url(#clip870)" d="M1329.65 1532.4 L1357.47 1532.4 L1357.47 1537.74 L1335.45 1563.37 L1357.47 1563.37 L1357.47 1568.04 L1328.86 1568.04 L1328.86 1562.7 L1350.88 1537.07 L1329.65 1537.07 L1329.65 1532.4 Z" fill="#000000" fill-rule="nonzero" fill-opacity="1" /><path clip-path="url(#clip870)" d="M1380.23 1536.5 Q1375.52 1536.5 1372.78 1540.19 Q1370.04 1543.85 1370.04 1550.25 Q1370.04 1556.65 1372.75 1560.34 Q1375.49 1564 1380.23 1564 Q1384.91 1564 1387.64 1560.31 Q1390.38 1556.62 1390.38 1550.25 Q1390.38 1543.92 1387.64 1540.23 Q1384.91 1536.5 1380.23 1536.5 M1380.23 1531.54 Q1387.87 1531.54 1392.23 1536.5 Q1396.59 1541.47 1396.59 1550.25 Q1396.59 1559 1392.23 1564 Q1387.87 1568.97 1380.23 1568.97 Q1372.56 1568.97 1368.2 1564 Q1363.87 1559 1363.87 1550.25 Q1363.87 1541.47 1368.2 1536.5 Q1372.56 1531.54 1380.23 1531.54 Z" fill="#000000" fill-rule="nonzero" fill-opacity="1" /><path clip-path="url(#clip870)" d="M1435.93 1546.53 L1435.93 1568.04 L1430.07 1568.04 L1430.07 1546.72 Q1430.07 1541.66 1428.1 1539.14 Q1426.13 1536.63 1422.18 1536.63 Q1417.44 1536.63 1414.7 1539.65 Q1411.96 1542.68 1411.96 1547.9 L1411.96 1568.04 L1406.07 1568.04 L1406.07 1532.4 L1411.96 1532.4 L1411.96 1537.93 Q1414.06 1534.72 1416.89 1533.13 Q1419.76 1531.54 1423.48 1531.54 Q1429.63 1531.54 1432.78 1535.36 Q1435.93 1539.14 1435.93 1546.53 Z" fill="#000000" fill-rule="nonzero" fill-opacity="1" /><polyline clip-path="url(#clip872)" style="stroke:#000000; stroke-linecap:round; stroke-linejoin:round; stroke-width:2; stroke-opacity:0.1; fill:none" points="289.044,1115.53 2352.76,1115.53 "/>
<polyline clip-path="url(#clip872)" style="stroke:#000000; stroke-linecap:round; stroke-linejoin:round; stroke-width:2; stroke-opacity:0.1; fill:none" points="289.044,780.471 2352.76,780.471 "/>
<polyline clip-path="url(#clip872)" style="stroke:#000000; stroke-linecap:round; stroke-linejoin:round; stroke-width:2; stroke-opacity:0.1; fill:none" points="289.044,445.414 2352.76,445.414 "/>
<polyline clip-path="url(#clip870)" style="stroke:#000000; stroke-linecap:round; stroke-linejoin:round; stroke-width:4; stroke-opacity:1; fill:none" points="289.044,1423.18 289.044,123.472 "/>
<polyline clip-path="url(#clip870)" style="stroke:#000000; stroke-linecap:round; stroke-linejoin:round; stroke-width:4; stroke-opacity:1; fill:none" points="289.044,1115.53 307.942,1115.53 "/>
<polyline clip-path="url(#clip870)" style="stroke:#000000; stroke-linecap:round; stroke-linejoin:round; stroke-width:4; stroke-opacity:1; fill:none" points="289.044,780.471 307.942,780.471 "/>
<polyline clip-path="url(#clip870)" style="stroke:#000000; stroke-linecap:round; stroke-linejoin:round; stroke-width:4; stroke-opacity:1; fill:none" points="289.044,445.414 307.942,445.414 "/>
<path clip-path="url(#clip870)" d="M114.931 1135.32 L122.57 1135.32 L122.57 1108.96 L114.26 1110.62 L114.26 1106.36 L122.524 1104.7 L127.2 1104.7 L127.2 1135.32 L134.839 1135.32 L134.839 1139.26 L114.931 1139.26 L114.931 1135.32 Z" fill="#000000" fill-rule="nonzero" fill-opacity="1" /><path clip-path="url(#clip870)" d="M154.283 1107.78 Q150.672 1107.78 148.843 1111.34 Q147.038 1114.88 147.038 1122.01 Q147.038 1129.12 148.843 1132.68 Q150.672 1136.22 154.283 1136.22 Q157.917 1136.22 159.723 1132.68 Q161.552 1129.12 161.552 1122.01 Q161.552 1114.88 159.723 1111.34 Q157.917 1107.78 154.283 1107.78 M154.283 1104.07 Q160.093 1104.07 163.149 1108.68 Q166.227 1113.26 166.227 1122.01 Q166.227 1130.74 163.149 1135.34 Q160.093 1139.93 154.283 1139.93 Q148.473 1139.93 145.394 1135.34 Q142.339 1130.74 142.339 1122.01 Q142.339 1113.26 145.394 1108.68 Q148.473 1104.07 154.283 1104.07 Z" fill="#000000" fill-rule="nonzero" fill-opacity="1" /><path clip-path="url(#clip870)" d="M166.227 1098.17 L190.339 1098.17 L190.339 1101.37 L166.227 1101.37 L166.227 1098.17 Z" fill="#000000" fill-rule="nonzero" fill-opacity="1" /><path clip-path="url(#clip870)" d="M199.197 1108.65 L205.404 1108.65 L205.404 1087.23 L198.652 1088.58 L198.652 1085.12 L205.366 1083.77 L209.166 1083.77 L209.166 1108.65 L215.372 1108.65 L215.372 1111.85 L199.197 1111.85 L199.197 1108.65 Z" fill="#000000" fill-rule="nonzero" fill-opacity="1" /><path clip-path="url(#clip870)" d="M223.046 1107.07 L227.014 1107.07 L227.014 1111.85 L223.046 1111.85 L223.046 1107.07 Z" fill="#000000" fill-rule="nonzero" fill-opacity="1" /><path clip-path="url(#clip870)" d="M243.415 1098.51 Q240.706 1098.51 239.145 1099.96 Q237.603 1101.41 237.603 1103.95 Q237.603 1106.49 239.145 1107.93 Q240.706 1109.38 243.415 1109.38 Q246.123 1109.38 247.684 1107.93 Q249.245 1106.47 249.245 1103.95 Q249.245 1101.41 247.684 1099.96 Q246.142 1098.51 243.415 1098.51 M239.615 1096.89 Q237.17 1096.29 235.797 1094.62 Q234.443 1092.94 234.443 1090.54 Q234.443 1087.17 236.832 1085.21 Q239.239 1083.26 243.415 1083.26 Q247.609 1083.26 249.997 1085.21 Q252.386 1087.17 252.386 1090.54 Q252.386 1092.94 251.013 1094.62 Q249.659 1096.29 247.233 1096.89 Q249.978 1097.53 251.502 1099.4 Q253.044 1101.26 253.044 1103.95 Q253.044 1108.03 250.543 1110.21 Q248.06 1112.39 243.415 1112.39 Q238.769 1112.39 236.268 1110.21 Q233.785 1108.03 233.785 1103.95 Q233.785 1101.26 235.327 1099.4 Q236.869 1097.53 239.615 1096.89 M238.224 1090.89 Q238.224 1093.08 239.578 1094.3 Q240.951 1095.52 243.415 1095.52 Q245.86 1095.52 247.233 1094.3 Q248.624 1093.08 248.624 1090.89 Q248.624 1088.71 247.233 1087.49 Q245.86 1086.27 243.415 1086.27 Q240.951 1086.27 239.578 1087.49 Q238.224 1088.71 238.224 1090.89 Z" fill="#000000" fill-rule="nonzero" fill-opacity="1" /><path clip-path="url(#clip870)" d="M115.665 800.264 L123.304 800.264 L123.304 773.898 L114.994 775.565 L114.994 771.306 L123.258 769.639 L127.933 769.639 L127.933 800.264 L135.572 800.264 L135.572 804.199 L115.665 804.199 L115.665 800.264 Z" fill="#000000" fill-rule="nonzero" fill-opacity="1" /><path clip-path="url(#clip870)" d="M155.017 772.718 Q151.406 772.718 149.577 776.282 Q147.771 779.824 147.771 786.954 Q147.771 794.06 149.577 797.625 Q151.406 801.167 155.017 801.167 Q158.651 801.167 160.456 797.625 Q162.285 794.06 162.285 786.954 Q162.285 779.824 160.456 776.282 Q158.651 772.718 155.017 772.718 M155.017 769.014 Q160.827 769.014 163.882 773.62 Q166.961 778.204 166.961 786.954 Q166.961 795.68 163.882 800.287 Q160.827 804.87 155.017 804.87 Q149.206 804.87 146.128 800.287 Q143.072 795.68 143.072 786.954 Q143.072 778.204 146.128 773.62 Q149.206 769.014 155.017 769.014 Z" fill="#000000" fill-rule="nonzero" fill-opacity="1" /><path clip-path="url(#clip870)" d="M166.961 763.115 L191.073 763.115 L191.073 766.313 L166.961 766.313 L166.961 763.115 Z" fill="#000000" fill-rule="nonzero" fill-opacity="1" /><path clip-path="url(#clip870)" d="M199.931 773.591 L206.138 773.591 L206.138 752.169 L199.386 753.523 L199.386 750.063 L206.1 748.709 L209.899 748.709 L209.899 773.591 L216.106 773.591 L216.106 776.789 L199.931 776.789 L199.931 773.591 Z" fill="#000000" fill-rule="nonzero" fill-opacity="1" /><path clip-path="url(#clip870)" d="M223.779 772.011 L227.748 772.011 L227.748 776.789 L223.779 776.789 L223.779 772.011 Z" fill="#000000" fill-rule="nonzero" fill-opacity="1" /><path clip-path="url(#clip870)" d="M236.061 748.709 L250.975 748.709 L250.975 751.906 L239.54 751.906 L239.54 758.79 Q240.368 758.507 241.195 758.376 Q242.023 758.225 242.85 758.225 Q247.552 758.225 250.298 760.802 Q253.044 763.379 253.044 767.78 Q253.044 772.312 250.223 774.833 Q247.402 777.334 242.267 777.334 Q240.499 777.334 238.656 777.033 Q236.832 776.732 234.876 776.13 L234.876 772.312 Q236.569 773.234 238.374 773.685 Q240.18 774.137 242.192 774.137 Q245.446 774.137 247.345 772.425 Q249.245 770.714 249.245 767.78 Q249.245 764.846 247.345 763.134 Q245.446 761.423 242.192 761.423 Q240.669 761.423 239.145 761.761 Q237.641 762.1 236.061 762.814 L236.061 748.709 Z" fill="#000000" fill-rule="nonzero" fill-opacity="1" /><path clip-path="url(#clip870)" d="M116.154 465.206 L123.793 465.206 L123.793 438.84 L115.483 440.507 L115.483 436.248 L123.747 434.581 L128.422 434.581 L128.422 465.206 L136.061 465.206 L136.061 469.141 L116.154 469.141 L116.154 465.206 Z" fill="#000000" fill-rule="nonzero" fill-opacity="1" /><path clip-path="url(#clip870)" d="M155.506 437.66 Q151.895 437.66 150.066 441.225 Q148.26 444.766 148.26 451.896 Q148.26 459.002 150.066 462.567 Q151.895 466.109 155.506 466.109 Q159.14 466.109 160.945 462.567 Q162.774 459.002 162.774 451.896 Q162.774 444.766 160.945 441.225 Q159.14 437.66 155.506 437.66 M155.506 433.956 Q161.316 433.956 164.371 438.563 Q167.45 443.146 167.45 451.896 Q167.45 460.623 164.371 465.229 Q161.316 469.813 155.506 469.813 Q149.695 469.813 146.617 465.229 Q143.561 460.623 143.561 451.896 Q143.561 443.146 146.617 438.563 Q149.695 433.956 155.506 433.956 Z" fill="#000000" fill-rule="nonzero" fill-opacity="1" /><path clip-path="url(#clip870)" d="M167.45 428.058 L191.562 428.058 L191.562 431.255 L167.45 431.255 L167.45 428.058 Z" fill="#000000" fill-rule="nonzero" fill-opacity="1" /><path clip-path="url(#clip870)" d="M200.42 438.534 L206.627 438.534 L206.627 417.111 L199.875 418.466 L199.875 415.005 L206.589 413.651 L210.388 413.651 L210.388 438.534 L216.595 438.534 L216.595 441.731 L200.42 441.731 L200.42 438.534 Z" fill="#000000" fill-rule="nonzero" fill-opacity="1" /><path clip-path="url(#clip870)" d="M224.268 436.954 L228.237 436.954 L228.237 441.731 L224.268 441.731 L224.268 436.954 Z" fill="#000000" fill-rule="nonzero" fill-opacity="1" /><path clip-path="url(#clip870)" d="M239.785 438.534 L253.044 438.534 L253.044 441.731 L235.214 441.731 L235.214 438.534 Q237.377 436.295 241.101 432.534 Q244.844 428.753 245.803 427.663 Q247.627 425.613 248.342 424.202 Q249.076 422.773 249.076 421.4 Q249.076 419.162 247.496 417.751 Q245.935 416.34 243.415 416.34 Q241.628 416.34 239.634 416.961 Q237.659 417.582 235.402 418.842 L235.402 415.005 Q237.697 414.083 239.691 413.613 Q241.684 413.143 243.339 413.143 Q247.703 413.143 250.298 415.325 Q252.894 417.506 252.894 421.155 Q252.894 422.885 252.235 424.447 Q251.596 425.989 249.884 428.095 Q249.414 428.641 246.894 431.255 Q244.374 433.85 239.785 438.534 Z" fill="#000000" fill-rule="nonzero" fill-opacity="1" /><path clip-path="url(#clip870)" d="M16.4842 874.557 L16.4842 864.976 L48.8219 852.85 L16.4842 840.659 L16.4842 831.079 L64.0042 831.079 L64.0042 837.349 L22.277 837.349 L54.8694 849.603 L54.8694 856.064 L22.277 868.318 L64.0042 868.318 L64.0042 874.557 L16.4842 874.557 Z" fill="#000000" fill-rule="nonzero" fill-opacity="1" /><path clip-path="url(#clip870)" d="M41.7242 795.781 Q42.4244 793.712 44.7161 791.771 Q47.0077 789.797 51.0181 787.824 L64.0042 781.299 L64.0042 788.206 L51.8138 794.285 Q47.0395 796.64 45.48 798.868 Q43.9204 801.065 43.9204 804.884 L43.9204 811.886 L64.0042 811.886 L64.0042 818.316 L16.4842 818.316 L16.4842 803.802 Q16.4842 795.654 19.8898 791.643 Q23.2955 787.633 30.1704 787.633 Q34.6582 787.633 37.6183 789.734 Q40.5784 791.802 41.7242 795.781 M21.7677 811.886 L38.6368 811.886 L38.6368 803.802 Q38.6368 799.155 36.5043 796.8 Q34.34 794.412 30.1704 794.412 Q26.0009 794.412 23.9002 796.8 Q21.7677 799.155 21.7677 803.802 L21.7677 811.886 Z" fill="#000000" fill-rule="nonzero" fill-opacity="1" /><path clip-path="url(#clip870)" d="M22.818 759.783 L46.4666 768.504 L46.4666 751.03 L22.818 759.783 M16.4842 763.411 L16.4842 756.123 L64.0042 738.012 L64.0042 744.696 L51.8138 749.025 L51.8138 770.446 L64.0042 774.774 L64.0042 781.554 L16.4842 763.411 Z" fill="#000000" fill-rule="nonzero" fill-opacity="1" /><path clip-path="url(#clip870)" d="M16.4842 731.074 L16.4842 701.027 L21.895 701.027 L21.895 724.644 L35.9632 724.644 L35.9632 702.014 L41.3741 702.014 L41.3741 724.644 L58.5933 724.644 L58.5933 700.455 L64.0042 700.455 L64.0042 731.074 L16.4842 731.074 Z" fill="#000000" fill-rule="nonzero" fill-opacity="1" /><path clip-path="url(#clip870)" d="M14.479 672.095 L19.3487 672.095 L19.3487 677.697 Q19.3487 680.848 20.6219 682.089 Q21.895 683.299 25.2052 683.299 L28.3562 683.299 L28.3562 673.655 L32.9077 673.655 L32.9077 683.299 L64.0042 683.299 L64.0042 689.187 L32.9077 689.187 L32.9077 694.789 L28.3562 694.789 L28.3562 689.187 L25.8736 689.187 Q19.9216 689.187 17.2162 686.418 Q14.479 683.649 14.479 677.633 L14.479 672.095 Z" fill="#000000" fill-rule="nonzero" fill-opacity="1" /><path clip-path="url(#clip870)" d="M698.843 43.6931 L698.843 65.8515 L711.968 65.8515 Q718.571 65.8515 721.731 63.1374 Q724.931 60.3828 724.931 54.752 Q724.931 49.0808 721.731 46.4072 Q718.571 43.6931 711.968 43.6931 L698.843 43.6931 M698.843 18.8205 L698.843 37.0496 L710.955 37.0496 Q716.951 37.0496 719.867 34.8216 Q722.825 32.5531 722.825 27.935 Q722.825 23.3575 719.867 21.089 Q716.951 18.8205 710.955 18.8205 L698.843 18.8205 M690.66 12.096 L711.563 12.096 Q720.921 12.096 725.984 15.9849 Q731.048 19.8737 731.048 27.0438 Q731.048 32.5936 728.455 35.8748 Q725.863 39.156 720.84 39.9662 Q726.875 41.2625 730.197 45.3944 Q733.559 49.4858 733.559 55.6432 Q733.559 63.745 728.05 68.1605 Q722.541 72.576 712.373 72.576 L690.66 72.576 L690.66 12.096 Z" fill="#000000" fill-rule="nonzero" fill-opacity="1" /><path clip-path="url(#clip870)" d="M786.059 48.0275 L786.059 51.6733 L751.788 51.6733 Q752.275 59.3701 756.407 63.421 Q760.579 67.4314 767.992 67.4314 Q772.286 67.4314 776.296 66.3781 Q780.347 65.3249 784.317 63.2184 L784.317 70.267 Q780.307 71.9684 776.094 72.8596 Q771.881 73.7508 767.547 73.7508 Q756.69 73.7508 750.33 67.4314 Q744.011 61.1119 744.011 50.3365 Q744.011 39.1965 750.006 32.6746 Q756.042 26.1121 766.25 26.1121 Q775.405 26.1121 780.712 32.0264 Q786.059 37.9003 786.059 48.0275 M778.605 45.84 Q778.524 39.7232 775.162 36.0774 Q771.84 32.4315 766.331 32.4315 Q760.093 32.4315 756.325 35.9558 Q752.599 39.4801 752.032 45.8805 L778.605 45.84 Z" fill="#000000" fill-rule="nonzero" fill-opacity="1" /><path clip-path="url(#clip870)" d="M836.007 45.1919 L836.007 72.576 L828.553 72.576 L828.553 45.4349 Q828.553 38.994 826.042 35.7938 Q823.53 32.5936 818.507 32.5936 Q812.471 32.5936 808.987 36.4419 Q805.503 40.2903 805.503 46.9338 L805.503 72.576 L798.009 72.576 L798.009 9.54393 L805.503 9.54393 L805.503 34.2544 Q808.177 30.163 811.782 28.1376 Q815.428 26.1121 820.168 26.1121 Q827.986 26.1121 831.996 30.9732 Q836.007 35.7938 836.007 45.1919 Z" fill="#000000" fill-rule="nonzero" fill-opacity="1" /><path clip-path="url(#clip870)" d="M871.493 49.7694 Q862.459 49.7694 858.975 51.8354 Q855.492 53.9013 855.492 58.8839 Q855.492 62.8538 858.084 65.2034 Q860.717 67.5124 865.214 67.5124 Q871.412 67.5124 875.139 63.1374 Q878.906 58.7219 878.906 51.4303 L878.906 49.7694 L871.493 49.7694 M886.36 46.6907 L886.36 72.576 L878.906 72.576 L878.906 65.6895 Q876.354 69.8214 872.546 71.8063 Q868.738 73.7508 863.229 73.7508 Q856.261 73.7508 852.129 69.8619 Q848.038 65.9325 848.038 59.3701 Q848.038 51.7138 853.142 47.825 Q858.287 43.9361 868.455 43.9361 L878.906 43.9361 L878.906 43.2069 Q878.906 38.0623 875.503 35.2672 Q872.141 32.4315 866.024 32.4315 Q862.135 32.4315 858.449 33.3632 Q854.762 34.295 851.36 36.1584 L851.36 29.2718 Q855.451 27.692 859.299 26.9223 Q863.148 26.1121 866.794 26.1121 Q876.637 26.1121 881.498 31.2163 Q886.36 36.3204 886.36 46.6907 Z" fill="#000000" fill-rule="nonzero" fill-opacity="1" /><path clip-path="url(#clip870)" d="M896.365 27.2059 L904.265 27.2059 L918.443 65.2844 L932.621 27.2059 L940.52 27.2059 L923.506 72.576 L913.379 72.576 L896.365 27.2059 Z" fill="#000000" fill-rule="nonzero" fill-opacity="1" /><path clip-path="url(#clip870)" d="M950.809 27.2059 L958.263 27.2059 L958.263 72.576 L950.809 72.576 L950.809 27.2059 M950.809 9.54393 L958.263 9.54393 L958.263 18.9825 L950.809 18.9825 L950.809 9.54393 Z" fill="#000000" fill-rule="nonzero" fill-opacity="1" /><path clip-path="url(#clip870)" d="M991.44 32.4315 Q985.445 32.4315 981.961 37.1306 Q978.477 41.7891 978.477 49.9314 Q978.477 58.0738 981.92 62.7728 Q985.404 67.4314 991.44 67.4314 Q997.395 67.4314 1000.88 62.7323 Q1004.36 58.0333 1004.36 49.9314 Q1004.36 41.8701 1000.88 37.1711 Q997.395 32.4315 991.44 32.4315 M991.44 26.1121 Q1001.16 26.1121 1006.71 32.4315 Q1012.26 38.7509 1012.26 49.9314 Q1012.26 61.0714 1006.71 67.4314 Q1001.16 73.7508 991.44 73.7508 Q981.677 73.7508 976.128 67.4314 Q970.618 61.0714 970.618 49.9314 Q970.618 38.7509 976.128 32.4315 Q981.677 26.1121 991.44 26.1121 Z" fill="#000000" fill-rule="nonzero" fill-opacity="1" /><path clip-path="url(#clip870)" d="M1023.85 54.671 L1023.85 27.2059 L1031.3 27.2059 L1031.3 54.3874 Q1031.3 60.8284 1033.81 64.0691 Q1036.32 67.2693 1041.35 67.2693 Q1047.38 67.2693 1050.87 63.421 Q1054.39 59.5726 1054.39 52.9291 L1054.39 27.2059 L1061.84 27.2059 L1061.84 72.576 L1054.39 72.576 L1054.39 65.6084 Q1051.68 69.7404 1048.07 71.7658 Q1044.51 73.7508 1039.77 73.7508 Q1031.95 73.7508 1027.9 68.8897 Q1023.85 64.0286 1023.85 54.671 M1042.6 26.1121 L1042.6 26.1121 Z" fill="#000000" fill-rule="nonzero" fill-opacity="1" /><path clip-path="url(#clip870)" d="M1103.49 34.1734 Q1102.23 33.4443 1100.73 33.1202 Q1099.28 32.7556 1097.49 32.7556 Q1091.17 32.7556 1087.77 36.8875 Q1084.41 40.9789 1084.41 48.6757 L1084.41 72.576 L1076.91 72.576 L1076.91 27.2059 L1084.41 27.2059 L1084.41 34.2544 Q1086.76 30.1225 1090.53 28.1376 Q1094.29 26.1121 1099.68 26.1121 Q1100.45 26.1121 1101.38 26.2337 Q1102.31 26.3147 1103.45 26.5172 L1103.49 34.1734 Z" fill="#000000" fill-rule="nonzero" fill-opacity="1" /><path clip-path="url(#clip870)" d="M1131.93 49.7694 Q1122.89 49.7694 1119.41 51.8354 Q1115.92 53.9013 1115.92 58.8839 Q1115.92 62.8538 1118.52 65.2034 Q1121.15 67.5124 1125.65 67.5124 Q1131.84 67.5124 1135.57 63.1374 Q1139.34 58.7219 1139.34 51.4303 L1139.34 49.7694 L1131.93 49.7694 M1146.79 46.6907 L1146.79 72.576 L1139.34 72.576 L1139.34 65.6895 Q1136.79 69.8214 1132.98 71.8063 Q1129.17 73.7508 1123.66 73.7508 Q1116.69 73.7508 1112.56 69.8619 Q1108.47 65.9325 1108.47 59.3701 Q1108.47 51.7138 1113.57 47.825 Q1118.72 43.9361 1128.89 43.9361 L1139.34 43.9361 L1139.34 43.2069 Q1139.34 38.0623 1135.94 35.2672 Q1132.57 32.4315 1126.46 32.4315 Q1122.57 32.4315 1118.88 33.3632 Q1115.2 34.295 1111.79 36.1584 L1111.79 29.2718 Q1115.88 27.692 1119.73 26.9223 Q1123.58 26.1121 1127.23 26.1121 Q1137.07 26.1121 1141.93 31.2163 Q1146.79 36.3204 1146.79 46.6907 Z" fill="#000000" fill-rule="nonzero" fill-opacity="1" /><path clip-path="url(#clip870)" d="M1162.15 9.54393 L1169.6 9.54393 L1169.6 72.576 L1162.15 72.576 L1162.15 9.54393 Z" fill="#000000" fill-rule="nonzero" fill-opacity="1" /><path clip-path="url(#clip870)" d="M1187.1 62.2867 L1195.65 62.2867 L1195.65 72.576 L1187.1 72.576 L1187.1 62.2867 M1187.1 29.6769 L1195.65 29.6769 L1195.65 39.9662 L1187.1 39.9662 L1187.1 29.6769 Z" fill="#000000" fill-rule="nonzero" fill-opacity="1" /><path clip-path="url(#clip870)" d="M1239.84 12.096 L1252.03 12.096 L1267.47 53.2532 L1282.98 12.096 L1295.18 12.096 L1295.18 72.576 L1287.2 72.576 L1287.2 19.4686 L1271.6 60.9499 L1263.38 60.9499 L1247.78 19.4686 L1247.78 72.576 L1239.84 72.576 L1239.84 12.096 Z" fill="#000000" fill-rule="nonzero" fill-opacity="1" /><path clip-path="url(#clip870)" d="M1340.1 44.2197 Q1342.73 45.1109 1345.21 48.0275 Q1347.72 50.9442 1350.23 56.0483 L1358.53 72.576 L1349.74 72.576 L1342.01 57.061 Q1339.01 50.9847 1336.17 48.9997 Q1333.38 47.0148 1328.52 47.0148 L1319.6 47.0148 L1319.6 72.576 L1311.42 72.576 L1311.42 12.096 L1329.89 12.096 Q1340.26 12.096 1345.37 16.4305 Q1350.47 20.7649 1350.47 29.5149 Q1350.47 35.2267 1347.8 38.994 Q1345.16 42.7613 1340.1 44.2197 M1319.6 18.8205 L1319.6 40.2903 L1329.89 40.2903 Q1335.81 40.2903 1338.81 37.5762 Q1341.84 34.8216 1341.84 29.5149 Q1341.84 24.2082 1338.81 21.5346 Q1335.81 18.8205 1329.89 18.8205 L1319.6 18.8205 Z" fill="#000000" fill-rule="nonzero" fill-opacity="1" /><path clip-path="url(#clip870)" d="M1385.92 20.1573 L1374.82 50.2555 L1397.06 50.2555 L1385.92 20.1573 M1381.3 12.096 L1390.58 12.096 L1413.63 72.576 L1405.12 72.576 L1399.61 57.061 L1372.35 57.061 L1366.84 72.576 L1358.21 72.576 L1381.3 12.096 Z" fill="#000000" fill-rule="nonzero" fill-opacity="1" /><path clip-path="url(#clip870)" d="M1422.46 12.096 L1460.7 12.096 L1460.7 18.9825 L1430.64 18.9825 L1430.64 36.8875 L1459.44 36.8875 L1459.44 43.7741 L1430.64 43.7741 L1430.64 65.6895 L1461.43 65.6895 L1461.43 72.576 L1422.46 72.576 L1422.46 12.096 Z" fill="#000000" fill-rule="nonzero" fill-opacity="1" /><path clip-path="url(#clip870)" d="M1497.52 9.54393 L1497.52 15.7418 L1490.39 15.7418 Q1486.38 15.7418 1484.8 17.3622 Q1483.26 18.9825 1483.26 23.1955 L1483.26 27.2059 L1495.53 27.2059 L1495.53 32.9987 L1483.26 32.9987 L1483.26 72.576 L1475.77 72.576 L1475.77 32.9987 L1468.64 32.9987 L1468.64 27.2059 L1475.77 27.2059 L1475.77 24.0462 Q1475.77 16.471 1479.29 13.0277 Q1482.81 9.54393 1490.47 9.54393 L1497.52 9.54393 Z" fill="#000000" fill-rule="nonzero" fill-opacity="1" /><path clip-path="url(#clip870)" d="M1524.78 27.2059 L1532.68 27.2059 L1546.86 65.2844 L1561.04 27.2059 L1568.94 27.2059 L1551.92 72.576 L1541.8 72.576 L1524.78 27.2059 Z" fill="#000000" fill-rule="nonzero" fill-opacity="1" /><path clip-path="url(#clip870)" d="M1608.15 28.5427 L1608.15 35.5912 Q1604.99 33.9709 1601.59 33.1607 Q1598.18 32.3505 1594.54 32.3505 Q1588.99 32.3505 1586.19 34.0519 Q1583.44 35.7533 1583.44 39.156 Q1583.44 41.7486 1585.42 43.2475 Q1587.41 44.7058 1593.4 46.0426 L1595.96 46.6097 Q1603.9 48.3111 1607.22 51.4303 Q1610.58 54.509 1610.58 60.0587 Q1610.58 66.3781 1605.56 70.0644 Q1600.57 73.7508 1591.82 73.7508 Q1588.18 73.7508 1584.21 73.0216 Q1580.28 72.3329 1575.9 70.9151 L1575.9 63.2184 Q1580.04 65.3654 1584.05 66.4591 Q1588.06 67.5124 1591.99 67.5124 Q1597.25 67.5124 1600.09 65.73 Q1602.92 63.9071 1602.92 60.6258 Q1602.92 57.5877 1600.86 55.9673 Q1598.83 54.3469 1591.91 52.8481 L1589.31 52.2405 Q1582.39 50.7821 1579.31 47.7845 Q1576.23 44.7463 1576.23 39.4801 Q1576.23 33.0797 1580.77 29.5959 Q1585.3 26.1121 1593.65 26.1121 Q1597.78 26.1121 1601.43 26.7198 Q1605.07 27.3274 1608.15 28.5427 Z" fill="#000000" fill-rule="nonzero" fill-opacity="1" /><path clip-path="url(#clip870)" d="M1649.14 12.096 L1657.33 12.096 L1657.33 36.8875 L1687.06 36.8875 L1687.06 12.096 L1695.24 12.096 L1695.24 72.576 L1687.06 72.576 L1687.06 43.7741 L1657.33 43.7741 L1657.33 72.576 L1649.14 72.576 L1649.14 12.096 Z" fill="#000000" fill-rule="nonzero" fill-opacity="1" /><path clip-path="url(#clip870)" d="M1728.79 32.4315 Q1722.79 32.4315 1719.31 37.1306 Q1715.82 41.7891 1715.82 49.9314 Q1715.82 58.0738 1719.27 62.7728 Q1722.75 67.4314 1728.79 67.4314 Q1734.74 67.4314 1738.22 62.7323 Q1741.71 58.0333 1741.71 49.9314 Q1741.71 41.8701 1738.22 37.1711 Q1734.74 32.4315 1728.79 32.4315 M1728.79 26.1121 Q1738.51 26.1121 1744.06 32.4315 Q1749.61 38.7509 1749.61 49.9314 Q1749.61 61.0714 1744.06 67.4314 Q1738.51 73.7508 1728.79 73.7508 Q1719.02 73.7508 1713.47 67.4314 Q1707.96 61.0714 1707.96 49.9314 Q1707.96 38.7509 1713.47 32.4315 Q1719.02 26.1121 1728.79 26.1121 Z" fill="#000000" fill-rule="nonzero" fill-opacity="1" /><path clip-path="url(#clip870)" d="M1788.25 34.1734 Q1787 33.4443 1785.5 33.1202 Q1784.04 32.7556 1782.26 32.7556 Q1775.94 32.7556 1772.54 36.8875 Q1769.17 40.9789 1769.17 48.6757 L1769.17 72.576 L1761.68 72.576 L1761.68 27.2059 L1769.17 27.2059 L1769.17 34.2544 Q1771.52 30.1225 1775.29 28.1376 Q1779.06 26.1121 1784.44 26.1121 Q1785.21 26.1121 1786.15 26.2337 Q1787.08 26.3147 1788.21 26.5172 L1788.25 34.1734 Z" fill="#000000" fill-rule="nonzero" fill-opacity="1" /><path clip-path="url(#clip870)" d="M1796.07 27.2059 L1803.52 27.2059 L1803.52 72.576 L1796.07 72.576 L1796.07 27.2059 M1796.07 9.54393 L1803.52 9.54393 L1803.52 18.9825 L1796.07 18.9825 L1796.07 9.54393 Z" fill="#000000" fill-rule="nonzero" fill-opacity="1" /><path clip-path="url(#clip870)" d="M1815.88 27.2059 L1851.28 27.2059 L1851.28 34.0114 L1823.25 66.6212 L1851.28 66.6212 L1851.28 72.576 L1814.87 72.576 L1814.87 65.7705 L1842.9 33.1607 L1815.88 33.1607 L1815.88 27.2059 Z" fill="#000000" fill-rule="nonzero" fill-opacity="1" /><path clip-path="url(#clip870)" d="M1880.25 32.4315 Q1874.25 32.4315 1870.77 37.1306 Q1867.29 41.7891 1867.29 49.9314 Q1867.29 58.0738 1870.73 62.7728 Q1874.21 67.4314 1880.25 67.4314 Q1886.2 67.4314 1889.69 62.7323 Q1893.17 58.0333 1893.17 49.9314 Q1893.17 41.8701 1889.69 37.1711 Q1886.2 32.4315 1880.25 32.4315 M1880.25 26.1121 Q1889.97 26.1121 1895.52 32.4315 Q1901.07 38.7509 1901.07 49.9314 Q1901.07 61.0714 1895.52 67.4314 Q1889.97 73.7508 1880.25 73.7508 Q1870.49 73.7508 1864.94 67.4314 Q1859.43 61.0714 1859.43 49.9314 Q1859.43 38.7509 1864.94 32.4315 Q1870.49 26.1121 1880.25 26.1121 Z" fill="#000000" fill-rule="nonzero" fill-opacity="1" /><path clip-path="url(#clip870)" d="M1951.14 45.1919 L1951.14 72.576 L1943.69 72.576 L1943.69 45.4349 Q1943.69 38.994 1941.17 35.7938 Q1938.66 32.5936 1933.64 32.5936 Q1927.6 32.5936 1924.12 36.4419 Q1920.64 40.2903 1920.64 46.9338 L1920.64 72.576 L1913.14 72.576 L1913.14 27.2059 L1920.64 27.2059 L1920.64 34.2544 Q1923.31 30.163 1926.92 28.1376 Q1930.56 26.1121 1935.3 26.1121 Q1943.12 26.1121 1947.13 30.9732 Q1951.14 35.7938 1951.14 45.1919 Z" fill="#000000" fill-rule="nonzero" fill-opacity="1" /><circle clip-path="url(#clip872)" cx="347.451" cy="1386.4" r="14.4" fill="#009af9" fill-rule="evenodd" fill-opacity="1" stroke="#000000" stroke-opacity="1" stroke-width="3.2"/>
<circle clip-path="url(#clip872)" cx="469.132" cy="1101.18" r="14.4" fill="#009af9" fill-rule="evenodd" fill-opacity="1" stroke="#000000" stroke-opacity="1" stroke-width="3.2"/>
<circle clip-path="url(#clip872)" cx="671.934" cy="992.263" r="14.4" fill="#009af9" fill-rule="evenodd" fill-opacity="1" stroke="#000000" stroke-opacity="1" stroke-width="3.2"/>
<circle clip-path="url(#clip872)" cx="874.736" cy="1181.21" r="14.4" fill="#009af9" fill-rule="evenodd" fill-opacity="1" stroke="#000000" stroke-opacity="1" stroke-width="3.2"/>
<circle clip-path="url(#clip872)" cx="1077.54" cy="1068.33" r="14.4" fill="#009af9" fill-rule="evenodd" fill-opacity="1" stroke="#000000" stroke-opacity="1" stroke-width="3.2"/>
<circle clip-path="url(#clip872)" cx="1280.34" cy="781.011" r="14.4" fill="#009af9" fill-rule="evenodd" fill-opacity="1" stroke="#000000" stroke-opacity="1" stroke-width="3.2"/>
<circle clip-path="url(#clip872)" cx="1483.14" cy="598.321" r="14.4" fill="#009af9" fill-rule="evenodd" fill-opacity="1" stroke="#000000" stroke-opacity="1" stroke-width="3.2"/>
<circle clip-path="url(#clip872)" cx="1685.94" cy="917.657" r="14.4" fill="#009af9" fill-rule="evenodd" fill-opacity="1" stroke="#000000" stroke-opacity="1" stroke-width="3.2"/>
<circle clip-path="url(#clip872)" cx="1888.75" cy="684.525" r="14.4" fill="#009af9" fill-rule="evenodd" fill-opacity="1" stroke="#000000" stroke-opacity="1" stroke-width="3.2"/>
<circle clip-path="url(#clip872)" cx="2091.55" cy="570.921" r="14.4" fill="#009af9" fill-rule="evenodd" fill-opacity="1" stroke="#000000" stroke-opacity="1" stroke-width="3.2"/>
<circle clip-path="url(#clip872)" cx="2294.35" cy="968.969" r="14.4" fill="#009af9" fill-rule="evenodd" fill-opacity="1" stroke="#000000" stroke-opacity="1" stroke-width="3.2"/>
<circle clip-path="url(#clip872)" cx="347.451" cy="340.104" r="14.4" fill="#e26f46" fill-rule="evenodd" fill-opacity="1" stroke="#000000" stroke-opacity="1" stroke-width="3.2"/>
<circle clip-path="url(#clip872)" cx="469.132" cy="160.256" r="14.4" fill="#e26f46" fill-rule="evenodd" fill-opacity="1" stroke="#000000" stroke-opacity="1" stroke-width="3.2"/>
<circle clip-path="url(#clip872)" cx="671.934" cy="275.168" r="14.4" fill="#e26f46" fill-rule="evenodd" fill-opacity="1" stroke="#000000" stroke-opacity="1" stroke-width="3.2"/>
<circle clip-path="url(#clip872)" cx="874.736" cy="664.218" r="14.4" fill="#e26f46" fill-rule="evenodd" fill-opacity="1" stroke="#000000" stroke-opacity="1" stroke-width="3.2"/>
<circle clip-path="url(#clip872)" cx="1077.54" cy="273.899" r="14.4" fill="#e26f46" fill-rule="evenodd" fill-opacity="1" stroke="#000000" stroke-opacity="1" stroke-width="3.2"/>
<circle clip-path="url(#clip872)" cx="1280.34" cy="265.105" r="14.4" fill="#e26f46" fill-rule="evenodd" fill-opacity="1" stroke="#000000" stroke-opacity="1" stroke-width="3.2"/>
<circle clip-path="url(#clip872)" cx="1483.14" cy="1149.82" r="14.4" fill="#e26f46" fill-rule="evenodd" fill-opacity="1" stroke="#000000" stroke-opacity="1" stroke-width="3.2"/>
<circle clip-path="url(#clip872)" cx="1685.94" cy="641.423" r="14.4" fill="#e26f46" fill-rule="evenodd" fill-opacity="1" stroke="#000000" stroke-opacity="1" stroke-width="3.2"/>
<circle clip-path="url(#clip872)" cx="1888.75" cy="366.483" r="14.4" fill="#e26f46" fill-rule="evenodd" fill-opacity="1" stroke="#000000" stroke-opacity="1" stroke-width="3.2"/>
<circle clip-path="url(#clip872)" cx="2091.55" cy="331.912" r="14.4" fill="#e26f46" fill-rule="evenodd" fill-opacity="1" stroke="#000000" stroke-opacity="1" stroke-width="3.2"/>
<circle clip-path="url(#clip872)" cx="2294.35" cy="658.322" r="14.4" fill="#e26f46" fill-rule="evenodd" fill-opacity="1" stroke="#000000" stroke-opacity="1" stroke-width="3.2"/>
<path clip-path="url(#clip870)" d="M1741.18 322.316 L2283.97 322.316 L2283.97 166.796 L1741.18 166.796  Z" fill="#ffffff" fill-rule="evenodd" fill-opacity="1"/>
<polyline clip-path="url(#clip870)" style="stroke:#000000; stroke-linecap:round; stroke-linejoin:round; stroke-width:4; stroke-opacity:1; fill:none" points="1741.18,322.316 2283.97,322.316 2283.97,166.796 1741.18,166.796 1741.18,322.316 "/>
<circle clip-path="url(#clip870)" cx="1832.9" cy="218.636" r="20.48" fill="#009af9" fill-rule="evenodd" fill-opacity="1" stroke="#000000" stroke-opacity="1" stroke-width="4.55111"/>
<path clip-path="url(#clip870)" d="M1932.03 202.629 L1932.03 209.99 L1940.81 209.99 L1940.81 213.3 L1932.03 213.3 L1932.03 227.374 Q1932.03 230.545 1932.89 231.448 Q1933.77 232.351 1936.43 232.351 L1940.81 232.351 L1940.81 235.916 L1936.43 235.916 Q1931.5 235.916 1929.63 234.087 Q1927.75 232.235 1927.75 227.374 L1927.75 213.3 L1924.63 213.3 L1924.63 209.99 L1927.75 209.99 L1927.75 202.629 L1932.03 202.629 Z" fill="#000000" fill-rule="nonzero" fill-opacity="1" /><path clip-path="url(#clip870)" d="M1961.43 213.971 Q1960.71 213.555 1959.86 213.37 Q1959.02 213.161 1958 213.161 Q1954.39 213.161 1952.45 215.522 Q1950.53 217.86 1950.53 222.258 L1950.53 235.916 L1946.25 235.916 L1946.25 209.99 L1950.53 209.99 L1950.53 214.018 Q1951.87 211.657 1954.02 210.522 Q1956.18 209.365 1959.25 209.365 Q1959.69 209.365 1960.23 209.434 Q1960.76 209.481 1961.41 209.596 L1961.43 213.971 Z" fill="#000000" fill-rule="nonzero" fill-opacity="1" /><path clip-path="url(#clip870)" d="M1977.68 222.883 Q1972.52 222.883 1970.53 224.064 Q1968.54 225.244 1968.54 228.092 Q1968.54 230.36 1970.02 231.703 Q1971.52 233.022 1974.09 233.022 Q1977.63 233.022 1979.76 230.522 Q1981.92 227.999 1981.92 223.832 L1981.92 222.883 L1977.68 222.883 M1986.18 221.124 L1986.18 235.916 L1981.92 235.916 L1981.92 231.981 Q1980.46 234.342 1978.28 235.476 Q1976.11 236.587 1972.96 236.587 Q1968.98 236.587 1966.62 234.365 Q1964.28 232.119 1964.28 228.369 Q1964.28 223.994 1967.19 221.772 Q1970.13 219.55 1975.94 219.55 L1981.92 219.55 L1981.92 219.133 Q1981.92 216.194 1979.97 214.596 Q1978.05 212.976 1974.56 212.976 Q1972.33 212.976 1970.23 213.508 Q1968.12 214.041 1966.18 215.106 L1966.18 211.17 Q1968.51 210.268 1970.71 209.828 Q1972.91 209.365 1975 209.365 Q1980.62 209.365 1983.4 212.282 Q1986.18 215.198 1986.18 221.124 Z" fill="#000000" fill-rule="nonzero" fill-opacity="1" /><path clip-path="url(#clip870)" d="M1994.95 209.99 L1999.21 209.99 L1999.21 235.916 L1994.95 235.916 L1994.95 209.99 M1994.95 199.897 L1999.21 199.897 L1999.21 205.291 L1994.95 205.291 L1994.95 199.897 Z" fill="#000000" fill-rule="nonzero" fill-opacity="1" /><path clip-path="url(#clip870)" d="M2029.67 220.268 L2029.67 235.916 L2025.41 235.916 L2025.41 220.407 Q2025.41 216.726 2023.98 214.897 Q2022.54 213.069 2019.67 213.069 Q2016.22 213.069 2014.23 215.268 Q2012.24 217.467 2012.24 221.263 L2012.24 235.916 L2007.96 235.916 L2007.96 209.99 L2012.24 209.99 L2012.24 214.018 Q2013.77 211.68 2015.83 210.522 Q2017.91 209.365 2020.62 209.365 Q2025.09 209.365 2027.38 212.143 Q2029.67 214.897 2029.67 220.268 Z" fill="#000000" fill-rule="nonzero" fill-opacity="1" /><path clip-path="url(#clip870)" d="M2038.17 209.99 L2042.43 209.99 L2042.43 235.916 L2038.17 235.916 L2038.17 209.99 M2038.17 199.897 L2042.43 199.897 L2042.43 205.291 L2038.17 205.291 L2038.17 199.897 Z" fill="#000000" fill-rule="nonzero" fill-opacity="1" /><path clip-path="url(#clip870)" d="M2072.89 220.268 L2072.89 235.916 L2068.63 235.916 L2068.63 220.407 Q2068.63 216.726 2067.19 214.897 Q2065.76 213.069 2062.89 213.069 Q2059.44 213.069 2057.45 215.268 Q2055.46 217.467 2055.46 221.263 L2055.46 235.916 L2051.18 235.916 L2051.18 209.99 L2055.46 209.99 L2055.46 214.018 Q2056.99 211.68 2059.05 210.522 Q2061.13 209.365 2063.84 209.365 Q2068.3 209.365 2070.6 212.143 Q2072.89 214.897 2072.89 220.268 Z" fill="#000000" fill-rule="nonzero" fill-opacity="1" /><path clip-path="url(#clip870)" d="M2098.44 222.652 Q2098.44 218.022 2096.52 215.476 Q2094.62 212.93 2091.18 212.93 Q2087.75 212.93 2085.83 215.476 Q2083.93 218.022 2083.93 222.652 Q2083.93 227.258 2085.83 229.805 Q2087.75 232.351 2091.18 232.351 Q2094.62 232.351 2096.52 229.805 Q2098.44 227.258 2098.44 222.652 M2102.7 232.698 Q2102.7 239.318 2099.76 242.536 Q2096.82 245.777 2090.76 245.777 Q2088.51 245.777 2086.52 245.43 Q2084.53 245.105 2082.66 244.411 L2082.66 240.268 Q2084.53 241.286 2086.36 241.772 Q2088.19 242.258 2090.09 242.258 Q2094.28 242.258 2096.36 240.059 Q2098.44 237.883 2098.44 233.462 L2098.44 231.356 Q2097.12 233.647 2095.06 234.781 Q2093 235.916 2090.13 235.916 Q2085.37 235.916 2082.45 232.281 Q2079.53 228.647 2079.53 222.652 Q2079.53 216.633 2082.45 212.999 Q2085.37 209.365 2090.13 209.365 Q2093 209.365 2095.06 210.499 Q2097.12 211.633 2098.44 213.925 L2098.44 209.99 L2102.7 209.99 L2102.7 232.698 Z" fill="#000000" fill-rule="nonzero" fill-opacity="1" /><path clip-path="url(#clip870)" d="M2124.39 221.032 L2136.87 221.032 L2136.87 224.828 L2124.39 224.828 L2124.39 221.032 Z" fill="#000000" fill-rule="nonzero" fill-opacity="1" /><path clip-path="url(#clip870)" d="M2169.9 216.772 Q2166.75 216.772 2164.9 218.925 Q2163.07 221.078 2163.07 224.828 Q2163.07 228.555 2164.9 230.731 Q2166.75 232.883 2169.9 232.883 Q2173.05 232.883 2174.88 230.731 Q2176.73 228.555 2176.73 224.828 Q2176.73 221.078 2174.88 218.925 Q2173.05 216.772 2169.9 216.772 M2179.18 202.12 L2179.18 206.379 Q2177.42 205.546 2175.62 205.106 Q2173.84 204.666 2172.08 204.666 Q2167.45 204.666 2164.99 207.791 Q2162.56 210.916 2162.22 217.235 Q2163.58 215.221 2165.64 214.157 Q2167.7 213.069 2170.18 213.069 Q2175.39 213.069 2178.4 216.24 Q2181.43 219.388 2181.43 224.828 Q2181.43 230.152 2178.28 233.369 Q2175.13 236.587 2169.9 236.587 Q2163.91 236.587 2160.73 232.004 Q2157.56 227.397 2157.56 218.67 Q2157.56 210.476 2161.45 205.615 Q2165.34 200.731 2171.89 200.731 Q2173.65 200.731 2175.43 201.078 Q2177.24 201.425 2179.18 202.12 Z" fill="#000000" fill-rule="nonzero" fill-opacity="1" /><path clip-path="url(#clip870)" d="M2199.48 204.434 Q2195.87 204.434 2194.05 207.999 Q2192.24 211.541 2192.24 218.67 Q2192.24 225.777 2194.05 229.342 Q2195.87 232.883 2199.48 232.883 Q2203.12 232.883 2204.92 229.342 Q2206.75 225.777 2206.75 218.67 Q2206.75 211.541 2204.92 207.999 Q2203.12 204.434 2199.48 204.434 M2199.48 200.731 Q2205.29 200.731 2208.35 205.337 Q2211.43 209.92 2211.43 218.67 Q2211.43 227.397 2208.35 232.004 Q2205.29 236.587 2199.48 236.587 Q2193.67 236.587 2190.6 232.004 Q2187.54 227.397 2187.54 218.67 Q2187.54 209.92 2190.6 205.337 Q2193.67 200.731 2199.48 200.731 Z" fill="#000000" fill-rule="nonzero" fill-opacity="1" /><circle clip-path="url(#clip870)" cx="1832.9" cy="270.476" r="20.48" fill="#e26f46" fill-rule="evenodd" fill-opacity="1" stroke="#000000" stroke-opacity="1" stroke-width="4.55111"/>
<path clip-path="url(#clip870)" d="M1924.63 261.83 L1929.14 261.83 L1937.24 283.589 L1945.34 261.83 L1949.86 261.83 L1940.13 287.756 L1934.35 287.756 L1924.63 261.83 Z" fill="#000000" fill-rule="nonzero" fill-opacity="1" /><path clip-path="url(#clip870)" d="M1967.52 274.723 Q1962.36 274.723 1960.37 275.904 Q1958.37 277.084 1958.37 279.932 Q1958.37 282.2 1959.86 283.543 Q1961.36 284.862 1963.93 284.862 Q1967.47 284.862 1969.6 282.362 Q1971.75 279.839 1971.75 275.672 L1971.75 274.723 L1967.52 274.723 M1976.01 272.964 L1976.01 287.756 L1971.75 287.756 L1971.75 283.821 Q1970.3 286.182 1968.12 287.316 Q1965.94 288.427 1962.8 288.427 Q1958.81 288.427 1956.45 286.205 Q1954.12 283.959 1954.12 280.209 Q1954.12 275.834 1957.03 273.612 Q1959.97 271.39 1965.78 271.39 L1971.75 271.39 L1971.75 270.973 Q1971.75 268.034 1969.81 266.436 Q1967.89 264.816 1964.39 264.816 Q1962.17 264.816 1960.06 265.348 Q1957.96 265.881 1956.01 266.946 L1956.01 263.01 Q1958.35 262.108 1960.55 261.668 Q1962.75 261.205 1964.83 261.205 Q1970.46 261.205 1973.24 264.122 Q1976.01 267.038 1976.01 272.964 Z" fill="#000000" fill-rule="nonzero" fill-opacity="1" /><path clip-path="url(#clip870)" d="M1984.79 251.737 L1989.05 251.737 L1989.05 287.756 L1984.79 287.756 L1984.79 251.737 Z" fill="#000000" fill-rule="nonzero" fill-opacity="1" /><path clip-path="url(#clip870)" d="M1997.96 261.83 L2002.22 261.83 L2002.22 287.756 L1997.96 287.756 L1997.96 261.83 M1997.96 251.737 L2002.22 251.737 L2002.22 257.131 L1997.96 257.131 L1997.96 251.737 Z" fill="#000000" fill-rule="nonzero" fill-opacity="1" /><path clip-path="url(#clip870)" d="M2028.19 265.765 L2028.19 251.737 L2032.45 251.737 L2032.45 287.756 L2028.19 287.756 L2028.19 283.867 Q2026.85 286.182 2024.79 287.316 Q2022.75 288.427 2019.88 288.427 Q2015.18 288.427 2012.22 284.677 Q2009.28 280.927 2009.28 274.816 Q2009.28 268.705 2012.22 264.955 Q2015.18 261.205 2019.88 261.205 Q2022.75 261.205 2024.79 262.339 Q2026.85 263.45 2028.19 265.765 M2013.68 274.816 Q2013.68 279.515 2015.6 282.2 Q2017.54 284.862 2020.92 284.862 Q2024.3 284.862 2026.24 282.2 Q2028.19 279.515 2028.19 274.816 Q2028.19 270.117 2026.24 267.455 Q2024.3 264.77 2020.92 264.77 Q2017.54 264.77 2015.6 267.455 Q2013.68 270.117 2013.68 274.816 Z" fill="#000000" fill-rule="nonzero" fill-opacity="1" /><path clip-path="url(#clip870)" d="M2053 274.723 Q2047.84 274.723 2045.85 275.904 Q2043.86 277.084 2043.86 279.932 Q2043.86 282.2 2045.34 283.543 Q2046.85 284.862 2049.42 284.862 Q2052.96 284.862 2055.09 282.362 Q2057.24 279.839 2057.24 275.672 L2057.24 274.723 L2053 274.723 M2061.5 272.964 L2061.5 287.756 L2057.24 287.756 L2057.24 283.821 Q2055.78 286.182 2053.61 287.316 Q2051.43 288.427 2048.28 288.427 Q2044.3 288.427 2041.94 286.205 Q2039.6 283.959 2039.6 280.209 Q2039.6 275.834 2042.52 273.612 Q2045.46 271.39 2051.27 271.39 L2057.24 271.39 L2057.24 270.973 Q2057.24 268.034 2055.3 266.436 Q2053.37 264.816 2049.88 264.816 Q2047.66 264.816 2045.55 265.348 Q2043.44 265.881 2041.5 266.946 L2041.5 263.01 Q2043.84 262.108 2046.04 261.668 Q2048.24 261.205 2050.32 261.205 Q2055.94 261.205 2058.72 264.122 Q2061.5 267.038 2061.5 272.964 Z" fill="#000000" fill-rule="nonzero" fill-opacity="1" /><path clip-path="url(#clip870)" d="M2074.49 254.469 L2074.49 261.83 L2083.26 261.83 L2083.26 265.14 L2074.49 265.14 L2074.49 279.214 Q2074.49 282.385 2075.34 283.288 Q2076.22 284.191 2078.88 284.191 L2083.26 284.191 L2083.26 287.756 L2078.88 287.756 Q2073.95 287.756 2072.08 285.927 Q2070.2 284.075 2070.2 279.214 L2070.2 265.14 L2067.08 265.14 L2067.08 261.83 L2070.2 261.83 L2070.2 254.469 L2074.49 254.469 Z" fill="#000000" fill-rule="nonzero" fill-opacity="1" /><path clip-path="url(#clip870)" d="M2088.86 261.83 L2093.12 261.83 L2093.12 287.756 L2088.86 287.756 L2088.86 261.83 M2088.86 251.737 L2093.12 251.737 L2093.12 257.131 L2088.86 257.131 L2088.86 251.737 Z" fill="#000000" fill-rule="nonzero" fill-opacity="1" /><path clip-path="url(#clip870)" d="M2112.08 264.816 Q2108.65 264.816 2106.66 267.501 Q2104.67 270.163 2104.67 274.816 Q2104.67 279.469 2106.64 282.154 Q2108.63 284.816 2112.08 284.816 Q2115.48 284.816 2117.47 282.131 Q2119.46 279.446 2119.46 274.816 Q2119.46 270.21 2117.47 267.524 Q2115.48 264.816 2112.08 264.816 M2112.08 261.205 Q2117.63 261.205 2120.8 264.816 Q2123.98 268.427 2123.98 274.816 Q2123.98 281.182 2120.8 284.816 Q2117.63 288.427 2112.08 288.427 Q2106.5 288.427 2103.33 284.816 Q2100.18 281.182 2100.18 274.816 Q2100.18 268.427 2103.33 264.816 Q2106.5 261.205 2112.08 261.205 Z" fill="#000000" fill-rule="nonzero" fill-opacity="1" /><path clip-path="url(#clip870)" d="M2152.59 272.108 L2152.59 287.756 L2148.33 287.756 L2148.33 272.247 Q2148.33 268.566 2146.89 266.737 Q2145.46 264.909 2142.59 264.909 Q2139.14 264.909 2137.15 267.108 Q2135.16 269.307 2135.16 273.103 L2135.16 287.756 L2130.87 287.756 L2130.87 261.83 L2135.16 261.83 L2135.16 265.858 Q2136.68 263.52 2138.74 262.362 Q2140.83 261.205 2143.54 261.205 Q2148 261.205 2150.3 263.983 Q2152.59 266.737 2152.59 272.108 Z" fill="#000000" fill-rule="nonzero" fill-opacity="1" /><path clip-path="url(#clip870)" d="M2174 272.872 L2186.48 272.872 L2186.48 276.668 L2174 276.668 L2174 272.872 Z" fill="#000000" fill-rule="nonzero" fill-opacity="1" /><path clip-path="url(#clip870)" d="M2219.51 268.612 Q2216.36 268.612 2214.51 270.765 Q2212.68 272.918 2212.68 276.668 Q2212.68 280.395 2214.51 282.571 Q2216.36 284.723 2219.51 284.723 Q2222.66 284.723 2224.48 282.571 Q2226.34 280.395 2226.34 276.668 Q2226.34 272.918 2224.48 270.765 Q2222.66 268.612 2219.51 268.612 M2228.79 253.96 L2228.79 258.219 Q2227.03 257.386 2225.23 256.946 Q2223.44 256.506 2221.68 256.506 Q2217.05 256.506 2214.6 259.631 Q2212.17 262.756 2211.82 269.075 Q2213.19 267.061 2215.25 265.997 Q2217.31 264.909 2219.79 264.909 Q2224.99 264.909 2228 268.08 Q2231.04 271.228 2231.04 276.668 Q2231.04 281.992 2227.89 285.209 Q2224.74 288.427 2219.51 288.427 Q2213.51 288.427 2210.34 283.844 Q2207.17 279.237 2207.17 270.51 Q2207.17 262.316 2211.06 257.455 Q2214.95 252.571 2221.5 252.571 Q2223.26 252.571 2225.04 252.918 Q2226.85 253.265 2228.79 253.96 Z" fill="#000000" fill-rule="nonzero" fill-opacity="1" /><path clip-path="url(#clip870)" d="M2249.09 256.274 Q2245.48 256.274 2243.65 259.839 Q2241.85 263.381 2241.85 270.51 Q2241.85 277.617 2243.65 281.182 Q2245.48 284.723 2249.09 284.723 Q2252.73 284.723 2254.53 281.182 Q2256.36 277.617 2256.36 270.51 Q2256.36 263.381 2254.53 259.839 Q2252.73 256.274 2249.09 256.274 M2249.09 252.571 Q2254.9 252.571 2257.96 257.177 Q2261.04 261.76 2261.04 270.51 Q2261.04 279.237 2257.96 283.844 Q2254.9 288.427 2249.09 288.427 Q2243.28 288.427 2240.2 283.844 Q2237.15 279.237 2237.15 270.51 Q2237.15 261.76 2240.2 257.177 Q2243.28 252.571 2249.09 252.571 Z" fill="#000000" fill-rule="nonzero" fill-opacity="1" /></svg>
