<?xml version="1.0" encoding="utf-8"?>
<svg xmlns="http://www.w3.org/2000/svg" xmlns:xlink="http://www.w3.org/1999/xlink" width="600" height="400" viewBox="0 0 2400 1600">
<defs>
  <clipPath id="clip150">
    <rect x="0" y="0" width="2400" height="1600"/>
  </clipPath>
</defs>
<path clip-path="url(#clip150)" d="M0 1600 L2400 1600 L2400 0 L0 0  Z" fill="#ffffff" fill-rule="evenodd" fill-opacity="1"/>
<defs>
  <clipPath id="clip151">
    <rect x="480" y="0" width="1681" height="1600"/>
  </clipPath>
</defs>
<path clip-path="url(#clip150)" d="M221.637 1423.18 L2352.76 1423.18 L2352.76 47.2441 L221.637 47.2441  Z" fill="#ffffff" fill-rule="evenodd" fill-opacity="1"/>
<defs>
  <clipPath id="clip152">
    <rect x="221" y="47" width="2132" height="1377"/>
  </clipPath>
</defs>
<polyline clip-path="url(#clip152)" style="stroke:#000000; stroke-linecap:round; stroke-linejoin:round; stroke-width:2; stroke-opacity:0.1; fill:none" points="262.262,1423.18 262.262,47.2441 "/>
<polyline clip-path="url(#clip152)" style="stroke:#000000; stroke-linecap:round; stroke-linejoin:round; stroke-width:2; stroke-opacity:0.1; fill:none" points="777.772,1423.18 777.772,47.2441 "/>
<polyline clip-path="url(#clip152)" style="stroke:#000000; stroke-linecap:round; stroke-linejoin:round; stroke-width:2; stroke-opacity:0.1; fill:none" points="1299.01,1423.18 1299.01,47.2441 "/>
<polyline clip-path="url(#clip152)" style="stroke:#000000; stroke-linecap:round; stroke-linejoin:round; stroke-width:2; stroke-opacity:0.1; fill:none" points="1825.98,1423.18 1825.98,47.2441 "/>
<polyline clip-path="url(#clip152)" style="stroke:#000000; stroke-linecap:round; stroke-linejoin:round; stroke-width:2; stroke-opacity:0.05; fill:none" points="365.364,1423.18 365.364,47.2441 "/>
<polyline clip-path="url(#clip152)" style="stroke:#000000; stroke-linecap:round; stroke-linejoin:round; stroke-width:2; stroke-opacity:0.05; fill:none" points="468.466,1423.18 468.466,47.2441 "/>
<polyline clip-path="url(#clip152)" style="stroke:#000000; stroke-linecap:round; stroke-linejoin:round; stroke-width:2; stroke-opacity:0.05; fill:none" points="571.568,1423.18 571.568,47.2441 "/>
<polyline clip-path="url(#clip152)" style="stroke:#000000; stroke-linecap:round; stroke-linejoin:round; stroke-width:2; stroke-opacity:0.05; fill:none" points="674.67,1423.18 674.67,47.2441 "/>
<polyline clip-path="url(#clip152)" style="stroke:#000000; stroke-linecap:round; stroke-linejoin:round; stroke-width:2; stroke-opacity:0.05; fill:none" points="882.02,1423.18 882.02,47.2441 "/>
<polyline clip-path="url(#clip152)" style="stroke:#000000; stroke-linecap:round; stroke-linejoin:round; stroke-width:2; stroke-opacity:0.05; fill:none" points="986.267,1423.18 986.267,47.2441 "/>
<polyline clip-path="url(#clip152)" style="stroke:#000000; stroke-linecap:round; stroke-linejoin:round; stroke-width:2; stroke-opacity:0.05; fill:none" points="1090.52,1423.18 1090.52,47.2441 "/>
<polyline clip-path="url(#clip152)" style="stroke:#000000; stroke-linecap:round; stroke-linejoin:round; stroke-width:2; stroke-opacity:0.05; fill:none" points="1194.76,1423.18 1194.76,47.2441 "/>
<polyline clip-path="url(#clip152)" style="stroke:#000000; stroke-linecap:round; stroke-linejoin:round; stroke-width:2; stroke-opacity:0.05; fill:none" points="1404.4,1423.18 1404.4,47.2441 "/>
<polyline clip-path="url(#clip152)" style="stroke:#000000; stroke-linecap:round; stroke-linejoin:round; stroke-width:2; stroke-opacity:0.05; fill:none" points="1509.8,1423.18 1509.8,47.2441 "/>
<polyline clip-path="url(#clip152)" style="stroke:#000000; stroke-linecap:round; stroke-linejoin:round; stroke-width:2; stroke-opacity:0.05; fill:none" points="1615.19,1423.18 1615.19,47.2441 "/>
<polyline clip-path="url(#clip152)" style="stroke:#000000; stroke-linecap:round; stroke-linejoin:round; stroke-width:2; stroke-opacity:0.05; fill:none" points="1720.58,1423.18 1720.58,47.2441 "/>
<polyline clip-path="url(#clip152)" style="stroke:#000000; stroke-linecap:round; stroke-linejoin:round; stroke-width:2; stroke-opacity:0.05; fill:none" points="1932.54,1423.18 1932.54,47.2441 "/>
<polyline clip-path="url(#clip152)" style="stroke:#000000; stroke-linecap:round; stroke-linejoin:round; stroke-width:2; stroke-opacity:0.05; fill:none" points="2039.1,1423.18 2039.1,47.2441 "/>
<polyline clip-path="url(#clip152)" style="stroke:#000000; stroke-linecap:round; stroke-linejoin:round; stroke-width:2; stroke-opacity:0.05; fill:none" points="2145.67,1423.18 2145.67,47.2441 "/>
<polyline clip-path="url(#clip152)" style="stroke:#000000; stroke-linecap:round; stroke-linejoin:round; stroke-width:2; stroke-opacity:0.05; fill:none" points="2252.23,1423.18 2252.23,47.2441 "/>
<polyline clip-path="url(#clip150)" style="stroke:#000000; stroke-linecap:round; stroke-linejoin:round; stroke-width:4; stroke-opacity:1; fill:none" points="221.637,1423.18 2352.76,1423.18 "/>
<polyline clip-path="url(#clip150)" style="stroke:#000000; stroke-linecap:round; stroke-linejoin:round; stroke-width:4; stroke-opacity:1; fill:none" points="262.262,1423.18 262.262,1404.28 "/>
<polyline clip-path="url(#clip150)" style="stroke:#000000; stroke-linecap:round; stroke-linejoin:round; stroke-width:4; stroke-opacity:1; fill:none" points="777.772,1423.18 777.772,1404.28 "/>
<polyline clip-path="url(#clip150)" style="stroke:#000000; stroke-linecap:round; stroke-linejoin:round; stroke-width:4; stroke-opacity:1; fill:none" points="1299.01,1423.18 1299.01,1404.28 "/>
<polyline clip-path="url(#clip150)" style="stroke:#000000; stroke-linecap:round; stroke-linejoin:round; stroke-width:4; stroke-opacity:1; fill:none" points="1825.98,1423.18 1825.98,1404.28 "/>
<polyline clip-path="url(#clip150)" style="stroke:#000000; stroke-linecap:round; stroke-linejoin:round; stroke-width:4; stroke-opacity:1; fill:none" points="365.364,1423.18 365.364,1413.73 "/>
<polyline clip-path="url(#clip150)" style="stroke:#000000; stroke-linecap:round; stroke-linejoin:round; stroke-width:4; stroke-opacity:1; fill:none" points="468.466,1423.18 468.466,1413.73 "/>
<polyline clip-path="url(#clip150)" style="stroke:#000000; stroke-linecap:round; stroke-linejoin:round; stroke-width:4; stroke-opacity:1; fill:none" points="571.568,1423.18 571.568,1413.73 "/>
<polyline clip-path="url(#clip150)" style="stroke:#000000; stroke-linecap:round; stroke-linejoin:round; stroke-width:4; stroke-opacity:1; fill:none" points="674.67,1423.18 674.67,1413.73 "/>
<polyline clip-path="url(#clip150)" style="stroke:#000000; stroke-linecap:round; stroke-linejoin:round; stroke-width:4; stroke-opacity:1; fill:none" points="882.02,1423.18 882.02,1413.73 "/>
<polyline clip-path="url(#clip150)" style="stroke:#000000; stroke-linecap:round; stroke-linejoin:round; stroke-width:4; stroke-opacity:1; fill:none" points="986.267,1423.18 986.267,1413.73 "/>
<polyline clip-path="url(#clip150)" style="stroke:#000000; stroke-linecap:round; stroke-linejoin:round; stroke-width:4; stroke-opacity:1; fill:none" points="1090.52,1423.18 1090.52,1413.73 "/>
<polyline clip-path="url(#clip150)" style="stroke:#000000; stroke-linecap:round; stroke-linejoin:round; stroke-width:4; stroke-opacity:1; fill:none" points="1194.76,1423.18 1194.76,1413.73 "/>
<polyline clip-path="url(#clip150)" style="stroke:#000000; stroke-linecap:round; stroke-linejoin:round; stroke-width:4; stroke-opacity:1; fill:none" points="1404.4,1423.18 1404.4,1413.73 "/>
<polyline clip-path="url(#clip150)" style="stroke:#000000; stroke-linecap:round; stroke-linejoin:round; stroke-width:4; stroke-opacity:1; fill:none" points="1509.8,1423.18 1509.8,1413.73 "/>
<polyline clip-path="url(#clip150)" style="stroke:#000000; stroke-linecap:round; stroke-linejoin:round; stroke-width:4; stroke-opacity:1; fill:none" points="1615.19,1423.18 1615.19,1413.73 "/>
<polyline clip-path="url(#clip150)" style="stroke:#000000; stroke-linecap:round; stroke-linejoin:round; stroke-width:4; stroke-opacity:1; fill:none" points="1720.58,1423.18 1720.58,1413.73 "/>
<polyline clip-path="url(#clip150)" style="stroke:#000000; stroke-linecap:round; stroke-linejoin:round; stroke-width:4; stroke-opacity:1; fill:none" points="1932.54,1423.18 1932.54,1413.73 "/>
<polyline clip-path="url(#clip150)" style="stroke:#000000; stroke-linecap:round; stroke-linejoin:round; stroke-width:4; stroke-opacity:1; fill:none" points="2039.1,1423.18 2039.1,1413.73 "/>
<polyline clip-path="url(#clip150)" style="stroke:#000000; stroke-linecap:round; stroke-linejoin:round; stroke-width:4; stroke-opacity:1; fill:none" points="2145.67,1423.18 2145.67,1413.73 "/>
<polyline clip-path="url(#clip150)" style="stroke:#000000; stroke-linecap:round; stroke-linejoin:round; stroke-width:4; stroke-opacity:1; fill:none" points="2252.23,1423.18 2252.23,1413.73 "/>
<path clip-path="url(#clip150)" d="M134.057 1481.64 L150.376 1481.64 L150.376 1485.58 L128.432 1485.58 L128.432 1481.64 Q131.094 1478.89 135.677 1474.26 Q140.284 1469.61 141.464 1468.27 Q143.71 1465.74 144.589 1464.01 Q145.492 1462.25 145.492 1460.56 Q145.492 1457.8 143.548 1456.07 Q141.626 1454.33 138.524 1454.33 Q136.325 1454.33 133.872 1455.09 Q131.441 1455.86 128.663 1457.41 L128.663 1452.69 Q131.487 1451.55 133.941 1450.97 Q136.395 1450.39 138.432 1450.39 Q143.802 1450.39 146.997 1453.08 Q150.191 1455.77 150.191 1460.26 Q150.191 1462.39 149.381 1464.31 Q148.594 1466.2 146.487 1468.8 Q145.909 1469.47 142.807 1472.69 Q139.705 1475.88 134.057 1481.64 Z" fill="#000000" fill-rule="nonzero" fill-opacity="1" /><path clip-path="url(#clip150)" d="M170.191 1454.1 Q166.58 1454.1 164.751 1457.66 Q162.946 1461.2 162.946 1468.33 Q162.946 1475.44 164.751 1479.01 Q166.58 1482.55 170.191 1482.55 Q173.825 1482.55 175.631 1479.01 Q177.459 1475.44 177.459 1468.33 Q177.459 1461.2 175.631 1457.66 Q173.825 1454.1 170.191 1454.1 M170.191 1450.39 Q176.001 1450.39 179.057 1455 Q182.135 1459.58 182.135 1468.33 Q182.135 1477.06 179.057 1481.67 Q176.001 1486.25 170.191 1486.25 Q164.381 1486.25 161.302 1481.67 Q158.247 1477.06 158.247 1468.33 Q158.247 1459.58 161.302 1455 Q164.381 1450.39 170.191 1450.39 Z" fill="#000000" fill-rule="nonzero" fill-opacity="1" /><path clip-path="url(#clip150)" d="M194.381 1481.64 L210.7 1481.64 L210.7 1485.58 L188.756 1485.58 L188.756 1481.64 Q191.418 1478.89 196.001 1474.26 Q200.607 1469.61 201.788 1468.27 Q204.033 1465.74 204.913 1464.01 Q205.816 1462.25 205.816 1460.56 Q205.816 1457.8 203.871 1456.07 Q201.95 1454.33 198.848 1454.33 Q196.649 1454.33 194.195 1455.09 Q191.765 1455.86 188.987 1457.41 L188.987 1452.69 Q191.811 1451.55 194.265 1450.97 Q196.719 1450.39 198.756 1450.39 Q204.126 1450.39 207.32 1453.08 Q210.515 1455.77 210.515 1460.26 Q210.515 1462.39 209.705 1464.31 Q208.918 1466.2 206.811 1468.8 Q206.232 1469.47 203.131 1472.69 Q200.029 1475.88 194.381 1481.64 Z" fill="#000000" fill-rule="nonzero" fill-opacity="1" /><path clip-path="url(#clip150)" d="M221.325 1481.64 L228.964 1481.64 L228.964 1455.28 L220.654 1456.95 L220.654 1452.69 L228.917 1451.02 L233.593 1451.02 L233.593 1481.64 L241.232 1481.64 L241.232 1485.58 L221.325 1485.58 L221.325 1481.64 Z" fill="#000000" fill-rule="nonzero" fill-opacity="1" /><path clip-path="url(#clip150)" d="M247.922 1470.7 L260.399 1470.7 L260.399 1474.49 L247.922 1474.49 L247.922 1470.7 Z" fill="#000000" fill-rule="nonzero" fill-opacity="1" /><path clip-path="url(#clip150)" d="M277.783 1454.1 Q274.172 1454.1 272.343 1457.66 Q270.538 1461.2 270.538 1468.33 Q270.538 1475.44 272.343 1479.01 Q274.172 1482.55 277.783 1482.55 Q281.417 1482.55 283.223 1479.01 Q285.051 1475.44 285.051 1468.33 Q285.051 1461.2 283.223 1457.66 Q281.417 1454.1 277.783 1454.1 M277.783 1450.39 Q283.593 1450.39 286.649 1455 Q289.727 1459.58 289.727 1468.33 Q289.727 1477.06 286.649 1481.67 Q283.593 1486.25 277.783 1486.25 Q271.973 1486.25 268.894 1481.67 Q265.839 1477.06 265.839 1468.33 Q265.839 1459.58 268.894 1455 Q271.973 1450.39 277.783 1450.39 Z" fill="#000000" fill-rule="nonzero" fill-opacity="1" /><path clip-path="url(#clip150)" d="M298.755 1481.64 L306.394 1481.64 L306.394 1455.28 L298.084 1456.95 L298.084 1452.69 L306.348 1451.02 L311.023 1451.02 L311.023 1481.64 L318.662 1481.64 L318.662 1485.58 L298.755 1485.58 L298.755 1481.64 Z" fill="#000000" fill-rule="nonzero" fill-opacity="1" /><path clip-path="url(#clip150)" d="M325.352 1470.7 L337.829 1470.7 L337.829 1474.49 L325.352 1474.49 L325.352 1470.7 Z" fill="#000000" fill-rule="nonzero" fill-opacity="1" /><path clip-path="url(#clip150)" d="M355.213 1454.1 Q351.602 1454.1 349.773 1457.66 Q347.968 1461.2 347.968 1468.33 Q347.968 1475.44 349.773 1479.01 Q351.602 1482.55 355.213 1482.55 Q358.847 1482.55 360.653 1479.01 Q362.482 1475.44 362.482 1468.33 Q362.482 1461.2 360.653 1457.66 Q358.847 1454.1 355.213 1454.1 M355.213 1450.39 Q361.023 1450.39 364.079 1455 Q367.157 1459.58 367.157 1468.33 Q367.157 1477.06 364.079 1481.67 Q361.023 1486.25 355.213 1486.25 Q349.403 1486.25 346.324 1481.67 Q343.269 1477.06 343.269 1468.33 Q343.269 1459.58 346.324 1455 Q349.403 1450.39 355.213 1450.39 Z" fill="#000000" fill-rule="nonzero" fill-opacity="1" /><path clip-path="url(#clip150)" d="M376.185 1481.64 L383.824 1481.64 L383.824 1455.28 L375.514 1456.95 L375.514 1452.69 L383.778 1451.02 L388.454 1451.02 L388.454 1481.64 L396.092 1481.64 L396.092 1485.58 L376.185 1485.58 L376.185 1481.64 Z" fill="#000000" fill-rule="nonzero" fill-opacity="1" /><path clip-path="url(#clip150)" d="M649.567 1481.64 L665.886 1481.64 L665.886 1485.58 L643.942 1485.58 L643.942 1481.64 Q646.604 1478.89 651.187 1474.26 Q655.794 1469.61 656.974 1468.27 Q659.22 1465.74 660.099 1464.01 Q661.002 1462.25 661.002 1460.56 Q661.002 1457.8 659.058 1456.07 Q657.136 1454.33 654.035 1454.33 Q651.835 1454.33 649.382 1455.09 Q646.951 1455.86 644.173 1457.41 L644.173 1452.69 Q646.998 1451.55 649.451 1450.97 Q651.905 1450.39 653.942 1450.39 Q659.312 1450.39 662.507 1453.08 Q665.701 1455.77 665.701 1460.26 Q665.701 1462.39 664.891 1464.31 Q664.104 1466.2 661.997 1468.8 Q661.419 1469.47 658.317 1472.69 Q655.215 1475.88 649.567 1481.64 Z" fill="#000000" fill-rule="nonzero" fill-opacity="1" /><path clip-path="url(#clip150)" d="M685.701 1454.1 Q682.09 1454.1 680.261 1457.66 Q678.456 1461.2 678.456 1468.33 Q678.456 1475.44 680.261 1479.01 Q682.09 1482.55 685.701 1482.55 Q689.335 1482.55 691.141 1479.01 Q692.969 1475.44 692.969 1468.33 Q692.969 1461.2 691.141 1457.66 Q689.335 1454.1 685.701 1454.1 M685.701 1450.39 Q691.511 1450.39 694.567 1455 Q697.645 1459.58 697.645 1468.33 Q697.645 1477.06 694.567 1481.67 Q691.511 1486.25 685.701 1486.25 Q679.891 1486.25 676.812 1481.67 Q673.757 1477.06 673.757 1468.33 Q673.757 1459.58 676.812 1455 Q679.891 1450.39 685.701 1450.39 Z" fill="#000000" fill-rule="nonzero" fill-opacity="1" /><path clip-path="url(#clip150)" d="M709.891 1481.64 L726.21 1481.64 L726.21 1485.58 L704.266 1485.58 L704.266 1481.64 Q706.928 1478.89 711.511 1474.26 Q716.118 1469.61 717.298 1468.27 Q719.543 1465.74 720.423 1464.01 Q721.326 1462.25 721.326 1460.56 Q721.326 1457.8 719.381 1456.07 Q717.46 1454.33 714.358 1454.33 Q712.159 1454.33 709.706 1455.09 Q707.275 1455.86 704.497 1457.41 L704.497 1452.69 Q707.321 1451.55 709.775 1450.97 Q712.229 1450.39 714.266 1450.39 Q719.636 1450.39 722.83 1453.08 Q726.025 1455.77 726.025 1460.26 Q726.025 1462.39 725.215 1464.31 Q724.428 1466.2 722.321 1468.8 Q721.742 1469.47 718.641 1472.69 Q715.539 1475.88 709.891 1481.64 Z" fill="#000000" fill-rule="nonzero" fill-opacity="1" /><path clip-path="url(#clip150)" d="M736.835 1481.64 L744.474 1481.64 L744.474 1455.28 L736.164 1456.95 L736.164 1452.69 L744.428 1451.02 L749.103 1451.02 L749.103 1481.64 L756.742 1481.64 L756.742 1485.58 L736.835 1485.58 L736.835 1481.64 Z" fill="#000000" fill-rule="nonzero" fill-opacity="1" /><path clip-path="url(#clip150)" d="M763.432 1470.7 L775.909 1470.7 L775.909 1474.49 L763.432 1474.49 L763.432 1470.7 Z" fill="#000000" fill-rule="nonzero" fill-opacity="1" /><path clip-path="url(#clip150)" d="M793.293 1454.1 Q789.682 1454.1 787.853 1457.66 Q786.048 1461.2 786.048 1468.33 Q786.048 1475.44 787.853 1479.01 Q789.682 1482.55 793.293 1482.55 Q796.927 1482.55 798.733 1479.01 Q800.561 1475.44 800.561 1468.33 Q800.561 1461.2 798.733 1457.66 Q796.927 1454.1 793.293 1454.1 M793.293 1450.39 Q799.103 1450.39 802.159 1455 Q805.237 1459.58 805.237 1468.33 Q805.237 1477.06 802.159 1481.67 Q799.103 1486.25 793.293 1486.25 Q787.483 1486.25 784.404 1481.67 Q781.349 1477.06 781.349 1468.33 Q781.349 1459.58 784.404 1455 Q787.483 1450.39 793.293 1450.39 Z" fill="#000000" fill-rule="nonzero" fill-opacity="1" /><path clip-path="url(#clip150)" d="M826.302 1455.09 L814.497 1473.54 L826.302 1473.54 L826.302 1455.09 M825.075 1451.02 L830.955 1451.02 L830.955 1473.54 L835.885 1473.54 L835.885 1477.43 L830.955 1477.43 L830.955 1485.58 L826.302 1485.58 L826.302 1477.43 L810.7 1477.43 L810.7 1472.92 L825.075 1451.02 Z" fill="#000000" fill-rule="nonzero" fill-opacity="1" /><path clip-path="url(#clip150)" d="M840.862 1470.7 L853.339 1470.7 L853.339 1474.49 L840.862 1474.49 L840.862 1470.7 Z" fill="#000000" fill-rule="nonzero" fill-opacity="1" /><path clip-path="url(#clip150)" d="M870.723 1454.1 Q867.112 1454.1 865.283 1457.66 Q863.478 1461.2 863.478 1468.33 Q863.478 1475.44 865.283 1479.01 Q867.112 1482.55 870.723 1482.55 Q874.357 1482.55 876.163 1479.01 Q877.992 1475.44 877.992 1468.33 Q877.992 1461.2 876.163 1457.66 Q874.357 1454.1 870.723 1454.1 M870.723 1450.39 Q876.533 1450.39 879.589 1455 Q882.668 1459.58 882.668 1468.33 Q882.668 1477.06 879.589 1481.67 Q876.533 1486.25 870.723 1486.25 Q864.913 1486.25 861.834 1481.67 Q858.779 1477.06 858.779 1468.33 Q858.779 1459.58 861.834 1455 Q864.913 1450.39 870.723 1450.39 Z" fill="#000000" fill-rule="nonzero" fill-opacity="1" /><path clip-path="url(#clip150)" d="M891.695 1481.64 L899.334 1481.64 L899.334 1455.28 L891.024 1456.95 L891.024 1452.69 L899.288 1451.02 L903.964 1451.02 L903.964 1481.64 L911.603 1481.64 L911.603 1485.58 L891.695 1485.58 L891.695 1481.64 Z" fill="#000000" fill-rule="nonzero" fill-opacity="1" /><path clip-path="url(#clip150)" d="M1170.8 1481.64 L1187.12 1481.64 L1187.12 1485.58 L1165.18 1485.58 L1165.18 1481.64 Q1167.84 1478.89 1172.43 1474.26 Q1177.03 1469.61 1178.21 1468.27 Q1180.46 1465.74 1181.34 1464.01 Q1182.24 1462.25 1182.24 1460.56 Q1182.24 1457.8 1180.3 1456.07 Q1178.37 1454.33 1175.27 1454.33 Q1173.07 1454.33 1170.62 1455.09 Q1168.19 1455.86 1165.41 1457.41 L1165.41 1452.69 Q1168.24 1451.55 1170.69 1450.97 Q1173.14 1450.39 1175.18 1450.39 Q1180.55 1450.39 1183.74 1453.08 Q1186.94 1455.77 1186.94 1460.26 Q1186.94 1462.39 1186.13 1464.31 Q1185.34 1466.2 1183.24 1468.8 Q1182.66 1469.47 1179.55 1472.69 Q1176.45 1475.88 1170.8 1481.64 Z" fill="#000000" fill-rule="nonzero" fill-opacity="1" /><path clip-path="url(#clip150)" d="M1206.94 1454.1 Q1203.33 1454.1 1201.5 1457.66 Q1199.69 1461.2 1199.69 1468.33 Q1199.69 1475.44 1201.5 1479.01 Q1203.33 1482.55 1206.94 1482.55 Q1210.57 1482.55 1212.38 1479.01 Q1214.21 1475.44 1214.21 1468.33 Q1214.21 1461.2 1212.38 1457.66 Q1210.57 1454.1 1206.94 1454.1 M1206.94 1450.39 Q1212.75 1450.39 1215.8 1455 Q1218.88 1459.58 1218.88 1468.33 Q1218.88 1477.06 1215.8 1481.67 Q1212.75 1486.25 1206.94 1486.25 Q1201.13 1486.25 1198.05 1481.67 Q1194.99 1477.06 1194.99 1468.33 Q1194.99 1459.58 1198.05 1455 Q1201.13 1450.39 1206.94 1450.39 Z" fill="#000000" fill-rule="nonzero" fill-opacity="1" /><path clip-path="url(#clip150)" d="M1231.13 1481.64 L1247.45 1481.64 L1247.45 1485.58 L1225.5 1485.58 L1225.5 1481.64 Q1228.17 1478.89 1232.75 1474.26 Q1237.36 1469.61 1238.54 1468.27 Q1240.78 1465.74 1241.66 1464.01 Q1242.56 1462.25 1242.56 1460.56 Q1242.56 1457.8 1240.62 1456.07 Q1238.7 1454.33 1235.6 1454.33 Q1233.4 1454.33 1230.94 1455.09 Q1228.51 1455.86 1225.74 1457.41 L1225.74 1452.69 Q1228.56 1451.55 1231.01 1450.97 Q1233.47 1450.39 1235.5 1450.39 Q1240.87 1450.39 1244.07 1453.08 Q1247.26 1455.77 1247.26 1460.26 Q1247.26 1462.39 1246.45 1464.31 Q1245.67 1466.2 1243.56 1468.8 Q1242.98 1469.47 1239.88 1472.69 Q1236.78 1475.88 1231.13 1481.64 Z" fill="#000000" fill-rule="nonzero" fill-opacity="1" /><path clip-path="url(#clip150)" d="M1258.07 1481.64 L1265.71 1481.64 L1265.71 1455.28 L1257.4 1456.95 L1257.4 1452.69 L1265.67 1451.02 L1270.34 1451.02 L1270.34 1481.64 L1277.98 1481.64 L1277.98 1485.58 L1258.07 1485.58 L1258.07 1481.64 Z" fill="#000000" fill-rule="nonzero" fill-opacity="1" /><path clip-path="url(#clip150)" d="M1284.67 1470.7 L1297.15 1470.7 L1297.15 1474.49 L1284.67 1474.49 L1284.67 1470.7 Z" fill="#000000" fill-rule="nonzero" fill-opacity="1" /><path clip-path="url(#clip150)" d="M1314.53 1454.1 Q1310.92 1454.1 1309.09 1457.66 Q1307.29 1461.2 1307.29 1468.33 Q1307.29 1475.44 1309.09 1479.01 Q1310.92 1482.55 1314.53 1482.55 Q1318.17 1482.55 1319.97 1479.01 Q1321.8 1475.44 1321.8 1468.33 Q1321.8 1461.2 1319.97 1457.66 Q1318.17 1454.1 1314.53 1454.1 M1314.53 1450.39 Q1320.34 1450.39 1323.4 1455 Q1326.48 1459.58 1326.48 1468.33 Q1326.48 1477.06 1323.4 1481.67 Q1320.34 1486.25 1314.53 1486.25 Q1308.72 1486.25 1305.64 1481.67 Q1302.59 1477.06 1302.59 1468.33 Q1302.59 1459.58 1305.64 1455 Q1308.72 1450.39 1314.53 1450.39 Z" fill="#000000" fill-rule="nonzero" fill-opacity="1" /><path clip-path="url(#clip150)" d="M1333.51 1451.02 L1355.73 1451.02 L1355.73 1453.01 L1343.19 1485.58 L1338.3 1485.58 L1350.11 1454.96 L1333.51 1454.96 L1333.51 1451.02 Z" fill="#000000" fill-rule="nonzero" fill-opacity="1" /><path clip-path="url(#clip150)" d="M1362.1 1470.7 L1374.58 1470.7 L1374.58 1474.49 L1362.1 1474.49 L1362.1 1470.7 Z" fill="#000000" fill-rule="nonzero" fill-opacity="1" /><path clip-path="url(#clip150)" d="M1391.96 1454.1 Q1388.35 1454.1 1386.52 1457.66 Q1384.72 1461.2 1384.72 1468.33 Q1384.72 1475.44 1386.52 1479.01 Q1388.35 1482.55 1391.96 1482.55 Q1395.6 1482.55 1397.4 1479.01 Q1399.23 1475.44 1399.23 1468.33 Q1399.23 1461.2 1397.4 1457.66 Q1395.6 1454.1 1391.96 1454.1 M1391.96 1450.39 Q1397.77 1450.39 1400.83 1455 Q1403.91 1459.58 1403.91 1468.33 Q1403.91 1477.06 1400.83 1481.67 Q1397.77 1486.25 1391.96 1486.25 Q1386.15 1486.25 1383.07 1481.67 Q1380.02 1477.06 1380.02 1468.33 Q1380.02 1459.58 1383.07 1455 Q1386.15 1450.39 1391.96 1450.39 Z" fill="#000000" fill-rule="nonzero" fill-opacity="1" /><path clip-path="url(#clip150)" d="M1412.93 1481.64 L1420.57 1481.64 L1420.57 1455.28 L1412.26 1456.95 L1412.26 1452.69 L1420.53 1451.02 L1425.2 1451.02 L1425.2 1481.64 L1432.84 1481.64 L1432.84 1485.58 L1412.93 1485.58 L1412.93 1481.64 Z" fill="#000000" fill-rule="nonzero" fill-opacity="1" /><path clip-path="url(#clip150)" d="M1697.77 1481.64 L1714.09 1481.64 L1714.09 1485.58 L1692.15 1485.58 L1692.15 1481.64 Q1694.81 1478.89 1699.39 1474.26 Q1704 1469.61 1705.18 1468.27 Q1707.42 1465.74 1708.3 1464.01 Q1709.21 1462.25 1709.21 1460.56 Q1709.21 1457.8 1707.26 1456.07 Q1705.34 1454.33 1702.24 1454.33 Q1700.04 1454.33 1697.59 1455.09 Q1695.16 1455.86 1692.38 1457.41 L1692.38 1452.69 Q1695.2 1451.55 1697.66 1450.97 Q1700.11 1450.39 1702.15 1450.39 Q1707.52 1450.39 1710.71 1453.08 Q1713.91 1455.77 1713.91 1460.26 Q1713.91 1462.39 1713.09 1464.31 Q1712.31 1466.2 1710.2 1468.8 Q1709.62 1469.47 1706.52 1472.69 Q1703.42 1475.88 1697.77 1481.64 Z" fill="#000000" fill-rule="nonzero" fill-opacity="1" /><path clip-path="url(#clip150)" d="M1733.9 1454.1 Q1730.29 1454.1 1728.47 1457.66 Q1726.66 1461.2 1726.66 1468.33 Q1726.66 1475.44 1728.47 1479.01 Q1730.29 1482.55 1733.9 1482.55 Q1737.54 1482.55 1739.34 1479.01 Q1741.17 1475.44 1741.17 1468.33 Q1741.17 1461.2 1739.34 1457.66 Q1737.54 1454.1 1733.9 1454.1 M1733.9 1450.39 Q1739.72 1450.39 1742.77 1455 Q1745.85 1459.58 1745.85 1468.33 Q1745.85 1477.06 1742.77 1481.67 Q1739.72 1486.25 1733.9 1486.25 Q1728.09 1486.25 1725.02 1481.67 Q1721.96 1477.06 1721.96 1468.33 Q1721.96 1459.58 1725.02 1455 Q1728.09 1450.39 1733.9 1450.39 Z" fill="#000000" fill-rule="nonzero" fill-opacity="1" /><path clip-path="url(#clip150)" d="M1758.09 1481.64 L1774.41 1481.64 L1774.41 1485.58 L1752.47 1485.58 L1752.47 1481.64 Q1755.13 1478.89 1759.71 1474.26 Q1764.32 1469.61 1765.5 1468.27 Q1767.75 1465.74 1768.63 1464.01 Q1769.53 1462.25 1769.53 1460.56 Q1769.53 1457.8 1767.59 1456.07 Q1765.66 1454.33 1762.56 1454.33 Q1760.36 1454.33 1757.91 1455.09 Q1755.48 1455.86 1752.7 1457.41 L1752.7 1452.69 Q1755.53 1451.55 1757.98 1450.97 Q1760.43 1450.39 1762.47 1450.39 Q1767.84 1450.39 1771.03 1453.08 Q1774.23 1455.77 1774.23 1460.26 Q1774.23 1462.39 1773.42 1464.31 Q1772.63 1466.2 1770.53 1468.8 Q1769.95 1469.47 1766.84 1472.69 Q1763.74 1475.88 1758.09 1481.64 Z" fill="#000000" fill-rule="nonzero" fill-opacity="1" /><path clip-path="url(#clip150)" d="M1785.04 1481.64 L1792.68 1481.64 L1792.68 1455.28 L1784.37 1456.95 L1784.37 1452.69 L1792.63 1451.02 L1797.31 1451.02 L1797.31 1481.64 L1804.95 1481.64 L1804.95 1485.58 L1785.04 1485.58 L1785.04 1481.64 Z" fill="#000000" fill-rule="nonzero" fill-opacity="1" /><path clip-path="url(#clip150)" d="M1811.64 1470.7 L1824.11 1470.7 L1824.11 1474.49 L1811.64 1474.49 L1811.64 1470.7 Z" fill="#000000" fill-rule="nonzero" fill-opacity="1" /><path clip-path="url(#clip150)" d="M1832.31 1481.64 L1839.95 1481.64 L1839.95 1455.28 L1831.64 1456.95 L1831.64 1452.69 L1839.9 1451.02 L1844.58 1451.02 L1844.58 1481.64 L1852.21 1481.64 L1852.21 1485.58 L1832.31 1485.58 L1832.31 1481.64 Z" fill="#000000" fill-rule="nonzero" fill-opacity="1" /><path clip-path="url(#clip150)" d="M1871.66 1454.1 Q1868.05 1454.1 1866.22 1457.66 Q1864.41 1461.2 1864.41 1468.33 Q1864.41 1475.44 1866.22 1479.01 Q1868.05 1482.55 1871.66 1482.55 Q1875.29 1482.55 1877.1 1479.01 Q1878.93 1475.44 1878.93 1468.33 Q1878.93 1461.2 1877.1 1457.66 Q1875.29 1454.1 1871.66 1454.1 M1871.66 1450.39 Q1877.47 1450.39 1880.52 1455 Q1883.6 1459.58 1883.6 1468.33 Q1883.6 1477.06 1880.52 1481.67 Q1877.47 1486.25 1871.66 1486.25 Q1865.85 1486.25 1862.77 1481.67 Q1859.71 1477.06 1859.71 1468.33 Q1859.71 1459.58 1862.77 1455 Q1865.85 1450.39 1871.66 1450.39 Z" fill="#000000" fill-rule="nonzero" fill-opacity="1" /><path clip-path="url(#clip150)" d="M1889.07 1470.7 L1901.54 1470.7 L1901.54 1474.49 L1889.07 1474.49 L1889.07 1470.7 Z" fill="#000000" fill-rule="nonzero" fill-opacity="1" /><path clip-path="url(#clip150)" d="M1918.93 1454.1 Q1915.32 1454.1 1913.49 1457.66 Q1911.68 1461.2 1911.68 1468.33 Q1911.68 1475.44 1913.49 1479.01 Q1915.32 1482.55 1918.93 1482.55 Q1922.56 1482.55 1924.37 1479.01 Q1926.2 1475.44 1926.2 1468.33 Q1926.2 1461.2 1924.37 1457.66 Q1922.56 1454.1 1918.93 1454.1 M1918.93 1450.39 Q1924.74 1450.39 1927.79 1455 Q1930.87 1459.58 1930.87 1468.33 Q1930.87 1477.06 1927.79 1481.67 Q1924.74 1486.25 1918.93 1486.25 Q1913.12 1486.25 1910.04 1481.67 Q1906.98 1477.06 1906.98 1468.33 Q1906.98 1459.58 1910.04 1455 Q1913.12 1450.39 1918.93 1450.39 Z" fill="#000000" fill-rule="nonzero" fill-opacity="1" /><path clip-path="url(#clip150)" d="M1939.9 1481.64 L1947.54 1481.64 L1947.54 1455.28 L1939.23 1456.95 L1939.23 1452.69 L1947.49 1451.02 L1952.17 1451.02 L1952.17 1481.64 L1959.81 1481.64 L1959.81 1485.58 L1939.9 1485.58 L1939.9 1481.64 Z" fill="#000000" fill-rule="nonzero" fill-opacity="1" /><path clip-path="url(#clip150)" d="M1243.24 1537.81 L1243.24 1518.52 L1249.1 1518.52 L1249.1 1568.04 L1243.24 1568.04 L1243.24 1562.7 Q1241.4 1565.88 1238.56 1567.44 Q1235.76 1568.97 1231.81 1568.97 Q1225.35 1568.97 1221.28 1563.81 Q1217.24 1558.65 1217.24 1550.25 Q1217.24 1541.85 1221.28 1536.69 Q1225.35 1531.54 1231.81 1531.54 Q1235.76 1531.54 1238.56 1533.1 Q1241.4 1534.62 1243.24 1537.81 M1223.28 1550.25 Q1223.28 1556.71 1225.93 1560.4 Q1228.6 1564.07 1233.25 1564.07 Q1237.89 1564.07 1240.57 1560.4 Q1243.24 1556.71 1243.24 1550.25 Q1243.24 1543.79 1240.57 1540.13 Q1237.89 1536.44 1233.25 1536.44 Q1228.6 1536.44 1225.93 1540.13 Q1223.28 1543.79 1223.28 1550.25 Z" fill="#000000" fill-rule="nonzero" fill-opacity="1" /><path clip-path="url(#clip150)" d="M1277.36 1550.12 Q1270.26 1550.12 1267.53 1551.75 Q1264.79 1553.37 1264.79 1557.29 Q1264.79 1560.4 1266.83 1562.25 Q1268.9 1564.07 1272.43 1564.07 Q1277.3 1564.07 1280.23 1560.63 Q1283.19 1557.16 1283.19 1551.43 L1283.19 1550.12 L1277.36 1550.12 M1289.04 1547.71 L1289.04 1568.04 L1283.19 1568.04 L1283.19 1562.63 Q1281.18 1565.88 1278.19 1567.44 Q1275.2 1568.97 1270.87 1568.97 Q1265.39 1568.97 1262.15 1565.91 Q1258.93 1562.82 1258.93 1557.67 Q1258.93 1551.65 1262.94 1548.6 Q1266.99 1545.54 1274.97 1545.54 L1283.19 1545.54 L1283.19 1544.97 Q1283.19 1540.93 1280.51 1538.73 Q1277.87 1536.5 1273.06 1536.5 Q1270.01 1536.5 1267.11 1537.23 Q1264.22 1537.97 1261.54 1539.43 L1261.54 1534.02 Q1264.76 1532.78 1267.78 1532.17 Q1270.8 1531.54 1273.67 1531.54 Q1281.4 1531.54 1285.22 1535.55 Q1289.04 1539.56 1289.04 1547.71 Z" fill="#000000" fill-rule="nonzero" fill-opacity="1" /><path clip-path="url(#clip150)" d="M1306.9 1522.27 L1306.9 1532.4 L1318.96 1532.4 L1318.96 1536.95 L1306.9 1536.95 L1306.9 1556.3 Q1306.9 1560.66 1308.08 1561.9 Q1309.29 1563.14 1312.95 1563.14 L1318.96 1563.14 L1318.96 1568.04 L1312.95 1568.04 Q1306.17 1568.04 1303.59 1565.53 Q1301.01 1562.98 1301.01 1556.3 L1301.01 1536.95 L1296.71 1536.95 L1296.71 1532.4 L1301.01 1532.4 L1301.01 1522.27 L1306.9 1522.27 Z" fill="#000000" fill-rule="nonzero" fill-opacity="1" /><path clip-path="url(#clip150)" d="M1357.16 1548.76 L1357.16 1551.62 L1330.23 1551.62 Q1330.61 1557.67 1333.86 1560.85 Q1337.14 1564 1342.96 1564 Q1346.33 1564 1349.48 1563.17 Q1352.67 1562.35 1355.79 1560.69 L1355.79 1566.23 Q1352.64 1567.57 1349.33 1568.27 Q1346.02 1568.97 1342.61 1568.97 Q1334.08 1568.97 1329.08 1564 Q1324.12 1559.04 1324.12 1550.57 Q1324.12 1541.82 1328.83 1536.69 Q1333.57 1531.54 1341.59 1531.54 Q1348.78 1531.54 1352.95 1536.18 Q1357.16 1540.8 1357.16 1548.76 M1351.3 1547.04 Q1351.24 1542.23 1348.59 1539.37 Q1345.98 1536.5 1341.66 1536.5 Q1336.75 1536.5 1333.79 1539.27 Q1330.87 1542.04 1330.42 1547.07 L1351.3 1547.04 Z" fill="#000000" fill-rule="nonzero" fill-opacity="1" /><polyline clip-path="url(#clip152)" style="stroke:#000000; stroke-linecap:round; stroke-linejoin:round; stroke-width:2; stroke-opacity:0.1; fill:none" points="221.637,1378.58 2352.76,1378.58 "/>
<polyline clip-path="url(#clip152)" style="stroke:#000000; stroke-linecap:round; stroke-linejoin:round; stroke-width:2; stroke-opacity:0.1; fill:none" points="221.637,512.964 2352.76,512.964 "/>
<polyline clip-path="url(#clip152)" style="stroke:#000000; stroke-linecap:round; stroke-linejoin:round; stroke-width:2; stroke-opacity:0.05; fill:none" points="221.637,1418.19 2352.76,1418.19 "/>
<polyline clip-path="url(#clip152)" style="stroke:#000000; stroke-linecap:round; stroke-linejoin:round; stroke-width:2; stroke-opacity:0.05; fill:none" points="221.637,1118.01 2352.76,1118.01 "/>
<polyline clip-path="url(#clip152)" style="stroke:#000000; stroke-linecap:round; stroke-linejoin:round; stroke-width:2; stroke-opacity:0.05; fill:none" points="221.637,965.579 2352.76,965.579 "/>
<polyline clip-path="url(#clip152)" style="stroke:#000000; stroke-linecap:round; stroke-linejoin:round; stroke-width:2; stroke-opacity:0.05; fill:none" points="221.637,857.429 2352.76,857.429 "/>
<polyline clip-path="url(#clip152)" style="stroke:#000000; stroke-linecap:round; stroke-linejoin:round; stroke-width:2; stroke-opacity:0.05; fill:none" points="221.637,773.542 2352.76,773.542 "/>
<polyline clip-path="url(#clip152)" style="stroke:#000000; stroke-linecap:round; stroke-linejoin:round; stroke-width:2; stroke-opacity:0.05; fill:none" points="221.637,705.001 2352.76,705.001 "/>
<polyline clip-path="url(#clip152)" style="stroke:#000000; stroke-linecap:round; stroke-linejoin:round; stroke-width:2; stroke-opacity:0.05; fill:none" points="221.637,647.05 2352.76,647.05 "/>
<polyline clip-path="url(#clip152)" style="stroke:#000000; stroke-linecap:round; stroke-linejoin:round; stroke-width:2; stroke-opacity:0.05; fill:none" points="221.637,596.851 2352.76,596.851 "/>
<polyline clip-path="url(#clip152)" style="stroke:#000000; stroke-linecap:round; stroke-linejoin:round; stroke-width:2; stroke-opacity:0.05; fill:none" points="221.637,552.573 2352.76,552.573 "/>
<polyline clip-path="url(#clip152)" style="stroke:#000000; stroke-linecap:round; stroke-linejoin:round; stroke-width:2; stroke-opacity:0.05; fill:none" points="221.637,252.386 2352.76,252.386 "/>
<polyline clip-path="url(#clip152)" style="stroke:#000000; stroke-linecap:round; stroke-linejoin:round; stroke-width:2; stroke-opacity:0.05; fill:none" points="221.637,99.9577 2352.76,99.9577 "/>
<polyline clip-path="url(#clip150)" style="stroke:#000000; stroke-linecap:round; stroke-linejoin:round; stroke-width:4; stroke-opacity:1; fill:none" points="221.637,1423.18 221.637,47.2441 "/>
<polyline clip-path="url(#clip150)" style="stroke:#000000; stroke-linecap:round; stroke-linejoin:round; stroke-width:4; stroke-opacity:1; fill:none" points="221.637,1378.58 240.535,1378.58 "/>
<polyline clip-path="url(#clip150)" style="stroke:#000000; stroke-linecap:round; stroke-linejoin:round; stroke-width:4; stroke-opacity:1; fill:none" points="221.637,512.964 240.535,512.964 "/>
<polyline clip-path="url(#clip150)" style="stroke:#000000; stroke-linecap:round; stroke-linejoin:round; stroke-width:4; stroke-opacity:1; fill:none" points="221.637,1418.19 231.086,1418.19 "/>
<polyline clip-path="url(#clip150)" style="stroke:#000000; stroke-linecap:round; stroke-linejoin:round; stroke-width:4; stroke-opacity:1; fill:none" points="221.637,1118.01 231.086,1118.01 "/>
<polyline clip-path="url(#clip150)" style="stroke:#000000; stroke-linecap:round; stroke-linejoin:round; stroke-width:4; stroke-opacity:1; fill:none" points="221.637,965.579 231.086,965.579 "/>
<polyline clip-path="url(#clip150)" style="stroke:#000000; stroke-linecap:round; stroke-linejoin:round; stroke-width:4; stroke-opacity:1; fill:none" points="221.637,857.429 231.086,857.429 "/>
<polyline clip-path="url(#clip150)" style="stroke:#000000; stroke-linecap:round; stroke-linejoin:round; stroke-width:4; stroke-opacity:1; fill:none" points="221.637,773.542 231.086,773.542 "/>
<polyline clip-path="url(#clip150)" style="stroke:#000000; stroke-linecap:round; stroke-linejoin:round; stroke-width:4; stroke-opacity:1; fill:none" points="221.637,705.001 231.086,705.001 "/>
<polyline clip-path="url(#clip150)" style="stroke:#000000; stroke-linecap:round; stroke-linejoin:round; stroke-width:4; stroke-opacity:1; fill:none" points="221.637,647.05 231.086,647.05 "/>
<polyline clip-path="url(#clip150)" style="stroke:#000000; stroke-linecap:round; stroke-linejoin:round; stroke-width:4; stroke-opacity:1; fill:none" points="221.637,596.851 231.086,596.851 "/>
<polyline clip-path="url(#clip150)" style="stroke:#000000; stroke-linecap:round; stroke-linejoin:round; stroke-width:4; stroke-opacity:1; fill:none" points="221.637,552.573 231.086,552.573 "/>
<polyline clip-path="url(#clip150)" style="stroke:#000000; stroke-linecap:round; stroke-linejoin:round; stroke-width:4; stroke-opacity:1; fill:none" points="221.637,252.386 231.086,252.386 "/>
<polyline clip-path="url(#clip150)" style="stroke:#000000; stroke-linecap:round; stroke-linejoin:round; stroke-width:4; stroke-opacity:1; fill:none" points="221.637,99.9577 231.086,99.9577 "/>
<path clip-path="url(#clip150)" d="M114.931 1398.38 L122.57 1398.38 L122.57 1372.01 L114.26 1373.68 L114.26 1369.42 L122.524 1367.75 L127.2 1367.75 L127.2 1398.38 L134.839 1398.38 L134.839 1402.31 L114.931 1402.31 L114.931 1398.38 Z" fill="#000000" fill-rule="nonzero" fill-opacity="1" /><path clip-path="url(#clip150)" d="M154.283 1370.83 Q150.672 1370.83 148.843 1374.4 Q147.038 1377.94 147.038 1385.07 Q147.038 1392.17 148.843 1395.74 Q150.672 1399.28 154.283 1399.28 Q157.917 1399.28 159.723 1395.74 Q161.552 1392.17 161.552 1385.07 Q161.552 1377.94 159.723 1374.4 Q157.917 1370.83 154.283 1370.83 M154.283 1367.13 Q160.093 1367.13 163.149 1371.73 Q166.227 1376.32 166.227 1385.07 Q166.227 1393.79 163.149 1398.4 Q160.093 1402.98 154.283 1402.98 Q148.473 1402.98 145.394 1398.4 Q142.339 1393.79 142.339 1385.07 Q142.339 1376.32 145.394 1371.73 Q148.473 1367.13 154.283 1367.13 Z" fill="#000000" fill-rule="nonzero" fill-opacity="1" /><path clip-path="url(#clip150)" d="M175.932 1349.32 Q172.998 1349.32 171.512 1352.22 Q170.045 1355.1 170.045 1360.89 Q170.045 1366.66 171.512 1369.56 Q172.998 1372.44 175.932 1372.44 Q178.885 1372.44 180.352 1369.56 Q181.838 1366.66 181.838 1360.89 Q181.838 1355.1 180.352 1352.22 Q178.885 1349.32 175.932 1349.32 M175.932 1346.31 Q180.653 1346.31 183.136 1350.06 Q185.637 1353.78 185.637 1360.89 Q185.637 1367.98 183.136 1371.72 Q180.653 1375.45 175.932 1375.45 Q171.212 1375.45 168.71 1371.72 Q166.227 1367.98 166.227 1360.89 Q166.227 1353.78 168.71 1350.06 Q171.212 1346.31 175.932 1346.31 Z" fill="#000000" fill-rule="nonzero" fill-opacity="1" /><path clip-path="url(#clip150)" d="M117.621 532.756 L125.26 532.756 L125.26 506.391 L116.95 508.057 L116.95 503.798 L125.214 502.132 L129.889 502.132 L129.889 532.756 L137.528 532.756 L137.528 536.692 L117.621 536.692 L117.621 532.756 Z" fill="#000000" fill-rule="nonzero" fill-opacity="1" /><path clip-path="url(#clip150)" d="M156.973 505.21 Q153.362 505.21 151.533 508.775 Q149.727 512.317 149.727 519.446 Q149.727 526.553 151.533 530.117 Q153.362 533.659 156.973 533.659 Q160.607 533.659 162.412 530.117 Q164.241 526.553 164.241 519.446 Q164.241 512.317 162.412 508.775 Q160.607 505.21 156.973 505.21 M156.973 501.507 Q162.783 501.507 165.838 506.113 Q168.917 510.696 168.917 519.446 Q168.917 528.173 165.838 532.779 Q162.783 537.363 156.973 537.363 Q151.162 537.363 148.084 532.779 Q145.028 528.173 145.028 519.446 Q145.028 510.696 148.084 506.113 Q151.162 501.507 156.973 501.507 Z" fill="#000000" fill-rule="nonzero" fill-opacity="1" /><path clip-path="url(#clip150)" d="M169.462 506.084 L175.669 506.084 L175.669 484.662 L168.917 486.016 L168.917 482.555 L175.631 481.201 L179.431 481.201 L179.431 506.084 L185.637 506.084 L185.637 509.281 L169.462 509.281 L169.462 506.084 Z" fill="#000000" fill-rule="nonzero" fill-opacity="1" /><path clip-path="url(#clip150)" d="M46.0847 888.244 Q46.0847 895.341 47.7079 898.079 Q49.3312 900.816 53.2461 900.816 Q56.3653 900.816 58.2114 898.779 Q60.0256 896.71 60.0256 893.177 Q60.0256 888.307 56.5881 885.379 Q53.1188 882.419 47.3897 882.419 L46.0847 882.419 L46.0847 888.244 M43.6657 876.562 L64.0042 876.562 L64.0042 882.419 L58.5933 882.419 Q61.8398 884.424 63.3994 887.416 Q64.9272 890.408 64.9272 894.737 Q64.9272 900.211 61.8716 903.458 Q58.7843 906.672 53.6281 906.672 Q47.6125 906.672 44.5569 902.662 Q41.5014 898.62 41.5014 890.631 L41.5014 882.419 L40.9285 882.419 Q36.8862 882.419 34.6901 885.093 Q32.4621 887.734 32.4621 892.54 Q32.4621 895.596 33.1941 898.492 Q33.9262 901.389 35.3903 904.062 L29.9795 904.062 Q28.7381 900.848 28.1334 897.824 Q27.4968 894.8 27.4968 891.936 Q27.4968 884.201 31.5072 880.382 Q35.5176 876.562 43.6657 876.562 Z" fill="#000000" fill-rule="nonzero" fill-opacity="1" /><path clip-path="url(#clip150)" d="M29.7248 838.846 L35.1993 838.846 Q33.8307 841.328 33.1623 843.843 Q32.4621 846.325 32.4621 848.872 Q32.4621 854.569 36.0905 857.72 Q39.6872 860.871 46.212 860.871 Q52.7369 860.871 56.3653 857.72 Q59.9619 854.569 59.9619 848.872 Q59.9619 846.325 59.2935 843.843 Q58.5933 841.328 57.2247 838.846 L62.6355 838.846 Q63.7814 841.296 64.3543 843.938 Q64.9272 846.548 64.9272 849.508 Q64.9272 857.561 59.8664 862.303 Q54.8057 867.046 46.212 867.046 Q37.491 867.046 32.4939 862.271 Q27.4968 857.465 27.4968 849.126 Q27.4968 846.421 28.0697 843.843 Q28.6108 841.265 29.7248 838.846 Z" fill="#000000" fill-rule="nonzero" fill-opacity="1" /><path clip-path="url(#clip150)" d="M29.7248 803.007 L35.1993 803.007 Q33.8307 805.489 33.1623 808.004 Q32.4621 810.486 32.4621 813.033 Q32.4621 818.73 36.0905 821.881 Q39.6872 825.032 46.212 825.032 Q52.7369 825.032 56.3653 821.881 Q59.9619 818.73 59.9619 813.033 Q59.9619 810.486 59.2935 808.004 Q58.5933 805.489 57.2247 803.007 L62.6355 803.007 Q63.7814 805.458 64.3543 808.099 Q64.9272 810.709 64.9272 813.669 Q64.9272 821.722 59.8664 826.464 Q54.8057 831.207 46.212 831.207 Q37.491 831.207 32.4939 826.433 Q27.4968 821.626 27.4968 813.287 Q27.4968 810.582 28.0697 808.004 Q28.6108 805.426 29.7248 803.007 Z" fill="#000000" fill-rule="nonzero" fill-opacity="1" /><path clip-path="url(#clip150)" d="M55.9197 791.994 L55.9197 785.278 L64.0042 785.278 L64.0042 791.994 L55.9197 791.994 Z" fill="#000000" fill-rule="nonzero" fill-opacity="1" /><path clip-path="url(#clip150)" d="M33.8307 730.724 Q33.2578 731.711 33.0032 732.888 Q32.7167 734.034 32.7167 735.435 Q32.7167 740.4 35.9632 743.074 Q39.1779 745.715 45.2253 745.715 L64.0042 745.715 L64.0042 751.604 L28.3562 751.604 L28.3562 745.715 L33.8944 745.715 Q30.6479 743.869 29.0883 740.909 Q27.4968 737.949 27.4968 733.716 Q27.4968 733.111 27.5923 732.379 Q27.656 731.647 27.8151 730.756 L33.8307 730.724 Z" fill="#000000" fill-rule="nonzero" fill-opacity="1" /><path clip-path="url(#clip150)" d="M44.7161 695.522 L47.5806 695.522 L47.5806 722.449 Q53.6281 722.067 56.8109 718.82 Q59.9619 715.542 59.9619 709.717 Q59.9619 706.343 59.1344 703.192 Q58.3069 700.01 56.6518 696.89 L62.1899 696.89 Q63.5267 700.041 64.227 703.352 Q64.9272 706.662 64.9272 710.067 Q64.9272 718.597 59.9619 723.595 Q54.9967 728.56 46.5303 728.56 Q37.7774 728.56 32.6531 723.849 Q27.4968 719.107 27.4968 711.086 Q27.4968 703.893 32.1438 699.723 Q36.7589 695.522 44.7161 695.522 M42.9973 701.378 Q38.1912 701.442 35.3266 704.084 Q32.4621 706.694 32.4621 711.022 Q32.4621 715.924 35.2312 718.884 Q38.0002 721.812 43.0292 722.258 L42.9973 701.378 Z" fill="#000000" fill-rule="nonzero" fill-opacity="1" /><path clip-path="url(#clip150)" d="M18.2347 680.117 L28.3562 680.117 L28.3562 668.054 L32.9077 668.054 L32.9077 680.117 L52.2594 680.117 Q56.6199 680.117 57.8613 678.939 Q59.1026 677.73 59.1026 674.069 L59.1026 668.054 L64.0042 668.054 L64.0042 674.069 Q64.0042 680.849 61.4897 683.427 Q58.9434 686.005 52.2594 686.005 L32.9077 686.005 L32.9077 690.302 L28.3562 690.302 L28.3562 686.005 L18.2347 686.005 L18.2347 680.117 Z" fill="#000000" fill-rule="nonzero" fill-opacity="1" /><path clip-path="url(#clip150)" d="M49.9359 660.956 L28.3562 660.956 L28.3562 655.1 L49.7131 655.1 Q54.7739 655.1 57.3202 653.126 Q59.8346 651.153 59.8346 647.206 Q59.8346 642.464 56.8109 639.726 Q53.7872 636.957 48.5673 636.957 L28.3562 636.957 L28.3562 631.101 L64.0042 631.101 L64.0042 636.957 L58.5296 636.957 Q61.7762 639.09 63.3676 641.923 Q64.9272 644.723 64.9272 648.447 Q64.9272 654.59 61.1078 657.773 Q57.2883 660.956 49.9359 660.956 M27.4968 646.219 L27.4968 646.219 Z" fill="#000000" fill-rule="nonzero" fill-opacity="1" /><path clip-path="url(#clip150)" d="M33.8307 598.381 Q33.2578 599.368 33.0032 600.545 Q32.7167 601.691 32.7167 603.092 Q32.7167 608.057 35.9632 610.731 Q39.1779 613.372 45.2253 613.372 L64.0042 613.372 L64.0042 619.261 L28.3562 619.261 L28.3562 613.372 L33.8944 613.372 Q30.6479 611.526 29.0883 608.566 Q27.4968 605.606 27.4968 601.373 Q27.4968 600.768 27.5923 600.036 Q27.656 599.304 27.8151 598.413 L33.8307 598.381 Z" fill="#000000" fill-rule="nonzero" fill-opacity="1" /><path clip-path="url(#clip150)" d="M42.4881 563.752 L64.0042 563.752 L64.0042 569.608 L42.679 569.608 Q37.6183 569.608 35.1038 571.581 Q32.5894 573.555 32.5894 577.502 Q32.5894 582.244 35.6131 584.981 Q38.6368 587.719 43.8567 587.719 L64.0042 587.719 L64.0042 593.607 L28.3562 593.607 L28.3562 587.719 L33.8944 587.719 Q30.6797 585.618 29.0883 582.785 Q27.4968 579.921 27.4968 576.197 Q27.4968 570.054 31.3163 566.903 Q35.1038 563.752 42.4881 563.752 Z" fill="#000000" fill-rule="nonzero" fill-opacity="1" /><polyline clip-path="url(#clip152)" style="stroke:#009af9; stroke-linecap:round; stroke-linejoin:round; stroke-width:12; stroke-opacity:1; fill:none" points="281.952,1378.58 287.68,1384.24 293.408,1378.58 299.135,1371.18 304.863,1355.02 322.047,1344.63 327.775,1329.56 333.503,1348.06 339.231,1348.06 344.959,1323.05 367.87,1220.59 373.598,1231.81 379.326,1230.55 385.054,1169.01 402.237,1082.35 407.965,1039.01 413.693,516.723 419.421,830.807 425.149,669.341 442.333,668.208 448.061,867.859 453.788,816.281 459.516,904.701 465.244,918.746 482.428,956.342 488.156,1000.16 493.884,980.199 499.612,992.72 505.339,994.062 528.251,990.049 533.979,996.762 539.707,999.481 545.435,986.737 562.618,934.482 568.346,873.673 574.074,811.285 579.802,845.918 585.53,858.835 602.714,807.581 608.442,817.961 614.169,832.992 619.897,857.897 625.625,856.962 642.809,803.103 648.537,757.075 654.265,781.099 659.993,765.035 665.72,734.158 682.665,647.853 688.393,676.207 694.121,660.93 699.849,648.925 705.577,650.81 722.761,691.83 728.489,751.39 734.216,814.191 739.944,741.643 745.672,766.501 762.856,762.484 768.584,762.484 774.312,767.604 780.04,800.281 802.951,753.157 808.679,767.972 814.407,781.099 820.135,783.396 825.863,797.879 843.046,831.243 848.774,821.769 854.502,800.683 860.23,779.195 865.958,801.488 883.142,788.421 888.869,803.508 894.597,783.78 900.325,775.793 906.053,769.449 923.237,722.875 928.965,724.185 934.693,744.748 940.42,767.972 946.148,774.291 963.332,786.48 969.06,799.078 974.788,807.991 980.516,815.025 986.244,794.304 1003.43,785.32 1009.16,773.542 1014.88,763.575 1020.61,683.496 1026.34,677.364 1043.52,650.27 1049.25,648.121 1054.98,687.342 1060.71,690.029 1066.43,704.378 1083.62,657.618 1089.35,589.214 1095.07,523.202 1100.8,408.763 1106.53,414.476 1129.44,337.679 1135.17,86.1857 1140.9,160.431 1146.62,186.426 1163.81,134.543 1169.54,134.202 1175.26,175.369 1180.99,228.738 1186.72,174.912 1203.9,121.116 1209.63,107.896 1215.36,133.315 1221.09,97.2864 1226.81,106.498 1244,129.856 1249.73,112.831 1255.45,112.638 1261.18,123.099 1266.91,141.024 1284.09,113.865 1289.82,124.894 1295.55,123.232 1301.28,139.913 1307.01,155.919 1329.92,170.675 1335.64,209.398 1341.37,186.19 1347.1,200.17 1364.28,230.498 1370.01,260.42 1375.74,321.713 1381.47,293.87 1387.2,304.89 1404.38,308.564 1410.11,226.287 1415.84,247.001 1421.56,281.139 1427.29,283.671 1444.47,251.545 1450.2,273.445 1455.93,264.744 1461.66,272.26 1467.39,283.366 1484.57,302.318 1490.3,319.918 1496.03,364.421 1501.75,320.815 1507.48,330.013 1524.67,317.575 1530.39,341.097 1536.12,343.472 1541.85,325.784 1547.58,321.264 1564.76,297.121 1570.49,281.947 1576.22,288.17 1581.94,317.353 1587.67,310.851 1604.86,285.811 1610.58,216.216 1616.31,218.773 1622.04,251.359 1627.77,246.448 1644.95,224.199 1650.68,192.596 1656.41,221.089 1662.13,215.198 1667.86,218.26 1690.77,187.054 1696.5,190.449 1702.23,181.669 1707.96,169.173 1725.14,157.877 1730.87,191.243 1736.6,194.917 1742.33,201.393 1748.05,216.726 1765.24,251.545 1770.96,265.518 1776.69,253.51 1782.42,254.449 1788.15,254.167 1805.33,260.898 1811.06,283.671 1816.79,298.704 1822.52,272.951 1828.24,269.02 1845.43,285.914 1851.16,282.96 1856.88,285.301 1862.61,272.161 1868.34,281.644 1885.52,281.038 1891.25,285.403 1896.98,274.435 1902.71,253.604 1908.43,247.37 1925.62,226.811 1931.35,246.817 1937.07,246.08 1942.8,261.472 1948.53,287.656 1965.71,285.301 1971.44,293.348 1977.17,307.047 1982.9,301.998 1988.62,300.507 2005.81,282.859 2011.54,265.809 2017.26,246.909 2022.99,253.791 2028.72,238.614 2046.14,209.481 2051.87,254.919 2057.6,270.686 2063.33,259.371 2069.05,254.261 2086.24,229.881 2091.97,230.587 2097.69,234.757 2103.42,250.427 2109.15,246.172 2126.33,242.784 2132.06,262.24 2137.79,264.841 2149.24,277.222 2166.43,285.199 2172.16,316.021 2177.88,380.771 2183.61,358.918 2189.34,375.026 2206.52,377.888 2212.25,349.599 2217.98,334.059 2223.71,369.239 2229.43,395.942 2246.62,458.395 2252.35,438.546 2258.07,436.099 2263.8,439.314 2269.53,373.603 2286.71,366.189 2292.44,358.67 "/>
<path clip-path="url(#clip150)" d="M1851.69 196.789 L2281.72 196.789 L2281.72 93.1086 L1851.69 93.1086  Z" fill="#ffffff" fill-rule="evenodd" fill-opacity="1"/>
<polyline clip-path="url(#clip150)" style="stroke:#000000; stroke-linecap:round; stroke-linejoin:round; stroke-width:4; stroke-opacity:1; fill:none" points="1851.69,196.789 2281.72,196.789 2281.72,93.1086 1851.69,93.1086 1851.69,196.789 "/>
<polyline clip-path="url(#clip150)" style="stroke:#009af9; stroke-linecap:round; stroke-linejoin:round; stroke-width:12; stroke-opacity:1; fill:none" points="1875.37,144.949 2017.44,144.949 "/>
<path clip-path="url(#clip150)" d="M2041.12 127.669 L2047.42 127.669 L2062.74 156.581 L2062.74 127.669 L2067.28 127.669 L2067.28 162.229 L2060.98 162.229 L2045.66 133.317 L2045.66 162.229 L2041.12 162.229 L2041.12 127.669 Z" fill="#000000" fill-rule="nonzero" fill-opacity="1" /><path clip-path="url(#clip150)" d="M2071.84 127.669 L2076.86 127.669 L2086.44 141.882 L2095.96 127.669 L2100.98 127.669 L2088.76 145.77 L2088.76 162.229 L2084.06 162.229 L2084.06 145.77 L2071.84 127.669 Z" fill="#000000" fill-rule="nonzero" fill-opacity="1" /><path clip-path="url(#clip150)" d="M2119.57 130.84 Q2114.48 130.84 2111.47 134.636 Q2108.48 138.432 2108.48 144.983 Q2108.48 151.511 2111.47 155.307 Q2114.48 159.104 2119.57 159.104 Q2124.66 159.104 2127.62 155.307 Q2130.61 151.511 2130.61 144.983 Q2130.61 138.432 2127.62 134.636 Q2124.66 130.84 2119.57 130.84 M2126.12 161.604 L2132.28 168.34 L2126.63 168.34 L2121.51 162.807 Q2120.75 162.854 2120.33 162.877 Q2119.94 162.9 2119.57 162.9 Q2112.28 162.9 2107.9 158.039 Q2103.55 153.155 2103.55 144.983 Q2103.55 136.789 2107.9 131.928 Q2112.28 127.044 2119.57 127.044 Q2126.84 127.044 2131.19 131.928 Q2135.54 136.789 2135.54 144.983 Q2135.54 151.002 2133.11 155.284 Q2130.7 159.567 2126.12 161.604 Z" fill="#000000" fill-rule="nonzero" fill-opacity="1" /><path clip-path="url(#clip150)" d="M2150.24 127.669 L2154.17 127.669 L2142.14 166.627 L2138.2 166.627 L2150.24 127.669 Z" fill="#000000" fill-rule="nonzero" fill-opacity="1" /><path clip-path="url(#clip150)" d="M2170.38 132.275 L2164.04 149.474 L2176.74 149.474 L2170.38 132.275 M2167.74 127.669 L2173.04 127.669 L2186.21 162.229 L2181.35 162.229 L2178.2 153.363 L2162.62 153.363 L2159.48 162.229 L2154.54 162.229 L2167.74 127.669 Z" fill="#000000" fill-rule="nonzero" fill-opacity="1" /><path clip-path="url(#clip150)" d="M2191.26 127.669 L2198.23 127.669 L2207.04 151.187 L2215.91 127.669 L2222.88 127.669 L2222.88 162.229 L2218.32 162.229 L2218.32 131.882 L2209.41 155.585 L2204.71 155.585 L2195.79 131.882 L2195.79 162.229 L2191.26 162.229 L2191.26 127.669 Z" fill="#000000" fill-rule="nonzero" fill-opacity="1" /><path clip-path="url(#clip150)" d="M2258.04 130.331 L2258.04 135.261 Q2255.68 133.062 2252.99 131.974 Q2250.33 130.886 2247.32 130.886 Q2241.4 130.886 2238.25 134.52 Q2235.1 138.132 2235.1 144.983 Q2235.1 151.812 2238.25 155.446 Q2241.4 159.057 2247.32 159.057 Q2250.33 159.057 2252.99 157.969 Q2255.68 156.881 2258.04 154.682 L2258.04 159.567 Q2255.59 161.233 2252.83 162.067 Q2250.1 162.9 2247.04 162.9 Q2239.2 162.9 2234.68 158.108 Q2230.17 153.293 2230.17 144.983 Q2230.17 136.65 2234.68 131.858 Q2239.2 127.044 2247.04 127.044 Q2250.15 127.044 2252.88 127.877 Q2255.63 128.687 2258.04 130.331 Z" fill="#000000" fill-rule="nonzero" fill-opacity="1" /></svg>
