<?xml version="1.0" encoding="utf-8"?>
<svg xmlns="http://www.w3.org/2000/svg" xmlns:xlink="http://www.w3.org/1999/xlink" width="600" height="400" viewBox="0 0 2400 1600">
<defs>
  <clipPath id="clip710">
    <rect x="0" y="0" width="2400" height="1600"/>
  </clipPath>
</defs>
<path clip-path="url(#clip710)" d="M0 1600 L2400 1600 L2400 0 L0 0  Z" fill="#ffffff" fill-rule="evenodd" fill-opacity="1"/>
<defs>
  <clipPath id="clip711">
    <rect x="480" y="0" width="1681" height="1600"/>
  </clipPath>
</defs>
<path clip-path="url(#clip710)" d="M280.19 1423.18 L2352.76 1423.18 L2352.76 123.472 L280.19 123.472  Z" fill="#ffffff" fill-rule="evenodd" fill-opacity="1"/>
<defs>
  <clipPath id="clip712">
    <rect x="280" y="123" width="2074" height="1301"/>
  </clipPath>
</defs>
<polyline clip-path="url(#clip712)" style="stroke:#000000; stroke-linecap:round; stroke-linejoin:round; stroke-width:2; stroke-opacity:0.1; fill:none" points="548.339,1423.18 548.339,123.472 "/>
<polyline clip-path="url(#clip712)" style="stroke:#000000; stroke-linecap:round; stroke-linejoin:round; stroke-width:2; stroke-opacity:0.1; fill:none" points="897.491,1423.18 897.491,123.472 "/>
<polyline clip-path="url(#clip712)" style="stroke:#000000; stroke-linecap:round; stroke-linejoin:round; stroke-width:2; stroke-opacity:0.1; fill:none" points="1246.64,1423.18 1246.64,123.472 "/>
<polyline clip-path="url(#clip712)" style="stroke:#000000; stroke-linecap:round; stroke-linejoin:round; stroke-width:2; stroke-opacity:0.1; fill:none" points="1595.79,1423.18 1595.79,123.472 "/>
<polyline clip-path="url(#clip712)" style="stroke:#000000; stroke-linecap:round; stroke-linejoin:round; stroke-width:2; stroke-opacity:0.1; fill:none" points="1944.95,1423.18 1944.95,123.472 "/>
<polyline clip-path="url(#clip712)" style="stroke:#000000; stroke-linecap:round; stroke-linejoin:round; stroke-width:2; stroke-opacity:0.1; fill:none" points="2294.1,1423.18 2294.1,123.472 "/>
<polyline clip-path="url(#clip710)" style="stroke:#000000; stroke-linecap:round; stroke-linejoin:round; stroke-width:4; stroke-opacity:1; fill:none" points="280.19,1423.18 2352.76,1423.18 "/>
<polyline clip-path="url(#clip710)" style="stroke:#000000; stroke-linecap:round; stroke-linejoin:round; stroke-width:4; stroke-opacity:1; fill:none" points="548.339,1423.18 548.339,1404.28 "/>
<polyline clip-path="url(#clip710)" style="stroke:#000000; stroke-linecap:round; stroke-linejoin:round; stroke-width:4; stroke-opacity:1; fill:none" points="897.491,1423.18 897.491,1404.28 "/>
<polyline clip-path="url(#clip710)" style="stroke:#000000; stroke-linecap:round; stroke-linejoin:round; stroke-width:4; stroke-opacity:1; fill:none" points="1246.64,1423.18 1246.64,1404.28 "/>
<polyline clip-path="url(#clip710)" style="stroke:#000000; stroke-linecap:round; stroke-linejoin:round; stroke-width:4; stroke-opacity:1; fill:none" points="1595.79,1423.18 1595.79,1404.28 "/>
<polyline clip-path="url(#clip710)" style="stroke:#000000; stroke-linecap:round; stroke-linejoin:round; stroke-width:4; stroke-opacity:1; fill:none" points="1944.95,1423.18 1944.95,1404.28 "/>
<polyline clip-path="url(#clip710)" style="stroke:#000000; stroke-linecap:round; stroke-linejoin:round; stroke-width:4; stroke-opacity:1; fill:none" points="2294.1,1423.18 2294.1,1404.28 "/>
<path clip-path="url(#clip710)" d="M538.617 1451.02 L556.973 1451.02 L556.973 1454.96 L542.899 1454.96 L542.899 1463.43 Q543.917 1463.08 544.936 1462.92 Q545.954 1462.73 546.973 1462.73 Q552.76 1462.73 556.14 1465.9 Q559.519 1469.08 559.519 1474.49 Q559.519 1480.07 556.047 1483.17 Q552.575 1486.25 546.255 1486.25 Q544.079 1486.25 541.811 1485.88 Q539.566 1485.51 537.158 1484.77 L537.158 1480.07 Q539.242 1481.2 541.464 1481.76 Q543.686 1482.32 546.163 1482.32 Q550.167 1482.32 552.505 1480.21 Q554.843 1478.1 554.843 1474.49 Q554.843 1470.88 552.505 1468.77 Q550.167 1466.67 546.163 1466.67 Q544.288 1466.67 542.413 1467.08 Q540.561 1467.5 538.617 1468.38 L538.617 1451.02 Z" fill="#000000" fill-rule="nonzero" fill-opacity="1" /><path clip-path="url(#clip710)" d="M872.178 1481.64 L879.817 1481.64 L879.817 1455.28 L871.507 1456.95 L871.507 1452.69 L879.771 1451.02 L884.447 1451.02 L884.447 1481.64 L892.086 1481.64 L892.086 1485.58 L872.178 1485.58 L872.178 1481.64 Z" fill="#000000" fill-rule="nonzero" fill-opacity="1" /><path clip-path="url(#clip710)" d="M911.53 1454.1 Q907.919 1454.1 906.09 1457.66 Q904.285 1461.2 904.285 1468.33 Q904.285 1475.44 906.09 1479.01 Q907.919 1482.55 911.53 1482.55 Q915.164 1482.55 916.97 1479.01 Q918.798 1475.44 918.798 1468.33 Q918.798 1461.2 916.97 1457.66 Q915.164 1454.1 911.53 1454.1 M911.53 1450.39 Q917.34 1450.39 920.396 1455 Q923.474 1459.58 923.474 1468.33 Q923.474 1477.06 920.396 1481.67 Q917.34 1486.25 911.53 1486.25 Q905.72 1486.25 902.641 1481.67 Q899.586 1477.06 899.586 1468.33 Q899.586 1459.58 902.641 1455 Q905.72 1450.39 911.53 1450.39 Z" fill="#000000" fill-rule="nonzero" fill-opacity="1" /><path clip-path="url(#clip710)" d="M1221.83 1481.64 L1229.47 1481.64 L1229.47 1455.28 L1221.16 1456.95 L1221.16 1452.69 L1229.42 1451.02 L1234.1 1451.02 L1234.1 1481.64 L1241.74 1481.64 L1241.74 1485.58 L1221.83 1485.58 L1221.83 1481.64 Z" fill="#000000" fill-rule="nonzero" fill-opacity="1" /><path clip-path="url(#clip710)" d="M1251.23 1451.02 L1269.58 1451.02 L1269.58 1454.96 L1255.51 1454.96 L1255.51 1463.43 Q1256.53 1463.08 1257.55 1462.92 Q1258.56 1462.73 1259.58 1462.73 Q1265.37 1462.73 1268.75 1465.9 Q1272.13 1469.08 1272.13 1474.49 Q1272.13 1480.07 1268.66 1483.17 Q1265.18 1486.25 1258.86 1486.25 Q1256.69 1486.25 1254.42 1485.88 Q1252.17 1485.51 1249.77 1484.77 L1249.77 1480.07 Q1251.85 1481.2 1254.07 1481.76 Q1256.3 1482.32 1258.77 1482.32 Q1262.78 1482.32 1265.11 1480.21 Q1267.45 1478.1 1267.45 1474.49 Q1267.45 1470.88 1265.11 1468.77 Q1262.78 1466.67 1258.77 1466.67 Q1256.9 1466.67 1255.02 1467.08 Q1253.17 1467.5 1251.23 1468.38 L1251.23 1451.02 Z" fill="#000000" fill-rule="nonzero" fill-opacity="1" /><path clip-path="url(#clip710)" d="M1574.57 1481.64 L1590.89 1481.64 L1590.89 1485.58 L1568.94 1485.58 L1568.94 1481.64 Q1571.6 1478.89 1576.19 1474.26 Q1580.79 1469.61 1581.98 1468.27 Q1584.22 1465.74 1585.1 1464.01 Q1586 1462.25 1586 1460.56 Q1586 1457.8 1584.06 1456.07 Q1582.14 1454.33 1579.04 1454.33 Q1576.84 1454.33 1574.38 1455.09 Q1571.95 1455.86 1569.17 1457.41 L1569.17 1452.69 Q1572 1451.55 1574.45 1450.97 Q1576.91 1450.39 1578.94 1450.39 Q1584.31 1450.39 1587.51 1453.08 Q1590.7 1455.77 1590.7 1460.26 Q1590.7 1462.39 1589.89 1464.31 Q1589.1 1466.2 1587 1468.8 Q1586.42 1469.47 1583.32 1472.69 Q1580.22 1475.88 1574.57 1481.64 Z" fill="#000000" fill-rule="nonzero" fill-opacity="1" /><path clip-path="url(#clip710)" d="M1610.7 1454.1 Q1607.09 1454.1 1605.26 1457.66 Q1603.46 1461.2 1603.46 1468.33 Q1603.46 1475.44 1605.26 1479.01 Q1607.09 1482.55 1610.7 1482.55 Q1614.34 1482.55 1616.14 1479.01 Q1617.97 1475.44 1617.97 1468.33 Q1617.97 1461.2 1616.14 1457.66 Q1614.34 1454.1 1610.7 1454.1 M1610.7 1450.39 Q1616.51 1450.39 1619.57 1455 Q1622.65 1459.58 1622.65 1468.33 Q1622.65 1477.06 1619.57 1481.67 Q1616.51 1486.25 1610.7 1486.25 Q1604.89 1486.25 1601.81 1481.67 Q1598.76 1477.06 1598.76 1468.33 Q1598.76 1459.58 1601.81 1455 Q1604.89 1450.39 1610.7 1450.39 Z" fill="#000000" fill-rule="nonzero" fill-opacity="1" /><path clip-path="url(#clip710)" d="M1924.22 1481.64 L1940.54 1481.64 L1940.54 1485.58 L1918.59 1485.58 L1918.59 1481.64 Q1921.25 1478.89 1925.84 1474.26 Q1930.44 1469.61 1931.62 1468.27 Q1933.87 1465.74 1934.75 1464.01 Q1935.65 1462.25 1935.65 1460.56 Q1935.65 1457.8 1933.71 1456.07 Q1931.79 1454.33 1928.68 1454.33 Q1926.49 1454.33 1924.03 1455.09 Q1921.6 1455.86 1918.82 1457.41 L1918.82 1452.69 Q1921.65 1451.55 1924.1 1450.97 Q1926.56 1450.39 1928.59 1450.39 Q1933.96 1450.39 1937.16 1453.08 Q1940.35 1455.77 1940.35 1460.26 Q1940.35 1462.39 1939.54 1464.31 Q1938.75 1466.2 1936.65 1468.8 Q1936.07 1469.47 1932.97 1472.69 Q1929.87 1475.88 1924.22 1481.64 Z" fill="#000000" fill-rule="nonzero" fill-opacity="1" /><path clip-path="url(#clip710)" d="M1950.4 1451.02 L1968.75 1451.02 L1968.75 1454.96 L1954.68 1454.96 L1954.68 1463.43 Q1955.7 1463.08 1956.72 1462.92 Q1957.74 1462.73 1958.75 1462.73 Q1964.54 1462.73 1967.92 1465.9 Q1971.3 1469.08 1971.3 1474.49 Q1971.3 1480.07 1967.83 1483.17 Q1964.36 1486.25 1958.04 1486.25 Q1955.86 1486.25 1953.59 1485.88 Q1951.35 1485.51 1948.94 1484.77 L1948.94 1480.07 Q1951.02 1481.2 1953.25 1481.76 Q1955.47 1482.32 1957.94 1482.32 Q1961.95 1482.32 1964.29 1480.21 Q1966.62 1478.1 1966.62 1474.49 Q1966.62 1470.88 1964.29 1468.77 Q1961.95 1466.67 1957.94 1466.67 Q1956.07 1466.67 1954.19 1467.08 Q1952.34 1467.5 1950.4 1468.38 L1950.4 1451.02 Z" fill="#000000" fill-rule="nonzero" fill-opacity="1" /><path clip-path="url(#clip710)" d="M2282.94 1466.95 Q2286.3 1467.66 2288.17 1469.93 Q2290.07 1472.2 2290.07 1475.53 Q2290.07 1480.65 2286.55 1483.45 Q2283.03 1486.25 2276.55 1486.25 Q2274.38 1486.25 2272.06 1485.81 Q2269.77 1485.39 2267.32 1484.54 L2267.32 1480.02 Q2269.26 1481.16 2271.58 1481.74 Q2273.89 1482.32 2276.41 1482.32 Q2280.81 1482.32 2283.1 1480.58 Q2285.42 1478.84 2285.42 1475.53 Q2285.42 1472.48 2283.27 1470.77 Q2281.14 1469.03 2277.32 1469.03 L2273.29 1469.03 L2273.29 1465.19 L2277.5 1465.19 Q2280.95 1465.19 2282.78 1463.82 Q2284.61 1462.43 2284.61 1459.84 Q2284.61 1457.18 2282.71 1455.77 Q2280.83 1454.33 2277.32 1454.33 Q2275.39 1454.33 2273.2 1454.75 Q2271 1455.16 2268.36 1456.04 L2268.36 1451.88 Q2271.02 1451.14 2273.33 1450.77 Q2275.67 1450.39 2277.73 1450.39 Q2283.06 1450.39 2286.16 1452.83 Q2289.26 1455.23 2289.26 1459.35 Q2289.26 1462.22 2287.62 1464.21 Q2285.97 1466.18 2282.94 1466.95 Z" fill="#000000" fill-rule="nonzero" fill-opacity="1" /><path clip-path="url(#clip710)" d="M2308.94 1454.1 Q2305.33 1454.1 2303.5 1457.66 Q2301.69 1461.2 2301.69 1468.33 Q2301.69 1475.44 2303.5 1479.01 Q2305.33 1482.55 2308.94 1482.55 Q2312.57 1482.55 2314.38 1479.01 Q2316.2 1475.44 2316.2 1468.33 Q2316.2 1461.2 2314.38 1457.66 Q2312.57 1454.1 2308.94 1454.1 M2308.94 1450.39 Q2314.75 1450.39 2317.8 1455 Q2320.88 1459.58 2320.88 1468.33 Q2320.88 1477.06 2317.8 1481.67 Q2314.75 1486.25 2308.94 1486.25 Q2303.13 1486.25 2300.05 1481.67 Q2296.99 1477.06 2296.99 1468.33 Q2296.99 1459.58 2300.05 1455 Q2303.13 1450.39 2308.94 1450.39 Z" fill="#000000" fill-rule="nonzero" fill-opacity="1" /><path clip-path="url(#clip710)" d="M1231.3 1546.53 L1231.3 1568.04 L1225.44 1568.04 L1225.44 1546.72 Q1225.44 1541.66 1223.47 1539.14 Q1221.5 1536.63 1217.55 1536.63 Q1212.81 1536.63 1210.07 1539.65 Q1207.33 1542.68 1207.33 1547.9 L1207.33 1568.04 L1201.44 1568.04 L1201.44 1518.52 L1207.33 1518.52 L1207.33 1537.93 Q1209.43 1534.72 1212.27 1533.13 Q1215.13 1531.54 1218.85 1531.54 Q1225 1531.54 1228.15 1535.36 Q1231.3 1539.14 1231.3 1546.53 Z" fill="#000000" fill-rule="nonzero" fill-opacity="1" /><path clip-path="url(#clip710)" d="M1256.79 1536.5 Q1252.08 1536.5 1249.35 1540.19 Q1246.61 1543.85 1246.61 1550.25 Q1246.61 1556.65 1249.31 1560.34 Q1252.05 1564 1256.79 1564 Q1261.47 1564 1264.21 1560.31 Q1266.95 1556.62 1266.95 1550.25 Q1266.95 1543.92 1264.21 1540.23 Q1261.47 1536.5 1256.79 1536.5 M1256.79 1531.54 Q1264.43 1531.54 1268.79 1536.5 Q1273.15 1541.47 1273.15 1550.25 Q1273.15 1559 1268.79 1564 Q1264.43 1568.97 1256.79 1568.97 Q1249.12 1568.97 1244.76 1564 Q1240.43 1559 1240.43 1550.25 Q1240.43 1541.47 1244.76 1536.5 Q1249.12 1531.54 1256.79 1531.54 Z" fill="#000000" fill-rule="nonzero" fill-opacity="1" /><path clip-path="url(#clip710)" d="M1303.52 1537.87 Q1302.53 1537.3 1301.35 1537.04 Q1300.21 1536.76 1298.81 1536.76 Q1293.84 1536.76 1291.17 1540 Q1288.53 1543.22 1288.53 1549.27 L1288.53 1568.04 L1282.64 1568.04 L1282.64 1532.4 L1288.53 1532.4 L1288.53 1537.93 Q1290.37 1534.69 1293.33 1533.13 Q1296.29 1531.54 1300.53 1531.54 Q1301.13 1531.54 1301.86 1531.63 Q1302.6 1531.7 1303.49 1531.85 L1303.52 1537.87 Z" fill="#000000" fill-rule="nonzero" fill-opacity="1" /><path clip-path="url(#clip710)" d="M1309.66 1532.4 L1315.52 1532.4 L1315.52 1568.04 L1309.66 1568.04 L1309.66 1532.4 M1309.66 1518.52 L1315.52 1518.52 L1315.52 1525.93 L1309.66 1525.93 L1309.66 1518.52 Z" fill="#000000" fill-rule="nonzero" fill-opacity="1" /><path clip-path="url(#clip710)" d="M1325.23 1532.4 L1353.04 1532.4 L1353.04 1537.74 L1331.02 1563.37 L1353.04 1563.37 L1353.04 1568.04 L1324.43 1568.04 L1324.43 1562.7 L1346.46 1537.07 L1325.23 1537.07 L1325.23 1532.4 Z" fill="#000000" fill-rule="nonzero" fill-opacity="1" /><path clip-path="url(#clip710)" d="M1375.8 1536.5 Q1371.09 1536.5 1368.35 1540.19 Q1365.62 1543.85 1365.62 1550.25 Q1365.62 1556.65 1368.32 1560.34 Q1371.06 1564 1375.8 1564 Q1380.48 1564 1383.22 1560.31 Q1385.95 1556.62 1385.95 1550.25 Q1385.95 1543.92 1383.22 1540.23 Q1380.48 1536.5 1375.8 1536.5 M1375.8 1531.54 Q1383.44 1531.54 1387.8 1536.5 Q1392.16 1541.47 1392.16 1550.25 Q1392.16 1559 1387.8 1564 Q1383.44 1568.97 1375.8 1568.97 Q1368.13 1568.97 1363.77 1564 Q1359.44 1559 1359.44 1550.25 Q1359.44 1541.47 1363.77 1536.5 Q1368.13 1531.54 1375.8 1531.54 Z" fill="#000000" fill-rule="nonzero" fill-opacity="1" /><path clip-path="url(#clip710)" d="M1431.5 1546.53 L1431.5 1568.04 L1425.64 1568.04 L1425.64 1546.72 Q1425.64 1541.66 1423.67 1539.14 Q1421.7 1536.63 1417.75 1536.63 Q1413.01 1536.63 1410.27 1539.65 Q1407.53 1542.68 1407.53 1547.9 L1407.53 1568.04 L1401.65 1568.04 L1401.65 1532.4 L1407.53 1532.4 L1407.53 1537.93 Q1409.64 1534.72 1412.47 1533.13 Q1415.33 1531.54 1419.06 1531.54 Q1425.2 1531.54 1428.35 1535.36 Q1431.5 1539.14 1431.5 1546.53 Z" fill="#000000" fill-rule="nonzero" fill-opacity="1" /><polyline clip-path="url(#clip712)" style="stroke:#000000; stroke-linecap:round; stroke-linejoin:round; stroke-width:2; stroke-opacity:0.1; fill:none" points="280.19,1407.35 2352.76,1407.35 "/>
<polyline clip-path="url(#clip712)" style="stroke:#000000; stroke-linecap:round; stroke-linejoin:round; stroke-width:2; stroke-opacity:0.1; fill:none" points="280.19,1218.38 2352.76,1218.38 "/>
<polyline clip-path="url(#clip712)" style="stroke:#000000; stroke-linecap:round; stroke-linejoin:round; stroke-width:2; stroke-opacity:0.1; fill:none" points="280.19,1029.41 2352.76,1029.41 "/>
<polyline clip-path="url(#clip712)" style="stroke:#000000; stroke-linecap:round; stroke-linejoin:round; stroke-width:2; stroke-opacity:0.1; fill:none" points="280.19,840.44 2352.76,840.44 "/>
<polyline clip-path="url(#clip712)" style="stroke:#000000; stroke-linecap:round; stroke-linejoin:round; stroke-width:2; stroke-opacity:0.1; fill:none" points="280.19,651.469 2352.76,651.469 "/>
<polyline clip-path="url(#clip712)" style="stroke:#000000; stroke-linecap:round; stroke-linejoin:round; stroke-width:2; stroke-opacity:0.1; fill:none" points="280.19,462.499 2352.76,462.499 "/>
<polyline clip-path="url(#clip712)" style="stroke:#000000; stroke-linecap:round; stroke-linejoin:round; stroke-width:2; stroke-opacity:0.1; fill:none" points="280.19,273.528 2352.76,273.528 "/>
<polyline clip-path="url(#clip710)" style="stroke:#000000; stroke-linecap:round; stroke-linejoin:round; stroke-width:4; stroke-opacity:1; fill:none" points="280.19,1423.18 280.19,123.472 "/>
<polyline clip-path="url(#clip710)" style="stroke:#000000; stroke-linecap:round; stroke-linejoin:round; stroke-width:4; stroke-opacity:1; fill:none" points="280.19,1407.35 299.088,1407.35 "/>
<polyline clip-path="url(#clip710)" style="stroke:#000000; stroke-linecap:round; stroke-linejoin:round; stroke-width:4; stroke-opacity:1; fill:none" points="280.19,1218.38 299.088,1218.38 "/>
<polyline clip-path="url(#clip710)" style="stroke:#000000; stroke-linecap:round; stroke-linejoin:round; stroke-width:4; stroke-opacity:1; fill:none" points="280.19,1029.41 299.088,1029.41 "/>
<polyline clip-path="url(#clip710)" style="stroke:#000000; stroke-linecap:round; stroke-linejoin:round; stroke-width:4; stroke-opacity:1; fill:none" points="280.19,840.44 299.088,840.44 "/>
<polyline clip-path="url(#clip710)" style="stroke:#000000; stroke-linecap:round; stroke-linejoin:round; stroke-width:4; stroke-opacity:1; fill:none" points="280.19,651.469 299.088,651.469 "/>
<polyline clip-path="url(#clip710)" style="stroke:#000000; stroke-linecap:round; stroke-linejoin:round; stroke-width:4; stroke-opacity:1; fill:none" points="280.19,462.499 299.088,462.499 "/>
<polyline clip-path="url(#clip710)" style="stroke:#000000; stroke-linecap:round; stroke-linejoin:round; stroke-width:4; stroke-opacity:1; fill:none" points="280.19,273.528 299.088,273.528 "/>
<path clip-path="url(#clip710)" d="M128.288 1393.15 Q124.677 1393.15 122.848 1396.72 Q121.043 1400.26 121.043 1407.39 Q121.043 1414.49 122.848 1418.06 Q124.677 1421.6 128.288 1421.6 Q131.922 1421.6 133.728 1418.06 Q135.556 1414.49 135.556 1407.39 Q135.556 1400.26 133.728 1396.72 Q131.922 1393.15 128.288 1393.15 M128.288 1389.45 Q134.098 1389.45 137.154 1394.05 Q140.232 1398.64 140.232 1407.39 Q140.232 1416.11 137.154 1420.72 Q134.098 1425.3 128.288 1425.3 Q122.478 1425.3 119.399 1420.72 Q116.343 1416.11 116.343 1407.39 Q116.343 1398.64 119.399 1394.05 Q122.478 1389.45 128.288 1389.45 Z" fill="#000000" fill-rule="nonzero" fill-opacity="1" /><path clip-path="url(#clip710)" d="M148.45 1418.75 L153.334 1418.75 L153.334 1424.63 L148.45 1424.63 L148.45 1418.75 Z" fill="#000000" fill-rule="nonzero" fill-opacity="1" /><path clip-path="url(#clip710)" d="M173.519 1393.15 Q169.908 1393.15 168.079 1396.72 Q166.274 1400.26 166.274 1407.39 Q166.274 1414.49 168.079 1418.06 Q169.908 1421.6 173.519 1421.6 Q177.153 1421.6 178.959 1418.06 Q180.788 1414.49 180.788 1407.39 Q180.788 1400.26 178.959 1396.72 Q177.153 1393.15 173.519 1393.15 M173.519 1389.45 Q179.329 1389.45 182.385 1394.05 Q185.463 1398.64 185.463 1407.39 Q185.463 1416.11 182.385 1420.72 Q179.329 1425.3 173.519 1425.3 Q167.709 1425.3 164.63 1420.72 Q161.575 1416.11 161.575 1407.39 Q161.575 1398.64 164.63 1394.05 Q167.709 1389.45 173.519 1389.45 Z" fill="#000000" fill-rule="nonzero" fill-opacity="1" /><path clip-path="url(#clip710)" d="M203.681 1393.15 Q200.07 1393.15 198.241 1396.72 Q196.436 1400.26 196.436 1407.39 Q196.436 1414.49 198.241 1418.06 Q200.07 1421.6 203.681 1421.6 Q207.315 1421.6 209.121 1418.06 Q210.949 1414.49 210.949 1407.39 Q210.949 1400.26 209.121 1396.72 Q207.315 1393.15 203.681 1393.15 M203.681 1389.45 Q209.491 1389.45 212.547 1394.05 Q215.625 1398.64 215.625 1407.39 Q215.625 1416.11 212.547 1420.72 Q209.491 1425.3 203.681 1425.3 Q197.871 1425.3 194.792 1420.72 Q191.737 1416.11 191.737 1407.39 Q191.737 1398.64 194.792 1394.05 Q197.871 1389.45 203.681 1389.45 Z" fill="#000000" fill-rule="nonzero" fill-opacity="1" /><path clip-path="url(#clip710)" d="M227.871 1420.7 L244.19 1420.7 L244.19 1424.63 L222.246 1424.63 L222.246 1420.7 Q224.908 1417.94 229.491 1413.31 Q234.097 1408.66 235.278 1407.32 Q237.523 1404.79 238.403 1403.06 Q239.306 1401.3 239.306 1399.61 Q239.306 1396.86 237.361 1395.12 Q235.44 1393.38 232.338 1393.38 Q230.139 1393.38 227.685 1394.15 Q225.255 1394.91 222.477 1396.46 L222.477 1391.74 Q225.301 1390.61 227.755 1390.03 Q230.209 1389.45 232.246 1389.45 Q237.616 1389.45 240.81 1392.13 Q244.005 1394.82 244.005 1399.31 Q244.005 1401.44 243.195 1403.36 Q242.408 1405.26 240.301 1407.85 Q239.722 1408.52 236.621 1411.74 Q233.519 1414.93 227.871 1420.7 Z" fill="#000000" fill-rule="nonzero" fill-opacity="1" /><path clip-path="url(#clip710)" d="M126.205 1204.18 Q122.593 1204.18 120.765 1207.75 Q118.959 1211.29 118.959 1218.42 Q118.959 1225.52 120.765 1229.09 Q122.593 1232.63 126.205 1232.63 Q129.839 1232.63 131.644 1229.09 Q133.473 1225.52 133.473 1218.42 Q133.473 1211.29 131.644 1207.75 Q129.839 1204.18 126.205 1204.18 M126.205 1200.48 Q132.015 1200.48 135.07 1205.08 Q138.149 1209.67 138.149 1218.42 Q138.149 1227.14 135.07 1231.75 Q132.015 1236.33 126.205 1236.33 Q120.394 1236.33 117.316 1231.75 Q114.26 1227.14 114.26 1218.42 Q114.26 1209.67 117.316 1205.08 Q120.394 1200.48 126.205 1200.48 Z" fill="#000000" fill-rule="nonzero" fill-opacity="1" /><path clip-path="url(#clip710)" d="M146.366 1229.78 L151.251 1229.78 L151.251 1235.66 L146.366 1235.66 L146.366 1229.78 Z" fill="#000000" fill-rule="nonzero" fill-opacity="1" /><path clip-path="url(#clip710)" d="M171.436 1204.18 Q167.825 1204.18 165.996 1207.75 Q164.19 1211.29 164.19 1218.42 Q164.19 1225.52 165.996 1229.09 Q167.825 1232.63 171.436 1232.63 Q175.07 1232.63 176.876 1229.09 Q178.704 1225.52 178.704 1218.42 Q178.704 1211.29 176.876 1207.75 Q175.07 1204.18 171.436 1204.18 M171.436 1200.48 Q177.246 1200.48 180.301 1205.08 Q183.38 1209.67 183.38 1218.42 Q183.38 1227.14 180.301 1231.75 Q177.246 1236.33 171.436 1236.33 Q165.626 1236.33 162.547 1231.75 Q159.491 1227.14 159.491 1218.42 Q159.491 1209.67 162.547 1205.08 Q165.626 1200.48 171.436 1200.48 Z" fill="#000000" fill-rule="nonzero" fill-opacity="1" /><path clip-path="url(#clip710)" d="M201.598 1204.18 Q197.987 1204.18 196.158 1207.75 Q194.352 1211.29 194.352 1218.42 Q194.352 1225.52 196.158 1229.09 Q197.987 1232.63 201.598 1232.63 Q205.232 1232.63 207.037 1229.09 Q208.866 1225.52 208.866 1218.42 Q208.866 1211.29 207.037 1207.75 Q205.232 1204.18 201.598 1204.18 M201.598 1200.48 Q207.408 1200.48 210.463 1205.08 Q213.542 1209.67 213.542 1218.42 Q213.542 1227.14 210.463 1231.75 Q207.408 1236.33 201.598 1236.33 Q195.787 1236.33 192.709 1231.75 Q189.653 1227.14 189.653 1218.42 Q189.653 1209.67 192.709 1205.08 Q195.787 1200.48 201.598 1200.48 Z" fill="#000000" fill-rule="nonzero" fill-opacity="1" /><path clip-path="url(#clip710)" d="M234.607 1205.18 L222.801 1223.62 L234.607 1223.62 L234.607 1205.18 M233.38 1201.1 L239.259 1201.1 L239.259 1223.62 L244.19 1223.62 L244.19 1227.51 L239.259 1227.51 L239.259 1235.66 L234.607 1235.66 L234.607 1227.51 L219.005 1227.51 L219.005 1223 L233.38 1201.1 Z" fill="#000000" fill-rule="nonzero" fill-opacity="1" /><path clip-path="url(#clip710)" d="M126.529 1015.21 Q122.918 1015.21 121.089 1018.77 Q119.283 1022.32 119.283 1029.45 Q119.283 1036.55 121.089 1040.12 Q122.918 1043.66 126.529 1043.66 Q130.163 1043.66 131.968 1040.12 Q133.797 1036.55 133.797 1029.45 Q133.797 1022.32 131.968 1018.77 Q130.163 1015.21 126.529 1015.21 M126.529 1011.51 Q132.339 1011.51 135.394 1016.11 Q138.473 1020.7 138.473 1029.45 Q138.473 1038.17 135.394 1042.78 Q132.339 1047.36 126.529 1047.36 Q120.718 1047.36 117.64 1042.78 Q114.584 1038.17 114.584 1029.45 Q114.584 1020.7 117.64 1016.11 Q120.718 1011.51 126.529 1011.51 Z" fill="#000000" fill-rule="nonzero" fill-opacity="1" /><path clip-path="url(#clip710)" d="M146.691 1040.81 L151.575 1040.81 L151.575 1046.69 L146.691 1046.69 L146.691 1040.81 Z" fill="#000000" fill-rule="nonzero" fill-opacity="1" /><path clip-path="url(#clip710)" d="M171.76 1015.21 Q168.149 1015.21 166.32 1018.77 Q164.515 1022.32 164.515 1029.45 Q164.515 1036.55 166.32 1040.12 Q168.149 1043.66 171.76 1043.66 Q175.394 1043.66 177.2 1040.12 Q179.028 1036.55 179.028 1029.45 Q179.028 1022.32 177.2 1018.77 Q175.394 1015.21 171.76 1015.21 M171.76 1011.51 Q177.57 1011.51 180.626 1016.11 Q183.704 1020.7 183.704 1029.45 Q183.704 1038.17 180.626 1042.78 Q177.57 1047.36 171.76 1047.36 Q165.95 1047.36 162.871 1042.78 Q159.815 1038.17 159.815 1029.45 Q159.815 1020.7 162.871 1016.11 Q165.95 1011.51 171.76 1011.51 Z" fill="#000000" fill-rule="nonzero" fill-opacity="1" /><path clip-path="url(#clip710)" d="M201.922 1015.21 Q198.311 1015.21 196.482 1018.77 Q194.676 1022.32 194.676 1029.45 Q194.676 1036.55 196.482 1040.12 Q198.311 1043.66 201.922 1043.66 Q205.556 1043.66 207.362 1040.12 Q209.19 1036.55 209.19 1029.45 Q209.19 1022.32 207.362 1018.77 Q205.556 1015.21 201.922 1015.21 M201.922 1011.51 Q207.732 1011.51 210.787 1016.11 Q213.866 1020.7 213.866 1029.45 Q213.866 1038.17 210.787 1042.78 Q207.732 1047.36 201.922 1047.36 Q196.112 1047.36 193.033 1042.78 Q189.977 1038.17 189.977 1029.45 Q189.977 1020.7 193.033 1016.11 Q196.112 1011.51 201.922 1011.51 Z" fill="#000000" fill-rule="nonzero" fill-opacity="1" /><path clip-path="url(#clip710)" d="M232.662 1027.55 Q229.514 1027.55 227.662 1029.7 Q225.834 1031.85 225.834 1035.6 Q225.834 1039.33 227.662 1041.51 Q229.514 1043.66 232.662 1043.66 Q235.81 1043.66 237.639 1041.51 Q239.491 1039.33 239.491 1035.6 Q239.491 1031.85 237.639 1029.7 Q235.81 1027.55 232.662 1027.55 M241.945 1012.89 L241.945 1017.15 Q240.185 1016.32 238.38 1015.88 Q236.597 1015.44 234.838 1015.44 Q230.209 1015.44 227.755 1018.57 Q225.324 1021.69 224.977 1028.01 Q226.343 1026 228.403 1024.93 Q230.463 1023.84 232.94 1023.84 Q238.148 1023.84 241.158 1027.02 Q244.19 1030.16 244.19 1035.6 Q244.19 1040.93 241.042 1044.14 Q237.894 1047.36 232.662 1047.36 Q226.667 1047.36 223.496 1042.78 Q220.324 1038.17 220.324 1029.45 Q220.324 1021.25 224.213 1016.39 Q228.102 1011.51 234.653 1011.51 Q236.412 1011.51 238.195 1011.85 Q240 1012.2 241.945 1012.89 Z" fill="#000000" fill-rule="nonzero" fill-opacity="1" /><path clip-path="url(#clip710)" d="M126.783 826.239 Q123.172 826.239 121.343 829.804 Q119.538 833.345 119.538 840.475 Q119.538 847.581 121.343 851.146 Q123.172 854.688 126.783 854.688 Q130.417 854.688 132.223 851.146 Q134.052 847.581 134.052 840.475 Q134.052 833.345 132.223 829.804 Q130.417 826.239 126.783 826.239 M126.783 822.535 Q132.593 822.535 135.649 827.142 Q138.728 831.725 138.728 840.475 Q138.728 849.202 135.649 853.808 Q132.593 858.392 126.783 858.392 Q120.973 858.392 117.894 853.808 Q114.839 849.202 114.839 840.475 Q114.839 831.725 117.894 827.142 Q120.973 822.535 126.783 822.535 Z" fill="#000000" fill-rule="nonzero" fill-opacity="1" /><path clip-path="url(#clip710)" d="M146.945 851.841 L151.829 851.841 L151.829 857.72 L146.945 857.72 L146.945 851.841 Z" fill="#000000" fill-rule="nonzero" fill-opacity="1" /><path clip-path="url(#clip710)" d="M172.014 826.239 Q168.403 826.239 166.575 829.804 Q164.769 833.345 164.769 840.475 Q164.769 847.581 166.575 851.146 Q168.403 854.688 172.014 854.688 Q175.649 854.688 177.454 851.146 Q179.283 847.581 179.283 840.475 Q179.283 833.345 177.454 829.804 Q175.649 826.239 172.014 826.239 M172.014 822.535 Q177.825 822.535 180.88 827.142 Q183.959 831.725 183.959 840.475 Q183.959 849.202 180.88 853.808 Q177.825 858.392 172.014 858.392 Q166.204 858.392 163.126 853.808 Q160.07 849.202 160.07 840.475 Q160.07 831.725 163.126 827.142 Q166.204 822.535 172.014 822.535 Z" fill="#000000" fill-rule="nonzero" fill-opacity="1" /><path clip-path="url(#clip710)" d="M202.176 826.239 Q198.565 826.239 196.737 829.804 Q194.931 833.345 194.931 840.475 Q194.931 847.581 196.737 851.146 Q198.565 854.688 202.176 854.688 Q205.811 854.688 207.616 851.146 Q209.445 847.581 209.445 840.475 Q209.445 833.345 207.616 829.804 Q205.811 826.239 202.176 826.239 M202.176 822.535 Q207.987 822.535 211.042 827.142 Q214.121 831.725 214.121 840.475 Q214.121 849.202 211.042 853.808 Q207.987 858.392 202.176 858.392 Q196.366 858.392 193.288 853.808 Q190.232 849.202 190.232 840.475 Q190.232 831.725 193.288 827.142 Q196.366 822.535 202.176 822.535 Z" fill="#000000" fill-rule="nonzero" fill-opacity="1" /><path clip-path="url(#clip710)" d="M232.338 841.308 Q229.005 841.308 227.084 843.091 Q225.185 844.873 225.185 847.998 Q225.185 851.123 227.084 852.905 Q229.005 854.688 232.338 854.688 Q235.672 854.688 237.593 852.905 Q239.514 851.1 239.514 847.998 Q239.514 844.873 237.593 843.091 Q235.695 841.308 232.338 841.308 M227.662 839.318 Q224.653 838.577 222.963 836.517 Q221.297 834.457 221.297 831.494 Q221.297 827.35 224.236 824.943 Q227.199 822.535 232.338 822.535 Q237.5 822.535 240.44 824.943 Q243.38 827.35 243.38 831.494 Q243.38 834.457 241.69 836.517 Q240.023 838.577 237.037 839.318 Q240.417 840.105 242.292 842.396 Q244.19 844.688 244.19 847.998 Q244.19 853.021 241.111 855.706 Q238.056 858.392 232.338 858.392 Q226.621 858.392 223.542 855.706 Q220.486 853.021 220.486 847.998 Q220.486 844.688 222.385 842.396 Q224.283 840.105 227.662 839.318 M225.949 831.933 Q225.949 834.619 227.616 836.123 Q229.306 837.628 232.338 837.628 Q235.347 837.628 237.037 836.123 Q238.75 834.619 238.75 831.933 Q238.75 829.248 237.037 827.744 Q235.347 826.239 232.338 826.239 Q229.306 826.239 227.616 827.744 Q225.949 829.248 225.949 831.933 Z" fill="#000000" fill-rule="nonzero" fill-opacity="1" /><path clip-path="url(#clip710)" d="M126.691 637.268 Q123.08 637.268 121.251 640.833 Q119.445 644.375 119.445 651.504 Q119.445 658.611 121.251 662.175 Q123.08 665.717 126.691 665.717 Q130.325 665.717 132.13 662.175 Q133.959 658.611 133.959 651.504 Q133.959 644.375 132.13 640.833 Q130.325 637.268 126.691 637.268 M126.691 633.565 Q132.501 633.565 135.556 638.171 Q138.635 642.754 138.635 651.504 Q138.635 660.231 135.556 664.837 Q132.501 669.421 126.691 669.421 Q120.88 669.421 117.802 664.837 Q114.746 660.231 114.746 651.504 Q114.746 642.754 117.802 638.171 Q120.88 633.565 126.691 633.565 Z" fill="#000000" fill-rule="nonzero" fill-opacity="1" /><path clip-path="url(#clip710)" d="M146.853 662.87 L151.737 662.87 L151.737 668.749 L146.853 668.749 L146.853 662.87 Z" fill="#000000" fill-rule="nonzero" fill-opacity="1" /><path clip-path="url(#clip710)" d="M171.922 637.268 Q168.311 637.268 166.482 640.833 Q164.677 644.375 164.677 651.504 Q164.677 658.611 166.482 662.175 Q168.311 665.717 171.922 665.717 Q175.556 665.717 177.362 662.175 Q179.19 658.611 179.19 651.504 Q179.19 644.375 177.362 640.833 Q175.556 637.268 171.922 637.268 M171.922 633.565 Q177.732 633.565 180.788 638.171 Q183.866 642.754 183.866 651.504 Q183.866 660.231 180.788 664.837 Q177.732 669.421 171.922 669.421 Q166.112 669.421 163.033 664.837 Q159.978 660.231 159.978 651.504 Q159.978 642.754 163.033 638.171 Q166.112 633.565 171.922 633.565 Z" fill="#000000" fill-rule="nonzero" fill-opacity="1" /><path clip-path="url(#clip710)" d="M192.894 664.814 L200.533 664.814 L200.533 638.449 L192.223 640.115 L192.223 635.856 L200.487 634.189 L205.162 634.189 L205.162 664.814 L212.801 664.814 L212.801 668.749 L192.894 668.749 L192.894 664.814 Z" fill="#000000" fill-rule="nonzero" fill-opacity="1" /><path clip-path="url(#clip710)" d="M232.246 637.268 Q228.635 637.268 226.806 640.833 Q225 644.375 225 651.504 Q225 658.611 226.806 662.175 Q228.635 665.717 232.246 665.717 Q235.88 665.717 237.685 662.175 Q239.514 658.611 239.514 651.504 Q239.514 644.375 237.685 640.833 Q235.88 637.268 232.246 637.268 M232.246 633.565 Q238.056 633.565 241.111 638.171 Q244.19 642.754 244.19 651.504 Q244.19 660.231 241.111 664.837 Q238.056 669.421 232.246 669.421 Q226.435 669.421 223.357 664.837 Q220.301 660.231 220.301 651.504 Q220.301 642.754 223.357 638.171 Q226.435 633.565 232.246 633.565 Z" fill="#000000" fill-rule="nonzero" fill-opacity="1" /><path clip-path="url(#clip710)" d="M128.288 448.297 Q124.677 448.297 122.848 451.862 Q121.043 455.404 121.043 462.533 Q121.043 469.64 122.848 473.205 Q124.677 476.746 128.288 476.746 Q131.922 476.746 133.728 473.205 Q135.556 469.64 135.556 462.533 Q135.556 455.404 133.728 451.862 Q131.922 448.297 128.288 448.297 M128.288 444.594 Q134.098 444.594 137.154 449.2 Q140.232 453.783 140.232 462.533 Q140.232 471.26 137.154 475.867 Q134.098 480.45 128.288 480.45 Q122.478 480.45 119.399 475.867 Q116.343 471.26 116.343 462.533 Q116.343 453.783 119.399 449.2 Q122.478 444.594 128.288 444.594 Z" fill="#000000" fill-rule="nonzero" fill-opacity="1" /><path clip-path="url(#clip710)" d="M148.45 473.899 L153.334 473.899 L153.334 479.779 L148.45 479.779 L148.45 473.899 Z" fill="#000000" fill-rule="nonzero" fill-opacity="1" /><path clip-path="url(#clip710)" d="M173.519 448.297 Q169.908 448.297 168.079 451.862 Q166.274 455.404 166.274 462.533 Q166.274 469.64 168.079 473.205 Q169.908 476.746 173.519 476.746 Q177.153 476.746 178.959 473.205 Q180.788 469.64 180.788 462.533 Q180.788 455.404 178.959 451.862 Q177.153 448.297 173.519 448.297 M173.519 444.594 Q179.329 444.594 182.385 449.2 Q185.463 453.783 185.463 462.533 Q185.463 471.26 182.385 475.867 Q179.329 480.45 173.519 480.45 Q167.709 480.45 164.63 475.867 Q161.575 471.26 161.575 462.533 Q161.575 453.783 164.63 449.2 Q167.709 444.594 173.519 444.594 Z" fill="#000000" fill-rule="nonzero" fill-opacity="1" /><path clip-path="url(#clip710)" d="M194.491 475.844 L202.13 475.844 L202.13 449.478 L193.82 451.145 L193.82 446.885 L202.084 445.219 L206.76 445.219 L206.76 475.844 L214.399 475.844 L214.399 479.779 L194.491 479.779 L194.491 475.844 Z" fill="#000000" fill-rule="nonzero" fill-opacity="1" /><path clip-path="url(#clip710)" d="M227.871 475.844 L244.19 475.844 L244.19 479.779 L222.246 479.779 L222.246 475.844 Q224.908 473.089 229.491 468.459 Q234.097 463.807 235.278 462.464 Q237.523 459.941 238.403 458.205 Q239.306 456.446 239.306 454.756 Q239.306 452.001 237.361 450.265 Q235.44 448.529 232.338 448.529 Q230.139 448.529 227.685 449.293 Q225.255 450.057 222.477 451.608 L222.477 446.885 Q225.301 445.751 227.755 445.172 Q230.209 444.594 232.246 444.594 Q237.616 444.594 240.81 447.279 Q244.005 449.964 244.005 454.455 Q244.005 456.584 243.195 458.506 Q242.408 460.404 240.301 462.996 Q239.722 463.668 236.621 466.885 Q233.519 470.08 227.871 475.844 Z" fill="#000000" fill-rule="nonzero" fill-opacity="1" /><path clip-path="url(#clip710)" d="M126.205 259.327 Q122.593 259.327 120.765 262.891 Q118.959 266.433 118.959 273.563 Q118.959 280.669 120.765 284.234 Q122.593 287.776 126.205 287.776 Q129.839 287.776 131.644 284.234 Q133.473 280.669 133.473 273.563 Q133.473 266.433 131.644 262.891 Q129.839 259.327 126.205 259.327 M126.205 255.623 Q132.015 255.623 135.07 260.229 Q138.149 264.813 138.149 273.563 Q138.149 282.289 135.07 286.896 Q132.015 291.479 126.205 291.479 Q120.394 291.479 117.316 286.896 Q114.26 282.289 114.26 273.563 Q114.26 264.813 117.316 260.229 Q120.394 255.623 126.205 255.623 Z" fill="#000000" fill-rule="nonzero" fill-opacity="1" /><path clip-path="url(#clip710)" d="M146.366 284.928 L151.251 284.928 L151.251 290.808 L146.366 290.808 L146.366 284.928 Z" fill="#000000" fill-rule="nonzero" fill-opacity="1" /><path clip-path="url(#clip710)" d="M171.436 259.327 Q167.825 259.327 165.996 262.891 Q164.19 266.433 164.19 273.563 Q164.19 280.669 165.996 284.234 Q167.825 287.776 171.436 287.776 Q175.07 287.776 176.876 284.234 Q178.704 280.669 178.704 273.563 Q178.704 266.433 176.876 262.891 Q175.07 259.327 171.436 259.327 M171.436 255.623 Q177.246 255.623 180.301 260.229 Q183.38 264.813 183.38 273.563 Q183.38 282.289 180.301 286.896 Q177.246 291.479 171.436 291.479 Q165.626 291.479 162.547 286.896 Q159.491 282.289 159.491 273.563 Q159.491 264.813 162.547 260.229 Q165.626 255.623 171.436 255.623 Z" fill="#000000" fill-rule="nonzero" fill-opacity="1" /><path clip-path="url(#clip710)" d="M192.408 286.873 L200.047 286.873 L200.047 260.507 L191.737 262.174 L191.737 257.915 L200 256.248 L204.676 256.248 L204.676 286.873 L212.315 286.873 L212.315 290.808 L192.408 290.808 L192.408 286.873 Z" fill="#000000" fill-rule="nonzero" fill-opacity="1" /><path clip-path="url(#clip710)" d="M234.607 260.322 L222.801 278.771 L234.607 278.771 L234.607 260.322 M233.38 256.248 L239.259 256.248 L239.259 278.771 L244.19 278.771 L244.19 282.66 L239.259 282.66 L239.259 290.808 L234.607 290.808 L234.607 282.66 L219.005 282.66 L219.005 278.146 L233.38 256.248 Z" fill="#000000" fill-rule="nonzero" fill-opacity="1" /><path clip-path="url(#clip710)" d="M16.4842 874.557 L16.4842 864.976 L48.8219 852.85 L16.4842 840.659 L16.4842 831.079 L64.0042 831.079 L64.0042 837.349 L22.277 837.349 L54.8694 849.603 L54.8694 856.064 L22.277 868.318 L64.0042 868.318 L64.0042 874.557 L16.4842 874.557 Z" fill="#000000" fill-rule="nonzero" fill-opacity="1" /><path clip-path="url(#clip710)" d="M41.7242 795.781 Q42.4244 793.712 44.7161 791.771 Q47.0077 789.797 51.0181 787.824 L64.0042 781.299 L64.0042 788.206 L51.8138 794.285 Q47.0395 796.64 45.48 798.868 Q43.9204 801.065 43.9204 804.884 L43.9204 811.886 L64.0042 811.886 L64.0042 818.316 L16.4842 818.316 L16.4842 803.802 Q16.4842 795.654 19.8898 791.643 Q23.2955 787.633 30.1704 787.633 Q34.6582 787.633 37.6183 789.734 Q40.5784 791.802 41.7242 795.781 M21.7677 811.886 L38.6368 811.886 L38.6368 803.802 Q38.6368 799.155 36.5043 796.8 Q34.34 794.412 30.1704 794.412 Q26.0009 794.412 23.9002 796.8 Q21.7677 799.155 21.7677 803.802 L21.7677 811.886 Z" fill="#000000" fill-rule="nonzero" fill-opacity="1" /><path clip-path="url(#clip710)" d="M22.818 759.783 L46.4666 768.504 L46.4666 751.03 L22.818 759.783 M16.4842 763.411 L16.4842 756.123 L64.0042 738.012 L64.0042 744.696 L51.8138 749.025 L51.8138 770.446 L64.0042 774.774 L64.0042 781.554 L16.4842 763.411 Z" fill="#000000" fill-rule="nonzero" fill-opacity="1" /><path clip-path="url(#clip710)" d="M16.4842 731.074 L16.4842 701.027 L21.895 701.027 L21.895 724.644 L35.9632 724.644 L35.9632 702.014 L41.3741 702.014 L41.3741 724.644 L58.5933 724.644 L58.5933 700.455 L64.0042 700.455 L64.0042 731.074 L16.4842 731.074 Z" fill="#000000" fill-rule="nonzero" fill-opacity="1" /><path clip-path="url(#clip710)" d="M14.479 672.095 L19.3487 672.095 L19.3487 677.697 Q19.3487 680.848 20.6219 682.089 Q21.895 683.299 25.2052 683.299 L28.3562 683.299 L28.3562 673.655 L32.9077 673.655 L32.9077 683.299 L64.0042 683.299 L64.0042 689.187 L32.9077 689.187 L32.9077 694.789 L28.3562 694.789 L28.3562 689.187 L25.8736 689.187 Q19.9216 689.187 17.2162 686.418 Q14.479 683.649 14.479 677.633 L14.479 672.095 Z" fill="#000000" fill-rule="nonzero" fill-opacity="1" /><path clip-path="url(#clip710)" d="M564.666 12.096 L572.848 12.096 L572.848 65.6895 L602.299 65.6895 L602.299 72.576 L564.666 72.576 L564.666 12.096 Z" fill="#000000" fill-rule="nonzero" fill-opacity="1" /><path clip-path="url(#clip710)" d="M610.562 27.2059 L618.016 27.2059 L618.016 72.576 L610.562 72.576 L610.562 27.2059 M610.562 9.54393 L618.016 9.54393 L618.016 18.9825 L610.562 18.9825 L610.562 9.54393 Z" fill="#000000" fill-rule="nonzero" fill-opacity="1" /><path clip-path="url(#clip710)" d="M671.326 45.1919 L671.326 72.576 L663.872 72.576 L663.872 45.4349 Q663.872 38.994 661.361 35.7938 Q658.849 32.5936 653.826 32.5936 Q647.79 32.5936 644.306 36.4419 Q640.823 40.2903 640.823 46.9338 L640.823 72.576 L633.328 72.576 L633.328 27.2059 L640.823 27.2059 L640.823 34.2544 Q643.496 30.163 647.102 28.1376 Q650.747 26.1121 655.487 26.1121 Q663.305 26.1121 667.316 30.9732 Q671.326 35.7938 671.326 45.1919 Z" fill="#000000" fill-rule="nonzero" fill-opacity="1" /><path clip-path="url(#clip710)" d="M725 48.0275 L725 51.6733 L690.73 51.6733 Q691.216 59.3701 695.348 63.421 Q699.52 67.4314 706.933 67.4314 Q711.227 67.4314 715.238 66.3781 Q719.289 65.3249 723.259 63.2184 L723.259 70.267 Q719.248 71.9684 715.035 72.8596 Q710.822 73.7508 706.488 73.7508 Q695.631 73.7508 689.271 67.4314 Q682.952 61.1119 682.952 50.3365 Q682.952 39.1965 688.947 32.6746 Q694.983 26.1121 705.192 26.1121 Q714.347 26.1121 719.653 32.0264 Q725 37.9003 725 48.0275 M717.547 45.84 Q717.466 39.7232 714.104 36.0774 Q710.782 32.4315 705.273 32.4315 Q699.034 32.4315 695.267 35.9558 Q691.54 39.4801 690.973 45.8805 L717.547 45.84 Z" fill="#000000" fill-rule="nonzero" fill-opacity="1" /><path clip-path="url(#clip710)" d="M757.853 49.7694 Q748.82 49.7694 745.336 51.8354 Q741.852 53.9013 741.852 58.8839 Q741.852 62.8538 744.445 65.2034 Q747.078 67.5124 751.574 67.5124 Q757.772 67.5124 761.499 63.1374 Q765.266 58.7219 765.266 51.4303 L765.266 49.7694 L757.853 49.7694 M772.72 46.6907 L772.72 72.576 L765.266 72.576 L765.266 65.6895 Q762.714 69.8214 758.907 71.8063 Q755.099 73.7508 749.589 73.7508 Q742.622 73.7508 738.49 69.8619 Q734.399 65.9325 734.399 59.3701 Q734.399 51.7138 739.503 47.825 Q744.647 43.9361 754.815 43.9361 L765.266 43.9361 L765.266 43.2069 Q765.266 38.0623 761.864 35.2672 Q758.501 32.4315 752.385 32.4315 Q748.496 32.4315 744.809 33.3632 Q741.123 34.295 737.72 36.1584 L737.72 29.2718 Q741.812 27.692 745.66 26.9223 Q749.508 26.1121 753.154 26.1121 Q762.998 26.1121 767.859 31.2163 Q772.72 36.3204 772.72 46.6907 Z" fill="#000000" fill-rule="nonzero" fill-opacity="1" /><path clip-path="url(#clip710)" d="M814.363 34.1734 Q813.108 33.4443 811.609 33.1202 Q810.15 32.7556 808.368 32.7556 Q802.049 32.7556 798.646 36.8875 Q795.284 40.9789 795.284 48.6757 L795.284 72.576 L787.789 72.576 L787.789 27.2059 L795.284 27.2059 L795.284 34.2544 Q797.633 30.1225 801.4 28.1376 Q805.168 26.1121 810.556 26.1121 Q811.325 26.1121 812.257 26.2337 Q813.189 26.3147 814.323 26.5172 L814.363 34.1734 Z" fill="#000000" fill-rule="nonzero" fill-opacity="1" /><path clip-path="url(#clip710)" d="M877.557 44.2197 Q880.191 45.1109 882.662 48.0275 Q885.173 50.9442 887.685 56.0483 L895.989 72.576 L887.199 72.576 L879.461 57.061 Q876.464 50.9847 873.628 48.9997 Q870.833 47.0148 865.972 47.0148 L857.06 47.0148 L857.06 72.576 L848.877 72.576 L848.877 12.096 L867.349 12.096 Q877.72 12.096 882.824 16.4305 Q887.928 20.7649 887.928 29.5149 Q887.928 35.2267 885.254 38.994 Q882.621 42.7613 877.557 44.2197 M857.06 18.8205 L857.06 40.2903 L867.349 40.2903 Q873.264 40.2903 876.261 37.5762 Q879.299 34.8216 879.299 29.5149 Q879.299 24.2082 876.261 21.5346 Q873.264 18.8205 867.349 18.8205 L857.06 18.8205 Z" fill="#000000" fill-rule="nonzero" fill-opacity="1" /><path clip-path="url(#clip710)" d="M941.278 48.0275 L941.278 51.6733 L907.008 51.6733 Q907.494 59.3701 911.626 63.421 Q915.798 67.4314 923.211 67.4314 Q927.505 67.4314 931.516 66.3781 Q935.566 65.3249 939.536 63.2184 L939.536 70.267 Q935.526 71.9684 931.313 72.8596 Q927.1 73.7508 922.766 73.7508 Q911.909 73.7508 905.549 67.4314 Q899.23 61.1119 899.23 50.3365 Q899.23 39.1965 905.225 32.6746 Q911.261 26.1121 921.469 26.1121 Q930.624 26.1121 935.931 32.0264 Q941.278 37.9003 941.278 48.0275 M933.825 45.84 Q933.744 39.7232 930.381 36.0774 Q927.06 32.4315 921.55 32.4315 Q915.312 32.4315 911.545 35.9558 Q907.818 39.4801 907.251 45.8805 L933.825 45.84 Z" fill="#000000" fill-rule="nonzero" fill-opacity="1" /><path clip-path="url(#clip710)" d="M983.367 49.3643 Q983.367 41.2625 980.005 36.8065 Q976.683 32.3505 970.647 32.3505 Q964.652 32.3505 961.29 36.8065 Q957.968 41.2625 957.968 49.3643 Q957.968 57.4256 961.29 61.8816 Q964.652 66.3376 970.647 66.3376 Q976.683 66.3376 980.005 61.8816 Q983.367 57.4256 983.367 49.3643 M990.821 66.9452 Q990.821 78.5308 985.676 84.1616 Q980.531 89.8329 969.918 89.8329 Q965.989 89.8329 962.505 89.2252 Q959.021 88.6581 955.74 87.4428 L955.74 80.1917 Q959.021 81.9741 962.221 82.8248 Q965.422 83.6755 968.743 83.6755 Q976.075 83.6755 979.721 79.8271 Q983.367 76.0193 983.367 68.282 L983.367 64.5957 Q981.058 68.6061 977.453 70.5911 Q973.847 72.576 968.824 72.576 Q960.479 72.576 955.375 66.2161 Q950.271 59.8562 950.271 49.3643 Q950.271 38.832 955.375 32.472 Q960.479 26.1121 968.824 26.1121 Q973.847 26.1121 977.453 28.0971 Q981.058 30.082 983.367 34.0924 L983.367 27.2059 L990.821 27.2059 L990.821 66.9452 Z" fill="#000000" fill-rule="nonzero" fill-opacity="1" /><path clip-path="url(#clip710)" d="M1032.46 34.1734 Q1031.21 33.4443 1029.71 33.1202 Q1028.25 32.7556 1026.47 32.7556 Q1020.15 32.7556 1016.75 36.8875 Q1013.38 40.9789 1013.38 48.6757 L1013.38 72.576 L1005.89 72.576 L1005.89 27.2059 L1013.38 27.2059 L1013.38 34.2544 Q1015.73 30.1225 1019.5 28.1376 Q1023.27 26.1121 1028.66 26.1121 Q1029.43 26.1121 1030.36 26.2337 Q1031.29 26.3147 1032.42 26.5172 L1032.46 34.1734 Z" fill="#000000" fill-rule="nonzero" fill-opacity="1" /><path clip-path="url(#clip710)" d="M1077.27 48.0275 L1077.27 51.6733 L1043 51.6733 Q1043.48 59.3701 1047.61 63.421 Q1051.79 67.4314 1059.2 67.4314 Q1063.49 67.4314 1067.5 66.3781 Q1071.56 65.3249 1075.53 63.2184 L1075.53 70.267 Q1071.51 71.9684 1067.3 72.8596 Q1063.09 73.7508 1058.75 73.7508 Q1047.9 73.7508 1041.54 67.4314 Q1035.22 61.1119 1035.22 50.3365 Q1035.22 39.1965 1041.21 32.6746 Q1047.25 26.1121 1057.46 26.1121 Q1066.61 26.1121 1071.92 32.0264 Q1077.27 37.9003 1077.27 48.0275 M1069.81 45.84 Q1069.73 39.7232 1066.37 36.0774 Q1063.05 32.4315 1057.54 32.4315 Q1051.3 32.4315 1047.53 35.9558 Q1043.81 39.4801 1043.24 45.8805 L1069.81 45.84 Z" fill="#000000" fill-rule="nonzero" fill-opacity="1" /><path clip-path="url(#clip710)" d="M1118.42 28.5427 L1118.42 35.5912 Q1115.26 33.9709 1111.86 33.1607 Q1108.46 32.3505 1104.81 32.3505 Q1099.26 32.3505 1096.47 34.0519 Q1093.71 35.7533 1093.71 39.156 Q1093.71 41.7486 1095.7 43.2475 Q1097.68 44.7058 1103.68 46.0426 L1106.23 46.6097 Q1114.17 48.3111 1117.49 51.4303 Q1120.85 54.509 1120.85 60.0587 Q1120.85 66.3781 1115.83 70.0644 Q1110.85 73.7508 1102.1 73.7508 Q1098.45 73.7508 1094.48 73.0216 Q1090.55 72.3329 1086.18 70.9151 L1086.18 63.2184 Q1090.31 65.3654 1094.32 66.4591 Q1098.33 67.5124 1102.26 67.5124 Q1107.53 67.5124 1110.36 65.73 Q1113.2 63.9071 1113.2 60.6258 Q1113.2 57.5877 1111.13 55.9673 Q1109.11 54.3469 1102.18 52.8481 L1099.59 52.2405 Q1092.66 50.7821 1089.58 47.7845 Q1086.5 44.7463 1086.5 39.4801 Q1086.5 33.0797 1091.04 29.5959 Q1095.58 26.1121 1103.92 26.1121 Q1108.05 26.1121 1111.7 26.7198 Q1115.35 27.3274 1118.42 28.5427 Z" fill="#000000" fill-rule="nonzero" fill-opacity="1" /><path clip-path="url(#clip710)" d="M1161.65 28.5427 L1161.65 35.5912 Q1158.49 33.9709 1155.08 33.1607 Q1151.68 32.3505 1148.04 32.3505 Q1142.49 32.3505 1139.69 34.0519 Q1136.94 35.7533 1136.94 39.156 Q1136.94 41.7486 1138.92 43.2475 Q1140.91 44.7058 1146.9 46.0426 L1149.45 46.6097 Q1157.39 48.3111 1160.72 51.4303 Q1164.08 54.509 1164.08 60.0587 Q1164.08 66.3781 1159.05 70.0644 Q1154.07 73.7508 1145.32 73.7508 Q1141.68 73.7508 1137.71 73.0216 Q1133.78 72.3329 1129.4 70.9151 L1129.4 63.2184 Q1133.53 65.3654 1137.54 66.4591 Q1141.55 67.5124 1145.48 67.5124 Q1150.75 67.5124 1153.59 65.73 Q1156.42 63.9071 1156.42 60.6258 Q1156.42 57.5877 1154.36 55.9673 Q1152.33 54.3469 1145.4 52.8481 L1142.81 52.2405 Q1135.88 50.7821 1132.8 47.7845 Q1129.73 44.7463 1129.73 39.4801 Q1129.73 33.0797 1134.26 29.5959 Q1138.8 26.1121 1147.15 26.1121 Q1151.28 26.1121 1154.92 26.7198 Q1158.57 27.3274 1161.65 28.5427 Z" fill="#000000" fill-rule="nonzero" fill-opacity="1" /><path clip-path="url(#clip710)" d="M1175.95 27.2059 L1183.4 27.2059 L1183.4 72.576 L1175.95 72.576 L1175.95 27.2059 M1175.95 9.54393 L1183.4 9.54393 L1183.4 18.9825 L1175.95 18.9825 L1175.95 9.54393 Z" fill="#000000" fill-rule="nonzero" fill-opacity="1" /><path clip-path="url(#clip710)" d="M1216.58 32.4315 Q1210.58 32.4315 1207.1 37.1306 Q1203.61 41.7891 1203.61 49.9314 Q1203.61 58.0738 1207.06 62.7728 Q1210.54 67.4314 1216.58 67.4314 Q1222.53 67.4314 1226.02 62.7323 Q1229.5 58.0333 1229.5 49.9314 Q1229.5 41.8701 1226.02 37.1711 Q1222.53 32.4315 1216.58 32.4315 M1216.58 26.1121 Q1226.3 26.1121 1231.85 32.4315 Q1237.4 38.7509 1237.4 49.9314 Q1237.4 61.0714 1231.85 67.4314 Q1226.3 73.7508 1216.58 73.7508 Q1206.81 73.7508 1201.27 67.4314 Q1195.76 61.0714 1195.76 49.9314 Q1195.76 38.7509 1201.27 32.4315 Q1206.81 26.1121 1216.58 26.1121 Z" fill="#000000" fill-rule="nonzero" fill-opacity="1" /><path clip-path="url(#clip710)" d="M1287.47 45.1919 L1287.47 72.576 L1280.01 72.576 L1280.01 45.4349 Q1280.01 38.994 1277.5 35.7938 Q1274.99 32.5936 1269.97 32.5936 Q1263.93 32.5936 1260.45 36.4419 Q1256.97 40.2903 1256.97 46.9338 L1256.97 72.576 L1249.47 72.576 L1249.47 27.2059 L1256.97 27.2059 L1256.97 34.2544 Q1259.64 30.163 1263.24 28.1376 Q1266.89 26.1121 1271.63 26.1121 Q1279.45 26.1121 1283.46 30.9732 Q1287.47 35.7938 1287.47 45.1919 Z" fill="#000000" fill-rule="nonzero" fill-opacity="1" /><path clip-path="url(#clip710)" d="M1304.24 62.2867 L1312.79 62.2867 L1312.79 72.576 L1304.24 72.576 L1304.24 62.2867 M1304.24 29.6769 L1312.79 29.6769 L1312.79 39.9662 L1304.24 39.9662 L1304.24 29.6769 Z" fill="#000000" fill-rule="nonzero" fill-opacity="1" /><path clip-path="url(#clip710)" d="M1356.98 12.096 L1369.18 12.096 L1384.61 53.2532 L1400.12 12.096 L1412.32 12.096 L1412.32 72.576 L1404.34 72.576 L1404.34 19.4686 L1388.74 60.9499 L1380.52 60.9499 L1364.92 19.4686 L1364.92 72.576 L1356.98 72.576 L1356.98 12.096 Z" fill="#000000" fill-rule="nonzero" fill-opacity="1" /><path clip-path="url(#clip710)" d="M1457.24 44.2197 Q1459.87 45.1109 1462.35 48.0275 Q1464.86 50.9442 1467.37 56.0483 L1475.67 72.576 L1466.88 72.576 L1459.15 57.061 Q1456.15 50.9847 1453.31 48.9997 Q1450.52 47.0148 1445.66 47.0148 L1436.74 47.0148 L1436.74 72.576 L1428.56 72.576 L1428.56 12.096 L1447.03 12.096 Q1457.4 12.096 1462.51 16.4305 Q1467.61 20.7649 1467.61 29.5149 Q1467.61 35.2267 1464.94 38.994 Q1462.31 42.7613 1457.24 44.2197 M1436.74 18.8205 L1436.74 40.2903 L1447.03 40.2903 Q1452.95 40.2903 1455.95 37.5762 Q1458.98 34.8216 1458.98 29.5149 Q1458.98 24.2082 1455.95 21.5346 Q1452.95 18.8205 1447.03 18.8205 L1436.74 18.8205 Z" fill="#000000" fill-rule="nonzero" fill-opacity="1" /><path clip-path="url(#clip710)" d="M1503.06 20.1573 L1491.96 50.2555 L1514.2 50.2555 L1503.06 20.1573 M1498.44 12.096 L1507.72 12.096 L1530.77 72.576 L1522.26 72.576 L1516.75 57.061 L1489.49 57.061 L1483.98 72.576 L1475.35 72.576 L1498.44 12.096 Z" fill="#000000" fill-rule="nonzero" fill-opacity="1" /><path clip-path="url(#clip710)" d="M1539.6 12.096 L1577.84 12.096 L1577.84 18.9825 L1547.78 18.9825 L1547.78 36.8875 L1576.58 36.8875 L1576.58 43.7741 L1547.78 43.7741 L1547.78 65.6895 L1578.57 65.6895 L1578.57 72.576 L1539.6 72.576 L1539.6 12.096 Z" fill="#000000" fill-rule="nonzero" fill-opacity="1" /><path clip-path="url(#clip710)" d="M1614.66 9.54393 L1614.66 15.7418 L1607.53 15.7418 Q1603.52 15.7418 1601.94 17.3622 Q1600.4 18.9825 1600.4 23.1955 L1600.4 27.2059 L1612.68 27.2059 L1612.68 32.9987 L1600.4 32.9987 L1600.4 72.576 L1592.91 72.576 L1592.91 32.9987 L1585.78 32.9987 L1585.78 27.2059 L1592.91 27.2059 L1592.91 24.0462 Q1592.91 16.471 1596.43 13.0277 Q1599.96 9.54393 1607.61 9.54393 L1614.66 9.54393 Z" fill="#000000" fill-rule="nonzero" fill-opacity="1" /><path clip-path="url(#clip710)" d="M1641.92 27.2059 L1649.82 27.2059 L1664 65.2844 L1678.18 27.2059 L1686.08 27.2059 L1669.06 72.576 L1658.94 72.576 L1641.92 27.2059 Z" fill="#000000" fill-rule="nonzero" fill-opacity="1" /><path clip-path="url(#clip710)" d="M1725.29 28.5427 L1725.29 35.5912 Q1722.13 33.9709 1718.73 33.1607 Q1715.32 32.3505 1711.68 32.3505 Q1706.13 32.3505 1703.33 34.0519 Q1700.58 35.7533 1700.58 39.156 Q1700.58 41.7486 1702.56 43.2475 Q1704.55 44.7058 1710.54 46.0426 L1713.1 46.6097 Q1721.04 48.3111 1724.36 51.4303 Q1727.72 54.509 1727.72 60.0587 Q1727.72 66.3781 1722.7 70.0644 Q1717.72 73.7508 1708.97 73.7508 Q1705.32 73.7508 1701.35 73.0216 Q1697.42 72.3329 1693.05 70.9151 L1693.05 63.2184 Q1697.18 65.3654 1701.19 66.4591 Q1705.2 67.5124 1709.13 67.5124 Q1714.39 67.5124 1717.23 65.73 Q1720.06 63.9071 1720.06 60.6258 Q1720.06 57.5877 1718 55.9673 Q1715.97 54.3469 1709.05 52.8481 L1706.45 52.2405 Q1699.53 50.7821 1696.45 47.7845 Q1693.37 44.7463 1693.37 39.4801 Q1693.37 33.0797 1697.91 29.5959 Q1702.44 26.1121 1710.79 26.1121 Q1714.92 26.1121 1718.57 26.7198 Q1722.21 27.3274 1725.29 28.5427 Z" fill="#000000" fill-rule="nonzero" fill-opacity="1" /><path clip-path="url(#clip710)" d="M1766.29 12.096 L1774.47 12.096 L1774.47 36.8875 L1804.2 36.8875 L1804.2 12.096 L1812.38 12.096 L1812.38 72.576 L1804.2 72.576 L1804.2 43.7741 L1774.47 43.7741 L1774.47 72.576 L1766.29 72.576 L1766.29 12.096 Z" fill="#000000" fill-rule="nonzero" fill-opacity="1" /><path clip-path="url(#clip710)" d="M1845.93 32.4315 Q1839.93 32.4315 1836.45 37.1306 Q1832.96 41.7891 1832.96 49.9314 Q1832.96 58.0738 1836.41 62.7728 Q1839.89 67.4314 1845.93 67.4314 Q1851.88 67.4314 1855.36 62.7323 Q1858.85 58.0333 1858.85 49.9314 Q1858.85 41.8701 1855.36 37.1711 Q1851.88 32.4315 1845.93 32.4315 M1845.93 26.1121 Q1855.65 26.1121 1861.2 32.4315 Q1866.75 38.7509 1866.75 49.9314 Q1866.75 61.0714 1861.2 67.4314 Q1855.65 73.7508 1845.93 73.7508 Q1836.16 73.7508 1830.61 67.4314 Q1825.1 61.0714 1825.1 49.9314 Q1825.1 38.7509 1830.61 32.4315 Q1836.16 26.1121 1845.93 26.1121 Z" fill="#000000" fill-rule="nonzero" fill-opacity="1" /><path clip-path="url(#clip710)" d="M1905.39 34.1734 Q1904.14 33.4443 1902.64 33.1202 Q1901.18 32.7556 1899.4 32.7556 Q1893.08 32.7556 1889.68 36.8875 Q1886.31 40.9789 1886.31 48.6757 L1886.31 72.576 L1878.82 72.576 L1878.82 27.2059 L1886.31 27.2059 L1886.31 34.2544 Q1888.66 30.1225 1892.43 28.1376 Q1896.2 26.1121 1901.59 26.1121 Q1902.36 26.1121 1903.29 26.2337 Q1904.22 26.3147 1905.35 26.5172 L1905.39 34.1734 Z" fill="#000000" fill-rule="nonzero" fill-opacity="1" /><path clip-path="url(#clip710)" d="M1913.21 27.2059 L1920.67 27.2059 L1920.67 72.576 L1913.21 72.576 L1913.21 27.2059 M1913.21 9.54393 L1920.67 9.54393 L1920.67 18.9825 L1913.21 18.9825 L1913.21 9.54393 Z" fill="#000000" fill-rule="nonzero" fill-opacity="1" /><path clip-path="url(#clip710)" d="M1933.02 27.2059 L1968.43 27.2059 L1968.43 34.0114 L1940.39 66.6212 L1968.43 66.6212 L1968.43 72.576 L1932.01 72.576 L1932.01 65.7705 L1960.04 33.1607 L1933.02 33.1607 L1933.02 27.2059 Z" fill="#000000" fill-rule="nonzero" fill-opacity="1" /><path clip-path="url(#clip710)" d="M1997.39 32.4315 Q1991.39 32.4315 1987.91 37.1306 Q1984.43 41.7891 1984.43 49.9314 Q1984.43 58.0738 1987.87 62.7728 Q1991.35 67.4314 1997.39 67.4314 Q2003.34 67.4314 2006.83 62.7323 Q2010.31 58.0333 2010.31 49.9314 Q2010.31 41.8701 2006.83 37.1711 Q2003.34 32.4315 1997.39 32.4315 M1997.39 26.1121 Q2007.11 26.1121 2012.66 32.4315 Q2018.21 38.7509 2018.21 49.9314 Q2018.21 61.0714 2012.66 67.4314 Q2007.11 73.7508 1997.39 73.7508 Q1987.63 73.7508 1982.08 67.4314 Q1976.57 61.0714 1976.57 49.9314 Q1976.57 38.7509 1982.08 32.4315 Q1987.63 26.1121 1997.39 26.1121 Z" fill="#000000" fill-rule="nonzero" fill-opacity="1" /><path clip-path="url(#clip710)" d="M2068.28 45.1919 L2068.28 72.576 L2060.83 72.576 L2060.83 45.4349 Q2060.83 38.994 2058.32 35.7938 Q2055.8 32.5936 2050.78 32.5936 Q2044.74 32.5936 2041.26 36.4419 Q2037.78 40.2903 2037.78 46.9338 L2037.78 72.576 L2030.28 72.576 L2030.28 27.2059 L2037.78 27.2059 L2037.78 34.2544 Q2040.45 30.163 2044.06 28.1376 Q2047.7 26.1121 2052.44 26.1121 Q2060.26 26.1121 2064.27 30.9732 Q2068.28 35.7938 2068.28 45.1919 Z" fill="#000000" fill-rule="nonzero" fill-opacity="1" /><circle clip-path="url(#clip712)" cx="338.848" cy="160.256" r="14.4" fill="#009af9" fill-rule="evenodd" fill-opacity="1" stroke="#000000" stroke-opacity="1" stroke-width="3.2"/>
<circle clip-path="url(#clip712)" cx="548.339" cy="1086.7" r="14.4" fill="#009af9" fill-rule="evenodd" fill-opacity="1" stroke="#000000" stroke-opacity="1" stroke-width="3.2"/>
<circle clip-path="url(#clip712)" cx="897.491" cy="1276.26" r="14.4" fill="#009af9" fill-rule="evenodd" fill-opacity="1" stroke="#000000" stroke-opacity="1" stroke-width="3.2"/>
<circle clip-path="url(#clip712)" cx="1246.64" cy="1317.19" r="14.4" fill="#009af9" fill-rule="evenodd" fill-opacity="1" stroke="#000000" stroke-opacity="1" stroke-width="3.2"/>
<circle clip-path="url(#clip712)" cx="1595.79" cy="1349.23" r="14.4" fill="#009af9" fill-rule="evenodd" fill-opacity="1" stroke="#000000" stroke-opacity="1" stroke-width="3.2"/>
<circle clip-path="url(#clip712)" cx="2294.1" cy="1384.96" r="14.4" fill="#009af9" fill-rule="evenodd" fill-opacity="1" stroke="#000000" stroke-opacity="1" stroke-width="3.2"/>
<circle clip-path="url(#clip712)" cx="338.848" cy="381.434" r="14.4" fill="#e26f46" fill-rule="evenodd" fill-opacity="1" stroke="#000000" stroke-opacity="1" stroke-width="3.2"/>
<circle clip-path="url(#clip712)" cx="548.339" cy="1166.38" r="14.4" fill="#e26f46" fill-rule="evenodd" fill-opacity="1" stroke="#000000" stroke-opacity="1" stroke-width="3.2"/>
<circle clip-path="url(#clip712)" cx="897.491" cy="1306.92" r="14.4" fill="#e26f46" fill-rule="evenodd" fill-opacity="1" stroke="#000000" stroke-opacity="1" stroke-width="3.2"/>
<circle clip-path="url(#clip712)" cx="1246.64" cy="1327.93" r="14.4" fill="#e26f46" fill-rule="evenodd" fill-opacity="1" stroke="#000000" stroke-opacity="1" stroke-width="3.2"/>
<circle clip-path="url(#clip712)" cx="1595.79" cy="1354.34" r="14.4" fill="#e26f46" fill-rule="evenodd" fill-opacity="1" stroke="#000000" stroke-opacity="1" stroke-width="3.2"/>
<circle clip-path="url(#clip712)" cx="2294.1" cy="1386.4" r="14.4" fill="#e26f46" fill-rule="evenodd" fill-opacity="1" stroke="#000000" stroke-opacity="1" stroke-width="3.2"/>
<path clip-path="url(#clip710)" d="M1771.39 322.316 L2283.67 322.316 L2283.67 166.796 L1771.39 166.796  Z" fill="#ffffff" fill-rule="evenodd" fill-opacity="1"/>
<polyline clip-path="url(#clip710)" style="stroke:#000000; stroke-linecap:round; stroke-linejoin:round; stroke-width:4; stroke-opacity:1; fill:none" points="1771.39,322.316 2283.67,322.316 2283.67,166.796 1771.39,166.796 1771.39,322.316 "/>
<circle clip-path="url(#clip710)" cx="1863.51" cy="218.636" r="20.48" fill="#009af9" fill-rule="evenodd" fill-opacity="1" stroke="#000000" stroke-opacity="1" stroke-width="4.55111"/>
<path clip-path="url(#clip710)" d="M1963.03 202.629 L1963.03 209.99 L1971.8 209.99 L1971.8 213.3 L1963.03 213.3 L1963.03 227.374 Q1963.03 230.545 1963.88 231.448 Q1964.76 232.351 1967.43 232.351 L1971.8 232.351 L1971.8 235.916 L1967.43 235.916 Q1962.5 235.916 1960.62 234.087 Q1958.75 232.235 1958.75 227.374 L1958.75 213.3 L1955.62 213.3 L1955.62 209.99 L1958.75 209.99 L1958.75 202.629 L1963.03 202.629 Z" fill="#000000" fill-rule="nonzero" fill-opacity="1" /><path clip-path="url(#clip710)" d="M1992.43 213.971 Q1991.71 213.555 1990.85 213.37 Q1990.02 213.161 1989 213.161 Q1985.39 213.161 1983.44 215.522 Q1981.52 217.86 1981.52 222.258 L1981.52 235.916 L1977.24 235.916 L1977.24 209.99 L1981.52 209.99 L1981.52 214.018 Q1982.87 211.657 1985.02 210.522 Q1987.17 209.365 1990.25 209.365 Q1990.69 209.365 1991.22 209.434 Q1991.75 209.481 1992.4 209.596 L1992.43 213.971 Z" fill="#000000" fill-rule="nonzero" fill-opacity="1" /><path clip-path="url(#clip710)" d="M2008.68 222.883 Q2003.51 222.883 2001.52 224.064 Q1999.53 225.244 1999.53 228.092 Q1999.53 230.36 2001.01 231.703 Q2002.52 233.022 2005.09 233.022 Q2008.63 233.022 2010.76 230.522 Q2012.91 227.999 2012.91 223.832 L2012.91 222.883 L2008.68 222.883 M2017.17 221.124 L2017.17 235.916 L2012.91 235.916 L2012.91 231.981 Q2011.45 234.342 2009.28 235.476 Q2007.1 236.587 2003.95 236.587 Q1999.97 236.587 1997.61 234.365 Q1995.27 232.119 1995.27 228.369 Q1995.27 223.994 1998.19 221.772 Q2001.13 219.55 2006.94 219.55 L2012.91 219.55 L2012.91 219.133 Q2012.91 216.194 2010.97 214.596 Q2009.05 212.976 2005.55 212.976 Q2003.33 212.976 2001.22 213.508 Q1999.12 214.041 1997.17 215.106 L1997.17 211.17 Q1999.51 210.268 2001.71 209.828 Q2003.91 209.365 2005.99 209.365 Q2011.62 209.365 2014.39 212.282 Q2017.17 215.198 2017.17 221.124 Z" fill="#000000" fill-rule="nonzero" fill-opacity="1" /><path clip-path="url(#clip710)" d="M2025.94 209.99 L2030.2 209.99 L2030.2 235.916 L2025.94 235.916 L2025.94 209.99 M2025.94 199.897 L2030.2 199.897 L2030.2 205.291 L2025.94 205.291 L2025.94 199.897 Z" fill="#000000" fill-rule="nonzero" fill-opacity="1" /><path clip-path="url(#clip710)" d="M2060.67 220.268 L2060.67 235.916 L2056.41 235.916 L2056.41 220.407 Q2056.41 216.726 2054.97 214.897 Q2053.54 213.069 2050.67 213.069 Q2047.22 213.069 2045.23 215.268 Q2043.24 217.467 2043.24 221.263 L2043.24 235.916 L2038.95 235.916 L2038.95 209.99 L2043.24 209.99 L2043.24 214.018 Q2044.76 211.68 2046.82 210.522 Q2048.91 209.365 2051.62 209.365 Q2056.08 209.365 2058.37 212.143 Q2060.67 214.897 2060.67 220.268 Z" fill="#000000" fill-rule="nonzero" fill-opacity="1" /><path clip-path="url(#clip710)" d="M2069.16 209.99 L2073.42 209.99 L2073.42 235.916 L2069.16 235.916 L2069.16 209.99 M2069.16 199.897 L2073.42 199.897 L2073.42 205.291 L2069.16 205.291 L2069.16 199.897 Z" fill="#000000" fill-rule="nonzero" fill-opacity="1" /><path clip-path="url(#clip710)" d="M2103.88 220.268 L2103.88 235.916 L2099.62 235.916 L2099.62 220.407 Q2099.62 216.726 2098.19 214.897 Q2096.75 213.069 2093.88 213.069 Q2090.43 213.069 2088.44 215.268 Q2086.45 217.467 2086.45 221.263 L2086.45 235.916 L2082.17 235.916 L2082.17 209.99 L2086.45 209.99 L2086.45 214.018 Q2087.98 211.68 2090.04 210.522 Q2092.12 209.365 2094.83 209.365 Q2099.3 209.365 2101.59 212.143 Q2103.88 214.897 2103.88 220.268 Z" fill="#000000" fill-rule="nonzero" fill-opacity="1" /><path clip-path="url(#clip710)" d="M2129.44 222.652 Q2129.44 218.022 2127.52 215.476 Q2125.62 212.93 2122.17 212.93 Q2118.74 212.93 2116.82 215.476 Q2114.93 218.022 2114.93 222.652 Q2114.93 227.258 2116.82 229.805 Q2118.74 232.351 2122.17 232.351 Q2125.62 232.351 2127.52 229.805 Q2129.44 227.258 2129.44 222.652 M2133.7 232.698 Q2133.7 239.318 2130.76 242.536 Q2127.82 245.777 2121.75 245.777 Q2119.51 245.777 2117.52 245.43 Q2115.53 245.105 2113.65 244.411 L2113.65 240.268 Q2115.53 241.286 2117.36 241.772 Q2119.18 242.258 2121.08 242.258 Q2125.27 242.258 2127.36 240.059 Q2129.44 237.883 2129.44 233.462 L2129.44 231.356 Q2128.12 233.647 2126.06 234.781 Q2124 235.916 2121.13 235.916 Q2116.36 235.916 2113.44 232.281 Q2110.53 228.647 2110.53 222.652 Q2110.53 216.633 2113.44 212.999 Q2116.36 209.365 2121.13 209.365 Q2124 209.365 2126.06 210.499 Q2128.12 211.633 2129.44 213.925 L2129.44 209.99 L2133.7 209.99 L2133.7 232.698 Z" fill="#000000" fill-rule="nonzero" fill-opacity="1" /><path clip-path="url(#clip710)" d="M2155.39 221.032 L2167.86 221.032 L2167.86 224.828 L2155.39 224.828 L2155.39 221.032 Z" fill="#000000" fill-rule="nonzero" fill-opacity="1" /><path clip-path="url(#clip710)" d="M2191.13 231.981 L2198.77 231.981 L2198.77 205.615 L2190.46 207.282 L2190.46 203.022 L2198.72 201.356 L2203.4 201.356 L2203.4 231.981 L2211.04 231.981 L2211.04 235.916 L2191.13 235.916 L2191.13 231.981 Z" fill="#000000" fill-rule="nonzero" fill-opacity="1" /><circle clip-path="url(#clip710)" cx="1863.51" cy="270.476" r="20.48" fill="#e26f46" fill-rule="evenodd" fill-opacity="1" stroke="#000000" stroke-opacity="1" stroke-width="4.55111"/>
<path clip-path="url(#clip710)" d="M1955.62 261.83 L1960.13 261.83 L1968.24 283.589 L1976.34 261.83 L1980.85 261.83 L1971.13 287.756 L1965.34 287.756 L1955.62 261.83 Z" fill="#000000" fill-rule="nonzero" fill-opacity="1" /><path clip-path="url(#clip710)" d="M1998.51 274.723 Q1993.35 274.723 1991.36 275.904 Q1989.37 277.084 1989.37 279.932 Q1989.37 282.2 1990.85 283.543 Q1992.36 284.862 1994.93 284.862 Q1998.47 284.862 2000.6 282.362 Q2002.75 279.839 2002.75 275.672 L2002.75 274.723 L1998.51 274.723 M2007.01 272.964 L2007.01 287.756 L2002.75 287.756 L2002.75 283.821 Q2001.29 286.182 1999.12 287.316 Q1996.94 288.427 1993.79 288.427 Q1989.81 288.427 1987.45 286.205 Q1985.11 283.959 1985.11 280.209 Q1985.11 275.834 1988.03 273.612 Q1990.97 271.39 1996.78 271.39 L2002.75 271.39 L2002.75 270.973 Q2002.75 268.034 2000.81 266.436 Q1998.88 264.816 1995.39 264.816 Q1993.17 264.816 1991.06 265.348 Q1988.95 265.881 1987.01 266.946 L1987.01 263.01 Q1989.35 262.108 1991.55 261.668 Q1993.75 261.205 1995.83 261.205 Q2001.45 261.205 2004.23 264.122 Q2007.01 267.038 2007.01 272.964 Z" fill="#000000" fill-rule="nonzero" fill-opacity="1" /><path clip-path="url(#clip710)" d="M2015.78 251.737 L2020.04 251.737 L2020.04 287.756 L2015.78 287.756 L2015.78 251.737 Z" fill="#000000" fill-rule="nonzero" fill-opacity="1" /><path clip-path="url(#clip710)" d="M2028.95 261.83 L2033.21 261.83 L2033.21 287.756 L2028.95 287.756 L2028.95 261.83 M2028.95 251.737 L2033.21 251.737 L2033.21 257.131 L2028.95 257.131 L2028.95 251.737 Z" fill="#000000" fill-rule="nonzero" fill-opacity="1" /><path clip-path="url(#clip710)" d="M2059.18 265.765 L2059.18 251.737 L2063.44 251.737 L2063.44 287.756 L2059.18 287.756 L2059.18 283.867 Q2057.84 286.182 2055.78 287.316 Q2053.74 288.427 2050.87 288.427 Q2046.18 288.427 2043.21 284.677 Q2040.27 280.927 2040.27 274.816 Q2040.27 268.705 2043.21 264.955 Q2046.18 261.205 2050.87 261.205 Q2053.74 261.205 2055.78 262.339 Q2057.84 263.45 2059.18 265.765 M2044.67 274.816 Q2044.67 279.515 2046.59 282.2 Q2048.54 284.862 2051.92 284.862 Q2055.3 284.862 2057.24 282.2 Q2059.18 279.515 2059.18 274.816 Q2059.18 270.117 2057.24 267.455 Q2055.3 264.77 2051.92 264.77 Q2048.54 264.77 2046.59 267.455 Q2044.67 270.117 2044.67 274.816 Z" fill="#000000" fill-rule="nonzero" fill-opacity="1" /><path clip-path="url(#clip710)" d="M2084 274.723 Q2078.84 274.723 2076.85 275.904 Q2074.86 277.084 2074.86 279.932 Q2074.86 282.2 2076.34 283.543 Q2077.84 284.862 2080.41 284.862 Q2083.95 284.862 2086.08 282.362 Q2088.24 279.839 2088.24 275.672 L2088.24 274.723 L2084 274.723 M2092.49 272.964 L2092.49 287.756 L2088.24 287.756 L2088.24 283.821 Q2086.78 286.182 2084.6 287.316 Q2082.43 288.427 2079.28 288.427 Q2075.3 288.427 2072.93 286.205 Q2070.6 283.959 2070.6 280.209 Q2070.6 275.834 2073.51 273.612 Q2076.45 271.39 2082.26 271.39 L2088.24 271.39 L2088.24 270.973 Q2088.24 268.034 2086.29 266.436 Q2084.37 264.816 2080.87 264.816 Q2078.65 264.816 2076.55 265.348 Q2074.44 265.881 2072.49 266.946 L2072.49 263.01 Q2074.83 262.108 2077.03 261.668 Q2079.23 261.205 2081.31 261.205 Q2086.94 261.205 2089.72 264.122 Q2092.49 267.038 2092.49 272.964 Z" fill="#000000" fill-rule="nonzero" fill-opacity="1" /><path clip-path="url(#clip710)" d="M2105.48 254.469 L2105.48 261.83 L2114.25 261.83 L2114.25 265.14 L2105.48 265.14 L2105.48 279.214 Q2105.48 282.385 2106.34 283.288 Q2107.22 284.191 2109.88 284.191 L2114.25 284.191 L2114.25 287.756 L2109.88 287.756 Q2104.95 287.756 2103.07 285.927 Q2101.2 284.075 2101.2 279.214 L2101.2 265.14 L2098.07 265.14 L2098.07 261.83 L2101.2 261.83 L2101.2 254.469 L2105.48 254.469 Z" fill="#000000" fill-rule="nonzero" fill-opacity="1" /><path clip-path="url(#clip710)" d="M2119.86 261.83 L2124.11 261.83 L2124.11 287.756 L2119.86 287.756 L2119.86 261.83 M2119.86 251.737 L2124.11 251.737 L2124.11 257.131 L2119.86 257.131 L2119.86 251.737 Z" fill="#000000" fill-rule="nonzero" fill-opacity="1" /><path clip-path="url(#clip710)" d="M2143.07 264.816 Q2139.65 264.816 2137.66 267.501 Q2135.67 270.163 2135.67 274.816 Q2135.67 279.469 2137.63 282.154 Q2139.62 284.816 2143.07 284.816 Q2146.48 284.816 2148.47 282.131 Q2150.46 279.446 2150.46 274.816 Q2150.46 270.21 2148.47 267.524 Q2146.48 264.816 2143.07 264.816 M2143.07 261.205 Q2148.63 261.205 2151.8 264.816 Q2154.97 268.427 2154.97 274.816 Q2154.97 281.182 2151.8 284.816 Q2148.63 288.427 2143.07 288.427 Q2137.49 288.427 2134.32 284.816 Q2131.17 281.182 2131.17 274.816 Q2131.17 268.427 2134.32 264.816 Q2137.49 261.205 2143.07 261.205 Z" fill="#000000" fill-rule="nonzero" fill-opacity="1" /><path clip-path="url(#clip710)" d="M2183.58 272.108 L2183.58 287.756 L2179.32 287.756 L2179.32 272.247 Q2179.32 268.566 2177.89 266.737 Q2176.45 264.909 2173.58 264.909 Q2170.13 264.909 2168.14 267.108 Q2166.15 269.307 2166.15 273.103 L2166.15 287.756 L2161.87 287.756 L2161.87 261.83 L2166.15 261.83 L2166.15 265.858 Q2167.68 263.52 2169.74 262.362 Q2171.82 261.205 2174.53 261.205 Q2179 261.205 2181.29 263.983 Q2183.58 266.737 2183.58 272.108 Z" fill="#000000" fill-rule="nonzero" fill-opacity="1" /><path clip-path="url(#clip710)" d="M2204.99 272.872 L2217.47 272.872 L2217.47 276.668 L2204.99 276.668 L2204.99 272.872 Z" fill="#000000" fill-rule="nonzero" fill-opacity="1" /><path clip-path="url(#clip710)" d="M2240.73 283.821 L2248.37 283.821 L2248.37 257.455 L2240.06 259.122 L2240.06 254.862 L2248.33 253.196 L2253 253.196 L2253 283.821 L2260.64 283.821 L2260.64 287.756 L2240.73 287.756 L2240.73 283.821 Z" fill="#000000" fill-rule="nonzero" fill-opacity="1" /></svg>
