<?xml version="1.0" encoding="utf-8"?>
<svg xmlns="http://www.w3.org/2000/svg" xmlns:xlink="http://www.w3.org/1999/xlink" width="600" height="400" viewBox="0 0 2400 1600">
<defs>
  <clipPath id="clip470">
    <rect x="0" y="0" width="2400" height="1600"/>
  </clipPath>
</defs>
<path clip-path="url(#clip470)" d="M0 1600 L2400 1600 L2400 0 L0 0  Z" fill="#ffffff" fill-rule="evenodd" fill-opacity="1"/>
<defs>
  <clipPath id="clip471">
    <rect x="480" y="0" width="1681" height="1600"/>
  </clipPath>
</defs>
<path clip-path="url(#clip470)" d="M367.409 1423.18 L2352.76 1423.18 L2352.76 123.472 L367.409 123.472  Z" fill="#ffffff" fill-rule="evenodd" fill-opacity="1"/>
<defs>
  <clipPath id="clip472">
    <rect x="367" y="123" width="1986" height="1301"/>
  </clipPath>
</defs>
<polyline clip-path="url(#clip472)" style="stroke:#000000; stroke-linecap:round; stroke-linejoin:round; stroke-width:2; stroke-opacity:0.1; fill:none" points="378.244,1423.18 378.244,123.472 "/>
<polyline clip-path="url(#clip472)" style="stroke:#000000; stroke-linecap:round; stroke-linejoin:round; stroke-width:2; stroke-opacity:0.1; fill:none" points="787.252,1423.18 787.252,123.472 "/>
<polyline clip-path="url(#clip472)" style="stroke:#000000; stroke-linecap:round; stroke-linejoin:round; stroke-width:2; stroke-opacity:0.1; fill:none" points="1156.68,1423.18 1156.68,123.472 "/>
<polyline clip-path="url(#clip472)" style="stroke:#000000; stroke-linecap:round; stroke-linejoin:round; stroke-width:2; stroke-opacity:0.1; fill:none" points="1565.69,1423.18 1565.69,123.472 "/>
<polyline clip-path="url(#clip472)" style="stroke:#000000; stroke-linecap:round; stroke-linejoin:round; stroke-width:2; stroke-opacity:0.1; fill:none" points="1961.5,1423.18 1961.5,123.472 "/>
<polyline clip-path="url(#clip470)" style="stroke:#000000; stroke-linecap:round; stroke-linejoin:round; stroke-width:4; stroke-opacity:1; fill:none" points="367.409,1423.18 2352.76,1423.18 "/>
<polyline clip-path="url(#clip470)" style="stroke:#000000; stroke-linecap:round; stroke-linejoin:round; stroke-width:4; stroke-opacity:1; fill:none" points="378.244,1423.18 378.244,1404.28 "/>
<polyline clip-path="url(#clip470)" style="stroke:#000000; stroke-linecap:round; stroke-linejoin:round; stroke-width:4; stroke-opacity:1; fill:none" points="787.252,1423.18 787.252,1404.28 "/>
<polyline clip-path="url(#clip470)" style="stroke:#000000; stroke-linecap:round; stroke-linejoin:round; stroke-width:4; stroke-opacity:1; fill:none" points="1156.68,1423.18 1156.68,1404.28 "/>
<polyline clip-path="url(#clip470)" style="stroke:#000000; stroke-linecap:round; stroke-linejoin:round; stroke-width:4; stroke-opacity:1; fill:none" points="1565.69,1423.18 1565.69,1404.28 "/>
<polyline clip-path="url(#clip470)" style="stroke:#000000; stroke-linecap:round; stroke-linejoin:round; stroke-width:4; stroke-opacity:1; fill:none" points="1961.5,1423.18 1961.5,1404.28 "/>
<path clip-path="url(#clip470)" d="M250.039 1481.64 L266.358 1481.64 L266.358 1485.58 L244.414 1485.58 L244.414 1481.64 Q247.076 1478.89 251.659 1474.26 Q256.266 1469.61 257.446 1468.27 Q259.692 1465.74 260.571 1464.01 Q261.474 1462.25 261.474 1460.56 Q261.474 1457.8 259.53 1456.07 Q257.608 1454.33 254.507 1454.33 Q252.307 1454.33 249.854 1455.09 Q247.423 1455.86 244.645 1457.41 L244.645 1452.69 Q247.47 1451.55 249.923 1450.97 Q252.377 1450.39 254.414 1450.39 Q259.784 1450.39 262.979 1453.08 Q266.173 1455.77 266.173 1460.26 Q266.173 1462.39 265.363 1464.31 Q264.576 1466.2 262.469 1468.8 Q261.891 1469.47 258.789 1472.69 Q255.687 1475.88 250.039 1481.64 Z" fill="#000000" fill-rule="nonzero" fill-opacity="1" /><path clip-path="url(#clip470)" d="M286.173 1454.1 Q282.562 1454.1 280.733 1457.66 Q278.928 1461.2 278.928 1468.33 Q278.928 1475.44 280.733 1479.01 Q282.562 1482.55 286.173 1482.55 Q289.807 1482.55 291.613 1479.01 Q293.441 1475.44 293.441 1468.33 Q293.441 1461.2 291.613 1457.66 Q289.807 1454.1 286.173 1454.1 M286.173 1450.39 Q291.983 1450.39 295.039 1455 Q298.117 1459.58 298.117 1468.33 Q298.117 1477.06 295.039 1481.67 Q291.983 1486.25 286.173 1486.25 Q280.363 1486.25 277.284 1481.67 Q274.229 1477.06 274.229 1468.33 Q274.229 1459.58 277.284 1455 Q280.363 1450.39 286.173 1450.39 Z" fill="#000000" fill-rule="nonzero" fill-opacity="1" /><path clip-path="url(#clip470)" d="M310.363 1481.64 L326.682 1481.64 L326.682 1485.58 L304.738 1485.58 L304.738 1481.64 Q307.4 1478.89 311.983 1474.26 Q316.59 1469.61 317.77 1468.27 Q320.015 1465.74 320.895 1464.01 Q321.798 1462.25 321.798 1460.56 Q321.798 1457.8 319.853 1456.07 Q317.932 1454.33 314.83 1454.33 Q312.631 1454.33 310.178 1455.09 Q307.747 1455.86 304.969 1457.41 L304.969 1452.69 Q307.793 1451.55 310.247 1450.97 Q312.701 1450.39 314.738 1450.39 Q320.108 1450.39 323.302 1453.08 Q326.497 1455.77 326.497 1460.26 Q326.497 1462.39 325.687 1464.31 Q324.9 1466.2 322.793 1468.8 Q322.214 1469.47 319.113 1472.69 Q316.011 1475.88 310.363 1481.64 Z" fill="#000000" fill-rule="nonzero" fill-opacity="1" /><path clip-path="url(#clip470)" d="M337.307 1481.64 L344.946 1481.64 L344.946 1455.28 L336.636 1456.95 L336.636 1452.69 L344.9 1451.02 L349.575 1451.02 L349.575 1481.64 L357.214 1481.64 L357.214 1485.58 L337.307 1485.58 L337.307 1481.64 Z" fill="#000000" fill-rule="nonzero" fill-opacity="1" /><path clip-path="url(#clip470)" d="M363.904 1470.7 L376.381 1470.7 L376.381 1474.49 L363.904 1474.49 L363.904 1470.7 Z" fill="#000000" fill-rule="nonzero" fill-opacity="1" /><path clip-path="url(#clip470)" d="M393.765 1454.1 Q390.154 1454.1 388.325 1457.66 Q386.52 1461.2 386.52 1468.33 Q386.52 1475.44 388.325 1479.01 Q390.154 1482.55 393.765 1482.55 Q397.399 1482.55 399.205 1479.01 Q401.034 1475.44 401.034 1468.33 Q401.034 1461.2 399.205 1457.66 Q397.399 1454.1 393.765 1454.1 M393.765 1450.39 Q399.575 1450.39 402.631 1455 Q405.709 1459.58 405.709 1468.33 Q405.709 1477.06 402.631 1481.67 Q399.575 1486.25 393.765 1486.25 Q387.955 1486.25 384.876 1481.67 Q381.821 1477.06 381.821 1468.33 Q381.821 1459.58 384.876 1455 Q387.955 1450.39 393.765 1450.39 Z" fill="#000000" fill-rule="nonzero" fill-opacity="1" /><path clip-path="url(#clip470)" d="M414.737 1481.64 L422.376 1481.64 L422.376 1455.28 L414.066 1456.95 L414.066 1452.69 L422.33 1451.02 L427.006 1451.02 L427.006 1481.64 L434.644 1481.64 L434.644 1485.58 L414.737 1485.58 L414.737 1481.64 Z" fill="#000000" fill-rule="nonzero" fill-opacity="1" /><path clip-path="url(#clip470)" d="M441.334 1470.7 L453.811 1470.7 L453.811 1474.49 L441.334 1474.49 L441.334 1470.7 Z" fill="#000000" fill-rule="nonzero" fill-opacity="1" /><path clip-path="url(#clip470)" d="M471.195 1454.1 Q467.584 1454.1 465.755 1457.66 Q463.95 1461.2 463.95 1468.33 Q463.95 1475.44 465.755 1479.01 Q467.584 1482.55 471.195 1482.55 Q474.829 1482.55 476.635 1479.01 Q478.464 1475.44 478.464 1468.33 Q478.464 1461.2 476.635 1457.66 Q474.829 1454.1 471.195 1454.1 M471.195 1450.39 Q477.005 1450.39 480.061 1455 Q483.14 1459.58 483.14 1468.33 Q483.14 1477.06 480.061 1481.67 Q477.005 1486.25 471.195 1486.25 Q465.385 1486.25 462.306 1481.67 Q459.251 1477.06 459.251 1468.33 Q459.251 1459.58 462.306 1455 Q465.385 1450.39 471.195 1450.39 Z" fill="#000000" fill-rule="nonzero" fill-opacity="1" /><path clip-path="url(#clip470)" d="M492.167 1481.64 L499.806 1481.64 L499.806 1455.28 L491.496 1456.95 L491.496 1452.69 L499.76 1451.02 L504.436 1451.02 L504.436 1481.64 L512.075 1481.64 L512.075 1485.58 L492.167 1485.58 L492.167 1481.64 Z" fill="#000000" fill-rule="nonzero" fill-opacity="1" /><path clip-path="url(#clip470)" d="M659.047 1481.64 L675.366 1481.64 L675.366 1485.58 L653.422 1485.58 L653.422 1481.64 Q656.084 1478.89 660.667 1474.26 Q665.273 1469.61 666.454 1468.27 Q668.699 1465.74 669.579 1464.01 Q670.482 1462.25 670.482 1460.56 Q670.482 1457.8 668.537 1456.07 Q666.616 1454.33 663.514 1454.33 Q661.315 1454.33 658.861 1455.09 Q656.431 1455.86 653.653 1457.41 L653.653 1452.69 Q656.477 1451.55 658.931 1450.97 Q661.384 1450.39 663.422 1450.39 Q668.792 1450.39 671.986 1453.08 Q675.181 1455.77 675.181 1460.26 Q675.181 1462.39 674.371 1464.31 Q673.583 1466.2 671.477 1468.8 Q670.898 1469.47 667.796 1472.69 Q664.695 1475.88 659.047 1481.64 Z" fill="#000000" fill-rule="nonzero" fill-opacity="1" /><path clip-path="url(#clip470)" d="M695.181 1454.1 Q691.57 1454.1 689.741 1457.66 Q687.935 1461.2 687.935 1468.33 Q687.935 1475.44 689.741 1479.01 Q691.57 1482.55 695.181 1482.55 Q698.815 1482.55 700.62 1479.01 Q702.449 1475.44 702.449 1468.33 Q702.449 1461.2 700.62 1457.66 Q698.815 1454.1 695.181 1454.1 M695.181 1450.39 Q700.991 1450.39 704.046 1455 Q707.125 1459.58 707.125 1468.33 Q707.125 1477.06 704.046 1481.67 Q700.991 1486.25 695.181 1486.25 Q689.37 1486.25 686.292 1481.67 Q683.236 1477.06 683.236 1468.33 Q683.236 1459.58 686.292 1455 Q689.37 1450.39 695.181 1450.39 Z" fill="#000000" fill-rule="nonzero" fill-opacity="1" /><path clip-path="url(#clip470)" d="M719.37 1481.64 L735.69 1481.64 L735.69 1485.58 L713.745 1485.58 L713.745 1481.64 Q716.407 1478.89 720.991 1474.26 Q725.597 1469.61 726.778 1468.27 Q729.023 1465.74 729.903 1464.01 Q730.805 1462.25 730.805 1460.56 Q730.805 1457.8 728.861 1456.07 Q726.94 1454.33 723.838 1454.33 Q721.639 1454.33 719.185 1455.09 Q716.755 1455.86 713.977 1457.41 L713.977 1452.69 Q716.801 1451.55 719.255 1450.97 Q721.708 1450.39 723.745 1450.39 Q729.116 1450.39 732.31 1453.08 Q735.504 1455.77 735.504 1460.26 Q735.504 1462.39 734.694 1464.31 Q733.907 1466.2 731.801 1468.8 Q731.222 1469.47 728.12 1472.69 Q725.018 1475.88 719.37 1481.64 Z" fill="#000000" fill-rule="nonzero" fill-opacity="1" /><path clip-path="url(#clip470)" d="M746.315 1481.64 L753.953 1481.64 L753.953 1455.28 L745.643 1456.95 L745.643 1452.69 L753.907 1451.02 L758.583 1451.02 L758.583 1481.64 L766.222 1481.64 L766.222 1485.58 L746.315 1485.58 L746.315 1481.64 Z" fill="#000000" fill-rule="nonzero" fill-opacity="1" /><path clip-path="url(#clip470)" d="M772.912 1470.7 L785.388 1470.7 L785.388 1474.49 L772.912 1474.49 L772.912 1470.7 Z" fill="#000000" fill-rule="nonzero" fill-opacity="1" /><path clip-path="url(#clip470)" d="M802.773 1454.1 Q799.162 1454.1 797.333 1457.66 Q795.527 1461.2 795.527 1468.33 Q795.527 1475.44 797.333 1479.01 Q799.162 1482.55 802.773 1482.55 Q806.407 1482.55 808.212 1479.01 Q810.041 1475.44 810.041 1468.33 Q810.041 1461.2 808.212 1457.66 Q806.407 1454.1 802.773 1454.1 M802.773 1450.39 Q808.583 1450.39 811.638 1455 Q814.717 1459.58 814.717 1468.33 Q814.717 1477.06 811.638 1481.67 Q808.583 1486.25 802.773 1486.25 Q796.962 1486.25 793.884 1481.67 Q790.828 1477.06 790.828 1468.33 Q790.828 1459.58 793.884 1455 Q796.962 1450.39 802.773 1450.39 Z" fill="#000000" fill-rule="nonzero" fill-opacity="1" /><path clip-path="url(#clip470)" d="M826.962 1481.64 L843.282 1481.64 L843.282 1485.58 L821.337 1485.58 L821.337 1481.64 Q823.999 1478.89 828.583 1474.26 Q833.189 1469.61 834.37 1468.27 Q836.615 1465.74 837.495 1464.01 Q838.397 1462.25 838.397 1460.56 Q838.397 1457.8 836.453 1456.07 Q834.532 1454.33 831.43 1454.33 Q829.231 1454.33 826.777 1455.09 Q824.347 1455.86 821.569 1457.41 L821.569 1452.69 Q824.393 1451.55 826.847 1450.97 Q829.3 1450.39 831.337 1450.39 Q836.708 1450.39 839.902 1453.08 Q843.096 1455.77 843.096 1460.26 Q843.096 1462.39 842.286 1464.31 Q841.499 1466.2 839.393 1468.8 Q838.814 1469.47 835.712 1472.69 Q832.61 1475.88 826.962 1481.64 Z" fill="#000000" fill-rule="nonzero" fill-opacity="1" /><path clip-path="url(#clip470)" d="M850.342 1470.7 L862.819 1470.7 L862.819 1474.49 L850.342 1474.49 L850.342 1470.7 Z" fill="#000000" fill-rule="nonzero" fill-opacity="1" /><path clip-path="url(#clip470)" d="M880.203 1454.1 Q876.592 1454.1 874.763 1457.66 Q872.957 1461.2 872.957 1468.33 Q872.957 1475.44 874.763 1479.01 Q876.592 1482.55 880.203 1482.55 Q883.837 1482.55 885.643 1479.01 Q887.471 1475.44 887.471 1468.33 Q887.471 1461.2 885.643 1457.66 Q883.837 1454.1 880.203 1454.1 M880.203 1450.39 Q886.013 1450.39 889.068 1455 Q892.147 1459.58 892.147 1468.33 Q892.147 1477.06 889.068 1481.67 Q886.013 1486.25 880.203 1486.25 Q874.393 1486.25 871.314 1481.67 Q868.258 1477.06 868.258 1468.33 Q868.258 1459.58 871.314 1455 Q874.393 1450.39 880.203 1450.39 Z" fill="#000000" fill-rule="nonzero" fill-opacity="1" /><path clip-path="url(#clip470)" d="M901.175 1481.64 L908.814 1481.64 L908.814 1455.28 L900.504 1456.95 L900.504 1452.69 L908.767 1451.02 L913.443 1451.02 L913.443 1481.64 L921.082 1481.64 L921.082 1485.58 L901.175 1485.58 L901.175 1481.64 Z" fill="#000000" fill-rule="nonzero" fill-opacity="1" /><path clip-path="url(#clip470)" d="M1028.47 1481.64 L1044.79 1481.64 L1044.79 1485.58 L1022.85 1485.58 L1022.85 1481.64 Q1025.51 1478.89 1030.09 1474.26 Q1034.7 1469.61 1035.88 1468.27 Q1038.13 1465.74 1039.01 1464.01 Q1039.91 1462.25 1039.91 1460.56 Q1039.91 1457.8 1037.96 1456.07 Q1036.04 1454.33 1032.94 1454.33 Q1030.74 1454.33 1028.29 1455.09 Q1025.86 1455.86 1023.08 1457.41 L1023.08 1452.69 Q1025.9 1451.55 1028.36 1450.97 Q1030.81 1450.39 1032.85 1450.39 Q1038.22 1450.39 1041.41 1453.08 Q1044.61 1455.77 1044.61 1460.26 Q1044.61 1462.39 1043.8 1464.31 Q1043.01 1466.2 1040.9 1468.8 Q1040.32 1469.47 1037.22 1472.69 Q1034.12 1475.88 1028.47 1481.64 Z" fill="#000000" fill-rule="nonzero" fill-opacity="1" /><path clip-path="url(#clip470)" d="M1064.61 1454.1 Q1061 1454.1 1059.17 1457.66 Q1057.36 1461.2 1057.36 1468.33 Q1057.36 1475.44 1059.17 1479.01 Q1061 1482.55 1064.61 1482.55 Q1068.24 1482.55 1070.05 1479.01 Q1071.88 1475.44 1071.88 1468.33 Q1071.88 1461.2 1070.05 1457.66 Q1068.24 1454.1 1064.61 1454.1 M1064.61 1450.39 Q1070.42 1450.39 1073.47 1455 Q1076.55 1459.58 1076.55 1468.33 Q1076.55 1477.06 1073.47 1481.67 Q1070.42 1486.25 1064.61 1486.25 Q1058.8 1486.25 1055.72 1481.67 Q1052.66 1477.06 1052.66 1468.33 Q1052.66 1459.58 1055.72 1455 Q1058.8 1450.39 1064.61 1450.39 Z" fill="#000000" fill-rule="nonzero" fill-opacity="1" /><path clip-path="url(#clip470)" d="M1088.8 1481.64 L1105.12 1481.64 L1105.12 1485.58 L1083.17 1485.58 L1083.17 1481.64 Q1085.83 1478.89 1090.42 1474.26 Q1095.02 1469.61 1096.2 1468.27 Q1098.45 1465.74 1099.33 1464.01 Q1100.23 1462.25 1100.23 1460.56 Q1100.23 1457.8 1098.29 1456.07 Q1096.37 1454.33 1093.26 1454.33 Q1091.07 1454.33 1088.61 1455.09 Q1086.18 1455.86 1083.4 1457.41 L1083.4 1452.69 Q1086.23 1451.55 1088.68 1450.97 Q1091.13 1450.39 1093.17 1450.39 Q1098.54 1450.39 1101.74 1453.08 Q1104.93 1455.77 1104.93 1460.26 Q1104.93 1462.39 1104.12 1464.31 Q1103.33 1466.2 1101.23 1468.8 Q1100.65 1469.47 1097.55 1472.69 Q1094.44 1475.88 1088.8 1481.64 Z" fill="#000000" fill-rule="nonzero" fill-opacity="1" /><path clip-path="url(#clip470)" d="M1115.74 1481.64 L1123.38 1481.64 L1123.38 1455.28 L1115.07 1456.95 L1115.07 1452.69 L1123.33 1451.02 L1128.01 1451.02 L1128.01 1481.64 L1135.65 1481.64 L1135.65 1485.58 L1115.74 1485.58 L1115.74 1481.64 Z" fill="#000000" fill-rule="nonzero" fill-opacity="1" /><path clip-path="url(#clip470)" d="M1142.34 1470.7 L1154.81 1470.7 L1154.81 1474.49 L1142.34 1474.49 L1142.34 1470.7 Z" fill="#000000" fill-rule="nonzero" fill-opacity="1" /><path clip-path="url(#clip470)" d="M1172.2 1454.1 Q1168.59 1454.1 1166.76 1457.66 Q1164.95 1461.2 1164.95 1468.33 Q1164.95 1475.44 1166.76 1479.01 Q1168.59 1482.55 1172.2 1482.55 Q1175.83 1482.55 1177.64 1479.01 Q1179.47 1475.44 1179.47 1468.33 Q1179.47 1461.2 1177.64 1457.66 Q1175.83 1454.1 1172.2 1454.1 M1172.2 1450.39 Q1178.01 1450.39 1181.06 1455 Q1184.14 1459.58 1184.14 1468.33 Q1184.14 1477.06 1181.06 1481.67 Q1178.01 1486.25 1172.2 1486.25 Q1166.39 1486.25 1163.31 1481.67 Q1160.25 1477.06 1160.25 1468.33 Q1160.25 1459.58 1163.31 1455 Q1166.39 1450.39 1172.2 1450.39 Z" fill="#000000" fill-rule="nonzero" fill-opacity="1" /><path clip-path="url(#clip470)" d="M1206.53 1466.95 Q1209.88 1467.66 1211.76 1469.93 Q1213.66 1472.2 1213.66 1475.53 Q1213.66 1480.65 1210.14 1483.45 Q1206.62 1486.25 1200.14 1486.25 Q1197.96 1486.25 1195.65 1485.81 Q1193.36 1485.39 1190.9 1484.54 L1190.9 1480.02 Q1192.85 1481.16 1195.16 1481.74 Q1197.48 1482.32 1200 1482.32 Q1204.4 1482.32 1206.69 1480.58 Q1209 1478.84 1209 1475.53 Q1209 1472.48 1206.85 1470.77 Q1204.72 1469.03 1200.9 1469.03 L1196.87 1469.03 L1196.87 1465.19 L1201.09 1465.19 Q1204.54 1465.19 1206.37 1463.82 Q1208.19 1462.43 1208.19 1459.84 Q1208.19 1457.18 1206.3 1455.77 Q1204.42 1454.33 1200.9 1454.33 Q1198.98 1454.33 1196.78 1454.75 Q1194.58 1455.16 1191.94 1456.04 L1191.94 1451.88 Q1194.61 1451.14 1196.92 1450.77 Q1199.26 1450.39 1201.32 1450.39 Q1206.64 1450.39 1209.74 1452.83 Q1212.85 1455.23 1212.85 1459.35 Q1212.85 1462.22 1211.2 1464.21 Q1209.56 1466.18 1206.53 1466.95 Z" fill="#000000" fill-rule="nonzero" fill-opacity="1" /><path clip-path="url(#clip470)" d="M1219.77 1470.7 L1232.24 1470.7 L1232.24 1474.49 L1219.77 1474.49 L1219.77 1470.7 Z" fill="#000000" fill-rule="nonzero" fill-opacity="1" /><path clip-path="url(#clip470)" d="M1249.63 1454.1 Q1246.02 1454.1 1244.19 1457.66 Q1242.38 1461.2 1242.38 1468.33 Q1242.38 1475.44 1244.19 1479.01 Q1246.02 1482.55 1249.63 1482.55 Q1253.26 1482.55 1255.07 1479.01 Q1256.9 1475.44 1256.9 1468.33 Q1256.9 1461.2 1255.07 1457.66 Q1253.26 1454.1 1249.63 1454.1 M1249.63 1450.39 Q1255.44 1450.39 1258.49 1455 Q1261.57 1459.58 1261.57 1468.33 Q1261.57 1477.06 1258.49 1481.67 Q1255.44 1486.25 1249.63 1486.25 Q1243.82 1486.25 1240.74 1481.67 Q1237.68 1477.06 1237.68 1468.33 Q1237.68 1459.58 1240.74 1455 Q1243.82 1450.39 1249.63 1450.39 Z" fill="#000000" fill-rule="nonzero" fill-opacity="1" /><path clip-path="url(#clip470)" d="M1270.6 1481.64 L1278.24 1481.64 L1278.24 1455.28 L1269.93 1456.95 L1269.93 1452.69 L1278.19 1451.02 L1282.87 1451.02 L1282.87 1481.64 L1290.51 1481.64 L1290.51 1485.58 L1270.6 1485.58 L1270.6 1481.64 Z" fill="#000000" fill-rule="nonzero" fill-opacity="1" /><path clip-path="url(#clip470)" d="M1437.48 1481.64 L1453.8 1481.64 L1453.8 1485.58 L1431.86 1485.58 L1431.86 1481.64 Q1434.52 1478.89 1439.1 1474.26 Q1443.71 1469.61 1444.89 1468.27 Q1447.13 1465.74 1448.01 1464.01 Q1448.92 1462.25 1448.92 1460.56 Q1448.92 1457.8 1446.97 1456.07 Q1445.05 1454.33 1441.95 1454.33 Q1439.75 1454.33 1437.3 1455.09 Q1434.86 1455.86 1432.09 1457.41 L1432.09 1452.69 Q1434.91 1451.55 1437.36 1450.97 Q1439.82 1450.39 1441.86 1450.39 Q1447.23 1450.39 1450.42 1453.08 Q1453.61 1455.77 1453.61 1460.26 Q1453.61 1462.39 1452.8 1464.31 Q1452.02 1466.2 1449.91 1468.8 Q1449.33 1469.47 1446.23 1472.69 Q1443.13 1475.88 1437.48 1481.64 Z" fill="#000000" fill-rule="nonzero" fill-opacity="1" /><path clip-path="url(#clip470)" d="M1473.61 1454.1 Q1470 1454.1 1468.17 1457.66 Q1466.37 1461.2 1466.37 1468.33 Q1466.37 1475.44 1468.17 1479.01 Q1470 1482.55 1473.61 1482.55 Q1477.25 1482.55 1479.05 1479.01 Q1480.88 1475.44 1480.88 1468.33 Q1480.88 1461.2 1479.05 1457.66 Q1477.25 1454.1 1473.61 1454.1 M1473.61 1450.39 Q1479.42 1450.39 1482.48 1455 Q1485.56 1459.58 1485.56 1468.33 Q1485.56 1477.06 1482.48 1481.67 Q1479.42 1486.25 1473.61 1486.25 Q1467.8 1486.25 1464.73 1481.67 Q1461.67 1477.06 1461.67 1468.33 Q1461.67 1459.58 1464.73 1455 Q1467.8 1450.39 1473.61 1450.39 Z" fill="#000000" fill-rule="nonzero" fill-opacity="1" /><path clip-path="url(#clip470)" d="M1497.8 1481.64 L1514.12 1481.64 L1514.12 1485.58 L1492.18 1485.58 L1492.18 1481.64 Q1494.84 1478.89 1499.42 1474.26 Q1504.03 1469.61 1505.21 1468.27 Q1507.46 1465.74 1508.34 1464.01 Q1509.24 1462.25 1509.24 1460.56 Q1509.24 1457.8 1507.29 1456.07 Q1505.37 1454.33 1502.27 1454.33 Q1500.07 1454.33 1497.62 1455.09 Q1495.19 1455.86 1492.41 1457.41 L1492.41 1452.69 Q1495.23 1451.55 1497.69 1450.97 Q1500.14 1450.39 1502.18 1450.39 Q1507.55 1450.39 1510.74 1453.08 Q1513.94 1455.77 1513.94 1460.26 Q1513.94 1462.39 1513.13 1464.31 Q1512.34 1466.2 1510.23 1468.8 Q1509.66 1469.47 1506.55 1472.69 Q1503.45 1475.88 1497.8 1481.64 Z" fill="#000000" fill-rule="nonzero" fill-opacity="1" /><path clip-path="url(#clip470)" d="M1524.75 1481.64 L1532.39 1481.64 L1532.39 1455.28 L1524.08 1456.95 L1524.08 1452.69 L1532.34 1451.02 L1537.02 1451.02 L1537.02 1481.64 L1544.66 1481.64 L1544.66 1485.58 L1524.75 1485.58 L1524.75 1481.64 Z" fill="#000000" fill-rule="nonzero" fill-opacity="1" /><path clip-path="url(#clip470)" d="M1551.35 1470.7 L1563.82 1470.7 L1563.82 1474.49 L1551.35 1474.49 L1551.35 1470.7 Z" fill="#000000" fill-rule="nonzero" fill-opacity="1" /><path clip-path="url(#clip470)" d="M1581.21 1454.1 Q1577.6 1454.1 1575.77 1457.66 Q1573.96 1461.2 1573.96 1468.33 Q1573.96 1475.44 1575.77 1479.01 Q1577.6 1482.55 1581.21 1482.55 Q1584.84 1482.55 1586.65 1479.01 Q1588.47 1475.44 1588.47 1468.33 Q1588.47 1461.2 1586.65 1457.66 Q1584.84 1454.1 1581.21 1454.1 M1581.21 1450.39 Q1587.02 1450.39 1590.07 1455 Q1593.15 1459.58 1593.15 1468.33 Q1593.15 1477.06 1590.07 1481.67 Q1587.02 1486.25 1581.21 1486.25 Q1575.4 1486.25 1572.32 1481.67 Q1569.26 1477.06 1569.26 1468.33 Q1569.26 1459.58 1572.32 1455 Q1575.4 1450.39 1581.21 1450.39 Z" fill="#000000" fill-rule="nonzero" fill-opacity="1" /><path clip-path="url(#clip470)" d="M1614.22 1455.09 L1602.41 1473.54 L1614.22 1473.54 L1614.22 1455.09 M1612.99 1451.02 L1618.87 1451.02 L1618.87 1473.54 L1623.8 1473.54 L1623.8 1477.43 L1618.87 1477.43 L1618.87 1485.58 L1614.22 1485.58 L1614.22 1477.43 L1598.61 1477.43 L1598.61 1472.92 L1612.99 1451.02 Z" fill="#000000" fill-rule="nonzero" fill-opacity="1" /><path clip-path="url(#clip470)" d="M1628.78 1470.7 L1641.25 1470.7 L1641.25 1474.49 L1628.78 1474.49 L1628.78 1470.7 Z" fill="#000000" fill-rule="nonzero" fill-opacity="1" /><path clip-path="url(#clip470)" d="M1658.64 1454.1 Q1655.03 1454.1 1653.2 1457.66 Q1651.39 1461.2 1651.39 1468.33 Q1651.39 1475.44 1653.2 1479.01 Q1655.03 1482.55 1658.64 1482.55 Q1662.27 1482.55 1664.08 1479.01 Q1665.91 1475.44 1665.91 1468.33 Q1665.91 1461.2 1664.08 1457.66 Q1662.27 1454.1 1658.64 1454.1 M1658.64 1450.39 Q1664.45 1450.39 1667.5 1455 Q1670.58 1459.58 1670.58 1468.33 Q1670.58 1477.06 1667.5 1481.67 Q1664.45 1486.25 1658.64 1486.25 Q1652.83 1486.25 1649.75 1481.67 Q1646.69 1477.06 1646.69 1468.33 Q1646.69 1459.58 1649.75 1455 Q1652.83 1450.39 1658.64 1450.39 Z" fill="#000000" fill-rule="nonzero" fill-opacity="1" /><path clip-path="url(#clip470)" d="M1679.61 1481.64 L1687.25 1481.64 L1687.25 1455.28 L1678.94 1456.95 L1678.94 1452.69 L1687.2 1451.02 L1691.88 1451.02 L1691.88 1481.64 L1699.52 1481.64 L1699.52 1485.58 L1679.61 1485.58 L1679.61 1481.64 Z" fill="#000000" fill-rule="nonzero" fill-opacity="1" /><path clip-path="url(#clip470)" d="M1833.29 1481.64 L1849.61 1481.64 L1849.61 1485.58 L1827.67 1485.58 L1827.67 1481.64 Q1830.33 1478.89 1834.91 1474.26 Q1839.52 1469.61 1840.7 1468.27 Q1842.95 1465.74 1843.83 1464.01 Q1844.73 1462.25 1844.73 1460.56 Q1844.73 1457.8 1842.78 1456.07 Q1840.86 1454.33 1837.76 1454.33 Q1835.56 1454.33 1833.11 1455.09 Q1830.68 1455.86 1827.9 1457.41 L1827.9 1452.69 Q1830.72 1451.55 1833.18 1450.97 Q1835.63 1450.39 1837.67 1450.39 Q1843.04 1450.39 1846.23 1453.08 Q1849.43 1455.77 1849.43 1460.26 Q1849.43 1462.39 1848.62 1464.31 Q1847.83 1466.2 1845.72 1468.8 Q1845.15 1469.47 1842.04 1472.69 Q1838.94 1475.88 1833.29 1481.64 Z" fill="#000000" fill-rule="nonzero" fill-opacity="1" /><path clip-path="url(#clip470)" d="M1869.43 1454.1 Q1865.82 1454.1 1863.99 1457.66 Q1862.18 1461.2 1862.18 1468.33 Q1862.18 1475.44 1863.99 1479.01 Q1865.82 1482.55 1869.43 1482.55 Q1873.06 1482.55 1874.87 1479.01 Q1876.7 1475.44 1876.7 1468.33 Q1876.7 1461.2 1874.87 1457.66 Q1873.06 1454.1 1869.43 1454.1 M1869.43 1450.39 Q1875.24 1450.39 1878.29 1455 Q1881.37 1459.58 1881.37 1468.33 Q1881.37 1477.06 1878.29 1481.67 Q1875.24 1486.25 1869.43 1486.25 Q1863.62 1486.25 1860.54 1481.67 Q1857.48 1477.06 1857.48 1468.33 Q1857.48 1459.58 1860.54 1455 Q1863.62 1450.39 1869.43 1450.39 Z" fill="#000000" fill-rule="nonzero" fill-opacity="1" /><path clip-path="url(#clip470)" d="M1893.62 1481.64 L1909.94 1481.64 L1909.94 1485.58 L1887.99 1485.58 L1887.99 1481.64 Q1890.65 1478.89 1895.24 1474.26 Q1899.84 1469.61 1901.03 1468.27 Q1903.27 1465.74 1904.15 1464.01 Q1905.05 1462.25 1905.05 1460.56 Q1905.05 1457.8 1903.11 1456.07 Q1901.19 1454.33 1898.09 1454.33 Q1895.89 1454.33 1893.43 1455.09 Q1891 1455.86 1888.22 1457.41 L1888.22 1452.69 Q1891.05 1451.55 1893.5 1450.97 Q1895.96 1450.39 1897.99 1450.39 Q1903.36 1450.39 1906.56 1453.08 Q1909.75 1455.77 1909.75 1460.26 Q1909.75 1462.39 1908.94 1464.31 Q1908.15 1466.2 1906.05 1468.8 Q1905.47 1469.47 1902.37 1472.69 Q1899.27 1475.88 1893.62 1481.64 Z" fill="#000000" fill-rule="nonzero" fill-opacity="1" /><path clip-path="url(#clip470)" d="M1920.56 1481.64 L1928.2 1481.64 L1928.2 1455.28 L1919.89 1456.95 L1919.89 1452.69 L1928.15 1451.02 L1932.83 1451.02 L1932.83 1481.64 L1940.47 1481.64 L1940.47 1485.58 L1920.56 1485.58 L1920.56 1481.64 Z" fill="#000000" fill-rule="nonzero" fill-opacity="1" /><path clip-path="url(#clip470)" d="M1947.16 1470.7 L1959.64 1470.7 L1959.64 1474.49 L1947.16 1474.49 L1947.16 1470.7 Z" fill="#000000" fill-rule="nonzero" fill-opacity="1" /><path clip-path="url(#clip470)" d="M1977.02 1454.1 Q1973.41 1454.1 1971.58 1457.66 Q1969.77 1461.2 1969.77 1468.33 Q1969.77 1475.44 1971.58 1479.01 Q1973.41 1482.55 1977.02 1482.55 Q1980.65 1482.55 1982.46 1479.01 Q1984.29 1475.44 1984.29 1468.33 Q1984.29 1461.2 1982.46 1457.66 Q1980.65 1454.1 1977.02 1454.1 M1977.02 1450.39 Q1982.83 1450.39 1985.89 1455 Q1988.96 1459.58 1988.96 1468.33 Q1988.96 1477.06 1985.89 1481.67 Q1982.83 1486.25 1977.02 1486.25 Q1971.21 1486.25 1968.13 1481.67 Q1965.08 1477.06 1965.08 1468.33 Q1965.08 1459.58 1968.13 1455 Q1971.21 1450.39 1977.02 1450.39 Z" fill="#000000" fill-rule="nonzero" fill-opacity="1" /><path clip-path="url(#clip470)" d="M1997.23 1451.02 L2015.58 1451.02 L2015.58 1454.96 L2001.51 1454.96 L2001.51 1463.43 Q2002.53 1463.08 2003.55 1462.92 Q2004.57 1462.73 2005.58 1462.73 Q2011.37 1462.73 2014.75 1465.9 Q2018.13 1469.08 2018.13 1474.49 Q2018.13 1480.07 2014.66 1483.17 Q2011.19 1486.25 2004.87 1486.25 Q2002.69 1486.25 2000.42 1485.88 Q1998.18 1485.51 1995.77 1484.77 L1995.77 1480.07 Q1997.85 1481.2 2000.08 1481.76 Q2002.3 1482.32 2004.77 1482.32 Q2008.78 1482.32 2011.12 1480.21 Q2013.46 1478.1 2013.46 1474.49 Q2013.46 1470.88 2011.12 1468.77 Q2008.78 1466.67 2004.77 1466.67 Q2002.9 1466.67 2001.02 1467.08 Q1999.17 1467.5 1997.23 1468.38 L1997.23 1451.02 Z" fill="#000000" fill-rule="nonzero" fill-opacity="1" /><path clip-path="url(#clip470)" d="M2024.59 1470.7 L2037.07 1470.7 L2037.07 1474.49 L2024.59 1474.49 L2024.59 1470.7 Z" fill="#000000" fill-rule="nonzero" fill-opacity="1" /><path clip-path="url(#clip470)" d="M2054.45 1454.1 Q2050.84 1454.1 2049.01 1457.66 Q2047.21 1461.2 2047.21 1468.33 Q2047.21 1475.44 2049.01 1479.01 Q2050.84 1482.55 2054.45 1482.55 Q2058.08 1482.55 2059.89 1479.01 Q2061.72 1475.44 2061.72 1468.33 Q2061.72 1461.2 2059.89 1457.66 Q2058.08 1454.1 2054.45 1454.1 M2054.45 1450.39 Q2060.26 1450.39 2063.32 1455 Q2066.39 1459.58 2066.39 1468.33 Q2066.39 1477.06 2063.32 1481.67 Q2060.26 1486.25 2054.45 1486.25 Q2048.64 1486.25 2045.56 1481.67 Q2042.51 1477.06 2042.51 1468.33 Q2042.51 1459.58 2045.56 1455 Q2048.64 1450.39 2054.45 1450.39 Z" fill="#000000" fill-rule="nonzero" fill-opacity="1" /><path clip-path="url(#clip470)" d="M2075.42 1481.64 L2083.06 1481.64 L2083.06 1455.28 L2074.75 1456.95 L2074.75 1452.69 L2083.02 1451.02 L2087.69 1451.02 L2087.69 1481.64 L2095.33 1481.64 L2095.33 1485.58 L2075.42 1485.58 L2075.42 1481.64 Z" fill="#000000" fill-rule="nonzero" fill-opacity="1" /><path clip-path="url(#clip470)" d="M1316.13 1537.81 L1316.13 1518.52 L1321.98 1518.52 L1321.98 1568.04 L1316.13 1568.04 L1316.13 1562.7 Q1314.28 1565.88 1311.45 1567.44 Q1308.65 1568.97 1304.7 1568.97 Q1298.24 1568.97 1294.17 1563.81 Q1290.12 1558.65 1290.12 1550.25 Q1290.12 1541.85 1294.17 1536.69 Q1298.24 1531.54 1304.7 1531.54 Q1308.65 1531.54 1311.45 1533.1 Q1314.28 1534.62 1316.13 1537.81 M1296.17 1550.25 Q1296.17 1556.71 1298.81 1560.4 Q1301.49 1564.07 1306.13 1564.07 Q1310.78 1564.07 1313.45 1560.4 Q1316.13 1556.71 1316.13 1550.25 Q1316.13 1543.79 1313.45 1540.13 Q1310.78 1536.44 1306.13 1536.44 Q1301.49 1536.44 1298.81 1540.13 Q1296.17 1543.79 1296.17 1550.25 Z" fill="#000000" fill-rule="nonzero" fill-opacity="1" /><path clip-path="url(#clip470)" d="M1350.25 1550.12 Q1343.15 1550.12 1340.41 1551.75 Q1337.68 1553.37 1337.68 1557.29 Q1337.68 1560.4 1339.71 1562.25 Q1341.78 1564.07 1345.31 1564.07 Q1350.18 1564.07 1353.11 1560.63 Q1356.07 1557.16 1356.07 1551.43 L1356.07 1550.12 L1350.25 1550.12 M1361.93 1547.71 L1361.93 1568.04 L1356.07 1568.04 L1356.07 1562.63 Q1354.07 1565.88 1351.07 1567.44 Q1348.08 1568.97 1343.75 1568.97 Q1338.28 1568.97 1335.03 1565.91 Q1331.82 1562.82 1331.82 1557.67 Q1331.82 1551.65 1335.83 1548.6 Q1339.87 1545.54 1347.86 1545.54 L1356.07 1545.54 L1356.07 1544.97 Q1356.07 1540.93 1353.4 1538.73 Q1350.76 1536.5 1345.95 1536.5 Q1342.89 1536.5 1340 1537.23 Q1337.1 1537.97 1334.43 1539.43 L1334.43 1534.02 Q1337.64 1532.78 1340.67 1532.17 Q1343.69 1531.54 1346.56 1531.54 Q1354.29 1531.54 1358.11 1535.55 Q1361.93 1539.56 1361.93 1547.71 Z" fill="#000000" fill-rule="nonzero" fill-opacity="1" /><path clip-path="url(#clip470)" d="M1379.78 1522.27 L1379.78 1532.4 L1391.85 1532.4 L1391.85 1536.95 L1379.78 1536.95 L1379.78 1556.3 Q1379.78 1560.66 1380.96 1561.9 Q1382.17 1563.14 1385.83 1563.14 L1391.85 1563.14 L1391.85 1568.04 L1385.83 1568.04 Q1379.05 1568.04 1376.47 1565.53 Q1373.9 1562.98 1373.9 1556.3 L1373.9 1536.95 L1369.6 1536.95 L1369.6 1532.4 L1373.9 1532.4 L1373.9 1522.27 L1379.78 1522.27 Z" fill="#000000" fill-rule="nonzero" fill-opacity="1" /><path clip-path="url(#clip470)" d="M1430.04 1548.76 L1430.04 1551.62 L1403.11 1551.62 Q1403.5 1557.67 1406.74 1560.85 Q1410.02 1564 1415.85 1564 Q1419.22 1564 1422.37 1563.17 Q1425.55 1562.35 1428.67 1560.69 L1428.67 1566.23 Q1425.52 1567.57 1422.21 1568.27 Q1418.9 1568.97 1415.5 1568.97 Q1406.97 1568.97 1401.97 1564 Q1397 1559.04 1397 1550.57 Q1397 1541.82 1401.71 1536.69 Q1406.46 1531.54 1414.48 1531.54 Q1421.67 1531.54 1425.84 1536.18 Q1430.04 1540.8 1430.04 1548.76 M1424.19 1547.04 Q1424.12 1542.23 1421.48 1539.37 Q1418.87 1536.5 1414.54 1536.5 Q1409.64 1536.5 1406.68 1539.27 Q1403.75 1542.04 1403.31 1547.07 L1424.19 1547.04 Z" fill="#000000" fill-rule="nonzero" fill-opacity="1" /><polyline clip-path="url(#clip472)" style="stroke:#000000; stroke-linecap:round; stroke-linejoin:round; stroke-width:2; stroke-opacity:0.1; fill:none" points="367.409,1386.4 2352.76,1386.4 "/>
<polyline clip-path="url(#clip472)" style="stroke:#000000; stroke-linecap:round; stroke-linejoin:round; stroke-width:2; stroke-opacity:0.1; fill:none" points="367.409,1171.37 2352.76,1171.37 "/>
<polyline clip-path="url(#clip472)" style="stroke:#000000; stroke-linecap:round; stroke-linejoin:round; stroke-width:2; stroke-opacity:0.1; fill:none" points="367.409,956.348 2352.76,956.348 "/>
<polyline clip-path="url(#clip472)" style="stroke:#000000; stroke-linecap:round; stroke-linejoin:round; stroke-width:2; stroke-opacity:0.1; fill:none" points="367.409,741.323 2352.76,741.323 "/>
<polyline clip-path="url(#clip472)" style="stroke:#000000; stroke-linecap:round; stroke-linejoin:round; stroke-width:2; stroke-opacity:0.1; fill:none" points="367.409,526.299 2352.76,526.299 "/>
<polyline clip-path="url(#clip472)" style="stroke:#000000; stroke-linecap:round; stroke-linejoin:round; stroke-width:2; stroke-opacity:0.1; fill:none" points="367.409,311.275 2352.76,311.275 "/>
<polyline clip-path="url(#clip470)" style="stroke:#000000; stroke-linecap:round; stroke-linejoin:round; stroke-width:4; stroke-opacity:1; fill:none" points="367.409,1423.18 367.409,123.472 "/>
<polyline clip-path="url(#clip470)" style="stroke:#000000; stroke-linecap:round; stroke-linejoin:round; stroke-width:4; stroke-opacity:1; fill:none" points="367.409,1386.4 386.307,1386.4 "/>
<polyline clip-path="url(#clip470)" style="stroke:#000000; stroke-linecap:round; stroke-linejoin:round; stroke-width:4; stroke-opacity:1; fill:none" points="367.409,1171.37 386.307,1171.37 "/>
<polyline clip-path="url(#clip470)" style="stroke:#000000; stroke-linecap:round; stroke-linejoin:round; stroke-width:4; stroke-opacity:1; fill:none" points="367.409,956.348 386.307,956.348 "/>
<polyline clip-path="url(#clip470)" style="stroke:#000000; stroke-linecap:round; stroke-linejoin:round; stroke-width:4; stroke-opacity:1; fill:none" points="367.409,741.323 386.307,741.323 "/>
<polyline clip-path="url(#clip470)" style="stroke:#000000; stroke-linecap:round; stroke-linejoin:round; stroke-width:4; stroke-opacity:1; fill:none" points="367.409,526.299 386.307,526.299 "/>
<polyline clip-path="url(#clip470)" style="stroke:#000000; stroke-linecap:round; stroke-linejoin:round; stroke-width:4; stroke-opacity:1; fill:none" points="367.409,311.275 386.307,311.275 "/>
<path clip-path="url(#clip470)" d="M116.668 1406.19 L124.306 1406.19 L124.306 1379.82 L115.996 1381.49 L115.996 1377.23 L124.26 1375.56 L128.936 1375.56 L128.936 1406.19 L136.575 1406.19 L136.575 1410.12 L116.668 1410.12 L116.668 1406.19 Z" fill="#000000" fill-rule="nonzero" fill-opacity="1" /><path clip-path="url(#clip470)" d="M146.019 1404.24 L150.903 1404.24 L150.903 1410.12 L146.019 1410.12 L146.019 1404.24 Z" fill="#000000" fill-rule="nonzero" fill-opacity="1" /><path clip-path="url(#clip470)" d="M171.089 1378.64 Q167.477 1378.64 165.649 1382.21 Q163.843 1385.75 163.843 1392.88 Q163.843 1399.98 165.649 1403.55 Q167.477 1407.09 171.089 1407.09 Q174.723 1407.09 176.528 1403.55 Q178.357 1399.98 178.357 1392.88 Q178.357 1385.75 176.528 1382.21 Q174.723 1378.64 171.089 1378.64 M171.089 1374.94 Q176.899 1374.94 179.954 1379.54 Q183.033 1384.13 183.033 1392.88 Q183.033 1401.6 179.954 1406.21 Q176.899 1410.79 171.089 1410.79 Q165.278 1410.79 162.2 1406.21 Q159.144 1401.6 159.144 1392.88 Q159.144 1384.13 162.2 1379.54 Q165.278 1374.94 171.089 1374.94 Z" fill="#000000" fill-rule="nonzero" fill-opacity="1" /><path clip-path="url(#clip470)" d="M201.25 1378.64 Q197.639 1378.64 195.811 1382.21 Q194.005 1385.75 194.005 1392.88 Q194.005 1399.98 195.811 1403.55 Q197.639 1407.09 201.25 1407.09 Q204.885 1407.09 206.69 1403.55 Q208.519 1399.98 208.519 1392.88 Q208.519 1385.75 206.69 1382.21 Q204.885 1378.64 201.25 1378.64 M201.25 1374.94 Q207.061 1374.94 210.116 1379.54 Q213.195 1384.13 213.195 1392.88 Q213.195 1401.6 210.116 1406.21 Q207.061 1410.79 201.25 1410.79 Q195.44 1410.79 192.362 1406.21 Q189.306 1401.6 189.306 1392.88 Q189.306 1384.13 192.362 1379.54 Q195.44 1374.94 201.25 1374.94 Z" fill="#000000" fill-rule="nonzero" fill-opacity="1" /><path clip-path="url(#clip470)" d="M249.584 1384.66 L239.005 1395.29 L249.584 1405.86 L246.829 1408.66 L236.204 1398.04 L225.579 1408.66 L222.848 1405.86 L233.403 1395.29 L222.848 1384.66 L225.579 1381.86 L236.204 1392.48 L246.829 1381.86 L249.584 1384.66 Z" fill="#000000" fill-rule="nonzero" fill-opacity="1" /><path clip-path="url(#clip470)" d="M261.945 1406.19 L269.583 1406.19 L269.583 1379.82 L261.273 1381.49 L261.273 1377.23 L269.537 1375.56 L274.213 1375.56 L274.213 1406.19 L281.852 1406.19 L281.852 1410.12 L261.945 1410.12 L261.945 1406.19 Z" fill="#000000" fill-rule="nonzero" fill-opacity="1" /><path clip-path="url(#clip470)" d="M301.296 1378.64 Q297.685 1378.64 295.856 1382.21 Q294.051 1385.75 294.051 1392.88 Q294.051 1399.98 295.856 1403.55 Q297.685 1407.09 301.296 1407.09 Q304.93 1407.09 306.736 1403.55 Q308.565 1399.98 308.565 1392.88 Q308.565 1385.75 306.736 1382.21 Q304.93 1378.64 301.296 1378.64 M301.296 1374.94 Q307.106 1374.94 310.162 1379.54 Q313.241 1384.13 313.241 1392.88 Q313.241 1401.6 310.162 1406.21 Q307.106 1410.79 301.296 1410.79 Q295.486 1410.79 292.407 1406.21 Q289.352 1401.6 289.352 1392.88 Q289.352 1384.13 292.407 1379.54 Q295.486 1374.94 301.296 1374.94 Z" fill="#000000" fill-rule="nonzero" fill-opacity="1" /><path clip-path="url(#clip470)" d="M314.425 1354.63 L329.34 1354.63 L329.34 1357.83 L317.905 1357.83 L317.905 1364.71 Q318.732 1364.43 319.56 1364.3 Q320.388 1364.15 321.215 1364.15 Q325.917 1364.15 328.663 1366.73 Q331.409 1369.3 331.409 1373.7 Q331.409 1378.24 328.588 1380.76 Q325.767 1383.26 320.632 1383.26 Q318.864 1383.26 317.021 1382.96 Q315.197 1382.66 313.241 1382.05 L313.241 1378.24 Q314.933 1379.16 316.739 1379.61 Q318.544 1380.06 320.557 1380.06 Q323.811 1380.06 325.71 1378.35 Q327.61 1376.64 327.61 1373.7 Q327.61 1370.77 325.71 1369.06 Q323.811 1367.35 320.557 1367.35 Q319.033 1367.35 317.51 1367.69 Q316.005 1368.02 314.425 1368.74 L314.425 1354.63 Z" fill="#000000" fill-rule="nonzero" fill-opacity="1" /><path clip-path="url(#clip470)" d="M116.668 1191.16 L124.306 1191.16 L124.306 1164.8 L115.996 1166.47 L115.996 1162.21 L124.26 1160.54 L128.936 1160.54 L128.936 1191.16 L136.575 1191.16 L136.575 1195.1 L116.668 1195.1 L116.668 1191.16 Z" fill="#000000" fill-rule="nonzero" fill-opacity="1" /><path clip-path="url(#clip470)" d="M146.019 1189.22 L150.903 1189.22 L150.903 1195.1 L146.019 1195.1 L146.019 1189.22 Z" fill="#000000" fill-rule="nonzero" fill-opacity="1" /><path clip-path="url(#clip470)" d="M161.135 1160.54 L179.491 1160.54 L179.491 1164.47 L165.417 1164.47 L165.417 1172.95 Q166.436 1172.6 167.454 1172.44 Q168.473 1172.25 169.491 1172.25 Q175.278 1172.25 178.658 1175.42 Q182.038 1178.59 182.038 1184.01 Q182.038 1189.59 178.565 1192.69 Q175.093 1195.77 168.774 1195.77 Q166.598 1195.77 164.329 1195.4 Q162.084 1195.03 159.677 1194.29 L159.677 1189.59 Q161.76 1190.72 163.982 1191.28 Q166.204 1191.84 168.681 1191.84 Q172.686 1191.84 175.024 1189.73 Q177.362 1187.62 177.362 1184.01 Q177.362 1180.4 175.024 1178.29 Q172.686 1176.19 168.681 1176.19 Q166.806 1176.19 164.931 1176.6 Q163.079 1177.02 161.135 1177.9 L161.135 1160.54 Z" fill="#000000" fill-rule="nonzero" fill-opacity="1" /><path clip-path="url(#clip470)" d="M201.25 1163.62 Q197.639 1163.62 195.811 1167.18 Q194.005 1170.72 194.005 1177.85 Q194.005 1184.96 195.811 1188.53 Q197.639 1192.07 201.25 1192.07 Q204.885 1192.07 206.69 1188.53 Q208.519 1184.96 208.519 1177.85 Q208.519 1170.72 206.69 1167.18 Q204.885 1163.62 201.25 1163.62 M201.25 1159.91 Q207.061 1159.91 210.116 1164.52 Q213.195 1169.1 213.195 1177.85 Q213.195 1186.58 210.116 1191.19 Q207.061 1195.77 201.25 1195.77 Q195.44 1195.77 192.362 1191.19 Q189.306 1186.58 189.306 1177.85 Q189.306 1169.1 192.362 1164.52 Q195.44 1159.91 201.25 1159.91 Z" fill="#000000" fill-rule="nonzero" fill-opacity="1" /><path clip-path="url(#clip470)" d="M249.584 1169.64 L239.005 1180.26 L249.584 1190.84 L246.829 1193.64 L236.204 1183.02 L225.579 1193.64 L222.848 1190.84 L233.403 1180.26 L222.848 1169.64 L225.579 1166.84 L236.204 1177.46 L246.829 1166.84 L249.584 1169.64 Z" fill="#000000" fill-rule="nonzero" fill-opacity="1" /><path clip-path="url(#clip470)" d="M261.945 1191.16 L269.583 1191.16 L269.583 1164.8 L261.273 1166.47 L261.273 1162.21 L269.537 1160.54 L274.213 1160.54 L274.213 1191.16 L281.852 1191.16 L281.852 1195.1 L261.945 1195.1 L261.945 1191.16 Z" fill="#000000" fill-rule="nonzero" fill-opacity="1" /><path clip-path="url(#clip470)" d="M301.296 1163.62 Q297.685 1163.62 295.856 1167.18 Q294.051 1170.72 294.051 1177.85 Q294.051 1184.96 295.856 1188.53 Q297.685 1192.07 301.296 1192.07 Q304.93 1192.07 306.736 1188.53 Q308.565 1184.96 308.565 1177.85 Q308.565 1170.72 306.736 1167.18 Q304.93 1163.62 301.296 1163.62 M301.296 1159.91 Q307.106 1159.91 310.162 1164.52 Q313.241 1169.1 313.241 1177.85 Q313.241 1186.58 310.162 1191.19 Q307.106 1195.77 301.296 1195.77 Q295.486 1195.77 292.407 1191.19 Q289.352 1186.58 289.352 1177.85 Q289.352 1169.1 292.407 1164.52 Q295.486 1159.91 301.296 1159.91 Z" fill="#000000" fill-rule="nonzero" fill-opacity="1" /><path clip-path="url(#clip470)" d="M314.425 1139.61 L329.34 1139.61 L329.34 1142.81 L317.905 1142.81 L317.905 1149.69 Q318.732 1149.41 319.56 1149.28 Q320.388 1149.13 321.215 1149.13 Q325.917 1149.13 328.663 1151.7 Q331.409 1154.28 331.409 1158.68 Q331.409 1163.21 328.588 1165.73 Q325.767 1168.23 320.632 1168.23 Q318.864 1168.23 317.021 1167.93 Q315.197 1167.63 313.241 1167.03 L313.241 1163.21 Q314.933 1164.13 316.739 1164.59 Q318.544 1165.04 320.557 1165.04 Q323.811 1165.04 325.71 1163.33 Q327.61 1161.61 327.61 1158.68 Q327.61 1155.75 325.71 1154.03 Q323.811 1152.32 320.557 1152.32 Q319.033 1152.32 317.51 1152.66 Q316.005 1153 314.425 1153.71 L314.425 1139.61 Z" fill="#000000" fill-rule="nonzero" fill-opacity="1" /><path clip-path="url(#clip470)" d="M119.885 976.14 L136.204 976.14 L136.204 980.075 L114.26 980.075 L114.26 976.14 Q116.922 973.385 121.505 968.756 Q126.112 964.103 127.292 962.76 Q129.538 960.237 130.417 958.501 Q131.32 956.742 131.32 955.052 Q131.32 952.297 129.376 950.561 Q127.455 948.825 124.353 948.825 Q122.154 948.825 119.7 949.589 Q117.269 950.353 114.492 951.904 L114.492 947.182 Q117.316 946.048 119.769 945.469 Q122.223 944.89 124.26 944.89 Q129.63 944.89 132.825 947.575 Q136.019 950.26 136.019 954.751 Q136.019 956.881 135.209 958.802 Q134.422 960.7 132.316 963.293 Q131.737 963.964 128.635 967.182 Q125.533 970.376 119.885 976.14 Z" fill="#000000" fill-rule="nonzero" fill-opacity="1" /><path clip-path="url(#clip470)" d="M146.019 974.196 L150.903 974.196 L150.903 980.075 L146.019 980.075 L146.019 974.196 Z" fill="#000000" fill-rule="nonzero" fill-opacity="1" /><path clip-path="url(#clip470)" d="M171.089 948.594 Q167.477 948.594 165.649 952.159 Q163.843 955.7 163.843 962.83 Q163.843 969.936 165.649 973.501 Q167.477 977.043 171.089 977.043 Q174.723 977.043 176.528 973.501 Q178.357 969.936 178.357 962.83 Q178.357 955.7 176.528 952.159 Q174.723 948.594 171.089 948.594 M171.089 944.89 Q176.899 944.89 179.954 949.497 Q183.033 954.08 183.033 962.83 Q183.033 971.557 179.954 976.163 Q176.899 980.746 171.089 980.746 Q165.278 980.746 162.2 976.163 Q159.144 971.557 159.144 962.83 Q159.144 954.08 162.2 949.497 Q165.278 944.89 171.089 944.89 Z" fill="#000000" fill-rule="nonzero" fill-opacity="1" /><path clip-path="url(#clip470)" d="M201.25 948.594 Q197.639 948.594 195.811 952.159 Q194.005 955.7 194.005 962.83 Q194.005 969.936 195.811 973.501 Q197.639 977.043 201.25 977.043 Q204.885 977.043 206.69 973.501 Q208.519 969.936 208.519 962.83 Q208.519 955.7 206.69 952.159 Q204.885 948.594 201.25 948.594 M201.25 944.89 Q207.061 944.89 210.116 949.497 Q213.195 954.08 213.195 962.83 Q213.195 971.557 210.116 976.163 Q207.061 980.746 201.25 980.746 Q195.44 980.746 192.362 976.163 Q189.306 971.557 189.306 962.83 Q189.306 954.08 192.362 949.497 Q195.44 944.89 201.25 944.89 Z" fill="#000000" fill-rule="nonzero" fill-opacity="1" /><path clip-path="url(#clip470)" d="M249.584 954.612 L239.005 965.237 L249.584 975.816 L246.829 978.617 L236.204 967.992 L225.579 978.617 L222.848 975.816 L233.403 965.237 L222.848 954.612 L225.579 951.811 L236.204 962.436 L246.829 951.811 L249.584 954.612 Z" fill="#000000" fill-rule="nonzero" fill-opacity="1" /><path clip-path="url(#clip470)" d="M261.945 976.14 L269.583 976.14 L269.583 949.774 L261.273 951.441 L261.273 947.182 L269.537 945.515 L274.213 945.515 L274.213 976.14 L281.852 976.14 L281.852 980.075 L261.945 980.075 L261.945 976.14 Z" fill="#000000" fill-rule="nonzero" fill-opacity="1" /><path clip-path="url(#clip470)" d="M301.296 948.594 Q297.685 948.594 295.856 952.159 Q294.051 955.7 294.051 962.83 Q294.051 969.936 295.856 973.501 Q297.685 977.043 301.296 977.043 Q304.93 977.043 306.736 973.501 Q308.565 969.936 308.565 962.83 Q308.565 955.7 306.736 952.159 Q304.93 948.594 301.296 948.594 M301.296 944.89 Q307.106 944.89 310.162 949.497 Q313.241 954.08 313.241 962.83 Q313.241 971.557 310.162 976.163 Q307.106 980.746 301.296 980.746 Q295.486 980.746 292.407 976.163 Q289.352 971.557 289.352 962.83 Q289.352 954.08 292.407 949.497 Q295.486 944.89 301.296 944.89 Z" fill="#000000" fill-rule="nonzero" fill-opacity="1" /><path clip-path="url(#clip470)" d="M314.425 924.585 L329.34 924.585 L329.34 927.782 L317.905 927.782 L317.905 934.666 Q318.732 934.384 319.56 934.252 Q320.388 934.101 321.215 934.101 Q325.917 934.101 328.663 936.678 Q331.409 939.255 331.409 943.656 Q331.409 948.188 328.588 950.709 Q325.767 953.21 320.632 953.21 Q318.864 953.21 317.021 952.909 Q315.197 952.608 313.241 952.006 L313.241 948.188 Q314.933 949.11 316.739 949.561 Q318.544 950.013 320.557 950.013 Q323.811 950.013 325.71 948.301 Q327.61 946.59 327.61 943.656 Q327.61 940.722 325.71 939.01 Q323.811 937.299 320.557 937.299 Q319.033 937.299 317.51 937.637 Q316.005 937.976 314.425 938.691 L314.425 924.585 Z" fill="#000000" fill-rule="nonzero" fill-opacity="1" /><path clip-path="url(#clip470)" d="M119.885 761.116 L136.204 761.116 L136.204 765.051 L114.26 765.051 L114.26 761.116 Q116.922 758.361 121.505 753.732 Q126.112 749.079 127.292 747.736 Q129.538 745.213 130.417 743.477 Q131.32 741.718 131.32 740.028 Q131.32 737.273 129.376 735.537 Q127.455 733.801 124.353 733.801 Q122.154 733.801 119.7 734.565 Q117.269 735.329 114.492 736.88 L114.492 732.158 Q117.316 731.023 119.769 730.445 Q122.223 729.866 124.26 729.866 Q129.63 729.866 132.825 732.551 Q136.019 735.236 136.019 739.727 Q136.019 741.857 135.209 743.778 Q134.422 745.676 132.316 748.269 Q131.737 748.94 128.635 752.158 Q125.533 755.352 119.885 761.116 Z" fill="#000000" fill-rule="nonzero" fill-opacity="1" /><path clip-path="url(#clip470)" d="M146.019 759.171 L150.903 759.171 L150.903 765.051 L146.019 765.051 L146.019 759.171 Z" fill="#000000" fill-rule="nonzero" fill-opacity="1" /><path clip-path="url(#clip470)" d="M161.135 730.491 L179.491 730.491 L179.491 734.426 L165.417 734.426 L165.417 742.898 Q166.436 742.551 167.454 742.389 Q168.473 742.204 169.491 742.204 Q175.278 742.204 178.658 745.375 Q182.038 748.546 182.038 753.963 Q182.038 759.542 178.565 762.644 Q175.093 765.722 168.774 765.722 Q166.598 765.722 164.329 765.352 Q162.084 764.982 159.677 764.241 L159.677 759.542 Q161.76 760.676 163.982 761.232 Q166.204 761.787 168.681 761.787 Q172.686 761.787 175.024 759.681 Q177.362 757.574 177.362 753.963 Q177.362 750.352 175.024 748.246 Q172.686 746.139 168.681 746.139 Q166.806 746.139 164.931 746.556 Q163.079 746.972 161.135 747.852 L161.135 730.491 Z" fill="#000000" fill-rule="nonzero" fill-opacity="1" /><path clip-path="url(#clip470)" d="M201.25 733.57 Q197.639 733.57 195.811 737.135 Q194.005 740.676 194.005 747.806 Q194.005 754.912 195.811 758.477 Q197.639 762.019 201.25 762.019 Q204.885 762.019 206.69 758.477 Q208.519 754.912 208.519 747.806 Q208.519 740.676 206.69 737.135 Q204.885 733.57 201.25 733.57 M201.25 729.866 Q207.061 729.866 210.116 734.472 Q213.195 739.056 213.195 747.806 Q213.195 756.533 210.116 761.139 Q207.061 765.722 201.25 765.722 Q195.44 765.722 192.362 761.139 Q189.306 756.533 189.306 747.806 Q189.306 739.056 192.362 734.472 Q195.44 729.866 201.25 729.866 Z" fill="#000000" fill-rule="nonzero" fill-opacity="1" /><path clip-path="url(#clip470)" d="M249.584 739.588 L239.005 750.213 L249.584 760.792 L246.829 763.593 L236.204 752.968 L225.579 763.593 L222.848 760.792 L233.403 750.213 L222.848 739.588 L225.579 736.787 L236.204 747.412 L246.829 736.787 L249.584 739.588 Z" fill="#000000" fill-rule="nonzero" fill-opacity="1" /><path clip-path="url(#clip470)" d="M261.945 761.116 L269.583 761.116 L269.583 734.75 L261.273 736.417 L261.273 732.158 L269.537 730.491 L274.213 730.491 L274.213 761.116 L281.852 761.116 L281.852 765.051 L261.945 765.051 L261.945 761.116 Z" fill="#000000" fill-rule="nonzero" fill-opacity="1" /><path clip-path="url(#clip470)" d="M301.296 733.57 Q297.685 733.57 295.856 737.135 Q294.051 740.676 294.051 747.806 Q294.051 754.912 295.856 758.477 Q297.685 762.019 301.296 762.019 Q304.93 762.019 306.736 758.477 Q308.565 754.912 308.565 747.806 Q308.565 740.676 306.736 737.135 Q304.93 733.57 301.296 733.57 M301.296 729.866 Q307.106 729.866 310.162 734.472 Q313.241 739.056 313.241 747.806 Q313.241 756.533 310.162 761.139 Q307.106 765.722 301.296 765.722 Q295.486 765.722 292.407 761.139 Q289.352 756.533 289.352 747.806 Q289.352 739.056 292.407 734.472 Q295.486 729.866 301.296 729.866 Z" fill="#000000" fill-rule="nonzero" fill-opacity="1" /><path clip-path="url(#clip470)" d="M314.425 709.561 L329.34 709.561 L329.34 712.758 L317.905 712.758 L317.905 719.642 Q318.732 719.359 319.56 719.228 Q320.388 719.077 321.215 719.077 Q325.917 719.077 328.663 721.654 Q331.409 724.231 331.409 728.632 Q331.409 733.164 328.588 735.685 Q325.767 738.186 320.632 738.186 Q318.864 738.186 317.021 737.885 Q315.197 737.584 313.241 736.982 L313.241 733.164 Q314.933 734.086 316.739 734.537 Q318.544 734.989 320.557 734.989 Q323.811 734.989 325.71 733.277 Q327.61 731.566 327.61 728.632 Q327.61 725.698 325.71 723.986 Q323.811 722.275 320.557 722.275 Q319.033 722.275 317.51 722.613 Q316.005 722.952 314.425 723.666 L314.425 709.561 Z" fill="#000000" fill-rule="nonzero" fill-opacity="1" /><path clip-path="url(#clip470)" d="M130.024 531.393 Q133.38 532.11 135.255 534.379 Q137.154 536.647 137.154 539.981 Q137.154 545.096 133.635 547.897 Q130.117 550.698 123.635 550.698 Q121.459 550.698 119.144 550.258 Q116.853 549.842 114.399 548.985 L114.399 544.471 Q116.343 545.606 118.658 546.184 Q120.973 546.763 123.496 546.763 Q127.894 546.763 130.186 545.027 Q132.501 543.291 132.501 539.981 Q132.501 536.925 130.348 535.212 Q128.218 533.476 124.399 533.476 L120.371 533.476 L120.371 529.634 L124.584 529.634 Q128.033 529.634 129.862 528.268 Q131.691 526.879 131.691 524.286 Q131.691 521.624 129.792 520.212 Q127.917 518.777 124.399 518.777 Q122.478 518.777 120.279 519.194 Q118.08 519.61 115.441 520.49 L115.441 516.323 Q118.103 515.583 120.418 515.212 Q122.755 514.842 124.816 514.842 Q130.14 514.842 133.242 517.272 Q136.343 519.68 136.343 523.8 Q136.343 526.671 134.7 528.661 Q133.056 530.629 130.024 531.393 Z" fill="#000000" fill-rule="nonzero" fill-opacity="1" /><path clip-path="url(#clip470)" d="M146.019 544.147 L150.903 544.147 L150.903 550.027 L146.019 550.027 L146.019 544.147 Z" fill="#000000" fill-rule="nonzero" fill-opacity="1" /><path clip-path="url(#clip470)" d="M171.089 518.546 Q167.477 518.546 165.649 522.11 Q163.843 525.652 163.843 532.782 Q163.843 539.888 165.649 543.453 Q167.477 546.995 171.089 546.995 Q174.723 546.995 176.528 543.453 Q178.357 539.888 178.357 532.782 Q178.357 525.652 176.528 522.11 Q174.723 518.546 171.089 518.546 M171.089 514.842 Q176.899 514.842 179.954 519.448 Q183.033 524.032 183.033 532.782 Q183.033 541.508 179.954 546.115 Q176.899 550.698 171.089 550.698 Q165.278 550.698 162.2 546.115 Q159.144 541.508 159.144 532.782 Q159.144 524.032 162.2 519.448 Q165.278 514.842 171.089 514.842 Z" fill="#000000" fill-rule="nonzero" fill-opacity="1" /><path clip-path="url(#clip470)" d="M201.25 518.546 Q197.639 518.546 195.811 522.11 Q194.005 525.652 194.005 532.782 Q194.005 539.888 195.811 543.453 Q197.639 546.995 201.25 546.995 Q204.885 546.995 206.69 543.453 Q208.519 539.888 208.519 532.782 Q208.519 525.652 206.69 522.11 Q204.885 518.546 201.25 518.546 M201.25 514.842 Q207.061 514.842 210.116 519.448 Q213.195 524.032 213.195 532.782 Q213.195 541.508 210.116 546.115 Q207.061 550.698 201.25 550.698 Q195.44 550.698 192.362 546.115 Q189.306 541.508 189.306 532.782 Q189.306 524.032 192.362 519.448 Q195.44 514.842 201.25 514.842 Z" fill="#000000" fill-rule="nonzero" fill-opacity="1" /><path clip-path="url(#clip470)" d="M249.584 524.564 L239.005 535.189 L249.584 545.768 L246.829 548.569 L236.204 537.944 L225.579 548.569 L222.848 545.768 L233.403 535.189 L222.848 524.564 L225.579 521.763 L236.204 532.388 L246.829 521.763 L249.584 524.564 Z" fill="#000000" fill-rule="nonzero" fill-opacity="1" /><path clip-path="url(#clip470)" d="M261.945 546.092 L269.583 546.092 L269.583 519.726 L261.273 521.393 L261.273 517.134 L269.537 515.467 L274.213 515.467 L274.213 546.092 L281.852 546.092 L281.852 550.027 L261.945 550.027 L261.945 546.092 Z" fill="#000000" fill-rule="nonzero" fill-opacity="1" /><path clip-path="url(#clip470)" d="M301.296 518.546 Q297.685 518.546 295.856 522.11 Q294.051 525.652 294.051 532.782 Q294.051 539.888 295.856 543.453 Q297.685 546.995 301.296 546.995 Q304.93 546.995 306.736 543.453 Q308.565 539.888 308.565 532.782 Q308.565 525.652 306.736 522.11 Q304.93 518.546 301.296 518.546 M301.296 514.842 Q307.106 514.842 310.162 519.448 Q313.241 524.032 313.241 532.782 Q313.241 541.508 310.162 546.115 Q307.106 550.698 301.296 550.698 Q295.486 550.698 292.407 546.115 Q289.352 541.508 289.352 532.782 Q289.352 524.032 292.407 519.448 Q295.486 514.842 301.296 514.842 Z" fill="#000000" fill-rule="nonzero" fill-opacity="1" /><path clip-path="url(#clip470)" d="M314.425 494.537 L329.34 494.537 L329.34 497.734 L317.905 497.734 L317.905 504.618 Q318.732 504.335 319.56 504.204 Q320.388 504.053 321.215 504.053 Q325.917 504.053 328.663 506.63 Q331.409 509.207 331.409 513.608 Q331.409 518.14 328.588 520.661 Q325.767 523.162 320.632 523.162 Q318.864 523.162 317.021 522.861 Q315.197 522.56 313.241 521.958 L313.241 518.14 Q314.933 519.062 316.739 519.513 Q318.544 519.965 320.557 519.965 Q323.811 519.965 325.71 518.253 Q327.61 516.542 327.61 513.608 Q327.61 510.674 325.71 508.962 Q323.811 507.251 320.557 507.251 Q319.033 507.251 317.51 507.589 Q316.005 507.928 314.425 508.642 L314.425 494.537 Z" fill="#000000" fill-rule="nonzero" fill-opacity="1" /><path clip-path="url(#clip470)" d="M130.024 316.369 Q133.38 317.086 135.255 319.355 Q137.154 321.623 137.154 324.957 Q137.154 330.072 133.635 332.873 Q130.117 335.674 123.635 335.674 Q121.459 335.674 119.144 335.234 Q116.853 334.818 114.399 333.961 L114.399 329.447 Q116.343 330.582 118.658 331.16 Q120.973 331.739 123.496 331.739 Q127.894 331.739 130.186 330.003 Q132.501 328.267 132.501 324.957 Q132.501 321.901 130.348 320.188 Q128.218 318.452 124.399 318.452 L120.371 318.452 L120.371 314.609 L124.584 314.609 Q128.033 314.609 129.862 313.244 Q131.691 311.855 131.691 309.262 Q131.691 306.6 129.792 305.188 Q127.917 303.753 124.399 303.753 Q122.478 303.753 120.279 304.17 Q118.08 304.586 115.441 305.466 L115.441 301.299 Q118.103 300.559 120.418 300.188 Q122.755 299.818 124.816 299.818 Q130.14 299.818 133.242 302.248 Q136.343 304.656 136.343 308.776 Q136.343 311.647 134.7 313.637 Q133.056 315.605 130.024 316.369 Z" fill="#000000" fill-rule="nonzero" fill-opacity="1" /><path clip-path="url(#clip470)" d="M146.019 329.123 L150.903 329.123 L150.903 335.003 L146.019 335.003 L146.019 329.123 Z" fill="#000000" fill-rule="nonzero" fill-opacity="1" /><path clip-path="url(#clip470)" d="M161.135 300.443 L179.491 300.443 L179.491 304.378 L165.417 304.378 L165.417 312.85 Q166.436 312.503 167.454 312.341 Q168.473 312.156 169.491 312.156 Q175.278 312.156 178.658 315.327 Q182.038 318.498 182.038 323.915 Q182.038 329.494 178.565 332.595 Q175.093 335.674 168.774 335.674 Q166.598 335.674 164.329 335.304 Q162.084 334.933 159.677 334.193 L159.677 329.494 Q161.76 330.628 163.982 331.183 Q166.204 331.739 168.681 331.739 Q172.686 331.739 175.024 329.633 Q177.362 327.526 177.362 323.915 Q177.362 320.304 175.024 318.197 Q172.686 316.091 168.681 316.091 Q166.806 316.091 164.931 316.508 Q163.079 316.924 161.135 317.804 L161.135 300.443 Z" fill="#000000" fill-rule="nonzero" fill-opacity="1" /><path clip-path="url(#clip470)" d="M201.25 303.522 Q197.639 303.522 195.811 307.086 Q194.005 310.628 194.005 317.758 Q194.005 324.864 195.811 328.429 Q197.639 331.97 201.25 331.97 Q204.885 331.97 206.69 328.429 Q208.519 324.864 208.519 317.758 Q208.519 310.628 206.69 307.086 Q204.885 303.522 201.25 303.522 M201.25 299.818 Q207.061 299.818 210.116 304.424 Q213.195 309.008 213.195 317.758 Q213.195 326.484 210.116 331.091 Q207.061 335.674 201.25 335.674 Q195.44 335.674 192.362 331.091 Q189.306 326.484 189.306 317.758 Q189.306 309.008 192.362 304.424 Q195.44 299.818 201.25 299.818 Z" fill="#000000" fill-rule="nonzero" fill-opacity="1" /><path clip-path="url(#clip470)" d="M249.584 309.54 L239.005 320.165 L249.584 330.744 L246.829 333.545 L236.204 322.92 L225.579 333.545 L222.848 330.744 L233.403 320.165 L222.848 309.54 L225.579 306.739 L236.204 317.364 L246.829 306.739 L249.584 309.54 Z" fill="#000000" fill-rule="nonzero" fill-opacity="1" /><path clip-path="url(#clip470)" d="M261.945 331.068 L269.583 331.068 L269.583 304.702 L261.273 306.369 L261.273 302.11 L269.537 300.443 L274.213 300.443 L274.213 331.068 L281.852 331.068 L281.852 335.003 L261.945 335.003 L261.945 331.068 Z" fill="#000000" fill-rule="nonzero" fill-opacity="1" /><path clip-path="url(#clip470)" d="M301.296 303.522 Q297.685 303.522 295.856 307.086 Q294.051 310.628 294.051 317.758 Q294.051 324.864 295.856 328.429 Q297.685 331.97 301.296 331.97 Q304.93 331.97 306.736 328.429 Q308.565 324.864 308.565 317.758 Q308.565 310.628 306.736 307.086 Q304.93 303.522 301.296 303.522 M301.296 299.818 Q307.106 299.818 310.162 304.424 Q313.241 309.008 313.241 317.758 Q313.241 326.484 310.162 331.091 Q307.106 335.674 301.296 335.674 Q295.486 335.674 292.407 331.091 Q289.352 326.484 289.352 317.758 Q289.352 309.008 292.407 304.424 Q295.486 299.818 301.296 299.818 Z" fill="#000000" fill-rule="nonzero" fill-opacity="1" /><path clip-path="url(#clip470)" d="M314.425 279.512 L329.34 279.512 L329.34 282.71 L317.905 282.71 L317.905 289.593 Q318.732 289.311 319.56 289.18 Q320.388 289.029 321.215 289.029 Q325.917 289.029 328.663 291.606 Q331.409 294.183 331.409 298.584 Q331.409 303.116 328.588 305.636 Q325.767 308.138 320.632 308.138 Q318.864 308.138 317.021 307.837 Q315.197 307.536 313.241 306.934 L313.241 303.116 Q314.933 304.038 316.739 304.489 Q318.544 304.941 320.557 304.941 Q323.811 304.941 325.71 303.229 Q327.61 301.518 327.61 298.584 Q327.61 295.65 325.71 293.938 Q323.811 292.227 320.557 292.227 Q319.033 292.227 317.51 292.565 Q316.005 292.904 314.425 293.618 L314.425 279.512 Z" fill="#000000" fill-rule="nonzero" fill-opacity="1" /><path clip-path="url(#clip470)" d="M21.7677 1084.27 L39.6235 1084.27 L39.6235 1076.19 Q39.6235 1071.7 37.3 1069.25 Q34.9765 1066.8 30.6797 1066.8 Q26.4147 1066.8 24.0912 1069.25 Q21.7677 1071.7 21.7677 1076.19 L21.7677 1084.27 M16.4842 1090.7 L16.4842 1076.19 Q16.4842 1068.2 20.1126 1064.13 Q23.7092 1060.02 30.6797 1060.02 Q37.7138 1060.02 41.3104 1064.13 Q44.907 1068.2 44.907 1076.19 L44.907 1084.27 L64.0042 1084.27 L64.0042 1090.7 L16.4842 1090.7 Z" fill="#000000" fill-rule="nonzero" fill-opacity="1" /><path clip-path="url(#clip470)" d="M32.4621 1040.16 Q32.4621 1044.87 36.1542 1047.61 Q39.8145 1050.35 46.212 1050.35 Q52.6095 1050.35 56.3017 1047.64 Q59.9619 1044.9 59.9619 1040.16 Q59.9619 1035.48 56.2698 1032.74 Q52.5777 1030.01 46.212 1030.01 Q39.8781 1030.01 36.186 1032.74 Q32.4621 1035.48 32.4621 1040.16 M27.4968 1040.16 Q27.4968 1032.52 32.4621 1028.16 Q37.4273 1023.8 46.212 1023.8 Q54.9649 1023.8 59.9619 1028.16 Q64.9272 1032.52 64.9272 1040.16 Q64.9272 1047.83 59.9619 1052.19 Q54.9649 1056.52 46.212 1056.52 Q37.4273 1056.52 32.4621 1052.19 Q27.4968 1047.83 27.4968 1040.16 Z" fill="#000000" fill-rule="nonzero" fill-opacity="1" /><path clip-path="url(#clip470)" d="M33.8307 993.436 Q33.2578 994.423 33.0032 995.601 Q32.7167 996.746 32.7167 998.147 Q32.7167 1003.11 35.9632 1005.79 Q39.1779 1008.43 45.2253 1008.43 L64.0042 1008.43 L64.0042 1014.32 L28.3562 1014.32 L28.3562 1008.43 L33.8944 1008.43 Q30.6479 1006.58 29.0883 1003.62 Q27.4968 1000.66 27.4968 996.428 Q27.4968 995.823 27.5923 995.091 Q27.656 994.359 27.8151 993.468 L33.8307 993.436 Z" fill="#000000" fill-rule="nonzero" fill-opacity="1" /><path clip-path="url(#clip470)" d="M18.2347 981.501 L28.3562 981.501 L28.3562 969.437 L32.9077 969.437 L32.9077 981.501 L52.2594 981.501 Q56.6199 981.501 57.8613 980.323 Q59.1026 979.113 59.1026 975.453 L59.1026 969.437 L64.0042 969.437 L64.0042 975.453 Q64.0042 982.233 61.4897 984.811 Q58.9434 987.389 52.2594 987.389 L32.9077 987.389 L32.9077 991.686 L28.3562 991.686 L28.3562 987.389 L18.2347 987.389 L18.2347 981.501 Z" fill="#000000" fill-rule="nonzero" fill-opacity="1" /><path clip-path="url(#clip470)" d="M14.479 943.688 L19.3487 943.688 L19.3487 949.29 Q19.3487 952.441 20.6219 953.682 Q21.895 954.892 25.2052 954.892 L28.3562 954.892 L28.3562 945.248 L32.9077 945.248 L32.9077 954.892 L64.0042 954.892 L64.0042 960.78 L32.9077 960.78 L32.9077 966.382 L28.3562 966.382 L28.3562 960.78 L25.8736 960.78 Q19.9216 960.78 17.2162 958.011 Q14.479 955.242 14.479 949.226 L14.479 943.688 Z" fill="#000000" fill-rule="nonzero" fill-opacity="1" /><path clip-path="url(#clip470)" d="M32.4621 924.973 Q32.4621 929.684 36.1542 932.421 Q39.8145 935.158 46.212 935.158 Q52.6095 935.158 56.3017 932.453 Q59.9619 929.715 59.9619 924.973 Q59.9619 920.294 56.2698 917.557 Q52.5777 914.82 46.212 914.82 Q39.8781 914.82 36.186 917.557 Q32.4621 920.294 32.4621 924.973 M27.4968 924.973 Q27.4968 917.334 32.4621 912.974 Q37.4273 908.613 46.212 908.613 Q54.9649 908.613 59.9619 912.974 Q64.9272 917.334 64.9272 924.973 Q64.9272 932.644 59.9619 937.004 Q54.9649 941.333 46.212 941.333 Q37.4273 941.333 32.4621 937.004 Q27.4968 932.644 27.4968 924.973 Z" fill="#000000" fill-rule="nonzero" fill-opacity="1" /><path clip-path="url(#clip470)" d="M14.479 898.905 L14.479 893.049 L64.0042 893.049 L64.0042 898.905 L14.479 898.905 Z" fill="#000000" fill-rule="nonzero" fill-opacity="1" /><path clip-path="url(#clip470)" d="M28.3562 880.795 L28.3562 874.939 L64.0042 874.939 L64.0042 880.795 L28.3562 880.795 M14.479 880.795 L14.479 874.939 L21.895 874.939 L21.895 880.795 L14.479 880.795 Z" fill="#000000" fill-rule="nonzero" fill-opacity="1" /><path clip-path="url(#clip470)" d="M32.4621 848.871 Q32.4621 853.582 36.1542 856.319 Q39.8145 859.056 46.212 859.056 Q52.6095 859.056 56.3017 856.351 Q59.9619 853.613 59.9619 848.871 Q59.9619 844.192 56.2698 841.455 Q52.5777 838.718 46.212 838.718 Q39.8781 838.718 36.186 841.455 Q32.4621 844.192 32.4621 848.871 M27.4968 848.871 Q27.4968 841.232 32.4621 836.872 Q37.4273 832.511 46.212 832.511 Q54.9649 832.511 59.9619 836.872 Q64.9272 841.232 64.9272 848.871 Q64.9272 856.542 59.9619 860.902 Q54.9649 865.231 46.212 865.231 Q37.4273 865.231 32.4621 860.902 Q27.4968 856.542 27.4968 848.871 Z" fill="#000000" fill-rule="nonzero" fill-opacity="1" /><path clip-path="url(#clip470)" d="M64.0042 789.574 L16.4842 807.717 L16.4842 801.001 L56.4926 785.946 L16.4842 770.859 L16.4842 764.175 L64.0042 782.286 L64.0042 789.574 Z" fill="#000000" fill-rule="nonzero" fill-opacity="1" /><path clip-path="url(#clip470)" d="M46.0847 746.351 Q46.0847 753.449 47.7079 756.186 Q49.3312 758.924 53.2461 758.924 Q56.3653 758.924 58.2114 756.887 Q60.0256 754.818 60.0256 751.285 Q60.0256 746.415 56.5881 743.487 Q53.1188 740.527 47.3897 740.527 L46.0847 740.527 L46.0847 746.351 M43.6657 734.67 L64.0042 734.67 L64.0042 740.527 L58.5933 740.527 Q61.8398 742.532 63.3994 745.524 Q64.9272 748.516 64.9272 752.844 Q64.9272 758.319 61.8716 761.565 Q58.7843 764.78 53.6281 764.78 Q47.6125 764.78 44.5569 760.77 Q41.5014 756.727 41.5014 748.738 L41.5014 740.527 L40.9285 740.527 Q36.8862 740.527 34.6901 743.2 Q32.4621 745.842 32.4621 750.648 Q32.4621 753.704 33.1941 756.6 Q33.9262 759.496 35.3903 762.17 L29.9795 762.17 Q28.7381 758.955 28.1334 755.932 Q27.4968 752.908 27.4968 750.043 Q27.4968 742.309 31.5072 738.49 Q35.5176 734.67 43.6657 734.67 Z" fill="#000000" fill-rule="nonzero" fill-opacity="1" /><path clip-path="url(#clip470)" d="M14.479 722.607 L14.479 716.751 L64.0042 716.751 L64.0042 722.607 L14.479 722.607 Z" fill="#000000" fill-rule="nonzero" fill-opacity="1" /><path clip-path="url(#clip470)" d="M49.9359 705.102 L28.3562 705.102 L28.3562 699.245 L49.7131 699.245 Q54.7739 699.245 57.3202 697.272 Q59.8346 695.298 59.8346 691.352 Q59.8346 686.609 56.8109 683.872 Q53.7872 681.103 48.5673 681.103 L28.3562 681.103 L28.3562 675.246 L64.0042 675.246 L64.0042 681.103 L58.5296 681.103 Q61.7762 683.235 63.3676 686.068 Q64.9272 688.869 64.9272 692.593 Q64.9272 698.736 61.1078 701.919 Q57.2883 705.102 49.9359 705.102 M27.4968 690.365 L27.4968 690.365 Z" fill="#000000" fill-rule="nonzero" fill-opacity="1" /><path clip-path="url(#clip470)" d="M44.7161 632.692 L47.5806 632.692 L47.5806 659.619 Q53.6281 659.237 56.8109 655.99 Q59.9619 652.712 59.9619 646.887 Q59.9619 643.513 59.1344 640.362 Q58.3069 637.179 56.6518 634.06 L62.1899 634.06 Q63.5267 637.211 64.227 640.521 Q64.9272 643.832 64.9272 647.237 Q64.9272 655.767 59.9619 660.764 Q54.9967 665.73 46.5303 665.73 Q37.7774 665.73 32.6531 661.019 Q27.4968 656.277 27.4968 648.256 Q27.4968 641.063 32.1438 636.893 Q36.7589 632.692 44.7161 632.692 M42.9973 638.548 Q38.1912 638.612 35.3266 641.253 Q32.4621 643.863 32.4621 648.192 Q32.4621 653.094 35.2312 656.054 Q38.0002 658.982 43.0292 659.428 L42.9973 638.548 Z" fill="#000000" fill-rule="nonzero" fill-opacity="1" /><path clip-path="url(#clip470)" d="M43.5384 605.319 L43.5384 588.163 L48.7583 588.163 L48.7583 605.319 L43.5384 605.319 Z" fill="#000000" fill-rule="nonzero" fill-opacity="1" /><path clip-path="url(#clip470)" d="M16.4842 558.595 L16.4842 552.134 L45.3526 552.134 Q52.9915 552.134 56.3653 549.365 Q59.7073 546.595 59.7073 540.389 Q59.7073 534.214 56.3653 531.445 Q52.9915 528.676 45.3526 528.676 L16.4842 528.676 L16.4842 522.215 L46.1484 522.215 Q55.4423 522.215 60.1847 526.83 Q64.9272 531.413 64.9272 540.389 Q64.9272 549.396 60.1847 554.011 Q55.4423 558.595 46.1484 558.595 L16.4842 558.595 Z" fill="#000000" fill-rule="nonzero" fill-opacity="1" /><path clip-path="url(#clip470)" d="M18.0438 481.665 L24.314 481.665 Q22.5634 485.326 21.704 488.572 Q20.8447 491.819 20.8447 494.842 Q20.8447 500.094 22.8817 502.959 Q24.9187 505.791 28.6745 505.791 Q31.8255 505.791 33.4488 503.913 Q35.0402 502.004 36.0269 496.72 L36.8226 492.837 Q38.1912 485.644 41.6605 482.238 Q45.098 478.801 50.8908 478.801 Q57.7976 478.801 61.3624 483.448 Q64.9272 488.063 64.9272 497.007 Q64.9272 500.38 64.1633 504.2 Q63.3994 507.987 61.9035 512.061 L55.2831 512.061 Q57.4793 508.147 58.5933 504.391 Q59.7073 500.635 59.7073 497.007 Q59.7073 491.5 57.543 488.508 Q55.3786 485.516 51.3682 485.516 Q47.8671 485.516 45.8937 487.681 Q43.9204 489.813 42.9337 494.715 L42.1698 498.63 Q40.7375 505.823 37.682 509.038 Q34.6264 512.252 29.1837 512.252 Q22.8817 512.252 19.2532 507.828 Q15.6248 503.372 15.6248 495.574 Q15.6248 492.232 16.2295 488.763 Q16.8343 485.294 18.0438 481.665 Z" fill="#000000" fill-rule="nonzero" fill-opacity="1" /><path clip-path="url(#clip470)" d="M21.7677 462.345 L58.7206 462.345 L58.7206 454.579 Q58.7206 444.744 54.2646 440.193 Q49.8086 435.609 40.1964 435.609 Q30.6479 435.609 26.2237 440.193 Q21.7677 444.744 21.7677 454.579 L21.7677 462.345 M16.4842 468.775 L16.4842 455.566 Q16.4842 441.752 22.2451 435.291 Q27.9743 428.83 40.1964 428.83 Q52.4822 428.83 58.2432 435.323 Q64.0042 441.816 64.0042 455.566 L64.0042 468.775 L16.4842 468.775 Z" fill="#000000" fill-rule="nonzero" fill-opacity="1" /><path clip-path="url(#clip470)" d="M273.367 18.8205 L273.367 41.5461 L283.656 41.5461 Q289.368 41.5461 292.487 38.5889 Q295.606 35.6318 295.606 30.163 Q295.606 24.7348 292.487 21.7777 Q289.368 18.8205 283.656 18.8205 L273.367 18.8205 M265.184 12.096 L283.656 12.096 Q293.824 12.096 299.009 16.714 Q304.234 21.2916 304.234 30.163 Q304.234 39.1155 299.009 43.6931 Q293.824 48.2706 283.656 48.2706 L273.367 48.2706 L273.367 72.576 L265.184 72.576 L265.184 12.096 Z" fill="#000000" fill-rule="nonzero" fill-opacity="1" /><path clip-path="url(#clip470)" d="M329.512 32.4315 Q323.517 32.4315 320.033 37.1306 Q316.549 41.7891 316.549 49.9314 Q316.549 58.0738 319.992 62.7728 Q323.476 67.4314 329.512 67.4314 Q335.467 67.4314 338.951 62.7323 Q342.434 58.0333 342.434 49.9314 Q342.434 41.8701 338.951 37.1711 Q335.467 32.4315 329.512 32.4315 M329.512 26.1121 Q339.234 26.1121 344.784 32.4315 Q350.334 38.7509 350.334 49.9314 Q350.334 61.0714 344.784 67.4314 Q339.234 73.7508 329.512 73.7508 Q319.749 73.7508 314.2 67.4314 Q308.69 61.0714 308.69 49.9314 Q308.69 38.7509 314.2 32.4315 Q319.749 26.1121 329.512 26.1121 Z" fill="#000000" fill-rule="nonzero" fill-opacity="1" /><path clip-path="url(#clip470)" d="M388.979 34.1734 Q387.724 33.4443 386.225 33.1202 Q384.766 32.7556 382.984 32.7556 Q376.665 32.7556 373.262 36.8875 Q369.9 40.9789 369.9 48.6757 L369.9 72.576 L362.405 72.576 L362.405 27.2059 L369.9 27.2059 L369.9 34.2544 Q372.249 30.1225 376.016 28.1376 Q379.784 26.1121 385.172 26.1121 Q385.941 26.1121 386.873 26.2337 Q387.805 26.3147 388.939 26.5172 L388.979 34.1734 Z" fill="#000000" fill-rule="nonzero" fill-opacity="1" /><path clip-path="url(#clip470)" d="M404.17 14.324 L404.17 27.2059 L419.523 27.2059 L419.523 32.9987 L404.17 32.9987 L404.17 57.6282 Q404.17 63.1779 405.669 64.7578 Q407.208 66.3376 411.867 66.3376 L419.523 66.3376 L419.523 72.576 L411.867 72.576 Q403.239 72.576 399.957 69.3758 Q396.676 66.1351 396.676 57.6282 L396.676 32.9987 L391.207 32.9987 L391.207 27.2059 L396.676 27.2059 L396.676 14.324 L404.17 14.324 Z" fill="#000000" fill-rule="nonzero" fill-opacity="1" /><path clip-path="url(#clip470)" d="M452.295 9.54393 L452.295 15.7418 L445.165 15.7418 Q441.155 15.7418 439.575 17.3622 Q438.036 18.9825 438.036 23.1955 L438.036 27.2059 L450.31 27.2059 L450.31 32.9987 L438.036 32.9987 L438.036 72.576 L430.542 72.576 L430.542 32.9987 L423.412 32.9987 L423.412 27.2059 L430.542 27.2059 L430.542 24.0462 Q430.542 16.471 434.066 13.0277 Q437.59 9.54393 445.246 9.54393 L452.295 9.54393 Z" fill="#000000" fill-rule="nonzero" fill-opacity="1" /><path clip-path="url(#clip470)" d="M476.114 32.4315 Q470.119 32.4315 466.635 37.1306 Q463.151 41.7891 463.151 49.9314 Q463.151 58.0738 466.595 62.7728 Q470.078 67.4314 476.114 67.4314 Q482.069 67.4314 485.553 62.7323 Q489.037 58.0333 489.037 49.9314 Q489.037 41.8701 485.553 37.1711 Q482.069 32.4315 476.114 32.4315 M476.114 26.1121 Q485.836 26.1121 491.386 32.4315 Q496.936 38.7509 496.936 49.9314 Q496.936 61.0714 491.386 67.4314 Q485.836 73.7508 476.114 73.7508 Q466.352 73.7508 460.802 67.4314 Q455.293 61.0714 455.293 49.9314 Q455.293 38.7509 460.802 32.4315 Q466.352 26.1121 476.114 26.1121 Z" fill="#000000" fill-rule="nonzero" fill-opacity="1" /><path clip-path="url(#clip470)" d="M509.291 9.54393 L516.745 9.54393 L516.745 72.576 L509.291 72.576 L509.291 9.54393 Z" fill="#000000" fill-rule="nonzero" fill-opacity="1" /><path clip-path="url(#clip470)" d="M532.341 27.2059 L539.795 27.2059 L539.795 72.576 L532.341 72.576 L532.341 27.2059 M532.341 9.54393 L539.795 9.54393 L539.795 18.9825 L532.341 18.9825 L532.341 9.54393 Z" fill="#000000" fill-rule="nonzero" fill-opacity="1" /><path clip-path="url(#clip470)" d="M572.971 32.4315 Q566.976 32.4315 563.492 37.1306 Q560.009 41.7891 560.009 49.9314 Q560.009 58.0738 563.452 62.7728 Q566.936 67.4314 572.971 67.4314 Q578.926 67.4314 582.41 62.7323 Q585.894 58.0333 585.894 49.9314 Q585.894 41.8701 582.41 37.1711 Q578.926 32.4315 572.971 32.4315 M572.971 26.1121 Q582.694 26.1121 588.243 32.4315 Q593.793 38.7509 593.793 49.9314 Q593.793 61.0714 588.243 67.4314 Q582.694 73.7508 572.971 73.7508 Q563.209 73.7508 557.659 67.4314 Q552.15 61.0714 552.15 49.9314 Q552.15 38.7509 557.659 32.4315 Q563.209 26.1121 572.971 26.1121 Z" fill="#000000" fill-rule="nonzero" fill-opacity="1" /><path clip-path="url(#clip470)" d="M648.44 72.576 L625.35 12.096 L633.897 12.096 L653.058 63.0159 L672.259 12.096 L680.766 12.096 L657.716 72.576 L648.44 72.576 Z" fill="#000000" fill-rule="nonzero" fill-opacity="1" /><path clip-path="url(#clip470)" d="M703.451 49.7694 Q694.418 49.7694 690.934 51.8354 Q687.45 53.9013 687.45 58.8839 Q687.45 62.8538 690.043 65.2034 Q692.676 67.5124 697.172 67.5124 Q703.37 67.5124 707.097 63.1374 Q710.864 58.7219 710.864 51.4303 L710.864 49.7694 L703.451 49.7694 M718.318 46.6907 L718.318 72.576 L710.864 72.576 L710.864 65.6895 Q708.312 69.8214 704.504 71.8063 Q700.696 73.7508 695.187 73.7508 Q688.22 73.7508 684.088 69.8619 Q679.996 65.9325 679.996 59.3701 Q679.996 51.7138 685.1 47.825 Q690.245 43.9361 700.413 43.9361 L710.864 43.9361 L710.864 43.2069 Q710.864 38.0623 707.461 35.2672 Q704.099 32.4315 697.982 32.4315 Q694.093 32.4315 690.407 33.3632 Q686.721 34.295 683.318 36.1584 L683.318 29.2718 Q687.409 27.692 691.258 26.9223 Q695.106 26.1121 698.752 26.1121 Q708.596 26.1121 713.457 31.2163 Q718.318 36.3204 718.318 46.6907 Z" fill="#000000" fill-rule="nonzero" fill-opacity="1" /><path clip-path="url(#clip470)" d="M733.671 9.54393 L741.124 9.54393 L741.124 72.576 L733.671 72.576 L733.671 9.54393 Z" fill="#000000" fill-rule="nonzero" fill-opacity="1" /><path clip-path="url(#clip470)" d="M755.951 54.671 L755.951 27.2059 L763.404 27.2059 L763.404 54.3874 Q763.404 60.8284 765.916 64.0691 Q768.428 67.2693 773.451 67.2693 Q779.487 67.2693 782.97 63.421 Q786.495 59.5726 786.495 52.9291 L786.495 27.2059 L793.948 27.2059 L793.948 72.576 L786.495 72.576 L786.495 65.6084 Q783.781 69.7404 780.175 71.7658 Q776.61 73.7508 771.871 73.7508 Q764.053 73.7508 760.002 68.8897 Q755.951 64.0286 755.951 54.671 M774.706 26.1121 L774.706 26.1121 Z" fill="#000000" fill-rule="nonzero" fill-opacity="1" /><path clip-path="url(#clip470)" d="M848.109 48.0275 L848.109 51.6733 L813.838 51.6733 Q814.324 59.3701 818.456 63.421 Q822.629 67.4314 830.042 67.4314 Q834.336 67.4314 838.346 66.3781 Q842.397 65.3249 846.367 63.2184 L846.367 70.267 Q842.357 71.9684 838.144 72.8596 Q833.931 73.7508 829.596 73.7508 Q818.74 73.7508 812.38 67.4314 Q806.06 61.1119 806.06 50.3365 Q806.06 39.1965 812.056 32.6746 Q818.092 26.1121 828.3 26.1121 Q837.455 26.1121 842.762 32.0264 Q848.109 37.9003 848.109 48.0275 M840.655 45.84 Q840.574 39.7232 837.212 36.0774 Q833.89 32.4315 828.381 32.4315 Q822.143 32.4315 818.375 35.9558 Q814.648 39.4801 814.081 45.8805 L840.655 45.84 Z" fill="#000000" fill-rule="nonzero" fill-opacity="1" /><path clip-path="url(#clip470)" d="M862.247 62.2867 L870.794 62.2867 L870.794 72.576 L862.247 72.576 L862.247 62.2867 M862.247 29.6769 L870.794 29.6769 L870.794 39.9662 L862.247 39.9662 L862.247 29.6769 Z" fill="#000000" fill-rule="nonzero" fill-opacity="1" /><path clip-path="url(#clip470)" d="M914.989 12.096 L927.183 12.096 L942.616 53.2532 L958.131 12.096 L970.325 12.096 L970.325 72.576 L962.344 72.576 L962.344 19.4686 L946.748 60.9499 L938.525 60.9499 L922.929 19.4686 L922.929 72.576 L914.989 72.576 L914.989 12.096 Z" fill="#000000" fill-rule="nonzero" fill-opacity="1" /><path clip-path="url(#clip470)" d="M1002.16 72.576 L979.075 12.096 L987.622 12.096 L1006.78 63.0159 L1025.98 12.096 L1034.49 12.096 L1011.44 72.576 L1002.16 72.576 Z" fill="#000000" fill-rule="nonzero" fill-opacity="1" /><path clip-path="url(#clip470)" d="M1034.37 46.5287 L1056.2 46.5287 L1056.2 53.1722 L1034.37 53.1722 L1034.37 46.5287 Z" fill="#000000" fill-rule="nonzero" fill-opacity="1" /><path clip-path="url(#clip470)" d="M1068.4 12.096 L1080.59 12.096 L1096.02 53.2532 L1111.54 12.096 L1123.73 12.096 L1123.73 72.576 L1115.75 72.576 L1115.75 19.4686 L1100.16 60.9499 L1091.93 60.9499 L1076.34 19.4686 L1076.34 72.576 L1068.4 72.576 L1068.4 12.096 Z" fill="#000000" fill-rule="nonzero" fill-opacity="1" /><path clip-path="url(#clip470)" d="M1148.16 18.8205 L1148.16 41.5461 L1158.45 41.5461 Q1164.16 41.5461 1167.28 38.5889 Q1170.4 35.6318 1170.4 30.163 Q1170.4 24.7348 1167.28 21.7777 Q1164.16 18.8205 1158.45 18.8205 L1148.16 18.8205 M1139.98 12.096 L1158.45 12.096 Q1168.62 12.096 1173.8 16.714 Q1179.03 21.2916 1179.03 30.163 Q1179.03 39.1155 1173.8 43.6931 Q1168.62 48.2706 1158.45 48.2706 L1148.16 48.2706 L1148.16 72.576 L1139.98 72.576 L1139.98 12.096 Z" fill="#000000" fill-rule="nonzero" fill-opacity="1" /><path clip-path="url(#clip470)" d="M1235.29 16.7545 L1235.29 25.383 Q1231.16 21.5346 1226.46 19.6307 Q1221.8 17.7268 1216.54 17.7268 Q1206.17 17.7268 1200.66 24.0867 Q1195.15 30.4061 1195.15 42.3968 Q1195.15 54.3469 1200.66 60.7069 Q1206.17 67.0263 1216.54 67.0263 Q1221.8 67.0263 1226.46 65.1223 Q1231.16 63.2184 1235.29 59.3701 L1235.29 67.9175 Q1231 70.8341 1226.18 72.2924 Q1221.4 73.7508 1216.05 73.7508 Q1202.32 73.7508 1194.42 65.3654 Q1186.52 56.9395 1186.52 42.3968 Q1186.52 27.8135 1194.42 19.4281 Q1202.32 11.0023 1216.05 11.0023 Q1221.48 11.0023 1226.26 12.4606 Q1231.08 13.8784 1235.29 16.7545 Z" fill="#000000" fill-rule="nonzero" fill-opacity="1" /><path clip-path="url(#clip470)" d="M1273.21 54.671 L1273.21 27.2059 L1280.66 27.2059 L1280.66 54.3874 Q1280.66 60.8284 1283.18 64.0691 Q1285.69 67.2693 1290.71 67.2693 Q1296.75 67.2693 1300.23 63.421 Q1303.75 59.5726 1303.75 52.9291 L1303.75 27.2059 L1311.21 27.2059 L1311.21 72.576 L1303.75 72.576 L1303.75 65.6084 Q1301.04 69.7404 1297.44 71.7658 Q1293.87 73.7508 1289.13 73.7508 Q1281.31 73.7508 1277.26 68.8897 Q1273.21 64.0286 1273.21 54.671 M1291.97 26.1121 L1291.97 26.1121 Z" fill="#000000" fill-rule="nonzero" fill-opacity="1" /><path clip-path="url(#clip470)" d="M1355.48 28.5427 L1355.48 35.5912 Q1352.32 33.9709 1348.92 33.1607 Q1345.52 32.3505 1341.87 32.3505 Q1336.32 32.3505 1333.53 34.0519 Q1330.77 35.7533 1330.77 39.156 Q1330.77 41.7486 1332.76 43.2475 Q1334.74 44.7058 1340.74 46.0426 L1343.29 46.6097 Q1351.23 48.3111 1354.55 51.4303 Q1357.92 54.509 1357.92 60.0587 Q1357.92 66.3781 1352.89 70.0644 Q1347.91 73.7508 1339.16 73.7508 Q1335.51 73.7508 1331.54 73.0216 Q1327.61 72.3329 1323.24 70.9151 L1323.24 63.2184 Q1327.37 65.3654 1331.38 66.4591 Q1335.39 67.5124 1339.32 67.5124 Q1344.59 67.5124 1347.42 65.73 Q1350.26 63.9071 1350.26 60.6258 Q1350.26 57.5877 1348.19 55.9673 Q1346.17 54.3469 1339.24 52.8481 L1336.65 52.2405 Q1329.72 50.7821 1326.64 47.7845 Q1323.56 44.7463 1323.56 39.4801 Q1323.56 33.0797 1328.1 29.5959 Q1332.64 26.1121 1340.98 26.1121 Q1345.11 26.1121 1348.76 26.7198 Q1352.41 27.3274 1355.48 28.5427 Z" fill="#000000" fill-rule="nonzero" fill-opacity="1" /><path clip-path="url(#clip470)" d="M1369.78 27.2059 L1377.24 27.2059 L1377.24 72.576 L1369.78 72.576 L1369.78 27.2059 M1369.78 9.54393 L1377.24 9.54393 L1377.24 18.9825 L1369.78 18.9825 L1369.78 9.54393 Z" fill="#000000" fill-rule="nonzero" fill-opacity="1" /><path clip-path="url(#clip470)" d="M1430.55 45.1919 L1430.55 72.576 L1423.09 72.576 L1423.09 45.4349 Q1423.09 38.994 1420.58 35.7938 Q1418.07 32.5936 1413.05 32.5936 Q1407.01 32.5936 1403.53 36.4419 Q1400.04 40.2903 1400.04 46.9338 L1400.04 72.576 L1392.55 72.576 L1392.55 27.2059 L1400.04 27.2059 L1400.04 34.2544 Q1402.72 30.163 1406.32 28.1376 Q1409.97 26.1121 1414.71 26.1121 Q1422.53 26.1121 1426.54 30.9732 Q1430.55 35.7938 1430.55 45.1919 Z" fill="#000000" fill-rule="nonzero" fill-opacity="1" /><path clip-path="url(#clip470)" d="M1475.27 49.3643 Q1475.27 41.2625 1471.91 36.8065 Q1468.59 32.3505 1462.55 32.3505 Q1456.55 32.3505 1453.19 36.8065 Q1449.87 41.2625 1449.87 49.3643 Q1449.87 57.4256 1453.19 61.8816 Q1456.55 66.3376 1462.55 66.3376 Q1468.59 66.3376 1471.91 61.8816 Q1475.27 57.4256 1475.27 49.3643 M1482.72 66.9452 Q1482.72 78.5308 1477.58 84.1616 Q1472.43 89.8329 1461.82 89.8329 Q1457.89 89.8329 1454.41 89.2252 Q1450.92 88.6581 1447.64 87.4428 L1447.64 80.1917 Q1450.92 81.9741 1454.12 82.8248 Q1457.32 83.6755 1460.65 83.6755 Q1467.98 83.6755 1471.62 79.8271 Q1475.27 76.0193 1475.27 68.282 L1475.27 64.5957 Q1472.96 68.6061 1469.36 70.5911 Q1465.75 72.576 1460.73 72.576 Q1452.38 72.576 1447.28 66.2161 Q1442.17 59.8562 1442.17 49.3643 Q1442.17 38.832 1447.28 32.472 Q1452.38 26.1121 1460.73 26.1121 Q1465.75 26.1121 1469.36 28.0971 Q1472.96 30.082 1475.27 34.0924 L1475.27 27.2059 L1482.72 27.2059 L1482.72 66.9452 Z" fill="#000000" fill-rule="nonzero" fill-opacity="1" /><path clip-path="url(#clip470)" d="M1532.95 43.6931 L1532.95 65.8515 L1546.08 65.8515 Q1552.68 65.8515 1555.84 63.1374 Q1559.04 60.3828 1559.04 54.752 Q1559.04 49.0808 1555.84 46.4072 Q1552.68 43.6931 1546.08 43.6931 L1532.95 43.6931 M1532.95 18.8205 L1532.95 37.0496 L1545.07 37.0496 Q1551.06 37.0496 1553.98 34.8216 Q1556.94 32.5531 1556.94 27.935 Q1556.94 23.3575 1553.98 21.089 Q1551.06 18.8205 1545.07 18.8205 L1532.95 18.8205 M1524.77 12.096 L1545.67 12.096 Q1555.03 12.096 1560.1 15.9849 Q1565.16 19.8737 1565.16 27.0438 Q1565.16 32.5936 1562.57 35.8748 Q1559.97 39.156 1554.95 39.9662 Q1560.99 41.2625 1564.31 45.3944 Q1567.67 49.4858 1567.67 55.6432 Q1567.67 63.745 1562.16 68.1605 Q1556.65 72.576 1546.48 72.576 L1524.77 72.576 L1524.77 12.096 Z" fill="#000000" fill-rule="nonzero" fill-opacity="1" /><path clip-path="url(#clip470)" d="M1620.17 48.0275 L1620.17 51.6733 L1585.9 51.6733 Q1586.39 59.3701 1590.52 63.421 Q1594.69 67.4314 1602.1 67.4314 Q1606.4 67.4314 1610.41 66.3781 Q1614.46 65.3249 1618.43 63.2184 L1618.43 70.267 Q1614.42 71.9684 1610.21 72.8596 Q1605.99 73.7508 1601.66 73.7508 Q1590.8 73.7508 1584.44 67.4314 Q1578.12 61.1119 1578.12 50.3365 Q1578.12 39.1965 1584.12 32.6746 Q1590.15 26.1121 1600.36 26.1121 Q1609.52 26.1121 1614.82 32.0264 Q1620.17 37.9003 1620.17 48.0275 M1612.72 45.84 Q1612.64 39.7232 1609.27 36.0774 Q1605.95 32.4315 1600.44 32.4315 Q1594.2 32.4315 1590.44 35.9558 Q1586.71 39.4801 1586.14 45.8805 L1612.72 45.84 Z" fill="#000000" fill-rule="nonzero" fill-opacity="1" /><path clip-path="url(#clip470)" d="M1670.12 45.1919 L1670.12 72.576 L1662.66 72.576 L1662.66 45.4349 Q1662.66 38.994 1660.15 35.7938 Q1657.64 32.5936 1652.62 32.5936 Q1646.58 32.5936 1643.1 36.4419 Q1639.62 40.2903 1639.62 46.9338 L1639.62 72.576 L1632.12 72.576 L1632.12 9.54393 L1639.62 9.54393 L1639.62 34.2544 Q1642.29 30.163 1645.89 28.1376 Q1649.54 26.1121 1654.28 26.1121 Q1662.1 26.1121 1666.11 30.9732 Q1670.12 35.7938 1670.12 45.1919 Z" fill="#000000" fill-rule="nonzero" fill-opacity="1" /><path clip-path="url(#clip470)" d="M1705.6 49.7694 Q1696.57 49.7694 1693.09 51.8354 Q1689.6 53.9013 1689.6 58.8839 Q1689.6 62.8538 1692.2 65.2034 Q1694.83 67.5124 1699.33 67.5124 Q1705.52 67.5124 1709.25 63.1374 Q1713.02 58.7219 1713.02 51.4303 L1713.02 49.7694 L1705.6 49.7694 M1720.47 46.6907 L1720.47 72.576 L1713.02 72.576 L1713.02 65.6895 Q1710.47 69.8214 1706.66 71.8063 Q1702.85 73.7508 1697.34 73.7508 Q1690.37 73.7508 1686.24 69.8619 Q1682.15 65.9325 1682.15 59.3701 Q1682.15 51.7138 1687.25 47.825 Q1692.4 43.9361 1702.57 43.9361 L1713.02 43.9361 L1713.02 43.2069 Q1713.02 38.0623 1709.61 35.2672 Q1706.25 32.4315 1700.14 32.4315 Q1696.25 32.4315 1692.56 33.3632 Q1688.87 34.295 1685.47 36.1584 L1685.47 29.2718 Q1689.56 27.692 1693.41 26.9223 Q1697.26 26.1121 1700.91 26.1121 Q1710.75 26.1121 1715.61 31.2163 Q1720.47 36.3204 1720.47 46.6907 Z" fill="#000000" fill-rule="nonzero" fill-opacity="1" /><path clip-path="url(#clip470)" d="M1730.48 27.2059 L1738.38 27.2059 L1752.55 65.2844 L1766.73 27.2059 L1774.63 27.2059 L1757.62 72.576 L1747.49 72.576 L1730.48 27.2059 Z" fill="#000000" fill-rule="nonzero" fill-opacity="1" /><path clip-path="url(#clip470)" d="M1784.92 27.2059 L1792.37 27.2059 L1792.37 72.576 L1784.92 72.576 L1784.92 27.2059 M1784.92 9.54393 L1792.37 9.54393 L1792.37 18.9825 L1784.92 18.9825 L1784.92 9.54393 Z" fill="#000000" fill-rule="nonzero" fill-opacity="1" /><path clip-path="url(#clip470)" d="M1825.55 32.4315 Q1819.56 32.4315 1816.07 37.1306 Q1812.59 41.7891 1812.59 49.9314 Q1812.59 58.0738 1816.03 62.7728 Q1819.52 67.4314 1825.55 67.4314 Q1831.51 67.4314 1834.99 62.7323 Q1838.47 58.0333 1838.47 49.9314 Q1838.47 41.8701 1834.99 37.1711 Q1831.51 32.4315 1825.55 32.4315 M1825.55 26.1121 Q1835.27 26.1121 1840.82 32.4315 Q1846.37 38.7509 1846.37 49.9314 Q1846.37 61.0714 1840.82 67.4314 Q1835.27 73.7508 1825.55 73.7508 Q1815.79 73.7508 1810.24 67.4314 Q1804.73 61.0714 1804.73 49.9314 Q1804.73 38.7509 1810.24 32.4315 Q1815.79 26.1121 1825.55 26.1121 Z" fill="#000000" fill-rule="nonzero" fill-opacity="1" /><path clip-path="url(#clip470)" d="M1857.96 54.671 L1857.96 27.2059 L1865.41 27.2059 L1865.41 54.3874 Q1865.41 60.8284 1867.92 64.0691 Q1870.44 67.2693 1875.46 67.2693 Q1881.49 67.2693 1884.98 63.421 Q1888.5 59.5726 1888.5 52.9291 L1888.5 27.2059 L1895.96 27.2059 L1895.96 72.576 L1888.5 72.576 L1888.5 65.6084 Q1885.79 69.7404 1882.18 71.7658 Q1878.62 73.7508 1873.88 73.7508 Q1866.06 73.7508 1862.01 68.8897 Q1857.96 64.0286 1857.96 54.671 M1876.71 26.1121 L1876.71 26.1121 Z" fill="#000000" fill-rule="nonzero" fill-opacity="1" /><path clip-path="url(#clip470)" d="M1937.6 34.1734 Q1936.34 33.4443 1934.84 33.1202 Q1933.39 32.7556 1931.6 32.7556 Q1925.28 32.7556 1921.88 36.8875 Q1918.52 40.9789 1918.52 48.6757 L1918.52 72.576 L1911.03 72.576 L1911.03 27.2059 L1918.52 27.2059 L1918.52 34.2544 Q1920.87 30.1225 1924.64 28.1376 Q1928.4 26.1121 1933.79 26.1121 Q1934.56 26.1121 1935.49 26.2337 Q1936.42 26.3147 1937.56 26.5172 L1937.6 34.1734 Z" fill="#000000" fill-rule="nonzero" fill-opacity="1" /><path clip-path="url(#clip470)" d="M1966.04 49.7694 Q1957 49.7694 1953.52 51.8354 Q1950.04 53.9013 1950.04 58.8839 Q1950.04 62.8538 1952.63 65.2034 Q1955.26 67.5124 1959.76 67.5124 Q1965.96 67.5124 1969.68 63.1374 Q1973.45 58.7219 1973.45 51.4303 L1973.45 49.7694 L1966.04 49.7694 M1980.9 46.6907 L1980.9 72.576 L1973.45 72.576 L1973.45 65.6895 Q1970.9 69.8214 1967.09 71.8063 Q1963.28 73.7508 1957.77 73.7508 Q1950.81 73.7508 1946.67 69.8619 Q1942.58 65.9325 1942.58 59.3701 Q1942.58 51.7138 1947.69 47.825 Q1952.83 43.9361 1963 43.9361 L1973.45 43.9361 L1973.45 43.2069 Q1973.45 38.0623 1970.05 35.2672 Q1966.69 32.4315 1960.57 32.4315 Q1956.68 32.4315 1952.99 33.3632 Q1949.31 34.295 1945.9 36.1584 L1945.9 29.2718 Q1950 27.692 1953.84 26.9223 Q1957.69 26.1121 1961.34 26.1121 Q1971.18 26.1121 1976.04 31.2163 Q1980.9 36.3204 1980.9 46.6907 Z" fill="#000000" fill-rule="nonzero" fill-opacity="1" /><path clip-path="url(#clip470)" d="M1996.26 9.54393 L2003.71 9.54393 L2003.71 72.576 L1996.26 72.576 L1996.26 9.54393 Z" fill="#000000" fill-rule="nonzero" fill-opacity="1" /><path clip-path="url(#clip470)" d="M2070.55 17.6457 Q2061.64 17.6457 2056.37 24.2892 Q2051.15 30.9327 2051.15 42.3968 Q2051.15 53.8203 2056.37 60.4638 Q2061.64 67.1073 2070.55 67.1073 Q2079.46 67.1073 2084.65 60.4638 Q2089.87 53.8203 2089.87 42.3968 Q2089.87 30.9327 2084.65 24.2892 Q2079.46 17.6457 2070.55 17.6457 M2070.55 11.0023 Q2083.27 11.0023 2090.89 19.5497 Q2098.5 28.0566 2098.5 42.3968 Q2098.5 56.6965 2090.89 65.2439 Q2083.27 73.7508 2070.55 73.7508 Q2057.79 73.7508 2050.13 65.2439 Q2042.52 56.737 2042.52 42.3968 Q2042.52 28.0566 2050.13 19.5497 Q2057.79 11.0023 2070.55 11.0023 Z" fill="#000000" fill-rule="nonzero" fill-opacity="1" /><path clip-path="url(#clip470)" d="M2118.19 65.7705 L2118.19 89.8329 L2110.69 89.8329 L2110.69 27.2059 L2118.19 27.2059 L2118.19 34.0924 Q2120.54 30.0415 2124.1 28.0971 Q2127.71 26.1121 2132.69 26.1121 Q2140.95 26.1121 2146.1 32.6746 Q2151.28 39.2371 2151.28 49.9314 Q2151.28 60.6258 2146.1 67.1883 Q2140.95 73.7508 2132.69 73.7508 Q2127.71 73.7508 2124.1 71.8063 Q2120.54 69.8214 2118.19 65.7705 M2143.55 49.9314 Q2143.55 41.7081 2140.14 37.0496 Q2136.78 32.3505 2130.87 32.3505 Q2124.95 32.3505 2121.55 37.0496 Q2118.19 41.7081 2118.19 49.9314 Q2118.19 58.1548 2121.55 62.8538 Q2124.95 67.5124 2130.87 67.5124 Q2136.78 67.5124 2140.14 62.8538 Q2143.55 58.1548 2143.55 49.9314 Z" fill="#000000" fill-rule="nonzero" fill-opacity="1" /><path clip-path="url(#clip470)" d="M2171.01 14.324 L2171.01 27.2059 L2186.37 27.2059 L2186.37 32.9987 L2171.01 32.9987 L2171.01 57.6282 Q2171.01 63.1779 2172.51 64.7578 Q2174.05 66.3376 2178.71 66.3376 L2186.37 66.3376 L2186.37 72.576 L2178.71 72.576 Q2170.08 72.576 2166.8 69.3758 Q2163.52 66.1351 2163.52 57.6282 L2163.52 32.9987 L2158.05 32.9987 L2158.05 27.2059 L2163.52 27.2059 L2163.52 14.324 L2171.01 14.324 Z" fill="#000000" fill-rule="nonzero" fill-opacity="1" /><path clip-path="url(#clip470)" d="M2196.17 27.2059 L2203.62 27.2059 L2203.62 72.576 L2196.17 72.576 L2196.17 27.2059 M2196.17 9.54393 L2203.62 9.54393 L2203.62 18.9825 L2196.17 18.9825 L2196.17 9.54393 Z" fill="#000000" fill-rule="nonzero" fill-opacity="1" /><path clip-path="url(#clip470)" d="M2254.54 35.9153 Q2257.34 30.8922 2261.23 28.5022 Q2265.12 26.1121 2270.38 26.1121 Q2277.47 26.1121 2281.32 31.0947 Q2285.17 36.0368 2285.17 45.1919 L2285.17 72.576 L2277.67 72.576 L2277.67 45.4349 Q2277.67 38.913 2275.36 35.7533 Q2273.05 32.5936 2268.32 32.5936 Q2262.52 32.5936 2259.16 36.4419 Q2255.8 40.2903 2255.8 46.9338 L2255.8 72.576 L2248.3 72.576 L2248.3 45.4349 Q2248.3 38.8725 2245.99 35.7533 Q2243.69 32.5936 2238.87 32.5936 Q2233.15 32.5936 2229.79 36.4824 Q2226.43 40.3308 2226.43 46.9338 L2226.43 72.576 L2218.93 72.576 L2218.93 27.2059 L2226.43 27.2059 L2226.43 34.2544 Q2228.98 30.082 2232.55 28.0971 Q2236.11 26.1121 2241.01 26.1121 Q2245.95 26.1121 2249.4 28.6237 Q2252.88 31.1352 2254.54 35.9153 Z" fill="#000000" fill-rule="nonzero" fill-opacity="1" /><path clip-path="url(#clip470)" d="M2300.03 27.2059 L2307.49 27.2059 L2307.49 72.576 L2300.03 72.576 L2300.03 27.2059 M2300.03 9.54393 L2307.49 9.54393 L2307.49 18.9825 L2300.03 18.9825 L2300.03 9.54393 Z" fill="#000000" fill-rule="nonzero" fill-opacity="1" /><path clip-path="url(#clip470)" d="M2319.84 27.2059 L2355.25 27.2059 L2355.25 34.0114 L2327.22 66.6212 L2355.25 66.6212 L2355.25 72.576 L2318.83 72.576 L2318.83 65.7705 L2346.86 33.1607 L2319.84 33.1607 L2319.84 27.2059 Z" fill="#000000" fill-rule="nonzero" fill-opacity="1" /><path clip-path="url(#clip470)" d="M2405.44 48.0275 L2405.44 51.6733 L2371.17 51.6733 Q2371.65 59.3701 2375.79 63.421 Q2379.96 67.4314 2387.37 67.4314 Q2391.67 67.4314 2395.68 66.3781 Q2399.73 65.3249 2403.7 63.2184 L2403.7 70.267 Q2399.69 71.9684 2395.47 72.8596 Q2391.26 73.7508 2386.93 73.7508 Q2376.07 73.7508 2369.71 67.4314 Q2363.39 61.1119 2363.39 50.3365 Q2363.39 39.1965 2369.39 32.6746 Q2375.42 26.1121 2385.63 26.1121 Q2394.78 26.1121 2400.09 32.0264 Q2405.44 37.9003 2405.44 48.0275 M2397.98 45.84 Q2397.9 39.7232 2394.54 36.0774 Q2391.22 32.4315 2385.71 32.4315 Q2379.47 32.4315 2375.7 35.9558 Q2371.98 39.4801 2371.41 45.8805 L2397.98 45.84 Z" fill="#000000" fill-rule="nonzero" fill-opacity="1" /><path clip-path="url(#clip470)" d="M2447.53 34.0924 L2447.53 9.54393 L2454.98 9.54393 L2454.98 72.576 L2447.53 72.576 L2447.53 65.7705 Q2445.18 69.8214 2441.57 71.8063 Q2438.01 73.7508 2432.98 73.7508 Q2424.76 73.7508 2419.58 67.1883 Q2414.43 60.6258 2414.43 49.9314 Q2414.43 39.2371 2419.58 32.6746 Q2424.76 26.1121 2432.98 26.1121 Q2438.01 26.1121 2441.57 28.0971 Q2445.18 30.0415 2447.53 34.0924 M2422.13 49.9314 Q2422.13 58.1548 2425.49 62.8538 Q2428.89 67.5124 2434.81 67.5124 Q2440.72 67.5124 2444.12 62.8538 Q2447.53 58.1548 2447.53 49.9314 Q2447.53 41.7081 2444.12 37.0496 Q2440.72 32.3505 2434.81 32.3505 Q2428.89 32.3505 2425.49 37.0496 Q2422.13 41.7081 2422.13 49.9314 Z" fill="#000000" fill-rule="nonzero" fill-opacity="1" /><polyline clip-path="url(#clip472)" style="stroke:#009af9; stroke-linecap:round; stroke-linejoin:round; stroke-width:12; stroke-opacity:1; fill:none" points="423.598,1386.4 436.792,1386.4 449.986,1386.4 463.179,1386.4 476.373,1386.4 515.954,1320.82 529.148,1224.04 542.342,1134.92 555.536,1097.09 568.73,1097.09 621.505,1097.09 634.699,1060.75 647.892,1044.98 661.086,907.474 700.668,579.002 713.861,579.002 727.055,579.002 740.249,579.002 753.443,579.002 793.024,579.002 806.218,579.002 819.412,579.002 832.606,820.285 845.799,790.071 885.381,790.071 898.575,780.147 911.768,756.333 924.962,756.326 938.156,666.03 990.931,632.237 1004.12,632.237 1017.32,722.576 1030.51,670.339 1070.09,670.339 1083.29,682.686 1096.48,601.859 1109.68,623.304 1122.87,671.815 1162.45,506.724 1175.64,486.574 1188.84,486.574 1202.03,589.037 1215.23,553.833 1254.81,371.682 1268,330.903 1281.19,330.903 1294.39,330.903 1307.58,324.849 1346.61,298.296 1359.81,294.833 1373,301.154 1386.2,290.093 1399.39,290.093 1438.97,290.093 1452.16,385.839 1465.36,325.665 1478.55,254.166 1491.75,371.581 1531.33,356.483 1544.52,333.671 1557.71,333.671 1570.91,333.671 1623.68,333.671 1636.88,333.671 1650.07,416.237 1663.26,466.799 1676.46,561.77 1716.04,642.763 1729.23,614.61 1742.43,549.345 1755.62,456.234 1768.82,456.234 1808.4,555.115 1821.59,558.063 1834.78,509.436 1847.98,461.324 1861.17,461.324 1900.75,461.324 1913.95,453.369 1927.14,448.002 1940.33,448.002 1953.53,477.414 1993.11,433.118 2006.3,488.078 2019.5,550.694 2032.69,570.637 2045.88,460.236 2085.47,367.072 2098.66,160.256 2111.85,217.342 2125.05,389.212 2138.24,343.013 2177.82,337.55 2191.02,364.128 2204.21,447.816 2217.4,478.792 2230.6,445.651 2270.18,445.651 2283.37,445.651 2296.57,428.103 "/>
<path clip-path="url(#clip470)" d="M433.587 270.476 L757.677 270.476 L757.677 166.796 L433.587 166.796  Z" fill="#ffffff" fill-rule="evenodd" fill-opacity="1"/>
<polyline clip-path="url(#clip470)" style="stroke:#000000; stroke-linecap:round; stroke-linejoin:round; stroke-width:4; stroke-opacity:1; fill:none" points="433.587,270.476 757.677,270.476 757.677,166.796 433.587,166.796 433.587,270.476 "/>
<polyline clip-path="url(#clip470)" style="stroke:#009af9; stroke-linecap:round; stroke-linejoin:round; stroke-width:12; stroke-opacity:1; fill:none" points="455.647,218.636 588.003,218.636 "/>
<path clip-path="url(#clip470)" d="M610.062 209.99 L614.576 209.99 L622.678 231.749 L630.78 209.99 L635.294 209.99 L625.572 235.916 L619.785 235.916 L610.062 209.99 Z" fill="#000000" fill-rule="nonzero" fill-opacity="1" /><path clip-path="url(#clip470)" d="M652.956 222.883 Q647.794 222.883 645.803 224.064 Q643.812 225.244 643.812 228.092 Q643.812 230.36 645.294 231.703 Q646.798 233.022 649.368 233.022 Q652.909 233.022 655.039 230.522 Q657.192 227.999 657.192 223.832 L657.192 222.883 L652.956 222.883 M661.451 221.124 L661.451 235.916 L657.192 235.916 L657.192 231.981 Q655.733 234.342 653.558 235.476 Q651.382 236.587 648.233 236.587 Q644.252 236.587 641.891 234.365 Q639.553 232.119 639.553 228.369 Q639.553 223.994 642.47 221.772 Q645.409 219.55 651.22 219.55 L657.192 219.55 L657.192 219.133 Q657.192 216.194 655.247 214.596 Q653.326 212.976 649.831 212.976 Q647.608 212.976 645.502 213.508 Q643.396 214.041 641.451 215.106 L641.451 211.17 Q643.789 210.268 645.988 209.828 Q648.187 209.365 650.271 209.365 Q655.895 209.365 658.673 212.282 Q661.451 215.198 661.451 221.124 Z" fill="#000000" fill-rule="nonzero" fill-opacity="1" /><path clip-path="url(#clip470)" d="M670.224 199.897 L674.483 199.897 L674.483 235.916 L670.224 235.916 L670.224 199.897 Z" fill="#000000" fill-rule="nonzero" fill-opacity="1" /><path clip-path="url(#clip470)" d="M682.956 225.684 L682.956 209.99 L687.215 209.99 L687.215 225.522 Q687.215 229.203 688.65 231.055 Q690.085 232.883 692.955 232.883 Q696.405 232.883 698.395 230.684 Q700.409 228.485 700.409 224.689 L700.409 209.99 L704.668 209.99 L704.668 235.916 L700.409 235.916 L700.409 231.934 Q698.858 234.295 696.798 235.453 Q694.761 236.587 692.053 236.587 Q687.585 236.587 685.27 233.809 Q682.956 231.031 682.956 225.684 M693.673 209.365 L693.673 209.365 Z" fill="#000000" fill-rule="nonzero" fill-opacity="1" /><path clip-path="url(#clip470)" d="M735.617 221.888 L735.617 223.971 L716.034 223.971 Q716.312 228.369 718.673 230.684 Q721.057 232.976 725.293 232.976 Q727.747 232.976 730.039 232.374 Q732.353 231.772 734.622 230.569 L734.622 234.596 Q732.33 235.568 729.923 236.078 Q727.515 236.587 725.039 236.587 Q718.835 236.587 715.201 232.976 Q711.59 229.365 711.59 223.207 Q711.59 216.842 715.016 213.115 Q718.465 209.365 724.298 209.365 Q729.529 209.365 732.562 212.745 Q735.617 216.101 735.617 221.888 M731.358 220.638 Q731.312 217.143 729.39 215.059 Q727.492 212.976 724.344 212.976 Q720.779 212.976 718.627 214.99 Q716.497 217.004 716.173 220.661 L731.358 220.638 Z" fill="#000000" fill-rule="nonzero" fill-opacity="1" /></svg>
