<?xml version="1.0" encoding="utf-8"?>
<svg xmlns="http://www.w3.org/2000/svg" xmlns:xlink="http://www.w3.org/1999/xlink" width="600" height="400" viewBox="0 0 2400 1600">
<defs>
  <clipPath id="clip950">
    <rect x="0" y="0" width="2400" height="1600"/>
  </clipPath>
</defs>
<path clip-path="url(#clip950)" d="M0 1600 L2400 1600 L2400 0 L0 0  Z" fill="#ffffff" fill-rule="evenodd" fill-opacity="1"/>
<defs>
  <clipPath id="clip951">
    <rect x="480" y="0" width="1681" height="1600"/>
  </clipPath>
</defs>
<path clip-path="url(#clip950)" d="M340.028 1423.18 L2352.76 1423.18 L2352.76 123.472 L340.028 123.472  Z" fill="#ffffff" fill-rule="evenodd" fill-opacity="1"/>
<defs>
  <clipPath id="clip952">
    <rect x="340" y="123" width="2014" height="1301"/>
  </clipPath>
</defs>
<polyline clip-path="url(#clip952)" style="stroke:#000000; stroke-linecap:round; stroke-linejoin:round; stroke-width:2; stroke-opacity:0.1; fill:none" points="362.468,1423.18 362.468,123.472 "/>
<polyline clip-path="url(#clip952)" style="stroke:#000000; stroke-linecap:round; stroke-linejoin:round; stroke-width:2; stroke-opacity:0.1; fill:none" points="707.704,1423.18 707.704,123.472 "/>
<polyline clip-path="url(#clip952)" style="stroke:#000000; stroke-linecap:round; stroke-linejoin:round; stroke-width:2; stroke-opacity:0.1; fill:none" points="1052.94,1423.18 1052.94,123.472 "/>
<polyline clip-path="url(#clip952)" style="stroke:#000000; stroke-linecap:round; stroke-linejoin:round; stroke-width:2; stroke-opacity:0.1; fill:none" points="1398.18,1423.18 1398.18,123.472 "/>
<polyline clip-path="url(#clip952)" style="stroke:#000000; stroke-linecap:round; stroke-linejoin:round; stroke-width:2; stroke-opacity:0.1; fill:none" points="1743.41,1423.18 1743.41,123.472 "/>
<polyline clip-path="url(#clip952)" style="stroke:#000000; stroke-linecap:round; stroke-linejoin:round; stroke-width:2; stroke-opacity:0.1; fill:none" points="2088.65,1423.18 2088.65,123.472 "/>
<polyline clip-path="url(#clip950)" style="stroke:#000000; stroke-linecap:round; stroke-linejoin:round; stroke-width:4; stroke-opacity:1; fill:none" points="340.028,1423.18 2352.76,1423.18 "/>
<polyline clip-path="url(#clip950)" style="stroke:#000000; stroke-linecap:round; stroke-linejoin:round; stroke-width:4; stroke-opacity:1; fill:none" points="362.468,1423.18 362.468,1404.28 "/>
<polyline clip-path="url(#clip950)" style="stroke:#000000; stroke-linecap:round; stroke-linejoin:round; stroke-width:4; stroke-opacity:1; fill:none" points="707.704,1423.18 707.704,1404.28 "/>
<polyline clip-path="url(#clip950)" style="stroke:#000000; stroke-linecap:round; stroke-linejoin:round; stroke-width:4; stroke-opacity:1; fill:none" points="1052.94,1423.18 1052.94,1404.28 "/>
<polyline clip-path="url(#clip950)" style="stroke:#000000; stroke-linecap:round; stroke-linejoin:round; stroke-width:4; stroke-opacity:1; fill:none" points="1398.18,1423.18 1398.18,1404.28 "/>
<polyline clip-path="url(#clip950)" style="stroke:#000000; stroke-linecap:round; stroke-linejoin:round; stroke-width:4; stroke-opacity:1; fill:none" points="1743.41,1423.18 1743.41,1404.28 "/>
<polyline clip-path="url(#clip950)" style="stroke:#000000; stroke-linecap:round; stroke-linejoin:round; stroke-width:4; stroke-opacity:1; fill:none" points="2088.65,1423.18 2088.65,1404.28 "/>
<path clip-path="url(#clip950)" d="M362.468 1454.1 Q358.857 1454.1 357.028 1457.66 Q355.223 1461.2 355.223 1468.33 Q355.223 1475.44 357.028 1479.01 Q358.857 1482.55 362.468 1482.55 Q366.102 1482.55 367.908 1479.01 Q369.737 1475.44 369.737 1468.33 Q369.737 1461.2 367.908 1457.66 Q366.102 1454.1 362.468 1454.1 M362.468 1450.39 Q368.278 1450.39 371.334 1455 Q374.412 1459.58 374.412 1468.33 Q374.412 1477.06 371.334 1481.67 Q368.278 1486.25 362.468 1486.25 Q356.658 1486.25 353.579 1481.67 Q350.524 1477.06 350.524 1468.33 Q350.524 1459.58 353.579 1455 Q356.658 1450.39 362.468 1450.39 Z" fill="#000000" fill-rule="nonzero" fill-opacity="1" /><path clip-path="url(#clip950)" d="M682.392 1481.64 L690.031 1481.64 L690.031 1455.28 L681.721 1456.95 L681.721 1452.69 L689.985 1451.02 L694.661 1451.02 L694.661 1481.64 L702.299 1481.64 L702.299 1485.58 L682.392 1485.58 L682.392 1481.64 Z" fill="#000000" fill-rule="nonzero" fill-opacity="1" /><path clip-path="url(#clip950)" d="M721.744 1454.1 Q718.133 1454.1 716.304 1457.66 Q714.498 1461.2 714.498 1468.33 Q714.498 1475.44 716.304 1479.01 Q718.133 1482.55 721.744 1482.55 Q725.378 1482.55 727.183 1479.01 Q729.012 1475.44 729.012 1468.33 Q729.012 1461.2 727.183 1457.66 Q725.378 1454.1 721.744 1454.1 M721.744 1450.39 Q727.554 1450.39 730.609 1455 Q733.688 1459.58 733.688 1468.33 Q733.688 1477.06 730.609 1481.67 Q727.554 1486.25 721.744 1486.25 Q715.934 1486.25 712.855 1481.67 Q709.799 1477.06 709.799 1468.33 Q709.799 1459.58 712.855 1455 Q715.934 1450.39 721.744 1450.39 Z" fill="#000000" fill-rule="nonzero" fill-opacity="1" /><path clip-path="url(#clip950)" d="M1031.71 1481.64 L1048.03 1481.64 L1048.03 1485.58 L1026.09 1485.58 L1026.09 1481.64 Q1028.75 1478.89 1033.33 1474.26 Q1037.94 1469.61 1039.12 1468.27 Q1041.37 1465.74 1042.25 1464.01 Q1043.15 1462.25 1043.15 1460.56 Q1043.15 1457.8 1041.2 1456.07 Q1039.28 1454.33 1036.18 1454.33 Q1033.98 1454.33 1031.53 1455.09 Q1029.1 1455.86 1026.32 1457.41 L1026.32 1452.69 Q1029.14 1451.55 1031.6 1450.97 Q1034.05 1450.39 1036.09 1450.39 Q1041.46 1450.39 1044.65 1453.08 Q1047.85 1455.77 1047.85 1460.26 Q1047.85 1462.39 1047.04 1464.31 Q1046.25 1466.2 1044.14 1468.8 Q1043.57 1469.47 1040.46 1472.69 Q1037.36 1475.88 1031.71 1481.64 Z" fill="#000000" fill-rule="nonzero" fill-opacity="1" /><path clip-path="url(#clip950)" d="M1067.85 1454.1 Q1064.24 1454.1 1062.41 1457.66 Q1060.6 1461.2 1060.6 1468.33 Q1060.6 1475.44 1062.41 1479.01 Q1064.24 1482.55 1067.85 1482.55 Q1071.48 1482.55 1073.29 1479.01 Q1075.12 1475.44 1075.12 1468.33 Q1075.12 1461.2 1073.29 1457.66 Q1071.48 1454.1 1067.85 1454.1 M1067.85 1450.39 Q1073.66 1450.39 1076.71 1455 Q1079.79 1459.58 1079.79 1468.33 Q1079.79 1477.06 1076.71 1481.67 Q1073.66 1486.25 1067.85 1486.25 Q1062.04 1486.25 1058.96 1481.67 Q1055.9 1477.06 1055.9 1468.33 Q1055.9 1459.58 1058.96 1455 Q1062.04 1450.39 1067.85 1450.39 Z" fill="#000000" fill-rule="nonzero" fill-opacity="1" /><path clip-path="url(#clip950)" d="M1387.02 1466.95 Q1390.38 1467.66 1392.25 1469.93 Q1394.15 1472.2 1394.15 1475.53 Q1394.15 1480.65 1390.63 1483.45 Q1387.11 1486.25 1380.63 1486.25 Q1378.46 1486.25 1376.14 1485.81 Q1373.85 1485.39 1371.39 1484.54 L1371.39 1480.02 Q1373.34 1481.16 1375.65 1481.74 Q1377.97 1482.32 1380.49 1482.32 Q1384.89 1482.32 1387.18 1480.58 Q1389.5 1478.84 1389.5 1475.53 Q1389.5 1472.48 1387.34 1470.77 Q1385.21 1469.03 1381.39 1469.03 L1377.37 1469.03 L1377.37 1465.19 L1381.58 1465.19 Q1385.03 1465.19 1386.86 1463.82 Q1388.69 1462.43 1388.69 1459.84 Q1388.69 1457.18 1386.79 1455.77 Q1384.91 1454.33 1381.39 1454.33 Q1379.47 1454.33 1377.27 1454.75 Q1375.08 1455.16 1372.44 1456.04 L1372.44 1451.88 Q1375.1 1451.14 1377.41 1450.77 Q1379.75 1450.39 1381.81 1450.39 Q1387.14 1450.39 1390.24 1452.83 Q1393.34 1455.23 1393.34 1459.35 Q1393.34 1462.22 1391.7 1464.21 Q1390.05 1466.18 1387.02 1466.95 Z" fill="#000000" fill-rule="nonzero" fill-opacity="1" /><path clip-path="url(#clip950)" d="M1413.02 1454.1 Q1409.4 1454.1 1407.58 1457.66 Q1405.77 1461.2 1405.77 1468.33 Q1405.77 1475.44 1407.58 1479.01 Q1409.4 1482.55 1413.02 1482.55 Q1416.65 1482.55 1418.45 1479.01 Q1420.28 1475.44 1420.28 1468.33 Q1420.28 1461.2 1418.45 1457.66 Q1416.65 1454.1 1413.02 1454.1 M1413.02 1450.39 Q1418.83 1450.39 1421.88 1455 Q1424.96 1459.58 1424.96 1468.33 Q1424.96 1477.06 1421.88 1481.67 Q1418.83 1486.25 1413.02 1486.25 Q1407.2 1486.25 1404.13 1481.67 Q1401.07 1477.06 1401.07 1468.33 Q1401.07 1459.58 1404.13 1455 Q1407.2 1450.39 1413.02 1450.39 Z" fill="#000000" fill-rule="nonzero" fill-opacity="1" /><path clip-path="url(#clip950)" d="M1731.59 1455.09 L1719.78 1473.54 L1731.59 1473.54 L1731.59 1455.09 M1730.36 1451.02 L1736.24 1451.02 L1736.24 1473.54 L1741.17 1473.54 L1741.17 1477.43 L1736.24 1477.43 L1736.24 1485.58 L1731.59 1485.58 L1731.59 1477.43 L1715.98 1477.43 L1715.98 1472.92 L1730.36 1451.02 Z" fill="#000000" fill-rule="nonzero" fill-opacity="1" /><path clip-path="url(#clip950)" d="M1758.9 1454.1 Q1755.29 1454.1 1753.46 1457.66 Q1751.65 1461.2 1751.65 1468.33 Q1751.65 1475.44 1753.46 1479.01 Q1755.29 1482.55 1758.9 1482.55 Q1762.53 1482.55 1764.34 1479.01 Q1766.17 1475.44 1766.17 1468.33 Q1766.17 1461.2 1764.34 1457.66 Q1762.53 1454.1 1758.9 1454.1 M1758.9 1450.39 Q1764.71 1450.39 1767.77 1455 Q1770.84 1459.58 1770.84 1468.33 Q1770.84 1477.06 1767.77 1481.67 Q1764.71 1486.25 1758.9 1486.25 Q1753.09 1486.25 1750.01 1481.67 Q1746.96 1477.06 1746.96 1468.33 Q1746.96 1459.58 1750.01 1455 Q1753.09 1450.39 1758.9 1450.39 Z" fill="#000000" fill-rule="nonzero" fill-opacity="1" /><path clip-path="url(#clip950)" d="M2063.35 1451.02 L2081.71 1451.02 L2081.71 1454.96 L2067.63 1454.96 L2067.63 1463.43 Q2068.65 1463.08 2069.67 1462.92 Q2070.69 1462.73 2071.71 1462.73 Q2077.49 1462.73 2080.87 1465.9 Q2084.25 1469.08 2084.25 1474.49 Q2084.25 1480.07 2080.78 1483.17 Q2077.31 1486.25 2070.99 1486.25 Q2068.81 1486.25 2066.54 1485.88 Q2064.3 1485.51 2061.89 1484.77 L2061.89 1480.07 Q2063.97 1481.2 2066.2 1481.76 Q2068.42 1482.32 2070.9 1482.32 Q2074.9 1482.32 2077.24 1480.21 Q2079.58 1478.1 2079.58 1474.49 Q2079.58 1470.88 2077.24 1468.77 Q2074.9 1466.67 2070.9 1466.67 Q2069.02 1466.67 2067.15 1467.08 Q2065.29 1467.5 2063.35 1468.38 L2063.35 1451.02 Z" fill="#000000" fill-rule="nonzero" fill-opacity="1" /><path clip-path="url(#clip950)" d="M2103.46 1454.1 Q2099.85 1454.1 2098.03 1457.66 Q2096.22 1461.2 2096.22 1468.33 Q2096.22 1475.44 2098.03 1479.01 Q2099.85 1482.55 2103.46 1482.55 Q2107.1 1482.55 2108.9 1479.01 Q2110.73 1475.44 2110.73 1468.33 Q2110.73 1461.2 2108.9 1457.66 Q2107.1 1454.1 2103.46 1454.1 M2103.46 1450.39 Q2109.27 1450.39 2112.33 1455 Q2115.41 1459.58 2115.41 1468.33 Q2115.41 1477.06 2112.33 1481.67 Q2109.27 1486.25 2103.46 1486.25 Q2097.65 1486.25 2094.58 1481.67 Q2091.52 1477.06 2091.52 1468.33 Q2091.52 1459.58 2094.58 1455 Q2097.65 1450.39 2103.46 1450.39 Z" fill="#000000" fill-rule="nonzero" fill-opacity="1" /><path clip-path="url(#clip950)" d="M1261.22 1546.53 L1261.22 1568.04 L1255.36 1568.04 L1255.36 1546.72 Q1255.36 1541.66 1253.39 1539.14 Q1251.42 1536.63 1247.47 1536.63 Q1242.73 1536.63 1239.99 1539.65 Q1237.25 1542.68 1237.25 1547.9 L1237.25 1568.04 L1231.36 1568.04 L1231.36 1518.52 L1237.25 1518.52 L1237.25 1537.93 Q1239.35 1534.72 1242.19 1533.13 Q1245.05 1531.54 1248.77 1531.54 Q1254.92 1531.54 1258.07 1535.36 Q1261.22 1539.14 1261.22 1546.53 Z" fill="#000000" fill-rule="nonzero" fill-opacity="1" /><path clip-path="url(#clip950)" d="M1286.71 1536.5 Q1282 1536.5 1279.27 1540.19 Q1276.53 1543.85 1276.53 1550.25 Q1276.53 1556.65 1279.23 1560.34 Q1281.97 1564 1286.71 1564 Q1291.39 1564 1294.13 1560.31 Q1296.87 1556.62 1296.87 1550.25 Q1296.87 1543.92 1294.13 1540.23 Q1291.39 1536.5 1286.71 1536.5 M1286.71 1531.54 Q1294.35 1531.54 1298.71 1536.5 Q1303.07 1541.47 1303.07 1550.25 Q1303.07 1559 1298.71 1564 Q1294.35 1568.97 1286.71 1568.97 Q1279.04 1568.97 1274.68 1564 Q1270.35 1559 1270.35 1550.25 Q1270.35 1541.47 1274.68 1536.5 Q1279.04 1531.54 1286.71 1531.54 Z" fill="#000000" fill-rule="nonzero" fill-opacity="1" /><path clip-path="url(#clip950)" d="M1333.44 1537.87 Q1332.45 1537.3 1331.27 1537.04 Q1330.13 1536.76 1328.73 1536.76 Q1323.76 1536.76 1321.09 1540 Q1318.45 1543.22 1318.45 1549.27 L1318.45 1568.04 L1312.56 1568.04 L1312.56 1532.4 L1318.45 1532.4 L1318.45 1537.93 Q1320.29 1534.69 1323.25 1533.13 Q1326.21 1531.54 1330.45 1531.54 Q1331.05 1531.54 1331.78 1531.63 Q1332.51 1531.7 1333.41 1531.85 L1333.44 1537.87 Z" fill="#000000" fill-rule="nonzero" fill-opacity="1" /><path clip-path="url(#clip950)" d="M1339.58 1532.4 L1345.44 1532.4 L1345.44 1568.04 L1339.58 1568.04 L1339.58 1532.4 M1339.58 1518.52 L1345.44 1518.52 L1345.44 1525.93 L1339.58 1525.93 L1339.58 1518.52 Z" fill="#000000" fill-rule="nonzero" fill-opacity="1" /><path clip-path="url(#clip950)" d="M1355.14 1532.4 L1382.96 1532.4 L1382.96 1537.74 L1360.94 1563.37 L1382.96 1563.37 L1382.96 1568.04 L1354.35 1568.04 L1354.35 1562.7 L1376.37 1537.07 L1355.14 1537.07 L1355.14 1532.4 Z" fill="#000000" fill-rule="nonzero" fill-opacity="1" /><path clip-path="url(#clip950)" d="M1405.72 1536.5 Q1401.01 1536.5 1398.27 1540.19 Q1395.54 1543.85 1395.54 1550.25 Q1395.54 1556.65 1398.24 1560.34 Q1400.98 1564 1405.72 1564 Q1410.4 1564 1413.14 1560.31 Q1415.87 1556.62 1415.87 1550.25 Q1415.87 1543.92 1413.14 1540.23 Q1410.4 1536.5 1405.72 1536.5 M1405.72 1531.54 Q1413.36 1531.54 1417.72 1536.5 Q1422.08 1541.47 1422.08 1550.25 Q1422.08 1559 1417.72 1564 Q1413.36 1568.97 1405.72 1568.97 Q1398.05 1568.97 1393.69 1564 Q1389.36 1559 1389.36 1550.25 Q1389.36 1541.47 1393.69 1536.5 Q1398.05 1531.54 1405.72 1531.54 Z" fill="#000000" fill-rule="nonzero" fill-opacity="1" /><path clip-path="url(#clip950)" d="M1461.42 1546.53 L1461.42 1568.04 L1455.56 1568.04 L1455.56 1546.72 Q1455.56 1541.66 1453.59 1539.14 Q1451.62 1536.63 1447.67 1536.63 Q1442.93 1536.63 1440.19 1539.65 Q1437.45 1542.68 1437.45 1547.9 L1437.45 1568.04 L1431.56 1568.04 L1431.56 1532.4 L1437.45 1532.4 L1437.45 1537.93 Q1439.55 1534.72 1442.39 1533.13 Q1445.25 1531.54 1448.98 1531.54 Q1455.12 1531.54 1458.27 1535.36 Q1461.42 1539.14 1461.42 1546.53 Z" fill="#000000" fill-rule="nonzero" fill-opacity="1" /><polyline clip-path="url(#clip952)" style="stroke:#000000; stroke-linecap:round; stroke-linejoin:round; stroke-width:2; stroke-opacity:0.1; fill:none" points="340.028,1281.17 2352.76,1281.17 "/>
<polyline clip-path="url(#clip952)" style="stroke:#000000; stroke-linecap:round; stroke-linejoin:round; stroke-width:2; stroke-opacity:0.1; fill:none" points="340.028,1010.13 2352.76,1010.13 "/>
<polyline clip-path="url(#clip952)" style="stroke:#000000; stroke-linecap:round; stroke-linejoin:round; stroke-width:2; stroke-opacity:0.1; fill:none" points="340.028,739.085 2352.76,739.085 "/>
<polyline clip-path="url(#clip952)" style="stroke:#000000; stroke-linecap:round; stroke-linejoin:round; stroke-width:2; stroke-opacity:0.1; fill:none" points="340.028,468.043 2352.76,468.043 "/>
<polyline clip-path="url(#clip952)" style="stroke:#000000; stroke-linecap:round; stroke-linejoin:round; stroke-width:2; stroke-opacity:0.1; fill:none" points="340.028,197 2352.76,197 "/>
<polyline clip-path="url(#clip950)" style="stroke:#000000; stroke-linecap:round; stroke-linejoin:round; stroke-width:4; stroke-opacity:1; fill:none" points="340.028,1423.18 340.028,123.472 "/>
<polyline clip-path="url(#clip950)" style="stroke:#000000; stroke-linecap:round; stroke-linejoin:round; stroke-width:4; stroke-opacity:1; fill:none" points="340.028,1281.17 358.925,1281.17 "/>
<polyline clip-path="url(#clip950)" style="stroke:#000000; stroke-linecap:round; stroke-linejoin:round; stroke-width:4; stroke-opacity:1; fill:none" points="340.028,1010.13 358.925,1010.13 "/>
<polyline clip-path="url(#clip950)" style="stroke:#000000; stroke-linecap:round; stroke-linejoin:round; stroke-width:4; stroke-opacity:1; fill:none" points="340.028,739.085 358.925,739.085 "/>
<polyline clip-path="url(#clip950)" style="stroke:#000000; stroke-linecap:round; stroke-linejoin:round; stroke-width:4; stroke-opacity:1; fill:none" points="340.028,468.043 358.925,468.043 "/>
<polyline clip-path="url(#clip950)" style="stroke:#000000; stroke-linecap:round; stroke-linejoin:round; stroke-width:4; stroke-opacity:1; fill:none" points="340.028,197 358.925,197 "/>
<path clip-path="url(#clip950)" d="M127.2 1266.97 Q123.589 1266.97 121.76 1270.53 Q119.955 1274.08 119.955 1281.21 Q119.955 1288.31 121.76 1291.88 Q123.589 1295.42 127.2 1295.42 Q130.834 1295.42 132.64 1291.88 Q134.468 1288.31 134.468 1281.21 Q134.468 1274.08 132.64 1270.53 Q130.834 1266.97 127.2 1266.97 M127.2 1263.27 Q133.01 1263.27 136.066 1267.87 Q139.144 1272.46 139.144 1281.21 Q139.144 1289.93 136.066 1294.54 Q133.01 1299.12 127.2 1299.12 Q121.39 1299.12 118.311 1294.54 Q115.256 1289.93 115.256 1281.21 Q115.256 1272.46 118.311 1267.87 Q121.39 1263.27 127.2 1263.27 Z" fill="#000000" fill-rule="nonzero" fill-opacity="1" /><path clip-path="url(#clip950)" d="M147.362 1292.57 L152.246 1292.57 L152.246 1298.45 L147.362 1298.45 L147.362 1292.57 Z" fill="#000000" fill-rule="nonzero" fill-opacity="1" /><path clip-path="url(#clip950)" d="M172.431 1266.97 Q168.82 1266.97 166.991 1270.53 Q165.186 1274.08 165.186 1281.21 Q165.186 1288.31 166.991 1291.88 Q168.82 1295.42 172.431 1295.42 Q176.065 1295.42 177.871 1291.88 Q179.7 1288.31 179.7 1281.21 Q179.7 1274.08 177.871 1270.53 Q176.065 1266.97 172.431 1266.97 M172.431 1263.27 Q178.241 1263.27 181.297 1267.87 Q184.376 1272.46 184.376 1281.21 Q184.376 1289.93 181.297 1294.54 Q178.241 1299.12 172.431 1299.12 Q166.621 1299.12 163.542 1294.54 Q160.487 1289.93 160.487 1281.21 Q160.487 1272.46 163.542 1267.87 Q166.621 1263.27 172.431 1263.27 Z" fill="#000000" fill-rule="nonzero" fill-opacity="1" /><path clip-path="url(#clip950)" d="M202.593 1266.97 Q198.982 1266.97 197.153 1270.53 Q195.348 1274.08 195.348 1281.21 Q195.348 1288.31 197.153 1291.88 Q198.982 1295.42 202.593 1295.42 Q206.227 1295.42 208.033 1291.88 Q209.861 1288.31 209.861 1281.21 Q209.861 1274.08 208.033 1270.53 Q206.227 1266.97 202.593 1266.97 M202.593 1263.27 Q208.403 1263.27 211.459 1267.87 Q214.537 1272.46 214.537 1281.21 Q214.537 1289.93 211.459 1294.54 Q208.403 1299.12 202.593 1299.12 Q196.783 1299.12 193.704 1294.54 Q190.649 1289.93 190.649 1281.21 Q190.649 1272.46 193.704 1267.87 Q196.783 1263.27 202.593 1263.27 Z" fill="#000000" fill-rule="nonzero" fill-opacity="1" /><path clip-path="url(#clip950)" d="M226.783 1294.52 L243.102 1294.52 L243.102 1298.45 L221.158 1298.45 L221.158 1294.52 Q223.82 1291.76 228.403 1287.13 Q233.01 1282.48 234.19 1281.14 Q236.435 1278.61 237.315 1276.88 Q238.218 1275.12 238.218 1273.43 Q238.218 1270.67 236.273 1268.94 Q234.352 1267.2 231.25 1267.2 Q229.051 1267.2 226.598 1267.96 Q224.167 1268.73 221.389 1270.28 L221.389 1265.56 Q224.213 1264.42 226.667 1263.84 Q229.121 1263.27 231.158 1263.27 Q236.528 1263.27 239.722 1265.95 Q242.917 1268.64 242.917 1273.13 Q242.917 1275.26 242.107 1277.18 Q241.32 1279.08 239.213 1281.67 Q238.634 1282.34 235.533 1285.56 Q232.431 1288.75 226.783 1294.52 Z" fill="#000000" fill-rule="nonzero" fill-opacity="1" /><path clip-path="url(#clip950)" d="M256.945 1294.52 L273.264 1294.52 L273.264 1298.45 L251.32 1298.45 L251.32 1294.52 Q253.982 1291.76 258.565 1287.13 Q263.171 1282.48 264.352 1281.14 Q266.597 1278.61 267.477 1276.88 Q268.38 1275.12 268.38 1273.43 Q268.38 1270.67 266.435 1268.94 Q264.514 1267.2 261.412 1267.2 Q259.213 1267.2 256.759 1267.96 Q254.329 1268.73 251.551 1270.28 L251.551 1265.56 Q254.375 1264.42 256.829 1263.84 Q259.283 1263.27 261.32 1263.27 Q266.69 1263.27 269.884 1265.95 Q273.079 1268.64 273.079 1273.13 Q273.079 1275.26 272.269 1277.18 Q271.482 1279.08 269.375 1281.67 Q268.796 1282.34 265.695 1285.56 Q262.593 1288.75 256.945 1294.52 Z" fill="#000000" fill-rule="nonzero" fill-opacity="1" /><path clip-path="url(#clip950)" d="M283.125 1263.89 L301.481 1263.89 L301.481 1267.83 L287.407 1267.83 L287.407 1276.3 Q288.426 1275.95 289.444 1275.79 Q290.463 1275.6 291.481 1275.6 Q297.268 1275.6 300.648 1278.77 Q304.028 1281.95 304.028 1287.36 Q304.028 1292.94 300.555 1296.04 Q297.083 1299.12 290.764 1299.12 Q288.588 1299.12 286.319 1298.75 Q284.074 1298.38 281.667 1297.64 L281.667 1292.94 Q283.75 1294.08 285.972 1294.63 Q288.194 1295.19 290.671 1295.19 Q294.676 1295.19 297.014 1293.08 Q299.352 1290.97 299.352 1287.36 Q299.352 1283.75 297.014 1281.64 Q294.676 1279.54 290.671 1279.54 Q288.796 1279.54 286.921 1279.96 Q285.069 1280.37 283.125 1281.25 L283.125 1263.89 Z" fill="#000000" fill-rule="nonzero" fill-opacity="1" /><path clip-path="url(#clip950)" d="M126.205 995.927 Q122.593 995.927 120.765 999.491 Q118.959 1003.03 118.959 1010.16 Q118.959 1017.27 120.765 1020.83 Q122.593 1024.38 126.205 1024.38 Q129.839 1024.38 131.644 1020.83 Q133.473 1017.27 133.473 1010.16 Q133.473 1003.03 131.644 999.491 Q129.839 995.927 126.205 995.927 M126.205 992.223 Q132.015 992.223 135.07 996.829 Q138.149 1001.41 138.149 1010.16 Q138.149 1018.89 135.07 1023.5 Q132.015 1028.08 126.205 1028.08 Q120.394 1028.08 117.316 1023.5 Q114.26 1018.89 114.26 1010.16 Q114.26 1001.41 117.316 996.829 Q120.394 992.223 126.205 992.223 Z" fill="#000000" fill-rule="nonzero" fill-opacity="1" /><path clip-path="url(#clip950)" d="M146.366 1021.53 L151.251 1021.53 L151.251 1027.41 L146.366 1027.41 L146.366 1021.53 Z" fill="#000000" fill-rule="nonzero" fill-opacity="1" /><path clip-path="url(#clip950)" d="M171.436 995.927 Q167.825 995.927 165.996 999.491 Q164.19 1003.03 164.19 1010.16 Q164.19 1017.27 165.996 1020.83 Q167.825 1024.38 171.436 1024.38 Q175.07 1024.38 176.876 1020.83 Q178.704 1017.27 178.704 1010.16 Q178.704 1003.03 176.876 999.491 Q175.07 995.927 171.436 995.927 M171.436 992.223 Q177.246 992.223 180.301 996.829 Q183.38 1001.41 183.38 1010.16 Q183.38 1018.89 180.301 1023.5 Q177.246 1028.08 171.436 1028.08 Q165.626 1028.08 162.547 1023.5 Q159.491 1018.89 159.491 1010.16 Q159.491 1001.41 162.547 996.829 Q165.626 992.223 171.436 992.223 Z" fill="#000000" fill-rule="nonzero" fill-opacity="1" /><path clip-path="url(#clip950)" d="M201.598 995.927 Q197.987 995.927 196.158 999.491 Q194.352 1003.03 194.352 1010.16 Q194.352 1017.27 196.158 1020.83 Q197.987 1024.38 201.598 1024.38 Q205.232 1024.38 207.037 1020.83 Q208.866 1017.27 208.866 1010.16 Q208.866 1003.03 207.037 999.491 Q205.232 995.927 201.598 995.927 M201.598 992.223 Q207.408 992.223 210.463 996.829 Q213.542 1001.41 213.542 1010.16 Q213.542 1018.89 210.463 1023.5 Q207.408 1028.08 201.598 1028.08 Q195.787 1028.08 192.709 1023.5 Q189.653 1018.89 189.653 1010.16 Q189.653 1001.41 192.709 996.829 Q195.787 992.223 201.598 992.223 Z" fill="#000000" fill-rule="nonzero" fill-opacity="1" /><path clip-path="url(#clip950)" d="M225.787 1023.47 L242.107 1023.47 L242.107 1027.41 L220.162 1027.41 L220.162 1023.47 Q222.824 1020.72 227.408 1016.09 Q232.014 1011.44 233.195 1010.09 Q235.44 1007.57 236.32 1005.83 Q237.222 1004.07 237.222 1002.38 Q237.222 999.63 235.278 997.894 Q233.357 996.158 230.255 996.158 Q228.056 996.158 225.602 996.922 Q223.172 997.686 220.394 999.237 L220.394 994.515 Q223.218 993.38 225.672 992.802 Q228.125 992.223 230.162 992.223 Q235.533 992.223 238.727 994.908 Q241.922 997.593 241.922 1002.08 Q241.922 1004.21 241.111 1006.13 Q240.324 1008.03 238.218 1010.63 Q237.639 1011.3 234.537 1014.51 Q231.435 1017.71 225.787 1023.47 Z" fill="#000000" fill-rule="nonzero" fill-opacity="1" /><path clip-path="url(#clip950)" d="M251.968 992.848 L270.324 992.848 L270.324 996.783 L256.25 996.783 L256.25 1005.26 Q257.269 1004.91 258.287 1004.75 Q259.306 1004.56 260.324 1004.56 Q266.111 1004.56 269.491 1007.73 Q272.87 1010.9 272.87 1016.32 Q272.87 1021.9 269.398 1025 Q265.926 1028.08 259.607 1028.08 Q257.431 1028.08 255.162 1027.71 Q252.917 1027.34 250.509 1026.6 L250.509 1021.9 Q252.593 1023.03 254.815 1023.59 Q257.037 1024.14 259.514 1024.14 Q263.519 1024.14 265.857 1022.04 Q268.195 1019.93 268.195 1016.32 Q268.195 1012.71 265.857 1010.6 Q263.519 1008.5 259.514 1008.5 Q257.639 1008.5 255.764 1008.91 Q253.912 1009.33 251.968 1010.21 L251.968 992.848 Z" fill="#000000" fill-rule="nonzero" fill-opacity="1" /><path clip-path="url(#clip950)" d="M292.083 995.927 Q288.472 995.927 286.643 999.491 Q284.838 1003.03 284.838 1010.16 Q284.838 1017.27 286.643 1020.83 Q288.472 1024.38 292.083 1024.38 Q295.718 1024.38 297.523 1020.83 Q299.352 1017.27 299.352 1010.16 Q299.352 1003.03 297.523 999.491 Q295.718 995.927 292.083 995.927 M292.083 992.223 Q297.893 992.223 300.949 996.829 Q304.028 1001.41 304.028 1010.16 Q304.028 1018.89 300.949 1023.5 Q297.893 1028.08 292.083 1028.08 Q286.273 1028.08 283.194 1023.5 Q280.139 1018.89 280.139 1010.16 Q280.139 1001.41 283.194 996.829 Q286.273 992.223 292.083 992.223 Z" fill="#000000" fill-rule="nonzero" fill-opacity="1" /><path clip-path="url(#clip950)" d="M127.2 724.884 Q123.589 724.884 121.76 728.449 Q119.955 731.99 119.955 739.12 Q119.955 746.227 121.76 749.791 Q123.589 753.333 127.2 753.333 Q130.834 753.333 132.64 749.791 Q134.468 746.227 134.468 739.12 Q134.468 731.99 132.64 728.449 Q130.834 724.884 127.2 724.884 M127.2 721.18 Q133.01 721.18 136.066 725.787 Q139.144 730.37 139.144 739.12 Q139.144 747.847 136.066 752.453 Q133.01 757.037 127.2 757.037 Q121.39 757.037 118.311 752.453 Q115.256 747.847 115.256 739.12 Q115.256 730.37 118.311 725.787 Q121.39 721.18 127.2 721.18 Z" fill="#000000" fill-rule="nonzero" fill-opacity="1" /><path clip-path="url(#clip950)" d="M147.362 750.486 L152.246 750.486 L152.246 756.365 L147.362 756.365 L147.362 750.486 Z" fill="#000000" fill-rule="nonzero" fill-opacity="1" /><path clip-path="url(#clip950)" d="M172.431 724.884 Q168.82 724.884 166.991 728.449 Q165.186 731.99 165.186 739.12 Q165.186 746.227 166.991 749.791 Q168.82 753.333 172.431 753.333 Q176.065 753.333 177.871 749.791 Q179.7 746.227 179.7 739.12 Q179.7 731.99 177.871 728.449 Q176.065 724.884 172.431 724.884 M172.431 721.18 Q178.241 721.18 181.297 725.787 Q184.376 730.37 184.376 739.12 Q184.376 747.847 181.297 752.453 Q178.241 757.037 172.431 757.037 Q166.621 757.037 163.542 752.453 Q160.487 747.847 160.487 739.12 Q160.487 730.37 163.542 725.787 Q166.621 721.18 172.431 721.18 Z" fill="#000000" fill-rule="nonzero" fill-opacity="1" /><path clip-path="url(#clip950)" d="M202.593 724.884 Q198.982 724.884 197.153 728.449 Q195.348 731.99 195.348 739.12 Q195.348 746.227 197.153 749.791 Q198.982 753.333 202.593 753.333 Q206.227 753.333 208.033 749.791 Q209.861 746.227 209.861 739.12 Q209.861 731.99 208.033 728.449 Q206.227 724.884 202.593 724.884 M202.593 721.18 Q208.403 721.18 211.459 725.787 Q214.537 730.37 214.537 739.12 Q214.537 747.847 211.459 752.453 Q208.403 757.037 202.593 757.037 Q196.783 757.037 193.704 752.453 Q190.649 747.847 190.649 739.12 Q190.649 730.37 193.704 725.787 Q196.783 721.18 202.593 721.18 Z" fill="#000000" fill-rule="nonzero" fill-opacity="1" /><path clip-path="url(#clip950)" d="M226.783 752.43 L243.102 752.43 L243.102 756.365 L221.158 756.365 L221.158 752.43 Q223.82 749.676 228.403 745.046 Q233.01 740.393 234.19 739.051 Q236.435 736.528 237.315 734.791 Q238.218 733.032 238.218 731.342 Q238.218 728.588 236.273 726.852 Q234.352 725.116 231.25 725.116 Q229.051 725.116 226.598 725.879 Q224.167 726.643 221.389 728.194 L221.389 723.472 Q224.213 722.338 226.667 721.759 Q229.121 721.18 231.158 721.18 Q236.528 721.18 239.722 723.866 Q242.917 726.551 242.917 731.041 Q242.917 733.171 242.107 735.092 Q241.32 736.99 239.213 739.583 Q238.634 740.254 235.533 743.472 Q232.431 746.666 226.783 752.43 Z" fill="#000000" fill-rule="nonzero" fill-opacity="1" /><path clip-path="url(#clip950)" d="M251.736 721.805 L273.958 721.805 L273.958 723.796 L261.412 756.365 L256.528 756.365 L268.333 725.741 L251.736 725.741 L251.736 721.805 Z" fill="#000000" fill-rule="nonzero" fill-opacity="1" /><path clip-path="url(#clip950)" d="M283.125 721.805 L301.481 721.805 L301.481 725.741 L287.407 725.741 L287.407 734.213 Q288.426 733.865 289.444 733.703 Q290.463 733.518 291.481 733.518 Q297.268 733.518 300.648 736.69 Q304.028 739.861 304.028 745.277 Q304.028 750.856 300.555 753.958 Q297.083 757.037 290.764 757.037 Q288.588 757.037 286.319 756.666 Q284.074 756.296 281.667 755.555 L281.667 750.856 Q283.75 751.99 285.972 752.546 Q288.194 753.101 290.671 753.101 Q294.676 753.101 297.014 750.995 Q299.352 748.889 299.352 745.277 Q299.352 741.666 297.014 739.56 Q294.676 737.453 290.671 737.453 Q288.796 737.453 286.921 737.87 Q285.069 738.287 283.125 739.166 L283.125 721.805 Z" fill="#000000" fill-rule="nonzero" fill-opacity="1" /><path clip-path="url(#clip950)" d="M126.205 453.842 Q122.593 453.842 120.765 457.406 Q118.959 460.948 118.959 468.078 Q118.959 475.184 120.765 478.749 Q122.593 482.29 126.205 482.29 Q129.839 482.29 131.644 478.749 Q133.473 475.184 133.473 468.078 Q133.473 460.948 131.644 457.406 Q129.839 453.842 126.205 453.842 M126.205 450.138 Q132.015 450.138 135.07 454.744 Q138.149 459.328 138.149 468.078 Q138.149 476.804 135.07 481.411 Q132.015 485.994 126.205 485.994 Q120.394 485.994 117.316 481.411 Q114.26 476.804 114.26 468.078 Q114.26 459.328 117.316 454.744 Q120.394 450.138 126.205 450.138 Z" fill="#000000" fill-rule="nonzero" fill-opacity="1" /><path clip-path="url(#clip950)" d="M146.366 479.443 L151.251 479.443 L151.251 485.323 L146.366 485.323 L146.366 479.443 Z" fill="#000000" fill-rule="nonzero" fill-opacity="1" /><path clip-path="url(#clip950)" d="M171.436 453.842 Q167.825 453.842 165.996 457.406 Q164.19 460.948 164.19 468.078 Q164.19 475.184 165.996 478.749 Q167.825 482.29 171.436 482.29 Q175.07 482.29 176.876 478.749 Q178.704 475.184 178.704 468.078 Q178.704 460.948 176.876 457.406 Q175.07 453.842 171.436 453.842 M171.436 450.138 Q177.246 450.138 180.301 454.744 Q183.38 459.328 183.38 468.078 Q183.38 476.804 180.301 481.411 Q177.246 485.994 171.436 485.994 Q165.626 485.994 162.547 481.411 Q159.491 476.804 159.491 468.078 Q159.491 459.328 162.547 454.744 Q165.626 450.138 171.436 450.138 Z" fill="#000000" fill-rule="nonzero" fill-opacity="1" /><path clip-path="url(#clip950)" d="M201.598 453.842 Q197.987 453.842 196.158 457.406 Q194.352 460.948 194.352 468.078 Q194.352 475.184 196.158 478.749 Q197.987 482.29 201.598 482.29 Q205.232 482.29 207.037 478.749 Q208.866 475.184 208.866 468.078 Q208.866 460.948 207.037 457.406 Q205.232 453.842 201.598 453.842 M201.598 450.138 Q207.408 450.138 210.463 454.744 Q213.542 459.328 213.542 468.078 Q213.542 476.804 210.463 481.411 Q207.408 485.994 201.598 485.994 Q195.787 485.994 192.709 481.411 Q189.653 476.804 189.653 468.078 Q189.653 459.328 192.709 454.744 Q195.787 450.138 201.598 450.138 Z" fill="#000000" fill-rule="nonzero" fill-opacity="1" /><path clip-path="url(#clip950)" d="M235.926 466.689 Q239.283 467.406 241.158 469.675 Q243.056 471.943 243.056 475.277 Q243.056 480.392 239.537 483.193 Q236.019 485.994 229.537 485.994 Q227.361 485.994 225.047 485.554 Q222.755 485.138 220.301 484.281 L220.301 479.767 Q222.246 480.902 224.56 481.48 Q226.875 482.059 229.398 482.059 Q233.797 482.059 236.088 480.323 Q238.403 478.587 238.403 475.277 Q238.403 472.221 236.25 470.508 Q234.121 468.772 230.301 468.772 L226.273 468.772 L226.273 464.929 L230.486 464.929 Q233.935 464.929 235.764 463.564 Q237.593 462.175 237.593 459.582 Q237.593 456.92 235.695 455.508 Q233.82 454.073 230.301 454.073 Q228.38 454.073 226.181 454.49 Q223.982 454.906 221.343 455.786 L221.343 451.619 Q224.005 450.879 226.32 450.508 Q228.658 450.138 230.718 450.138 Q236.042 450.138 239.144 452.568 Q242.246 454.976 242.246 459.096 Q242.246 461.966 240.602 463.957 Q238.959 465.925 235.926 466.689 Z" fill="#000000" fill-rule="nonzero" fill-opacity="1" /><path clip-path="url(#clip950)" d="M261.921 453.842 Q258.31 453.842 256.482 457.406 Q254.676 460.948 254.676 468.078 Q254.676 475.184 256.482 478.749 Q258.31 482.29 261.921 482.29 Q265.556 482.29 267.361 478.749 Q269.19 475.184 269.19 468.078 Q269.19 460.948 267.361 457.406 Q265.556 453.842 261.921 453.842 M261.921 450.138 Q267.732 450.138 270.787 454.744 Q273.866 459.328 273.866 468.078 Q273.866 476.804 270.787 481.411 Q267.732 485.994 261.921 485.994 Q256.111 485.994 253.033 481.411 Q249.977 476.804 249.977 468.078 Q249.977 459.328 253.033 454.744 Q256.111 450.138 261.921 450.138 Z" fill="#000000" fill-rule="nonzero" fill-opacity="1" /><path clip-path="url(#clip950)" d="M292.083 453.842 Q288.472 453.842 286.643 457.406 Q284.838 460.948 284.838 468.078 Q284.838 475.184 286.643 478.749 Q288.472 482.29 292.083 482.29 Q295.718 482.29 297.523 478.749 Q299.352 475.184 299.352 468.078 Q299.352 460.948 297.523 457.406 Q295.718 453.842 292.083 453.842 M292.083 450.138 Q297.893 450.138 300.949 454.744 Q304.028 459.328 304.028 468.078 Q304.028 476.804 300.949 481.411 Q297.893 485.994 292.083 485.994 Q286.273 485.994 283.194 481.411 Q280.139 476.804 280.139 468.078 Q280.139 459.328 283.194 454.744 Q286.273 450.138 292.083 450.138 Z" fill="#000000" fill-rule="nonzero" fill-opacity="1" /><path clip-path="url(#clip950)" d="M127.2 182.799 Q123.589 182.799 121.76 186.364 Q119.955 189.905 119.955 197.035 Q119.955 204.141 121.76 207.706 Q123.589 211.248 127.2 211.248 Q130.834 211.248 132.64 207.706 Q134.468 204.141 134.468 197.035 Q134.468 189.905 132.64 186.364 Q130.834 182.799 127.2 182.799 M127.2 179.095 Q133.01 179.095 136.066 183.702 Q139.144 188.285 139.144 197.035 Q139.144 205.762 136.066 210.368 Q133.01 214.952 127.2 214.952 Q121.39 214.952 118.311 210.368 Q115.256 205.762 115.256 197.035 Q115.256 188.285 118.311 183.702 Q121.39 179.095 127.2 179.095 Z" fill="#000000" fill-rule="nonzero" fill-opacity="1" /><path clip-path="url(#clip950)" d="M147.362 208.401 L152.246 208.401 L152.246 214.28 L147.362 214.28 L147.362 208.401 Z" fill="#000000" fill-rule="nonzero" fill-opacity="1" /><path clip-path="url(#clip950)" d="M172.431 182.799 Q168.82 182.799 166.991 186.364 Q165.186 189.905 165.186 197.035 Q165.186 204.141 166.991 207.706 Q168.82 211.248 172.431 211.248 Q176.065 211.248 177.871 207.706 Q179.7 204.141 179.7 197.035 Q179.7 189.905 177.871 186.364 Q176.065 182.799 172.431 182.799 M172.431 179.095 Q178.241 179.095 181.297 183.702 Q184.376 188.285 184.376 197.035 Q184.376 205.762 181.297 210.368 Q178.241 214.952 172.431 214.952 Q166.621 214.952 163.542 210.368 Q160.487 205.762 160.487 197.035 Q160.487 188.285 163.542 183.702 Q166.621 179.095 172.431 179.095 Z" fill="#000000" fill-rule="nonzero" fill-opacity="1" /><path clip-path="url(#clip950)" d="M202.593 182.799 Q198.982 182.799 197.153 186.364 Q195.348 189.905 195.348 197.035 Q195.348 204.141 197.153 207.706 Q198.982 211.248 202.593 211.248 Q206.227 211.248 208.033 207.706 Q209.861 204.141 209.861 197.035 Q209.861 189.905 208.033 186.364 Q206.227 182.799 202.593 182.799 M202.593 179.095 Q208.403 179.095 211.459 183.702 Q214.537 188.285 214.537 197.035 Q214.537 205.762 211.459 210.368 Q208.403 214.952 202.593 214.952 Q196.783 214.952 193.704 210.368 Q190.649 205.762 190.649 197.035 Q190.649 188.285 193.704 183.702 Q196.783 179.095 202.593 179.095 Z" fill="#000000" fill-rule="nonzero" fill-opacity="1" /><path clip-path="url(#clip950)" d="M236.922 195.646 Q240.278 196.364 242.153 198.632 Q244.051 200.901 244.051 204.234 Q244.051 209.35 240.533 212.151 Q237.014 214.952 230.533 214.952 Q228.357 214.952 226.042 214.512 Q223.75 214.095 221.297 213.239 L221.297 208.725 Q223.241 209.859 225.556 210.438 Q227.871 211.016 230.394 211.016 Q234.792 211.016 237.084 209.28 Q239.398 207.544 239.398 204.234 Q239.398 201.178 237.246 199.466 Q235.116 197.729 231.297 197.729 L227.269 197.729 L227.269 193.887 L231.482 193.887 Q234.931 193.887 236.76 192.521 Q238.588 191.132 238.588 188.54 Q238.588 185.878 236.69 184.466 Q234.815 183.03 231.297 183.03 Q229.375 183.03 227.176 183.447 Q224.977 183.864 222.338 184.743 L222.338 180.577 Q225 179.836 227.315 179.466 Q229.653 179.095 231.713 179.095 Q237.037 179.095 240.139 181.526 Q243.241 183.933 243.241 188.054 Q243.241 190.924 241.597 192.915 Q239.954 194.882 236.922 195.646 Z" fill="#000000" fill-rule="nonzero" fill-opacity="1" /><path clip-path="url(#clip950)" d="M256.945 210.345 L273.264 210.345 L273.264 214.28 L251.32 214.28 L251.32 210.345 Q253.982 207.59 258.565 202.961 Q263.171 198.308 264.352 196.966 Q266.597 194.442 267.477 192.706 Q268.38 190.947 268.38 189.257 Q268.38 186.503 266.435 184.767 Q264.514 183.03 261.412 183.03 Q259.213 183.03 256.759 183.794 Q254.329 184.558 251.551 186.109 L251.551 181.387 Q254.375 180.253 256.829 179.674 Q259.283 179.095 261.32 179.095 Q266.69 179.095 269.884 181.78 Q273.079 184.466 273.079 188.956 Q273.079 191.086 272.269 193.007 Q271.482 194.905 269.375 197.498 Q268.796 198.169 265.695 201.387 Q262.593 204.581 256.945 210.345 Z" fill="#000000" fill-rule="nonzero" fill-opacity="1" /><path clip-path="url(#clip950)" d="M283.125 179.72 L301.481 179.72 L301.481 183.655 L287.407 183.655 L287.407 192.128 Q288.426 191.78 289.444 191.618 Q290.463 191.433 291.481 191.433 Q297.268 191.433 300.648 194.604 Q304.028 197.776 304.028 203.192 Q304.028 208.771 300.555 211.873 Q297.083 214.952 290.764 214.952 Q288.588 214.952 286.319 214.581 Q284.074 214.211 281.667 213.47 L281.667 208.771 Q283.75 209.905 285.972 210.461 Q288.194 211.016 290.671 211.016 Q294.676 211.016 297.014 208.91 Q299.352 206.803 299.352 203.192 Q299.352 199.581 297.014 197.475 Q294.676 195.368 290.671 195.368 Q288.796 195.368 286.921 195.785 Q285.069 196.202 283.125 197.081 L283.125 179.72 Z" fill="#000000" fill-rule="nonzero" fill-opacity="1" /><path clip-path="url(#clip950)" d="M16.4842 874.557 L16.4842 864.976 L48.8219 852.85 L16.4842 840.659 L16.4842 831.079 L64.0042 831.079 L64.0042 837.349 L22.277 837.349 L54.8694 849.603 L54.8694 856.064 L22.277 868.318 L64.0042 868.318 L64.0042 874.557 L16.4842 874.557 Z" fill="#000000" fill-rule="nonzero" fill-opacity="1" /><path clip-path="url(#clip950)" d="M41.7242 795.781 Q42.4244 793.712 44.7161 791.771 Q47.0077 789.797 51.0181 787.824 L64.0042 781.299 L64.0042 788.206 L51.8138 794.285 Q47.0395 796.64 45.48 798.868 Q43.9204 801.065 43.9204 804.884 L43.9204 811.886 L64.0042 811.886 L64.0042 818.316 L16.4842 818.316 L16.4842 803.802 Q16.4842 795.654 19.8898 791.643 Q23.2955 787.633 30.1704 787.633 Q34.6582 787.633 37.6183 789.734 Q40.5784 791.802 41.7242 795.781 M21.7677 811.886 L38.6368 811.886 L38.6368 803.802 Q38.6368 799.155 36.5043 796.8 Q34.34 794.412 30.1704 794.412 Q26.0009 794.412 23.9002 796.8 Q21.7677 799.155 21.7677 803.802 L21.7677 811.886 Z" fill="#000000" fill-rule="nonzero" fill-opacity="1" /><path clip-path="url(#clip950)" d="M22.818 759.783 L46.4666 768.504 L46.4666 751.03 L22.818 759.783 M16.4842 763.411 L16.4842 756.123 L64.0042 738.012 L64.0042 744.696 L51.8138 749.025 L51.8138 770.446 L64.0042 774.774 L64.0042 781.554 L16.4842 763.411 Z" fill="#000000" fill-rule="nonzero" fill-opacity="1" /><path clip-path="url(#clip950)" d="M16.4842 731.074 L16.4842 701.027 L21.895 701.027 L21.895 724.644 L35.9632 724.644 L35.9632 702.014 L41.3741 702.014 L41.3741 724.644 L58.5933 724.644 L58.5933 700.455 L64.0042 700.455 L64.0042 731.074 L16.4842 731.074 Z" fill="#000000" fill-rule="nonzero" fill-opacity="1" /><path clip-path="url(#clip950)" d="M14.479 672.095 L19.3487 672.095 L19.3487 677.697 Q19.3487 680.848 20.6219 682.089 Q21.895 683.299 25.2052 683.299 L28.3562 683.299 L28.3562 673.655 L32.9077 673.655 L32.9077 683.299 L64.0042 683.299 L64.0042 689.187 L32.9077 689.187 L32.9077 694.789 L28.3562 694.789 L28.3562 689.187 L25.8736 689.187 Q19.9216 689.187 17.2162 686.418 Q14.479 683.649 14.479 677.633 L14.479 672.095 Z" fill="#000000" fill-rule="nonzero" fill-opacity="1" /><path clip-path="url(#clip950)" d="M750.078 12.096 L758.261 12.096 L758.261 65.6895 L787.711 65.6895 L787.711 72.576 L750.078 72.576 L750.078 12.096 Z" fill="#000000" fill-rule="nonzero" fill-opacity="1" /><path clip-path="url(#clip950)" d="M816.594 49.7694 Q807.561 49.7694 804.077 51.8354 Q800.593 53.9013 800.593 58.8839 Q800.593 62.8538 803.186 65.2034 Q805.819 67.5124 810.315 67.5124 Q816.513 67.5124 820.24 63.1374 Q824.007 58.7219 824.007 51.4303 L824.007 49.7694 L816.594 49.7694 M831.461 46.6907 L831.461 72.576 L824.007 72.576 L824.007 65.6895 Q821.455 69.8214 817.648 71.8063 Q813.84 73.7508 808.33 73.7508 Q801.363 73.7508 797.231 69.8619 Q793.14 65.9325 793.14 59.3701 Q793.14 51.7138 798.244 47.825 Q803.388 43.9361 813.556 43.9361 L824.007 43.9361 L824.007 43.2069 Q824.007 38.0623 820.605 35.2672 Q817.242 32.4315 811.126 32.4315 Q807.237 32.4315 803.55 33.3632 Q799.864 34.295 796.461 36.1584 L796.461 29.2718 Q800.553 27.692 804.401 26.9223 Q808.249 26.1121 811.895 26.1121 Q821.739 26.1121 826.6 31.2163 Q831.461 36.3204 831.461 46.6907 Z" fill="#000000" fill-rule="nonzero" fill-opacity="1" /><path clip-path="url(#clip950)" d="M875.737 28.5427 L875.737 35.5912 Q872.578 33.9709 869.175 33.1607 Q865.772 32.3505 862.126 32.3505 Q856.577 32.3505 853.782 34.0519 Q851.027 35.7533 851.027 39.156 Q851.027 41.7486 853.012 43.2475 Q854.997 44.7058 860.992 46.0426 L863.544 46.6097 Q871.484 48.3111 874.806 51.4303 Q878.168 54.509 878.168 60.0587 Q878.168 66.3781 873.145 70.0644 Q868.162 73.7508 859.412 73.7508 Q855.767 73.7508 851.797 73.0216 Q847.867 72.3329 843.492 70.9151 L843.492 63.2184 Q847.624 65.3654 851.635 66.4591 Q855.645 67.5124 859.574 67.5124 Q864.841 67.5124 867.676 65.73 Q870.512 63.9071 870.512 60.6258 Q870.512 57.5877 868.446 55.9673 Q866.42 54.3469 859.493 52.8481 L856.901 52.2405 Q849.974 50.7821 846.895 47.7845 Q843.816 44.7463 843.816 39.4801 Q843.816 33.0797 848.353 29.5959 Q852.89 26.1121 861.235 26.1121 Q865.367 26.1121 869.013 26.7198 Q872.659 27.3274 875.737 28.5427 Z" fill="#000000" fill-rule="nonzero" fill-opacity="1" /><path clip-path="url(#clip950)" d="M897.41 14.324 L897.41 27.2059 L912.763 27.2059 L912.763 32.9987 L897.41 32.9987 L897.41 57.6282 Q897.41 63.1779 898.909 64.7578 Q900.448 66.3376 905.107 66.3376 L912.763 66.3376 L912.763 72.576 L905.107 72.576 Q896.478 72.576 893.197 69.3758 Q889.916 66.1351 889.916 57.6282 L889.916 32.9987 L884.447 32.9987 L884.447 27.2059 L889.916 27.2059 L889.916 14.324 L897.41 14.324 Z" fill="#000000" fill-rule="nonzero" fill-opacity="1" /><path clip-path="url(#clip950)" d="M964.857 72.576 L941.767 12.096 L950.315 12.096 L969.475 63.0159 L988.677 12.096 L997.184 12.096 L974.134 72.576 L964.857 72.576 Z" fill="#000000" fill-rule="nonzero" fill-opacity="1" /><path clip-path="url(#clip950)" d="M1019.87 49.7694 Q1010.84 49.7694 1007.35 51.8354 Q1003.87 53.9013 1003.87 58.8839 Q1003.87 62.8538 1006.46 65.2034 Q1009.09 67.5124 1013.59 67.5124 Q1019.79 67.5124 1023.51 63.1374 Q1027.28 58.7219 1027.28 51.4303 L1027.28 49.7694 L1019.87 49.7694 M1034.74 46.6907 L1034.74 72.576 L1027.28 72.576 L1027.28 65.6895 Q1024.73 69.8214 1020.92 71.8063 Q1017.11 73.7508 1011.6 73.7508 Q1004.64 73.7508 1000.51 69.8619 Q996.414 65.9325 996.414 59.3701 Q996.414 51.7138 1001.52 47.825 Q1006.66 43.9361 1016.83 43.9361 L1027.28 43.9361 L1027.28 43.2069 Q1027.28 38.0623 1023.88 35.2672 Q1020.52 32.4315 1014.4 32.4315 Q1010.51 32.4315 1006.82 33.3632 Q1003.14 34.295 999.736 36.1584 L999.736 29.2718 Q1003.83 27.692 1007.68 26.9223 Q1011.52 26.1121 1015.17 26.1121 Q1025.01 26.1121 1029.87 31.2163 Q1034.74 36.3204 1034.74 46.6907 Z" fill="#000000" fill-rule="nonzero" fill-opacity="1" /><path clip-path="url(#clip950)" d="M1050.09 9.54393 L1057.54 9.54393 L1057.54 72.576 L1050.09 72.576 L1050.09 9.54393 Z" fill="#000000" fill-rule="nonzero" fill-opacity="1" /><path clip-path="url(#clip950)" d="M1072.37 54.671 L1072.37 27.2059 L1079.82 27.2059 L1079.82 54.3874 Q1079.82 60.8284 1082.33 64.0691 Q1084.85 67.2693 1089.87 67.2693 Q1095.9 67.2693 1099.39 63.421 Q1102.91 59.5726 1102.91 52.9291 L1102.91 27.2059 L1110.37 27.2059 L1110.37 72.576 L1102.91 72.576 L1102.91 65.6084 Q1100.2 69.7404 1096.59 71.7658 Q1093.03 73.7508 1088.29 73.7508 Q1080.47 73.7508 1076.42 68.8897 Q1072.37 64.0286 1072.37 54.671 M1091.12 26.1121 L1091.12 26.1121 Z" fill="#000000" fill-rule="nonzero" fill-opacity="1" /><path clip-path="url(#clip950)" d="M1164.53 48.0275 L1164.53 51.6733 L1130.26 51.6733 Q1130.74 59.3701 1134.87 63.421 Q1139.05 67.4314 1146.46 67.4314 Q1150.75 67.4314 1154.76 66.3781 Q1158.81 65.3249 1162.78 63.2184 L1162.78 70.267 Q1158.77 71.9684 1154.56 72.8596 Q1150.35 73.7508 1146.01 73.7508 Q1135.16 73.7508 1128.8 67.4314 Q1122.48 61.1119 1122.48 50.3365 Q1122.48 39.1965 1128.47 32.6746 Q1134.51 26.1121 1144.72 26.1121 Q1153.87 26.1121 1159.18 32.0264 Q1164.53 37.9003 1164.53 48.0275 M1157.07 45.84 Q1156.99 39.7232 1153.63 36.0774 Q1150.31 32.4315 1144.8 32.4315 Q1138.56 32.4315 1134.79 35.9558 Q1131.07 39.4801 1130.5 45.8805 L1157.07 45.84 Z" fill="#000000" fill-rule="nonzero" fill-opacity="1" /><path clip-path="url(#clip950)" d="M1178.66 62.2867 L1187.21 62.2867 L1187.21 72.576 L1178.66 72.576 L1178.66 62.2867 M1178.66 29.6769 L1187.21 29.6769 L1187.21 39.9662 L1178.66 39.9662 L1178.66 29.6769 Z" fill="#000000" fill-rule="nonzero" fill-opacity="1" /><path clip-path="url(#clip950)" d="M1231.41 12.096 L1243.6 12.096 L1259.03 53.2532 L1274.55 12.096 L1286.74 12.096 L1286.74 72.576 L1278.76 72.576 L1278.76 19.4686 L1263.17 60.9499 L1254.94 60.9499 L1239.35 19.4686 L1239.35 72.576 L1231.41 72.576 L1231.41 12.096 Z" fill="#000000" fill-rule="nonzero" fill-opacity="1" /><path clip-path="url(#clip950)" d="M1331.67 44.2197 Q1334.3 45.1109 1336.77 48.0275 Q1339.28 50.9442 1341.79 56.0483 L1350.1 72.576 L1341.31 72.576 L1333.57 57.061 Q1330.57 50.9847 1327.74 48.9997 Q1324.94 47.0148 1320.08 47.0148 L1311.17 47.0148 L1311.17 72.576 L1302.99 72.576 L1302.99 12.096 L1321.46 12.096 Q1331.83 12.096 1336.93 16.4305 Q1342.04 20.7649 1342.04 29.5149 Q1342.04 35.2267 1339.36 38.994 Q1336.73 42.7613 1331.67 44.2197 M1311.17 18.8205 L1311.17 40.2903 L1321.46 40.2903 Q1327.37 40.2903 1330.37 37.5762 Q1333.41 34.8216 1333.41 29.5149 Q1333.41 24.2082 1330.37 21.5346 Q1327.37 18.8205 1321.46 18.8205 L1311.17 18.8205 Z" fill="#000000" fill-rule="nonzero" fill-opacity="1" /><path clip-path="url(#clip950)" d="M1377.48 20.1573 L1366.38 50.2555 L1388.62 50.2555 L1377.48 20.1573 M1372.86 12.096 L1382.14 12.096 L1405.19 72.576 L1396.68 72.576 L1391.17 57.061 L1363.91 57.061 L1358.4 72.576 L1349.77 72.576 L1372.86 12.096 Z" fill="#000000" fill-rule="nonzero" fill-opacity="1" /><path clip-path="url(#clip950)" d="M1414.02 12.096 L1452.26 12.096 L1452.26 18.9825 L1422.2 18.9825 L1422.2 36.8875 L1451.01 36.8875 L1451.01 43.7741 L1422.2 43.7741 L1422.2 65.6895 L1452.99 65.6895 L1452.99 72.576 L1414.02 72.576 L1414.02 12.096 Z" fill="#000000" fill-rule="nonzero" fill-opacity="1" /><path clip-path="url(#clip950)" d="M1489.08 9.54393 L1489.08 15.7418 L1481.96 15.7418 Q1477.94 15.7418 1476.37 17.3622 Q1474.83 18.9825 1474.83 23.1955 L1474.83 27.2059 L1487.1 27.2059 L1487.1 32.9987 L1474.83 32.9987 L1474.83 72.576 L1467.33 72.576 L1467.33 32.9987 L1460.2 32.9987 L1460.2 27.2059 L1467.33 27.2059 L1467.33 24.0462 Q1467.33 16.471 1470.86 13.0277 Q1474.38 9.54393 1482.04 9.54393 L1489.08 9.54393 Z" fill="#000000" fill-rule="nonzero" fill-opacity="1" /><path clip-path="url(#clip950)" d="M1516.35 27.2059 L1524.25 27.2059 L1538.42 65.2844 L1552.6 27.2059 L1560.5 27.2059 L1543.49 72.576 L1533.36 72.576 L1516.35 27.2059 Z" fill="#000000" fill-rule="nonzero" fill-opacity="1" /><path clip-path="url(#clip950)" d="M1599.72 28.5427 L1599.72 35.5912 Q1596.56 33.9709 1593.15 33.1607 Q1589.75 32.3505 1586.1 32.3505 Q1580.55 32.3505 1577.76 34.0519 Q1575 35.7533 1575 39.156 Q1575 41.7486 1576.99 43.2475 Q1578.97 44.7058 1584.97 46.0426 L1587.52 46.6097 Q1595.46 48.3111 1598.78 51.4303 Q1602.15 54.509 1602.15 60.0587 Q1602.15 66.3781 1597.12 70.0644 Q1592.14 73.7508 1583.39 73.7508 Q1579.74 73.7508 1575.77 73.0216 Q1571.84 72.3329 1567.47 70.9151 L1567.47 63.2184 Q1571.6 65.3654 1575.61 66.4591 Q1579.62 67.5124 1583.55 67.5124 Q1588.82 67.5124 1591.65 65.73 Q1594.49 63.9071 1594.49 60.6258 Q1594.49 57.5877 1592.42 55.9673 Q1590.4 54.3469 1583.47 52.8481 L1580.88 52.2405 Q1573.95 50.7821 1570.87 47.7845 Q1567.79 44.7463 1567.79 39.4801 Q1567.79 33.0797 1572.33 29.5959 Q1576.87 26.1121 1585.21 26.1121 Q1589.34 26.1121 1592.99 26.7198 Q1596.64 27.3274 1599.72 28.5427 Z" fill="#000000" fill-rule="nonzero" fill-opacity="1" /><path clip-path="url(#clip950)" d="M1640.71 12.096 L1648.89 12.096 L1648.89 36.8875 L1678.63 36.8875 L1678.63 12.096 L1686.81 12.096 L1686.81 72.576 L1678.63 72.576 L1678.63 43.7741 L1648.89 43.7741 L1648.89 72.576 L1640.71 72.576 L1640.71 12.096 Z" fill="#000000" fill-rule="nonzero" fill-opacity="1" /><path clip-path="url(#clip950)" d="M1720.35 32.4315 Q1714.36 32.4315 1710.87 37.1306 Q1707.39 41.7891 1707.39 49.9314 Q1707.39 58.0738 1710.83 62.7728 Q1714.32 67.4314 1720.35 67.4314 Q1726.31 67.4314 1729.79 62.7323 Q1733.27 58.0333 1733.27 49.9314 Q1733.27 41.8701 1729.79 37.1711 Q1726.31 32.4315 1720.35 32.4315 M1720.35 26.1121 Q1730.07 26.1121 1735.62 32.4315 Q1741.17 38.7509 1741.17 49.9314 Q1741.17 61.0714 1735.62 67.4314 Q1730.07 73.7508 1720.35 73.7508 Q1710.59 73.7508 1705.04 67.4314 Q1699.53 61.0714 1699.53 49.9314 Q1699.53 38.7509 1705.04 32.4315 Q1710.59 26.1121 1720.35 26.1121 Z" fill="#000000" fill-rule="nonzero" fill-opacity="1" /><path clip-path="url(#clip950)" d="M1779.82 34.1734 Q1778.56 33.4443 1777.06 33.1202 Q1775.61 32.7556 1773.82 32.7556 Q1767.5 32.7556 1764.1 36.8875 Q1760.74 40.9789 1760.74 48.6757 L1760.74 72.576 L1753.24 72.576 L1753.24 27.2059 L1760.74 27.2059 L1760.74 34.2544 Q1763.09 30.1225 1766.86 28.1376 Q1770.62 26.1121 1776.01 26.1121 Q1776.78 26.1121 1777.71 26.2337 Q1778.64 26.3147 1779.78 26.5172 L1779.82 34.1734 Z" fill="#000000" fill-rule="nonzero" fill-opacity="1" /><path clip-path="url(#clip950)" d="M1787.64 27.2059 L1795.09 27.2059 L1795.09 72.576 L1787.64 72.576 L1787.64 27.2059 M1787.64 9.54393 L1795.09 9.54393 L1795.09 18.9825 L1787.64 18.9825 L1787.64 9.54393 Z" fill="#000000" fill-rule="nonzero" fill-opacity="1" /><path clip-path="url(#clip950)" d="M1807.45 27.2059 L1842.85 27.2059 L1842.85 34.0114 L1814.82 66.6212 L1842.85 66.6212 L1842.85 72.576 L1806.43 72.576 L1806.43 65.7705 L1834.46 33.1607 L1807.45 33.1607 L1807.45 27.2059 Z" fill="#000000" fill-rule="nonzero" fill-opacity="1" /><path clip-path="url(#clip950)" d="M1871.81 32.4315 Q1865.82 32.4315 1862.34 37.1306 Q1858.85 41.7891 1858.85 49.9314 Q1858.85 58.0738 1862.29 62.7728 Q1865.78 67.4314 1871.81 67.4314 Q1877.77 67.4314 1881.25 62.7323 Q1884.74 58.0333 1884.74 49.9314 Q1884.74 41.8701 1881.25 37.1711 Q1877.77 32.4315 1871.81 32.4315 M1871.81 26.1121 Q1881.54 26.1121 1887.09 32.4315 Q1892.64 38.7509 1892.64 49.9314 Q1892.64 61.0714 1887.09 67.4314 Q1881.54 73.7508 1871.81 73.7508 Q1862.05 73.7508 1856.5 67.4314 Q1850.99 61.0714 1850.99 49.9314 Q1850.99 38.7509 1856.5 32.4315 Q1862.05 26.1121 1871.81 26.1121 Z" fill="#000000" fill-rule="nonzero" fill-opacity="1" /><path clip-path="url(#clip950)" d="M1942.71 45.1919 L1942.71 72.576 L1935.25 72.576 L1935.25 45.4349 Q1935.25 38.994 1932.74 35.7938 Q1930.23 32.5936 1925.21 32.5936 Q1919.17 32.5936 1915.69 36.4419 Q1912.2 40.2903 1912.2 46.9338 L1912.2 72.576 L1904.71 72.576 L1904.71 27.2059 L1912.2 27.2059 L1912.2 34.2544 Q1914.88 30.163 1918.48 28.1376 Q1922.13 26.1121 1926.87 26.1121 Q1934.68 26.1121 1938.69 30.9732 Q1942.71 35.7938 1942.71 45.1919 Z" fill="#000000" fill-rule="nonzero" fill-opacity="1" /><circle clip-path="url(#clip952)" cx="396.992" cy="160.256" r="14.4" fill="#009af9" fill-rule="evenodd" fill-opacity="1" stroke="#000000" stroke-opacity="1" stroke-width="3.2"/>
<circle clip-path="url(#clip952)" cx="569.61" cy="1061.21" r="14.4" fill="#009af9" fill-rule="evenodd" fill-opacity="1" stroke="#000000" stroke-opacity="1" stroke-width="3.2"/>
<circle clip-path="url(#clip952)" cx="742.228" cy="1226.07" r="14.4" fill="#009af9" fill-rule="evenodd" fill-opacity="1" stroke="#000000" stroke-opacity="1" stroke-width="3.2"/>
<circle clip-path="url(#clip952)" cx="914.846" cy="1288.07" r="14.4" fill="#009af9" fill-rule="evenodd" fill-opacity="1" stroke="#000000" stroke-opacity="1" stroke-width="3.2"/>
<circle clip-path="url(#clip952)" cx="1087.46" cy="1293.37" r="14.4" fill="#009af9" fill-rule="evenodd" fill-opacity="1" stroke="#000000" stroke-opacity="1" stroke-width="3.2"/>
<circle clip-path="url(#clip952)" cx="1260.08" cy="1356.86" r="14.4" fill="#009af9" fill-rule="evenodd" fill-opacity="1" stroke="#000000" stroke-opacity="1" stroke-width="3.2"/>
<circle clip-path="url(#clip952)" cx="1432.7" cy="1383.28" r="14.4" fill="#009af9" fill-rule="evenodd" fill-opacity="1" stroke="#000000" stroke-opacity="1" stroke-width="3.2"/>
<circle clip-path="url(#clip952)" cx="1605.32" cy="1368.93" r="14.4" fill="#009af9" fill-rule="evenodd" fill-opacity="1" stroke="#000000" stroke-opacity="1" stroke-width="3.2"/>
<circle clip-path="url(#clip952)" cx="1777.94" cy="1368.01" r="14.4" fill="#009af9" fill-rule="evenodd" fill-opacity="1" stroke="#000000" stroke-opacity="1" stroke-width="3.2"/>
<circle clip-path="url(#clip952)" cx="1950.56" cy="1364.75" r="14.4" fill="#009af9" fill-rule="evenodd" fill-opacity="1" stroke="#000000" stroke-opacity="1" stroke-width="3.2"/>
<circle clip-path="url(#clip952)" cx="2123.17" cy="1357.45" r="14.4" fill="#009af9" fill-rule="evenodd" fill-opacity="1" stroke="#000000" stroke-opacity="1" stroke-width="3.2"/>
<circle clip-path="url(#clip952)" cx="2295.79" cy="1382.53" r="14.4" fill="#009af9" fill-rule="evenodd" fill-opacity="1" stroke="#000000" stroke-opacity="1" stroke-width="3.2"/>
<circle clip-path="url(#clip952)" cx="396.992" cy="370.861" r="14.4" fill="#e26f46" fill-rule="evenodd" fill-opacity="1" stroke="#000000" stroke-opacity="1" stroke-width="3.2"/>
<circle clip-path="url(#clip952)" cx="569.61" cy="1135.24" r="14.4" fill="#e26f46" fill-rule="evenodd" fill-opacity="1" stroke="#000000" stroke-opacity="1" stroke-width="3.2"/>
<circle clip-path="url(#clip952)" cx="742.228" cy="1233.87" r="14.4" fill="#e26f46" fill-rule="evenodd" fill-opacity="1" stroke="#000000" stroke-opacity="1" stroke-width="3.2"/>
<circle clip-path="url(#clip952)" cx="914.846" cy="1276.29" r="14.4" fill="#e26f46" fill-rule="evenodd" fill-opacity="1" stroke="#000000" stroke-opacity="1" stroke-width="3.2"/>
<circle clip-path="url(#clip952)" cx="1087.46" cy="1303.5" r="14.4" fill="#e26f46" fill-rule="evenodd" fill-opacity="1" stroke="#000000" stroke-opacity="1" stroke-width="3.2"/>
<circle clip-path="url(#clip952)" cx="1260.08" cy="1362.65" r="14.4" fill="#e26f46" fill-rule="evenodd" fill-opacity="1" stroke="#000000" stroke-opacity="1" stroke-width="3.2"/>
<circle clip-path="url(#clip952)" cx="1432.7" cy="1386.4" r="14.4" fill="#e26f46" fill-rule="evenodd" fill-opacity="1" stroke="#000000" stroke-opacity="1" stroke-width="3.2"/>
<circle clip-path="url(#clip952)" cx="1605.32" cy="1371.04" r="14.4" fill="#e26f46" fill-rule="evenodd" fill-opacity="1" stroke="#000000" stroke-opacity="1" stroke-width="3.2"/>
<circle clip-path="url(#clip952)" cx="1777.94" cy="1366.11" r="14.4" fill="#e26f46" fill-rule="evenodd" fill-opacity="1" stroke="#000000" stroke-opacity="1" stroke-width="3.2"/>
<circle clip-path="url(#clip952)" cx="1950.56" cy="1361.67" r="14.4" fill="#e26f46" fill-rule="evenodd" fill-opacity="1" stroke="#000000" stroke-opacity="1" stroke-width="3.2"/>
<circle clip-path="url(#clip952)" cx="2123.17" cy="1361.07" r="14.4" fill="#e26f46" fill-rule="evenodd" fill-opacity="1" stroke="#000000" stroke-opacity="1" stroke-width="3.2"/>
<circle clip-path="url(#clip952)" cx="2295.79" cy="1385.72" r="14.4" fill="#e26f46" fill-rule="evenodd" fill-opacity="1" stroke="#000000" stroke-opacity="1" stroke-width="3.2"/>
<path clip-path="url(#clip950)" d="M1856.43 322.316 L2285.66 322.316 L2285.66 166.796 L1856.43 166.796  Z" fill="#ffffff" fill-rule="evenodd" fill-opacity="1"/>
<polyline clip-path="url(#clip950)" style="stroke:#000000; stroke-linecap:round; stroke-linejoin:round; stroke-width:4; stroke-opacity:1; fill:none" points="1856.43,322.316 2285.66,322.316 2285.66,166.796 1856.43,166.796 1856.43,322.316 "/>
<circle clip-path="url(#clip950)" cx="1945.88" cy="218.636" r="20.48" fill="#009af9" fill-rule="evenodd" fill-opacity="1" stroke="#000000" stroke-opacity="1" stroke-width="4.55111"/>
<path clip-path="url(#clip950)" d="M2042.75 202.629 L2042.75 209.99 L2051.52 209.99 L2051.52 213.3 L2042.75 213.3 L2042.75 227.374 Q2042.75 230.545 2043.6 231.448 Q2044.48 232.351 2047.15 232.351 L2051.52 232.351 L2051.52 235.916 L2047.15 235.916 Q2042.21 235.916 2040.34 234.087 Q2038.46 232.235 2038.46 227.374 L2038.46 213.3 L2035.34 213.3 L2035.34 209.99 L2038.46 209.99 L2038.46 202.629 L2042.75 202.629 Z" fill="#000000" fill-rule="nonzero" fill-opacity="1" /><path clip-path="url(#clip950)" d="M2072.14 213.971 Q2071.43 213.555 2070.57 213.37 Q2069.74 213.161 2068.72 213.161 Q2065.11 213.161 2063.16 215.522 Q2061.24 217.86 2061.24 222.258 L2061.24 235.916 L2056.96 235.916 L2056.96 209.99 L2061.24 209.99 L2061.24 214.018 Q2062.58 211.657 2064.74 210.522 Q2066.89 209.365 2069.97 209.365 Q2070.41 209.365 2070.94 209.434 Q2071.47 209.481 2072.12 209.596 L2072.14 213.971 Z" fill="#000000" fill-rule="nonzero" fill-opacity="1" /><path clip-path="url(#clip950)" d="M2088.39 222.883 Q2083.23 222.883 2081.24 224.064 Q2079.25 225.244 2079.25 228.092 Q2079.25 230.36 2080.73 231.703 Q2082.24 233.022 2084.81 233.022 Q2088.35 233.022 2090.48 230.522 Q2092.63 227.999 2092.63 223.832 L2092.63 222.883 L2088.39 222.883 M2096.89 221.124 L2096.89 235.916 L2092.63 235.916 L2092.63 231.981 Q2091.17 234.342 2089 235.476 Q2086.82 236.587 2083.67 236.587 Q2079.69 236.587 2077.33 234.365 Q2074.99 232.119 2074.99 228.369 Q2074.99 223.994 2077.91 221.772 Q2080.85 219.55 2086.66 219.55 L2092.63 219.55 L2092.63 219.133 Q2092.63 216.194 2090.69 214.596 Q2088.77 212.976 2085.27 212.976 Q2083.05 212.976 2080.94 213.508 Q2078.83 214.041 2076.89 215.106 L2076.89 211.17 Q2079.23 210.268 2081.43 209.828 Q2083.63 209.365 2085.71 209.365 Q2091.33 209.365 2094.11 212.282 Q2096.89 215.198 2096.89 221.124 Z" fill="#000000" fill-rule="nonzero" fill-opacity="1" /><path clip-path="url(#clip950)" d="M2105.66 209.99 L2109.92 209.99 L2109.92 235.916 L2105.66 235.916 L2105.66 209.99 M2105.66 199.897 L2109.92 199.897 L2109.92 205.291 L2105.66 205.291 L2105.66 199.897 Z" fill="#000000" fill-rule="nonzero" fill-opacity="1" /><path clip-path="url(#clip950)" d="M2140.39 220.268 L2140.39 235.916 L2136.13 235.916 L2136.13 220.407 Q2136.13 216.726 2134.69 214.897 Q2133.26 213.069 2130.39 213.069 Q2126.94 213.069 2124.95 215.268 Q2122.95 217.467 2122.95 221.263 L2122.95 235.916 L2118.67 235.916 L2118.67 209.99 L2122.95 209.99 L2122.95 214.018 Q2124.48 211.68 2126.54 210.522 Q2128.63 209.365 2131.33 209.365 Q2135.8 209.365 2138.09 212.143 Q2140.39 214.897 2140.39 220.268 Z" fill="#000000" fill-rule="nonzero" fill-opacity="1" /><path clip-path="url(#clip950)" d="M2148.88 209.99 L2153.14 209.99 L2153.14 235.916 L2148.88 235.916 L2148.88 209.99 M2148.88 199.897 L2153.14 199.897 L2153.14 205.291 L2148.88 205.291 L2148.88 199.897 Z" fill="#000000" fill-rule="nonzero" fill-opacity="1" /><path clip-path="url(#clip950)" d="M2183.6 220.268 L2183.6 235.916 L2179.34 235.916 L2179.34 220.407 Q2179.34 216.726 2177.91 214.897 Q2176.47 213.069 2173.6 213.069 Q2170.15 213.069 2168.16 215.268 Q2166.17 217.467 2166.17 221.263 L2166.17 235.916 L2161.89 235.916 L2161.89 209.99 L2166.17 209.99 L2166.17 214.018 Q2167.7 211.68 2169.76 210.522 Q2171.84 209.365 2174.55 209.365 Q2179.02 209.365 2181.31 212.143 Q2183.6 214.897 2183.6 220.268 Z" fill="#000000" fill-rule="nonzero" fill-opacity="1" /><path clip-path="url(#clip950)" d="M2209.16 222.652 Q2209.16 218.022 2207.24 215.476 Q2205.34 212.93 2201.89 212.93 Q2198.46 212.93 2196.54 215.476 Q2194.64 218.022 2194.64 222.652 Q2194.64 227.258 2196.54 229.805 Q2198.46 232.351 2201.89 232.351 Q2205.34 232.351 2207.24 229.805 Q2209.16 227.258 2209.16 222.652 M2213.42 232.698 Q2213.42 239.318 2210.48 242.536 Q2207.54 245.777 2201.47 245.777 Q2199.23 245.777 2197.24 245.43 Q2195.25 245.105 2193.37 244.411 L2193.37 240.268 Q2195.25 241.286 2197.07 241.772 Q2198.9 242.258 2200.8 242.258 Q2204.99 242.258 2207.07 240.059 Q2209.16 237.883 2209.16 233.462 L2209.16 231.356 Q2207.84 233.647 2205.78 234.781 Q2203.72 235.916 2200.85 235.916 Q2196.08 235.916 2193.16 232.281 Q2190.25 228.647 2190.25 222.652 Q2190.25 216.633 2193.16 212.999 Q2196.08 209.365 2200.85 209.365 Q2203.72 209.365 2205.78 210.499 Q2207.84 211.633 2209.16 213.925 L2209.16 209.99 L2213.42 209.99 L2213.42 232.698 Z" fill="#000000" fill-rule="nonzero" fill-opacity="1" /><circle clip-path="url(#clip950)" cx="1945.88" cy="270.476" r="20.48" fill="#e26f46" fill-rule="evenodd" fill-opacity="1" stroke="#000000" stroke-opacity="1" stroke-width="4.55111"/>
<path clip-path="url(#clip950)" d="M2035.34 261.83 L2039.85 261.83 L2047.96 283.589 L2056.06 261.83 L2060.57 261.83 L2050.85 287.756 L2045.06 287.756 L2035.34 261.83 Z" fill="#000000" fill-rule="nonzero" fill-opacity="1" /><path clip-path="url(#clip950)" d="M2078.23 274.723 Q2073.07 274.723 2071.08 275.904 Q2069.09 277.084 2069.09 279.932 Q2069.09 282.2 2070.57 283.543 Q2072.08 284.862 2074.64 284.862 Q2078.19 284.862 2080.32 282.362 Q2082.47 279.839 2082.47 275.672 L2082.47 274.723 L2078.23 274.723 M2086.73 272.964 L2086.73 287.756 L2082.47 287.756 L2082.47 283.821 Q2081.01 286.182 2078.83 287.316 Q2076.66 288.427 2073.51 288.427 Q2069.53 288.427 2067.17 286.205 Q2064.83 283.959 2064.83 280.209 Q2064.83 275.834 2067.75 273.612 Q2070.69 271.39 2076.5 271.39 L2082.47 271.39 L2082.47 270.973 Q2082.47 268.034 2080.52 266.436 Q2078.6 264.816 2075.11 264.816 Q2072.89 264.816 2070.78 265.348 Q2068.67 265.881 2066.73 266.946 L2066.73 263.01 Q2069.07 262.108 2071.27 261.668 Q2073.46 261.205 2075.55 261.205 Q2081.17 261.205 2083.95 264.122 Q2086.73 267.038 2086.73 272.964 Z" fill="#000000" fill-rule="nonzero" fill-opacity="1" /><path clip-path="url(#clip950)" d="M2095.5 251.737 L2099.76 251.737 L2099.76 287.756 L2095.5 287.756 L2095.5 251.737 Z" fill="#000000" fill-rule="nonzero" fill-opacity="1" /><path clip-path="url(#clip950)" d="M2108.67 261.83 L2112.93 261.83 L2112.93 287.756 L2108.67 287.756 L2108.67 261.83 M2108.67 251.737 L2112.93 251.737 L2112.93 257.131 L2108.67 257.131 L2108.67 251.737 Z" fill="#000000" fill-rule="nonzero" fill-opacity="1" /><path clip-path="url(#clip950)" d="M2138.9 265.765 L2138.9 251.737 L2143.16 251.737 L2143.16 287.756 L2138.9 287.756 L2138.9 283.867 Q2137.56 286.182 2135.5 287.316 Q2133.46 288.427 2130.59 288.427 Q2125.89 288.427 2122.93 284.677 Q2119.99 280.927 2119.99 274.816 Q2119.99 268.705 2122.93 264.955 Q2125.89 261.205 2130.59 261.205 Q2133.46 261.205 2135.5 262.339 Q2137.56 263.45 2138.9 265.765 M2124.39 274.816 Q2124.39 279.515 2126.31 282.2 Q2128.26 284.862 2131.64 284.862 Q2135.01 284.862 2136.96 282.2 Q2138.9 279.515 2138.9 274.816 Q2138.9 270.117 2136.96 267.455 Q2135.01 264.77 2131.64 264.77 Q2128.26 264.77 2126.31 267.455 Q2124.39 270.117 2124.39 274.816 Z" fill="#000000" fill-rule="nonzero" fill-opacity="1" /><path clip-path="url(#clip950)" d="M2163.72 274.723 Q2158.56 274.723 2156.57 275.904 Q2154.58 277.084 2154.58 279.932 Q2154.58 282.2 2156.06 283.543 Q2157.56 284.862 2160.13 284.862 Q2163.67 284.862 2165.8 282.362 Q2167.95 279.839 2167.95 275.672 L2167.95 274.723 L2163.72 274.723 M2172.21 272.964 L2172.21 287.756 L2167.95 287.756 L2167.95 283.821 Q2166.5 286.182 2164.32 287.316 Q2162.14 288.427 2159 288.427 Q2155.01 288.427 2152.65 286.205 Q2150.32 283.959 2150.32 280.209 Q2150.32 275.834 2153.23 273.612 Q2156.17 271.39 2161.98 271.39 L2167.95 271.39 L2167.95 270.973 Q2167.95 268.034 2166.01 266.436 Q2164.09 264.816 2160.59 264.816 Q2158.37 264.816 2156.26 265.348 Q2154.16 265.881 2152.21 266.946 L2152.21 263.01 Q2154.55 262.108 2156.75 261.668 Q2158.95 261.205 2161.03 261.205 Q2166.66 261.205 2169.44 264.122 Q2172.21 267.038 2172.21 272.964 Z" fill="#000000" fill-rule="nonzero" fill-opacity="1" /><path clip-path="url(#clip950)" d="M2185.2 254.469 L2185.2 261.83 L2193.97 261.83 L2193.97 265.14 L2185.2 265.14 L2185.2 279.214 Q2185.2 282.385 2186.06 283.288 Q2186.94 284.191 2189.6 284.191 L2193.97 284.191 L2193.97 287.756 L2189.6 287.756 Q2184.67 287.756 2182.79 285.927 Q2180.92 284.075 2180.92 279.214 L2180.92 265.14 L2177.79 265.14 L2177.79 261.83 L2180.92 261.83 L2180.92 254.469 L2185.2 254.469 Z" fill="#000000" fill-rule="nonzero" fill-opacity="1" /><path clip-path="url(#clip950)" d="M2199.57 261.83 L2203.83 261.83 L2203.83 287.756 L2199.57 287.756 L2199.57 261.83 M2199.57 251.737 L2203.83 251.737 L2203.83 257.131 L2199.57 257.131 L2199.57 251.737 Z" fill="#000000" fill-rule="nonzero" fill-opacity="1" /><path clip-path="url(#clip950)" d="M2222.79 264.816 Q2219.37 264.816 2217.38 267.501 Q2215.38 270.163 2215.38 274.816 Q2215.38 279.469 2217.35 282.154 Q2219.34 284.816 2222.79 284.816 Q2226.2 284.816 2228.19 282.131 Q2230.18 279.446 2230.18 274.816 Q2230.18 270.21 2228.19 267.524 Q2226.2 264.816 2222.79 264.816 M2222.79 261.205 Q2228.35 261.205 2231.52 264.816 Q2234.69 268.427 2234.69 274.816 Q2234.69 281.182 2231.52 284.816 Q2228.35 288.427 2222.79 288.427 Q2217.21 288.427 2214.04 284.816 Q2210.89 281.182 2210.89 274.816 Q2210.89 268.427 2214.04 264.816 Q2217.21 261.205 2222.79 261.205 Z" fill="#000000" fill-rule="nonzero" fill-opacity="1" /><path clip-path="url(#clip950)" d="M2263.3 272.108 L2263.3 287.756 L2259.04 287.756 L2259.04 272.247 Q2259.04 268.566 2257.61 266.737 Q2256.17 264.909 2253.3 264.909 Q2249.85 264.909 2247.86 267.108 Q2245.87 269.307 2245.87 273.103 L2245.87 287.756 L2241.59 287.756 L2241.59 261.83 L2245.87 261.83 L2245.87 265.858 Q2247.4 263.52 2249.46 262.362 Q2251.54 261.205 2254.25 261.205 Q2258.72 261.205 2261.01 263.983 Q2263.3 266.737 2263.3 272.108 Z" fill="#000000" fill-rule="nonzero" fill-opacity="1" /></svg>
