<?xml version="1.0" encoding="utf-8"?>
<svg xmlns="http://www.w3.org/2000/svg" xmlns:xlink="http://www.w3.org/1999/xlink" width="600" height="400" viewBox="0 0 2400 1600">
<defs>
  <clipPath id="clip110">
    <rect x="0" y="0" width="2400" height="1600"/>
  </clipPath>
</defs>
<path clip-path="url(#clip110)" d="M0 1600 L2400 1600 L2400 0 L0 0  Z" fill="#ffffff" fill-rule="evenodd" fill-opacity="1"/>
<defs>
  <clipPath id="clip111">
    <rect x="480" y="0" width="1681" height="1600"/>
  </clipPath>
</defs>
<path clip-path="url(#clip110)" d="M370.19 1423.18 L2352.76 1423.18 L2352.76 123.472 L370.19 123.472  Z" fill="#ffffff" fill-rule="evenodd" fill-opacity="1"/>
<defs>
  <clipPath id="clip112">
    <rect x="370" y="123" width="1984" height="1301"/>
  </clipPath>
</defs>
<polyline clip-path="url(#clip112)" style="stroke:#000000; stroke-linecap:round; stroke-linejoin:round; stroke-width:2; stroke-opacity:0.1; fill:none" points="626.694,1423.18 626.694,123.472 "/>
<polyline clip-path="url(#clip112)" style="stroke:#000000; stroke-linecap:round; stroke-linejoin:round; stroke-width:2; stroke-opacity:0.1; fill:none" points="960.684,1423.18 960.684,123.472 "/>
<polyline clip-path="url(#clip112)" style="stroke:#000000; stroke-linecap:round; stroke-linejoin:round; stroke-width:2; stroke-opacity:0.1; fill:none" points="1294.67,1423.18 1294.67,123.472 "/>
<polyline clip-path="url(#clip112)" style="stroke:#000000; stroke-linecap:round; stroke-linejoin:round; stroke-width:2; stroke-opacity:0.1; fill:none" points="1628.66,1423.18 1628.66,123.472 "/>
<polyline clip-path="url(#clip112)" style="stroke:#000000; stroke-linecap:round; stroke-linejoin:round; stroke-width:2; stroke-opacity:0.1; fill:none" points="1962.66,1423.18 1962.66,123.472 "/>
<polyline clip-path="url(#clip112)" style="stroke:#000000; stroke-linecap:round; stroke-linejoin:round; stroke-width:2; stroke-opacity:0.1; fill:none" points="2296.65,1423.18 2296.65,123.472 "/>
<polyline clip-path="url(#clip110)" style="stroke:#000000; stroke-linecap:round; stroke-linejoin:round; stroke-width:4; stroke-opacity:1; fill:none" points="370.19,1423.18 2352.76,1423.18 "/>
<polyline clip-path="url(#clip110)" style="stroke:#000000; stroke-linecap:round; stroke-linejoin:round; stroke-width:4; stroke-opacity:1; fill:none" points="626.694,1423.18 626.694,1404.28 "/>
<polyline clip-path="url(#clip110)" style="stroke:#000000; stroke-linecap:round; stroke-linejoin:round; stroke-width:4; stroke-opacity:1; fill:none" points="960.684,1423.18 960.684,1404.28 "/>
<polyline clip-path="url(#clip110)" style="stroke:#000000; stroke-linecap:round; stroke-linejoin:round; stroke-width:4; stroke-opacity:1; fill:none" points="1294.67,1423.18 1294.67,1404.28 "/>
<polyline clip-path="url(#clip110)" style="stroke:#000000; stroke-linecap:round; stroke-linejoin:round; stroke-width:4; stroke-opacity:1; fill:none" points="1628.66,1423.18 1628.66,1404.28 "/>
<polyline clip-path="url(#clip110)" style="stroke:#000000; stroke-linecap:round; stroke-linejoin:round; stroke-width:4; stroke-opacity:1; fill:none" points="1962.66,1423.18 1962.66,1404.28 "/>
<polyline clip-path="url(#clip110)" style="stroke:#000000; stroke-linecap:round; stroke-linejoin:round; stroke-width:4; stroke-opacity:1; fill:none" points="2296.65,1423.18 2296.65,1404.28 "/>
<path clip-path="url(#clip110)" d="M616.972 1451.02 L635.328 1451.02 L635.328 1454.96 L621.254 1454.96 L621.254 1463.43 Q622.273 1463.08 623.291 1462.92 Q624.31 1462.73 625.328 1462.73 Q631.115 1462.73 634.495 1465.9 Q637.875 1469.08 637.875 1474.49 Q637.875 1480.07 634.402 1483.17 Q630.93 1486.25 624.611 1486.25 Q622.435 1486.25 620.166 1485.88 Q617.921 1485.51 615.514 1484.77 L615.514 1480.07 Q617.597 1481.2 619.819 1481.76 Q622.041 1482.32 624.518 1482.32 Q628.523 1482.32 630.861 1480.21 Q633.199 1478.1 633.199 1474.49 Q633.199 1470.88 630.861 1468.77 Q628.523 1466.67 624.518 1466.67 Q622.643 1466.67 620.768 1467.08 Q618.916 1467.5 616.972 1468.38 L616.972 1451.02 Z" fill="#000000" fill-rule="nonzero" fill-opacity="1" /><path clip-path="url(#clip110)" d="M935.372 1481.64 L943.011 1481.64 L943.011 1455.28 L934.701 1456.95 L934.701 1452.69 L942.965 1451.02 L947.64 1451.02 L947.64 1481.64 L955.279 1481.64 L955.279 1485.58 L935.372 1485.58 L935.372 1481.64 Z" fill="#000000" fill-rule="nonzero" fill-opacity="1" /><path clip-path="url(#clip110)" d="M974.724 1454.1 Q971.113 1454.1 969.284 1457.66 Q967.478 1461.2 967.478 1468.33 Q967.478 1475.44 969.284 1479.01 Q971.113 1482.55 974.724 1482.55 Q978.358 1482.55 980.163 1479.01 Q981.992 1475.44 981.992 1468.33 Q981.992 1461.2 980.163 1457.66 Q978.358 1454.1 974.724 1454.1 M974.724 1450.39 Q980.534 1450.39 983.589 1455 Q986.668 1459.58 986.668 1468.33 Q986.668 1477.06 983.589 1481.67 Q980.534 1486.25 974.724 1486.25 Q968.913 1486.25 965.835 1481.67 Q962.779 1477.06 962.779 1468.33 Q962.779 1459.58 965.835 1455 Q968.913 1450.39 974.724 1450.39 Z" fill="#000000" fill-rule="nonzero" fill-opacity="1" /><path clip-path="url(#clip110)" d="M1269.86 1481.64 L1277.5 1481.64 L1277.5 1455.28 L1269.19 1456.95 L1269.19 1452.69 L1277.45 1451.02 L1282.13 1451.02 L1282.13 1481.64 L1289.77 1481.64 L1289.77 1485.58 L1269.86 1485.58 L1269.86 1481.64 Z" fill="#000000" fill-rule="nonzero" fill-opacity="1" /><path clip-path="url(#clip110)" d="M1299.26 1451.02 L1317.61 1451.02 L1317.61 1454.96 L1303.54 1454.96 L1303.54 1463.43 Q1304.56 1463.08 1305.58 1462.92 Q1306.6 1462.73 1307.61 1462.73 Q1313.4 1462.73 1316.78 1465.9 Q1320.16 1469.08 1320.16 1474.49 Q1320.16 1480.07 1316.69 1483.17 Q1313.22 1486.25 1306.9 1486.25 Q1304.72 1486.25 1302.45 1485.88 Q1300.21 1485.51 1297.8 1484.77 L1297.8 1480.07 Q1299.88 1481.2 1302.11 1481.76 Q1304.33 1482.32 1306.8 1482.32 Q1310.81 1482.32 1313.15 1480.21 Q1315.48 1478.1 1315.48 1474.49 Q1315.48 1470.88 1313.15 1468.77 Q1310.81 1466.67 1306.8 1466.67 Q1304.93 1466.67 1303.05 1467.08 Q1301.2 1467.5 1299.26 1468.38 L1299.26 1451.02 Z" fill="#000000" fill-rule="nonzero" fill-opacity="1" /><path clip-path="url(#clip110)" d="M1607.44 1481.64 L1623.76 1481.64 L1623.76 1485.58 L1601.81 1485.58 L1601.81 1481.64 Q1604.48 1478.89 1609.06 1474.26 Q1613.67 1469.61 1614.85 1468.27 Q1617.09 1465.74 1617.97 1464.01 Q1618.87 1462.25 1618.87 1460.56 Q1618.87 1457.8 1616.93 1456.07 Q1615.01 1454.33 1611.91 1454.33 Q1609.71 1454.33 1607.25 1455.09 Q1604.82 1455.86 1602.04 1457.41 L1602.04 1452.69 Q1604.87 1451.55 1607.32 1450.97 Q1609.78 1450.39 1611.81 1450.39 Q1617.18 1450.39 1620.38 1453.08 Q1623.57 1455.77 1623.57 1460.26 Q1623.57 1462.39 1622.76 1464.31 Q1621.98 1466.2 1619.87 1468.8 Q1619.29 1469.47 1616.19 1472.69 Q1613.09 1475.88 1607.44 1481.64 Z" fill="#000000" fill-rule="nonzero" fill-opacity="1" /><path clip-path="url(#clip110)" d="M1643.57 1454.1 Q1639.96 1454.1 1638.13 1457.66 Q1636.33 1461.2 1636.33 1468.33 Q1636.33 1475.44 1638.13 1479.01 Q1639.96 1482.55 1643.57 1482.55 Q1647.21 1482.55 1649.01 1479.01 Q1650.84 1475.44 1650.84 1468.33 Q1650.84 1461.2 1649.01 1457.66 Q1647.21 1454.1 1643.57 1454.1 M1643.57 1450.39 Q1649.38 1450.39 1652.44 1455 Q1655.52 1459.58 1655.52 1468.33 Q1655.52 1477.06 1652.44 1481.67 Q1649.38 1486.25 1643.57 1486.25 Q1637.76 1486.25 1634.68 1481.67 Q1631.63 1477.06 1631.63 1468.33 Q1631.63 1459.58 1634.68 1455 Q1637.76 1450.39 1643.57 1450.39 Z" fill="#000000" fill-rule="nonzero" fill-opacity="1" /><path clip-path="url(#clip110)" d="M1941.93 1481.64 L1958.25 1481.64 L1958.25 1485.58 L1936.3 1485.58 L1936.3 1481.64 Q1938.96 1478.89 1943.55 1474.26 Q1948.15 1469.61 1949.33 1468.27 Q1951.58 1465.74 1952.46 1464.01 Q1953.36 1462.25 1953.36 1460.56 Q1953.36 1457.8 1951.42 1456.07 Q1949.5 1454.33 1946.39 1454.33 Q1944.19 1454.33 1941.74 1455.09 Q1939.31 1455.86 1936.53 1457.41 L1936.53 1452.69 Q1939.36 1451.55 1941.81 1450.97 Q1944.26 1450.39 1946.3 1450.39 Q1951.67 1450.39 1954.87 1453.08 Q1958.06 1455.77 1958.06 1460.26 Q1958.06 1462.39 1957.25 1464.31 Q1956.46 1466.2 1954.36 1468.8 Q1953.78 1469.47 1950.68 1472.69 Q1947.57 1475.88 1941.93 1481.64 Z" fill="#000000" fill-rule="nonzero" fill-opacity="1" /><path clip-path="url(#clip110)" d="M1968.11 1451.02 L1986.46 1451.02 L1986.46 1454.96 L1972.39 1454.96 L1972.39 1463.43 Q1973.41 1463.08 1974.43 1462.92 Q1975.44 1462.73 1976.46 1462.73 Q1982.25 1462.73 1985.63 1465.9 Q1989.01 1469.08 1989.01 1474.49 Q1989.01 1480.07 1985.54 1483.17 Q1982.06 1486.25 1975.75 1486.25 Q1973.57 1486.25 1971.3 1485.88 Q1969.06 1485.51 1966.65 1484.77 L1966.65 1480.07 Q1968.73 1481.2 1970.95 1481.76 Q1973.18 1482.32 1975.65 1482.32 Q1979.66 1482.32 1982 1480.21 Q1984.33 1478.1 1984.33 1474.49 Q1984.33 1470.88 1982 1468.77 Q1979.66 1466.67 1975.65 1466.67 Q1973.78 1466.67 1971.9 1467.08 Q1970.05 1467.5 1968.11 1468.38 L1968.11 1451.02 Z" fill="#000000" fill-rule="nonzero" fill-opacity="1" /><path clip-path="url(#clip110)" d="M2285.49 1466.95 Q2288.84 1467.66 2290.72 1469.93 Q2292.62 1472.2 2292.62 1475.53 Q2292.62 1480.65 2289.1 1483.45 Q2285.58 1486.25 2279.1 1486.25 Q2276.92 1486.25 2274.61 1485.81 Q2272.32 1485.39 2269.86 1484.54 L2269.86 1480.02 Q2271.81 1481.16 2274.12 1481.74 Q2276.44 1482.32 2278.96 1482.32 Q2283.36 1482.32 2285.65 1480.58 Q2287.97 1478.84 2287.97 1475.53 Q2287.97 1472.48 2285.81 1470.77 Q2283.68 1469.03 2279.86 1469.03 L2275.84 1469.03 L2275.84 1465.19 L2280.05 1465.19 Q2283.5 1465.19 2285.33 1463.82 Q2287.15 1462.43 2287.15 1459.84 Q2287.15 1457.18 2285.26 1455.77 Q2283.38 1454.33 2279.86 1454.33 Q2277.94 1454.33 2275.74 1454.75 Q2273.54 1455.16 2270.9 1456.04 L2270.9 1451.88 Q2273.57 1451.14 2275.88 1450.77 Q2278.22 1450.39 2280.28 1450.39 Q2285.6 1450.39 2288.71 1452.83 Q2291.81 1455.23 2291.81 1459.35 Q2291.81 1462.22 2290.16 1464.21 Q2288.52 1466.18 2285.49 1466.95 Z" fill="#000000" fill-rule="nonzero" fill-opacity="1" /><path clip-path="url(#clip110)" d="M2311.48 1454.1 Q2307.87 1454.1 2306.04 1457.66 Q2304.24 1461.2 2304.24 1468.33 Q2304.24 1475.44 2306.04 1479.01 Q2307.87 1482.55 2311.48 1482.55 Q2315.12 1482.55 2316.92 1479.01 Q2318.75 1475.44 2318.75 1468.33 Q2318.75 1461.2 2316.92 1457.66 Q2315.12 1454.1 2311.48 1454.1 M2311.48 1450.39 Q2317.29 1450.39 2320.35 1455 Q2323.43 1459.58 2323.43 1468.33 Q2323.43 1477.06 2320.35 1481.67 Q2317.29 1486.25 2311.48 1486.25 Q2305.67 1486.25 2302.59 1481.67 Q2299.54 1477.06 2299.54 1468.33 Q2299.54 1459.58 2302.59 1455 Q2305.67 1450.39 2311.48 1450.39 Z" fill="#000000" fill-rule="nonzero" fill-opacity="1" /><path clip-path="url(#clip110)" d="M1276.3 1546.53 L1276.3 1568.04 L1270.44 1568.04 L1270.44 1546.72 Q1270.44 1541.66 1268.47 1539.14 Q1266.5 1536.63 1262.55 1536.63 Q1257.81 1536.63 1255.07 1539.65 Q1252.33 1542.68 1252.33 1547.9 L1252.33 1568.04 L1246.44 1568.04 L1246.44 1518.52 L1252.33 1518.52 L1252.33 1537.93 Q1254.43 1534.72 1257.27 1533.13 Q1260.13 1531.54 1263.85 1531.54 Q1270 1531.54 1273.15 1535.36 Q1276.3 1539.14 1276.3 1546.53 Z" fill="#000000" fill-rule="nonzero" fill-opacity="1" /><path clip-path="url(#clip110)" d="M1301.79 1536.5 Q1297.08 1536.5 1294.35 1540.19 Q1291.61 1543.85 1291.61 1550.25 Q1291.61 1556.65 1294.31 1560.34 Q1297.05 1564 1301.79 1564 Q1306.47 1564 1309.21 1560.31 Q1311.95 1556.62 1311.95 1550.25 Q1311.95 1543.92 1309.21 1540.23 Q1306.47 1536.5 1301.79 1536.5 M1301.79 1531.54 Q1309.43 1531.54 1313.79 1536.5 Q1318.15 1541.47 1318.15 1550.25 Q1318.15 1559 1313.79 1564 Q1309.43 1568.97 1301.79 1568.97 Q1294.12 1568.97 1289.76 1564 Q1285.43 1559 1285.43 1550.25 Q1285.43 1541.47 1289.76 1536.5 Q1294.12 1531.54 1301.79 1531.54 Z" fill="#000000" fill-rule="nonzero" fill-opacity="1" /><path clip-path="url(#clip110)" d="M1348.52 1537.87 Q1347.53 1537.3 1346.35 1537.04 Q1345.21 1536.76 1343.81 1536.76 Q1338.84 1536.76 1336.17 1540 Q1333.53 1543.22 1333.53 1549.27 L1333.53 1568.04 L1327.64 1568.04 L1327.64 1532.4 L1333.53 1532.4 L1333.53 1537.93 Q1335.37 1534.69 1338.33 1533.13 Q1341.29 1531.54 1345.53 1531.54 Q1346.13 1531.54 1346.86 1531.63 Q1347.6 1531.7 1348.49 1531.85 L1348.52 1537.87 Z" fill="#000000" fill-rule="nonzero" fill-opacity="1" /><path clip-path="url(#clip110)" d="M1354.66 1532.4 L1360.52 1532.4 L1360.52 1568.04 L1354.66 1568.04 L1354.66 1532.4 M1354.66 1518.52 L1360.52 1518.52 L1360.52 1525.93 L1354.66 1525.93 L1354.66 1518.52 Z" fill="#000000" fill-rule="nonzero" fill-opacity="1" /><path clip-path="url(#clip110)" d="M1370.23 1532.4 L1398.04 1532.4 L1398.04 1537.74 L1376.02 1563.37 L1398.04 1563.37 L1398.04 1568.04 L1369.43 1568.04 L1369.43 1562.7 L1391.46 1537.07 L1370.23 1537.07 L1370.23 1532.4 Z" fill="#000000" fill-rule="nonzero" fill-opacity="1" /><path clip-path="url(#clip110)" d="M1420.8 1536.5 Q1416.09 1536.5 1413.35 1540.19 Q1410.62 1543.85 1410.62 1550.25 Q1410.62 1556.65 1413.32 1560.34 Q1416.06 1564 1420.8 1564 Q1425.48 1564 1428.22 1560.31 Q1430.95 1556.62 1430.95 1550.25 Q1430.95 1543.92 1428.22 1540.23 Q1425.48 1536.5 1420.8 1536.5 M1420.8 1531.54 Q1428.44 1531.54 1432.8 1536.5 Q1437.16 1541.47 1437.16 1550.25 Q1437.16 1559 1432.8 1564 Q1428.44 1568.97 1420.8 1568.97 Q1413.13 1568.97 1408.77 1564 Q1404.44 1559 1404.44 1550.25 Q1404.44 1541.47 1408.77 1536.5 Q1413.13 1531.54 1420.8 1531.54 Z" fill="#000000" fill-rule="nonzero" fill-opacity="1" /><path clip-path="url(#clip110)" d="M1476.5 1546.53 L1476.5 1568.04 L1470.64 1568.04 L1470.64 1546.72 Q1470.64 1541.66 1468.67 1539.14 Q1466.7 1536.63 1462.75 1536.63 Q1458.01 1536.63 1455.27 1539.65 Q1452.53 1542.68 1452.53 1547.9 L1452.53 1568.04 L1446.65 1568.04 L1446.65 1532.4 L1452.53 1532.4 L1452.53 1537.93 Q1454.63 1534.72 1457.47 1533.13 Q1460.33 1531.54 1464.06 1531.54 Q1470.2 1531.54 1473.35 1535.36 Q1476.5 1539.14 1476.5 1546.53 Z" fill="#000000" fill-rule="nonzero" fill-opacity="1" /><polyline clip-path="url(#clip112)" style="stroke:#000000; stroke-linecap:round; stroke-linejoin:round; stroke-width:2; stroke-opacity:0.1; fill:none" points="370.19,1252.96 2352.76,1252.96 "/>
<polyline clip-path="url(#clip112)" style="stroke:#000000; stroke-linecap:round; stroke-linejoin:round; stroke-width:2; stroke-opacity:0.1; fill:none" points="370.19,1010.5 2352.76,1010.5 "/>
<polyline clip-path="url(#clip112)" style="stroke:#000000; stroke-linecap:round; stroke-linejoin:round; stroke-width:2; stroke-opacity:0.1; fill:none" points="370.19,768.033 2352.76,768.033 "/>
<polyline clip-path="url(#clip112)" style="stroke:#000000; stroke-linecap:round; stroke-linejoin:round; stroke-width:2; stroke-opacity:0.1; fill:none" points="370.19,525.567 2352.76,525.567 "/>
<polyline clip-path="url(#clip112)" style="stroke:#000000; stroke-linecap:round; stroke-linejoin:round; stroke-width:2; stroke-opacity:0.1; fill:none" points="370.19,283.101 2352.76,283.101 "/>
<polyline clip-path="url(#clip110)" style="stroke:#000000; stroke-linecap:round; stroke-linejoin:round; stroke-width:4; stroke-opacity:1; fill:none" points="370.19,1423.18 370.19,123.472 "/>
<polyline clip-path="url(#clip110)" style="stroke:#000000; stroke-linecap:round; stroke-linejoin:round; stroke-width:4; stroke-opacity:1; fill:none" points="370.19,1252.96 389.087,1252.96 "/>
<polyline clip-path="url(#clip110)" style="stroke:#000000; stroke-linecap:round; stroke-linejoin:round; stroke-width:4; stroke-opacity:1; fill:none" points="370.19,1010.5 389.087,1010.5 "/>
<polyline clip-path="url(#clip110)" style="stroke:#000000; stroke-linecap:round; stroke-linejoin:round; stroke-width:4; stroke-opacity:1; fill:none" points="370.19,768.033 389.087,768.033 "/>
<polyline clip-path="url(#clip110)" style="stroke:#000000; stroke-linecap:round; stroke-linejoin:round; stroke-width:4; stroke-opacity:1; fill:none" points="370.19,525.567 389.087,525.567 "/>
<polyline clip-path="url(#clip110)" style="stroke:#000000; stroke-linecap:round; stroke-linejoin:round; stroke-width:4; stroke-opacity:1; fill:none" points="370.19,283.101 389.087,283.101 "/>
<path clip-path="url(#clip110)" d="M126.205 1238.76 Q122.593 1238.76 120.765 1242.33 Q118.959 1245.87 118.959 1253 Q118.959 1260.11 120.765 1263.67 Q122.593 1267.21 126.205 1267.21 Q129.839 1267.21 131.644 1263.67 Q133.473 1260.11 133.473 1253 Q133.473 1245.87 131.644 1242.33 Q129.839 1238.76 126.205 1238.76 M126.205 1235.06 Q132.015 1235.06 135.07 1239.67 Q138.149 1244.25 138.149 1253 Q138.149 1261.73 135.07 1266.33 Q132.015 1270.92 126.205 1270.92 Q120.394 1270.92 117.316 1266.33 Q114.26 1261.73 114.26 1253 Q114.26 1244.25 117.316 1239.67 Q120.394 1235.06 126.205 1235.06 Z" fill="#000000" fill-rule="nonzero" fill-opacity="1" /><path clip-path="url(#clip110)" d="M146.366 1264.36 L151.251 1264.36 L151.251 1270.24 L146.366 1270.24 L146.366 1264.36 Z" fill="#000000" fill-rule="nonzero" fill-opacity="1" /><path clip-path="url(#clip110)" d="M171.436 1238.76 Q167.825 1238.76 165.996 1242.33 Q164.19 1245.87 164.19 1253 Q164.19 1260.11 165.996 1263.67 Q167.825 1267.21 171.436 1267.21 Q175.07 1267.21 176.876 1263.67 Q178.704 1260.11 178.704 1253 Q178.704 1245.87 176.876 1242.33 Q175.07 1238.76 171.436 1238.76 M171.436 1235.06 Q177.246 1235.06 180.301 1239.67 Q183.38 1244.25 183.38 1253 Q183.38 1261.73 180.301 1266.33 Q177.246 1270.92 171.436 1270.92 Q165.626 1270.92 162.547 1266.33 Q159.491 1261.73 159.491 1253 Q159.491 1244.25 162.547 1239.67 Q165.626 1235.06 171.436 1235.06 Z" fill="#000000" fill-rule="nonzero" fill-opacity="1" /><path clip-path="url(#clip110)" d="M201.598 1238.76 Q197.987 1238.76 196.158 1242.33 Q194.352 1245.87 194.352 1253 Q194.352 1260.11 196.158 1263.67 Q197.987 1267.21 201.598 1267.21 Q205.232 1267.21 207.037 1263.67 Q208.866 1260.11 208.866 1253 Q208.866 1245.87 207.037 1242.33 Q205.232 1238.76 201.598 1238.76 M201.598 1235.06 Q207.408 1235.06 210.463 1239.67 Q213.542 1244.25 213.542 1253 Q213.542 1261.73 210.463 1266.33 Q207.408 1270.92 201.598 1270.92 Q195.787 1270.92 192.709 1266.33 Q189.653 1261.73 189.653 1253 Q189.653 1244.25 192.709 1239.67 Q195.787 1235.06 201.598 1235.06 Z" fill="#000000" fill-rule="nonzero" fill-opacity="1" /><path clip-path="url(#clip110)" d="M225.787 1266.31 L242.107 1266.31 L242.107 1270.24 L220.162 1270.24 L220.162 1266.31 Q222.824 1263.55 227.408 1258.93 Q232.014 1254.27 233.195 1252.93 Q235.44 1250.41 236.32 1248.67 Q237.222 1246.91 237.222 1245.22 Q237.222 1242.47 235.278 1240.73 Q233.357 1238.99 230.255 1238.99 Q228.056 1238.99 225.602 1239.76 Q223.172 1240.52 220.394 1242.07 L220.394 1237.35 Q223.218 1236.22 225.672 1235.64 Q228.125 1235.06 230.162 1235.06 Q235.533 1235.06 238.727 1237.74 Q241.922 1240.43 241.922 1244.92 Q241.922 1247.05 241.111 1248.97 Q240.324 1250.87 238.218 1253.46 Q237.639 1254.13 234.537 1257.35 Q231.435 1260.55 225.787 1266.31 Z" fill="#000000" fill-rule="nonzero" fill-opacity="1" /><path clip-path="url(#clip110)" d="M252.732 1266.31 L260.37 1266.31 L260.37 1239.94 L252.06 1241.61 L252.06 1237.35 L260.324 1235.68 L265 1235.68 L265 1266.31 L272.639 1266.31 L272.639 1270.24 L252.732 1270.24 L252.732 1266.31 Z" fill="#000000" fill-rule="nonzero" fill-opacity="1" /><path clip-path="url(#clip110)" d="M282.13 1235.68 L300.486 1235.68 L300.486 1239.62 L286.412 1239.62 L286.412 1248.09 Q287.431 1247.74 288.449 1247.58 Q289.468 1247.4 290.486 1247.4 Q296.273 1247.4 299.653 1250.57 Q303.032 1253.74 303.032 1259.16 Q303.032 1264.74 299.56 1267.84 Q296.088 1270.92 289.768 1270.92 Q287.593 1270.92 285.324 1270.55 Q283.079 1270.17 280.671 1269.43 L280.671 1264.74 Q282.755 1265.87 284.977 1266.42 Q287.199 1266.98 289.676 1266.98 Q293.68 1266.98 296.018 1264.87 Q298.356 1262.77 298.356 1259.16 Q298.356 1255.55 296.018 1253.44 Q293.68 1251.33 289.676 1251.33 Q287.801 1251.33 285.926 1251.75 Q284.074 1252.17 282.13 1253.05 L282.13 1235.68 Z" fill="#000000" fill-rule="nonzero" fill-opacity="1" /><path clip-path="url(#clip110)" d="M322.245 1238.76 Q318.634 1238.76 316.805 1242.33 Q315 1245.87 315 1253 Q315 1260.11 316.805 1263.67 Q318.634 1267.21 322.245 1267.21 Q325.879 1267.21 327.685 1263.67 Q329.514 1260.11 329.514 1253 Q329.514 1245.87 327.685 1242.33 Q325.879 1238.76 322.245 1238.76 M322.245 1235.06 Q328.055 1235.06 331.111 1239.67 Q334.19 1244.25 334.19 1253 Q334.19 1261.73 331.111 1266.33 Q328.055 1270.92 322.245 1270.92 Q316.435 1270.92 313.356 1266.33 Q310.301 1261.73 310.301 1253 Q310.301 1244.25 313.356 1239.67 Q316.435 1235.06 322.245 1235.06 Z" fill="#000000" fill-rule="nonzero" fill-opacity="1" /><path clip-path="url(#clip110)" d="M127.2 996.297 Q123.589 996.297 121.76 999.862 Q119.955 1003.4 119.955 1010.53 Q119.955 1017.64 121.76 1021.2 Q123.589 1024.75 127.2 1024.75 Q130.834 1024.75 132.64 1021.2 Q134.468 1017.64 134.468 1010.53 Q134.468 1003.4 132.64 999.862 Q130.834 996.297 127.2 996.297 M127.2 992.594 Q133.01 992.594 136.066 997.2 Q139.144 1001.78 139.144 1010.53 Q139.144 1019.26 136.066 1023.87 Q133.01 1028.45 127.2 1028.45 Q121.39 1028.45 118.311 1023.87 Q115.256 1019.26 115.256 1010.53 Q115.256 1001.78 118.311 997.2 Q121.39 992.594 127.2 992.594 Z" fill="#000000" fill-rule="nonzero" fill-opacity="1" /><path clip-path="url(#clip110)" d="M147.362 1021.9 L152.246 1021.9 L152.246 1027.78 L147.362 1027.78 L147.362 1021.9 Z" fill="#000000" fill-rule="nonzero" fill-opacity="1" /><path clip-path="url(#clip110)" d="M172.431 996.297 Q168.82 996.297 166.991 999.862 Q165.186 1003.4 165.186 1010.53 Q165.186 1017.64 166.991 1021.2 Q168.82 1024.75 172.431 1024.75 Q176.065 1024.75 177.871 1021.2 Q179.7 1017.64 179.7 1010.53 Q179.7 1003.4 177.871 999.862 Q176.065 996.297 172.431 996.297 M172.431 992.594 Q178.241 992.594 181.297 997.2 Q184.376 1001.78 184.376 1010.53 Q184.376 1019.26 181.297 1023.87 Q178.241 1028.45 172.431 1028.45 Q166.621 1028.45 163.542 1023.87 Q160.487 1019.26 160.487 1010.53 Q160.487 1001.78 163.542 997.2 Q166.621 992.594 172.431 992.594 Z" fill="#000000" fill-rule="nonzero" fill-opacity="1" /><path clip-path="url(#clip110)" d="M202.593 996.297 Q198.982 996.297 197.153 999.862 Q195.348 1003.4 195.348 1010.53 Q195.348 1017.64 197.153 1021.2 Q198.982 1024.75 202.593 1024.75 Q206.227 1024.75 208.033 1021.2 Q209.861 1017.64 209.861 1010.53 Q209.861 1003.4 208.033 999.862 Q206.227 996.297 202.593 996.297 M202.593 992.594 Q208.403 992.594 211.459 997.2 Q214.537 1001.78 214.537 1010.53 Q214.537 1019.26 211.459 1023.87 Q208.403 1028.45 202.593 1028.45 Q196.783 1028.45 193.704 1023.87 Q190.649 1019.26 190.649 1010.53 Q190.649 1001.78 193.704 997.2 Q196.783 992.594 202.593 992.594 Z" fill="#000000" fill-rule="nonzero" fill-opacity="1" /><path clip-path="url(#clip110)" d="M226.783 1023.84 L243.102 1023.84 L243.102 1027.78 L221.158 1027.78 L221.158 1023.84 Q223.82 1021.09 228.403 1016.46 Q233.01 1011.81 234.19 1010.46 Q236.435 1007.94 237.315 1006.2 Q238.218 1004.45 238.218 1002.76 Q238.218 1000 236.273 998.265 Q234.352 996.529 231.25 996.529 Q229.051 996.529 226.598 997.293 Q224.167 998.057 221.389 999.607 L221.389 994.885 Q224.213 993.751 226.667 993.172 Q229.121 992.594 231.158 992.594 Q236.528 992.594 239.722 995.279 Q242.917 997.964 242.917 1002.45 Q242.917 1004.58 242.107 1006.51 Q241.32 1008.4 239.213 1011 Q238.634 1011.67 235.533 1014.89 Q232.431 1018.08 226.783 1023.84 Z" fill="#000000" fill-rule="nonzero" fill-opacity="1" /><path clip-path="url(#clip110)" d="M253.727 1023.84 L261.366 1023.84 L261.366 997.478 L253.056 999.145 L253.056 994.885 L261.32 993.219 L265.995 993.219 L265.995 1023.84 L273.634 1023.84 L273.634 1027.78 L253.727 1027.78 L253.727 1023.84 Z" fill="#000000" fill-rule="nonzero" fill-opacity="1" /><path clip-path="url(#clip110)" d="M281.898 993.219 L304.12 993.219 L304.12 995.209 L291.574 1027.78 L286.69 1027.78 L298.495 997.154 L281.898 997.154 L281.898 993.219 Z" fill="#000000" fill-rule="nonzero" fill-opacity="1" /><path clip-path="url(#clip110)" d="M313.287 993.219 L331.643 993.219 L331.643 997.154 L317.569 997.154 L317.569 1005.63 Q318.588 1005.28 319.606 1005.12 Q320.625 1004.93 321.643 1004.93 Q327.43 1004.93 330.81 1008.1 Q334.19 1011.27 334.19 1016.69 Q334.19 1022.27 330.717 1025.37 Q327.245 1028.45 320.926 1028.45 Q318.75 1028.45 316.481 1028.08 Q314.236 1027.71 311.829 1026.97 L311.829 1022.27 Q313.912 1023.4 316.134 1023.96 Q318.356 1024.51 320.833 1024.51 Q324.838 1024.51 327.176 1022.41 Q329.514 1020.3 329.514 1016.69 Q329.514 1013.08 327.176 1010.97 Q324.838 1008.87 320.833 1008.87 Q318.958 1008.87 317.083 1009.28 Q315.231 1009.7 313.287 1010.58 L313.287 993.219 Z" fill="#000000" fill-rule="nonzero" fill-opacity="1" /><path clip-path="url(#clip110)" d="M126.205 753.832 Q122.593 753.832 120.765 757.396 Q118.959 760.938 118.959 768.068 Q118.959 775.174 120.765 778.739 Q122.593 782.28 126.205 782.28 Q129.839 782.28 131.644 778.739 Q133.473 775.174 133.473 768.068 Q133.473 760.938 131.644 757.396 Q129.839 753.832 126.205 753.832 M126.205 750.128 Q132.015 750.128 135.07 754.734 Q138.149 759.318 138.149 768.068 Q138.149 776.794 135.07 781.401 Q132.015 785.984 126.205 785.984 Q120.394 785.984 117.316 781.401 Q114.26 776.794 114.26 768.068 Q114.26 759.318 117.316 754.734 Q120.394 750.128 126.205 750.128 Z" fill="#000000" fill-rule="nonzero" fill-opacity="1" /><path clip-path="url(#clip110)" d="M146.366 779.433 L151.251 779.433 L151.251 785.313 L146.366 785.313 L146.366 779.433 Z" fill="#000000" fill-rule="nonzero" fill-opacity="1" /><path clip-path="url(#clip110)" d="M171.436 753.832 Q167.825 753.832 165.996 757.396 Q164.19 760.938 164.19 768.068 Q164.19 775.174 165.996 778.739 Q167.825 782.28 171.436 782.28 Q175.07 782.28 176.876 778.739 Q178.704 775.174 178.704 768.068 Q178.704 760.938 176.876 757.396 Q175.07 753.832 171.436 753.832 M171.436 750.128 Q177.246 750.128 180.301 754.734 Q183.38 759.318 183.38 768.068 Q183.38 776.794 180.301 781.401 Q177.246 785.984 171.436 785.984 Q165.626 785.984 162.547 781.401 Q159.491 776.794 159.491 768.068 Q159.491 759.318 162.547 754.734 Q165.626 750.128 171.436 750.128 Z" fill="#000000" fill-rule="nonzero" fill-opacity="1" /><path clip-path="url(#clip110)" d="M201.598 753.832 Q197.987 753.832 196.158 757.396 Q194.352 760.938 194.352 768.068 Q194.352 775.174 196.158 778.739 Q197.987 782.28 201.598 782.28 Q205.232 782.28 207.037 778.739 Q208.866 775.174 208.866 768.068 Q208.866 760.938 207.037 757.396 Q205.232 753.832 201.598 753.832 M201.598 750.128 Q207.408 750.128 210.463 754.734 Q213.542 759.318 213.542 768.068 Q213.542 776.794 210.463 781.401 Q207.408 785.984 201.598 785.984 Q195.787 785.984 192.709 781.401 Q189.653 776.794 189.653 768.068 Q189.653 759.318 192.709 754.734 Q195.787 750.128 201.598 750.128 Z" fill="#000000" fill-rule="nonzero" fill-opacity="1" /><path clip-path="url(#clip110)" d="M225.787 781.378 L242.107 781.378 L242.107 785.313 L220.162 785.313 L220.162 781.378 Q222.824 778.623 227.408 773.993 Q232.014 769.341 233.195 767.998 Q235.44 765.475 236.32 763.739 Q237.222 761.98 237.222 760.29 Q237.222 757.535 235.278 755.799 Q233.357 754.063 230.255 754.063 Q228.056 754.063 225.602 754.827 Q223.172 755.591 220.394 757.142 L220.394 752.419 Q223.218 751.285 225.672 750.707 Q228.125 750.128 230.162 750.128 Q235.533 750.128 238.727 752.813 Q241.922 755.498 241.922 759.989 Q241.922 762.119 241.111 764.04 Q240.324 765.938 238.218 768.531 Q237.639 769.202 234.537 772.419 Q231.435 775.614 225.787 781.378 Z" fill="#000000" fill-rule="nonzero" fill-opacity="1" /><path clip-path="url(#clip110)" d="M255.949 781.378 L272.269 781.378 L272.269 785.313 L250.324 785.313 L250.324 781.378 Q252.986 778.623 257.57 773.993 Q262.176 769.341 263.357 767.998 Q265.602 765.475 266.482 763.739 Q267.384 761.98 267.384 760.29 Q267.384 757.535 265.44 755.799 Q263.519 754.063 260.417 754.063 Q258.218 754.063 255.764 754.827 Q253.333 755.591 250.556 757.142 L250.556 752.419 Q253.38 751.285 255.833 750.707 Q258.287 750.128 260.324 750.128 Q265.695 750.128 268.889 752.813 Q272.083 755.498 272.083 759.989 Q272.083 762.119 271.273 764.04 Q270.486 765.938 268.38 768.531 Q267.801 769.202 264.699 772.419 Q261.597 775.614 255.949 781.378 Z" fill="#000000" fill-rule="nonzero" fill-opacity="1" /><path clip-path="url(#clip110)" d="M292.083 753.832 Q288.472 753.832 286.643 757.396 Q284.838 760.938 284.838 768.068 Q284.838 775.174 286.643 778.739 Q288.472 782.28 292.083 782.28 Q295.718 782.28 297.523 778.739 Q299.352 775.174 299.352 768.068 Q299.352 760.938 297.523 757.396 Q295.718 753.832 292.083 753.832 M292.083 750.128 Q297.893 750.128 300.949 754.734 Q304.028 759.318 304.028 768.068 Q304.028 776.794 300.949 781.401 Q297.893 785.984 292.083 785.984 Q286.273 785.984 283.194 781.401 Q280.139 776.794 280.139 768.068 Q280.139 759.318 283.194 754.734 Q286.273 750.128 292.083 750.128 Z" fill="#000000" fill-rule="nonzero" fill-opacity="1" /><path clip-path="url(#clip110)" d="M322.245 753.832 Q318.634 753.832 316.805 757.396 Q315 760.938 315 768.068 Q315 775.174 316.805 778.739 Q318.634 782.28 322.245 782.28 Q325.879 782.28 327.685 778.739 Q329.514 775.174 329.514 768.068 Q329.514 760.938 327.685 757.396 Q325.879 753.832 322.245 753.832 M322.245 750.128 Q328.055 750.128 331.111 754.734 Q334.19 759.318 334.19 768.068 Q334.19 776.794 331.111 781.401 Q328.055 785.984 322.245 785.984 Q316.435 785.984 313.356 781.401 Q310.301 776.794 310.301 768.068 Q310.301 759.318 313.356 754.734 Q316.435 750.128 322.245 750.128 Z" fill="#000000" fill-rule="nonzero" fill-opacity="1" /><path clip-path="url(#clip110)" d="M127.2 511.366 Q123.589 511.366 121.76 514.931 Q119.955 518.472 119.955 525.602 Q119.955 532.708 121.76 536.273 Q123.589 539.815 127.2 539.815 Q130.834 539.815 132.64 536.273 Q134.468 532.708 134.468 525.602 Q134.468 518.472 132.64 514.931 Q130.834 511.366 127.2 511.366 M127.2 507.662 Q133.01 507.662 136.066 512.268 Q139.144 516.852 139.144 525.602 Q139.144 534.329 136.066 538.935 Q133.01 543.518 127.2 543.518 Q121.39 543.518 118.311 538.935 Q115.256 534.329 115.256 525.602 Q115.256 516.852 118.311 512.268 Q121.39 507.662 127.2 507.662 Z" fill="#000000" fill-rule="nonzero" fill-opacity="1" /><path clip-path="url(#clip110)" d="M147.362 536.967 L152.246 536.967 L152.246 542.847 L147.362 542.847 L147.362 536.967 Z" fill="#000000" fill-rule="nonzero" fill-opacity="1" /><path clip-path="url(#clip110)" d="M172.431 511.366 Q168.82 511.366 166.991 514.931 Q165.186 518.472 165.186 525.602 Q165.186 532.708 166.991 536.273 Q168.82 539.815 172.431 539.815 Q176.065 539.815 177.871 536.273 Q179.7 532.708 179.7 525.602 Q179.7 518.472 177.871 514.931 Q176.065 511.366 172.431 511.366 M172.431 507.662 Q178.241 507.662 181.297 512.268 Q184.376 516.852 184.376 525.602 Q184.376 534.329 181.297 538.935 Q178.241 543.518 172.431 543.518 Q166.621 543.518 163.542 538.935 Q160.487 534.329 160.487 525.602 Q160.487 516.852 163.542 512.268 Q166.621 507.662 172.431 507.662 Z" fill="#000000" fill-rule="nonzero" fill-opacity="1" /><path clip-path="url(#clip110)" d="M202.593 511.366 Q198.982 511.366 197.153 514.931 Q195.348 518.472 195.348 525.602 Q195.348 532.708 197.153 536.273 Q198.982 539.815 202.593 539.815 Q206.227 539.815 208.033 536.273 Q209.861 532.708 209.861 525.602 Q209.861 518.472 208.033 514.931 Q206.227 511.366 202.593 511.366 M202.593 507.662 Q208.403 507.662 211.459 512.268 Q214.537 516.852 214.537 525.602 Q214.537 534.329 211.459 538.935 Q208.403 543.518 202.593 543.518 Q196.783 543.518 193.704 538.935 Q190.649 534.329 190.649 525.602 Q190.649 516.852 193.704 512.268 Q196.783 507.662 202.593 507.662 Z" fill="#000000" fill-rule="nonzero" fill-opacity="1" /><path clip-path="url(#clip110)" d="M226.783 538.912 L243.102 538.912 L243.102 542.847 L221.158 542.847 L221.158 538.912 Q223.82 536.157 228.403 531.528 Q233.01 526.875 234.19 525.532 Q236.435 523.009 237.315 521.273 Q238.218 519.514 238.218 517.824 Q238.218 515.069 236.273 513.333 Q234.352 511.597 231.25 511.597 Q229.051 511.597 226.598 512.361 Q224.167 513.125 221.389 514.676 L221.389 509.954 Q224.213 508.819 226.667 508.241 Q229.121 507.662 231.158 507.662 Q236.528 507.662 239.722 510.347 Q242.917 513.032 242.917 517.523 Q242.917 519.653 242.107 521.574 Q241.32 523.472 239.213 526.065 Q238.634 526.736 235.533 529.954 Q232.431 533.148 226.783 538.912 Z" fill="#000000" fill-rule="nonzero" fill-opacity="1" /><path clip-path="url(#clip110)" d="M256.945 538.912 L273.264 538.912 L273.264 542.847 L251.32 542.847 L251.32 538.912 Q253.982 536.157 258.565 531.528 Q263.171 526.875 264.352 525.532 Q266.597 523.009 267.477 521.273 Q268.38 519.514 268.38 517.824 Q268.38 515.069 266.435 513.333 Q264.514 511.597 261.412 511.597 Q259.213 511.597 256.759 512.361 Q254.329 513.125 251.551 514.676 L251.551 509.954 Q254.375 508.819 256.829 508.241 Q259.283 507.662 261.32 507.662 Q266.69 507.662 269.884 510.347 Q273.079 513.032 273.079 517.523 Q273.079 519.653 272.269 521.574 Q271.482 523.472 269.375 526.065 Q268.796 526.736 265.695 529.954 Q262.593 533.148 256.945 538.912 Z" fill="#000000" fill-rule="nonzero" fill-opacity="1" /><path clip-path="url(#clip110)" d="M287.106 538.912 L303.426 538.912 L303.426 542.847 L281.481 542.847 L281.481 538.912 Q284.144 536.157 288.727 531.528 Q293.333 526.875 294.514 525.532 Q296.759 523.009 297.639 521.273 Q298.542 519.514 298.542 517.824 Q298.542 515.069 296.597 513.333 Q294.676 511.597 291.574 511.597 Q289.375 511.597 286.921 512.361 Q284.491 513.125 281.713 514.676 L281.713 509.954 Q284.537 508.819 286.991 508.241 Q289.444 507.662 291.481 507.662 Q296.852 507.662 300.046 510.347 Q303.241 513.032 303.241 517.523 Q303.241 519.653 302.43 521.574 Q301.643 523.472 299.537 526.065 Q298.958 526.736 295.856 529.954 Q292.755 533.148 287.106 538.912 Z" fill="#000000" fill-rule="nonzero" fill-opacity="1" /><path clip-path="url(#clip110)" d="M313.287 508.287 L331.643 508.287 L331.643 512.222 L317.569 512.222 L317.569 520.694 Q318.588 520.347 319.606 520.185 Q320.625 520 321.643 520 Q327.43 520 330.81 523.171 Q334.19 526.342 334.19 531.759 Q334.19 537.338 330.717 540.44 Q327.245 543.518 320.926 543.518 Q318.75 543.518 316.481 543.148 Q314.236 542.778 311.829 542.037 L311.829 537.338 Q313.912 538.472 316.134 539.028 Q318.356 539.583 320.833 539.583 Q324.838 539.583 327.176 537.477 Q329.514 535.37 329.514 531.759 Q329.514 528.148 327.176 526.042 Q324.838 523.935 320.833 523.935 Q318.958 523.935 317.083 524.352 Q315.231 524.768 313.287 525.648 L313.287 508.287 Z" fill="#000000" fill-rule="nonzero" fill-opacity="1" /><path clip-path="url(#clip110)" d="M126.205 268.9 Q122.593 268.9 120.765 272.465 Q118.959 276.006 118.959 283.136 Q118.959 290.242 120.765 293.807 Q122.593 297.349 126.205 297.349 Q129.839 297.349 131.644 293.807 Q133.473 290.242 133.473 283.136 Q133.473 276.006 131.644 272.465 Q129.839 268.9 126.205 268.9 M126.205 265.196 Q132.015 265.196 135.07 269.803 Q138.149 274.386 138.149 283.136 Q138.149 291.863 135.07 296.469 Q132.015 301.053 126.205 301.053 Q120.394 301.053 117.316 296.469 Q114.26 291.863 114.26 283.136 Q114.26 274.386 117.316 269.803 Q120.394 265.196 126.205 265.196 Z" fill="#000000" fill-rule="nonzero" fill-opacity="1" /><path clip-path="url(#clip110)" d="M146.366 294.502 L151.251 294.502 L151.251 300.381 L146.366 300.381 L146.366 294.502 Z" fill="#000000" fill-rule="nonzero" fill-opacity="1" /><path clip-path="url(#clip110)" d="M171.436 268.9 Q167.825 268.9 165.996 272.465 Q164.19 276.006 164.19 283.136 Q164.19 290.242 165.996 293.807 Q167.825 297.349 171.436 297.349 Q175.07 297.349 176.876 293.807 Q178.704 290.242 178.704 283.136 Q178.704 276.006 176.876 272.465 Q175.07 268.9 171.436 268.9 M171.436 265.196 Q177.246 265.196 180.301 269.803 Q183.38 274.386 183.38 283.136 Q183.38 291.863 180.301 296.469 Q177.246 301.053 171.436 301.053 Q165.626 301.053 162.547 296.469 Q159.491 291.863 159.491 283.136 Q159.491 274.386 162.547 269.803 Q165.626 265.196 171.436 265.196 Z" fill="#000000" fill-rule="nonzero" fill-opacity="1" /><path clip-path="url(#clip110)" d="M201.598 268.9 Q197.987 268.9 196.158 272.465 Q194.352 276.006 194.352 283.136 Q194.352 290.242 196.158 293.807 Q197.987 297.349 201.598 297.349 Q205.232 297.349 207.037 293.807 Q208.866 290.242 208.866 283.136 Q208.866 276.006 207.037 272.465 Q205.232 268.9 201.598 268.9 M201.598 265.196 Q207.408 265.196 210.463 269.803 Q213.542 274.386 213.542 283.136 Q213.542 291.863 210.463 296.469 Q207.408 301.053 201.598 301.053 Q195.787 301.053 192.709 296.469 Q189.653 291.863 189.653 283.136 Q189.653 274.386 192.709 269.803 Q195.787 265.196 201.598 265.196 Z" fill="#000000" fill-rule="nonzero" fill-opacity="1" /><path clip-path="url(#clip110)" d="M225.787 296.446 L242.107 296.446 L242.107 300.381 L220.162 300.381 L220.162 296.446 Q222.824 293.691 227.408 289.062 Q232.014 284.409 233.195 283.067 Q235.44 280.543 236.32 278.807 Q237.222 277.048 237.222 275.358 Q237.222 272.604 235.278 270.868 Q233.357 269.131 230.255 269.131 Q228.056 269.131 225.602 269.895 Q223.172 270.659 220.394 272.21 L220.394 267.488 Q223.218 266.354 225.672 265.775 Q228.125 265.196 230.162 265.196 Q235.533 265.196 238.727 267.881 Q241.922 270.567 241.922 275.057 Q241.922 277.187 241.111 279.108 Q240.324 281.006 238.218 283.599 Q237.639 284.27 234.537 287.488 Q231.435 290.682 225.787 296.446 Z" fill="#000000" fill-rule="nonzero" fill-opacity="1" /><path clip-path="url(#clip110)" d="M255.949 296.446 L272.269 296.446 L272.269 300.381 L250.324 300.381 L250.324 296.446 Q252.986 293.691 257.57 289.062 Q262.176 284.409 263.357 283.067 Q265.602 280.543 266.482 278.807 Q267.384 277.048 267.384 275.358 Q267.384 272.604 265.44 270.868 Q263.519 269.131 260.417 269.131 Q258.218 269.131 255.764 269.895 Q253.333 270.659 250.556 272.21 L250.556 267.488 Q253.38 266.354 255.833 265.775 Q258.287 265.196 260.324 265.196 Q265.695 265.196 268.889 267.881 Q272.083 270.567 272.083 275.057 Q272.083 277.187 271.273 279.108 Q270.486 281.006 268.38 283.599 Q267.801 284.27 264.699 287.488 Q261.597 290.682 255.949 296.446 Z" fill="#000000" fill-rule="nonzero" fill-opacity="1" /><path clip-path="url(#clip110)" d="M282.13 265.821 L300.486 265.821 L300.486 269.756 L286.412 269.756 L286.412 278.229 Q287.431 277.881 288.449 277.719 Q289.468 277.534 290.486 277.534 Q296.273 277.534 299.653 280.705 Q303.032 283.877 303.032 289.293 Q303.032 294.872 299.56 297.974 Q296.088 301.053 289.768 301.053 Q287.593 301.053 285.324 300.682 Q283.079 300.312 280.671 299.571 L280.671 294.872 Q282.755 296.006 284.977 296.562 Q287.199 297.117 289.676 297.117 Q293.68 297.117 296.018 295.011 Q298.356 292.904 298.356 289.293 Q298.356 285.682 296.018 283.576 Q293.68 281.469 289.676 281.469 Q287.801 281.469 285.926 281.886 Q284.074 282.303 282.13 283.182 L282.13 265.821 Z" fill="#000000" fill-rule="nonzero" fill-opacity="1" /><path clip-path="url(#clip110)" d="M322.245 268.9 Q318.634 268.9 316.805 272.465 Q315 276.006 315 283.136 Q315 290.242 316.805 293.807 Q318.634 297.349 322.245 297.349 Q325.879 297.349 327.685 293.807 Q329.514 290.242 329.514 283.136 Q329.514 276.006 327.685 272.465 Q325.879 268.9 322.245 268.9 M322.245 265.196 Q328.055 265.196 331.111 269.803 Q334.19 274.386 334.19 283.136 Q334.19 291.863 331.111 296.469 Q328.055 301.053 322.245 301.053 Q316.435 301.053 313.356 296.469 Q310.301 291.863 310.301 283.136 Q310.301 274.386 313.356 269.803 Q316.435 265.196 322.245 265.196 Z" fill="#000000" fill-rule="nonzero" fill-opacity="1" /><path clip-path="url(#clip110)" d="M16.4842 874.557 L16.4842 864.976 L48.8219 852.85 L16.4842 840.659 L16.4842 831.079 L64.0042 831.079 L64.0042 837.349 L22.277 837.349 L54.8694 849.603 L54.8694 856.064 L22.277 868.318 L64.0042 868.318 L64.0042 874.557 L16.4842 874.557 Z" fill="#000000" fill-rule="nonzero" fill-opacity="1" /><path clip-path="url(#clip110)" d="M41.7242 795.781 Q42.4244 793.712 44.7161 791.771 Q47.0077 789.797 51.0181 787.824 L64.0042 781.299 L64.0042 788.206 L51.8138 794.285 Q47.0395 796.64 45.48 798.868 Q43.9204 801.065 43.9204 804.884 L43.9204 811.886 L64.0042 811.886 L64.0042 818.316 L16.4842 818.316 L16.4842 803.802 Q16.4842 795.654 19.8898 791.643 Q23.2955 787.633 30.1704 787.633 Q34.6582 787.633 37.6183 789.734 Q40.5784 791.802 41.7242 795.781 M21.7677 811.886 L38.6368 811.886 L38.6368 803.802 Q38.6368 799.155 36.5043 796.8 Q34.34 794.412 30.1704 794.412 Q26.0009 794.412 23.9002 796.8 Q21.7677 799.155 21.7677 803.802 L21.7677 811.886 Z" fill="#000000" fill-rule="nonzero" fill-opacity="1" /><path clip-path="url(#clip110)" d="M22.818 759.783 L46.4666 768.504 L46.4666 751.03 L22.818 759.783 M16.4842 763.411 L16.4842 756.123 L64.0042 738.012 L64.0042 744.696 L51.8138 749.025 L51.8138 770.446 L64.0042 774.774 L64.0042 781.554 L16.4842 763.411 Z" fill="#000000" fill-rule="nonzero" fill-opacity="1" /><path clip-path="url(#clip110)" d="M16.4842 731.074 L16.4842 701.027 L21.895 701.027 L21.895 724.644 L35.9632 724.644 L35.9632 702.014 L41.3741 702.014 L41.3741 724.644 L58.5933 724.644 L58.5933 700.455 L64.0042 700.455 L64.0042 731.074 L16.4842 731.074 Z" fill="#000000" fill-rule="nonzero" fill-opacity="1" /><path clip-path="url(#clip110)" d="M14.479 672.095 L19.3487 672.095 L19.3487 677.697 Q19.3487 680.848 20.6219 682.089 Q21.895 683.299 25.2052 683.299 L28.3562 683.299 L28.3562 673.655 L32.9077 673.655 L32.9077 683.299 L64.0042 683.299 L64.0042 689.187 L32.9077 689.187 L32.9077 694.789 L28.3562 694.789 L28.3562 689.187 L25.8736 689.187 Q19.9216 689.187 17.2162 686.418 Q14.479 683.649 14.479 677.633 L14.479 672.095 Z" fill="#000000" fill-rule="nonzero" fill-opacity="1" /><path clip-path="url(#clip110)" d="M609.665 12.096 L617.848 12.096 L617.848 65.6895 L647.298 65.6895 L647.298 72.576 L609.665 72.576 L609.665 12.096 Z" fill="#000000" fill-rule="nonzero" fill-opacity="1" /><path clip-path="url(#clip110)" d="M655.562 27.2059 L663.016 27.2059 L663.016 72.576 L655.562 72.576 L655.562 27.2059 M655.562 9.54393 L663.016 9.54393 L663.016 18.9825 L655.562 18.9825 L655.562 9.54393 Z" fill="#000000" fill-rule="nonzero" fill-opacity="1" /><path clip-path="url(#clip110)" d="M716.326 45.1919 L716.326 72.576 L708.872 72.576 L708.872 45.4349 Q708.872 38.994 706.36 35.7938 Q703.849 32.5936 698.826 32.5936 Q692.79 32.5936 689.306 36.4419 Q685.822 40.2903 685.822 46.9338 L685.822 72.576 L678.328 72.576 L678.328 27.2059 L685.822 27.2059 L685.822 34.2544 Q688.496 30.163 692.101 28.1376 Q695.747 26.1121 700.487 26.1121 Q708.305 26.1121 712.315 30.9732 Q716.326 35.7938 716.326 45.1919 Z" fill="#000000" fill-rule="nonzero" fill-opacity="1" /><path clip-path="url(#clip110)" d="M770 48.0275 L770 51.6733 L735.73 51.6733 Q736.216 59.3701 740.348 63.421 Q744.52 67.4314 751.933 67.4314 Q756.227 67.4314 760.238 66.3781 Q764.288 65.3249 768.258 63.2184 L768.258 70.267 Q764.248 71.9684 760.035 72.8596 Q755.822 73.7508 751.488 73.7508 Q740.631 73.7508 734.271 67.4314 Q727.952 61.1119 727.952 50.3365 Q727.952 39.1965 733.947 32.6746 Q739.983 26.1121 750.191 26.1121 Q759.346 26.1121 764.653 32.0264 Q770 37.9003 770 48.0275 M762.547 45.84 Q762.466 39.7232 759.103 36.0774 Q755.782 32.4315 750.272 32.4315 Q744.034 32.4315 740.267 35.9558 Q736.54 39.4801 735.973 45.8805 L762.547 45.84 Z" fill="#000000" fill-rule="nonzero" fill-opacity="1" /><path clip-path="url(#clip110)" d="M802.853 49.7694 Q793.82 49.7694 790.336 51.8354 Q786.852 53.9013 786.852 58.8839 Q786.852 62.8538 789.445 65.2034 Q792.078 67.5124 796.574 67.5124 Q802.772 67.5124 806.499 63.1374 Q810.266 58.7219 810.266 51.4303 L810.266 49.7694 L802.853 49.7694 M817.72 46.6907 L817.72 72.576 L810.266 72.576 L810.266 65.6895 Q807.714 69.8214 803.906 71.8063 Q800.098 73.7508 794.589 73.7508 Q787.622 73.7508 783.49 69.8619 Q779.398 65.9325 779.398 59.3701 Q779.398 51.7138 784.502 47.825 Q789.647 43.9361 799.815 43.9361 L810.266 43.9361 L810.266 43.2069 Q810.266 38.0623 806.863 35.2672 Q803.501 32.4315 797.384 32.4315 Q793.495 32.4315 789.809 33.3632 Q786.123 34.295 782.72 36.1584 L782.72 29.2718 Q786.811 27.692 790.66 26.9223 Q794.508 26.1121 798.154 26.1121 Q807.998 26.1121 812.859 31.2163 Q817.72 36.3204 817.72 46.6907 Z" fill="#000000" fill-rule="nonzero" fill-opacity="1" /><path clip-path="url(#clip110)" d="M859.363 34.1734 Q858.107 33.4443 856.609 33.1202 Q855.15 32.7556 853.368 32.7556 Q847.048 32.7556 843.646 36.8875 Q840.283 40.9789 840.283 48.6757 L840.283 72.576 L832.789 72.576 L832.789 27.2059 L840.283 27.2059 L840.283 34.2544 Q842.633 30.1225 846.4 28.1376 Q850.168 26.1121 855.555 26.1121 Q856.325 26.1121 857.257 26.2337 Q858.188 26.3147 859.323 26.5172 L859.363 34.1734 Z" fill="#000000" fill-rule="nonzero" fill-opacity="1" /><path clip-path="url(#clip110)" d="M922.557 44.2197 Q925.19 45.1109 927.661 48.0275 Q930.173 50.9442 932.685 56.0483 L940.989 72.576 L932.198 72.576 L924.461 57.061 Q921.464 50.9847 918.628 48.9997 Q915.833 47.0148 910.972 47.0148 L902.06 47.0148 L902.06 72.576 L893.877 72.576 L893.877 12.096 L912.349 12.096 Q922.719 12.096 927.823 16.4305 Q932.928 20.7649 932.928 29.5149 Q932.928 35.2267 930.254 38.994 Q927.621 42.7613 922.557 44.2197 M902.06 18.8205 L902.06 40.2903 L912.349 40.2903 Q918.263 40.2903 921.261 37.5762 Q924.299 34.8216 924.299 29.5149 Q924.299 24.2082 921.261 21.5346 Q918.263 18.8205 912.349 18.8205 L902.06 18.8205 Z" fill="#000000" fill-rule="nonzero" fill-opacity="1" /><path clip-path="url(#clip110)" d="M986.278 48.0275 L986.278 51.6733 L952.007 51.6733 Q952.493 59.3701 956.625 63.421 Q960.798 67.4314 968.211 67.4314 Q972.505 67.4314 976.515 66.3781 Q980.566 65.3249 984.536 63.2184 L984.536 70.267 Q980.526 71.9684 976.313 72.8596 Q972.1 73.7508 967.765 73.7508 Q956.909 73.7508 950.549 67.4314 Q944.23 61.1119 944.23 50.3365 Q944.23 39.1965 950.225 32.6746 Q956.261 26.1121 966.469 26.1121 Q975.624 26.1121 980.931 32.0264 Q986.278 37.9003 986.278 48.0275 M978.824 45.84 Q978.743 39.7232 975.381 36.0774 Q972.059 32.4315 966.55 32.4315 Q960.312 32.4315 956.544 35.9558 Q952.818 39.4801 952.25 45.8805 L978.824 45.84 Z" fill="#000000" fill-rule="nonzero" fill-opacity="1" /><path clip-path="url(#clip110)" d="M1028.37 49.3643 Q1028.37 41.2625 1025 36.8065 Q1021.68 32.3505 1015.65 32.3505 Q1009.65 32.3505 1006.29 36.8065 Q1002.97 41.2625 1002.97 49.3643 Q1002.97 57.4256 1006.29 61.8816 Q1009.65 66.3376 1015.65 66.3376 Q1021.68 66.3376 1025 61.8816 Q1028.37 57.4256 1028.37 49.3643 M1035.82 66.9452 Q1035.82 78.5308 1030.68 84.1616 Q1025.53 89.8329 1014.92 89.8329 Q1010.99 89.8329 1007.5 89.2252 Q1004.02 88.6581 1000.74 87.4428 L1000.74 80.1917 Q1004.02 81.9741 1007.22 82.8248 Q1010.42 83.6755 1013.74 83.6755 Q1021.08 83.6755 1024.72 79.8271 Q1028.37 76.0193 1028.37 68.282 L1028.37 64.5957 Q1026.06 68.6061 1022.45 70.5911 Q1018.85 72.576 1013.82 72.576 Q1005.48 72.576 1000.38 66.2161 Q995.271 59.8562 995.271 49.3643 Q995.271 38.832 1000.38 32.472 Q1005.48 26.1121 1013.82 26.1121 Q1018.85 26.1121 1022.45 28.0971 Q1026.06 30.082 1028.37 34.0924 L1028.37 27.2059 L1035.82 27.2059 L1035.82 66.9452 Z" fill="#000000" fill-rule="nonzero" fill-opacity="1" /><path clip-path="url(#clip110)" d="M1077.46 34.1734 Q1076.21 33.4443 1074.71 33.1202 Q1073.25 32.7556 1071.47 32.7556 Q1065.15 32.7556 1061.75 36.8875 Q1058.38 40.9789 1058.38 48.6757 L1058.38 72.576 L1050.89 72.576 L1050.89 27.2059 L1058.38 27.2059 L1058.38 34.2544 Q1060.73 30.1225 1064.5 28.1376 Q1068.27 26.1121 1073.66 26.1121 Q1074.43 26.1121 1075.36 26.2337 Q1076.29 26.3147 1077.42 26.5172 L1077.46 34.1734 Z" fill="#000000" fill-rule="nonzero" fill-opacity="1" /><path clip-path="url(#clip110)" d="M1122.27 48.0275 L1122.27 51.6733 L1088 51.6733 Q1088.48 59.3701 1092.61 63.421 Q1096.79 67.4314 1104.2 67.4314 Q1108.49 67.4314 1112.5 66.3781 Q1116.56 65.3249 1120.52 63.2184 L1120.52 70.267 Q1116.51 71.9684 1112.3 72.8596 Q1108.09 73.7508 1103.75 73.7508 Q1092.9 73.7508 1086.54 67.4314 Q1080.22 61.1119 1080.22 50.3365 Q1080.22 39.1965 1086.21 32.6746 Q1092.25 26.1121 1102.46 26.1121 Q1111.61 26.1121 1116.92 32.0264 Q1122.27 37.9003 1122.27 48.0275 M1114.81 45.84 Q1114.73 39.7232 1111.37 36.0774 Q1108.05 32.4315 1102.54 32.4315 Q1096.3 32.4315 1092.53 35.9558 Q1088.81 39.4801 1088.24 45.8805 L1114.81 45.84 Z" fill="#000000" fill-rule="nonzero" fill-opacity="1" /><path clip-path="url(#clip110)" d="M1163.42 28.5427 L1163.42 35.5912 Q1160.26 33.9709 1156.86 33.1607 Q1153.46 32.3505 1149.81 32.3505 Q1144.26 32.3505 1141.47 34.0519 Q1138.71 35.7533 1138.71 39.156 Q1138.71 41.7486 1140.7 43.2475 Q1142.68 44.7058 1148.68 46.0426 L1151.23 46.6097 Q1159.17 48.3111 1162.49 51.4303 Q1165.85 54.509 1165.85 60.0587 Q1165.85 66.3781 1160.83 70.0644 Q1155.85 73.7508 1147.1 73.7508 Q1143.45 73.7508 1139.48 73.0216 Q1135.55 72.3329 1131.18 70.9151 L1131.18 63.2184 Q1135.31 65.3654 1139.32 66.4591 Q1143.33 67.5124 1147.26 67.5124 Q1152.53 67.5124 1155.36 65.73 Q1158.2 63.9071 1158.2 60.6258 Q1158.2 57.5877 1156.13 55.9673 Q1154.11 54.3469 1147.18 52.8481 L1144.59 52.2405 Q1137.66 50.7821 1134.58 47.7845 Q1131.5 44.7463 1131.5 39.4801 Q1131.5 33.0797 1136.04 29.5959 Q1140.58 26.1121 1148.92 26.1121 Q1153.05 26.1121 1156.7 26.7198 Q1160.35 27.3274 1163.42 28.5427 Z" fill="#000000" fill-rule="nonzero" fill-opacity="1" /><path clip-path="url(#clip110)" d="M1206.65 28.5427 L1206.65 35.5912 Q1203.49 33.9709 1200.08 33.1607 Q1196.68 32.3505 1193.04 32.3505 Q1187.49 32.3505 1184.69 34.0519 Q1181.94 35.7533 1181.94 39.156 Q1181.94 41.7486 1183.92 43.2475 Q1185.91 44.7058 1191.9 46.0426 L1194.45 46.6097 Q1202.39 48.3111 1205.72 51.4303 Q1209.08 54.509 1209.08 60.0587 Q1209.08 66.3781 1204.05 70.0644 Q1199.07 73.7508 1190.32 73.7508 Q1186.68 73.7508 1182.71 73.0216 Q1178.78 72.3329 1174.4 70.9151 L1174.4 63.2184 Q1178.53 65.3654 1182.54 66.4591 Q1186.55 67.5124 1190.48 67.5124 Q1195.75 67.5124 1198.59 65.73 Q1201.42 63.9071 1201.42 60.6258 Q1201.42 57.5877 1199.36 55.9673 Q1197.33 54.3469 1190.4 52.8481 L1187.81 52.2405 Q1180.88 50.7821 1177.8 47.7845 Q1174.73 44.7463 1174.73 39.4801 Q1174.73 33.0797 1179.26 29.5959 Q1183.8 26.1121 1192.14 26.1121 Q1196.28 26.1121 1199.92 26.7198 Q1203.57 27.3274 1206.65 28.5427 Z" fill="#000000" fill-rule="nonzero" fill-opacity="1" /><path clip-path="url(#clip110)" d="M1220.95 27.2059 L1228.4 27.2059 L1228.4 72.576 L1220.95 72.576 L1220.95 27.2059 M1220.95 9.54393 L1228.4 9.54393 L1228.4 18.9825 L1220.95 18.9825 L1220.95 9.54393 Z" fill="#000000" fill-rule="nonzero" fill-opacity="1" /><path clip-path="url(#clip110)" d="M1261.58 32.4315 Q1255.58 32.4315 1252.1 37.1306 Q1248.61 41.7891 1248.61 49.9314 Q1248.61 58.0738 1252.06 62.7728 Q1255.54 67.4314 1261.58 67.4314 Q1267.53 67.4314 1271.02 62.7323 Q1274.5 58.0333 1274.5 49.9314 Q1274.5 41.8701 1271.02 37.1711 Q1267.53 32.4315 1261.58 32.4315 M1261.58 26.1121 Q1271.3 26.1121 1276.85 32.4315 Q1282.4 38.7509 1282.4 49.9314 Q1282.4 61.0714 1276.85 67.4314 Q1271.3 73.7508 1261.58 73.7508 Q1251.81 73.7508 1246.27 67.4314 Q1240.76 61.0714 1240.76 49.9314 Q1240.76 38.7509 1246.27 32.4315 Q1251.81 26.1121 1261.58 26.1121 Z" fill="#000000" fill-rule="nonzero" fill-opacity="1" /><path clip-path="url(#clip110)" d="M1332.47 45.1919 L1332.47 72.576 L1325.01 72.576 L1325.01 45.4349 Q1325.01 38.994 1322.5 35.7938 Q1319.99 32.5936 1314.97 32.5936 Q1308.93 32.5936 1305.45 36.4419 Q1301.96 40.2903 1301.96 46.9338 L1301.96 72.576 L1294.47 72.576 L1294.47 27.2059 L1301.96 27.2059 L1301.96 34.2544 Q1304.64 30.163 1308.24 28.1376 Q1311.89 26.1121 1316.63 26.1121 Q1324.45 26.1121 1328.46 30.9732 Q1332.47 35.7938 1332.47 45.1919 Z" fill="#000000" fill-rule="nonzero" fill-opacity="1" /><path clip-path="url(#clip110)" d="M1349.24 62.2867 L1357.79 62.2867 L1357.79 72.576 L1349.24 72.576 L1349.24 62.2867 M1349.24 29.6769 L1357.79 29.6769 L1357.79 39.9662 L1349.24 39.9662 L1349.24 29.6769 Z" fill="#000000" fill-rule="nonzero" fill-opacity="1" /><path clip-path="url(#clip110)" d="M1401.98 12.096 L1414.17 12.096 L1429.61 53.2532 L1445.12 12.096 L1457.32 12.096 L1457.32 72.576 L1449.34 72.576 L1449.34 19.4686 L1433.74 60.9499 L1425.52 60.9499 L1409.92 19.4686 L1409.92 72.576 L1401.98 72.576 L1401.98 12.096 Z" fill="#000000" fill-rule="nonzero" fill-opacity="1" /><path clip-path="url(#clip110)" d="M1502.24 44.2197 Q1504.87 45.1109 1507.35 48.0275 Q1509.86 50.9442 1512.37 56.0483 L1520.67 72.576 L1511.88 72.576 L1504.15 57.061 Q1501.15 50.9847 1498.31 48.9997 Q1495.52 47.0148 1490.66 47.0148 L1481.74 47.0148 L1481.74 72.576 L1473.56 72.576 L1473.56 12.096 L1492.03 12.096 Q1502.4 12.096 1507.51 16.4305 Q1512.61 20.7649 1512.61 29.5149 Q1512.61 35.2267 1509.94 38.994 Q1507.31 42.7613 1502.24 44.2197 M1481.74 18.8205 L1481.74 40.2903 L1492.03 40.2903 Q1497.95 40.2903 1500.95 37.5762 Q1503.98 34.8216 1503.98 29.5149 Q1503.98 24.2082 1500.95 21.5346 Q1497.95 18.8205 1492.03 18.8205 L1481.74 18.8205 Z" fill="#000000" fill-rule="nonzero" fill-opacity="1" /><path clip-path="url(#clip110)" d="M1548.06 20.1573 L1536.96 50.2555 L1559.2 50.2555 L1548.06 20.1573 M1543.44 12.096 L1552.72 12.096 L1575.77 72.576 L1567.26 72.576 L1561.75 57.061 L1534.49 57.061 L1528.98 72.576 L1520.35 72.576 L1543.44 12.096 Z" fill="#000000" fill-rule="nonzero" fill-opacity="1" /><path clip-path="url(#clip110)" d="M1584.6 12.096 L1622.84 12.096 L1622.84 18.9825 L1592.78 18.9825 L1592.78 36.8875 L1621.58 36.8875 L1621.58 43.7741 L1592.78 43.7741 L1592.78 65.6895 L1623.57 65.6895 L1623.57 72.576 L1584.6 72.576 L1584.6 12.096 Z" fill="#000000" fill-rule="nonzero" fill-opacity="1" /><path clip-path="url(#clip110)" d="M1659.66 9.54393 L1659.66 15.7418 L1652.53 15.7418 Q1648.52 15.7418 1646.94 17.3622 Q1645.4 18.9825 1645.4 23.1955 L1645.4 27.2059 L1657.67 27.2059 L1657.67 32.9987 L1645.4 32.9987 L1645.4 72.576 L1637.91 72.576 L1637.91 32.9987 L1630.78 32.9987 L1630.78 27.2059 L1637.91 27.2059 L1637.91 24.0462 Q1637.91 16.471 1641.43 13.0277 Q1644.95 9.54393 1652.61 9.54393 L1659.66 9.54393 Z" fill="#000000" fill-rule="nonzero" fill-opacity="1" /><path clip-path="url(#clip110)" d="M1686.92 27.2059 L1694.82 27.2059 L1709 65.2844 L1723.18 27.2059 L1731.08 27.2059 L1714.06 72.576 L1703.94 72.576 L1686.92 27.2059 Z" fill="#000000" fill-rule="nonzero" fill-opacity="1" /><path clip-path="url(#clip110)" d="M1770.29 28.5427 L1770.29 35.5912 Q1767.13 33.9709 1763.73 33.1607 Q1760.32 32.3505 1756.68 32.3505 Q1751.13 32.3505 1748.33 34.0519 Q1745.58 35.7533 1745.58 39.156 Q1745.58 41.7486 1747.56 43.2475 Q1749.55 44.7058 1755.54 46.0426 L1758.1 46.6097 Q1766.04 48.3111 1769.36 51.4303 Q1772.72 54.509 1772.72 60.0587 Q1772.72 66.3781 1767.7 70.0644 Q1762.71 73.7508 1753.96 73.7508 Q1750.32 73.7508 1746.35 73.0216 Q1742.42 72.3329 1738.04 70.9151 L1738.04 63.2184 Q1742.18 65.3654 1746.19 66.4591 Q1750.2 67.5124 1754.13 67.5124 Q1759.39 67.5124 1762.23 65.73 Q1765.06 63.9071 1765.06 60.6258 Q1765.06 57.5877 1763 55.9673 Q1760.97 54.3469 1754.05 52.8481 L1751.45 52.2405 Q1744.53 50.7821 1741.45 47.7845 Q1738.37 44.7463 1738.37 39.4801 Q1738.37 33.0797 1742.91 29.5959 Q1747.44 26.1121 1755.79 26.1121 Q1759.92 26.1121 1763.57 26.7198 Q1767.21 27.3274 1770.29 28.5427 Z" fill="#000000" fill-rule="nonzero" fill-opacity="1" /><path clip-path="url(#clip110)" d="M1811.29 12.096 L1819.47 12.096 L1819.47 36.8875 L1849.2 36.8875 L1849.2 12.096 L1857.38 12.096 L1857.38 72.576 L1849.2 72.576 L1849.2 43.7741 L1819.47 43.7741 L1819.47 72.576 L1811.29 72.576 L1811.29 12.096 Z" fill="#000000" fill-rule="nonzero" fill-opacity="1" /><path clip-path="url(#clip110)" d="M1890.93 32.4315 Q1884.93 32.4315 1881.45 37.1306 Q1877.96 41.7891 1877.96 49.9314 Q1877.96 58.0738 1881.41 62.7728 Q1884.89 67.4314 1890.93 67.4314 Q1896.88 67.4314 1900.36 62.7323 Q1903.85 58.0333 1903.85 49.9314 Q1903.85 41.8701 1900.36 37.1711 Q1896.88 32.4315 1890.93 32.4315 M1890.93 26.1121 Q1900.65 26.1121 1906.2 32.4315 Q1911.75 38.7509 1911.75 49.9314 Q1911.75 61.0714 1906.2 67.4314 Q1900.65 73.7508 1890.93 73.7508 Q1881.16 73.7508 1875.61 67.4314 Q1870.1 61.0714 1870.1 49.9314 Q1870.1 38.7509 1875.61 32.4315 Q1881.16 26.1121 1890.93 26.1121 Z" fill="#000000" fill-rule="nonzero" fill-opacity="1" /><path clip-path="url(#clip110)" d="M1950.39 34.1734 Q1949.14 33.4443 1947.64 33.1202 Q1946.18 32.7556 1944.4 32.7556 Q1938.08 32.7556 1934.68 36.8875 Q1931.31 40.9789 1931.31 48.6757 L1931.31 72.576 L1923.82 72.576 L1923.82 27.2059 L1931.31 27.2059 L1931.31 34.2544 Q1933.66 30.1225 1937.43 28.1376 Q1941.2 26.1121 1946.59 26.1121 Q1947.35 26.1121 1948.29 26.2337 Q1949.22 26.3147 1950.35 26.5172 L1950.39 34.1734 Z" fill="#000000" fill-rule="nonzero" fill-opacity="1" /><path clip-path="url(#clip110)" d="M1958.21 27.2059 L1965.67 27.2059 L1965.67 72.576 L1958.21 72.576 L1958.21 27.2059 M1958.21 9.54393 L1965.67 9.54393 L1965.67 18.9825 L1958.21 18.9825 L1958.21 9.54393 Z" fill="#000000" fill-rule="nonzero" fill-opacity="1" /><path clip-path="url(#clip110)" d="M1978.02 27.2059 L2013.43 27.2059 L2013.43 34.0114 L1985.39 66.6212 L2013.43 66.6212 L2013.43 72.576 L1977.01 72.576 L1977.01 65.7705 L2005.04 33.1607 L1978.02 33.1607 L1978.02 27.2059 Z" fill="#000000" fill-rule="nonzero" fill-opacity="1" /><path clip-path="url(#clip110)" d="M2042.39 32.4315 Q2036.39 32.4315 2032.91 37.1306 Q2029.43 41.7891 2029.43 49.9314 Q2029.43 58.0738 2032.87 62.7728 Q2036.35 67.4314 2042.39 67.4314 Q2048.34 67.4314 2051.83 62.7323 Q2055.31 58.0333 2055.31 49.9314 Q2055.31 41.8701 2051.83 37.1711 Q2048.34 32.4315 2042.39 32.4315 M2042.39 26.1121 Q2052.11 26.1121 2057.66 32.4315 Q2063.21 38.7509 2063.21 49.9314 Q2063.21 61.0714 2057.66 67.4314 Q2052.11 73.7508 2042.39 73.7508 Q2032.63 73.7508 2027.08 67.4314 Q2021.57 61.0714 2021.57 49.9314 Q2021.57 38.7509 2027.08 32.4315 Q2032.63 26.1121 2042.39 26.1121 Z" fill="#000000" fill-rule="nonzero" fill-opacity="1" /><path clip-path="url(#clip110)" d="M2113.28 45.1919 L2113.28 72.576 L2105.83 72.576 L2105.83 45.4349 Q2105.83 38.994 2103.31 35.7938 Q2100.8 32.5936 2095.78 32.5936 Q2089.74 32.5936 2086.26 36.4419 Q2082.78 40.2903 2082.78 46.9338 L2082.78 72.576 L2075.28 72.576 L2075.28 27.2059 L2082.78 27.2059 L2082.78 34.2544 Q2085.45 30.163 2089.06 28.1376 Q2092.7 26.1121 2097.44 26.1121 Q2105.26 26.1121 2109.27 30.9732 Q2113.28 35.7938 2113.28 45.1919 Z" fill="#000000" fill-rule="nonzero" fill-opacity="1" /><circle clip-path="url(#clip112)" cx="426.3" cy="160.256" r="14.4" fill="#009af9" fill-rule="evenodd" fill-opacity="1" stroke="#000000" stroke-opacity="1" stroke-width="3.2"/>
<circle clip-path="url(#clip112)" cx="626.694" cy="398.309" r="14.4" fill="#009af9" fill-rule="evenodd" fill-opacity="1" stroke="#000000" stroke-opacity="1" stroke-width="3.2"/>
<circle clip-path="url(#clip112)" cx="960.684" cy="534.053" r="14.4" fill="#009af9" fill-rule="evenodd" fill-opacity="1" stroke="#000000" stroke-opacity="1" stroke-width="3.2"/>
<circle clip-path="url(#clip112)" cx="1294.67" cy="906.874" r="14.4" fill="#009af9" fill-rule="evenodd" fill-opacity="1" stroke="#000000" stroke-opacity="1" stroke-width="3.2"/>
<circle clip-path="url(#clip112)" cx="1628.66" cy="1336.45" r="14.4" fill="#009af9" fill-rule="evenodd" fill-opacity="1" stroke="#000000" stroke-opacity="1" stroke-width="3.2"/>
<circle clip-path="url(#clip112)" cx="2296.65" cy="1386.4" r="14.4" fill="#009af9" fill-rule="evenodd" fill-opacity="1" stroke="#000000" stroke-opacity="1" stroke-width="3.2"/>
<circle clip-path="url(#clip112)" cx="426.3" cy="405.745" r="14.4" fill="#e26f46" fill-rule="evenodd" fill-opacity="1" stroke="#000000" stroke-opacity="1" stroke-width="3.2"/>
<circle clip-path="url(#clip112)" cx="626.694" cy="287.903" r="14.4" fill="#e26f46" fill-rule="evenodd" fill-opacity="1" stroke="#000000" stroke-opacity="1" stroke-width="3.2"/>
<circle clip-path="url(#clip112)" cx="960.684" cy="409.74" r="14.4" fill="#e26f46" fill-rule="evenodd" fill-opacity="1" stroke="#000000" stroke-opacity="1" stroke-width="3.2"/>
<circle clip-path="url(#clip112)" cx="1294.67" cy="859.674" r="14.4" fill="#e26f46" fill-rule="evenodd" fill-opacity="1" stroke="#000000" stroke-opacity="1" stroke-width="3.2"/>
<circle clip-path="url(#clip112)" cx="1628.66" cy="1349.33" r="14.4" fill="#e26f46" fill-rule="evenodd" fill-opacity="1" stroke="#000000" stroke-opacity="1" stroke-width="3.2"/>
<circle clip-path="url(#clip112)" cx="2296.65" cy="1315.07" r="14.4" fill="#e26f46" fill-rule="evenodd" fill-opacity="1" stroke="#000000" stroke-opacity="1" stroke-width="3.2"/>
<path clip-path="url(#clip110)" d="M1752 322.316 L2286.67 322.316 L2286.67 166.796 L1752 166.796  Z" fill="#ffffff" fill-rule="evenodd" fill-opacity="1"/>
<polyline clip-path="url(#clip110)" style="stroke:#000000; stroke-linecap:round; stroke-linejoin:round; stroke-width:4; stroke-opacity:1; fill:none" points="1752,322.316 2286.67,322.316 2286.67,166.796 1752,166.796 1752,322.316 "/>
<circle clip-path="url(#clip110)" cx="1840.12" cy="218.636" r="20.48" fill="#009af9" fill-rule="evenodd" fill-opacity="1" stroke="#000000" stroke-opacity="1" stroke-width="4.55111"/>
<path clip-path="url(#clip110)" d="M1935.64 202.629 L1935.64 209.99 L1944.41 209.99 L1944.41 213.3 L1935.64 213.3 L1935.64 227.374 Q1935.64 230.545 1936.5 231.448 Q1937.38 232.351 1940.04 232.351 L1944.41 232.351 L1944.41 235.916 L1940.04 235.916 Q1935.11 235.916 1933.23 234.087 Q1931.36 232.235 1931.36 227.374 L1931.36 213.3 L1928.23 213.3 L1928.23 209.99 L1931.36 209.99 L1931.36 202.629 L1935.64 202.629 Z" fill="#000000" fill-rule="nonzero" fill-opacity="1" /><path clip-path="url(#clip110)" d="M1965.04 213.971 Q1964.32 213.555 1963.46 213.37 Q1962.63 213.161 1961.61 213.161 Q1958 213.161 1956.06 215.522 Q1954.13 217.86 1954.13 222.258 L1954.13 235.916 L1949.85 235.916 L1949.85 209.99 L1954.13 209.99 L1954.13 214.018 Q1955.48 211.657 1957.63 210.522 Q1959.78 209.365 1962.86 209.365 Q1963.3 209.365 1963.83 209.434 Q1964.37 209.481 1965.01 209.596 L1965.04 213.971 Z" fill="#000000" fill-rule="nonzero" fill-opacity="1" /><path clip-path="url(#clip110)" d="M1981.29 222.883 Q1976.12 222.883 1974.13 224.064 Q1972.14 225.244 1972.14 228.092 Q1972.14 230.36 1973.62 231.703 Q1975.13 233.022 1977.7 233.022 Q1981.24 233.022 1983.37 230.522 Q1985.52 227.999 1985.52 223.832 L1985.52 222.883 L1981.29 222.883 M1989.78 221.124 L1989.78 235.916 L1985.52 235.916 L1985.52 231.981 Q1984.06 234.342 1981.89 235.476 Q1979.71 236.587 1976.56 236.587 Q1972.58 236.587 1970.22 234.365 Q1967.88 232.119 1967.88 228.369 Q1967.88 223.994 1970.8 221.772 Q1973.74 219.55 1979.55 219.55 L1985.52 219.55 L1985.52 219.133 Q1985.52 216.194 1983.58 214.596 Q1981.66 212.976 1978.16 212.976 Q1975.94 212.976 1973.83 213.508 Q1971.73 214.041 1969.78 215.106 L1969.78 211.17 Q1972.12 210.268 1974.32 209.828 Q1976.52 209.365 1978.6 209.365 Q1984.23 209.365 1987 212.282 Q1989.78 215.198 1989.78 221.124 Z" fill="#000000" fill-rule="nonzero" fill-opacity="1" /><path clip-path="url(#clip110)" d="M1998.56 209.99 L2002.81 209.99 L2002.81 235.916 L1998.56 235.916 L1998.56 209.99 M1998.56 199.897 L2002.81 199.897 L2002.81 205.291 L1998.56 205.291 L1998.56 199.897 Z" fill="#000000" fill-rule="nonzero" fill-opacity="1" /><path clip-path="url(#clip110)" d="M2033.28 220.268 L2033.28 235.916 L2029.02 235.916 L2029.02 220.407 Q2029.02 216.726 2027.58 214.897 Q2026.15 213.069 2023.28 213.069 Q2019.83 213.069 2017.84 215.268 Q2015.85 217.467 2015.85 221.263 L2015.85 235.916 L2011.56 235.916 L2011.56 209.99 L2015.85 209.99 L2015.85 214.018 Q2017.37 211.68 2019.43 210.522 Q2021.52 209.365 2024.23 209.365 Q2028.69 209.365 2030.99 212.143 Q2033.28 214.897 2033.28 220.268 Z" fill="#000000" fill-rule="nonzero" fill-opacity="1" /><path clip-path="url(#clip110)" d="M2041.77 209.99 L2046.03 209.99 L2046.03 235.916 L2041.77 235.916 L2041.77 209.99 M2041.77 199.897 L2046.03 199.897 L2046.03 205.291 L2041.77 205.291 L2041.77 199.897 Z" fill="#000000" fill-rule="nonzero" fill-opacity="1" /><path clip-path="url(#clip110)" d="M2076.49 220.268 L2076.49 235.916 L2072.24 235.916 L2072.24 220.407 Q2072.24 216.726 2070.8 214.897 Q2069.37 213.069 2066.49 213.069 Q2063.05 213.069 2061.05 215.268 Q2059.06 217.467 2059.06 221.263 L2059.06 235.916 L2054.78 235.916 L2054.78 209.99 L2059.06 209.99 L2059.06 214.018 Q2060.59 211.68 2062.65 210.522 Q2064.74 209.365 2067.44 209.365 Q2071.91 209.365 2074.2 212.143 Q2076.49 214.897 2076.49 220.268 Z" fill="#000000" fill-rule="nonzero" fill-opacity="1" /><path clip-path="url(#clip110)" d="M2102.05 222.652 Q2102.05 218.022 2100.13 215.476 Q2098.23 212.93 2094.78 212.93 Q2091.36 212.93 2089.43 215.476 Q2087.54 218.022 2087.54 222.652 Q2087.54 227.258 2089.43 229.805 Q2091.36 232.351 2094.78 232.351 Q2098.23 232.351 2100.13 229.805 Q2102.05 227.258 2102.05 222.652 M2106.31 232.698 Q2106.31 239.318 2103.37 242.536 Q2100.43 245.777 2094.36 245.777 Q2092.12 245.777 2090.13 245.43 Q2088.14 245.105 2086.26 244.411 L2086.26 240.268 Q2088.14 241.286 2089.97 241.772 Q2091.8 242.258 2093.69 242.258 Q2097.88 242.258 2099.97 240.059 Q2102.05 237.883 2102.05 233.462 L2102.05 231.356 Q2100.73 233.647 2098.67 234.781 Q2096.61 235.916 2093.74 235.916 Q2088.97 235.916 2086.05 232.281 Q2083.14 228.647 2083.14 222.652 Q2083.14 216.633 2086.05 212.999 Q2088.97 209.365 2093.74 209.365 Q2096.61 209.365 2098.67 210.499 Q2100.73 211.633 2102.05 213.925 L2102.05 209.99 L2106.31 209.99 L2106.31 232.698 Z" fill="#000000" fill-rule="nonzero" fill-opacity="1" /><path clip-path="url(#clip110)" d="M2128 221.032 L2140.48 221.032 L2140.48 224.828 L2128 224.828 L2128 221.032 Z" fill="#000000" fill-rule="nonzero" fill-opacity="1" /><path clip-path="url(#clip110)" d="M2177.1 217.282 Q2180.45 217.999 2182.33 220.268 Q2184.23 222.536 2184.23 225.869 Q2184.23 230.985 2180.71 233.786 Q2177.19 236.587 2170.71 236.587 Q2168.53 236.587 2166.22 236.147 Q2163.92 235.731 2161.47 234.874 L2161.47 230.36 Q2163.42 231.494 2165.73 232.073 Q2168.05 232.652 2170.57 232.652 Q2174.97 232.652 2177.26 230.916 Q2179.57 229.18 2179.57 225.869 Q2179.57 222.814 2177.42 221.101 Q2175.29 219.365 2171.47 219.365 L2167.44 219.365 L2167.44 215.522 L2171.66 215.522 Q2175.11 215.522 2176.93 214.157 Q2178.76 212.768 2178.76 210.175 Q2178.76 207.513 2176.86 206.101 Q2174.99 204.666 2171.47 204.666 Q2169.55 204.666 2167.35 205.083 Q2165.15 205.499 2162.51 206.379 L2162.51 202.212 Q2165.17 201.471 2167.49 201.101 Q2169.83 200.731 2171.89 200.731 Q2177.21 200.731 2180.31 203.161 Q2183.42 205.569 2183.42 209.689 Q2183.42 212.559 2181.77 214.55 Q2180.13 216.518 2177.1 217.282 Z" fill="#000000" fill-rule="nonzero" fill-opacity="1" /><path clip-path="url(#clip110)" d="M2203.09 204.434 Q2199.48 204.434 2197.65 207.999 Q2195.85 211.541 2195.85 218.67 Q2195.85 225.777 2197.65 229.342 Q2199.48 232.883 2203.09 232.883 Q2206.73 232.883 2208.53 229.342 Q2210.36 225.777 2210.36 218.67 Q2210.36 211.541 2208.53 207.999 Q2206.73 204.434 2203.09 204.434 M2203.09 200.731 Q2208.9 200.731 2211.96 205.337 Q2215.04 209.92 2215.04 218.67 Q2215.04 227.397 2211.96 232.004 Q2208.9 236.587 2203.09 236.587 Q2197.28 236.587 2194.2 232.004 Q2191.15 227.397 2191.15 218.67 Q2191.15 209.92 2194.2 205.337 Q2197.28 200.731 2203.09 200.731 Z" fill="#000000" fill-rule="nonzero" fill-opacity="1" /><circle clip-path="url(#clip110)" cx="1840.12" cy="270.476" r="20.48" fill="#e26f46" fill-rule="evenodd" fill-opacity="1" stroke="#000000" stroke-opacity="1" stroke-width="4.55111"/>
<path clip-path="url(#clip110)" d="M1928.23 261.83 L1932.75 261.83 L1940.85 283.589 L1948.95 261.83 L1953.46 261.83 L1943.74 287.756 L1937.95 287.756 L1928.23 261.83 Z" fill="#000000" fill-rule="nonzero" fill-opacity="1" /><path clip-path="url(#clip110)" d="M1971.12 274.723 Q1965.96 274.723 1963.97 275.904 Q1961.98 277.084 1961.98 279.932 Q1961.98 282.2 1963.46 283.543 Q1964.97 284.862 1967.54 284.862 Q1971.08 284.862 1973.21 282.362 Q1975.36 279.839 1975.36 275.672 L1975.36 274.723 L1971.12 274.723 M1979.62 272.964 L1979.62 287.756 L1975.36 287.756 L1975.36 283.821 Q1973.9 286.182 1971.73 287.316 Q1969.55 288.427 1966.4 288.427 Q1962.42 288.427 1960.06 286.205 Q1957.72 283.959 1957.72 280.209 Q1957.72 275.834 1960.64 273.612 Q1963.58 271.39 1969.39 271.39 L1975.36 271.39 L1975.36 270.973 Q1975.36 268.034 1973.42 266.436 Q1971.5 264.816 1968 264.816 Q1965.78 264.816 1963.67 265.348 Q1961.56 265.881 1959.62 266.946 L1959.62 263.01 Q1961.96 262.108 1964.16 261.668 Q1966.36 261.205 1968.44 261.205 Q1974.06 261.205 1976.84 264.122 Q1979.62 267.038 1979.62 272.964 Z" fill="#000000" fill-rule="nonzero" fill-opacity="1" /><path clip-path="url(#clip110)" d="M1988.39 251.737 L1992.65 251.737 L1992.65 287.756 L1988.39 287.756 L1988.39 251.737 Z" fill="#000000" fill-rule="nonzero" fill-opacity="1" /><path clip-path="url(#clip110)" d="M2001.56 261.83 L2005.82 261.83 L2005.82 287.756 L2001.56 287.756 L2001.56 261.83 M2001.56 251.737 L2005.82 251.737 L2005.82 257.131 L2001.56 257.131 L2001.56 251.737 Z" fill="#000000" fill-rule="nonzero" fill-opacity="1" /><path clip-path="url(#clip110)" d="M2031.8 265.765 L2031.8 251.737 L2036.06 251.737 L2036.06 287.756 L2031.8 287.756 L2031.8 283.867 Q2030.45 286.182 2028.39 287.316 Q2026.36 288.427 2023.49 288.427 Q2018.79 288.427 2015.82 284.677 Q2012.88 280.927 2012.88 274.816 Q2012.88 268.705 2015.82 264.955 Q2018.79 261.205 2023.49 261.205 Q2026.36 261.205 2028.39 262.339 Q2030.45 263.45 2031.8 265.765 M2017.28 274.816 Q2017.28 279.515 2019.2 282.2 Q2021.15 284.862 2024.53 284.862 Q2027.91 284.862 2029.85 282.2 Q2031.8 279.515 2031.8 274.816 Q2031.8 270.117 2029.85 267.455 Q2027.91 264.77 2024.53 264.77 Q2021.15 264.77 2019.2 267.455 Q2017.28 270.117 2017.28 274.816 Z" fill="#000000" fill-rule="nonzero" fill-opacity="1" /><path clip-path="url(#clip110)" d="M2056.61 274.723 Q2051.45 274.723 2049.46 275.904 Q2047.47 277.084 2047.47 279.932 Q2047.47 282.2 2048.95 283.543 Q2050.45 284.862 2053.02 284.862 Q2056.56 284.862 2058.69 282.362 Q2060.85 279.839 2060.85 275.672 L2060.85 274.723 L2056.61 274.723 M2065.11 272.964 L2065.11 287.756 L2060.85 287.756 L2060.85 283.821 Q2059.39 286.182 2057.21 287.316 Q2055.04 288.427 2051.89 288.427 Q2047.91 288.427 2045.55 286.205 Q2043.21 283.959 2043.21 280.209 Q2043.21 275.834 2046.12 273.612 Q2049.06 271.39 2054.87 271.39 L2060.85 271.39 L2060.85 270.973 Q2060.85 268.034 2058.9 266.436 Q2056.98 264.816 2053.49 264.816 Q2051.26 264.816 2049.16 265.348 Q2047.05 265.881 2045.11 266.946 L2045.11 263.01 Q2047.44 262.108 2049.64 261.668 Q2051.84 261.205 2053.93 261.205 Q2059.55 261.205 2062.33 264.122 Q2065.11 267.038 2065.11 272.964 Z" fill="#000000" fill-rule="nonzero" fill-opacity="1" /><path clip-path="url(#clip110)" d="M2078.09 254.469 L2078.09 261.83 L2086.87 261.83 L2086.87 265.14 L2078.09 265.14 L2078.09 279.214 Q2078.09 282.385 2078.95 283.288 Q2079.83 284.191 2082.49 284.191 L2086.87 284.191 L2086.87 287.756 L2082.49 287.756 Q2077.56 287.756 2075.68 285.927 Q2073.81 284.075 2073.81 279.214 L2073.81 265.14 L2070.68 265.14 L2070.68 261.83 L2073.81 261.83 L2073.81 254.469 L2078.09 254.469 Z" fill="#000000" fill-rule="nonzero" fill-opacity="1" /><path clip-path="url(#clip110)" d="M2092.47 261.83 L2096.73 261.83 L2096.73 287.756 L2092.47 287.756 L2092.47 261.83 M2092.47 251.737 L2096.73 251.737 L2096.73 257.131 L2092.47 257.131 L2092.47 251.737 Z" fill="#000000" fill-rule="nonzero" fill-opacity="1" /><path clip-path="url(#clip110)" d="M2115.68 264.816 Q2112.26 264.816 2110.27 267.501 Q2108.28 270.163 2108.28 274.816 Q2108.28 279.469 2110.24 282.154 Q2112.24 284.816 2115.68 284.816 Q2119.09 284.816 2121.08 282.131 Q2123.07 279.446 2123.07 274.816 Q2123.07 270.21 2121.08 267.524 Q2119.09 264.816 2115.68 264.816 M2115.68 261.205 Q2121.24 261.205 2124.41 264.816 Q2127.58 268.427 2127.58 274.816 Q2127.58 281.182 2124.41 284.816 Q2121.24 288.427 2115.68 288.427 Q2110.11 288.427 2106.93 284.816 Q2103.79 281.182 2103.79 274.816 Q2103.79 268.427 2106.93 264.816 Q2110.11 261.205 2115.68 261.205 Z" fill="#000000" fill-rule="nonzero" fill-opacity="1" /><path clip-path="url(#clip110)" d="M2156.19 272.108 L2156.19 287.756 L2151.93 287.756 L2151.93 272.247 Q2151.93 268.566 2150.5 266.737 Q2149.06 264.909 2146.19 264.909 Q2142.74 264.909 2140.75 267.108 Q2138.76 269.307 2138.76 273.103 L2138.76 287.756 L2134.48 287.756 L2134.48 261.83 L2138.76 261.83 L2138.76 265.858 Q2140.29 263.52 2142.35 262.362 Q2144.43 261.205 2147.14 261.205 Q2151.61 261.205 2153.9 263.983 Q2156.19 266.737 2156.19 272.108 Z" fill="#000000" fill-rule="nonzero" fill-opacity="1" /><path clip-path="url(#clip110)" d="M2177.61 272.872 L2190.08 272.872 L2190.08 276.668 L2177.61 276.668 L2177.61 272.872 Z" fill="#000000" fill-rule="nonzero" fill-opacity="1" /><path clip-path="url(#clip110)" d="M2226.7 269.122 Q2230.06 269.839 2231.93 272.108 Q2233.83 274.376 2233.83 277.709 Q2233.83 282.825 2230.31 285.626 Q2226.79 288.427 2220.31 288.427 Q2218.14 288.427 2215.82 287.987 Q2213.53 287.571 2211.08 286.714 L2211.08 282.2 Q2213.02 283.334 2215.34 283.913 Q2217.65 284.492 2220.17 284.492 Q2224.57 284.492 2226.86 282.756 Q2229.18 281.02 2229.18 277.709 Q2229.18 274.654 2227.03 272.941 Q2224.9 271.205 2221.08 271.205 L2217.05 271.205 L2217.05 267.362 L2221.26 267.362 Q2224.71 267.362 2226.54 265.997 Q2228.37 264.608 2228.37 262.015 Q2228.37 259.353 2226.47 257.941 Q2224.6 256.506 2221.08 256.506 Q2219.16 256.506 2216.96 256.923 Q2214.76 257.339 2212.12 258.219 L2212.12 254.052 Q2214.78 253.311 2217.1 252.941 Q2219.43 252.571 2221.49 252.571 Q2226.82 252.571 2229.92 255.001 Q2233.02 257.409 2233.02 261.529 Q2233.02 264.399 2231.38 266.39 Q2229.73 268.358 2226.7 269.122 Z" fill="#000000" fill-rule="nonzero" fill-opacity="1" /><path clip-path="url(#clip110)" d="M2252.7 256.274 Q2249.09 256.274 2247.26 259.839 Q2245.45 263.381 2245.45 270.51 Q2245.45 277.617 2247.26 281.182 Q2249.09 284.723 2252.7 284.723 Q2256.33 284.723 2258.14 281.182 Q2259.97 277.617 2259.97 270.51 Q2259.97 263.381 2258.14 259.839 Q2256.33 256.274 2252.7 256.274 M2252.7 252.571 Q2258.51 252.571 2261.56 257.177 Q2264.64 261.76 2264.64 270.51 Q2264.64 279.237 2261.56 283.844 Q2258.51 288.427 2252.7 288.427 Q2246.89 288.427 2243.81 283.844 Q2240.75 279.237 2240.75 270.51 Q2240.75 261.76 2243.81 257.177 Q2246.89 252.571 2252.7 252.571 Z" fill="#000000" fill-rule="nonzero" fill-opacity="1" /></svg>
