<?xml version="1.0" encoding="utf-8"?>
<svg xmlns="http://www.w3.org/2000/svg" xmlns:xlink="http://www.w3.org/1999/xlink" width="600" height="400" viewBox="0 0 2400 1600">
<defs>
  <clipPath id="clip630">
    <rect x="0" y="0" width="2400" height="1600"/>
  </clipPath>
</defs>
<path clip-path="url(#clip630)" d="M0 1600 L2400 1600 L2400 0 L0 0  Z" fill="#ffffff" fill-rule="evenodd" fill-opacity="1"/>
<defs>
  <clipPath id="clip631">
    <rect x="480" y="0" width="1681" height="1600"/>
  </clipPath>
</defs>
<path clip-path="url(#clip630)" d="M399.449 1423.18 L2352.76 1423.18 L2352.76 123.472 L399.449 123.472  Z" fill="#ffffff" fill-rule="evenodd" fill-opacity="1"/>
<defs>
  <clipPath id="clip632">
    <rect x="399" y="123" width="1954" height="1301"/>
  </clipPath>
</defs>
<polyline clip-path="url(#clip632)" style="stroke:#000000; stroke-linecap:round; stroke-linejoin:round; stroke-width:2; stroke-opacity:0.1; fill:none" points="410.109,1423.18 410.109,123.472 "/>
<polyline clip-path="url(#clip632)" style="stroke:#000000; stroke-linecap:round; stroke-linejoin:round; stroke-width:2; stroke-opacity:0.1; fill:none" points="812.516,1423.18 812.516,123.472 "/>
<polyline clip-path="url(#clip632)" style="stroke:#000000; stroke-linecap:round; stroke-linejoin:round; stroke-width:2; stroke-opacity:0.1; fill:none" points="1175.98,1423.18 1175.98,123.472 "/>
<polyline clip-path="url(#clip632)" style="stroke:#000000; stroke-linecap:round; stroke-linejoin:round; stroke-width:2; stroke-opacity:0.1; fill:none" points="1578.39,1423.18 1578.39,123.472 "/>
<polyline clip-path="url(#clip632)" style="stroke:#000000; stroke-linecap:round; stroke-linejoin:round; stroke-width:2; stroke-opacity:0.1; fill:none" points="1967.81,1423.18 1967.81,123.472 "/>
<polyline clip-path="url(#clip630)" style="stroke:#000000; stroke-linecap:round; stroke-linejoin:round; stroke-width:4; stroke-opacity:1; fill:none" points="399.449,1423.18 2352.76,1423.18 "/>
<polyline clip-path="url(#clip630)" style="stroke:#000000; stroke-linecap:round; stroke-linejoin:round; stroke-width:4; stroke-opacity:1; fill:none" points="410.109,1423.18 410.109,1404.28 "/>
<polyline clip-path="url(#clip630)" style="stroke:#000000; stroke-linecap:round; stroke-linejoin:round; stroke-width:4; stroke-opacity:1; fill:none" points="812.516,1423.18 812.516,1404.28 "/>
<polyline clip-path="url(#clip630)" style="stroke:#000000; stroke-linecap:round; stroke-linejoin:round; stroke-width:4; stroke-opacity:1; fill:none" points="1175.98,1423.18 1175.98,1404.28 "/>
<polyline clip-path="url(#clip630)" style="stroke:#000000; stroke-linecap:round; stroke-linejoin:round; stroke-width:4; stroke-opacity:1; fill:none" points="1578.39,1423.18 1578.39,1404.28 "/>
<polyline clip-path="url(#clip630)" style="stroke:#000000; stroke-linecap:round; stroke-linejoin:round; stroke-width:4; stroke-opacity:1; fill:none" points="1967.81,1423.18 1967.81,1404.28 "/>
<path clip-path="url(#clip630)" d="M281.904 1481.64 L298.223 1481.64 L298.223 1485.58 L276.279 1485.58 L276.279 1481.64 Q278.941 1478.89 283.524 1474.26 Q288.131 1469.61 289.311 1468.27 Q291.557 1465.74 292.436 1464.01 Q293.339 1462.25 293.339 1460.56 Q293.339 1457.8 291.395 1456.07 Q289.473 1454.33 286.371 1454.33 Q284.172 1454.33 281.719 1455.09 Q279.288 1455.86 276.51 1457.41 L276.51 1452.69 Q279.334 1451.55 281.788 1450.97 Q284.242 1450.39 286.279 1450.39 Q291.649 1450.39 294.844 1453.08 Q298.038 1455.77 298.038 1460.26 Q298.038 1462.39 297.228 1464.31 Q296.441 1466.2 294.334 1468.8 Q293.756 1469.47 290.654 1472.69 Q287.552 1475.88 281.904 1481.64 Z" fill="#000000" fill-rule="nonzero" fill-opacity="1" /><path clip-path="url(#clip630)" d="M318.038 1454.1 Q314.427 1454.1 312.598 1457.66 Q310.793 1461.2 310.793 1468.33 Q310.793 1475.44 312.598 1479.01 Q314.427 1482.55 318.038 1482.55 Q321.672 1482.55 323.478 1479.01 Q325.306 1475.44 325.306 1468.33 Q325.306 1461.2 323.478 1457.66 Q321.672 1454.1 318.038 1454.1 M318.038 1450.39 Q323.848 1450.39 326.904 1455 Q329.982 1459.58 329.982 1468.33 Q329.982 1477.06 326.904 1481.67 Q323.848 1486.25 318.038 1486.25 Q312.228 1486.25 309.149 1481.67 Q306.094 1477.06 306.094 1468.33 Q306.094 1459.58 309.149 1455 Q312.228 1450.39 318.038 1450.39 Z" fill="#000000" fill-rule="nonzero" fill-opacity="1" /><path clip-path="url(#clip630)" d="M342.228 1481.64 L358.547 1481.64 L358.547 1485.58 L336.603 1485.58 L336.603 1481.64 Q339.265 1478.89 343.848 1474.26 Q348.454 1469.61 349.635 1468.27 Q351.88 1465.74 352.76 1464.01 Q353.663 1462.25 353.663 1460.56 Q353.663 1457.8 351.718 1456.07 Q349.797 1454.33 346.695 1454.33 Q344.496 1454.33 342.042 1455.09 Q339.612 1455.86 336.834 1457.41 L336.834 1452.69 Q339.658 1451.55 342.112 1450.97 Q344.566 1450.39 346.603 1450.39 Q351.973 1450.39 355.167 1453.08 Q358.362 1455.77 358.362 1460.26 Q358.362 1462.39 357.552 1464.31 Q356.765 1466.2 354.658 1468.8 Q354.079 1469.47 350.978 1472.69 Q347.876 1475.88 342.228 1481.64 Z" fill="#000000" fill-rule="nonzero" fill-opacity="1" /><path clip-path="url(#clip630)" d="M369.172 1481.64 L376.811 1481.64 L376.811 1455.28 L368.501 1456.95 L368.501 1452.69 L376.764 1451.02 L381.44 1451.02 L381.44 1481.64 L389.079 1481.64 L389.079 1485.58 L369.172 1485.58 L369.172 1481.64 Z" fill="#000000" fill-rule="nonzero" fill-opacity="1" /><path clip-path="url(#clip630)" d="M395.769 1470.7 L408.246 1470.7 L408.246 1474.49 L395.769 1474.49 L395.769 1470.7 Z" fill="#000000" fill-rule="nonzero" fill-opacity="1" /><path clip-path="url(#clip630)" d="M425.63 1454.1 Q422.019 1454.1 420.19 1457.66 Q418.385 1461.2 418.385 1468.33 Q418.385 1475.44 420.19 1479.01 Q422.019 1482.55 425.63 1482.55 Q429.264 1482.55 431.07 1479.01 Q432.898 1475.44 432.898 1468.33 Q432.898 1461.2 431.07 1457.66 Q429.264 1454.1 425.63 1454.1 M425.63 1450.39 Q431.44 1450.39 434.496 1455 Q437.574 1459.58 437.574 1468.33 Q437.574 1477.06 434.496 1481.67 Q431.44 1486.25 425.63 1486.25 Q419.82 1486.25 416.741 1481.67 Q413.686 1477.06 413.686 1468.33 Q413.686 1459.58 416.741 1455 Q419.82 1450.39 425.63 1450.39 Z" fill="#000000" fill-rule="nonzero" fill-opacity="1" /><path clip-path="url(#clip630)" d="M446.602 1481.64 L454.241 1481.64 L454.241 1455.28 L445.931 1456.95 L445.931 1452.69 L454.195 1451.02 L458.87 1451.02 L458.87 1481.64 L466.509 1481.64 L466.509 1485.58 L446.602 1485.58 L446.602 1481.64 Z" fill="#000000" fill-rule="nonzero" fill-opacity="1" /><path clip-path="url(#clip630)" d="M473.199 1470.7 L485.676 1470.7 L485.676 1474.49 L473.199 1474.49 L473.199 1470.7 Z" fill="#000000" fill-rule="nonzero" fill-opacity="1" /><path clip-path="url(#clip630)" d="M503.06 1454.1 Q499.449 1454.1 497.62 1457.66 Q495.815 1461.2 495.815 1468.33 Q495.815 1475.44 497.62 1479.01 Q499.449 1482.55 503.06 1482.55 Q506.694 1482.55 508.5 1479.01 Q510.329 1475.44 510.329 1468.33 Q510.329 1461.2 508.5 1457.66 Q506.694 1454.1 503.06 1454.1 M503.06 1450.39 Q508.87 1450.39 511.926 1455 Q515.004 1459.58 515.004 1468.33 Q515.004 1477.06 511.926 1481.67 Q508.87 1486.25 503.06 1486.25 Q497.25 1486.25 494.171 1481.67 Q491.116 1477.06 491.116 1468.33 Q491.116 1459.58 494.171 1455 Q497.25 1450.39 503.06 1450.39 Z" fill="#000000" fill-rule="nonzero" fill-opacity="1" /><path clip-path="url(#clip630)" d="M524.032 1481.64 L531.671 1481.64 L531.671 1455.28 L523.361 1456.95 L523.361 1452.69 L531.625 1451.02 L536.301 1451.02 L536.301 1481.64 L543.939 1481.64 L543.939 1485.58 L524.032 1485.58 L524.032 1481.64 Z" fill="#000000" fill-rule="nonzero" fill-opacity="1" /><path clip-path="url(#clip630)" d="M684.311 1481.64 L700.63 1481.64 L700.63 1485.58 L678.686 1485.58 L678.686 1481.64 Q681.348 1478.89 685.931 1474.26 Q690.538 1469.61 691.718 1468.27 Q693.964 1465.74 694.843 1464.01 Q695.746 1462.25 695.746 1460.56 Q695.746 1457.8 693.802 1456.07 Q691.88 1454.33 688.778 1454.33 Q686.579 1454.33 684.126 1455.09 Q681.695 1455.86 678.917 1457.41 L678.917 1452.69 Q681.741 1451.55 684.195 1450.97 Q686.649 1450.39 688.686 1450.39 Q694.056 1450.39 697.251 1453.08 Q700.445 1455.77 700.445 1460.26 Q700.445 1462.39 699.635 1464.31 Q698.848 1466.2 696.741 1468.8 Q696.163 1469.47 693.061 1472.69 Q689.959 1475.88 684.311 1481.64 Z" fill="#000000" fill-rule="nonzero" fill-opacity="1" /><path clip-path="url(#clip630)" d="M720.445 1454.1 Q716.834 1454.1 715.005 1457.66 Q713.2 1461.2 713.2 1468.33 Q713.2 1475.44 715.005 1479.01 Q716.834 1482.55 720.445 1482.55 Q724.079 1482.55 725.885 1479.01 Q727.713 1475.44 727.713 1468.33 Q727.713 1461.2 725.885 1457.66 Q724.079 1454.1 720.445 1454.1 M720.445 1450.39 Q726.255 1450.39 729.311 1455 Q732.389 1459.58 732.389 1468.33 Q732.389 1477.06 729.311 1481.67 Q726.255 1486.25 720.445 1486.25 Q714.635 1486.25 711.556 1481.67 Q708.501 1477.06 708.501 1468.33 Q708.501 1459.58 711.556 1455 Q714.635 1450.39 720.445 1450.39 Z" fill="#000000" fill-rule="nonzero" fill-opacity="1" /><path clip-path="url(#clip630)" d="M744.635 1481.64 L760.954 1481.64 L760.954 1485.58 L739.01 1485.58 L739.01 1481.64 Q741.672 1478.89 746.255 1474.26 Q750.861 1469.61 752.042 1468.27 Q754.287 1465.74 755.167 1464.01 Q756.07 1462.25 756.07 1460.56 Q756.07 1457.8 754.125 1456.07 Q752.204 1454.33 749.102 1454.33 Q746.903 1454.33 744.449 1455.09 Q742.019 1455.86 739.241 1457.41 L739.241 1452.69 Q742.065 1451.55 744.519 1450.97 Q746.973 1450.39 749.01 1450.39 Q754.38 1450.39 757.574 1453.08 Q760.769 1455.77 760.769 1460.26 Q760.769 1462.39 759.959 1464.31 Q759.172 1466.2 757.065 1468.8 Q756.486 1469.47 753.385 1472.69 Q750.283 1475.88 744.635 1481.64 Z" fill="#000000" fill-rule="nonzero" fill-opacity="1" /><path clip-path="url(#clip630)" d="M771.579 1481.64 L779.218 1481.64 L779.218 1455.28 L770.908 1456.95 L770.908 1452.69 L779.171 1451.02 L783.847 1451.02 L783.847 1481.64 L791.486 1481.64 L791.486 1485.58 L771.579 1485.58 L771.579 1481.64 Z" fill="#000000" fill-rule="nonzero" fill-opacity="1" /><path clip-path="url(#clip630)" d="M798.176 1470.7 L810.653 1470.7 L810.653 1474.49 L798.176 1474.49 L798.176 1470.7 Z" fill="#000000" fill-rule="nonzero" fill-opacity="1" /><path clip-path="url(#clip630)" d="M828.037 1454.1 Q824.426 1454.1 822.597 1457.66 Q820.792 1461.2 820.792 1468.33 Q820.792 1475.44 822.597 1479.01 Q824.426 1482.55 828.037 1482.55 Q831.671 1482.55 833.477 1479.01 Q835.305 1475.44 835.305 1468.33 Q835.305 1461.2 833.477 1457.66 Q831.671 1454.1 828.037 1454.1 M828.037 1450.39 Q833.847 1450.39 836.903 1455 Q839.981 1459.58 839.981 1468.33 Q839.981 1477.06 836.903 1481.67 Q833.847 1486.25 828.037 1486.25 Q822.227 1486.25 819.148 1481.67 Q816.093 1477.06 816.093 1468.33 Q816.093 1459.58 819.148 1455 Q822.227 1450.39 828.037 1450.39 Z" fill="#000000" fill-rule="nonzero" fill-opacity="1" /><path clip-path="url(#clip630)" d="M852.227 1481.64 L868.546 1481.64 L868.546 1485.58 L846.602 1485.58 L846.602 1481.64 Q849.264 1478.89 853.847 1474.26 Q858.453 1469.61 859.634 1468.27 Q861.879 1465.74 862.759 1464.01 Q863.662 1462.25 863.662 1460.56 Q863.662 1457.8 861.717 1456.07 Q859.796 1454.33 856.694 1454.33 Q854.495 1454.33 852.041 1455.09 Q849.611 1455.86 846.833 1457.41 L846.833 1452.69 Q849.657 1451.55 852.111 1450.97 Q854.565 1450.39 856.602 1450.39 Q861.972 1450.39 865.166 1453.08 Q868.361 1455.77 868.361 1460.26 Q868.361 1462.39 867.551 1464.31 Q866.764 1466.2 864.657 1468.8 Q864.078 1469.47 860.977 1472.69 Q857.875 1475.88 852.227 1481.64 Z" fill="#000000" fill-rule="nonzero" fill-opacity="1" /><path clip-path="url(#clip630)" d="M875.606 1470.7 L888.083 1470.7 L888.083 1474.49 L875.606 1474.49 L875.606 1470.7 Z" fill="#000000" fill-rule="nonzero" fill-opacity="1" /><path clip-path="url(#clip630)" d="M905.467 1454.1 Q901.856 1454.1 900.027 1457.66 Q898.222 1461.2 898.222 1468.33 Q898.222 1475.44 900.027 1479.01 Q901.856 1482.55 905.467 1482.55 Q909.101 1482.55 910.907 1479.01 Q912.736 1475.44 912.736 1468.33 Q912.736 1461.2 910.907 1457.66 Q909.101 1454.1 905.467 1454.1 M905.467 1450.39 Q911.277 1450.39 914.333 1455 Q917.411 1459.58 917.411 1468.33 Q917.411 1477.06 914.333 1481.67 Q911.277 1486.25 905.467 1486.25 Q899.657 1486.25 896.578 1481.67 Q893.523 1477.06 893.523 1468.33 Q893.523 1459.58 896.578 1455 Q899.657 1450.39 905.467 1450.39 Z" fill="#000000" fill-rule="nonzero" fill-opacity="1" /><path clip-path="url(#clip630)" d="M926.439 1481.64 L934.078 1481.64 L934.078 1455.28 L925.768 1456.95 L925.768 1452.69 L934.032 1451.02 L938.708 1451.02 L938.708 1481.64 L946.346 1481.64 L946.346 1485.58 L926.439 1485.58 L926.439 1481.64 Z" fill="#000000" fill-rule="nonzero" fill-opacity="1" /><path clip-path="url(#clip630)" d="M1047.78 1481.64 L1064.09 1481.64 L1064.09 1485.58 L1042.15 1485.58 L1042.15 1481.64 Q1044.81 1478.89 1049.4 1474.26 Q1054 1469.61 1055.18 1468.27 Q1057.43 1465.74 1058.31 1464.01 Q1059.21 1462.25 1059.21 1460.56 Q1059.21 1457.8 1057.27 1456.07 Q1055.34 1454.33 1052.24 1454.33 Q1050.04 1454.33 1047.59 1455.09 Q1045.16 1455.86 1042.38 1457.41 L1042.38 1452.69 Q1045.21 1451.55 1047.66 1450.97 Q1050.11 1450.39 1052.15 1450.39 Q1057.52 1450.39 1060.71 1453.08 Q1063.91 1455.77 1063.91 1460.26 Q1063.91 1462.39 1063.1 1464.31 Q1062.31 1466.2 1060.21 1468.8 Q1059.63 1469.47 1056.53 1472.69 Q1053.42 1475.88 1047.78 1481.64 Z" fill="#000000" fill-rule="nonzero" fill-opacity="1" /><path clip-path="url(#clip630)" d="M1083.91 1454.1 Q1080.3 1454.1 1078.47 1457.66 Q1076.66 1461.2 1076.66 1468.33 Q1076.66 1475.44 1078.47 1479.01 Q1080.3 1482.55 1083.91 1482.55 Q1087.54 1482.55 1089.35 1479.01 Q1091.18 1475.44 1091.18 1468.33 Q1091.18 1461.2 1089.35 1457.66 Q1087.54 1454.1 1083.91 1454.1 M1083.91 1450.39 Q1089.72 1450.39 1092.77 1455 Q1095.85 1459.58 1095.85 1468.33 Q1095.85 1477.06 1092.77 1481.67 Q1089.72 1486.25 1083.91 1486.25 Q1078.1 1486.25 1075.02 1481.67 Q1071.96 1477.06 1071.96 1468.33 Q1071.96 1459.58 1075.02 1455 Q1078.1 1450.39 1083.91 1450.39 Z" fill="#000000" fill-rule="nonzero" fill-opacity="1" /><path clip-path="url(#clip630)" d="M1108.1 1481.64 L1124.42 1481.64 L1124.42 1485.58 L1102.47 1485.58 L1102.47 1481.64 Q1105.14 1478.89 1109.72 1474.26 Q1114.33 1469.61 1115.51 1468.27 Q1117.75 1465.74 1118.63 1464.01 Q1119.53 1462.25 1119.53 1460.56 Q1119.53 1457.8 1117.59 1456.07 Q1115.67 1454.33 1112.57 1454.33 Q1110.37 1454.33 1107.91 1455.09 Q1105.48 1455.86 1102.71 1457.41 L1102.71 1452.69 Q1105.53 1451.55 1107.98 1450.97 Q1110.44 1450.39 1112.47 1450.39 Q1117.84 1450.39 1121.04 1453.08 Q1124.23 1455.77 1124.23 1460.26 Q1124.23 1462.39 1123.42 1464.31 Q1122.64 1466.2 1120.53 1468.8 Q1119.95 1469.47 1116.85 1472.69 Q1113.75 1475.88 1108.1 1481.64 Z" fill="#000000" fill-rule="nonzero" fill-opacity="1" /><path clip-path="url(#clip630)" d="M1135.04 1481.64 L1142.68 1481.64 L1142.68 1455.28 L1134.37 1456.95 L1134.37 1452.69 L1142.64 1451.02 L1147.31 1451.02 L1147.31 1481.64 L1154.95 1481.64 L1154.95 1485.58 L1135.04 1485.58 L1135.04 1481.64 Z" fill="#000000" fill-rule="nonzero" fill-opacity="1" /><path clip-path="url(#clip630)" d="M1161.64 1470.7 L1174.12 1470.7 L1174.12 1474.49 L1161.64 1474.49 L1161.64 1470.7 Z" fill="#000000" fill-rule="nonzero" fill-opacity="1" /><path clip-path="url(#clip630)" d="M1191.5 1454.1 Q1187.89 1454.1 1186.06 1457.66 Q1184.26 1461.2 1184.26 1468.33 Q1184.26 1475.44 1186.06 1479.01 Q1187.89 1482.55 1191.5 1482.55 Q1195.14 1482.55 1196.94 1479.01 Q1198.77 1475.44 1198.77 1468.33 Q1198.77 1461.2 1196.94 1457.66 Q1195.14 1454.1 1191.5 1454.1 M1191.5 1450.39 Q1197.31 1450.39 1200.37 1455 Q1203.45 1459.58 1203.45 1468.33 Q1203.45 1477.06 1200.37 1481.67 Q1197.31 1486.25 1191.5 1486.25 Q1185.69 1486.25 1182.61 1481.67 Q1179.56 1477.06 1179.56 1468.33 Q1179.56 1459.58 1182.61 1455 Q1185.69 1450.39 1191.5 1450.39 Z" fill="#000000" fill-rule="nonzero" fill-opacity="1" /><path clip-path="url(#clip630)" d="M1225.83 1466.95 Q1229.19 1467.66 1231.06 1469.93 Q1232.96 1472.2 1232.96 1475.53 Q1232.96 1480.65 1229.44 1483.45 Q1225.92 1486.25 1219.44 1486.25 Q1217.27 1486.25 1214.95 1485.81 Q1212.66 1485.39 1210.2 1484.54 L1210.2 1480.02 Q1212.15 1481.16 1214.46 1481.74 Q1216.78 1482.32 1219.3 1482.32 Q1223.7 1482.32 1225.99 1480.58 Q1228.31 1478.84 1228.31 1475.53 Q1228.31 1472.48 1226.15 1470.77 Q1224.02 1469.03 1220.2 1469.03 L1216.18 1469.03 L1216.18 1465.19 L1220.39 1465.19 Q1223.84 1465.19 1225.67 1463.82 Q1227.5 1462.43 1227.5 1459.84 Q1227.5 1457.18 1225.6 1455.77 Q1223.72 1454.33 1220.2 1454.33 Q1218.28 1454.33 1216.08 1454.75 Q1213.89 1455.16 1211.25 1456.04 L1211.25 1451.88 Q1213.91 1451.14 1216.22 1450.77 Q1218.56 1450.39 1220.62 1450.39 Q1225.95 1450.39 1229.05 1452.83 Q1232.15 1455.23 1232.15 1459.35 Q1232.15 1462.22 1230.51 1464.21 Q1228.86 1466.18 1225.83 1466.95 Z" fill="#000000" fill-rule="nonzero" fill-opacity="1" /><path clip-path="url(#clip630)" d="M1239.07 1470.7 L1251.55 1470.7 L1251.55 1474.49 L1239.07 1474.49 L1239.07 1470.7 Z" fill="#000000" fill-rule="nonzero" fill-opacity="1" /><path clip-path="url(#clip630)" d="M1268.93 1454.1 Q1265.32 1454.1 1263.49 1457.66 Q1261.69 1461.2 1261.69 1468.33 Q1261.69 1475.44 1263.49 1479.01 Q1265.32 1482.55 1268.93 1482.55 Q1272.57 1482.55 1274.37 1479.01 Q1276.2 1475.44 1276.2 1468.33 Q1276.2 1461.2 1274.37 1457.66 Q1272.57 1454.1 1268.93 1454.1 M1268.93 1450.39 Q1274.74 1450.39 1277.8 1455 Q1280.88 1459.58 1280.88 1468.33 Q1280.88 1477.06 1277.8 1481.67 Q1274.74 1486.25 1268.93 1486.25 Q1263.12 1486.25 1260.04 1481.67 Q1256.99 1477.06 1256.99 1468.33 Q1256.99 1459.58 1260.04 1455 Q1263.12 1450.39 1268.93 1450.39 Z" fill="#000000" fill-rule="nonzero" fill-opacity="1" /><path clip-path="url(#clip630)" d="M1289.9 1481.64 L1297.54 1481.64 L1297.54 1455.28 L1289.23 1456.95 L1289.23 1452.69 L1297.5 1451.02 L1302.17 1451.02 L1302.17 1481.64 L1309.81 1481.64 L1309.81 1485.58 L1289.9 1485.58 L1289.9 1481.64 Z" fill="#000000" fill-rule="nonzero" fill-opacity="1" /><path clip-path="url(#clip630)" d="M1450.18 1481.64 L1466.5 1481.64 L1466.5 1485.58 L1444.56 1485.58 L1444.56 1481.64 Q1447.22 1478.89 1451.8 1474.26 Q1456.41 1469.61 1457.59 1468.27 Q1459.83 1465.74 1460.71 1464.01 Q1461.62 1462.25 1461.62 1460.56 Q1461.62 1457.8 1459.67 1456.07 Q1457.75 1454.33 1454.65 1454.33 Q1452.45 1454.33 1450 1455.09 Q1447.57 1455.86 1444.79 1457.41 L1444.79 1452.69 Q1447.61 1451.55 1450.07 1450.97 Q1452.52 1450.39 1454.56 1450.39 Q1459.93 1450.39 1463.12 1453.08 Q1466.32 1455.77 1466.32 1460.26 Q1466.32 1462.39 1465.51 1464.31 Q1464.72 1466.2 1462.61 1468.8 Q1462.03 1469.47 1458.93 1472.69 Q1455.83 1475.88 1450.18 1481.64 Z" fill="#000000" fill-rule="nonzero" fill-opacity="1" /><path clip-path="url(#clip630)" d="M1486.32 1454.1 Q1482.71 1454.1 1480.88 1457.66 Q1479.07 1461.2 1479.07 1468.33 Q1479.07 1475.44 1480.88 1479.01 Q1482.71 1482.55 1486.32 1482.55 Q1489.95 1482.55 1491.76 1479.01 Q1493.58 1475.44 1493.58 1468.33 Q1493.58 1461.2 1491.76 1457.66 Q1489.95 1454.1 1486.32 1454.1 M1486.32 1450.39 Q1492.13 1450.39 1495.18 1455 Q1498.26 1459.58 1498.26 1468.33 Q1498.26 1477.06 1495.18 1481.67 Q1492.13 1486.25 1486.32 1486.25 Q1480.51 1486.25 1477.43 1481.67 Q1474.37 1477.06 1474.37 1468.33 Q1474.37 1459.58 1477.43 1455 Q1480.51 1450.39 1486.32 1450.39 Z" fill="#000000" fill-rule="nonzero" fill-opacity="1" /><path clip-path="url(#clip630)" d="M1510.51 1481.64 L1526.83 1481.64 L1526.83 1485.58 L1504.88 1485.58 L1504.88 1481.64 Q1507.54 1478.89 1512.13 1474.26 Q1516.73 1469.61 1517.91 1468.27 Q1520.16 1465.74 1521.04 1464.01 Q1521.94 1462.25 1521.94 1460.56 Q1521.94 1457.8 1520 1456.07 Q1518.08 1454.33 1514.97 1454.33 Q1512.77 1454.33 1510.32 1455.09 Q1507.89 1455.86 1505.11 1457.41 L1505.11 1452.69 Q1507.94 1451.55 1510.39 1450.97 Q1512.84 1450.39 1514.88 1450.39 Q1520.25 1450.39 1523.45 1453.08 Q1526.64 1455.77 1526.64 1460.26 Q1526.64 1462.39 1525.83 1464.31 Q1525.04 1466.2 1522.94 1468.8 Q1522.36 1469.47 1519.26 1472.69 Q1516.15 1475.88 1510.51 1481.64 Z" fill="#000000" fill-rule="nonzero" fill-opacity="1" /><path clip-path="url(#clip630)" d="M1537.45 1481.64 L1545.09 1481.64 L1545.09 1455.28 L1536.78 1456.95 L1536.78 1452.69 L1545.04 1451.02 L1549.72 1451.02 L1549.72 1481.64 L1557.36 1481.64 L1557.36 1485.58 L1537.45 1485.58 L1537.45 1481.64 Z" fill="#000000" fill-rule="nonzero" fill-opacity="1" /><path clip-path="url(#clip630)" d="M1564.05 1470.7 L1576.52 1470.7 L1576.52 1474.49 L1564.05 1474.49 L1564.05 1470.7 Z" fill="#000000" fill-rule="nonzero" fill-opacity="1" /><path clip-path="url(#clip630)" d="M1593.91 1454.1 Q1590.3 1454.1 1588.47 1457.66 Q1586.66 1461.2 1586.66 1468.33 Q1586.66 1475.44 1588.47 1479.01 Q1590.3 1482.55 1593.91 1482.55 Q1597.54 1482.55 1599.35 1479.01 Q1601.18 1475.44 1601.18 1468.33 Q1601.18 1461.2 1599.35 1457.66 Q1597.54 1454.1 1593.91 1454.1 M1593.91 1450.39 Q1599.72 1450.39 1602.77 1455 Q1605.85 1459.58 1605.85 1468.33 Q1605.85 1477.06 1602.77 1481.67 Q1599.72 1486.25 1593.91 1486.25 Q1588.1 1486.25 1585.02 1481.67 Q1581.96 1477.06 1581.96 1468.33 Q1581.96 1459.58 1585.02 1455 Q1588.1 1450.39 1593.91 1450.39 Z" fill="#000000" fill-rule="nonzero" fill-opacity="1" /><path clip-path="url(#clip630)" d="M1626.92 1455.09 L1615.11 1473.54 L1626.92 1473.54 L1626.92 1455.09 M1625.69 1451.02 L1631.57 1451.02 L1631.57 1473.54 L1636.5 1473.54 L1636.5 1477.43 L1631.57 1477.43 L1631.57 1485.58 L1626.92 1485.58 L1626.92 1477.43 L1611.32 1477.43 L1611.32 1472.92 L1625.69 1451.02 Z" fill="#000000" fill-rule="nonzero" fill-opacity="1" /><path clip-path="url(#clip630)" d="M1641.48 1470.7 L1653.95 1470.7 L1653.95 1474.49 L1641.48 1474.49 L1641.48 1470.7 Z" fill="#000000" fill-rule="nonzero" fill-opacity="1" /><path clip-path="url(#clip630)" d="M1671.34 1454.1 Q1667.73 1454.1 1665.9 1457.66 Q1664.09 1461.2 1664.09 1468.33 Q1664.09 1475.44 1665.9 1479.01 Q1667.73 1482.55 1671.34 1482.55 Q1674.97 1482.55 1676.78 1479.01 Q1678.61 1475.44 1678.61 1468.33 Q1678.61 1461.2 1676.78 1457.66 Q1674.97 1454.1 1671.34 1454.1 M1671.34 1450.39 Q1677.15 1450.39 1680.2 1455 Q1683.28 1459.58 1683.28 1468.33 Q1683.28 1477.06 1680.2 1481.67 Q1677.15 1486.25 1671.34 1486.25 Q1665.53 1486.25 1662.45 1481.67 Q1659.39 1477.06 1659.39 1468.33 Q1659.39 1459.58 1662.45 1455 Q1665.53 1450.39 1671.34 1450.39 Z" fill="#000000" fill-rule="nonzero" fill-opacity="1" /><path clip-path="url(#clip630)" d="M1692.31 1481.64 L1699.95 1481.64 L1699.95 1455.28 L1691.64 1456.95 L1691.64 1452.69 L1699.9 1451.02 L1704.58 1451.02 L1704.58 1481.64 L1712.22 1481.64 L1712.22 1485.58 L1692.31 1485.58 L1692.31 1481.64 Z" fill="#000000" fill-rule="nonzero" fill-opacity="1" /><path clip-path="url(#clip630)" d="M1839.61 1481.64 L1855.93 1481.64 L1855.93 1485.58 L1833.98 1485.58 L1833.98 1481.64 Q1836.65 1478.89 1841.23 1474.26 Q1845.84 1469.61 1847.02 1468.27 Q1849.26 1465.74 1850.14 1464.01 Q1851.04 1462.25 1851.04 1460.56 Q1851.04 1457.8 1849.1 1456.07 Q1847.18 1454.33 1844.08 1454.33 Q1841.88 1454.33 1839.42 1455.09 Q1836.99 1455.86 1834.21 1457.41 L1834.21 1452.69 Q1837.04 1451.55 1839.49 1450.97 Q1841.95 1450.39 1843.98 1450.39 Q1849.35 1450.39 1852.55 1453.08 Q1855.74 1455.77 1855.74 1460.26 Q1855.74 1462.39 1854.93 1464.31 Q1854.15 1466.2 1852.04 1468.8 Q1851.46 1469.47 1848.36 1472.69 Q1845.26 1475.88 1839.61 1481.64 Z" fill="#000000" fill-rule="nonzero" fill-opacity="1" /><path clip-path="url(#clip630)" d="M1875.74 1454.1 Q1872.13 1454.1 1870.3 1457.66 Q1868.5 1461.2 1868.5 1468.33 Q1868.5 1475.44 1870.3 1479.01 Q1872.13 1482.55 1875.74 1482.55 Q1879.38 1482.55 1881.18 1479.01 Q1883.01 1475.44 1883.01 1468.33 Q1883.01 1461.2 1881.18 1457.66 Q1879.38 1454.1 1875.74 1454.1 M1875.74 1450.39 Q1881.55 1450.39 1884.61 1455 Q1887.69 1459.58 1887.69 1468.33 Q1887.69 1477.06 1884.61 1481.67 Q1881.55 1486.25 1875.74 1486.25 Q1869.93 1486.25 1866.85 1481.67 Q1863.8 1477.06 1863.8 1468.33 Q1863.8 1459.58 1866.85 1455 Q1869.93 1450.39 1875.74 1450.39 Z" fill="#000000" fill-rule="nonzero" fill-opacity="1" /><path clip-path="url(#clip630)" d="M1899.93 1481.64 L1916.25 1481.64 L1916.25 1485.58 L1894.31 1485.58 L1894.31 1481.64 Q1896.97 1478.89 1901.55 1474.26 Q1906.16 1469.61 1907.34 1468.27 Q1909.58 1465.74 1910.46 1464.01 Q1911.37 1462.25 1911.37 1460.56 Q1911.37 1457.8 1909.42 1456.07 Q1907.5 1454.33 1904.4 1454.33 Q1902.2 1454.33 1899.75 1455.09 Q1897.32 1455.86 1894.54 1457.41 L1894.54 1452.69 Q1897.36 1451.55 1899.82 1450.97 Q1902.27 1450.39 1904.31 1450.39 Q1909.68 1450.39 1912.87 1453.08 Q1916.07 1455.77 1916.07 1460.26 Q1916.07 1462.39 1915.26 1464.31 Q1914.47 1466.2 1912.36 1468.8 Q1911.78 1469.47 1908.68 1472.69 Q1905.58 1475.88 1899.93 1481.64 Z" fill="#000000" fill-rule="nonzero" fill-opacity="1" /><path clip-path="url(#clip630)" d="M1926.88 1481.64 L1934.52 1481.64 L1934.52 1455.28 L1926.21 1456.95 L1926.21 1452.69 L1934.47 1451.02 L1939.14 1451.02 L1939.14 1481.64 L1946.78 1481.64 L1946.78 1485.58 L1926.88 1485.58 L1926.88 1481.64 Z" fill="#000000" fill-rule="nonzero" fill-opacity="1" /><path clip-path="url(#clip630)" d="M1953.47 1470.7 L1965.95 1470.7 L1965.95 1474.49 L1953.47 1474.49 L1953.47 1470.7 Z" fill="#000000" fill-rule="nonzero" fill-opacity="1" /><path clip-path="url(#clip630)" d="M1983.33 1454.1 Q1979.72 1454.1 1977.89 1457.66 Q1976.09 1461.2 1976.09 1468.33 Q1976.09 1475.44 1977.89 1479.01 Q1979.72 1482.55 1983.33 1482.55 Q1986.97 1482.55 1988.77 1479.01 Q1990.6 1475.44 1990.6 1468.33 Q1990.6 1461.2 1988.77 1457.66 Q1986.97 1454.1 1983.33 1454.1 M1983.33 1450.39 Q1989.14 1450.39 1992.2 1455 Q1995.28 1459.58 1995.28 1468.33 Q1995.28 1477.06 1992.2 1481.67 Q1989.14 1486.25 1983.33 1486.25 Q1977.52 1486.25 1974.45 1481.67 Q1971.39 1477.06 1971.39 1468.33 Q1971.39 1459.58 1974.45 1455 Q1977.52 1450.39 1983.33 1450.39 Z" fill="#000000" fill-rule="nonzero" fill-opacity="1" /><path clip-path="url(#clip630)" d="M2003.54 1451.02 L2021.9 1451.02 L2021.9 1454.96 L2007.82 1454.96 L2007.82 1463.43 Q2008.84 1463.08 2009.86 1462.92 Q2010.88 1462.73 2011.9 1462.73 Q2017.69 1462.73 2021.07 1465.9 Q2024.45 1469.08 2024.45 1474.49 Q2024.45 1480.07 2020.97 1483.17 Q2017.5 1486.25 2011.18 1486.25 Q2009.01 1486.25 2006.74 1485.88 Q2004.49 1485.51 2002.08 1484.77 L2002.08 1480.07 Q2004.17 1481.2 2006.39 1481.76 Q2008.61 1482.32 2011.09 1482.32 Q2015.09 1482.32 2017.43 1480.21 Q2019.77 1478.1 2019.77 1474.49 Q2019.77 1470.88 2017.43 1468.77 Q2015.09 1466.67 2011.09 1466.67 Q2009.21 1466.67 2007.34 1467.08 Q2005.49 1467.5 2003.54 1468.38 L2003.54 1451.02 Z" fill="#000000" fill-rule="nonzero" fill-opacity="1" /><path clip-path="url(#clip630)" d="M2030.9 1470.7 L2043.38 1470.7 L2043.38 1474.49 L2030.9 1474.49 L2030.9 1470.7 Z" fill="#000000" fill-rule="nonzero" fill-opacity="1" /><path clip-path="url(#clip630)" d="M2060.76 1454.1 Q2057.15 1454.1 2055.32 1457.66 Q2053.52 1461.2 2053.52 1468.33 Q2053.52 1475.44 2055.32 1479.01 Q2057.15 1482.55 2060.76 1482.55 Q2064.4 1482.55 2066.2 1479.01 Q2068.03 1475.44 2068.03 1468.33 Q2068.03 1461.2 2066.2 1457.66 Q2064.4 1454.1 2060.76 1454.1 M2060.76 1450.39 Q2066.57 1450.39 2069.63 1455 Q2072.71 1459.58 2072.71 1468.33 Q2072.71 1477.06 2069.63 1481.67 Q2066.57 1486.25 2060.76 1486.25 Q2054.95 1486.25 2051.88 1481.67 Q2048.82 1477.06 2048.82 1468.33 Q2048.82 1459.58 2051.88 1455 Q2054.95 1450.39 2060.76 1450.39 Z" fill="#000000" fill-rule="nonzero" fill-opacity="1" /><path clip-path="url(#clip630)" d="M2081.74 1481.64 L2089.38 1481.64 L2089.38 1455.28 L2081.07 1456.95 L2081.07 1452.69 L2089.33 1451.02 L2094.01 1451.02 L2094.01 1481.64 L2101.64 1481.64 L2101.64 1485.58 L2081.74 1485.58 L2081.74 1481.64 Z" fill="#000000" fill-rule="nonzero" fill-opacity="1" /><path clip-path="url(#clip630)" d="M1332.15 1537.81 L1332.15 1518.52 L1338 1518.52 L1338 1568.04 L1332.15 1568.04 L1332.15 1562.7 Q1330.3 1565.88 1327.47 1567.44 Q1324.67 1568.97 1320.72 1568.97 Q1314.26 1568.97 1310.19 1563.81 Q1306.14 1558.65 1306.14 1550.25 Q1306.14 1541.85 1310.19 1536.69 Q1314.26 1531.54 1320.72 1531.54 Q1324.67 1531.54 1327.47 1533.1 Q1330.3 1534.62 1332.15 1537.81 M1312.19 1550.25 Q1312.19 1556.71 1314.83 1560.4 Q1317.51 1564.07 1322.15 1564.07 Q1326.8 1564.07 1329.47 1560.4 Q1332.15 1556.71 1332.15 1550.25 Q1332.15 1543.79 1329.47 1540.13 Q1326.8 1536.44 1322.15 1536.44 Q1317.51 1536.44 1314.83 1540.13 Q1312.19 1543.79 1312.19 1550.25 Z" fill="#000000" fill-rule="nonzero" fill-opacity="1" /><path clip-path="url(#clip630)" d="M1366.27 1550.12 Q1359.17 1550.12 1356.43 1551.75 Q1353.69 1553.37 1353.69 1557.29 Q1353.69 1560.4 1355.73 1562.25 Q1357.8 1564.07 1361.33 1564.07 Q1366.2 1564.07 1369.13 1560.63 Q1372.09 1557.16 1372.09 1551.43 L1372.09 1550.12 L1366.27 1550.12 M1377.95 1547.71 L1377.95 1568.04 L1372.09 1568.04 L1372.09 1562.63 Q1370.09 1565.88 1367.09 1567.44 Q1364.1 1568.97 1359.77 1568.97 Q1354.3 1568.97 1351.05 1565.91 Q1347.84 1562.82 1347.84 1557.67 Q1347.84 1551.65 1351.85 1548.6 Q1355.89 1545.54 1363.88 1545.54 L1372.09 1545.54 L1372.09 1544.97 Q1372.09 1540.93 1369.42 1538.73 Q1366.78 1536.5 1361.97 1536.5 Q1358.91 1536.5 1356.02 1537.23 Q1353.12 1537.97 1350.45 1539.43 L1350.45 1534.02 Q1353.66 1532.78 1356.69 1532.17 Q1359.71 1531.54 1362.58 1531.54 Q1370.31 1531.54 1374.13 1535.55 Q1377.95 1539.56 1377.95 1547.71 Z" fill="#000000" fill-rule="nonzero" fill-opacity="1" /><path clip-path="url(#clip630)" d="M1395.8 1522.27 L1395.8 1532.4 L1407.87 1532.4 L1407.87 1536.95 L1395.8 1536.95 L1395.8 1556.3 Q1395.8 1560.66 1396.98 1561.9 Q1398.19 1563.14 1401.85 1563.14 L1407.87 1563.14 L1407.87 1568.04 L1401.85 1568.04 Q1395.07 1568.04 1392.49 1565.53 Q1389.92 1562.98 1389.92 1556.3 L1389.92 1536.95 L1385.62 1536.95 L1385.62 1532.4 L1389.92 1532.4 L1389.92 1522.27 L1395.8 1522.27 Z" fill="#000000" fill-rule="nonzero" fill-opacity="1" /><path clip-path="url(#clip630)" d="M1446.06 1548.76 L1446.06 1551.62 L1419.13 1551.62 Q1419.52 1557.67 1422.76 1560.85 Q1426.04 1564 1431.87 1564 Q1435.24 1564 1438.39 1563.17 Q1441.57 1562.35 1444.69 1560.69 L1444.69 1566.23 Q1441.54 1567.57 1438.23 1568.27 Q1434.92 1568.97 1431.52 1568.97 Q1422.99 1568.97 1417.99 1564 Q1413.02 1559.04 1413.02 1550.57 Q1413.02 1541.82 1417.73 1536.69 Q1422.48 1531.54 1430.5 1531.54 Q1437.69 1531.54 1441.86 1536.18 Q1446.06 1540.8 1446.06 1548.76 M1440.2 1547.04 Q1440.14 1542.23 1437.5 1539.37 Q1434.89 1536.5 1430.56 1536.5 Q1425.66 1536.5 1422.7 1539.27 Q1419.77 1542.04 1419.33 1547.07 L1440.2 1547.04 Z" fill="#000000" fill-rule="nonzero" fill-opacity="1" /><polyline clip-path="url(#clip632)" style="stroke:#000000; stroke-linecap:round; stroke-linejoin:round; stroke-width:2; stroke-opacity:0.1; fill:none" points="399.449,1206.12 2352.76,1206.12 "/>
<polyline clip-path="url(#clip632)" style="stroke:#000000; stroke-linecap:round; stroke-linejoin:round; stroke-width:2; stroke-opacity:0.1; fill:none" points="399.449,891.369 2352.76,891.369 "/>
<polyline clip-path="url(#clip632)" style="stroke:#000000; stroke-linecap:round; stroke-linejoin:round; stroke-width:2; stroke-opacity:0.1; fill:none" points="399.449,576.619 2352.76,576.619 "/>
<polyline clip-path="url(#clip632)" style="stroke:#000000; stroke-linecap:round; stroke-linejoin:round; stroke-width:2; stroke-opacity:0.1; fill:none" points="399.449,261.87 2352.76,261.87 "/>
<polyline clip-path="url(#clip630)" style="stroke:#000000; stroke-linecap:round; stroke-linejoin:round; stroke-width:4; stroke-opacity:1; fill:none" points="399.449,1423.18 399.449,123.472 "/>
<polyline clip-path="url(#clip630)" style="stroke:#000000; stroke-linecap:round; stroke-linejoin:round; stroke-width:4; stroke-opacity:1; fill:none" points="399.449,1206.12 418.346,1206.12 "/>
<polyline clip-path="url(#clip630)" style="stroke:#000000; stroke-linecap:round; stroke-linejoin:round; stroke-width:4; stroke-opacity:1; fill:none" points="399.449,891.369 418.346,891.369 "/>
<polyline clip-path="url(#clip630)" style="stroke:#000000; stroke-linecap:round; stroke-linejoin:round; stroke-width:4; stroke-opacity:1; fill:none" points="399.449,576.619 418.346,576.619 "/>
<polyline clip-path="url(#clip630)" style="stroke:#000000; stroke-linecap:round; stroke-linejoin:round; stroke-width:4; stroke-opacity:1; fill:none" points="399.449,261.87 418.346,261.87 "/>
<path clip-path="url(#clip630)" d="M114.26 1195.29 L136.482 1195.29 L136.482 1197.28 L123.936 1229.85 L119.052 1229.85 L130.857 1199.22 L114.26 1199.22 L114.26 1195.29 Z" fill="#000000" fill-rule="nonzero" fill-opacity="1" /><path clip-path="url(#clip630)" d="M145.603 1223.97 L150.487 1223.97 L150.487 1229.85 L145.603 1229.85 L145.603 1223.97 Z" fill="#000000" fill-rule="nonzero" fill-opacity="1" /><path clip-path="url(#clip630)" d="M160.718 1195.29 L179.075 1195.29 L179.075 1199.22 L165.001 1199.22 L165.001 1207.69 Q166.019 1207.35 167.038 1207.18 Q168.056 1207 169.075 1207 Q174.862 1207 178.241 1210.17 Q181.621 1213.34 181.621 1218.76 Q181.621 1224.34 178.149 1227.44 Q174.677 1230.52 168.357 1230.52 Q166.181 1230.52 163.913 1230.15 Q161.667 1229.78 159.26 1229.04 L159.26 1224.34 Q161.343 1225.47 163.565 1226.03 Q165.788 1226.58 168.264 1226.58 Q172.269 1226.58 174.607 1224.48 Q176.945 1222.37 176.945 1218.76 Q176.945 1215.15 174.607 1213.04 Q172.269 1210.93 168.264 1210.93 Q166.39 1210.93 164.515 1211.35 Q162.663 1211.77 160.718 1212.65 L160.718 1195.29 Z" fill="#000000" fill-rule="nonzero" fill-opacity="1" /><path clip-path="url(#clip630)" d="M200.834 1198.36 Q197.223 1198.36 195.394 1201.93 Q193.588 1205.47 193.588 1212.6 Q193.588 1219.71 195.394 1223.27 Q197.223 1226.81 200.834 1226.81 Q204.468 1226.81 206.274 1223.27 Q208.102 1219.71 208.102 1212.6 Q208.102 1205.47 206.274 1201.93 Q204.468 1198.36 200.834 1198.36 M200.834 1194.66 Q206.644 1194.66 209.699 1199.27 Q212.778 1203.85 212.778 1212.6 Q212.778 1221.33 209.699 1225.93 Q206.644 1230.52 200.834 1230.52 Q195.024 1230.52 191.945 1225.93 Q188.889 1221.33 188.889 1212.6 Q188.889 1203.85 191.945 1199.27 Q195.024 1194.66 200.834 1194.66 Z" fill="#000000" fill-rule="nonzero" fill-opacity="1" /><path clip-path="url(#clip630)" d="M230.996 1198.36 Q227.385 1198.36 225.556 1201.93 Q223.75 1205.47 223.75 1212.6 Q223.75 1219.71 225.556 1223.27 Q227.385 1226.81 230.996 1226.81 Q234.63 1226.81 236.435 1223.27 Q238.264 1219.71 238.264 1212.6 Q238.264 1205.47 236.435 1201.93 Q234.63 1198.36 230.996 1198.36 M230.996 1194.66 Q236.806 1194.66 239.861 1199.27 Q242.94 1203.85 242.94 1212.6 Q242.94 1221.33 239.861 1225.93 Q236.806 1230.52 230.996 1230.52 Q225.185 1230.52 222.107 1225.93 Q219.051 1221.33 219.051 1212.6 Q219.051 1203.85 222.107 1199.27 Q225.185 1194.66 230.996 1194.66 Z" fill="#000000" fill-rule="nonzero" fill-opacity="1" /><path clip-path="url(#clip630)" d="M279.329 1204.38 L268.75 1215.01 L279.329 1225.59 L276.574 1228.39 L265.949 1217.76 L255.324 1228.39 L252.593 1225.59 L263.148 1215.01 L252.593 1204.38 L255.324 1201.58 L265.949 1212.21 L276.574 1201.58 L279.329 1204.38 Z" fill="#000000" fill-rule="nonzero" fill-opacity="1" /><path clip-path="url(#clip630)" d="M291.69 1225.91 L299.329 1225.91 L299.329 1199.55 L291.018 1201.21 L291.018 1196.95 L299.282 1195.29 L303.958 1195.29 L303.958 1225.91 L311.597 1225.91 L311.597 1229.85 L291.69 1229.85 L291.69 1225.91 Z" fill="#000000" fill-rule="nonzero" fill-opacity="1" /><path clip-path="url(#clip630)" d="M331.041 1198.36 Q327.43 1198.36 325.602 1201.93 Q323.796 1205.47 323.796 1212.6 Q323.796 1219.71 325.602 1223.27 Q327.43 1226.81 331.041 1226.81 Q334.676 1226.81 336.481 1223.27 Q338.31 1219.71 338.31 1212.6 Q338.31 1205.47 336.481 1201.93 Q334.676 1198.36 331.041 1198.36 M331.041 1194.66 Q336.852 1194.66 339.907 1199.27 Q342.986 1203.85 342.986 1212.6 Q342.986 1221.33 339.907 1225.93 Q336.852 1230.52 331.041 1230.52 Q325.231 1230.52 322.153 1225.93 Q319.097 1221.33 319.097 1212.6 Q319.097 1203.85 322.153 1199.27 Q325.231 1194.66 331.041 1194.66 Z" fill="#000000" fill-rule="nonzero" fill-opacity="1" /><path clip-path="url(#clip630)" d="M355.662 1177.67 L346.07 1192.66 L355.662 1192.66 L355.662 1177.67 M354.665 1174.36 L359.443 1174.36 L359.443 1192.66 L363.449 1192.66 L363.449 1195.82 L359.443 1195.82 L359.443 1202.44 L355.662 1202.44 L355.662 1195.82 L342.986 1195.82 L342.986 1192.15 L354.665 1174.36 Z" fill="#000000" fill-rule="nonzero" fill-opacity="1" /><path clip-path="url(#clip630)" d="M118.545 911.161 L126.184 911.161 L126.184 884.796 L117.874 886.462 L117.874 882.203 L126.138 880.536 L130.814 880.536 L130.814 911.161 L138.453 911.161 L138.453 915.096 L118.545 915.096 L118.545 911.161 Z" fill="#000000" fill-rule="nonzero" fill-opacity="1" /><path clip-path="url(#clip630)" d="M147.897 909.217 L152.781 909.217 L152.781 915.096 L147.897 915.096 L147.897 909.217 Z" fill="#000000" fill-rule="nonzero" fill-opacity="1" /><path clip-path="url(#clip630)" d="M172.966 883.615 Q169.355 883.615 167.527 887.18 Q165.721 890.722 165.721 897.851 Q165.721 904.958 167.527 908.522 Q169.355 912.064 172.966 912.064 Q176.601 912.064 178.406 908.522 Q180.235 904.958 180.235 897.851 Q180.235 890.722 178.406 887.18 Q176.601 883.615 172.966 883.615 M172.966 879.911 Q178.777 879.911 181.832 884.518 Q184.911 889.101 184.911 897.851 Q184.911 906.578 181.832 911.184 Q178.777 915.768 172.966 915.768 Q167.156 915.768 164.078 911.184 Q161.022 906.578 161.022 897.851 Q161.022 889.101 164.078 884.518 Q167.156 879.911 172.966 879.911 Z" fill="#000000" fill-rule="nonzero" fill-opacity="1" /><path clip-path="url(#clip630)" d="M203.128 883.615 Q199.517 883.615 197.689 887.18 Q195.883 890.722 195.883 897.851 Q195.883 904.958 197.689 908.522 Q199.517 912.064 203.128 912.064 Q206.763 912.064 208.568 908.522 Q210.397 904.958 210.397 897.851 Q210.397 890.722 208.568 887.18 Q206.763 883.615 203.128 883.615 M203.128 879.911 Q208.938 879.911 211.994 884.518 Q215.073 889.101 215.073 897.851 Q215.073 906.578 211.994 911.184 Q208.938 915.768 203.128 915.768 Q197.318 915.768 194.239 911.184 Q191.184 906.578 191.184 897.851 Q191.184 889.101 194.239 884.518 Q197.318 879.911 203.128 879.911 Z" fill="#000000" fill-rule="nonzero" fill-opacity="1" /><path clip-path="url(#clip630)" d="M233.29 883.615 Q229.679 883.615 227.85 887.18 Q226.045 890.722 226.045 897.851 Q226.045 904.958 227.85 908.522 Q229.679 912.064 233.29 912.064 Q236.924 912.064 238.73 908.522 Q240.559 904.958 240.559 897.851 Q240.559 890.722 238.73 887.18 Q236.924 883.615 233.29 883.615 M233.29 879.911 Q239.1 879.911 242.156 884.518 Q245.235 889.101 245.235 897.851 Q245.235 906.578 242.156 911.184 Q239.1 915.768 233.29 915.768 Q227.48 915.768 224.401 911.184 Q221.346 906.578 221.346 897.851 Q221.346 889.101 224.401 884.518 Q227.48 879.911 233.29 879.911 Z" fill="#000000" fill-rule="nonzero" fill-opacity="1" /><path clip-path="url(#clip630)" d="M281.623 889.634 L271.045 900.259 L281.623 910.837 L278.869 913.638 L268.244 903.013 L257.619 913.638 L254.887 910.837 L265.443 900.259 L254.887 889.634 L257.619 886.833 L268.244 897.458 L278.869 886.833 L281.623 889.634 Z" fill="#000000" fill-rule="nonzero" fill-opacity="1" /><path clip-path="url(#clip630)" d="M293.984 911.161 L301.623 911.161 L301.623 884.796 L293.313 886.462 L293.313 882.203 L301.577 880.536 L306.253 880.536 L306.253 911.161 L313.892 911.161 L313.892 915.096 L293.984 915.096 L293.984 911.161 Z" fill="#000000" fill-rule="nonzero" fill-opacity="1" /><path clip-path="url(#clip630)" d="M333.336 883.615 Q329.725 883.615 327.896 887.18 Q326.091 890.722 326.091 897.851 Q326.091 904.958 327.896 908.522 Q329.725 912.064 333.336 912.064 Q336.97 912.064 338.776 908.522 Q340.604 904.958 340.604 897.851 Q340.604 890.722 338.776 887.18 Q336.97 883.615 333.336 883.615 M333.336 879.911 Q339.146 879.911 342.202 884.518 Q345.28 889.101 345.28 897.851 Q345.28 906.578 342.202 911.184 Q339.146 915.768 333.336 915.768 Q327.526 915.768 324.447 911.184 Q321.392 906.578 321.392 897.851 Q321.392 889.101 324.447 884.518 Q327.526 879.911 333.336 879.911 Z" fill="#000000" fill-rule="nonzero" fill-opacity="1" /><path clip-path="url(#clip630)" d="M346.465 859.606 L361.38 859.606 L361.38 862.803 L349.945 862.803 L349.945 869.687 Q350.772 869.405 351.6 869.273 Q352.427 869.123 353.255 869.123 Q357.957 869.123 360.703 871.699 Q363.449 874.276 363.449 878.677 Q363.449 883.21 360.627 885.73 Q357.806 888.232 352.672 888.232 Q350.904 888.232 349.061 887.931 Q347.236 887.63 345.28 887.028 L345.28 883.21 Q346.973 884.131 348.779 884.583 Q350.584 885.034 352.597 885.034 Q355.85 885.034 357.75 883.323 Q359.649 881.611 359.649 878.677 Q359.649 875.743 357.75 874.032 Q355.85 872.32 352.597 872.32 Q351.073 872.32 349.55 872.659 Q348.045 872.997 346.465 873.712 L346.465 859.606 Z" fill="#000000" fill-rule="nonzero" fill-opacity="1" /><path clip-path="url(#clip630)" d="M118.545 596.412 L126.184 596.412 L126.184 570.046 L117.874 571.713 L117.874 567.454 L126.138 565.787 L130.814 565.787 L130.814 596.412 L138.453 596.412 L138.453 600.347 L118.545 600.347 L118.545 596.412 Z" fill="#000000" fill-rule="nonzero" fill-opacity="1" /><path clip-path="url(#clip630)" d="M147.897 594.467 L152.781 594.467 L152.781 600.347 L147.897 600.347 L147.897 594.467 Z" fill="#000000" fill-rule="nonzero" fill-opacity="1" /><path clip-path="url(#clip630)" d="M166.994 596.412 L183.314 596.412 L183.314 600.347 L161.369 600.347 L161.369 596.412 Q164.031 593.657 168.615 589.027 Q173.221 584.375 174.402 583.032 Q176.647 580.509 177.527 578.773 Q178.429 577.014 178.429 575.324 Q178.429 572.569 176.485 570.833 Q174.564 569.097 171.462 569.097 Q169.263 569.097 166.809 569.861 Q164.379 570.625 161.601 572.176 L161.601 567.454 Q164.425 566.319 166.879 565.741 Q169.332 565.162 171.369 565.162 Q176.74 565.162 179.934 567.847 Q183.128 570.532 183.128 575.023 Q183.128 577.153 182.318 579.074 Q181.531 580.972 179.425 583.565 Q178.846 584.236 175.744 587.453 Q172.642 590.648 166.994 596.412 Z" fill="#000000" fill-rule="nonzero" fill-opacity="1" /><path clip-path="url(#clip630)" d="M193.175 565.787 L211.531 565.787 L211.531 569.722 L197.457 569.722 L197.457 578.194 Q198.476 577.847 199.494 577.685 Q200.513 577.5 201.531 577.5 Q207.318 577.5 210.698 580.671 Q214.077 583.842 214.077 589.259 Q214.077 594.838 210.605 597.939 Q207.133 601.018 200.814 601.018 Q198.638 601.018 196.369 600.648 Q194.124 600.277 191.716 599.537 L191.716 594.838 Q193.8 595.972 196.022 596.527 Q198.244 597.083 200.721 597.083 Q204.726 597.083 207.063 594.977 Q209.401 592.87 209.401 589.259 Q209.401 585.648 207.063 583.541 Q204.726 581.435 200.721 581.435 Q198.846 581.435 196.971 581.852 Q195.119 582.268 193.175 583.148 L193.175 565.787 Z" fill="#000000" fill-rule="nonzero" fill-opacity="1" /><path clip-path="url(#clip630)" d="M233.29 568.866 Q229.679 568.866 227.85 572.43 Q226.045 575.972 226.045 583.102 Q226.045 590.208 227.85 593.773 Q229.679 597.314 233.29 597.314 Q236.924 597.314 238.73 593.773 Q240.559 590.208 240.559 583.102 Q240.559 575.972 238.73 572.43 Q236.924 568.866 233.29 568.866 M233.29 565.162 Q239.1 565.162 242.156 569.768 Q245.235 574.352 245.235 583.102 Q245.235 591.828 242.156 596.435 Q239.1 601.018 233.29 601.018 Q227.48 601.018 224.401 596.435 Q221.346 591.828 221.346 583.102 Q221.346 574.352 224.401 569.768 Q227.48 565.162 233.29 565.162 Z" fill="#000000" fill-rule="nonzero" fill-opacity="1" /><path clip-path="url(#clip630)" d="M281.623 574.884 L271.045 585.509 L281.623 596.088 L278.869 598.889 L268.244 588.264 L257.619 598.889 L254.887 596.088 L265.443 585.509 L254.887 574.884 L257.619 572.083 L268.244 582.708 L278.869 572.083 L281.623 574.884 Z" fill="#000000" fill-rule="nonzero" fill-opacity="1" /><path clip-path="url(#clip630)" d="M293.984 596.412 L301.623 596.412 L301.623 570.046 L293.313 571.713 L293.313 567.454 L301.577 565.787 L306.253 565.787 L306.253 596.412 L313.892 596.412 L313.892 600.347 L293.984 600.347 L293.984 596.412 Z" fill="#000000" fill-rule="nonzero" fill-opacity="1" /><path clip-path="url(#clip630)" d="M333.336 568.866 Q329.725 568.866 327.896 572.43 Q326.091 575.972 326.091 583.102 Q326.091 590.208 327.896 593.773 Q329.725 597.314 333.336 597.314 Q336.97 597.314 338.776 593.773 Q340.604 590.208 340.604 583.102 Q340.604 575.972 338.776 572.43 Q336.97 568.866 333.336 568.866 M333.336 565.162 Q339.146 565.162 342.202 569.768 Q345.28 574.352 345.28 583.102 Q345.28 591.828 342.202 596.435 Q339.146 601.018 333.336 601.018 Q327.526 601.018 324.447 596.435 Q321.392 591.828 321.392 583.102 Q321.392 574.352 324.447 569.768 Q327.526 565.162 333.336 565.162 Z" fill="#000000" fill-rule="nonzero" fill-opacity="1" /><path clip-path="url(#clip630)" d="M346.465 544.856 L361.38 544.856 L361.38 548.054 L349.945 548.054 L349.945 554.937 Q350.772 554.655 351.6 554.524 Q352.427 554.373 353.255 554.373 Q357.957 554.373 360.703 556.95 Q363.449 559.527 363.449 563.928 Q363.449 568.46 360.627 570.98 Q357.806 573.482 352.672 573.482 Q350.904 573.482 349.061 573.181 Q347.236 572.88 345.28 572.278 L345.28 568.46 Q346.973 569.382 348.779 569.833 Q350.584 570.285 352.597 570.285 Q355.85 570.285 357.75 568.573 Q359.649 566.862 359.649 563.928 Q359.649 560.994 357.75 559.282 Q355.85 557.571 352.597 557.571 Q351.073 557.571 349.55 557.909 Q348.045 558.248 346.465 558.962 L346.465 544.856 Z" fill="#000000" fill-rule="nonzero" fill-opacity="1" /><path clip-path="url(#clip630)" d="M118.545 281.662 L126.184 281.662 L126.184 255.296 L117.874 256.963 L117.874 252.704 L126.138 251.037 L130.814 251.037 L130.814 281.662 L138.453 281.662 L138.453 285.597 L118.545 285.597 L118.545 281.662 Z" fill="#000000" fill-rule="nonzero" fill-opacity="1" /><path clip-path="url(#clip630)" d="M147.897 279.718 L152.781 279.718 L152.781 285.597 L147.897 285.597 L147.897 279.718 Z" fill="#000000" fill-rule="nonzero" fill-opacity="1" /><path clip-path="url(#clip630)" d="M163.013 251.037 L181.369 251.037 L181.369 254.972 L167.295 254.972 L167.295 263.445 Q168.314 263.097 169.332 262.935 Q170.351 262.75 171.369 262.75 Q177.156 262.75 180.536 265.921 Q183.915 269.093 183.915 274.509 Q183.915 280.088 180.443 283.19 Q176.971 286.269 170.652 286.269 Q168.476 286.269 166.207 285.898 Q163.962 285.528 161.554 284.787 L161.554 280.088 Q163.638 281.222 165.86 281.778 Q168.082 282.333 170.559 282.333 Q174.564 282.333 176.902 280.227 Q179.24 278.12 179.24 274.509 Q179.24 270.898 176.902 268.792 Q174.564 266.685 170.559 266.685 Q168.684 266.685 166.809 267.102 Q164.957 267.519 163.013 268.398 L163.013 251.037 Z" fill="#000000" fill-rule="nonzero" fill-opacity="1" /><path clip-path="url(#clip630)" d="M203.128 254.116 Q199.517 254.116 197.689 257.681 Q195.883 261.222 195.883 268.352 Q195.883 275.458 197.689 279.023 Q199.517 282.565 203.128 282.565 Q206.763 282.565 208.568 279.023 Q210.397 275.458 210.397 268.352 Q210.397 261.222 208.568 257.681 Q206.763 254.116 203.128 254.116 M203.128 250.412 Q208.938 250.412 211.994 255.019 Q215.073 259.602 215.073 268.352 Q215.073 277.079 211.994 281.685 Q208.938 286.269 203.128 286.269 Q197.318 286.269 194.239 281.685 Q191.184 277.079 191.184 268.352 Q191.184 259.602 194.239 255.019 Q197.318 250.412 203.128 250.412 Z" fill="#000000" fill-rule="nonzero" fill-opacity="1" /><path clip-path="url(#clip630)" d="M233.29 254.116 Q229.679 254.116 227.85 257.681 Q226.045 261.222 226.045 268.352 Q226.045 275.458 227.85 279.023 Q229.679 282.565 233.29 282.565 Q236.924 282.565 238.73 279.023 Q240.559 275.458 240.559 268.352 Q240.559 261.222 238.73 257.681 Q236.924 254.116 233.29 254.116 M233.29 250.412 Q239.1 250.412 242.156 255.019 Q245.235 259.602 245.235 268.352 Q245.235 277.079 242.156 281.685 Q239.1 286.269 233.29 286.269 Q227.48 286.269 224.401 281.685 Q221.346 277.079 221.346 268.352 Q221.346 259.602 224.401 255.019 Q227.48 250.412 233.29 250.412 Z" fill="#000000" fill-rule="nonzero" fill-opacity="1" /><path clip-path="url(#clip630)" d="M281.623 260.134 L271.045 270.759 L281.623 281.338 L278.869 284.139 L268.244 273.514 L257.619 284.139 L254.887 281.338 L265.443 270.759 L254.887 260.134 L257.619 257.333 L268.244 267.958 L278.869 257.333 L281.623 260.134 Z" fill="#000000" fill-rule="nonzero" fill-opacity="1" /><path clip-path="url(#clip630)" d="M293.984 281.662 L301.623 281.662 L301.623 255.296 L293.313 256.963 L293.313 252.704 L301.577 251.037 L306.253 251.037 L306.253 281.662 L313.892 281.662 L313.892 285.597 L293.984 285.597 L293.984 281.662 Z" fill="#000000" fill-rule="nonzero" fill-opacity="1" /><path clip-path="url(#clip630)" d="M333.336 254.116 Q329.725 254.116 327.896 257.681 Q326.091 261.222 326.091 268.352 Q326.091 275.458 327.896 279.023 Q329.725 282.565 333.336 282.565 Q336.97 282.565 338.776 279.023 Q340.604 275.458 340.604 268.352 Q340.604 261.222 338.776 257.681 Q336.97 254.116 333.336 254.116 M333.336 250.412 Q339.146 250.412 342.202 255.019 Q345.28 259.602 345.28 268.352 Q345.28 277.079 342.202 281.685 Q339.146 286.269 333.336 286.269 Q327.526 286.269 324.447 281.685 Q321.392 277.079 321.392 268.352 Q321.392 259.602 324.447 255.019 Q327.526 250.412 333.336 250.412 Z" fill="#000000" fill-rule="nonzero" fill-opacity="1" /><path clip-path="url(#clip630)" d="M346.465 230.107 L361.38 230.107 L361.38 233.304 L349.945 233.304 L349.945 240.188 Q350.772 239.906 351.6 239.774 Q352.427 239.624 353.255 239.624 Q357.957 239.624 360.703 242.2 Q363.449 244.777 363.449 249.178 Q363.449 253.711 360.627 256.231 Q357.806 258.732 352.672 258.732 Q350.904 258.732 349.061 258.431 Q347.236 258.13 345.28 257.529 L345.28 253.711 Q346.973 254.632 348.779 255.084 Q350.584 255.535 352.597 255.535 Q355.85 255.535 357.75 253.823 Q359.649 252.112 359.649 249.178 Q359.649 246.244 357.75 244.532 Q355.85 242.821 352.597 242.821 Q351.073 242.821 349.55 243.159 Q348.045 243.498 346.465 244.213 L346.465 230.107 Z" fill="#000000" fill-rule="nonzero" fill-opacity="1" /><path clip-path="url(#clip630)" d="M21.7677 1084.27 L39.6235 1084.27 L39.6235 1076.19 Q39.6235 1071.7 37.3 1069.25 Q34.9765 1066.8 30.6797 1066.8 Q26.4147 1066.8 24.0912 1069.25 Q21.7677 1071.7 21.7677 1076.19 L21.7677 1084.27 M16.4842 1090.7 L16.4842 1076.19 Q16.4842 1068.2 20.1126 1064.13 Q23.7092 1060.02 30.6797 1060.02 Q37.7138 1060.02 41.3104 1064.13 Q44.907 1068.2 44.907 1076.19 L44.907 1084.27 L64.0042 1084.27 L64.0042 1090.7 L16.4842 1090.7 Z" fill="#000000" fill-rule="nonzero" fill-opacity="1" /><path clip-path="url(#clip630)" d="M32.4621 1040.16 Q32.4621 1044.87 36.1542 1047.61 Q39.8145 1050.35 46.212 1050.35 Q52.6095 1050.35 56.3017 1047.64 Q59.9619 1044.9 59.9619 1040.16 Q59.9619 1035.48 56.2698 1032.74 Q52.5777 1030.01 46.212 1030.01 Q39.8781 1030.01 36.186 1032.74 Q32.4621 1035.48 32.4621 1040.16 M27.4968 1040.16 Q27.4968 1032.52 32.4621 1028.16 Q37.4273 1023.8 46.212 1023.8 Q54.9649 1023.8 59.9619 1028.16 Q64.9272 1032.52 64.9272 1040.16 Q64.9272 1047.83 59.9619 1052.19 Q54.9649 1056.52 46.212 1056.52 Q37.4273 1056.52 32.4621 1052.19 Q27.4968 1047.83 27.4968 1040.16 Z" fill="#000000" fill-rule="nonzero" fill-opacity="1" /><path clip-path="url(#clip630)" d="M33.8307 993.436 Q33.2578 994.423 33.0032 995.601 Q32.7167 996.746 32.7167 998.147 Q32.7167 1003.11 35.9632 1005.79 Q39.1779 1008.43 45.2253 1008.43 L64.0042 1008.43 L64.0042 1014.32 L28.3562 1014.32 L28.3562 1008.43 L33.8944 1008.43 Q30.6479 1006.58 29.0883 1003.62 Q27.4968 1000.66 27.4968 996.428 Q27.4968 995.823 27.5923 995.091 Q27.656 994.359 27.8151 993.468 L33.8307 993.436 Z" fill="#000000" fill-rule="nonzero" fill-opacity="1" /><path clip-path="url(#clip630)" d="M18.2347 981.501 L28.3562 981.501 L28.3562 969.437 L32.9077 969.437 L32.9077 981.501 L52.2594 981.501 Q56.6199 981.501 57.8613 980.323 Q59.1026 979.113 59.1026 975.453 L59.1026 969.437 L64.0042 969.437 L64.0042 975.453 Q64.0042 982.233 61.4897 984.811 Q58.9434 987.389 52.2594 987.389 L32.9077 987.389 L32.9077 991.686 L28.3562 991.686 L28.3562 987.389 L18.2347 987.389 L18.2347 981.501 Z" fill="#000000" fill-rule="nonzero" fill-opacity="1" /><path clip-path="url(#clip630)" d="M14.479 943.688 L19.3487 943.688 L19.3487 949.29 Q19.3487 952.441 20.6219 953.682 Q21.895 954.892 25.2052 954.892 L28.3562 954.892 L28.3562 945.248 L32.9077 945.248 L32.9077 954.892 L64.0042 954.892 L64.0042 960.78 L32.9077 960.78 L32.9077 966.382 L28.3562 966.382 L28.3562 960.78 L25.8736 960.78 Q19.9216 960.78 17.2162 958.011 Q14.479 955.242 14.479 949.226 L14.479 943.688 Z" fill="#000000" fill-rule="nonzero" fill-opacity="1" /><path clip-path="url(#clip630)" d="M32.4621 924.973 Q32.4621 929.684 36.1542 932.421 Q39.8145 935.158 46.212 935.158 Q52.6095 935.158 56.3017 932.453 Q59.9619 929.715 59.9619 924.973 Q59.9619 920.294 56.2698 917.557 Q52.5777 914.82 46.212 914.82 Q39.8781 914.82 36.186 917.557 Q32.4621 920.294 32.4621 924.973 M27.4968 924.973 Q27.4968 917.334 32.4621 912.974 Q37.4273 908.613 46.212 908.613 Q54.9649 908.613 59.9619 912.974 Q64.9272 917.334 64.9272 924.973 Q64.9272 932.644 59.9619 937.004 Q54.9649 941.333 46.212 941.333 Q37.4273 941.333 32.4621 937.004 Q27.4968 932.644 27.4968 924.973 Z" fill="#000000" fill-rule="nonzero" fill-opacity="1" /><path clip-path="url(#clip630)" d="M14.479 898.905 L14.479 893.049 L64.0042 893.049 L64.0042 898.905 L14.479 898.905 Z" fill="#000000" fill-rule="nonzero" fill-opacity="1" /><path clip-path="url(#clip630)" d="M28.3562 880.795 L28.3562 874.939 L64.0042 874.939 L64.0042 880.795 L28.3562 880.795 M14.479 880.795 L14.479 874.939 L21.895 874.939 L21.895 880.795 L14.479 880.795 Z" fill="#000000" fill-rule="nonzero" fill-opacity="1" /><path clip-path="url(#clip630)" d="M32.4621 848.871 Q32.4621 853.582 36.1542 856.319 Q39.8145 859.056 46.212 859.056 Q52.6095 859.056 56.3017 856.351 Q59.9619 853.613 59.9619 848.871 Q59.9619 844.192 56.2698 841.455 Q52.5777 838.718 46.212 838.718 Q39.8781 838.718 36.186 841.455 Q32.4621 844.192 32.4621 848.871 M27.4968 848.871 Q27.4968 841.232 32.4621 836.872 Q37.4273 832.511 46.212 832.511 Q54.9649 832.511 59.9619 836.872 Q64.9272 841.232 64.9272 848.871 Q64.9272 856.542 59.9619 860.902 Q54.9649 865.231 46.212 865.231 Q37.4273 865.231 32.4621 860.902 Q27.4968 856.542 27.4968 848.871 Z" fill="#000000" fill-rule="nonzero" fill-opacity="1" /><path clip-path="url(#clip630)" d="M64.0042 789.574 L16.4842 807.717 L16.4842 801.001 L56.4926 785.946 L16.4842 770.859 L16.4842 764.175 L64.0042 782.286 L64.0042 789.574 Z" fill="#000000" fill-rule="nonzero" fill-opacity="1" /><path clip-path="url(#clip630)" d="M46.0847 746.351 Q46.0847 753.449 47.7079 756.186 Q49.3312 758.924 53.2461 758.924 Q56.3653 758.924 58.2114 756.887 Q60.0256 754.818 60.0256 751.285 Q60.0256 746.415 56.5881 743.487 Q53.1188 740.527 47.3897 740.527 L46.0847 740.527 L46.0847 746.351 M43.6657 734.67 L64.0042 734.67 L64.0042 740.527 L58.5933 740.527 Q61.8398 742.532 63.3994 745.524 Q64.9272 748.516 64.9272 752.844 Q64.9272 758.319 61.8716 761.565 Q58.7843 764.78 53.6281 764.78 Q47.6125 764.78 44.5569 760.77 Q41.5014 756.727 41.5014 748.738 L41.5014 740.527 L40.9285 740.527 Q36.8862 740.527 34.6901 743.2 Q32.4621 745.842 32.4621 750.648 Q32.4621 753.704 33.1941 756.6 Q33.9262 759.496 35.3903 762.17 L29.9795 762.17 Q28.7381 758.955 28.1334 755.932 Q27.4968 752.908 27.4968 750.043 Q27.4968 742.309 31.5072 738.49 Q35.5176 734.67 43.6657 734.67 Z" fill="#000000" fill-rule="nonzero" fill-opacity="1" /><path clip-path="url(#clip630)" d="M14.479 722.607 L14.479 716.751 L64.0042 716.751 L64.0042 722.607 L14.479 722.607 Z" fill="#000000" fill-rule="nonzero" fill-opacity="1" /><path clip-path="url(#clip630)" d="M49.9359 705.102 L28.3562 705.102 L28.3562 699.245 L49.7131 699.245 Q54.7739 699.245 57.3202 697.272 Q59.8346 695.298 59.8346 691.352 Q59.8346 686.609 56.8109 683.872 Q53.7872 681.103 48.5673 681.103 L28.3562 681.103 L28.3562 675.246 L64.0042 675.246 L64.0042 681.103 L58.5296 681.103 Q61.7762 683.235 63.3676 686.068 Q64.9272 688.869 64.9272 692.593 Q64.9272 698.736 61.1078 701.919 Q57.2883 705.102 49.9359 705.102 M27.4968 690.365 L27.4968 690.365 Z" fill="#000000" fill-rule="nonzero" fill-opacity="1" /><path clip-path="url(#clip630)" d="M44.7161 632.692 L47.5806 632.692 L47.5806 659.619 Q53.6281 659.237 56.8109 655.99 Q59.9619 652.712 59.9619 646.887 Q59.9619 643.513 59.1344 640.362 Q58.3069 637.179 56.6518 634.06 L62.1899 634.06 Q63.5267 637.211 64.227 640.521 Q64.9272 643.832 64.9272 647.237 Q64.9272 655.767 59.9619 660.764 Q54.9967 665.73 46.5303 665.73 Q37.7774 665.73 32.6531 661.019 Q27.4968 656.277 27.4968 648.256 Q27.4968 641.063 32.1438 636.893 Q36.7589 632.692 44.7161 632.692 M42.9973 638.548 Q38.1912 638.612 35.3266 641.253 Q32.4621 643.863 32.4621 648.192 Q32.4621 653.094 35.2312 656.054 Q38.0002 658.982 43.0292 659.428 L42.9973 638.548 Z" fill="#000000" fill-rule="nonzero" fill-opacity="1" /><path clip-path="url(#clip630)" d="M43.5384 605.319 L43.5384 588.163 L48.7583 588.163 L48.7583 605.319 L43.5384 605.319 Z" fill="#000000" fill-rule="nonzero" fill-opacity="1" /><path clip-path="url(#clip630)" d="M16.4842 558.595 L16.4842 552.134 L45.3526 552.134 Q52.9915 552.134 56.3653 549.365 Q59.7073 546.595 59.7073 540.389 Q59.7073 534.214 56.3653 531.445 Q52.9915 528.676 45.3526 528.676 L16.4842 528.676 L16.4842 522.215 L46.1484 522.215 Q55.4423 522.215 60.1847 526.83 Q64.9272 531.413 64.9272 540.389 Q64.9272 549.396 60.1847 554.011 Q55.4423 558.595 46.1484 558.595 L16.4842 558.595 Z" fill="#000000" fill-rule="nonzero" fill-opacity="1" /><path clip-path="url(#clip630)" d="M18.0438 481.665 L24.314 481.665 Q22.5634 485.326 21.704 488.572 Q20.8447 491.819 20.8447 494.842 Q20.8447 500.094 22.8817 502.959 Q24.9187 505.791 28.6745 505.791 Q31.8255 505.791 33.4488 503.913 Q35.0402 502.004 36.0269 496.72 L36.8226 492.837 Q38.1912 485.644 41.6605 482.238 Q45.098 478.801 50.8908 478.801 Q57.7976 478.801 61.3624 483.448 Q64.9272 488.063 64.9272 497.007 Q64.9272 500.38 64.1633 504.2 Q63.3994 507.987 61.9035 512.061 L55.2831 512.061 Q57.4793 508.147 58.5933 504.391 Q59.7073 500.635 59.7073 497.007 Q59.7073 491.5 57.543 488.508 Q55.3786 485.516 51.3682 485.516 Q47.8671 485.516 45.8937 487.681 Q43.9204 489.813 42.9337 494.715 L42.1698 498.63 Q40.7375 505.823 37.682 509.038 Q34.6264 512.252 29.1837 512.252 Q22.8817 512.252 19.2532 507.828 Q15.6248 503.372 15.6248 495.574 Q15.6248 492.232 16.2295 488.763 Q16.8343 485.294 18.0438 481.665 Z" fill="#000000" fill-rule="nonzero" fill-opacity="1" /><path clip-path="url(#clip630)" d="M21.7677 462.345 L58.7206 462.345 L58.7206 454.579 Q58.7206 444.744 54.2646 440.193 Q49.8086 435.609 40.1964 435.609 Q30.6479 435.609 26.2237 440.193 Q21.7677 444.744 21.7677 454.579 L21.7677 462.345 M16.4842 468.775 L16.4842 455.566 Q16.4842 441.752 22.2451 435.291 Q27.9743 428.83 40.1964 428.83 Q52.4822 428.83 58.2432 435.323 Q64.0042 441.816 64.0042 455.566 L64.0042 468.775 L16.4842 468.775 Z" fill="#000000" fill-rule="nonzero" fill-opacity="1" /><path clip-path="url(#clip630)" d="M531.874 18.8205 L531.874 41.5461 L542.163 41.5461 Q547.875 41.5461 550.994 38.5889 Q554.113 35.6318 554.113 30.163 Q554.113 24.7348 550.994 21.7777 Q547.875 18.8205 542.163 18.8205 L531.874 18.8205 M523.691 12.096 L542.163 12.096 Q552.331 12.096 557.516 16.714 Q562.741 21.2916 562.741 30.163 Q562.741 39.1155 557.516 43.6931 Q552.331 48.2706 542.163 48.2706 L531.874 48.2706 L531.874 72.576 L523.691 72.576 L523.691 12.096 Z" fill="#000000" fill-rule="nonzero" fill-opacity="1" /><path clip-path="url(#clip630)" d="M588.019 32.4315 Q582.024 32.4315 578.54 37.1306 Q575.056 41.7891 575.056 49.9314 Q575.056 58.0738 578.499 62.7728 Q581.983 67.4314 588.019 67.4314 Q593.974 67.4314 597.458 62.7323 Q600.941 58.0333 600.941 49.9314 Q600.941 41.8701 597.458 37.1711 Q593.974 32.4315 588.019 32.4315 M588.019 26.1121 Q597.741 26.1121 603.291 32.4315 Q608.841 38.7509 608.841 49.9314 Q608.841 61.0714 603.291 67.4314 Q597.741 73.7508 588.019 73.7508 Q578.256 73.7508 572.707 67.4314 Q567.197 61.0714 567.197 49.9314 Q567.197 38.7509 572.707 32.4315 Q578.256 26.1121 588.019 26.1121 Z" fill="#000000" fill-rule="nonzero" fill-opacity="1" /><path clip-path="url(#clip630)" d="M647.486 34.1734 Q646.231 33.4443 644.732 33.1202 Q643.273 32.7556 641.491 32.7556 Q635.172 32.7556 631.769 36.8875 Q628.407 40.9789 628.407 48.6757 L628.407 72.576 L620.912 72.576 L620.912 27.2059 L628.407 27.2059 L628.407 34.2544 Q630.756 30.1225 634.523 28.1376 Q638.291 26.1121 643.679 26.1121 Q644.448 26.1121 645.38 26.2337 Q646.312 26.3147 647.446 26.5172 L647.486 34.1734 Z" fill="#000000" fill-rule="nonzero" fill-opacity="1" /><path clip-path="url(#clip630)" d="M662.677 14.324 L662.677 27.2059 L678.03 27.2059 L678.03 32.9987 L662.677 32.9987 L662.677 57.6282 Q662.677 63.1779 664.176 64.7578 Q665.715 66.3376 670.374 66.3376 L678.03 66.3376 L678.03 72.576 L670.374 72.576 Q661.746 72.576 658.464 69.3758 Q655.183 66.1351 655.183 57.6282 L655.183 32.9987 L649.714 32.9987 L649.714 27.2059 L655.183 27.2059 L655.183 14.324 L662.677 14.324 Z" fill="#000000" fill-rule="nonzero" fill-opacity="1" /><path clip-path="url(#clip630)" d="M710.802 9.54393 L710.802 15.7418 L703.672 15.7418 Q699.662 15.7418 698.082 17.3622 Q696.543 18.9825 696.543 23.1955 L696.543 27.2059 L708.817 27.2059 L708.817 32.9987 L696.543 32.9987 L696.543 72.576 L689.049 72.576 L689.049 32.9987 L681.919 32.9987 L681.919 27.2059 L689.049 27.2059 L689.049 24.0462 Q689.049 16.471 692.573 13.0277 Q696.097 9.54393 703.753 9.54393 L710.802 9.54393 Z" fill="#000000" fill-rule="nonzero" fill-opacity="1" /><path clip-path="url(#clip630)" d="M734.621 32.4315 Q728.626 32.4315 725.142 37.1306 Q721.658 41.7891 721.658 49.9314 Q721.658 58.0738 725.102 62.7728 Q728.585 67.4314 734.621 67.4314 Q740.576 67.4314 744.06 62.7323 Q747.544 58.0333 747.544 49.9314 Q747.544 41.8701 744.06 37.1711 Q740.576 32.4315 734.621 32.4315 M734.621 26.1121 Q744.344 26.1121 749.893 32.4315 Q755.443 38.7509 755.443 49.9314 Q755.443 61.0714 749.893 67.4314 Q744.344 73.7508 734.621 73.7508 Q724.859 73.7508 719.309 67.4314 Q713.8 61.0714 713.8 49.9314 Q713.8 38.7509 719.309 32.4315 Q724.859 26.1121 734.621 26.1121 Z" fill="#000000" fill-rule="nonzero" fill-opacity="1" /><path clip-path="url(#clip630)" d="M767.798 9.54393 L775.252 9.54393 L775.252 72.576 L767.798 72.576 L767.798 9.54393 Z" fill="#000000" fill-rule="nonzero" fill-opacity="1" /><path clip-path="url(#clip630)" d="M790.848 27.2059 L798.302 27.2059 L798.302 72.576 L790.848 72.576 L790.848 27.2059 M790.848 9.54393 L798.302 9.54393 L798.302 18.9825 L790.848 18.9825 L790.848 9.54393 Z" fill="#000000" fill-rule="nonzero" fill-opacity="1" /><path clip-path="url(#clip630)" d="M831.478 32.4315 Q825.483 32.4315 821.999 37.1306 Q818.516 41.7891 818.516 49.9314 Q818.516 58.0738 821.959 62.7728 Q825.443 67.4314 831.478 67.4314 Q837.433 67.4314 840.917 62.7323 Q844.401 58.0333 844.401 49.9314 Q844.401 41.8701 840.917 37.1711 Q837.433 32.4315 831.478 32.4315 M831.478 26.1121 Q841.201 26.1121 846.75 32.4315 Q852.3 38.7509 852.3 49.9314 Q852.3 61.0714 846.75 67.4314 Q841.201 73.7508 831.478 73.7508 Q821.716 73.7508 816.166 67.4314 Q810.657 61.0714 810.657 49.9314 Q810.657 38.7509 816.166 32.4315 Q821.716 26.1121 831.478 26.1121 Z" fill="#000000" fill-rule="nonzero" fill-opacity="1" /><path clip-path="url(#clip630)" d="M906.947 72.576 L883.857 12.096 L892.404 12.096 L911.565 63.0159 L930.766 12.096 L939.273 12.096 L916.223 72.576 L906.947 72.576 Z" fill="#000000" fill-rule="nonzero" fill-opacity="1" /><path clip-path="url(#clip630)" d="M961.958 49.7694 Q952.925 49.7694 949.441 51.8354 Q945.957 53.9013 945.957 58.8839 Q945.957 62.8538 948.55 65.2034 Q951.183 67.5124 955.679 67.5124 Q961.877 67.5124 965.604 63.1374 Q969.371 58.7219 969.371 51.4303 L969.371 49.7694 L961.958 49.7694 M976.825 46.6907 L976.825 72.576 L969.371 72.576 L969.371 65.6895 Q966.819 69.8214 963.011 71.8063 Q959.203 73.7508 953.694 73.7508 Q946.727 73.7508 942.595 69.8619 Q938.503 65.9325 938.503 59.3701 Q938.503 51.7138 943.607 47.825 Q948.752 43.9361 958.92 43.9361 L969.371 43.9361 L969.371 43.2069 Q969.371 38.0623 965.968 35.2672 Q962.606 32.4315 956.489 32.4315 Q952.6 32.4315 948.914 33.3632 Q945.228 34.295 941.825 36.1584 L941.825 29.2718 Q945.916 27.692 949.765 26.9223 Q953.613 26.1121 957.259 26.1121 Q967.103 26.1121 971.964 31.2163 Q976.825 36.3204 976.825 46.6907 Z" fill="#000000" fill-rule="nonzero" fill-opacity="1" /><path clip-path="url(#clip630)" d="M992.178 9.54393 L999.631 9.54393 L999.631 72.576 L992.178 72.576 L992.178 9.54393 Z" fill="#000000" fill-rule="nonzero" fill-opacity="1" /><path clip-path="url(#clip630)" d="M1014.46 54.671 L1014.46 27.2059 L1021.91 27.2059 L1021.91 54.3874 Q1021.91 60.8284 1024.42 64.0691 Q1026.93 67.2693 1031.96 67.2693 Q1037.99 67.2693 1041.48 63.421 Q1045 59.5726 1045 52.9291 L1045 27.2059 L1052.46 27.2059 L1052.46 72.576 L1045 72.576 L1045 65.6084 Q1042.29 69.7404 1038.68 71.7658 Q1035.12 73.7508 1030.38 73.7508 Q1022.56 73.7508 1018.51 68.8897 Q1014.46 64.0286 1014.46 54.671 M1033.21 26.1121 L1033.21 26.1121 Z" fill="#000000" fill-rule="nonzero" fill-opacity="1" /><path clip-path="url(#clip630)" d="M1106.62 48.0275 L1106.62 51.6733 L1072.35 51.6733 Q1072.83 59.3701 1076.96 63.421 Q1081.14 67.4314 1088.55 67.4314 Q1092.84 67.4314 1096.85 66.3781 Q1100.9 65.3249 1104.87 63.2184 L1104.87 70.267 Q1100.86 71.9684 1096.65 72.8596 Q1092.44 73.7508 1088.1 73.7508 Q1077.25 73.7508 1070.89 67.4314 Q1064.57 61.1119 1064.57 50.3365 Q1064.57 39.1965 1070.56 32.6746 Q1076.6 26.1121 1086.81 26.1121 Q1095.96 26.1121 1101.27 32.0264 Q1106.62 37.9003 1106.62 48.0275 M1099.16 45.84 Q1099.08 39.7232 1095.72 36.0774 Q1092.4 32.4315 1086.89 32.4315 Q1080.65 32.4315 1076.88 35.9558 Q1073.16 39.4801 1072.59 45.8805 L1099.16 45.84 Z" fill="#000000" fill-rule="nonzero" fill-opacity="1" /><path clip-path="url(#clip630)" d="M1120.75 62.2867 L1129.3 62.2867 L1129.3 72.576 L1120.75 72.576 L1120.75 62.2867 M1120.75 29.6769 L1129.3 29.6769 L1129.3 39.9662 L1120.75 39.9662 L1120.75 29.6769 Z" fill="#000000" fill-rule="nonzero" fill-opacity="1" /><path clip-path="url(#clip630)" d="M1173.5 12.096 L1185.69 12.096 L1201.12 53.2532 L1216.64 12.096 L1228.83 12.096 L1228.83 72.576 L1220.85 72.576 L1220.85 19.4686 L1205.26 60.9499 L1197.03 60.9499 L1181.44 19.4686 L1181.44 72.576 L1173.5 72.576 L1173.5 12.096 Z" fill="#000000" fill-rule="nonzero" fill-opacity="1" /><path clip-path="url(#clip630)" d="M1260.67 72.576 L1237.58 12.096 L1246.13 12.096 L1265.29 63.0159 L1284.49 12.096 L1293 12.096 L1269.95 72.576 L1260.67 72.576 Z" fill="#000000" fill-rule="nonzero" fill-opacity="1" /><path clip-path="url(#clip630)" d="M1292.88 46.5287 L1314.71 46.5287 L1314.71 53.1722 L1292.88 53.1722 L1292.88 46.5287 Z" fill="#000000" fill-rule="nonzero" fill-opacity="1" /><path clip-path="url(#clip630)" d="M1326.9 12.096 L1339.1 12.096 L1354.53 53.2532 L1370.05 12.096 L1382.24 12.096 L1382.24 72.576 L1374.26 72.576 L1374.26 19.4686 L1358.66 60.9499 L1350.44 60.9499 L1334.84 19.4686 L1334.84 72.576 L1326.9 72.576 L1326.9 12.096 Z" fill="#000000" fill-rule="nonzero" fill-opacity="1" /><path clip-path="url(#clip630)" d="M1406.67 18.8205 L1406.67 41.5461 L1416.96 41.5461 Q1422.67 41.5461 1425.79 38.5889 Q1428.91 35.6318 1428.91 30.163 Q1428.91 24.7348 1425.79 21.7777 Q1422.67 18.8205 1416.96 18.8205 L1406.67 18.8205 M1398.48 12.096 L1416.96 12.096 Q1427.12 12.096 1432.31 16.714 Q1437.53 21.2916 1437.53 30.163 Q1437.53 39.1155 1432.31 43.6931 Q1427.12 48.2706 1416.96 48.2706 L1406.67 48.2706 L1406.67 72.576 L1398.48 72.576 L1398.48 12.096 Z" fill="#000000" fill-rule="nonzero" fill-opacity="1" /><path clip-path="url(#clip630)" d="M1493.8 16.7545 L1493.8 25.383 Q1489.67 21.5346 1484.97 19.6307 Q1480.31 17.7268 1475.05 17.7268 Q1464.68 17.7268 1459.17 24.0867 Q1453.66 30.4061 1453.66 42.3968 Q1453.66 54.3469 1459.17 60.7069 Q1464.68 67.0263 1475.05 67.0263 Q1480.31 67.0263 1484.97 65.1223 Q1489.67 63.2184 1493.8 59.3701 L1493.8 67.9175 Q1489.51 70.8341 1484.69 72.2924 Q1479.91 73.7508 1474.56 73.7508 Q1460.83 73.7508 1452.93 65.3654 Q1445.03 56.9395 1445.03 42.3968 Q1445.03 27.8135 1452.93 19.4281 Q1460.83 11.0023 1474.56 11.0023 Q1479.99 11.0023 1484.77 12.4606 Q1489.59 13.8784 1493.8 16.7545 Z" fill="#000000" fill-rule="nonzero" fill-opacity="1" /><path clip-path="url(#clip630)" d="M1531.72 54.671 L1531.72 27.2059 L1539.17 27.2059 L1539.17 54.3874 Q1539.17 60.8284 1541.68 64.0691 Q1544.19 67.2693 1549.22 67.2693 Q1555.25 67.2693 1558.74 63.421 Q1562.26 59.5726 1562.26 52.9291 L1562.26 27.2059 L1569.72 27.2059 L1569.72 72.576 L1562.26 72.576 L1562.26 65.6084 Q1559.55 69.7404 1555.94 71.7658 Q1552.38 73.7508 1547.64 73.7508 Q1539.82 73.7508 1535.77 68.8897 Q1531.72 64.0286 1531.72 54.671 M1550.47 26.1121 L1550.47 26.1121 Z" fill="#000000" fill-rule="nonzero" fill-opacity="1" /><path clip-path="url(#clip630)" d="M1613.99 28.5427 L1613.99 35.5912 Q1610.83 33.9709 1607.43 33.1607 Q1604.03 32.3505 1600.38 32.3505 Q1594.83 32.3505 1592.04 34.0519 Q1589.28 35.7533 1589.28 39.156 Q1589.28 41.7486 1591.27 43.2475 Q1593.25 44.7058 1599.25 46.0426 L1601.8 46.6097 Q1609.74 48.3111 1613.06 51.4303 Q1616.42 54.509 1616.42 60.0587 Q1616.42 66.3781 1611.4 70.0644 Q1606.42 73.7508 1597.67 73.7508 Q1594.02 73.7508 1590.05 73.0216 Q1586.12 72.3329 1581.75 70.9151 L1581.75 63.2184 Q1585.88 65.3654 1589.89 66.4591 Q1593.9 67.5124 1597.83 67.5124 Q1603.09 67.5124 1605.93 65.73 Q1608.77 63.9071 1608.77 60.6258 Q1608.77 57.5877 1606.7 55.9673 Q1604.67 54.3469 1597.75 52.8481 L1595.15 52.2405 Q1588.23 50.7821 1585.15 47.7845 Q1582.07 44.7463 1582.07 39.4801 Q1582.07 33.0797 1586.61 29.5959 Q1591.14 26.1121 1599.49 26.1121 Q1603.62 26.1121 1607.27 26.7198 Q1610.91 27.3274 1613.99 28.5427 Z" fill="#000000" fill-rule="nonzero" fill-opacity="1" /><path clip-path="url(#clip630)" d="M1628.29 27.2059 L1635.74 27.2059 L1635.74 72.576 L1628.29 72.576 L1628.29 27.2059 M1628.29 9.54393 L1635.74 9.54393 L1635.74 18.9825 L1628.29 18.9825 L1628.29 9.54393 Z" fill="#000000" fill-rule="nonzero" fill-opacity="1" /><path clip-path="url(#clip630)" d="M1689.05 45.1919 L1689.05 72.576 L1681.6 72.576 L1681.6 45.4349 Q1681.6 38.994 1679.09 35.7938 Q1676.58 32.5936 1671.55 32.5936 Q1665.52 32.5936 1662.04 36.4419 Q1658.55 40.2903 1658.55 46.9338 L1658.55 72.576 L1651.06 72.576 L1651.06 27.2059 L1658.55 27.2059 L1658.55 34.2544 Q1661.23 30.163 1664.83 28.1376 Q1668.48 26.1121 1673.22 26.1121 Q1681.03 26.1121 1685.04 30.9732 Q1689.05 35.7938 1689.05 45.1919 Z" fill="#000000" fill-rule="nonzero" fill-opacity="1" /><path clip-path="url(#clip630)" d="M1733.78 49.3643 Q1733.78 41.2625 1730.41 36.8065 Q1727.09 32.3505 1721.06 32.3505 Q1715.06 32.3505 1711.7 36.8065 Q1708.38 41.2625 1708.38 49.3643 Q1708.38 57.4256 1711.7 61.8816 Q1715.06 66.3376 1721.06 66.3376 Q1727.09 66.3376 1730.41 61.8816 Q1733.78 57.4256 1733.78 49.3643 M1741.23 66.9452 Q1741.23 78.5308 1736.09 84.1616 Q1730.94 89.8329 1720.33 89.8329 Q1716.4 89.8329 1712.91 89.2252 Q1709.43 88.6581 1706.15 87.4428 L1706.15 80.1917 Q1709.43 81.9741 1712.63 82.8248 Q1715.83 83.6755 1719.15 83.6755 Q1726.49 83.6755 1730.13 79.8271 Q1733.78 76.0193 1733.78 68.282 L1733.78 64.5957 Q1731.47 68.6061 1727.86 70.5911 Q1724.26 72.576 1719.23 72.576 Q1710.89 72.576 1705.79 66.2161 Q1700.68 59.8562 1700.68 49.3643 Q1700.68 38.832 1705.79 32.472 Q1710.89 26.1121 1719.23 26.1121 Q1724.26 26.1121 1727.86 28.0971 Q1731.47 30.082 1733.78 34.0924 L1733.78 27.2059 L1741.23 27.2059 L1741.23 66.9452 Z" fill="#000000" fill-rule="nonzero" fill-opacity="1" /><path clip-path="url(#clip630)" d="M1783.28 12.096 L1791.46 12.096 L1791.46 65.6895 L1820.91 65.6895 L1820.91 72.576 L1783.28 72.576 L1783.28 12.096 Z" fill="#000000" fill-rule="nonzero" fill-opacity="1" /><path clip-path="url(#clip630)" d="M1849.79 49.7694 Q1840.76 49.7694 1837.28 51.8354 Q1833.79 53.9013 1833.79 58.8839 Q1833.79 62.8538 1836.39 65.2034 Q1839.02 67.5124 1843.52 67.5124 Q1849.71 67.5124 1853.44 63.1374 Q1857.21 58.7219 1857.21 51.4303 L1857.21 49.7694 L1849.79 49.7694 M1864.66 46.6907 L1864.66 72.576 L1857.21 72.576 L1857.21 65.6895 Q1854.66 69.8214 1850.85 71.8063 Q1847.04 73.7508 1841.53 73.7508 Q1834.56 73.7508 1830.43 69.8619 Q1826.34 65.9325 1826.34 59.3701 Q1826.34 51.7138 1831.44 47.825 Q1836.59 43.9361 1846.76 43.9361 L1857.21 43.9361 L1857.21 43.2069 Q1857.21 38.0623 1853.81 35.2672 Q1850.44 32.4315 1844.33 32.4315 Q1840.44 32.4315 1836.75 33.3632 Q1833.06 34.295 1829.66 36.1584 L1829.66 29.2718 Q1833.75 27.692 1837.6 26.9223 Q1841.45 26.1121 1845.1 26.1121 Q1854.94 26.1121 1859.8 31.2163 Q1864.66 36.3204 1864.66 46.6907 Z" fill="#000000" fill-rule="nonzero" fill-opacity="1" /><path clip-path="url(#clip630)" d="M1908.94 28.5427 L1908.94 35.5912 Q1905.78 33.9709 1902.38 33.1607 Q1898.97 32.3505 1895.33 32.3505 Q1889.78 32.3505 1886.98 34.0519 Q1884.23 35.7533 1884.23 39.156 Q1884.23 41.7486 1886.21 43.2475 Q1888.2 44.7058 1894.19 46.0426 L1896.74 46.6097 Q1904.68 48.3111 1908.01 51.4303 Q1911.37 54.509 1911.37 60.0587 Q1911.37 66.3781 1906.35 70.0644 Q1901.36 73.7508 1892.61 73.7508 Q1888.97 73.7508 1885 73.0216 Q1881.07 72.3329 1876.69 70.9151 L1876.69 63.2184 Q1880.82 65.3654 1884.84 66.4591 Q1888.85 67.5124 1892.77 67.5124 Q1898.04 67.5124 1900.88 65.73 Q1903.71 63.9071 1903.71 60.6258 Q1903.71 57.5877 1901.65 55.9673 Q1899.62 54.3469 1892.69 52.8481 L1890.1 52.2405 Q1883.17 50.7821 1880.1 47.7845 Q1877.02 44.7463 1877.02 39.4801 Q1877.02 33.0797 1881.55 29.5959 Q1886.09 26.1121 1894.44 26.1121 Q1898.57 26.1121 1902.21 26.7198 Q1905.86 27.3274 1908.94 28.5427 Z" fill="#000000" fill-rule="nonzero" fill-opacity="1" /><path clip-path="url(#clip630)" d="M1930.61 14.324 L1930.61 27.2059 L1945.96 27.2059 L1945.96 32.9987 L1930.61 32.9987 L1930.61 57.6282 Q1930.61 63.1779 1932.11 64.7578 Q1933.65 66.3376 1938.31 66.3376 L1945.96 66.3376 L1945.96 72.576 L1938.31 72.576 Q1929.68 72.576 1926.4 69.3758 Q1923.12 66.1351 1923.12 57.6282 L1923.12 32.9987 L1917.65 32.9987 L1917.65 27.2059 L1923.12 27.2059 L1923.12 14.324 L1930.61 14.324 Z" fill="#000000" fill-rule="nonzero" fill-opacity="1" /><path clip-path="url(#clip630)" d="M1998.06 72.576 L1974.97 12.096 L1983.52 12.096 L2002.68 63.0159 L2021.88 12.096 L2030.38 12.096 L2007.33 72.576 L1998.06 72.576 Z" fill="#000000" fill-rule="nonzero" fill-opacity="1" /><path clip-path="url(#clip630)" d="M2053.07 49.7694 Q2044.04 49.7694 2040.55 51.8354 Q2037.07 53.9013 2037.07 58.8839 Q2037.07 62.8538 2039.66 65.2034 Q2042.29 67.5124 2046.79 67.5124 Q2052.99 67.5124 2056.71 63.1374 Q2060.48 58.7219 2060.48 51.4303 L2060.48 49.7694 L2053.07 49.7694 M2067.94 46.6907 L2067.94 72.576 L2060.48 72.576 L2060.48 65.6895 Q2057.93 69.8214 2054.12 71.8063 Q2050.31 73.7508 2044.81 73.7508 Q2037.84 73.7508 2033.71 69.8619 Q2029.61 65.9325 2029.61 59.3701 Q2029.61 51.7138 2034.72 47.825 Q2039.86 43.9361 2050.03 43.9361 L2060.48 43.9361 L2060.48 43.2069 Q2060.48 38.0623 2057.08 35.2672 Q2053.72 32.4315 2047.6 32.4315 Q2043.71 32.4315 2040.03 33.3632 Q2036.34 34.295 2032.94 36.1584 L2032.94 29.2718 Q2037.03 27.692 2040.88 26.9223 Q2044.72 26.1121 2048.37 26.1121 Q2058.21 26.1121 2063.07 31.2163 Q2067.94 36.3204 2067.94 46.6907 Z" fill="#000000" fill-rule="nonzero" fill-opacity="1" /><path clip-path="url(#clip630)" d="M2083.29 9.54393 L2090.74 9.54393 L2090.74 72.576 L2083.29 72.576 L2083.29 9.54393 Z" fill="#000000" fill-rule="nonzero" fill-opacity="1" /><path clip-path="url(#clip630)" d="M2105.57 54.671 L2105.57 27.2059 L2113.02 27.2059 L2113.02 54.3874 Q2113.02 60.8284 2115.53 64.0691 Q2118.05 67.2693 2123.07 67.2693 Q2129.1 67.2693 2132.59 63.421 Q2136.11 59.5726 2136.11 52.9291 L2136.11 27.2059 L2143.57 27.2059 L2143.57 72.576 L2136.11 72.576 L2136.11 65.6084 Q2133.4 69.7404 2129.79 71.7658 Q2126.23 73.7508 2121.49 73.7508 Q2113.67 73.7508 2109.62 68.8897 Q2105.57 64.0286 2105.57 54.671 M2124.32 26.1121 L2124.32 26.1121 Z" fill="#000000" fill-rule="nonzero" fill-opacity="1" /><path clip-path="url(#clip630)" d="M2197.73 48.0275 L2197.73 51.6733 L2163.46 51.6733 Q2163.94 59.3701 2168.07 63.421 Q2172.25 67.4314 2179.66 67.4314 Q2183.95 67.4314 2187.96 66.3781 Q2192.02 65.3249 2195.99 63.2184 L2195.99 70.267 Q2191.97 71.9684 2187.76 72.8596 Q2183.55 73.7508 2179.21 73.7508 Q2168.36 73.7508 2162 67.4314 Q2155.68 61.1119 2155.68 50.3365 Q2155.68 39.1965 2161.67 32.6746 Q2167.71 26.1121 2177.92 26.1121 Q2187.07 26.1121 2192.38 32.0264 Q2197.73 37.9003 2197.73 48.0275 M2190.27 45.84 Q2190.19 39.7232 2186.83 36.0774 Q2183.51 32.4315 2178 32.4315 Q2171.76 32.4315 2167.99 35.9558 Q2164.27 39.4801 2163.7 45.8805 L2190.27 45.84 Z" fill="#000000" fill-rule="nonzero" fill-opacity="1" /><polyline clip-path="url(#clip632)" style="stroke:#009af9; stroke-linecap:round; stroke-linejoin:round; stroke-width:12; stroke-opacity:1; fill:none" points="454.731,891.369 467.712,921.95 480.693,896.231 493.674,876.484 506.654,833.394 545.597,813.272 558.578,793.591 571.559,793.591 584.54,812.814 597.52,939.337 649.444,812.214 662.425,822.815 675.406,749.378 688.387,569.691 727.329,160.256 740.31,180.794 753.291,233.567 766.272,519.751 779.253,315.884 818.195,264.567 831.176,672.561 844.157,607.474 857.138,705.283 870.119,712.82 909.061,687.533 922.042,645.701 935.023,850.187 948.004,1022.74 960.985,1027.03 1012.91,1043.6 1025.89,1097.45 1038.87,1115.99 1051.85,1106.7 1090.79,1098.14 1103.77,1063.24 1116.76,1036.34 1129.74,1098.4 1142.72,1109.63 1181.66,1046.9 1194.64,1096.75 1207.62,1136.81 1220.6,1183.19 1233.58,1186.06 1272.53,1178.05 1285.51,1178.05 1298.49,1253.35 1311.47,1256.92 1324.45,1209.73 1362.85,1055.02 1375.83,1133.07 1388.81,1091.04 1401.79,1035.78 1414.77,1033.66 1453.72,1126.3 1466.7,1223.55 1479.68,1256.76 1492.66,1249.48 1505.64,1245.21 1544.58,1259.74 1557.56,1255.63 1570.54,1303.66 1583.53,1310.61 1635.45,1286.67 1648.43,1305.25 1661.41,1358.93 1674.39,1340.67 1687.37,1340.43 1726.32,1371.23 1739.3,1344.31 1752.28,1386.4 1765.26,1356.34 1778.24,1339.5 1817.18,1363.73 1830.16,1384.23 1843.14,1364.38 1856.12,1384.95 1869.1,1362.69 1908.05,1357.54 1921.03,1353.74 1934.01,1371.38 1946.99,1351.73 1959.97,1368.46 1998.91,1343.15 2011.89,1343.15 2024.88,1364.59 2037.86,1294.02 2050.84,1314.73 2089.78,1308.38 2102.76,1306.02 2115.74,1305.45 2128.72,1313.94 2141.7,1308.11 2180.65,1308.11 2193.63,1308.11 2206.61,1341.6 2219.59,1329.72 2232.57,1329.72 2271.51,1369.84 2284.49,1363.74 2297.47,1309.88 "/>
<path clip-path="url(#clip630)" d="M1966.76 270.476 L2287.65 270.476 L2287.65 166.796 L1966.76 166.796  Z" fill="#ffffff" fill-rule="evenodd" fill-opacity="1"/>
<polyline clip-path="url(#clip630)" style="stroke:#000000; stroke-linecap:round; stroke-linejoin:round; stroke-width:4; stroke-opacity:1; fill:none" points="1966.76,270.476 2287.65,270.476 2287.65,166.796 1966.76,166.796 1966.76,270.476 "/>
<polyline clip-path="url(#clip630)" style="stroke:#009af9; stroke-linecap:round; stroke-linejoin:round; stroke-width:12; stroke-opacity:1; fill:none" points="1988.46,218.636 2118.68,218.636 "/>
<path clip-path="url(#clip630)" d="M2140.39 209.99 L2144.9 209.99 L2153 231.749 L2161.1 209.99 L2165.62 209.99 L2155.9 235.916 L2150.11 235.916 L2140.39 209.99 Z" fill="#000000" fill-rule="nonzero" fill-opacity="1" /><path clip-path="url(#clip630)" d="M2183.28 222.883 Q2178.12 222.883 2176.13 224.064 Q2174.14 225.244 2174.14 228.092 Q2174.14 230.36 2175.62 231.703 Q2177.12 233.022 2179.69 233.022 Q2183.23 233.022 2185.36 230.522 Q2187.52 227.999 2187.52 223.832 L2187.52 222.883 L2183.28 222.883 M2191.78 221.124 L2191.78 235.916 L2187.52 235.916 L2187.52 231.981 Q2186.06 234.342 2183.88 235.476 Q2181.71 236.587 2178.56 236.587 Q2174.58 236.587 2172.22 234.365 Q2169.88 232.119 2169.88 228.369 Q2169.88 223.994 2172.79 221.772 Q2175.73 219.55 2181.54 219.55 L2187.52 219.55 L2187.52 219.133 Q2187.52 216.194 2185.57 214.596 Q2183.65 212.976 2180.16 212.976 Q2177.93 212.976 2175.83 213.508 Q2173.72 214.041 2171.78 215.106 L2171.78 211.17 Q2174.11 210.268 2176.31 209.828 Q2178.51 209.365 2180.6 209.365 Q2186.22 209.365 2189 212.282 Q2191.78 215.198 2191.78 221.124 Z" fill="#000000" fill-rule="nonzero" fill-opacity="1" /><path clip-path="url(#clip630)" d="M2200.55 199.897 L2204.81 199.897 L2204.81 235.916 L2200.55 235.916 L2200.55 199.897 Z" fill="#000000" fill-rule="nonzero" fill-opacity="1" /><path clip-path="url(#clip630)" d="M2213.28 225.684 L2213.28 209.99 L2217.54 209.99 L2217.54 225.522 Q2217.54 229.203 2218.97 231.055 Q2220.41 232.883 2223.28 232.883 Q2226.73 232.883 2228.72 230.684 Q2230.73 228.485 2230.73 224.689 L2230.73 209.99 L2234.99 209.99 L2234.99 235.916 L2230.73 235.916 L2230.73 231.934 Q2229.18 234.295 2227.12 235.453 Q2225.09 236.587 2222.38 236.587 Q2217.91 236.587 2215.6 233.809 Q2213.28 231.031 2213.28 225.684 M2224 209.365 L2224 209.365 Z" fill="#000000" fill-rule="nonzero" fill-opacity="1" /><path clip-path="url(#clip630)" d="M2265.94 221.888 L2265.94 223.971 L2246.36 223.971 Q2246.64 228.369 2249 230.684 Q2251.38 232.976 2255.62 232.976 Q2258.07 232.976 2260.36 232.374 Q2262.68 231.772 2264.95 230.569 L2264.95 234.596 Q2262.66 235.568 2260.25 236.078 Q2257.84 236.587 2255.36 236.587 Q2249.16 236.587 2245.53 232.976 Q2241.91 229.365 2241.91 223.207 Q2241.91 216.842 2245.34 213.115 Q2248.79 209.365 2254.62 209.365 Q2259.85 209.365 2262.89 212.745 Q2265.94 216.101 2265.94 221.888 M2261.68 220.638 Q2261.64 217.143 2259.72 215.059 Q2257.82 212.976 2254.67 212.976 Q2251.1 212.976 2248.95 214.99 Q2246.82 217.004 2246.5 220.661 L2261.68 220.638 Z" fill="#000000" fill-rule="nonzero" fill-opacity="1" /></svg>
