<?xml version="1.0" encoding="utf-8"?>
<svg xmlns="http://www.w3.org/2000/svg" xmlns:xlink="http://www.w3.org/1999/xlink" width="600" height="400" viewBox="0 0 2400 1600">
<defs>
  <clipPath id="clip790">
    <rect x="0" y="0" width="2400" height="1600"/>
  </clipPath>
</defs>
<path clip-path="url(#clip790)" d="M0 1600 L2400 1600 L2400 0 L0 0  Z" fill="#ffffff" fill-rule="evenodd" fill-opacity="1"/>
<defs>
  <clipPath id="clip791">
    <rect x="480" y="0" width="1681" height="1600"/>
  </clipPath>
</defs>
<path clip-path="url(#clip790)" d="M309.866 1423.18 L2352.76 1423.18 L2352.76 123.472 L309.866 123.472  Z" fill="#ffffff" fill-rule="evenodd" fill-opacity="1"/>
<defs>
  <clipPath id="clip792">
    <rect x="309" y="123" width="2044" height="1301"/>
  </clipPath>
</defs>
<polyline clip-path="url(#clip792)" style="stroke:#000000; stroke-linecap:round; stroke-linejoin:round; stroke-width:2; stroke-opacity:0.1; fill:none" points="574.175,1423.18 574.175,123.472 "/>
<polyline clip-path="url(#clip792)" style="stroke:#000000; stroke-linecap:round; stroke-linejoin:round; stroke-width:2; stroke-opacity:0.1; fill:none" points="918.328,1423.18 918.328,123.472 "/>
<polyline clip-path="url(#clip792)" style="stroke:#000000; stroke-linecap:round; stroke-linejoin:round; stroke-width:2; stroke-opacity:0.1; fill:none" points="1262.48,1423.18 1262.48,123.472 "/>
<polyline clip-path="url(#clip792)" style="stroke:#000000; stroke-linecap:round; stroke-linejoin:round; stroke-width:2; stroke-opacity:0.1; fill:none" points="1606.63,1423.18 1606.63,123.472 "/>
<polyline clip-path="url(#clip792)" style="stroke:#000000; stroke-linecap:round; stroke-linejoin:round; stroke-width:2; stroke-opacity:0.1; fill:none" points="1950.79,1423.18 1950.79,123.472 "/>
<polyline clip-path="url(#clip792)" style="stroke:#000000; stroke-linecap:round; stroke-linejoin:round; stroke-width:2; stroke-opacity:0.1; fill:none" points="2294.94,1423.18 2294.94,123.472 "/>
<polyline clip-path="url(#clip790)" style="stroke:#000000; stroke-linecap:round; stroke-linejoin:round; stroke-width:4; stroke-opacity:1; fill:none" points="309.866,1423.18 2352.76,1423.18 "/>
<polyline clip-path="url(#clip790)" style="stroke:#000000; stroke-linecap:round; stroke-linejoin:round; stroke-width:4; stroke-opacity:1; fill:none" points="574.175,1423.18 574.175,1404.28 "/>
<polyline clip-path="url(#clip790)" style="stroke:#000000; stroke-linecap:round; stroke-linejoin:round; stroke-width:4; stroke-opacity:1; fill:none" points="918.328,1423.18 918.328,1404.28 "/>
<polyline clip-path="url(#clip790)" style="stroke:#000000; stroke-linecap:round; stroke-linejoin:round; stroke-width:4; stroke-opacity:1; fill:none" points="1262.48,1423.18 1262.48,1404.28 "/>
<polyline clip-path="url(#clip790)" style="stroke:#000000; stroke-linecap:round; stroke-linejoin:round; stroke-width:4; stroke-opacity:1; fill:none" points="1606.63,1423.18 1606.63,1404.28 "/>
<polyline clip-path="url(#clip790)" style="stroke:#000000; stroke-linecap:round; stroke-linejoin:round; stroke-width:4; stroke-opacity:1; fill:none" points="1950.79,1423.18 1950.79,1404.28 "/>
<polyline clip-path="url(#clip790)" style="stroke:#000000; stroke-linecap:round; stroke-linejoin:round; stroke-width:4; stroke-opacity:1; fill:none" points="2294.94,1423.18 2294.94,1404.28 "/>
<path clip-path="url(#clip790)" d="M564.453 1451.02 L582.809 1451.02 L582.809 1454.96 L568.735 1454.96 L568.735 1463.43 Q569.754 1463.08 570.772 1462.92 Q571.791 1462.73 572.809 1462.73 Q578.596 1462.73 581.976 1465.9 Q585.356 1469.08 585.356 1474.49 Q585.356 1480.07 581.883 1483.17 Q578.411 1486.25 572.092 1486.25 Q569.916 1486.25 567.647 1485.88 Q565.402 1485.51 562.995 1484.77 L562.995 1480.07 Q565.078 1481.2 567.3 1481.76 Q569.522 1482.32 571.999 1482.32 Q576.004 1482.32 578.342 1480.21 Q580.68 1478.1 580.68 1474.49 Q580.68 1470.88 578.342 1468.77 Q576.004 1466.67 571.999 1466.67 Q570.124 1466.67 568.249 1467.08 Q566.397 1467.5 564.453 1468.38 L564.453 1451.02 Z" fill="#000000" fill-rule="nonzero" fill-opacity="1" /><path clip-path="url(#clip790)" d="M893.015 1481.64 L900.654 1481.64 L900.654 1455.28 L892.344 1456.95 L892.344 1452.69 L900.608 1451.02 L905.284 1451.02 L905.284 1481.64 L912.923 1481.64 L912.923 1485.58 L893.015 1485.58 L893.015 1481.64 Z" fill="#000000" fill-rule="nonzero" fill-opacity="1" /><path clip-path="url(#clip790)" d="M932.367 1454.1 Q928.756 1454.1 926.927 1457.66 Q925.122 1461.2 925.122 1468.33 Q925.122 1475.44 926.927 1479.01 Q928.756 1482.55 932.367 1482.55 Q936.001 1482.55 937.807 1479.01 Q939.635 1475.44 939.635 1468.33 Q939.635 1461.2 937.807 1457.66 Q936.001 1454.1 932.367 1454.1 M932.367 1450.39 Q938.177 1450.39 941.233 1455 Q944.311 1459.58 944.311 1468.33 Q944.311 1477.06 941.233 1481.67 Q938.177 1486.25 932.367 1486.25 Q926.557 1486.25 923.478 1481.67 Q920.423 1477.06 920.423 1468.33 Q920.423 1459.58 923.478 1455 Q926.557 1450.39 932.367 1450.39 Z" fill="#000000" fill-rule="nonzero" fill-opacity="1" /><path clip-path="url(#clip790)" d="M1237.67 1481.64 L1245.3 1481.64 L1245.3 1455.28 L1236.99 1456.95 L1236.99 1452.69 L1245.26 1451.02 L1249.93 1451.02 L1249.93 1481.64 L1257.57 1481.64 L1257.57 1485.58 L1237.67 1485.58 L1237.67 1481.64 Z" fill="#000000" fill-rule="nonzero" fill-opacity="1" /><path clip-path="url(#clip790)" d="M1267.06 1451.02 L1285.42 1451.02 L1285.42 1454.96 L1271.35 1454.96 L1271.35 1463.43 Q1272.36 1463.08 1273.38 1462.92 Q1274.4 1462.73 1275.42 1462.73 Q1281.21 1462.73 1284.59 1465.9 Q1287.97 1469.08 1287.97 1474.49 Q1287.97 1480.07 1284.49 1483.17 Q1281.02 1486.25 1274.7 1486.25 Q1272.53 1486.25 1270.26 1485.88 Q1268.01 1485.51 1265.61 1484.77 L1265.61 1480.07 Q1267.69 1481.2 1269.91 1481.76 Q1272.13 1482.32 1274.61 1482.32 Q1278.61 1482.32 1280.95 1480.21 Q1283.29 1478.1 1283.29 1474.49 Q1283.29 1470.88 1280.95 1468.77 Q1278.61 1466.67 1274.61 1466.67 Q1272.73 1466.67 1270.86 1467.08 Q1269.01 1467.5 1267.06 1468.38 L1267.06 1451.02 Z" fill="#000000" fill-rule="nonzero" fill-opacity="1" /><path clip-path="url(#clip790)" d="M1585.41 1481.64 L1601.73 1481.64 L1601.73 1485.58 L1579.78 1485.58 L1579.78 1481.64 Q1582.44 1478.89 1587.03 1474.26 Q1591.63 1469.61 1592.81 1468.27 Q1595.06 1465.74 1595.94 1464.01 Q1596.84 1462.25 1596.84 1460.56 Q1596.84 1457.8 1594.9 1456.07 Q1592.98 1454.33 1589.87 1454.33 Q1587.67 1454.33 1585.22 1455.09 Q1582.79 1455.86 1580.01 1457.41 L1580.01 1452.69 Q1582.84 1451.55 1585.29 1450.97 Q1587.74 1450.39 1589.78 1450.39 Q1595.15 1450.39 1598.35 1453.08 Q1601.54 1455.77 1601.54 1460.26 Q1601.54 1462.39 1600.73 1464.31 Q1599.94 1466.2 1597.84 1468.8 Q1597.26 1469.47 1594.16 1472.69 Q1591.05 1475.88 1585.41 1481.64 Z" fill="#000000" fill-rule="nonzero" fill-opacity="1" /><path clip-path="url(#clip790)" d="M1621.54 1454.1 Q1617.93 1454.1 1616.1 1457.66 Q1614.29 1461.2 1614.29 1468.33 Q1614.29 1475.44 1616.1 1479.01 Q1617.93 1482.55 1621.54 1482.55 Q1625.17 1482.55 1626.98 1479.01 Q1628.81 1475.44 1628.81 1468.33 Q1628.81 1461.2 1626.98 1457.66 Q1625.17 1454.1 1621.54 1454.1 M1621.54 1450.39 Q1627.35 1450.39 1630.41 1455 Q1633.48 1459.58 1633.48 1468.33 Q1633.48 1477.06 1630.41 1481.67 Q1627.35 1486.25 1621.54 1486.25 Q1615.73 1486.25 1612.65 1481.67 Q1609.6 1477.06 1609.6 1468.33 Q1609.6 1459.58 1612.65 1455 Q1615.73 1450.39 1621.54 1450.39 Z" fill="#000000" fill-rule="nonzero" fill-opacity="1" /><path clip-path="url(#clip790)" d="M1930.06 1481.64 L1946.38 1481.64 L1946.38 1485.58 L1924.43 1485.58 L1924.43 1481.64 Q1927.09 1478.89 1931.68 1474.26 Q1936.28 1469.61 1937.46 1468.27 Q1939.71 1465.74 1940.59 1464.01 Q1941.49 1462.25 1941.49 1460.56 Q1941.49 1457.8 1939.55 1456.07 Q1937.63 1454.33 1934.52 1454.33 Q1932.33 1454.33 1929.87 1455.09 Q1927.44 1455.86 1924.66 1457.41 L1924.66 1452.69 Q1927.49 1451.55 1929.94 1450.97 Q1932.39 1450.39 1934.43 1450.39 Q1939.8 1450.39 1943 1453.08 Q1946.19 1455.77 1946.19 1460.26 Q1946.19 1462.39 1945.38 1464.31 Q1944.59 1466.2 1942.49 1468.8 Q1941.91 1469.47 1938.81 1472.69 Q1935.7 1475.88 1930.06 1481.64 Z" fill="#000000" fill-rule="nonzero" fill-opacity="1" /><path clip-path="url(#clip790)" d="M1956.24 1451.02 L1974.59 1451.02 L1974.59 1454.96 L1960.52 1454.96 L1960.52 1463.43 Q1961.54 1463.08 1962.56 1462.92 Q1963.57 1462.73 1964.59 1462.73 Q1970.38 1462.73 1973.76 1465.9 Q1977.14 1469.08 1977.14 1474.49 Q1977.14 1480.07 1973.67 1483.17 Q1970.2 1486.25 1963.88 1486.25 Q1961.7 1486.25 1959.43 1485.88 Q1957.19 1485.51 1954.78 1484.77 L1954.78 1480.07 Q1956.86 1481.2 1959.08 1481.76 Q1961.31 1482.32 1963.78 1482.32 Q1967.79 1482.32 1970.13 1480.21 Q1972.46 1478.1 1972.46 1474.49 Q1972.46 1470.88 1970.13 1468.77 Q1967.79 1466.67 1963.78 1466.67 Q1961.91 1466.67 1960.03 1467.08 Q1958.18 1467.5 1956.24 1468.38 L1956.24 1451.02 Z" fill="#000000" fill-rule="nonzero" fill-opacity="1" /><path clip-path="url(#clip790)" d="M2283.78 1466.95 Q2287.14 1467.66 2289.01 1469.93 Q2290.91 1472.2 2290.91 1475.53 Q2290.91 1480.65 2287.39 1483.45 Q2283.87 1486.25 2277.39 1486.25 Q2275.22 1486.25 2272.9 1485.81 Q2270.61 1485.39 2268.16 1484.54 L2268.16 1480.02 Q2270.1 1481.16 2272.42 1481.74 Q2274.73 1482.32 2277.25 1482.32 Q2281.65 1482.32 2283.94 1480.58 Q2286.26 1478.84 2286.26 1475.53 Q2286.26 1472.48 2284.1 1470.77 Q2281.98 1469.03 2278.16 1469.03 L2274.13 1469.03 L2274.13 1465.19 L2278.34 1465.19 Q2281.79 1465.19 2283.62 1463.82 Q2285.45 1462.43 2285.45 1459.84 Q2285.45 1457.18 2283.55 1455.77 Q2281.67 1454.33 2278.16 1454.33 Q2276.23 1454.33 2274.04 1454.75 Q2271.84 1455.16 2269.2 1456.04 L2269.2 1451.88 Q2271.86 1451.14 2274.17 1450.77 Q2276.51 1450.39 2278.57 1450.39 Q2283.9 1450.39 2287 1452.83 Q2290.1 1455.23 2290.1 1459.35 Q2290.1 1462.22 2288.46 1464.21 Q2286.81 1466.18 2283.78 1466.95 Z" fill="#000000" fill-rule="nonzero" fill-opacity="1" /><path clip-path="url(#clip790)" d="M2309.78 1454.1 Q2306.17 1454.1 2304.34 1457.66 Q2302.53 1461.2 2302.53 1468.33 Q2302.53 1475.44 2304.34 1479.01 Q2306.17 1482.55 2309.78 1482.55 Q2313.41 1482.55 2315.22 1479.01 Q2317.04 1475.44 2317.04 1468.33 Q2317.04 1461.2 2315.22 1457.66 Q2313.41 1454.1 2309.78 1454.1 M2309.78 1450.39 Q2315.59 1450.39 2318.64 1455 Q2321.72 1459.58 2321.72 1468.33 Q2321.72 1477.06 2318.64 1481.67 Q2315.59 1486.25 2309.78 1486.25 Q2303.97 1486.25 2300.89 1481.67 Q2297.83 1477.06 2297.83 1468.33 Q2297.83 1459.58 2300.89 1455 Q2303.97 1450.39 2309.78 1450.39 Z" fill="#000000" fill-rule="nonzero" fill-opacity="1" /><path clip-path="url(#clip790)" d="M1246.14 1546.53 L1246.14 1568.04 L1240.28 1568.04 L1240.28 1546.72 Q1240.28 1541.66 1238.31 1539.14 Q1236.33 1536.63 1232.39 1536.63 Q1227.65 1536.63 1224.91 1539.65 Q1222.17 1542.68 1222.17 1547.9 L1222.17 1568.04 L1216.28 1568.04 L1216.28 1518.52 L1222.17 1518.52 L1222.17 1537.93 Q1224.27 1534.72 1227.1 1533.13 Q1229.97 1531.54 1233.69 1531.54 Q1239.84 1531.54 1242.99 1535.36 Q1246.14 1539.14 1246.14 1546.53 Z" fill="#000000" fill-rule="nonzero" fill-opacity="1" /><path clip-path="url(#clip790)" d="M1271.63 1536.5 Q1266.92 1536.5 1264.18 1540.19 Q1261.45 1543.85 1261.45 1550.25 Q1261.45 1556.65 1264.15 1560.34 Q1266.89 1564 1271.63 1564 Q1276.31 1564 1279.05 1560.31 Q1281.79 1556.62 1281.79 1550.25 Q1281.79 1543.92 1279.05 1540.23 Q1276.31 1536.5 1271.63 1536.5 M1271.63 1531.54 Q1279.27 1531.54 1283.63 1536.5 Q1287.99 1541.47 1287.99 1550.25 Q1287.99 1559 1283.63 1564 Q1279.27 1568.97 1271.63 1568.97 Q1263.96 1568.97 1259.6 1564 Q1255.27 1559 1255.27 1550.25 Q1255.27 1541.47 1259.6 1536.5 Q1263.96 1531.54 1271.63 1531.54 Z" fill="#000000" fill-rule="nonzero" fill-opacity="1" /><path clip-path="url(#clip790)" d="M1318.36 1537.87 Q1317.37 1537.3 1316.19 1537.04 Q1315.05 1536.76 1313.65 1536.76 Q1308.68 1536.76 1306.01 1540 Q1303.37 1543.22 1303.37 1549.27 L1303.37 1568.04 L1297.48 1568.04 L1297.48 1532.4 L1303.37 1532.4 L1303.37 1537.93 Q1305.21 1534.69 1308.17 1533.13 Q1311.13 1531.54 1315.36 1531.54 Q1315.97 1531.54 1316.7 1531.63 Q1317.43 1531.7 1318.32 1531.85 L1318.36 1537.87 Z" fill="#000000" fill-rule="nonzero" fill-opacity="1" /><path clip-path="url(#clip790)" d="M1324.5 1532.4 L1330.36 1532.4 L1330.36 1568.04 L1324.5 1568.04 L1324.5 1532.4 M1324.5 1518.52 L1330.36 1518.52 L1330.36 1525.93 L1324.5 1525.93 L1324.5 1518.52 Z" fill="#000000" fill-rule="nonzero" fill-opacity="1" /><path clip-path="url(#clip790)" d="M1340.06 1532.4 L1367.88 1532.4 L1367.88 1537.74 L1345.86 1563.37 L1367.88 1563.37 L1367.88 1568.04 L1339.27 1568.04 L1339.27 1562.7 L1361.29 1537.07 L1340.06 1537.07 L1340.06 1532.4 Z" fill="#000000" fill-rule="nonzero" fill-opacity="1" /><path clip-path="url(#clip790)" d="M1390.64 1536.5 Q1385.93 1536.5 1383.19 1540.19 Q1380.45 1543.85 1380.45 1550.25 Q1380.45 1556.65 1383.16 1560.34 Q1385.9 1564 1390.64 1564 Q1395.32 1564 1398.06 1560.31 Q1400.79 1556.62 1400.79 1550.25 Q1400.79 1543.92 1398.06 1540.23 Q1395.32 1536.5 1390.64 1536.5 M1390.64 1531.54 Q1398.28 1531.54 1402.64 1536.5 Q1407 1541.47 1407 1550.25 Q1407 1559 1402.64 1564 Q1398.28 1568.97 1390.64 1568.97 Q1382.97 1568.97 1378.61 1564 Q1374.28 1559 1374.28 1550.25 Q1374.28 1541.47 1378.61 1536.5 Q1382.97 1531.54 1390.64 1531.54 Z" fill="#000000" fill-rule="nonzero" fill-opacity="1" /><path clip-path="url(#clip790)" d="M1446.34 1546.53 L1446.34 1568.04 L1440.48 1568.04 L1440.48 1546.72 Q1440.48 1541.66 1438.51 1539.14 Q1436.54 1536.63 1432.59 1536.63 Q1427.85 1536.63 1425.11 1539.65 Q1422.37 1542.68 1422.37 1547.9 L1422.37 1568.04 L1416.48 1568.04 L1416.48 1532.4 L1422.37 1532.4 L1422.37 1537.93 Q1424.47 1534.72 1427.31 1533.13 Q1430.17 1531.54 1433.89 1531.54 Q1440.04 1531.54 1443.19 1535.36 Q1446.34 1539.14 1446.34 1546.53 Z" fill="#000000" fill-rule="nonzero" fill-opacity="1" /><polyline clip-path="url(#clip792)" style="stroke:#000000; stroke-linecap:round; stroke-linejoin:round; stroke-width:2; stroke-opacity:0.1; fill:none" points="309.866,1187.76 2352.76,1187.76 "/>
<polyline clip-path="url(#clip792)" style="stroke:#000000; stroke-linecap:round; stroke-linejoin:round; stroke-width:2; stroke-opacity:0.1; fill:none" points="309.866,857.552 2352.76,857.552 "/>
<polyline clip-path="url(#clip792)" style="stroke:#000000; stroke-linecap:round; stroke-linejoin:round; stroke-width:2; stroke-opacity:0.1; fill:none" points="309.866,527.341 2352.76,527.341 "/>
<polyline clip-path="url(#clip792)" style="stroke:#000000; stroke-linecap:round; stroke-linejoin:round; stroke-width:2; stroke-opacity:0.1; fill:none" points="309.866,197.13 2352.76,197.13 "/>
<polyline clip-path="url(#clip790)" style="stroke:#000000; stroke-linecap:round; stroke-linejoin:round; stroke-width:4; stroke-opacity:1; fill:none" points="309.866,1423.18 309.866,123.472 "/>
<polyline clip-path="url(#clip790)" style="stroke:#000000; stroke-linecap:round; stroke-linejoin:round; stroke-width:4; stroke-opacity:1; fill:none" points="309.866,1187.76 328.763,1187.76 "/>
<polyline clip-path="url(#clip790)" style="stroke:#000000; stroke-linecap:round; stroke-linejoin:round; stroke-width:4; stroke-opacity:1; fill:none" points="309.866,857.552 328.763,857.552 "/>
<polyline clip-path="url(#clip790)" style="stroke:#000000; stroke-linecap:round; stroke-linejoin:round; stroke-width:4; stroke-opacity:1; fill:none" points="309.866,527.341 328.763,527.341 "/>
<polyline clip-path="url(#clip790)" style="stroke:#000000; stroke-linecap:round; stroke-linejoin:round; stroke-width:4; stroke-opacity:1; fill:none" points="309.866,197.13 328.763,197.13 "/>
<path clip-path="url(#clip790)" d="M127.2 1173.56 Q123.589 1173.56 121.76 1177.13 Q119.955 1180.67 119.955 1187.8 Q119.955 1194.9 121.76 1198.47 Q123.589 1202.01 127.2 1202.01 Q130.834 1202.01 132.64 1198.47 Q134.468 1194.9 134.468 1187.8 Q134.468 1180.67 132.64 1177.13 Q130.834 1173.56 127.2 1173.56 M127.2 1169.86 Q133.01 1169.86 136.066 1174.46 Q139.144 1179.05 139.144 1187.8 Q139.144 1196.52 136.066 1201.13 Q133.01 1205.71 127.2 1205.71 Q121.39 1205.71 118.311 1201.13 Q115.256 1196.52 115.256 1187.8 Q115.256 1179.05 118.311 1174.46 Q121.39 1169.86 127.2 1169.86 Z" fill="#000000" fill-rule="nonzero" fill-opacity="1" /><path clip-path="url(#clip790)" d="M147.362 1199.16 L152.246 1199.16 L152.246 1205.04 L147.362 1205.04 L147.362 1199.16 Z" fill="#000000" fill-rule="nonzero" fill-opacity="1" /><path clip-path="url(#clip790)" d="M172.431 1173.56 Q168.82 1173.56 166.991 1177.13 Q165.186 1180.67 165.186 1187.8 Q165.186 1194.9 166.991 1198.47 Q168.82 1202.01 172.431 1202.01 Q176.065 1202.01 177.871 1198.47 Q179.7 1194.9 179.7 1187.8 Q179.7 1180.67 177.871 1177.13 Q176.065 1173.56 172.431 1173.56 M172.431 1169.86 Q178.241 1169.86 181.297 1174.46 Q184.376 1179.05 184.376 1187.8 Q184.376 1196.52 181.297 1201.13 Q178.241 1205.71 172.431 1205.71 Q166.621 1205.71 163.542 1201.13 Q160.487 1196.52 160.487 1187.8 Q160.487 1179.05 163.542 1174.46 Q166.621 1169.86 172.431 1169.86 Z" fill="#000000" fill-rule="nonzero" fill-opacity="1" /><path clip-path="url(#clip790)" d="M202.593 1173.56 Q198.982 1173.56 197.153 1177.13 Q195.348 1180.67 195.348 1187.8 Q195.348 1194.9 197.153 1198.47 Q198.982 1202.01 202.593 1202.01 Q206.227 1202.01 208.033 1198.47 Q209.861 1194.9 209.861 1187.8 Q209.861 1180.67 208.033 1177.13 Q206.227 1173.56 202.593 1173.56 M202.593 1169.86 Q208.403 1169.86 211.459 1174.46 Q214.537 1179.05 214.537 1187.8 Q214.537 1196.52 211.459 1201.13 Q208.403 1205.71 202.593 1205.71 Q196.783 1205.71 193.704 1201.13 Q190.649 1196.52 190.649 1187.8 Q190.649 1179.05 193.704 1174.46 Q196.783 1169.86 202.593 1169.86 Z" fill="#000000" fill-rule="nonzero" fill-opacity="1" /><path clip-path="url(#clip790)" d="M226.783 1201.11 L243.102 1201.11 L243.102 1205.04 L221.158 1205.04 L221.158 1201.11 Q223.82 1198.35 228.403 1193.72 Q233.01 1189.07 234.19 1187.73 Q236.435 1185.21 237.315 1183.47 Q238.218 1181.71 238.218 1180.02 Q238.218 1177.27 236.273 1175.53 Q234.352 1173.79 231.25 1173.79 Q229.051 1173.79 226.598 1174.56 Q224.167 1175.32 221.389 1176.87 L221.389 1172.15 Q224.213 1171.02 226.667 1170.44 Q229.121 1169.86 231.158 1169.86 Q236.528 1169.86 239.722 1172.54 Q242.917 1175.23 242.917 1179.72 Q242.917 1181.85 242.107 1183.77 Q241.32 1185.67 239.213 1188.26 Q238.634 1188.93 235.533 1192.15 Q232.431 1195.34 226.783 1201.11 Z" fill="#000000" fill-rule="nonzero" fill-opacity="1" /><path clip-path="url(#clip790)" d="M252.963 1170.48 L271.32 1170.48 L271.32 1174.42 L257.246 1174.42 L257.246 1182.89 Q258.264 1182.54 259.283 1182.38 Q260.301 1182.2 261.32 1182.2 Q267.107 1182.2 270.486 1185.37 Q273.866 1188.54 273.866 1193.96 Q273.866 1199.53 270.394 1202.64 Q266.921 1205.71 260.602 1205.71 Q258.426 1205.71 256.158 1205.34 Q253.912 1204.97 251.505 1204.23 L251.505 1199.53 Q253.588 1200.67 255.81 1201.22 Q258.033 1201.78 260.509 1201.78 Q264.514 1201.78 266.852 1199.67 Q269.19 1197.57 269.19 1193.96 Q269.19 1190.34 266.852 1188.24 Q264.514 1186.13 260.509 1186.13 Q258.634 1186.13 256.759 1186.55 Q254.908 1186.96 252.963 1187.84 L252.963 1170.48 Z" fill="#000000" fill-rule="nonzero" fill-opacity="1" /><path clip-path="url(#clip790)" d="M126.205 843.351 Q122.593 843.351 120.765 846.915 Q118.959 850.457 118.959 857.587 Q118.959 864.693 120.765 868.258 Q122.593 871.8 126.205 871.8 Q129.839 871.8 131.644 868.258 Q133.473 864.693 133.473 857.587 Q133.473 850.457 131.644 846.915 Q129.839 843.351 126.205 843.351 M126.205 839.647 Q132.015 839.647 135.07 844.253 Q138.149 848.837 138.149 857.587 Q138.149 866.313 135.07 870.92 Q132.015 875.503 126.205 875.503 Q120.394 875.503 117.316 870.92 Q114.26 866.313 114.26 857.587 Q114.26 848.837 117.316 844.253 Q120.394 839.647 126.205 839.647 Z" fill="#000000" fill-rule="nonzero" fill-opacity="1" /><path clip-path="url(#clip790)" d="M146.366 868.952 L151.251 868.952 L151.251 874.832 L146.366 874.832 L146.366 868.952 Z" fill="#000000" fill-rule="nonzero" fill-opacity="1" /><path clip-path="url(#clip790)" d="M171.436 843.351 Q167.825 843.351 165.996 846.915 Q164.19 850.457 164.19 857.587 Q164.19 864.693 165.996 868.258 Q167.825 871.8 171.436 871.8 Q175.07 871.8 176.876 868.258 Q178.704 864.693 178.704 857.587 Q178.704 850.457 176.876 846.915 Q175.07 843.351 171.436 843.351 M171.436 839.647 Q177.246 839.647 180.301 844.253 Q183.38 848.837 183.38 857.587 Q183.38 866.313 180.301 870.92 Q177.246 875.503 171.436 875.503 Q165.626 875.503 162.547 870.92 Q159.491 866.313 159.491 857.587 Q159.491 848.837 162.547 844.253 Q165.626 839.647 171.436 839.647 Z" fill="#000000" fill-rule="nonzero" fill-opacity="1" /><path clip-path="url(#clip790)" d="M201.598 843.351 Q197.987 843.351 196.158 846.915 Q194.352 850.457 194.352 857.587 Q194.352 864.693 196.158 868.258 Q197.987 871.8 201.598 871.8 Q205.232 871.8 207.037 868.258 Q208.866 864.693 208.866 857.587 Q208.866 850.457 207.037 846.915 Q205.232 843.351 201.598 843.351 M201.598 839.647 Q207.408 839.647 210.463 844.253 Q213.542 848.837 213.542 857.587 Q213.542 866.313 210.463 870.92 Q207.408 875.503 201.598 875.503 Q195.787 875.503 192.709 870.92 Q189.653 866.313 189.653 857.587 Q189.653 848.837 192.709 844.253 Q195.787 839.647 201.598 839.647 Z" fill="#000000" fill-rule="nonzero" fill-opacity="1" /><path clip-path="url(#clip790)" d="M235.926 856.198 Q239.283 856.915 241.158 859.184 Q243.056 861.452 243.056 864.786 Q243.056 869.901 239.537 872.702 Q236.019 875.503 229.537 875.503 Q227.361 875.503 225.047 875.063 Q222.755 874.647 220.301 873.79 L220.301 869.276 Q222.246 870.411 224.56 870.989 Q226.875 871.568 229.398 871.568 Q233.797 871.568 236.088 869.832 Q238.403 868.096 238.403 864.786 Q238.403 861.73 236.25 860.017 Q234.121 858.281 230.301 858.281 L226.273 858.281 L226.273 854.439 L230.486 854.439 Q233.935 854.439 235.764 853.073 Q237.593 851.684 237.593 849.091 Q237.593 846.429 235.695 845.017 Q233.82 843.582 230.301 843.582 Q228.38 843.582 226.181 843.999 Q223.982 844.415 221.343 845.295 L221.343 841.128 Q224.005 840.388 226.32 840.017 Q228.658 839.647 230.718 839.647 Q236.042 839.647 239.144 842.077 Q242.246 844.485 242.246 848.605 Q242.246 851.476 240.602 853.466 Q238.959 855.434 235.926 856.198 Z" fill="#000000" fill-rule="nonzero" fill-opacity="1" /><path clip-path="url(#clip790)" d="M261.921 843.351 Q258.31 843.351 256.482 846.915 Q254.676 850.457 254.676 857.587 Q254.676 864.693 256.482 868.258 Q258.31 871.8 261.921 871.8 Q265.556 871.8 267.361 868.258 Q269.19 864.693 269.19 857.587 Q269.19 850.457 267.361 846.915 Q265.556 843.351 261.921 843.351 M261.921 839.647 Q267.732 839.647 270.787 844.253 Q273.866 848.837 273.866 857.587 Q273.866 866.313 270.787 870.92 Q267.732 875.503 261.921 875.503 Q256.111 875.503 253.033 870.92 Q249.977 866.313 249.977 857.587 Q249.977 848.837 253.033 844.253 Q256.111 839.647 261.921 839.647 Z" fill="#000000" fill-rule="nonzero" fill-opacity="1" /><path clip-path="url(#clip790)" d="M127.2 513.14 Q123.589 513.14 121.76 516.704 Q119.955 520.246 119.955 527.376 Q119.955 534.482 121.76 538.047 Q123.589 541.589 127.2 541.589 Q130.834 541.589 132.64 538.047 Q134.468 534.482 134.468 527.376 Q134.468 520.246 132.64 516.704 Q130.834 513.14 127.2 513.14 M127.2 509.436 Q133.01 509.436 136.066 514.042 Q139.144 518.626 139.144 527.376 Q139.144 536.102 136.066 540.709 Q133.01 545.292 127.2 545.292 Q121.39 545.292 118.311 540.709 Q115.256 536.102 115.256 527.376 Q115.256 518.626 118.311 514.042 Q121.39 509.436 127.2 509.436 Z" fill="#000000" fill-rule="nonzero" fill-opacity="1" /><path clip-path="url(#clip790)" d="M147.362 538.741 L152.246 538.741 L152.246 544.621 L147.362 544.621 L147.362 538.741 Z" fill="#000000" fill-rule="nonzero" fill-opacity="1" /><path clip-path="url(#clip790)" d="M172.431 513.14 Q168.82 513.14 166.991 516.704 Q165.186 520.246 165.186 527.376 Q165.186 534.482 166.991 538.047 Q168.82 541.589 172.431 541.589 Q176.065 541.589 177.871 538.047 Q179.7 534.482 179.7 527.376 Q179.7 520.246 177.871 516.704 Q176.065 513.14 172.431 513.14 M172.431 509.436 Q178.241 509.436 181.297 514.042 Q184.376 518.626 184.376 527.376 Q184.376 536.102 181.297 540.709 Q178.241 545.292 172.431 545.292 Q166.621 545.292 163.542 540.709 Q160.487 536.102 160.487 527.376 Q160.487 518.626 163.542 514.042 Q166.621 509.436 172.431 509.436 Z" fill="#000000" fill-rule="nonzero" fill-opacity="1" /><path clip-path="url(#clip790)" d="M202.593 513.14 Q198.982 513.14 197.153 516.704 Q195.348 520.246 195.348 527.376 Q195.348 534.482 197.153 538.047 Q198.982 541.589 202.593 541.589 Q206.227 541.589 208.033 538.047 Q209.861 534.482 209.861 527.376 Q209.861 520.246 208.033 516.704 Q206.227 513.14 202.593 513.14 M202.593 509.436 Q208.403 509.436 211.459 514.042 Q214.537 518.626 214.537 527.376 Q214.537 536.102 211.459 540.709 Q208.403 545.292 202.593 545.292 Q196.783 545.292 193.704 540.709 Q190.649 536.102 190.649 527.376 Q190.649 518.626 193.704 514.042 Q196.783 509.436 202.593 509.436 Z" fill="#000000" fill-rule="nonzero" fill-opacity="1" /><path clip-path="url(#clip790)" d="M236.922 525.987 Q240.278 526.704 242.153 528.973 Q244.051 531.241 244.051 534.575 Q244.051 539.69 240.533 542.491 Q237.014 545.292 230.533 545.292 Q228.357 545.292 226.042 544.852 Q223.75 544.436 221.297 543.579 L221.297 539.065 Q223.241 540.2 225.556 540.778 Q227.871 541.357 230.394 541.357 Q234.792 541.357 237.084 539.621 Q239.398 537.885 239.398 534.575 Q239.398 531.519 237.246 529.806 Q235.116 528.07 231.297 528.07 L227.269 528.07 L227.269 524.227 L231.482 524.227 Q234.931 524.227 236.76 522.862 Q238.588 521.473 238.588 518.88 Q238.588 516.218 236.69 514.806 Q234.815 513.371 231.297 513.371 Q229.375 513.371 227.176 513.788 Q224.977 514.204 222.338 515.084 L222.338 510.917 Q225 510.177 227.315 509.806 Q229.653 509.436 231.713 509.436 Q237.037 509.436 240.139 511.866 Q243.241 514.274 243.241 518.394 Q243.241 521.265 241.597 523.255 Q239.954 525.223 236.922 525.987 Z" fill="#000000" fill-rule="nonzero" fill-opacity="1" /><path clip-path="url(#clip790)" d="M252.963 510.061 L271.32 510.061 L271.32 513.996 L257.246 513.996 L257.246 522.468 Q258.264 522.121 259.283 521.959 Q260.301 521.774 261.32 521.774 Q267.107 521.774 270.486 524.945 Q273.866 528.116 273.866 533.533 Q273.866 539.112 270.394 542.214 Q266.921 545.292 260.602 545.292 Q258.426 545.292 256.158 544.922 Q253.912 544.551 251.505 543.811 L251.505 539.112 Q253.588 540.246 255.81 540.801 Q258.033 541.357 260.509 541.357 Q264.514 541.357 266.852 539.251 Q269.19 537.144 269.19 533.533 Q269.19 529.922 266.852 527.815 Q264.514 525.709 260.509 525.709 Q258.634 525.709 256.759 526.126 Q254.908 526.542 252.963 527.422 L252.963 510.061 Z" fill="#000000" fill-rule="nonzero" fill-opacity="1" /><path clip-path="url(#clip790)" d="M126.205 182.929 Q122.593 182.929 120.765 186.493 Q118.959 190.035 118.959 197.165 Q118.959 204.271 120.765 207.836 Q122.593 211.377 126.205 211.377 Q129.839 211.377 131.644 207.836 Q133.473 204.271 133.473 197.165 Q133.473 190.035 131.644 186.493 Q129.839 182.929 126.205 182.929 M126.205 179.225 Q132.015 179.225 135.07 183.831 Q138.149 188.415 138.149 197.165 Q138.149 205.891 135.07 210.498 Q132.015 215.081 126.205 215.081 Q120.394 215.081 117.316 210.498 Q114.26 205.891 114.26 197.165 Q114.26 188.415 117.316 183.831 Q120.394 179.225 126.205 179.225 Z" fill="#000000" fill-rule="nonzero" fill-opacity="1" /><path clip-path="url(#clip790)" d="M146.366 208.53 L151.251 208.53 L151.251 214.41 L146.366 214.41 L146.366 208.53 Z" fill="#000000" fill-rule="nonzero" fill-opacity="1" /><path clip-path="url(#clip790)" d="M171.436 182.929 Q167.825 182.929 165.996 186.493 Q164.19 190.035 164.19 197.165 Q164.19 204.271 165.996 207.836 Q167.825 211.377 171.436 211.377 Q175.07 211.377 176.876 207.836 Q178.704 204.271 178.704 197.165 Q178.704 190.035 176.876 186.493 Q175.07 182.929 171.436 182.929 M171.436 179.225 Q177.246 179.225 180.301 183.831 Q183.38 188.415 183.38 197.165 Q183.38 205.891 180.301 210.498 Q177.246 215.081 171.436 215.081 Q165.626 215.081 162.547 210.498 Q159.491 205.891 159.491 197.165 Q159.491 188.415 162.547 183.831 Q165.626 179.225 171.436 179.225 Z" fill="#000000" fill-rule="nonzero" fill-opacity="1" /><path clip-path="url(#clip790)" d="M201.598 182.929 Q197.987 182.929 196.158 186.493 Q194.352 190.035 194.352 197.165 Q194.352 204.271 196.158 207.836 Q197.987 211.377 201.598 211.377 Q205.232 211.377 207.037 207.836 Q208.866 204.271 208.866 197.165 Q208.866 190.035 207.037 186.493 Q205.232 182.929 201.598 182.929 M201.598 179.225 Q207.408 179.225 210.463 183.831 Q213.542 188.415 213.542 197.165 Q213.542 205.891 210.463 210.498 Q207.408 215.081 201.598 215.081 Q195.787 215.081 192.709 210.498 Q189.653 205.891 189.653 197.165 Q189.653 188.415 192.709 183.831 Q195.787 179.225 201.598 179.225 Z" fill="#000000" fill-rule="nonzero" fill-opacity="1" /><path clip-path="url(#clip790)" d="M234.607 183.924 L222.801 202.373 L234.607 202.373 L234.607 183.924 M233.38 179.85 L239.259 179.85 L239.259 202.373 L244.19 202.373 L244.19 206.262 L239.259 206.262 L239.259 214.41 L234.607 214.41 L234.607 206.262 L219.005 206.262 L219.005 201.748 L233.38 179.85 Z" fill="#000000" fill-rule="nonzero" fill-opacity="1" /><path clip-path="url(#clip790)" d="M261.921 182.929 Q258.31 182.929 256.482 186.493 Q254.676 190.035 254.676 197.165 Q254.676 204.271 256.482 207.836 Q258.31 211.377 261.921 211.377 Q265.556 211.377 267.361 207.836 Q269.19 204.271 269.19 197.165 Q269.19 190.035 267.361 186.493 Q265.556 182.929 261.921 182.929 M261.921 179.225 Q267.732 179.225 270.787 183.831 Q273.866 188.415 273.866 197.165 Q273.866 205.891 270.787 210.498 Q267.732 215.081 261.921 215.081 Q256.111 215.081 253.033 210.498 Q249.977 205.891 249.977 197.165 Q249.977 188.415 253.033 183.831 Q256.111 179.225 261.921 179.225 Z" fill="#000000" fill-rule="nonzero" fill-opacity="1" /><path clip-path="url(#clip790)" d="M16.4842 874.557 L16.4842 864.976 L48.8219 852.85 L16.4842 840.659 L16.4842 831.079 L64.0042 831.079 L64.0042 837.349 L22.277 837.349 L54.8694 849.603 L54.8694 856.064 L22.277 868.318 L64.0042 868.318 L64.0042 874.557 L16.4842 874.557 Z" fill="#000000" fill-rule="nonzero" fill-opacity="1" /><path clip-path="url(#clip790)" d="M41.7242 795.781 Q42.4244 793.712 44.7161 791.771 Q47.0077 789.797 51.0181 787.824 L64.0042 781.299 L64.0042 788.206 L51.8138 794.285 Q47.0395 796.64 45.48 798.868 Q43.9204 801.065 43.9204 804.884 L43.9204 811.886 L64.0042 811.886 L64.0042 818.316 L16.4842 818.316 L16.4842 803.802 Q16.4842 795.654 19.8898 791.643 Q23.2955 787.633 30.1704 787.633 Q34.6582 787.633 37.6183 789.734 Q40.5784 791.802 41.7242 795.781 M21.7677 811.886 L38.6368 811.886 L38.6368 803.802 Q38.6368 799.155 36.5043 796.8 Q34.34 794.412 30.1704 794.412 Q26.0009 794.412 23.9002 796.8 Q21.7677 799.155 21.7677 803.802 L21.7677 811.886 Z" fill="#000000" fill-rule="nonzero" fill-opacity="1" /><path clip-path="url(#clip790)" d="M22.818 759.783 L46.4666 768.504 L46.4666 751.03 L22.818 759.783 M16.4842 763.411 L16.4842 756.123 L64.0042 738.012 L64.0042 744.696 L51.8138 749.025 L51.8138 770.446 L64.0042 774.774 L64.0042 781.554 L16.4842 763.411 Z" fill="#000000" fill-rule="nonzero" fill-opacity="1" /><path clip-path="url(#clip790)" d="M16.4842 731.074 L16.4842 701.027 L21.895 701.027 L21.895 724.644 L35.9632 724.644 L35.9632 702.014 L41.3741 702.014 L41.3741 724.644 L58.5933 724.644 L58.5933 700.455 L64.0042 700.455 L64.0042 731.074 L16.4842 731.074 Z" fill="#000000" fill-rule="nonzero" fill-opacity="1" /><path clip-path="url(#clip790)" d="M14.479 672.095 L19.3487 672.095 L19.3487 677.697 Q19.3487 680.848 20.6219 682.089 Q21.895 683.299 25.2052 683.299 L28.3562 683.299 L28.3562 673.655 L32.9077 673.655 L32.9077 683.299 L64.0042 683.299 L64.0042 689.187 L32.9077 689.187 L32.9077 694.789 L28.3562 694.789 L28.3562 689.187 L25.8736 689.187 Q19.9216 689.187 17.2162 686.418 Q14.479 683.649 14.479 677.633 L14.479 672.095 Z" fill="#000000" fill-rule="nonzero" fill-opacity="1" /><path clip-path="url(#clip790)" d="M579.504 12.096 L587.686 12.096 L587.686 65.6895 L617.136 65.6895 L617.136 72.576 L579.504 72.576 L579.504 12.096 Z" fill="#000000" fill-rule="nonzero" fill-opacity="1" /><path clip-path="url(#clip790)" d="M625.4 27.2059 L632.854 27.2059 L632.854 72.576 L625.4 72.576 L625.4 27.2059 M625.4 9.54393 L632.854 9.54393 L632.854 18.9825 L625.4 18.9825 L625.4 9.54393 Z" fill="#000000" fill-rule="nonzero" fill-opacity="1" /><path clip-path="url(#clip790)" d="M686.164 45.1919 L686.164 72.576 L678.71 72.576 L678.71 45.4349 Q678.71 38.994 676.199 35.7938 Q673.687 32.5936 668.664 32.5936 Q662.628 32.5936 659.144 36.4419 Q655.661 40.2903 655.661 46.9338 L655.661 72.576 L648.166 72.576 L648.166 27.2059 L655.661 27.2059 L655.661 34.2544 Q658.334 30.163 661.939 28.1376 Q665.585 26.1121 670.325 26.1121 Q678.143 26.1121 682.153 30.9732 Q686.164 35.7938 686.164 45.1919 Z" fill="#000000" fill-rule="nonzero" fill-opacity="1" /><path clip-path="url(#clip790)" d="M739.838 48.0275 L739.838 51.6733 L705.568 51.6733 Q706.054 59.3701 710.186 63.421 Q714.358 67.4314 721.771 67.4314 Q726.065 67.4314 730.076 66.3781 Q734.127 65.3249 738.096 63.2184 L738.096 70.267 Q734.086 71.9684 729.873 72.8596 Q725.66 73.7508 721.326 73.7508 Q710.469 73.7508 704.109 67.4314 Q697.79 61.1119 697.79 50.3365 Q697.79 39.1965 703.785 32.6746 Q709.821 26.1121 720.029 26.1121 Q729.184 26.1121 734.491 32.0264 Q739.838 37.9003 739.838 48.0275 M732.385 45.84 Q732.304 39.7232 728.941 36.0774 Q725.62 32.4315 720.11 32.4315 Q713.872 32.4315 710.105 35.9558 Q706.378 39.4801 705.811 45.8805 L732.385 45.84 Z" fill="#000000" fill-rule="nonzero" fill-opacity="1" /><path clip-path="url(#clip790)" d="M772.691 49.7694 Q763.658 49.7694 760.174 51.8354 Q756.69 53.9013 756.69 58.8839 Q756.69 62.8538 759.283 65.2034 Q761.916 67.5124 766.412 67.5124 Q772.61 67.5124 776.337 63.1374 Q780.104 58.7219 780.104 51.4303 L780.104 49.7694 L772.691 49.7694 M787.558 46.6907 L787.558 72.576 L780.104 72.576 L780.104 65.6895 Q777.552 69.8214 773.744 71.8063 Q769.937 73.7508 764.427 73.7508 Q757.46 73.7508 753.328 69.8619 Q749.236 65.9325 749.236 59.3701 Q749.236 51.7138 754.341 47.825 Q759.485 43.9361 769.653 43.9361 L780.104 43.9361 L780.104 43.2069 Q780.104 38.0623 776.702 35.2672 Q773.339 32.4315 767.222 32.4315 Q763.334 32.4315 759.647 33.3632 Q755.961 34.295 752.558 36.1584 L752.558 29.2718 Q756.65 27.692 760.498 26.9223 Q764.346 26.1121 767.992 26.1121 Q777.836 26.1121 782.697 31.2163 Q787.558 36.3204 787.558 46.6907 Z" fill="#000000" fill-rule="nonzero" fill-opacity="1" /><path clip-path="url(#clip790)" d="M829.201 34.1734 Q827.945 33.4443 826.447 33.1202 Q824.988 32.7556 823.206 32.7556 Q816.887 32.7556 813.484 36.8875 Q810.122 40.9789 810.122 48.6757 L810.122 72.576 L802.627 72.576 L802.627 27.2059 L810.122 27.2059 L810.122 34.2544 Q812.471 30.1225 816.238 28.1376 Q820.006 26.1121 825.393 26.1121 Q826.163 26.1121 827.095 26.2337 Q828.027 26.3147 829.161 26.5172 L829.201 34.1734 Z" fill="#000000" fill-rule="nonzero" fill-opacity="1" /><path clip-path="url(#clip790)" d="M892.395 44.2197 Q895.028 45.1109 897.5 48.0275 Q900.011 50.9442 902.523 56.0483 L910.827 72.576 L902.037 72.576 L894.299 57.061 Q891.302 50.9847 888.466 48.9997 Q885.671 47.0148 880.81 47.0148 L871.898 47.0148 L871.898 72.576 L863.715 72.576 L863.715 12.096 L882.187 12.096 Q892.557 12.096 897.662 16.4305 Q902.766 20.7649 902.766 29.5149 Q902.766 35.2267 900.092 38.994 Q897.459 42.7613 892.395 44.2197 M871.898 18.8205 L871.898 40.2903 L882.187 40.2903 Q888.101 40.2903 891.099 37.5762 Q894.137 34.8216 894.137 29.5149 Q894.137 24.2082 891.099 21.5346 Q888.101 18.8205 882.187 18.8205 L871.898 18.8205 Z" fill="#000000" fill-rule="nonzero" fill-opacity="1" /><path clip-path="url(#clip790)" d="M956.116 48.0275 L956.116 51.6733 L921.845 51.6733 Q922.332 59.3701 926.463 63.421 Q930.636 67.4314 938.049 67.4314 Q942.343 67.4314 946.353 66.3781 Q950.404 65.3249 954.374 63.2184 L954.374 70.267 Q950.364 71.9684 946.151 72.8596 Q941.938 73.7508 937.603 73.7508 Q926.747 73.7508 920.387 67.4314 Q914.068 61.1119 914.068 50.3365 Q914.068 39.1965 920.063 32.6746 Q926.099 26.1121 936.307 26.1121 Q945.462 26.1121 950.769 32.0264 Q956.116 37.9003 956.116 48.0275 M948.662 45.84 Q948.581 39.7232 945.219 36.0774 Q941.897 32.4315 936.388 32.4315 Q930.15 32.4315 926.382 35.9558 Q922.656 39.4801 922.089 45.8805 L948.662 45.84 Z" fill="#000000" fill-rule="nonzero" fill-opacity="1" /><path clip-path="url(#clip790)" d="M998.205 49.3643 Q998.205 41.2625 994.843 36.8065 Q991.521 32.3505 985.485 32.3505 Q979.49 32.3505 976.128 36.8065 Q972.806 41.2625 972.806 49.3643 Q972.806 57.4256 976.128 61.8816 Q979.49 66.3376 985.485 66.3376 Q991.521 66.3376 994.843 61.8816 Q998.205 57.4256 998.205 49.3643 M1005.66 66.9452 Q1005.66 78.5308 1000.51 84.1616 Q995.369 89.8329 984.756 89.8329 Q980.827 89.8329 977.343 89.2252 Q973.859 88.6581 970.578 87.4428 L970.578 80.1917 Q973.859 81.9741 977.059 82.8248 Q980.259 83.6755 983.581 83.6755 Q990.913 83.6755 994.559 79.8271 Q998.205 76.0193 998.205 68.282 L998.205 64.5957 Q995.896 68.6061 992.291 70.5911 Q988.685 72.576 983.662 72.576 Q975.317 72.576 970.213 66.2161 Q965.109 59.8562 965.109 49.3643 Q965.109 38.832 970.213 32.472 Q975.317 26.1121 983.662 26.1121 Q988.685 26.1121 992.291 28.0971 Q995.896 30.082 998.205 34.0924 L998.205 27.2059 L1005.66 27.2059 L1005.66 66.9452 Z" fill="#000000" fill-rule="nonzero" fill-opacity="1" /><path clip-path="url(#clip790)" d="M1047.3 34.1734 Q1046.05 33.4443 1044.55 33.1202 Q1043.09 32.7556 1041.31 32.7556 Q1034.99 32.7556 1031.58 36.8875 Q1028.22 40.9789 1028.22 48.6757 L1028.22 72.576 L1020.73 72.576 L1020.73 27.2059 L1028.22 27.2059 L1028.22 34.2544 Q1030.57 30.1225 1034.34 28.1376 Q1038.11 26.1121 1043.49 26.1121 Q1044.26 26.1121 1045.2 26.2337 Q1046.13 26.3147 1047.26 26.5172 L1047.3 34.1734 Z" fill="#000000" fill-rule="nonzero" fill-opacity="1" /><path clip-path="url(#clip790)" d="M1092.1 48.0275 L1092.1 51.6733 L1057.83 51.6733 Q1058.32 59.3701 1062.45 63.421 Q1066.62 67.4314 1074.04 67.4314 Q1078.33 67.4314 1082.34 66.3781 Q1086.39 65.3249 1090.36 63.2184 L1090.36 70.267 Q1086.35 71.9684 1082.14 72.8596 Q1077.93 73.7508 1073.59 73.7508 Q1062.74 73.7508 1056.38 67.4314 Q1050.06 61.1119 1050.06 50.3365 Q1050.06 39.1965 1056.05 32.6746 Q1062.09 26.1121 1072.3 26.1121 Q1081.45 26.1121 1086.76 32.0264 Q1092.1 37.9003 1092.1 48.0275 M1084.65 45.84 Q1084.57 39.7232 1081.21 36.0774 Q1077.89 32.4315 1072.38 32.4315 Q1066.14 32.4315 1062.37 35.9558 Q1058.64 39.4801 1058.08 45.8805 L1084.65 45.84 Z" fill="#000000" fill-rule="nonzero" fill-opacity="1" /><path clip-path="url(#clip790)" d="M1133.26 28.5427 L1133.26 35.5912 Q1130.1 33.9709 1126.7 33.1607 Q1123.3 32.3505 1119.65 32.3505 Q1114.1 32.3505 1111.31 34.0519 Q1108.55 35.7533 1108.55 39.156 Q1108.55 41.7486 1110.54 43.2475 Q1112.52 44.7058 1118.52 46.0426 L1121.07 46.6097 Q1129.01 48.3111 1132.33 51.4303 Q1135.69 54.509 1135.69 60.0587 Q1135.69 66.3781 1130.67 70.0644 Q1125.69 73.7508 1116.94 73.7508 Q1113.29 73.7508 1109.32 73.0216 Q1105.39 72.3329 1101.02 70.9151 L1101.02 63.2184 Q1105.15 65.3654 1109.16 66.4591 Q1113.17 67.5124 1117.1 67.5124 Q1122.37 67.5124 1125.2 65.73 Q1128.04 63.9071 1128.04 60.6258 Q1128.04 57.5877 1125.97 55.9673 Q1123.95 54.3469 1117.02 52.8481 L1114.43 52.2405 Q1107.5 50.7821 1104.42 47.7845 Q1101.34 44.7463 1101.34 39.4801 Q1101.34 33.0797 1105.88 29.5959 Q1110.42 26.1121 1118.76 26.1121 Q1122.89 26.1121 1126.54 26.7198 Q1130.18 27.3274 1133.26 28.5427 Z" fill="#000000" fill-rule="nonzero" fill-opacity="1" /><path clip-path="url(#clip790)" d="M1176.49 28.5427 L1176.49 35.5912 Q1173.33 33.9709 1169.92 33.1607 Q1166.52 32.3505 1162.87 32.3505 Q1157.32 32.3505 1154.53 34.0519 Q1151.77 35.7533 1151.77 39.156 Q1151.77 41.7486 1153.76 43.2475 Q1155.74 44.7058 1161.74 46.0426 L1164.29 46.6097 Q1172.23 48.3111 1175.55 51.4303 Q1178.92 54.509 1178.92 60.0587 Q1178.92 66.3781 1173.89 70.0644 Q1168.91 73.7508 1160.16 73.7508 Q1156.51 73.7508 1152.54 73.0216 Q1148.62 72.3329 1144.24 70.9151 L1144.24 63.2184 Q1148.37 65.3654 1152.38 66.4591 Q1156.39 67.5124 1160.32 67.5124 Q1165.59 67.5124 1168.42 65.73 Q1171.26 63.9071 1171.26 60.6258 Q1171.26 57.5877 1169.19 55.9673 Q1167.17 54.3469 1160.24 52.8481 L1157.65 52.2405 Q1150.72 50.7821 1147.64 47.7845 Q1144.56 44.7463 1144.56 39.4801 Q1144.56 33.0797 1149.1 29.5959 Q1153.64 26.1121 1161.98 26.1121 Q1166.11 26.1121 1169.76 26.7198 Q1173.41 27.3274 1176.49 28.5427 Z" fill="#000000" fill-rule="nonzero" fill-opacity="1" /><path clip-path="url(#clip790)" d="M1190.78 27.2059 L1198.24 27.2059 L1198.24 72.576 L1190.78 72.576 L1190.78 27.2059 M1190.78 9.54393 L1198.24 9.54393 L1198.24 18.9825 L1190.78 18.9825 L1190.78 9.54393 Z" fill="#000000" fill-rule="nonzero" fill-opacity="1" /><path clip-path="url(#clip790)" d="M1231.42 32.4315 Q1225.42 32.4315 1221.94 37.1306 Q1218.45 41.7891 1218.45 49.9314 Q1218.45 58.0738 1221.9 62.7728 Q1225.38 67.4314 1231.42 67.4314 Q1237.37 67.4314 1240.85 62.7323 Q1244.34 58.0333 1244.34 49.9314 Q1244.34 41.8701 1240.85 37.1711 Q1237.37 32.4315 1231.42 32.4315 M1231.42 26.1121 Q1241.14 26.1121 1246.69 32.4315 Q1252.24 38.7509 1252.24 49.9314 Q1252.24 61.0714 1246.69 67.4314 Q1241.14 73.7508 1231.42 73.7508 Q1221.65 73.7508 1216.1 67.4314 Q1210.59 61.0714 1210.59 49.9314 Q1210.59 38.7509 1216.1 32.4315 Q1221.65 26.1121 1231.42 26.1121 Z" fill="#000000" fill-rule="nonzero" fill-opacity="1" /><path clip-path="url(#clip790)" d="M1302.31 45.1919 L1302.31 72.576 L1294.85 72.576 L1294.85 45.4349 Q1294.85 38.994 1292.34 35.7938 Q1289.83 32.5936 1284.81 32.5936 Q1278.77 32.5936 1275.29 36.4419 Q1271.8 40.2903 1271.8 46.9338 L1271.8 72.576 L1264.31 72.576 L1264.31 27.2059 L1271.8 27.2059 L1271.8 34.2544 Q1274.48 30.163 1278.08 28.1376 Q1281.73 26.1121 1286.47 26.1121 Q1294.29 26.1121 1298.3 30.9732 Q1302.31 35.7938 1302.31 45.1919 Z" fill="#000000" fill-rule="nonzero" fill-opacity="1" /><path clip-path="url(#clip790)" d="M1319.08 62.2867 L1327.62 62.2867 L1327.62 72.576 L1319.08 72.576 L1319.08 62.2867 M1319.08 29.6769 L1327.62 29.6769 L1327.62 39.9662 L1319.08 39.9662 L1319.08 29.6769 Z" fill="#000000" fill-rule="nonzero" fill-opacity="1" /><path clip-path="url(#clip790)" d="M1371.82 12.096 L1384.01 12.096 L1399.45 53.2532 L1414.96 12.096 L1427.16 12.096 L1427.16 72.576 L1419.17 72.576 L1419.17 19.4686 L1403.58 60.9499 L1395.36 60.9499 L1379.76 19.4686 L1379.76 72.576 L1371.82 72.576 L1371.82 12.096 Z" fill="#000000" fill-rule="nonzero" fill-opacity="1" /><path clip-path="url(#clip790)" d="M1472.08 44.2197 Q1474.71 45.1109 1477.18 48.0275 Q1479.7 50.9442 1482.21 56.0483 L1490.51 72.576 L1481.72 72.576 L1473.98 57.061 Q1470.99 50.9847 1468.15 48.9997 Q1465.36 47.0148 1460.49 47.0148 L1451.58 47.0148 L1451.58 72.576 L1443.4 72.576 L1443.4 12.096 L1461.87 12.096 Q1472.24 12.096 1477.35 16.4305 Q1482.45 20.7649 1482.45 29.5149 Q1482.45 35.2267 1479.78 38.994 Q1477.14 42.7613 1472.08 44.2197 M1451.58 18.8205 L1451.58 40.2903 L1461.87 40.2903 Q1467.79 40.2903 1470.78 37.5762 Q1473.82 34.8216 1473.82 29.5149 Q1473.82 24.2082 1470.78 21.5346 Q1467.79 18.8205 1461.87 18.8205 L1451.58 18.8205 Z" fill="#000000" fill-rule="nonzero" fill-opacity="1" /><path clip-path="url(#clip790)" d="M1517.9 20.1573 L1506.8 50.2555 L1529.04 50.2555 L1517.9 20.1573 M1513.28 12.096 L1522.55 12.096 L1545.6 72.576 L1537.1 72.576 L1531.59 57.061 L1504.32 57.061 L1498.82 72.576 L1490.19 72.576 L1513.28 12.096 Z" fill="#000000" fill-rule="nonzero" fill-opacity="1" /><path clip-path="url(#clip790)" d="M1554.43 12.096 L1592.68 12.096 L1592.68 18.9825 L1562.62 18.9825 L1562.62 36.8875 L1591.42 36.8875 L1591.42 43.7741 L1562.62 43.7741 L1562.62 65.6895 L1593.4 65.6895 L1593.4 72.576 L1554.43 72.576 L1554.43 12.096 Z" fill="#000000" fill-rule="nonzero" fill-opacity="1" /><path clip-path="url(#clip790)" d="M1629.5 9.54393 L1629.5 15.7418 L1622.37 15.7418 Q1618.36 15.7418 1616.78 17.3622 Q1615.24 18.9825 1615.24 23.1955 L1615.24 27.2059 L1627.51 27.2059 L1627.51 32.9987 L1615.24 32.9987 L1615.24 72.576 L1607.74 72.576 L1607.74 32.9987 L1600.61 32.9987 L1600.61 27.2059 L1607.74 27.2059 L1607.74 24.0462 Q1607.74 16.471 1611.27 13.0277 Q1614.79 9.54393 1622.45 9.54393 L1629.5 9.54393 Z" fill="#000000" fill-rule="nonzero" fill-opacity="1" /><path clip-path="url(#clip790)" d="M1656.76 27.2059 L1664.66 27.2059 L1678.84 65.2844 L1693.02 27.2059 L1700.92 27.2059 L1683.9 72.576 L1673.77 72.576 L1656.76 27.2059 Z" fill="#000000" fill-rule="nonzero" fill-opacity="1" /><path clip-path="url(#clip790)" d="M1740.13 28.5427 L1740.13 35.5912 Q1736.97 33.9709 1733.57 33.1607 Q1730.16 32.3505 1726.52 32.3505 Q1720.97 32.3505 1718.17 34.0519 Q1715.42 35.7533 1715.42 39.156 Q1715.42 41.7486 1717.4 43.2475 Q1719.39 44.7058 1725.38 46.0426 L1727.93 46.6097 Q1735.87 48.3111 1739.2 51.4303 Q1742.56 54.509 1742.56 60.0587 Q1742.56 66.3781 1737.54 70.0644 Q1732.55 73.7508 1723.8 73.7508 Q1720.16 73.7508 1716.19 73.0216 Q1712.26 72.3329 1707.88 70.9151 L1707.88 63.2184 Q1712.01 65.3654 1716.03 66.4591 Q1720.04 67.5124 1723.96 67.5124 Q1729.23 67.5124 1732.07 65.73 Q1734.9 63.9071 1734.9 60.6258 Q1734.9 57.5877 1732.84 55.9673 Q1730.81 54.3469 1723.88 52.8481 L1721.29 52.2405 Q1714.36 50.7821 1711.29 47.7845 Q1708.21 44.7463 1708.21 39.4801 Q1708.21 33.0797 1712.74 29.5959 Q1717.28 26.1121 1725.63 26.1121 Q1729.76 26.1121 1733.4 26.7198 Q1737.05 27.3274 1740.13 28.5427 Z" fill="#000000" fill-rule="nonzero" fill-opacity="1" /><path clip-path="url(#clip790)" d="M1781.12 12.096 L1789.31 12.096 L1789.31 36.8875 L1819.04 36.8875 L1819.04 12.096 L1827.22 12.096 L1827.22 72.576 L1819.04 72.576 L1819.04 43.7741 L1789.31 43.7741 L1789.31 72.576 L1781.12 72.576 L1781.12 12.096 Z" fill="#000000" fill-rule="nonzero" fill-opacity="1" /><path clip-path="url(#clip790)" d="M1860.76 32.4315 Q1854.77 32.4315 1851.28 37.1306 Q1847.8 41.7891 1847.8 49.9314 Q1847.8 58.0738 1851.24 62.7728 Q1854.73 67.4314 1860.76 67.4314 Q1866.72 67.4314 1870.2 62.7323 Q1873.69 58.0333 1873.69 49.9314 Q1873.69 41.8701 1870.2 37.1711 Q1866.72 32.4315 1860.76 32.4315 M1860.76 26.1121 Q1870.49 26.1121 1876.04 32.4315 Q1881.59 38.7509 1881.59 49.9314 Q1881.59 61.0714 1876.04 67.4314 Q1870.49 73.7508 1860.76 73.7508 Q1851 73.7508 1845.45 67.4314 Q1839.94 61.0714 1839.94 49.9314 Q1839.94 38.7509 1845.45 32.4315 Q1851 26.1121 1860.76 26.1121 Z" fill="#000000" fill-rule="nonzero" fill-opacity="1" /><path clip-path="url(#clip790)" d="M1920.23 34.1734 Q1918.98 33.4443 1917.48 33.1202 Q1916.02 32.7556 1914.24 32.7556 Q1907.92 32.7556 1904.51 36.8875 Q1901.15 40.9789 1901.15 48.6757 L1901.15 72.576 L1893.66 72.576 L1893.66 27.2059 L1901.15 27.2059 L1901.15 34.2544 Q1903.5 30.1225 1907.27 28.1376 Q1911.04 26.1121 1916.42 26.1121 Q1917.19 26.1121 1918.12 26.2337 Q1919.06 26.3147 1920.19 26.5172 L1920.23 34.1734 Z" fill="#000000" fill-rule="nonzero" fill-opacity="1" /><path clip-path="url(#clip790)" d="M1928.05 27.2059 L1935.5 27.2059 L1935.5 72.576 L1928.05 72.576 L1928.05 27.2059 M1928.05 9.54393 L1935.5 9.54393 L1935.5 18.9825 L1928.05 18.9825 L1928.05 9.54393 Z" fill="#000000" fill-rule="nonzero" fill-opacity="1" /><path clip-path="url(#clip790)" d="M1947.86 27.2059 L1983.26 27.2059 L1983.26 34.0114 L1955.23 66.6212 L1983.26 66.6212 L1983.26 72.576 L1946.85 72.576 L1946.85 65.7705 L1974.88 33.1607 L1947.86 33.1607 L1947.86 27.2059 Z" fill="#000000" fill-rule="nonzero" fill-opacity="1" /><path clip-path="url(#clip790)" d="M2012.23 32.4315 Q2006.23 32.4315 2002.75 37.1306 Q1999.26 41.7891 1999.26 49.9314 Q1999.26 58.0738 2002.71 62.7728 Q2006.19 67.4314 2012.23 67.4314 Q2018.18 67.4314 2021.67 62.7323 Q2025.15 58.0333 2025.15 49.9314 Q2025.15 41.8701 2021.67 37.1711 Q2018.18 32.4315 2012.23 32.4315 M2012.23 26.1121 Q2021.95 26.1121 2027.5 32.4315 Q2033.05 38.7509 2033.05 49.9314 Q2033.05 61.0714 2027.5 67.4314 Q2021.95 73.7508 2012.23 73.7508 Q2002.46 73.7508 1996.91 67.4314 Q1991.41 61.0714 1991.41 49.9314 Q1991.41 38.7509 1996.91 32.4315 Q2002.46 26.1121 2012.23 26.1121 Z" fill="#000000" fill-rule="nonzero" fill-opacity="1" /><path clip-path="url(#clip790)" d="M2083.12 45.1919 L2083.12 72.576 L2075.66 72.576 L2075.66 45.4349 Q2075.66 38.994 2073.15 35.7938 Q2070.64 32.5936 2065.62 32.5936 Q2059.58 32.5936 2056.1 36.4419 Q2052.61 40.2903 2052.61 46.9338 L2052.61 72.576 L2045.12 72.576 L2045.12 27.2059 L2052.61 27.2059 L2052.61 34.2544 Q2055.29 30.163 2058.89 28.1376 Q2062.54 26.1121 2067.28 26.1121 Q2075.1 26.1121 2079.11 30.9732 Q2083.12 35.7938 2083.12 45.1919 Z" fill="#000000" fill-rule="nonzero" fill-opacity="1" /><circle clip-path="url(#clip792)" cx="367.683" cy="160.256" r="14.4" fill="#009af9" fill-rule="evenodd" fill-opacity="1" stroke="#000000" stroke-opacity="1" stroke-width="3.2"/>
<circle clip-path="url(#clip792)" cx="574.175" cy="661.396" r="14.4" fill="#009af9" fill-rule="evenodd" fill-opacity="1" stroke="#000000" stroke-opacity="1" stroke-width="3.2"/>
<circle clip-path="url(#clip792)" cx="918.328" cy="851.925" r="14.4" fill="#009af9" fill-rule="evenodd" fill-opacity="1" stroke="#000000" stroke-opacity="1" stroke-width="3.2"/>
<circle clip-path="url(#clip792)" cx="1262.48" cy="988.971" r="14.4" fill="#009af9" fill-rule="evenodd" fill-opacity="1" stroke="#000000" stroke-opacity="1" stroke-width="3.2"/>
<circle clip-path="url(#clip792)" cx="1606.63" cy="1222.52" r="14.4" fill="#009af9" fill-rule="evenodd" fill-opacity="1" stroke="#000000" stroke-opacity="1" stroke-width="3.2"/>
<circle clip-path="url(#clip792)" cx="2294.94" cy="1386.4" r="14.4" fill="#009af9" fill-rule="evenodd" fill-opacity="1" stroke="#000000" stroke-opacity="1" stroke-width="3.2"/>
<circle clip-path="url(#clip792)" cx="367.683" cy="433.916" r="14.4" fill="#e26f46" fill-rule="evenodd" fill-opacity="1" stroke="#000000" stroke-opacity="1" stroke-width="3.2"/>
<circle clip-path="url(#clip792)" cx="574.175" cy="870.923" r="14.4" fill="#e26f46" fill-rule="evenodd" fill-opacity="1" stroke="#000000" stroke-opacity="1" stroke-width="3.2"/>
<circle clip-path="url(#clip792)" cx="918.328" cy="961.625" r="14.4" fill="#e26f46" fill-rule="evenodd" fill-opacity="1" stroke="#000000" stroke-opacity="1" stroke-width="3.2"/>
<circle clip-path="url(#clip792)" cx="1262.48" cy="1033.63" r="14.4" fill="#e26f46" fill-rule="evenodd" fill-opacity="1" stroke="#000000" stroke-opacity="1" stroke-width="3.2"/>
<circle clip-path="url(#clip792)" cx="1606.63" cy="1250.83" r="14.4" fill="#e26f46" fill-rule="evenodd" fill-opacity="1" stroke="#000000" stroke-opacity="1" stroke-width="3.2"/>
<circle clip-path="url(#clip792)" cx="2294.94" cy="1385.82" r="14.4" fill="#e26f46" fill-rule="evenodd" fill-opacity="1" stroke="#000000" stroke-opacity="1" stroke-width="3.2"/>
<path clip-path="url(#clip790)" d="M1775.12 322.316 L2284.66 322.316 L2284.66 166.796 L1775.12 166.796  Z" fill="#ffffff" fill-rule="evenodd" fill-opacity="1"/>
<polyline clip-path="url(#clip790)" style="stroke:#000000; stroke-linecap:round; stroke-linejoin:round; stroke-width:4; stroke-opacity:1; fill:none" points="1775.12,322.316 2284.66,322.316 2284.66,166.796 1775.12,166.796 1775.12,322.316 "/>
<circle clip-path="url(#clip790)" cx="1865.91" cy="218.636" r="20.48" fill="#009af9" fill-rule="evenodd" fill-opacity="1" stroke="#000000" stroke-opacity="1" stroke-width="4.55111"/>
<path clip-path="url(#clip790)" d="M1964.12 202.629 L1964.12 209.99 L1972.89 209.99 L1972.89 213.3 L1964.12 213.3 L1964.12 227.374 Q1964.12 230.545 1964.97 231.448 Q1965.85 232.351 1968.51 232.351 L1972.89 232.351 L1972.89 235.916 L1968.51 235.916 Q1963.58 235.916 1961.71 234.087 Q1959.83 232.235 1959.83 227.374 L1959.83 213.3 L1956.71 213.3 L1956.71 209.99 L1959.83 209.99 L1959.83 202.629 L1964.12 202.629 Z" fill="#000000" fill-rule="nonzero" fill-opacity="1" /><path clip-path="url(#clip790)" d="M1993.51 213.971 Q1992.8 213.555 1991.94 213.37 Q1991.11 213.161 1990.09 213.161 Q1986.48 213.161 1984.53 215.522 Q1982.61 217.86 1982.61 222.258 L1982.61 235.916 L1978.33 235.916 L1978.33 209.99 L1982.61 209.99 L1982.61 214.018 Q1983.95 211.657 1986.11 210.522 Q1988.26 209.365 1991.34 209.365 Q1991.78 209.365 1992.31 209.434 Q1992.84 209.481 1993.49 209.596 L1993.51 213.971 Z" fill="#000000" fill-rule="nonzero" fill-opacity="1" /><path clip-path="url(#clip790)" d="M2009.76 222.883 Q2004.6 222.883 2002.61 224.064 Q2000.62 225.244 2000.62 228.092 Q2000.62 230.36 2002.1 231.703 Q2003.61 233.022 2006.18 233.022 Q2009.72 233.022 2011.85 230.522 Q2014 227.999 2014 223.832 L2014 222.883 L2009.76 222.883 M2018.26 221.124 L2018.26 235.916 L2014 235.916 L2014 231.981 Q2012.54 234.342 2010.36 235.476 Q2008.19 236.587 2005.04 236.587 Q2001.06 236.587 1998.7 234.365 Q1996.36 232.119 1996.36 228.369 Q1996.36 223.994 1999.28 221.772 Q2002.22 219.55 2008.03 219.55 L2014 219.55 L2014 219.133 Q2014 216.194 2012.05 214.596 Q2010.13 212.976 2006.64 212.976 Q2004.42 212.976 2002.31 213.508 Q2000.2 214.041 1998.26 215.106 L1998.26 211.17 Q2000.6 210.268 2002.8 209.828 Q2004.99 209.365 2007.08 209.365 Q2012.7 209.365 2015.48 212.282 Q2018.26 215.198 2018.26 221.124 Z" fill="#000000" fill-rule="nonzero" fill-opacity="1" /><path clip-path="url(#clip790)" d="M2027.03 209.99 L2031.29 209.99 L2031.29 235.916 L2027.03 235.916 L2027.03 209.99 M2027.03 199.897 L2031.29 199.897 L2031.29 205.291 L2027.03 205.291 L2027.03 199.897 Z" fill="#000000" fill-rule="nonzero" fill-opacity="1" /><path clip-path="url(#clip790)" d="M2061.75 220.268 L2061.75 235.916 L2057.49 235.916 L2057.49 220.407 Q2057.49 216.726 2056.06 214.897 Q2054.62 213.069 2051.75 213.069 Q2048.3 213.069 2046.31 215.268 Q2044.32 217.467 2044.32 221.263 L2044.32 235.916 L2040.04 235.916 L2040.04 209.99 L2044.32 209.99 L2044.32 214.018 Q2045.85 211.68 2047.91 210.522 Q2049.99 209.365 2052.7 209.365 Q2057.17 209.365 2059.46 212.143 Q2061.75 214.897 2061.75 220.268 Z" fill="#000000" fill-rule="nonzero" fill-opacity="1" /><path clip-path="url(#clip790)" d="M2070.25 209.99 L2074.51 209.99 L2074.51 235.916 L2070.25 235.916 L2070.25 209.99 M2070.25 199.897 L2074.51 199.897 L2074.51 205.291 L2070.25 205.291 L2070.25 199.897 Z" fill="#000000" fill-rule="nonzero" fill-opacity="1" /><path clip-path="url(#clip790)" d="M2104.97 220.268 L2104.97 235.916 L2100.71 235.916 L2100.71 220.407 Q2100.71 216.726 2099.28 214.897 Q2097.84 213.069 2094.97 213.069 Q2091.52 213.069 2089.53 215.268 Q2087.54 217.467 2087.54 221.263 L2087.54 235.916 L2083.26 235.916 L2083.26 209.99 L2087.54 209.99 L2087.54 214.018 Q2089.07 211.68 2091.13 210.522 Q2093.21 209.365 2095.92 209.365 Q2100.39 209.365 2102.68 212.143 Q2104.97 214.897 2104.97 220.268 Z" fill="#000000" fill-rule="nonzero" fill-opacity="1" /><path clip-path="url(#clip790)" d="M2130.53 222.652 Q2130.53 218.022 2128.61 215.476 Q2126.71 212.93 2123.26 212.93 Q2119.83 212.93 2117.91 215.476 Q2116.01 218.022 2116.01 222.652 Q2116.01 227.258 2117.91 229.805 Q2119.83 232.351 2123.26 232.351 Q2126.71 232.351 2128.61 229.805 Q2130.53 227.258 2130.53 222.652 M2134.79 232.698 Q2134.79 239.318 2131.85 242.536 Q2128.91 245.777 2122.84 245.777 Q2120.6 245.777 2118.61 245.43 Q2116.61 245.105 2114.74 244.411 L2114.74 240.268 Q2116.61 241.286 2118.44 241.772 Q2120.27 242.258 2122.17 242.258 Q2126.36 242.258 2128.44 240.059 Q2130.53 237.883 2130.53 233.462 L2130.53 231.356 Q2129.21 233.647 2127.15 234.781 Q2125.09 235.916 2122.22 235.916 Q2117.45 235.916 2114.53 232.281 Q2111.61 228.647 2111.61 222.652 Q2111.61 216.633 2114.53 212.999 Q2117.45 209.365 2122.22 209.365 Q2125.09 209.365 2127.15 210.499 Q2129.21 211.633 2130.53 213.925 L2130.53 209.99 L2134.79 209.99 L2134.79 232.698 Z" fill="#000000" fill-rule="nonzero" fill-opacity="1" /><path clip-path="url(#clip790)" d="M2156.48 221.032 L2168.95 221.032 L2168.95 224.828 L2156.48 224.828 L2156.48 221.032 Z" fill="#000000" fill-rule="nonzero" fill-opacity="1" /><path clip-path="url(#clip790)" d="M2191.45 201.356 L2209.81 201.356 L2209.81 205.291 L2195.73 205.291 L2195.73 213.763 Q2196.75 213.416 2197.77 213.254 Q2198.79 213.069 2199.81 213.069 Q2205.6 213.069 2208.97 216.24 Q2212.35 219.411 2212.35 224.828 Q2212.35 230.406 2208.88 233.508 Q2205.41 236.587 2199.09 236.587 Q2196.91 236.587 2194.65 236.217 Q2192.4 235.846 2189.99 235.106 L2189.99 230.406 Q2192.08 231.541 2194.3 232.096 Q2196.52 232.652 2199 232.652 Q2203 232.652 2205.34 230.545 Q2207.68 228.439 2207.68 224.828 Q2207.68 221.217 2205.34 219.11 Q2203 217.004 2199 217.004 Q2197.12 217.004 2195.25 217.42 Q2193.4 217.837 2191.45 218.717 L2191.45 201.356 Z" fill="#000000" fill-rule="nonzero" fill-opacity="1" /><circle clip-path="url(#clip790)" cx="1865.91" cy="270.476" r="20.48" fill="#e26f46" fill-rule="evenodd" fill-opacity="1" stroke="#000000" stroke-opacity="1" stroke-width="4.55111"/>
<path clip-path="url(#clip790)" d="M1956.71 261.83 L1961.22 261.83 L1969.32 283.589 L1977.43 261.83 L1981.94 261.83 L1972.22 287.756 L1966.43 287.756 L1956.71 261.83 Z" fill="#000000" fill-rule="nonzero" fill-opacity="1" /><path clip-path="url(#clip790)" d="M1999.6 274.723 Q1994.44 274.723 1992.45 275.904 Q1990.46 277.084 1990.46 279.932 Q1990.46 282.2 1991.94 283.543 Q1993.44 284.862 1996.01 284.862 Q1999.55 284.862 2001.68 282.362 Q2003.84 279.839 2003.84 275.672 L2003.84 274.723 L1999.6 274.723 M2008.1 272.964 L2008.1 287.756 L2003.84 287.756 L2003.84 283.821 Q2002.38 286.182 2000.2 287.316 Q1998.03 288.427 1994.88 288.427 Q1990.9 288.427 1988.54 286.205 Q1986.2 283.959 1986.2 280.209 Q1986.2 275.834 1989.12 273.612 Q1992.05 271.39 1997.86 271.39 L2003.84 271.39 L2003.84 270.973 Q2003.84 268.034 2001.89 266.436 Q1999.97 264.816 1996.48 264.816 Q1994.25 264.816 1992.15 265.348 Q1990.04 265.881 1988.1 266.946 L1988.1 263.01 Q1990.43 262.108 1992.63 261.668 Q1994.83 261.205 1996.92 261.205 Q2002.54 261.205 2005.32 264.122 Q2008.1 267.038 2008.1 272.964 Z" fill="#000000" fill-rule="nonzero" fill-opacity="1" /><path clip-path="url(#clip790)" d="M2016.87 251.737 L2021.13 251.737 L2021.13 287.756 L2016.87 287.756 L2016.87 251.737 Z" fill="#000000" fill-rule="nonzero" fill-opacity="1" /><path clip-path="url(#clip790)" d="M2030.04 261.83 L2034.3 261.83 L2034.3 287.756 L2030.04 287.756 L2030.04 261.83 M2030.04 251.737 L2034.3 251.737 L2034.3 257.131 L2030.04 257.131 L2030.04 251.737 Z" fill="#000000" fill-rule="nonzero" fill-opacity="1" /><path clip-path="url(#clip790)" d="M2060.27 265.765 L2060.27 251.737 L2064.53 251.737 L2064.53 287.756 L2060.27 287.756 L2060.27 283.867 Q2058.93 286.182 2056.87 287.316 Q2054.83 288.427 2051.96 288.427 Q2047.26 288.427 2044.3 284.677 Q2041.36 280.927 2041.36 274.816 Q2041.36 268.705 2044.3 264.955 Q2047.26 261.205 2051.96 261.205 Q2054.83 261.205 2056.87 262.339 Q2058.93 263.45 2060.27 265.765 M2045.76 274.816 Q2045.76 279.515 2047.68 282.2 Q2049.62 284.862 2053 284.862 Q2056.38 284.862 2058.33 282.2 Q2060.27 279.515 2060.27 274.816 Q2060.27 270.117 2058.33 267.455 Q2056.38 264.77 2053 264.77 Q2049.62 264.77 2047.68 267.455 Q2045.76 270.117 2045.76 274.816 Z" fill="#000000" fill-rule="nonzero" fill-opacity="1" /><path clip-path="url(#clip790)" d="M2085.09 274.723 Q2079.92 274.723 2077.93 275.904 Q2075.94 277.084 2075.94 279.932 Q2075.94 282.2 2077.42 283.543 Q2078.93 284.862 2081.5 284.862 Q2085.04 284.862 2087.17 282.362 Q2089.32 279.839 2089.32 275.672 L2089.32 274.723 L2085.09 274.723 M2093.58 272.964 L2093.58 287.756 L2089.32 287.756 L2089.32 283.821 Q2087.86 286.182 2085.69 287.316 Q2083.51 288.427 2080.36 288.427 Q2076.38 288.427 2074.02 286.205 Q2071.68 283.959 2071.68 280.209 Q2071.68 275.834 2074.6 273.612 Q2077.54 271.39 2083.35 271.39 L2089.32 271.39 L2089.32 270.973 Q2089.32 268.034 2087.38 266.436 Q2085.46 264.816 2081.96 264.816 Q2079.74 264.816 2077.63 265.348 Q2075.53 265.881 2073.58 266.946 L2073.58 263.01 Q2075.92 262.108 2078.12 261.668 Q2080.32 261.205 2082.4 261.205 Q2088.03 261.205 2090.8 264.122 Q2093.58 267.038 2093.58 272.964 Z" fill="#000000" fill-rule="nonzero" fill-opacity="1" /><path clip-path="url(#clip790)" d="M2106.57 254.469 L2106.57 261.83 L2115.34 261.83 L2115.34 265.14 L2106.57 265.14 L2106.57 279.214 Q2106.57 282.385 2107.42 283.288 Q2108.3 284.191 2110.97 284.191 L2115.34 284.191 L2115.34 287.756 L2110.97 287.756 Q2106.04 287.756 2104.16 285.927 Q2102.29 284.075 2102.29 279.214 L2102.29 265.14 L2099.16 265.14 L2099.16 261.83 L2102.29 261.83 L2102.29 254.469 L2106.57 254.469 Z" fill="#000000" fill-rule="nonzero" fill-opacity="1" /><path clip-path="url(#clip790)" d="M2120.94 261.83 L2125.2 261.83 L2125.2 287.756 L2120.94 287.756 L2120.94 261.83 M2120.94 251.737 L2125.2 251.737 L2125.2 257.131 L2120.94 257.131 L2120.94 251.737 Z" fill="#000000" fill-rule="nonzero" fill-opacity="1" /><path clip-path="url(#clip790)" d="M2144.16 264.816 Q2140.73 264.816 2138.74 267.501 Q2136.75 270.163 2136.75 274.816 Q2136.75 279.469 2138.72 282.154 Q2140.71 284.816 2144.16 284.816 Q2147.56 284.816 2149.55 282.131 Q2151.54 279.446 2151.54 274.816 Q2151.54 270.21 2149.55 267.524 Q2147.56 264.816 2144.16 264.816 M2144.16 261.205 Q2149.72 261.205 2152.89 264.816 Q2156.06 268.427 2156.06 274.816 Q2156.06 281.182 2152.89 284.816 Q2149.72 288.427 2144.16 288.427 Q2138.58 288.427 2135.41 284.816 Q2132.26 281.182 2132.26 274.816 Q2132.26 268.427 2135.41 264.816 Q2138.58 261.205 2144.16 261.205 Z" fill="#000000" fill-rule="nonzero" fill-opacity="1" /><path clip-path="url(#clip790)" d="M2184.67 272.108 L2184.67 287.756 L2180.41 287.756 L2180.41 272.247 Q2180.41 268.566 2178.98 266.737 Q2177.54 264.909 2174.67 264.909 Q2171.22 264.909 2169.23 267.108 Q2167.24 269.307 2167.24 273.103 L2167.24 287.756 L2162.96 287.756 L2162.96 261.83 L2167.24 261.83 L2167.24 265.858 Q2168.77 263.52 2170.83 262.362 Q2172.91 261.205 2175.62 261.205 Q2180.09 261.205 2182.38 263.983 Q2184.67 266.737 2184.67 272.108 Z" fill="#000000" fill-rule="nonzero" fill-opacity="1" /><path clip-path="url(#clip790)" d="M2206.08 272.872 L2218.56 272.872 L2218.56 276.668 L2206.08 276.668 L2206.08 272.872 Z" fill="#000000" fill-rule="nonzero" fill-opacity="1" /><path clip-path="url(#clip790)" d="M2241.06 253.196 L2259.41 253.196 L2259.41 257.131 L2245.34 257.131 L2245.34 265.603 Q2246.36 265.256 2247.38 265.094 Q2248.4 264.909 2249.41 264.909 Q2255.2 264.909 2258.58 268.08 Q2261.96 271.251 2261.96 276.668 Q2261.96 282.246 2258.49 285.348 Q2255.02 288.427 2248.7 288.427 Q2246.52 288.427 2244.25 288.057 Q2242.01 287.686 2239.6 286.946 L2239.6 282.246 Q2241.68 283.381 2243.91 283.936 Q2246.13 284.492 2248.6 284.492 Q2252.61 284.492 2254.95 282.385 Q2257.28 280.279 2257.28 276.668 Q2257.28 273.057 2254.95 270.95 Q2252.61 268.844 2248.6 268.844 Q2246.73 268.844 2244.85 269.26 Q2243 269.677 2241.06 270.557 L2241.06 253.196 Z" fill="#000000" fill-rule="nonzero" fill-opacity="1" /></svg>
