<?xml version="1.0" encoding="utf-8"?>
<svg xmlns="http://www.w3.org/2000/svg" xmlns:xlink="http://www.w3.org/1999/xlink" width="600" height="400" viewBox="0 0 2400 1600">
<defs>
  <clipPath id="clip870">
    <rect x="0" y="0" width="2400" height="1600"/>
  </clipPath>
</defs>
<path clip-path="url(#clip870)" d="M0 1600 L2400 1600 L2400 0 L0 0  Z" fill="#ffffff" fill-rule="evenodd" fill-opacity="1"/>
<defs>
  <clipPath id="clip871">
    <rect x="480" y="0" width="1681" height="1600"/>
  </clipPath>
</defs>
<path clip-path="url(#clip870)" d="M340.028 1423.18 L2352.76 1423.18 L2352.76 123.472 L340.028 123.472  Z" fill="#ffffff" fill-rule="evenodd" fill-opacity="1"/>
<defs>
  <clipPath id="clip872">
    <rect x="340" y="123" width="2014" height="1301"/>
  </clipPath>
</defs>
<polyline clip-path="url(#clip872)" style="stroke:#000000; stroke-linecap:round; stroke-linejoin:round; stroke-width:2; stroke-opacity:0.1; fill:none" points="362.468,1423.18 362.468,123.472 "/>
<polyline clip-path="url(#clip872)" style="stroke:#000000; stroke-linecap:round; stroke-linejoin:round; stroke-width:2; stroke-opacity:0.1; fill:none" points="707.704,1423.18 707.704,123.472 "/>
<polyline clip-path="url(#clip872)" style="stroke:#000000; stroke-linecap:round; stroke-linejoin:round; stroke-width:2; stroke-opacity:0.1; fill:none" points="1052.94,1423.18 1052.94,123.472 "/>
<polyline clip-path="url(#clip872)" style="stroke:#000000; stroke-linecap:round; stroke-linejoin:round; stroke-width:2; stroke-opacity:0.1; fill:none" points="1398.18,1423.18 1398.18,123.472 "/>
<polyline clip-path="url(#clip872)" style="stroke:#000000; stroke-linecap:round; stroke-linejoin:round; stroke-width:2; stroke-opacity:0.1; fill:none" points="1743.41,1423.18 1743.41,123.472 "/>
<polyline clip-path="url(#clip872)" style="stroke:#000000; stroke-linecap:round; stroke-linejoin:round; stroke-width:2; stroke-opacity:0.1; fill:none" points="2088.65,1423.18 2088.65,123.472 "/>
<polyline clip-path="url(#clip870)" style="stroke:#000000; stroke-linecap:round; stroke-linejoin:round; stroke-width:4; stroke-opacity:1; fill:none" points="340.028,1423.18 2352.76,1423.18 "/>
<polyline clip-path="url(#clip870)" style="stroke:#000000; stroke-linecap:round; stroke-linejoin:round; stroke-width:4; stroke-opacity:1; fill:none" points="362.468,1423.18 362.468,1404.28 "/>
<polyline clip-path="url(#clip870)" style="stroke:#000000; stroke-linecap:round; stroke-linejoin:round; stroke-width:4; stroke-opacity:1; fill:none" points="707.704,1423.18 707.704,1404.28 "/>
<polyline clip-path="url(#clip870)" style="stroke:#000000; stroke-linecap:round; stroke-linejoin:round; stroke-width:4; stroke-opacity:1; fill:none" points="1052.94,1423.18 1052.94,1404.28 "/>
<polyline clip-path="url(#clip870)" style="stroke:#000000; stroke-linecap:round; stroke-linejoin:round; stroke-width:4; stroke-opacity:1; fill:none" points="1398.18,1423.18 1398.18,1404.28 "/>
<polyline clip-path="url(#clip870)" style="stroke:#000000; stroke-linecap:round; stroke-linejoin:round; stroke-width:4; stroke-opacity:1; fill:none" points="1743.41,1423.18 1743.41,1404.28 "/>
<polyline clip-path="url(#clip870)" style="stroke:#000000; stroke-linecap:round; stroke-linejoin:round; stroke-width:4; stroke-opacity:1; fill:none" points="2088.65,1423.18 2088.65,1404.28 "/>
<path clip-path="url(#clip870)" d="M362.468 1454.1 Q358.857 1454.1 357.028 1457.66 Q355.223 1461.2 355.223 1468.33 Q355.223 1475.44 357.028 1479.01 Q358.857 1482.55 362.468 1482.55 Q366.102 1482.55 367.908 1479.01 Q369.737 1475.44 369.737 1468.33 Q369.737 1461.2 367.908 1457.66 Q366.102 1454.1 362.468 1454.1 M362.468 1450.39 Q368.278 1450.39 371.334 1455 Q374.412 1459.58 374.412 1468.33 Q374.412 1477.06 371.334 1481.67 Q368.278 1486.25 362.468 1486.25 Q356.658 1486.25 353.579 1481.67 Q350.524 1477.06 350.524 1468.33 Q350.524 1459.58 353.579 1455 Q356.658 1450.39 362.468 1450.39 Z" fill="#000000" fill-rule="nonzero" fill-opacity="1" /><path clip-path="url(#clip870)" d="M682.392 1481.64 L690.031 1481.64 L690.031 1455.28 L681.721 1456.95 L681.721 1452.69 L689.985 1451.02 L694.661 1451.02 L694.661 1481.64 L702.299 1481.64 L702.299 1485.58 L682.392 1485.58 L682.392 1481.64 Z" fill="#000000" fill-rule="nonzero" fill-opacity="1" /><path clip-path="url(#clip870)" d="M721.744 1454.1 Q718.133 1454.1 716.304 1457.66 Q714.498 1461.2 714.498 1468.33 Q714.498 1475.44 716.304 1479.01 Q718.133 1482.55 721.744 1482.55 Q725.378 1482.55 727.183 1479.01 Q729.012 1475.44 729.012 1468.33 Q729.012 1461.2 727.183 1457.66 Q725.378 1454.1 721.744 1454.1 M721.744 1450.39 Q727.554 1450.39 730.609 1455 Q733.688 1459.58 733.688 1468.33 Q733.688 1477.06 730.609 1481.67 Q727.554 1486.25 721.744 1486.25 Q715.934 1486.25 712.855 1481.67 Q709.799 1477.06 709.799 1468.33 Q709.799 1459.58 712.855 1455 Q715.934 1450.39 721.744 1450.39 Z" fill="#000000" fill-rule="nonzero" fill-opacity="1" /><path clip-path="url(#clip870)" d="M1031.71 1481.64 L1048.03 1481.64 L1048.03 1485.58 L1026.09 1485.58 L1026.09 1481.64 Q1028.75 1478.89 1033.33 1474.26 Q1037.94 1469.61 1039.12 1468.27 Q1041.37 1465.74 1042.25 1464.01 Q1043.15 1462.25 1043.15 1460.56 Q1043.15 1457.8 1041.2 1456.07 Q1039.28 1454.33 1036.18 1454.33 Q1033.98 1454.33 1031.53 1455.09 Q1029.1 1455.86 1026.32 1457.41 L1026.32 1452.69 Q1029.14 1451.55 1031.6 1450.97 Q1034.05 1450.39 1036.09 1450.39 Q1041.46 1450.39 1044.65 1453.08 Q1047.85 1455.77 1047.85 1460.26 Q1047.85 1462.39 1047.04 1464.31 Q1046.25 1466.2 1044.14 1468.8 Q1043.57 1469.47 1040.46 1472.69 Q1037.36 1475.88 1031.71 1481.64 Z" fill="#000000" fill-rule="nonzero" fill-opacity="1" /><path clip-path="url(#clip870)" d="M1067.85 1454.1 Q1064.24 1454.1 1062.41 1457.66 Q1060.6 1461.2 1060.6 1468.33 Q1060.6 1475.44 1062.41 1479.01 Q1064.24 1482.55 1067.85 1482.55 Q1071.48 1482.55 1073.29 1479.01 Q1075.12 1475.44 1075.12 1468.33 Q1075.12 1461.2 1073.29 1457.66 Q1071.48 1454.1 1067.85 1454.1 M1067.85 1450.39 Q1073.66 1450.39 1076.71 1455 Q1079.79 1459.58 1079.79 1468.33 Q1079.79 1477.06 1076.71 1481.67 Q1073.66 1486.25 1067.85 1486.25 Q1062.04 1486.25 1058.96 1481.67 Q1055.9 1477.06 1055.9 1468.33 Q1055.9 1459.58 1058.96 1455 Q1062.04 1450.39 1067.85 1450.39 Z" fill="#000000" fill-rule="nonzero" fill-opacity="1" /><path clip-path="url(#clip870)" d="M1387.02 1466.95 Q1390.38 1467.66 1392.25 1469.93 Q1394.15 1472.2 1394.15 1475.53 Q1394.15 1480.65 1390.63 1483.45 Q1387.11 1486.25 1380.63 1486.25 Q1378.46 1486.25 1376.14 1485.81 Q1373.85 1485.39 1371.39 1484.54 L1371.39 1480.02 Q1373.34 1481.16 1375.65 1481.74 Q1377.97 1482.32 1380.49 1482.32 Q1384.89 1482.32 1387.18 1480.58 Q1389.5 1478.84 1389.5 1475.53 Q1389.5 1472.48 1387.34 1470.77 Q1385.21 1469.03 1381.39 1469.03 L1377.37 1469.03 L1377.37 1465.19 L1381.58 1465.19 Q1385.03 1465.19 1386.86 1463.82 Q1388.69 1462.43 1388.69 1459.84 Q1388.69 1457.18 1386.79 1455.77 Q1384.91 1454.33 1381.39 1454.33 Q1379.47 1454.33 1377.27 1454.75 Q1375.08 1455.16 1372.44 1456.04 L1372.44 1451.88 Q1375.1 1451.14 1377.41 1450.77 Q1379.75 1450.39 1381.81 1450.39 Q1387.14 1450.39 1390.24 1452.83 Q1393.34 1455.23 1393.34 1459.35 Q1393.34 1462.22 1391.7 1464.21 Q1390.05 1466.18 1387.02 1466.95 Z" fill="#000000" fill-rule="nonzero" fill-opacity="1" /><path clip-path="url(#clip870)" d="M1413.02 1454.1 Q1409.4 1454.1 1407.58 1457.66 Q1405.77 1461.2 1405.77 1468.33 Q1405.77 1475.44 1407.58 1479.01 Q1409.4 1482.55 1413.02 1482.55 Q1416.65 1482.55 1418.45 1479.01 Q1420.28 1475.44 1420.28 1468.33 Q1420.28 1461.2 1418.45 1457.66 Q1416.65 1454.1 1413.02 1454.1 M1413.02 1450.39 Q1418.83 1450.39 1421.88 1455 Q1424.96 1459.58 1424.96 1468.33 Q1424.96 1477.06 1421.88 1481.67 Q1418.83 1486.25 1413.02 1486.25 Q1407.2 1486.25 1404.13 1481.67 Q1401.07 1477.06 1401.07 1468.33 Q1401.07 1459.58 1404.13 1455 Q1407.2 1450.39 1413.02 1450.39 Z" fill="#000000" fill-rule="nonzero" fill-opacity="1" /><path clip-path="url(#clip870)" d="M1731.59 1455.09 L1719.78 1473.54 L1731.59 1473.54 L1731.59 1455.09 M1730.36 1451.02 L1736.24 1451.02 L1736.24 1473.54 L1741.17 1473.54 L1741.17 1477.43 L1736.24 1477.43 L1736.24 1485.58 L1731.59 1485.58 L1731.59 1477.43 L1715.98 1477.43 L1715.98 1472.92 L1730.36 1451.02 Z" fill="#000000" fill-rule="nonzero" fill-opacity="1" /><path clip-path="url(#clip870)" d="M1758.9 1454.1 Q1755.29 1454.1 1753.46 1457.66 Q1751.65 1461.2 1751.65 1468.33 Q1751.65 1475.44 1753.46 1479.01 Q1755.29 1482.55 1758.9 1482.55 Q1762.53 1482.55 1764.34 1479.01 Q1766.17 1475.44 1766.17 1468.33 Q1766.17 1461.2 1764.34 1457.66 Q1762.53 1454.1 1758.9 1454.1 M1758.9 1450.39 Q1764.71 1450.39 1767.77 1455 Q1770.84 1459.58 1770.84 1468.33 Q1770.84 1477.06 1767.77 1481.67 Q1764.71 1486.25 1758.9 1486.25 Q1753.09 1486.25 1750.01 1481.67 Q1746.96 1477.06 1746.96 1468.33 Q1746.96 1459.58 1750.01 1455 Q1753.09 1450.39 1758.9 1450.39 Z" fill="#000000" fill-rule="nonzero" fill-opacity="1" /><path clip-path="url(#clip870)" d="M2063.35 1451.02 L2081.71 1451.02 L2081.71 1454.96 L2067.63 1454.96 L2067.63 1463.43 Q2068.65 1463.08 2069.67 1462.92 Q2070.69 1462.73 2071.71 1462.73 Q2077.49 1462.73 2080.87 1465.9 Q2084.25 1469.08 2084.25 1474.49 Q2084.25 1480.07 2080.78 1483.17 Q2077.31 1486.25 2070.99 1486.25 Q2068.81 1486.25 2066.54 1485.88 Q2064.3 1485.51 2061.89 1484.77 L2061.89 1480.07 Q2063.97 1481.2 2066.2 1481.76 Q2068.42 1482.32 2070.9 1482.32 Q2074.9 1482.32 2077.24 1480.21 Q2079.58 1478.1 2079.58 1474.49 Q2079.58 1470.88 2077.24 1468.77 Q2074.9 1466.67 2070.9 1466.67 Q2069.02 1466.67 2067.15 1467.08 Q2065.29 1467.5 2063.35 1468.38 L2063.35 1451.02 Z" fill="#000000" fill-rule="nonzero" fill-opacity="1" /><path clip-path="url(#clip870)" d="M2103.46 1454.1 Q2099.85 1454.1 2098.03 1457.66 Q2096.22 1461.2 2096.22 1468.33 Q2096.22 1475.44 2098.03 1479.01 Q2099.85 1482.55 2103.46 1482.55 Q2107.1 1482.55 2108.9 1479.01 Q2110.73 1475.44 2110.73 1468.33 Q2110.73 1461.2 2108.9 1457.66 Q2107.1 1454.1 2103.46 1454.1 M2103.46 1450.39 Q2109.27 1450.39 2112.33 1455 Q2115.41 1459.58 2115.41 1468.33 Q2115.41 1477.06 2112.33 1481.67 Q2109.27 1486.25 2103.46 1486.25 Q2097.65 1486.25 2094.58 1481.67 Q2091.52 1477.06 2091.52 1468.33 Q2091.52 1459.58 2094.58 1455 Q2097.65 1450.39 2103.46 1450.39 Z" fill="#000000" fill-rule="nonzero" fill-opacity="1" /><path clip-path="url(#clip870)" d="M1261.22 1546.53 L1261.22 1568.04 L1255.36 1568.04 L1255.36 1546.72 Q1255.36 1541.66 1253.39 1539.14 Q1251.42 1536.63 1247.47 1536.63 Q1242.73 1536.63 1239.99 1539.65 Q1237.25 1542.68 1237.25 1547.9 L1237.25 1568.04 L1231.36 1568.04 L1231.36 1518.52 L1237.25 1518.52 L1237.25 1537.93 Q1239.35 1534.72 1242.19 1533.13 Q1245.05 1531.54 1248.77 1531.54 Q1254.92 1531.54 1258.07 1535.36 Q1261.22 1539.14 1261.22 1546.53 Z" fill="#000000" fill-rule="nonzero" fill-opacity="1" /><path clip-path="url(#clip870)" d="M1286.71 1536.5 Q1282 1536.5 1279.27 1540.19 Q1276.53 1543.85 1276.53 1550.25 Q1276.53 1556.65 1279.23 1560.34 Q1281.97 1564 1286.71 1564 Q1291.39 1564 1294.13 1560.31 Q1296.87 1556.62 1296.87 1550.25 Q1296.87 1543.92 1294.13 1540.23 Q1291.39 1536.5 1286.71 1536.5 M1286.71 1531.54 Q1294.35 1531.54 1298.71 1536.5 Q1303.07 1541.47 1303.07 1550.25 Q1303.07 1559 1298.71 1564 Q1294.35 1568.97 1286.71 1568.97 Q1279.04 1568.97 1274.68 1564 Q1270.35 1559 1270.35 1550.25 Q1270.35 1541.47 1274.68 1536.5 Q1279.04 1531.54 1286.71 1531.54 Z" fill="#000000" fill-rule="nonzero" fill-opacity="1" /><path clip-path="url(#clip870)" d="M1333.44 1537.87 Q1332.45 1537.3 1331.27 1537.04 Q1330.13 1536.76 1328.73 1536.76 Q1323.76 1536.76 1321.09 1540 Q1318.45 1543.22 1318.45 1549.27 L1318.45 1568.04 L1312.56 1568.04 L1312.56 1532.4 L1318.45 1532.4 L1318.45 1537.93 Q1320.29 1534.69 1323.25 1533.13 Q1326.21 1531.54 1330.45 1531.54 Q1331.05 1531.54 1331.78 1531.63 Q1332.51 1531.7 1333.41 1531.85 L1333.44 1537.87 Z" fill="#000000" fill-rule="nonzero" fill-opacity="1" /><path clip-path="url(#clip870)" d="M1339.58 1532.4 L1345.44 1532.4 L1345.44 1568.04 L1339.58 1568.04 L1339.58 1532.4 M1339.58 1518.52 L1345.44 1518.52 L1345.44 1525.93 L1339.58 1525.93 L1339.58 1518.52 Z" fill="#000000" fill-rule="nonzero" fill-opacity="1" /><path clip-path="url(#clip870)" d="M1355.14 1532.4 L1382.96 1532.4 L1382.96 1537.74 L1360.94 1563.37 L1382.96 1563.37 L1382.96 1568.04 L1354.35 1568.04 L1354.35 1562.7 L1376.37 1537.07 L1355.14 1537.07 L1355.14 1532.4 Z" fill="#000000" fill-rule="nonzero" fill-opacity="1" /><path clip-path="url(#clip870)" d="M1405.72 1536.5 Q1401.01 1536.5 1398.27 1540.19 Q1395.54 1543.85 1395.54 1550.25 Q1395.54 1556.65 1398.24 1560.34 Q1400.98 1564 1405.72 1564 Q1410.4 1564 1413.14 1560.31 Q1415.87 1556.62 1415.87 1550.25 Q1415.87 1543.92 1413.14 1540.23 Q1410.4 1536.5 1405.72 1536.5 M1405.72 1531.54 Q1413.36 1531.54 1417.72 1536.5 Q1422.08 1541.47 1422.08 1550.25 Q1422.08 1559 1417.72 1564 Q1413.36 1568.97 1405.72 1568.97 Q1398.05 1568.97 1393.69 1564 Q1389.36 1559 1389.36 1550.25 Q1389.36 1541.47 1393.69 1536.5 Q1398.05 1531.54 1405.72 1531.54 Z" fill="#000000" fill-rule="nonzero" fill-opacity="1" /><path clip-path="url(#clip870)" d="M1461.42 1546.53 L1461.42 1568.04 L1455.56 1568.04 L1455.56 1546.72 Q1455.56 1541.66 1453.59 1539.14 Q1451.62 1536.63 1447.67 1536.63 Q1442.93 1536.63 1440.19 1539.65 Q1437.45 1542.68 1437.45 1547.9 L1437.45 1568.04 L1431.56 1568.04 L1431.56 1532.4 L1437.45 1532.4 L1437.45 1537.93 Q1439.55 1534.72 1442.39 1533.13 Q1445.25 1531.54 1448.98 1531.54 Q1455.12 1531.54 1458.27 1535.36 Q1461.42 1539.14 1461.42 1546.53 Z" fill="#000000" fill-rule="nonzero" fill-opacity="1" /><polyline clip-path="url(#clip872)" style="stroke:#000000; stroke-linecap:round; stroke-linejoin:round; stroke-width:2; stroke-opacity:0.1; fill:none" points="340.028,1252.35 2352.76,1252.35 "/>
<polyline clip-path="url(#clip872)" style="stroke:#000000; stroke-linecap:round; stroke-linejoin:round; stroke-width:2; stroke-opacity:0.1; fill:none" points="340.028,974.109 2352.76,974.109 "/>
<polyline clip-path="url(#clip872)" style="stroke:#000000; stroke-linecap:round; stroke-linejoin:round; stroke-width:2; stroke-opacity:0.1; fill:none" points="340.028,695.866 2352.76,695.866 "/>
<polyline clip-path="url(#clip872)" style="stroke:#000000; stroke-linecap:round; stroke-linejoin:round; stroke-width:2; stroke-opacity:0.1; fill:none" points="340.028,417.622 2352.76,417.622 "/>
<polyline clip-path="url(#clip872)" style="stroke:#000000; stroke-linecap:round; stroke-linejoin:round; stroke-width:2; stroke-opacity:0.1; fill:none" points="340.028,139.379 2352.76,139.379 "/>
<polyline clip-path="url(#clip870)" style="stroke:#000000; stroke-linecap:round; stroke-linejoin:round; stroke-width:4; stroke-opacity:1; fill:none" points="340.028,1423.18 340.028,123.472 "/>
<polyline clip-path="url(#clip870)" style="stroke:#000000; stroke-linecap:round; stroke-linejoin:round; stroke-width:4; stroke-opacity:1; fill:none" points="340.028,1252.35 358.925,1252.35 "/>
<polyline clip-path="url(#clip870)" style="stroke:#000000; stroke-linecap:round; stroke-linejoin:round; stroke-width:4; stroke-opacity:1; fill:none" points="340.028,974.109 358.925,974.109 "/>
<polyline clip-path="url(#clip870)" style="stroke:#000000; stroke-linecap:round; stroke-linejoin:round; stroke-width:4; stroke-opacity:1; fill:none" points="340.028,695.866 358.925,695.866 "/>
<polyline clip-path="url(#clip870)" style="stroke:#000000; stroke-linecap:round; stroke-linejoin:round; stroke-width:4; stroke-opacity:1; fill:none" points="340.028,417.622 358.925,417.622 "/>
<polyline clip-path="url(#clip870)" style="stroke:#000000; stroke-linecap:round; stroke-linejoin:round; stroke-width:4; stroke-opacity:1; fill:none" points="340.028,139.379 358.925,139.379 "/>
<path clip-path="url(#clip870)" d="M127.2 1238.15 Q123.589 1238.15 121.76 1241.72 Q119.955 1245.26 119.955 1252.39 Q119.955 1259.49 121.76 1263.06 Q123.589 1266.6 127.2 1266.6 Q130.834 1266.6 132.64 1263.06 Q134.468 1259.49 134.468 1252.39 Q134.468 1245.26 132.64 1241.72 Q130.834 1238.15 127.2 1238.15 M127.2 1234.45 Q133.01 1234.45 136.066 1239.05 Q139.144 1243.64 139.144 1252.39 Q139.144 1261.11 136.066 1265.72 Q133.01 1270.3 127.2 1270.3 Q121.39 1270.3 118.311 1265.72 Q115.256 1261.11 115.256 1252.39 Q115.256 1243.64 118.311 1239.05 Q121.39 1234.45 127.2 1234.45 Z" fill="#000000" fill-rule="nonzero" fill-opacity="1" /><path clip-path="url(#clip870)" d="M147.362 1263.75 L152.246 1263.75 L152.246 1269.63 L147.362 1269.63 L147.362 1263.75 Z" fill="#000000" fill-rule="nonzero" fill-opacity="1" /><path clip-path="url(#clip870)" d="M172.431 1238.15 Q168.82 1238.15 166.991 1241.72 Q165.186 1245.26 165.186 1252.39 Q165.186 1259.49 166.991 1263.06 Q168.82 1266.6 172.431 1266.6 Q176.065 1266.6 177.871 1263.06 Q179.7 1259.49 179.7 1252.39 Q179.7 1245.26 177.871 1241.72 Q176.065 1238.15 172.431 1238.15 M172.431 1234.45 Q178.241 1234.45 181.297 1239.05 Q184.376 1243.64 184.376 1252.39 Q184.376 1261.11 181.297 1265.72 Q178.241 1270.3 172.431 1270.3 Q166.621 1270.3 163.542 1265.72 Q160.487 1261.11 160.487 1252.39 Q160.487 1243.64 163.542 1239.05 Q166.621 1234.45 172.431 1234.45 Z" fill="#000000" fill-rule="nonzero" fill-opacity="1" /><path clip-path="url(#clip870)" d="M202.593 1238.15 Q198.982 1238.15 197.153 1241.72 Q195.348 1245.26 195.348 1252.39 Q195.348 1259.49 197.153 1263.06 Q198.982 1266.6 202.593 1266.6 Q206.227 1266.6 208.033 1263.06 Q209.861 1259.49 209.861 1252.39 Q209.861 1245.26 208.033 1241.72 Q206.227 1238.15 202.593 1238.15 M202.593 1234.45 Q208.403 1234.45 211.459 1239.05 Q214.537 1243.64 214.537 1252.39 Q214.537 1261.11 211.459 1265.72 Q208.403 1270.3 202.593 1270.3 Q196.783 1270.3 193.704 1265.72 Q190.649 1261.11 190.649 1252.39 Q190.649 1243.64 193.704 1239.05 Q196.783 1234.45 202.593 1234.45 Z" fill="#000000" fill-rule="nonzero" fill-opacity="1" /><path clip-path="url(#clip870)" d="M226.783 1265.7 L243.102 1265.7 L243.102 1269.63 L221.158 1269.63 L221.158 1265.7 Q223.82 1262.94 228.403 1258.31 Q233.01 1253.66 234.19 1252.32 Q236.435 1249.79 237.315 1248.06 Q238.218 1246.3 238.218 1244.61 Q238.218 1241.85 236.273 1240.12 Q234.352 1238.38 231.25 1238.38 Q229.051 1238.38 226.598 1239.15 Q224.167 1239.91 221.389 1241.46 L221.389 1236.74 Q224.213 1235.6 226.667 1235.03 Q229.121 1234.45 231.158 1234.45 Q236.528 1234.45 239.722 1237.13 Q242.917 1239.82 242.917 1244.31 Q242.917 1246.44 242.107 1248.36 Q241.32 1250.26 239.213 1252.85 Q238.634 1253.52 235.533 1256.74 Q232.431 1259.93 226.783 1265.7 Z" fill="#000000" fill-rule="nonzero" fill-opacity="1" /><path clip-path="url(#clip870)" d="M256.945 1265.7 L273.264 1265.7 L273.264 1269.63 L251.32 1269.63 L251.32 1265.7 Q253.982 1262.94 258.565 1258.31 Q263.171 1253.66 264.352 1252.32 Q266.597 1249.79 267.477 1248.06 Q268.38 1246.3 268.38 1244.61 Q268.38 1241.85 266.435 1240.12 Q264.514 1238.38 261.412 1238.38 Q259.213 1238.38 256.759 1239.15 Q254.329 1239.91 251.551 1241.46 L251.551 1236.74 Q254.375 1235.6 256.829 1235.03 Q259.283 1234.45 261.32 1234.45 Q266.69 1234.45 269.884 1237.13 Q273.079 1239.82 273.079 1244.31 Q273.079 1246.44 272.269 1248.36 Q271.482 1250.26 269.375 1252.85 Q268.796 1253.52 265.695 1256.74 Q262.593 1259.93 256.945 1265.7 Z" fill="#000000" fill-rule="nonzero" fill-opacity="1" /><path clip-path="url(#clip870)" d="M283.125 1235.07 L301.481 1235.07 L301.481 1239.01 L287.407 1239.01 L287.407 1247.48 Q288.426 1247.13 289.444 1246.97 Q290.463 1246.79 291.481 1246.79 Q297.268 1246.79 300.648 1249.96 Q304.028 1253.13 304.028 1258.54 Q304.028 1264.12 300.555 1267.22 Q297.083 1270.3 290.764 1270.3 Q288.588 1270.3 286.319 1269.93 Q284.074 1269.56 281.667 1268.82 L281.667 1264.12 Q283.75 1265.26 285.972 1265.81 Q288.194 1266.37 290.671 1266.37 Q294.676 1266.37 297.014 1264.26 Q299.352 1262.16 299.352 1258.54 Q299.352 1254.93 297.014 1252.83 Q294.676 1250.72 290.671 1250.72 Q288.796 1250.72 286.921 1251.14 Q285.069 1251.55 283.125 1252.43 L283.125 1235.07 Z" fill="#000000" fill-rule="nonzero" fill-opacity="1" /><path clip-path="url(#clip870)" d="M126.205 959.908 Q122.593 959.908 120.765 963.472 Q118.959 967.014 118.959 974.144 Q118.959 981.25 120.765 984.815 Q122.593 988.356 126.205 988.356 Q129.839 988.356 131.644 984.815 Q133.473 981.25 133.473 974.144 Q133.473 967.014 131.644 963.472 Q129.839 959.908 126.205 959.908 M126.205 956.204 Q132.015 956.204 135.07 960.81 Q138.149 965.394 138.149 974.144 Q138.149 982.87 135.07 987.477 Q132.015 992.06 126.205 992.06 Q120.394 992.06 117.316 987.477 Q114.26 982.87 114.26 974.144 Q114.26 965.394 117.316 960.81 Q120.394 956.204 126.205 956.204 Z" fill="#000000" fill-rule="nonzero" fill-opacity="1" /><path clip-path="url(#clip870)" d="M146.366 985.509 L151.251 985.509 L151.251 991.389 L146.366 991.389 L146.366 985.509 Z" fill="#000000" fill-rule="nonzero" fill-opacity="1" /><path clip-path="url(#clip870)" d="M171.436 959.908 Q167.825 959.908 165.996 963.472 Q164.19 967.014 164.19 974.144 Q164.19 981.25 165.996 984.815 Q167.825 988.356 171.436 988.356 Q175.07 988.356 176.876 984.815 Q178.704 981.25 178.704 974.144 Q178.704 967.014 176.876 963.472 Q175.07 959.908 171.436 959.908 M171.436 956.204 Q177.246 956.204 180.301 960.81 Q183.38 965.394 183.38 974.144 Q183.38 982.87 180.301 987.477 Q177.246 992.06 171.436 992.06 Q165.626 992.06 162.547 987.477 Q159.491 982.87 159.491 974.144 Q159.491 965.394 162.547 960.81 Q165.626 956.204 171.436 956.204 Z" fill="#000000" fill-rule="nonzero" fill-opacity="1" /><path clip-path="url(#clip870)" d="M201.598 959.908 Q197.987 959.908 196.158 963.472 Q194.352 967.014 194.352 974.144 Q194.352 981.25 196.158 984.815 Q197.987 988.356 201.598 988.356 Q205.232 988.356 207.037 984.815 Q208.866 981.25 208.866 974.144 Q208.866 967.014 207.037 963.472 Q205.232 959.908 201.598 959.908 M201.598 956.204 Q207.408 956.204 210.463 960.81 Q213.542 965.394 213.542 974.144 Q213.542 982.87 210.463 987.477 Q207.408 992.06 201.598 992.06 Q195.787 992.06 192.709 987.477 Q189.653 982.87 189.653 974.144 Q189.653 965.394 192.709 960.81 Q195.787 956.204 201.598 956.204 Z" fill="#000000" fill-rule="nonzero" fill-opacity="1" /><path clip-path="url(#clip870)" d="M225.787 987.454 L242.107 987.454 L242.107 991.389 L220.162 991.389 L220.162 987.454 Q222.824 984.699 227.408 980.069 Q232.014 975.417 233.195 974.074 Q235.44 971.551 236.32 969.815 Q237.222 968.056 237.222 966.366 Q237.222 963.611 235.278 961.875 Q233.357 960.139 230.255 960.139 Q228.056 960.139 225.602 960.903 Q223.172 961.667 220.394 963.218 L220.394 958.496 Q223.218 957.361 225.672 956.783 Q228.125 956.204 230.162 956.204 Q235.533 956.204 238.727 958.889 Q241.922 961.574 241.922 966.065 Q241.922 968.195 241.111 970.116 Q240.324 972.014 238.218 974.607 Q237.639 975.278 234.537 978.495 Q231.435 981.69 225.787 987.454 Z" fill="#000000" fill-rule="nonzero" fill-opacity="1" /><path clip-path="url(#clip870)" d="M251.968 956.829 L270.324 956.829 L270.324 960.764 L256.25 960.764 L256.25 969.236 Q257.269 968.889 258.287 968.727 Q259.306 968.542 260.324 968.542 Q266.111 968.542 269.491 971.713 Q272.87 974.884 272.87 980.301 Q272.87 985.88 269.398 988.981 Q265.926 992.06 259.607 992.06 Q257.431 992.06 255.162 991.69 Q252.917 991.319 250.509 990.579 L250.509 985.88 Q252.593 987.014 254.815 987.569 Q257.037 988.125 259.514 988.125 Q263.519 988.125 265.857 986.019 Q268.195 983.912 268.195 980.301 Q268.195 976.69 265.857 974.583 Q263.519 972.477 259.514 972.477 Q257.639 972.477 255.764 972.894 Q253.912 973.31 251.968 974.19 L251.968 956.829 Z" fill="#000000" fill-rule="nonzero" fill-opacity="1" /><path clip-path="url(#clip870)" d="M292.083 959.908 Q288.472 959.908 286.643 963.472 Q284.838 967.014 284.838 974.144 Q284.838 981.25 286.643 984.815 Q288.472 988.356 292.083 988.356 Q295.718 988.356 297.523 984.815 Q299.352 981.25 299.352 974.144 Q299.352 967.014 297.523 963.472 Q295.718 959.908 292.083 959.908 M292.083 956.204 Q297.893 956.204 300.949 960.81 Q304.028 965.394 304.028 974.144 Q304.028 982.87 300.949 987.477 Q297.893 992.06 292.083 992.06 Q286.273 992.06 283.194 987.477 Q280.139 982.87 280.139 974.144 Q280.139 965.394 283.194 960.81 Q286.273 956.204 292.083 956.204 Z" fill="#000000" fill-rule="nonzero" fill-opacity="1" /><path clip-path="url(#clip870)" d="M127.2 681.664 Q123.589 681.664 121.76 685.229 Q119.955 688.771 119.955 695.9 Q119.955 703.007 121.76 706.572 Q123.589 710.113 127.2 710.113 Q130.834 710.113 132.64 706.572 Q134.468 703.007 134.468 695.9 Q134.468 688.771 132.64 685.229 Q130.834 681.664 127.2 681.664 M127.2 677.961 Q133.01 677.961 136.066 682.567 Q139.144 687.15 139.144 695.9 Q139.144 704.627 136.066 709.234 Q133.01 713.817 127.2 713.817 Q121.39 713.817 118.311 709.234 Q115.256 704.627 115.256 695.9 Q115.256 687.15 118.311 682.567 Q121.39 677.961 127.2 677.961 Z" fill="#000000" fill-rule="nonzero" fill-opacity="1" /><path clip-path="url(#clip870)" d="M147.362 707.266 L152.246 707.266 L152.246 713.146 L147.362 713.146 L147.362 707.266 Z" fill="#000000" fill-rule="nonzero" fill-opacity="1" /><path clip-path="url(#clip870)" d="M172.431 681.664 Q168.82 681.664 166.991 685.229 Q165.186 688.771 165.186 695.9 Q165.186 703.007 166.991 706.572 Q168.82 710.113 172.431 710.113 Q176.065 710.113 177.871 706.572 Q179.7 703.007 179.7 695.9 Q179.7 688.771 177.871 685.229 Q176.065 681.664 172.431 681.664 M172.431 677.961 Q178.241 677.961 181.297 682.567 Q184.376 687.15 184.376 695.9 Q184.376 704.627 181.297 709.234 Q178.241 713.817 172.431 713.817 Q166.621 713.817 163.542 709.234 Q160.487 704.627 160.487 695.9 Q160.487 687.15 163.542 682.567 Q166.621 677.961 172.431 677.961 Z" fill="#000000" fill-rule="nonzero" fill-opacity="1" /><path clip-path="url(#clip870)" d="M202.593 681.664 Q198.982 681.664 197.153 685.229 Q195.348 688.771 195.348 695.9 Q195.348 703.007 197.153 706.572 Q198.982 710.113 202.593 710.113 Q206.227 710.113 208.033 706.572 Q209.861 703.007 209.861 695.9 Q209.861 688.771 208.033 685.229 Q206.227 681.664 202.593 681.664 M202.593 677.961 Q208.403 677.961 211.459 682.567 Q214.537 687.15 214.537 695.9 Q214.537 704.627 211.459 709.234 Q208.403 713.817 202.593 713.817 Q196.783 713.817 193.704 709.234 Q190.649 704.627 190.649 695.9 Q190.649 687.15 193.704 682.567 Q196.783 677.961 202.593 677.961 Z" fill="#000000" fill-rule="nonzero" fill-opacity="1" /><path clip-path="url(#clip870)" d="M226.783 709.21 L243.102 709.21 L243.102 713.146 L221.158 713.146 L221.158 709.21 Q223.82 706.456 228.403 701.826 Q233.01 697.173 234.19 695.831 Q236.435 693.308 237.315 691.572 Q238.218 689.812 238.218 688.123 Q238.218 685.368 236.273 683.632 Q234.352 681.896 231.25 681.896 Q229.051 681.896 226.598 682.66 Q224.167 683.424 221.389 684.974 L221.389 680.252 Q224.213 679.118 226.667 678.539 Q229.121 677.961 231.158 677.961 Q236.528 677.961 239.722 680.646 Q242.917 683.331 242.917 687.822 Q242.917 689.951 242.107 691.873 Q241.32 693.771 239.213 696.363 Q238.634 697.035 235.533 700.252 Q232.431 703.447 226.783 709.21 Z" fill="#000000" fill-rule="nonzero" fill-opacity="1" /><path clip-path="url(#clip870)" d="M251.736 678.586 L273.958 678.586 L273.958 680.576 L261.412 713.146 L256.528 713.146 L268.333 682.521 L251.736 682.521 L251.736 678.586 Z" fill="#000000" fill-rule="nonzero" fill-opacity="1" /><path clip-path="url(#clip870)" d="M283.125 678.586 L301.481 678.586 L301.481 682.521 L287.407 682.521 L287.407 690.993 Q288.426 690.646 289.444 690.484 Q290.463 690.299 291.481 690.299 Q297.268 690.299 300.648 693.47 Q304.028 696.641 304.028 702.058 Q304.028 707.636 300.555 710.738 Q297.083 713.817 290.764 713.817 Q288.588 713.817 286.319 713.447 Q284.074 713.076 281.667 712.335 L281.667 707.636 Q283.75 708.771 285.972 709.326 Q288.194 709.882 290.671 709.882 Q294.676 709.882 297.014 707.775 Q299.352 705.669 299.352 702.058 Q299.352 698.447 297.014 696.34 Q294.676 694.234 290.671 694.234 Q288.796 694.234 286.921 694.65 Q285.069 695.067 283.125 695.947 L283.125 678.586 Z" fill="#000000" fill-rule="nonzero" fill-opacity="1" /><path clip-path="url(#clip870)" d="M126.205 403.421 Q122.593 403.421 120.765 406.986 Q118.959 410.528 118.959 417.657 Q118.959 424.764 120.765 428.328 Q122.593 431.87 126.205 431.87 Q129.839 431.87 131.644 428.328 Q133.473 424.764 133.473 417.657 Q133.473 410.528 131.644 406.986 Q129.839 403.421 126.205 403.421 M126.205 399.717 Q132.015 399.717 135.07 404.324 Q138.149 408.907 138.149 417.657 Q138.149 426.384 135.07 430.99 Q132.015 435.574 126.205 435.574 Q120.394 435.574 117.316 430.99 Q114.26 426.384 114.26 417.657 Q114.26 408.907 117.316 404.324 Q120.394 399.717 126.205 399.717 Z" fill="#000000" fill-rule="nonzero" fill-opacity="1" /><path clip-path="url(#clip870)" d="M146.366 429.023 L151.251 429.023 L151.251 434.902 L146.366 434.902 L146.366 429.023 Z" fill="#000000" fill-rule="nonzero" fill-opacity="1" /><path clip-path="url(#clip870)" d="M171.436 403.421 Q167.825 403.421 165.996 406.986 Q164.19 410.528 164.19 417.657 Q164.19 424.764 165.996 428.328 Q167.825 431.87 171.436 431.87 Q175.07 431.87 176.876 428.328 Q178.704 424.764 178.704 417.657 Q178.704 410.528 176.876 406.986 Q175.07 403.421 171.436 403.421 M171.436 399.717 Q177.246 399.717 180.301 404.324 Q183.38 408.907 183.38 417.657 Q183.38 426.384 180.301 430.99 Q177.246 435.574 171.436 435.574 Q165.626 435.574 162.547 430.99 Q159.491 426.384 159.491 417.657 Q159.491 408.907 162.547 404.324 Q165.626 399.717 171.436 399.717 Z" fill="#000000" fill-rule="nonzero" fill-opacity="1" /><path clip-path="url(#clip870)" d="M201.598 403.421 Q197.987 403.421 196.158 406.986 Q194.352 410.528 194.352 417.657 Q194.352 424.764 196.158 428.328 Q197.987 431.87 201.598 431.87 Q205.232 431.87 207.037 428.328 Q208.866 424.764 208.866 417.657 Q208.866 410.528 207.037 406.986 Q205.232 403.421 201.598 403.421 M201.598 399.717 Q207.408 399.717 210.463 404.324 Q213.542 408.907 213.542 417.657 Q213.542 426.384 210.463 430.99 Q207.408 435.574 201.598 435.574 Q195.787 435.574 192.709 430.99 Q189.653 426.384 189.653 417.657 Q189.653 408.907 192.709 404.324 Q195.787 399.717 201.598 399.717 Z" fill="#000000" fill-rule="nonzero" fill-opacity="1" /><path clip-path="url(#clip870)" d="M235.926 416.268 Q239.283 416.986 241.158 419.254 Q243.056 421.523 243.056 424.856 Q243.056 429.972 239.537 432.773 Q236.019 435.574 229.537 435.574 Q227.361 435.574 225.047 435.134 Q222.755 434.717 220.301 433.861 L220.301 429.347 Q222.246 430.481 224.56 431.06 Q226.875 431.639 229.398 431.639 Q233.797 431.639 236.088 429.902 Q238.403 428.166 238.403 424.856 Q238.403 421.801 236.25 420.088 Q234.121 418.352 230.301 418.352 L226.273 418.352 L226.273 414.509 L230.486 414.509 Q233.935 414.509 235.764 413.143 Q237.593 411.754 237.593 409.162 Q237.593 406.5 235.695 405.088 Q233.82 403.653 230.301 403.653 Q228.38 403.653 226.181 404.069 Q223.982 404.486 221.343 405.366 L221.343 401.199 Q224.005 400.458 226.32 400.088 Q228.658 399.717 230.718 399.717 Q236.042 399.717 239.144 402.148 Q242.246 404.555 242.246 408.676 Q242.246 411.546 240.602 413.537 Q238.959 415.504 235.926 416.268 Z" fill="#000000" fill-rule="nonzero" fill-opacity="1" /><path clip-path="url(#clip870)" d="M261.921 403.421 Q258.31 403.421 256.482 406.986 Q254.676 410.528 254.676 417.657 Q254.676 424.764 256.482 428.328 Q258.31 431.87 261.921 431.87 Q265.556 431.87 267.361 428.328 Q269.19 424.764 269.19 417.657 Q269.19 410.528 267.361 406.986 Q265.556 403.421 261.921 403.421 M261.921 399.717 Q267.732 399.717 270.787 404.324 Q273.866 408.907 273.866 417.657 Q273.866 426.384 270.787 430.99 Q267.732 435.574 261.921 435.574 Q256.111 435.574 253.033 430.99 Q249.977 426.384 249.977 417.657 Q249.977 408.907 253.033 404.324 Q256.111 399.717 261.921 399.717 Z" fill="#000000" fill-rule="nonzero" fill-opacity="1" /><path clip-path="url(#clip870)" d="M292.083 403.421 Q288.472 403.421 286.643 406.986 Q284.838 410.528 284.838 417.657 Q284.838 424.764 286.643 428.328 Q288.472 431.87 292.083 431.87 Q295.718 431.87 297.523 428.328 Q299.352 424.764 299.352 417.657 Q299.352 410.528 297.523 406.986 Q295.718 403.421 292.083 403.421 M292.083 399.717 Q297.893 399.717 300.949 404.324 Q304.028 408.907 304.028 417.657 Q304.028 426.384 300.949 430.99 Q297.893 435.574 292.083 435.574 Q286.273 435.574 283.194 430.99 Q280.139 426.384 280.139 417.657 Q280.139 408.907 283.194 404.324 Q286.273 399.717 292.083 399.717 Z" fill="#000000" fill-rule="nonzero" fill-opacity="1" /><path clip-path="url(#clip870)" d="M127.2 125.178 Q123.589 125.178 121.76 128.743 Q119.955 132.284 119.955 139.414 Q119.955 146.52 121.76 150.085 Q123.589 153.627 127.2 153.627 Q130.834 153.627 132.64 150.085 Q134.468 146.52 134.468 139.414 Q134.468 132.284 132.64 128.743 Q130.834 125.178 127.2 125.178 M127.2 121.474 Q133.01 121.474 136.066 126.081 Q139.144 130.664 139.144 139.414 Q139.144 148.141 136.066 152.747 Q133.01 157.33 127.2 157.33 Q121.39 157.33 118.311 152.747 Q115.256 148.141 115.256 139.414 Q115.256 130.664 118.311 126.081 Q121.39 121.474 127.2 121.474 Z" fill="#000000" fill-rule="nonzero" fill-opacity="1" /><path clip-path="url(#clip870)" d="M147.362 150.78 L152.246 150.78 L152.246 156.659 L147.362 156.659 L147.362 150.78 Z" fill="#000000" fill-rule="nonzero" fill-opacity="1" /><path clip-path="url(#clip870)" d="M172.431 125.178 Q168.82 125.178 166.991 128.743 Q165.186 132.284 165.186 139.414 Q165.186 146.52 166.991 150.085 Q168.82 153.627 172.431 153.627 Q176.065 153.627 177.871 150.085 Q179.7 146.52 179.7 139.414 Q179.7 132.284 177.871 128.743 Q176.065 125.178 172.431 125.178 M172.431 121.474 Q178.241 121.474 181.297 126.081 Q184.376 130.664 184.376 139.414 Q184.376 148.141 181.297 152.747 Q178.241 157.33 172.431 157.33 Q166.621 157.33 163.542 152.747 Q160.487 148.141 160.487 139.414 Q160.487 130.664 163.542 126.081 Q166.621 121.474 172.431 121.474 Z" fill="#000000" fill-rule="nonzero" fill-opacity="1" /><path clip-path="url(#clip870)" d="M202.593 125.178 Q198.982 125.178 197.153 128.743 Q195.348 132.284 195.348 139.414 Q195.348 146.52 197.153 150.085 Q198.982 153.627 202.593 153.627 Q206.227 153.627 208.033 150.085 Q209.861 146.52 209.861 139.414 Q209.861 132.284 208.033 128.743 Q206.227 125.178 202.593 125.178 M202.593 121.474 Q208.403 121.474 211.459 126.081 Q214.537 130.664 214.537 139.414 Q214.537 148.141 211.459 152.747 Q208.403 157.33 202.593 157.33 Q196.783 157.33 193.704 152.747 Q190.649 148.141 190.649 139.414 Q190.649 130.664 193.704 126.081 Q196.783 121.474 202.593 121.474 Z" fill="#000000" fill-rule="nonzero" fill-opacity="1" /><path clip-path="url(#clip870)" d="M236.922 138.025 Q240.278 138.743 242.153 141.011 Q244.051 143.28 244.051 146.613 Q244.051 151.729 240.533 154.53 Q237.014 157.33 230.533 157.33 Q228.357 157.33 226.042 156.891 Q223.75 156.474 221.297 155.617 L221.297 151.104 Q223.241 152.238 225.556 152.817 Q227.871 153.395 230.394 153.395 Q234.792 153.395 237.084 151.659 Q239.398 149.923 239.398 146.613 Q239.398 143.557 237.246 141.844 Q235.116 140.108 231.297 140.108 L227.269 140.108 L227.269 136.266 L231.482 136.266 Q234.931 136.266 236.76 134.9 Q238.588 133.511 238.588 130.919 Q238.588 128.257 236.69 126.844 Q234.815 125.409 231.297 125.409 Q229.375 125.409 227.176 125.826 Q224.977 126.243 222.338 127.122 L222.338 122.956 Q225 122.215 227.315 121.845 Q229.653 121.474 231.713 121.474 Q237.037 121.474 240.139 123.905 Q243.241 126.312 243.241 130.432 Q243.241 133.303 241.597 135.294 Q239.954 137.261 236.922 138.025 Z" fill="#000000" fill-rule="nonzero" fill-opacity="1" /><path clip-path="url(#clip870)" d="M256.945 152.724 L273.264 152.724 L273.264 156.659 L251.32 156.659 L251.32 152.724 Q253.982 149.969 258.565 145.34 Q263.171 140.687 264.352 139.344 Q266.597 136.821 267.477 135.085 Q268.38 133.326 268.38 131.636 Q268.38 128.882 266.435 127.145 Q264.514 125.409 261.412 125.409 Q259.213 125.409 256.759 126.173 Q254.329 126.937 251.551 128.488 L251.551 123.766 Q254.375 122.632 256.829 122.053 Q259.283 121.474 261.32 121.474 Q266.69 121.474 269.884 124.159 Q273.079 126.844 273.079 131.335 Q273.079 133.465 272.269 135.386 Q271.482 137.284 269.375 139.877 Q268.796 140.548 265.695 143.766 Q262.593 146.96 256.945 152.724 Z" fill="#000000" fill-rule="nonzero" fill-opacity="1" /><path clip-path="url(#clip870)" d="M283.125 122.099 L301.481 122.099 L301.481 126.034 L287.407 126.034 L287.407 134.506 Q288.426 134.159 289.444 133.997 Q290.463 133.812 291.481 133.812 Q297.268 133.812 300.648 136.983 Q304.028 140.155 304.028 145.571 Q304.028 151.15 300.555 154.252 Q297.083 157.33 290.764 157.33 Q288.588 157.33 286.319 156.96 Q284.074 156.59 281.667 155.849 L281.667 151.15 Q283.75 152.284 285.972 152.84 Q288.194 153.395 290.671 153.395 Q294.676 153.395 297.014 151.289 Q299.352 149.182 299.352 145.571 Q299.352 141.96 297.014 139.854 Q294.676 137.747 290.671 137.747 Q288.796 137.747 286.921 138.164 Q285.069 138.581 283.125 139.46 L283.125 122.099 Z" fill="#000000" fill-rule="nonzero" fill-opacity="1" /><path clip-path="url(#clip870)" d="M16.4842 874.557 L16.4842 864.976 L48.8219 852.85 L16.4842 840.659 L16.4842 831.079 L64.0042 831.079 L64.0042 837.349 L22.277 837.349 L54.8694 849.603 L54.8694 856.064 L22.277 868.318 L64.0042 868.318 L64.0042 874.557 L16.4842 874.557 Z" fill="#000000" fill-rule="nonzero" fill-opacity="1" /><path clip-path="url(#clip870)" d="M41.7242 795.781 Q42.4244 793.712 44.7161 791.771 Q47.0077 789.797 51.0181 787.824 L64.0042 781.299 L64.0042 788.206 L51.8138 794.285 Q47.0395 796.64 45.48 798.868 Q43.9204 801.065 43.9204 804.884 L43.9204 811.886 L64.0042 811.886 L64.0042 818.316 L16.4842 818.316 L16.4842 803.802 Q16.4842 795.654 19.8898 791.643 Q23.2955 787.633 30.1704 787.633 Q34.6582 787.633 37.6183 789.734 Q40.5784 791.802 41.7242 795.781 M21.7677 811.886 L38.6368 811.886 L38.6368 803.802 Q38.6368 799.155 36.5043 796.8 Q34.34 794.412 30.1704 794.412 Q26.0009 794.412 23.9002 796.8 Q21.7677 799.155 21.7677 803.802 L21.7677 811.886 Z" fill="#000000" fill-rule="nonzero" fill-opacity="1" /><path clip-path="url(#clip870)" d="M22.818 759.783 L46.4666 768.504 L46.4666 751.03 L22.818 759.783 M16.4842 763.411 L16.4842 756.123 L64.0042 738.012 L64.0042 744.696 L51.8138 749.025 L51.8138 770.446 L64.0042 774.774 L64.0042 781.554 L16.4842 763.411 Z" fill="#000000" fill-rule="nonzero" fill-opacity="1" /><path clip-path="url(#clip870)" d="M16.4842 731.074 L16.4842 701.027 L21.895 701.027 L21.895 724.644 L35.9632 724.644 L35.9632 702.014 L41.3741 702.014 L41.3741 724.644 L58.5933 724.644 L58.5933 700.455 L64.0042 700.455 L64.0042 731.074 L16.4842 731.074 Z" fill="#000000" fill-rule="nonzero" fill-opacity="1" /><path clip-path="url(#clip870)" d="M14.479 672.095 L19.3487 672.095 L19.3487 677.697 Q19.3487 680.848 20.6219 682.089 Q21.895 683.299 25.2052 683.299 L28.3562 683.299 L28.3562 673.655 L32.9077 673.655 L32.9077 683.299 L64.0042 683.299 L64.0042 689.187 L32.9077 689.187 L32.9077 694.789 L28.3562 694.789 L28.3562 689.187 L25.8736 689.187 Q19.9216 689.187 17.2162 686.418 Q14.479 683.649 14.479 677.633 L14.479 672.095 Z" fill="#000000" fill-rule="nonzero" fill-opacity="1" /><path clip-path="url(#clip870)" d="M750.078 12.096 L758.261 12.096 L758.261 65.6895 L787.711 65.6895 L787.711 72.576 L750.078 72.576 L750.078 12.096 Z" fill="#000000" fill-rule="nonzero" fill-opacity="1" /><path clip-path="url(#clip870)" d="M816.594 49.7694 Q807.561 49.7694 804.077 51.8354 Q800.593 53.9013 800.593 58.8839 Q800.593 62.8538 803.186 65.2034 Q805.819 67.5124 810.315 67.5124 Q816.513 67.5124 820.24 63.1374 Q824.007 58.7219 824.007 51.4303 L824.007 49.7694 L816.594 49.7694 M831.461 46.6907 L831.461 72.576 L824.007 72.576 L824.007 65.6895 Q821.455 69.8214 817.648 71.8063 Q813.84 73.7508 808.33 73.7508 Q801.363 73.7508 797.231 69.8619 Q793.14 65.9325 793.14 59.3701 Q793.14 51.7138 798.244 47.825 Q803.388 43.9361 813.556 43.9361 L824.007 43.9361 L824.007 43.2069 Q824.007 38.0623 820.605 35.2672 Q817.242 32.4315 811.126 32.4315 Q807.237 32.4315 803.55 33.3632 Q799.864 34.295 796.461 36.1584 L796.461 29.2718 Q800.553 27.692 804.401 26.9223 Q808.249 26.1121 811.895 26.1121 Q821.739 26.1121 826.6 31.2163 Q831.461 36.3204 831.461 46.6907 Z" fill="#000000" fill-rule="nonzero" fill-opacity="1" /><path clip-path="url(#clip870)" d="M875.737 28.5427 L875.737 35.5912 Q872.578 33.9709 869.175 33.1607 Q865.772 32.3505 862.126 32.3505 Q856.577 32.3505 853.782 34.0519 Q851.027 35.7533 851.027 39.156 Q851.027 41.7486 853.012 43.2475 Q854.997 44.7058 860.992 46.0426 L863.544 46.6097 Q871.484 48.3111 874.806 51.4303 Q878.168 54.509 878.168 60.0587 Q878.168 66.3781 873.145 70.0644 Q868.162 73.7508 859.412 73.7508 Q855.767 73.7508 851.797 73.0216 Q847.867 72.3329 843.492 70.9151 L843.492 63.2184 Q847.624 65.3654 851.635 66.4591 Q855.645 67.5124 859.574 67.5124 Q864.841 67.5124 867.676 65.73 Q870.512 63.9071 870.512 60.6258 Q870.512 57.5877 868.446 55.9673 Q866.42 54.3469 859.493 52.8481 L856.901 52.2405 Q849.974 50.7821 846.895 47.7845 Q843.816 44.7463 843.816 39.4801 Q843.816 33.0797 848.353 29.5959 Q852.89 26.1121 861.235 26.1121 Q865.367 26.1121 869.013 26.7198 Q872.659 27.3274 875.737 28.5427 Z" fill="#000000" fill-rule="nonzero" fill-opacity="1" /><path clip-path="url(#clip870)" d="M897.41 14.324 L897.41 27.2059 L912.763 27.2059 L912.763 32.9987 L897.41 32.9987 L897.41 57.6282 Q897.41 63.1779 898.909 64.7578 Q900.448 66.3376 905.107 66.3376 L912.763 66.3376 L912.763 72.576 L905.107 72.576 Q896.478 72.576 893.197 69.3758 Q889.916 66.1351 889.916 57.6282 L889.916 32.9987 L884.447 32.9987 L884.447 27.2059 L889.916 27.2059 L889.916 14.324 L897.41 14.324 Z" fill="#000000" fill-rule="nonzero" fill-opacity="1" /><path clip-path="url(#clip870)" d="M964.857 72.576 L941.767 12.096 L950.315 12.096 L969.475 63.0159 L988.677 12.096 L997.184 12.096 L974.134 72.576 L964.857 72.576 Z" fill="#000000" fill-rule="nonzero" fill-opacity="1" /><path clip-path="url(#clip870)" d="M1019.87 49.7694 Q1010.84 49.7694 1007.35 51.8354 Q1003.87 53.9013 1003.87 58.8839 Q1003.87 62.8538 1006.46 65.2034 Q1009.09 67.5124 1013.59 67.5124 Q1019.79 67.5124 1023.51 63.1374 Q1027.28 58.7219 1027.28 51.4303 L1027.28 49.7694 L1019.87 49.7694 M1034.74 46.6907 L1034.74 72.576 L1027.28 72.576 L1027.28 65.6895 Q1024.73 69.8214 1020.92 71.8063 Q1017.11 73.7508 1011.6 73.7508 Q1004.64 73.7508 1000.51 69.8619 Q996.414 65.9325 996.414 59.3701 Q996.414 51.7138 1001.52 47.825 Q1006.66 43.9361 1016.83 43.9361 L1027.28 43.9361 L1027.28 43.2069 Q1027.28 38.0623 1023.88 35.2672 Q1020.52 32.4315 1014.4 32.4315 Q1010.51 32.4315 1006.82 33.3632 Q1003.14 34.295 999.736 36.1584 L999.736 29.2718 Q1003.83 27.692 1007.68 26.9223 Q1011.52 26.1121 1015.17 26.1121 Q1025.01 26.1121 1029.87 31.2163 Q1034.74 36.3204 1034.74 46.6907 Z" fill="#000000" fill-rule="nonzero" fill-opacity="1" /><path clip-path="url(#clip870)" d="M1050.09 9.54393 L1057.54 9.54393 L1057.54 72.576 L1050.09 72.576 L1050.09 9.54393 Z" fill="#000000" fill-rule="nonzero" fill-opacity="1" /><path clip-path="url(#clip870)" d="M1072.37 54.671 L1072.37 27.2059 L1079.82 27.2059 L1079.82 54.3874 Q1079.82 60.8284 1082.33 64.0691 Q1084.85 67.2693 1089.87 67.2693 Q1095.9 67.2693 1099.39 63.421 Q1102.91 59.5726 1102.91 52.9291 L1102.91 27.2059 L1110.37 27.2059 L1110.37 72.576 L1102.91 72.576 L1102.91 65.6084 Q1100.2 69.7404 1096.59 71.7658 Q1093.03 73.7508 1088.29 73.7508 Q1080.47 73.7508 1076.42 68.8897 Q1072.37 64.0286 1072.37 54.671 M1091.12 26.1121 L1091.12 26.1121 Z" fill="#000000" fill-rule="nonzero" fill-opacity="1" /><path clip-path="url(#clip870)" d="M1164.53 48.0275 L1164.53 51.6733 L1130.26 51.6733 Q1130.74 59.3701 1134.87 63.421 Q1139.05 67.4314 1146.46 67.4314 Q1150.75 67.4314 1154.76 66.3781 Q1158.81 65.3249 1162.78 63.2184 L1162.78 70.267 Q1158.77 71.9684 1154.56 72.8596 Q1150.35 73.7508 1146.01 73.7508 Q1135.16 73.7508 1128.8 67.4314 Q1122.48 61.1119 1122.48 50.3365 Q1122.48 39.1965 1128.47 32.6746 Q1134.51 26.1121 1144.72 26.1121 Q1153.87 26.1121 1159.18 32.0264 Q1164.53 37.9003 1164.53 48.0275 M1157.07 45.84 Q1156.99 39.7232 1153.63 36.0774 Q1150.31 32.4315 1144.8 32.4315 Q1138.56 32.4315 1134.79 35.9558 Q1131.07 39.4801 1130.5 45.8805 L1157.07 45.84 Z" fill="#000000" fill-rule="nonzero" fill-opacity="1" /><path clip-path="url(#clip870)" d="M1178.66 62.2867 L1187.21 62.2867 L1187.21 72.576 L1178.66 72.576 L1178.66 62.2867 M1178.66 29.6769 L1187.21 29.6769 L1187.21 39.9662 L1178.66 39.9662 L1178.66 29.6769 Z" fill="#000000" fill-rule="nonzero" fill-opacity="1" /><path clip-path="url(#clip870)" d="M1231.41 12.096 L1243.6 12.096 L1259.03 53.2532 L1274.55 12.096 L1286.74 12.096 L1286.74 72.576 L1278.76 72.576 L1278.76 19.4686 L1263.17 60.9499 L1254.94 60.9499 L1239.35 19.4686 L1239.35 72.576 L1231.41 72.576 L1231.41 12.096 Z" fill="#000000" fill-rule="nonzero" fill-opacity="1" /><path clip-path="url(#clip870)" d="M1331.67 44.2197 Q1334.3 45.1109 1336.77 48.0275 Q1339.28 50.9442 1341.79 56.0483 L1350.1 72.576 L1341.31 72.576 L1333.57 57.061 Q1330.57 50.9847 1327.74 48.9997 Q1324.94 47.0148 1320.08 47.0148 L1311.17 47.0148 L1311.17 72.576 L1302.99 72.576 L1302.99 12.096 L1321.46 12.096 Q1331.83 12.096 1336.93 16.4305 Q1342.04 20.7649 1342.04 29.5149 Q1342.04 35.2267 1339.36 38.994 Q1336.73 42.7613 1331.67 44.2197 M1311.17 18.8205 L1311.17 40.2903 L1321.46 40.2903 Q1327.37 40.2903 1330.37 37.5762 Q1333.41 34.8216 1333.41 29.5149 Q1333.41 24.2082 1330.37 21.5346 Q1327.37 18.8205 1321.46 18.8205 L1311.17 18.8205 Z" fill="#000000" fill-rule="nonzero" fill-opacity="1" /><path clip-path="url(#clip870)" d="M1377.48 20.1573 L1366.38 50.2555 L1388.62 50.2555 L1377.48 20.1573 M1372.86 12.096 L1382.14 12.096 L1405.19 72.576 L1396.68 72.576 L1391.17 57.061 L1363.91 57.061 L1358.4 72.576 L1349.77 72.576 L1372.86 12.096 Z" fill="#000000" fill-rule="nonzero" fill-opacity="1" /><path clip-path="url(#clip870)" d="M1414.02 12.096 L1452.26 12.096 L1452.26 18.9825 L1422.2 18.9825 L1422.2 36.8875 L1451.01 36.8875 L1451.01 43.7741 L1422.2 43.7741 L1422.2 65.6895 L1452.99 65.6895 L1452.99 72.576 L1414.02 72.576 L1414.02 12.096 Z" fill="#000000" fill-rule="nonzero" fill-opacity="1" /><path clip-path="url(#clip870)" d="M1489.08 9.54393 L1489.08 15.7418 L1481.96 15.7418 Q1477.94 15.7418 1476.37 17.3622 Q1474.83 18.9825 1474.83 23.1955 L1474.83 27.2059 L1487.1 27.2059 L1487.1 32.9987 L1474.83 32.9987 L1474.83 72.576 L1467.33 72.576 L1467.33 32.9987 L1460.2 32.9987 L1460.2 27.2059 L1467.33 27.2059 L1467.33 24.0462 Q1467.33 16.471 1470.86 13.0277 Q1474.38 9.54393 1482.04 9.54393 L1489.08 9.54393 Z" fill="#000000" fill-rule="nonzero" fill-opacity="1" /><path clip-path="url(#clip870)" d="M1516.35 27.2059 L1524.25 27.2059 L1538.42 65.2844 L1552.6 27.2059 L1560.5 27.2059 L1543.49 72.576 L1533.36 72.576 L1516.35 27.2059 Z" fill="#000000" fill-rule="nonzero" fill-opacity="1" /><path clip-path="url(#clip870)" d="M1599.72 28.5427 L1599.72 35.5912 Q1596.56 33.9709 1593.15 33.1607 Q1589.75 32.3505 1586.1 32.3505 Q1580.55 32.3505 1577.76 34.0519 Q1575 35.7533 1575 39.156 Q1575 41.7486 1576.99 43.2475 Q1578.97 44.7058 1584.97 46.0426 L1587.52 46.6097 Q1595.46 48.3111 1598.78 51.4303 Q1602.15 54.509 1602.15 60.0587 Q1602.15 66.3781 1597.12 70.0644 Q1592.14 73.7508 1583.39 73.7508 Q1579.74 73.7508 1575.77 73.0216 Q1571.84 72.3329 1567.47 70.9151 L1567.47 63.2184 Q1571.6 65.3654 1575.61 66.4591 Q1579.62 67.5124 1583.55 67.5124 Q1588.82 67.5124 1591.65 65.73 Q1594.49 63.9071 1594.49 60.6258 Q1594.49 57.5877 1592.42 55.9673 Q1590.4 54.3469 1583.47 52.8481 L1580.88 52.2405 Q1573.95 50.7821 1570.87 47.7845 Q1567.79 44.7463 1567.79 39.4801 Q1567.79 33.0797 1572.33 29.5959 Q1576.87 26.1121 1585.21 26.1121 Q1589.34 26.1121 1592.99 26.7198 Q1596.64 27.3274 1599.72 28.5427 Z" fill="#000000" fill-rule="nonzero" fill-opacity="1" /><path clip-path="url(#clip870)" d="M1640.71 12.096 L1648.89 12.096 L1648.89 36.8875 L1678.63 36.8875 L1678.63 12.096 L1686.81 12.096 L1686.81 72.576 L1678.63 72.576 L1678.63 43.7741 L1648.89 43.7741 L1648.89 72.576 L1640.71 72.576 L1640.71 12.096 Z" fill="#000000" fill-rule="nonzero" fill-opacity="1" /><path clip-path="url(#clip870)" d="M1720.35 32.4315 Q1714.36 32.4315 1710.87 37.1306 Q1707.39 41.7891 1707.39 49.9314 Q1707.39 58.0738 1710.83 62.7728 Q1714.32 67.4314 1720.35 67.4314 Q1726.31 67.4314 1729.79 62.7323 Q1733.27 58.0333 1733.27 49.9314 Q1733.27 41.8701 1729.79 37.1711 Q1726.31 32.4315 1720.35 32.4315 M1720.35 26.1121 Q1730.07 26.1121 1735.62 32.4315 Q1741.17 38.7509 1741.17 49.9314 Q1741.17 61.0714 1735.62 67.4314 Q1730.07 73.7508 1720.35 73.7508 Q1710.59 73.7508 1705.04 67.4314 Q1699.53 61.0714 1699.53 49.9314 Q1699.53 38.7509 1705.04 32.4315 Q1710.59 26.1121 1720.35 26.1121 Z" fill="#000000" fill-rule="nonzero" fill-opacity="1" /><path clip-path="url(#clip870)" d="M1779.82 34.1734 Q1778.56 33.4443 1777.06 33.1202 Q1775.61 32.7556 1773.82 32.7556 Q1767.5 32.7556 1764.1 36.8875 Q1760.74 40.9789 1760.74 48.6757 L1760.74 72.576 L1753.24 72.576 L1753.24 27.2059 L1760.74 27.2059 L1760.74 34.2544 Q1763.09 30.1225 1766.86 28.1376 Q1770.62 26.1121 1776.01 26.1121 Q1776.78 26.1121 1777.71 26.2337 Q1778.64 26.3147 1779.78 26.5172 L1779.82 34.1734 Z" fill="#000000" fill-rule="nonzero" fill-opacity="1" /><path clip-path="url(#clip870)" d="M1787.64 27.2059 L1795.09 27.2059 L1795.09 72.576 L1787.64 72.576 L1787.64 27.2059 M1787.64 9.54393 L1795.09 9.54393 L1795.09 18.9825 L1787.64 18.9825 L1787.64 9.54393 Z" fill="#000000" fill-rule="nonzero" fill-opacity="1" /><path clip-path="url(#clip870)" d="M1807.45 27.2059 L1842.85 27.2059 L1842.85 34.0114 L1814.82 66.6212 L1842.85 66.6212 L1842.85 72.576 L1806.43 72.576 L1806.43 65.7705 L1834.46 33.1607 L1807.45 33.1607 L1807.45 27.2059 Z" fill="#000000" fill-rule="nonzero" fill-opacity="1" /><path clip-path="url(#clip870)" d="M1871.81 32.4315 Q1865.82 32.4315 1862.34 37.1306 Q1858.85 41.7891 1858.85 49.9314 Q1858.85 58.0738 1862.29 62.7728 Q1865.78 67.4314 1871.81 67.4314 Q1877.77 67.4314 1881.25 62.7323 Q1884.74 58.0333 1884.74 49.9314 Q1884.74 41.8701 1881.25 37.1711 Q1877.77 32.4315 1871.81 32.4315 M1871.81 26.1121 Q1881.54 26.1121 1887.09 32.4315 Q1892.64 38.7509 1892.64 49.9314 Q1892.64 61.0714 1887.09 67.4314 Q1881.54 73.7508 1871.81 73.7508 Q1862.05 73.7508 1856.5 67.4314 Q1850.99 61.0714 1850.99 49.9314 Q1850.99 38.7509 1856.5 32.4315 Q1862.05 26.1121 1871.81 26.1121 Z" fill="#000000" fill-rule="nonzero" fill-opacity="1" /><path clip-path="url(#clip870)" d="M1942.71 45.1919 L1942.71 72.576 L1935.25 72.576 L1935.25 45.4349 Q1935.25 38.994 1932.74 35.7938 Q1930.23 32.5936 1925.21 32.5936 Q1919.17 32.5936 1915.69 36.4419 Q1912.2 40.2903 1912.2 46.9338 L1912.2 72.576 L1904.71 72.576 L1904.71 27.2059 L1912.2 27.2059 L1912.2 34.2544 Q1914.88 30.163 1918.48 28.1376 Q1922.13 26.1121 1926.87 26.1121 Q1934.68 26.1121 1938.69 30.9732 Q1942.71 35.7938 1942.71 45.1919 Z" fill="#000000" fill-rule="nonzero" fill-opacity="1" /><circle clip-path="url(#clip872)" cx="396.992" cy="160.256" r="14.4" fill="#009af9" fill-rule="evenodd" fill-opacity="1" stroke="#000000" stroke-opacity="1" stroke-width="3.2"/>
<circle clip-path="url(#clip872)" cx="569.61" cy="1089.34" r="14.4" fill="#009af9" fill-rule="evenodd" fill-opacity="1" stroke="#000000" stroke-opacity="1" stroke-width="3.2"/>
<circle clip-path="url(#clip872)" cx="742.228" cy="1222.08" r="14.4" fill="#009af9" fill-rule="evenodd" fill-opacity="1" stroke="#000000" stroke-opacity="1" stroke-width="3.2"/>
<circle clip-path="url(#clip872)" cx="914.846" cy="1330.64" r="14.4" fill="#009af9" fill-rule="evenodd" fill-opacity="1" stroke="#000000" stroke-opacity="1" stroke-width="3.2"/>
<circle clip-path="url(#clip872)" cx="1087.46" cy="1373.02" r="14.4" fill="#009af9" fill-rule="evenodd" fill-opacity="1" stroke="#000000" stroke-opacity="1" stroke-width="3.2"/>
<circle clip-path="url(#clip872)" cx="1260.08" cy="1349.27" r="14.4" fill="#009af9" fill-rule="evenodd" fill-opacity="1" stroke="#000000" stroke-opacity="1" stroke-width="3.2"/>
<circle clip-path="url(#clip872)" cx="1432.7" cy="1346.72" r="14.4" fill="#009af9" fill-rule="evenodd" fill-opacity="1" stroke="#000000" stroke-opacity="1" stroke-width="3.2"/>
<circle clip-path="url(#clip872)" cx="1605.32" cy="1373.65" r="14.4" fill="#009af9" fill-rule="evenodd" fill-opacity="1" stroke="#000000" stroke-opacity="1" stroke-width="3.2"/>
<circle clip-path="url(#clip872)" cx="1777.94" cy="1379.92" r="14.4" fill="#009af9" fill-rule="evenodd" fill-opacity="1" stroke="#000000" stroke-opacity="1" stroke-width="3.2"/>
<circle clip-path="url(#clip872)" cx="1950.56" cy="1367.97" r="14.4" fill="#009af9" fill-rule="evenodd" fill-opacity="1" stroke="#000000" stroke-opacity="1" stroke-width="3.2"/>
<circle clip-path="url(#clip872)" cx="2123.17" cy="1369.42" r="14.4" fill="#009af9" fill-rule="evenodd" fill-opacity="1" stroke="#000000" stroke-opacity="1" stroke-width="3.2"/>
<circle clip-path="url(#clip872)" cx="2295.79" cy="1386.4" r="14.4" fill="#009af9" fill-rule="evenodd" fill-opacity="1" stroke="#000000" stroke-opacity="1" stroke-width="3.2"/>
<circle clip-path="url(#clip872)" cx="396.992" cy="464.346" r="14.4" fill="#e26f46" fill-rule="evenodd" fill-opacity="1" stroke="#000000" stroke-opacity="1" stroke-width="3.2"/>
<circle clip-path="url(#clip872)" cx="569.61" cy="1129.09" r="14.4" fill="#e26f46" fill-rule="evenodd" fill-opacity="1" stroke="#000000" stroke-opacity="1" stroke-width="3.2"/>
<circle clip-path="url(#clip872)" cx="742.228" cy="1218.43" r="14.4" fill="#e26f46" fill-rule="evenodd" fill-opacity="1" stroke="#000000" stroke-opacity="1" stroke-width="3.2"/>
<circle clip-path="url(#clip872)" cx="914.846" cy="1335.07" r="14.4" fill="#e26f46" fill-rule="evenodd" fill-opacity="1" stroke="#000000" stroke-opacity="1" stroke-width="3.2"/>
<circle clip-path="url(#clip872)" cx="1087.46" cy="1368.73" r="14.4" fill="#e26f46" fill-rule="evenodd" fill-opacity="1" stroke="#000000" stroke-opacity="1" stroke-width="3.2"/>
<circle clip-path="url(#clip872)" cx="1260.08" cy="1341.3" r="14.4" fill="#e26f46" fill-rule="evenodd" fill-opacity="1" stroke="#000000" stroke-opacity="1" stroke-width="3.2"/>
<circle clip-path="url(#clip872)" cx="1432.7" cy="1332.11" r="14.4" fill="#e26f46" fill-rule="evenodd" fill-opacity="1" stroke="#000000" stroke-opacity="1" stroke-width="3.2"/>
<circle clip-path="url(#clip872)" cx="1605.32" cy="1372.29" r="14.4" fill="#e26f46" fill-rule="evenodd" fill-opacity="1" stroke="#000000" stroke-opacity="1" stroke-width="3.2"/>
<circle clip-path="url(#clip872)" cx="1777.94" cy="1374.54" r="14.4" fill="#e26f46" fill-rule="evenodd" fill-opacity="1" stroke="#000000" stroke-opacity="1" stroke-width="3.2"/>
<circle clip-path="url(#clip872)" cx="1950.56" cy="1358.72" r="14.4" fill="#e26f46" fill-rule="evenodd" fill-opacity="1" stroke="#000000" stroke-opacity="1" stroke-width="3.2"/>
<circle clip-path="url(#clip872)" cx="2123.17" cy="1358.09" r="14.4" fill="#e26f46" fill-rule="evenodd" fill-opacity="1" stroke="#000000" stroke-opacity="1" stroke-width="3.2"/>
<circle clip-path="url(#clip872)" cx="2295.79" cy="1381.8" r="14.4" fill="#e26f46" fill-rule="evenodd" fill-opacity="1" stroke="#000000" stroke-opacity="1" stroke-width="3.2"/>
<path clip-path="url(#clip870)" d="M1856.43 322.316 L2285.66 322.316 L2285.66 166.796 L1856.43 166.796  Z" fill="#ffffff" fill-rule="evenodd" fill-opacity="1"/>
<polyline clip-path="url(#clip870)" style="stroke:#000000; stroke-linecap:round; stroke-linejoin:round; stroke-width:4; stroke-opacity:1; fill:none" points="1856.43,322.316 2285.66,322.316 2285.66,166.796 1856.43,166.796 1856.43,322.316 "/>
<circle clip-path="url(#clip870)" cx="1945.88" cy="218.636" r="20.48" fill="#009af9" fill-rule="evenodd" fill-opacity="1" stroke="#000000" stroke-opacity="1" stroke-width="4.55111"/>
<path clip-path="url(#clip870)" d="M2042.75 202.629 L2042.75 209.99 L2051.52 209.99 L2051.52 213.3 L2042.75 213.3 L2042.75 227.374 Q2042.75 230.545 2043.6 231.448 Q2044.48 232.351 2047.15 232.351 L2051.52 232.351 L2051.52 235.916 L2047.15 235.916 Q2042.21 235.916 2040.34 234.087 Q2038.46 232.235 2038.46 227.374 L2038.46 213.3 L2035.34 213.3 L2035.34 209.99 L2038.46 209.99 L2038.46 202.629 L2042.75 202.629 Z" fill="#000000" fill-rule="nonzero" fill-opacity="1" /><path clip-path="url(#clip870)" d="M2072.14 213.971 Q2071.43 213.555 2070.57 213.37 Q2069.74 213.161 2068.72 213.161 Q2065.11 213.161 2063.16 215.522 Q2061.24 217.86 2061.24 222.258 L2061.24 235.916 L2056.96 235.916 L2056.96 209.99 L2061.24 209.99 L2061.24 214.018 Q2062.58 211.657 2064.74 210.522 Q2066.89 209.365 2069.97 209.365 Q2070.41 209.365 2070.94 209.434 Q2071.47 209.481 2072.12 209.596 L2072.14 213.971 Z" fill="#000000" fill-rule="nonzero" fill-opacity="1" /><path clip-path="url(#clip870)" d="M2088.39 222.883 Q2083.23 222.883 2081.24 224.064 Q2079.25 225.244 2079.25 228.092 Q2079.25 230.36 2080.73 231.703 Q2082.24 233.022 2084.81 233.022 Q2088.35 233.022 2090.48 230.522 Q2092.63 227.999 2092.63 223.832 L2092.63 222.883 L2088.39 222.883 M2096.89 221.124 L2096.89 235.916 L2092.63 235.916 L2092.63 231.981 Q2091.17 234.342 2089 235.476 Q2086.82 236.587 2083.67 236.587 Q2079.69 236.587 2077.33 234.365 Q2074.99 232.119 2074.99 228.369 Q2074.99 223.994 2077.91 221.772 Q2080.85 219.55 2086.66 219.55 L2092.63 219.55 L2092.63 219.133 Q2092.63 216.194 2090.69 214.596 Q2088.77 212.976 2085.27 212.976 Q2083.05 212.976 2080.94 213.508 Q2078.83 214.041 2076.89 215.106 L2076.89 211.17 Q2079.23 210.268 2081.43 209.828 Q2083.63 209.365 2085.71 209.365 Q2091.33 209.365 2094.11 212.282 Q2096.89 215.198 2096.89 221.124 Z" fill="#000000" fill-rule="nonzero" fill-opacity="1" /><path clip-path="url(#clip870)" d="M2105.66 209.99 L2109.92 209.99 L2109.92 235.916 L2105.66 235.916 L2105.66 209.99 M2105.66 199.897 L2109.92 199.897 L2109.92 205.291 L2105.66 205.291 L2105.66 199.897 Z" fill="#000000" fill-rule="nonzero" fill-opacity="1" /><path clip-path="url(#clip870)" d="M2140.39 220.268 L2140.39 235.916 L2136.13 235.916 L2136.13 220.407 Q2136.13 216.726 2134.69 214.897 Q2133.26 213.069 2130.39 213.069 Q2126.94 213.069 2124.95 215.268 Q2122.95 217.467 2122.95 221.263 L2122.95 235.916 L2118.67 235.916 L2118.67 209.99 L2122.95 209.99 L2122.95 214.018 Q2124.48 211.68 2126.54 210.522 Q2128.63 209.365 2131.33 209.365 Q2135.8 209.365 2138.09 212.143 Q2140.39 214.897 2140.39 220.268 Z" fill="#000000" fill-rule="nonzero" fill-opacity="1" /><path clip-path="url(#clip870)" d="M2148.88 209.99 L2153.14 209.99 L2153.14 235.916 L2148.88 235.916 L2148.88 209.99 M2148.88 199.897 L2153.14 199.897 L2153.14 205.291 L2148.88 205.291 L2148.88 199.897 Z" fill="#000000" fill-rule="nonzero" fill-opacity="1" /><path clip-path="url(#clip870)" d="M2183.6 220.268 L2183.6 235.916 L2179.34 235.916 L2179.34 220.407 Q2179.34 216.726 2177.91 214.897 Q2176.47 213.069 2173.6 213.069 Q2170.15 213.069 2168.16 215.268 Q2166.17 217.467 2166.17 221.263 L2166.17 235.916 L2161.89 235.916 L2161.89 209.99 L2166.17 209.99 L2166.17 214.018 Q2167.7 211.68 2169.76 210.522 Q2171.84 209.365 2174.55 209.365 Q2179.02 209.365 2181.31 212.143 Q2183.6 214.897 2183.6 220.268 Z" fill="#000000" fill-rule="nonzero" fill-opacity="1" /><path clip-path="url(#clip870)" d="M2209.16 222.652 Q2209.16 218.022 2207.24 215.476 Q2205.34 212.93 2201.89 212.93 Q2198.46 212.93 2196.54 215.476 Q2194.64 218.022 2194.64 222.652 Q2194.64 227.258 2196.54 229.805 Q2198.46 232.351 2201.89 232.351 Q2205.34 232.351 2207.24 229.805 Q2209.16 227.258 2209.16 222.652 M2213.42 232.698 Q2213.42 239.318 2210.48 242.536 Q2207.54 245.777 2201.47 245.777 Q2199.23 245.777 2197.24 245.43 Q2195.25 245.105 2193.37 244.411 L2193.37 240.268 Q2195.25 241.286 2197.07 241.772 Q2198.9 242.258 2200.8 242.258 Q2204.99 242.258 2207.07 240.059 Q2209.16 237.883 2209.16 233.462 L2209.16 231.356 Q2207.84 233.647 2205.78 234.781 Q2203.72 235.916 2200.85 235.916 Q2196.08 235.916 2193.16 232.281 Q2190.25 228.647 2190.25 222.652 Q2190.25 216.633 2193.16 212.999 Q2196.08 209.365 2200.85 209.365 Q2203.72 209.365 2205.78 210.499 Q2207.84 211.633 2209.16 213.925 L2209.16 209.99 L2213.42 209.99 L2213.42 232.698 Z" fill="#000000" fill-rule="nonzero" fill-opacity="1" /><circle clip-path="url(#clip870)" cx="1945.88" cy="270.476" r="20.48" fill="#e26f46" fill-rule="evenodd" fill-opacity="1" stroke="#000000" stroke-opacity="1" stroke-width="4.55111"/>
<path clip-path="url(#clip870)" d="M2035.34 261.83 L2039.85 261.83 L2047.96 283.589 L2056.06 261.83 L2060.57 261.83 L2050.85 287.756 L2045.06 287.756 L2035.34 261.83 Z" fill="#000000" fill-rule="nonzero" fill-opacity="1" /><path clip-path="url(#clip870)" d="M2078.23 274.723 Q2073.07 274.723 2071.08 275.904 Q2069.09 277.084 2069.09 279.932 Q2069.09 282.2 2070.57 283.543 Q2072.08 284.862 2074.64 284.862 Q2078.19 284.862 2080.32 282.362 Q2082.47 279.839 2082.47 275.672 L2082.47 274.723 L2078.23 274.723 M2086.73 272.964 L2086.73 287.756 L2082.47 287.756 L2082.47 283.821 Q2081.01 286.182 2078.83 287.316 Q2076.66 288.427 2073.51 288.427 Q2069.53 288.427 2067.17 286.205 Q2064.83 283.959 2064.83 280.209 Q2064.83 275.834 2067.75 273.612 Q2070.69 271.39 2076.5 271.39 L2082.47 271.39 L2082.47 270.973 Q2082.47 268.034 2080.52 266.436 Q2078.6 264.816 2075.11 264.816 Q2072.89 264.816 2070.78 265.348 Q2068.67 265.881 2066.73 266.946 L2066.73 263.01 Q2069.07 262.108 2071.27 261.668 Q2073.46 261.205 2075.55 261.205 Q2081.17 261.205 2083.95 264.122 Q2086.73 267.038 2086.73 272.964 Z" fill="#000000" fill-rule="nonzero" fill-opacity="1" /><path clip-path="url(#clip870)" d="M2095.5 251.737 L2099.76 251.737 L2099.76 287.756 L2095.5 287.756 L2095.5 251.737 Z" fill="#000000" fill-rule="nonzero" fill-opacity="1" /><path clip-path="url(#clip870)" d="M2108.67 261.83 L2112.93 261.83 L2112.93 287.756 L2108.67 287.756 L2108.67 261.83 M2108.67 251.737 L2112.93 251.737 L2112.93 257.131 L2108.67 257.131 L2108.67 251.737 Z" fill="#000000" fill-rule="nonzero" fill-opacity="1" /><path clip-path="url(#clip870)" d="M2138.9 265.765 L2138.9 251.737 L2143.16 251.737 L2143.16 287.756 L2138.9 287.756 L2138.9 283.867 Q2137.56 286.182 2135.5 287.316 Q2133.46 288.427 2130.59 288.427 Q2125.89 288.427 2122.93 284.677 Q2119.99 280.927 2119.99 274.816 Q2119.99 268.705 2122.93 264.955 Q2125.89 261.205 2130.59 261.205 Q2133.46 261.205 2135.5 262.339 Q2137.56 263.45 2138.9 265.765 M2124.39 274.816 Q2124.39 279.515 2126.31 282.2 Q2128.26 284.862 2131.64 284.862 Q2135.01 284.862 2136.96 282.2 Q2138.9 279.515 2138.9 274.816 Q2138.9 270.117 2136.96 267.455 Q2135.01 264.77 2131.64 264.77 Q2128.26 264.77 2126.31 267.455 Q2124.39 270.117 2124.39 274.816 Z" fill="#000000" fill-rule="nonzero" fill-opacity="1" /><path clip-path="url(#clip870)" d="M2163.72 274.723 Q2158.56 274.723 2156.57 275.904 Q2154.58 277.084 2154.58 279.932 Q2154.58 282.2 2156.06 283.543 Q2157.56 284.862 2160.13 284.862 Q2163.67 284.862 2165.8 282.362 Q2167.95 279.839 2167.95 275.672 L2167.95 274.723 L2163.72 274.723 M2172.21 272.964 L2172.21 287.756 L2167.95 287.756 L2167.95 283.821 Q2166.5 286.182 2164.32 287.316 Q2162.14 288.427 2159 288.427 Q2155.01 288.427 2152.65 286.205 Q2150.32 283.959 2150.32 280.209 Q2150.32 275.834 2153.23 273.612 Q2156.17 271.39 2161.98 271.39 L2167.95 271.39 L2167.95 270.973 Q2167.95 268.034 2166.01 266.436 Q2164.09 264.816 2160.59 264.816 Q2158.37 264.816 2156.26 265.348 Q2154.16 265.881 2152.21 266.946 L2152.21 263.01 Q2154.55 262.108 2156.75 261.668 Q2158.95 261.205 2161.03 261.205 Q2166.66 261.205 2169.44 264.122 Q2172.21 267.038 2172.21 272.964 Z" fill="#000000" fill-rule="nonzero" fill-opacity="1" /><path clip-path="url(#clip870)" d="M2185.2 254.469 L2185.2 261.83 L2193.97 261.83 L2193.97 265.14 L2185.2 265.14 L2185.2 279.214 Q2185.2 282.385 2186.06 283.288 Q2186.94 284.191 2189.6 284.191 L2193.97 284.191 L2193.97 287.756 L2189.6 287.756 Q2184.67 287.756 2182.79 285.927 Q2180.92 284.075 2180.92 279.214 L2180.92 265.14 L2177.79 265.14 L2177.79 261.83 L2180.92 261.83 L2180.92 254.469 L2185.2 254.469 Z" fill="#000000" fill-rule="nonzero" fill-opacity="1" /><path clip-path="url(#clip870)" d="M2199.57 261.83 L2203.83 261.83 L2203.83 287.756 L2199.57 287.756 L2199.57 261.83 M2199.57 251.737 L2203.83 251.737 L2203.83 257.131 L2199.57 257.131 L2199.57 251.737 Z" fill="#000000" fill-rule="nonzero" fill-opacity="1" /><path clip-path="url(#clip870)" d="M2222.79 264.816 Q2219.37 264.816 2217.38 267.501 Q2215.38 270.163 2215.38 274.816 Q2215.38 279.469 2217.35 282.154 Q2219.34 284.816 2222.79 284.816 Q2226.2 284.816 2228.19 282.131 Q2230.18 279.446 2230.18 274.816 Q2230.18 270.21 2228.19 267.524 Q2226.2 264.816 2222.79 264.816 M2222.79 261.205 Q2228.35 261.205 2231.52 264.816 Q2234.69 268.427 2234.69 274.816 Q2234.69 281.182 2231.52 284.816 Q2228.35 288.427 2222.79 288.427 Q2217.21 288.427 2214.04 284.816 Q2210.89 281.182 2210.89 274.816 Q2210.89 268.427 2214.04 264.816 Q2217.21 261.205 2222.79 261.205 Z" fill="#000000" fill-rule="nonzero" fill-opacity="1" /><path clip-path="url(#clip870)" d="M2263.3 272.108 L2263.3 287.756 L2259.04 287.756 L2259.04 272.247 Q2259.04 268.566 2257.61 266.737 Q2256.17 264.909 2253.3 264.909 Q2249.85 264.909 2247.86 267.108 Q2245.87 269.307 2245.87 273.103 L2245.87 287.756 L2241.59 287.756 L2241.59 261.83 L2245.87 261.83 L2245.87 265.858 Q2247.4 263.52 2249.46 262.362 Q2251.54 261.205 2254.25 261.205 Q2258.72 261.205 2261.01 263.983 Q2263.3 266.737 2263.3 272.108 Z" fill="#000000" fill-rule="nonzero" fill-opacity="1" /></svg>
