<?xml version="1.0" encoding="utf-8"?>
<svg xmlns="http://www.w3.org/2000/svg" xmlns:xlink="http://www.w3.org/1999/xlink" width="600" height="400" viewBox="0 0 2400 1600">
<defs>
  <clipPath id="clip230">
    <rect x="0" y="0" width="2400" height="1600"/>
  </clipPath>
</defs>
<path clip-path="url(#clip230)" d="M0 1600 L2400 1600 L2400 0 L0 0  Z" fill="#ffffff" fill-rule="evenodd" fill-opacity="1"/>
<defs>
  <clipPath id="clip231">
    <rect x="480" y="0" width="1681" height="1600"/>
  </clipPath>
</defs>
<path clip-path="url(#clip230)" d="M221.637 1423.18 L2352.76 1423.18 L2352.76 47.2441 L221.637 47.2441  Z" fill="#ffffff" fill-rule="evenodd" fill-opacity="1"/>
<defs>
  <clipPath id="clip232">
    <rect x="221" y="47" width="2132" height="1377"/>
  </clipPath>
</defs>
<polyline clip-path="url(#clip232)" style="stroke:#000000; stroke-linecap:round; stroke-linejoin:round; stroke-width:2; stroke-opacity:0.1; fill:none" points="262.262,1423.18 262.262,47.2441 "/>
<polyline clip-path="url(#clip232)" style="stroke:#000000; stroke-linecap:round; stroke-linejoin:round; stroke-width:2; stroke-opacity:0.1; fill:none" points="777.772,1423.18 777.772,47.2441 "/>
<polyline clip-path="url(#clip232)" style="stroke:#000000; stroke-linecap:round; stroke-linejoin:round; stroke-width:2; stroke-opacity:0.1; fill:none" points="1299.01,1423.18 1299.01,47.2441 "/>
<polyline clip-path="url(#clip232)" style="stroke:#000000; stroke-linecap:round; stroke-linejoin:round; stroke-width:2; stroke-opacity:0.1; fill:none" points="1825.98,1423.18 1825.98,47.2441 "/>
<polyline clip-path="url(#clip232)" style="stroke:#000000; stroke-linecap:round; stroke-linejoin:round; stroke-width:2; stroke-opacity:0.05; fill:none" points="365.364,1423.18 365.364,47.2441 "/>
<polyline clip-path="url(#clip232)" style="stroke:#000000; stroke-linecap:round; stroke-linejoin:round; stroke-width:2; stroke-opacity:0.05; fill:none" points="468.466,1423.18 468.466,47.2441 "/>
<polyline clip-path="url(#clip232)" style="stroke:#000000; stroke-linecap:round; stroke-linejoin:round; stroke-width:2; stroke-opacity:0.05; fill:none" points="571.568,1423.18 571.568,47.2441 "/>
<polyline clip-path="url(#clip232)" style="stroke:#000000; stroke-linecap:round; stroke-linejoin:round; stroke-width:2; stroke-opacity:0.05; fill:none" points="674.67,1423.18 674.67,47.2441 "/>
<polyline clip-path="url(#clip232)" style="stroke:#000000; stroke-linecap:round; stroke-linejoin:round; stroke-width:2; stroke-opacity:0.05; fill:none" points="882.02,1423.18 882.02,47.2441 "/>
<polyline clip-path="url(#clip232)" style="stroke:#000000; stroke-linecap:round; stroke-linejoin:round; stroke-width:2; stroke-opacity:0.05; fill:none" points="986.267,1423.18 986.267,47.2441 "/>
<polyline clip-path="url(#clip232)" style="stroke:#000000; stroke-linecap:round; stroke-linejoin:round; stroke-width:2; stroke-opacity:0.05; fill:none" points="1090.52,1423.18 1090.52,47.2441 "/>
<polyline clip-path="url(#clip232)" style="stroke:#000000; stroke-linecap:round; stroke-linejoin:round; stroke-width:2; stroke-opacity:0.05; fill:none" points="1194.76,1423.18 1194.76,47.2441 "/>
<polyline clip-path="url(#clip232)" style="stroke:#000000; stroke-linecap:round; stroke-linejoin:round; stroke-width:2; stroke-opacity:0.05; fill:none" points="1404.4,1423.18 1404.4,47.2441 "/>
<polyline clip-path="url(#clip232)" style="stroke:#000000; stroke-linecap:round; stroke-linejoin:round; stroke-width:2; stroke-opacity:0.05; fill:none" points="1509.8,1423.18 1509.8,47.2441 "/>
<polyline clip-path="url(#clip232)" style="stroke:#000000; stroke-linecap:round; stroke-linejoin:round; stroke-width:2; stroke-opacity:0.05; fill:none" points="1615.19,1423.18 1615.19,47.2441 "/>
<polyline clip-path="url(#clip232)" style="stroke:#000000; stroke-linecap:round; stroke-linejoin:round; stroke-width:2; stroke-opacity:0.05; fill:none" points="1720.58,1423.18 1720.58,47.2441 "/>
<polyline clip-path="url(#clip232)" style="stroke:#000000; stroke-linecap:round; stroke-linejoin:round; stroke-width:2; stroke-opacity:0.05; fill:none" points="1932.54,1423.18 1932.54,47.2441 "/>
<polyline clip-path="url(#clip232)" style="stroke:#000000; stroke-linecap:round; stroke-linejoin:round; stroke-width:2; stroke-opacity:0.05; fill:none" points="2039.1,1423.18 2039.1,47.2441 "/>
<polyline clip-path="url(#clip232)" style="stroke:#000000; stroke-linecap:round; stroke-linejoin:round; stroke-width:2; stroke-opacity:0.05; fill:none" points="2145.67,1423.18 2145.67,47.2441 "/>
<polyline clip-path="url(#clip232)" style="stroke:#000000; stroke-linecap:round; stroke-linejoin:round; stroke-width:2; stroke-opacity:0.05; fill:none" points="2252.23,1423.18 2252.23,47.2441 "/>
<polyline clip-path="url(#clip230)" style="stroke:#000000; stroke-linecap:round; stroke-linejoin:round; stroke-width:4; stroke-opacity:1; fill:none" points="221.637,1423.18 2352.76,1423.18 "/>
<polyline clip-path="url(#clip230)" style="stroke:#000000; stroke-linecap:round; stroke-linejoin:round; stroke-width:4; stroke-opacity:1; fill:none" points="262.262,1423.18 262.262,1404.28 "/>
<polyline clip-path="url(#clip230)" style="stroke:#000000; stroke-linecap:round; stroke-linejoin:round; stroke-width:4; stroke-opacity:1; fill:none" points="777.772,1423.18 777.772,1404.28 "/>
<polyline clip-path="url(#clip230)" style="stroke:#000000; stroke-linecap:round; stroke-linejoin:round; stroke-width:4; stroke-opacity:1; fill:none" points="1299.01,1423.18 1299.01,1404.28 "/>
<polyline clip-path="url(#clip230)" style="stroke:#000000; stroke-linecap:round; stroke-linejoin:round; stroke-width:4; stroke-opacity:1; fill:none" points="1825.98,1423.18 1825.98,1404.28 "/>
<polyline clip-path="url(#clip230)" style="stroke:#000000; stroke-linecap:round; stroke-linejoin:round; stroke-width:4; stroke-opacity:1; fill:none" points="365.364,1423.18 365.364,1413.73 "/>
<polyline clip-path="url(#clip230)" style="stroke:#000000; stroke-linecap:round; stroke-linejoin:round; stroke-width:4; stroke-opacity:1; fill:none" points="468.466,1423.18 468.466,1413.73 "/>
<polyline clip-path="url(#clip230)" style="stroke:#000000; stroke-linecap:round; stroke-linejoin:round; stroke-width:4; stroke-opacity:1; fill:none" points="571.568,1423.18 571.568,1413.73 "/>
<polyline clip-path="url(#clip230)" style="stroke:#000000; stroke-linecap:round; stroke-linejoin:round; stroke-width:4; stroke-opacity:1; fill:none" points="674.67,1423.18 674.67,1413.73 "/>
<polyline clip-path="url(#clip230)" style="stroke:#000000; stroke-linecap:round; stroke-linejoin:round; stroke-width:4; stroke-opacity:1; fill:none" points="882.02,1423.18 882.02,1413.73 "/>
<polyline clip-path="url(#clip230)" style="stroke:#000000; stroke-linecap:round; stroke-linejoin:round; stroke-width:4; stroke-opacity:1; fill:none" points="986.267,1423.18 986.267,1413.73 "/>
<polyline clip-path="url(#clip230)" style="stroke:#000000; stroke-linecap:round; stroke-linejoin:round; stroke-width:4; stroke-opacity:1; fill:none" points="1090.52,1423.18 1090.52,1413.73 "/>
<polyline clip-path="url(#clip230)" style="stroke:#000000; stroke-linecap:round; stroke-linejoin:round; stroke-width:4; stroke-opacity:1; fill:none" points="1194.76,1423.18 1194.76,1413.73 "/>
<polyline clip-path="url(#clip230)" style="stroke:#000000; stroke-linecap:round; stroke-linejoin:round; stroke-width:4; stroke-opacity:1; fill:none" points="1404.4,1423.18 1404.4,1413.73 "/>
<polyline clip-path="url(#clip230)" style="stroke:#000000; stroke-linecap:round; stroke-linejoin:round; stroke-width:4; stroke-opacity:1; fill:none" points="1509.8,1423.18 1509.8,1413.73 "/>
<polyline clip-path="url(#clip230)" style="stroke:#000000; stroke-linecap:round; stroke-linejoin:round; stroke-width:4; stroke-opacity:1; fill:none" points="1615.19,1423.18 1615.19,1413.73 "/>
<polyline clip-path="url(#clip230)" style="stroke:#000000; stroke-linecap:round; stroke-linejoin:round; stroke-width:4; stroke-opacity:1; fill:none" points="1720.58,1423.18 1720.58,1413.73 "/>
<polyline clip-path="url(#clip230)" style="stroke:#000000; stroke-linecap:round; stroke-linejoin:round; stroke-width:4; stroke-opacity:1; fill:none" points="1932.54,1423.18 1932.54,1413.73 "/>
<polyline clip-path="url(#clip230)" style="stroke:#000000; stroke-linecap:round; stroke-linejoin:round; stroke-width:4; stroke-opacity:1; fill:none" points="2039.1,1423.18 2039.1,1413.73 "/>
<polyline clip-path="url(#clip230)" style="stroke:#000000; stroke-linecap:round; stroke-linejoin:round; stroke-width:4; stroke-opacity:1; fill:none" points="2145.67,1423.18 2145.67,1413.73 "/>
<polyline clip-path="url(#clip230)" style="stroke:#000000; stroke-linecap:round; stroke-linejoin:round; stroke-width:4; stroke-opacity:1; fill:none" points="2252.23,1423.18 2252.23,1413.73 "/>
<path clip-path="url(#clip230)" d="M134.057 1481.64 L150.376 1481.64 L150.376 1485.58 L128.432 1485.58 L128.432 1481.64 Q131.094 1478.89 135.677 1474.26 Q140.284 1469.61 141.464 1468.27 Q143.71 1465.74 144.589 1464.01 Q145.492 1462.25 145.492 1460.56 Q145.492 1457.8 143.548 1456.07 Q141.626 1454.33 138.524 1454.33 Q136.325 1454.33 133.872 1455.09 Q131.441 1455.86 128.663 1457.41 L128.663 1452.69 Q131.487 1451.55 133.941 1450.97 Q136.395 1450.39 138.432 1450.39 Q143.802 1450.39 146.997 1453.08 Q150.191 1455.77 150.191 1460.26 Q150.191 1462.39 149.381 1464.31 Q148.594 1466.2 146.487 1468.8 Q145.909 1469.47 142.807 1472.69 Q139.705 1475.88 134.057 1481.64 Z" fill="#000000" fill-rule="nonzero" fill-opacity="1" /><path clip-path="url(#clip230)" d="M170.191 1454.1 Q166.58 1454.1 164.751 1457.66 Q162.946 1461.2 162.946 1468.33 Q162.946 1475.44 164.751 1479.01 Q166.58 1482.55 170.191 1482.55 Q173.825 1482.55 175.631 1479.01 Q177.459 1475.44 177.459 1468.33 Q177.459 1461.2 175.631 1457.66 Q173.825 1454.1 170.191 1454.1 M170.191 1450.39 Q176.001 1450.39 179.057 1455 Q182.135 1459.58 182.135 1468.33 Q182.135 1477.06 179.057 1481.67 Q176.001 1486.25 170.191 1486.25 Q164.381 1486.25 161.302 1481.67 Q158.247 1477.06 158.247 1468.33 Q158.247 1459.58 161.302 1455 Q164.381 1450.39 170.191 1450.39 Z" fill="#000000" fill-rule="nonzero" fill-opacity="1" /><path clip-path="url(#clip230)" d="M194.381 1481.64 L210.7 1481.64 L210.7 1485.58 L188.756 1485.58 L188.756 1481.64 Q191.418 1478.89 196.001 1474.26 Q200.607 1469.61 201.788 1468.27 Q204.033 1465.74 204.913 1464.01 Q205.816 1462.25 205.816 1460.56 Q205.816 1457.8 203.871 1456.07 Q201.95 1454.33 198.848 1454.33 Q196.649 1454.33 194.195 1455.09 Q191.765 1455.86 188.987 1457.41 L188.987 1452.69 Q191.811 1451.55 194.265 1450.97 Q196.719 1450.39 198.756 1450.39 Q204.126 1450.39 207.32 1453.08 Q210.515 1455.77 210.515 1460.26 Q210.515 1462.39 209.705 1464.31 Q208.918 1466.2 206.811 1468.8 Q206.232 1469.47 203.131 1472.69 Q200.029 1475.88 194.381 1481.64 Z" fill="#000000" fill-rule="nonzero" fill-opacity="1" /><path clip-path="url(#clip230)" d="M221.325 1481.64 L228.964 1481.64 L228.964 1455.28 L220.654 1456.95 L220.654 1452.69 L228.917 1451.02 L233.593 1451.02 L233.593 1481.64 L241.232 1481.64 L241.232 1485.58 L221.325 1485.58 L221.325 1481.64 Z" fill="#000000" fill-rule="nonzero" fill-opacity="1" /><path clip-path="url(#clip230)" d="M247.922 1470.7 L260.399 1470.7 L260.399 1474.49 L247.922 1474.49 L247.922 1470.7 Z" fill="#000000" fill-rule="nonzero" fill-opacity="1" /><path clip-path="url(#clip230)" d="M277.783 1454.1 Q274.172 1454.1 272.343 1457.66 Q270.538 1461.2 270.538 1468.33 Q270.538 1475.44 272.343 1479.01 Q274.172 1482.55 277.783 1482.55 Q281.417 1482.55 283.223 1479.01 Q285.051 1475.44 285.051 1468.33 Q285.051 1461.2 283.223 1457.66 Q281.417 1454.1 277.783 1454.1 M277.783 1450.39 Q283.593 1450.39 286.649 1455 Q289.727 1459.58 289.727 1468.33 Q289.727 1477.06 286.649 1481.67 Q283.593 1486.25 277.783 1486.25 Q271.973 1486.25 268.894 1481.67 Q265.839 1477.06 265.839 1468.33 Q265.839 1459.58 268.894 1455 Q271.973 1450.39 277.783 1450.39 Z" fill="#000000" fill-rule="nonzero" fill-opacity="1" /><path clip-path="url(#clip230)" d="M298.755 1481.64 L306.394 1481.64 L306.394 1455.28 L298.084 1456.95 L298.084 1452.69 L306.348 1451.02 L311.023 1451.02 L311.023 1481.64 L318.662 1481.64 L318.662 1485.58 L298.755 1485.58 L298.755 1481.64 Z" fill="#000000" fill-rule="nonzero" fill-opacity="1" /><path clip-path="url(#clip230)" d="M325.352 1470.7 L337.829 1470.7 L337.829 1474.49 L325.352 1474.49 L325.352 1470.7 Z" fill="#000000" fill-rule="nonzero" fill-opacity="1" /><path clip-path="url(#clip230)" d="M355.213 1454.1 Q351.602 1454.1 349.773 1457.66 Q347.968 1461.2 347.968 1468.33 Q347.968 1475.44 349.773 1479.01 Q351.602 1482.55 355.213 1482.55 Q358.847 1482.55 360.653 1479.01 Q362.482 1475.44 362.482 1468.33 Q362.482 1461.2 360.653 1457.66 Q358.847 1454.1 355.213 1454.1 M355.213 1450.39 Q361.023 1450.39 364.079 1455 Q367.157 1459.58 367.157 1468.33 Q367.157 1477.06 364.079 1481.67 Q361.023 1486.25 355.213 1486.25 Q349.403 1486.25 346.324 1481.67 Q343.269 1477.06 343.269 1468.33 Q343.269 1459.58 346.324 1455 Q349.403 1450.39 355.213 1450.39 Z" fill="#000000" fill-rule="nonzero" fill-opacity="1" /><path clip-path="url(#clip230)" d="M376.185 1481.64 L383.824 1481.64 L383.824 1455.28 L375.514 1456.95 L375.514 1452.69 L383.778 1451.02 L388.454 1451.02 L388.454 1481.64 L396.092 1481.64 L396.092 1485.58 L376.185 1485.58 L376.185 1481.64 Z" fill="#000000" fill-rule="nonzero" fill-opacity="1" /><path clip-path="url(#clip230)" d="M649.567 1481.64 L665.886 1481.64 L665.886 1485.58 L643.942 1485.58 L643.942 1481.64 Q646.604 1478.89 651.187 1474.26 Q655.794 1469.61 656.974 1468.27 Q659.22 1465.74 660.099 1464.01 Q661.002 1462.25 661.002 1460.56 Q661.002 1457.8 659.058 1456.07 Q657.136 1454.33 654.035 1454.33 Q651.835 1454.33 649.382 1455.09 Q646.951 1455.86 644.173 1457.41 L644.173 1452.69 Q646.998 1451.55 649.451 1450.97 Q651.905 1450.39 653.942 1450.39 Q659.312 1450.39 662.507 1453.08 Q665.701 1455.77 665.701 1460.26 Q665.701 1462.39 664.891 1464.31 Q664.104 1466.2 661.997 1468.8 Q661.419 1469.47 658.317 1472.69 Q655.215 1475.88 649.567 1481.64 Z" fill="#000000" fill-rule="nonzero" fill-opacity="1" /><path clip-path="url(#clip230)" d="M685.701 1454.1 Q682.09 1454.1 680.261 1457.66 Q678.456 1461.2 678.456 1468.33 Q678.456 1475.44 680.261 1479.01 Q682.09 1482.55 685.701 1482.55 Q689.335 1482.55 691.141 1479.01 Q692.969 1475.44 692.969 1468.33 Q692.969 1461.2 691.141 1457.66 Q689.335 1454.1 685.701 1454.1 M685.701 1450.39 Q691.511 1450.39 694.567 1455 Q697.645 1459.58 697.645 1468.33 Q697.645 1477.06 694.567 1481.67 Q691.511 1486.25 685.701 1486.25 Q679.891 1486.25 676.812 1481.67 Q673.757 1477.06 673.757 1468.33 Q673.757 1459.58 676.812 1455 Q679.891 1450.39 685.701 1450.39 Z" fill="#000000" fill-rule="nonzero" fill-opacity="1" /><path clip-path="url(#clip230)" d="M709.891 1481.64 L726.21 1481.64 L726.21 1485.58 L704.266 1485.58 L704.266 1481.64 Q706.928 1478.89 711.511 1474.26 Q716.118 1469.61 717.298 1468.27 Q719.543 1465.74 720.423 1464.01 Q721.326 1462.25 721.326 1460.56 Q721.326 1457.8 719.381 1456.07 Q717.46 1454.33 714.358 1454.33 Q712.159 1454.33 709.706 1455.09 Q707.275 1455.86 704.497 1457.41 L704.497 1452.69 Q707.321 1451.55 709.775 1450.97 Q712.229 1450.39 714.266 1450.39 Q719.636 1450.39 722.83 1453.08 Q726.025 1455.77 726.025 1460.26 Q726.025 1462.39 725.215 1464.31 Q724.428 1466.2 722.321 1468.8 Q721.742 1469.47 718.641 1472.69 Q715.539 1475.88 709.891 1481.64 Z" fill="#000000" fill-rule="nonzero" fill-opacity="1" /><path clip-path="url(#clip230)" d="M736.835 1481.64 L744.474 1481.64 L744.474 1455.28 L736.164 1456.95 L736.164 1452.69 L744.428 1451.02 L749.103 1451.02 L749.103 1481.64 L756.742 1481.64 L756.742 1485.58 L736.835 1485.58 L736.835 1481.64 Z" fill="#000000" fill-rule="nonzero" fill-opacity="1" /><path clip-path="url(#clip230)" d="M763.432 1470.7 L775.909 1470.7 L775.909 1474.49 L763.432 1474.49 L763.432 1470.7 Z" fill="#000000" fill-rule="nonzero" fill-opacity="1" /><path clip-path="url(#clip230)" d="M793.293 1454.1 Q789.682 1454.1 787.853 1457.66 Q786.048 1461.2 786.048 1468.33 Q786.048 1475.44 787.853 1479.01 Q789.682 1482.55 793.293 1482.55 Q796.927 1482.55 798.733 1479.01 Q800.561 1475.44 800.561 1468.33 Q800.561 1461.2 798.733 1457.66 Q796.927 1454.1 793.293 1454.1 M793.293 1450.39 Q799.103 1450.39 802.159 1455 Q805.237 1459.58 805.237 1468.33 Q805.237 1477.06 802.159 1481.67 Q799.103 1486.25 793.293 1486.25 Q787.483 1486.25 784.404 1481.67 Q781.349 1477.06 781.349 1468.33 Q781.349 1459.58 784.404 1455 Q787.483 1450.39 793.293 1450.39 Z" fill="#000000" fill-rule="nonzero" fill-opacity="1" /><path clip-path="url(#clip230)" d="M826.302 1455.09 L814.497 1473.54 L826.302 1473.54 L826.302 1455.09 M825.075 1451.02 L830.955 1451.02 L830.955 1473.54 L835.885 1473.54 L835.885 1477.43 L830.955 1477.43 L830.955 1485.58 L826.302 1485.58 L826.302 1477.43 L810.7 1477.43 L810.7 1472.92 L825.075 1451.02 Z" fill="#000000" fill-rule="nonzero" fill-opacity="1" /><path clip-path="url(#clip230)" d="M840.862 1470.7 L853.339 1470.7 L853.339 1474.49 L840.862 1474.49 L840.862 1470.7 Z" fill="#000000" fill-rule="nonzero" fill-opacity="1" /><path clip-path="url(#clip230)" d="M870.723 1454.1 Q867.112 1454.1 865.283 1457.66 Q863.478 1461.2 863.478 1468.33 Q863.478 1475.44 865.283 1479.01 Q867.112 1482.55 870.723 1482.55 Q874.357 1482.55 876.163 1479.01 Q877.992 1475.44 877.992 1468.33 Q877.992 1461.2 876.163 1457.66 Q874.357 1454.1 870.723 1454.1 M870.723 1450.39 Q876.533 1450.39 879.589 1455 Q882.668 1459.58 882.668 1468.33 Q882.668 1477.06 879.589 1481.67 Q876.533 1486.25 870.723 1486.25 Q864.913 1486.25 861.834 1481.67 Q858.779 1477.06 858.779 1468.33 Q858.779 1459.58 861.834 1455 Q864.913 1450.39 870.723 1450.39 Z" fill="#000000" fill-rule="nonzero" fill-opacity="1" /><path clip-path="url(#clip230)" d="M891.695 1481.64 L899.334 1481.64 L899.334 1455.28 L891.024 1456.95 L891.024 1452.69 L899.288 1451.02 L903.964 1451.02 L903.964 1481.64 L911.603 1481.64 L911.603 1485.58 L891.695 1485.58 L891.695 1481.64 Z" fill="#000000" fill-rule="nonzero" fill-opacity="1" /><path clip-path="url(#clip230)" d="M1170.8 1481.64 L1187.12 1481.64 L1187.12 1485.58 L1165.18 1485.58 L1165.18 1481.64 Q1167.84 1478.89 1172.43 1474.26 Q1177.03 1469.61 1178.21 1468.27 Q1180.46 1465.74 1181.34 1464.01 Q1182.24 1462.25 1182.24 1460.56 Q1182.24 1457.8 1180.3 1456.07 Q1178.37 1454.33 1175.27 1454.33 Q1173.07 1454.33 1170.62 1455.09 Q1168.19 1455.86 1165.41 1457.41 L1165.41 1452.69 Q1168.24 1451.55 1170.69 1450.97 Q1173.14 1450.39 1175.18 1450.39 Q1180.55 1450.39 1183.74 1453.08 Q1186.94 1455.77 1186.94 1460.26 Q1186.94 1462.39 1186.13 1464.31 Q1185.34 1466.2 1183.24 1468.8 Q1182.66 1469.47 1179.55 1472.69 Q1176.45 1475.88 1170.8 1481.64 Z" fill="#000000" fill-rule="nonzero" fill-opacity="1" /><path clip-path="url(#clip230)" d="M1206.94 1454.1 Q1203.33 1454.1 1201.5 1457.66 Q1199.69 1461.2 1199.69 1468.33 Q1199.69 1475.44 1201.5 1479.01 Q1203.33 1482.55 1206.94 1482.55 Q1210.57 1482.55 1212.38 1479.01 Q1214.21 1475.44 1214.21 1468.33 Q1214.21 1461.2 1212.38 1457.66 Q1210.57 1454.1 1206.94 1454.1 M1206.94 1450.39 Q1212.75 1450.39 1215.8 1455 Q1218.88 1459.58 1218.88 1468.33 Q1218.88 1477.06 1215.8 1481.67 Q1212.75 1486.25 1206.94 1486.25 Q1201.13 1486.25 1198.05 1481.67 Q1194.99 1477.06 1194.99 1468.33 Q1194.99 1459.58 1198.05 1455 Q1201.13 1450.39 1206.94 1450.39 Z" fill="#000000" fill-rule="nonzero" fill-opacity="1" /><path clip-path="url(#clip230)" d="M1231.13 1481.64 L1247.45 1481.64 L1247.45 1485.58 L1225.5 1485.58 L1225.5 1481.64 Q1228.17 1478.89 1232.75 1474.26 Q1237.36 1469.61 1238.54 1468.27 Q1240.78 1465.74 1241.66 1464.01 Q1242.56 1462.25 1242.56 1460.56 Q1242.56 1457.8 1240.62 1456.07 Q1238.7 1454.33 1235.6 1454.33 Q1233.4 1454.33 1230.94 1455.09 Q1228.51 1455.86 1225.74 1457.41 L1225.74 1452.69 Q1228.56 1451.55 1231.01 1450.97 Q1233.47 1450.39 1235.5 1450.39 Q1240.87 1450.39 1244.07 1453.08 Q1247.26 1455.77 1247.26 1460.26 Q1247.26 1462.39 1246.45 1464.31 Q1245.67 1466.2 1243.56 1468.8 Q1242.98 1469.47 1239.88 1472.69 Q1236.78 1475.88 1231.13 1481.64 Z" fill="#000000" fill-rule="nonzero" fill-opacity="1" /><path clip-path="url(#clip230)" d="M1258.07 1481.64 L1265.71 1481.64 L1265.71 1455.28 L1257.4 1456.95 L1257.4 1452.69 L1265.67 1451.02 L1270.34 1451.02 L1270.34 1481.64 L1277.98 1481.64 L1277.98 1485.58 L1258.07 1485.58 L1258.07 1481.64 Z" fill="#000000" fill-rule="nonzero" fill-opacity="1" /><path clip-path="url(#clip230)" d="M1284.67 1470.7 L1297.15 1470.7 L1297.15 1474.49 L1284.67 1474.49 L1284.67 1470.7 Z" fill="#000000" fill-rule="nonzero" fill-opacity="1" /><path clip-path="url(#clip230)" d="M1314.53 1454.1 Q1310.92 1454.1 1309.09 1457.66 Q1307.29 1461.2 1307.29 1468.33 Q1307.29 1475.44 1309.09 1479.01 Q1310.92 1482.55 1314.53 1482.55 Q1318.17 1482.55 1319.97 1479.01 Q1321.8 1475.44 1321.8 1468.33 Q1321.8 1461.2 1319.97 1457.66 Q1318.17 1454.1 1314.53 1454.1 M1314.53 1450.39 Q1320.34 1450.39 1323.4 1455 Q1326.48 1459.58 1326.48 1468.33 Q1326.48 1477.06 1323.4 1481.67 Q1320.34 1486.25 1314.53 1486.25 Q1308.72 1486.25 1305.64 1481.67 Q1302.59 1477.06 1302.59 1468.33 Q1302.59 1459.58 1305.64 1455 Q1308.72 1450.39 1314.53 1450.39 Z" fill="#000000" fill-rule="nonzero" fill-opacity="1" /><path clip-path="url(#clip230)" d="M1333.51 1451.02 L1355.73 1451.02 L1355.73 1453.01 L1343.19 1485.58 L1338.3 1485.58 L1350.11 1454.96 L1333.51 1454.96 L1333.51 1451.02 Z" fill="#000000" fill-rule="nonzero" fill-opacity="1" /><path clip-path="url(#clip230)" d="M1362.1 1470.7 L1374.58 1470.7 L1374.58 1474.49 L1362.1 1474.49 L1362.1 1470.7 Z" fill="#000000" fill-rule="nonzero" fill-opacity="1" /><path clip-path="url(#clip230)" d="M1391.96 1454.1 Q1388.35 1454.1 1386.52 1457.66 Q1384.72 1461.2 1384.72 1468.33 Q1384.72 1475.44 1386.52 1479.01 Q1388.35 1482.55 1391.96 1482.55 Q1395.6 1482.55 1397.4 1479.01 Q1399.23 1475.44 1399.23 1468.33 Q1399.23 1461.2 1397.4 1457.66 Q1395.6 1454.1 1391.96 1454.1 M1391.96 1450.39 Q1397.77 1450.39 1400.83 1455 Q1403.91 1459.58 1403.91 1468.33 Q1403.91 1477.06 1400.83 1481.67 Q1397.77 1486.25 1391.96 1486.25 Q1386.15 1486.25 1383.07 1481.67 Q1380.02 1477.06 1380.02 1468.33 Q1380.02 1459.58 1383.07 1455 Q1386.15 1450.39 1391.96 1450.39 Z" fill="#000000" fill-rule="nonzero" fill-opacity="1" /><path clip-path="url(#clip230)" d="M1412.93 1481.64 L1420.57 1481.64 L1420.57 1455.28 L1412.26 1456.95 L1412.26 1452.69 L1420.53 1451.02 L1425.2 1451.02 L1425.2 1481.64 L1432.84 1481.64 L1432.84 1485.58 L1412.93 1485.58 L1412.93 1481.64 Z" fill="#000000" fill-rule="nonzero" fill-opacity="1" /><path clip-path="url(#clip230)" d="M1697.77 1481.64 L1714.09 1481.64 L1714.09 1485.58 L1692.15 1485.58 L1692.15 1481.64 Q1694.81 1478.89 1699.39 1474.26 Q1704 1469.61 1705.18 1468.27 Q1707.42 1465.74 1708.3 1464.01 Q1709.21 1462.25 1709.21 1460.56 Q1709.21 1457.8 1707.26 1456.07 Q1705.34 1454.33 1702.24 1454.33 Q1700.04 1454.33 1697.59 1455.09 Q1695.16 1455.86 1692.38 1457.41 L1692.38 1452.69 Q1695.2 1451.55 1697.66 1450.97 Q1700.11 1450.39 1702.15 1450.39 Q1707.52 1450.39 1710.71 1453.08 Q1713.91 1455.77 1713.91 1460.26 Q1713.91 1462.39 1713.09 1464.31 Q1712.31 1466.2 1710.2 1468.8 Q1709.62 1469.47 1706.52 1472.69 Q1703.42 1475.88 1697.77 1481.64 Z" fill="#000000" fill-rule="nonzero" fill-opacity="1" /><path clip-path="url(#clip230)" d="M1733.9 1454.1 Q1730.29 1454.1 1728.47 1457.66 Q1726.66 1461.2 1726.66 1468.33 Q1726.66 1475.44 1728.47 1479.01 Q1730.29 1482.55 1733.9 1482.55 Q1737.54 1482.55 1739.34 1479.01 Q1741.17 1475.44 1741.17 1468.33 Q1741.17 1461.2 1739.34 1457.66 Q1737.54 1454.1 1733.9 1454.1 M1733.9 1450.39 Q1739.72 1450.39 1742.77 1455 Q1745.85 1459.58 1745.85 1468.33 Q1745.85 1477.06 1742.77 1481.67 Q1739.72 1486.25 1733.9 1486.25 Q1728.09 1486.25 1725.02 1481.67 Q1721.96 1477.06 1721.96 1468.33 Q1721.96 1459.58 1725.02 1455 Q1728.09 1450.39 1733.9 1450.39 Z" fill="#000000" fill-rule="nonzero" fill-opacity="1" /><path clip-path="url(#clip230)" d="M1758.09 1481.64 L1774.41 1481.64 L1774.41 1485.58 L1752.47 1485.58 L1752.47 1481.64 Q1755.13 1478.89 1759.71 1474.26 Q1764.32 1469.61 1765.5 1468.27 Q1767.75 1465.74 1768.63 1464.01 Q1769.53 1462.25 1769.53 1460.56 Q1769.53 1457.8 1767.59 1456.07 Q1765.66 1454.33 1762.56 1454.33 Q1760.36 1454.33 1757.91 1455.09 Q1755.48 1455.86 1752.7 1457.41 L1752.7 1452.69 Q1755.53 1451.55 1757.98 1450.97 Q1760.43 1450.39 1762.47 1450.39 Q1767.84 1450.39 1771.03 1453.08 Q1774.23 1455.77 1774.23 1460.26 Q1774.23 1462.39 1773.42 1464.31 Q1772.63 1466.2 1770.53 1468.8 Q1769.95 1469.47 1766.84 1472.69 Q1763.74 1475.88 1758.09 1481.64 Z" fill="#000000" fill-rule="nonzero" fill-opacity="1" /><path clip-path="url(#clip230)" d="M1785.04 1481.64 L1792.68 1481.64 L1792.68 1455.28 L1784.37 1456.95 L1784.37 1452.69 L1792.63 1451.02 L1797.31 1451.02 L1797.31 1481.64 L1804.95 1481.64 L1804.95 1485.58 L1785.04 1485.58 L1785.04 1481.64 Z" fill="#000000" fill-rule="nonzero" fill-opacity="1" /><path clip-path="url(#clip230)" d="M1811.64 1470.7 L1824.11 1470.7 L1824.11 1474.49 L1811.64 1474.49 L1811.64 1470.7 Z" fill="#000000" fill-rule="nonzero" fill-opacity="1" /><path clip-path="url(#clip230)" d="M1832.31 1481.64 L1839.95 1481.64 L1839.95 1455.28 L1831.64 1456.95 L1831.64 1452.69 L1839.9 1451.02 L1844.58 1451.02 L1844.58 1481.64 L1852.21 1481.64 L1852.21 1485.58 L1832.31 1485.58 L1832.31 1481.64 Z" fill="#000000" fill-rule="nonzero" fill-opacity="1" /><path clip-path="url(#clip230)" d="M1871.66 1454.1 Q1868.05 1454.1 1866.22 1457.66 Q1864.41 1461.2 1864.41 1468.33 Q1864.41 1475.44 1866.22 1479.01 Q1868.05 1482.55 1871.66 1482.55 Q1875.29 1482.55 1877.1 1479.01 Q1878.93 1475.44 1878.93 1468.33 Q1878.93 1461.2 1877.1 1457.66 Q1875.29 1454.1 1871.66 1454.1 M1871.66 1450.39 Q1877.47 1450.39 1880.52 1455 Q1883.6 1459.58 1883.6 1468.33 Q1883.6 1477.06 1880.52 1481.67 Q1877.47 1486.25 1871.66 1486.25 Q1865.85 1486.25 1862.77 1481.67 Q1859.71 1477.06 1859.71 1468.33 Q1859.71 1459.58 1862.77 1455 Q1865.85 1450.39 1871.66 1450.39 Z" fill="#000000" fill-rule="nonzero" fill-opacity="1" /><path clip-path="url(#clip230)" d="M1889.07 1470.7 L1901.54 1470.7 L1901.54 1474.49 L1889.07 1474.49 L1889.07 1470.7 Z" fill="#000000" fill-rule="nonzero" fill-opacity="1" /><path clip-path="url(#clip230)" d="M1918.93 1454.1 Q1915.32 1454.1 1913.49 1457.66 Q1911.68 1461.2 1911.68 1468.33 Q1911.68 1475.44 1913.49 1479.01 Q1915.32 1482.55 1918.93 1482.55 Q1922.56 1482.55 1924.37 1479.01 Q1926.2 1475.44 1926.2 1468.33 Q1926.2 1461.2 1924.37 1457.66 Q1922.56 1454.1 1918.93 1454.1 M1918.93 1450.39 Q1924.74 1450.39 1927.79 1455 Q1930.87 1459.58 1930.87 1468.33 Q1930.87 1477.06 1927.79 1481.67 Q1924.74 1486.25 1918.93 1486.25 Q1913.12 1486.25 1910.04 1481.67 Q1906.98 1477.06 1906.98 1468.33 Q1906.98 1459.58 1910.04 1455 Q1913.12 1450.39 1918.93 1450.39 Z" fill="#000000" fill-rule="nonzero" fill-opacity="1" /><path clip-path="url(#clip230)" d="M1939.9 1481.64 L1947.54 1481.64 L1947.54 1455.28 L1939.23 1456.95 L1939.23 1452.69 L1947.49 1451.02 L1952.17 1451.02 L1952.17 1481.64 L1959.81 1481.64 L1959.81 1485.58 L1939.9 1485.58 L1939.9 1481.64 Z" fill="#000000" fill-rule="nonzero" fill-opacity="1" /><path clip-path="url(#clip230)" d="M1243.24 1537.81 L1243.24 1518.52 L1249.1 1518.52 L1249.1 1568.04 L1243.24 1568.04 L1243.24 1562.7 Q1241.4 1565.88 1238.56 1567.44 Q1235.76 1568.97 1231.81 1568.97 Q1225.35 1568.97 1221.28 1563.81 Q1217.24 1558.65 1217.24 1550.25 Q1217.24 1541.85 1221.28 1536.69 Q1225.35 1531.54 1231.81 1531.54 Q1235.76 1531.54 1238.56 1533.1 Q1241.4 1534.62 1243.24 1537.81 M1223.28 1550.25 Q1223.28 1556.71 1225.93 1560.4 Q1228.6 1564.07 1233.25 1564.07 Q1237.89 1564.07 1240.57 1560.4 Q1243.24 1556.71 1243.24 1550.25 Q1243.24 1543.79 1240.57 1540.13 Q1237.89 1536.44 1233.25 1536.44 Q1228.6 1536.44 1225.93 1540.13 Q1223.28 1543.79 1223.28 1550.25 Z" fill="#000000" fill-rule="nonzero" fill-opacity="1" /><path clip-path="url(#clip230)" d="M1277.36 1550.12 Q1270.26 1550.12 1267.53 1551.75 Q1264.79 1553.37 1264.79 1557.29 Q1264.79 1560.4 1266.83 1562.25 Q1268.9 1564.07 1272.43 1564.07 Q1277.3 1564.07 1280.23 1560.63 Q1283.19 1557.16 1283.19 1551.43 L1283.19 1550.12 L1277.36 1550.12 M1289.04 1547.71 L1289.04 1568.04 L1283.19 1568.04 L1283.19 1562.63 Q1281.18 1565.88 1278.19 1567.44 Q1275.2 1568.97 1270.87 1568.97 Q1265.39 1568.97 1262.15 1565.91 Q1258.93 1562.82 1258.93 1557.67 Q1258.93 1551.65 1262.94 1548.6 Q1266.99 1545.54 1274.97 1545.54 L1283.19 1545.54 L1283.19 1544.97 Q1283.19 1540.93 1280.51 1538.73 Q1277.87 1536.5 1273.06 1536.5 Q1270.01 1536.5 1267.11 1537.23 Q1264.22 1537.97 1261.54 1539.43 L1261.54 1534.02 Q1264.76 1532.78 1267.78 1532.17 Q1270.8 1531.54 1273.67 1531.54 Q1281.4 1531.54 1285.22 1535.55 Q1289.04 1539.56 1289.04 1547.71 Z" fill="#000000" fill-rule="nonzero" fill-opacity="1" /><path clip-path="url(#clip230)" d="M1306.9 1522.27 L1306.9 1532.4 L1318.96 1532.4 L1318.96 1536.95 L1306.9 1536.95 L1306.9 1556.3 Q1306.9 1560.66 1308.08 1561.9 Q1309.29 1563.14 1312.95 1563.14 L1318.96 1563.14 L1318.96 1568.04 L1312.95 1568.04 Q1306.17 1568.04 1303.59 1565.53 Q1301.01 1562.98 1301.01 1556.3 L1301.01 1536.95 L1296.71 1536.95 L1296.71 1532.4 L1301.01 1532.4 L1301.01 1522.27 L1306.9 1522.27 Z" fill="#000000" fill-rule="nonzero" fill-opacity="1" /><path clip-path="url(#clip230)" d="M1357.16 1548.76 L1357.16 1551.62 L1330.23 1551.62 Q1330.61 1557.67 1333.86 1560.85 Q1337.14 1564 1342.96 1564 Q1346.33 1564 1349.48 1563.17 Q1352.67 1562.35 1355.79 1560.69 L1355.79 1566.23 Q1352.64 1567.57 1349.33 1568.27 Q1346.02 1568.97 1342.61 1568.97 Q1334.08 1568.97 1329.08 1564 Q1324.12 1559.04 1324.12 1550.57 Q1324.12 1541.82 1328.83 1536.69 Q1333.57 1531.54 1341.59 1531.54 Q1348.78 1531.54 1352.95 1536.18 Q1357.16 1540.8 1357.16 1548.76 M1351.3 1547.04 Q1351.24 1542.23 1348.59 1539.37 Q1345.98 1536.5 1341.66 1536.5 Q1336.75 1536.5 1333.79 1539.27 Q1330.87 1542.04 1330.42 1547.07 L1351.3 1547.04 Z" fill="#000000" fill-rule="nonzero" fill-opacity="1" /><polyline clip-path="url(#clip232)" style="stroke:#000000; stroke-linecap:round; stroke-linejoin:round; stroke-width:2; stroke-opacity:0.1; fill:none" points="221.637,1339.32 2352.76,1339.32 "/>
<polyline clip-path="url(#clip232)" style="stroke:#000000; stroke-linecap:round; stroke-linejoin:round; stroke-width:2; stroke-opacity:0.1; fill:none" points="221.637,499.999 2352.76,499.999 "/>
<polyline clip-path="url(#clip232)" style="stroke:#000000; stroke-linecap:round; stroke-linejoin:round; stroke-width:2; stroke-opacity:0.05; fill:none" points="221.637,1420.66 2352.76,1420.66 "/>
<polyline clip-path="url(#clip232)" style="stroke:#000000; stroke-linecap:round; stroke-linejoin:round; stroke-width:2; stroke-opacity:0.05; fill:none" points="221.637,1377.73 2352.76,1377.73 "/>
<polyline clip-path="url(#clip232)" style="stroke:#000000; stroke-linecap:round; stroke-linejoin:round; stroke-width:2; stroke-opacity:0.05; fill:none" points="221.637,1086.66 2352.76,1086.66 "/>
<polyline clip-path="url(#clip232)" style="stroke:#000000; stroke-linecap:round; stroke-linejoin:round; stroke-width:2; stroke-opacity:0.05; fill:none" points="221.637,938.864 2352.76,938.864 "/>
<polyline clip-path="url(#clip232)" style="stroke:#000000; stroke-linecap:round; stroke-linejoin:round; stroke-width:2; stroke-opacity:0.05; fill:none" points="221.637,834 2352.76,834 "/>
<polyline clip-path="url(#clip232)" style="stroke:#000000; stroke-linecap:round; stroke-linejoin:round; stroke-width:2; stroke-opacity:0.05; fill:none" points="221.637,752.661 2352.76,752.661 "/>
<polyline clip-path="url(#clip232)" style="stroke:#000000; stroke-linecap:round; stroke-linejoin:round; stroke-width:2; stroke-opacity:0.05; fill:none" points="221.637,686.202 2352.76,686.202 "/>
<polyline clip-path="url(#clip232)" style="stroke:#000000; stroke-linecap:round; stroke-linejoin:round; stroke-width:2; stroke-opacity:0.05; fill:none" points="221.637,630.012 2352.76,630.012 "/>
<polyline clip-path="url(#clip232)" style="stroke:#000000; stroke-linecap:round; stroke-linejoin:round; stroke-width:2; stroke-opacity:0.05; fill:none" points="221.637,581.338 2352.76,581.338 "/>
<polyline clip-path="url(#clip232)" style="stroke:#000000; stroke-linecap:round; stroke-linejoin:round; stroke-width:2; stroke-opacity:0.05; fill:none" points="221.637,538.404 2352.76,538.404 "/>
<polyline clip-path="url(#clip232)" style="stroke:#000000; stroke-linecap:round; stroke-linejoin:round; stroke-width:2; stroke-opacity:0.05; fill:none" points="221.637,247.337 2352.76,247.337 "/>
<polyline clip-path="url(#clip232)" style="stroke:#000000; stroke-linecap:round; stroke-linejoin:round; stroke-width:2; stroke-opacity:0.05; fill:none" points="221.637,99.5393 2352.76,99.5393 "/>
<polyline clip-path="url(#clip230)" style="stroke:#000000; stroke-linecap:round; stroke-linejoin:round; stroke-width:4; stroke-opacity:1; fill:none" points="221.637,1423.18 221.637,47.2441 "/>
<polyline clip-path="url(#clip230)" style="stroke:#000000; stroke-linecap:round; stroke-linejoin:round; stroke-width:4; stroke-opacity:1; fill:none" points="221.637,1339.32 240.535,1339.32 "/>
<polyline clip-path="url(#clip230)" style="stroke:#000000; stroke-linecap:round; stroke-linejoin:round; stroke-width:4; stroke-opacity:1; fill:none" points="221.637,499.999 240.535,499.999 "/>
<polyline clip-path="url(#clip230)" style="stroke:#000000; stroke-linecap:round; stroke-linejoin:round; stroke-width:4; stroke-opacity:1; fill:none" points="221.637,1420.66 231.086,1420.66 "/>
<polyline clip-path="url(#clip230)" style="stroke:#000000; stroke-linecap:round; stroke-linejoin:round; stroke-width:4; stroke-opacity:1; fill:none" points="221.637,1377.73 231.086,1377.73 "/>
<polyline clip-path="url(#clip230)" style="stroke:#000000; stroke-linecap:round; stroke-linejoin:round; stroke-width:4; stroke-opacity:1; fill:none" points="221.637,1086.66 231.086,1086.66 "/>
<polyline clip-path="url(#clip230)" style="stroke:#000000; stroke-linecap:round; stroke-linejoin:round; stroke-width:4; stroke-opacity:1; fill:none" points="221.637,938.864 231.086,938.864 "/>
<polyline clip-path="url(#clip230)" style="stroke:#000000; stroke-linecap:round; stroke-linejoin:round; stroke-width:4; stroke-opacity:1; fill:none" points="221.637,834 231.086,834 "/>
<polyline clip-path="url(#clip230)" style="stroke:#000000; stroke-linecap:round; stroke-linejoin:round; stroke-width:4; stroke-opacity:1; fill:none" points="221.637,752.661 231.086,752.661 "/>
<polyline clip-path="url(#clip230)" style="stroke:#000000; stroke-linecap:round; stroke-linejoin:round; stroke-width:4; stroke-opacity:1; fill:none" points="221.637,686.202 231.086,686.202 "/>
<polyline clip-path="url(#clip230)" style="stroke:#000000; stroke-linecap:round; stroke-linejoin:round; stroke-width:4; stroke-opacity:1; fill:none" points="221.637,630.012 231.086,630.012 "/>
<polyline clip-path="url(#clip230)" style="stroke:#000000; stroke-linecap:round; stroke-linejoin:round; stroke-width:4; stroke-opacity:1; fill:none" points="221.637,581.338 231.086,581.338 "/>
<polyline clip-path="url(#clip230)" style="stroke:#000000; stroke-linecap:round; stroke-linejoin:round; stroke-width:4; stroke-opacity:1; fill:none" points="221.637,538.404 231.086,538.404 "/>
<polyline clip-path="url(#clip230)" style="stroke:#000000; stroke-linecap:round; stroke-linejoin:round; stroke-width:4; stroke-opacity:1; fill:none" points="221.637,247.337 231.086,247.337 "/>
<polyline clip-path="url(#clip230)" style="stroke:#000000; stroke-linecap:round; stroke-linejoin:round; stroke-width:4; stroke-opacity:1; fill:none" points="221.637,99.5393 231.086,99.5393 "/>
<path clip-path="url(#clip230)" d="M114.931 1359.12 L122.57 1359.12 L122.57 1332.75 L114.26 1334.42 L114.26 1330.16 L122.524 1328.49 L127.2 1328.49 L127.2 1359.12 L134.839 1359.12 L134.839 1363.05 L114.931 1363.05 L114.931 1359.12 Z" fill="#000000" fill-rule="nonzero" fill-opacity="1" /><path clip-path="url(#clip230)" d="M154.283 1331.57 Q150.672 1331.57 148.843 1335.13 Q147.038 1338.68 147.038 1345.81 Q147.038 1352.91 148.843 1356.48 Q150.672 1360.02 154.283 1360.02 Q157.917 1360.02 159.723 1356.48 Q161.552 1352.91 161.552 1345.81 Q161.552 1338.68 159.723 1335.13 Q157.917 1331.57 154.283 1331.57 M154.283 1327.87 Q160.093 1327.87 163.149 1332.47 Q166.227 1337.06 166.227 1345.81 Q166.227 1354.53 163.149 1359.14 Q160.093 1363.72 154.283 1363.72 Q148.473 1363.72 145.394 1359.14 Q142.339 1354.53 142.339 1345.81 Q142.339 1337.06 145.394 1332.47 Q148.473 1327.87 154.283 1327.87 Z" fill="#000000" fill-rule="nonzero" fill-opacity="1" /><path clip-path="url(#clip230)" d="M175.932 1310.06 Q172.998 1310.06 171.512 1312.96 Q170.045 1315.84 170.045 1321.63 Q170.045 1327.4 171.512 1330.3 Q172.998 1333.18 175.932 1333.18 Q178.885 1333.18 180.352 1330.3 Q181.838 1327.4 181.838 1321.63 Q181.838 1315.84 180.352 1312.96 Q178.885 1310.06 175.932 1310.06 M175.932 1307.05 Q180.653 1307.05 183.136 1310.8 Q185.637 1314.52 185.637 1321.63 Q185.637 1328.72 183.136 1332.46 Q180.653 1336.19 175.932 1336.19 Q171.212 1336.19 168.71 1332.46 Q166.227 1328.72 166.227 1321.63 Q166.227 1314.52 168.71 1310.8 Q171.212 1307.05 175.932 1307.05 Z" fill="#000000" fill-rule="nonzero" fill-opacity="1" /><path clip-path="url(#clip230)" d="M117.621 519.791 L125.26 519.791 L125.26 493.426 L116.95 495.092 L116.95 490.833 L125.214 489.166 L129.889 489.166 L129.889 519.791 L137.528 519.791 L137.528 523.726 L117.621 523.726 L117.621 519.791 Z" fill="#000000" fill-rule="nonzero" fill-opacity="1" /><path clip-path="url(#clip230)" d="M156.973 492.245 Q153.362 492.245 151.533 495.81 Q149.727 499.352 149.727 506.481 Q149.727 513.588 151.533 517.152 Q153.362 520.694 156.973 520.694 Q160.607 520.694 162.412 517.152 Q164.241 513.588 164.241 506.481 Q164.241 499.352 162.412 495.81 Q160.607 492.245 156.973 492.245 M156.973 488.541 Q162.783 488.541 165.838 493.148 Q168.917 497.731 168.917 506.481 Q168.917 515.208 165.838 519.814 Q162.783 524.398 156.973 524.398 Q151.162 524.398 148.084 519.814 Q145.028 515.208 145.028 506.481 Q145.028 497.731 148.084 493.148 Q151.162 488.541 156.973 488.541 Z" fill="#000000" fill-rule="nonzero" fill-opacity="1" /><path clip-path="url(#clip230)" d="M169.462 493.119 L175.669 493.119 L175.669 471.697 L168.917 473.051 L168.917 469.59 L175.631 468.236 L179.431 468.236 L179.431 493.119 L185.637 493.119 L185.637 496.316 L169.462 496.316 L169.462 493.119 Z" fill="#000000" fill-rule="nonzero" fill-opacity="1" /><path clip-path="url(#clip230)" d="M46.0847 888.244 Q46.0847 895.341 47.7079 898.079 Q49.3312 900.816 53.2461 900.816 Q56.3653 900.816 58.2114 898.779 Q60.0256 896.71 60.0256 893.177 Q60.0256 888.307 56.5881 885.379 Q53.1188 882.419 47.3897 882.419 L46.0847 882.419 L46.0847 888.244 M43.6657 876.562 L64.0042 876.562 L64.0042 882.419 L58.5933 882.419 Q61.8398 884.424 63.3994 887.416 Q64.9272 890.408 64.9272 894.737 Q64.9272 900.211 61.8716 903.458 Q58.7843 906.672 53.6281 906.672 Q47.6125 906.672 44.5569 902.662 Q41.5014 898.62 41.5014 890.631 L41.5014 882.419 L40.9285 882.419 Q36.8862 882.419 34.6901 885.093 Q32.4621 887.734 32.4621 892.54 Q32.4621 895.596 33.1941 898.492 Q33.9262 901.389 35.3903 904.062 L29.9795 904.062 Q28.7381 900.848 28.1334 897.824 Q27.4968 894.8 27.4968 891.936 Q27.4968 884.201 31.5072 880.382 Q35.5176 876.562 43.6657 876.562 Z" fill="#000000" fill-rule="nonzero" fill-opacity="1" /><path clip-path="url(#clip230)" d="M29.7248 838.846 L35.1993 838.846 Q33.8307 841.328 33.1623 843.843 Q32.4621 846.325 32.4621 848.872 Q32.4621 854.569 36.0905 857.72 Q39.6872 860.871 46.212 860.871 Q52.7369 860.871 56.3653 857.72 Q59.9619 854.569 59.9619 848.872 Q59.9619 846.325 59.2935 843.843 Q58.5933 841.328 57.2247 838.846 L62.6355 838.846 Q63.7814 841.296 64.3543 843.938 Q64.9272 846.548 64.9272 849.508 Q64.9272 857.561 59.8664 862.303 Q54.8057 867.046 46.212 867.046 Q37.491 867.046 32.4939 862.271 Q27.4968 857.465 27.4968 849.126 Q27.4968 846.421 28.0697 843.843 Q28.6108 841.265 29.7248 838.846 Z" fill="#000000" fill-rule="nonzero" fill-opacity="1" /><path clip-path="url(#clip230)" d="M29.7248 803.007 L35.1993 803.007 Q33.8307 805.489 33.1623 808.004 Q32.4621 810.486 32.4621 813.033 Q32.4621 818.73 36.0905 821.881 Q39.6872 825.032 46.212 825.032 Q52.7369 825.032 56.3653 821.881 Q59.9619 818.73 59.9619 813.033 Q59.9619 810.486 59.2935 808.004 Q58.5933 805.489 57.2247 803.007 L62.6355 803.007 Q63.7814 805.458 64.3543 808.099 Q64.9272 810.709 64.9272 813.669 Q64.9272 821.722 59.8664 826.464 Q54.8057 831.207 46.212 831.207 Q37.491 831.207 32.4939 826.433 Q27.4968 821.626 27.4968 813.287 Q27.4968 810.582 28.0697 808.004 Q28.6108 805.426 29.7248 803.007 Z" fill="#000000" fill-rule="nonzero" fill-opacity="1" /><path clip-path="url(#clip230)" d="M55.9197 791.994 L55.9197 785.278 L64.0042 785.278 L64.0042 791.994 L55.9197 791.994 Z" fill="#000000" fill-rule="nonzero" fill-opacity="1" /><path clip-path="url(#clip230)" d="M33.8307 730.724 Q33.2578 731.711 33.0032 732.888 Q32.7167 734.034 32.7167 735.435 Q32.7167 740.4 35.9632 743.074 Q39.1779 745.715 45.2253 745.715 L64.0042 745.715 L64.0042 751.604 L28.3562 751.604 L28.3562 745.715 L33.8944 745.715 Q30.6479 743.869 29.0883 740.909 Q27.4968 737.949 27.4968 733.716 Q27.4968 733.111 27.5923 732.379 Q27.656 731.647 27.8151 730.756 L33.8307 730.724 Z" fill="#000000" fill-rule="nonzero" fill-opacity="1" /><path clip-path="url(#clip230)" d="M44.7161 695.522 L47.5806 695.522 L47.5806 722.449 Q53.6281 722.067 56.8109 718.82 Q59.9619 715.542 59.9619 709.717 Q59.9619 706.343 59.1344 703.192 Q58.3069 700.01 56.6518 696.89 L62.1899 696.89 Q63.5267 700.041 64.227 703.352 Q64.9272 706.662 64.9272 710.067 Q64.9272 718.597 59.9619 723.595 Q54.9967 728.56 46.5303 728.56 Q37.7774 728.56 32.6531 723.849 Q27.4968 719.107 27.4968 711.086 Q27.4968 703.893 32.1438 699.723 Q36.7589 695.522 44.7161 695.522 M42.9973 701.378 Q38.1912 701.442 35.3266 704.084 Q32.4621 706.694 32.4621 711.022 Q32.4621 715.924 35.2312 718.884 Q38.0002 721.812 43.0292 722.258 L42.9973 701.378 Z" fill="#000000" fill-rule="nonzero" fill-opacity="1" /><path clip-path="url(#clip230)" d="M18.2347 680.117 L28.3562 680.117 L28.3562 668.054 L32.9077 668.054 L32.9077 680.117 L52.2594 680.117 Q56.6199 680.117 57.8613 678.939 Q59.1026 677.73 59.1026 674.069 L59.1026 668.054 L64.0042 668.054 L64.0042 674.069 Q64.0042 680.849 61.4897 683.427 Q58.9434 686.005 52.2594 686.005 L32.9077 686.005 L32.9077 690.302 L28.3562 690.302 L28.3562 686.005 L18.2347 686.005 L18.2347 680.117 Z" fill="#000000" fill-rule="nonzero" fill-opacity="1" /><path clip-path="url(#clip230)" d="M49.9359 660.956 L28.3562 660.956 L28.3562 655.1 L49.7131 655.1 Q54.7739 655.1 57.3202 653.126 Q59.8346 651.153 59.8346 647.206 Q59.8346 642.464 56.8109 639.726 Q53.7872 636.957 48.5673 636.957 L28.3562 636.957 L28.3562 631.101 L64.0042 631.101 L64.0042 636.957 L58.5296 636.957 Q61.7762 639.09 63.3676 641.923 Q64.9272 644.723 64.9272 648.447 Q64.9272 654.59 61.1078 657.773 Q57.2883 660.956 49.9359 660.956 M27.4968 646.219 L27.4968 646.219 Z" fill="#000000" fill-rule="nonzero" fill-opacity="1" /><path clip-path="url(#clip230)" d="M33.8307 598.381 Q33.2578 599.368 33.0032 600.545 Q32.7167 601.691 32.7167 603.092 Q32.7167 608.057 35.9632 610.731 Q39.1779 613.372 45.2253 613.372 L64.0042 613.372 L64.0042 619.261 L28.3562 619.261 L28.3562 613.372 L33.8944 613.372 Q30.6479 611.526 29.0883 608.566 Q27.4968 605.606 27.4968 601.373 Q27.4968 600.768 27.5923 600.036 Q27.656 599.304 27.8151 598.413 L33.8307 598.381 Z" fill="#000000" fill-rule="nonzero" fill-opacity="1" /><path clip-path="url(#clip230)" d="M42.4881 563.752 L64.0042 563.752 L64.0042 569.608 L42.679 569.608 Q37.6183 569.608 35.1038 571.581 Q32.5894 573.555 32.5894 577.502 Q32.5894 582.244 35.6131 584.981 Q38.6368 587.719 43.8567 587.719 L64.0042 587.719 L64.0042 593.607 L28.3562 593.607 L28.3562 587.719 L33.8944 587.719 Q30.6797 585.618 29.0883 582.785 Q27.4968 579.921 27.4968 576.197 Q27.4968 570.054 31.3163 566.903 Q35.1038 563.752 42.4881 563.752 Z" fill="#000000" fill-rule="nonzero" fill-opacity="1" /><polyline clip-path="url(#clip232)" style="stroke:#009af9; stroke-linecap:round; stroke-linejoin:round; stroke-width:12; stroke-opacity:1; fill:none" points="281.952,1339.32 287.68,1344.8 293.408,1339.32 299.135,1332.14 304.863,1316.48 322.047,1306.4 327.775,1291.78 333.503,1309.73 339.231,1309.73 344.959,1285.47 367.87,1186.13 373.598,1197.01 379.326,1195.78 385.054,1136.11 402.237,1052.08 407.965,1010.07 413.693,503.644 419.421,808.186 425.149,651.625 442.333,650.527 448.061,844.113 453.788,794.101 459.516,879.835 465.244,893.453 482.428,929.907 488.156,972.399 493.884,953.039 499.612,965.18 505.339,966.482 528.251,962.59 533.979,969.1 539.707,971.736 545.435,959.379 562.618,908.712 568.346,849.75 574.074,789.257 579.802,822.838 585.53,835.362 602.714,785.666 608.442,795.73 614.169,810.304 619.897,834.453 625.625,833.546 642.809,781.324 648.537,736.694 654.265,759.988 659.993,744.413 665.72,714.473 682.665,630.79 688.393,658.283 694.121,643.47 699.849,631.83 705.577,633.657 722.761,673.431 728.489,731.181 734.216,792.075 739.944,721.73 745.672,745.834 762.856,741.939 768.584,741.939 774.312,746.903 780.04,778.588 802.951,732.895 808.679,747.26 814.407,759.988 820.135,762.215 825.863,776.258 843.046,808.609 848.774,799.423 854.502,778.977 860.23,758.142 865.958,779.758 883.142,767.088 888.869,781.716 894.597,762.587 900.325,754.843 906.053,748.693 923.237,703.533 928.965,704.804 934.693,724.742 940.42,747.26 946.148,753.387 963.332,765.206 969.06,777.421 974.788,786.063 980.516,792.884 986.244,772.792 1003.43,764.081 1009.16,752.661 1014.88,742.997 1020.61,665.35 1026.34,659.404 1043.52,633.134 1049.25,631.05 1054.98,669.08 1060.71,671.685 1066.43,685.598 1083.62,640.258 1089.35,573.933 1095.07,509.926 1100.8,398.963 1106.53,404.503 1129.44,330.039 1135.17,86.1857 1140.9,158.176 1146.62,183.38 1163.81,133.074 1169.54,132.743 1175.26,172.66 1180.99,224.407 1186.72,172.217 1203.9,120.054 1209.63,107.237 1215.36,131.883 1221.09,96.9492 1226.81,105.881 1244,128.53 1249.73,112.022 1255.45,111.834 1261.18,121.978 1266.91,139.358 1284.09,113.024 1289.82,123.718 1295.55,122.107 1301.28,138.281 1307.01,153.8 1329.92,168.108 1335.64,205.655 1341.37,183.152 1347.1,196.707 1364.28,226.114 1370.01,255.127 1375.74,314.558 1381.47,287.56 1387.2,298.246 1404.38,301.808 1410.11,222.031 1415.84,242.115 1421.56,275.216 1427.29,277.672 1444.47,246.522 1450.2,267.756 1455.93,259.32 1461.66,266.607 1467.39,277.376 1484.57,295.752 1490.3,312.818 1496.03,355.968 1501.75,313.687 1507.48,322.606 1524.67,310.546 1530.39,333.353 1536.12,335.656 1541.85,318.505 1547.58,314.122 1564.76,290.713 1570.49,276 1576.22,282.034 1581.94,310.33 1587.67,304.026 1604.86,279.747 1610.58,212.266 1616.31,214.745 1622.04,246.341 1627.77,241.58 1644.95,220.006 1650.68,189.364 1656.41,216.99 1662.13,211.279 1667.86,214.247 1690.77,183.99 1696.5,187.281 1702.23,178.769 1707.96,166.652 1725.14,155.699 1730.87,188.051 1736.6,191.614 1742.33,197.893 1748.05,212.76 1765.24,246.522 1770.96,260.07 1776.69,248.427 1782.42,249.337 1788.15,249.064 1805.33,255.591 1811.06,277.672 1816.79,292.248 1822.52,267.277 1828.24,263.466 1845.43,279.846 1851.16,276.982 1856.88,279.252 1862.61,266.512 1868.34,275.706 1885.52,275.118 1891.25,279.351 1896.98,268.716 1902.71,248.518 1908.43,242.473 1925.62,222.539 1931.35,241.937 1937.07,241.223 1942.8,256.147 1948.53,281.535 1965.71,279.252 1971.44,287.054 1977.17,300.337 1982.9,295.442 1988.62,293.996 2005.81,276.884 2011.54,260.352 2017.26,242.026 2022.99,248.7 2028.72,233.983 2046.14,205.736 2051.87,249.794 2057.6,265.081 2063.33,254.109 2069.05,249.155 2086.24,225.516 2091.97,226.2 2097.69,230.244 2103.42,245.438 2109.15,241.312 2126.33,238.027 2132.06,256.891 2137.79,259.413 2149.24,271.419 2166.43,279.153 2172.16,309.039 2177.88,371.822 2183.61,350.633 2189.34,366.251 2206.52,369.026 2212.25,341.597 2217.98,326.529 2223.71,360.64 2229.43,386.532 2246.62,447.088 2252.35,427.842 2258.07,425.469 2263.8,428.587 2269.53,364.872 2286.71,357.683 2292.44,350.392 "/>
<polyline clip-path="url(#clip232)" style="stroke:#e26f46; stroke-linecap:round; stroke-linejoin:round; stroke-width:12; stroke-opacity:1; fill:none" points="281.952,1339.32 287.68,1312.54 293.408,1292.92 299.135,1287.98 304.863,1297.12 322.047,1292.72 327.775,1266.26 333.503,1277.15 339.231,1255.87 344.959,1268.86 367.87,1260.93 373.598,1261.48 379.326,1291.53 385.054,1303.41 402.237,1312.33 407.965,1323.4 413.693,1315.7 419.421,1315.91 425.149,1331.94 442.333,1325.36 448.061,1321.03 453.788,1295.31 459.516,1296.31 465.244,1301.37 482.428,1284.46 488.156,1282.13 493.884,1265.89 499.612,1273.92 505.339,1261.3 528.251,1245.41 533.979,1230.69 539.707,1251.22 545.435,1246.11 562.618,1238.84 568.346,1233.05 574.074,1221.75 579.802,1237.12 585.53,1233.89 602.714,1219.62 608.442,1218.32 614.169,1214.94 619.897,1200.29 625.625,1170.81 642.809,1185.92 648.537,1197.07 654.265,1196 659.993,1184.88 665.72,1190.7 682.665,1185.33 688.393,1201.99 694.121,1199.37 699.849,1220.28 705.577,1214.77 722.761,1220.76 728.489,1230.53 734.216,1220.6 739.944,1220.44 745.672,1214.13 762.856,1228.69 768.584,1226.19 774.312,1228.69 780.04,1202.15 802.951,1218.65 808.679,1213.49 814.407,1217.68 820.135,1220.6 825.863,1225.53 843.046,1228.19 848.774,1231.36 854.502,1218.16 860.23,1220.11 865.958,1228.19 883.142,1225.7 888.869,1243.67 894.597,1240.21 900.325,1243.15 906.053,1235.59 923.237,1228.35 928.965,1223.88 934.693,1194.02 940.42,1193.41 946.148,1204.02 963.332,1200.29 969.06,1202.93 974.788,1176.26 980.516,1175.68 986.244,1162.23 1003.43,1165.16 1009.16,1168.96 1014.88,1171.23 1020.61,1183.26 1026.34,1160.01 1043.52,1148.99 1049.25,1161.95 1054.98,1175.54 1060.71,1175.82 1066.43,1174.53 1083.62,1166 1089.35,1168.11 1095.07,1159.6 1100.8,1156.3 1106.53,1157.53 1129.44,1110.71 1135.17,1103.54 1140.9,1099.19 1146.62,1093.5 1163.81,1102.13 1169.54,1102.95 1175.26,1113.99 1180.99,1120.62 1186.72,1121.87 1203.9,1125.75 1209.63,1118.03 1215.36,1124.74 1221.09,1143.66 1226.81,1154.93 1244,1130.56 1249.73,1131.32 1255.45,1124.24 1261.18,1116.31 1266.91,1116.06 1284.09,1132.99 1289.82,1138.02 1295.55,1123.11 1301.28,1113.62 1307.01,1122.61 1329.92,1140.37 1335.64,1144.46 1341.37,1141.42 1347.1,1129.92 1364.28,1129.28 1370.01,1125.87 1375.74,1147.51 1381.47,1156.3 1387.2,1168.4 1404.38,1180.62 1410.11,1174.81 1415.84,1160.56 1421.56,1165.44 1427.29,1170.67 1444.47,1156.3 1450.2,1166.14 1455.93,1158.91 1461.66,1156.57 1467.39,1167.55 1484.57,1172.52 1490.3,1162.37 1496.03,1175.39 1501.75,1156.57 1507.48,1151.41 1524.67,1156.43 1530.39,1142.87 1536.12,1138.29 1541.85,1132.22 1547.58,1138.15 1564.76,1149.25 1570.49,1152.76 1576.22,1163.34 1581.94,1174.67 1587.67,1169.53 1604.86,1148.05 1610.58,1131.45 1616.31,1122.49 1622.04,1124.36 1627.77,1108.79 1644.95,1115.82 1650.68,1118.65 1656.41,1135.17 1662.13,1121.49 1667.86,1123.36 1690.77,1124.74 1696.5,1135.3 1702.23,1132.47 1707.96,1137.37 1725.14,1126.5 1730.87,1134.79 1736.6,1109.15 1742.33,1109.39 1748.05,1115.7 1765.24,1135.95 1770.96,1131.96 1776.69,1107.83 1782.42,1080.61 1788.15,1077.4 1805.33,1056.95 1811.06,1055.59 1816.79,1049.22 1822.52,1051.67 1828.24,1038.57 1845.43,1019.75 1851.16,1007.54 1856.88,1020.5 1862.61,1023.15 1868.34,1009.55 1885.52,1013.32 1891.25,1015.17 1896.98,1017.59 1902.71,1010.28 1908.43,1007.36 1925.62,1003.56 1931.35,1005.55 1937.07,1000.07 1942.8,1011.02 1948.53,1004.28 1965.71,1002.31 1971.44,994.765 1977.17,1011.84 1982.9,1003.74 1988.62,1007.54 2005.81,990.574 2011.54,990.661 2017.26,990.748 2022.99,987.376 2028.72,977.026 2046.14,972.537 2051.87,973.613 2057.6,987.635 2063.33,984.292 2069.05,985.488 2086.24,980.388 2091.97,978.283 2097.69,987.979 2103.42,979.208 2109.15,1002.85 2126.33,998.029 2132.06,978.199 2137.79,964.61 2149.24,984.462 2166.43,974.194 2172.16,989.967 2177.88,1000.7 2183.61,994.063 2189.34,992.489 2206.52,987.376 2212.25,964.368 2217.98,966.068 2223.71,987.721 2229.43,978.367 2246.62,998.738 2252.35,1005.19 2258.07,1008.45 2263.8,1005.01 2269.53,1015.64 2286.71,1024.48 2292.44,996.526 "/>
<polyline clip-path="url(#clip232)" style="stroke:#3da44d; stroke-linecap:round; stroke-linejoin:round; stroke-width:12; stroke-opacity:1; fill:none" points="281.952,1339.32 287.68,1331.32 293.408,1353.46 299.135,1332.97 304.863,1334.81 322.047,1325.47 327.775,1329.15 333.503,1327.88 339.231,1336.92 344.959,1346.45 367.87,1341.78 373.598,1332.38 379.326,1318.94 385.054,1323.04 402.237,1324.62 407.965,1330.49 413.693,1344.81 419.421,1341.06 425.149,1342.78 442.333,1335.91 448.061,1327.21 453.788,1327.91 459.516,1324.33 465.244,1326.29 482.428,1304.23 488.156,1308.69 493.884,1296.1 499.612,1284.29 505.339,1291.27 528.251,1282.39 533.979,1292.62 539.707,1294.51 545.435,1292.12 562.618,1306.33 568.346,1311.8 574.074,1302.71 579.802,1333.97 585.53,1322.99 602.714,1319.62 608.442,1331.28 614.169,1348.01 619.897,1360.59 625.625,1357.91 642.809,1384.24 648.537,1356.2 654.265,1357.72 659.993,1342.67 665.72,1346.55 682.665,1337.17 688.393,1334.42 694.121,1333.05 699.849,1350.36 705.577,1346.84 722.761,1337.31 728.489,1340.51 734.216,1352.64 739.944,1355.76 745.672,1347.03 762.856,1343.95 768.584,1346.11 774.312,1332.86 780.04,1320.41 802.951,1315.8 808.679,1319.1 814.407,1311.76 820.135,1307.32 825.863,1305.21 843.046,1285.29 848.774,1274.18 854.502,1283.66 860.23,1263.69 865.958,1268.8 883.142,1281.64 888.869,1286.19 894.597,1281.67 900.325,1293.99 906.053,1283.94 923.237,1278.89 928.965,1281.17 934.693,1283.67 940.42,1282.52 946.148,1290.1 963.332,1294.32 969.06,1306.45 974.788,1303.73 980.516,1302.11 986.244,1294.92 1003.43,1308.62 1009.16,1307.59 1014.88,1321.82 1020.61,1324.3 1026.34,1309.21 1043.52,1311.19 1049.25,1315.07 1054.98,1313.77 1060.71,1299.87 1066.43,1290.53 1083.62,1275.75 1089.35,1274.92 1095.07,1273.7 1100.8,1278.66 1106.53,1261.28 1129.44,1260.83 1135.17,1249.49 1140.9,1245.36 1146.62,1232.51 1163.81,1231.67 1169.54,1235.04 1175.26,1237.1 1180.99,1235.71 1186.72,1227.43 1203.9,1223.49 1209.63,1228.18 1215.36,1227.73 1221.09,1210.8 1226.81,1211.16 1244,1215.32 1249.73,1206.34 1255.45,1203.07 1261.18,1200.24 1266.91,1203.57 1284.09,1185.74 1289.82,1184.98 1295.55,1185.42 1301.28,1181.62 1307.01,1176.7 1329.92,1172.95 1335.64,1178.75 1341.37,1187.24 1347.1,1184.55 1364.28,1176.24 1370.01,1180.94 1375.74,1188.37 1381.47,1204.81 1387.2,1220.62 1404.38,1208.41 1410.11,1211.68 1415.84,1196.38 1421.56,1192.94 1427.29,1193.61 1444.47,1198.57 1450.2,1200.19 1455.93,1194.64 1461.66,1191.68 1467.39,1194.71 1484.57,1190.05 1490.3,1188.85 1496.03,1180.51 1501.75,1174.04 1507.48,1178.86 1524.67,1180.13 1530.39,1186.63 1536.12,1190.99 1541.85,1187.2 1547.58,1182.06 1564.76,1186.38 1570.49,1195.48 1576.22,1203.4 1581.94,1189.17 1587.67,1170.89 1604.86,1151.42 1610.58,1154.17 1616.31,1147.21 1622.04,1149.6 1627.77,1140.34 1644.95,1139.5 1650.68,1144.4 1656.41,1143.49 1662.13,1144.22 1667.86,1137.02 1690.77,1139.92 1696.5,1145.15 1702.23,1147.8 1707.96,1142.89 1725.14,1148.21 1730.87,1146.74 1736.6,1145.12 1742.33,1146.74 1748.05,1152.38 1765.24,1165.72 1770.96,1163.44 1776.69,1151.7 1782.42,1142.82 1788.15,1149.38 1805.33,1156.4 1811.06,1172.94 1816.79,1176.16 1822.52,1172.64 1828.24,1172.19 1845.43,1190.38 1851.16,1177.34 1856.88,1172.93 1862.61,1166.38 1868.34,1170.63 1885.52,1173.01 1891.25,1173.44 1896.98,1168.74 1902.71,1154.96 1908.43,1153.02 1925.62,1147.06 1931.35,1145.95 1937.07,1149.02 1942.8,1139.43 1948.53,1138.89 1965.71,1131.9 1971.44,1108.28 1977.17,1112.22 1982.9,1104.99 1988.62,1095.95 2005.81,1092.26 2011.54,1084.25 2017.26,1081.54 2022.99,1040.09 2028.72,1040.69 2046.14,1028.03 2051.87,1029.77 2057.6,1044.3 2063.33,1032.96 2069.05,1032.96 2086.24,1037.36 2091.97,1035.21 2097.69,1046.76 2103.42,1017.86 2109.15,1003.09 2126.33,1014.64 2132.06,1017.05 2137.79,1006.54 2149.24,1019.85 2166.43,998.796 2172.16,1006.52 2177.88,1020.64 2183.61,1012.71 2189.34,1029.34 2206.52,1037.22 2212.25,1009.31 2217.98,1016.13 2223.71,1031.76 2229.43,1035.27 2246.62,1060.73 2252.35,1058.46 2258.07,1032.13 2263.8,1057.81 2269.53,1065.42 2286.71,1066.49 2292.44,1049.08 "/>
<path clip-path="url(#clip230)" d="M1815.23 300.469 L2281.72 300.469 L2281.72 93.1086 L1815.23 93.1086  Z" fill="#ffffff" fill-rule="evenodd" fill-opacity="1"/>
<polyline clip-path="url(#clip230)" style="stroke:#000000; stroke-linecap:round; stroke-linejoin:round; stroke-width:4; stroke-opacity:1; fill:none" points="1815.23,300.469 2281.72,300.469 2281.72,93.1086 1815.23,93.1086 1815.23,300.469 "/>
<polyline clip-path="url(#clip230)" style="stroke:#009af9; stroke-linecap:round; stroke-linejoin:round; stroke-width:12; stroke-opacity:1; fill:none" points="1838.91,144.949 1980.98,144.949 "/>
<path clip-path="url(#clip230)" d="M2004.66 127.669 L2010.96 127.669 L2026.28 156.581 L2026.28 127.669 L2030.82 127.669 L2030.82 162.229 L2024.52 162.229 L2009.2 133.317 L2009.2 162.229 L2004.66 162.229 L2004.66 127.669 Z" fill="#000000" fill-rule="nonzero" fill-opacity="1" /><path clip-path="url(#clip230)" d="M2035.38 127.669 L2040.4 127.669 L2049.99 141.882 L2059.5 127.669 L2064.52 127.669 L2052.3 145.77 L2052.3 162.229 L2047.6 162.229 L2047.6 145.77 L2035.38 127.669 Z" fill="#000000" fill-rule="nonzero" fill-opacity="1" /><path clip-path="url(#clip230)" d="M2083.11 130.84 Q2078.02 130.84 2075.01 134.636 Q2072.02 138.432 2072.02 144.983 Q2072.02 151.511 2075.01 155.307 Q2078.02 159.104 2083.11 159.104 Q2088.2 159.104 2091.17 155.307 Q2094.15 151.511 2094.15 144.983 Q2094.15 138.432 2091.17 134.636 Q2088.2 130.84 2083.11 130.84 M2089.66 161.604 L2095.82 168.34 L2090.17 168.34 L2085.05 162.807 Q2084.29 162.854 2083.87 162.877 Q2083.48 162.9 2083.11 162.9 Q2075.82 162.9 2071.44 158.039 Q2067.09 153.155 2067.09 144.983 Q2067.09 136.789 2071.44 131.928 Q2075.82 127.044 2083.11 127.044 Q2090.38 127.044 2094.73 131.928 Q2099.08 136.789 2099.08 144.983 Q2099.08 151.002 2096.65 155.284 Q2094.24 159.567 2089.66 161.604 Z" fill="#000000" fill-rule="nonzero" fill-opacity="1" /><path clip-path="url(#clip230)" d="M2113.78 127.669 L2117.72 127.669 L2105.68 166.627 L2101.74 166.627 L2113.78 127.669 Z" fill="#000000" fill-rule="nonzero" fill-opacity="1" /><path clip-path="url(#clip230)" d="M2133.92 132.275 L2127.58 149.474 L2140.29 149.474 L2133.92 132.275 M2131.28 127.669 L2136.58 127.669 L2149.75 162.229 L2144.89 162.229 L2141.74 153.363 L2126.17 153.363 L2123.02 162.229 L2118.09 162.229 L2131.28 127.669 Z" fill="#000000" fill-rule="nonzero" fill-opacity="1" /><path clip-path="url(#clip230)" d="M2154.8 127.669 L2161.77 127.669 L2170.59 151.187 L2179.45 127.669 L2186.42 127.669 L2186.42 162.229 L2181.86 162.229 L2181.86 131.882 L2172.95 155.585 L2168.25 155.585 L2159.34 131.882 L2159.34 162.229 L2154.8 162.229 L2154.8 127.669 Z" fill="#000000" fill-rule="nonzero" fill-opacity="1" /><path clip-path="url(#clip230)" d="M2221.58 130.331 L2221.58 135.261 Q2219.22 133.062 2216.54 131.974 Q2213.87 130.886 2210.86 130.886 Q2204.94 130.886 2201.79 134.52 Q2198.64 138.132 2198.64 144.983 Q2198.64 151.812 2201.79 155.446 Q2204.94 159.057 2210.86 159.057 Q2213.87 159.057 2216.54 157.969 Q2219.22 156.881 2221.58 154.682 L2221.58 159.567 Q2219.13 161.233 2216.37 162.067 Q2213.64 162.9 2210.59 162.9 Q2202.74 162.9 2198.23 158.108 Q2193.71 153.293 2193.71 144.983 Q2193.71 136.65 2198.23 131.858 Q2202.74 127.044 2210.59 127.044 Q2213.69 127.044 2216.42 127.877 Q2219.17 128.687 2221.58 130.331 Z" fill="#000000" fill-rule="nonzero" fill-opacity="1" /><polyline clip-path="url(#clip230)" style="stroke:#e26f46; stroke-linecap:round; stroke-linejoin:round; stroke-width:12; stroke-opacity:1; fill:none" points="1838.91,196.789 1980.98,196.789 "/>
<path clip-path="url(#clip230)" d="M2004.66 179.509 L2010.96 179.509 L2026.28 208.421 L2026.28 179.509 L2030.82 179.509 L2030.82 214.069 L2024.52 214.069 L2009.2 185.157 L2009.2 214.069 L2004.66 214.069 L2004.66 179.509 Z" fill="#000000" fill-rule="nonzero" fill-opacity="1" /><path clip-path="url(#clip230)" d="M2035.38 179.509 L2040.4 179.509 L2049.99 193.722 L2059.5 179.509 L2064.52 179.509 L2052.3 197.61 L2052.3 214.069 L2047.6 214.069 L2047.6 197.61 L2035.38 179.509 Z" fill="#000000" fill-rule="nonzero" fill-opacity="1" /><path clip-path="url(#clip230)" d="M2083.11 182.68 Q2078.02 182.68 2075.01 186.476 Q2072.02 190.272 2072.02 196.823 Q2072.02 203.351 2075.01 207.147 Q2078.02 210.944 2083.11 210.944 Q2088.2 210.944 2091.17 207.147 Q2094.15 203.351 2094.15 196.823 Q2094.15 190.272 2091.17 186.476 Q2088.2 182.68 2083.11 182.68 M2089.66 213.444 L2095.82 220.18 L2090.17 220.18 L2085.05 214.647 Q2084.29 214.694 2083.87 214.717 Q2083.48 214.74 2083.11 214.74 Q2075.82 214.74 2071.44 209.879 Q2067.09 204.995 2067.09 196.823 Q2067.09 188.629 2071.44 183.768 Q2075.82 178.884 2083.11 178.884 Q2090.38 178.884 2094.73 183.768 Q2099.08 188.629 2099.08 196.823 Q2099.08 202.842 2096.65 207.124 Q2094.24 211.407 2089.66 213.444 Z" fill="#000000" fill-rule="nonzero" fill-opacity="1" /><path clip-path="url(#clip230)" d="M2113.78 179.509 L2117.72 179.509 L2105.68 218.467 L2101.74 218.467 L2113.78 179.509 Z" fill="#000000" fill-rule="nonzero" fill-opacity="1" /><path clip-path="url(#clip230)" d="M2127.04 183.351 L2127.04 210.226 L2132.69 210.226 Q2139.85 210.226 2143.16 206.985 Q2146.49 203.745 2146.49 196.754 Q2146.49 189.809 2143.16 186.592 Q2139.85 183.351 2132.69 183.351 L2127.04 183.351 M2122.37 179.509 L2131.98 179.509 Q2142.02 179.509 2146.72 183.698 Q2151.42 187.865 2151.42 196.754 Q2151.42 205.689 2146.7 209.879 Q2141.98 214.069 2131.98 214.069 L2122.37 214.069 L2122.37 179.509 Z" fill="#000000" fill-rule="nonzero" fill-opacity="1" /><path clip-path="url(#clip230)" d="M2166.95 214.069 L2153.76 179.509 L2158.64 179.509 L2169.59 208.606 L2180.56 179.509 L2185.42 179.509 L2172.25 214.069 L2166.95 214.069 Z" fill="#000000" fill-rule="nonzero" fill-opacity="1" /><path clip-path="url(#clip230)" d="M2190.47 179.509 L2196.77 179.509 L2212.09 208.421 L2212.09 179.509 L2216.63 179.509 L2216.63 214.069 L2210.33 214.069 L2195.01 185.157 L2195.01 214.069 L2190.47 214.069 L2190.47 179.509 Z" fill="#000000" fill-rule="nonzero" fill-opacity="1" /><polyline clip-path="url(#clip230)" style="stroke:#3da44d; stroke-linecap:round; stroke-linejoin:round; stroke-width:12; stroke-opacity:1; fill:none" points="1838.91,248.629 1980.98,248.629 "/>
<path clip-path="url(#clip230)" d="M2004.66 231.349 L2010.96 231.349 L2026.28 260.261 L2026.28 231.349 L2030.82 231.349 L2030.82 265.909 L2024.52 265.909 L2009.2 236.997 L2009.2 265.909 L2004.66 265.909 L2004.66 231.349 Z" fill="#000000" fill-rule="nonzero" fill-opacity="1" /><path clip-path="url(#clip230)" d="M2040.12 231.349 L2047.09 231.349 L2055.91 254.867 L2064.78 231.349 L2071.74 231.349 L2071.74 265.909 L2067.18 265.909 L2067.18 235.562 L2058.27 259.265 L2053.57 259.265 L2044.66 235.562 L2044.66 265.909 L2040.12 265.909 L2040.12 231.349 Z" fill="#000000" fill-rule="nonzero" fill-opacity="1" /><path clip-path="url(#clip230)" d="M2101.74 232.483 L2101.74 237.043 Q2099.08 235.77 2096.72 235.145 Q2094.36 234.52 2092.16 234.52 Q2088.34 234.52 2086.26 236.001 Q2084.2 237.483 2084.2 240.214 Q2084.2 242.506 2085.56 243.687 Q2086.95 244.844 2090.8 245.562 L2093.62 246.14 Q2098.85 247.136 2101.33 249.659 Q2103.83 252.159 2103.83 256.372 Q2103.83 261.395 2100.45 263.987 Q2097.09 266.58 2090.59 266.58 Q2088.13 266.58 2085.36 266.024 Q2082.6 265.469 2079.64 264.381 L2079.64 259.566 Q2082.48 261.163 2085.22 261.973 Q2087.95 262.784 2090.59 262.784 Q2094.59 262.784 2096.77 261.21 Q2098.94 259.636 2098.94 256.719 Q2098.94 254.173 2097.37 252.737 Q2095.82 251.302 2092.25 250.585 L2089.41 250.029 Q2084.17 248.987 2081.84 246.765 Q2079.5 244.543 2079.5 240.585 Q2079.5 236.001 2082.72 233.362 Q2085.96 230.724 2091.63 230.724 Q2094.06 230.724 2096.58 231.163 Q2099.11 231.603 2101.74 232.483 Z" fill="#000000" fill-rule="nonzero" fill-opacity="1" /><path clip-path="url(#clip230)" d="M2118.5 231.349 L2122.44 231.349 L2110.4 270.307 L2106.47 270.307 L2118.5 231.349 Z" fill="#000000" fill-rule="nonzero" fill-opacity="1" /><path clip-path="url(#clip230)" d="M2127.09 231.349 L2133.39 231.349 L2148.71 260.261 L2148.71 231.349 L2153.25 231.349 L2153.25 265.909 L2146.95 265.909 L2131.63 236.997 L2131.63 265.909 L2127.09 265.909 L2127.09 231.349 Z" fill="#000000" fill-rule="nonzero" fill-opacity="1" /><path clip-path="url(#clip230)" d="M2171.47 265.909 L2158.27 231.349 L2163.16 231.349 L2174.1 260.446 L2185.08 231.349 L2189.94 231.349 L2176.77 265.909 L2171.47 265.909 Z" fill="#000000" fill-rule="nonzero" fill-opacity="1" /><path clip-path="url(#clip230)" d="M2199.66 235.191 L2199.66 262.066 L2205.31 262.066 Q2212.46 262.066 2215.77 258.825 Q2219.1 255.585 2219.1 248.594 Q2219.1 241.649 2215.77 238.432 Q2212.46 235.191 2205.31 235.191 L2199.66 235.191 M2194.98 231.349 L2204.59 231.349 Q2214.64 231.349 2219.34 235.538 Q2224.04 239.705 2224.04 248.594 Q2224.04 257.529 2219.31 261.719 Q2214.59 265.909 2204.59 265.909 L2194.98 265.909 L2194.98 231.349 Z" fill="#000000" fill-rule="nonzero" fill-opacity="1" /><path clip-path="url(#clip230)" d="M2242.21 235.955 L2235.86 253.154 L2248.57 253.154 L2242.21 235.955 M2239.57 231.349 L2244.87 231.349 L2258.04 265.909 L2253.18 265.909 L2250.03 257.043 L2234.45 257.043 L2231.3 265.909 L2226.37 265.909 L2239.57 231.349 Z" fill="#000000" fill-rule="nonzero" fill-opacity="1" /></svg>
