<?xml version="1.0" encoding="utf-8"?>
<svg xmlns="http://www.w3.org/2000/svg" xmlns:xlink="http://www.w3.org/1999/xlink" width="600" height="400" viewBox="0 0 2400 1600">
<defs>
  <clipPath id="clip030">
    <rect x="0" y="0" width="2400" height="1600"/>
  </clipPath>
</defs>
<path clip-path="url(#clip030)" d="M0 1600 L2400 1600 L2400 0 L0 0  Z" fill="#ffffff" fill-rule="evenodd" fill-opacity="1"/>
<defs>
  <clipPath id="clip031">
    <rect x="480" y="0" width="1681" height="1600"/>
  </clipPath>
</defs>
<path clip-path="url(#clip030)" d="M340.028 1423.18 L2352.76 1423.18 L2352.76 123.472 L340.028 123.472  Z" fill="#ffffff" fill-rule="evenodd" fill-opacity="1"/>
<defs>
  <clipPath id="clip032">
    <rect x="340" y="123" width="2014" height="1301"/>
  </clipPath>
</defs>
<polyline clip-path="url(#clip032)" style="stroke:#000000; stroke-linecap:round; stroke-linejoin:round; stroke-width:2; stroke-opacity:0.1; fill:none" points="362.468,1423.18 362.468,123.472 "/>
<polyline clip-path="url(#clip032)" style="stroke:#000000; stroke-linecap:round; stroke-linejoin:round; stroke-width:2; stroke-opacity:0.1; fill:none" points="707.704,1423.18 707.704,123.472 "/>
<polyline clip-path="url(#clip032)" style="stroke:#000000; stroke-linecap:round; stroke-linejoin:round; stroke-width:2; stroke-opacity:0.1; fill:none" points="1052.94,1423.18 1052.94,123.472 "/>
<polyline clip-path="url(#clip032)" style="stroke:#000000; stroke-linecap:round; stroke-linejoin:round; stroke-width:2; stroke-opacity:0.1; fill:none" points="1398.18,1423.18 1398.18,123.472 "/>
<polyline clip-path="url(#clip032)" style="stroke:#000000; stroke-linecap:round; stroke-linejoin:round; stroke-width:2; stroke-opacity:0.1; fill:none" points="1743.41,1423.18 1743.41,123.472 "/>
<polyline clip-path="url(#clip032)" style="stroke:#000000; stroke-linecap:round; stroke-linejoin:round; stroke-width:2; stroke-opacity:0.1; fill:none" points="2088.65,1423.18 2088.65,123.472 "/>
<polyline clip-path="url(#clip030)" style="stroke:#000000; stroke-linecap:round; stroke-linejoin:round; stroke-width:4; stroke-opacity:1; fill:none" points="340.028,1423.18 2352.76,1423.18 "/>
<polyline clip-path="url(#clip030)" style="stroke:#000000; stroke-linecap:round; stroke-linejoin:round; stroke-width:4; stroke-opacity:1; fill:none" points="362.468,1423.18 362.468,1404.28 "/>
<polyline clip-path="url(#clip030)" style="stroke:#000000; stroke-linecap:round; stroke-linejoin:round; stroke-width:4; stroke-opacity:1; fill:none" points="707.704,1423.18 707.704,1404.28 "/>
<polyline clip-path="url(#clip030)" style="stroke:#000000; stroke-linecap:round; stroke-linejoin:round; stroke-width:4; stroke-opacity:1; fill:none" points="1052.94,1423.18 1052.94,1404.28 "/>
<polyline clip-path="url(#clip030)" style="stroke:#000000; stroke-linecap:round; stroke-linejoin:round; stroke-width:4; stroke-opacity:1; fill:none" points="1398.18,1423.18 1398.18,1404.28 "/>
<polyline clip-path="url(#clip030)" style="stroke:#000000; stroke-linecap:round; stroke-linejoin:round; stroke-width:4; stroke-opacity:1; fill:none" points="1743.41,1423.18 1743.41,1404.28 "/>
<polyline clip-path="url(#clip030)" style="stroke:#000000; stroke-linecap:round; stroke-linejoin:round; stroke-width:4; stroke-opacity:1; fill:none" points="2088.65,1423.18 2088.65,1404.28 "/>
<path clip-path="url(#clip030)" d="M362.468 1454.1 Q358.857 1454.1 357.028 1457.66 Q355.223 1461.2 355.223 1468.33 Q355.223 1475.44 357.028 1479.01 Q358.857 1482.55 362.468 1482.55 Q366.102 1482.55 367.908 1479.01 Q369.737 1475.44 369.737 1468.33 Q369.737 1461.2 367.908 1457.66 Q366.102 1454.1 362.468 1454.1 M362.468 1450.39 Q368.278 1450.39 371.334 1455 Q374.412 1459.58 374.412 1468.33 Q374.412 1477.06 371.334 1481.67 Q368.278 1486.25 362.468 1486.25 Q356.658 1486.25 353.579 1481.67 Q350.524 1477.06 350.524 1468.33 Q350.524 1459.58 353.579 1455 Q356.658 1450.39 362.468 1450.39 Z" fill="#000000" fill-rule="nonzero" fill-opacity="1" /><path clip-path="url(#clip030)" d="M682.392 1481.64 L690.031 1481.64 L690.031 1455.28 L681.721 1456.95 L681.721 1452.69 L689.985 1451.02 L694.661 1451.02 L694.661 1481.64 L702.299 1481.64 L702.299 1485.58 L682.392 1485.58 L682.392 1481.64 Z" fill="#000000" fill-rule="nonzero" fill-opacity="1" /><path clip-path="url(#clip030)" d="M721.744 1454.1 Q718.133 1454.1 716.304 1457.66 Q714.498 1461.2 714.498 1468.33 Q714.498 1475.44 716.304 1479.01 Q718.133 1482.55 721.744 1482.55 Q725.378 1482.55 727.183 1479.01 Q729.012 1475.44 729.012 1468.33 Q729.012 1461.2 727.183 1457.66 Q725.378 1454.1 721.744 1454.1 M721.744 1450.39 Q727.554 1450.39 730.609 1455 Q733.688 1459.58 733.688 1468.33 Q733.688 1477.06 730.609 1481.67 Q727.554 1486.25 721.744 1486.25 Q715.934 1486.25 712.855 1481.67 Q709.799 1477.06 709.799 1468.33 Q709.799 1459.58 712.855 1455 Q715.934 1450.39 721.744 1450.39 Z" fill="#000000" fill-rule="nonzero" fill-opacity="1" /><path clip-path="url(#clip030)" d="M1031.71 1481.64 L1048.03 1481.64 L1048.03 1485.58 L1026.09 1485.58 L1026.09 1481.64 Q1028.75 1478.89 1033.33 1474.26 Q1037.94 1469.61 1039.12 1468.27 Q1041.37 1465.74 1042.25 1464.01 Q1043.15 1462.25 1043.15 1460.56 Q1043.15 1457.8 1041.2 1456.07 Q1039.28 1454.33 1036.18 1454.33 Q1033.98 1454.33 1031.53 1455.09 Q1029.1 1455.86 1026.32 1457.41 L1026.32 1452.69 Q1029.14 1451.55 1031.6 1450.97 Q1034.05 1450.39 1036.09 1450.39 Q1041.46 1450.39 1044.65 1453.08 Q1047.85 1455.77 1047.85 1460.26 Q1047.85 1462.39 1047.04 1464.31 Q1046.25 1466.2 1044.14 1468.8 Q1043.57 1469.47 1040.46 1472.69 Q1037.36 1475.88 1031.71 1481.64 Z" fill="#000000" fill-rule="nonzero" fill-opacity="1" /><path clip-path="url(#clip030)" d="M1067.85 1454.1 Q1064.24 1454.1 1062.41 1457.66 Q1060.6 1461.2 1060.6 1468.33 Q1060.6 1475.44 1062.41 1479.01 Q1064.24 1482.55 1067.85 1482.55 Q1071.48 1482.55 1073.29 1479.01 Q1075.12 1475.44 1075.12 1468.33 Q1075.12 1461.2 1073.29 1457.66 Q1071.48 1454.1 1067.85 1454.1 M1067.85 1450.39 Q1073.66 1450.39 1076.71 1455 Q1079.79 1459.58 1079.79 1468.33 Q1079.79 1477.06 1076.71 1481.67 Q1073.66 1486.25 1067.85 1486.25 Q1062.04 1486.25 1058.96 1481.67 Q1055.9 1477.06 1055.9 1468.33 Q1055.9 1459.58 1058.96 1455 Q1062.04 1450.39 1067.85 1450.39 Z" fill="#000000" fill-rule="nonzero" fill-opacity="1" /><path clip-path="url(#clip030)" d="M1387.02 1466.95 Q1390.38 1467.66 1392.25 1469.93 Q1394.15 1472.2 1394.15 1475.53 Q1394.15 1480.65 1390.63 1483.45 Q1387.11 1486.25 1380.63 1486.25 Q1378.46 1486.25 1376.14 1485.81 Q1373.85 1485.39 1371.39 1484.54 L1371.39 1480.02 Q1373.34 1481.16 1375.65 1481.74 Q1377.97 1482.32 1380.49 1482.32 Q1384.89 1482.32 1387.18 1480.58 Q1389.5 1478.84 1389.5 1475.53 Q1389.5 1472.48 1387.34 1470.77 Q1385.21 1469.03 1381.39 1469.03 L1377.37 1469.03 L1377.37 1465.19 L1381.58 1465.19 Q1385.03 1465.19 1386.86 1463.82 Q1388.69 1462.43 1388.69 1459.84 Q1388.69 1457.18 1386.79 1455.77 Q1384.91 1454.33 1381.39 1454.33 Q1379.47 1454.33 1377.27 1454.75 Q1375.08 1455.16 1372.44 1456.04 L1372.44 1451.88 Q1375.1 1451.14 1377.41 1450.77 Q1379.75 1450.39 1381.81 1450.39 Q1387.14 1450.39 1390.24 1452.83 Q1393.34 1455.23 1393.34 1459.35 Q1393.34 1462.22 1391.7 1464.21 Q1390.05 1466.18 1387.02 1466.95 Z" fill="#000000" fill-rule="nonzero" fill-opacity="1" /><path clip-path="url(#clip030)" d="M1413.02 1454.1 Q1409.4 1454.1 1407.58 1457.66 Q1405.77 1461.2 1405.77 1468.33 Q1405.77 1475.44 1407.58 1479.01 Q1409.4 1482.55 1413.02 1482.55 Q1416.65 1482.55 1418.45 1479.01 Q1420.28 1475.44 1420.28 1468.33 Q1420.28 1461.2 1418.45 1457.66 Q1416.65 1454.1 1413.02 1454.1 M1413.02 1450.39 Q1418.83 1450.39 1421.88 1455 Q1424.96 1459.58 1424.96 1468.33 Q1424.96 1477.06 1421.88 1481.67 Q1418.83 1486.25 1413.02 1486.25 Q1407.2 1486.25 1404.13 1481.67 Q1401.07 1477.06 1401.07 1468.33 Q1401.07 1459.58 1404.13 1455 Q1407.2 1450.39 1413.02 1450.39 Z" fill="#000000" fill-rule="nonzero" fill-opacity="1" /><path clip-path="url(#clip030)" d="M1731.59 1455.09 L1719.78 1473.54 L1731.59 1473.54 L1731.59 1455.09 M1730.36 1451.02 L1736.24 1451.02 L1736.24 1473.54 L1741.17 1473.54 L1741.17 1477.43 L1736.24 1477.43 L1736.24 1485.58 L1731.59 1485.58 L1731.59 1477.43 L1715.98 1477.43 L1715.98 1472.92 L1730.36 1451.02 Z" fill="#000000" fill-rule="nonzero" fill-opacity="1" /><path clip-path="url(#clip030)" d="M1758.9 1454.1 Q1755.29 1454.1 1753.46 1457.66 Q1751.65 1461.2 1751.65 1468.33 Q1751.65 1475.44 1753.46 1479.01 Q1755.29 1482.55 1758.9 1482.55 Q1762.53 1482.55 1764.34 1479.01 Q1766.17 1475.44 1766.17 1468.33 Q1766.17 1461.2 1764.34 1457.66 Q1762.53 1454.1 1758.9 1454.1 M1758.9 1450.39 Q1764.71 1450.39 1767.77 1455 Q1770.84 1459.58 1770.84 1468.33 Q1770.84 1477.06 1767.77 1481.67 Q1764.71 1486.25 1758.9 1486.25 Q1753.09 1486.25 1750.01 1481.67 Q1746.96 1477.06 1746.96 1468.33 Q1746.96 1459.58 1750.01 1455 Q1753.09 1450.39 1758.9 1450.39 Z" fill="#000000" fill-rule="nonzero" fill-opacity="1" /><path clip-path="url(#clip030)" d="M2063.35 1451.02 L2081.71 1451.02 L2081.71 1454.96 L2067.63 1454.96 L2067.63 1463.43 Q2068.65 1463.08 2069.67 1462.92 Q2070.69 1462.73 2071.71 1462.73 Q2077.49 1462.73 2080.87 1465.9 Q2084.25 1469.08 2084.25 1474.49 Q2084.25 1480.07 2080.78 1483.17 Q2077.31 1486.25 2070.99 1486.25 Q2068.81 1486.25 2066.54 1485.88 Q2064.3 1485.51 2061.89 1484.77 L2061.89 1480.07 Q2063.97 1481.2 2066.2 1481.76 Q2068.42 1482.32 2070.9 1482.32 Q2074.9 1482.32 2077.24 1480.21 Q2079.58 1478.1 2079.58 1474.49 Q2079.58 1470.88 2077.24 1468.77 Q2074.9 1466.67 2070.9 1466.67 Q2069.02 1466.67 2067.15 1467.08 Q2065.29 1467.5 2063.35 1468.38 L2063.35 1451.02 Z" fill="#000000" fill-rule="nonzero" fill-opacity="1" /><path clip-path="url(#clip030)" d="M2103.46 1454.1 Q2099.85 1454.1 2098.03 1457.66 Q2096.22 1461.2 2096.22 1468.33 Q2096.22 1475.44 2098.03 1479.01 Q2099.85 1482.55 2103.46 1482.55 Q2107.1 1482.55 2108.9 1479.01 Q2110.73 1475.44 2110.73 1468.33 Q2110.73 1461.2 2108.9 1457.66 Q2107.1 1454.1 2103.46 1454.1 M2103.46 1450.39 Q2109.27 1450.39 2112.33 1455 Q2115.41 1459.58 2115.41 1468.33 Q2115.41 1477.06 2112.33 1481.67 Q2109.27 1486.25 2103.46 1486.25 Q2097.65 1486.25 2094.58 1481.67 Q2091.52 1477.06 2091.52 1468.33 Q2091.52 1459.58 2094.58 1455 Q2097.65 1450.39 2103.46 1450.39 Z" fill="#000000" fill-rule="nonzero" fill-opacity="1" /><path clip-path="url(#clip030)" d="M1261.22 1546.53 L1261.22 1568.04 L1255.36 1568.04 L1255.36 1546.72 Q1255.36 1541.66 1253.39 1539.14 Q1251.42 1536.63 1247.47 1536.63 Q1242.73 1536.63 1239.99 1539.65 Q1237.25 1542.68 1237.25 1547.9 L1237.25 1568.04 L1231.36 1568.04 L1231.36 1518.52 L1237.25 1518.52 L1237.25 1537.93 Q1239.35 1534.72 1242.19 1533.13 Q1245.05 1531.54 1248.77 1531.54 Q1254.92 1531.54 1258.07 1535.36 Q1261.22 1539.14 1261.22 1546.53 Z" fill="#000000" fill-rule="nonzero" fill-opacity="1" /><path clip-path="url(#clip030)" d="M1286.71 1536.5 Q1282 1536.5 1279.27 1540.19 Q1276.53 1543.85 1276.53 1550.25 Q1276.53 1556.65 1279.23 1560.34 Q1281.97 1564 1286.71 1564 Q1291.39 1564 1294.13 1560.31 Q1296.87 1556.62 1296.87 1550.25 Q1296.87 1543.92 1294.13 1540.23 Q1291.39 1536.5 1286.71 1536.5 M1286.71 1531.54 Q1294.35 1531.54 1298.71 1536.5 Q1303.07 1541.47 1303.07 1550.25 Q1303.07 1559 1298.71 1564 Q1294.35 1568.97 1286.71 1568.97 Q1279.04 1568.97 1274.68 1564 Q1270.35 1559 1270.35 1550.25 Q1270.35 1541.47 1274.68 1536.5 Q1279.04 1531.54 1286.71 1531.54 Z" fill="#000000" fill-rule="nonzero" fill-opacity="1" /><path clip-path="url(#clip030)" d="M1333.44 1537.87 Q1332.45 1537.3 1331.27 1537.04 Q1330.13 1536.76 1328.73 1536.76 Q1323.76 1536.76 1321.09 1540 Q1318.45 1543.22 1318.45 1549.27 L1318.45 1568.04 L1312.56 1568.04 L1312.56 1532.4 L1318.45 1532.4 L1318.45 1537.93 Q1320.29 1534.69 1323.25 1533.13 Q1326.21 1531.54 1330.45 1531.54 Q1331.05 1531.54 1331.78 1531.63 Q1332.51 1531.7 1333.41 1531.85 L1333.44 1537.87 Z" fill="#000000" fill-rule="nonzero" fill-opacity="1" /><path clip-path="url(#clip030)" d="M1339.58 1532.4 L1345.44 1532.4 L1345.44 1568.04 L1339.58 1568.04 L1339.58 1532.4 M1339.58 1518.52 L1345.44 1518.52 L1345.44 1525.93 L1339.58 1525.93 L1339.58 1518.52 Z" fill="#000000" fill-rule="nonzero" fill-opacity="1" /><path clip-path="url(#clip030)" d="M1355.14 1532.4 L1382.96 1532.4 L1382.96 1537.74 L1360.94 1563.37 L1382.96 1563.37 L1382.96 1568.04 L1354.35 1568.04 L1354.35 1562.7 L1376.37 1537.07 L1355.14 1537.07 L1355.14 1532.4 Z" fill="#000000" fill-rule="nonzero" fill-opacity="1" /><path clip-path="url(#clip030)" d="M1405.72 1536.5 Q1401.01 1536.5 1398.27 1540.19 Q1395.54 1543.85 1395.54 1550.25 Q1395.54 1556.65 1398.24 1560.34 Q1400.98 1564 1405.72 1564 Q1410.4 1564 1413.14 1560.31 Q1415.87 1556.62 1415.87 1550.25 Q1415.87 1543.92 1413.14 1540.23 Q1410.4 1536.5 1405.72 1536.5 M1405.72 1531.54 Q1413.36 1531.54 1417.72 1536.5 Q1422.08 1541.47 1422.08 1550.25 Q1422.08 1559 1417.72 1564 Q1413.36 1568.97 1405.72 1568.97 Q1398.05 1568.97 1393.69 1564 Q1389.36 1559 1389.36 1550.25 Q1389.36 1541.47 1393.69 1536.5 Q1398.05 1531.54 1405.72 1531.54 Z" fill="#000000" fill-rule="nonzero" fill-opacity="1" /><path clip-path="url(#clip030)" d="M1461.42 1546.53 L1461.42 1568.04 L1455.56 1568.04 L1455.56 1546.72 Q1455.56 1541.66 1453.59 1539.14 Q1451.62 1536.63 1447.67 1536.63 Q1442.93 1536.63 1440.19 1539.65 Q1437.45 1542.68 1437.45 1547.9 L1437.45 1568.04 L1431.56 1568.04 L1431.56 1532.4 L1437.45 1532.4 L1437.45 1537.93 Q1439.55 1534.72 1442.39 1533.13 Q1445.25 1531.54 1448.98 1531.54 Q1455.12 1531.54 1458.27 1535.36 Q1461.42 1539.14 1461.42 1546.53 Z" fill="#000000" fill-rule="nonzero" fill-opacity="1" /><polyline clip-path="url(#clip032)" style="stroke:#000000; stroke-linecap:round; stroke-linejoin:round; stroke-width:2; stroke-opacity:0.1; fill:none" points="340.028,1293.14 2352.76,1293.14 "/>
<polyline clip-path="url(#clip032)" style="stroke:#000000; stroke-linecap:round; stroke-linejoin:round; stroke-width:2; stroke-opacity:0.1; fill:none" points="340.028,1017.31 2352.76,1017.31 "/>
<polyline clip-path="url(#clip032)" style="stroke:#000000; stroke-linecap:round; stroke-linejoin:round; stroke-width:2; stroke-opacity:0.1; fill:none" points="340.028,741.485 2352.76,741.485 "/>
<polyline clip-path="url(#clip032)" style="stroke:#000000; stroke-linecap:round; stroke-linejoin:round; stroke-width:2; stroke-opacity:0.1; fill:none" points="340.028,465.656 2352.76,465.656 "/>
<polyline clip-path="url(#clip032)" style="stroke:#000000; stroke-linecap:round; stroke-linejoin:round; stroke-width:2; stroke-opacity:0.1; fill:none" points="340.028,189.827 2352.76,189.827 "/>
<polyline clip-path="url(#clip030)" style="stroke:#000000; stroke-linecap:round; stroke-linejoin:round; stroke-width:4; stroke-opacity:1; fill:none" points="340.028,1423.18 340.028,123.472 "/>
<polyline clip-path="url(#clip030)" style="stroke:#000000; stroke-linecap:round; stroke-linejoin:round; stroke-width:4; stroke-opacity:1; fill:none" points="340.028,1293.14 358.925,1293.14 "/>
<polyline clip-path="url(#clip030)" style="stroke:#000000; stroke-linecap:round; stroke-linejoin:round; stroke-width:4; stroke-opacity:1; fill:none" points="340.028,1017.31 358.925,1017.31 "/>
<polyline clip-path="url(#clip030)" style="stroke:#000000; stroke-linecap:round; stroke-linejoin:round; stroke-width:4; stroke-opacity:1; fill:none" points="340.028,741.485 358.925,741.485 "/>
<polyline clip-path="url(#clip030)" style="stroke:#000000; stroke-linecap:round; stroke-linejoin:round; stroke-width:4; stroke-opacity:1; fill:none" points="340.028,465.656 358.925,465.656 "/>
<polyline clip-path="url(#clip030)" style="stroke:#000000; stroke-linecap:round; stroke-linejoin:round; stroke-width:4; stroke-opacity:1; fill:none" points="340.028,189.827 358.925,189.827 "/>
<path clip-path="url(#clip030)" d="M127.2 1278.94 Q123.589 1278.94 121.76 1282.51 Q119.955 1286.05 119.955 1293.18 Q119.955 1300.28 121.76 1303.85 Q123.589 1307.39 127.2 1307.39 Q130.834 1307.39 132.64 1303.85 Q134.468 1300.28 134.468 1293.18 Q134.468 1286.05 132.64 1282.51 Q130.834 1278.94 127.2 1278.94 M127.2 1275.24 Q133.01 1275.24 136.066 1279.84 Q139.144 1284.43 139.144 1293.18 Q139.144 1301.9 136.066 1306.51 Q133.01 1311.09 127.2 1311.09 Q121.39 1311.09 118.311 1306.51 Q115.256 1301.9 115.256 1293.18 Q115.256 1284.43 118.311 1279.84 Q121.39 1275.24 127.2 1275.24 Z" fill="#000000" fill-rule="nonzero" fill-opacity="1" /><path clip-path="url(#clip030)" d="M147.362 1304.54 L152.246 1304.54 L152.246 1310.42 L147.362 1310.42 L147.362 1304.54 Z" fill="#000000" fill-rule="nonzero" fill-opacity="1" /><path clip-path="url(#clip030)" d="M172.431 1278.94 Q168.82 1278.94 166.991 1282.51 Q165.186 1286.05 165.186 1293.18 Q165.186 1300.28 166.991 1303.85 Q168.82 1307.39 172.431 1307.39 Q176.065 1307.39 177.871 1303.85 Q179.7 1300.28 179.7 1293.18 Q179.7 1286.05 177.871 1282.51 Q176.065 1278.94 172.431 1278.94 M172.431 1275.24 Q178.241 1275.24 181.297 1279.84 Q184.376 1284.43 184.376 1293.18 Q184.376 1301.9 181.297 1306.51 Q178.241 1311.09 172.431 1311.09 Q166.621 1311.09 163.542 1306.51 Q160.487 1301.9 160.487 1293.18 Q160.487 1284.43 163.542 1279.84 Q166.621 1275.24 172.431 1275.24 Z" fill="#000000" fill-rule="nonzero" fill-opacity="1" /><path clip-path="url(#clip030)" d="M202.593 1278.94 Q198.982 1278.94 197.153 1282.51 Q195.348 1286.05 195.348 1293.18 Q195.348 1300.28 197.153 1303.85 Q198.982 1307.39 202.593 1307.39 Q206.227 1307.39 208.033 1303.85 Q209.861 1300.28 209.861 1293.18 Q209.861 1286.05 208.033 1282.51 Q206.227 1278.94 202.593 1278.94 M202.593 1275.24 Q208.403 1275.24 211.459 1279.84 Q214.537 1284.43 214.537 1293.18 Q214.537 1301.9 211.459 1306.51 Q208.403 1311.09 202.593 1311.09 Q196.783 1311.09 193.704 1306.51 Q190.649 1301.9 190.649 1293.18 Q190.649 1284.43 193.704 1279.84 Q196.783 1275.24 202.593 1275.24 Z" fill="#000000" fill-rule="nonzero" fill-opacity="1" /><path clip-path="url(#clip030)" d="M226.783 1306.49 L243.102 1306.49 L243.102 1310.42 L221.158 1310.42 L221.158 1306.49 Q223.82 1303.73 228.403 1299.1 Q233.01 1294.45 234.19 1293.11 Q236.435 1290.58 237.315 1288.85 Q238.218 1287.09 238.218 1285.4 Q238.218 1282.65 236.273 1280.91 Q234.352 1279.17 231.25 1279.17 Q229.051 1279.17 226.598 1279.94 Q224.167 1280.7 221.389 1282.25 L221.389 1277.53 Q224.213 1276.4 226.667 1275.82 Q229.121 1275.24 231.158 1275.24 Q236.528 1275.24 239.722 1277.92 Q242.917 1280.61 242.917 1285.1 Q242.917 1287.23 242.107 1289.15 Q241.32 1291.05 239.213 1293.64 Q238.634 1294.31 235.533 1297.53 Q232.431 1300.72 226.783 1306.49 Z" fill="#000000" fill-rule="nonzero" fill-opacity="1" /><path clip-path="url(#clip030)" d="M256.945 1306.49 L273.264 1306.49 L273.264 1310.42 L251.32 1310.42 L251.32 1306.49 Q253.982 1303.73 258.565 1299.1 Q263.171 1294.45 264.352 1293.11 Q266.597 1290.58 267.477 1288.85 Q268.38 1287.09 268.38 1285.4 Q268.38 1282.65 266.435 1280.91 Q264.514 1279.17 261.412 1279.17 Q259.213 1279.17 256.759 1279.94 Q254.329 1280.7 251.551 1282.25 L251.551 1277.53 Q254.375 1276.4 256.829 1275.82 Q259.283 1275.24 261.32 1275.24 Q266.69 1275.24 269.884 1277.92 Q273.079 1280.61 273.079 1285.1 Q273.079 1287.23 272.269 1289.15 Q271.482 1291.05 269.375 1293.64 Q268.796 1294.31 265.695 1297.53 Q262.593 1300.72 256.945 1306.49 Z" fill="#000000" fill-rule="nonzero" fill-opacity="1" /><path clip-path="url(#clip030)" d="M283.125 1275.86 L301.481 1275.86 L301.481 1279.8 L287.407 1279.8 L287.407 1288.27 Q288.426 1287.92 289.444 1287.76 Q290.463 1287.58 291.481 1287.58 Q297.268 1287.58 300.648 1290.75 Q304.028 1293.92 304.028 1299.33 Q304.028 1304.91 300.555 1308.02 Q297.083 1311.09 290.764 1311.09 Q288.588 1311.09 286.319 1310.72 Q284.074 1310.35 281.667 1309.61 L281.667 1304.91 Q283.75 1306.05 285.972 1306.6 Q288.194 1307.16 290.671 1307.16 Q294.676 1307.16 297.014 1305.05 Q299.352 1302.95 299.352 1299.33 Q299.352 1295.72 297.014 1293.62 Q294.676 1291.51 290.671 1291.51 Q288.796 1291.51 286.921 1291.93 Q285.069 1292.34 283.125 1293.22 L283.125 1275.86 Z" fill="#000000" fill-rule="nonzero" fill-opacity="1" /><path clip-path="url(#clip030)" d="M126.205 1003.11 Q122.593 1003.11 120.765 1006.68 Q118.959 1010.22 118.959 1017.35 Q118.959 1024.46 120.765 1028.02 Q122.593 1031.56 126.205 1031.56 Q129.839 1031.56 131.644 1028.02 Q133.473 1024.46 133.473 1017.35 Q133.473 1010.22 131.644 1006.68 Q129.839 1003.11 126.205 1003.11 M126.205 999.409 Q132.015 999.409 135.07 1004.02 Q138.149 1008.6 138.149 1017.35 Q138.149 1026.08 135.07 1030.68 Q132.015 1035.27 126.205 1035.27 Q120.394 1035.27 117.316 1030.68 Q114.26 1026.08 114.26 1017.35 Q114.26 1008.6 117.316 1004.02 Q120.394 999.409 126.205 999.409 Z" fill="#000000" fill-rule="nonzero" fill-opacity="1" /><path clip-path="url(#clip030)" d="M146.366 1028.71 L151.251 1028.71 L151.251 1034.59 L146.366 1034.59 L146.366 1028.71 Z" fill="#000000" fill-rule="nonzero" fill-opacity="1" /><path clip-path="url(#clip030)" d="M171.436 1003.11 Q167.825 1003.11 165.996 1006.68 Q164.19 1010.22 164.19 1017.35 Q164.19 1024.46 165.996 1028.02 Q167.825 1031.56 171.436 1031.56 Q175.07 1031.56 176.876 1028.02 Q178.704 1024.46 178.704 1017.35 Q178.704 1010.22 176.876 1006.68 Q175.07 1003.11 171.436 1003.11 M171.436 999.409 Q177.246 999.409 180.301 1004.02 Q183.38 1008.6 183.38 1017.35 Q183.38 1026.08 180.301 1030.68 Q177.246 1035.27 171.436 1035.27 Q165.626 1035.27 162.547 1030.68 Q159.491 1026.08 159.491 1017.35 Q159.491 1008.6 162.547 1004.02 Q165.626 999.409 171.436 999.409 Z" fill="#000000" fill-rule="nonzero" fill-opacity="1" /><path clip-path="url(#clip030)" d="M201.598 1003.11 Q197.987 1003.11 196.158 1006.68 Q194.352 1010.22 194.352 1017.35 Q194.352 1024.46 196.158 1028.02 Q197.987 1031.56 201.598 1031.56 Q205.232 1031.56 207.037 1028.02 Q208.866 1024.46 208.866 1017.35 Q208.866 1010.22 207.037 1006.68 Q205.232 1003.11 201.598 1003.11 M201.598 999.409 Q207.408 999.409 210.463 1004.02 Q213.542 1008.6 213.542 1017.35 Q213.542 1026.08 210.463 1030.68 Q207.408 1035.27 201.598 1035.27 Q195.787 1035.27 192.709 1030.68 Q189.653 1026.08 189.653 1017.35 Q189.653 1008.6 192.709 1004.02 Q195.787 999.409 201.598 999.409 Z" fill="#000000" fill-rule="nonzero" fill-opacity="1" /><path clip-path="url(#clip030)" d="M225.787 1030.66 L242.107 1030.66 L242.107 1034.59 L220.162 1034.59 L220.162 1030.66 Q222.824 1027.9 227.408 1023.27 Q232.014 1018.62 233.195 1017.28 Q235.44 1014.76 236.32 1013.02 Q237.222 1011.26 237.222 1009.57 Q237.222 1006.82 235.278 1005.08 Q233.357 1003.34 230.255 1003.34 Q228.056 1003.34 225.602 1004.11 Q223.172 1004.87 220.394 1006.42 L220.394 1001.7 Q223.218 1000.57 225.672 999.988 Q228.125 999.409 230.162 999.409 Q235.533 999.409 238.727 1002.09 Q241.922 1004.78 241.922 1009.27 Q241.922 1011.4 241.111 1013.32 Q240.324 1015.22 238.218 1017.81 Q237.639 1018.48 234.537 1021.7 Q231.435 1024.89 225.787 1030.66 Z" fill="#000000" fill-rule="nonzero" fill-opacity="1" /><path clip-path="url(#clip030)" d="M251.968 1000.03 L270.324 1000.03 L270.324 1003.97 L256.25 1003.97 L256.25 1012.44 Q257.269 1012.09 258.287 1011.93 Q259.306 1011.75 260.324 1011.75 Q266.111 1011.75 269.491 1014.92 Q272.87 1018.09 272.87 1023.51 Q272.87 1029.08 269.398 1032.19 Q265.926 1035.27 259.607 1035.27 Q257.431 1035.27 255.162 1034.89 Q252.917 1034.52 250.509 1033.78 L250.509 1029.08 Q252.593 1030.22 254.815 1030.77 Q257.037 1031.33 259.514 1031.33 Q263.519 1031.33 265.857 1029.22 Q268.195 1027.12 268.195 1023.51 Q268.195 1019.89 265.857 1017.79 Q263.519 1015.68 259.514 1015.68 Q257.639 1015.68 255.764 1016.1 Q253.912 1016.52 251.968 1017.39 L251.968 1000.03 Z" fill="#000000" fill-rule="nonzero" fill-opacity="1" /><path clip-path="url(#clip030)" d="M292.083 1003.11 Q288.472 1003.11 286.643 1006.68 Q284.838 1010.22 284.838 1017.35 Q284.838 1024.46 286.643 1028.02 Q288.472 1031.56 292.083 1031.56 Q295.718 1031.56 297.523 1028.02 Q299.352 1024.46 299.352 1017.35 Q299.352 1010.22 297.523 1006.68 Q295.718 1003.11 292.083 1003.11 M292.083 999.409 Q297.893 999.409 300.949 1004.02 Q304.028 1008.6 304.028 1017.35 Q304.028 1026.08 300.949 1030.68 Q297.893 1035.27 292.083 1035.27 Q286.273 1035.27 283.194 1030.68 Q280.139 1026.08 280.139 1017.35 Q280.139 1008.6 283.194 1004.02 Q286.273 999.409 292.083 999.409 Z" fill="#000000" fill-rule="nonzero" fill-opacity="1" /><path clip-path="url(#clip030)" d="M127.2 727.284 Q123.589 727.284 121.76 730.849 Q119.955 734.39 119.955 741.52 Q119.955 748.626 121.76 752.191 Q123.589 755.733 127.2 755.733 Q130.834 755.733 132.64 752.191 Q134.468 748.626 134.468 741.52 Q134.468 734.39 132.64 730.849 Q130.834 727.284 127.2 727.284 M127.2 723.58 Q133.01 723.58 136.066 728.187 Q139.144 732.77 139.144 741.52 Q139.144 750.247 136.066 754.853 Q133.01 759.436 127.2 759.436 Q121.39 759.436 118.311 754.853 Q115.256 750.247 115.256 741.52 Q115.256 732.77 118.311 728.187 Q121.39 723.58 127.2 723.58 Z" fill="#000000" fill-rule="nonzero" fill-opacity="1" /><path clip-path="url(#clip030)" d="M147.362 752.885 L152.246 752.885 L152.246 758.765 L147.362 758.765 L147.362 752.885 Z" fill="#000000" fill-rule="nonzero" fill-opacity="1" /><path clip-path="url(#clip030)" d="M172.431 727.284 Q168.82 727.284 166.991 730.849 Q165.186 734.39 165.186 741.52 Q165.186 748.626 166.991 752.191 Q168.82 755.733 172.431 755.733 Q176.065 755.733 177.871 752.191 Q179.7 748.626 179.7 741.52 Q179.7 734.39 177.871 730.849 Q176.065 727.284 172.431 727.284 M172.431 723.58 Q178.241 723.58 181.297 728.187 Q184.376 732.77 184.376 741.52 Q184.376 750.247 181.297 754.853 Q178.241 759.436 172.431 759.436 Q166.621 759.436 163.542 754.853 Q160.487 750.247 160.487 741.52 Q160.487 732.77 163.542 728.187 Q166.621 723.58 172.431 723.58 Z" fill="#000000" fill-rule="nonzero" fill-opacity="1" /><path clip-path="url(#clip030)" d="M202.593 727.284 Q198.982 727.284 197.153 730.849 Q195.348 734.39 195.348 741.52 Q195.348 748.626 197.153 752.191 Q198.982 755.733 202.593 755.733 Q206.227 755.733 208.033 752.191 Q209.861 748.626 209.861 741.52 Q209.861 734.39 208.033 730.849 Q206.227 727.284 202.593 727.284 M202.593 723.58 Q208.403 723.58 211.459 728.187 Q214.537 732.77 214.537 741.52 Q214.537 750.247 211.459 754.853 Q208.403 759.436 202.593 759.436 Q196.783 759.436 193.704 754.853 Q190.649 750.247 190.649 741.52 Q190.649 732.77 193.704 728.187 Q196.783 723.58 202.593 723.58 Z" fill="#000000" fill-rule="nonzero" fill-opacity="1" /><path clip-path="url(#clip030)" d="M226.783 754.83 L243.102 754.83 L243.102 758.765 L221.158 758.765 L221.158 754.83 Q223.82 752.075 228.403 747.446 Q233.01 742.793 234.19 741.45 Q236.435 738.927 237.315 737.191 Q238.218 735.432 238.218 733.742 Q238.218 730.987 236.273 729.251 Q234.352 727.515 231.25 727.515 Q229.051 727.515 226.598 728.279 Q224.167 729.043 221.389 730.594 L221.389 725.872 Q224.213 724.737 226.667 724.159 Q229.121 723.58 231.158 723.58 Q236.528 723.58 239.722 726.265 Q242.917 728.95 242.917 733.441 Q242.917 735.571 242.107 737.492 Q241.32 739.39 239.213 741.983 Q238.634 742.654 235.533 745.872 Q232.431 749.066 226.783 754.83 Z" fill="#000000" fill-rule="nonzero" fill-opacity="1" /><path clip-path="url(#clip030)" d="M251.736 724.205 L273.958 724.205 L273.958 726.196 L261.412 758.765 L256.528 758.765 L268.333 728.14 L251.736 728.14 L251.736 724.205 Z" fill="#000000" fill-rule="nonzero" fill-opacity="1" /><path clip-path="url(#clip030)" d="M283.125 724.205 L301.481 724.205 L301.481 728.14 L287.407 728.14 L287.407 736.612 Q288.426 736.265 289.444 736.103 Q290.463 735.918 291.481 735.918 Q297.268 735.918 300.648 739.089 Q304.028 742.261 304.028 747.677 Q304.028 753.256 300.555 756.358 Q297.083 759.436 290.764 759.436 Q288.588 759.436 286.319 759.066 Q284.074 758.696 281.667 757.955 L281.667 753.256 Q283.75 754.39 285.972 754.946 Q288.194 755.501 290.671 755.501 Q294.676 755.501 297.014 753.395 Q299.352 751.288 299.352 747.677 Q299.352 744.066 297.014 741.96 Q294.676 739.853 290.671 739.853 Q288.796 739.853 286.921 740.27 Q285.069 740.686 283.125 741.566 L283.125 724.205 Z" fill="#000000" fill-rule="nonzero" fill-opacity="1" /><path clip-path="url(#clip030)" d="M126.205 451.455 Q122.593 451.455 120.765 455.02 Q118.959 458.561 118.959 465.691 Q118.959 472.797 120.765 476.362 Q122.593 479.904 126.205 479.904 Q129.839 479.904 131.644 476.362 Q133.473 472.797 133.473 465.691 Q133.473 458.561 131.644 455.02 Q129.839 451.455 126.205 451.455 M126.205 447.751 Q132.015 447.751 135.07 452.358 Q138.149 456.941 138.149 465.691 Q138.149 474.418 135.07 479.024 Q132.015 483.608 126.205 483.608 Q120.394 483.608 117.316 479.024 Q114.26 474.418 114.26 465.691 Q114.26 456.941 117.316 452.358 Q120.394 447.751 126.205 447.751 Z" fill="#000000" fill-rule="nonzero" fill-opacity="1" /><path clip-path="url(#clip030)" d="M146.366 477.057 L151.251 477.057 L151.251 482.936 L146.366 482.936 L146.366 477.057 Z" fill="#000000" fill-rule="nonzero" fill-opacity="1" /><path clip-path="url(#clip030)" d="M171.436 451.455 Q167.825 451.455 165.996 455.02 Q164.19 458.561 164.19 465.691 Q164.19 472.797 165.996 476.362 Q167.825 479.904 171.436 479.904 Q175.07 479.904 176.876 476.362 Q178.704 472.797 178.704 465.691 Q178.704 458.561 176.876 455.02 Q175.07 451.455 171.436 451.455 M171.436 447.751 Q177.246 447.751 180.301 452.358 Q183.38 456.941 183.38 465.691 Q183.38 474.418 180.301 479.024 Q177.246 483.608 171.436 483.608 Q165.626 483.608 162.547 479.024 Q159.491 474.418 159.491 465.691 Q159.491 456.941 162.547 452.358 Q165.626 447.751 171.436 447.751 Z" fill="#000000" fill-rule="nonzero" fill-opacity="1" /><path clip-path="url(#clip030)" d="M201.598 451.455 Q197.987 451.455 196.158 455.02 Q194.352 458.561 194.352 465.691 Q194.352 472.797 196.158 476.362 Q197.987 479.904 201.598 479.904 Q205.232 479.904 207.037 476.362 Q208.866 472.797 208.866 465.691 Q208.866 458.561 207.037 455.02 Q205.232 451.455 201.598 451.455 M201.598 447.751 Q207.408 447.751 210.463 452.358 Q213.542 456.941 213.542 465.691 Q213.542 474.418 210.463 479.024 Q207.408 483.608 201.598 483.608 Q195.787 483.608 192.709 479.024 Q189.653 474.418 189.653 465.691 Q189.653 456.941 192.709 452.358 Q195.787 447.751 201.598 447.751 Z" fill="#000000" fill-rule="nonzero" fill-opacity="1" /><path clip-path="url(#clip030)" d="M235.926 464.302 Q239.283 465.02 241.158 467.288 Q243.056 469.557 243.056 472.89 Q243.056 478.006 239.537 480.807 Q236.019 483.608 229.537 483.608 Q227.361 483.608 225.047 483.168 Q222.755 482.751 220.301 481.895 L220.301 477.381 Q222.246 478.515 224.56 479.094 Q226.875 479.672 229.398 479.672 Q233.797 479.672 236.088 477.936 Q238.403 476.2 238.403 472.89 Q238.403 469.834 236.25 468.121 Q234.121 466.385 230.301 466.385 L226.273 466.385 L226.273 462.543 L230.486 462.543 Q233.935 462.543 235.764 461.177 Q237.593 459.788 237.593 457.196 Q237.593 454.534 235.695 453.122 Q233.82 451.686 230.301 451.686 Q228.38 451.686 226.181 452.103 Q223.982 452.52 221.343 453.399 L221.343 449.233 Q224.005 448.492 226.32 448.122 Q228.658 447.751 230.718 447.751 Q236.042 447.751 239.144 450.182 Q242.246 452.589 242.246 456.71 Q242.246 459.58 240.602 461.571 Q238.959 463.538 235.926 464.302 Z" fill="#000000" fill-rule="nonzero" fill-opacity="1" /><path clip-path="url(#clip030)" d="M261.921 451.455 Q258.31 451.455 256.482 455.02 Q254.676 458.561 254.676 465.691 Q254.676 472.797 256.482 476.362 Q258.31 479.904 261.921 479.904 Q265.556 479.904 267.361 476.362 Q269.19 472.797 269.19 465.691 Q269.19 458.561 267.361 455.02 Q265.556 451.455 261.921 451.455 M261.921 447.751 Q267.732 447.751 270.787 452.358 Q273.866 456.941 273.866 465.691 Q273.866 474.418 270.787 479.024 Q267.732 483.608 261.921 483.608 Q256.111 483.608 253.033 479.024 Q249.977 474.418 249.977 465.691 Q249.977 456.941 253.033 452.358 Q256.111 447.751 261.921 447.751 Z" fill="#000000" fill-rule="nonzero" fill-opacity="1" /><path clip-path="url(#clip030)" d="M292.083 451.455 Q288.472 451.455 286.643 455.02 Q284.838 458.561 284.838 465.691 Q284.838 472.797 286.643 476.362 Q288.472 479.904 292.083 479.904 Q295.718 479.904 297.523 476.362 Q299.352 472.797 299.352 465.691 Q299.352 458.561 297.523 455.02 Q295.718 451.455 292.083 451.455 M292.083 447.751 Q297.893 447.751 300.949 452.358 Q304.028 456.941 304.028 465.691 Q304.028 474.418 300.949 479.024 Q297.893 483.608 292.083 483.608 Q286.273 483.608 283.194 479.024 Q280.139 474.418 280.139 465.691 Q280.139 456.941 283.194 452.358 Q286.273 447.751 292.083 447.751 Z" fill="#000000" fill-rule="nonzero" fill-opacity="1" /><path clip-path="url(#clip030)" d="M127.2 175.626 Q123.589 175.626 121.76 179.191 Q119.955 182.733 119.955 189.862 Q119.955 196.969 121.76 200.533 Q123.589 204.075 127.2 204.075 Q130.834 204.075 132.64 200.533 Q134.468 196.969 134.468 189.862 Q134.468 182.733 132.64 179.191 Q130.834 175.626 127.2 175.626 M127.2 171.922 Q133.01 171.922 136.066 176.529 Q139.144 181.112 139.144 189.862 Q139.144 198.589 136.066 203.195 Q133.01 207.779 127.2 207.779 Q121.39 207.779 118.311 203.195 Q115.256 198.589 115.256 189.862 Q115.256 181.112 118.311 176.529 Q121.39 171.922 127.2 171.922 Z" fill="#000000" fill-rule="nonzero" fill-opacity="1" /><path clip-path="url(#clip030)" d="M147.362 201.228 L152.246 201.228 L152.246 207.107 L147.362 207.107 L147.362 201.228 Z" fill="#000000" fill-rule="nonzero" fill-opacity="1" /><path clip-path="url(#clip030)" d="M172.431 175.626 Q168.82 175.626 166.991 179.191 Q165.186 182.733 165.186 189.862 Q165.186 196.969 166.991 200.533 Q168.82 204.075 172.431 204.075 Q176.065 204.075 177.871 200.533 Q179.7 196.969 179.7 189.862 Q179.7 182.733 177.871 179.191 Q176.065 175.626 172.431 175.626 M172.431 171.922 Q178.241 171.922 181.297 176.529 Q184.376 181.112 184.376 189.862 Q184.376 198.589 181.297 203.195 Q178.241 207.779 172.431 207.779 Q166.621 207.779 163.542 203.195 Q160.487 198.589 160.487 189.862 Q160.487 181.112 163.542 176.529 Q166.621 171.922 172.431 171.922 Z" fill="#000000" fill-rule="nonzero" fill-opacity="1" /><path clip-path="url(#clip030)" d="M202.593 175.626 Q198.982 175.626 197.153 179.191 Q195.348 182.733 195.348 189.862 Q195.348 196.969 197.153 200.533 Q198.982 204.075 202.593 204.075 Q206.227 204.075 208.033 200.533 Q209.861 196.969 209.861 189.862 Q209.861 182.733 208.033 179.191 Q206.227 175.626 202.593 175.626 M202.593 171.922 Q208.403 171.922 211.459 176.529 Q214.537 181.112 214.537 189.862 Q214.537 198.589 211.459 203.195 Q208.403 207.779 202.593 207.779 Q196.783 207.779 193.704 203.195 Q190.649 198.589 190.649 189.862 Q190.649 181.112 193.704 176.529 Q196.783 171.922 202.593 171.922 Z" fill="#000000" fill-rule="nonzero" fill-opacity="1" /><path clip-path="url(#clip030)" d="M236.922 188.473 Q240.278 189.191 242.153 191.459 Q244.051 193.728 244.051 197.061 Q244.051 202.177 240.533 204.978 Q237.014 207.779 230.533 207.779 Q228.357 207.779 226.042 207.339 Q223.75 206.922 221.297 206.066 L221.297 201.552 Q223.241 202.686 225.556 203.265 Q227.871 203.844 230.394 203.844 Q234.792 203.844 237.084 202.107 Q239.398 200.371 239.398 197.061 Q239.398 194.006 237.246 192.293 Q235.116 190.557 231.297 190.557 L227.269 190.557 L227.269 186.714 L231.482 186.714 Q234.931 186.714 236.76 185.348 Q238.588 183.959 238.588 181.367 Q238.588 178.705 236.69 177.293 Q234.815 175.858 231.297 175.858 Q229.375 175.858 227.176 176.274 Q224.977 176.691 222.338 177.571 L222.338 173.404 Q225 172.663 227.315 172.293 Q229.653 171.922 231.713 171.922 Q237.037 171.922 240.139 174.353 Q243.241 176.76 243.241 180.881 Q243.241 183.751 241.597 185.742 Q239.954 187.709 236.922 188.473 Z" fill="#000000" fill-rule="nonzero" fill-opacity="1" /><path clip-path="url(#clip030)" d="M256.945 203.172 L273.264 203.172 L273.264 207.107 L251.32 207.107 L251.32 203.172 Q253.982 200.418 258.565 195.788 Q263.171 191.135 264.352 189.793 Q266.597 187.27 267.477 185.533 Q268.38 183.774 268.38 182.084 Q268.38 179.33 266.435 177.594 Q264.514 175.858 261.412 175.858 Q259.213 175.858 256.759 176.621 Q254.329 177.385 251.551 178.936 L251.551 174.214 Q254.375 173.08 256.829 172.501 Q259.283 171.922 261.32 171.922 Q266.69 171.922 269.884 174.608 Q273.079 177.293 273.079 181.783 Q273.079 183.913 272.269 185.834 Q271.482 187.732 269.375 190.325 Q268.796 190.996 265.695 194.214 Q262.593 197.408 256.945 203.172 Z" fill="#000000" fill-rule="nonzero" fill-opacity="1" /><path clip-path="url(#clip030)" d="M283.125 172.547 L301.481 172.547 L301.481 176.483 L287.407 176.483 L287.407 184.955 Q288.426 184.608 289.444 184.445 Q290.463 184.26 291.481 184.26 Q297.268 184.26 300.648 187.432 Q304.028 190.603 304.028 196.019 Q304.028 201.598 300.555 204.7 Q297.083 207.779 290.764 207.779 Q288.588 207.779 286.319 207.408 Q284.074 207.038 281.667 206.297 L281.667 201.598 Q283.75 202.732 285.972 203.288 Q288.194 203.844 290.671 203.844 Q294.676 203.844 297.014 201.737 Q299.352 199.631 299.352 196.019 Q299.352 192.408 297.014 190.302 Q294.676 188.195 290.671 188.195 Q288.796 188.195 286.921 188.612 Q285.069 189.029 283.125 189.908 L283.125 172.547 Z" fill="#000000" fill-rule="nonzero" fill-opacity="1" /><path clip-path="url(#clip030)" d="M16.4842 874.557 L16.4842 864.976 L48.8219 852.85 L16.4842 840.659 L16.4842 831.079 L64.0042 831.079 L64.0042 837.349 L22.277 837.349 L54.8694 849.603 L54.8694 856.064 L22.277 868.318 L64.0042 868.318 L64.0042 874.557 L16.4842 874.557 Z" fill="#000000" fill-rule="nonzero" fill-opacity="1" /><path clip-path="url(#clip030)" d="M41.7242 795.781 Q42.4244 793.712 44.7161 791.771 Q47.0077 789.797 51.0181 787.824 L64.0042 781.299 L64.0042 788.206 L51.8138 794.285 Q47.0395 796.64 45.48 798.868 Q43.9204 801.065 43.9204 804.884 L43.9204 811.886 L64.0042 811.886 L64.0042 818.316 L16.4842 818.316 L16.4842 803.802 Q16.4842 795.654 19.8898 791.643 Q23.2955 787.633 30.1704 787.633 Q34.6582 787.633 37.6183 789.734 Q40.5784 791.802 41.7242 795.781 M21.7677 811.886 L38.6368 811.886 L38.6368 803.802 Q38.6368 799.155 36.5043 796.8 Q34.34 794.412 30.1704 794.412 Q26.0009 794.412 23.9002 796.8 Q21.7677 799.155 21.7677 803.802 L21.7677 811.886 Z" fill="#000000" fill-rule="nonzero" fill-opacity="1" /><path clip-path="url(#clip030)" d="M22.818 759.783 L46.4666 768.504 L46.4666 751.03 L22.818 759.783 M16.4842 763.411 L16.4842 756.123 L64.0042 738.012 L64.0042 744.696 L51.8138 749.025 L51.8138 770.446 L64.0042 774.774 L64.0042 781.554 L16.4842 763.411 Z" fill="#000000" fill-rule="nonzero" fill-opacity="1" /><path clip-path="url(#clip030)" d="M16.4842 731.074 L16.4842 701.027 L21.895 701.027 L21.895 724.644 L35.9632 724.644 L35.9632 702.014 L41.3741 702.014 L41.3741 724.644 L58.5933 724.644 L58.5933 700.455 L64.0042 700.455 L64.0042 731.074 L16.4842 731.074 Z" fill="#000000" fill-rule="nonzero" fill-opacity="1" /><path clip-path="url(#clip030)" d="M14.479 672.095 L19.3487 672.095 L19.3487 677.697 Q19.3487 680.848 20.6219 682.089 Q21.895 683.299 25.2052 683.299 L28.3562 683.299 L28.3562 673.655 L32.9077 673.655 L32.9077 683.299 L64.0042 683.299 L64.0042 689.187 L32.9077 689.187 L32.9077 694.789 L28.3562 694.789 L28.3562 689.187 L25.8736 689.187 Q19.9216 689.187 17.2162 686.418 Q14.479 683.649 14.479 677.633 L14.479 672.095 Z" fill="#000000" fill-rule="nonzero" fill-opacity="1" /><path clip-path="url(#clip030)" d="M750.078 12.096 L758.261 12.096 L758.261 65.6895 L787.711 65.6895 L787.711 72.576 L750.078 72.576 L750.078 12.096 Z" fill="#000000" fill-rule="nonzero" fill-opacity="1" /><path clip-path="url(#clip030)" d="M816.594 49.7694 Q807.561 49.7694 804.077 51.8354 Q800.593 53.9013 800.593 58.8839 Q800.593 62.8538 803.186 65.2034 Q805.819 67.5124 810.315 67.5124 Q816.513 67.5124 820.24 63.1374 Q824.007 58.7219 824.007 51.4303 L824.007 49.7694 L816.594 49.7694 M831.461 46.6907 L831.461 72.576 L824.007 72.576 L824.007 65.6895 Q821.455 69.8214 817.648 71.8063 Q813.84 73.7508 808.33 73.7508 Q801.363 73.7508 797.231 69.8619 Q793.14 65.9325 793.14 59.3701 Q793.14 51.7138 798.244 47.825 Q803.388 43.9361 813.556 43.9361 L824.007 43.9361 L824.007 43.2069 Q824.007 38.0623 820.605 35.2672 Q817.242 32.4315 811.126 32.4315 Q807.237 32.4315 803.55 33.3632 Q799.864 34.295 796.461 36.1584 L796.461 29.2718 Q800.553 27.692 804.401 26.9223 Q808.249 26.1121 811.895 26.1121 Q821.739 26.1121 826.6 31.2163 Q831.461 36.3204 831.461 46.6907 Z" fill="#000000" fill-rule="nonzero" fill-opacity="1" /><path clip-path="url(#clip030)" d="M875.737 28.5427 L875.737 35.5912 Q872.578 33.9709 869.175 33.1607 Q865.772 32.3505 862.126 32.3505 Q856.577 32.3505 853.782 34.0519 Q851.027 35.7533 851.027 39.156 Q851.027 41.7486 853.012 43.2475 Q854.997 44.7058 860.992 46.0426 L863.544 46.6097 Q871.484 48.3111 874.806 51.4303 Q878.168 54.509 878.168 60.0587 Q878.168 66.3781 873.145 70.0644 Q868.162 73.7508 859.412 73.7508 Q855.767 73.7508 851.797 73.0216 Q847.867 72.3329 843.492 70.9151 L843.492 63.2184 Q847.624 65.3654 851.635 66.4591 Q855.645 67.5124 859.574 67.5124 Q864.841 67.5124 867.676 65.73 Q870.512 63.9071 870.512 60.6258 Q870.512 57.5877 868.446 55.9673 Q866.42 54.3469 859.493 52.8481 L856.901 52.2405 Q849.974 50.7821 846.895 47.7845 Q843.816 44.7463 843.816 39.4801 Q843.816 33.0797 848.353 29.5959 Q852.89 26.1121 861.235 26.1121 Q865.367 26.1121 869.013 26.7198 Q872.659 27.3274 875.737 28.5427 Z" fill="#000000" fill-rule="nonzero" fill-opacity="1" /><path clip-path="url(#clip030)" d="M897.41 14.324 L897.41 27.2059 L912.763 27.2059 L912.763 32.9987 L897.41 32.9987 L897.41 57.6282 Q897.41 63.1779 898.909 64.7578 Q900.448 66.3376 905.107 66.3376 L912.763 66.3376 L912.763 72.576 L905.107 72.576 Q896.478 72.576 893.197 69.3758 Q889.916 66.1351 889.916 57.6282 L889.916 32.9987 L884.447 32.9987 L884.447 27.2059 L889.916 27.2059 L889.916 14.324 L897.41 14.324 Z" fill="#000000" fill-rule="nonzero" fill-opacity="1" /><path clip-path="url(#clip030)" d="M964.857 72.576 L941.767 12.096 L950.315 12.096 L969.475 63.0159 L988.677 12.096 L997.184 12.096 L974.134 72.576 L964.857 72.576 Z" fill="#000000" fill-rule="nonzero" fill-opacity="1" /><path clip-path="url(#clip030)" d="M1019.87 49.7694 Q1010.84 49.7694 1007.35 51.8354 Q1003.87 53.9013 1003.87 58.8839 Q1003.87 62.8538 1006.46 65.2034 Q1009.09 67.5124 1013.59 67.5124 Q1019.79 67.5124 1023.51 63.1374 Q1027.28 58.7219 1027.28 51.4303 L1027.28 49.7694 L1019.87 49.7694 M1034.74 46.6907 L1034.74 72.576 L1027.28 72.576 L1027.28 65.6895 Q1024.73 69.8214 1020.92 71.8063 Q1017.11 73.7508 1011.6 73.7508 Q1004.64 73.7508 1000.51 69.8619 Q996.414 65.9325 996.414 59.3701 Q996.414 51.7138 1001.52 47.825 Q1006.66 43.9361 1016.83 43.9361 L1027.28 43.9361 L1027.28 43.2069 Q1027.28 38.0623 1023.88 35.2672 Q1020.52 32.4315 1014.4 32.4315 Q1010.51 32.4315 1006.82 33.3632 Q1003.14 34.295 999.736 36.1584 L999.736 29.2718 Q1003.83 27.692 1007.68 26.9223 Q1011.52 26.1121 1015.17 26.1121 Q1025.01 26.1121 1029.87 31.2163 Q1034.74 36.3204 1034.74 46.6907 Z" fill="#000000" fill-rule="nonzero" fill-opacity="1" /><path clip-path="url(#clip030)" d="M1050.09 9.54393 L1057.54 9.54393 L1057.54 72.576 L1050.09 72.576 L1050.09 9.54393 Z" fill="#000000" fill-rule="nonzero" fill-opacity="1" /><path clip-path="url(#clip030)" d="M1072.37 54.671 L1072.37 27.2059 L1079.82 27.2059 L1079.82 54.3874 Q1079.82 60.8284 1082.33 64.0691 Q1084.85 67.2693 1089.87 67.2693 Q1095.9 67.2693 1099.39 63.421 Q1102.91 59.5726 1102.91 52.9291 L1102.91 27.2059 L1110.37 27.2059 L1110.37 72.576 L1102.91 72.576 L1102.91 65.6084 Q1100.2 69.7404 1096.59 71.7658 Q1093.03 73.7508 1088.29 73.7508 Q1080.47 73.7508 1076.42 68.8897 Q1072.37 64.0286 1072.37 54.671 M1091.12 26.1121 L1091.12 26.1121 Z" fill="#000000" fill-rule="nonzero" fill-opacity="1" /><path clip-path="url(#clip030)" d="M1164.53 48.0275 L1164.53 51.6733 L1130.26 51.6733 Q1130.74 59.3701 1134.87 63.421 Q1139.05 67.4314 1146.46 67.4314 Q1150.75 67.4314 1154.76 66.3781 Q1158.81 65.3249 1162.78 63.2184 L1162.78 70.267 Q1158.77 71.9684 1154.56 72.8596 Q1150.35 73.7508 1146.01 73.7508 Q1135.16 73.7508 1128.8 67.4314 Q1122.48 61.1119 1122.48 50.3365 Q1122.48 39.1965 1128.47 32.6746 Q1134.51 26.1121 1144.72 26.1121 Q1153.87 26.1121 1159.18 32.0264 Q1164.53 37.9003 1164.53 48.0275 M1157.07 45.84 Q1156.99 39.7232 1153.63 36.0774 Q1150.31 32.4315 1144.8 32.4315 Q1138.56 32.4315 1134.79 35.9558 Q1131.07 39.4801 1130.5 45.8805 L1157.07 45.84 Z" fill="#000000" fill-rule="nonzero" fill-opacity="1" /><path clip-path="url(#clip030)" d="M1178.66 62.2867 L1187.21 62.2867 L1187.21 72.576 L1178.66 72.576 L1178.66 62.2867 M1178.66 29.6769 L1187.21 29.6769 L1187.21 39.9662 L1178.66 39.9662 L1178.66 29.6769 Z" fill="#000000" fill-rule="nonzero" fill-opacity="1" /><path clip-path="url(#clip030)" d="M1231.41 12.096 L1243.6 12.096 L1259.03 53.2532 L1274.55 12.096 L1286.74 12.096 L1286.74 72.576 L1278.76 72.576 L1278.76 19.4686 L1263.17 60.9499 L1254.94 60.9499 L1239.35 19.4686 L1239.35 72.576 L1231.41 72.576 L1231.41 12.096 Z" fill="#000000" fill-rule="nonzero" fill-opacity="1" /><path clip-path="url(#clip030)" d="M1331.67 44.2197 Q1334.3 45.1109 1336.77 48.0275 Q1339.28 50.9442 1341.79 56.0483 L1350.1 72.576 L1341.31 72.576 L1333.57 57.061 Q1330.57 50.9847 1327.74 48.9997 Q1324.94 47.0148 1320.08 47.0148 L1311.17 47.0148 L1311.17 72.576 L1302.99 72.576 L1302.99 12.096 L1321.46 12.096 Q1331.83 12.096 1336.93 16.4305 Q1342.04 20.7649 1342.04 29.5149 Q1342.04 35.2267 1339.36 38.994 Q1336.73 42.7613 1331.67 44.2197 M1311.17 18.8205 L1311.17 40.2903 L1321.46 40.2903 Q1327.37 40.2903 1330.37 37.5762 Q1333.41 34.8216 1333.41 29.5149 Q1333.41 24.2082 1330.37 21.5346 Q1327.37 18.8205 1321.46 18.8205 L1311.17 18.8205 Z" fill="#000000" fill-rule="nonzero" fill-opacity="1" /><path clip-path="url(#clip030)" d="M1377.48 20.1573 L1366.38 50.2555 L1388.62 50.2555 L1377.48 20.1573 M1372.86 12.096 L1382.14 12.096 L1405.19 72.576 L1396.68 72.576 L1391.17 57.061 L1363.91 57.061 L1358.4 72.576 L1349.77 72.576 L1372.86 12.096 Z" fill="#000000" fill-rule="nonzero" fill-opacity="1" /><path clip-path="url(#clip030)" d="M1414.02 12.096 L1452.26 12.096 L1452.26 18.9825 L1422.2 18.9825 L1422.2 36.8875 L1451.01 36.8875 L1451.01 43.7741 L1422.2 43.7741 L1422.2 65.6895 L1452.99 65.6895 L1452.99 72.576 L1414.02 72.576 L1414.02 12.096 Z" fill="#000000" fill-rule="nonzero" fill-opacity="1" /><path clip-path="url(#clip030)" d="M1489.08 9.54393 L1489.08 15.7418 L1481.96 15.7418 Q1477.94 15.7418 1476.37 17.3622 Q1474.83 18.9825 1474.83 23.1955 L1474.83 27.2059 L1487.1 27.2059 L1487.1 32.9987 L1474.83 32.9987 L1474.83 72.576 L1467.33 72.576 L1467.33 32.9987 L1460.2 32.9987 L1460.2 27.2059 L1467.33 27.2059 L1467.33 24.0462 Q1467.33 16.471 1470.86 13.0277 Q1474.38 9.54393 1482.04 9.54393 L1489.08 9.54393 Z" fill="#000000" fill-rule="nonzero" fill-opacity="1" /><path clip-path="url(#clip030)" d="M1516.35 27.2059 L1524.25 27.2059 L1538.42 65.2844 L1552.6 27.2059 L1560.5 27.2059 L1543.49 72.576 L1533.36 72.576 L1516.35 27.2059 Z" fill="#000000" fill-rule="nonzero" fill-opacity="1" /><path clip-path="url(#clip030)" d="M1599.72 28.5427 L1599.72 35.5912 Q1596.56 33.9709 1593.15 33.1607 Q1589.75 32.3505 1586.1 32.3505 Q1580.55 32.3505 1577.76 34.0519 Q1575 35.7533 1575 39.156 Q1575 41.7486 1576.99 43.2475 Q1578.97 44.7058 1584.97 46.0426 L1587.52 46.6097 Q1595.46 48.3111 1598.78 51.4303 Q1602.15 54.509 1602.15 60.0587 Q1602.15 66.3781 1597.12 70.0644 Q1592.14 73.7508 1583.39 73.7508 Q1579.74 73.7508 1575.77 73.0216 Q1571.84 72.3329 1567.47 70.9151 L1567.47 63.2184 Q1571.6 65.3654 1575.61 66.4591 Q1579.62 67.5124 1583.55 67.5124 Q1588.82 67.5124 1591.65 65.73 Q1594.49 63.9071 1594.49 60.6258 Q1594.49 57.5877 1592.42 55.9673 Q1590.4 54.3469 1583.47 52.8481 L1580.88 52.2405 Q1573.95 50.7821 1570.87 47.7845 Q1567.79 44.7463 1567.79 39.4801 Q1567.79 33.0797 1572.33 29.5959 Q1576.87 26.1121 1585.21 26.1121 Q1589.34 26.1121 1592.99 26.7198 Q1596.64 27.3274 1599.72 28.5427 Z" fill="#000000" fill-rule="nonzero" fill-opacity="1" /><path clip-path="url(#clip030)" d="M1640.71 12.096 L1648.89 12.096 L1648.89 36.8875 L1678.63 36.8875 L1678.63 12.096 L1686.81 12.096 L1686.81 72.576 L1678.63 72.576 L1678.63 43.7741 L1648.89 43.7741 L1648.89 72.576 L1640.71 72.576 L1640.71 12.096 Z" fill="#000000" fill-rule="nonzero" fill-opacity="1" /><path clip-path="url(#clip030)" d="M1720.35 32.4315 Q1714.36 32.4315 1710.87 37.1306 Q1707.39 41.7891 1707.39 49.9314 Q1707.39 58.0738 1710.83 62.7728 Q1714.32 67.4314 1720.35 67.4314 Q1726.31 67.4314 1729.79 62.7323 Q1733.27 58.0333 1733.27 49.9314 Q1733.27 41.8701 1729.79 37.1711 Q1726.31 32.4315 1720.35 32.4315 M1720.35 26.1121 Q1730.07 26.1121 1735.62 32.4315 Q1741.17 38.7509 1741.17 49.9314 Q1741.17 61.0714 1735.62 67.4314 Q1730.07 73.7508 1720.35 73.7508 Q1710.59 73.7508 1705.04 67.4314 Q1699.53 61.0714 1699.53 49.9314 Q1699.53 38.7509 1705.04 32.4315 Q1710.59 26.1121 1720.35 26.1121 Z" fill="#000000" fill-rule="nonzero" fill-opacity="1" /><path clip-path="url(#clip030)" d="M1779.82 34.1734 Q1778.56 33.4443 1777.06 33.1202 Q1775.61 32.7556 1773.82 32.7556 Q1767.5 32.7556 1764.1 36.8875 Q1760.74 40.9789 1760.74 48.6757 L1760.74 72.576 L1753.24 72.576 L1753.24 27.2059 L1760.74 27.2059 L1760.74 34.2544 Q1763.09 30.1225 1766.86 28.1376 Q1770.62 26.1121 1776.01 26.1121 Q1776.78 26.1121 1777.71 26.2337 Q1778.64 26.3147 1779.78 26.5172 L1779.82 34.1734 Z" fill="#000000" fill-rule="nonzero" fill-opacity="1" /><path clip-path="url(#clip030)" d="M1787.64 27.2059 L1795.09 27.2059 L1795.09 72.576 L1787.64 72.576 L1787.64 27.2059 M1787.64 9.54393 L1795.09 9.54393 L1795.09 18.9825 L1787.64 18.9825 L1787.64 9.54393 Z" fill="#000000" fill-rule="nonzero" fill-opacity="1" /><path clip-path="url(#clip030)" d="M1807.45 27.2059 L1842.85 27.2059 L1842.85 34.0114 L1814.82 66.6212 L1842.85 66.6212 L1842.85 72.576 L1806.43 72.576 L1806.43 65.7705 L1834.46 33.1607 L1807.45 33.1607 L1807.45 27.2059 Z" fill="#000000" fill-rule="nonzero" fill-opacity="1" /><path clip-path="url(#clip030)" d="M1871.81 32.4315 Q1865.82 32.4315 1862.34 37.1306 Q1858.85 41.7891 1858.85 49.9314 Q1858.85 58.0738 1862.29 62.7728 Q1865.78 67.4314 1871.81 67.4314 Q1877.77 67.4314 1881.25 62.7323 Q1884.74 58.0333 1884.74 49.9314 Q1884.74 41.8701 1881.25 37.1711 Q1877.77 32.4315 1871.81 32.4315 M1871.81 26.1121 Q1881.54 26.1121 1887.09 32.4315 Q1892.64 38.7509 1892.64 49.9314 Q1892.64 61.0714 1887.09 67.4314 Q1881.54 73.7508 1871.81 73.7508 Q1862.05 73.7508 1856.5 67.4314 Q1850.99 61.0714 1850.99 49.9314 Q1850.99 38.7509 1856.5 32.4315 Q1862.05 26.1121 1871.81 26.1121 Z" fill="#000000" fill-rule="nonzero" fill-opacity="1" /><path clip-path="url(#clip030)" d="M1942.71 45.1919 L1942.71 72.576 L1935.25 72.576 L1935.25 45.4349 Q1935.25 38.994 1932.74 35.7938 Q1930.23 32.5936 1925.21 32.5936 Q1919.17 32.5936 1915.69 36.4419 Q1912.2 40.2903 1912.2 46.9338 L1912.2 72.576 L1904.71 72.576 L1904.71 27.2059 L1912.2 27.2059 L1912.2 34.2544 Q1914.88 30.163 1918.48 28.1376 Q1922.13 26.1121 1926.87 26.1121 Q1934.68 26.1121 1938.69 30.9732 Q1942.71 35.7938 1942.71 45.1919 Z" fill="#000000" fill-rule="nonzero" fill-opacity="1" /><circle clip-path="url(#clip032)" cx="396.992" cy="160.256" r="14.4" fill="#009af9" fill-rule="evenodd" fill-opacity="1" stroke="#000000" stroke-opacity="1" stroke-width="3.2"/>
<circle clip-path="url(#clip032)" cx="569.61" cy="1054.23" r="14.4" fill="#009af9" fill-rule="evenodd" fill-opacity="1" stroke="#000000" stroke-opacity="1" stroke-width="3.2"/>
<circle clip-path="url(#clip032)" cx="742.228" cy="1218.51" r="14.4" fill="#009af9" fill-rule="evenodd" fill-opacity="1" stroke="#000000" stroke-opacity="1" stroke-width="3.2"/>
<circle clip-path="url(#clip032)" cx="914.846" cy="1286.23" r="14.4" fill="#009af9" fill-rule="evenodd" fill-opacity="1" stroke="#000000" stroke-opacity="1" stroke-width="3.2"/>
<circle clip-path="url(#clip032)" cx="1087.46" cy="1301.13" r="14.4" fill="#009af9" fill-rule="evenodd" fill-opacity="1" stroke="#000000" stroke-opacity="1" stroke-width="3.2"/>
<circle clip-path="url(#clip032)" cx="1260.08" cy="1327.04" r="14.4" fill="#009af9" fill-rule="evenodd" fill-opacity="1" stroke="#000000" stroke-opacity="1" stroke-width="3.2"/>
<circle clip-path="url(#clip032)" cx="1432.7" cy="1340.53" r="14.4" fill="#009af9" fill-rule="evenodd" fill-opacity="1" stroke="#000000" stroke-opacity="1" stroke-width="3.2"/>
<circle clip-path="url(#clip032)" cx="1605.32" cy="1345.73" r="14.4" fill="#009af9" fill-rule="evenodd" fill-opacity="1" stroke="#000000" stroke-opacity="1" stroke-width="3.2"/>
<circle clip-path="url(#clip032)" cx="1777.94" cy="1356.16" r="14.4" fill="#009af9" fill-rule="evenodd" fill-opacity="1" stroke="#000000" stroke-opacity="1" stroke-width="3.2"/>
<circle clip-path="url(#clip032)" cx="1950.56" cy="1361.64" r="14.4" fill="#009af9" fill-rule="evenodd" fill-opacity="1" stroke="#000000" stroke-opacity="1" stroke-width="3.2"/>
<circle clip-path="url(#clip032)" cx="2123.17" cy="1360.49" r="14.4" fill="#009af9" fill-rule="evenodd" fill-opacity="1" stroke="#000000" stroke-opacity="1" stroke-width="3.2"/>
<circle clip-path="url(#clip032)" cx="2295.79" cy="1386.4" r="14.4" fill="#009af9" fill-rule="evenodd" fill-opacity="1" stroke="#000000" stroke-opacity="1" stroke-width="3.2"/>
<circle clip-path="url(#clip032)" cx="396.992" cy="443.587" r="14.4" fill="#e26f46" fill-rule="evenodd" fill-opacity="1" stroke="#000000" stroke-opacity="1" stroke-width="3.2"/>
<circle clip-path="url(#clip032)" cx="569.61" cy="1028.34" r="14.4" fill="#e26f46" fill-rule="evenodd" fill-opacity="1" stroke="#000000" stroke-opacity="1" stroke-width="3.2"/>
<circle clip-path="url(#clip032)" cx="742.228" cy="1164.46" r="14.4" fill="#e26f46" fill-rule="evenodd" fill-opacity="1" stroke="#000000" stroke-opacity="1" stroke-width="3.2"/>
<circle clip-path="url(#clip032)" cx="914.846" cy="1191.49" r="14.4" fill="#e26f46" fill-rule="evenodd" fill-opacity="1" stroke="#000000" stroke-opacity="1" stroke-width="3.2"/>
<circle clip-path="url(#clip032)" cx="1087.46" cy="1201.16" r="14.4" fill="#e26f46" fill-rule="evenodd" fill-opacity="1" stroke="#000000" stroke-opacity="1" stroke-width="3.2"/>
<circle clip-path="url(#clip032)" cx="1260.08" cy="1229.67" r="14.4" fill="#e26f46" fill-rule="evenodd" fill-opacity="1" stroke="#000000" stroke-opacity="1" stroke-width="3.2"/>
<circle clip-path="url(#clip032)" cx="1432.7" cy="1231.84" r="14.4" fill="#e26f46" fill-rule="evenodd" fill-opacity="1" stroke="#000000" stroke-opacity="1" stroke-width="3.2"/>
<circle clip-path="url(#clip032)" cx="1605.32" cy="1231.87" r="14.4" fill="#e26f46" fill-rule="evenodd" fill-opacity="1" stroke="#000000" stroke-opacity="1" stroke-width="3.2"/>
<circle clip-path="url(#clip032)" cx="1777.94" cy="1249.87" r="14.4" fill="#e26f46" fill-rule="evenodd" fill-opacity="1" stroke="#000000" stroke-opacity="1" stroke-width="3.2"/>
<circle clip-path="url(#clip032)" cx="1950.56" cy="1270.48" r="14.4" fill="#e26f46" fill-rule="evenodd" fill-opacity="1" stroke="#000000" stroke-opacity="1" stroke-width="3.2"/>
<circle clip-path="url(#clip032)" cx="2123.17" cy="1286.47" r="14.4" fill="#e26f46" fill-rule="evenodd" fill-opacity="1" stroke="#000000" stroke-opacity="1" stroke-width="3.2"/>
<circle clip-path="url(#clip032)" cx="2295.79" cy="1326.45" r="14.4" fill="#e26f46" fill-rule="evenodd" fill-opacity="1" stroke="#000000" stroke-opacity="1" stroke-width="3.2"/>
<path clip-path="url(#clip030)" d="M1856.43 322.316 L2285.66 322.316 L2285.66 166.796 L1856.43 166.796  Z" fill="#ffffff" fill-rule="evenodd" fill-opacity="1"/>
<polyline clip-path="url(#clip030)" style="stroke:#000000; stroke-linecap:round; stroke-linejoin:round; stroke-width:4; stroke-opacity:1; fill:none" points="1856.43,322.316 2285.66,322.316 2285.66,166.796 1856.43,166.796 1856.43,322.316 "/>
<circle clip-path="url(#clip030)" cx="1945.88" cy="218.636" r="20.48" fill="#009af9" fill-rule="evenodd" fill-opacity="1" stroke="#000000" stroke-opacity="1" stroke-width="4.55111"/>
<path clip-path="url(#clip030)" d="M2042.75 202.629 L2042.75 209.99 L2051.52 209.99 L2051.52 213.3 L2042.75 213.3 L2042.75 227.374 Q2042.75 230.545 2043.6 231.448 Q2044.48 232.351 2047.15 232.351 L2051.52 232.351 L2051.52 235.916 L2047.15 235.916 Q2042.21 235.916 2040.34 234.087 Q2038.46 232.235 2038.46 227.374 L2038.46 213.3 L2035.34 213.3 L2035.34 209.99 L2038.46 209.99 L2038.46 202.629 L2042.75 202.629 Z" fill="#000000" fill-rule="nonzero" fill-opacity="1" /><path clip-path="url(#clip030)" d="M2072.14 213.971 Q2071.43 213.555 2070.57 213.37 Q2069.74 213.161 2068.72 213.161 Q2065.11 213.161 2063.16 215.522 Q2061.24 217.86 2061.24 222.258 L2061.24 235.916 L2056.96 235.916 L2056.96 209.99 L2061.24 209.99 L2061.24 214.018 Q2062.58 211.657 2064.74 210.522 Q2066.89 209.365 2069.97 209.365 Q2070.41 209.365 2070.94 209.434 Q2071.47 209.481 2072.12 209.596 L2072.14 213.971 Z" fill="#000000" fill-rule="nonzero" fill-opacity="1" /><path clip-path="url(#clip030)" d="M2088.39 222.883 Q2083.23 222.883 2081.24 224.064 Q2079.25 225.244 2079.25 228.092 Q2079.25 230.36 2080.73 231.703 Q2082.24 233.022 2084.81 233.022 Q2088.35 233.022 2090.48 230.522 Q2092.63 227.999 2092.63 223.832 L2092.63 222.883 L2088.39 222.883 M2096.89 221.124 L2096.89 235.916 L2092.63 235.916 L2092.63 231.981 Q2091.17 234.342 2089 235.476 Q2086.82 236.587 2083.67 236.587 Q2079.69 236.587 2077.33 234.365 Q2074.99 232.119 2074.99 228.369 Q2074.99 223.994 2077.91 221.772 Q2080.85 219.55 2086.66 219.55 L2092.63 219.55 L2092.63 219.133 Q2092.63 216.194 2090.69 214.596 Q2088.77 212.976 2085.27 212.976 Q2083.05 212.976 2080.94 213.508 Q2078.83 214.041 2076.89 215.106 L2076.89 211.17 Q2079.23 210.268 2081.43 209.828 Q2083.63 209.365 2085.71 209.365 Q2091.33 209.365 2094.11 212.282 Q2096.89 215.198 2096.89 221.124 Z" fill="#000000" fill-rule="nonzero" fill-opacity="1" /><path clip-path="url(#clip030)" d="M2105.66 209.99 L2109.92 209.99 L2109.92 235.916 L2105.66 235.916 L2105.66 209.99 M2105.66 199.897 L2109.92 199.897 L2109.92 205.291 L2105.66 205.291 L2105.66 199.897 Z" fill="#000000" fill-rule="nonzero" fill-opacity="1" /><path clip-path="url(#clip030)" d="M2140.39 220.268 L2140.39 235.916 L2136.13 235.916 L2136.13 220.407 Q2136.13 216.726 2134.69 214.897 Q2133.26 213.069 2130.39 213.069 Q2126.94 213.069 2124.95 215.268 Q2122.95 217.467 2122.95 221.263 L2122.95 235.916 L2118.67 235.916 L2118.67 209.99 L2122.95 209.99 L2122.95 214.018 Q2124.48 211.68 2126.54 210.522 Q2128.63 209.365 2131.33 209.365 Q2135.8 209.365 2138.09 212.143 Q2140.39 214.897 2140.39 220.268 Z" fill="#000000" fill-rule="nonzero" fill-opacity="1" /><path clip-path="url(#clip030)" d="M2148.88 209.99 L2153.14 209.99 L2153.14 235.916 L2148.88 235.916 L2148.88 209.99 M2148.88 199.897 L2153.14 199.897 L2153.14 205.291 L2148.88 205.291 L2148.88 199.897 Z" fill="#000000" fill-rule="nonzero" fill-opacity="1" /><path clip-path="url(#clip030)" d="M2183.6 220.268 L2183.6 235.916 L2179.34 235.916 L2179.34 220.407 Q2179.34 216.726 2177.91 214.897 Q2176.47 213.069 2173.6 213.069 Q2170.15 213.069 2168.16 215.268 Q2166.17 217.467 2166.17 221.263 L2166.17 235.916 L2161.89 235.916 L2161.89 209.99 L2166.17 209.99 L2166.17 214.018 Q2167.7 211.68 2169.76 210.522 Q2171.84 209.365 2174.55 209.365 Q2179.02 209.365 2181.31 212.143 Q2183.6 214.897 2183.6 220.268 Z" fill="#000000" fill-rule="nonzero" fill-opacity="1" /><path clip-path="url(#clip030)" d="M2209.16 222.652 Q2209.16 218.022 2207.24 215.476 Q2205.34 212.93 2201.89 212.93 Q2198.46 212.93 2196.54 215.476 Q2194.64 218.022 2194.64 222.652 Q2194.64 227.258 2196.54 229.805 Q2198.46 232.351 2201.89 232.351 Q2205.34 232.351 2207.24 229.805 Q2209.16 227.258 2209.16 222.652 M2213.42 232.698 Q2213.42 239.318 2210.48 242.536 Q2207.54 245.777 2201.47 245.777 Q2199.23 245.777 2197.24 245.43 Q2195.25 245.105 2193.37 244.411 L2193.37 240.268 Q2195.25 241.286 2197.07 241.772 Q2198.9 242.258 2200.8 242.258 Q2204.99 242.258 2207.07 240.059 Q2209.16 237.883 2209.16 233.462 L2209.16 231.356 Q2207.84 233.647 2205.78 234.781 Q2203.72 235.916 2200.85 235.916 Q2196.08 235.916 2193.16 232.281 Q2190.25 228.647 2190.25 222.652 Q2190.25 216.633 2193.16 212.999 Q2196.08 209.365 2200.85 209.365 Q2203.72 209.365 2205.78 210.499 Q2207.84 211.633 2209.16 213.925 L2209.16 209.99 L2213.42 209.99 L2213.42 232.698 Z" fill="#000000" fill-rule="nonzero" fill-opacity="1" /><circle clip-path="url(#clip030)" cx="1945.88" cy="270.476" r="20.48" fill="#e26f46" fill-rule="evenodd" fill-opacity="1" stroke="#000000" stroke-opacity="1" stroke-width="4.55111"/>
<path clip-path="url(#clip030)" d="M2035.34 261.83 L2039.85 261.83 L2047.96 283.589 L2056.06 261.83 L2060.57 261.83 L2050.85 287.756 L2045.06 287.756 L2035.34 261.83 Z" fill="#000000" fill-rule="nonzero" fill-opacity="1" /><path clip-path="url(#clip030)" d="M2078.23 274.723 Q2073.07 274.723 2071.08 275.904 Q2069.09 277.084 2069.09 279.932 Q2069.09 282.2 2070.57 283.543 Q2072.08 284.862 2074.64 284.862 Q2078.19 284.862 2080.32 282.362 Q2082.47 279.839 2082.47 275.672 L2082.47 274.723 L2078.23 274.723 M2086.73 272.964 L2086.73 287.756 L2082.47 287.756 L2082.47 283.821 Q2081.01 286.182 2078.83 287.316 Q2076.66 288.427 2073.51 288.427 Q2069.53 288.427 2067.17 286.205 Q2064.83 283.959 2064.83 280.209 Q2064.83 275.834 2067.75 273.612 Q2070.69 271.39 2076.5 271.39 L2082.47 271.39 L2082.47 270.973 Q2082.47 268.034 2080.52 266.436 Q2078.6 264.816 2075.11 264.816 Q2072.89 264.816 2070.78 265.348 Q2068.67 265.881 2066.73 266.946 L2066.73 263.01 Q2069.07 262.108 2071.27 261.668 Q2073.46 261.205 2075.55 261.205 Q2081.17 261.205 2083.95 264.122 Q2086.73 267.038 2086.73 272.964 Z" fill="#000000" fill-rule="nonzero" fill-opacity="1" /><path clip-path="url(#clip030)" d="M2095.5 251.737 L2099.76 251.737 L2099.76 287.756 L2095.5 287.756 L2095.5 251.737 Z" fill="#000000" fill-rule="nonzero" fill-opacity="1" /><path clip-path="url(#clip030)" d="M2108.67 261.83 L2112.93 261.83 L2112.93 287.756 L2108.67 287.756 L2108.67 261.83 M2108.67 251.737 L2112.93 251.737 L2112.93 257.131 L2108.67 257.131 L2108.67 251.737 Z" fill="#000000" fill-rule="nonzero" fill-opacity="1" /><path clip-path="url(#clip030)" d="M2138.9 265.765 L2138.9 251.737 L2143.16 251.737 L2143.16 287.756 L2138.9 287.756 L2138.9 283.867 Q2137.56 286.182 2135.5 287.316 Q2133.46 288.427 2130.59 288.427 Q2125.89 288.427 2122.93 284.677 Q2119.99 280.927 2119.99 274.816 Q2119.99 268.705 2122.93 264.955 Q2125.89 261.205 2130.59 261.205 Q2133.46 261.205 2135.5 262.339 Q2137.56 263.45 2138.9 265.765 M2124.39 274.816 Q2124.39 279.515 2126.31 282.2 Q2128.26 284.862 2131.64 284.862 Q2135.01 284.862 2136.96 282.2 Q2138.9 279.515 2138.9 274.816 Q2138.9 270.117 2136.96 267.455 Q2135.01 264.77 2131.64 264.77 Q2128.26 264.77 2126.31 267.455 Q2124.39 270.117 2124.39 274.816 Z" fill="#000000" fill-rule="nonzero" fill-opacity="1" /><path clip-path="url(#clip030)" d="M2163.72 274.723 Q2158.56 274.723 2156.57 275.904 Q2154.58 277.084 2154.58 279.932 Q2154.58 282.2 2156.06 283.543 Q2157.56 284.862 2160.13 284.862 Q2163.67 284.862 2165.8 282.362 Q2167.95 279.839 2167.95 275.672 L2167.95 274.723 L2163.72 274.723 M2172.21 272.964 L2172.21 287.756 L2167.95 287.756 L2167.95 283.821 Q2166.5 286.182 2164.32 287.316 Q2162.14 288.427 2159 288.427 Q2155.01 288.427 2152.65 286.205 Q2150.32 283.959 2150.32 280.209 Q2150.32 275.834 2153.23 273.612 Q2156.17 271.39 2161.98 271.39 L2167.95 271.39 L2167.95 270.973 Q2167.95 268.034 2166.01 266.436 Q2164.09 264.816 2160.59 264.816 Q2158.37 264.816 2156.26 265.348 Q2154.16 265.881 2152.21 266.946 L2152.21 263.01 Q2154.55 262.108 2156.75 261.668 Q2158.95 261.205 2161.03 261.205 Q2166.66 261.205 2169.44 264.122 Q2172.21 267.038 2172.21 272.964 Z" fill="#000000" fill-rule="nonzero" fill-opacity="1" /><path clip-path="url(#clip030)" d="M2185.2 254.469 L2185.2 261.83 L2193.97 261.83 L2193.97 265.14 L2185.2 265.14 L2185.2 279.214 Q2185.2 282.385 2186.06 283.288 Q2186.94 284.191 2189.6 284.191 L2193.97 284.191 L2193.97 287.756 L2189.6 287.756 Q2184.67 287.756 2182.79 285.927 Q2180.92 284.075 2180.92 279.214 L2180.92 265.14 L2177.79 265.14 L2177.79 261.83 L2180.92 261.83 L2180.92 254.469 L2185.2 254.469 Z" fill="#000000" fill-rule="nonzero" fill-opacity="1" /><path clip-path="url(#clip030)" d="M2199.57 261.83 L2203.83 261.83 L2203.83 287.756 L2199.57 287.756 L2199.57 261.83 M2199.57 251.737 L2203.83 251.737 L2203.83 257.131 L2199.57 257.131 L2199.57 251.737 Z" fill="#000000" fill-rule="nonzero" fill-opacity="1" /><path clip-path="url(#clip030)" d="M2222.79 264.816 Q2219.37 264.816 2217.38 267.501 Q2215.38 270.163 2215.38 274.816 Q2215.38 279.469 2217.35 282.154 Q2219.34 284.816 2222.79 284.816 Q2226.2 284.816 2228.19 282.131 Q2230.18 279.446 2230.18 274.816 Q2230.18 270.21 2228.19 267.524 Q2226.2 264.816 2222.79 264.816 M2222.79 261.205 Q2228.35 261.205 2231.52 264.816 Q2234.69 268.427 2234.69 274.816 Q2234.69 281.182 2231.52 284.816 Q2228.35 288.427 2222.79 288.427 Q2217.21 288.427 2214.04 284.816 Q2210.89 281.182 2210.89 274.816 Q2210.89 268.427 2214.04 264.816 Q2217.21 261.205 2222.79 261.205 Z" fill="#000000" fill-rule="nonzero" fill-opacity="1" /><path clip-path="url(#clip030)" d="M2263.3 272.108 L2263.3 287.756 L2259.04 287.756 L2259.04 272.247 Q2259.04 268.566 2257.61 266.737 Q2256.17 264.909 2253.3 264.909 Q2249.85 264.909 2247.86 267.108 Q2245.87 269.307 2245.87 273.103 L2245.87 287.756 L2241.59 287.756 L2241.59 261.83 L2245.87 261.83 L2245.87 265.858 Q2247.4 263.52 2249.46 262.362 Q2251.54 261.205 2254.25 261.205 Q2258.72 261.205 2261.01 263.983 Q2263.3 266.737 2263.3 272.108 Z" fill="#000000" fill-rule="nonzero" fill-opacity="1" /></svg>
