<?xml version="1.0" encoding="utf-8"?>
<svg xmlns="http://www.w3.org/2000/svg" xmlns:xlink="http://www.w3.org/1999/xlink" width="600" height="400" viewBox="0 0 2400 1600">
<defs>
  <clipPath id="clip870">
    <rect x="0" y="0" width="2400" height="1600"/>
  </clipPath>
</defs>
<path clip-path="url(#clip870)" d="M0 1600 L2400 1600 L2400 0 L0 0  Z" fill="#ffffff" fill-rule="evenodd" fill-opacity="1"/>
<defs>
  <clipPath id="clip871">
    <rect x="480" y="0" width="1681" height="1600"/>
  </clipPath>
</defs>
<path clip-path="url(#clip870)" d="M310.352 1423.18 L2352.76 1423.18 L2352.76 123.472 L310.352 123.472  Z" fill="#ffffff" fill-rule="evenodd" fill-opacity="1"/>
<defs>
  <clipPath id="clip872">
    <rect x="310" y="123" width="2043" height="1301"/>
  </clipPath>
</defs>
<polyline clip-path="url(#clip872)" style="stroke:#000000; stroke-linecap:round; stroke-linejoin:round; stroke-width:2; stroke-opacity:0.1; fill:none" points="574.598,1423.18 574.598,123.472 "/>
<polyline clip-path="url(#clip872)" style="stroke:#000000; stroke-linecap:round; stroke-linejoin:round; stroke-width:2; stroke-opacity:0.1; fill:none" points="918.669,1423.18 918.669,123.472 "/>
<polyline clip-path="url(#clip872)" style="stroke:#000000; stroke-linecap:round; stroke-linejoin:round; stroke-width:2; stroke-opacity:0.1; fill:none" points="1262.74,1423.18 1262.74,123.472 "/>
<polyline clip-path="url(#clip872)" style="stroke:#000000; stroke-linecap:round; stroke-linejoin:round; stroke-width:2; stroke-opacity:0.1; fill:none" points="1606.81,1423.18 1606.81,123.472 "/>
<polyline clip-path="url(#clip872)" style="stroke:#000000; stroke-linecap:round; stroke-linejoin:round; stroke-width:2; stroke-opacity:0.1; fill:none" points="1950.88,1423.18 1950.88,123.472 "/>
<polyline clip-path="url(#clip872)" style="stroke:#000000; stroke-linecap:round; stroke-linejoin:round; stroke-width:2; stroke-opacity:0.1; fill:none" points="2294.95,1423.18 2294.95,123.472 "/>
<polyline clip-path="url(#clip870)" style="stroke:#000000; stroke-linecap:round; stroke-linejoin:round; stroke-width:4; stroke-opacity:1; fill:none" points="310.352,1423.18 2352.76,1423.18 "/>
<polyline clip-path="url(#clip870)" style="stroke:#000000; stroke-linecap:round; stroke-linejoin:round; stroke-width:4; stroke-opacity:1; fill:none" points="574.598,1423.18 574.598,1404.28 "/>
<polyline clip-path="url(#clip870)" style="stroke:#000000; stroke-linecap:round; stroke-linejoin:round; stroke-width:4; stroke-opacity:1; fill:none" points="918.669,1423.18 918.669,1404.28 "/>
<polyline clip-path="url(#clip870)" style="stroke:#000000; stroke-linecap:round; stroke-linejoin:round; stroke-width:4; stroke-opacity:1; fill:none" points="1262.74,1423.18 1262.74,1404.28 "/>
<polyline clip-path="url(#clip870)" style="stroke:#000000; stroke-linecap:round; stroke-linejoin:round; stroke-width:4; stroke-opacity:1; fill:none" points="1606.81,1423.18 1606.81,1404.28 "/>
<polyline clip-path="url(#clip870)" style="stroke:#000000; stroke-linecap:round; stroke-linejoin:round; stroke-width:4; stroke-opacity:1; fill:none" points="1950.88,1423.18 1950.88,1404.28 "/>
<polyline clip-path="url(#clip870)" style="stroke:#000000; stroke-linecap:round; stroke-linejoin:round; stroke-width:4; stroke-opacity:1; fill:none" points="2294.95,1423.18 2294.95,1404.28 "/>
<path clip-path="url(#clip870)" d="M564.876 1451.02 L583.232 1451.02 L583.232 1454.96 L569.158 1454.96 L569.158 1463.43 Q570.177 1463.08 571.195 1462.92 Q572.214 1462.73 573.233 1462.73 Q579.02 1462.73 582.399 1465.9 Q585.779 1469.08 585.779 1474.49 Q585.779 1480.07 582.307 1483.17 Q578.834 1486.25 572.515 1486.25 Q570.339 1486.25 568.07 1485.88 Q565.825 1485.51 563.418 1484.77 L563.418 1480.07 Q565.501 1481.2 567.723 1481.76 Q569.945 1482.32 572.422 1482.32 Q576.427 1482.32 578.765 1480.21 Q581.103 1478.1 581.103 1474.49 Q581.103 1470.88 578.765 1468.77 Q576.427 1466.67 572.422 1466.67 Q570.547 1466.67 568.672 1467.08 Q566.82 1467.5 564.876 1468.38 L564.876 1451.02 Z" fill="#000000" fill-rule="nonzero" fill-opacity="1" /><path clip-path="url(#clip870)" d="M893.357 1481.64 L900.995 1481.64 L900.995 1455.28 L892.685 1456.95 L892.685 1452.69 L900.949 1451.02 L905.625 1451.02 L905.625 1481.64 L913.264 1481.64 L913.264 1485.58 L893.357 1485.58 L893.357 1481.64 Z" fill="#000000" fill-rule="nonzero" fill-opacity="1" /><path clip-path="url(#clip870)" d="M932.708 1454.1 Q929.097 1454.1 927.268 1457.66 Q925.463 1461.2 925.463 1468.33 Q925.463 1475.44 927.268 1479.01 Q929.097 1482.55 932.708 1482.55 Q936.343 1482.55 938.148 1479.01 Q939.977 1475.44 939.977 1468.33 Q939.977 1461.2 938.148 1457.66 Q936.343 1454.1 932.708 1454.1 M932.708 1450.39 Q938.518 1450.39 941.574 1455 Q944.653 1459.58 944.653 1468.33 Q944.653 1477.06 941.574 1481.67 Q938.518 1486.25 932.708 1486.25 Q926.898 1486.25 923.819 1481.67 Q920.764 1477.06 920.764 1468.33 Q920.764 1459.58 923.819 1455 Q926.898 1450.39 932.708 1450.39 Z" fill="#000000" fill-rule="nonzero" fill-opacity="1" /><path clip-path="url(#clip870)" d="M1237.93 1481.64 L1245.56 1481.64 L1245.56 1455.28 L1237.25 1456.95 L1237.25 1452.69 L1245.52 1451.02 L1250.19 1451.02 L1250.19 1481.64 L1257.83 1481.64 L1257.83 1485.58 L1237.93 1485.58 L1237.93 1481.64 Z" fill="#000000" fill-rule="nonzero" fill-opacity="1" /><path clip-path="url(#clip870)" d="M1267.32 1451.02 L1285.68 1451.02 L1285.68 1454.96 L1271.61 1454.96 L1271.61 1463.43 Q1272.62 1463.08 1273.64 1462.92 Q1274.66 1462.73 1275.68 1462.73 Q1281.47 1462.73 1284.85 1465.9 Q1288.23 1469.08 1288.23 1474.49 Q1288.23 1480.07 1284.75 1483.17 Q1281.28 1486.25 1274.96 1486.25 Q1272.79 1486.25 1270.52 1485.88 Q1268.27 1485.51 1265.86 1484.77 L1265.86 1480.07 Q1267.95 1481.2 1270.17 1481.76 Q1272.39 1482.32 1274.87 1482.32 Q1278.87 1482.32 1281.21 1480.21 Q1283.55 1478.1 1283.55 1474.49 Q1283.55 1470.88 1281.21 1468.77 Q1278.87 1466.67 1274.87 1466.67 Q1272.99 1466.67 1271.12 1467.08 Q1269.27 1467.5 1267.32 1468.38 L1267.32 1451.02 Z" fill="#000000" fill-rule="nonzero" fill-opacity="1" /><path clip-path="url(#clip870)" d="M1585.58 1481.64 L1601.9 1481.64 L1601.9 1485.58 L1579.96 1485.58 L1579.96 1481.64 Q1582.62 1478.89 1587.2 1474.26 Q1591.81 1469.61 1592.99 1468.27 Q1595.24 1465.74 1596.12 1464.01 Q1597.02 1462.25 1597.02 1460.56 Q1597.02 1457.8 1595.07 1456.07 Q1593.15 1454.33 1590.05 1454.33 Q1587.85 1454.33 1585.4 1455.09 Q1582.97 1455.86 1580.19 1457.41 L1580.19 1452.69 Q1583.01 1451.55 1585.47 1450.97 Q1587.92 1450.39 1589.96 1450.39 Q1595.33 1450.39 1598.52 1453.08 Q1601.72 1455.77 1601.72 1460.26 Q1601.72 1462.39 1600.91 1464.31 Q1600.12 1466.2 1598.01 1468.8 Q1597.44 1469.47 1594.33 1472.69 Q1591.23 1475.88 1585.58 1481.64 Z" fill="#000000" fill-rule="nonzero" fill-opacity="1" /><path clip-path="url(#clip870)" d="M1621.72 1454.1 Q1618.11 1454.1 1616.28 1457.66 Q1614.47 1461.2 1614.47 1468.33 Q1614.47 1475.44 1616.28 1479.01 Q1618.11 1482.55 1621.72 1482.55 Q1625.35 1482.55 1627.16 1479.01 Q1628.99 1475.44 1628.99 1468.33 Q1628.99 1461.2 1627.16 1457.66 Q1625.35 1454.1 1621.72 1454.1 M1621.72 1450.39 Q1627.53 1450.39 1630.58 1455 Q1633.66 1459.58 1633.66 1468.33 Q1633.66 1477.06 1630.58 1481.67 Q1627.53 1486.25 1621.72 1486.25 Q1615.91 1486.25 1612.83 1481.67 Q1609.77 1477.06 1609.77 1468.33 Q1609.77 1459.58 1612.83 1455 Q1615.91 1450.39 1621.72 1450.39 Z" fill="#000000" fill-rule="nonzero" fill-opacity="1" /><path clip-path="url(#clip870)" d="M1930.15 1481.64 L1946.47 1481.64 L1946.47 1485.58 L1924.53 1485.58 L1924.53 1481.64 Q1927.19 1478.89 1931.77 1474.26 Q1936.38 1469.61 1937.56 1468.27 Q1939.8 1465.74 1940.68 1464.01 Q1941.59 1462.25 1941.59 1460.56 Q1941.59 1457.8 1939.64 1456.07 Q1937.72 1454.33 1934.62 1454.33 Q1932.42 1454.33 1929.97 1455.09 Q1927.54 1455.86 1924.76 1457.41 L1924.76 1452.69 Q1927.58 1451.55 1930.04 1450.97 Q1932.49 1450.39 1934.53 1450.39 Q1939.9 1450.39 1943.09 1453.08 Q1946.29 1455.77 1946.29 1460.26 Q1946.29 1462.39 1945.48 1464.31 Q1944.69 1466.2 1942.58 1468.8 Q1942 1469.47 1938.9 1472.69 Q1935.8 1475.88 1930.15 1481.64 Z" fill="#000000" fill-rule="nonzero" fill-opacity="1" /><path clip-path="url(#clip870)" d="M1956.33 1451.02 L1974.69 1451.02 L1974.69 1454.96 L1960.62 1454.96 L1960.62 1463.43 Q1961.63 1463.08 1962.65 1462.92 Q1963.67 1462.73 1964.69 1462.73 Q1970.48 1462.73 1973.86 1465.9 Q1977.24 1469.08 1977.24 1474.49 Q1977.24 1480.07 1973.76 1483.17 Q1970.29 1486.25 1963.97 1486.25 Q1961.8 1486.25 1959.53 1485.88 Q1957.28 1485.51 1954.87 1484.77 L1954.87 1480.07 Q1956.96 1481.2 1959.18 1481.76 Q1961.4 1482.32 1963.88 1482.32 Q1967.88 1482.32 1970.22 1480.21 Q1972.56 1478.1 1972.56 1474.49 Q1972.56 1470.88 1970.22 1468.77 Q1967.88 1466.67 1963.88 1466.67 Q1962 1466.67 1960.13 1467.08 Q1958.28 1467.5 1956.33 1468.38 L1956.33 1451.02 Z" fill="#000000" fill-rule="nonzero" fill-opacity="1" /><path clip-path="url(#clip870)" d="M2283.79 1466.95 Q2287.15 1467.66 2289.03 1469.93 Q2290.92 1472.2 2290.92 1475.53 Q2290.92 1480.65 2287.41 1483.45 Q2283.89 1486.25 2277.41 1486.25 Q2275.23 1486.25 2272.92 1485.81 Q2270.62 1485.39 2268.17 1484.54 L2268.17 1480.02 Q2270.11 1481.16 2272.43 1481.74 Q2274.74 1482.32 2277.27 1482.32 Q2281.67 1482.32 2283.96 1480.58 Q2286.27 1478.84 2286.27 1475.53 Q2286.27 1472.48 2284.12 1470.77 Q2281.99 1469.03 2278.17 1469.03 L2274.14 1469.03 L2274.14 1465.19 L2278.35 1465.19 Q2281.8 1465.19 2283.63 1463.82 Q2285.46 1462.43 2285.46 1459.84 Q2285.46 1457.18 2283.56 1455.77 Q2281.69 1454.33 2278.17 1454.33 Q2276.25 1454.33 2274.05 1454.75 Q2271.85 1455.16 2269.21 1456.04 L2269.21 1451.88 Q2271.87 1451.14 2274.19 1450.77 Q2276.53 1450.39 2278.59 1450.39 Q2283.91 1450.39 2287.01 1452.83 Q2290.11 1455.23 2290.11 1459.35 Q2290.11 1462.22 2288.47 1464.21 Q2286.83 1466.18 2283.79 1466.95 Z" fill="#000000" fill-rule="nonzero" fill-opacity="1" /><path clip-path="url(#clip870)" d="M2309.79 1454.1 Q2306.18 1454.1 2304.35 1457.66 Q2302.54 1461.2 2302.54 1468.33 Q2302.54 1475.44 2304.35 1479.01 Q2306.18 1482.55 2309.79 1482.55 Q2313.42 1482.55 2315.23 1479.01 Q2317.06 1475.44 2317.06 1468.33 Q2317.06 1461.2 2315.23 1457.66 Q2313.42 1454.1 2309.79 1454.1 M2309.79 1450.39 Q2315.6 1450.39 2318.66 1455 Q2321.73 1459.58 2321.73 1468.33 Q2321.73 1477.06 2318.66 1481.67 Q2315.6 1486.25 2309.79 1486.25 Q2303.98 1486.25 2300.9 1481.67 Q2297.85 1477.06 2297.85 1468.33 Q2297.85 1459.58 2300.9 1455 Q2303.98 1450.39 2309.79 1450.39 Z" fill="#000000" fill-rule="nonzero" fill-opacity="1" /><path clip-path="url(#clip870)" d="M1246.38 1546.53 L1246.38 1568.04 L1240.52 1568.04 L1240.52 1546.72 Q1240.52 1541.66 1238.55 1539.14 Q1236.58 1536.63 1232.63 1536.63 Q1227.89 1536.63 1225.15 1539.65 Q1222.41 1542.68 1222.41 1547.9 L1222.41 1568.04 L1216.53 1568.04 L1216.53 1518.52 L1222.41 1518.52 L1222.41 1537.93 Q1224.51 1534.72 1227.35 1533.13 Q1230.21 1531.54 1233.94 1531.54 Q1240.08 1531.54 1243.23 1535.36 Q1246.38 1539.14 1246.38 1546.53 Z" fill="#000000" fill-rule="nonzero" fill-opacity="1" /><path clip-path="url(#clip870)" d="M1271.88 1536.5 Q1267.16 1536.5 1264.43 1540.19 Q1261.69 1543.85 1261.69 1550.25 Q1261.69 1556.65 1264.4 1560.34 Q1267.13 1564 1271.88 1564 Q1276.55 1564 1279.29 1560.31 Q1282.03 1556.62 1282.03 1550.25 Q1282.03 1543.92 1279.29 1540.23 Q1276.55 1536.5 1271.88 1536.5 M1271.88 1531.54 Q1279.51 1531.54 1283.87 1536.5 Q1288.24 1541.47 1288.24 1550.25 Q1288.24 1559 1283.87 1564 Q1279.51 1568.97 1271.88 1568.97 Q1264.2 1568.97 1259.84 1564 Q1255.52 1559 1255.52 1550.25 Q1255.52 1541.47 1259.84 1536.5 Q1264.2 1531.54 1271.88 1531.54 Z" fill="#000000" fill-rule="nonzero" fill-opacity="1" /><path clip-path="url(#clip870)" d="M1318.6 1537.87 Q1317.61 1537.3 1316.44 1537.04 Q1315.29 1536.76 1313.89 1536.76 Q1308.92 1536.76 1306.25 1540 Q1303.61 1543.22 1303.61 1549.27 L1303.61 1568.04 L1297.72 1568.04 L1297.72 1532.4 L1303.61 1532.4 L1303.61 1537.93 Q1305.45 1534.69 1308.41 1533.13 Q1311.37 1531.54 1315.61 1531.54 Q1316.21 1531.54 1316.94 1531.63 Q1317.68 1531.7 1318.57 1531.85 L1318.6 1537.87 Z" fill="#000000" fill-rule="nonzero" fill-opacity="1" /><path clip-path="url(#clip870)" d="M1324.74 1532.4 L1330.6 1532.4 L1330.6 1568.04 L1324.74 1568.04 L1324.74 1532.4 M1324.74 1518.52 L1330.6 1518.52 L1330.6 1525.93 L1324.74 1525.93 L1324.74 1518.52 Z" fill="#000000" fill-rule="nonzero" fill-opacity="1" /><path clip-path="url(#clip870)" d="M1340.31 1532.4 L1368.12 1532.4 L1368.12 1537.74 L1346.1 1563.37 L1368.12 1563.37 L1368.12 1568.04 L1339.51 1568.04 L1339.51 1562.7 L1361.54 1537.07 L1340.31 1537.07 L1340.31 1532.4 Z" fill="#000000" fill-rule="nonzero" fill-opacity="1" /><path clip-path="url(#clip870)" d="M1390.88 1536.5 Q1386.17 1536.5 1383.43 1540.19 Q1380.7 1543.85 1380.7 1550.25 Q1380.7 1556.65 1383.4 1560.34 Q1386.14 1564 1390.88 1564 Q1395.56 1564 1398.3 1560.31 Q1401.04 1556.62 1401.04 1550.25 Q1401.04 1543.92 1398.3 1540.23 Q1395.56 1536.5 1390.88 1536.5 M1390.88 1531.54 Q1398.52 1531.54 1402.88 1536.5 Q1407.24 1541.47 1407.24 1550.25 Q1407.24 1559 1402.88 1564 Q1398.52 1568.97 1390.88 1568.97 Q1383.21 1568.97 1378.85 1564 Q1374.52 1559 1374.52 1550.25 Q1374.52 1541.47 1378.85 1536.5 Q1383.21 1531.54 1390.88 1531.54 Z" fill="#000000" fill-rule="nonzero" fill-opacity="1" /><path clip-path="url(#clip870)" d="M1446.58 1546.53 L1446.58 1568.04 L1440.73 1568.04 L1440.73 1546.72 Q1440.73 1541.66 1438.75 1539.14 Q1436.78 1536.63 1432.83 1536.63 Q1428.09 1536.63 1425.35 1539.65 Q1422.62 1542.68 1422.62 1547.9 L1422.62 1568.04 L1416.73 1568.04 L1416.73 1532.4 L1422.62 1532.4 L1422.62 1537.93 Q1424.72 1534.72 1427.55 1533.13 Q1430.41 1531.54 1434.14 1531.54 Q1440.28 1531.54 1443.43 1535.36 Q1446.58 1539.14 1446.58 1546.53 Z" fill="#000000" fill-rule="nonzero" fill-opacity="1" /><polyline clip-path="url(#clip872)" style="stroke:#000000; stroke-linecap:round; stroke-linejoin:round; stroke-width:2; stroke-opacity:0.1; fill:none" points="310.352,1331.86 2352.76,1331.86 "/>
<polyline clip-path="url(#clip872)" style="stroke:#000000; stroke-linecap:round; stroke-linejoin:round; stroke-width:2; stroke-opacity:0.1; fill:none" points="310.352,1158.77 2352.76,1158.77 "/>
<polyline clip-path="url(#clip872)" style="stroke:#000000; stroke-linecap:round; stroke-linejoin:round; stroke-width:2; stroke-opacity:0.1; fill:none" points="310.352,985.67 2352.76,985.67 "/>
<polyline clip-path="url(#clip872)" style="stroke:#000000; stroke-linecap:round; stroke-linejoin:round; stroke-width:2; stroke-opacity:0.1; fill:none" points="310.352,812.573 2352.76,812.573 "/>
<polyline clip-path="url(#clip872)" style="stroke:#000000; stroke-linecap:round; stroke-linejoin:round; stroke-width:2; stroke-opacity:0.1; fill:none" points="310.352,639.477 2352.76,639.477 "/>
<polyline clip-path="url(#clip872)" style="stroke:#000000; stroke-linecap:round; stroke-linejoin:round; stroke-width:2; stroke-opacity:0.1; fill:none" points="310.352,466.38 2352.76,466.38 "/>
<polyline clip-path="url(#clip872)" style="stroke:#000000; stroke-linecap:round; stroke-linejoin:round; stroke-width:2; stroke-opacity:0.1; fill:none" points="310.352,293.283 2352.76,293.283 "/>
<polyline clip-path="url(#clip870)" style="stroke:#000000; stroke-linecap:round; stroke-linejoin:round; stroke-width:4; stroke-opacity:1; fill:none" points="310.352,1423.18 310.352,123.472 "/>
<polyline clip-path="url(#clip870)" style="stroke:#000000; stroke-linecap:round; stroke-linejoin:round; stroke-width:4; stroke-opacity:1; fill:none" points="310.352,1331.86 329.25,1331.86 "/>
<polyline clip-path="url(#clip870)" style="stroke:#000000; stroke-linecap:round; stroke-linejoin:round; stroke-width:4; stroke-opacity:1; fill:none" points="310.352,1158.77 329.25,1158.77 "/>
<polyline clip-path="url(#clip870)" style="stroke:#000000; stroke-linecap:round; stroke-linejoin:round; stroke-width:4; stroke-opacity:1; fill:none" points="310.352,985.67 329.25,985.67 "/>
<polyline clip-path="url(#clip870)" style="stroke:#000000; stroke-linecap:round; stroke-linejoin:round; stroke-width:4; stroke-opacity:1; fill:none" points="310.352,812.573 329.25,812.573 "/>
<polyline clip-path="url(#clip870)" style="stroke:#000000; stroke-linecap:round; stroke-linejoin:round; stroke-width:4; stroke-opacity:1; fill:none" points="310.352,639.477 329.25,639.477 "/>
<polyline clip-path="url(#clip870)" style="stroke:#000000; stroke-linecap:round; stroke-linejoin:round; stroke-width:4; stroke-opacity:1; fill:none" points="310.352,466.38 329.25,466.38 "/>
<polyline clip-path="url(#clip870)" style="stroke:#000000; stroke-linecap:round; stroke-linejoin:round; stroke-width:4; stroke-opacity:1; fill:none" points="310.352,293.283 329.25,293.283 "/>
<path clip-path="url(#clip870)" d="M128.288 1317.66 Q124.677 1317.66 122.848 1321.23 Q121.043 1324.77 121.043 1331.9 Q121.043 1339 122.848 1342.57 Q124.677 1346.11 128.288 1346.11 Q131.922 1346.11 133.728 1342.57 Q135.556 1339 135.556 1331.9 Q135.556 1324.77 133.728 1321.23 Q131.922 1317.66 128.288 1317.66 M128.288 1313.96 Q134.098 1313.96 137.154 1318.56 Q140.232 1323.15 140.232 1331.9 Q140.232 1340.63 137.154 1345.23 Q134.098 1349.81 128.288 1349.81 Q122.478 1349.81 119.399 1345.23 Q116.343 1340.63 116.343 1331.9 Q116.343 1323.15 119.399 1318.56 Q122.478 1313.96 128.288 1313.96 Z" fill="#000000" fill-rule="nonzero" fill-opacity="1" /><path clip-path="url(#clip870)" d="M148.45 1343.26 L153.334 1343.26 L153.334 1349.14 L148.45 1349.14 L148.45 1343.26 Z" fill="#000000" fill-rule="nonzero" fill-opacity="1" /><path clip-path="url(#clip870)" d="M173.519 1317.66 Q169.908 1317.66 168.079 1321.23 Q166.274 1324.77 166.274 1331.9 Q166.274 1339 168.079 1342.57 Q169.908 1346.11 173.519 1346.11 Q177.153 1346.11 178.959 1342.57 Q180.788 1339 180.788 1331.9 Q180.788 1324.77 178.959 1321.23 Q177.153 1317.66 173.519 1317.66 M173.519 1313.96 Q179.329 1313.96 182.385 1318.56 Q185.463 1323.15 185.463 1331.9 Q185.463 1340.63 182.385 1345.23 Q179.329 1349.81 173.519 1349.81 Q167.709 1349.81 164.63 1345.23 Q161.575 1340.63 161.575 1331.9 Q161.575 1323.15 164.63 1318.56 Q167.709 1313.96 173.519 1313.96 Z" fill="#000000" fill-rule="nonzero" fill-opacity="1" /><path clip-path="url(#clip870)" d="M203.681 1317.66 Q200.07 1317.66 198.241 1321.23 Q196.436 1324.77 196.436 1331.9 Q196.436 1339 198.241 1342.57 Q200.07 1346.11 203.681 1346.11 Q207.315 1346.11 209.121 1342.57 Q210.949 1339 210.949 1331.9 Q210.949 1324.77 209.121 1321.23 Q207.315 1317.66 203.681 1317.66 M203.681 1313.96 Q209.491 1313.96 212.547 1318.56 Q215.625 1323.15 215.625 1331.9 Q215.625 1340.63 212.547 1345.23 Q209.491 1349.81 203.681 1349.81 Q197.871 1349.81 194.792 1345.23 Q191.737 1340.63 191.737 1331.9 Q191.737 1323.15 194.792 1318.56 Q197.871 1313.96 203.681 1313.96 Z" fill="#000000" fill-rule="nonzero" fill-opacity="1" /><path clip-path="url(#clip870)" d="M227.871 1345.21 L244.19 1345.21 L244.19 1349.14 L222.246 1349.14 L222.246 1345.21 Q224.908 1342.45 229.491 1337.82 Q234.097 1333.17 235.278 1331.83 Q237.523 1329.31 238.403 1327.57 Q239.306 1325.81 239.306 1324.12 Q239.306 1321.37 237.361 1319.63 Q235.44 1317.89 232.338 1317.89 Q230.139 1317.89 227.685 1318.66 Q225.255 1319.42 222.477 1320.97 L222.477 1316.25 Q225.301 1315.12 227.755 1314.54 Q230.209 1313.96 232.246 1313.96 Q237.616 1313.96 240.81 1316.64 Q244.005 1319.33 244.005 1323.82 Q244.005 1325.95 243.195 1327.87 Q242.408 1329.77 240.301 1332.36 Q239.722 1333.03 236.621 1336.25 Q233.519 1339.44 227.871 1345.21 Z" fill="#000000" fill-rule="nonzero" fill-opacity="1" /><path clip-path="url(#clip870)" d="M258.033 1345.21 L274.352 1345.21 L274.352 1349.14 L252.408 1349.14 L252.408 1345.21 Q255.07 1342.45 259.653 1337.82 Q264.259 1333.17 265.44 1331.83 Q267.685 1329.31 268.565 1327.57 Q269.468 1325.81 269.468 1324.12 Q269.468 1321.37 267.523 1319.63 Q265.602 1317.89 262.5 1317.89 Q260.301 1317.89 257.847 1318.66 Q255.417 1319.42 252.639 1320.97 L252.639 1316.25 Q255.463 1315.12 257.917 1314.54 Q260.37 1313.96 262.408 1313.96 Q267.778 1313.96 270.972 1316.64 Q274.167 1319.33 274.167 1323.82 Q274.167 1325.95 273.357 1327.87 Q272.569 1329.77 270.463 1332.36 Q269.884 1333.03 266.782 1336.25 Q263.681 1339.44 258.033 1345.21 Z" fill="#000000" fill-rule="nonzero" fill-opacity="1" /><path clip-path="url(#clip870)" d="M127.339 1144.57 Q123.728 1144.57 121.899 1148.13 Q120.093 1151.67 120.093 1158.8 Q120.093 1165.91 121.899 1169.47 Q123.728 1173.01 127.339 1173.01 Q130.973 1173.01 132.779 1169.47 Q134.607 1165.91 134.607 1158.8 Q134.607 1151.67 132.779 1148.13 Q130.973 1144.57 127.339 1144.57 M127.339 1140.86 Q133.149 1140.86 136.204 1145.47 Q139.283 1150.05 139.283 1158.8 Q139.283 1167.53 136.204 1172.13 Q133.149 1176.72 127.339 1176.72 Q121.529 1176.72 118.45 1172.13 Q115.394 1167.53 115.394 1158.8 Q115.394 1150.05 118.45 1145.47 Q121.529 1140.86 127.339 1140.86 Z" fill="#000000" fill-rule="nonzero" fill-opacity="1" /><path clip-path="url(#clip870)" d="M147.501 1170.17 L152.385 1170.17 L152.385 1176.05 L147.501 1176.05 L147.501 1170.17 Z" fill="#000000" fill-rule="nonzero" fill-opacity="1" /><path clip-path="url(#clip870)" d="M172.57 1144.57 Q168.959 1144.57 167.13 1148.13 Q165.325 1151.67 165.325 1158.8 Q165.325 1165.91 167.13 1169.47 Q168.959 1173.01 172.57 1173.01 Q176.204 1173.01 178.01 1169.47 Q179.839 1165.91 179.839 1158.8 Q179.839 1151.67 178.01 1148.13 Q176.204 1144.57 172.57 1144.57 M172.57 1140.86 Q178.38 1140.86 181.436 1145.47 Q184.514 1150.05 184.514 1158.8 Q184.514 1167.53 181.436 1172.13 Q178.38 1176.72 172.57 1176.72 Q166.76 1176.72 163.681 1172.13 Q160.626 1167.53 160.626 1158.8 Q160.626 1150.05 163.681 1145.47 Q166.76 1140.86 172.57 1140.86 Z" fill="#000000" fill-rule="nonzero" fill-opacity="1" /><path clip-path="url(#clip870)" d="M202.732 1144.57 Q199.121 1144.57 197.292 1148.13 Q195.487 1151.67 195.487 1158.8 Q195.487 1165.91 197.292 1169.47 Q199.121 1173.01 202.732 1173.01 Q206.366 1173.01 208.172 1169.47 Q210 1165.91 210 1158.8 Q210 1151.67 208.172 1148.13 Q206.366 1144.57 202.732 1144.57 M202.732 1140.86 Q208.542 1140.86 211.598 1145.47 Q214.676 1150.05 214.676 1158.8 Q214.676 1167.53 211.598 1172.13 Q208.542 1176.72 202.732 1176.72 Q196.922 1176.72 193.843 1172.13 Q190.788 1167.53 190.788 1158.8 Q190.788 1150.05 193.843 1145.47 Q196.922 1140.86 202.732 1140.86 Z" fill="#000000" fill-rule="nonzero" fill-opacity="1" /><path clip-path="url(#clip870)" d="M226.922 1172.11 L243.241 1172.11 L243.241 1176.05 L221.297 1176.05 L221.297 1172.11 Q223.959 1169.36 228.542 1164.73 Q233.148 1160.07 234.329 1158.73 Q236.574 1156.21 237.454 1154.47 Q238.357 1152.71 238.357 1151.02 Q238.357 1148.27 236.412 1146.53 Q234.491 1144.8 231.389 1144.8 Q229.19 1144.8 226.736 1145.56 Q224.306 1146.32 221.528 1147.88 L221.528 1143.15 Q224.352 1142.02 226.806 1141.44 Q229.26 1140.86 231.297 1140.86 Q236.667 1140.86 239.861 1143.55 Q243.056 1146.23 243.056 1150.72 Q243.056 1152.85 242.246 1154.77 Q241.459 1156.67 239.352 1159.26 Q238.773 1159.94 235.672 1163.15 Q232.57 1166.35 226.922 1172.11 Z" fill="#000000" fill-rule="nonzero" fill-opacity="1" /><path clip-path="url(#clip870)" d="M267.222 1157.41 Q270.579 1158.13 272.454 1160.4 Q274.352 1162.67 274.352 1166 Q274.352 1171.12 270.833 1173.92 Q267.315 1176.72 260.833 1176.72 Q258.658 1176.72 256.343 1176.28 Q254.051 1175.86 251.597 1175.01 L251.597 1170.49 Q253.542 1171.63 255.857 1172.2 Q258.171 1172.78 260.695 1172.78 Q265.093 1172.78 267.384 1171.05 Q269.699 1169.31 269.699 1166 Q269.699 1162.95 267.546 1161.23 Q265.417 1159.5 261.597 1159.5 L257.57 1159.5 L257.57 1155.65 L261.783 1155.65 Q265.232 1155.65 267.06 1154.29 Q268.889 1152.9 268.889 1150.31 Q268.889 1147.64 266.991 1146.23 Q265.116 1144.8 261.597 1144.8 Q259.676 1144.8 257.477 1145.21 Q255.278 1145.63 252.639 1146.51 L252.639 1142.34 Q255.301 1141.6 257.616 1141.23 Q259.954 1140.86 262.014 1140.86 Q267.338 1140.86 270.44 1143.29 Q273.542 1145.7 273.542 1149.82 Q273.542 1152.69 271.898 1154.68 Q270.255 1156.65 267.222 1157.41 Z" fill="#000000" fill-rule="nonzero" fill-opacity="1" /><path clip-path="url(#clip870)" d="M126.205 971.469 Q122.593 971.469 120.765 975.034 Q118.959 978.575 118.959 985.705 Q118.959 992.811 120.765 996.376 Q122.593 999.918 126.205 999.918 Q129.839 999.918 131.644 996.376 Q133.473 992.811 133.473 985.705 Q133.473 978.575 131.644 975.034 Q129.839 971.469 126.205 971.469 M126.205 967.765 Q132.015 967.765 135.07 972.372 Q138.149 976.955 138.149 985.705 Q138.149 994.432 135.07 999.038 Q132.015 1003.62 126.205 1003.62 Q120.394 1003.62 117.316 999.038 Q114.26 994.432 114.26 985.705 Q114.26 976.955 117.316 972.372 Q120.394 967.765 126.205 967.765 Z" fill="#000000" fill-rule="nonzero" fill-opacity="1" /><path clip-path="url(#clip870)" d="M146.366 997.07 L151.251 997.07 L151.251 1002.95 L146.366 1002.95 L146.366 997.07 Z" fill="#000000" fill-rule="nonzero" fill-opacity="1" /><path clip-path="url(#clip870)" d="M171.436 971.469 Q167.825 971.469 165.996 975.034 Q164.19 978.575 164.19 985.705 Q164.19 992.811 165.996 996.376 Q167.825 999.918 171.436 999.918 Q175.07 999.918 176.876 996.376 Q178.704 992.811 178.704 985.705 Q178.704 978.575 176.876 975.034 Q175.07 971.469 171.436 971.469 M171.436 967.765 Q177.246 967.765 180.301 972.372 Q183.38 976.955 183.38 985.705 Q183.38 994.432 180.301 999.038 Q177.246 1003.62 171.436 1003.62 Q165.626 1003.62 162.547 999.038 Q159.491 994.432 159.491 985.705 Q159.491 976.955 162.547 972.372 Q165.626 967.765 171.436 967.765 Z" fill="#000000" fill-rule="nonzero" fill-opacity="1" /><path clip-path="url(#clip870)" d="M201.598 971.469 Q197.987 971.469 196.158 975.034 Q194.352 978.575 194.352 985.705 Q194.352 992.811 196.158 996.376 Q197.987 999.918 201.598 999.918 Q205.232 999.918 207.037 996.376 Q208.866 992.811 208.866 985.705 Q208.866 978.575 207.037 975.034 Q205.232 971.469 201.598 971.469 M201.598 967.765 Q207.408 967.765 210.463 972.372 Q213.542 976.955 213.542 985.705 Q213.542 994.432 210.463 999.038 Q207.408 1003.62 201.598 1003.62 Q195.787 1003.62 192.709 999.038 Q189.653 994.432 189.653 985.705 Q189.653 976.955 192.709 972.372 Q195.787 967.765 201.598 967.765 Z" fill="#000000" fill-rule="nonzero" fill-opacity="1" /><path clip-path="url(#clip870)" d="M225.787 999.015 L242.107 999.015 L242.107 1002.95 L220.162 1002.95 L220.162 999.015 Q222.824 996.26 227.408 991.631 Q232.014 986.978 233.195 985.635 Q235.44 983.112 236.32 981.376 Q237.222 979.617 237.222 977.927 Q237.222 975.172 235.278 973.436 Q233.357 971.7 230.255 971.7 Q228.056 971.7 225.602 972.464 Q223.172 973.228 220.394 974.779 L220.394 970.057 Q223.218 968.922 225.672 968.344 Q228.125 967.765 230.162 967.765 Q235.533 967.765 238.727 970.45 Q241.922 973.135 241.922 977.626 Q241.922 979.756 241.111 981.677 Q240.324 983.575 238.218 986.168 Q237.639 986.839 234.537 990.057 Q231.435 993.251 225.787 999.015 Z" fill="#000000" fill-rule="nonzero" fill-opacity="1" /><path clip-path="url(#clip870)" d="M264.769 972.464 L252.963 990.913 L264.769 990.913 L264.769 972.464 M263.542 968.39 L269.421 968.39 L269.421 990.913 L274.352 990.913 L274.352 994.802 L269.421 994.802 L269.421 1002.95 L264.769 1002.95 L264.769 994.802 L249.167 994.802 L249.167 990.288 L263.542 968.39 Z" fill="#000000" fill-rule="nonzero" fill-opacity="1" /><path clip-path="url(#clip870)" d="M127.686 798.372 Q124.075 798.372 122.246 801.937 Q120.441 805.479 120.441 812.608 Q120.441 819.715 122.246 823.279 Q124.075 826.821 127.686 826.821 Q131.32 826.821 133.126 823.279 Q134.954 819.715 134.954 812.608 Q134.954 805.479 133.126 801.937 Q131.32 798.372 127.686 798.372 M127.686 794.668 Q133.496 794.668 136.552 799.275 Q139.63 803.858 139.63 812.608 Q139.63 821.335 136.552 825.941 Q133.496 830.525 127.686 830.525 Q121.876 830.525 118.797 825.941 Q115.742 821.335 115.742 812.608 Q115.742 803.858 118.797 799.275 Q121.876 794.668 127.686 794.668 Z" fill="#000000" fill-rule="nonzero" fill-opacity="1" /><path clip-path="url(#clip870)" d="M147.848 823.974 L152.732 823.974 L152.732 829.853 L147.848 829.853 L147.848 823.974 Z" fill="#000000" fill-rule="nonzero" fill-opacity="1" /><path clip-path="url(#clip870)" d="M172.917 798.372 Q169.306 798.372 167.477 801.937 Q165.672 805.479 165.672 812.608 Q165.672 819.715 167.477 823.279 Q169.306 826.821 172.917 826.821 Q176.551 826.821 178.357 823.279 Q180.186 819.715 180.186 812.608 Q180.186 805.479 178.357 801.937 Q176.551 798.372 172.917 798.372 M172.917 794.668 Q178.727 794.668 181.783 799.275 Q184.862 803.858 184.862 812.608 Q184.862 821.335 181.783 825.941 Q178.727 830.525 172.917 830.525 Q167.107 830.525 164.028 825.941 Q160.973 821.335 160.973 812.608 Q160.973 803.858 164.028 799.275 Q167.107 794.668 172.917 794.668 Z" fill="#000000" fill-rule="nonzero" fill-opacity="1" /><path clip-path="url(#clip870)" d="M203.079 798.372 Q199.468 798.372 197.639 801.937 Q195.834 805.479 195.834 812.608 Q195.834 819.715 197.639 823.279 Q199.468 826.821 203.079 826.821 Q206.713 826.821 208.519 823.279 Q210.348 819.715 210.348 812.608 Q210.348 805.479 208.519 801.937 Q206.713 798.372 203.079 798.372 M203.079 794.668 Q208.889 794.668 211.945 799.275 Q215.024 803.858 215.024 812.608 Q215.024 821.335 211.945 825.941 Q208.889 830.525 203.079 830.525 Q197.269 830.525 194.19 825.941 Q191.135 821.335 191.135 812.608 Q191.135 803.858 194.19 799.275 Q197.269 794.668 203.079 794.668 Z" fill="#000000" fill-rule="nonzero" fill-opacity="1" /><path clip-path="url(#clip870)" d="M227.269 825.918 L243.588 825.918 L243.588 829.853 L221.644 829.853 L221.644 825.918 Q224.306 823.164 228.889 818.534 Q233.496 813.881 234.676 812.539 Q236.922 810.016 237.801 808.279 Q238.704 806.52 238.704 804.83 Q238.704 802.076 236.76 800.34 Q234.838 798.604 231.736 798.604 Q229.537 798.604 227.084 799.367 Q224.653 800.131 221.875 801.682 L221.875 796.96 Q224.699 795.826 227.153 795.247 Q229.607 794.668 231.644 794.668 Q237.014 794.668 240.209 797.354 Q243.403 800.039 243.403 804.529 Q243.403 806.659 242.593 808.58 Q241.806 810.478 239.699 813.071 Q239.121 813.742 236.019 816.96 Q232.917 820.154 227.269 825.918 Z" fill="#000000" fill-rule="nonzero" fill-opacity="1" /><path clip-path="url(#clip870)" d="M253.449 795.293 L271.806 795.293 L271.806 799.229 L257.732 799.229 L257.732 807.701 Q258.75 807.353 259.769 807.191 Q260.787 807.006 261.806 807.006 Q267.593 807.006 270.972 810.178 Q274.352 813.349 274.352 818.765 Q274.352 824.344 270.88 827.446 Q267.407 830.525 261.088 830.525 Q258.912 830.525 256.644 830.154 Q254.398 829.784 251.991 829.043 L251.991 824.344 Q254.074 825.478 256.296 826.034 Q258.519 826.59 260.995 826.59 Q265 826.59 267.338 824.483 Q269.676 822.377 269.676 818.765 Q269.676 815.154 267.338 813.048 Q265 810.941 260.995 810.941 Q259.12 810.941 257.246 811.358 Q255.394 811.775 253.449 812.654 L253.449 795.293 Z" fill="#000000" fill-rule="nonzero" fill-opacity="1" /><path clip-path="url(#clip870)" d="M126.529 625.275 Q122.918 625.275 121.089 628.84 Q119.283 632.382 119.283 639.511 Q119.283 646.618 121.089 650.183 Q122.918 653.724 126.529 653.724 Q130.163 653.724 131.968 650.183 Q133.797 646.618 133.797 639.511 Q133.797 632.382 131.968 628.84 Q130.163 625.275 126.529 625.275 M126.529 621.572 Q132.339 621.572 135.394 626.178 Q138.473 630.761 138.473 639.511 Q138.473 648.238 135.394 652.845 Q132.339 657.428 126.529 657.428 Q120.718 657.428 117.64 652.845 Q114.584 648.238 114.584 639.511 Q114.584 630.761 117.64 626.178 Q120.718 621.572 126.529 621.572 Z" fill="#000000" fill-rule="nonzero" fill-opacity="1" /><path clip-path="url(#clip870)" d="M146.691 650.877 L151.575 650.877 L151.575 656.757 L146.691 656.757 L146.691 650.877 Z" fill="#000000" fill-rule="nonzero" fill-opacity="1" /><path clip-path="url(#clip870)" d="M171.76 625.275 Q168.149 625.275 166.32 628.84 Q164.515 632.382 164.515 639.511 Q164.515 646.618 166.32 650.183 Q168.149 653.724 171.76 653.724 Q175.394 653.724 177.2 650.183 Q179.028 646.618 179.028 639.511 Q179.028 632.382 177.2 628.84 Q175.394 625.275 171.76 625.275 M171.76 621.572 Q177.57 621.572 180.626 626.178 Q183.704 630.761 183.704 639.511 Q183.704 648.238 180.626 652.845 Q177.57 657.428 171.76 657.428 Q165.95 657.428 162.871 652.845 Q159.815 648.238 159.815 639.511 Q159.815 630.761 162.871 626.178 Q165.95 621.572 171.76 621.572 Z" fill="#000000" fill-rule="nonzero" fill-opacity="1" /><path clip-path="url(#clip870)" d="M201.922 625.275 Q198.311 625.275 196.482 628.84 Q194.676 632.382 194.676 639.511 Q194.676 646.618 196.482 650.183 Q198.311 653.724 201.922 653.724 Q205.556 653.724 207.362 650.183 Q209.19 646.618 209.19 639.511 Q209.19 632.382 207.362 628.84 Q205.556 625.275 201.922 625.275 M201.922 621.572 Q207.732 621.572 210.787 626.178 Q213.866 630.761 213.866 639.511 Q213.866 648.238 210.787 652.845 Q207.732 657.428 201.922 657.428 Q196.112 657.428 193.033 652.845 Q189.977 648.238 189.977 639.511 Q189.977 630.761 193.033 626.178 Q196.112 621.572 201.922 621.572 Z" fill="#000000" fill-rule="nonzero" fill-opacity="1" /><path clip-path="url(#clip870)" d="M226.111 652.822 L242.431 652.822 L242.431 656.757 L220.486 656.757 L220.486 652.822 Q223.148 650.067 227.732 645.437 Q232.338 640.785 233.519 639.442 Q235.764 636.919 236.644 635.183 Q237.547 633.423 237.547 631.734 Q237.547 628.979 235.602 627.243 Q233.681 625.507 230.579 625.507 Q228.38 625.507 225.926 626.271 Q223.496 627.035 220.718 628.586 L220.718 623.863 Q223.542 622.729 225.996 622.15 Q228.449 621.572 230.486 621.572 Q235.857 621.572 239.051 624.257 Q242.246 626.942 242.246 631.433 Q242.246 633.562 241.435 635.484 Q240.648 637.382 238.542 639.974 Q237.963 640.646 234.861 643.863 Q231.76 647.058 226.111 652.822 Z" fill="#000000" fill-rule="nonzero" fill-opacity="1" /><path clip-path="url(#clip870)" d="M262.824 637.613 Q259.676 637.613 257.824 639.766 Q255.996 641.919 255.996 645.669 Q255.996 649.396 257.824 651.572 Q259.676 653.724 262.824 653.724 Q265.972 653.724 267.801 651.572 Q269.653 649.396 269.653 645.669 Q269.653 641.919 267.801 639.766 Q265.972 637.613 262.824 637.613 M272.107 622.961 L272.107 627.22 Q270.347 626.386 268.542 625.947 Q266.759 625.507 265 625.507 Q260.37 625.507 257.917 628.632 Q255.486 631.757 255.139 638.076 Q256.505 636.062 258.565 634.998 Q260.625 633.91 263.102 633.91 Q268.31 633.91 271.32 637.081 Q274.352 640.229 274.352 645.669 Q274.352 650.993 271.204 654.21 Q268.056 657.428 262.824 657.428 Q256.829 657.428 253.658 652.845 Q250.486 648.238 250.486 639.511 Q250.486 631.317 254.375 626.456 Q258.264 621.572 264.815 621.572 Q266.574 621.572 268.357 621.919 Q270.162 622.266 272.107 622.961 Z" fill="#000000" fill-rule="nonzero" fill-opacity="1" /><path clip-path="url(#clip870)" d="M127.593 452.179 Q123.982 452.179 122.154 455.743 Q120.348 459.285 120.348 466.415 Q120.348 473.521 122.154 477.086 Q123.982 480.628 127.593 480.628 Q131.228 480.628 133.033 477.086 Q134.862 473.521 134.862 466.415 Q134.862 459.285 133.033 455.743 Q131.228 452.179 127.593 452.179 M127.593 448.475 Q133.404 448.475 136.459 453.081 Q139.538 457.665 139.538 466.415 Q139.538 475.141 136.459 479.748 Q133.404 484.331 127.593 484.331 Q121.783 484.331 118.705 479.748 Q115.649 475.141 115.649 466.415 Q115.649 457.665 118.705 453.081 Q121.783 448.475 127.593 448.475 Z" fill="#000000" fill-rule="nonzero" fill-opacity="1" /><path clip-path="url(#clip870)" d="M147.755 477.78 L152.64 477.78 L152.64 483.66 L147.755 483.66 L147.755 477.78 Z" fill="#000000" fill-rule="nonzero" fill-opacity="1" /><path clip-path="url(#clip870)" d="M172.825 452.179 Q169.214 452.179 167.385 455.743 Q165.579 459.285 165.579 466.415 Q165.579 473.521 167.385 477.086 Q169.214 480.628 172.825 480.628 Q176.459 480.628 178.264 477.086 Q180.093 473.521 180.093 466.415 Q180.093 459.285 178.264 455.743 Q176.459 452.179 172.825 452.179 M172.825 448.475 Q178.635 448.475 181.69 453.081 Q184.769 457.665 184.769 466.415 Q184.769 475.141 181.69 479.748 Q178.635 484.331 172.825 484.331 Q167.015 484.331 163.936 479.748 Q160.88 475.141 160.88 466.415 Q160.88 457.665 163.936 453.081 Q167.015 448.475 172.825 448.475 Z" fill="#000000" fill-rule="nonzero" fill-opacity="1" /><path clip-path="url(#clip870)" d="M202.987 452.179 Q199.375 452.179 197.547 455.743 Q195.741 459.285 195.741 466.415 Q195.741 473.521 197.547 477.086 Q199.375 480.628 202.987 480.628 Q206.621 480.628 208.426 477.086 Q210.255 473.521 210.255 466.415 Q210.255 459.285 208.426 455.743 Q206.621 452.179 202.987 452.179 M202.987 448.475 Q208.797 448.475 211.852 453.081 Q214.931 457.665 214.931 466.415 Q214.931 475.141 211.852 479.748 Q208.797 484.331 202.987 484.331 Q197.176 484.331 194.098 479.748 Q191.042 475.141 191.042 466.415 Q191.042 457.665 194.098 453.081 Q197.176 448.475 202.987 448.475 Z" fill="#000000" fill-rule="nonzero" fill-opacity="1" /><path clip-path="url(#clip870)" d="M227.176 479.725 L243.496 479.725 L243.496 483.66 L221.551 483.66 L221.551 479.725 Q224.213 476.97 228.797 472.341 Q233.403 467.688 234.584 466.345 Q236.829 463.822 237.709 462.086 Q238.611 460.327 238.611 458.637 Q238.611 455.882 236.667 454.146 Q234.746 452.41 231.644 452.41 Q229.445 452.41 226.991 453.174 Q224.56 453.938 221.783 455.489 L221.783 450.767 Q224.607 449.632 227.06 449.054 Q229.514 448.475 231.551 448.475 Q236.922 448.475 240.116 451.16 Q243.31 453.845 243.31 458.336 Q243.31 460.466 242.5 462.387 Q241.713 464.285 239.607 466.878 Q239.028 467.549 235.926 470.767 Q232.824 473.961 227.176 479.725 Z" fill="#000000" fill-rule="nonzero" fill-opacity="1" /><path clip-path="url(#clip870)" d="M252.13 449.1 L274.352 449.1 L274.352 451.091 L261.806 483.66 L256.921 483.66 L268.727 453.035 L252.13 453.035 L252.13 449.1 Z" fill="#000000" fill-rule="nonzero" fill-opacity="1" /><path clip-path="url(#clip870)" d="M126.783 279.082 Q123.172 279.082 121.343 282.647 Q119.538 286.188 119.538 293.318 Q119.538 300.424 121.343 303.989 Q123.172 307.531 126.783 307.531 Q130.417 307.531 132.223 303.989 Q134.052 300.424 134.052 293.318 Q134.052 286.188 132.223 282.647 Q130.417 279.082 126.783 279.082 M126.783 275.378 Q132.593 275.378 135.649 279.985 Q138.728 284.568 138.728 293.318 Q138.728 302.045 135.649 306.651 Q132.593 311.235 126.783 311.235 Q120.973 311.235 117.894 306.651 Q114.839 302.045 114.839 293.318 Q114.839 284.568 117.894 279.985 Q120.973 275.378 126.783 275.378 Z" fill="#000000" fill-rule="nonzero" fill-opacity="1" /><path clip-path="url(#clip870)" d="M146.945 304.684 L151.829 304.684 L151.829 310.563 L146.945 310.563 L146.945 304.684 Z" fill="#000000" fill-rule="nonzero" fill-opacity="1" /><path clip-path="url(#clip870)" d="M172.014 279.082 Q168.403 279.082 166.575 282.647 Q164.769 286.188 164.769 293.318 Q164.769 300.424 166.575 303.989 Q168.403 307.531 172.014 307.531 Q175.649 307.531 177.454 303.989 Q179.283 300.424 179.283 293.318 Q179.283 286.188 177.454 282.647 Q175.649 279.082 172.014 279.082 M172.014 275.378 Q177.825 275.378 180.88 279.985 Q183.959 284.568 183.959 293.318 Q183.959 302.045 180.88 306.651 Q177.825 311.235 172.014 311.235 Q166.204 311.235 163.126 306.651 Q160.07 302.045 160.07 293.318 Q160.07 284.568 163.126 279.985 Q166.204 275.378 172.014 275.378 Z" fill="#000000" fill-rule="nonzero" fill-opacity="1" /><path clip-path="url(#clip870)" d="M202.176 279.082 Q198.565 279.082 196.737 282.647 Q194.931 286.188 194.931 293.318 Q194.931 300.424 196.737 303.989 Q198.565 307.531 202.176 307.531 Q205.811 307.531 207.616 303.989 Q209.445 300.424 209.445 293.318 Q209.445 286.188 207.616 282.647 Q205.811 279.082 202.176 279.082 M202.176 275.378 Q207.987 275.378 211.042 279.985 Q214.121 284.568 214.121 293.318 Q214.121 302.045 211.042 306.651 Q207.987 311.235 202.176 311.235 Q196.366 311.235 193.288 306.651 Q190.232 302.045 190.232 293.318 Q190.232 284.568 193.288 279.985 Q196.366 275.378 202.176 275.378 Z" fill="#000000" fill-rule="nonzero" fill-opacity="1" /><path clip-path="url(#clip870)" d="M226.366 306.628 L242.685 306.628 L242.685 310.563 L220.741 310.563 L220.741 306.628 Q223.403 303.873 227.986 299.244 Q232.593 294.591 233.773 293.249 Q236.019 290.725 236.898 288.989 Q237.801 287.23 237.801 285.54 Q237.801 282.786 235.857 281.05 Q233.935 279.313 230.834 279.313 Q228.635 279.313 226.181 280.077 Q223.75 280.841 220.973 282.392 L220.973 277.67 Q223.797 276.536 226.25 275.957 Q228.704 275.378 230.741 275.378 Q236.111 275.378 239.306 278.063 Q242.5 280.749 242.5 285.239 Q242.5 287.369 241.69 289.29 Q240.903 291.188 238.797 293.781 Q238.218 294.452 235.116 297.67 Q232.014 300.864 226.366 306.628 Z" fill="#000000" fill-rule="nonzero" fill-opacity="1" /><path clip-path="url(#clip870)" d="M262.5 294.151 Q259.167 294.151 257.246 295.934 Q255.347 297.716 255.347 300.841 Q255.347 303.966 257.246 305.748 Q259.167 307.531 262.5 307.531 Q265.833 307.531 267.755 305.748 Q269.676 303.943 269.676 300.841 Q269.676 297.716 267.755 295.934 Q265.857 294.151 262.5 294.151 M257.824 292.161 Q254.815 291.42 253.125 289.36 Q251.458 287.299 251.458 284.337 Q251.458 280.193 254.398 277.786 Q257.361 275.378 262.5 275.378 Q267.662 275.378 270.602 277.786 Q273.542 280.193 273.542 284.337 Q273.542 287.299 271.852 289.36 Q270.185 291.42 267.199 292.161 Q270.579 292.948 272.454 295.239 Q274.352 297.531 274.352 300.841 Q274.352 305.864 271.273 308.549 Q268.218 311.235 262.5 311.235 Q256.783 311.235 253.704 308.549 Q250.648 305.864 250.648 300.841 Q250.648 297.531 252.546 295.239 Q254.445 292.948 257.824 292.161 M256.111 284.776 Q256.111 287.462 257.778 288.966 Q259.468 290.471 262.5 290.471 Q265.509 290.471 267.199 288.966 Q268.912 287.462 268.912 284.776 Q268.912 282.091 267.199 280.587 Q265.509 279.082 262.5 279.082 Q259.468 279.082 257.778 280.587 Q256.111 282.091 256.111 284.776 Z" fill="#000000" fill-rule="nonzero" fill-opacity="1" /><path clip-path="url(#clip870)" d="M16.4842 874.557 L16.4842 864.976 L48.8219 852.85 L16.4842 840.659 L16.4842 831.079 L64.0042 831.079 L64.0042 837.349 L22.277 837.349 L54.8694 849.603 L54.8694 856.064 L22.277 868.318 L64.0042 868.318 L64.0042 874.557 L16.4842 874.557 Z" fill="#000000" fill-rule="nonzero" fill-opacity="1" /><path clip-path="url(#clip870)" d="M41.7242 795.781 Q42.4244 793.712 44.7161 791.771 Q47.0077 789.797 51.0181 787.824 L64.0042 781.299 L64.0042 788.206 L51.8138 794.285 Q47.0395 796.64 45.48 798.868 Q43.9204 801.065 43.9204 804.884 L43.9204 811.886 L64.0042 811.886 L64.0042 818.316 L16.4842 818.316 L16.4842 803.802 Q16.4842 795.654 19.8898 791.643 Q23.2955 787.633 30.1704 787.633 Q34.6582 787.633 37.6183 789.734 Q40.5784 791.802 41.7242 795.781 M21.7677 811.886 L38.6368 811.886 L38.6368 803.802 Q38.6368 799.155 36.5043 796.8 Q34.34 794.412 30.1704 794.412 Q26.0009 794.412 23.9002 796.8 Q21.7677 799.155 21.7677 803.802 L21.7677 811.886 Z" fill="#000000" fill-rule="nonzero" fill-opacity="1" /><path clip-path="url(#clip870)" d="M22.818 759.783 L46.4666 768.504 L46.4666 751.03 L22.818 759.783 M16.4842 763.411 L16.4842 756.123 L64.0042 738.012 L64.0042 744.696 L51.8138 749.025 L51.8138 770.446 L64.0042 774.774 L64.0042 781.554 L16.4842 763.411 Z" fill="#000000" fill-rule="nonzero" fill-opacity="1" /><path clip-path="url(#clip870)" d="M16.4842 731.074 L16.4842 701.027 L21.895 701.027 L21.895 724.644 L35.9632 724.644 L35.9632 702.014 L41.3741 702.014 L41.3741 724.644 L58.5933 724.644 L58.5933 700.455 L64.0042 700.455 L64.0042 731.074 L16.4842 731.074 Z" fill="#000000" fill-rule="nonzero" fill-opacity="1" /><path clip-path="url(#clip870)" d="M14.479 672.095 L19.3487 672.095 L19.3487 677.697 Q19.3487 680.848 20.6219 682.089 Q21.895 683.299 25.2052 683.299 L28.3562 683.299 L28.3562 673.655 L32.9077 673.655 L32.9077 683.299 L64.0042 683.299 L64.0042 689.187 L32.9077 689.187 L32.9077 694.789 L28.3562 694.789 L28.3562 689.187 L25.8736 689.187 Q19.9216 689.187 17.2162 686.418 Q14.479 683.649 14.479 677.633 L14.479 672.095 Z" fill="#000000" fill-rule="nonzero" fill-opacity="1" /><path clip-path="url(#clip870)" d="M579.747 12.096 L587.929 12.096 L587.929 65.6895 L617.379 65.6895 L617.379 72.576 L579.747 72.576 L579.747 12.096 Z" fill="#000000" fill-rule="nonzero" fill-opacity="1" /><path clip-path="url(#clip870)" d="M625.643 27.2059 L633.097 27.2059 L633.097 72.576 L625.643 72.576 L625.643 27.2059 M625.643 9.54393 L633.097 9.54393 L633.097 18.9825 L625.643 18.9825 L625.643 9.54393 Z" fill="#000000" fill-rule="nonzero" fill-opacity="1" /><path clip-path="url(#clip870)" d="M686.407 45.1919 L686.407 72.576 L678.953 72.576 L678.953 45.4349 Q678.953 38.994 676.442 35.7938 Q673.93 32.5936 668.907 32.5936 Q662.871 32.5936 659.387 36.4419 Q655.904 40.2903 655.904 46.9338 L655.904 72.576 L648.409 72.576 L648.409 27.2059 L655.904 27.2059 L655.904 34.2544 Q658.577 30.163 662.182 28.1376 Q665.828 26.1121 670.568 26.1121 Q678.386 26.1121 682.396 30.9732 Q686.407 35.7938 686.407 45.1919 Z" fill="#000000" fill-rule="nonzero" fill-opacity="1" /><path clip-path="url(#clip870)" d="M740.081 48.0275 L740.081 51.6733 L705.811 51.6733 Q706.297 59.3701 710.429 63.421 Q714.601 67.4314 722.014 67.4314 Q726.308 67.4314 730.319 66.3781 Q734.37 65.3249 738.339 63.2184 L738.339 70.267 Q734.329 71.9684 730.116 72.8596 Q725.903 73.7508 721.569 73.7508 Q710.712 73.7508 704.352 67.4314 Q698.033 61.1119 698.033 50.3365 Q698.033 39.1965 704.028 32.6746 Q710.064 26.1121 720.272 26.1121 Q729.427 26.1121 734.734 32.0264 Q740.081 37.9003 740.081 48.0275 M732.628 45.84 Q732.547 39.7232 729.184 36.0774 Q725.863 32.4315 720.353 32.4315 Q714.115 32.4315 710.348 35.9558 Q706.621 39.4801 706.054 45.8805 L732.628 45.84 Z" fill="#000000" fill-rule="nonzero" fill-opacity="1" /><path clip-path="url(#clip870)" d="M772.934 49.7694 Q763.901 49.7694 760.417 51.8354 Q756.933 53.9013 756.933 58.8839 Q756.933 62.8538 759.526 65.2034 Q762.159 67.5124 766.655 67.5124 Q772.853 67.5124 776.58 63.1374 Q780.347 58.7219 780.347 51.4303 L780.347 49.7694 L772.934 49.7694 M787.801 46.6907 L787.801 72.576 L780.347 72.576 L780.347 65.6895 Q777.795 69.8214 773.987 71.8063 Q770.18 73.7508 764.67 73.7508 Q757.703 73.7508 753.571 69.8619 Q749.479 65.9325 749.479 59.3701 Q749.479 51.7138 754.584 47.825 Q759.728 43.9361 769.896 43.9361 L780.347 43.9361 L780.347 43.2069 Q780.347 38.0623 776.945 35.2672 Q773.582 32.4315 767.465 32.4315 Q763.577 32.4315 759.89 33.3632 Q756.204 34.295 752.801 36.1584 L752.801 29.2718 Q756.893 27.692 760.741 26.9223 Q764.589 26.1121 768.235 26.1121 Q778.079 26.1121 782.94 31.2163 Q787.801 36.3204 787.801 46.6907 Z" fill="#000000" fill-rule="nonzero" fill-opacity="1" /><path clip-path="url(#clip870)" d="M829.444 34.1734 Q828.189 33.4443 826.69 33.1202 Q825.231 32.7556 823.449 32.7556 Q817.13 32.7556 813.727 36.8875 Q810.365 40.9789 810.365 48.6757 L810.365 72.576 L802.87 72.576 L802.87 27.2059 L810.365 27.2059 L810.365 34.2544 Q812.714 30.1225 816.481 28.1376 Q820.249 26.1121 825.636 26.1121 Q826.406 26.1121 827.338 26.2337 Q828.27 26.3147 829.404 26.5172 L829.444 34.1734 Z" fill="#000000" fill-rule="nonzero" fill-opacity="1" /><path clip-path="url(#clip870)" d="M892.638 44.2197 Q895.272 45.1109 897.743 48.0275 Q900.254 50.9442 902.766 56.0483 L911.07 72.576 L902.28 72.576 L894.542 57.061 Q891.545 50.9847 888.709 48.9997 Q885.914 47.0148 881.053 47.0148 L872.141 47.0148 L872.141 72.576 L863.958 72.576 L863.958 12.096 L882.43 12.096 Q892.8 12.096 897.905 16.4305 Q903.009 20.7649 903.009 29.5149 Q903.009 35.2267 900.335 38.994 Q897.702 42.7613 892.638 44.2197 M872.141 18.8205 L872.141 40.2903 L882.43 40.2903 Q888.344 40.2903 891.342 37.5762 Q894.38 34.8216 894.38 29.5149 Q894.38 24.2082 891.342 21.5346 Q888.344 18.8205 882.43 18.8205 L872.141 18.8205 Z" fill="#000000" fill-rule="nonzero" fill-opacity="1" /><path clip-path="url(#clip870)" d="M956.359 48.0275 L956.359 51.6733 L922.089 51.6733 Q922.575 59.3701 926.707 63.421 Q930.879 67.4314 938.292 67.4314 Q942.586 67.4314 946.596 66.3781 Q950.647 65.3249 954.617 63.2184 L954.617 70.267 Q950.607 71.9684 946.394 72.8596 Q942.181 73.7508 937.847 73.7508 Q926.99 73.7508 920.63 67.4314 Q914.311 61.1119 914.311 50.3365 Q914.311 39.1965 920.306 32.6746 Q926.342 26.1121 936.55 26.1121 Q945.705 26.1121 951.012 32.0264 Q956.359 37.9003 956.359 48.0275 M948.905 45.84 Q948.824 39.7232 945.462 36.0774 Q942.14 32.4315 936.631 32.4315 Q930.393 32.4315 926.626 35.9558 Q922.899 39.4801 922.332 45.8805 L948.905 45.84 Z" fill="#000000" fill-rule="nonzero" fill-opacity="1" /><path clip-path="url(#clip870)" d="M998.448 49.3643 Q998.448 41.2625 995.086 36.8065 Q991.764 32.3505 985.728 32.3505 Q979.733 32.3505 976.371 36.8065 Q973.049 41.2625 973.049 49.3643 Q973.049 57.4256 976.371 61.8816 Q979.733 66.3376 985.728 66.3376 Q991.764 66.3376 995.086 61.8816 Q998.448 57.4256 998.448 49.3643 M1005.9 66.9452 Q1005.9 78.5308 1000.76 84.1616 Q995.612 89.8329 984.999 89.8329 Q981.07 89.8329 977.586 89.2252 Q974.102 88.6581 970.821 87.4428 L970.821 80.1917 Q974.102 81.9741 977.302 82.8248 Q980.503 83.6755 983.824 83.6755 Q991.156 83.6755 994.802 79.8271 Q998.448 76.0193 998.448 68.282 L998.448 64.5957 Q996.139 68.6061 992.534 70.5911 Q988.928 72.576 983.905 72.576 Q975.56 72.576 970.456 66.2161 Q965.352 59.8562 965.352 49.3643 Q965.352 38.832 970.456 32.472 Q975.56 26.1121 983.905 26.1121 Q988.928 26.1121 992.534 28.0971 Q996.139 30.082 998.448 34.0924 L998.448 27.2059 L1005.9 27.2059 L1005.9 66.9452 Z" fill="#000000" fill-rule="nonzero" fill-opacity="1" /><path clip-path="url(#clip870)" d="M1047.55 34.1734 Q1046.29 33.4443 1044.79 33.1202 Q1043.33 32.7556 1041.55 32.7556 Q1035.23 32.7556 1031.83 36.8875 Q1028.47 40.9789 1028.47 48.6757 L1028.47 72.576 L1020.97 72.576 L1020.97 27.2059 L1028.47 27.2059 L1028.47 34.2544 Q1030.81 30.1225 1034.58 28.1376 Q1038.35 26.1121 1043.74 26.1121 Q1044.51 26.1121 1045.44 26.2337 Q1046.37 26.3147 1047.5 26.5172 L1047.55 34.1734 Z" fill="#000000" fill-rule="nonzero" fill-opacity="1" /><path clip-path="url(#clip870)" d="M1092.35 48.0275 L1092.35 51.6733 L1058.08 51.6733 Q1058.56 59.3701 1062.7 63.421 Q1066.87 67.4314 1074.28 67.4314 Q1078.57 67.4314 1082.59 66.3781 Q1086.64 65.3249 1090.61 63.2184 L1090.61 70.267 Q1086.6 71.9684 1082.38 72.8596 Q1078.17 73.7508 1073.84 73.7508 Q1062.98 73.7508 1056.62 67.4314 Q1050.3 61.1119 1050.3 50.3365 Q1050.3 39.1965 1056.29 32.6746 Q1062.33 26.1121 1072.54 26.1121 Q1081.69 26.1121 1087 32.0264 Q1092.35 37.9003 1092.35 48.0275 M1084.89 45.84 Q1084.81 39.7232 1081.45 36.0774 Q1078.13 32.4315 1072.62 32.4315 Q1066.38 32.4315 1062.61 35.9558 Q1058.89 39.4801 1058.32 45.8805 L1084.89 45.84 Z" fill="#000000" fill-rule="nonzero" fill-opacity="1" /><path clip-path="url(#clip870)" d="M1133.51 28.5427 L1133.51 35.5912 Q1130.35 33.9709 1126.94 33.1607 Q1123.54 32.3505 1119.89 32.3505 Q1114.34 32.3505 1111.55 34.0519 Q1108.79 35.7533 1108.79 39.156 Q1108.79 41.7486 1110.78 43.2475 Q1112.76 44.7058 1118.76 46.0426 L1121.31 46.6097 Q1129.25 48.3111 1132.57 51.4303 Q1135.94 54.509 1135.94 60.0587 Q1135.94 66.3781 1130.91 70.0644 Q1125.93 73.7508 1117.18 73.7508 Q1113.53 73.7508 1109.56 73.0216 Q1105.63 72.3329 1101.26 70.9151 L1101.26 63.2184 Q1105.39 65.3654 1109.4 66.4591 Q1113.41 67.5124 1117.34 67.5124 Q1122.61 67.5124 1125.44 65.73 Q1128.28 63.9071 1128.28 60.6258 Q1128.28 57.5877 1126.21 55.9673 Q1124.19 54.3469 1117.26 52.8481 L1114.67 52.2405 Q1107.74 50.7821 1104.66 47.7845 Q1101.58 44.7463 1101.58 39.4801 Q1101.58 33.0797 1106.12 29.5959 Q1110.66 26.1121 1119 26.1121 Q1123.13 26.1121 1126.78 26.7198 Q1130.43 27.3274 1133.51 28.5427 Z" fill="#000000" fill-rule="nonzero" fill-opacity="1" /><path clip-path="url(#clip870)" d="M1176.73 28.5427 L1176.73 35.5912 Q1173.57 33.9709 1170.17 33.1607 Q1166.76 32.3505 1163.12 32.3505 Q1157.57 32.3505 1154.77 34.0519 Q1152.02 35.7533 1152.02 39.156 Q1152.02 41.7486 1154 43.2475 Q1155.99 44.7058 1161.98 46.0426 L1164.54 46.6097 Q1172.47 48.3111 1175.8 51.4303 Q1179.16 54.509 1179.16 60.0587 Q1179.16 66.3781 1174.14 70.0644 Q1169.15 73.7508 1160.4 73.7508 Q1156.76 73.7508 1152.79 73.0216 Q1148.86 72.3329 1144.48 70.9151 L1144.48 63.2184 Q1148.62 65.3654 1152.63 66.4591 Q1156.64 67.5124 1160.57 67.5124 Q1165.83 67.5124 1168.67 65.73 Q1171.5 63.9071 1171.5 60.6258 Q1171.5 57.5877 1169.44 55.9673 Q1167.41 54.3469 1160.48 52.8481 L1157.89 52.2405 Q1150.96 50.7821 1147.89 47.7845 Q1144.81 44.7463 1144.81 39.4801 Q1144.81 33.0797 1149.34 29.5959 Q1153.88 26.1121 1162.23 26.1121 Q1166.36 26.1121 1170 26.7198 Q1173.65 27.3274 1176.73 28.5427 Z" fill="#000000" fill-rule="nonzero" fill-opacity="1" /><path clip-path="url(#clip870)" d="M1191.03 27.2059 L1198.48 27.2059 L1198.48 72.576 L1191.03 72.576 L1191.03 27.2059 M1191.03 9.54393 L1198.48 9.54393 L1198.48 18.9825 L1191.03 18.9825 L1191.03 9.54393 Z" fill="#000000" fill-rule="nonzero" fill-opacity="1" /><path clip-path="url(#clip870)" d="M1231.66 32.4315 Q1225.66 32.4315 1222.18 37.1306 Q1218.7 41.7891 1218.7 49.9314 Q1218.7 58.0738 1222.14 62.7728 Q1225.62 67.4314 1231.66 67.4314 Q1237.61 67.4314 1241.1 62.7323 Q1244.58 58.0333 1244.58 49.9314 Q1244.58 41.8701 1241.1 37.1711 Q1237.61 32.4315 1231.66 32.4315 M1231.66 26.1121 Q1241.38 26.1121 1246.93 32.4315 Q1252.48 38.7509 1252.48 49.9314 Q1252.48 61.0714 1246.93 67.4314 Q1241.38 73.7508 1231.66 73.7508 Q1221.9 73.7508 1216.35 67.4314 Q1210.84 61.0714 1210.84 49.9314 Q1210.84 38.7509 1216.35 32.4315 Q1221.9 26.1121 1231.66 26.1121 Z" fill="#000000" fill-rule="nonzero" fill-opacity="1" /><path clip-path="url(#clip870)" d="M1302.55 45.1919 L1302.55 72.576 L1295.1 72.576 L1295.1 45.4349 Q1295.1 38.994 1292.58 35.7938 Q1290.07 32.5936 1285.05 32.5936 Q1279.01 32.5936 1275.53 36.4419 Q1272.05 40.2903 1272.05 46.9338 L1272.05 72.576 L1264.55 72.576 L1264.55 27.2059 L1272.05 27.2059 L1272.05 34.2544 Q1274.72 30.163 1278.33 28.1376 Q1281.97 26.1121 1286.71 26.1121 Q1294.53 26.1121 1298.54 30.9732 Q1302.55 35.7938 1302.55 45.1919 Z" fill="#000000" fill-rule="nonzero" fill-opacity="1" /><path clip-path="url(#clip870)" d="M1319.32 62.2867 L1327.87 62.2867 L1327.87 72.576 L1319.32 72.576 L1319.32 62.2867 M1319.32 29.6769 L1327.87 29.6769 L1327.87 39.9662 L1319.32 39.9662 L1319.32 29.6769 Z" fill="#000000" fill-rule="nonzero" fill-opacity="1" /><path clip-path="url(#clip870)" d="M1372.06 12.096 L1384.26 12.096 L1399.69 53.2532 L1415.21 12.096 L1427.4 12.096 L1427.4 72.576 L1419.42 72.576 L1419.42 19.4686 L1403.82 60.9499 L1395.6 60.9499 L1380 19.4686 L1380 72.576 L1372.06 72.576 L1372.06 12.096 Z" fill="#000000" fill-rule="nonzero" fill-opacity="1" /><path clip-path="url(#clip870)" d="M1472.32 44.2197 Q1474.96 45.1109 1477.43 48.0275 Q1479.94 50.9442 1482.45 56.0483 L1490.75 72.576 L1481.96 72.576 L1474.23 57.061 Q1471.23 50.9847 1468.39 48.9997 Q1465.6 47.0148 1460.74 47.0148 L1451.83 47.0148 L1451.83 72.576 L1443.64 72.576 L1443.64 12.096 L1462.11 12.096 Q1472.48 12.096 1477.59 16.4305 Q1482.69 20.7649 1482.69 29.5149 Q1482.69 35.2267 1480.02 38.994 Q1477.39 42.7613 1472.32 44.2197 M1451.83 18.8205 L1451.83 40.2903 L1462.11 40.2903 Q1468.03 40.2903 1471.03 37.5762 Q1474.06 34.8216 1474.06 29.5149 Q1474.06 24.2082 1471.03 21.5346 Q1468.03 18.8205 1462.11 18.8205 L1451.83 18.8205 Z" fill="#000000" fill-rule="nonzero" fill-opacity="1" /><path clip-path="url(#clip870)" d="M1518.14 20.1573 L1507.04 50.2555 L1529.28 50.2555 L1518.14 20.1573 M1513.52 12.096 L1522.8 12.096 L1545.85 72.576 L1537.34 72.576 L1531.83 57.061 L1504.57 57.061 L1499.06 72.576 L1490.43 72.576 L1513.52 12.096 Z" fill="#000000" fill-rule="nonzero" fill-opacity="1" /><path clip-path="url(#clip870)" d="M1554.68 12.096 L1592.92 12.096 L1592.92 18.9825 L1562.86 18.9825 L1562.86 36.8875 L1591.66 36.8875 L1591.66 43.7741 L1562.86 43.7741 L1562.86 65.6895 L1593.65 65.6895 L1593.65 72.576 L1554.68 72.576 L1554.68 12.096 Z" fill="#000000" fill-rule="nonzero" fill-opacity="1" /><path clip-path="url(#clip870)" d="M1629.74 9.54393 L1629.74 15.7418 L1622.61 15.7418 Q1618.6 15.7418 1617.02 17.3622 Q1615.48 18.9825 1615.48 23.1955 L1615.48 27.2059 L1627.76 27.2059 L1627.76 32.9987 L1615.48 32.9987 L1615.48 72.576 L1607.99 72.576 L1607.99 32.9987 L1600.86 32.9987 L1600.86 27.2059 L1607.99 27.2059 L1607.99 24.0462 Q1607.99 16.471 1611.51 13.0277 Q1615.04 9.54393 1622.69 9.54393 L1629.74 9.54393 Z" fill="#000000" fill-rule="nonzero" fill-opacity="1" /><path clip-path="url(#clip870)" d="M1657 27.2059 L1664.9 27.2059 L1679.08 65.2844 L1693.26 27.2059 L1701.16 27.2059 L1684.14 72.576 L1674.02 72.576 L1657 27.2059 Z" fill="#000000" fill-rule="nonzero" fill-opacity="1" /><path clip-path="url(#clip870)" d="M1740.37 28.5427 L1740.37 35.5912 Q1737.21 33.9709 1733.81 33.1607 Q1730.41 32.3505 1726.76 32.3505 Q1721.21 32.3505 1718.42 34.0519 Q1715.66 35.7533 1715.66 39.156 Q1715.66 41.7486 1717.65 43.2475 Q1719.63 44.7058 1725.63 46.0426 L1728.18 46.6097 Q1736.12 48.3111 1739.44 51.4303 Q1742.8 54.509 1742.8 60.0587 Q1742.8 66.3781 1737.78 70.0644 Q1732.8 73.7508 1724.05 73.7508 Q1720.4 73.7508 1716.43 73.0216 Q1712.5 72.3329 1708.13 70.9151 L1708.13 63.2184 Q1712.26 65.3654 1716.27 66.4591 Q1720.28 67.5124 1724.21 67.5124 Q1729.47 67.5124 1732.31 65.73 Q1735.15 63.9071 1735.15 60.6258 Q1735.15 57.5877 1733.08 55.9673 Q1731.05 54.3469 1724.13 52.8481 L1721.53 52.2405 Q1714.61 50.7821 1711.53 47.7845 Q1708.45 44.7463 1708.45 39.4801 Q1708.45 33.0797 1712.99 29.5959 Q1717.52 26.1121 1725.87 26.1121 Q1730 26.1121 1733.65 26.7198 Q1737.29 27.3274 1740.37 28.5427 Z" fill="#000000" fill-rule="nonzero" fill-opacity="1" /><path clip-path="url(#clip870)" d="M1781.37 12.096 L1789.55 12.096 L1789.55 36.8875 L1819.28 36.8875 L1819.28 12.096 L1827.47 12.096 L1827.47 72.576 L1819.28 72.576 L1819.28 43.7741 L1789.55 43.7741 L1789.55 72.576 L1781.37 72.576 L1781.37 12.096 Z" fill="#000000" fill-rule="nonzero" fill-opacity="1" /><path clip-path="url(#clip870)" d="M1861.01 32.4315 Q1855.01 32.4315 1851.53 37.1306 Q1848.04 41.7891 1848.04 49.9314 Q1848.04 58.0738 1851.49 62.7728 Q1854.97 67.4314 1861.01 67.4314 Q1866.96 67.4314 1870.45 62.7323 Q1873.93 58.0333 1873.93 49.9314 Q1873.93 41.8701 1870.45 37.1711 Q1866.96 32.4315 1861.01 32.4315 M1861.01 26.1121 Q1870.73 26.1121 1876.28 32.4315 Q1881.83 38.7509 1881.83 49.9314 Q1881.83 61.0714 1876.28 67.4314 Q1870.73 73.7508 1861.01 73.7508 Q1851.24 73.7508 1845.69 67.4314 Q1840.19 61.0714 1840.19 49.9314 Q1840.19 38.7509 1845.69 32.4315 Q1851.24 26.1121 1861.01 26.1121 Z" fill="#000000" fill-rule="nonzero" fill-opacity="1" /><path clip-path="url(#clip870)" d="M1920.47 34.1734 Q1919.22 33.4443 1917.72 33.1202 Q1916.26 32.7556 1914.48 32.7556 Q1908.16 32.7556 1904.76 36.8875 Q1901.39 40.9789 1901.39 48.6757 L1901.39 72.576 L1893.9 72.576 L1893.9 27.2059 L1901.39 27.2059 L1901.39 34.2544 Q1903.74 30.1225 1907.51 28.1376 Q1911.28 26.1121 1916.67 26.1121 Q1917.44 26.1121 1918.37 26.2337 Q1919.3 26.3147 1920.43 26.5172 L1920.47 34.1734 Z" fill="#000000" fill-rule="nonzero" fill-opacity="1" /><path clip-path="url(#clip870)" d="M1928.29 27.2059 L1935.75 27.2059 L1935.75 72.576 L1928.29 72.576 L1928.29 27.2059 M1928.29 9.54393 L1935.75 9.54393 L1935.75 18.9825 L1928.29 18.9825 L1928.29 9.54393 Z" fill="#000000" fill-rule="nonzero" fill-opacity="1" /><path clip-path="url(#clip870)" d="M1948.1 27.2059 L1983.51 27.2059 L1983.51 34.0114 L1955.47 66.6212 L1983.51 66.6212 L1983.51 72.576 L1947.09 72.576 L1947.09 65.7705 L1975.12 33.1607 L1948.1 33.1607 L1948.1 27.2059 Z" fill="#000000" fill-rule="nonzero" fill-opacity="1" /><path clip-path="url(#clip870)" d="M2012.47 32.4315 Q2006.48 32.4315 2002.99 37.1306 Q1999.51 41.7891 1999.51 49.9314 Q1999.51 58.0738 2002.95 62.7728 Q2006.43 67.4314 2012.47 67.4314 Q2018.43 67.4314 2021.91 62.7323 Q2025.39 58.0333 2025.39 49.9314 Q2025.39 41.8701 2021.91 37.1711 Q2018.43 32.4315 2012.47 32.4315 M2012.47 26.1121 Q2022.19 26.1121 2027.74 32.4315 Q2033.29 38.7509 2033.29 49.9314 Q2033.29 61.0714 2027.74 67.4314 Q2022.19 73.7508 2012.47 73.7508 Q2002.71 73.7508 1997.16 67.4314 Q1991.65 61.0714 1991.65 49.9314 Q1991.65 38.7509 1997.16 32.4315 Q2002.71 26.1121 2012.47 26.1121 Z" fill="#000000" fill-rule="nonzero" fill-opacity="1" /><path clip-path="url(#clip870)" d="M2083.36 45.1919 L2083.36 72.576 L2075.91 72.576 L2075.91 45.4349 Q2075.91 38.994 2073.4 35.7938 Q2070.88 32.5936 2065.86 32.5936 Q2059.83 32.5936 2056.34 36.4419 Q2052.86 40.2903 2052.86 46.9338 L2052.86 72.576 L2045.36 72.576 L2045.36 27.2059 L2052.86 27.2059 L2052.86 34.2544 Q2055.53 30.163 2059.14 28.1376 Q2062.78 26.1121 2067.52 26.1121 Q2075.34 26.1121 2079.35 30.9732 Q2083.36 35.7938 2083.36 45.1919 Z" fill="#000000" fill-rule="nonzero" fill-opacity="1" /><circle clip-path="url(#clip872)" cx="368.156" cy="160.256" r="14.4" fill="#009af9" fill-rule="evenodd" fill-opacity="1" stroke="#000000" stroke-opacity="1" stroke-width="3.2"/>
<circle clip-path="url(#clip872)" cx="574.598" cy="552.889" r="14.4" fill="#009af9" fill-rule="evenodd" fill-opacity="1" stroke="#000000" stroke-opacity="1" stroke-width="3.2"/>
<circle clip-path="url(#clip872)" cx="918.669" cy="605.877" r="14.4" fill="#009af9" fill-rule="evenodd" fill-opacity="1" stroke="#000000" stroke-opacity="1" stroke-width="3.2"/>
<circle clip-path="url(#clip872)" cx="1262.74" cy="870.349" r="14.4" fill="#009af9" fill-rule="evenodd" fill-opacity="1" stroke="#000000" stroke-opacity="1" stroke-width="3.2"/>
<circle clip-path="url(#clip872)" cx="1606.81" cy="1244.32" r="14.4" fill="#009af9" fill-rule="evenodd" fill-opacity="1" stroke="#000000" stroke-opacity="1" stroke-width="3.2"/>
<circle clip-path="url(#clip872)" cx="2294.95" cy="1386.4" r="14.4" fill="#009af9" fill-rule="evenodd" fill-opacity="1" stroke="#000000" stroke-opacity="1" stroke-width="3.2"/>
<circle clip-path="url(#clip872)" cx="368.156" cy="458.002" r="14.4" fill="#e26f46" fill-rule="evenodd" fill-opacity="1" stroke="#000000" stroke-opacity="1" stroke-width="3.2"/>
<circle clip-path="url(#clip872)" cx="574.598" cy="681.64" r="14.4" fill="#e26f46" fill-rule="evenodd" fill-opacity="1" stroke="#000000" stroke-opacity="1" stroke-width="3.2"/>
<circle clip-path="url(#clip872)" cx="918.669" cy="676.134" r="14.4" fill="#e26f46" fill-rule="evenodd" fill-opacity="1" stroke="#000000" stroke-opacity="1" stroke-width="3.2"/>
<circle clip-path="url(#clip872)" cx="1262.74" cy="941.415" r="14.4" fill="#e26f46" fill-rule="evenodd" fill-opacity="1" stroke="#000000" stroke-opacity="1" stroke-width="3.2"/>
<circle clip-path="url(#clip872)" cx="1606.81" cy="1307.18" r="14.4" fill="#e26f46" fill-rule="evenodd" fill-opacity="1" stroke="#000000" stroke-opacity="1" stroke-width="3.2"/>
<circle clip-path="url(#clip872)" cx="2294.95" cy="1367.45" r="14.4" fill="#e26f46" fill-rule="evenodd" fill-opacity="1" stroke="#000000" stroke-opacity="1" stroke-width="3.2"/>
<path clip-path="url(#clip870)" d="M1744.03 322.316 L2284.68 322.316 L2284.68 166.796 L1744.03 166.796  Z" fill="#ffffff" fill-rule="evenodd" fill-opacity="1"/>
<polyline clip-path="url(#clip870)" style="stroke:#000000; stroke-linecap:round; stroke-linejoin:round; stroke-width:4; stroke-opacity:1; fill:none" points="1744.03,322.316 2284.68,322.316 2284.68,166.796 1744.03,166.796 1744.03,322.316 "/>
<circle clip-path="url(#clip870)" cx="1834.8" cy="218.636" r="20.48" fill="#009af9" fill-rule="evenodd" fill-opacity="1" stroke="#000000" stroke-opacity="1" stroke-width="4.55111"/>
<path clip-path="url(#clip870)" d="M1932.98 202.629 L1932.98 209.99 L1941.75 209.99 L1941.75 213.3 L1932.98 213.3 L1932.98 227.374 Q1932.98 230.545 1933.84 231.448 Q1934.72 232.351 1937.38 232.351 L1941.75 232.351 L1941.75 235.916 L1937.38 235.916 Q1932.45 235.916 1930.57 234.087 Q1928.7 232.235 1928.7 227.374 L1928.7 213.3 L1925.57 213.3 L1925.57 209.99 L1928.7 209.99 L1928.7 202.629 L1932.98 202.629 Z" fill="#000000" fill-rule="nonzero" fill-opacity="1" /><path clip-path="url(#clip870)" d="M1962.38 213.971 Q1961.66 213.555 1960.8 213.37 Q1959.97 213.161 1958.95 213.161 Q1955.34 213.161 1953.4 215.522 Q1951.47 217.86 1951.47 222.258 L1951.47 235.916 L1947.19 235.916 L1947.19 209.99 L1951.47 209.99 L1951.47 214.018 Q1952.82 211.657 1954.97 210.522 Q1957.12 209.365 1960.2 209.365 Q1960.64 209.365 1961.17 209.434 Q1961.71 209.481 1962.35 209.596 L1962.38 213.971 Z" fill="#000000" fill-rule="nonzero" fill-opacity="1" /><path clip-path="url(#clip870)" d="M1978.63 222.883 Q1973.47 222.883 1971.47 224.064 Q1969.48 225.244 1969.48 228.092 Q1969.48 230.36 1970.97 231.703 Q1972.47 233.022 1975.04 233.022 Q1978.58 233.022 1980.71 230.522 Q1982.86 227.999 1982.86 223.832 L1982.86 222.883 L1978.63 222.883 M1987.12 221.124 L1987.12 235.916 L1982.86 235.916 L1982.86 231.981 Q1981.41 234.342 1979.23 235.476 Q1977.05 236.587 1973.91 236.587 Q1969.92 236.587 1967.56 234.365 Q1965.22 232.119 1965.22 228.369 Q1965.22 223.994 1968.14 221.772 Q1971.08 219.55 1976.89 219.55 L1982.86 219.55 L1982.86 219.133 Q1982.86 216.194 1980.92 214.596 Q1979 212.976 1975.5 212.976 Q1973.28 212.976 1971.17 213.508 Q1969.07 214.041 1967.12 215.106 L1967.12 211.17 Q1969.46 210.268 1971.66 209.828 Q1973.86 209.365 1975.94 209.365 Q1981.57 209.365 1984.34 212.282 Q1987.12 215.198 1987.12 221.124 Z" fill="#000000" fill-rule="nonzero" fill-opacity="1" /><path clip-path="url(#clip870)" d="M1995.9 209.99 L2000.16 209.99 L2000.16 235.916 L1995.9 235.916 L1995.9 209.99 M1995.9 199.897 L2000.16 199.897 L2000.16 205.291 L1995.9 205.291 L1995.9 199.897 Z" fill="#000000" fill-rule="nonzero" fill-opacity="1" /><path clip-path="url(#clip870)" d="M2030.62 220.268 L2030.62 235.916 L2026.36 235.916 L2026.36 220.407 Q2026.36 216.726 2024.92 214.897 Q2023.49 213.069 2020.62 213.069 Q2017.17 213.069 2015.18 215.268 Q2013.19 217.467 2013.19 221.263 L2013.19 235.916 L2008.91 235.916 L2008.91 209.99 L2013.19 209.99 L2013.19 214.018 Q2014.72 211.68 2016.78 210.522 Q2018.86 209.365 2021.57 209.365 Q2026.03 209.365 2028.33 212.143 Q2030.62 214.897 2030.62 220.268 Z" fill="#000000" fill-rule="nonzero" fill-opacity="1" /><path clip-path="url(#clip870)" d="M2039.11 209.99 L2043.37 209.99 L2043.37 235.916 L2039.11 235.916 L2039.11 209.99 M2039.11 199.897 L2043.37 199.897 L2043.37 205.291 L2039.11 205.291 L2039.11 199.897 Z" fill="#000000" fill-rule="nonzero" fill-opacity="1" /><path clip-path="url(#clip870)" d="M2073.84 220.268 L2073.84 235.916 L2069.58 235.916 L2069.58 220.407 Q2069.58 216.726 2068.14 214.897 Q2066.71 213.069 2063.84 213.069 Q2060.39 213.069 2058.4 215.268 Q2056.4 217.467 2056.4 221.263 L2056.4 235.916 L2052.12 235.916 L2052.12 209.99 L2056.4 209.99 L2056.4 214.018 Q2057.93 211.68 2059.99 210.522 Q2062.08 209.365 2064.78 209.365 Q2069.25 209.365 2071.54 212.143 Q2073.84 214.897 2073.84 220.268 Z" fill="#000000" fill-rule="nonzero" fill-opacity="1" /><path clip-path="url(#clip870)" d="M2099.39 222.652 Q2099.39 218.022 2097.47 215.476 Q2095.57 212.93 2092.12 212.93 Q2088.7 212.93 2086.77 215.476 Q2084.88 218.022 2084.88 222.652 Q2084.88 227.258 2086.77 229.805 Q2088.7 232.351 2092.12 232.351 Q2095.57 232.351 2097.47 229.805 Q2099.39 227.258 2099.39 222.652 M2103.65 232.698 Q2103.65 239.318 2100.71 242.536 Q2097.77 245.777 2091.71 245.777 Q2089.46 245.777 2087.47 245.43 Q2085.48 245.105 2083.6 244.411 L2083.6 240.268 Q2085.48 241.286 2087.31 241.772 Q2089.14 242.258 2091.03 242.258 Q2095.22 242.258 2097.31 240.059 Q2099.39 237.883 2099.39 233.462 L2099.39 231.356 Q2098.07 233.647 2096.01 234.781 Q2093.95 235.916 2091.08 235.916 Q2086.31 235.916 2083.4 232.281 Q2080.48 228.647 2080.48 222.652 Q2080.48 216.633 2083.4 212.999 Q2086.31 209.365 2091.08 209.365 Q2093.95 209.365 2096.01 210.499 Q2098.07 211.633 2099.39 213.925 L2099.39 209.99 L2103.65 209.99 L2103.65 232.698 Z" fill="#000000" fill-rule="nonzero" fill-opacity="1" /><path clip-path="url(#clip870)" d="M2125.34 221.032 L2137.82 221.032 L2137.82 224.828 L2125.34 224.828 L2125.34 221.032 Z" fill="#000000" fill-rule="nonzero" fill-opacity="1" /><path clip-path="url(#clip870)" d="M2161.08 231.981 L2168.72 231.981 L2168.72 205.615 L2160.41 207.282 L2160.41 203.022 L2168.67 201.356 L2173.35 201.356 L2173.35 231.981 L2180.99 231.981 L2180.99 235.916 L2161.08 235.916 L2161.08 231.981 Z" fill="#000000" fill-rule="nonzero" fill-opacity="1" /><path clip-path="url(#clip870)" d="M2200.43 204.434 Q2196.82 204.434 2194.99 207.999 Q2193.19 211.541 2193.19 218.67 Q2193.19 225.777 2194.99 229.342 Q2196.82 232.883 2200.43 232.883 Q2204.07 232.883 2205.87 229.342 Q2207.7 225.777 2207.7 218.67 Q2207.7 211.541 2205.87 207.999 Q2204.07 204.434 2200.43 204.434 M2200.43 200.731 Q2206.24 200.731 2209.3 205.337 Q2212.38 209.92 2212.38 218.67 Q2212.38 227.397 2209.3 232.004 Q2206.24 236.587 2200.43 236.587 Q2194.62 236.587 2191.54 232.004 Q2188.49 227.397 2188.49 218.67 Q2188.49 209.92 2191.54 205.337 Q2194.62 200.731 2200.43 200.731 Z" fill="#000000" fill-rule="nonzero" fill-opacity="1" /><circle clip-path="url(#clip870)" cx="1834.8" cy="270.476" r="20.48" fill="#e26f46" fill-rule="evenodd" fill-opacity="1" stroke="#000000" stroke-opacity="1" stroke-width="4.55111"/>
<path clip-path="url(#clip870)" d="M1925.57 261.83 L1930.09 261.83 L1938.19 283.589 L1946.29 261.83 L1950.8 261.83 L1941.08 287.756 L1935.29 287.756 L1925.57 261.83 Z" fill="#000000" fill-rule="nonzero" fill-opacity="1" /><path clip-path="url(#clip870)" d="M1968.47 274.723 Q1963.3 274.723 1961.31 275.904 Q1959.32 277.084 1959.32 279.932 Q1959.32 282.2 1960.8 283.543 Q1962.31 284.862 1964.88 284.862 Q1968.42 284.862 1970.55 282.362 Q1972.7 279.839 1972.7 275.672 L1972.7 274.723 L1968.47 274.723 M1976.96 272.964 L1976.96 287.756 L1972.7 287.756 L1972.7 283.821 Q1971.24 286.182 1969.07 287.316 Q1966.89 288.427 1963.74 288.427 Q1959.76 288.427 1957.4 286.205 Q1955.06 283.959 1955.06 280.209 Q1955.06 275.834 1957.98 273.612 Q1960.92 271.39 1966.73 271.39 L1972.7 271.39 L1972.7 270.973 Q1972.7 268.034 1970.76 266.436 Q1968.84 264.816 1965.34 264.816 Q1963.12 264.816 1961.01 265.348 Q1958.91 265.881 1956.96 266.946 L1956.96 263.01 Q1959.3 262.108 1961.5 261.668 Q1963.7 261.205 1965.78 261.205 Q1971.41 261.205 1974.18 264.122 Q1976.96 267.038 1976.96 272.964 Z" fill="#000000" fill-rule="nonzero" fill-opacity="1" /><path clip-path="url(#clip870)" d="M1985.73 251.737 L1989.99 251.737 L1989.99 287.756 L1985.73 287.756 L1985.73 251.737 Z" fill="#000000" fill-rule="nonzero" fill-opacity="1" /><path clip-path="url(#clip870)" d="M1998.91 261.83 L2003.16 261.83 L2003.16 287.756 L1998.91 287.756 L1998.91 261.83 M1998.91 251.737 L2003.16 251.737 L2003.16 257.131 L1998.91 257.131 L1998.91 251.737 Z" fill="#000000" fill-rule="nonzero" fill-opacity="1" /><path clip-path="url(#clip870)" d="M2029.14 265.765 L2029.14 251.737 L2033.4 251.737 L2033.4 287.756 L2029.14 287.756 L2029.14 283.867 Q2027.79 286.182 2025.73 287.316 Q2023.7 288.427 2020.83 288.427 Q2016.13 288.427 2013.16 284.677 Q2010.22 280.927 2010.22 274.816 Q2010.22 268.705 2013.16 264.955 Q2016.13 261.205 2020.83 261.205 Q2023.7 261.205 2025.73 262.339 Q2027.79 263.45 2029.14 265.765 M2014.62 274.816 Q2014.62 279.515 2016.54 282.2 Q2018.49 284.862 2021.87 284.862 Q2025.25 284.862 2027.19 282.2 Q2029.14 279.515 2029.14 274.816 Q2029.14 270.117 2027.19 267.455 Q2025.25 264.77 2021.87 264.77 Q2018.49 264.77 2016.54 267.455 Q2014.62 270.117 2014.62 274.816 Z" fill="#000000" fill-rule="nonzero" fill-opacity="1" /><path clip-path="url(#clip870)" d="M2053.95 274.723 Q2048.79 274.723 2046.8 275.904 Q2044.81 277.084 2044.81 279.932 Q2044.81 282.2 2046.29 283.543 Q2047.79 284.862 2050.36 284.862 Q2053.9 284.862 2056.03 282.362 Q2058.19 279.839 2058.19 275.672 L2058.19 274.723 L2053.95 274.723 M2062.45 272.964 L2062.45 287.756 L2058.19 287.756 L2058.19 283.821 Q2056.73 286.182 2054.55 287.316 Q2052.38 288.427 2049.23 288.427 Q2045.25 288.427 2042.89 286.205 Q2040.55 283.959 2040.55 280.209 Q2040.55 275.834 2043.47 273.612 Q2046.4 271.39 2052.21 271.39 L2058.19 271.39 L2058.19 270.973 Q2058.19 268.034 2056.24 266.436 Q2054.32 264.816 2050.83 264.816 Q2048.6 264.816 2046.5 265.348 Q2044.39 265.881 2042.45 266.946 L2042.45 263.01 Q2044.78 262.108 2046.98 261.668 Q2049.18 261.205 2051.27 261.205 Q2056.89 261.205 2059.67 264.122 Q2062.45 267.038 2062.45 272.964 Z" fill="#000000" fill-rule="nonzero" fill-opacity="1" /><path clip-path="url(#clip870)" d="M2075.43 254.469 L2075.43 261.83 L2084.21 261.83 L2084.21 265.14 L2075.43 265.14 L2075.43 279.214 Q2075.43 282.385 2076.29 283.288 Q2077.17 284.191 2079.83 284.191 L2084.21 284.191 L2084.21 287.756 L2079.83 287.756 Q2074.9 287.756 2073.03 285.927 Q2071.15 284.075 2071.15 279.214 L2071.15 265.14 L2068.03 265.14 L2068.03 261.83 L2071.15 261.83 L2071.15 254.469 L2075.43 254.469 Z" fill="#000000" fill-rule="nonzero" fill-opacity="1" /><path clip-path="url(#clip870)" d="M2089.81 261.83 L2094.07 261.83 L2094.07 287.756 L2089.81 287.756 L2089.81 261.83 M2089.81 251.737 L2094.07 251.737 L2094.07 257.131 L2089.81 257.131 L2089.81 251.737 Z" fill="#000000" fill-rule="nonzero" fill-opacity="1" /><path clip-path="url(#clip870)" d="M2113.02 264.816 Q2109.6 264.816 2107.61 267.501 Q2105.62 270.163 2105.62 274.816 Q2105.62 279.469 2107.59 282.154 Q2109.58 284.816 2113.02 284.816 Q2116.43 284.816 2118.42 282.131 Q2120.41 279.446 2120.41 274.816 Q2120.41 270.21 2118.42 267.524 Q2116.43 264.816 2113.02 264.816 M2113.02 261.205 Q2118.58 261.205 2121.75 264.816 Q2124.92 268.427 2124.92 274.816 Q2124.92 281.182 2121.75 284.816 Q2118.58 288.427 2113.02 288.427 Q2107.45 288.427 2104.27 284.816 Q2101.13 281.182 2101.13 274.816 Q2101.13 268.427 2104.27 264.816 Q2107.45 261.205 2113.02 261.205 Z" fill="#000000" fill-rule="nonzero" fill-opacity="1" /><path clip-path="url(#clip870)" d="M2153.53 272.108 L2153.53 287.756 L2149.27 287.756 L2149.27 272.247 Q2149.27 268.566 2147.84 266.737 Q2146.4 264.909 2143.53 264.909 Q2140.08 264.909 2138.09 267.108 Q2136.1 269.307 2136.1 273.103 L2136.1 287.756 L2131.82 287.756 L2131.82 261.83 L2136.1 261.83 L2136.1 265.858 Q2137.63 263.52 2139.69 262.362 Q2141.77 261.205 2144.48 261.205 Q2148.95 261.205 2151.24 263.983 Q2153.53 266.737 2153.53 272.108 Z" fill="#000000" fill-rule="nonzero" fill-opacity="1" /><path clip-path="url(#clip870)" d="M2174.95 272.872 L2187.42 272.872 L2187.42 276.668 L2174.95 276.668 L2174.95 272.872 Z" fill="#000000" fill-rule="nonzero" fill-opacity="1" /><path clip-path="url(#clip870)" d="M2210.69 283.821 L2218.33 283.821 L2218.33 257.455 L2210.02 259.122 L2210.02 254.862 L2218.28 253.196 L2222.95 253.196 L2222.95 283.821 L2230.59 283.821 L2230.59 287.756 L2210.69 287.756 L2210.69 283.821 Z" fill="#000000" fill-rule="nonzero" fill-opacity="1" /><path clip-path="url(#clip870)" d="M2250.04 256.274 Q2246.43 256.274 2244.6 259.839 Q2242.79 263.381 2242.79 270.51 Q2242.79 277.617 2244.6 281.182 Q2246.43 284.723 2250.04 284.723 Q2253.67 284.723 2255.48 281.182 Q2257.31 277.617 2257.31 270.51 Q2257.31 263.381 2255.48 259.839 Q2253.67 256.274 2250.04 256.274 M2250.04 252.571 Q2255.85 252.571 2258.9 257.177 Q2261.98 261.76 2261.98 270.51 Q2261.98 279.237 2258.9 283.844 Q2255.85 288.427 2250.04 288.427 Q2244.23 288.427 2241.15 283.844 Q2238.09 279.237 2238.09 270.51 Q2238.09 261.76 2241.15 257.177 Q2244.23 252.571 2250.04 252.571 Z" fill="#000000" fill-rule="nonzero" fill-opacity="1" /></svg>
