<?xml version="1.0" encoding="utf-8"?>
<svg xmlns="http://www.w3.org/2000/svg" xmlns:xlink="http://www.w3.org/1999/xlink" width="600" height="400" viewBox="0 0 2400 1600">
<defs>
  <clipPath id="clip310">
    <rect x="0" y="0" width="2400" height="1600"/>
  </clipPath>
</defs>
<path clip-path="url(#clip310)" d="M0 1600 L2400 1600 L2400 0 L0 0  Z" fill="#ffffff" fill-rule="evenodd" fill-opacity="1"/>
<defs>
  <clipPath id="clip311">
    <rect x="480" y="0" width="1681" height="1600"/>
  </clipPath>
</defs>
<path clip-path="url(#clip310)" d="M367.409 1423.18 L2352.76 1423.18 L2352.76 123.472 L367.409 123.472  Z" fill="#ffffff" fill-rule="evenodd" fill-opacity="1"/>
<defs>
  <clipPath id="clip312">
    <rect x="367" y="123" width="1986" height="1301"/>
  </clipPath>
</defs>
<polyline clip-path="url(#clip312)" style="stroke:#000000; stroke-linecap:round; stroke-linejoin:round; stroke-width:2; stroke-opacity:0.1; fill:none" points="394.333,1423.18 394.333,123.472 "/>
<polyline clip-path="url(#clip312)" style="stroke:#000000; stroke-linecap:round; stroke-linejoin:round; stroke-width:2; stroke-opacity:0.1; fill:none" points="862.575,1423.18 862.575,123.472 "/>
<polyline clip-path="url(#clip312)" style="stroke:#000000; stroke-linecap:round; stroke-linejoin:round; stroke-width:2; stroke-opacity:0.1; fill:none" points="1330.82,1423.18 1330.82,123.472 "/>
<polyline clip-path="url(#clip312)" style="stroke:#000000; stroke-linecap:round; stroke-linejoin:round; stroke-width:2; stroke-opacity:0.1; fill:none" points="1799.06,1423.18 1799.06,123.472 "/>
<polyline clip-path="url(#clip312)" style="stroke:#000000; stroke-linecap:round; stroke-linejoin:round; stroke-width:2; stroke-opacity:0.1; fill:none" points="2267.3,1423.18 2267.3,123.472 "/>
<polyline clip-path="url(#clip310)" style="stroke:#000000; stroke-linecap:round; stroke-linejoin:round; stroke-width:4; stroke-opacity:1; fill:none" points="367.409,1423.18 2352.76,1423.18 "/>
<polyline clip-path="url(#clip310)" style="stroke:#000000; stroke-linecap:round; stroke-linejoin:round; stroke-width:4; stroke-opacity:1; fill:none" points="394.333,1423.18 394.333,1404.28 "/>
<polyline clip-path="url(#clip310)" style="stroke:#000000; stroke-linecap:round; stroke-linejoin:round; stroke-width:4; stroke-opacity:1; fill:none" points="862.575,1423.18 862.575,1404.28 "/>
<polyline clip-path="url(#clip310)" style="stroke:#000000; stroke-linecap:round; stroke-linejoin:round; stroke-width:4; stroke-opacity:1; fill:none" points="1330.82,1423.18 1330.82,1404.28 "/>
<polyline clip-path="url(#clip310)" style="stroke:#000000; stroke-linecap:round; stroke-linejoin:round; stroke-width:4; stroke-opacity:1; fill:none" points="1799.06,1423.18 1799.06,1404.28 "/>
<polyline clip-path="url(#clip310)" style="stroke:#000000; stroke-linecap:round; stroke-linejoin:round; stroke-width:4; stroke-opacity:1; fill:none" points="2267.3,1423.18 2267.3,1404.28 "/>
<path clip-path="url(#clip310)" d="M265.271 1481.64 L281.59 1481.64 L281.59 1485.58 L259.646 1485.58 L259.646 1481.64 Q262.308 1478.89 266.891 1474.26 Q271.498 1469.61 272.678 1468.27 Q274.924 1465.74 275.803 1464.01 Q276.706 1462.25 276.706 1460.56 Q276.706 1457.8 274.762 1456.07 Q272.84 1454.33 269.739 1454.33 Q267.54 1454.33 265.086 1455.09 Q262.655 1455.86 259.878 1457.41 L259.878 1452.69 Q262.702 1451.55 265.155 1450.97 Q267.609 1450.39 269.646 1450.39 Q275.016 1450.39 278.211 1453.08 Q281.405 1455.77 281.405 1460.26 Q281.405 1462.39 280.595 1464.31 Q279.808 1466.2 277.701 1468.8 Q277.123 1469.47 274.021 1472.69 Q270.919 1475.88 265.271 1481.64 Z" fill="#000000" fill-rule="nonzero" fill-opacity="1" /><path clip-path="url(#clip310)" d="M301.405 1454.1 Q297.794 1454.1 295.965 1457.66 Q294.16 1461.2 294.16 1468.33 Q294.16 1475.44 295.965 1479.01 Q297.794 1482.55 301.405 1482.55 Q305.039 1482.55 306.845 1479.01 Q308.674 1475.44 308.674 1468.33 Q308.674 1461.2 306.845 1457.66 Q305.039 1454.1 301.405 1454.1 M301.405 1450.39 Q307.215 1450.39 310.271 1455 Q313.349 1459.58 313.349 1468.33 Q313.349 1477.06 310.271 1481.67 Q307.215 1486.25 301.405 1486.25 Q295.595 1486.25 292.516 1481.67 Q289.461 1477.06 289.461 1468.33 Q289.461 1459.58 292.516 1455 Q295.595 1450.39 301.405 1450.39 Z" fill="#000000" fill-rule="nonzero" fill-opacity="1" /><path clip-path="url(#clip310)" d="M325.595 1481.64 L341.914 1481.64 L341.914 1485.58 L319.97 1485.58 L319.97 1481.64 Q322.632 1478.89 327.215 1474.26 Q331.822 1469.61 333.002 1468.27 Q335.247 1465.74 336.127 1464.01 Q337.03 1462.25 337.03 1460.56 Q337.03 1457.8 335.085 1456.07 Q333.164 1454.33 330.062 1454.33 Q327.863 1454.33 325.41 1455.09 Q322.979 1455.86 320.201 1457.41 L320.201 1452.69 Q323.025 1451.55 325.479 1450.97 Q327.933 1450.39 329.97 1450.39 Q335.34 1450.39 338.534 1453.08 Q341.729 1455.77 341.729 1460.26 Q341.729 1462.39 340.919 1464.31 Q340.132 1466.2 338.025 1468.8 Q337.447 1469.47 334.345 1472.69 Q331.243 1475.88 325.595 1481.64 Z" fill="#000000" fill-rule="nonzero" fill-opacity="1" /><path clip-path="url(#clip310)" d="M352.539 1481.64 L360.178 1481.64 L360.178 1455.28 L351.868 1456.95 L351.868 1452.69 L360.132 1451.02 L364.808 1451.02 L364.808 1481.64 L372.446 1481.64 L372.446 1485.58 L352.539 1485.58 L352.539 1481.64 Z" fill="#000000" fill-rule="nonzero" fill-opacity="1" /><path clip-path="url(#clip310)" d="M379.136 1470.7 L391.613 1470.7 L391.613 1474.49 L379.136 1474.49 L379.136 1470.7 Z" fill="#000000" fill-rule="nonzero" fill-opacity="1" /><path clip-path="url(#clip310)" d="M408.997 1454.1 Q405.386 1454.1 403.557 1457.66 Q401.752 1461.2 401.752 1468.33 Q401.752 1475.44 403.557 1479.01 Q405.386 1482.55 408.997 1482.55 Q412.631 1482.55 414.437 1479.01 Q416.266 1475.44 416.266 1468.33 Q416.266 1461.2 414.437 1457.66 Q412.631 1454.1 408.997 1454.1 M408.997 1450.39 Q414.807 1450.39 417.863 1455 Q420.941 1459.58 420.941 1468.33 Q420.941 1477.06 417.863 1481.67 Q414.807 1486.25 408.997 1486.25 Q403.187 1486.25 400.108 1481.67 Q397.053 1477.06 397.053 1468.33 Q397.053 1459.58 400.108 1455 Q403.187 1450.39 408.997 1450.39 Z" fill="#000000" fill-rule="nonzero" fill-opacity="1" /><path clip-path="url(#clip310)" d="M429.969 1481.64 L437.608 1481.64 L437.608 1455.28 L429.298 1456.95 L429.298 1452.69 L437.562 1451.02 L442.238 1451.02 L442.238 1481.64 L449.876 1481.64 L449.876 1485.58 L429.969 1485.58 L429.969 1481.64 Z" fill="#000000" fill-rule="nonzero" fill-opacity="1" /><path clip-path="url(#clip310)" d="M456.566 1470.7 L469.043 1470.7 L469.043 1474.49 L456.566 1474.49 L456.566 1470.7 Z" fill="#000000" fill-rule="nonzero" fill-opacity="1" /><path clip-path="url(#clip310)" d="M486.427 1454.1 Q482.816 1454.1 480.987 1457.66 Q479.182 1461.2 479.182 1468.33 Q479.182 1475.44 480.987 1479.01 Q482.816 1482.55 486.427 1482.55 Q490.061 1482.55 491.867 1479.01 Q493.696 1475.44 493.696 1468.33 Q493.696 1461.2 491.867 1457.66 Q490.061 1454.1 486.427 1454.1 M486.427 1450.39 Q492.237 1450.39 495.293 1455 Q498.372 1459.58 498.372 1468.33 Q498.372 1477.06 495.293 1481.67 Q492.237 1486.25 486.427 1486.25 Q480.617 1486.25 477.538 1481.67 Q474.483 1477.06 474.483 1468.33 Q474.483 1459.58 477.538 1455 Q480.617 1450.39 486.427 1450.39 Z" fill="#000000" fill-rule="nonzero" fill-opacity="1" /><path clip-path="url(#clip310)" d="M519.436 1455.09 L507.631 1473.54 L519.436 1473.54 L519.436 1455.09 M518.209 1451.02 L524.089 1451.02 L524.089 1473.54 L529.02 1473.54 L529.02 1477.43 L524.089 1477.43 L524.089 1485.58 L519.436 1485.58 L519.436 1477.43 L503.835 1477.43 L503.835 1472.92 L518.209 1451.02 Z" fill="#000000" fill-rule="nonzero" fill-opacity="1" /><path clip-path="url(#clip310)" d="M734.37 1481.64 L750.689 1481.64 L750.689 1485.58 L728.745 1485.58 L728.745 1481.64 Q731.407 1478.89 735.99 1474.26 Q740.597 1469.61 741.777 1468.27 Q744.022 1465.74 744.902 1464.01 Q745.805 1462.25 745.805 1460.56 Q745.805 1457.8 743.86 1456.07 Q741.939 1454.33 738.837 1454.33 Q736.638 1454.33 734.185 1455.09 Q731.754 1455.86 728.976 1457.41 L728.976 1452.69 Q731.8 1451.55 734.254 1450.97 Q736.708 1450.39 738.745 1450.39 Q744.115 1450.39 747.309 1453.08 Q750.504 1455.77 750.504 1460.26 Q750.504 1462.39 749.694 1464.31 Q748.907 1466.2 746.8 1468.8 Q746.221 1469.47 743.12 1472.69 Q740.018 1475.88 734.37 1481.64 Z" fill="#000000" fill-rule="nonzero" fill-opacity="1" /><path clip-path="url(#clip310)" d="M770.504 1454.1 Q766.893 1454.1 765.064 1457.66 Q763.258 1461.2 763.258 1468.33 Q763.258 1475.44 765.064 1479.01 Q766.893 1482.55 770.504 1482.55 Q774.138 1482.55 775.944 1479.01 Q777.772 1475.44 777.772 1468.33 Q777.772 1461.2 775.944 1457.66 Q774.138 1454.1 770.504 1454.1 M770.504 1450.39 Q776.314 1450.39 779.369 1455 Q782.448 1459.58 782.448 1468.33 Q782.448 1477.06 779.369 1481.67 Q776.314 1486.25 770.504 1486.25 Q764.694 1486.25 761.615 1481.67 Q758.559 1477.06 758.559 1468.33 Q758.559 1459.58 761.615 1455 Q764.694 1450.39 770.504 1450.39 Z" fill="#000000" fill-rule="nonzero" fill-opacity="1" /><path clip-path="url(#clip310)" d="M794.693 1481.64 L811.013 1481.64 L811.013 1485.58 L789.068 1485.58 L789.068 1481.64 Q791.731 1478.89 796.314 1474.26 Q800.92 1469.61 802.101 1468.27 Q804.346 1465.74 805.226 1464.01 Q806.129 1462.25 806.129 1460.56 Q806.129 1457.8 804.184 1456.07 Q802.263 1454.33 799.161 1454.33 Q796.962 1454.33 794.508 1455.09 Q792.078 1455.86 789.3 1457.41 L789.3 1452.69 Q792.124 1451.55 794.578 1450.97 Q797.031 1450.39 799.068 1450.39 Q804.439 1450.39 807.633 1453.08 Q810.828 1455.77 810.828 1460.26 Q810.828 1462.39 810.017 1464.31 Q809.23 1466.2 807.124 1468.8 Q806.545 1469.47 803.443 1472.69 Q800.342 1475.88 794.693 1481.64 Z" fill="#000000" fill-rule="nonzero" fill-opacity="1" /><path clip-path="url(#clip310)" d="M821.638 1481.64 L829.277 1481.64 L829.277 1455.28 L820.966 1456.95 L820.966 1452.69 L829.23 1451.02 L833.906 1451.02 L833.906 1481.64 L841.545 1481.64 L841.545 1485.58 L821.638 1485.58 L821.638 1481.64 Z" fill="#000000" fill-rule="nonzero" fill-opacity="1" /><path clip-path="url(#clip310)" d="M848.235 1470.7 L860.712 1470.7 L860.712 1474.49 L848.235 1474.49 L848.235 1470.7 Z" fill="#000000" fill-rule="nonzero" fill-opacity="1" /><path clip-path="url(#clip310)" d="M878.096 1454.1 Q874.485 1454.1 872.656 1457.66 Q870.85 1461.2 870.85 1468.33 Q870.85 1475.44 872.656 1479.01 Q874.485 1482.55 878.096 1482.55 Q881.73 1482.55 883.536 1479.01 Q885.364 1475.44 885.364 1468.33 Q885.364 1461.2 883.536 1457.66 Q881.73 1454.1 878.096 1454.1 M878.096 1450.39 Q883.906 1450.39 886.961 1455 Q890.04 1459.58 890.04 1468.33 Q890.04 1477.06 886.961 1481.67 Q883.906 1486.25 878.096 1486.25 Q872.286 1486.25 869.207 1481.67 Q866.151 1477.06 866.151 1468.33 Q866.151 1459.58 869.207 1455 Q872.286 1450.39 878.096 1450.39 Z" fill="#000000" fill-rule="nonzero" fill-opacity="1" /><path clip-path="url(#clip310)" d="M899.068 1481.64 L906.707 1481.64 L906.707 1455.28 L898.397 1456.95 L898.397 1452.69 L906.66 1451.02 L911.336 1451.02 L911.336 1481.64 L918.975 1481.64 L918.975 1485.58 L899.068 1485.58 L899.068 1481.64 Z" fill="#000000" fill-rule="nonzero" fill-opacity="1" /><path clip-path="url(#clip310)" d="M925.665 1470.7 L938.142 1470.7 L938.142 1474.49 L925.665 1474.49 L925.665 1470.7 Z" fill="#000000" fill-rule="nonzero" fill-opacity="1" /><path clip-path="url(#clip310)" d="M946.336 1481.64 L953.975 1481.64 L953.975 1455.28 L945.665 1456.95 L945.665 1452.69 L953.929 1451.02 L958.605 1451.02 L958.605 1481.64 L966.243 1481.64 L966.243 1485.58 L946.336 1485.58 L946.336 1481.64 Z" fill="#000000" fill-rule="nonzero" fill-opacity="1" /><path clip-path="url(#clip310)" d="M976.498 1481.64 L984.137 1481.64 L984.137 1455.28 L975.827 1456.95 L975.827 1452.69 L984.091 1451.02 L988.766 1451.02 L988.766 1481.64 L996.405 1481.64 L996.405 1485.58 L976.498 1485.58 L976.498 1481.64 Z" fill="#000000" fill-rule="nonzero" fill-opacity="1" /><path clip-path="url(#clip310)" d="M1202.04 1481.64 L1218.36 1481.64 L1218.36 1485.58 L1196.42 1485.58 L1196.42 1481.64 Q1199.08 1478.89 1203.67 1474.26 Q1208.27 1469.61 1209.45 1468.27 Q1211.7 1465.74 1212.58 1464.01 Q1213.48 1462.25 1213.48 1460.56 Q1213.48 1457.8 1211.54 1456.07 Q1209.61 1454.33 1206.51 1454.33 Q1204.31 1454.33 1201.86 1455.09 Q1199.43 1455.86 1196.65 1457.41 L1196.65 1452.69 Q1199.48 1451.55 1201.93 1450.97 Q1204.38 1450.39 1206.42 1450.39 Q1211.79 1450.39 1214.98 1453.08 Q1218.18 1455.77 1218.18 1460.26 Q1218.18 1462.39 1217.37 1464.31 Q1216.58 1466.2 1214.48 1468.8 Q1213.9 1469.47 1210.79 1472.69 Q1207.69 1475.88 1202.04 1481.64 Z" fill="#000000" fill-rule="nonzero" fill-opacity="1" /><path clip-path="url(#clip310)" d="M1238.18 1454.1 Q1234.57 1454.1 1232.74 1457.66 Q1230.93 1461.2 1230.93 1468.33 Q1230.93 1475.44 1232.74 1479.01 Q1234.57 1482.55 1238.18 1482.55 Q1241.81 1482.55 1243.62 1479.01 Q1245.45 1475.44 1245.45 1468.33 Q1245.45 1461.2 1243.62 1457.66 Q1241.81 1454.1 1238.18 1454.1 M1238.18 1450.39 Q1243.99 1450.39 1247.04 1455 Q1250.12 1459.58 1250.12 1468.33 Q1250.12 1477.06 1247.04 1481.67 Q1243.99 1486.25 1238.18 1486.25 Q1232.37 1486.25 1229.29 1481.67 Q1226.23 1477.06 1226.23 1468.33 Q1226.23 1459.58 1229.29 1455 Q1232.37 1450.39 1238.18 1450.39 Z" fill="#000000" fill-rule="nonzero" fill-opacity="1" /><path clip-path="url(#clip310)" d="M1262.37 1481.64 L1278.69 1481.64 L1278.69 1485.58 L1256.74 1485.58 L1256.74 1481.64 Q1259.41 1478.89 1263.99 1474.26 Q1268.6 1469.61 1269.78 1468.27 Q1272.02 1465.74 1272.9 1464.01 Q1273.8 1462.25 1273.8 1460.56 Q1273.8 1457.8 1271.86 1456.07 Q1269.94 1454.33 1266.84 1454.33 Q1264.64 1454.33 1262.18 1455.09 Q1259.75 1455.86 1256.98 1457.41 L1256.98 1452.69 Q1259.8 1451.55 1262.25 1450.97 Q1264.71 1450.39 1266.74 1450.39 Q1272.11 1450.39 1275.31 1453.08 Q1278.5 1455.77 1278.5 1460.26 Q1278.5 1462.39 1277.69 1464.31 Q1276.91 1466.2 1274.8 1468.8 Q1274.22 1469.47 1271.12 1472.69 Q1268.02 1475.88 1262.37 1481.64 Z" fill="#000000" fill-rule="nonzero" fill-opacity="1" /><path clip-path="url(#clip310)" d="M1289.31 1481.64 L1296.95 1481.64 L1296.95 1455.28 L1288.64 1456.95 L1288.64 1452.69 L1296.91 1451.02 L1301.58 1451.02 L1301.58 1481.64 L1309.22 1481.64 L1309.22 1485.58 L1289.31 1485.58 L1289.31 1481.64 Z" fill="#000000" fill-rule="nonzero" fill-opacity="1" /><path clip-path="url(#clip310)" d="M1315.91 1470.7 L1328.39 1470.7 L1328.39 1474.49 L1315.91 1474.49 L1315.91 1470.7 Z" fill="#000000" fill-rule="nonzero" fill-opacity="1" /><path clip-path="url(#clip310)" d="M1345.77 1454.1 Q1342.16 1454.1 1340.33 1457.66 Q1338.53 1461.2 1338.53 1468.33 Q1338.53 1475.44 1340.33 1479.01 Q1342.16 1482.55 1345.77 1482.55 Q1349.41 1482.55 1351.21 1479.01 Q1353.04 1475.44 1353.04 1468.33 Q1353.04 1461.2 1351.21 1457.66 Q1349.41 1454.1 1345.77 1454.1 M1345.77 1450.39 Q1351.58 1450.39 1354.64 1455 Q1357.72 1459.58 1357.72 1468.33 Q1357.72 1477.06 1354.64 1481.67 Q1351.58 1486.25 1345.77 1486.25 Q1339.96 1486.25 1336.88 1481.67 Q1333.83 1477.06 1333.83 1468.33 Q1333.83 1459.58 1336.88 1455 Q1339.96 1450.39 1345.77 1450.39 Z" fill="#000000" fill-rule="nonzero" fill-opacity="1" /><path clip-path="url(#clip310)" d="M1366.74 1481.64 L1374.38 1481.64 L1374.38 1455.28 L1366.07 1456.95 L1366.07 1452.69 L1374.34 1451.02 L1379.01 1451.02 L1379.01 1481.64 L1386.65 1481.64 L1386.65 1485.58 L1366.74 1485.58 L1366.74 1481.64 Z" fill="#000000" fill-rule="nonzero" fill-opacity="1" /><path clip-path="url(#clip310)" d="M1393.34 1470.7 L1405.82 1470.7 L1405.82 1474.49 L1393.34 1474.49 L1393.34 1470.7 Z" fill="#000000" fill-rule="nonzero" fill-opacity="1" /><path clip-path="url(#clip310)" d="M1414.01 1481.64 L1421.65 1481.64 L1421.65 1455.28 L1413.34 1456.95 L1413.34 1452.69 L1421.6 1451.02 L1426.28 1451.02 L1426.28 1481.64 L1433.92 1481.64 L1433.92 1485.58 L1414.01 1485.58 L1414.01 1481.64 Z" fill="#000000" fill-rule="nonzero" fill-opacity="1" /><path clip-path="url(#clip310)" d="M1453.36 1469.17 Q1450.03 1469.17 1448.11 1470.95 Q1446.21 1472.73 1446.21 1475.86 Q1446.21 1478.98 1448.11 1480.77 Q1450.03 1482.55 1453.36 1482.55 Q1456.7 1482.55 1458.62 1480.77 Q1460.54 1478.96 1460.54 1475.86 Q1460.54 1472.73 1458.62 1470.95 Q1456.72 1469.17 1453.36 1469.17 M1448.69 1467.18 Q1445.68 1466.44 1443.99 1464.38 Q1442.32 1462.32 1442.32 1459.35 Q1442.32 1455.21 1445.26 1452.8 Q1448.22 1450.39 1453.36 1450.39 Q1458.52 1450.39 1461.46 1452.8 Q1464.4 1455.21 1464.4 1459.35 Q1464.4 1462.32 1462.71 1464.38 Q1461.05 1466.44 1458.06 1467.18 Q1461.44 1467.96 1463.32 1470.26 Q1465.21 1472.55 1465.21 1475.86 Q1465.21 1480.88 1462.14 1483.57 Q1459.08 1486.25 1453.36 1486.25 Q1447.65 1486.25 1444.57 1483.57 Q1441.51 1480.88 1441.51 1475.86 Q1441.51 1472.55 1443.41 1470.26 Q1445.31 1467.96 1448.69 1467.18 M1446.97 1459.79 Q1446.97 1462.48 1448.64 1463.98 Q1450.33 1465.49 1453.36 1465.49 Q1456.37 1465.49 1458.06 1463.98 Q1459.77 1462.48 1459.77 1459.79 Q1459.77 1457.11 1458.06 1455.6 Q1456.37 1454.1 1453.36 1454.1 Q1450.33 1454.1 1448.64 1455.6 Q1446.97 1457.11 1446.97 1459.79 Z" fill="#000000" fill-rule="nonzero" fill-opacity="1" /><path clip-path="url(#clip310)" d="M1670.74 1481.64 L1687.06 1481.64 L1687.06 1485.58 L1665.11 1485.58 L1665.11 1481.64 Q1667.78 1478.89 1672.36 1474.26 Q1676.97 1469.61 1678.15 1468.27 Q1680.39 1465.74 1681.27 1464.01 Q1682.17 1462.25 1682.17 1460.56 Q1682.17 1457.8 1680.23 1456.07 Q1678.31 1454.33 1675.21 1454.33 Q1673.01 1454.33 1670.55 1455.09 Q1668.12 1455.86 1665.34 1457.41 L1665.34 1452.69 Q1668.17 1451.55 1670.62 1450.97 Q1673.08 1450.39 1675.11 1450.39 Q1680.48 1450.39 1683.68 1453.08 Q1686.87 1455.77 1686.87 1460.26 Q1686.87 1462.39 1686.06 1464.31 Q1685.28 1466.2 1683.17 1468.8 Q1682.59 1469.47 1679.49 1472.69 Q1676.39 1475.88 1670.74 1481.64 Z" fill="#000000" fill-rule="nonzero" fill-opacity="1" /><path clip-path="url(#clip310)" d="M1706.87 1454.1 Q1703.26 1454.1 1701.43 1457.66 Q1699.63 1461.2 1699.63 1468.33 Q1699.63 1475.44 1701.43 1479.01 Q1703.26 1482.55 1706.87 1482.55 Q1710.51 1482.55 1712.31 1479.01 Q1714.14 1475.44 1714.14 1468.33 Q1714.14 1461.2 1712.31 1457.66 Q1710.51 1454.1 1706.87 1454.1 M1706.87 1450.39 Q1712.68 1450.39 1715.74 1455 Q1718.82 1459.58 1718.82 1468.33 Q1718.82 1477.06 1715.74 1481.67 Q1712.68 1486.25 1706.87 1486.25 Q1701.06 1486.25 1697.98 1481.67 Q1694.93 1477.06 1694.93 1468.33 Q1694.93 1459.58 1697.98 1455 Q1701.06 1450.39 1706.87 1450.39 Z" fill="#000000" fill-rule="nonzero" fill-opacity="1" /><path clip-path="url(#clip310)" d="M1731.06 1481.64 L1747.38 1481.64 L1747.38 1485.58 L1725.44 1485.58 L1725.44 1481.64 Q1728.1 1478.89 1732.68 1474.26 Q1737.29 1469.61 1738.47 1468.27 Q1740.71 1465.74 1741.59 1464.01 Q1742.5 1462.25 1742.5 1460.56 Q1742.5 1457.8 1740.55 1456.07 Q1738.63 1454.33 1735.53 1454.33 Q1733.33 1454.33 1730.88 1455.09 Q1728.45 1455.86 1725.67 1457.41 L1725.67 1452.69 Q1728.49 1451.55 1730.95 1450.97 Q1733.4 1450.39 1735.44 1450.39 Q1740.81 1450.39 1744 1453.08 Q1747.2 1455.77 1747.2 1460.26 Q1747.2 1462.39 1746.39 1464.31 Q1745.6 1466.2 1743.49 1468.8 Q1742.91 1469.47 1739.81 1472.69 Q1736.71 1475.88 1731.06 1481.64 Z" fill="#000000" fill-rule="nonzero" fill-opacity="1" /><path clip-path="url(#clip310)" d="M1758.01 1481.64 L1765.65 1481.64 L1765.65 1455.28 L1757.34 1456.95 L1757.34 1452.69 L1765.6 1451.02 L1770.27 1451.02 L1770.27 1481.64 L1777.91 1481.64 L1777.91 1485.58 L1758.01 1485.58 L1758.01 1481.64 Z" fill="#000000" fill-rule="nonzero" fill-opacity="1" /><path clip-path="url(#clip310)" d="M1784.6 1470.7 L1797.08 1470.7 L1797.08 1474.49 L1784.6 1474.49 L1784.6 1470.7 Z" fill="#000000" fill-rule="nonzero" fill-opacity="1" /><path clip-path="url(#clip310)" d="M1814.46 1454.1 Q1810.85 1454.1 1809.02 1457.66 Q1807.22 1461.2 1807.22 1468.33 Q1807.22 1475.44 1809.02 1479.01 Q1810.85 1482.55 1814.46 1482.55 Q1818.1 1482.55 1819.9 1479.01 Q1821.73 1475.44 1821.73 1468.33 Q1821.73 1461.2 1819.9 1457.66 Q1818.1 1454.1 1814.46 1454.1 M1814.46 1450.39 Q1820.27 1450.39 1823.33 1455 Q1826.41 1459.58 1826.41 1468.33 Q1826.41 1477.06 1823.33 1481.67 Q1820.27 1486.25 1814.46 1486.25 Q1808.65 1486.25 1805.58 1481.67 Q1802.52 1477.06 1802.52 1468.33 Q1802.52 1459.58 1805.58 1455 Q1808.65 1450.39 1814.46 1450.39 Z" fill="#000000" fill-rule="nonzero" fill-opacity="1" /><path clip-path="url(#clip310)" d="M1835.44 1481.64 L1843.08 1481.64 L1843.08 1455.28 L1834.77 1456.95 L1834.77 1452.69 L1843.03 1451.02 L1847.71 1451.02 L1847.71 1481.64 L1855.34 1481.64 L1855.34 1485.58 L1835.44 1485.58 L1835.44 1481.64 Z" fill="#000000" fill-rule="nonzero" fill-opacity="1" /><path clip-path="url(#clip310)" d="M1862.03 1470.7 L1874.51 1470.7 L1874.51 1474.49 L1862.03 1474.49 L1862.03 1470.7 Z" fill="#000000" fill-rule="nonzero" fill-opacity="1" /><path clip-path="url(#clip310)" d="M1885.92 1481.64 L1902.24 1481.64 L1902.24 1485.58 L1880.3 1485.58 L1880.3 1481.64 Q1882.96 1478.89 1887.54 1474.26 Q1892.15 1469.61 1893.33 1468.27 Q1895.58 1465.74 1896.45 1464.01 Q1897.36 1462.25 1897.36 1460.56 Q1897.36 1457.8 1895.41 1456.07 Q1893.49 1454.33 1890.39 1454.33 Q1888.19 1454.33 1885.74 1455.09 Q1883.31 1455.86 1880.53 1457.41 L1880.53 1452.69 Q1883.35 1451.55 1885.81 1450.97 Q1888.26 1450.39 1890.3 1450.39 Q1895.67 1450.39 1898.86 1453.08 Q1902.06 1455.77 1902.06 1460.26 Q1902.06 1462.39 1901.25 1464.31 Q1900.46 1466.2 1898.35 1468.8 Q1897.77 1469.47 1894.67 1472.69 Q1891.57 1475.88 1885.92 1481.64 Z" fill="#000000" fill-rule="nonzero" fill-opacity="1" /><path clip-path="url(#clip310)" d="M1912.1 1451.02 L1930.46 1451.02 L1930.46 1454.96 L1916.39 1454.96 L1916.39 1463.43 Q1917.4 1463.08 1918.42 1462.92 Q1919.44 1462.73 1920.46 1462.73 Q1926.25 1462.73 1929.63 1465.9 Q1933.01 1469.08 1933.01 1474.49 Q1933.01 1480.07 1929.53 1483.17 Q1926.06 1486.25 1919.74 1486.25 Q1917.57 1486.25 1915.3 1485.88 Q1913.05 1485.51 1910.64 1484.77 L1910.64 1480.07 Q1912.73 1481.2 1914.95 1481.76 Q1917.17 1482.32 1919.65 1482.32 Q1923.65 1482.32 1925.99 1480.21 Q1928.33 1478.1 1928.33 1474.49 Q1928.33 1470.88 1925.99 1468.77 Q1923.65 1466.67 1919.65 1466.67 Q1917.77 1466.67 1915.9 1467.08 Q1914.05 1467.5 1912.1 1468.38 L1912.1 1451.02 Z" fill="#000000" fill-rule="nonzero" fill-opacity="1" /><path clip-path="url(#clip310)" d="M2139.1 1481.64 L2155.42 1481.64 L2155.42 1485.58 L2133.47 1485.58 L2133.47 1481.64 Q2136.13 1478.89 2140.72 1474.26 Q2145.32 1469.61 2146.5 1468.27 Q2148.75 1465.74 2149.63 1464.01 Q2150.53 1462.25 2150.53 1460.56 Q2150.53 1457.8 2148.59 1456.07 Q2146.67 1454.33 2143.56 1454.33 Q2141.36 1454.33 2138.91 1455.09 Q2136.48 1455.86 2133.7 1457.41 L2133.7 1452.69 Q2136.53 1451.55 2138.98 1450.97 Q2141.43 1450.39 2143.47 1450.39 Q2148.84 1450.39 2152.04 1453.08 Q2155.23 1455.77 2155.23 1460.26 Q2155.23 1462.39 2154.42 1464.31 Q2153.63 1466.2 2151.53 1468.8 Q2150.95 1469.47 2147.85 1472.69 Q2144.74 1475.88 2139.1 1481.64 Z" fill="#000000" fill-rule="nonzero" fill-opacity="1" /><path clip-path="url(#clip310)" d="M2175.23 1454.1 Q2171.62 1454.1 2169.79 1457.66 Q2167.99 1461.2 2167.99 1468.33 Q2167.99 1475.44 2169.79 1479.01 Q2171.62 1482.55 2175.23 1482.55 Q2178.86 1482.55 2180.67 1479.01 Q2182.5 1475.44 2182.5 1468.33 Q2182.5 1461.2 2180.67 1457.66 Q2178.86 1454.1 2175.23 1454.1 M2175.23 1450.39 Q2181.04 1450.39 2184.1 1455 Q2187.17 1459.58 2187.17 1468.33 Q2187.17 1477.06 2184.1 1481.67 Q2181.04 1486.25 2175.23 1486.25 Q2169.42 1486.25 2166.34 1481.67 Q2163.29 1477.06 2163.29 1468.33 Q2163.29 1459.58 2166.34 1455 Q2169.42 1450.39 2175.23 1450.39 Z" fill="#000000" fill-rule="nonzero" fill-opacity="1" /><path clip-path="url(#clip310)" d="M2199.42 1481.64 L2215.74 1481.64 L2215.74 1485.58 L2193.8 1485.58 L2193.8 1481.64 Q2196.46 1478.89 2201.04 1474.26 Q2205.65 1469.61 2206.83 1468.27 Q2209.07 1465.74 2209.95 1464.01 Q2210.86 1462.25 2210.86 1460.56 Q2210.86 1457.8 2208.91 1456.07 Q2206.99 1454.33 2203.89 1454.33 Q2201.69 1454.33 2199.23 1455.09 Q2196.8 1455.86 2194.03 1457.41 L2194.03 1452.69 Q2196.85 1451.55 2199.3 1450.97 Q2201.76 1450.39 2203.8 1450.39 Q2209.17 1450.39 2212.36 1453.08 Q2215.55 1455.77 2215.55 1460.26 Q2215.55 1462.39 2214.74 1464.31 Q2213.96 1466.2 2211.85 1468.8 Q2211.27 1469.47 2208.17 1472.69 Q2205.07 1475.88 2199.42 1481.64 Z" fill="#000000" fill-rule="nonzero" fill-opacity="1" /><path clip-path="url(#clip310)" d="M2226.36 1481.64 L2234 1481.64 L2234 1455.28 L2225.69 1456.95 L2225.69 1452.69 L2233.96 1451.02 L2238.63 1451.02 L2238.63 1481.64 L2246.27 1481.64 L2246.27 1485.58 L2226.36 1485.58 L2226.36 1481.64 Z" fill="#000000" fill-rule="nonzero" fill-opacity="1" /><path clip-path="url(#clip310)" d="M2252.96 1470.7 L2265.44 1470.7 L2265.44 1474.49 L2252.96 1474.49 L2252.96 1470.7 Z" fill="#000000" fill-rule="nonzero" fill-opacity="1" /><path clip-path="url(#clip310)" d="M2282.82 1454.1 Q2279.21 1454.1 2277.38 1457.66 Q2275.58 1461.2 2275.58 1468.33 Q2275.58 1475.44 2277.38 1479.01 Q2279.21 1482.55 2282.82 1482.55 Q2286.46 1482.55 2288.26 1479.01 Q2290.09 1475.44 2290.09 1468.33 Q2290.09 1461.2 2288.26 1457.66 Q2286.46 1454.1 2282.82 1454.1 M2282.82 1450.39 Q2288.63 1450.39 2291.69 1455 Q2294.77 1459.58 2294.77 1468.33 Q2294.77 1477.06 2291.69 1481.67 Q2288.63 1486.25 2282.82 1486.25 Q2277.01 1486.25 2273.93 1481.67 Q2270.88 1477.06 2270.88 1468.33 Q2270.88 1459.58 2273.93 1455 Q2277.01 1450.39 2282.82 1450.39 Z" fill="#000000" fill-rule="nonzero" fill-opacity="1" /><path clip-path="url(#clip310)" d="M2307.01 1481.64 L2323.33 1481.64 L2323.33 1485.58 L2301.39 1485.58 L2301.39 1481.64 Q2304.05 1478.89 2308.63 1474.26 Q2313.24 1469.61 2314.42 1468.27 Q2316.66 1465.74 2317.54 1464.01 Q2318.45 1462.25 2318.45 1460.56 Q2318.45 1457.8 2316.5 1456.07 Q2314.58 1454.33 2311.48 1454.33 Q2309.28 1454.33 2306.83 1455.09 Q2304.4 1455.86 2301.62 1457.41 L2301.62 1452.69 Q2304.44 1451.55 2306.9 1450.97 Q2309.35 1450.39 2311.39 1450.39 Q2316.76 1450.39 2319.95 1453.08 Q2323.15 1455.77 2323.15 1460.26 Q2323.15 1462.39 2322.34 1464.31 Q2321.55 1466.2 2319.44 1468.8 Q2318.86 1469.47 2315.76 1472.69 Q2312.66 1475.88 2307.01 1481.64 Z" fill="#000000" fill-rule="nonzero" fill-opacity="1" /><path clip-path="url(#clip310)" d="M2330.39 1470.7 L2342.87 1470.7 L2342.87 1474.49 L2330.39 1474.49 L2330.39 1470.7 Z" fill="#000000" fill-rule="nonzero" fill-opacity="1" /><path clip-path="url(#clip310)" d="M2360.25 1454.1 Q2356.64 1454.1 2354.81 1457.66 Q2353.01 1461.2 2353.01 1468.33 Q2353.01 1475.44 2354.81 1479.01 Q2356.64 1482.55 2360.25 1482.55 Q2363.89 1482.55 2365.69 1479.01 Q2367.52 1475.44 2367.52 1468.33 Q2367.52 1461.2 2365.69 1457.66 Q2363.89 1454.1 2360.25 1454.1 M2360.25 1450.39 Q2366.06 1450.39 2369.12 1455 Q2372.2 1459.58 2372.2 1468.33 Q2372.2 1477.06 2369.12 1481.67 Q2366.06 1486.25 2360.25 1486.25 Q2354.44 1486.25 2351.36 1481.67 Q2348.31 1477.06 2348.31 1468.33 Q2348.31 1459.58 2351.36 1455 Q2354.44 1450.39 2360.25 1450.39 Z" fill="#000000" fill-rule="nonzero" fill-opacity="1" /><path clip-path="url(#clip310)" d="M2381.22 1481.64 L2388.86 1481.64 L2388.86 1455.28 L2380.55 1456.95 L2380.55 1452.69 L2388.82 1451.02 L2393.49 1451.02 L2393.49 1481.64 L2401.13 1481.64 L2401.13 1485.58 L2381.22 1485.58 L2381.22 1481.64 Z" fill="#000000" fill-rule="nonzero" fill-opacity="1" /><path clip-path="url(#clip310)" d="M1316.13 1537.81 L1316.13 1518.52 L1321.98 1518.52 L1321.98 1568.04 L1316.13 1568.04 L1316.13 1562.7 Q1314.28 1565.88 1311.45 1567.44 Q1308.65 1568.97 1304.7 1568.97 Q1298.24 1568.97 1294.17 1563.81 Q1290.12 1558.65 1290.12 1550.25 Q1290.12 1541.85 1294.17 1536.69 Q1298.24 1531.54 1304.7 1531.54 Q1308.65 1531.54 1311.45 1533.1 Q1314.28 1534.62 1316.13 1537.81 M1296.17 1550.25 Q1296.17 1556.71 1298.81 1560.4 Q1301.49 1564.07 1306.13 1564.07 Q1310.78 1564.07 1313.45 1560.4 Q1316.13 1556.71 1316.13 1550.25 Q1316.13 1543.79 1313.45 1540.13 Q1310.78 1536.44 1306.13 1536.44 Q1301.49 1536.44 1298.81 1540.13 Q1296.17 1543.79 1296.17 1550.25 Z" fill="#000000" fill-rule="nonzero" fill-opacity="1" /><path clip-path="url(#clip310)" d="M1350.25 1550.12 Q1343.15 1550.12 1340.41 1551.75 Q1337.68 1553.37 1337.68 1557.29 Q1337.68 1560.4 1339.71 1562.25 Q1341.78 1564.07 1345.31 1564.07 Q1350.18 1564.07 1353.11 1560.63 Q1356.07 1557.16 1356.07 1551.43 L1356.07 1550.12 L1350.25 1550.12 M1361.93 1547.71 L1361.93 1568.04 L1356.07 1568.04 L1356.07 1562.63 Q1354.07 1565.88 1351.07 1567.44 Q1348.08 1568.97 1343.75 1568.97 Q1338.28 1568.97 1335.03 1565.91 Q1331.82 1562.82 1331.82 1557.67 Q1331.82 1551.65 1335.83 1548.6 Q1339.87 1545.54 1347.86 1545.54 L1356.07 1545.54 L1356.07 1544.97 Q1356.07 1540.93 1353.4 1538.73 Q1350.76 1536.5 1345.95 1536.5 Q1342.89 1536.5 1340 1537.23 Q1337.1 1537.97 1334.43 1539.43 L1334.43 1534.02 Q1337.64 1532.78 1340.67 1532.17 Q1343.69 1531.54 1346.56 1531.54 Q1354.29 1531.54 1358.11 1535.55 Q1361.93 1539.56 1361.93 1547.71 Z" fill="#000000" fill-rule="nonzero" fill-opacity="1" /><path clip-path="url(#clip310)" d="M1379.78 1522.27 L1379.78 1532.4 L1391.85 1532.4 L1391.85 1536.95 L1379.78 1536.95 L1379.78 1556.3 Q1379.78 1560.66 1380.96 1561.9 Q1382.17 1563.14 1385.83 1563.14 L1391.85 1563.14 L1391.85 1568.04 L1385.83 1568.04 Q1379.05 1568.04 1376.47 1565.53 Q1373.9 1562.98 1373.9 1556.3 L1373.9 1536.95 L1369.6 1536.95 L1369.6 1532.4 L1373.9 1532.4 L1373.9 1522.27 L1379.78 1522.27 Z" fill="#000000" fill-rule="nonzero" fill-opacity="1" /><path clip-path="url(#clip310)" d="M1430.04 1548.76 L1430.04 1551.62 L1403.11 1551.62 Q1403.5 1557.67 1406.74 1560.85 Q1410.02 1564 1415.85 1564 Q1419.22 1564 1422.37 1563.17 Q1425.55 1562.35 1428.67 1560.69 L1428.67 1566.23 Q1425.52 1567.57 1422.21 1568.27 Q1418.9 1568.97 1415.5 1568.97 Q1406.97 1568.97 1401.97 1564 Q1397 1559.04 1397 1550.57 Q1397 1541.82 1401.71 1536.69 Q1406.46 1531.54 1414.48 1531.54 Q1421.67 1531.54 1425.84 1536.18 Q1430.04 1540.8 1430.04 1548.76 M1424.19 1547.04 Q1424.12 1542.23 1421.48 1539.37 Q1418.87 1536.5 1414.54 1536.5 Q1409.64 1536.5 1406.68 1539.27 Q1403.75 1542.04 1403.31 1547.07 L1424.19 1547.04 Z" fill="#000000" fill-rule="nonzero" fill-opacity="1" /><polyline clip-path="url(#clip312)" style="stroke:#000000; stroke-linecap:round; stroke-linejoin:round; stroke-width:2; stroke-opacity:0.1; fill:none" points="367.409,1386.4 2352.76,1386.4 "/>
<polyline clip-path="url(#clip312)" style="stroke:#000000; stroke-linecap:round; stroke-linejoin:round; stroke-width:2; stroke-opacity:0.1; fill:none" points="367.409,1059.85 2352.76,1059.85 "/>
<polyline clip-path="url(#clip312)" style="stroke:#000000; stroke-linecap:round; stroke-linejoin:round; stroke-width:2; stroke-opacity:0.1; fill:none" points="367.409,733.308 2352.76,733.308 "/>
<polyline clip-path="url(#clip312)" style="stroke:#000000; stroke-linecap:round; stroke-linejoin:round; stroke-width:2; stroke-opacity:0.1; fill:none" points="367.409,406.764 2352.76,406.764 "/>
<polyline clip-path="url(#clip310)" style="stroke:#000000; stroke-linecap:round; stroke-linejoin:round; stroke-width:4; stroke-opacity:1; fill:none" points="367.409,1423.18 367.409,123.472 "/>
<polyline clip-path="url(#clip310)" style="stroke:#000000; stroke-linecap:round; stroke-linejoin:round; stroke-width:4; stroke-opacity:1; fill:none" points="367.409,1386.4 386.307,1386.4 "/>
<polyline clip-path="url(#clip310)" style="stroke:#000000; stroke-linecap:round; stroke-linejoin:round; stroke-width:4; stroke-opacity:1; fill:none" points="367.409,1059.85 386.307,1059.85 "/>
<polyline clip-path="url(#clip310)" style="stroke:#000000; stroke-linecap:round; stroke-linejoin:round; stroke-width:4; stroke-opacity:1; fill:none" points="367.409,733.308 386.307,733.308 "/>
<polyline clip-path="url(#clip310)" style="stroke:#000000; stroke-linecap:round; stroke-linejoin:round; stroke-width:4; stroke-opacity:1; fill:none" points="367.409,406.764 386.307,406.764 "/>
<path clip-path="url(#clip310)" d="M116.668 1406.19 L124.306 1406.19 L124.306 1379.82 L115.996 1381.49 L115.996 1377.23 L124.26 1375.56 L128.936 1375.56 L128.936 1406.19 L136.575 1406.19 L136.575 1410.12 L116.668 1410.12 L116.668 1406.19 Z" fill="#000000" fill-rule="nonzero" fill-opacity="1" /><path clip-path="url(#clip310)" d="M146.019 1404.24 L150.903 1404.24 L150.903 1410.12 L146.019 1410.12 L146.019 1404.24 Z" fill="#000000" fill-rule="nonzero" fill-opacity="1" /><path clip-path="url(#clip310)" d="M171.089 1378.64 Q167.477 1378.64 165.649 1382.21 Q163.843 1385.75 163.843 1392.88 Q163.843 1399.98 165.649 1403.55 Q167.477 1407.09 171.089 1407.09 Q174.723 1407.09 176.528 1403.55 Q178.357 1399.98 178.357 1392.88 Q178.357 1385.75 176.528 1382.21 Q174.723 1378.64 171.089 1378.64 M171.089 1374.94 Q176.899 1374.94 179.954 1379.54 Q183.033 1384.13 183.033 1392.88 Q183.033 1401.6 179.954 1406.21 Q176.899 1410.79 171.089 1410.79 Q165.278 1410.79 162.2 1406.21 Q159.144 1401.6 159.144 1392.88 Q159.144 1384.13 162.2 1379.54 Q165.278 1374.94 171.089 1374.94 Z" fill="#000000" fill-rule="nonzero" fill-opacity="1" /><path clip-path="url(#clip310)" d="M201.25 1378.64 Q197.639 1378.64 195.811 1382.21 Q194.005 1385.75 194.005 1392.88 Q194.005 1399.98 195.811 1403.55 Q197.639 1407.09 201.25 1407.09 Q204.885 1407.09 206.69 1403.55 Q208.519 1399.98 208.519 1392.88 Q208.519 1385.75 206.69 1382.21 Q204.885 1378.64 201.25 1378.64 M201.25 1374.94 Q207.061 1374.94 210.116 1379.54 Q213.195 1384.13 213.195 1392.88 Q213.195 1401.6 210.116 1406.21 Q207.061 1410.79 201.25 1410.79 Q195.44 1410.79 192.362 1406.21 Q189.306 1401.6 189.306 1392.88 Q189.306 1384.13 192.362 1379.54 Q195.44 1374.94 201.25 1374.94 Z" fill="#000000" fill-rule="nonzero" fill-opacity="1" /><path clip-path="url(#clip310)" d="M249.584 1384.66 L239.005 1395.29 L249.584 1405.86 L246.829 1408.66 L236.204 1398.04 L225.579 1408.66 L222.848 1405.86 L233.403 1395.29 L222.848 1384.66 L225.579 1381.86 L236.204 1392.48 L246.829 1381.86 L249.584 1384.66 Z" fill="#000000" fill-rule="nonzero" fill-opacity="1" /><path clip-path="url(#clip310)" d="M261.945 1406.19 L269.583 1406.19 L269.583 1379.82 L261.273 1381.49 L261.273 1377.23 L269.537 1375.56 L274.213 1375.56 L274.213 1406.19 L281.852 1406.19 L281.852 1410.12 L261.945 1410.12 L261.945 1406.19 Z" fill="#000000" fill-rule="nonzero" fill-opacity="1" /><path clip-path="url(#clip310)" d="M301.296 1378.64 Q297.685 1378.64 295.856 1382.21 Q294.051 1385.75 294.051 1392.88 Q294.051 1399.98 295.856 1403.55 Q297.685 1407.09 301.296 1407.09 Q304.93 1407.09 306.736 1403.55 Q308.565 1399.98 308.565 1392.88 Q308.565 1385.75 306.736 1382.21 Q304.93 1378.64 301.296 1378.64 M301.296 1374.94 Q307.106 1374.94 310.162 1379.54 Q313.241 1384.13 313.241 1392.88 Q313.241 1401.6 310.162 1406.21 Q307.106 1410.79 301.296 1410.79 Q295.486 1410.79 292.407 1406.21 Q289.352 1401.6 289.352 1392.88 Q289.352 1384.13 292.407 1379.54 Q295.486 1374.94 301.296 1374.94 Z" fill="#000000" fill-rule="nonzero" fill-opacity="1" /><path clip-path="url(#clip310)" d="M314.425 1354.63 L329.34 1354.63 L329.34 1357.83 L317.905 1357.83 L317.905 1364.71 Q318.732 1364.43 319.56 1364.3 Q320.388 1364.15 321.215 1364.15 Q325.917 1364.15 328.663 1366.73 Q331.409 1369.3 331.409 1373.7 Q331.409 1378.24 328.588 1380.76 Q325.767 1383.26 320.632 1383.26 Q318.864 1383.26 317.021 1382.96 Q315.197 1382.66 313.241 1382.05 L313.241 1378.24 Q314.933 1379.16 316.739 1379.61 Q318.544 1380.06 320.557 1380.06 Q323.811 1380.06 325.71 1378.35 Q327.61 1376.64 327.61 1373.7 Q327.61 1370.77 325.71 1369.06 Q323.811 1367.35 320.557 1367.35 Q319.033 1367.35 317.51 1367.69 Q316.005 1368.02 314.425 1368.74 L314.425 1354.63 Z" fill="#000000" fill-rule="nonzero" fill-opacity="1" /><path clip-path="url(#clip310)" d="M116.668 1079.64 L124.306 1079.64 L124.306 1053.28 L115.996 1054.95 L115.996 1050.69 L124.26 1049.02 L128.936 1049.02 L128.936 1079.64 L136.575 1079.64 L136.575 1083.58 L116.668 1083.58 L116.668 1079.64 Z" fill="#000000" fill-rule="nonzero" fill-opacity="1" /><path clip-path="url(#clip310)" d="M146.019 1077.7 L150.903 1077.7 L150.903 1083.58 L146.019 1083.58 L146.019 1077.7 Z" fill="#000000" fill-rule="nonzero" fill-opacity="1" /><path clip-path="url(#clip310)" d="M161.135 1049.02 L179.491 1049.02 L179.491 1052.95 L165.417 1052.95 L165.417 1061.43 Q166.436 1061.08 167.454 1060.92 Q168.473 1060.73 169.491 1060.73 Q175.278 1060.73 178.658 1063.9 Q182.038 1067.07 182.038 1072.49 Q182.038 1078.07 178.565 1081.17 Q175.093 1084.25 168.774 1084.25 Q166.598 1084.25 164.329 1083.88 Q162.084 1083.51 159.677 1082.77 L159.677 1078.07 Q161.76 1079.2 163.982 1079.76 Q166.204 1080.32 168.681 1080.32 Q172.686 1080.32 175.024 1078.21 Q177.362 1076.1 177.362 1072.49 Q177.362 1068.88 175.024 1066.77 Q172.686 1064.67 168.681 1064.67 Q166.806 1064.67 164.931 1065.08 Q163.079 1065.5 161.135 1066.38 L161.135 1049.02 Z" fill="#000000" fill-rule="nonzero" fill-opacity="1" /><path clip-path="url(#clip310)" d="M201.25 1052.1 Q197.639 1052.1 195.811 1055.66 Q194.005 1059.2 194.005 1066.33 Q194.005 1073.44 195.811 1077.01 Q197.639 1080.55 201.25 1080.55 Q204.885 1080.55 206.69 1077.01 Q208.519 1073.44 208.519 1066.33 Q208.519 1059.2 206.69 1055.66 Q204.885 1052.1 201.25 1052.1 M201.25 1048.39 Q207.061 1048.39 210.116 1053 Q213.195 1057.58 213.195 1066.33 Q213.195 1075.06 210.116 1079.67 Q207.061 1084.25 201.25 1084.25 Q195.44 1084.25 192.362 1079.67 Q189.306 1075.06 189.306 1066.33 Q189.306 1057.58 192.362 1053 Q195.44 1048.39 201.25 1048.39 Z" fill="#000000" fill-rule="nonzero" fill-opacity="1" /><path clip-path="url(#clip310)" d="M249.584 1058.12 L239.005 1068.74 L249.584 1079.32 L246.829 1082.12 L236.204 1071.5 L225.579 1082.12 L222.848 1079.32 L233.403 1068.74 L222.848 1058.12 L225.579 1055.32 L236.204 1065.94 L246.829 1055.32 L249.584 1058.12 Z" fill="#000000" fill-rule="nonzero" fill-opacity="1" /><path clip-path="url(#clip310)" d="M261.945 1079.64 L269.583 1079.64 L269.583 1053.28 L261.273 1054.95 L261.273 1050.69 L269.537 1049.02 L274.213 1049.02 L274.213 1079.64 L281.852 1079.64 L281.852 1083.58 L261.945 1083.58 L261.945 1079.64 Z" fill="#000000" fill-rule="nonzero" fill-opacity="1" /><path clip-path="url(#clip310)" d="M301.296 1052.1 Q297.685 1052.1 295.856 1055.66 Q294.051 1059.2 294.051 1066.33 Q294.051 1073.44 295.856 1077.01 Q297.685 1080.55 301.296 1080.55 Q304.93 1080.55 306.736 1077.01 Q308.565 1073.44 308.565 1066.33 Q308.565 1059.2 306.736 1055.66 Q304.93 1052.1 301.296 1052.1 M301.296 1048.39 Q307.106 1048.39 310.162 1053 Q313.241 1057.58 313.241 1066.33 Q313.241 1075.06 310.162 1079.67 Q307.106 1084.25 301.296 1084.25 Q295.486 1084.25 292.407 1079.67 Q289.352 1075.06 289.352 1066.33 Q289.352 1057.58 292.407 1053 Q295.486 1048.39 301.296 1048.39 Z" fill="#000000" fill-rule="nonzero" fill-opacity="1" /><path clip-path="url(#clip310)" d="M314.425 1028.09 L329.34 1028.09 L329.34 1031.29 L317.905 1031.29 L317.905 1038.17 Q318.732 1037.89 319.56 1037.76 Q320.388 1037.61 321.215 1037.61 Q325.917 1037.61 328.663 1040.18 Q331.409 1042.76 331.409 1047.16 Q331.409 1051.69 328.588 1054.21 Q325.767 1056.71 320.632 1056.71 Q318.864 1056.71 317.021 1056.41 Q315.197 1056.11 313.241 1055.51 L313.241 1051.69 Q314.933 1052.61 316.739 1053.07 Q318.544 1053.52 320.557 1053.52 Q323.811 1053.52 325.71 1051.81 Q327.61 1050.09 327.61 1047.16 Q327.61 1044.23 325.71 1042.51 Q323.811 1040.8 320.557 1040.8 Q319.033 1040.8 317.51 1041.14 Q316.005 1041.48 314.425 1042.19 L314.425 1028.09 Z" fill="#000000" fill-rule="nonzero" fill-opacity="1" /><path clip-path="url(#clip310)" d="M119.885 753.1 L136.204 753.1 L136.204 757.036 L114.26 757.036 L114.26 753.1 Q116.922 750.346 121.505 745.716 Q126.112 741.063 127.292 739.721 Q129.538 737.198 130.417 735.462 Q131.32 733.702 131.32 732.012 Q131.32 729.258 129.376 727.522 Q127.455 725.786 124.353 725.786 Q122.154 725.786 119.7 726.55 Q117.269 727.313 114.492 728.864 L114.492 724.142 Q117.316 723.008 119.769 722.429 Q122.223 721.851 124.26 721.851 Q129.63 721.851 132.825 724.536 Q136.019 727.221 136.019 731.712 Q136.019 733.841 135.209 735.762 Q134.422 737.661 132.316 740.253 Q131.737 740.924 128.635 744.142 Q125.533 747.336 119.885 753.1 Z" fill="#000000" fill-rule="nonzero" fill-opacity="1" /><path clip-path="url(#clip310)" d="M146.019 751.156 L150.903 751.156 L150.903 757.036 L146.019 757.036 L146.019 751.156 Z" fill="#000000" fill-rule="nonzero" fill-opacity="1" /><path clip-path="url(#clip310)" d="M171.089 725.554 Q167.477 725.554 165.649 729.119 Q163.843 732.661 163.843 739.79 Q163.843 746.897 165.649 750.461 Q167.477 754.003 171.089 754.003 Q174.723 754.003 176.528 750.461 Q178.357 746.897 178.357 739.79 Q178.357 732.661 176.528 729.119 Q174.723 725.554 171.089 725.554 M171.089 721.851 Q176.899 721.851 179.954 726.457 Q183.033 731.04 183.033 739.79 Q183.033 748.517 179.954 753.123 Q176.899 757.707 171.089 757.707 Q165.278 757.707 162.2 753.123 Q159.144 748.517 159.144 739.79 Q159.144 731.04 162.2 726.457 Q165.278 721.851 171.089 721.851 Z" fill="#000000" fill-rule="nonzero" fill-opacity="1" /><path clip-path="url(#clip310)" d="M201.25 725.554 Q197.639 725.554 195.811 729.119 Q194.005 732.661 194.005 739.79 Q194.005 746.897 195.811 750.461 Q197.639 754.003 201.25 754.003 Q204.885 754.003 206.69 750.461 Q208.519 746.897 208.519 739.79 Q208.519 732.661 206.69 729.119 Q204.885 725.554 201.25 725.554 M201.25 721.851 Q207.061 721.851 210.116 726.457 Q213.195 731.04 213.195 739.79 Q213.195 748.517 210.116 753.123 Q207.061 757.707 201.25 757.707 Q195.44 757.707 192.362 753.123 Q189.306 748.517 189.306 739.79 Q189.306 731.04 192.362 726.457 Q195.44 721.851 201.25 721.851 Z" fill="#000000" fill-rule="nonzero" fill-opacity="1" /><path clip-path="url(#clip310)" d="M249.584 731.573 L239.005 742.198 L249.584 752.776 L246.829 755.577 L236.204 744.952 L225.579 755.577 L222.848 752.776 L233.403 742.198 L222.848 731.573 L225.579 728.772 L236.204 739.397 L246.829 728.772 L249.584 731.573 Z" fill="#000000" fill-rule="nonzero" fill-opacity="1" /><path clip-path="url(#clip310)" d="M261.945 753.1 L269.583 753.1 L269.583 726.735 L261.273 728.401 L261.273 724.142 L269.537 722.476 L274.213 722.476 L274.213 753.1 L281.852 753.1 L281.852 757.036 L261.945 757.036 L261.945 753.1 Z" fill="#000000" fill-rule="nonzero" fill-opacity="1" /><path clip-path="url(#clip310)" d="M301.296 725.554 Q297.685 725.554 295.856 729.119 Q294.051 732.661 294.051 739.79 Q294.051 746.897 295.856 750.461 Q297.685 754.003 301.296 754.003 Q304.93 754.003 306.736 750.461 Q308.565 746.897 308.565 739.79 Q308.565 732.661 306.736 729.119 Q304.93 725.554 301.296 725.554 M301.296 721.851 Q307.106 721.851 310.162 726.457 Q313.241 731.04 313.241 739.79 Q313.241 748.517 310.162 753.123 Q307.106 757.707 301.296 757.707 Q295.486 757.707 292.407 753.123 Q289.352 748.517 289.352 739.79 Q289.352 731.04 292.407 726.457 Q295.486 721.851 301.296 721.851 Z" fill="#000000" fill-rule="nonzero" fill-opacity="1" /><path clip-path="url(#clip310)" d="M314.425 701.545 L329.34 701.545 L329.34 704.742 L317.905 704.742 L317.905 711.626 Q318.732 711.344 319.56 711.212 Q320.388 711.062 321.215 711.062 Q325.917 711.062 328.663 713.639 Q331.409 716.215 331.409 720.616 Q331.409 725.149 328.588 727.669 Q325.767 730.171 320.632 730.171 Q318.864 730.171 317.021 729.87 Q315.197 729.569 313.241 728.967 L313.241 725.149 Q314.933 726.07 316.739 726.522 Q318.544 726.973 320.557 726.973 Q323.811 726.973 325.71 725.262 Q327.61 723.55 327.61 720.616 Q327.61 717.682 325.71 715.971 Q323.811 714.259 320.557 714.259 Q319.033 714.259 317.51 714.598 Q316.005 714.936 314.425 715.651 L314.425 701.545 Z" fill="#000000" fill-rule="nonzero" fill-opacity="1" /><path clip-path="url(#clip310)" d="M119.885 426.556 L136.204 426.556 L136.204 430.492 L114.26 430.492 L114.26 426.556 Q116.922 423.802 121.505 419.172 Q126.112 414.52 127.292 413.177 Q129.538 410.654 130.417 408.918 Q131.32 407.158 131.32 405.469 Q131.32 402.714 129.376 400.978 Q127.455 399.242 124.353 399.242 Q122.154 399.242 119.7 400.006 Q117.269 400.77 114.492 402.32 L114.492 397.598 Q117.316 396.464 119.769 395.885 Q122.223 395.307 124.26 395.307 Q129.63 395.307 132.825 397.992 Q136.019 400.677 136.019 405.168 Q136.019 407.297 135.209 409.219 Q134.422 411.117 132.316 413.709 Q131.737 414.381 128.635 417.598 Q125.533 420.793 119.885 426.556 Z" fill="#000000" fill-rule="nonzero" fill-opacity="1" /><path clip-path="url(#clip310)" d="M146.019 424.612 L150.903 424.612 L150.903 430.492 L146.019 430.492 L146.019 424.612 Z" fill="#000000" fill-rule="nonzero" fill-opacity="1" /><path clip-path="url(#clip310)" d="M161.135 395.932 L179.491 395.932 L179.491 399.867 L165.417 399.867 L165.417 408.339 Q166.436 407.992 167.454 407.83 Q168.473 407.645 169.491 407.645 Q175.278 407.645 178.658 410.816 Q182.038 413.987 182.038 419.404 Q182.038 424.982 178.565 428.084 Q175.093 431.163 168.774 431.163 Q166.598 431.163 164.329 430.793 Q162.084 430.422 159.677 429.681 L159.677 424.982 Q161.76 426.117 163.982 426.672 Q166.204 427.228 168.681 427.228 Q172.686 427.228 175.024 425.121 Q177.362 423.015 177.362 419.404 Q177.362 415.793 175.024 413.686 Q172.686 411.58 168.681 411.58 Q166.806 411.58 164.931 411.996 Q163.079 412.413 161.135 413.293 L161.135 395.932 Z" fill="#000000" fill-rule="nonzero" fill-opacity="1" /><path clip-path="url(#clip310)" d="M201.25 399.01 Q197.639 399.01 195.811 402.575 Q194.005 406.117 194.005 413.246 Q194.005 420.353 195.811 423.918 Q197.639 427.459 201.25 427.459 Q204.885 427.459 206.69 423.918 Q208.519 420.353 208.519 413.246 Q208.519 406.117 206.69 402.575 Q204.885 399.01 201.25 399.01 M201.25 395.307 Q207.061 395.307 210.116 399.913 Q213.195 404.496 213.195 413.246 Q213.195 421.973 210.116 426.58 Q207.061 431.163 201.25 431.163 Q195.44 431.163 192.362 426.58 Q189.306 421.973 189.306 413.246 Q189.306 404.496 192.362 399.913 Q195.44 395.307 201.25 395.307 Z" fill="#000000" fill-rule="nonzero" fill-opacity="1" /><path clip-path="url(#clip310)" d="M249.584 405.029 L239.005 415.654 L249.584 426.232 L246.829 429.033 L236.204 418.408 L225.579 429.033 L222.848 426.232 L233.403 415.654 L222.848 405.029 L225.579 402.228 L236.204 412.853 L246.829 402.228 L249.584 405.029 Z" fill="#000000" fill-rule="nonzero" fill-opacity="1" /><path clip-path="url(#clip310)" d="M261.945 426.556 L269.583 426.556 L269.583 400.191 L261.273 401.858 L261.273 397.598 L269.537 395.932 L274.213 395.932 L274.213 426.556 L281.852 426.556 L281.852 430.492 L261.945 430.492 L261.945 426.556 Z" fill="#000000" fill-rule="nonzero" fill-opacity="1" /><path clip-path="url(#clip310)" d="M301.296 399.01 Q297.685 399.01 295.856 402.575 Q294.051 406.117 294.051 413.246 Q294.051 420.353 295.856 423.918 Q297.685 427.459 301.296 427.459 Q304.93 427.459 306.736 423.918 Q308.565 420.353 308.565 413.246 Q308.565 406.117 306.736 402.575 Q304.93 399.01 301.296 399.01 M301.296 395.307 Q307.106 395.307 310.162 399.913 Q313.241 404.496 313.241 413.246 Q313.241 421.973 310.162 426.58 Q307.106 431.163 301.296 431.163 Q295.486 431.163 292.407 426.58 Q289.352 421.973 289.352 413.246 Q289.352 404.496 292.407 399.913 Q295.486 395.307 301.296 395.307 Z" fill="#000000" fill-rule="nonzero" fill-opacity="1" /><path clip-path="url(#clip310)" d="M314.425 375.001 L329.34 375.001 L329.34 378.199 L317.905 378.199 L317.905 385.082 Q318.732 384.8 319.56 384.668 Q320.388 384.518 321.215 384.518 Q325.917 384.518 328.663 387.095 Q331.409 389.671 331.409 394.072 Q331.409 398.605 328.588 401.125 Q325.767 403.627 320.632 403.627 Q318.864 403.627 317.021 403.326 Q315.197 403.025 313.241 402.423 L313.241 398.605 Q314.933 399.527 316.739 399.978 Q318.544 400.429 320.557 400.429 Q323.811 400.429 325.71 398.718 Q327.61 397.006 327.61 394.072 Q327.61 391.138 325.71 389.427 Q323.811 387.715 320.557 387.715 Q319.033 387.715 317.51 388.054 Q316.005 388.392 314.425 389.107 L314.425 375.001 Z" fill="#000000" fill-rule="nonzero" fill-opacity="1" /><path clip-path="url(#clip310)" d="M21.7677 1084.27 L39.6235 1084.27 L39.6235 1076.19 Q39.6235 1071.7 37.3 1069.25 Q34.9765 1066.8 30.6797 1066.8 Q26.4147 1066.8 24.0912 1069.25 Q21.7677 1071.7 21.7677 1076.19 L21.7677 1084.27 M16.4842 1090.7 L16.4842 1076.19 Q16.4842 1068.2 20.1126 1064.13 Q23.7092 1060.02 30.6797 1060.02 Q37.7138 1060.02 41.3104 1064.13 Q44.907 1068.2 44.907 1076.19 L44.907 1084.27 L64.0042 1084.27 L64.0042 1090.7 L16.4842 1090.7 Z" fill="#000000" fill-rule="nonzero" fill-opacity="1" /><path clip-path="url(#clip310)" d="M32.4621 1040.16 Q32.4621 1044.87 36.1542 1047.61 Q39.8145 1050.35 46.212 1050.35 Q52.6095 1050.35 56.3017 1047.64 Q59.9619 1044.9 59.9619 1040.16 Q59.9619 1035.48 56.2698 1032.74 Q52.5777 1030.01 46.212 1030.01 Q39.8781 1030.01 36.186 1032.74 Q32.4621 1035.48 32.4621 1040.16 M27.4968 1040.16 Q27.4968 1032.52 32.4621 1028.16 Q37.4273 1023.8 46.212 1023.8 Q54.9649 1023.8 59.9619 1028.16 Q64.9272 1032.52 64.9272 1040.16 Q64.9272 1047.83 59.9619 1052.19 Q54.9649 1056.52 46.212 1056.52 Q37.4273 1056.52 32.4621 1052.19 Q27.4968 1047.83 27.4968 1040.16 Z" fill="#000000" fill-rule="nonzero" fill-opacity="1" /><path clip-path="url(#clip310)" d="M33.8307 993.436 Q33.2578 994.423 33.0032 995.601 Q32.7167 996.746 32.7167 998.147 Q32.7167 1003.11 35.9632 1005.79 Q39.1779 1008.43 45.2253 1008.43 L64.0042 1008.43 L64.0042 1014.32 L28.3562 1014.32 L28.3562 1008.43 L33.8944 1008.43 Q30.6479 1006.58 29.0883 1003.62 Q27.4968 1000.66 27.4968 996.428 Q27.4968 995.823 27.5923 995.091 Q27.656 994.359 27.8151 993.468 L33.8307 993.436 Z" fill="#000000" fill-rule="nonzero" fill-opacity="1" /><path clip-path="url(#clip310)" d="M18.2347 981.501 L28.3562 981.501 L28.3562 969.437 L32.9077 969.437 L32.9077 981.501 L52.2594 981.501 Q56.6199 981.501 57.8613 980.323 Q59.1026 979.113 59.1026 975.453 L59.1026 969.437 L64.0042 969.437 L64.0042 975.453 Q64.0042 982.233 61.4897 984.811 Q58.9434 987.389 52.2594 987.389 L32.9077 987.389 L32.9077 991.686 L28.3562 991.686 L28.3562 987.389 L18.2347 987.389 L18.2347 981.501 Z" fill="#000000" fill-rule="nonzero" fill-opacity="1" /><path clip-path="url(#clip310)" d="M14.479 943.688 L19.3487 943.688 L19.3487 949.29 Q19.3487 952.441 20.6219 953.682 Q21.895 954.892 25.2052 954.892 L28.3562 954.892 L28.3562 945.248 L32.9077 945.248 L32.9077 954.892 L64.0042 954.892 L64.0042 960.78 L32.9077 960.78 L32.9077 966.382 L28.3562 966.382 L28.3562 960.78 L25.8736 960.78 Q19.9216 960.78 17.2162 958.011 Q14.479 955.242 14.479 949.226 L14.479 943.688 Z" fill="#000000" fill-rule="nonzero" fill-opacity="1" /><path clip-path="url(#clip310)" d="M32.4621 924.973 Q32.4621 929.684 36.1542 932.421 Q39.8145 935.158 46.212 935.158 Q52.6095 935.158 56.3017 932.453 Q59.9619 929.715 59.9619 924.973 Q59.9619 920.294 56.2698 917.557 Q52.5777 914.82 46.212 914.82 Q39.8781 914.82 36.186 917.557 Q32.4621 920.294 32.4621 924.973 M27.4968 924.973 Q27.4968 917.334 32.4621 912.974 Q37.4273 908.613 46.212 908.613 Q54.9649 908.613 59.9619 912.974 Q64.9272 917.334 64.9272 924.973 Q64.9272 932.644 59.9619 937.004 Q54.9649 941.333 46.212 941.333 Q37.4273 941.333 32.4621 937.004 Q27.4968 932.644 27.4968 924.973 Z" fill="#000000" fill-rule="nonzero" fill-opacity="1" /><path clip-path="url(#clip310)" d="M14.479 898.905 L14.479 893.049 L64.0042 893.049 L64.0042 898.905 L14.479 898.905 Z" fill="#000000" fill-rule="nonzero" fill-opacity="1" /><path clip-path="url(#clip310)" d="M28.3562 880.795 L28.3562 874.939 L64.0042 874.939 L64.0042 880.795 L28.3562 880.795 M14.479 880.795 L14.479 874.939 L21.895 874.939 L21.895 880.795 L14.479 880.795 Z" fill="#000000" fill-rule="nonzero" fill-opacity="1" /><path clip-path="url(#clip310)" d="M32.4621 848.871 Q32.4621 853.582 36.1542 856.319 Q39.8145 859.056 46.212 859.056 Q52.6095 859.056 56.3017 856.351 Q59.9619 853.613 59.9619 848.871 Q59.9619 844.192 56.2698 841.455 Q52.5777 838.718 46.212 838.718 Q39.8781 838.718 36.186 841.455 Q32.4621 844.192 32.4621 848.871 M27.4968 848.871 Q27.4968 841.232 32.4621 836.872 Q37.4273 832.511 46.212 832.511 Q54.9649 832.511 59.9619 836.872 Q64.9272 841.232 64.9272 848.871 Q64.9272 856.542 59.9619 860.902 Q54.9649 865.231 46.212 865.231 Q37.4273 865.231 32.4621 860.902 Q27.4968 856.542 27.4968 848.871 Z" fill="#000000" fill-rule="nonzero" fill-opacity="1" /><path clip-path="url(#clip310)" d="M64.0042 789.574 L16.4842 807.717 L16.4842 801.001 L56.4926 785.946 L16.4842 770.859 L16.4842 764.175 L64.0042 782.286 L64.0042 789.574 Z" fill="#000000" fill-rule="nonzero" fill-opacity="1" /><path clip-path="url(#clip310)" d="M46.0847 746.351 Q46.0847 753.449 47.7079 756.186 Q49.3312 758.924 53.2461 758.924 Q56.3653 758.924 58.2114 756.887 Q60.0256 754.818 60.0256 751.285 Q60.0256 746.415 56.5881 743.487 Q53.1188 740.527 47.3897 740.527 L46.0847 740.527 L46.0847 746.351 M43.6657 734.67 L64.0042 734.67 L64.0042 740.527 L58.5933 740.527 Q61.8398 742.532 63.3994 745.524 Q64.9272 748.516 64.9272 752.844 Q64.9272 758.319 61.8716 761.565 Q58.7843 764.78 53.6281 764.78 Q47.6125 764.78 44.5569 760.77 Q41.5014 756.727 41.5014 748.738 L41.5014 740.527 L40.9285 740.527 Q36.8862 740.527 34.6901 743.2 Q32.4621 745.842 32.4621 750.648 Q32.4621 753.704 33.1941 756.6 Q33.9262 759.496 35.3903 762.17 L29.9795 762.17 Q28.7381 758.955 28.1334 755.932 Q27.4968 752.908 27.4968 750.043 Q27.4968 742.309 31.5072 738.49 Q35.5176 734.67 43.6657 734.67 Z" fill="#000000" fill-rule="nonzero" fill-opacity="1" /><path clip-path="url(#clip310)" d="M14.479 722.607 L14.479 716.751 L64.0042 716.751 L64.0042 722.607 L14.479 722.607 Z" fill="#000000" fill-rule="nonzero" fill-opacity="1" /><path clip-path="url(#clip310)" d="M49.9359 705.102 L28.3562 705.102 L28.3562 699.245 L49.7131 699.245 Q54.7739 699.245 57.3202 697.272 Q59.8346 695.298 59.8346 691.352 Q59.8346 686.609 56.8109 683.872 Q53.7872 681.103 48.5673 681.103 L28.3562 681.103 L28.3562 675.246 L64.0042 675.246 L64.0042 681.103 L58.5296 681.103 Q61.7762 683.235 63.3676 686.068 Q64.9272 688.869 64.9272 692.593 Q64.9272 698.736 61.1078 701.919 Q57.2883 705.102 49.9359 705.102 M27.4968 690.365 L27.4968 690.365 Z" fill="#000000" fill-rule="nonzero" fill-opacity="1" /><path clip-path="url(#clip310)" d="M44.7161 632.692 L47.5806 632.692 L47.5806 659.619 Q53.6281 659.237 56.8109 655.99 Q59.9619 652.712 59.9619 646.887 Q59.9619 643.513 59.1344 640.362 Q58.3069 637.179 56.6518 634.06 L62.1899 634.06 Q63.5267 637.211 64.227 640.521 Q64.9272 643.832 64.9272 647.237 Q64.9272 655.767 59.9619 660.764 Q54.9967 665.73 46.5303 665.73 Q37.7774 665.73 32.6531 661.019 Q27.4968 656.277 27.4968 648.256 Q27.4968 641.063 32.1438 636.893 Q36.7589 632.692 44.7161 632.692 M42.9973 638.548 Q38.1912 638.612 35.3266 641.253 Q32.4621 643.863 32.4621 648.192 Q32.4621 653.094 35.2312 656.054 Q38.0002 658.982 43.0292 659.428 L42.9973 638.548 Z" fill="#000000" fill-rule="nonzero" fill-opacity="1" /><path clip-path="url(#clip310)" d="M43.5384 605.319 L43.5384 588.163 L48.7583 588.163 L48.7583 605.319 L43.5384 605.319 Z" fill="#000000" fill-rule="nonzero" fill-opacity="1" /><path clip-path="url(#clip310)" d="M16.4842 558.595 L16.4842 552.134 L45.3526 552.134 Q52.9915 552.134 56.3653 549.365 Q59.7073 546.595 59.7073 540.389 Q59.7073 534.214 56.3653 531.445 Q52.9915 528.676 45.3526 528.676 L16.4842 528.676 L16.4842 522.215 L46.1484 522.215 Q55.4423 522.215 60.1847 526.83 Q64.9272 531.413 64.9272 540.389 Q64.9272 549.396 60.1847 554.011 Q55.4423 558.595 46.1484 558.595 L16.4842 558.595 Z" fill="#000000" fill-rule="nonzero" fill-opacity="1" /><path clip-path="url(#clip310)" d="M18.0438 481.665 L24.314 481.665 Q22.5634 485.326 21.704 488.572 Q20.8447 491.819 20.8447 494.842 Q20.8447 500.094 22.8817 502.959 Q24.9187 505.791 28.6745 505.791 Q31.8255 505.791 33.4488 503.913 Q35.0402 502.004 36.0269 496.72 L36.8226 492.837 Q38.1912 485.644 41.6605 482.238 Q45.098 478.801 50.8908 478.801 Q57.7976 478.801 61.3624 483.448 Q64.9272 488.063 64.9272 497.007 Q64.9272 500.38 64.1633 504.2 Q63.3994 507.987 61.9035 512.061 L55.2831 512.061 Q57.4793 508.147 58.5933 504.391 Q59.7073 500.635 59.7073 497.007 Q59.7073 491.5 57.543 488.508 Q55.3786 485.516 51.3682 485.516 Q47.8671 485.516 45.8937 487.681 Q43.9204 489.813 42.9337 494.715 L42.1698 498.63 Q40.7375 505.823 37.682 509.038 Q34.6264 512.252 29.1837 512.252 Q22.8817 512.252 19.2532 507.828 Q15.6248 503.372 15.6248 495.574 Q15.6248 492.232 16.2295 488.763 Q16.8343 485.294 18.0438 481.665 Z" fill="#000000" fill-rule="nonzero" fill-opacity="1" /><path clip-path="url(#clip310)" d="M21.7677 462.345 L58.7206 462.345 L58.7206 454.579 Q58.7206 444.744 54.2646 440.193 Q49.8086 435.609 40.1964 435.609 Q30.6479 435.609 26.2237 440.193 Q21.7677 444.744 21.7677 454.579 L21.7677 462.345 M16.4842 468.775 L16.4842 455.566 Q16.4842 441.752 22.2451 435.291 Q27.9743 428.83 40.1964 428.83 Q52.4822 428.83 58.2432 435.323 Q64.0042 441.816 64.0042 455.566 L64.0042 468.775 L16.4842 468.775 Z" fill="#000000" fill-rule="nonzero" fill-opacity="1" /><path clip-path="url(#clip310)" d="M481.927 18.8205 L481.927 41.5461 L492.217 41.5461 Q497.928 41.5461 501.048 38.5889 Q504.167 35.6318 504.167 30.163 Q504.167 24.7348 501.048 21.7777 Q497.928 18.8205 492.217 18.8205 L481.927 18.8205 M473.745 12.096 L492.217 12.096 Q502.384 12.096 507.57 16.714 Q512.795 21.2916 512.795 30.163 Q512.795 39.1155 507.57 43.6931 Q502.384 48.2706 492.217 48.2706 L481.927 48.2706 L481.927 72.576 L473.745 72.576 L473.745 12.096 Z" fill="#000000" fill-rule="nonzero" fill-opacity="1" /><path clip-path="url(#clip310)" d="M538.073 32.4315 Q532.078 32.4315 528.594 37.1306 Q525.11 41.7891 525.11 49.9314 Q525.11 58.0738 528.553 62.7728 Q532.037 67.4314 538.073 67.4314 Q544.028 67.4314 547.512 62.7323 Q550.995 58.0333 550.995 49.9314 Q550.995 41.8701 547.512 37.1711 Q544.028 32.4315 538.073 32.4315 M538.073 26.1121 Q547.795 26.1121 553.345 32.4315 Q558.895 38.7509 558.895 49.9314 Q558.895 61.0714 553.345 67.4314 Q547.795 73.7508 538.073 73.7508 Q528.31 73.7508 522.76 67.4314 Q517.251 61.0714 517.251 49.9314 Q517.251 38.7509 522.76 32.4315 Q528.31 26.1121 538.073 26.1121 Z" fill="#000000" fill-rule="nonzero" fill-opacity="1" /><path clip-path="url(#clip310)" d="M597.54 34.1734 Q596.284 33.4443 594.786 33.1202 Q593.327 32.7556 591.545 32.7556 Q585.225 32.7556 581.823 36.8875 Q578.46 40.9789 578.46 48.6757 L578.46 72.576 L570.966 72.576 L570.966 27.2059 L578.46 27.2059 L578.46 34.2544 Q580.81 30.1225 584.577 28.1376 Q588.345 26.1121 593.732 26.1121 Q594.502 26.1121 595.434 26.2337 Q596.365 26.3147 597.5 26.5172 L597.54 34.1734 Z" fill="#000000" fill-rule="nonzero" fill-opacity="1" /><path clip-path="url(#clip310)" d="M612.731 14.324 L612.731 27.2059 L628.084 27.2059 L628.084 32.9987 L612.731 32.9987 L612.731 57.6282 Q612.731 63.1779 614.23 64.7578 Q615.769 66.3376 620.428 66.3376 L628.084 66.3376 L628.084 72.576 L620.428 72.576 Q611.799 72.576 608.518 69.3758 Q605.237 66.1351 605.237 57.6282 L605.237 32.9987 L599.768 32.9987 L599.768 27.2059 L605.237 27.2059 L605.237 14.324 L612.731 14.324 Z" fill="#000000" fill-rule="nonzero" fill-opacity="1" /><path clip-path="url(#clip310)" d="M660.856 9.54393 L660.856 15.7418 L653.726 15.7418 Q649.716 15.7418 648.136 17.3622 Q646.597 18.9825 646.597 23.1955 L646.597 27.2059 L658.871 27.2059 L658.871 32.9987 L646.597 32.9987 L646.597 72.576 L639.102 72.576 L639.102 32.9987 L631.973 32.9987 L631.973 27.2059 L639.102 27.2059 L639.102 24.0462 Q639.102 16.471 642.627 13.0277 Q646.151 9.54393 653.807 9.54393 L660.856 9.54393 Z" fill="#000000" fill-rule="nonzero" fill-opacity="1" /><path clip-path="url(#clip310)" d="M684.675 32.4315 Q678.68 32.4315 675.196 37.1306 Q671.712 41.7891 671.712 49.9314 Q671.712 58.0738 675.156 62.7728 Q678.639 67.4314 684.675 67.4314 Q690.63 67.4314 694.114 62.7323 Q697.598 58.0333 697.598 49.9314 Q697.598 41.8701 694.114 37.1711 Q690.63 32.4315 684.675 32.4315 M684.675 26.1121 Q694.397 26.1121 699.947 32.4315 Q705.497 38.7509 705.497 49.9314 Q705.497 61.0714 699.947 67.4314 Q694.397 73.7508 684.675 73.7508 Q674.912 73.7508 669.363 67.4314 Q663.853 61.0714 663.853 49.9314 Q663.853 38.7509 669.363 32.4315 Q674.912 26.1121 684.675 26.1121 Z" fill="#000000" fill-rule="nonzero" fill-opacity="1" /><path clip-path="url(#clip310)" d="M717.852 9.54393 L725.306 9.54393 L725.306 72.576 L717.852 72.576 L717.852 9.54393 Z" fill="#000000" fill-rule="nonzero" fill-opacity="1" /><path clip-path="url(#clip310)" d="M740.902 27.2059 L748.355 27.2059 L748.355 72.576 L740.902 72.576 L740.902 27.2059 M740.902 9.54393 L748.355 9.54393 L748.355 18.9825 L740.902 18.9825 L740.902 9.54393 Z" fill="#000000" fill-rule="nonzero" fill-opacity="1" /><path clip-path="url(#clip310)" d="M781.532 32.4315 Q775.537 32.4315 772.053 37.1306 Q768.569 41.7891 768.569 49.9314 Q768.569 58.0738 772.013 62.7728 Q775.496 67.4314 781.532 67.4314 Q787.487 67.4314 790.971 62.7323 Q794.455 58.0333 794.455 49.9314 Q794.455 41.8701 790.971 37.1711 Q787.487 32.4315 781.532 32.4315 M781.532 26.1121 Q791.254 26.1121 796.804 32.4315 Q802.354 38.7509 802.354 49.9314 Q802.354 61.0714 796.804 67.4314 Q791.254 73.7508 781.532 73.7508 Q771.77 73.7508 766.22 67.4314 Q760.711 61.0714 760.711 49.9314 Q760.711 38.7509 766.22 32.4315 Q771.77 26.1121 781.532 26.1121 Z" fill="#000000" fill-rule="nonzero" fill-opacity="1" /><path clip-path="url(#clip310)" d="M857.001 72.576 L833.91 12.096 L842.458 12.096 L861.619 63.0159 L880.82 12.096 L889.327 12.096 L866.277 72.576 L857.001 72.576 Z" fill="#000000" fill-rule="nonzero" fill-opacity="1" /><path clip-path="url(#clip310)" d="M912.012 49.7694 Q902.978 49.7694 899.495 51.8354 Q896.011 53.9013 896.011 58.8839 Q896.011 62.8538 898.603 65.2034 Q901.236 67.5124 905.733 67.5124 Q911.931 67.5124 915.658 63.1374 Q919.425 58.7219 919.425 51.4303 L919.425 49.7694 L912.012 49.7694 M926.879 46.6907 L926.879 72.576 L919.425 72.576 L919.425 65.6895 Q916.873 69.8214 913.065 71.8063 Q909.257 73.7508 903.748 73.7508 Q896.78 73.7508 892.649 69.8619 Q888.557 65.9325 888.557 59.3701 Q888.557 51.7138 893.661 47.825 Q898.806 43.9361 908.974 43.9361 L919.425 43.9361 L919.425 43.2069 Q919.425 38.0623 916.022 35.2672 Q912.66 32.4315 906.543 32.4315 Q902.654 32.4315 898.968 33.3632 Q895.282 34.295 891.879 36.1584 L891.879 29.2718 Q895.97 27.692 899.819 26.9223 Q903.667 26.1121 907.313 26.1121 Q917.157 26.1121 922.018 31.2163 Q926.879 36.3204 926.879 46.6907 Z" fill="#000000" fill-rule="nonzero" fill-opacity="1" /><path clip-path="url(#clip310)" d="M942.232 9.54393 L949.685 9.54393 L949.685 72.576 L942.232 72.576 L942.232 9.54393 Z" fill="#000000" fill-rule="nonzero" fill-opacity="1" /><path clip-path="url(#clip310)" d="M964.512 54.671 L964.512 27.2059 L971.965 27.2059 L971.965 54.3874 Q971.965 60.8284 974.477 64.0691 Q976.988 67.2693 982.012 67.2693 Q988.047 67.2693 991.531 63.421 Q995.055 59.5726 995.055 52.9291 L995.055 27.2059 L1002.51 27.2059 L1002.51 72.576 L995.055 72.576 L995.055 65.6084 Q992.341 69.7404 988.736 71.7658 Q985.171 73.7508 980.432 73.7508 Q972.613 73.7508 968.562 68.8897 Q964.512 64.0286 964.512 54.671 M983.267 26.1121 L983.267 26.1121 Z" fill="#000000" fill-rule="nonzero" fill-opacity="1" /><path clip-path="url(#clip310)" d="M1056.67 48.0275 L1056.67 51.6733 L1022.4 51.6733 Q1022.89 59.3701 1027.02 63.421 Q1031.19 67.4314 1038.6 67.4314 Q1042.9 67.4314 1046.91 66.3781 Q1050.96 65.3249 1054.93 63.2184 L1054.93 70.267 Q1050.92 71.9684 1046.7 72.8596 Q1042.49 73.7508 1038.16 73.7508 Q1027.3 73.7508 1020.94 67.4314 Q1014.62 61.1119 1014.62 50.3365 Q1014.62 39.1965 1020.62 32.6746 Q1026.65 26.1121 1036.86 26.1121 Q1046.02 26.1121 1051.32 32.0264 Q1056.67 37.9003 1056.67 48.0275 M1049.22 45.84 Q1049.13 39.7232 1045.77 36.0774 Q1042.45 32.4315 1036.94 32.4315 Q1030.7 32.4315 1026.94 35.9558 Q1023.21 39.4801 1022.64 45.8805 L1049.22 45.84 Z" fill="#000000" fill-rule="nonzero" fill-opacity="1" /><path clip-path="url(#clip310)" d="M1070.81 62.2867 L1079.35 62.2867 L1079.35 72.576 L1070.81 72.576 L1070.81 62.2867 M1070.81 29.6769 L1079.35 29.6769 L1079.35 39.9662 L1070.81 39.9662 L1070.81 29.6769 Z" fill="#000000" fill-rule="nonzero" fill-opacity="1" /><path clip-path="url(#clip310)" d="M1123.55 12.096 L1135.74 12.096 L1151.18 53.2532 L1166.69 12.096 L1178.89 12.096 L1178.89 72.576 L1170.91 72.576 L1170.91 19.4686 L1155.31 60.9499 L1147.09 60.9499 L1131.49 19.4686 L1131.49 72.576 L1123.55 72.576 L1123.55 12.096 Z" fill="#000000" fill-rule="nonzero" fill-opacity="1" /><path clip-path="url(#clip310)" d="M1210.73 72.576 L1187.64 12.096 L1196.18 12.096 L1215.34 63.0159 L1234.54 12.096 L1243.05 12.096 L1220 72.576 L1210.73 72.576 Z" fill="#000000" fill-rule="nonzero" fill-opacity="1" /><path clip-path="url(#clip310)" d="M1242.93 46.5287 L1264.76 46.5287 L1264.76 53.1722 L1242.93 53.1722 L1242.93 46.5287 Z" fill="#000000" fill-rule="nonzero" fill-opacity="1" /><path clip-path="url(#clip310)" d="M1276.96 12.096 L1289.15 12.096 L1304.59 53.2532 L1320.1 12.096 L1332.29 12.096 L1332.29 72.576 L1324.31 72.576 L1324.31 19.4686 L1308.72 60.9499 L1300.49 60.9499 L1284.9 19.4686 L1284.9 72.576 L1276.96 72.576 L1276.96 12.096 Z" fill="#000000" fill-rule="nonzero" fill-opacity="1" /><path clip-path="url(#clip310)" d="M1356.72 18.8205 L1356.72 41.5461 L1367.01 41.5461 Q1372.72 41.5461 1375.84 38.5889 Q1378.96 35.6318 1378.96 30.163 Q1378.96 24.7348 1375.84 21.7777 Q1372.72 18.8205 1367.01 18.8205 L1356.72 18.8205 M1348.54 12.096 L1367.01 12.096 Q1377.18 12.096 1382.36 16.714 Q1387.59 21.2916 1387.59 30.163 Q1387.59 39.1155 1382.36 43.6931 Q1377.18 48.2706 1367.01 48.2706 L1356.72 48.2706 L1356.72 72.576 L1348.54 72.576 L1348.54 12.096 Z" fill="#000000" fill-rule="nonzero" fill-opacity="1" /><path clip-path="url(#clip310)" d="M1443.86 16.7545 L1443.86 25.383 Q1439.72 21.5346 1435.02 19.6307 Q1430.37 17.7268 1425.1 17.7268 Q1414.73 17.7268 1409.22 24.0867 Q1403.71 30.4061 1403.71 42.3968 Q1403.71 54.3469 1409.22 60.7069 Q1414.73 67.0263 1425.1 67.0263 Q1430.37 67.0263 1435.02 65.1223 Q1439.72 63.2184 1443.86 59.3701 L1443.86 67.9175 Q1439.56 70.8341 1434.74 72.2924 Q1429.96 73.7508 1424.61 73.7508 Q1410.88 73.7508 1402.98 65.3654 Q1395.08 56.9395 1395.08 42.3968 Q1395.08 27.8135 1402.98 19.4281 Q1410.88 11.0023 1424.61 11.0023 Q1430.04 11.0023 1434.82 12.4606 Q1439.64 13.8784 1443.86 16.7545 Z" fill="#000000" fill-rule="nonzero" fill-opacity="1" /><path clip-path="url(#clip310)" d="M1481.77 54.671 L1481.77 27.2059 L1489.23 27.2059 L1489.23 54.3874 Q1489.23 60.8284 1491.74 64.0691 Q1494.25 67.2693 1499.27 67.2693 Q1505.31 67.2693 1508.79 63.421 Q1512.32 59.5726 1512.32 52.9291 L1512.32 27.2059 L1519.77 27.2059 L1519.77 72.576 L1512.32 72.576 L1512.32 65.6084 Q1509.6 69.7404 1506 71.7658 Q1502.43 73.7508 1497.69 73.7508 Q1489.87 73.7508 1485.82 68.8897 Q1481.77 64.0286 1481.77 54.671 M1500.53 26.1121 L1500.53 26.1121 Z" fill="#000000" fill-rule="nonzero" fill-opacity="1" /><path clip-path="url(#clip310)" d="M1564.05 28.5427 L1564.05 35.5912 Q1560.89 33.9709 1557.48 33.1607 Q1554.08 32.3505 1550.43 32.3505 Q1544.88 32.3505 1542.09 34.0519 Q1539.33 35.7533 1539.33 39.156 Q1539.33 41.7486 1541.32 43.2475 Q1543.3 44.7058 1549.3 46.0426 L1551.85 46.6097 Q1559.79 48.3111 1563.11 51.4303 Q1566.48 54.509 1566.48 60.0587 Q1566.48 66.3781 1561.45 70.0644 Q1556.47 73.7508 1547.72 73.7508 Q1544.07 73.7508 1540.1 73.0216 Q1536.18 72.3329 1531.8 70.9151 L1531.8 63.2184 Q1535.93 65.3654 1539.94 66.4591 Q1543.95 67.5124 1547.88 67.5124 Q1553.15 67.5124 1555.98 65.73 Q1558.82 63.9071 1558.82 60.6258 Q1558.82 57.5877 1556.75 55.9673 Q1554.73 54.3469 1547.8 52.8481 L1545.21 52.2405 Q1538.28 50.7821 1535.2 47.7845 Q1532.12 44.7463 1532.12 39.4801 Q1532.12 33.0797 1536.66 29.5959 Q1541.2 26.1121 1549.54 26.1121 Q1553.68 26.1121 1557.32 26.7198 Q1560.97 27.3274 1564.05 28.5427 Z" fill="#000000" fill-rule="nonzero" fill-opacity="1" /><path clip-path="url(#clip310)" d="M1578.35 27.2059 L1585.8 27.2059 L1585.8 72.576 L1578.35 72.576 L1578.35 27.2059 M1578.35 9.54393 L1585.8 9.54393 L1585.8 18.9825 L1578.35 18.9825 L1578.35 9.54393 Z" fill="#000000" fill-rule="nonzero" fill-opacity="1" /><path clip-path="url(#clip310)" d="M1639.11 45.1919 L1639.11 72.576 L1631.66 72.576 L1631.66 45.4349 Q1631.66 38.994 1629.14 35.7938 Q1626.63 32.5936 1621.61 32.5936 Q1615.57 32.5936 1612.09 36.4419 Q1608.61 40.2903 1608.61 46.9338 L1608.61 72.576 L1601.11 72.576 L1601.11 27.2059 L1608.61 27.2059 L1608.61 34.2544 Q1611.28 30.163 1614.88 28.1376 Q1618.53 26.1121 1623.27 26.1121 Q1631.09 26.1121 1635.1 30.9732 Q1639.11 35.7938 1639.11 45.1919 Z" fill="#000000" fill-rule="nonzero" fill-opacity="1" /><path clip-path="url(#clip310)" d="M1683.83 49.3643 Q1683.83 41.2625 1680.47 36.8065 Q1677.15 32.3505 1671.11 32.3505 Q1665.12 32.3505 1661.75 36.8065 Q1658.43 41.2625 1658.43 49.3643 Q1658.43 57.4256 1661.75 61.8816 Q1665.12 66.3376 1671.11 66.3376 Q1677.15 66.3376 1680.47 61.8816 Q1683.83 57.4256 1683.83 49.3643 M1691.28 66.9452 Q1691.28 78.5308 1686.14 84.1616 Q1681 89.8329 1670.38 89.8329 Q1666.45 89.8329 1662.97 89.2252 Q1659.48 88.6581 1656.2 87.4428 L1656.2 80.1917 Q1659.48 81.9741 1662.68 82.8248 Q1665.89 83.6755 1669.21 83.6755 Q1676.54 83.6755 1680.18 79.8271 Q1683.83 76.0193 1683.83 68.282 L1683.83 64.5957 Q1681.52 68.6061 1677.92 70.5911 Q1674.31 72.576 1669.29 72.576 Q1660.94 72.576 1655.84 66.2161 Q1650.73 59.8562 1650.73 49.3643 Q1650.73 38.832 1655.84 32.472 Q1660.94 26.1121 1669.29 26.1121 Q1674.31 26.1121 1677.92 28.0971 Q1681.52 30.082 1683.83 34.0924 L1683.83 27.2059 L1691.28 27.2059 L1691.28 66.9452 Z" fill="#000000" fill-rule="nonzero" fill-opacity="1" /><path clip-path="url(#clip310)" d="M1741.52 43.6931 L1741.52 65.8515 L1754.64 65.8515 Q1761.24 65.8515 1764.4 63.1374 Q1767.6 60.3828 1767.6 54.752 Q1767.6 49.0808 1764.4 46.4072 Q1761.24 43.6931 1754.64 43.6931 L1741.52 43.6931 M1741.52 18.8205 L1741.52 37.0496 L1753.63 37.0496 Q1759.62 37.0496 1762.54 34.8216 Q1765.5 32.5531 1765.5 27.935 Q1765.5 23.3575 1762.54 21.089 Q1759.62 18.8205 1753.63 18.8205 L1741.52 18.8205 M1733.33 12.096 L1754.24 12.096 Q1763.59 12.096 1768.66 15.9849 Q1773.72 19.8737 1773.72 27.0438 Q1773.72 32.5936 1771.13 35.8748 Q1768.54 39.156 1763.51 39.9662 Q1769.55 41.2625 1772.87 45.3944 Q1776.23 49.4858 1776.23 55.6432 Q1776.23 63.745 1770.72 68.1605 Q1765.21 72.576 1755.05 72.576 L1733.33 72.576 L1733.33 12.096 Z" fill="#000000" fill-rule="nonzero" fill-opacity="1" /><path clip-path="url(#clip310)" d="M1828.73 48.0275 L1828.73 51.6733 L1794.46 51.6733 Q1794.95 59.3701 1799.08 63.421 Q1803.25 67.4314 1810.66 67.4314 Q1814.96 67.4314 1818.97 66.3781 Q1823.02 65.3249 1826.99 63.2184 L1826.99 70.267 Q1822.98 71.9684 1818.77 72.8596 Q1814.55 73.7508 1810.22 73.7508 Q1799.36 73.7508 1793 67.4314 Q1786.68 61.1119 1786.68 50.3365 Q1786.68 39.1965 1792.68 32.6746 Q1798.71 26.1121 1808.92 26.1121 Q1818.08 26.1121 1823.38 32.0264 Q1828.73 37.9003 1828.73 48.0275 M1821.28 45.84 Q1821.2 39.7232 1817.83 36.0774 Q1814.51 32.4315 1809 32.4315 Q1802.77 32.4315 1799 35.9558 Q1795.27 39.4801 1794.7 45.8805 L1821.28 45.84 Z" fill="#000000" fill-rule="nonzero" fill-opacity="1" /><path clip-path="url(#clip310)" d="M1878.68 45.1919 L1878.68 72.576 L1871.23 72.576 L1871.23 45.4349 Q1871.23 38.994 1868.71 35.7938 Q1866.2 32.5936 1861.18 32.5936 Q1855.14 32.5936 1851.66 36.4419 Q1848.18 40.2903 1848.18 46.9338 L1848.18 72.576 L1840.68 72.576 L1840.68 9.54393 L1848.18 9.54393 L1848.18 34.2544 Q1850.85 30.163 1854.45 28.1376 Q1858.1 26.1121 1862.84 26.1121 Q1870.66 26.1121 1874.67 30.9732 Q1878.68 35.7938 1878.68 45.1919 Z" fill="#000000" fill-rule="nonzero" fill-opacity="1" /><path clip-path="url(#clip310)" d="M1914.17 49.7694 Q1905.13 49.7694 1901.65 51.8354 Q1898.16 53.9013 1898.16 58.8839 Q1898.16 62.8538 1900.76 65.2034 Q1903.39 67.5124 1907.89 67.5124 Q1914.08 67.5124 1917.81 63.1374 Q1921.58 58.7219 1921.58 51.4303 L1921.58 49.7694 L1914.17 49.7694 M1929.03 46.6907 L1929.03 72.576 L1921.58 72.576 L1921.58 65.6895 Q1919.03 69.8214 1915.22 71.8063 Q1911.41 73.7508 1905.9 73.7508 Q1898.93 73.7508 1894.8 69.8619 Q1890.71 65.9325 1890.71 59.3701 Q1890.71 51.7138 1895.81 47.825 Q1900.96 43.9361 1911.13 43.9361 L1921.58 43.9361 L1921.58 43.2069 Q1921.58 38.0623 1918.18 35.2672 Q1914.81 32.4315 1908.7 32.4315 Q1904.81 32.4315 1901.12 33.3632 Q1897.43 34.295 1894.03 36.1584 L1894.03 29.2718 Q1898.12 27.692 1901.97 26.9223 Q1905.82 26.1121 1909.47 26.1121 Q1919.31 26.1121 1924.17 31.2163 Q1929.03 36.3204 1929.03 46.6907 Z" fill="#000000" fill-rule="nonzero" fill-opacity="1" /><path clip-path="url(#clip310)" d="M1939.04 27.2059 L1946.94 27.2059 L1961.12 65.2844 L1975.29 27.2059 L1983.19 27.2059 L1966.18 72.576 L1956.05 72.576 L1939.04 27.2059 Z" fill="#000000" fill-rule="nonzero" fill-opacity="1" /><path clip-path="url(#clip310)" d="M1993.48 27.2059 L2000.94 27.2059 L2000.94 72.576 L1993.48 72.576 L1993.48 27.2059 M1993.48 9.54393 L2000.94 9.54393 L2000.94 18.9825 L1993.48 18.9825 L1993.48 9.54393 Z" fill="#000000" fill-rule="nonzero" fill-opacity="1" /><path clip-path="url(#clip310)" d="M2034.11 32.4315 Q2028.12 32.4315 2024.63 37.1306 Q2021.15 41.7891 2021.15 49.9314 Q2021.15 58.0738 2024.59 62.7728 Q2028.08 67.4314 2034.11 67.4314 Q2040.07 67.4314 2043.55 62.7323 Q2047.03 58.0333 2047.03 49.9314 Q2047.03 41.8701 2043.55 37.1711 Q2040.07 32.4315 2034.11 32.4315 M2034.11 26.1121 Q2043.83 26.1121 2049.38 32.4315 Q2054.93 38.7509 2054.93 49.9314 Q2054.93 61.0714 2049.38 67.4314 Q2043.83 73.7508 2034.11 73.7508 Q2024.35 73.7508 2018.8 67.4314 Q2013.29 61.0714 2013.29 49.9314 Q2013.29 38.7509 2018.8 32.4315 Q2024.35 26.1121 2034.11 26.1121 Z" fill="#000000" fill-rule="nonzero" fill-opacity="1" /><path clip-path="url(#clip310)" d="M2066.52 54.671 L2066.52 27.2059 L2073.97 27.2059 L2073.97 54.3874 Q2073.97 60.8284 2076.48 64.0691 Q2079 67.2693 2084.02 67.2693 Q2090.06 67.2693 2093.54 63.421 Q2097.06 59.5726 2097.06 52.9291 L2097.06 27.2059 L2104.52 27.2059 L2104.52 72.576 L2097.06 72.576 L2097.06 65.6084 Q2094.35 69.7404 2090.74 71.7658 Q2087.18 73.7508 2082.44 73.7508 Q2074.62 73.7508 2070.57 68.8897 Q2066.52 64.0286 2066.52 54.671 M2085.28 26.1121 L2085.28 26.1121 Z" fill="#000000" fill-rule="nonzero" fill-opacity="1" /><path clip-path="url(#clip310)" d="M2146.16 34.1734 Q2144.9 33.4443 2143.41 33.1202 Q2141.95 32.7556 2140.17 32.7556 Q2133.85 32.7556 2130.44 36.8875 Q2127.08 40.9789 2127.08 48.6757 L2127.08 72.576 L2119.59 72.576 L2119.59 27.2059 L2127.08 27.2059 L2127.08 34.2544 Q2129.43 30.1225 2133.2 28.1376 Q2136.96 26.1121 2142.35 26.1121 Q2143.12 26.1121 2144.05 26.2337 Q2144.99 26.3147 2146.12 26.5172 L2146.16 34.1734 Z" fill="#000000" fill-rule="nonzero" fill-opacity="1" /><path clip-path="url(#clip310)" d="M2174.6 49.7694 Q2165.56 49.7694 2162.08 51.8354 Q2158.6 53.9013 2158.6 58.8839 Q2158.6 62.8538 2161.19 65.2034 Q2163.82 67.5124 2168.32 67.5124 Q2174.52 67.5124 2178.24 63.1374 Q2182.01 58.7219 2182.01 51.4303 L2182.01 49.7694 L2174.6 49.7694 M2189.46 46.6907 L2189.46 72.576 L2182.01 72.576 L2182.01 65.6895 Q2179.46 69.8214 2175.65 71.8063 Q2171.84 73.7508 2166.33 73.7508 Q2159.37 73.7508 2155.23 69.8619 Q2151.14 65.9325 2151.14 59.3701 Q2151.14 51.7138 2156.25 47.825 Q2161.39 43.9361 2171.56 43.9361 L2182.01 43.9361 L2182.01 43.2069 Q2182.01 38.0623 2178.61 35.2672 Q2175.25 32.4315 2169.13 32.4315 Q2165.24 32.4315 2161.55 33.3632 Q2157.87 34.295 2154.46 36.1584 L2154.46 29.2718 Q2158.56 27.692 2162.4 26.9223 Q2166.25 26.1121 2169.9 26.1121 Q2179.74 26.1121 2184.6 31.2163 Q2189.46 36.3204 2189.46 46.6907 Z" fill="#000000" fill-rule="nonzero" fill-opacity="1" /><path clip-path="url(#clip310)" d="M2204.82 9.54393 L2212.27 9.54393 L2212.27 72.576 L2204.82 72.576 L2204.82 9.54393 Z" fill="#000000" fill-rule="nonzero" fill-opacity="1" /><polyline clip-path="url(#clip312)" style="stroke:#009af9; stroke-linecap:round; stroke-linejoin:round; stroke-width:12; stroke-opacity:1; fill:none" points="423.598,1386.4 490.49,1386.4 557.381,1386.4 624.273,1386.4 691.165,1386.4 891.84,1286.8 958.732,1139.83 1025.62,1004.5 1092.52,947.046 1159.41,947.046 1426.97,947.046 1493.87,891.857 1560.76,867.915 1627.65,659.087 1828.32,160.256 1895.22,160.256 1962.11,160.256 2029,160.256 2095.89,160.256 2296.57,160.256 "/>
<path clip-path="url(#clip310)" d="M433.587 270.476 L757.677 270.476 L757.677 166.796 L433.587 166.796  Z" fill="#ffffff" fill-rule="evenodd" fill-opacity="1"/>
<polyline clip-path="url(#clip310)" style="stroke:#000000; stroke-linecap:round; stroke-linejoin:round; stroke-width:4; stroke-opacity:1; fill:none" points="433.587,270.476 757.677,270.476 757.677,166.796 433.587,166.796 433.587,270.476 "/>
<polyline clip-path="url(#clip310)" style="stroke:#009af9; stroke-linecap:round; stroke-linejoin:round; stroke-width:12; stroke-opacity:1; fill:none" points="455.647,218.636 588.003,218.636 "/>
<path clip-path="url(#clip310)" d="M610.062 209.99 L614.576 209.99 L622.678 231.749 L630.78 209.99 L635.294 209.99 L625.572 235.916 L619.785 235.916 L610.062 209.99 Z" fill="#000000" fill-rule="nonzero" fill-opacity="1" /><path clip-path="url(#clip310)" d="M652.956 222.883 Q647.794 222.883 645.803 224.064 Q643.812 225.244 643.812 228.092 Q643.812 230.36 645.294 231.703 Q646.798 233.022 649.368 233.022 Q652.909 233.022 655.039 230.522 Q657.192 227.999 657.192 223.832 L657.192 222.883 L652.956 222.883 M661.451 221.124 L661.451 235.916 L657.192 235.916 L657.192 231.981 Q655.733 234.342 653.558 235.476 Q651.382 236.587 648.233 236.587 Q644.252 236.587 641.891 234.365 Q639.553 232.119 639.553 228.369 Q639.553 223.994 642.47 221.772 Q645.409 219.55 651.22 219.55 L657.192 219.55 L657.192 219.133 Q657.192 216.194 655.247 214.596 Q653.326 212.976 649.831 212.976 Q647.608 212.976 645.502 213.508 Q643.396 214.041 641.451 215.106 L641.451 211.17 Q643.789 210.268 645.988 209.828 Q648.187 209.365 650.271 209.365 Q655.895 209.365 658.673 212.282 Q661.451 215.198 661.451 221.124 Z" fill="#000000" fill-rule="nonzero" fill-opacity="1" /><path clip-path="url(#clip310)" d="M670.224 199.897 L674.483 199.897 L674.483 235.916 L670.224 235.916 L670.224 199.897 Z" fill="#000000" fill-rule="nonzero" fill-opacity="1" /><path clip-path="url(#clip310)" d="M682.956 225.684 L682.956 209.99 L687.215 209.99 L687.215 225.522 Q687.215 229.203 688.65 231.055 Q690.085 232.883 692.955 232.883 Q696.405 232.883 698.395 230.684 Q700.409 228.485 700.409 224.689 L700.409 209.99 L704.668 209.99 L704.668 235.916 L700.409 235.916 L700.409 231.934 Q698.858 234.295 696.798 235.453 Q694.761 236.587 692.053 236.587 Q687.585 236.587 685.27 233.809 Q682.956 231.031 682.956 225.684 M693.673 209.365 L693.673 209.365 Z" fill="#000000" fill-rule="nonzero" fill-opacity="1" /><path clip-path="url(#clip310)" d="M735.617 221.888 L735.617 223.971 L716.034 223.971 Q716.312 228.369 718.673 230.684 Q721.057 232.976 725.293 232.976 Q727.747 232.976 730.039 232.374 Q732.353 231.772 734.622 230.569 L734.622 234.596 Q732.33 235.568 729.923 236.078 Q727.515 236.587 725.039 236.587 Q718.835 236.587 715.201 232.976 Q711.59 229.365 711.59 223.207 Q711.59 216.842 715.016 213.115 Q718.465 209.365 724.298 209.365 Q729.529 209.365 732.562 212.745 Q735.617 216.101 735.617 221.888 M731.358 220.638 Q731.312 217.143 729.39 215.059 Q727.492 212.976 724.344 212.976 Q720.779 212.976 718.627 214.99 Q716.497 217.004 716.173 220.661 L731.358 220.638 Z" fill="#000000" fill-rule="nonzero" fill-opacity="1" /></svg>
