<?xml version="1.0" encoding="utf-8"?>
<svg xmlns="http://www.w3.org/2000/svg" xmlns:xlink="http://www.w3.org/1999/xlink" width="600" height="400" viewBox="0 0 2400 1600">
<defs>
  <clipPath id="clip030">
    <rect x="0" y="0" width="2400" height="1600"/>
  </clipPath>
</defs>
<path clip-path="url(#clip030)" d="M0 1600 L2400 1600 L2400 0 L0 0  Z" fill="#ffffff" fill-rule="evenodd" fill-opacity="1"/>
<defs>
  <clipPath id="clip031">
    <rect x="480" y="0" width="1681" height="1600"/>
  </clipPath>
</defs>
<path clip-path="url(#clip030)" d="M340.028 1423.18 L2352.76 1423.18 L2352.76 123.472 L340.028 123.472  Z" fill="#ffffff" fill-rule="evenodd" fill-opacity="1"/>
<defs>
  <clipPath id="clip032">
    <rect x="340" y="123" width="2014" height="1301"/>
  </clipPath>
</defs>
<polyline clip-path="url(#clip032)" style="stroke:#000000; stroke-linecap:round; stroke-linejoin:round; stroke-width:2; stroke-opacity:0.1; fill:none" points="600.435,1423.18 600.435,123.472 "/>
<polyline clip-path="url(#clip032)" style="stroke:#000000; stroke-linecap:round; stroke-linejoin:round; stroke-width:2; stroke-opacity:0.1; fill:none" points="939.506,1423.18 939.506,123.472 "/>
<polyline clip-path="url(#clip032)" style="stroke:#000000; stroke-linecap:round; stroke-linejoin:round; stroke-width:2; stroke-opacity:0.1; fill:none" points="1278.58,1423.18 1278.58,123.472 "/>
<polyline clip-path="url(#clip032)" style="stroke:#000000; stroke-linecap:round; stroke-linejoin:round; stroke-width:2; stroke-opacity:0.1; fill:none" points="1617.65,1423.18 1617.65,123.472 "/>
<polyline clip-path="url(#clip032)" style="stroke:#000000; stroke-linecap:round; stroke-linejoin:round; stroke-width:2; stroke-opacity:0.1; fill:none" points="1956.72,1423.18 1956.72,123.472 "/>
<polyline clip-path="url(#clip032)" style="stroke:#000000; stroke-linecap:round; stroke-linejoin:round; stroke-width:2; stroke-opacity:0.1; fill:none" points="2295.79,1423.18 2295.79,123.472 "/>
<polyline clip-path="url(#clip030)" style="stroke:#000000; stroke-linecap:round; stroke-linejoin:round; stroke-width:4; stroke-opacity:1; fill:none" points="340.028,1423.18 2352.76,1423.18 "/>
<polyline clip-path="url(#clip030)" style="stroke:#000000; stroke-linecap:round; stroke-linejoin:round; stroke-width:4; stroke-opacity:1; fill:none" points="600.435,1423.18 600.435,1404.28 "/>
<polyline clip-path="url(#clip030)" style="stroke:#000000; stroke-linecap:round; stroke-linejoin:round; stroke-width:4; stroke-opacity:1; fill:none" points="939.506,1423.18 939.506,1404.28 "/>
<polyline clip-path="url(#clip030)" style="stroke:#000000; stroke-linecap:round; stroke-linejoin:round; stroke-width:4; stroke-opacity:1; fill:none" points="1278.58,1423.18 1278.58,1404.28 "/>
<polyline clip-path="url(#clip030)" style="stroke:#000000; stroke-linecap:round; stroke-linejoin:round; stroke-width:4; stroke-opacity:1; fill:none" points="1617.65,1423.18 1617.65,1404.28 "/>
<polyline clip-path="url(#clip030)" style="stroke:#000000; stroke-linecap:round; stroke-linejoin:round; stroke-width:4; stroke-opacity:1; fill:none" points="1956.72,1423.18 1956.72,1404.28 "/>
<polyline clip-path="url(#clip030)" style="stroke:#000000; stroke-linecap:round; stroke-linejoin:round; stroke-width:4; stroke-opacity:1; fill:none" points="2295.79,1423.18 2295.79,1404.28 "/>
<path clip-path="url(#clip030)" d="M590.712 1451.02 L609.069 1451.02 L609.069 1454.96 L594.995 1454.96 L594.995 1463.43 Q596.013 1463.08 597.032 1462.92 Q598.05 1462.73 599.069 1462.73 Q604.856 1462.73 608.235 1465.9 Q611.615 1469.08 611.615 1474.49 Q611.615 1480.07 608.143 1483.17 Q604.671 1486.25 598.351 1486.25 Q596.175 1486.25 593.907 1485.88 Q591.661 1485.51 589.254 1484.77 L589.254 1480.07 Q591.337 1481.2 593.56 1481.76 Q595.782 1482.32 598.259 1482.32 Q602.263 1482.32 604.601 1480.21 Q606.939 1478.1 606.939 1474.49 Q606.939 1470.88 604.601 1468.77 Q602.263 1466.67 598.259 1466.67 Q596.384 1466.67 594.509 1467.08 Q592.657 1467.5 590.712 1468.38 L590.712 1451.02 Z" fill="#000000" fill-rule="nonzero" fill-opacity="1" /><path clip-path="url(#clip030)" d="M914.194 1481.64 L921.833 1481.64 L921.833 1455.28 L913.522 1456.95 L913.522 1452.69 L921.786 1451.02 L926.462 1451.02 L926.462 1481.64 L934.101 1481.64 L934.101 1485.58 L914.194 1485.58 L914.194 1481.64 Z" fill="#000000" fill-rule="nonzero" fill-opacity="1" /><path clip-path="url(#clip030)" d="M953.545 1454.1 Q949.934 1454.1 948.106 1457.66 Q946.3 1461.2 946.3 1468.33 Q946.3 1475.44 948.106 1479.01 Q949.934 1482.55 953.545 1482.55 Q957.18 1482.55 958.985 1479.01 Q960.814 1475.44 960.814 1468.33 Q960.814 1461.2 958.985 1457.66 Q957.18 1454.1 953.545 1454.1 M953.545 1450.39 Q959.355 1450.39 962.411 1455 Q965.49 1459.58 965.49 1468.33 Q965.49 1477.06 962.411 1481.67 Q959.355 1486.25 953.545 1486.25 Q947.735 1486.25 944.656 1481.67 Q941.601 1477.06 941.601 1468.33 Q941.601 1459.58 944.656 1455 Q947.735 1450.39 953.545 1450.39 Z" fill="#000000" fill-rule="nonzero" fill-opacity="1" /><path clip-path="url(#clip030)" d="M1253.76 1481.64 L1261.4 1481.64 L1261.4 1455.28 L1253.09 1456.95 L1253.09 1452.69 L1261.36 1451.02 L1266.03 1451.02 L1266.03 1481.64 L1273.67 1481.64 L1273.67 1485.58 L1253.76 1485.58 L1253.76 1481.64 Z" fill="#000000" fill-rule="nonzero" fill-opacity="1" /><path clip-path="url(#clip030)" d="M1283.16 1451.02 L1301.52 1451.02 L1301.52 1454.96 L1287.44 1454.96 L1287.44 1463.43 Q1288.46 1463.08 1289.48 1462.92 Q1290.5 1462.73 1291.52 1462.73 Q1297.3 1462.73 1300.68 1465.9 Q1304.06 1469.08 1304.06 1474.49 Q1304.06 1480.07 1300.59 1483.17 Q1297.12 1486.25 1290.8 1486.25 Q1288.62 1486.25 1286.36 1485.88 Q1284.11 1485.51 1281.7 1484.77 L1281.7 1480.07 Q1283.79 1481.2 1286.01 1481.76 Q1288.23 1482.32 1290.71 1482.32 Q1294.71 1482.32 1297.05 1480.21 Q1299.39 1478.1 1299.39 1474.49 Q1299.39 1470.88 1297.05 1468.77 Q1294.71 1466.67 1290.71 1466.67 Q1288.83 1466.67 1286.96 1467.08 Q1285.11 1467.5 1283.16 1468.38 L1283.16 1451.02 Z" fill="#000000" fill-rule="nonzero" fill-opacity="1" /><path clip-path="url(#clip030)" d="M1596.42 1481.64 L1612.74 1481.64 L1612.74 1485.58 L1590.8 1485.58 L1590.8 1481.64 Q1593.46 1478.89 1598.04 1474.26 Q1602.65 1469.61 1603.83 1468.27 Q1606.07 1465.74 1606.95 1464.01 Q1607.86 1462.25 1607.86 1460.56 Q1607.86 1457.8 1605.91 1456.07 Q1603.99 1454.33 1600.89 1454.33 Q1598.69 1454.33 1596.24 1455.09 Q1593.81 1455.86 1591.03 1457.41 L1591.03 1452.69 Q1593.85 1451.55 1596.31 1450.97 Q1598.76 1450.39 1600.8 1450.39 Q1606.17 1450.39 1609.36 1453.08 Q1612.56 1455.77 1612.56 1460.26 Q1612.56 1462.39 1611.75 1464.31 Q1610.96 1466.2 1608.85 1468.8 Q1608.27 1469.47 1605.17 1472.69 Q1602.07 1475.88 1596.42 1481.64 Z" fill="#000000" fill-rule="nonzero" fill-opacity="1" /><path clip-path="url(#clip030)" d="M1632.56 1454.1 Q1628.95 1454.1 1627.12 1457.66 Q1625.31 1461.2 1625.31 1468.33 Q1625.31 1475.44 1627.12 1479.01 Q1628.95 1482.55 1632.56 1482.55 Q1636.19 1482.55 1638 1479.01 Q1639.82 1475.44 1639.82 1468.33 Q1639.82 1461.2 1638 1457.66 Q1636.19 1454.1 1632.56 1454.1 M1632.56 1450.39 Q1638.37 1450.39 1641.42 1455 Q1644.5 1459.58 1644.5 1468.33 Q1644.5 1477.06 1641.42 1481.67 Q1638.37 1486.25 1632.56 1486.25 Q1626.75 1486.25 1623.67 1481.67 Q1620.61 1477.06 1620.61 1468.33 Q1620.61 1459.58 1623.67 1455 Q1626.75 1450.39 1632.56 1450.39 Z" fill="#000000" fill-rule="nonzero" fill-opacity="1" /><path clip-path="url(#clip030)" d="M1935.99 1481.64 L1952.31 1481.64 L1952.31 1485.58 L1930.37 1485.58 L1930.37 1481.64 Q1933.03 1478.89 1937.61 1474.26 Q1942.22 1469.61 1943.4 1468.27 Q1945.64 1465.74 1946.52 1464.01 Q1947.43 1462.25 1947.43 1460.56 Q1947.43 1457.8 1945.48 1456.07 Q1943.56 1454.33 1940.46 1454.33 Q1938.26 1454.33 1935.81 1455.09 Q1933.38 1455.86 1930.6 1457.41 L1930.6 1452.69 Q1933.42 1451.55 1935.88 1450.97 Q1938.33 1450.39 1940.37 1450.39 Q1945.74 1450.39 1948.93 1453.08 Q1952.13 1455.77 1952.13 1460.26 Q1952.13 1462.39 1951.32 1464.31 Q1950.53 1466.2 1948.42 1468.8 Q1947.84 1469.47 1944.74 1472.69 Q1941.64 1475.88 1935.99 1481.64 Z" fill="#000000" fill-rule="nonzero" fill-opacity="1" /><path clip-path="url(#clip030)" d="M1962.17 1451.02 L1980.53 1451.02 L1980.53 1454.96 L1966.45 1454.96 L1966.45 1463.43 Q1967.47 1463.08 1968.49 1462.92 Q1969.51 1462.73 1970.53 1462.73 Q1976.32 1462.73 1979.69 1465.9 Q1983.07 1469.08 1983.07 1474.49 Q1983.07 1480.07 1979.6 1483.17 Q1976.13 1486.25 1969.81 1486.25 Q1967.63 1486.25 1965.37 1485.88 Q1963.12 1485.51 1960.71 1484.77 L1960.71 1480.07 Q1962.8 1481.2 1965.02 1481.76 Q1967.24 1482.32 1969.72 1482.32 Q1973.72 1482.32 1976.06 1480.21 Q1978.4 1478.1 1978.4 1474.49 Q1978.4 1470.88 1976.06 1468.77 Q1973.72 1466.67 1969.72 1466.67 Q1967.84 1466.67 1965.97 1467.08 Q1964.12 1467.5 1962.17 1468.38 L1962.17 1451.02 Z" fill="#000000" fill-rule="nonzero" fill-opacity="1" /><path clip-path="url(#clip030)" d="M2284.63 1466.95 Q2287.99 1467.66 2289.87 1469.93 Q2291.76 1472.2 2291.76 1475.53 Q2291.76 1480.65 2288.25 1483.45 Q2284.73 1486.25 2278.25 1486.25 Q2276.07 1486.25 2273.75 1485.81 Q2271.46 1485.39 2269.01 1484.54 L2269.01 1480.02 Q2270.95 1481.16 2273.27 1481.74 Q2275.58 1482.32 2278.11 1482.32 Q2282.5 1482.32 2284.8 1480.58 Q2287.11 1478.84 2287.11 1475.53 Q2287.11 1472.48 2284.96 1470.77 Q2282.83 1469.03 2279.01 1469.03 L2274.98 1469.03 L2274.98 1465.19 L2279.19 1465.19 Q2282.64 1465.19 2284.47 1463.82 Q2286.3 1462.43 2286.3 1459.84 Q2286.3 1457.18 2284.4 1455.77 Q2282.53 1454.33 2279.01 1454.33 Q2277.09 1454.33 2274.89 1454.75 Q2272.69 1455.16 2270.05 1456.04 L2270.05 1451.88 Q2272.71 1451.14 2275.03 1450.77 Q2277.37 1450.39 2279.43 1450.39 Q2284.75 1450.39 2287.85 1452.83 Q2290.95 1455.23 2290.95 1459.35 Q2290.95 1462.22 2289.31 1464.21 Q2287.67 1466.18 2284.63 1466.95 Z" fill="#000000" fill-rule="nonzero" fill-opacity="1" /><path clip-path="url(#clip030)" d="M2310.63 1454.1 Q2307.02 1454.1 2305.19 1457.66 Q2303.38 1461.2 2303.38 1468.33 Q2303.38 1475.44 2305.19 1479.01 Q2307.02 1482.55 2310.63 1482.55 Q2314.26 1482.55 2316.07 1479.01 Q2317.9 1475.44 2317.9 1468.33 Q2317.9 1461.2 2316.07 1457.66 Q2314.26 1454.1 2310.63 1454.1 M2310.63 1450.39 Q2316.44 1450.39 2319.5 1455 Q2322.57 1459.58 2322.57 1468.33 Q2322.57 1477.06 2319.5 1481.67 Q2316.44 1486.25 2310.63 1486.25 Q2304.82 1486.25 2301.74 1481.67 Q2298.69 1477.06 2298.69 1468.33 Q2298.69 1459.58 2301.74 1455 Q2304.82 1450.39 2310.63 1450.39 Z" fill="#000000" fill-rule="nonzero" fill-opacity="1" /><path clip-path="url(#clip030)" d="M1261.22 1546.53 L1261.22 1568.04 L1255.36 1568.04 L1255.36 1546.72 Q1255.36 1541.66 1253.39 1539.14 Q1251.42 1536.63 1247.47 1536.63 Q1242.73 1536.63 1239.99 1539.65 Q1237.25 1542.68 1237.25 1547.9 L1237.25 1568.04 L1231.36 1568.04 L1231.36 1518.52 L1237.25 1518.52 L1237.25 1537.93 Q1239.35 1534.72 1242.19 1533.13 Q1245.05 1531.54 1248.77 1531.54 Q1254.92 1531.54 1258.07 1535.36 Q1261.22 1539.14 1261.22 1546.53 Z" fill="#000000" fill-rule="nonzero" fill-opacity="1" /><path clip-path="url(#clip030)" d="M1286.71 1536.5 Q1282 1536.5 1279.27 1540.19 Q1276.53 1543.85 1276.53 1550.25 Q1276.53 1556.65 1279.23 1560.34 Q1281.97 1564 1286.71 1564 Q1291.39 1564 1294.13 1560.31 Q1296.87 1556.62 1296.87 1550.25 Q1296.87 1543.92 1294.13 1540.23 Q1291.39 1536.5 1286.71 1536.5 M1286.71 1531.54 Q1294.35 1531.54 1298.71 1536.5 Q1303.07 1541.47 1303.07 1550.25 Q1303.07 1559 1298.71 1564 Q1294.35 1568.97 1286.71 1568.97 Q1279.04 1568.97 1274.68 1564 Q1270.35 1559 1270.35 1550.25 Q1270.35 1541.47 1274.68 1536.5 Q1279.04 1531.54 1286.71 1531.54 Z" fill="#000000" fill-rule="nonzero" fill-opacity="1" /><path clip-path="url(#clip030)" d="M1333.44 1537.87 Q1332.45 1537.3 1331.27 1537.04 Q1330.13 1536.76 1328.73 1536.76 Q1323.76 1536.76 1321.09 1540 Q1318.45 1543.22 1318.45 1549.27 L1318.45 1568.04 L1312.56 1568.04 L1312.56 1532.4 L1318.45 1532.4 L1318.45 1537.93 Q1320.29 1534.69 1323.25 1533.13 Q1326.21 1531.54 1330.45 1531.54 Q1331.05 1531.54 1331.78 1531.63 Q1332.51 1531.7 1333.41 1531.85 L1333.44 1537.87 Z" fill="#000000" fill-rule="nonzero" fill-opacity="1" /><path clip-path="url(#clip030)" d="M1339.58 1532.4 L1345.44 1532.4 L1345.44 1568.04 L1339.58 1568.04 L1339.58 1532.4 M1339.58 1518.52 L1345.44 1518.52 L1345.44 1525.93 L1339.58 1525.93 L1339.58 1518.52 Z" fill="#000000" fill-rule="nonzero" fill-opacity="1" /><path clip-path="url(#clip030)" d="M1355.14 1532.4 L1382.96 1532.4 L1382.96 1537.74 L1360.94 1563.37 L1382.96 1563.37 L1382.96 1568.04 L1354.35 1568.04 L1354.35 1562.7 L1376.37 1537.07 L1355.14 1537.07 L1355.14 1532.4 Z" fill="#000000" fill-rule="nonzero" fill-opacity="1" /><path clip-path="url(#clip030)" d="M1405.72 1536.5 Q1401.01 1536.5 1398.27 1540.19 Q1395.54 1543.85 1395.54 1550.25 Q1395.54 1556.65 1398.24 1560.34 Q1400.98 1564 1405.72 1564 Q1410.4 1564 1413.14 1560.31 Q1415.87 1556.62 1415.87 1550.25 Q1415.87 1543.92 1413.14 1540.23 Q1410.4 1536.5 1405.72 1536.5 M1405.72 1531.54 Q1413.36 1531.54 1417.72 1536.5 Q1422.08 1541.47 1422.08 1550.25 Q1422.08 1559 1417.72 1564 Q1413.36 1568.97 1405.72 1568.97 Q1398.05 1568.97 1393.69 1564 Q1389.36 1559 1389.36 1550.25 Q1389.36 1541.47 1393.69 1536.5 Q1398.05 1531.54 1405.72 1531.54 Z" fill="#000000" fill-rule="nonzero" fill-opacity="1" /><path clip-path="url(#clip030)" d="M1461.42 1546.53 L1461.42 1568.04 L1455.56 1568.04 L1455.56 1546.72 Q1455.56 1541.66 1453.59 1539.14 Q1451.62 1536.63 1447.67 1536.63 Q1442.93 1536.63 1440.19 1539.65 Q1437.45 1542.68 1437.45 1547.9 L1437.45 1568.04 L1431.56 1568.04 L1431.56 1532.4 L1437.45 1532.4 L1437.45 1537.93 Q1439.55 1534.72 1442.39 1533.13 Q1445.25 1531.54 1448.98 1531.54 Q1455.12 1531.54 1458.27 1535.36 Q1461.42 1539.14 1461.42 1546.53 Z" fill="#000000" fill-rule="nonzero" fill-opacity="1" /><polyline clip-path="url(#clip032)" style="stroke:#000000; stroke-linecap:round; stroke-linejoin:round; stroke-width:2; stroke-opacity:0.1; fill:none" points="340.028,1234.63 2352.76,1234.63 "/>
<polyline clip-path="url(#clip032)" style="stroke:#000000; stroke-linecap:round; stroke-linejoin:round; stroke-width:2; stroke-opacity:0.1; fill:none" points="340.028,898.814 2352.76,898.814 "/>
<polyline clip-path="url(#clip032)" style="stroke:#000000; stroke-linecap:round; stroke-linejoin:round; stroke-width:2; stroke-opacity:0.1; fill:none" points="340.028,562.999 2352.76,562.999 "/>
<polyline clip-path="url(#clip032)" style="stroke:#000000; stroke-linecap:round; stroke-linejoin:round; stroke-width:2; stroke-opacity:0.1; fill:none" points="340.028,227.184 2352.76,227.184 "/>
<polyline clip-path="url(#clip030)" style="stroke:#000000; stroke-linecap:round; stroke-linejoin:round; stroke-width:4; stroke-opacity:1; fill:none" points="340.028,1423.18 340.028,123.472 "/>
<polyline clip-path="url(#clip030)" style="stroke:#000000; stroke-linecap:round; stroke-linejoin:round; stroke-width:4; stroke-opacity:1; fill:none" points="340.028,1234.63 358.925,1234.63 "/>
<polyline clip-path="url(#clip030)" style="stroke:#000000; stroke-linecap:round; stroke-linejoin:round; stroke-width:4; stroke-opacity:1; fill:none" points="340.028,898.814 358.925,898.814 "/>
<polyline clip-path="url(#clip030)" style="stroke:#000000; stroke-linecap:round; stroke-linejoin:round; stroke-width:4; stroke-opacity:1; fill:none" points="340.028,562.999 358.925,562.999 "/>
<polyline clip-path="url(#clip030)" style="stroke:#000000; stroke-linecap:round; stroke-linejoin:round; stroke-width:4; stroke-opacity:1; fill:none" points="340.028,227.184 358.925,227.184 "/>
<path clip-path="url(#clip030)" d="M127.2 1220.43 Q123.589 1220.43 121.76 1223.99 Q119.955 1227.53 119.955 1234.66 Q119.955 1241.77 121.76 1245.34 Q123.589 1248.88 127.2 1248.88 Q130.834 1248.88 132.64 1245.34 Q134.468 1241.77 134.468 1234.66 Q134.468 1227.53 132.64 1223.99 Q130.834 1220.43 127.2 1220.43 M127.2 1216.72 Q133.01 1216.72 136.066 1221.33 Q139.144 1225.91 139.144 1234.66 Q139.144 1243.39 136.066 1248 Q133.01 1252.58 127.2 1252.58 Q121.39 1252.58 118.311 1248 Q115.256 1243.39 115.256 1234.66 Q115.256 1225.91 118.311 1221.33 Q121.39 1216.72 127.2 1216.72 Z" fill="#000000" fill-rule="nonzero" fill-opacity="1" /><path clip-path="url(#clip030)" d="M147.362 1246.03 L152.246 1246.03 L152.246 1251.91 L147.362 1251.91 L147.362 1246.03 Z" fill="#000000" fill-rule="nonzero" fill-opacity="1" /><path clip-path="url(#clip030)" d="M172.431 1220.43 Q168.82 1220.43 166.991 1223.99 Q165.186 1227.53 165.186 1234.66 Q165.186 1241.77 166.991 1245.34 Q168.82 1248.88 172.431 1248.88 Q176.065 1248.88 177.871 1245.34 Q179.7 1241.77 179.7 1234.66 Q179.7 1227.53 177.871 1223.99 Q176.065 1220.43 172.431 1220.43 M172.431 1216.72 Q178.241 1216.72 181.297 1221.33 Q184.376 1225.91 184.376 1234.66 Q184.376 1243.39 181.297 1248 Q178.241 1252.58 172.431 1252.58 Q166.621 1252.58 163.542 1248 Q160.487 1243.39 160.487 1234.66 Q160.487 1225.91 163.542 1221.33 Q166.621 1216.72 172.431 1216.72 Z" fill="#000000" fill-rule="nonzero" fill-opacity="1" /><path clip-path="url(#clip030)" d="M202.593 1220.43 Q198.982 1220.43 197.153 1223.99 Q195.348 1227.53 195.348 1234.66 Q195.348 1241.77 197.153 1245.34 Q198.982 1248.88 202.593 1248.88 Q206.227 1248.88 208.033 1245.34 Q209.861 1241.77 209.861 1234.66 Q209.861 1227.53 208.033 1223.99 Q206.227 1220.43 202.593 1220.43 M202.593 1216.72 Q208.403 1216.72 211.459 1221.33 Q214.537 1225.91 214.537 1234.66 Q214.537 1243.39 211.459 1248 Q208.403 1252.58 202.593 1252.58 Q196.783 1252.58 193.704 1248 Q190.649 1243.39 190.649 1234.66 Q190.649 1225.91 193.704 1221.33 Q196.783 1216.72 202.593 1216.72 Z" fill="#000000" fill-rule="nonzero" fill-opacity="1" /><path clip-path="url(#clip030)" d="M226.783 1247.97 L243.102 1247.97 L243.102 1251.91 L221.158 1251.91 L221.158 1247.97 Q223.82 1245.22 228.403 1240.59 Q233.01 1235.94 234.19 1234.59 Q236.435 1232.07 237.315 1230.34 Q238.218 1228.58 238.218 1226.89 Q238.218 1224.13 236.273 1222.4 Q234.352 1220.66 231.25 1220.66 Q229.051 1220.66 226.598 1221.42 Q224.167 1222.19 221.389 1223.74 L221.389 1219.02 Q224.213 1217.88 226.667 1217.3 Q229.121 1216.72 231.158 1216.72 Q236.528 1216.72 239.722 1219.41 Q242.917 1222.09 242.917 1226.59 Q242.917 1228.72 242.107 1230.64 Q241.32 1232.53 239.213 1235.13 Q238.634 1235.8 235.533 1239.02 Q232.431 1242.21 226.783 1247.97 Z" fill="#000000" fill-rule="nonzero" fill-opacity="1" /><path clip-path="url(#clip030)" d="M253.727 1247.97 L261.366 1247.97 L261.366 1221.61 L253.056 1223.28 L253.056 1219.02 L261.32 1217.35 L265.995 1217.35 L265.995 1247.97 L273.634 1247.97 L273.634 1251.91 L253.727 1251.91 L253.727 1247.97 Z" fill="#000000" fill-rule="nonzero" fill-opacity="1" /><path clip-path="url(#clip030)" d="M283.125 1217.35 L301.481 1217.35 L301.481 1221.28 L287.407 1221.28 L287.407 1229.76 Q288.426 1229.41 289.444 1229.25 Q290.463 1229.06 291.481 1229.06 Q297.268 1229.06 300.648 1232.23 Q304.028 1235.4 304.028 1240.82 Q304.028 1246.4 300.555 1249.5 Q297.083 1252.58 290.764 1252.58 Q288.588 1252.58 286.319 1252.21 Q284.074 1251.84 281.667 1251.1 L281.667 1246.4 Q283.75 1247.53 285.972 1248.09 Q288.194 1248.65 290.671 1248.65 Q294.676 1248.65 297.014 1246.54 Q299.352 1244.43 299.352 1240.82 Q299.352 1237.21 297.014 1235.1 Q294.676 1233 290.671 1233 Q288.796 1233 286.921 1233.41 Q285.069 1233.83 283.125 1234.71 L283.125 1217.35 Z" fill="#000000" fill-rule="nonzero" fill-opacity="1" /><path clip-path="url(#clip030)" d="M126.205 884.613 Q122.593 884.613 120.765 888.178 Q118.959 891.719 118.959 898.849 Q118.959 905.955 120.765 909.52 Q122.593 913.062 126.205 913.062 Q129.839 913.062 131.644 909.52 Q133.473 905.955 133.473 898.849 Q133.473 891.719 131.644 888.178 Q129.839 884.613 126.205 884.613 M126.205 880.909 Q132.015 880.909 135.07 885.516 Q138.149 890.099 138.149 898.849 Q138.149 907.576 135.07 912.182 Q132.015 916.766 126.205 916.766 Q120.394 916.766 117.316 912.182 Q114.26 907.576 114.26 898.849 Q114.26 890.099 117.316 885.516 Q120.394 880.909 126.205 880.909 Z" fill="#000000" fill-rule="nonzero" fill-opacity="1" /><path clip-path="url(#clip030)" d="M146.366 910.215 L151.251 910.215 L151.251 916.094 L146.366 916.094 L146.366 910.215 Z" fill="#000000" fill-rule="nonzero" fill-opacity="1" /><path clip-path="url(#clip030)" d="M171.436 884.613 Q167.825 884.613 165.996 888.178 Q164.19 891.719 164.19 898.849 Q164.19 905.955 165.996 909.52 Q167.825 913.062 171.436 913.062 Q175.07 913.062 176.876 909.52 Q178.704 905.955 178.704 898.849 Q178.704 891.719 176.876 888.178 Q175.07 884.613 171.436 884.613 M171.436 880.909 Q177.246 880.909 180.301 885.516 Q183.38 890.099 183.38 898.849 Q183.38 907.576 180.301 912.182 Q177.246 916.766 171.436 916.766 Q165.626 916.766 162.547 912.182 Q159.491 907.576 159.491 898.849 Q159.491 890.099 162.547 885.516 Q165.626 880.909 171.436 880.909 Z" fill="#000000" fill-rule="nonzero" fill-opacity="1" /><path clip-path="url(#clip030)" d="M201.598 884.613 Q197.987 884.613 196.158 888.178 Q194.352 891.719 194.352 898.849 Q194.352 905.955 196.158 909.52 Q197.987 913.062 201.598 913.062 Q205.232 913.062 207.037 909.52 Q208.866 905.955 208.866 898.849 Q208.866 891.719 207.037 888.178 Q205.232 884.613 201.598 884.613 M201.598 880.909 Q207.408 880.909 210.463 885.516 Q213.542 890.099 213.542 898.849 Q213.542 907.576 210.463 912.182 Q207.408 916.766 201.598 916.766 Q195.787 916.766 192.709 912.182 Q189.653 907.576 189.653 898.849 Q189.653 890.099 192.709 885.516 Q195.787 880.909 201.598 880.909 Z" fill="#000000" fill-rule="nonzero" fill-opacity="1" /><path clip-path="url(#clip030)" d="M225.787 912.159 L242.107 912.159 L242.107 916.094 L220.162 916.094 L220.162 912.159 Q222.824 909.405 227.408 904.775 Q232.014 900.122 233.195 898.78 Q235.44 896.256 236.32 894.52 Q237.222 892.761 237.222 891.071 Q237.222 888.317 235.278 886.581 Q233.357 884.844 230.255 884.844 Q228.056 884.844 225.602 885.608 Q223.172 886.372 220.394 887.923 L220.394 883.201 Q223.218 882.067 225.672 881.488 Q228.125 880.909 230.162 880.909 Q235.533 880.909 238.727 883.594 Q241.922 886.28 241.922 890.77 Q241.922 892.9 241.111 894.821 Q240.324 896.719 238.218 899.312 Q237.639 899.983 234.537 903.201 Q231.435 906.395 225.787 912.159 Z" fill="#000000" fill-rule="nonzero" fill-opacity="1" /><path clip-path="url(#clip030)" d="M255.949 912.159 L272.269 912.159 L272.269 916.094 L250.324 916.094 L250.324 912.159 Q252.986 909.405 257.57 904.775 Q262.176 900.122 263.357 898.78 Q265.602 896.256 266.482 894.52 Q267.384 892.761 267.384 891.071 Q267.384 888.317 265.44 886.581 Q263.519 884.844 260.417 884.844 Q258.218 884.844 255.764 885.608 Q253.333 886.372 250.556 887.923 L250.556 883.201 Q253.38 882.067 255.833 881.488 Q258.287 880.909 260.324 880.909 Q265.695 880.909 268.889 883.594 Q272.083 886.28 272.083 890.77 Q272.083 892.9 271.273 894.821 Q270.486 896.719 268.38 899.312 Q267.801 899.983 264.699 903.201 Q261.597 906.395 255.949 912.159 Z" fill="#000000" fill-rule="nonzero" fill-opacity="1" /><path clip-path="url(#clip030)" d="M292.083 884.613 Q288.472 884.613 286.643 888.178 Q284.838 891.719 284.838 898.849 Q284.838 905.955 286.643 909.52 Q288.472 913.062 292.083 913.062 Q295.718 913.062 297.523 909.52 Q299.352 905.955 299.352 898.849 Q299.352 891.719 297.523 888.178 Q295.718 884.613 292.083 884.613 M292.083 880.909 Q297.893 880.909 300.949 885.516 Q304.028 890.099 304.028 898.849 Q304.028 907.576 300.949 912.182 Q297.893 916.766 292.083 916.766 Q286.273 916.766 283.194 912.182 Q280.139 907.576 280.139 898.849 Q280.139 890.099 283.194 885.516 Q286.273 880.909 292.083 880.909 Z" fill="#000000" fill-rule="nonzero" fill-opacity="1" /><path clip-path="url(#clip030)" d="M127.2 548.798 Q123.589 548.798 121.76 552.363 Q119.955 555.904 119.955 563.034 Q119.955 570.14 121.76 573.705 Q123.589 577.247 127.2 577.247 Q130.834 577.247 132.64 573.705 Q134.468 570.14 134.468 563.034 Q134.468 555.904 132.64 552.363 Q130.834 548.798 127.2 548.798 M127.2 545.094 Q133.01 545.094 136.066 549.701 Q139.144 554.284 139.144 563.034 Q139.144 571.761 136.066 576.367 Q133.01 580.951 127.2 580.951 Q121.39 580.951 118.311 576.367 Q115.256 571.761 115.256 563.034 Q115.256 554.284 118.311 549.701 Q121.39 545.094 127.2 545.094 Z" fill="#000000" fill-rule="nonzero" fill-opacity="1" /><path clip-path="url(#clip030)" d="M147.362 574.4 L152.246 574.4 L152.246 580.279 L147.362 580.279 L147.362 574.4 Z" fill="#000000" fill-rule="nonzero" fill-opacity="1" /><path clip-path="url(#clip030)" d="M172.431 548.798 Q168.82 548.798 166.991 552.363 Q165.186 555.904 165.186 563.034 Q165.186 570.14 166.991 573.705 Q168.82 577.247 172.431 577.247 Q176.065 577.247 177.871 573.705 Q179.7 570.14 179.7 563.034 Q179.7 555.904 177.871 552.363 Q176.065 548.798 172.431 548.798 M172.431 545.094 Q178.241 545.094 181.297 549.701 Q184.376 554.284 184.376 563.034 Q184.376 571.761 181.297 576.367 Q178.241 580.951 172.431 580.951 Q166.621 580.951 163.542 576.367 Q160.487 571.761 160.487 563.034 Q160.487 554.284 163.542 549.701 Q166.621 545.094 172.431 545.094 Z" fill="#000000" fill-rule="nonzero" fill-opacity="1" /><path clip-path="url(#clip030)" d="M202.593 548.798 Q198.982 548.798 197.153 552.363 Q195.348 555.904 195.348 563.034 Q195.348 570.14 197.153 573.705 Q198.982 577.247 202.593 577.247 Q206.227 577.247 208.033 573.705 Q209.861 570.14 209.861 563.034 Q209.861 555.904 208.033 552.363 Q206.227 548.798 202.593 548.798 M202.593 545.094 Q208.403 545.094 211.459 549.701 Q214.537 554.284 214.537 563.034 Q214.537 571.761 211.459 576.367 Q208.403 580.951 202.593 580.951 Q196.783 580.951 193.704 576.367 Q190.649 571.761 190.649 563.034 Q190.649 554.284 193.704 549.701 Q196.783 545.094 202.593 545.094 Z" fill="#000000" fill-rule="nonzero" fill-opacity="1" /><path clip-path="url(#clip030)" d="M226.783 576.344 L243.102 576.344 L243.102 580.279 L221.158 580.279 L221.158 576.344 Q223.82 573.59 228.403 568.96 Q233.01 564.307 234.19 562.965 Q236.435 560.441 237.315 558.705 Q238.218 556.946 238.218 555.256 Q238.218 552.502 236.273 550.766 Q234.352 549.029 231.25 549.029 Q229.051 549.029 226.598 549.793 Q224.167 550.557 221.389 552.108 L221.389 547.386 Q224.213 546.252 226.667 545.673 Q229.121 545.094 231.158 545.094 Q236.528 545.094 239.722 547.779 Q242.917 550.465 242.917 554.955 Q242.917 557.085 242.107 559.006 Q241.32 560.904 239.213 563.497 Q238.634 564.168 235.533 567.386 Q232.431 570.58 226.783 576.344 Z" fill="#000000" fill-rule="nonzero" fill-opacity="1" /><path clip-path="url(#clip030)" d="M256.945 576.344 L273.264 576.344 L273.264 580.279 L251.32 580.279 L251.32 576.344 Q253.982 573.59 258.565 568.96 Q263.171 564.307 264.352 562.965 Q266.597 560.441 267.477 558.705 Q268.38 556.946 268.38 555.256 Q268.38 552.502 266.435 550.766 Q264.514 549.029 261.412 549.029 Q259.213 549.029 256.759 549.793 Q254.329 550.557 251.551 552.108 L251.551 547.386 Q254.375 546.252 256.829 545.673 Q259.283 545.094 261.32 545.094 Q266.69 545.094 269.884 547.779 Q273.079 550.465 273.079 554.955 Q273.079 557.085 272.269 559.006 Q271.482 560.904 269.375 563.497 Q268.796 564.168 265.695 567.386 Q262.593 570.58 256.945 576.344 Z" fill="#000000" fill-rule="nonzero" fill-opacity="1" /><path clip-path="url(#clip030)" d="M283.125 545.719 L301.481 545.719 L301.481 549.654 L287.407 549.654 L287.407 558.127 Q288.426 557.779 289.444 557.617 Q290.463 557.432 291.481 557.432 Q297.268 557.432 300.648 560.603 Q304.028 563.775 304.028 569.191 Q304.028 574.77 300.555 577.872 Q297.083 580.951 290.764 580.951 Q288.588 580.951 286.319 580.58 Q284.074 580.21 281.667 579.469 L281.667 574.77 Q283.75 575.904 285.972 576.46 Q288.194 577.015 290.671 577.015 Q294.676 577.015 297.014 574.909 Q299.352 572.802 299.352 569.191 Q299.352 565.58 297.014 563.474 Q294.676 561.367 290.671 561.367 Q288.796 561.367 286.921 561.784 Q285.069 562.201 283.125 563.08 L283.125 545.719 Z" fill="#000000" fill-rule="nonzero" fill-opacity="1" /><path clip-path="url(#clip030)" d="M126.205 212.983 Q122.593 212.983 120.765 216.548 Q118.959 220.089 118.959 227.219 Q118.959 234.325 120.765 237.89 Q122.593 241.432 126.205 241.432 Q129.839 241.432 131.644 237.89 Q133.473 234.325 133.473 227.219 Q133.473 220.089 131.644 216.548 Q129.839 212.983 126.205 212.983 M126.205 209.279 Q132.015 209.279 135.07 213.886 Q138.149 218.469 138.149 227.219 Q138.149 235.946 135.07 240.552 Q132.015 245.136 126.205 245.136 Q120.394 245.136 117.316 240.552 Q114.26 235.946 114.26 227.219 Q114.26 218.469 117.316 213.886 Q120.394 209.279 126.205 209.279 Z" fill="#000000" fill-rule="nonzero" fill-opacity="1" /><path clip-path="url(#clip030)" d="M146.366 238.585 L151.251 238.585 L151.251 244.464 L146.366 244.464 L146.366 238.585 Z" fill="#000000" fill-rule="nonzero" fill-opacity="1" /><path clip-path="url(#clip030)" d="M171.436 212.983 Q167.825 212.983 165.996 216.548 Q164.19 220.089 164.19 227.219 Q164.19 234.325 165.996 237.89 Q167.825 241.432 171.436 241.432 Q175.07 241.432 176.876 237.89 Q178.704 234.325 178.704 227.219 Q178.704 220.089 176.876 216.548 Q175.07 212.983 171.436 212.983 M171.436 209.279 Q177.246 209.279 180.301 213.886 Q183.38 218.469 183.38 227.219 Q183.38 235.946 180.301 240.552 Q177.246 245.136 171.436 245.136 Q165.626 245.136 162.547 240.552 Q159.491 235.946 159.491 227.219 Q159.491 218.469 162.547 213.886 Q165.626 209.279 171.436 209.279 Z" fill="#000000" fill-rule="nonzero" fill-opacity="1" /><path clip-path="url(#clip030)" d="M201.598 212.983 Q197.987 212.983 196.158 216.548 Q194.352 220.089 194.352 227.219 Q194.352 234.325 196.158 237.89 Q197.987 241.432 201.598 241.432 Q205.232 241.432 207.037 237.89 Q208.866 234.325 208.866 227.219 Q208.866 220.089 207.037 216.548 Q205.232 212.983 201.598 212.983 M201.598 209.279 Q207.408 209.279 210.463 213.886 Q213.542 218.469 213.542 227.219 Q213.542 235.946 210.463 240.552 Q207.408 245.136 201.598 245.136 Q195.787 245.136 192.709 240.552 Q189.653 235.946 189.653 227.219 Q189.653 218.469 192.709 213.886 Q195.787 209.279 201.598 209.279 Z" fill="#000000" fill-rule="nonzero" fill-opacity="1" /><path clip-path="url(#clip030)" d="M225.787 240.529 L242.107 240.529 L242.107 244.464 L220.162 244.464 L220.162 240.529 Q222.824 237.775 227.408 233.145 Q232.014 228.492 233.195 227.15 Q235.44 224.626 236.32 222.89 Q237.222 221.131 237.222 219.441 Q237.222 216.687 235.278 214.951 Q233.357 213.214 230.255 213.214 Q228.056 213.214 225.602 213.978 Q223.172 214.742 220.394 216.293 L220.394 211.571 Q223.218 210.437 225.672 209.858 Q228.125 209.279 230.162 209.279 Q235.533 209.279 238.727 211.964 Q241.922 214.65 241.922 219.14 Q241.922 221.27 241.111 223.191 Q240.324 225.089 238.218 227.682 Q237.639 228.353 234.537 231.571 Q231.435 234.765 225.787 240.529 Z" fill="#000000" fill-rule="nonzero" fill-opacity="1" /><path clip-path="url(#clip030)" d="M266.088 225.83 Q269.445 226.548 271.32 228.816 Q273.218 231.085 273.218 234.418 Q273.218 239.534 269.699 242.335 Q266.181 245.136 259.699 245.136 Q257.523 245.136 255.208 244.696 Q252.917 244.279 250.463 243.423 L250.463 238.909 Q252.408 240.043 254.722 240.622 Q257.037 241.2 259.56 241.2 Q263.958 241.2 266.25 239.464 Q268.565 237.728 268.565 234.418 Q268.565 231.363 266.412 229.65 Q264.283 227.913 260.463 227.913 L256.435 227.913 L256.435 224.071 L260.648 224.071 Q264.097 224.071 265.926 222.705 Q267.755 221.316 267.755 218.724 Q267.755 216.062 265.857 214.65 Q263.982 213.214 260.463 213.214 Q258.542 213.214 256.343 213.631 Q254.144 214.048 251.505 214.927 L251.505 210.761 Q254.167 210.02 256.482 209.65 Q258.82 209.279 260.88 209.279 Q266.204 209.279 269.306 211.71 Q272.407 214.117 272.407 218.238 Q272.407 221.108 270.764 223.099 Q269.12 225.066 266.088 225.83 Z" fill="#000000" fill-rule="nonzero" fill-opacity="1" /><path clip-path="url(#clip030)" d="M292.083 212.983 Q288.472 212.983 286.643 216.548 Q284.838 220.089 284.838 227.219 Q284.838 234.325 286.643 237.89 Q288.472 241.432 292.083 241.432 Q295.718 241.432 297.523 237.89 Q299.352 234.325 299.352 227.219 Q299.352 220.089 297.523 216.548 Q295.718 212.983 292.083 212.983 M292.083 209.279 Q297.893 209.279 300.949 213.886 Q304.028 218.469 304.028 227.219 Q304.028 235.946 300.949 240.552 Q297.893 245.136 292.083 245.136 Q286.273 245.136 283.194 240.552 Q280.139 235.946 280.139 227.219 Q280.139 218.469 283.194 213.886 Q286.273 209.279 292.083 209.279 Z" fill="#000000" fill-rule="nonzero" fill-opacity="1" /><path clip-path="url(#clip030)" d="M16.4842 874.557 L16.4842 864.976 L48.8219 852.85 L16.4842 840.659 L16.4842 831.079 L64.0042 831.079 L64.0042 837.349 L22.277 837.349 L54.8694 849.603 L54.8694 856.064 L22.277 868.318 L64.0042 868.318 L64.0042 874.557 L16.4842 874.557 Z" fill="#000000" fill-rule="nonzero" fill-opacity="1" /><path clip-path="url(#clip030)" d="M41.7242 795.781 Q42.4244 793.712 44.7161 791.771 Q47.0077 789.797 51.0181 787.824 L64.0042 781.299 L64.0042 788.206 L51.8138 794.285 Q47.0395 796.64 45.48 798.868 Q43.9204 801.065 43.9204 804.884 L43.9204 811.886 L64.0042 811.886 L64.0042 818.316 L16.4842 818.316 L16.4842 803.802 Q16.4842 795.654 19.8898 791.643 Q23.2955 787.633 30.1704 787.633 Q34.6582 787.633 37.6183 789.734 Q40.5784 791.802 41.7242 795.781 M21.7677 811.886 L38.6368 811.886 L38.6368 803.802 Q38.6368 799.155 36.5043 796.8 Q34.34 794.412 30.1704 794.412 Q26.0009 794.412 23.9002 796.8 Q21.7677 799.155 21.7677 803.802 L21.7677 811.886 Z" fill="#000000" fill-rule="nonzero" fill-opacity="1" /><path clip-path="url(#clip030)" d="M22.818 759.783 L46.4666 768.504 L46.4666 751.03 L22.818 759.783 M16.4842 763.411 L16.4842 756.123 L64.0042 738.012 L64.0042 744.696 L51.8138 749.025 L51.8138 770.446 L64.0042 774.774 L64.0042 781.554 L16.4842 763.411 Z" fill="#000000" fill-rule="nonzero" fill-opacity="1" /><path clip-path="url(#clip030)" d="M16.4842 731.074 L16.4842 701.027 L21.895 701.027 L21.895 724.644 L35.9632 724.644 L35.9632 702.014 L41.3741 702.014 L41.3741 724.644 L58.5933 724.644 L58.5933 700.455 L64.0042 700.455 L64.0042 731.074 L16.4842 731.074 Z" fill="#000000" fill-rule="nonzero" fill-opacity="1" /><path clip-path="url(#clip030)" d="M14.479 672.095 L19.3487 672.095 L19.3487 677.697 Q19.3487 680.848 20.6219 682.089 Q21.895 683.299 25.2052 683.299 L28.3562 683.299 L28.3562 673.655 L32.9077 673.655 L32.9077 683.299 L64.0042 683.299 L64.0042 689.187 L32.9077 689.187 L32.9077 694.789 L28.3562 694.789 L28.3562 689.187 L25.8736 689.187 Q19.9216 689.187 17.2162 686.418 Q14.479 683.649 14.479 677.633 L14.479 672.095 Z" fill="#000000" fill-rule="nonzero" fill-opacity="1" /><path clip-path="url(#clip030)" d="M594.584 12.096 L602.767 12.096 L602.767 65.6895 L632.217 65.6895 L632.217 72.576 L594.584 72.576 L594.584 12.096 Z" fill="#000000" fill-rule="nonzero" fill-opacity="1" /><path clip-path="url(#clip030)" d="M640.481 27.2059 L647.935 27.2059 L647.935 72.576 L640.481 72.576 L640.481 27.2059 M640.481 9.54393 L647.935 9.54393 L647.935 18.9825 L640.481 18.9825 L640.481 9.54393 Z" fill="#000000" fill-rule="nonzero" fill-opacity="1" /><path clip-path="url(#clip030)" d="M701.245 45.1919 L701.245 72.576 L693.791 72.576 L693.791 45.4349 Q693.791 38.994 691.28 35.7938 Q688.768 32.5936 683.745 32.5936 Q677.709 32.5936 674.225 36.4419 Q670.741 40.2903 670.741 46.9338 L670.741 72.576 L663.247 72.576 L663.247 27.2059 L670.741 27.2059 L670.741 34.2544 Q673.415 30.163 677.02 28.1376 Q680.666 26.1121 685.406 26.1121 Q693.224 26.1121 697.234 30.9732 Q701.245 35.7938 701.245 45.1919 Z" fill="#000000" fill-rule="nonzero" fill-opacity="1" /><path clip-path="url(#clip030)" d="M754.919 48.0275 L754.919 51.6733 L720.649 51.6733 Q721.135 59.3701 725.267 63.421 Q729.439 67.4314 736.852 67.4314 Q741.146 67.4314 745.157 66.3781 Q749.207 65.3249 753.177 63.2184 L753.177 70.267 Q749.167 71.9684 744.954 72.8596 Q740.741 73.7508 736.407 73.7508 Q725.55 73.7508 719.19 67.4314 Q712.871 61.1119 712.871 50.3365 Q712.871 39.1965 718.866 32.6746 Q724.902 26.1121 735.11 26.1121 Q744.265 26.1121 749.572 32.0264 Q754.919 37.9003 754.919 48.0275 M747.466 45.84 Q747.385 39.7232 744.022 36.0774 Q740.701 32.4315 735.191 32.4315 Q728.953 32.4315 725.186 35.9558 Q721.459 39.4801 720.892 45.8805 L747.466 45.84 Z" fill="#000000" fill-rule="nonzero" fill-opacity="1" /><path clip-path="url(#clip030)" d="M787.772 49.7694 Q778.739 49.7694 775.255 51.8354 Q771.771 53.9013 771.771 58.8839 Q771.771 62.8538 774.364 65.2034 Q776.997 67.5124 781.493 67.5124 Q787.691 67.5124 791.418 63.1374 Q795.185 58.7219 795.185 51.4303 L795.185 49.7694 L787.772 49.7694 M802.639 46.6907 L802.639 72.576 L795.185 72.576 L795.185 65.6895 Q792.633 69.8214 788.825 71.8063 Q785.017 73.7508 779.508 73.7508 Q772.541 73.7508 768.409 69.8619 Q764.317 65.9325 764.317 59.3701 Q764.317 51.7138 769.421 47.825 Q774.566 43.9361 784.734 43.9361 L795.185 43.9361 L795.185 43.2069 Q795.185 38.0623 791.782 35.2672 Q788.42 32.4315 782.303 32.4315 Q778.415 32.4315 774.728 33.3632 Q771.042 34.295 767.639 36.1584 L767.639 29.2718 Q771.731 27.692 775.579 26.9223 Q779.427 26.1121 783.073 26.1121 Q792.917 26.1121 797.778 31.2163 Q802.639 36.3204 802.639 46.6907 Z" fill="#000000" fill-rule="nonzero" fill-opacity="1" /><path clip-path="url(#clip030)" d="M844.282 34.1734 Q843.026 33.4443 841.528 33.1202 Q840.069 32.7556 838.287 32.7556 Q831.967 32.7556 828.565 36.8875 Q825.202 40.9789 825.202 48.6757 L825.202 72.576 L817.708 72.576 L817.708 27.2059 L825.202 27.2059 L825.202 34.2544 Q827.552 30.1225 831.319 28.1376 Q835.087 26.1121 840.474 26.1121 Q841.244 26.1121 842.176 26.2337 Q843.107 26.3147 844.242 26.5172 L844.282 34.1734 Z" fill="#000000" fill-rule="nonzero" fill-opacity="1" /><path clip-path="url(#clip030)" d="M907.476 44.2197 Q910.109 45.1109 912.58 48.0275 Q915.092 50.9442 917.604 56.0483 L925.908 72.576 L917.117 72.576 L909.38 57.061 Q906.383 50.9847 903.547 48.9997 Q900.752 47.0148 895.891 47.0148 L886.979 47.0148 L886.979 72.576 L878.796 72.576 L878.796 12.096 L897.268 12.096 Q907.638 12.096 912.742 16.4305 Q917.847 20.7649 917.847 29.5149 Q917.847 35.2267 915.173 38.994 Q912.54 42.7613 907.476 44.2197 M886.979 18.8205 L886.979 40.2903 L897.268 40.2903 Q903.182 40.2903 906.18 37.5762 Q909.218 34.8216 909.218 29.5149 Q909.218 24.2082 906.18 21.5346 Q903.182 18.8205 897.268 18.8205 L886.979 18.8205 Z" fill="#000000" fill-rule="nonzero" fill-opacity="1" /><path clip-path="url(#clip030)" d="M971.197 48.0275 L971.197 51.6733 L936.926 51.6733 Q937.412 59.3701 941.544 63.421 Q945.717 67.4314 953.13 67.4314 Q957.424 67.4314 961.434 66.3781 Q965.485 65.3249 969.455 63.2184 L969.455 70.267 Q965.445 71.9684 961.232 72.8596 Q957.019 73.7508 952.684 73.7508 Q941.828 73.7508 935.468 67.4314 Q929.149 61.1119 929.149 50.3365 Q929.149 39.1965 935.144 32.6746 Q941.18 26.1121 951.388 26.1121 Q960.543 26.1121 965.85 32.0264 Q971.197 37.9003 971.197 48.0275 M963.743 45.84 Q963.662 39.7232 960.3 36.0774 Q956.978 32.4315 951.469 32.4315 Q945.231 32.4315 941.463 35.9558 Q937.737 39.4801 937.169 45.8805 L963.743 45.84 Z" fill="#000000" fill-rule="nonzero" fill-opacity="1" /><path clip-path="url(#clip030)" d="M1013.29 49.3643 Q1013.29 41.2625 1009.92 36.8065 Q1006.6 32.3505 1000.57 32.3505 Q994.571 32.3505 991.209 36.8065 Q987.887 41.2625 987.887 49.3643 Q987.887 57.4256 991.209 61.8816 Q994.571 66.3376 1000.57 66.3376 Q1006.6 66.3376 1009.92 61.8816 Q1013.29 57.4256 1013.29 49.3643 M1020.74 66.9452 Q1020.74 78.5308 1015.59 84.1616 Q1010.45 89.8329 999.837 89.8329 Q995.908 89.8329 992.424 89.2252 Q988.94 88.6581 985.659 87.4428 L985.659 80.1917 Q988.94 81.9741 992.14 82.8248 Q995.34 83.6755 998.662 83.6755 Q1005.99 83.6755 1009.64 79.8271 Q1013.29 76.0193 1013.29 68.282 L1013.29 64.5957 Q1010.98 68.6061 1007.37 70.5911 Q1003.77 72.576 998.743 72.576 Q990.398 72.576 985.294 66.2161 Q980.19 59.8562 980.19 49.3643 Q980.19 38.832 985.294 32.472 Q990.398 26.1121 998.743 26.1121 Q1003.77 26.1121 1007.37 28.0971 Q1010.98 30.082 1013.29 34.0924 L1013.29 27.2059 L1020.74 27.2059 L1020.74 66.9452 Z" fill="#000000" fill-rule="nonzero" fill-opacity="1" /><path clip-path="url(#clip030)" d="M1062.38 34.1734 Q1061.13 33.4443 1059.63 33.1202 Q1058.17 32.7556 1056.39 32.7556 Q1050.07 32.7556 1046.67 36.8875 Q1043.3 40.9789 1043.3 48.6757 L1043.3 72.576 L1035.81 72.576 L1035.81 27.2059 L1043.3 27.2059 L1043.3 34.2544 Q1045.65 30.1225 1049.42 28.1376 Q1053.19 26.1121 1058.58 26.1121 Q1059.34 26.1121 1060.28 26.2337 Q1061.21 26.3147 1062.34 26.5172 L1062.38 34.1734 Z" fill="#000000" fill-rule="nonzero" fill-opacity="1" /><path clip-path="url(#clip030)" d="M1107.19 48.0275 L1107.19 51.6733 L1072.92 51.6733 Q1073.4 59.3701 1077.53 63.421 Q1081.71 67.4314 1089.12 67.4314 Q1093.41 67.4314 1097.42 66.3781 Q1101.47 65.3249 1105.44 63.2184 L1105.44 70.267 Q1101.43 71.9684 1097.22 72.8596 Q1093.01 73.7508 1088.67 73.7508 Q1077.82 73.7508 1071.46 67.4314 Q1065.14 61.1119 1065.14 50.3365 Q1065.14 39.1965 1071.13 32.6746 Q1077.17 26.1121 1087.38 26.1121 Q1096.53 26.1121 1101.84 32.0264 Q1107.19 37.9003 1107.19 48.0275 M1099.73 45.84 Q1099.65 39.7232 1096.29 36.0774 Q1092.97 32.4315 1087.46 32.4315 Q1081.22 32.4315 1077.45 35.9558 Q1073.73 39.4801 1073.16 45.8805 L1099.73 45.84 Z" fill="#000000" fill-rule="nonzero" fill-opacity="1" /><path clip-path="url(#clip030)" d="M1148.34 28.5427 L1148.34 35.5912 Q1145.18 33.9709 1141.78 33.1607 Q1138.38 32.3505 1134.73 32.3505 Q1129.18 32.3505 1126.39 34.0519 Q1123.63 35.7533 1123.63 39.156 Q1123.63 41.7486 1125.62 43.2475 Q1127.6 44.7058 1133.6 46.0426 L1136.15 46.6097 Q1144.09 48.3111 1147.41 51.4303 Q1150.77 54.509 1150.77 60.0587 Q1150.77 66.3781 1145.75 70.0644 Q1140.77 73.7508 1132.02 73.7508 Q1128.37 73.7508 1124.4 73.0216 Q1120.47 72.3329 1116.1 70.9151 L1116.1 63.2184 Q1120.23 65.3654 1124.24 66.4591 Q1128.25 67.5124 1132.18 67.5124 Q1137.45 67.5124 1140.28 65.73 Q1143.12 63.9071 1143.12 60.6258 Q1143.12 57.5877 1141.05 55.9673 Q1139.03 54.3469 1132.1 52.8481 L1129.51 52.2405 Q1122.58 50.7821 1119.5 47.7845 Q1116.42 44.7463 1116.42 39.4801 Q1116.42 33.0797 1120.96 29.5959 Q1125.5 26.1121 1133.84 26.1121 Q1137.97 26.1121 1141.62 26.7198 Q1145.26 27.3274 1148.34 28.5427 Z" fill="#000000" fill-rule="nonzero" fill-opacity="1" /><path clip-path="url(#clip030)" d="M1191.57 28.5427 L1191.57 35.5912 Q1188.41 33.9709 1185 33.1607 Q1181.6 32.3505 1177.96 32.3505 Q1172.41 32.3505 1169.61 34.0519 Q1166.86 35.7533 1166.86 39.156 Q1166.86 41.7486 1168.84 43.2475 Q1170.83 44.7058 1176.82 46.0426 L1179.37 46.6097 Q1187.31 48.3111 1190.63 51.4303 Q1194 54.509 1194 60.0587 Q1194 66.3781 1188.97 70.0644 Q1183.99 73.7508 1175.24 73.7508 Q1171.6 73.7508 1167.63 73.0216 Q1163.7 72.3329 1159.32 70.9151 L1159.32 63.2184 Q1163.45 65.3654 1167.46 66.4591 Q1171.47 67.5124 1175.4 67.5124 Q1180.67 67.5124 1183.5 65.73 Q1186.34 63.9071 1186.34 60.6258 Q1186.34 57.5877 1184.27 55.9673 Q1182.25 54.3469 1175.32 52.8481 L1172.73 52.2405 Q1165.8 50.7821 1162.72 47.7845 Q1159.65 44.7463 1159.65 39.4801 Q1159.65 33.0797 1164.18 29.5959 Q1168.72 26.1121 1177.06 26.1121 Q1181.2 26.1121 1184.84 26.7198 Q1188.49 27.3274 1191.57 28.5427 Z" fill="#000000" fill-rule="nonzero" fill-opacity="1" /><path clip-path="url(#clip030)" d="M1205.87 27.2059 L1213.32 27.2059 L1213.32 72.576 L1205.87 72.576 L1205.87 27.2059 M1205.87 9.54393 L1213.32 9.54393 L1213.32 18.9825 L1205.87 18.9825 L1205.87 9.54393 Z" fill="#000000" fill-rule="nonzero" fill-opacity="1" /><path clip-path="url(#clip030)" d="M1246.5 32.4315 Q1240.5 32.4315 1237.02 37.1306 Q1233.53 41.7891 1233.53 49.9314 Q1233.53 58.0738 1236.98 62.7728 Q1240.46 67.4314 1246.5 67.4314 Q1252.45 67.4314 1255.94 62.7323 Q1259.42 58.0333 1259.42 49.9314 Q1259.42 41.8701 1255.94 37.1711 Q1252.45 32.4315 1246.5 32.4315 M1246.5 26.1121 Q1256.22 26.1121 1261.77 32.4315 Q1267.32 38.7509 1267.32 49.9314 Q1267.32 61.0714 1261.77 67.4314 Q1256.22 73.7508 1246.5 73.7508 Q1236.73 73.7508 1231.18 67.4314 Q1225.67 61.0714 1225.67 49.9314 Q1225.67 38.7509 1231.18 32.4315 Q1236.73 26.1121 1246.5 26.1121 Z" fill="#000000" fill-rule="nonzero" fill-opacity="1" /><path clip-path="url(#clip030)" d="M1317.39 45.1919 L1317.39 72.576 L1309.93 72.576 L1309.93 45.4349 Q1309.93 38.994 1307.42 35.7938 Q1304.91 32.5936 1299.89 32.5936 Q1293.85 32.5936 1290.37 36.4419 Q1286.88 40.2903 1286.88 46.9338 L1286.88 72.576 L1279.39 72.576 L1279.39 27.2059 L1286.88 27.2059 L1286.88 34.2544 Q1289.56 30.163 1293.16 28.1376 Q1296.81 26.1121 1301.55 26.1121 Q1309.37 26.1121 1313.38 30.9732 Q1317.39 35.7938 1317.39 45.1919 Z" fill="#000000" fill-rule="nonzero" fill-opacity="1" /><path clip-path="url(#clip030)" d="M1334.16 62.2867 L1342.71 62.2867 L1342.71 72.576 L1334.16 72.576 L1334.16 62.2867 M1334.16 29.6769 L1342.71 29.6769 L1342.71 39.9662 L1334.16 39.9662 L1334.16 29.6769 Z" fill="#000000" fill-rule="nonzero" fill-opacity="1" /><path clip-path="url(#clip030)" d="M1386.9 12.096 L1399.09 12.096 L1414.53 53.2532 L1430.04 12.096 L1442.24 12.096 L1442.24 72.576 L1434.26 72.576 L1434.26 19.4686 L1418.66 60.9499 L1410.44 60.9499 L1394.84 19.4686 L1394.84 72.576 L1386.9 72.576 L1386.9 12.096 Z" fill="#000000" fill-rule="nonzero" fill-opacity="1" /><path clip-path="url(#clip030)" d="M1487.16 44.2197 Q1489.79 45.1109 1492.26 48.0275 Q1494.78 50.9442 1497.29 56.0483 L1505.59 72.576 L1496.8 72.576 L1489.06 57.061 Q1486.07 50.9847 1483.23 48.9997 Q1480.44 47.0148 1475.58 47.0148 L1466.66 47.0148 L1466.66 72.576 L1458.48 72.576 L1458.48 12.096 L1476.95 12.096 Q1487.32 12.096 1492.43 16.4305 Q1497.53 20.7649 1497.53 29.5149 Q1497.53 35.2267 1494.86 38.994 Q1492.22 42.7613 1487.16 44.2197 M1466.66 18.8205 L1466.66 40.2903 L1476.95 40.2903 Q1482.87 40.2903 1485.86 37.5762 Q1488.9 34.8216 1488.9 29.5149 Q1488.9 24.2082 1485.86 21.5346 Q1482.87 18.8205 1476.95 18.8205 L1466.66 18.8205 Z" fill="#000000" fill-rule="nonzero" fill-opacity="1" /><path clip-path="url(#clip030)" d="M1532.98 20.1573 L1521.88 50.2555 L1544.12 50.2555 L1532.98 20.1573 M1528.36 12.096 L1537.63 12.096 L1560.68 72.576 L1552.18 72.576 L1546.67 57.061 L1519.41 57.061 L1513.9 72.576 L1505.27 72.576 L1528.36 12.096 Z" fill="#000000" fill-rule="nonzero" fill-opacity="1" /><path clip-path="url(#clip030)" d="M1569.52 12.096 L1607.76 12.096 L1607.76 18.9825 L1577.7 18.9825 L1577.7 36.8875 L1606.5 36.8875 L1606.5 43.7741 L1577.7 43.7741 L1577.7 65.6895 L1608.49 65.6895 L1608.49 72.576 L1569.52 72.576 L1569.52 12.096 Z" fill="#000000" fill-rule="nonzero" fill-opacity="1" /><path clip-path="url(#clip030)" d="M1644.58 9.54393 L1644.58 15.7418 L1637.45 15.7418 Q1633.44 15.7418 1631.86 17.3622 Q1630.32 18.9825 1630.32 23.1955 L1630.32 27.2059 L1642.59 27.2059 L1642.59 32.9987 L1630.32 32.9987 L1630.32 72.576 L1622.83 72.576 L1622.83 32.9987 L1615.7 32.9987 L1615.7 27.2059 L1622.83 27.2059 L1622.83 24.0462 Q1622.83 16.471 1626.35 13.0277 Q1629.87 9.54393 1637.53 9.54393 L1644.58 9.54393 Z" fill="#000000" fill-rule="nonzero" fill-opacity="1" /><path clip-path="url(#clip030)" d="M1671.84 27.2059 L1679.74 27.2059 L1693.92 65.2844 L1708.1 27.2059 L1716 27.2059 L1698.98 72.576 L1688.86 72.576 L1671.84 27.2059 Z" fill="#000000" fill-rule="nonzero" fill-opacity="1" /><path clip-path="url(#clip030)" d="M1755.21 28.5427 L1755.21 35.5912 Q1752.05 33.9709 1748.65 33.1607 Q1745.24 32.3505 1741.6 32.3505 Q1736.05 32.3505 1733.25 34.0519 Q1730.5 35.7533 1730.5 39.156 Q1730.5 41.7486 1732.48 43.2475 Q1734.47 44.7058 1740.46 46.0426 L1743.02 46.6097 Q1750.96 48.3111 1754.28 51.4303 Q1757.64 54.509 1757.64 60.0587 Q1757.64 66.3781 1752.62 70.0644 Q1747.63 73.7508 1738.88 73.7508 Q1735.24 73.7508 1731.27 73.0216 Q1727.34 72.3329 1722.96 70.9151 L1722.96 63.2184 Q1727.1 65.3654 1731.11 66.4591 Q1735.12 67.5124 1739.05 67.5124 Q1744.31 67.5124 1747.15 65.73 Q1749.98 63.9071 1749.98 60.6258 Q1749.98 57.5877 1747.92 55.9673 Q1745.89 54.3469 1738.96 52.8481 L1736.37 52.2405 Q1729.45 50.7821 1726.37 47.7845 Q1723.29 44.7463 1723.29 39.4801 Q1723.29 33.0797 1727.82 29.5959 Q1732.36 26.1121 1740.71 26.1121 Q1744.84 26.1121 1748.48 26.7198 Q1752.13 27.3274 1755.21 28.5427 Z" fill="#000000" fill-rule="nonzero" fill-opacity="1" /><path clip-path="url(#clip030)" d="M1796.2 12.096 L1804.39 12.096 L1804.39 36.8875 L1834.12 36.8875 L1834.12 12.096 L1842.3 12.096 L1842.3 72.576 L1834.12 72.576 L1834.12 43.7741 L1804.39 43.7741 L1804.39 72.576 L1796.2 72.576 L1796.2 12.096 Z" fill="#000000" fill-rule="nonzero" fill-opacity="1" /><path clip-path="url(#clip030)" d="M1875.84 32.4315 Q1869.85 32.4315 1866.37 37.1306 Q1862.88 41.7891 1862.88 49.9314 Q1862.88 58.0738 1866.33 62.7728 Q1869.81 67.4314 1875.84 67.4314 Q1881.8 67.4314 1885.28 62.7323 Q1888.77 58.0333 1888.77 49.9314 Q1888.77 41.8701 1885.28 37.1711 Q1881.8 32.4315 1875.84 32.4315 M1875.84 26.1121 Q1885.57 26.1121 1891.12 32.4315 Q1896.67 38.7509 1896.67 49.9314 Q1896.67 61.0714 1891.12 67.4314 Q1885.57 73.7508 1875.84 73.7508 Q1866.08 73.7508 1860.53 67.4314 Q1855.02 61.0714 1855.02 49.9314 Q1855.02 38.7509 1860.53 32.4315 Q1866.08 26.1121 1875.84 26.1121 Z" fill="#000000" fill-rule="nonzero" fill-opacity="1" /><path clip-path="url(#clip030)" d="M1935.31 34.1734 Q1934.06 33.4443 1932.56 33.1202 Q1931.1 32.7556 1929.32 32.7556 Q1923 32.7556 1919.59 36.8875 Q1916.23 40.9789 1916.23 48.6757 L1916.23 72.576 L1908.74 72.576 L1908.74 27.2059 L1916.23 27.2059 L1916.23 34.2544 Q1918.58 30.1225 1922.35 28.1376 Q1926.12 26.1121 1931.5 26.1121 Q1932.27 26.1121 1933.21 26.2337 Q1934.14 26.3147 1935.27 26.5172 L1935.31 34.1734 Z" fill="#000000" fill-rule="nonzero" fill-opacity="1" /><path clip-path="url(#clip030)" d="M1943.13 27.2059 L1950.58 27.2059 L1950.58 72.576 L1943.13 72.576 L1943.13 27.2059 M1943.13 9.54393 L1950.58 9.54393 L1950.58 18.9825 L1943.13 18.9825 L1943.13 9.54393 Z" fill="#000000" fill-rule="nonzero" fill-opacity="1" /><path clip-path="url(#clip030)" d="M1962.94 27.2059 L1998.34 27.2059 L1998.34 34.0114 L1970.31 66.6212 L1998.34 66.6212 L1998.34 72.576 L1961.93 72.576 L1961.93 65.7705 L1989.96 33.1607 L1962.94 33.1607 L1962.94 27.2059 Z" fill="#000000" fill-rule="nonzero" fill-opacity="1" /><path clip-path="url(#clip030)" d="M2027.31 32.4315 Q2021.31 32.4315 2017.83 37.1306 Q2014.35 41.7891 2014.35 49.9314 Q2014.35 58.0738 2017.79 62.7728 Q2021.27 67.4314 2027.31 67.4314 Q2033.26 67.4314 2036.75 62.7323 Q2040.23 58.0333 2040.23 49.9314 Q2040.23 41.8701 2036.75 37.1711 Q2033.26 32.4315 2027.31 32.4315 M2027.31 26.1121 Q2037.03 26.1121 2042.58 32.4315 Q2048.13 38.7509 2048.13 49.9314 Q2048.13 61.0714 2042.58 67.4314 Q2037.03 73.7508 2027.31 73.7508 Q2017.55 73.7508 2012 67.4314 Q2006.49 61.0714 2006.49 49.9314 Q2006.49 38.7509 2012 32.4315 Q2017.55 26.1121 2027.31 26.1121 Z" fill="#000000" fill-rule="nonzero" fill-opacity="1" /><path clip-path="url(#clip030)" d="M2098.2 45.1919 L2098.2 72.576 L2090.75 72.576 L2090.75 45.4349 Q2090.75 38.994 2088.23 35.7938 Q2085.72 32.5936 2080.7 32.5936 Q2074.66 32.5936 2071.18 36.4419 Q2067.7 40.2903 2067.7 46.9338 L2067.7 72.576 L2060.2 72.576 L2060.2 27.2059 L2067.7 27.2059 L2067.7 34.2544 Q2070.37 30.163 2073.97 28.1376 Q2077.62 26.1121 2082.36 26.1121 Q2090.18 26.1121 2094.19 30.9732 Q2098.2 35.7938 2098.2 45.1919 Z" fill="#000000" fill-rule="nonzero" fill-opacity="1" /><circle clip-path="url(#clip032)" cx="396.992" cy="160.256" r="14.4" fill="#009af9" fill-rule="evenodd" fill-opacity="1" stroke="#000000" stroke-opacity="1" stroke-width="3.2"/>
<circle clip-path="url(#clip032)" cx="600.435" cy="1226.73" r="14.4" fill="#009af9" fill-rule="evenodd" fill-opacity="1" stroke="#000000" stroke-opacity="1" stroke-width="3.2"/>
<circle clip-path="url(#clip032)" cx="939.506" cy="1326.5" r="14.4" fill="#009af9" fill-rule="evenodd" fill-opacity="1" stroke="#000000" stroke-opacity="1" stroke-width="3.2"/>
<circle clip-path="url(#clip032)" cx="1278.58" cy="1313.35" r="14.4" fill="#009af9" fill-rule="evenodd" fill-opacity="1" stroke="#000000" stroke-opacity="1" stroke-width="3.2"/>
<circle clip-path="url(#clip032)" cx="1617.65" cy="1332.48" r="14.4" fill="#009af9" fill-rule="evenodd" fill-opacity="1" stroke="#000000" stroke-opacity="1" stroke-width="3.2"/>
<circle clip-path="url(#clip032)" cx="2295.79" cy="1386.4" r="14.4" fill="#009af9" fill-rule="evenodd" fill-opacity="1" stroke="#000000" stroke-opacity="1" stroke-width="3.2"/>
<circle clip-path="url(#clip032)" cx="396.992" cy="583.027" r="14.4" fill="#e26f46" fill-rule="evenodd" fill-opacity="1" stroke="#000000" stroke-opacity="1" stroke-width="3.2"/>
<circle clip-path="url(#clip032)" cx="600.435" cy="1272.87" r="14.4" fill="#e26f46" fill-rule="evenodd" fill-opacity="1" stroke="#000000" stroke-opacity="1" stroke-width="3.2"/>
<circle clip-path="url(#clip032)" cx="939.506" cy="1300.02" r="14.4" fill="#e26f46" fill-rule="evenodd" fill-opacity="1" stroke="#000000" stroke-opacity="1" stroke-width="3.2"/>
<circle clip-path="url(#clip032)" cx="1278.58" cy="1252.6" r="14.4" fill="#e26f46" fill-rule="evenodd" fill-opacity="1" stroke="#000000" stroke-opacity="1" stroke-width="3.2"/>
<circle clip-path="url(#clip032)" cx="1617.65" cy="1283.17" r="14.4" fill="#e26f46" fill-rule="evenodd" fill-opacity="1" stroke="#000000" stroke-opacity="1" stroke-width="3.2"/>
<circle clip-path="url(#clip032)" cx="2295.79" cy="1352.1" r="14.4" fill="#e26f46" fill-rule="evenodd" fill-opacity="1" stroke="#000000" stroke-opacity="1" stroke-width="3.2"/>
<path clip-path="url(#clip030)" d="M1747.98 322.316 L2285.66 322.316 L2285.66 166.796 L1747.98 166.796  Z" fill="#ffffff" fill-rule="evenodd" fill-opacity="1"/>
<polyline clip-path="url(#clip030)" style="stroke:#000000; stroke-linecap:round; stroke-linejoin:round; stroke-width:4; stroke-opacity:1; fill:none" points="1747.98,322.316 2285.66,322.316 2285.66,166.796 1747.98,166.796 1747.98,322.316 "/>
<circle clip-path="url(#clip030)" cx="1837.44" cy="218.636" r="20.48" fill="#009af9" fill-rule="evenodd" fill-opacity="1" stroke="#000000" stroke-opacity="1" stroke-width="4.55111"/>
<path clip-path="url(#clip030)" d="M1934.3 202.629 L1934.3 209.99 L1943.07 209.99 L1943.07 213.3 L1934.3 213.3 L1934.3 227.374 Q1934.3 230.545 1935.15 231.448 Q1936.03 232.351 1938.7 232.351 L1943.07 232.351 L1943.07 235.916 L1938.7 235.916 Q1933.77 235.916 1931.89 234.087 Q1930.02 232.235 1930.02 227.374 L1930.02 213.3 L1926.89 213.3 L1926.89 209.99 L1930.02 209.99 L1930.02 202.629 L1934.3 202.629 Z" fill="#000000" fill-rule="nonzero" fill-opacity="1" /><path clip-path="url(#clip030)" d="M1963.7 213.971 Q1962.98 213.555 1962.12 213.37 Q1961.29 213.161 1960.27 213.161 Q1956.66 213.161 1954.72 215.522 Q1952.79 217.86 1952.79 222.258 L1952.79 235.916 L1948.51 235.916 L1948.51 209.99 L1952.79 209.99 L1952.79 214.018 Q1954.14 211.657 1956.29 210.522 Q1958.44 209.365 1961.52 209.365 Q1961.96 209.365 1962.49 209.434 Q1963.03 209.481 1963.67 209.596 L1963.7 213.971 Z" fill="#000000" fill-rule="nonzero" fill-opacity="1" /><path clip-path="url(#clip030)" d="M1979.95 222.883 Q1974.78 222.883 1972.79 224.064 Q1970.8 225.244 1970.8 228.092 Q1970.8 230.36 1972.28 231.703 Q1973.79 233.022 1976.36 233.022 Q1979.9 233.022 1982.03 230.522 Q1984.18 227.999 1984.18 223.832 L1984.18 222.883 L1979.95 222.883 M1988.44 221.124 L1988.44 235.916 L1984.18 235.916 L1984.18 231.981 Q1982.72 234.342 1980.55 235.476 Q1978.37 236.587 1975.22 236.587 Q1971.24 236.587 1968.88 234.365 Q1966.54 232.119 1966.54 228.369 Q1966.54 223.994 1969.46 221.772 Q1972.4 219.55 1978.21 219.55 L1984.18 219.55 L1984.18 219.133 Q1984.18 216.194 1982.24 214.596 Q1980.32 212.976 1976.82 212.976 Q1974.6 212.976 1972.49 213.508 Q1970.39 214.041 1968.44 215.106 L1968.44 211.17 Q1970.78 210.268 1972.98 209.828 Q1975.18 209.365 1977.26 209.365 Q1982.89 209.365 1985.66 212.282 Q1988.44 215.198 1988.44 221.124 Z" fill="#000000" fill-rule="nonzero" fill-opacity="1" /><path clip-path="url(#clip030)" d="M1997.21 209.99 L2001.47 209.99 L2001.47 235.916 L1997.21 235.916 L1997.21 209.99 M1997.21 199.897 L2001.47 199.897 L2001.47 205.291 L1997.21 205.291 L1997.21 199.897 Z" fill="#000000" fill-rule="nonzero" fill-opacity="1" /><path clip-path="url(#clip030)" d="M2031.94 220.268 L2031.94 235.916 L2027.68 235.916 L2027.68 220.407 Q2027.68 216.726 2026.24 214.897 Q2024.81 213.069 2021.94 213.069 Q2018.49 213.069 2016.5 215.268 Q2014.51 217.467 2014.51 221.263 L2014.51 235.916 L2010.22 235.916 L2010.22 209.99 L2014.51 209.99 L2014.51 214.018 Q2016.03 211.68 2018.09 210.522 Q2020.18 209.365 2022.89 209.365 Q2027.35 209.365 2029.65 212.143 Q2031.94 214.897 2031.94 220.268 Z" fill="#000000" fill-rule="nonzero" fill-opacity="1" /><path clip-path="url(#clip030)" d="M2040.43 209.99 L2044.69 209.99 L2044.69 235.916 L2040.43 235.916 L2040.43 209.99 M2040.43 199.897 L2044.69 199.897 L2044.69 205.291 L2040.43 205.291 L2040.43 199.897 Z" fill="#000000" fill-rule="nonzero" fill-opacity="1" /><path clip-path="url(#clip030)" d="M2075.15 220.268 L2075.15 235.916 L2070.89 235.916 L2070.89 220.407 Q2070.89 216.726 2069.46 214.897 Q2068.02 213.069 2065.15 213.069 Q2061.71 213.069 2059.71 215.268 Q2057.72 217.467 2057.72 221.263 L2057.72 235.916 L2053.44 235.916 L2053.44 209.99 L2057.72 209.99 L2057.72 214.018 Q2059.25 211.68 2061.31 210.522 Q2063.39 209.365 2066.1 209.365 Q2070.57 209.365 2072.86 212.143 Q2075.15 214.897 2075.15 220.268 Z" fill="#000000" fill-rule="nonzero" fill-opacity="1" /><path clip-path="url(#clip030)" d="M2100.71 222.652 Q2100.71 218.022 2098.79 215.476 Q2096.89 212.93 2093.44 212.93 Q2090.02 212.93 2088.09 215.476 Q2086.2 218.022 2086.2 222.652 Q2086.2 227.258 2088.09 229.805 Q2090.02 232.351 2093.44 232.351 Q2096.89 232.351 2098.79 229.805 Q2100.71 227.258 2100.71 222.652 M2104.97 232.698 Q2104.97 239.318 2102.03 242.536 Q2099.09 245.777 2093.02 245.777 Q2090.78 245.777 2088.79 245.43 Q2086.8 245.105 2084.92 244.411 L2084.92 240.268 Q2086.8 241.286 2088.63 241.772 Q2090.46 242.258 2092.35 242.258 Q2096.54 242.258 2098.63 240.059 Q2100.71 237.883 2100.71 233.462 L2100.71 231.356 Q2099.39 233.647 2097.33 234.781 Q2095.27 235.916 2092.4 235.916 Q2087.63 235.916 2084.71 232.281 Q2081.8 228.647 2081.8 222.652 Q2081.8 216.633 2084.71 212.999 Q2087.63 209.365 2092.4 209.365 Q2095.27 209.365 2097.33 210.499 Q2099.39 211.633 2100.71 213.925 L2100.71 209.99 L2104.97 209.99 L2104.97 232.698 Z" fill="#000000" fill-rule="nonzero" fill-opacity="1" /><path clip-path="url(#clip030)" d="M2126.66 221.032 L2139.14 221.032 L2139.14 224.828 L2126.66 224.828 L2126.66 221.032 Z" fill="#000000" fill-rule="nonzero" fill-opacity="1" /><path clip-path="url(#clip030)" d="M2165.62 231.981 L2181.94 231.981 L2181.94 235.916 L2159.99 235.916 L2159.99 231.981 Q2162.65 229.226 2167.24 224.596 Q2171.84 219.944 2173.02 218.601 Q2175.27 216.078 2176.15 214.342 Q2177.05 212.583 2177.05 210.893 Q2177.05 208.138 2175.11 206.402 Q2173.19 204.666 2170.08 204.666 Q2167.89 204.666 2165.43 205.43 Q2163 206.194 2160.22 207.745 L2160.22 203.022 Q2163.05 201.888 2165.5 201.309 Q2167.95 200.731 2169.99 200.731 Q2175.36 200.731 2178.56 203.416 Q2181.75 206.101 2181.75 210.592 Q2181.75 212.721 2180.94 214.643 Q2180.15 216.541 2178.05 219.133 Q2177.47 219.805 2174.37 223.022 Q2171.26 226.217 2165.62 231.981 Z" fill="#000000" fill-rule="nonzero" fill-opacity="1" /><path clip-path="url(#clip030)" d="M2201.75 204.434 Q2198.14 204.434 2196.31 207.999 Q2194.51 211.541 2194.51 218.67 Q2194.51 225.777 2196.31 229.342 Q2198.14 232.883 2201.75 232.883 Q2205.38 232.883 2207.19 229.342 Q2209.02 225.777 2209.02 218.67 Q2209.02 211.541 2207.19 207.999 Q2205.38 204.434 2201.75 204.434 M2201.75 200.731 Q2207.56 200.731 2210.62 205.337 Q2213.7 209.92 2213.7 218.67 Q2213.7 227.397 2210.62 232.004 Q2207.56 236.587 2201.75 236.587 Q2195.94 236.587 2192.86 232.004 Q2189.81 227.397 2189.81 218.67 Q2189.81 209.92 2192.86 205.337 Q2195.94 200.731 2201.75 200.731 Z" fill="#000000" fill-rule="nonzero" fill-opacity="1" /><circle clip-path="url(#clip030)" cx="1837.44" cy="270.476" r="20.48" fill="#e26f46" fill-rule="evenodd" fill-opacity="1" stroke="#000000" stroke-opacity="1" stroke-width="4.55111"/>
<path clip-path="url(#clip030)" d="M1926.89 261.83 L1931.4 261.83 L1939.51 283.589 L1947.61 261.83 L1952.12 261.83 L1942.4 287.756 L1936.61 287.756 L1926.89 261.83 Z" fill="#000000" fill-rule="nonzero" fill-opacity="1" /><path clip-path="url(#clip030)" d="M1969.78 274.723 Q1964.62 274.723 1962.63 275.904 Q1960.64 277.084 1960.64 279.932 Q1960.64 282.2 1962.12 283.543 Q1963.63 284.862 1966.2 284.862 Q1969.74 284.862 1971.87 282.362 Q1974.02 279.839 1974.02 275.672 L1974.02 274.723 L1969.78 274.723 M1978.28 272.964 L1978.28 287.756 L1974.02 287.756 L1974.02 283.821 Q1972.56 286.182 1970.39 287.316 Q1968.21 288.427 1965.06 288.427 Q1961.08 288.427 1958.72 286.205 Q1956.38 283.959 1956.38 280.209 Q1956.38 275.834 1959.3 273.612 Q1962.24 271.39 1968.05 271.39 L1974.02 271.39 L1974.02 270.973 Q1974.02 268.034 1972.08 266.436 Q1970.15 264.816 1966.66 264.816 Q1964.44 264.816 1962.33 265.348 Q1960.22 265.881 1958.28 266.946 L1958.28 263.01 Q1960.62 262.108 1962.82 261.668 Q1965.02 261.205 1967.1 261.205 Q1972.72 261.205 1975.5 264.122 Q1978.28 267.038 1978.28 272.964 Z" fill="#000000" fill-rule="nonzero" fill-opacity="1" /><path clip-path="url(#clip030)" d="M1987.05 251.737 L1991.31 251.737 L1991.31 287.756 L1987.05 287.756 L1987.05 251.737 Z" fill="#000000" fill-rule="nonzero" fill-opacity="1" /><path clip-path="url(#clip030)" d="M2000.22 261.83 L2004.48 261.83 L2004.48 287.756 L2000.22 287.756 L2000.22 261.83 M2000.22 251.737 L2004.48 251.737 L2004.48 257.131 L2000.22 257.131 L2000.22 251.737 Z" fill="#000000" fill-rule="nonzero" fill-opacity="1" /><path clip-path="url(#clip030)" d="M2030.46 265.765 L2030.46 251.737 L2034.71 251.737 L2034.71 287.756 L2030.46 287.756 L2030.46 283.867 Q2029.11 286.182 2027.05 287.316 Q2025.02 288.427 2022.15 288.427 Q2017.45 288.427 2014.48 284.677 Q2011.54 280.927 2011.54 274.816 Q2011.54 268.705 2014.48 264.955 Q2017.45 261.205 2022.15 261.205 Q2025.02 261.205 2027.05 262.339 Q2029.11 263.45 2030.46 265.765 M2015.94 274.816 Q2015.94 279.515 2017.86 282.2 Q2019.81 284.862 2023.19 284.862 Q2026.57 284.862 2028.51 282.2 Q2030.46 279.515 2030.46 274.816 Q2030.46 270.117 2028.51 267.455 Q2026.57 264.77 2023.19 264.77 Q2019.81 264.77 2017.86 267.455 Q2015.94 270.117 2015.94 274.816 Z" fill="#000000" fill-rule="nonzero" fill-opacity="1" /><path clip-path="url(#clip030)" d="M2055.27 274.723 Q2050.11 274.723 2048.12 275.904 Q2046.13 277.084 2046.13 279.932 Q2046.13 282.2 2047.61 283.543 Q2049.11 284.862 2051.68 284.862 Q2055.22 284.862 2057.35 282.362 Q2059.51 279.839 2059.51 275.672 L2059.51 274.723 L2055.27 274.723 M2063.77 272.964 L2063.77 287.756 L2059.51 287.756 L2059.51 283.821 Q2058.05 286.182 2055.87 287.316 Q2053.7 288.427 2050.55 288.427 Q2046.57 288.427 2044.21 286.205 Q2041.87 283.959 2041.87 280.209 Q2041.87 275.834 2044.78 273.612 Q2047.72 271.39 2053.53 271.39 L2059.51 271.39 L2059.51 270.973 Q2059.51 268.034 2057.56 266.436 Q2055.64 264.816 2052.15 264.816 Q2049.92 264.816 2047.82 265.348 Q2045.71 265.881 2043.77 266.946 L2043.77 263.01 Q2046.1 262.108 2048.3 261.668 Q2050.5 261.205 2052.58 261.205 Q2058.21 261.205 2060.99 264.122 Q2063.77 267.038 2063.77 272.964 Z" fill="#000000" fill-rule="nonzero" fill-opacity="1" /><path clip-path="url(#clip030)" d="M2076.75 254.469 L2076.75 261.83 L2085.52 261.83 L2085.52 265.14 L2076.75 265.14 L2076.75 279.214 Q2076.75 282.385 2077.61 283.288 Q2078.49 284.191 2081.15 284.191 L2085.52 284.191 L2085.52 287.756 L2081.15 287.756 Q2076.22 287.756 2074.34 285.927 Q2072.47 284.075 2072.47 279.214 L2072.47 265.14 L2069.34 265.14 L2069.34 261.83 L2072.47 261.83 L2072.47 254.469 L2076.75 254.469 Z" fill="#000000" fill-rule="nonzero" fill-opacity="1" /><path clip-path="url(#clip030)" d="M2091.13 261.83 L2095.39 261.83 L2095.39 287.756 L2091.13 287.756 L2091.13 261.83 M2091.13 251.737 L2095.39 251.737 L2095.39 257.131 L2091.13 257.131 L2091.13 251.737 Z" fill="#000000" fill-rule="nonzero" fill-opacity="1" /><path clip-path="url(#clip030)" d="M2114.34 264.816 Q2110.92 264.816 2108.93 267.501 Q2106.94 270.163 2106.94 274.816 Q2106.94 279.469 2108.9 282.154 Q2110.89 284.816 2114.34 284.816 Q2117.75 284.816 2119.74 282.131 Q2121.73 279.446 2121.73 274.816 Q2121.73 270.21 2119.74 267.524 Q2117.75 264.816 2114.34 264.816 M2114.34 261.205 Q2119.9 261.205 2123.07 264.816 Q2126.24 268.427 2126.24 274.816 Q2126.24 281.182 2123.07 284.816 Q2119.9 288.427 2114.34 288.427 Q2108.77 288.427 2105.59 284.816 Q2102.45 281.182 2102.45 274.816 Q2102.45 268.427 2105.59 264.816 Q2108.77 261.205 2114.34 261.205 Z" fill="#000000" fill-rule="nonzero" fill-opacity="1" /><path clip-path="url(#clip030)" d="M2154.85 272.108 L2154.85 287.756 L2150.59 287.756 L2150.59 272.247 Q2150.59 268.566 2149.16 266.737 Q2147.72 264.909 2144.85 264.909 Q2141.4 264.909 2139.41 267.108 Q2137.42 269.307 2137.42 273.103 L2137.42 287.756 L2133.14 287.756 L2133.14 261.83 L2137.42 261.83 L2137.42 265.858 Q2138.95 263.52 2141.01 262.362 Q2143.09 261.205 2145.8 261.205 Q2150.27 261.205 2152.56 263.983 Q2154.85 266.737 2154.85 272.108 Z" fill="#000000" fill-rule="nonzero" fill-opacity="1" /><path clip-path="url(#clip030)" d="M2176.26 272.872 L2188.74 272.872 L2188.74 276.668 L2176.26 276.668 L2176.26 272.872 Z" fill="#000000" fill-rule="nonzero" fill-opacity="1" /><path clip-path="url(#clip030)" d="M2215.22 283.821 L2231.54 283.821 L2231.54 287.756 L2209.6 287.756 L2209.6 283.821 Q2212.26 281.066 2216.84 276.436 Q2221.45 271.784 2222.63 270.441 Q2224.88 267.918 2225.76 266.182 Q2226.66 264.423 2226.66 262.733 Q2226.66 259.978 2224.71 258.242 Q2222.79 256.506 2219.69 256.506 Q2217.49 256.506 2215.04 257.27 Q2212.61 258.034 2209.83 259.585 L2209.83 254.862 Q2212.65 253.728 2215.11 253.149 Q2217.56 252.571 2219.6 252.571 Q2224.97 252.571 2228.16 255.256 Q2231.36 257.941 2231.36 262.432 Q2231.36 264.561 2230.55 266.483 Q2229.76 268.381 2227.65 270.973 Q2227.07 271.645 2223.97 274.862 Q2220.87 278.057 2215.22 283.821 Z" fill="#000000" fill-rule="nonzero" fill-opacity="1" /><path clip-path="url(#clip030)" d="M2251.36 256.274 Q2247.75 256.274 2245.92 259.839 Q2244.11 263.381 2244.11 270.51 Q2244.11 277.617 2245.92 281.182 Q2247.75 284.723 2251.36 284.723 Q2254.99 284.723 2256.8 281.182 Q2258.63 277.617 2258.63 270.51 Q2258.63 263.381 2256.8 259.839 Q2254.99 256.274 2251.36 256.274 M2251.36 252.571 Q2257.17 252.571 2260.22 257.177 Q2263.3 261.76 2263.3 270.51 Q2263.3 279.237 2260.22 283.844 Q2257.17 288.427 2251.36 288.427 Q2245.55 288.427 2242.47 283.844 Q2239.41 279.237 2239.41 270.51 Q2239.41 261.76 2242.47 257.177 Q2245.55 252.571 2251.36 252.571 Z" fill="#000000" fill-rule="nonzero" fill-opacity="1" /></svg>
