<?xml version="1.0" encoding="utf-8"?>
<svg xmlns="http://www.w3.org/2000/svg" xmlns:xlink="http://www.w3.org/1999/xlink" width="600" height="400" viewBox="0 0 2400 1600">
<defs>
  <clipPath id="clip950">
    <rect x="0" y="0" width="2400" height="1600"/>
  </clipPath>
</defs>
<path clip-path="url(#clip950)" d="M0 1600 L2400 1600 L2400 0 L0 0  Z" fill="#ffffff" fill-rule="evenodd" fill-opacity="1"/>
<defs>
  <clipPath id="clip951">
    <rect x="480" y="0" width="1681" height="1600"/>
  </clipPath>
</defs>
<path clip-path="url(#clip950)" d="M310.352 1423.18 L2352.76 1423.18 L2352.76 123.472 L310.352 123.472  Z" fill="#ffffff" fill-rule="evenodd" fill-opacity="1"/>
<defs>
  <clipPath id="clip952">
    <rect x="310" y="123" width="2043" height="1301"/>
  </clipPath>
</defs>
<polyline clip-path="url(#clip952)" style="stroke:#000000; stroke-linecap:round; stroke-linejoin:round; stroke-width:2; stroke-opacity:0.1; fill:none" points="574.598,1423.18 574.598,123.472 "/>
<polyline clip-path="url(#clip952)" style="stroke:#000000; stroke-linecap:round; stroke-linejoin:round; stroke-width:2; stroke-opacity:0.1; fill:none" points="918.669,1423.18 918.669,123.472 "/>
<polyline clip-path="url(#clip952)" style="stroke:#000000; stroke-linecap:round; stroke-linejoin:round; stroke-width:2; stroke-opacity:0.1; fill:none" points="1262.74,1423.18 1262.74,123.472 "/>
<polyline clip-path="url(#clip952)" style="stroke:#000000; stroke-linecap:round; stroke-linejoin:round; stroke-width:2; stroke-opacity:0.1; fill:none" points="1606.81,1423.18 1606.81,123.472 "/>
<polyline clip-path="url(#clip952)" style="stroke:#000000; stroke-linecap:round; stroke-linejoin:round; stroke-width:2; stroke-opacity:0.1; fill:none" points="1950.88,1423.18 1950.88,123.472 "/>
<polyline clip-path="url(#clip952)" style="stroke:#000000; stroke-linecap:round; stroke-linejoin:round; stroke-width:2; stroke-opacity:0.1; fill:none" points="2294.95,1423.18 2294.95,123.472 "/>
<polyline clip-path="url(#clip950)" style="stroke:#000000; stroke-linecap:round; stroke-linejoin:round; stroke-width:4; stroke-opacity:1; fill:none" points="310.352,1423.18 2352.76,1423.18 "/>
<polyline clip-path="url(#clip950)" style="stroke:#000000; stroke-linecap:round; stroke-linejoin:round; stroke-width:4; stroke-opacity:1; fill:none" points="574.598,1423.18 574.598,1404.28 "/>
<polyline clip-path="url(#clip950)" style="stroke:#000000; stroke-linecap:round; stroke-linejoin:round; stroke-width:4; stroke-opacity:1; fill:none" points="918.669,1423.18 918.669,1404.28 "/>
<polyline clip-path="url(#clip950)" style="stroke:#000000; stroke-linecap:round; stroke-linejoin:round; stroke-width:4; stroke-opacity:1; fill:none" points="1262.74,1423.18 1262.74,1404.28 "/>
<polyline clip-path="url(#clip950)" style="stroke:#000000; stroke-linecap:round; stroke-linejoin:round; stroke-width:4; stroke-opacity:1; fill:none" points="1606.81,1423.18 1606.81,1404.28 "/>
<polyline clip-path="url(#clip950)" style="stroke:#000000; stroke-linecap:round; stroke-linejoin:round; stroke-width:4; stroke-opacity:1; fill:none" points="1950.88,1423.18 1950.88,1404.28 "/>
<polyline clip-path="url(#clip950)" style="stroke:#000000; stroke-linecap:round; stroke-linejoin:round; stroke-width:4; stroke-opacity:1; fill:none" points="2294.95,1423.18 2294.95,1404.28 "/>
<path clip-path="url(#clip950)" d="M564.876 1451.02 L583.232 1451.02 L583.232 1454.96 L569.158 1454.96 L569.158 1463.43 Q570.177 1463.08 571.195 1462.92 Q572.214 1462.73 573.233 1462.73 Q579.02 1462.73 582.399 1465.9 Q585.779 1469.08 585.779 1474.49 Q585.779 1480.07 582.307 1483.17 Q578.834 1486.25 572.515 1486.25 Q570.339 1486.25 568.07 1485.88 Q565.825 1485.51 563.418 1484.77 L563.418 1480.07 Q565.501 1481.2 567.723 1481.76 Q569.945 1482.32 572.422 1482.32 Q576.427 1482.32 578.765 1480.21 Q581.103 1478.1 581.103 1474.49 Q581.103 1470.88 578.765 1468.77 Q576.427 1466.67 572.422 1466.67 Q570.547 1466.67 568.672 1467.08 Q566.82 1467.5 564.876 1468.38 L564.876 1451.02 Z" fill="#000000" fill-rule="nonzero" fill-opacity="1" /><path clip-path="url(#clip950)" d="M893.357 1481.64 L900.995 1481.64 L900.995 1455.28 L892.685 1456.95 L892.685 1452.69 L900.949 1451.02 L905.625 1451.02 L905.625 1481.64 L913.264 1481.64 L913.264 1485.58 L893.357 1485.58 L893.357 1481.64 Z" fill="#000000" fill-rule="nonzero" fill-opacity="1" /><path clip-path="url(#clip950)" d="M932.708 1454.1 Q929.097 1454.1 927.268 1457.66 Q925.463 1461.2 925.463 1468.33 Q925.463 1475.44 927.268 1479.01 Q929.097 1482.55 932.708 1482.55 Q936.343 1482.55 938.148 1479.01 Q939.977 1475.44 939.977 1468.33 Q939.977 1461.2 938.148 1457.66 Q936.343 1454.1 932.708 1454.1 M932.708 1450.39 Q938.518 1450.39 941.574 1455 Q944.653 1459.58 944.653 1468.33 Q944.653 1477.06 941.574 1481.67 Q938.518 1486.25 932.708 1486.25 Q926.898 1486.25 923.819 1481.67 Q920.764 1477.06 920.764 1468.33 Q920.764 1459.58 923.819 1455 Q926.898 1450.39 932.708 1450.39 Z" fill="#000000" fill-rule="nonzero" fill-opacity="1" /><path clip-path="url(#clip950)" d="M1237.93 1481.64 L1245.56 1481.64 L1245.56 1455.28 L1237.25 1456.95 L1237.25 1452.69 L1245.52 1451.02 L1250.19 1451.02 L1250.19 1481.64 L1257.83 1481.64 L1257.83 1485.58 L1237.93 1485.58 L1237.93 1481.64 Z" fill="#000000" fill-rule="nonzero" fill-opacity="1" /><path clip-path="url(#clip950)" d="M1267.32 1451.02 L1285.68 1451.02 L1285.68 1454.96 L1271.61 1454.96 L1271.61 1463.43 Q1272.62 1463.08 1273.64 1462.92 Q1274.66 1462.73 1275.68 1462.73 Q1281.47 1462.73 1284.85 1465.9 Q1288.23 1469.08 1288.23 1474.49 Q1288.23 1480.07 1284.75 1483.17 Q1281.28 1486.25 1274.96 1486.25 Q1272.79 1486.25 1270.52 1485.88 Q1268.27 1485.51 1265.86 1484.77 L1265.86 1480.07 Q1267.95 1481.2 1270.17 1481.76 Q1272.39 1482.32 1274.87 1482.32 Q1278.87 1482.32 1281.21 1480.21 Q1283.55 1478.1 1283.55 1474.49 Q1283.55 1470.88 1281.21 1468.77 Q1278.87 1466.67 1274.87 1466.67 Q1272.99 1466.67 1271.12 1467.08 Q1269.27 1467.5 1267.32 1468.38 L1267.32 1451.02 Z" fill="#000000" fill-rule="nonzero" fill-opacity="1" /><path clip-path="url(#clip950)" d="M1585.58 1481.64 L1601.9 1481.64 L1601.9 1485.58 L1579.96 1485.58 L1579.96 1481.64 Q1582.62 1478.89 1587.2 1474.26 Q1591.81 1469.61 1592.99 1468.27 Q1595.24 1465.74 1596.12 1464.01 Q1597.02 1462.25 1597.02 1460.56 Q1597.02 1457.8 1595.07 1456.07 Q1593.15 1454.33 1590.05 1454.33 Q1587.85 1454.33 1585.4 1455.09 Q1582.97 1455.86 1580.19 1457.41 L1580.19 1452.69 Q1583.01 1451.55 1585.47 1450.97 Q1587.92 1450.39 1589.96 1450.39 Q1595.33 1450.39 1598.52 1453.08 Q1601.72 1455.77 1601.72 1460.26 Q1601.72 1462.39 1600.91 1464.31 Q1600.12 1466.2 1598.01 1468.8 Q1597.44 1469.47 1594.33 1472.69 Q1591.23 1475.88 1585.58 1481.64 Z" fill="#000000" fill-rule="nonzero" fill-opacity="1" /><path clip-path="url(#clip950)" d="M1621.72 1454.1 Q1618.11 1454.1 1616.28 1457.66 Q1614.47 1461.2 1614.47 1468.33 Q1614.47 1475.44 1616.28 1479.01 Q1618.11 1482.55 1621.72 1482.55 Q1625.35 1482.55 1627.16 1479.01 Q1628.99 1475.44 1628.99 1468.33 Q1628.99 1461.2 1627.16 1457.66 Q1625.35 1454.1 1621.72 1454.1 M1621.72 1450.39 Q1627.53 1450.39 1630.58 1455 Q1633.66 1459.58 1633.66 1468.33 Q1633.66 1477.06 1630.58 1481.67 Q1627.53 1486.25 1621.72 1486.25 Q1615.91 1486.25 1612.83 1481.67 Q1609.77 1477.06 1609.77 1468.33 Q1609.77 1459.58 1612.83 1455 Q1615.91 1450.39 1621.72 1450.39 Z" fill="#000000" fill-rule="nonzero" fill-opacity="1" /><path clip-path="url(#clip950)" d="M1930.15 1481.64 L1946.47 1481.64 L1946.47 1485.58 L1924.53 1485.58 L1924.53 1481.64 Q1927.19 1478.89 1931.77 1474.26 Q1936.38 1469.61 1937.56 1468.27 Q1939.8 1465.74 1940.68 1464.01 Q1941.59 1462.25 1941.59 1460.56 Q1941.59 1457.8 1939.64 1456.07 Q1937.72 1454.33 1934.62 1454.33 Q1932.42 1454.33 1929.97 1455.09 Q1927.54 1455.86 1924.76 1457.41 L1924.76 1452.69 Q1927.58 1451.55 1930.04 1450.97 Q1932.49 1450.39 1934.53 1450.39 Q1939.9 1450.39 1943.09 1453.08 Q1946.29 1455.77 1946.29 1460.26 Q1946.29 1462.39 1945.48 1464.31 Q1944.69 1466.2 1942.58 1468.8 Q1942 1469.47 1938.9 1472.69 Q1935.8 1475.88 1930.15 1481.64 Z" fill="#000000" fill-rule="nonzero" fill-opacity="1" /><path clip-path="url(#clip950)" d="M1956.33 1451.02 L1974.69 1451.02 L1974.69 1454.96 L1960.62 1454.96 L1960.62 1463.43 Q1961.63 1463.08 1962.65 1462.92 Q1963.67 1462.73 1964.69 1462.73 Q1970.48 1462.73 1973.86 1465.9 Q1977.24 1469.08 1977.24 1474.49 Q1977.24 1480.07 1973.76 1483.17 Q1970.29 1486.25 1963.97 1486.25 Q1961.8 1486.25 1959.53 1485.88 Q1957.28 1485.51 1954.87 1484.77 L1954.87 1480.07 Q1956.96 1481.2 1959.18 1481.76 Q1961.4 1482.32 1963.88 1482.32 Q1967.88 1482.32 1970.22 1480.21 Q1972.56 1478.1 1972.56 1474.49 Q1972.56 1470.88 1970.22 1468.77 Q1967.88 1466.67 1963.88 1466.67 Q1962 1466.67 1960.13 1467.08 Q1958.28 1467.5 1956.33 1468.38 L1956.33 1451.02 Z" fill="#000000" fill-rule="nonzero" fill-opacity="1" /><path clip-path="url(#clip950)" d="M2283.79 1466.95 Q2287.15 1467.66 2289.03 1469.93 Q2290.92 1472.2 2290.92 1475.53 Q2290.92 1480.65 2287.41 1483.45 Q2283.89 1486.25 2277.41 1486.25 Q2275.23 1486.25 2272.92 1485.81 Q2270.62 1485.39 2268.17 1484.54 L2268.17 1480.02 Q2270.11 1481.16 2272.43 1481.74 Q2274.74 1482.32 2277.27 1482.32 Q2281.67 1482.32 2283.96 1480.58 Q2286.27 1478.84 2286.27 1475.53 Q2286.27 1472.48 2284.12 1470.77 Q2281.99 1469.03 2278.17 1469.03 L2274.14 1469.03 L2274.14 1465.19 L2278.35 1465.19 Q2281.8 1465.19 2283.63 1463.82 Q2285.46 1462.43 2285.46 1459.84 Q2285.46 1457.18 2283.56 1455.77 Q2281.69 1454.33 2278.17 1454.33 Q2276.25 1454.33 2274.05 1454.75 Q2271.85 1455.16 2269.21 1456.04 L2269.21 1451.88 Q2271.87 1451.14 2274.19 1450.77 Q2276.53 1450.39 2278.59 1450.39 Q2283.91 1450.39 2287.01 1452.83 Q2290.11 1455.23 2290.11 1459.35 Q2290.11 1462.22 2288.47 1464.21 Q2286.83 1466.18 2283.79 1466.95 Z" fill="#000000" fill-rule="nonzero" fill-opacity="1" /><path clip-path="url(#clip950)" d="M2309.79 1454.1 Q2306.18 1454.1 2304.35 1457.66 Q2302.54 1461.2 2302.54 1468.33 Q2302.54 1475.44 2304.35 1479.01 Q2306.18 1482.55 2309.79 1482.55 Q2313.42 1482.55 2315.23 1479.01 Q2317.06 1475.44 2317.06 1468.33 Q2317.06 1461.2 2315.23 1457.66 Q2313.42 1454.1 2309.79 1454.1 M2309.79 1450.39 Q2315.6 1450.39 2318.66 1455 Q2321.73 1459.58 2321.73 1468.33 Q2321.73 1477.06 2318.66 1481.67 Q2315.6 1486.25 2309.79 1486.25 Q2303.98 1486.25 2300.9 1481.67 Q2297.85 1477.06 2297.85 1468.33 Q2297.85 1459.58 2300.9 1455 Q2303.98 1450.39 2309.79 1450.39 Z" fill="#000000" fill-rule="nonzero" fill-opacity="1" /><path clip-path="url(#clip950)" d="M1246.38 1546.53 L1246.38 1568.04 L1240.52 1568.04 L1240.52 1546.72 Q1240.52 1541.66 1238.55 1539.14 Q1236.58 1536.63 1232.63 1536.63 Q1227.89 1536.63 1225.15 1539.65 Q1222.41 1542.68 1222.41 1547.9 L1222.41 1568.04 L1216.53 1568.04 L1216.53 1518.52 L1222.41 1518.52 L1222.41 1537.93 Q1224.51 1534.72 1227.35 1533.13 Q1230.21 1531.54 1233.94 1531.54 Q1240.08 1531.54 1243.23 1535.36 Q1246.38 1539.14 1246.38 1546.53 Z" fill="#000000" fill-rule="nonzero" fill-opacity="1" /><path clip-path="url(#clip950)" d="M1271.88 1536.5 Q1267.16 1536.5 1264.43 1540.19 Q1261.69 1543.85 1261.69 1550.25 Q1261.69 1556.65 1264.4 1560.34 Q1267.13 1564 1271.88 1564 Q1276.55 1564 1279.29 1560.31 Q1282.03 1556.62 1282.03 1550.25 Q1282.03 1543.92 1279.29 1540.23 Q1276.55 1536.5 1271.88 1536.5 M1271.88 1531.54 Q1279.51 1531.54 1283.87 1536.5 Q1288.24 1541.47 1288.24 1550.25 Q1288.24 1559 1283.87 1564 Q1279.51 1568.97 1271.88 1568.97 Q1264.2 1568.97 1259.84 1564 Q1255.52 1559 1255.52 1550.25 Q1255.52 1541.47 1259.84 1536.5 Q1264.2 1531.54 1271.88 1531.54 Z" fill="#000000" fill-rule="nonzero" fill-opacity="1" /><path clip-path="url(#clip950)" d="M1318.6 1537.87 Q1317.61 1537.3 1316.44 1537.04 Q1315.29 1536.76 1313.89 1536.76 Q1308.92 1536.76 1306.25 1540 Q1303.61 1543.22 1303.61 1549.27 L1303.61 1568.04 L1297.72 1568.04 L1297.72 1532.4 L1303.61 1532.4 L1303.61 1537.93 Q1305.45 1534.69 1308.41 1533.13 Q1311.37 1531.54 1315.61 1531.54 Q1316.21 1531.54 1316.94 1531.63 Q1317.68 1531.7 1318.57 1531.85 L1318.6 1537.87 Z" fill="#000000" fill-rule="nonzero" fill-opacity="1" /><path clip-path="url(#clip950)" d="M1324.74 1532.4 L1330.6 1532.4 L1330.6 1568.04 L1324.74 1568.04 L1324.74 1532.4 M1324.74 1518.52 L1330.6 1518.52 L1330.6 1525.93 L1324.74 1525.93 L1324.74 1518.52 Z" fill="#000000" fill-rule="nonzero" fill-opacity="1" /><path clip-path="url(#clip950)" d="M1340.31 1532.4 L1368.12 1532.4 L1368.12 1537.74 L1346.1 1563.37 L1368.12 1563.37 L1368.12 1568.04 L1339.51 1568.04 L1339.51 1562.7 L1361.54 1537.07 L1340.31 1537.07 L1340.31 1532.4 Z" fill="#000000" fill-rule="nonzero" fill-opacity="1" /><path clip-path="url(#clip950)" d="M1390.88 1536.5 Q1386.17 1536.5 1383.43 1540.19 Q1380.7 1543.85 1380.7 1550.25 Q1380.7 1556.65 1383.4 1560.34 Q1386.14 1564 1390.88 1564 Q1395.56 1564 1398.3 1560.31 Q1401.04 1556.62 1401.04 1550.25 Q1401.04 1543.92 1398.3 1540.23 Q1395.56 1536.5 1390.88 1536.5 M1390.88 1531.54 Q1398.52 1531.54 1402.88 1536.5 Q1407.24 1541.47 1407.24 1550.25 Q1407.24 1559 1402.88 1564 Q1398.52 1568.97 1390.88 1568.97 Q1383.21 1568.97 1378.85 1564 Q1374.52 1559 1374.52 1550.25 Q1374.52 1541.47 1378.85 1536.5 Q1383.21 1531.54 1390.88 1531.54 Z" fill="#000000" fill-rule="nonzero" fill-opacity="1" /><path clip-path="url(#clip950)" d="M1446.58 1546.53 L1446.58 1568.04 L1440.73 1568.04 L1440.73 1546.72 Q1440.73 1541.66 1438.75 1539.14 Q1436.78 1536.63 1432.83 1536.63 Q1428.09 1536.63 1425.35 1539.65 Q1422.62 1542.68 1422.62 1547.9 L1422.62 1568.04 L1416.73 1568.04 L1416.73 1532.4 L1422.62 1532.4 L1422.62 1537.93 Q1424.72 1534.72 1427.55 1533.13 Q1430.41 1531.54 1434.14 1531.54 Q1440.28 1531.54 1443.43 1535.36 Q1446.58 1539.14 1446.58 1546.53 Z" fill="#000000" fill-rule="nonzero" fill-opacity="1" /><polyline clip-path="url(#clip952)" style="stroke:#000000; stroke-linecap:round; stroke-linejoin:round; stroke-width:2; stroke-opacity:0.1; fill:none" points="310.352,1406.15 2352.76,1406.15 "/>
<polyline clip-path="url(#clip952)" style="stroke:#000000; stroke-linecap:round; stroke-linejoin:round; stroke-width:2; stroke-opacity:0.1; fill:none" points="310.352,1115.48 2352.76,1115.48 "/>
<polyline clip-path="url(#clip952)" style="stroke:#000000; stroke-linecap:round; stroke-linejoin:round; stroke-width:2; stroke-opacity:0.1; fill:none" points="310.352,824.813 2352.76,824.813 "/>
<polyline clip-path="url(#clip952)" style="stroke:#000000; stroke-linecap:round; stroke-linejoin:round; stroke-width:2; stroke-opacity:0.1; fill:none" points="310.352,534.145 2352.76,534.145 "/>
<polyline clip-path="url(#clip952)" style="stroke:#000000; stroke-linecap:round; stroke-linejoin:round; stroke-width:2; stroke-opacity:0.1; fill:none" points="310.352,243.477 2352.76,243.477 "/>
<polyline clip-path="url(#clip950)" style="stroke:#000000; stroke-linecap:round; stroke-linejoin:round; stroke-width:4; stroke-opacity:1; fill:none" points="310.352,1423.18 310.352,123.472 "/>
<polyline clip-path="url(#clip950)" style="stroke:#000000; stroke-linecap:round; stroke-linejoin:round; stroke-width:4; stroke-opacity:1; fill:none" points="310.352,1406.15 329.25,1406.15 "/>
<polyline clip-path="url(#clip950)" style="stroke:#000000; stroke-linecap:round; stroke-linejoin:round; stroke-width:4; stroke-opacity:1; fill:none" points="310.352,1115.48 329.25,1115.48 "/>
<polyline clip-path="url(#clip950)" style="stroke:#000000; stroke-linecap:round; stroke-linejoin:round; stroke-width:4; stroke-opacity:1; fill:none" points="310.352,824.813 329.25,824.813 "/>
<polyline clip-path="url(#clip950)" style="stroke:#000000; stroke-linecap:round; stroke-linejoin:round; stroke-width:4; stroke-opacity:1; fill:none" points="310.352,534.145 329.25,534.145 "/>
<polyline clip-path="url(#clip950)" style="stroke:#000000; stroke-linecap:round; stroke-linejoin:round; stroke-width:4; stroke-opacity:1; fill:none" points="310.352,243.477 329.25,243.477 "/>
<path clip-path="url(#clip950)" d="M127.917 1391.95 Q124.306 1391.95 122.478 1395.51 Q120.672 1399.06 120.672 1406.19 Q120.672 1413.29 122.478 1416.86 Q124.306 1420.4 127.917 1420.4 Q131.552 1420.4 133.357 1416.86 Q135.186 1413.29 135.186 1406.19 Q135.186 1399.06 133.357 1395.51 Q131.552 1391.95 127.917 1391.95 M127.917 1388.25 Q133.728 1388.25 136.783 1392.85 Q139.862 1397.44 139.862 1406.19 Q139.862 1414.91 136.783 1419.52 Q133.728 1424.1 127.917 1424.1 Q122.107 1424.1 119.029 1419.52 Q115.973 1414.91 115.973 1406.19 Q115.973 1397.44 119.029 1392.85 Q122.107 1388.25 127.917 1388.25 Z" fill="#000000" fill-rule="nonzero" fill-opacity="1" /><path clip-path="url(#clip950)" d="M148.079 1417.55 L152.964 1417.55 L152.964 1423.43 L148.079 1423.43 L148.079 1417.55 Z" fill="#000000" fill-rule="nonzero" fill-opacity="1" /><path clip-path="url(#clip950)" d="M173.149 1391.95 Q169.538 1391.95 167.709 1395.51 Q165.903 1399.06 165.903 1406.19 Q165.903 1413.29 167.709 1416.86 Q169.538 1420.4 173.149 1420.4 Q176.783 1420.4 178.589 1416.86 Q180.417 1413.29 180.417 1406.19 Q180.417 1399.06 178.589 1395.51 Q176.783 1391.95 173.149 1391.95 M173.149 1388.25 Q178.959 1388.25 182.014 1392.85 Q185.093 1397.44 185.093 1406.19 Q185.093 1414.91 182.014 1419.52 Q178.959 1424.1 173.149 1424.1 Q167.339 1424.1 164.26 1419.52 Q161.204 1414.91 161.204 1406.19 Q161.204 1397.44 164.26 1392.85 Q167.339 1388.25 173.149 1388.25 Z" fill="#000000" fill-rule="nonzero" fill-opacity="1" /><path clip-path="url(#clip950)" d="M203.311 1391.95 Q199.7 1391.95 197.871 1395.51 Q196.065 1399.06 196.065 1406.19 Q196.065 1413.29 197.871 1416.86 Q199.7 1420.4 203.311 1420.4 Q206.945 1420.4 208.75 1416.86 Q210.579 1413.29 210.579 1406.19 Q210.579 1399.06 208.75 1395.51 Q206.945 1391.95 203.311 1391.95 M203.311 1388.25 Q209.121 1388.25 212.176 1392.85 Q215.255 1397.44 215.255 1406.19 Q215.255 1414.91 212.176 1419.52 Q209.121 1424.1 203.311 1424.1 Q197.5 1424.1 194.422 1419.52 Q191.366 1414.91 191.366 1406.19 Q191.366 1397.44 194.422 1392.85 Q197.5 1388.25 203.311 1388.25 Z" fill="#000000" fill-rule="nonzero" fill-opacity="1" /><path clip-path="url(#clip950)" d="M227.5 1419.5 L243.82 1419.5 L243.82 1423.43 L221.875 1423.43 L221.875 1419.5 Q224.537 1416.74 229.121 1412.11 Q233.727 1407.46 234.908 1406.12 Q237.153 1403.59 238.033 1401.86 Q238.935 1400.1 238.935 1398.41 Q238.935 1395.65 236.991 1393.92 Q235.07 1392.18 231.968 1392.18 Q229.769 1392.18 227.315 1392.94 Q224.885 1393.71 222.107 1395.26 L222.107 1390.54 Q224.931 1389.4 227.385 1388.82 Q229.838 1388.25 231.875 1388.25 Q237.246 1388.25 240.44 1390.93 Q243.634 1393.62 243.634 1398.11 Q243.634 1400.24 242.824 1402.16 Q242.037 1404.06 239.931 1406.65 Q239.352 1407.32 236.25 1410.54 Q233.148 1413.73 227.5 1419.5 Z" fill="#000000" fill-rule="nonzero" fill-opacity="1" /><path clip-path="url(#clip950)" d="M254.445 1419.5 L262.083 1419.5 L262.083 1393.13 L253.773 1394.8 L253.773 1390.54 L262.037 1388.87 L266.713 1388.87 L266.713 1419.5 L274.352 1419.5 L274.352 1423.43 L254.445 1423.43 L254.445 1419.5 Z" fill="#000000" fill-rule="nonzero" fill-opacity="1" /><path clip-path="url(#clip950)" d="M128.288 1101.28 Q124.677 1101.28 122.848 1104.85 Q121.043 1108.39 121.043 1115.52 Q121.043 1122.62 122.848 1126.19 Q124.677 1129.73 128.288 1129.73 Q131.922 1129.73 133.728 1126.19 Q135.556 1122.62 135.556 1115.52 Q135.556 1108.39 133.728 1104.85 Q131.922 1101.28 128.288 1101.28 M128.288 1097.58 Q134.098 1097.58 137.154 1102.18 Q140.232 1106.77 140.232 1115.52 Q140.232 1124.24 137.154 1128.85 Q134.098 1133.43 128.288 1133.43 Q122.478 1133.43 119.399 1128.85 Q116.343 1124.24 116.343 1115.52 Q116.343 1106.77 119.399 1102.18 Q122.478 1097.58 128.288 1097.58 Z" fill="#000000" fill-rule="nonzero" fill-opacity="1" /><path clip-path="url(#clip950)" d="M148.45 1126.88 L153.334 1126.88 L153.334 1132.76 L148.45 1132.76 L148.45 1126.88 Z" fill="#000000" fill-rule="nonzero" fill-opacity="1" /><path clip-path="url(#clip950)" d="M173.519 1101.28 Q169.908 1101.28 168.079 1104.85 Q166.274 1108.39 166.274 1115.52 Q166.274 1122.62 168.079 1126.19 Q169.908 1129.73 173.519 1129.73 Q177.153 1129.73 178.959 1126.19 Q180.788 1122.62 180.788 1115.52 Q180.788 1108.39 178.959 1104.85 Q177.153 1101.28 173.519 1101.28 M173.519 1097.58 Q179.329 1097.58 182.385 1102.18 Q185.463 1106.77 185.463 1115.52 Q185.463 1124.24 182.385 1128.85 Q179.329 1133.43 173.519 1133.43 Q167.709 1133.43 164.63 1128.85 Q161.575 1124.24 161.575 1115.52 Q161.575 1106.77 164.63 1102.18 Q167.709 1097.58 173.519 1097.58 Z" fill="#000000" fill-rule="nonzero" fill-opacity="1" /><path clip-path="url(#clip950)" d="M203.681 1101.28 Q200.07 1101.28 198.241 1104.85 Q196.436 1108.39 196.436 1115.52 Q196.436 1122.62 198.241 1126.19 Q200.07 1129.73 203.681 1129.73 Q207.315 1129.73 209.121 1126.19 Q210.949 1122.62 210.949 1115.52 Q210.949 1108.39 209.121 1104.85 Q207.315 1101.28 203.681 1101.28 M203.681 1097.58 Q209.491 1097.58 212.547 1102.18 Q215.625 1106.77 215.625 1115.52 Q215.625 1124.24 212.547 1128.85 Q209.491 1133.43 203.681 1133.43 Q197.871 1133.43 194.792 1128.85 Q191.737 1124.24 191.737 1115.52 Q191.737 1106.77 194.792 1102.18 Q197.871 1097.58 203.681 1097.58 Z" fill="#000000" fill-rule="nonzero" fill-opacity="1" /><path clip-path="url(#clip950)" d="M227.871 1128.83 L244.19 1128.83 L244.19 1132.76 L222.246 1132.76 L222.246 1128.83 Q224.908 1126.07 229.491 1121.44 Q234.097 1116.79 235.278 1115.45 Q237.523 1112.92 238.403 1111.19 Q239.306 1109.43 239.306 1107.74 Q239.306 1104.98 237.361 1103.25 Q235.44 1101.51 232.338 1101.51 Q230.139 1101.51 227.685 1102.28 Q225.255 1103.04 222.477 1104.59 L222.477 1099.87 Q225.301 1098.73 227.755 1098.16 Q230.209 1097.58 232.246 1097.58 Q237.616 1097.58 240.81 1100.26 Q244.005 1102.95 244.005 1107.44 Q244.005 1109.57 243.195 1111.49 Q242.408 1113.39 240.301 1115.98 Q239.722 1116.65 236.621 1119.87 Q233.519 1123.06 227.871 1128.83 Z" fill="#000000" fill-rule="nonzero" fill-opacity="1" /><path clip-path="url(#clip950)" d="M258.033 1128.83 L274.352 1128.83 L274.352 1132.76 L252.408 1132.76 L252.408 1128.83 Q255.07 1126.07 259.653 1121.44 Q264.259 1116.79 265.44 1115.45 Q267.685 1112.92 268.565 1111.19 Q269.468 1109.43 269.468 1107.74 Q269.468 1104.98 267.523 1103.25 Q265.602 1101.51 262.5 1101.51 Q260.301 1101.51 257.847 1102.28 Q255.417 1103.04 252.639 1104.59 L252.639 1099.87 Q255.463 1098.73 257.917 1098.16 Q260.37 1097.58 262.408 1097.58 Q267.778 1097.58 270.972 1100.26 Q274.167 1102.95 274.167 1107.44 Q274.167 1109.57 273.357 1111.49 Q272.569 1113.39 270.463 1115.98 Q269.884 1116.65 266.782 1119.87 Q263.681 1123.06 258.033 1128.83 Z" fill="#000000" fill-rule="nonzero" fill-opacity="1" /><path clip-path="url(#clip950)" d="M127.339 810.612 Q123.728 810.612 121.899 814.177 Q120.093 817.719 120.093 824.848 Q120.093 831.955 121.899 835.519 Q123.728 839.061 127.339 839.061 Q130.973 839.061 132.779 835.519 Q134.607 831.955 134.607 824.848 Q134.607 817.719 132.779 814.177 Q130.973 810.612 127.339 810.612 M127.339 806.908 Q133.149 806.908 136.204 811.515 Q139.283 816.098 139.283 824.848 Q139.283 833.575 136.204 838.181 Q133.149 842.765 127.339 842.765 Q121.529 842.765 118.45 838.181 Q115.394 833.575 115.394 824.848 Q115.394 816.098 118.45 811.515 Q121.529 806.908 127.339 806.908 Z" fill="#000000" fill-rule="nonzero" fill-opacity="1" /><path clip-path="url(#clip950)" d="M147.501 836.214 L152.385 836.214 L152.385 842.093 L147.501 842.093 L147.501 836.214 Z" fill="#000000" fill-rule="nonzero" fill-opacity="1" /><path clip-path="url(#clip950)" d="M172.57 810.612 Q168.959 810.612 167.13 814.177 Q165.325 817.719 165.325 824.848 Q165.325 831.955 167.13 835.519 Q168.959 839.061 172.57 839.061 Q176.204 839.061 178.01 835.519 Q179.839 831.955 179.839 824.848 Q179.839 817.719 178.01 814.177 Q176.204 810.612 172.57 810.612 M172.57 806.908 Q178.38 806.908 181.436 811.515 Q184.514 816.098 184.514 824.848 Q184.514 833.575 181.436 838.181 Q178.38 842.765 172.57 842.765 Q166.76 842.765 163.681 838.181 Q160.626 833.575 160.626 824.848 Q160.626 816.098 163.681 811.515 Q166.76 806.908 172.57 806.908 Z" fill="#000000" fill-rule="nonzero" fill-opacity="1" /><path clip-path="url(#clip950)" d="M202.732 810.612 Q199.121 810.612 197.292 814.177 Q195.487 817.719 195.487 824.848 Q195.487 831.955 197.292 835.519 Q199.121 839.061 202.732 839.061 Q206.366 839.061 208.172 835.519 Q210 831.955 210 824.848 Q210 817.719 208.172 814.177 Q206.366 810.612 202.732 810.612 M202.732 806.908 Q208.542 806.908 211.598 811.515 Q214.676 816.098 214.676 824.848 Q214.676 833.575 211.598 838.181 Q208.542 842.765 202.732 842.765 Q196.922 842.765 193.843 838.181 Q190.788 833.575 190.788 824.848 Q190.788 816.098 193.843 811.515 Q196.922 806.908 202.732 806.908 Z" fill="#000000" fill-rule="nonzero" fill-opacity="1" /><path clip-path="url(#clip950)" d="M226.922 838.158 L243.241 838.158 L243.241 842.093 L221.297 842.093 L221.297 838.158 Q223.959 835.404 228.542 830.774 Q233.148 826.121 234.329 824.779 Q236.574 822.256 237.454 820.52 Q238.357 818.76 238.357 817.07 Q238.357 814.316 236.412 812.58 Q234.491 810.844 231.389 810.844 Q229.19 810.844 226.736 811.608 Q224.306 812.371 221.528 813.922 L221.528 809.2 Q224.352 808.066 226.806 807.487 Q229.26 806.908 231.297 806.908 Q236.667 806.908 239.861 809.594 Q243.056 812.279 243.056 816.77 Q243.056 818.899 242.246 820.82 Q241.459 822.719 239.352 825.311 Q238.773 825.982 235.672 829.2 Q232.57 832.394 226.922 838.158 Z" fill="#000000" fill-rule="nonzero" fill-opacity="1" /><path clip-path="url(#clip950)" d="M267.222 823.459 Q270.579 824.177 272.454 826.445 Q274.352 828.714 274.352 832.047 Q274.352 837.163 270.833 839.964 Q267.315 842.765 260.833 842.765 Q258.658 842.765 256.343 842.325 Q254.051 841.908 251.597 841.052 L251.597 836.538 Q253.542 837.672 255.857 838.251 Q258.171 838.83 260.695 838.83 Q265.093 838.83 267.384 837.094 Q269.699 835.357 269.699 832.047 Q269.699 828.992 267.546 827.279 Q265.417 825.543 261.597 825.543 L257.57 825.543 L257.57 821.7 L261.783 821.7 Q265.232 821.7 267.06 820.334 Q268.889 818.945 268.889 816.353 Q268.889 813.691 266.991 812.279 Q265.116 810.844 261.597 810.844 Q259.676 810.844 257.477 811.26 Q255.278 811.677 252.639 812.557 L252.639 808.39 Q255.301 807.649 257.616 807.279 Q259.954 806.908 262.014 806.908 Q267.338 806.908 270.44 809.339 Q273.542 811.746 273.542 815.867 Q273.542 818.737 271.898 820.728 Q270.255 822.695 267.222 823.459 Z" fill="#000000" fill-rule="nonzero" fill-opacity="1" /><path clip-path="url(#clip950)" d="M126.205 519.944 Q122.593 519.944 120.765 523.509 Q118.959 527.05 118.959 534.18 Q118.959 541.286 120.765 544.851 Q122.593 548.393 126.205 548.393 Q129.839 548.393 131.644 544.851 Q133.473 541.286 133.473 534.18 Q133.473 527.05 131.644 523.509 Q129.839 519.944 126.205 519.944 M126.205 516.24 Q132.015 516.24 135.07 520.846 Q138.149 525.43 138.149 534.18 Q138.149 542.907 135.07 547.513 Q132.015 552.096 126.205 552.096 Q120.394 552.096 117.316 547.513 Q114.26 542.907 114.26 534.18 Q114.26 525.43 117.316 520.846 Q120.394 516.24 126.205 516.24 Z" fill="#000000" fill-rule="nonzero" fill-opacity="1" /><path clip-path="url(#clip950)" d="M146.366 545.545 L151.251 545.545 L151.251 551.425 L146.366 551.425 L146.366 545.545 Z" fill="#000000" fill-rule="nonzero" fill-opacity="1" /><path clip-path="url(#clip950)" d="M171.436 519.944 Q167.825 519.944 165.996 523.509 Q164.19 527.05 164.19 534.18 Q164.19 541.286 165.996 544.851 Q167.825 548.393 171.436 548.393 Q175.07 548.393 176.876 544.851 Q178.704 541.286 178.704 534.18 Q178.704 527.05 176.876 523.509 Q175.07 519.944 171.436 519.944 M171.436 516.24 Q177.246 516.24 180.301 520.846 Q183.38 525.43 183.38 534.18 Q183.38 542.907 180.301 547.513 Q177.246 552.096 171.436 552.096 Q165.626 552.096 162.547 547.513 Q159.491 542.907 159.491 534.18 Q159.491 525.43 162.547 520.846 Q165.626 516.24 171.436 516.24 Z" fill="#000000" fill-rule="nonzero" fill-opacity="1" /><path clip-path="url(#clip950)" d="M201.598 519.944 Q197.987 519.944 196.158 523.509 Q194.352 527.05 194.352 534.18 Q194.352 541.286 196.158 544.851 Q197.987 548.393 201.598 548.393 Q205.232 548.393 207.037 544.851 Q208.866 541.286 208.866 534.18 Q208.866 527.05 207.037 523.509 Q205.232 519.944 201.598 519.944 M201.598 516.24 Q207.408 516.24 210.463 520.846 Q213.542 525.43 213.542 534.18 Q213.542 542.907 210.463 547.513 Q207.408 552.096 201.598 552.096 Q195.787 552.096 192.709 547.513 Q189.653 542.907 189.653 534.18 Q189.653 525.43 192.709 520.846 Q195.787 516.24 201.598 516.24 Z" fill="#000000" fill-rule="nonzero" fill-opacity="1" /><path clip-path="url(#clip950)" d="M225.787 547.49 L242.107 547.49 L242.107 551.425 L220.162 551.425 L220.162 547.49 Q222.824 544.735 227.408 540.106 Q232.014 535.453 233.195 534.11 Q235.44 531.587 236.32 529.851 Q237.222 528.092 237.222 526.402 Q237.222 523.647 235.278 521.911 Q233.357 520.175 230.255 520.175 Q228.056 520.175 225.602 520.939 Q223.172 521.703 220.394 523.254 L220.394 518.532 Q223.218 517.397 225.672 516.819 Q228.125 516.24 230.162 516.24 Q235.533 516.24 238.727 518.925 Q241.922 521.61 241.922 526.101 Q241.922 528.231 241.111 530.152 Q240.324 532.05 238.218 534.643 Q237.639 535.314 234.537 538.532 Q231.435 541.726 225.787 547.49 Z" fill="#000000" fill-rule="nonzero" fill-opacity="1" /><path clip-path="url(#clip950)" d="M264.769 520.939 L252.963 539.388 L264.769 539.388 L264.769 520.939 M263.542 516.865 L269.421 516.865 L269.421 539.388 L274.352 539.388 L274.352 543.277 L269.421 543.277 L269.421 551.425 L264.769 551.425 L264.769 543.277 L249.167 543.277 L249.167 538.763 L263.542 516.865 Z" fill="#000000" fill-rule="nonzero" fill-opacity="1" /><path clip-path="url(#clip950)" d="M127.686 229.275 Q124.075 229.275 122.246 232.84 Q120.441 236.382 120.441 243.511 Q120.441 250.618 122.246 254.183 Q124.075 257.724 127.686 257.724 Q131.32 257.724 133.126 254.183 Q134.954 250.618 134.954 243.511 Q134.954 236.382 133.126 232.84 Q131.32 229.275 127.686 229.275 M127.686 225.572 Q133.496 225.572 136.552 230.178 Q139.63 234.761 139.63 243.511 Q139.63 252.238 136.552 256.845 Q133.496 261.428 127.686 261.428 Q121.876 261.428 118.797 256.845 Q115.742 252.238 115.742 243.511 Q115.742 234.761 118.797 230.178 Q121.876 225.572 127.686 225.572 Z" fill="#000000" fill-rule="nonzero" fill-opacity="1" /><path clip-path="url(#clip950)" d="M147.848 254.877 L152.732 254.877 L152.732 260.757 L147.848 260.757 L147.848 254.877 Z" fill="#000000" fill-rule="nonzero" fill-opacity="1" /><path clip-path="url(#clip950)" d="M172.917 229.275 Q169.306 229.275 167.477 232.84 Q165.672 236.382 165.672 243.511 Q165.672 250.618 167.477 254.183 Q169.306 257.724 172.917 257.724 Q176.551 257.724 178.357 254.183 Q180.186 250.618 180.186 243.511 Q180.186 236.382 178.357 232.84 Q176.551 229.275 172.917 229.275 M172.917 225.572 Q178.727 225.572 181.783 230.178 Q184.862 234.761 184.862 243.511 Q184.862 252.238 181.783 256.845 Q178.727 261.428 172.917 261.428 Q167.107 261.428 164.028 256.845 Q160.973 252.238 160.973 243.511 Q160.973 234.761 164.028 230.178 Q167.107 225.572 172.917 225.572 Z" fill="#000000" fill-rule="nonzero" fill-opacity="1" /><path clip-path="url(#clip950)" d="M203.079 229.275 Q199.468 229.275 197.639 232.84 Q195.834 236.382 195.834 243.511 Q195.834 250.618 197.639 254.183 Q199.468 257.724 203.079 257.724 Q206.713 257.724 208.519 254.183 Q210.348 250.618 210.348 243.511 Q210.348 236.382 208.519 232.84 Q206.713 229.275 203.079 229.275 M203.079 225.572 Q208.889 225.572 211.945 230.178 Q215.024 234.761 215.024 243.511 Q215.024 252.238 211.945 256.845 Q208.889 261.428 203.079 261.428 Q197.269 261.428 194.19 256.845 Q191.135 252.238 191.135 243.511 Q191.135 234.761 194.19 230.178 Q197.269 225.572 203.079 225.572 Z" fill="#000000" fill-rule="nonzero" fill-opacity="1" /><path clip-path="url(#clip950)" d="M227.269 256.821 L243.588 256.821 L243.588 260.757 L221.644 260.757 L221.644 256.821 Q224.306 254.067 228.889 249.437 Q233.496 244.784 234.676 243.442 Q236.922 240.919 237.801 239.183 Q238.704 237.423 238.704 235.734 Q238.704 232.979 236.76 231.243 Q234.838 229.507 231.736 229.507 Q229.537 229.507 227.084 230.271 Q224.653 231.034 221.875 232.585 L221.875 227.863 Q224.699 226.729 227.153 226.15 Q229.607 225.572 231.644 225.572 Q237.014 225.572 240.209 228.257 Q243.403 230.942 243.403 235.433 Q243.403 237.562 242.593 239.484 Q241.806 241.382 239.699 243.974 Q239.121 244.646 236.019 247.863 Q232.917 251.058 227.269 256.821 Z" fill="#000000" fill-rule="nonzero" fill-opacity="1" /><path clip-path="url(#clip950)" d="M253.449 226.197 L271.806 226.197 L271.806 230.132 L257.732 230.132 L257.732 238.604 Q258.75 238.257 259.769 238.095 Q260.787 237.909 261.806 237.909 Q267.593 237.909 270.972 241.081 Q274.352 244.252 274.352 249.669 Q274.352 255.247 270.88 258.349 Q267.407 261.428 261.088 261.428 Q258.912 261.428 256.644 261.057 Q254.398 260.687 251.991 259.946 L251.991 255.247 Q254.074 256.382 256.296 256.937 Q258.519 257.493 260.995 257.493 Q265 257.493 267.338 255.386 Q269.676 253.28 269.676 249.669 Q269.676 246.058 267.338 243.951 Q265 241.845 260.995 241.845 Q259.12 241.845 257.246 242.261 Q255.394 242.678 253.449 243.558 L253.449 226.197 Z" fill="#000000" fill-rule="nonzero" fill-opacity="1" /><path clip-path="url(#clip950)" d="M16.4842 874.557 L16.4842 864.976 L48.8219 852.85 L16.4842 840.659 L16.4842 831.079 L64.0042 831.079 L64.0042 837.349 L22.277 837.349 L54.8694 849.603 L54.8694 856.064 L22.277 868.318 L64.0042 868.318 L64.0042 874.557 L16.4842 874.557 Z" fill="#000000" fill-rule="nonzero" fill-opacity="1" /><path clip-path="url(#clip950)" d="M41.7242 795.781 Q42.4244 793.712 44.7161 791.771 Q47.0077 789.797 51.0181 787.824 L64.0042 781.299 L64.0042 788.206 L51.8138 794.285 Q47.0395 796.64 45.48 798.868 Q43.9204 801.065 43.9204 804.884 L43.9204 811.886 L64.0042 811.886 L64.0042 818.316 L16.4842 818.316 L16.4842 803.802 Q16.4842 795.654 19.8898 791.643 Q23.2955 787.633 30.1704 787.633 Q34.6582 787.633 37.6183 789.734 Q40.5784 791.802 41.7242 795.781 M21.7677 811.886 L38.6368 811.886 L38.6368 803.802 Q38.6368 799.155 36.5043 796.8 Q34.34 794.412 30.1704 794.412 Q26.0009 794.412 23.9002 796.8 Q21.7677 799.155 21.7677 803.802 L21.7677 811.886 Z" fill="#000000" fill-rule="nonzero" fill-opacity="1" /><path clip-path="url(#clip950)" d="M22.818 759.783 L46.4666 768.504 L46.4666 751.03 L22.818 759.783 M16.4842 763.411 L16.4842 756.123 L64.0042 738.012 L64.0042 744.696 L51.8138 749.025 L51.8138 770.446 L64.0042 774.774 L64.0042 781.554 L16.4842 763.411 Z" fill="#000000" fill-rule="nonzero" fill-opacity="1" /><path clip-path="url(#clip950)" d="M16.4842 731.074 L16.4842 701.027 L21.895 701.027 L21.895 724.644 L35.9632 724.644 L35.9632 702.014 L41.3741 702.014 L41.3741 724.644 L58.5933 724.644 L58.5933 700.455 L64.0042 700.455 L64.0042 731.074 L16.4842 731.074 Z" fill="#000000" fill-rule="nonzero" fill-opacity="1" /><path clip-path="url(#clip950)" d="M14.479 672.095 L19.3487 672.095 L19.3487 677.697 Q19.3487 680.848 20.6219 682.089 Q21.895 683.299 25.2052 683.299 L28.3562 683.299 L28.3562 673.655 L32.9077 673.655 L32.9077 683.299 L64.0042 683.299 L64.0042 689.187 L32.9077 689.187 L32.9077 694.789 L28.3562 694.789 L28.3562 689.187 L25.8736 689.187 Q19.9216 689.187 17.2162 686.418 Q14.479 683.649 14.479 677.633 L14.479 672.095 Z" fill="#000000" fill-rule="nonzero" fill-opacity="1" /><path clip-path="url(#clip950)" d="M579.747 12.096 L587.929 12.096 L587.929 65.6895 L617.379 65.6895 L617.379 72.576 L579.747 72.576 L579.747 12.096 Z" fill="#000000" fill-rule="nonzero" fill-opacity="1" /><path clip-path="url(#clip950)" d="M625.643 27.2059 L633.097 27.2059 L633.097 72.576 L625.643 72.576 L625.643 27.2059 M625.643 9.54393 L633.097 9.54393 L633.097 18.9825 L625.643 18.9825 L625.643 9.54393 Z" fill="#000000" fill-rule="nonzero" fill-opacity="1" /><path clip-path="url(#clip950)" d="M686.407 45.1919 L686.407 72.576 L678.953 72.576 L678.953 45.4349 Q678.953 38.994 676.442 35.7938 Q673.93 32.5936 668.907 32.5936 Q662.871 32.5936 659.387 36.4419 Q655.904 40.2903 655.904 46.9338 L655.904 72.576 L648.409 72.576 L648.409 27.2059 L655.904 27.2059 L655.904 34.2544 Q658.577 30.163 662.182 28.1376 Q665.828 26.1121 670.568 26.1121 Q678.386 26.1121 682.396 30.9732 Q686.407 35.7938 686.407 45.1919 Z" fill="#000000" fill-rule="nonzero" fill-opacity="1" /><path clip-path="url(#clip950)" d="M740.081 48.0275 L740.081 51.6733 L705.811 51.6733 Q706.297 59.3701 710.429 63.421 Q714.601 67.4314 722.014 67.4314 Q726.308 67.4314 730.319 66.3781 Q734.37 65.3249 738.339 63.2184 L738.339 70.267 Q734.329 71.9684 730.116 72.8596 Q725.903 73.7508 721.569 73.7508 Q710.712 73.7508 704.352 67.4314 Q698.033 61.1119 698.033 50.3365 Q698.033 39.1965 704.028 32.6746 Q710.064 26.1121 720.272 26.1121 Q729.427 26.1121 734.734 32.0264 Q740.081 37.9003 740.081 48.0275 M732.628 45.84 Q732.547 39.7232 729.184 36.0774 Q725.863 32.4315 720.353 32.4315 Q714.115 32.4315 710.348 35.9558 Q706.621 39.4801 706.054 45.8805 L732.628 45.84 Z" fill="#000000" fill-rule="nonzero" fill-opacity="1" /><path clip-path="url(#clip950)" d="M772.934 49.7694 Q763.901 49.7694 760.417 51.8354 Q756.933 53.9013 756.933 58.8839 Q756.933 62.8538 759.526 65.2034 Q762.159 67.5124 766.655 67.5124 Q772.853 67.5124 776.58 63.1374 Q780.347 58.7219 780.347 51.4303 L780.347 49.7694 L772.934 49.7694 M787.801 46.6907 L787.801 72.576 L780.347 72.576 L780.347 65.6895 Q777.795 69.8214 773.987 71.8063 Q770.18 73.7508 764.67 73.7508 Q757.703 73.7508 753.571 69.8619 Q749.479 65.9325 749.479 59.3701 Q749.479 51.7138 754.584 47.825 Q759.728 43.9361 769.896 43.9361 L780.347 43.9361 L780.347 43.2069 Q780.347 38.0623 776.945 35.2672 Q773.582 32.4315 767.465 32.4315 Q763.577 32.4315 759.89 33.3632 Q756.204 34.295 752.801 36.1584 L752.801 29.2718 Q756.893 27.692 760.741 26.9223 Q764.589 26.1121 768.235 26.1121 Q778.079 26.1121 782.94 31.2163 Q787.801 36.3204 787.801 46.6907 Z" fill="#000000" fill-rule="nonzero" fill-opacity="1" /><path clip-path="url(#clip950)" d="M829.444 34.1734 Q828.189 33.4443 826.69 33.1202 Q825.231 32.7556 823.449 32.7556 Q817.13 32.7556 813.727 36.8875 Q810.365 40.9789 810.365 48.6757 L810.365 72.576 L802.87 72.576 L802.87 27.2059 L810.365 27.2059 L810.365 34.2544 Q812.714 30.1225 816.481 28.1376 Q820.249 26.1121 825.636 26.1121 Q826.406 26.1121 827.338 26.2337 Q828.27 26.3147 829.404 26.5172 L829.444 34.1734 Z" fill="#000000" fill-rule="nonzero" fill-opacity="1" /><path clip-path="url(#clip950)" d="M892.638 44.2197 Q895.272 45.1109 897.743 48.0275 Q900.254 50.9442 902.766 56.0483 L911.07 72.576 L902.28 72.576 L894.542 57.061 Q891.545 50.9847 888.709 48.9997 Q885.914 47.0148 881.053 47.0148 L872.141 47.0148 L872.141 72.576 L863.958 72.576 L863.958 12.096 L882.43 12.096 Q892.8 12.096 897.905 16.4305 Q903.009 20.7649 903.009 29.5149 Q903.009 35.2267 900.335 38.994 Q897.702 42.7613 892.638 44.2197 M872.141 18.8205 L872.141 40.2903 L882.43 40.2903 Q888.344 40.2903 891.342 37.5762 Q894.38 34.8216 894.38 29.5149 Q894.38 24.2082 891.342 21.5346 Q888.344 18.8205 882.43 18.8205 L872.141 18.8205 Z" fill="#000000" fill-rule="nonzero" fill-opacity="1" /><path clip-path="url(#clip950)" d="M956.359 48.0275 L956.359 51.6733 L922.089 51.6733 Q922.575 59.3701 926.707 63.421 Q930.879 67.4314 938.292 67.4314 Q942.586 67.4314 946.596 66.3781 Q950.647 65.3249 954.617 63.2184 L954.617 70.267 Q950.607 71.9684 946.394 72.8596 Q942.181 73.7508 937.847 73.7508 Q926.99 73.7508 920.63 67.4314 Q914.311 61.1119 914.311 50.3365 Q914.311 39.1965 920.306 32.6746 Q926.342 26.1121 936.55 26.1121 Q945.705 26.1121 951.012 32.0264 Q956.359 37.9003 956.359 48.0275 M948.905 45.84 Q948.824 39.7232 945.462 36.0774 Q942.14 32.4315 936.631 32.4315 Q930.393 32.4315 926.626 35.9558 Q922.899 39.4801 922.332 45.8805 L948.905 45.84 Z" fill="#000000" fill-rule="nonzero" fill-opacity="1" /><path clip-path="url(#clip950)" d="M998.448 49.3643 Q998.448 41.2625 995.086 36.8065 Q991.764 32.3505 985.728 32.3505 Q979.733 32.3505 976.371 36.8065 Q973.049 41.2625 973.049 49.3643 Q973.049 57.4256 976.371 61.8816 Q979.733 66.3376 985.728 66.3376 Q991.764 66.3376 995.086 61.8816 Q998.448 57.4256 998.448 49.3643 M1005.9 66.9452 Q1005.9 78.5308 1000.76 84.1616 Q995.612 89.8329 984.999 89.8329 Q981.07 89.8329 977.586 89.2252 Q974.102 88.6581 970.821 87.4428 L970.821 80.1917 Q974.102 81.9741 977.302 82.8248 Q980.503 83.6755 983.824 83.6755 Q991.156 83.6755 994.802 79.8271 Q998.448 76.0193 998.448 68.282 L998.448 64.5957 Q996.139 68.6061 992.534 70.5911 Q988.928 72.576 983.905 72.576 Q975.56 72.576 970.456 66.2161 Q965.352 59.8562 965.352 49.3643 Q965.352 38.832 970.456 32.472 Q975.56 26.1121 983.905 26.1121 Q988.928 26.1121 992.534 28.0971 Q996.139 30.082 998.448 34.0924 L998.448 27.2059 L1005.9 27.2059 L1005.9 66.9452 Z" fill="#000000" fill-rule="nonzero" fill-opacity="1" /><path clip-path="url(#clip950)" d="M1047.55 34.1734 Q1046.29 33.4443 1044.79 33.1202 Q1043.33 32.7556 1041.55 32.7556 Q1035.23 32.7556 1031.83 36.8875 Q1028.47 40.9789 1028.47 48.6757 L1028.47 72.576 L1020.97 72.576 L1020.97 27.2059 L1028.47 27.2059 L1028.47 34.2544 Q1030.81 30.1225 1034.58 28.1376 Q1038.35 26.1121 1043.74 26.1121 Q1044.51 26.1121 1045.44 26.2337 Q1046.37 26.3147 1047.5 26.5172 L1047.55 34.1734 Z" fill="#000000" fill-rule="nonzero" fill-opacity="1" /><path clip-path="url(#clip950)" d="M1092.35 48.0275 L1092.35 51.6733 L1058.08 51.6733 Q1058.56 59.3701 1062.7 63.421 Q1066.87 67.4314 1074.28 67.4314 Q1078.57 67.4314 1082.59 66.3781 Q1086.64 65.3249 1090.61 63.2184 L1090.61 70.267 Q1086.6 71.9684 1082.38 72.8596 Q1078.17 73.7508 1073.84 73.7508 Q1062.98 73.7508 1056.62 67.4314 Q1050.3 61.1119 1050.3 50.3365 Q1050.3 39.1965 1056.29 32.6746 Q1062.33 26.1121 1072.54 26.1121 Q1081.69 26.1121 1087 32.0264 Q1092.35 37.9003 1092.35 48.0275 M1084.89 45.84 Q1084.81 39.7232 1081.45 36.0774 Q1078.13 32.4315 1072.62 32.4315 Q1066.38 32.4315 1062.61 35.9558 Q1058.89 39.4801 1058.32 45.8805 L1084.89 45.84 Z" fill="#000000" fill-rule="nonzero" fill-opacity="1" /><path clip-path="url(#clip950)" d="M1133.51 28.5427 L1133.51 35.5912 Q1130.35 33.9709 1126.94 33.1607 Q1123.54 32.3505 1119.89 32.3505 Q1114.34 32.3505 1111.55 34.0519 Q1108.79 35.7533 1108.79 39.156 Q1108.79 41.7486 1110.78 43.2475 Q1112.76 44.7058 1118.76 46.0426 L1121.31 46.6097 Q1129.25 48.3111 1132.57 51.4303 Q1135.94 54.509 1135.94 60.0587 Q1135.94 66.3781 1130.91 70.0644 Q1125.93 73.7508 1117.18 73.7508 Q1113.53 73.7508 1109.56 73.0216 Q1105.63 72.3329 1101.26 70.9151 L1101.26 63.2184 Q1105.39 65.3654 1109.4 66.4591 Q1113.41 67.5124 1117.34 67.5124 Q1122.61 67.5124 1125.44 65.73 Q1128.28 63.9071 1128.28 60.6258 Q1128.28 57.5877 1126.21 55.9673 Q1124.19 54.3469 1117.26 52.8481 L1114.67 52.2405 Q1107.74 50.7821 1104.66 47.7845 Q1101.58 44.7463 1101.58 39.4801 Q1101.58 33.0797 1106.12 29.5959 Q1110.66 26.1121 1119 26.1121 Q1123.13 26.1121 1126.78 26.7198 Q1130.43 27.3274 1133.51 28.5427 Z" fill="#000000" fill-rule="nonzero" fill-opacity="1" /><path clip-path="url(#clip950)" d="M1176.73 28.5427 L1176.73 35.5912 Q1173.57 33.9709 1170.17 33.1607 Q1166.76 32.3505 1163.12 32.3505 Q1157.57 32.3505 1154.77 34.0519 Q1152.02 35.7533 1152.02 39.156 Q1152.02 41.7486 1154 43.2475 Q1155.99 44.7058 1161.98 46.0426 L1164.54 46.6097 Q1172.47 48.3111 1175.8 51.4303 Q1179.16 54.509 1179.16 60.0587 Q1179.16 66.3781 1174.14 70.0644 Q1169.15 73.7508 1160.4 73.7508 Q1156.76 73.7508 1152.79 73.0216 Q1148.86 72.3329 1144.48 70.9151 L1144.48 63.2184 Q1148.62 65.3654 1152.63 66.4591 Q1156.64 67.5124 1160.57 67.5124 Q1165.83 67.5124 1168.67 65.73 Q1171.5 63.9071 1171.5 60.6258 Q1171.5 57.5877 1169.44 55.9673 Q1167.41 54.3469 1160.48 52.8481 L1157.89 52.2405 Q1150.96 50.7821 1147.89 47.7845 Q1144.81 44.7463 1144.81 39.4801 Q1144.81 33.0797 1149.34 29.5959 Q1153.88 26.1121 1162.23 26.1121 Q1166.36 26.1121 1170 26.7198 Q1173.65 27.3274 1176.73 28.5427 Z" fill="#000000" fill-rule="nonzero" fill-opacity="1" /><path clip-path="url(#clip950)" d="M1191.03 27.2059 L1198.48 27.2059 L1198.48 72.576 L1191.03 72.576 L1191.03 27.2059 M1191.03 9.54393 L1198.48 9.54393 L1198.48 18.9825 L1191.03 18.9825 L1191.03 9.54393 Z" fill="#000000" fill-rule="nonzero" fill-opacity="1" /><path clip-path="url(#clip950)" d="M1231.66 32.4315 Q1225.66 32.4315 1222.18 37.1306 Q1218.7 41.7891 1218.7 49.9314 Q1218.7 58.0738 1222.14 62.7728 Q1225.62 67.4314 1231.66 67.4314 Q1237.61 67.4314 1241.1 62.7323 Q1244.58 58.0333 1244.58 49.9314 Q1244.58 41.8701 1241.1 37.1711 Q1237.61 32.4315 1231.66 32.4315 M1231.66 26.1121 Q1241.38 26.1121 1246.93 32.4315 Q1252.48 38.7509 1252.48 49.9314 Q1252.48 61.0714 1246.93 67.4314 Q1241.38 73.7508 1231.66 73.7508 Q1221.9 73.7508 1216.35 67.4314 Q1210.84 61.0714 1210.84 49.9314 Q1210.84 38.7509 1216.35 32.4315 Q1221.9 26.1121 1231.66 26.1121 Z" fill="#000000" fill-rule="nonzero" fill-opacity="1" /><path clip-path="url(#clip950)" d="M1302.55 45.1919 L1302.55 72.576 L1295.1 72.576 L1295.1 45.4349 Q1295.1 38.994 1292.58 35.7938 Q1290.07 32.5936 1285.05 32.5936 Q1279.01 32.5936 1275.53 36.4419 Q1272.05 40.2903 1272.05 46.9338 L1272.05 72.576 L1264.55 72.576 L1264.55 27.2059 L1272.05 27.2059 L1272.05 34.2544 Q1274.72 30.163 1278.33 28.1376 Q1281.97 26.1121 1286.71 26.1121 Q1294.53 26.1121 1298.54 30.9732 Q1302.55 35.7938 1302.55 45.1919 Z" fill="#000000" fill-rule="nonzero" fill-opacity="1" /><path clip-path="url(#clip950)" d="M1319.32 62.2867 L1327.87 62.2867 L1327.87 72.576 L1319.32 72.576 L1319.32 62.2867 M1319.32 29.6769 L1327.87 29.6769 L1327.87 39.9662 L1319.32 39.9662 L1319.32 29.6769 Z" fill="#000000" fill-rule="nonzero" fill-opacity="1" /><path clip-path="url(#clip950)" d="M1372.06 12.096 L1384.26 12.096 L1399.69 53.2532 L1415.21 12.096 L1427.4 12.096 L1427.4 72.576 L1419.42 72.576 L1419.42 19.4686 L1403.82 60.9499 L1395.6 60.9499 L1380 19.4686 L1380 72.576 L1372.06 72.576 L1372.06 12.096 Z" fill="#000000" fill-rule="nonzero" fill-opacity="1" /><path clip-path="url(#clip950)" d="M1472.32 44.2197 Q1474.96 45.1109 1477.43 48.0275 Q1479.94 50.9442 1482.45 56.0483 L1490.75 72.576 L1481.96 72.576 L1474.23 57.061 Q1471.23 50.9847 1468.39 48.9997 Q1465.6 47.0148 1460.74 47.0148 L1451.83 47.0148 L1451.83 72.576 L1443.64 72.576 L1443.64 12.096 L1462.11 12.096 Q1472.48 12.096 1477.59 16.4305 Q1482.69 20.7649 1482.69 29.5149 Q1482.69 35.2267 1480.02 38.994 Q1477.39 42.7613 1472.32 44.2197 M1451.83 18.8205 L1451.83 40.2903 L1462.11 40.2903 Q1468.03 40.2903 1471.03 37.5762 Q1474.06 34.8216 1474.06 29.5149 Q1474.06 24.2082 1471.03 21.5346 Q1468.03 18.8205 1462.11 18.8205 L1451.83 18.8205 Z" fill="#000000" fill-rule="nonzero" fill-opacity="1" /><path clip-path="url(#clip950)" d="M1518.14 20.1573 L1507.04 50.2555 L1529.28 50.2555 L1518.14 20.1573 M1513.52 12.096 L1522.8 12.096 L1545.85 72.576 L1537.34 72.576 L1531.83 57.061 L1504.57 57.061 L1499.06 72.576 L1490.43 72.576 L1513.52 12.096 Z" fill="#000000" fill-rule="nonzero" fill-opacity="1" /><path clip-path="url(#clip950)" d="M1554.68 12.096 L1592.92 12.096 L1592.92 18.9825 L1562.86 18.9825 L1562.86 36.8875 L1591.66 36.8875 L1591.66 43.7741 L1562.86 43.7741 L1562.86 65.6895 L1593.65 65.6895 L1593.65 72.576 L1554.68 72.576 L1554.68 12.096 Z" fill="#000000" fill-rule="nonzero" fill-opacity="1" /><path clip-path="url(#clip950)" d="M1629.74 9.54393 L1629.74 15.7418 L1622.61 15.7418 Q1618.6 15.7418 1617.02 17.3622 Q1615.48 18.9825 1615.48 23.1955 L1615.48 27.2059 L1627.76 27.2059 L1627.76 32.9987 L1615.48 32.9987 L1615.48 72.576 L1607.99 72.576 L1607.99 32.9987 L1600.86 32.9987 L1600.86 27.2059 L1607.99 27.2059 L1607.99 24.0462 Q1607.99 16.471 1611.51 13.0277 Q1615.04 9.54393 1622.69 9.54393 L1629.74 9.54393 Z" fill="#000000" fill-rule="nonzero" fill-opacity="1" /><path clip-path="url(#clip950)" d="M1657 27.2059 L1664.9 27.2059 L1679.08 65.2844 L1693.26 27.2059 L1701.16 27.2059 L1684.14 72.576 L1674.02 72.576 L1657 27.2059 Z" fill="#000000" fill-rule="nonzero" fill-opacity="1" /><path clip-path="url(#clip950)" d="M1740.37 28.5427 L1740.37 35.5912 Q1737.21 33.9709 1733.81 33.1607 Q1730.41 32.3505 1726.76 32.3505 Q1721.21 32.3505 1718.42 34.0519 Q1715.66 35.7533 1715.66 39.156 Q1715.66 41.7486 1717.65 43.2475 Q1719.63 44.7058 1725.63 46.0426 L1728.18 46.6097 Q1736.12 48.3111 1739.44 51.4303 Q1742.8 54.509 1742.8 60.0587 Q1742.8 66.3781 1737.78 70.0644 Q1732.8 73.7508 1724.05 73.7508 Q1720.4 73.7508 1716.43 73.0216 Q1712.5 72.3329 1708.13 70.9151 L1708.13 63.2184 Q1712.26 65.3654 1716.27 66.4591 Q1720.28 67.5124 1724.21 67.5124 Q1729.47 67.5124 1732.31 65.73 Q1735.15 63.9071 1735.15 60.6258 Q1735.15 57.5877 1733.08 55.9673 Q1731.05 54.3469 1724.13 52.8481 L1721.53 52.2405 Q1714.61 50.7821 1711.53 47.7845 Q1708.45 44.7463 1708.45 39.4801 Q1708.45 33.0797 1712.99 29.5959 Q1717.52 26.1121 1725.87 26.1121 Q1730 26.1121 1733.65 26.7198 Q1737.29 27.3274 1740.37 28.5427 Z" fill="#000000" fill-rule="nonzero" fill-opacity="1" /><path clip-path="url(#clip950)" d="M1781.37 12.096 L1789.55 12.096 L1789.55 36.8875 L1819.28 36.8875 L1819.28 12.096 L1827.47 12.096 L1827.47 72.576 L1819.28 72.576 L1819.28 43.7741 L1789.55 43.7741 L1789.55 72.576 L1781.37 72.576 L1781.37 12.096 Z" fill="#000000" fill-rule="nonzero" fill-opacity="1" /><path clip-path="url(#clip950)" d="M1861.01 32.4315 Q1855.01 32.4315 1851.53 37.1306 Q1848.04 41.7891 1848.04 49.9314 Q1848.04 58.0738 1851.49 62.7728 Q1854.97 67.4314 1861.01 67.4314 Q1866.96 67.4314 1870.45 62.7323 Q1873.93 58.0333 1873.93 49.9314 Q1873.93 41.8701 1870.45 37.1711 Q1866.96 32.4315 1861.01 32.4315 M1861.01 26.1121 Q1870.73 26.1121 1876.28 32.4315 Q1881.83 38.7509 1881.83 49.9314 Q1881.83 61.0714 1876.28 67.4314 Q1870.73 73.7508 1861.01 73.7508 Q1851.24 73.7508 1845.69 67.4314 Q1840.19 61.0714 1840.19 49.9314 Q1840.19 38.7509 1845.69 32.4315 Q1851.24 26.1121 1861.01 26.1121 Z" fill="#000000" fill-rule="nonzero" fill-opacity="1" /><path clip-path="url(#clip950)" d="M1920.47 34.1734 Q1919.22 33.4443 1917.72 33.1202 Q1916.26 32.7556 1914.48 32.7556 Q1908.16 32.7556 1904.76 36.8875 Q1901.39 40.9789 1901.39 48.6757 L1901.39 72.576 L1893.9 72.576 L1893.9 27.2059 L1901.39 27.2059 L1901.39 34.2544 Q1903.74 30.1225 1907.51 28.1376 Q1911.28 26.1121 1916.67 26.1121 Q1917.44 26.1121 1918.37 26.2337 Q1919.3 26.3147 1920.43 26.5172 L1920.47 34.1734 Z" fill="#000000" fill-rule="nonzero" fill-opacity="1" /><path clip-path="url(#clip950)" d="M1928.29 27.2059 L1935.75 27.2059 L1935.75 72.576 L1928.29 72.576 L1928.29 27.2059 M1928.29 9.54393 L1935.75 9.54393 L1935.75 18.9825 L1928.29 18.9825 L1928.29 9.54393 Z" fill="#000000" fill-rule="nonzero" fill-opacity="1" /><path clip-path="url(#clip950)" d="M1948.1 27.2059 L1983.51 27.2059 L1983.51 34.0114 L1955.47 66.6212 L1983.51 66.6212 L1983.51 72.576 L1947.09 72.576 L1947.09 65.7705 L1975.12 33.1607 L1948.1 33.1607 L1948.1 27.2059 Z" fill="#000000" fill-rule="nonzero" fill-opacity="1" /><path clip-path="url(#clip950)" d="M2012.47 32.4315 Q2006.48 32.4315 2002.99 37.1306 Q1999.51 41.7891 1999.51 49.9314 Q1999.51 58.0738 2002.95 62.7728 Q2006.43 67.4314 2012.47 67.4314 Q2018.43 67.4314 2021.91 62.7323 Q2025.39 58.0333 2025.39 49.9314 Q2025.39 41.8701 2021.91 37.1711 Q2018.43 32.4315 2012.47 32.4315 M2012.47 26.1121 Q2022.19 26.1121 2027.74 32.4315 Q2033.29 38.7509 2033.29 49.9314 Q2033.29 61.0714 2027.74 67.4314 Q2022.19 73.7508 2012.47 73.7508 Q2002.71 73.7508 1997.16 67.4314 Q1991.65 61.0714 1991.65 49.9314 Q1991.65 38.7509 1997.16 32.4315 Q2002.71 26.1121 2012.47 26.1121 Z" fill="#000000" fill-rule="nonzero" fill-opacity="1" /><path clip-path="url(#clip950)" d="M2083.36 45.1919 L2083.36 72.576 L2075.91 72.576 L2075.91 45.4349 Q2075.91 38.994 2073.4 35.7938 Q2070.88 32.5936 2065.86 32.5936 Q2059.83 32.5936 2056.34 36.4419 Q2052.86 40.2903 2052.86 46.9338 L2052.86 72.576 L2045.36 72.576 L2045.36 27.2059 L2052.86 27.2059 L2052.86 34.2544 Q2055.53 30.163 2059.14 28.1376 Q2062.78 26.1121 2067.52 26.1121 Q2075.34 26.1121 2079.35 30.9732 Q2083.36 35.7938 2083.36 45.1919 Z" fill="#000000" fill-rule="nonzero" fill-opacity="1" /><circle clip-path="url(#clip952)" cx="368.156" cy="160.256" r="14.4" fill="#009af9" fill-rule="evenodd" fill-opacity="1" stroke="#000000" stroke-opacity="1" stroke-width="3.2"/>
<circle clip-path="url(#clip952)" cx="574.598" cy="616.361" r="14.4" fill="#009af9" fill-rule="evenodd" fill-opacity="1" stroke="#000000" stroke-opacity="1" stroke-width="3.2"/>
<circle clip-path="url(#clip952)" cx="918.669" cy="977.328" r="14.4" fill="#009af9" fill-rule="evenodd" fill-opacity="1" stroke="#000000" stroke-opacity="1" stroke-width="3.2"/>
<circle clip-path="url(#clip952)" cx="1262.74" cy="1174.48" r="14.4" fill="#009af9" fill-rule="evenodd" fill-opacity="1" stroke="#000000" stroke-opacity="1" stroke-width="3.2"/>
<circle clip-path="url(#clip952)" cx="1606.81" cy="1322.31" r="14.4" fill="#009af9" fill-rule="evenodd" fill-opacity="1" stroke="#000000" stroke-opacity="1" stroke-width="3.2"/>
<circle clip-path="url(#clip952)" cx="2294.95" cy="1308.18" r="14.4" fill="#009af9" fill-rule="evenodd" fill-opacity="1" stroke="#000000" stroke-opacity="1" stroke-width="3.2"/>
<circle clip-path="url(#clip952)" cx="368.156" cy="378.029" r="14.4" fill="#e26f46" fill-rule="evenodd" fill-opacity="1" stroke="#000000" stroke-opacity="1" stroke-width="3.2"/>
<circle clip-path="url(#clip952)" cx="574.598" cy="726.796" r="14.4" fill="#e26f46" fill-rule="evenodd" fill-opacity="1" stroke="#000000" stroke-opacity="1" stroke-width="3.2"/>
<circle clip-path="url(#clip952)" cx="918.669" cy="1040.93" r="14.4" fill="#e26f46" fill-rule="evenodd" fill-opacity="1" stroke="#000000" stroke-opacity="1" stroke-width="3.2"/>
<circle clip-path="url(#clip952)" cx="1262.74" cy="1234.41" r="14.4" fill="#e26f46" fill-rule="evenodd" fill-opacity="1" stroke="#000000" stroke-opacity="1" stroke-width="3.2"/>
<circle clip-path="url(#clip952)" cx="1606.81" cy="1386.4" r="14.4" fill="#e26f46" fill-rule="evenodd" fill-opacity="1" stroke="#000000" stroke-opacity="1" stroke-width="3.2"/>
<circle clip-path="url(#clip952)" cx="2294.95" cy="1305.02" r="14.4" fill="#e26f46" fill-rule="evenodd" fill-opacity="1" stroke="#000000" stroke-opacity="1" stroke-width="3.2"/>
<path clip-path="url(#clip950)" d="M1745.02 322.316 L2284.68 322.316 L2284.68 166.796 L1745.02 166.796  Z" fill="#ffffff" fill-rule="evenodd" fill-opacity="1"/>
<polyline clip-path="url(#clip950)" style="stroke:#000000; stroke-linecap:round; stroke-linejoin:round; stroke-width:4; stroke-opacity:1; fill:none" points="1745.02,322.316 2284.68,322.316 2284.68,166.796 1745.02,166.796 1745.02,322.316 "/>
<circle clip-path="url(#clip950)" cx="1835.79" cy="218.636" r="20.48" fill="#009af9" fill-rule="evenodd" fill-opacity="1" stroke="#000000" stroke-opacity="1" stroke-width="4.55111"/>
<path clip-path="url(#clip950)" d="M1933.97 202.629 L1933.97 209.99 L1942.75 209.99 L1942.75 213.3 L1933.97 213.3 L1933.97 227.374 Q1933.97 230.545 1934.83 231.448 Q1935.71 232.351 1938.37 232.351 L1942.75 232.351 L1942.75 235.916 L1938.37 235.916 Q1933.44 235.916 1931.57 234.087 Q1929.69 232.235 1929.69 227.374 L1929.69 213.3 L1926.57 213.3 L1926.57 209.99 L1929.69 209.99 L1929.69 202.629 L1933.97 202.629 Z" fill="#000000" fill-rule="nonzero" fill-opacity="1" /><path clip-path="url(#clip950)" d="M1963.37 213.971 Q1962.66 213.555 1961.8 213.37 Q1960.97 213.161 1959.95 213.161 Q1956.34 213.161 1954.39 215.522 Q1952.47 217.86 1952.47 222.258 L1952.47 235.916 L1948.19 235.916 L1948.19 209.99 L1952.47 209.99 L1952.47 214.018 Q1953.81 211.657 1955.97 210.522 Q1958.12 209.365 1961.2 209.365 Q1961.64 209.365 1962.17 209.434 Q1962.7 209.481 1963.35 209.596 L1963.37 213.971 Z" fill="#000000" fill-rule="nonzero" fill-opacity="1" /><path clip-path="url(#clip950)" d="M1979.62 222.883 Q1974.46 222.883 1972.47 224.064 Q1970.48 225.244 1970.48 228.092 Q1970.48 230.36 1971.96 231.703 Q1973.47 233.022 1976.03 233.022 Q1979.58 233.022 1981.71 230.522 Q1983.86 227.999 1983.86 223.832 L1983.86 222.883 L1979.62 222.883 M1988.12 221.124 L1988.12 235.916 L1983.86 235.916 L1983.86 231.981 Q1982.4 234.342 1980.22 235.476 Q1978.05 236.587 1974.9 236.587 Q1970.92 236.587 1968.56 234.365 Q1966.22 232.119 1966.22 228.369 Q1966.22 223.994 1969.14 221.772 Q1972.08 219.55 1977.89 219.55 L1983.86 219.55 L1983.86 219.133 Q1983.86 216.194 1981.91 214.596 Q1979.99 212.976 1976.5 212.976 Q1974.28 212.976 1972.17 213.508 Q1970.06 214.041 1968.12 215.106 L1968.12 211.17 Q1970.46 210.268 1972.66 209.828 Q1974.85 209.365 1976.94 209.365 Q1982.56 209.365 1985.34 212.282 Q1988.12 215.198 1988.12 221.124 Z" fill="#000000" fill-rule="nonzero" fill-opacity="1" /><path clip-path="url(#clip950)" d="M1996.89 209.99 L2001.15 209.99 L2001.15 235.916 L1996.89 235.916 L1996.89 209.99 M1996.89 199.897 L2001.15 199.897 L2001.15 205.291 L1996.89 205.291 L1996.89 199.897 Z" fill="#000000" fill-rule="nonzero" fill-opacity="1" /><path clip-path="url(#clip950)" d="M2031.61 220.268 L2031.61 235.916 L2027.35 235.916 L2027.35 220.407 Q2027.35 216.726 2025.92 214.897 Q2024.48 213.069 2021.61 213.069 Q2018.16 213.069 2016.17 215.268 Q2014.18 217.467 2014.18 221.263 L2014.18 235.916 L2009.9 235.916 L2009.9 209.99 L2014.18 209.99 L2014.18 214.018 Q2015.71 211.68 2017.77 210.522 Q2019.85 209.365 2022.56 209.365 Q2027.03 209.365 2029.32 212.143 Q2031.61 214.897 2031.61 220.268 Z" fill="#000000" fill-rule="nonzero" fill-opacity="1" /><path clip-path="url(#clip950)" d="M2040.11 209.99 L2044.37 209.99 L2044.37 235.916 L2040.11 235.916 L2040.11 209.99 M2040.11 199.897 L2044.37 199.897 L2044.37 205.291 L2040.11 205.291 L2040.11 199.897 Z" fill="#000000" fill-rule="nonzero" fill-opacity="1" /><path clip-path="url(#clip950)" d="M2074.83 220.268 L2074.83 235.916 L2070.57 235.916 L2070.57 220.407 Q2070.57 216.726 2069.14 214.897 Q2067.7 213.069 2064.83 213.069 Q2061.38 213.069 2059.39 215.268 Q2057.4 217.467 2057.4 221.263 L2057.4 235.916 L2053.12 235.916 L2053.12 209.99 L2057.4 209.99 L2057.4 214.018 Q2058.93 211.68 2060.99 210.522 Q2063.07 209.365 2065.78 209.365 Q2070.25 209.365 2072.54 212.143 Q2074.83 214.897 2074.83 220.268 Z" fill="#000000" fill-rule="nonzero" fill-opacity="1" /><path clip-path="url(#clip950)" d="M2100.39 222.652 Q2100.39 218.022 2098.46 215.476 Q2096.57 212.93 2093.12 212.93 Q2089.69 212.93 2087.77 215.476 Q2085.87 218.022 2085.87 222.652 Q2085.87 227.258 2087.77 229.805 Q2089.69 232.351 2093.12 232.351 Q2096.57 232.351 2098.46 229.805 Q2100.39 227.258 2100.39 222.652 M2104.65 232.698 Q2104.65 239.318 2101.71 242.536 Q2098.77 245.777 2092.7 245.777 Q2090.46 245.777 2088.46 245.43 Q2086.47 245.105 2084.6 244.411 L2084.6 240.268 Q2086.47 241.286 2088.3 241.772 Q2090.13 242.258 2092.03 242.258 Q2096.22 242.258 2098.3 240.059 Q2100.39 237.883 2100.39 233.462 L2100.39 231.356 Q2099.07 233.647 2097.01 234.781 Q2094.95 235.916 2092.08 235.916 Q2087.31 235.916 2084.39 232.281 Q2081.47 228.647 2081.47 222.652 Q2081.47 216.633 2084.39 212.999 Q2087.31 209.365 2092.08 209.365 Q2094.95 209.365 2097.01 210.499 Q2099.07 211.633 2100.39 213.925 L2100.39 209.99 L2104.65 209.99 L2104.65 232.698 Z" fill="#000000" fill-rule="nonzero" fill-opacity="1" /><path clip-path="url(#clip950)" d="M2126.33 221.032 L2138.81 221.032 L2138.81 224.828 L2126.33 224.828 L2126.33 221.032 Z" fill="#000000" fill-rule="nonzero" fill-opacity="1" /><path clip-path="url(#clip950)" d="M2162.08 231.981 L2169.71 231.981 L2169.71 205.615 L2161.4 207.282 L2161.4 203.022 L2169.67 201.356 L2174.34 201.356 L2174.34 231.981 L2181.98 231.981 L2181.98 235.916 L2162.08 235.916 L2162.08 231.981 Z" fill="#000000" fill-rule="nonzero" fill-opacity="1" /><path clip-path="url(#clip950)" d="M2191.47 201.356 L2209.83 201.356 L2209.83 205.291 L2195.76 205.291 L2195.76 213.763 Q2196.77 213.416 2197.79 213.254 Q2198.81 213.069 2199.83 213.069 Q2205.62 213.069 2209 216.24 Q2212.38 219.411 2212.38 224.828 Q2212.38 230.406 2208.9 233.508 Q2205.43 236.587 2199.11 236.587 Q2196.94 236.587 2194.67 236.217 Q2192.42 235.846 2190.02 235.106 L2190.02 230.406 Q2192.1 231.541 2194.32 232.096 Q2196.54 232.652 2199.02 232.652 Q2203.02 232.652 2205.36 230.545 Q2207.7 228.439 2207.7 224.828 Q2207.7 221.217 2205.36 219.11 Q2203.02 217.004 2199.02 217.004 Q2197.14 217.004 2195.27 217.42 Q2193.42 217.837 2191.47 218.717 L2191.47 201.356 Z" fill="#000000" fill-rule="nonzero" fill-opacity="1" /><circle clip-path="url(#clip950)" cx="1835.79" cy="270.476" r="20.48" fill="#e26f46" fill-rule="evenodd" fill-opacity="1" stroke="#000000" stroke-opacity="1" stroke-width="4.55111"/>
<path clip-path="url(#clip950)" d="M1926.57 261.83 L1931.08 261.83 L1939.18 283.589 L1947.29 261.83 L1951.8 261.83 L1942.08 287.756 L1936.29 287.756 L1926.57 261.83 Z" fill="#000000" fill-rule="nonzero" fill-opacity="1" /><path clip-path="url(#clip950)" d="M1969.46 274.723 Q1964.3 274.723 1962.31 275.904 Q1960.32 277.084 1960.32 279.932 Q1960.32 282.2 1961.8 283.543 Q1963.3 284.862 1965.87 284.862 Q1969.41 284.862 1971.54 282.362 Q1973.7 279.839 1973.7 275.672 L1973.7 274.723 L1969.46 274.723 M1977.96 272.964 L1977.96 287.756 L1973.7 287.756 L1973.7 283.821 Q1972.24 286.182 1970.06 287.316 Q1967.89 288.427 1964.74 288.427 Q1960.76 288.427 1958.4 286.205 Q1956.06 283.959 1956.06 280.209 Q1956.06 275.834 1958.97 273.612 Q1961.91 271.39 1967.72 271.39 L1973.7 271.39 L1973.7 270.973 Q1973.7 268.034 1971.75 266.436 Q1969.83 264.816 1966.34 264.816 Q1964.11 264.816 1962.01 265.348 Q1959.9 265.881 1957.96 266.946 L1957.96 263.01 Q1960.29 262.108 1962.49 261.668 Q1964.69 261.205 1966.78 261.205 Q1972.4 261.205 1975.18 264.122 Q1977.96 267.038 1977.96 272.964 Z" fill="#000000" fill-rule="nonzero" fill-opacity="1" /><path clip-path="url(#clip950)" d="M1986.73 251.737 L1990.99 251.737 L1990.99 287.756 L1986.73 287.756 L1986.73 251.737 Z" fill="#000000" fill-rule="nonzero" fill-opacity="1" /><path clip-path="url(#clip950)" d="M1999.9 261.83 L2004.16 261.83 L2004.16 287.756 L1999.9 287.756 L1999.9 261.83 M1999.9 251.737 L2004.16 251.737 L2004.16 257.131 L1999.9 257.131 L1999.9 251.737 Z" fill="#000000" fill-rule="nonzero" fill-opacity="1" /><path clip-path="url(#clip950)" d="M2030.13 265.765 L2030.13 251.737 L2034.39 251.737 L2034.39 287.756 L2030.13 287.756 L2030.13 283.867 Q2028.79 286.182 2026.73 287.316 Q2024.69 288.427 2021.82 288.427 Q2017.12 288.427 2014.16 284.677 Q2011.22 280.927 2011.22 274.816 Q2011.22 268.705 2014.16 264.955 Q2017.12 261.205 2021.82 261.205 Q2024.69 261.205 2026.73 262.339 Q2028.79 263.45 2030.13 265.765 M2015.62 274.816 Q2015.62 279.515 2017.54 282.2 Q2019.48 284.862 2022.86 284.862 Q2026.24 284.862 2028.19 282.2 Q2030.13 279.515 2030.13 274.816 Q2030.13 270.117 2028.19 267.455 Q2026.24 264.77 2022.86 264.77 Q2019.48 264.77 2017.54 267.455 Q2015.62 270.117 2015.62 274.816 Z" fill="#000000" fill-rule="nonzero" fill-opacity="1" /><path clip-path="url(#clip950)" d="M2054.95 274.723 Q2049.78 274.723 2047.79 275.904 Q2045.8 277.084 2045.8 279.932 Q2045.8 282.2 2047.28 283.543 Q2048.79 284.862 2051.36 284.862 Q2054.9 284.862 2057.03 282.362 Q2059.18 279.839 2059.18 275.672 L2059.18 274.723 L2054.95 274.723 M2063.44 272.964 L2063.44 287.756 L2059.18 287.756 L2059.18 283.821 Q2057.72 286.182 2055.55 287.316 Q2053.37 288.427 2050.22 288.427 Q2046.24 288.427 2043.88 286.205 Q2041.54 283.959 2041.54 280.209 Q2041.54 275.834 2044.46 273.612 Q2047.4 271.39 2053.21 271.39 L2059.18 271.39 L2059.18 270.973 Q2059.18 268.034 2057.24 266.436 Q2055.32 264.816 2051.82 264.816 Q2049.6 264.816 2047.49 265.348 Q2045.39 265.881 2043.44 266.946 L2043.44 263.01 Q2045.78 262.108 2047.98 261.668 Q2050.18 261.205 2052.26 261.205 Q2057.89 261.205 2060.66 264.122 Q2063.44 267.038 2063.44 272.964 Z" fill="#000000" fill-rule="nonzero" fill-opacity="1" /><path clip-path="url(#clip950)" d="M2076.43 254.469 L2076.43 261.83 L2085.2 261.83 L2085.2 265.14 L2076.43 265.14 L2076.43 279.214 Q2076.43 282.385 2077.28 283.288 Q2078.16 284.191 2080.83 284.191 L2085.2 284.191 L2085.2 287.756 L2080.83 287.756 Q2075.9 287.756 2074.02 285.927 Q2072.15 284.075 2072.15 279.214 L2072.15 265.14 L2069.02 265.14 L2069.02 261.83 L2072.15 261.83 L2072.15 254.469 L2076.43 254.469 Z" fill="#000000" fill-rule="nonzero" fill-opacity="1" /><path clip-path="url(#clip950)" d="M2090.8 261.83 L2095.06 261.83 L2095.06 287.756 L2090.8 287.756 L2090.8 261.83 M2090.8 251.737 L2095.06 251.737 L2095.06 257.131 L2090.8 257.131 L2090.8 251.737 Z" fill="#000000" fill-rule="nonzero" fill-opacity="1" /><path clip-path="url(#clip950)" d="M2114.02 264.816 Q2110.59 264.816 2108.6 267.501 Q2106.61 270.163 2106.61 274.816 Q2106.61 279.469 2108.58 282.154 Q2110.57 284.816 2114.02 284.816 Q2117.42 284.816 2119.41 282.131 Q2121.4 279.446 2121.4 274.816 Q2121.4 270.21 2119.41 267.524 Q2117.42 264.816 2114.02 264.816 M2114.02 261.205 Q2119.58 261.205 2122.75 264.816 Q2125.92 268.427 2125.92 274.816 Q2125.92 281.182 2122.75 284.816 Q2119.58 288.427 2114.02 288.427 Q2108.44 288.427 2105.27 284.816 Q2102.12 281.182 2102.12 274.816 Q2102.12 268.427 2105.27 264.816 Q2108.44 261.205 2114.02 261.205 Z" fill="#000000" fill-rule="nonzero" fill-opacity="1" /><path clip-path="url(#clip950)" d="M2154.53 272.108 L2154.53 287.756 L2150.27 287.756 L2150.27 272.247 Q2150.27 268.566 2148.83 266.737 Q2147.4 264.909 2144.53 264.909 Q2141.08 264.909 2139.09 267.108 Q2137.1 269.307 2137.1 273.103 L2137.1 287.756 L2132.82 287.756 L2132.82 261.83 L2137.1 261.83 L2137.1 265.858 Q2138.63 263.52 2140.69 262.362 Q2142.77 261.205 2145.48 261.205 Q2149.95 261.205 2152.24 263.983 Q2154.53 266.737 2154.53 272.108 Z" fill="#000000" fill-rule="nonzero" fill-opacity="1" /><path clip-path="url(#clip950)" d="M2175.94 272.872 L2188.42 272.872 L2188.42 276.668 L2175.94 276.668 L2175.94 272.872 Z" fill="#000000" fill-rule="nonzero" fill-opacity="1" /><path clip-path="url(#clip950)" d="M2211.68 283.821 L2219.32 283.821 L2219.32 257.455 L2211.01 259.122 L2211.01 254.862 L2219.27 253.196 L2223.95 253.196 L2223.95 283.821 L2231.59 283.821 L2231.59 287.756 L2211.68 287.756 L2211.68 283.821 Z" fill="#000000" fill-rule="nonzero" fill-opacity="1" /><path clip-path="url(#clip950)" d="M2241.08 253.196 L2259.44 253.196 L2259.44 257.131 L2245.36 257.131 L2245.36 265.603 Q2246.38 265.256 2247.4 265.094 Q2248.42 264.909 2249.44 264.909 Q2255.22 264.909 2258.6 268.08 Q2261.98 271.251 2261.98 276.668 Q2261.98 282.246 2258.51 285.348 Q2255.04 288.427 2248.72 288.427 Q2246.54 288.427 2244.27 288.057 Q2242.03 287.686 2239.62 286.946 L2239.62 282.246 Q2241.7 283.381 2243.93 283.936 Q2246.15 284.492 2248.63 284.492 Q2252.63 284.492 2254.97 282.385 Q2257.31 280.279 2257.31 276.668 Q2257.31 273.057 2254.97 270.95 Q2252.63 268.844 2248.63 268.844 Q2246.75 268.844 2244.88 269.26 Q2243.02 269.677 2241.08 270.557 L2241.08 253.196 Z" fill="#000000" fill-rule="nonzero" fill-opacity="1" /></svg>
